<?xml version="1.0" encoding="UTF-8" standalone="no"?>
<!DOCTYPE svg PUBLIC "-//W3C//DTD SVG 1.1//EN"
 "http://www.w3.org/Graphics/SVG/1.1/DTD/svg11.dtd">
<!-- Generated by graphviz version 2.43.0 (0)
 -->
<!-- Title: storages::postgres::io::BufferFormatter&lt; Macaddr8 &gt; Pages: 1 -->
<svg width="169pt" height="203pt"
 viewBox="0.00 0.00 169.00 203.00" xmlns="http://www.w3.org/2000/svg" xmlns:xlink="http://www.w3.org/1999/xlink">
<g id="graph0" class="graph" transform="scale(1 1) rotate(0) translate(4 199)">
<title>storages::postgres::io::BufferFormatter&lt; Macaddr8 &gt;</title>
<!-- Node1 -->
<g id="Node000001" class="node">
<title>Node1</title>
<g id="a_Node000001"><a xlink:title="Binary formatter for utils::macaddr:Macaddr8.">
<polygon fill="#999999" stroke="#666666" points="138,-41 23,-41 23,0 138,0 138,-41"/>
<text text-anchor="start" x="31" y="-29" font-family="Helvetica,sans-Serif" font-size="10.00">storages::postgres</text>
<text text-anchor="start" x="31" y="-18" font-family="Helvetica,sans-Serif" font-size="10.00">::io::BufferFormatter</text>
<text text-anchor="middle" x="80.5" y="-7" font-family="Helvetica,sans-Serif" font-size="10.00">&lt; Macaddr8 &gt;</text>
</a>
</g>
</g>
<!-- Node2 -->
<g id="Node000002" class="node">
<title>Node2</title>
<g id="a_Node000002"><a xlink:title=" ">
<polygon fill="white" stroke="#bfbfbf" points="161,-118 0,-118 0,-77 161,-77 161,-118"/>
<text text-anchor="start" x="8" y="-106" font-family="Helvetica,sans-Serif" font-size="10.00">storages::postgres</text>
<text text-anchor="start" x="8" y="-95" font-family="Helvetica,sans-Serif" font-size="10.00">::io::detail::MacaddrFormatter</text>
<text text-anchor="middle" x="80.5" y="-84" font-family="Helvetica,sans-Serif" font-size="10.00">Base&lt; Macaddr8 &gt;</text>
</a>
</g>
</g>
<!-- Node2&#45;&gt;Node1 -->
<g id="edge1_Node000001_Node000002" class="edge">
<title>Node2&#45;&gt;Node1</title>
<g id="a_edge1_Node000001_Node000002"><a xlink:title=" ">
<path fill="none" stroke="#63b8ff" d="M80.5,-66.69C80.5,-58.08 80.5,-48.9 80.5,-41.07"/>
<polygon fill="#63b8ff" stroke="#63b8ff" points="77,-66.79 80.5,-76.79 84,-66.79 77,-66.79"/>
</a>
</g>
</g>
<!-- Node3 -->
<g id="Node000003" class="node">
<title>Node3</title>
<g id="a_Node000003"><a xlink:title=" ">
<polygon fill="white" stroke="#bfbfbf" points="155,-195 6,-195 6,-154 155,-154 155,-195"/>
<text text-anchor="start" x="14" y="-183" font-family="Helvetica,sans-Serif" font-size="10.00">storages::postgres</text>
<text text-anchor="start" x="14" y="-172" font-family="Helvetica,sans-Serif" font-size="10.00">::io::detail::BufferFormatter</text>
<text text-anchor="middle" x="80.5" y="-161" font-family="Helvetica,sans-Serif" font-size="10.00">Base&lt; T &gt;</text>
</a>
</g>
</g>
<!-- Node3&#45;&gt;Node2 -->
<g id="edge2_Node000002_Node000003" class="edge">
<title>Node3&#45;&gt;Node2</title>
<g id="a_edge2_Node000002_Node000003"><a xlink:title=" ">
<path fill="none" stroke="#63b8ff" d="M80.5,-143.69C80.5,-135.08 80.5,-125.9 80.5,-118.07"/>
<polygon fill="#63b8ff" stroke="#63b8ff" points="77,-143.79 80.5,-153.79 84,-143.79 77,-143.79"/>
</a>
</g>
</g>
</g>
</svg>
