<?xml version="1.0" encoding="UTF-8" standalone="no"?>
<!DOCTYPE svg PUBLIC "-//W3C//DTD SVG 1.1//EN"
 "http://www.w3.org/Graphics/SVG/1.1/DTD/svg11.dtd">
<!-- Generated by graphviz version 2.43.0 (0)
 -->
<!-- Title: userver/concurrent/async_event_channel.hpp Pages: 1 -->
<svg width="690pt" height="225pt"
 viewBox="0.00 0.00 689.50 225.00" xmlns="http://www.w3.org/2000/svg" xmlns:xlink="http://www.w3.org/1999/xlink">
<g id="graph0" class="graph" transform="scale(1 1) rotate(0) translate(4 221)">
<title>userver/concurrent/async_event_channel.hpp</title>
<!-- Node1 -->
<g id="Node000001" class="node">
<title>Node1</title>
<g id="a_Node000001"><a xlink:title=" ">
<polygon fill="#999999" stroke="#666666" points="423.5,-217 277.5,-217 277.5,-187 423.5,-187 423.5,-217"/>
<text text-anchor="start" x="285.5" y="-205" font-family="Helvetica,sans-Serif" font-size="10.00">userver/concurrent</text>
<text text-anchor="middle" x="350.5" y="-194" font-family="Helvetica,sans-Serif" font-size="10.00">/async_event_channel.hpp</text>
</a>
</g>
</g>
<!-- Node2 -->
<g id="Node000002" class="node">
<title>Node2</title>
<g id="a_Node000002"><a xlink:href="../../df/d56/caching__component__base_8hpp.html" target="_top" xlink:title="Base class for caching components.">
<polygon fill="white" stroke="#666666" points="251.5,-151 125.5,-151 125.5,-121 251.5,-121 251.5,-151"/>
<text text-anchor="start" x="133.5" y="-139" font-family="Helvetica,sans-Serif" font-size="10.00">userver/cache/caching</text>
<text text-anchor="middle" x="188.5" y="-128" font-family="Helvetica,sans-Serif" font-size="10.00">_component_base.hpp</text>
</a>
</g>
</g>
<!-- Node1&#45;&gt;Node2 -->
<g id="edge1_Node000001_Node000002" class="edge">
<title>Node1&#45;&gt;Node2</title>
<g id="a_edge1_Node000001_Node000002"><a xlink:title=" ">
<path fill="none" stroke="#63b8ff" d="M305.41,-183.19C279.69,-173.02 247.9,-160.47 223.97,-151.01"/>
<polygon fill="#63b8ff" stroke="#63b8ff" points="304.36,-186.54 314.95,-186.95 306.93,-180.03 304.36,-186.54"/>
</a>
</g>
</g>
<!-- Node6 -->
<g id="Node000006" class="node">
<title>Node6</title>
<g id="a_Node000006"><a xlink:href="../../d3/d71/conflated__event__channel_8hpp_source.html" target="_top" xlink:title=" ">
<polygon fill="white" stroke="#666666" points="431.5,-151 269.5,-151 269.5,-121 431.5,-121 431.5,-151"/>
<text text-anchor="start" x="277.5" y="-139" font-family="Helvetica,sans-Serif" font-size="10.00">userver/concurrent</text>
<text text-anchor="middle" x="350.5" y="-128" font-family="Helvetica,sans-Serif" font-size="10.00">/conflated_event_channel.hpp</text>
</a>
</g>
</g>
<!-- Node1&#45;&gt;Node6 -->
<g id="edge5_Node000001_Node000006" class="edge">
<title>Node1&#45;&gt;Node6</title>
<g id="a_edge5_Node000001_Node000006"><a xlink:title=" ">
<path fill="none" stroke="#63b8ff" d="M350.5,-176.54C350.5,-167.96 350.5,-158.61 350.5,-151.16"/>
<polygon fill="#63b8ff" stroke="#63b8ff" points="347,-176.8 350.5,-186.8 354,-176.8 347,-176.8"/>
</a>
</g>
</g>
<!-- Node7 -->
<g id="Node000007" class="node">
<title>Node7</title>
<g id="a_Node000007"><a xlink:href="../../d9/d5e/processor_8hpp.html" target="_top" xlink:title="A client that allows to subscribe to OS signals SIGUSR1 andSIGUSR2`.">
<polygon fill="white" stroke="#666666" points="557,-151 450,-151 450,-121 557,-121 557,-151"/>
<text text-anchor="start" x="458" y="-139" font-family="Helvetica,sans-Serif" font-size="10.00">userver/os_signals</text>
<text text-anchor="middle" x="503.5" y="-128" font-family="Helvetica,sans-Serif" font-size="10.00">/processor.hpp</text>
</a>
</g>
</g>
<!-- Node1&#45;&gt;Node7 -->
<g id="edge6_Node000001_Node000007" class="edge">
<title>Node1&#45;&gt;Node7</title>
<g id="a_edge6_Node000001_Node000007"><a xlink:title=" ">
<path fill="none" stroke="#63b8ff" d="M393.4,-183.05C417.64,-172.91 447.5,-160.43 470,-151.01"/>
<polygon fill="#63b8ff" stroke="#63b8ff" points="391.95,-179.87 384.08,-186.95 394.65,-186.32 391.95,-179.87"/>
</a>
</g>
</g>
<!-- Node3 -->
<g id="Node000003" class="node">
<title>Node3</title>
<g id="a_Node000003"><a xlink:href="../../dd/d6c/base__mongo__cache_8hpp.html" target="_top" xlink:title="Base class for all caches polling mongo collection">
<polygon fill="white" stroke="#666666" points="111,-85 0,-85 0,-55 111,-55 111,-85"/>
<text text-anchor="start" x="8" y="-73" font-family="Helvetica,sans-Serif" font-size="10.00">userver/cache/base</text>
<text text-anchor="middle" x="55.5" y="-62" font-family="Helvetica,sans-Serif" font-size="10.00">_mongo_cache.hpp</text>
</a>
</g>
</g>
<!-- Node2&#45;&gt;Node3 -->
<g id="edge2_Node000002_Node000003" class="edge">
<title>Node2&#45;&gt;Node3</title>
<g id="a_edge2_Node000002_Node000003"><a xlink:title=" ">
<path fill="none" stroke="#63b8ff" d="M150.08,-116.51C129.22,-106.47 103.83,-94.26 84.62,-85.01"/>
<polygon fill="#63b8ff" stroke="#63b8ff" points="148.78,-119.77 159.31,-120.95 151.82,-113.46 148.78,-119.77"/>
</a>
</g>
</g>
<!-- Node4 -->
<g id="Node000004" class="node">
<title>Node4</title>
<g id="a_Node000004"><a xlink:href="../../dc/df7/base__postgres__cache_8hpp.html" target="_top" xlink:title="Caching component for PostgreSQL. See Caching Component for PostgreSQL.">
<polygon fill="white" stroke="#666666" points="248,-85 129,-85 129,-55 248,-55 248,-85"/>
<text text-anchor="start" x="137" y="-73" font-family="Helvetica,sans-Serif" font-size="10.00">userver/cache/base</text>
<text text-anchor="middle" x="188.5" y="-62" font-family="Helvetica,sans-Serif" font-size="10.00">_postgres_cache.hpp</text>
</a>
</g>
</g>
<!-- Node2&#45;&gt;Node4 -->
<g id="edge3_Node000002_Node000004" class="edge">
<title>Node2&#45;&gt;Node4</title>
<g id="a_edge3_Node000002_Node000004"><a xlink:title=" ">
<path fill="none" stroke="#63b8ff" d="M188.5,-110.54C188.5,-101.96 188.5,-92.61 188.5,-85.16"/>
<polygon fill="#63b8ff" stroke="#63b8ff" points="185,-110.8 188.5,-120.8 192,-110.8 185,-110.8"/>
</a>
</g>
</g>
<!-- Node5 -->
<g id="Node000005" class="node">
<title>Node5</title>
<g id="a_Node000005"><a xlink:href="../../db/df3/core_2include_2userver_2dynamic__config_2updater_2component_8hpp.html" target="_top" xlink:title="Component that does a periodic update of runtime configs.">
<polygon fill="white" stroke="#666666" points="402.5,-85 266.5,-85 266.5,-55 402.5,-55 402.5,-85"/>
<text text-anchor="start" x="274.5" y="-73" font-family="Helvetica,sans-Serif" font-size="10.00">userver/dynamic_config</text>
<text text-anchor="middle" x="334.5" y="-62" font-family="Helvetica,sans-Serif" font-size="10.00">/updater/component.hpp</text>
</a>
</g>
</g>
<!-- Node2&#45;&gt;Node5 -->
<g id="edge4_Node000002_Node000005" class="edge">
<title>Node2&#45;&gt;Node5</title>
<g id="a_edge4_Node000002_Node000005"><a xlink:title=" ">
<path fill="none" stroke="#63b8ff" d="M229.75,-116.92C252.82,-106.8 281.16,-94.38 302.53,-85.01"/>
<polygon fill="#63b8ff" stroke="#63b8ff" points="228.29,-113.73 220.54,-120.95 231.1,-120.15 228.29,-113.73"/>
</a>
</g>
</g>
<!-- Node8 -->
<g id="Node000008" class="node">
<title>Node8</title>
<g id="a_Node000008"><a xlink:href="../../d5/dde/core_2include_2userver_2os__signals_2component_8hpp.html" target="_top" xlink:title="A component for os_signals::Processor.">
<polygon fill="white" stroke="#666666" points="543,-85 436,-85 436,-55 543,-55 543,-85"/>
<text text-anchor="start" x="444" y="-73" font-family="Helvetica,sans-Serif" font-size="10.00">userver/os_signals</text>
<text text-anchor="middle" x="489.5" y="-62" font-family="Helvetica,sans-Serif" font-size="10.00">/component.hpp</text>
</a>
</g>
</g>
<!-- Node7&#45;&gt;Node8 -->
<g id="edge7_Node000007_Node000008" class="edge">
<title>Node7&#45;&gt;Node8</title>
<g id="a_edge7_Node000007_Node000008"><a xlink:title=" ">
<path fill="none" stroke="#63b8ff" d="M498.21,-110.83C496.32,-102.17 494.25,-92.7 492.6,-85.16"/>
<polygon fill="#63b8ff" stroke="#63b8ff" points="494.84,-111.78 500.39,-120.8 501.68,-110.28 494.84,-111.78"/>
</a>
</g>
</g>
<!-- Node10 -->
<g id="Node000010" class="node">
<title>Node10</title>
<g id="a_Node000010"><a xlink:href="../../d7/d5c/processor__mock_8hpp.html" target="_top" xlink:title="Provides Processor for use in tests.">
<polygon fill="white" stroke="#666666" points="681.5,-85 561.5,-85 561.5,-55 681.5,-55 681.5,-85"/>
<text text-anchor="start" x="569.5" y="-73" font-family="Helvetica,sans-Serif" font-size="10.00">userver/os_signals</text>
<text text-anchor="middle" x="621.5" y="-62" font-family="Helvetica,sans-Serif" font-size="10.00">/processor_mock.hpp</text>
</a>
</g>
</g>
<!-- Node7&#45;&gt;Node10 -->
<g id="edge9_Node000007_Node000010" class="edge">
<title>Node7&#45;&gt;Node10</title>
<g id="a_edge9_Node000007_Node000010"><a xlink:title=" ">
<path fill="none" stroke="#63b8ff" d="M538.34,-116.11C556.7,-106.14 578.85,-94.13 595.66,-85.01"/>
<polygon fill="#63b8ff" stroke="#63b8ff" points="536.52,-113.11 529.4,-120.95 539.85,-119.26 536.52,-113.11"/>
</a>
</g>
</g>
<!-- Node9 -->
<g id="Node000009" class="node">
<title>Node9</title>
<g id="a_Node000009"><a xlink:href="../../dc/d2e/core_2include_2userver_2logging_2component_8hpp.html" target="_top" xlink:title="Logging component">
<polygon fill="white" stroke="#666666" points="575,-19 404,-19 404,0 575,0 575,-19"/>
<text text-anchor="middle" x="489.5" y="-7" font-family="Helvetica,sans-Serif" font-size="10.00">userver/logging/component.hpp</text>
</a>
</g>
</g>
<!-- Node8&#45;&gt;Node9 -->
<g id="edge8_Node000008_Node000009" class="edge">
<title>Node8&#45;&gt;Node9</title>
<g id="a_edge8_Node000008_Node000009"><a xlink:title=" ">
<path fill="none" stroke="#63b8ff" d="M489.5,-44.75C489.5,-35.72 489.5,-26.03 489.5,-19.27"/>
<polygon fill="#63b8ff" stroke="#63b8ff" points="486,-44.84 489.5,-54.84 493,-44.84 486,-44.84"/>
</a>
</g>
</g>
</g>
</svg>
