<?xml version="1.0" encoding="UTF-8" standalone="no"?>
<!DOCTYPE svg PUBLIC "-//W3C//DTD SVG 1.1//EN"
 "http://www.w3.org/Graphics/SVG/1.1/DTD/svg11.dtd">
<!-- Generated by graphviz version 2.43.0 (0)
 -->
<!-- Title: userver/components/state.hpp Pages: 1 -->
<svg width="376pt" height="170pt"
 viewBox="0.00 0.00 375.50 170.00" xmlns="http://www.w3.org/2000/svg" xmlns:xlink="http://www.w3.org/1999/xlink">
<g id="graph0" class="graph" transform="scale(1 1) rotate(0) translate(4 166)">
<title>userver/components/state.hpp</title>
<!-- Node1 -->
<g id="Node000001" class="node">
<title>Node1</title>
<g id="a_Node000001"><a xlink:title=" ">
<polygon fill="#999999" stroke="#666666" points="199,-162 83,-162 83,-132 199,-132 199,-162"/>
<text text-anchor="start" x="91" y="-150" font-family="Helvetica,sans-Serif" font-size="10.00">userver/components</text>
<text text-anchor="middle" x="141" y="-139" font-family="Helvetica,sans-Serif" font-size="10.00">/state.hpp</text>
</a>
</g>
</g>
<!-- Node2 -->
<g id="Node000002" class="node">
<title>Node2</title>
<g id="a_Node000002"><a xlink:href="../../d8/d39/ping_8hpp.html" target="_top" xlink:title="Handler that returns HTTP 200 if the service is OK and able to process requests.">
<polygon fill="white" stroke="#666666" points="132,-96 0,-96 0,-66 132,-66 132,-96"/>
<text text-anchor="start" x="8" y="-84" font-family="Helvetica,sans-Serif" font-size="10.00">userver/server/handlers</text>
<text text-anchor="middle" x="66" y="-73" font-family="Helvetica,sans-Serif" font-size="10.00">/ping.hpp</text>
</a>
</g>
</g>
<!-- Node1&#45;&gt;Node2 -->
<g id="edge1_Node000001_Node000002" class="edge">
<title>Node1&#45;&gt;Node2</title>
<g id="a_edge1_Node000001_Node000002"><a xlink:title=" ">
<path fill="none" stroke="#63b8ff" d="M116.63,-125.2C105.49,-115.7 92.59,-104.69 82.6,-96.16"/>
<polygon fill="#63b8ff" stroke="#63b8ff" points="114.48,-127.97 124.36,-131.8 119.02,-122.64 114.48,-127.97"/>
</a>
</g>
</g>
<!-- Node3 -->
<g id="Node000003" class="node">
<title>Node3</title>
<g id="a_Node000003"><a xlink:href="../../da/d8f/cache__control_8hpp.html" target="_top" xlink:title="Testsuite interface for caches and cache&#45;like components.">
<polygon fill="white" stroke="#666666" points="281.5,-96 150.5,-96 150.5,-66 281.5,-66 281.5,-96"/>
<text text-anchor="start" x="158.5" y="-84" font-family="Helvetica,sans-Serif" font-size="10.00">userver/testsuite/cache</text>
<text text-anchor="middle" x="216" y="-73" font-family="Helvetica,sans-Serif" font-size="10.00">_control.hpp</text>
</a>
</g>
</g>
<!-- Node1&#45;&gt;Node3 -->
<g id="edge2_Node000001_Node000003" class="edge">
<title>Node1&#45;&gt;Node3</title>
<g id="a_edge2_Node000001_Node000003"><a xlink:title=" ">
<path fill="none" stroke="#63b8ff" d="M165.37,-125.2C176.51,-115.7 189.41,-104.69 199.4,-96.16"/>
<polygon fill="#63b8ff" stroke="#63b8ff" points="162.98,-122.64 157.64,-131.8 167.52,-127.97 162.98,-122.64"/>
</a>
</g>
</g>
<!-- Node4 -->
<g id="Node000004" class="node">
<title>Node4</title>
<g id="a_Node000004"><a xlink:href="../../d9/daf/lru__cache__component__base_8hpp.html" target="_top" xlink:title="Base class for LRU&#45;cache components.">
<polygon fill="white" stroke="#666666" points="204,-30 70,-30 70,0 204,0 204,-30"/>
<text text-anchor="start" x="78" y="-18" font-family="Helvetica,sans-Serif" font-size="10.00">userver/cache/lru_cache</text>
<text text-anchor="middle" x="137" y="-7" font-family="Helvetica,sans-Serif" font-size="10.00">_component_base.hpp</text>
</a>
</g>
</g>
<!-- Node3&#45;&gt;Node4 -->
<g id="edge3_Node000003_Node000004" class="edge">
<title>Node3&#45;&gt;Node4</title>
<g id="a_edge3_Node000003_Node000004"><a xlink:title=" ">
<path fill="none" stroke="#63b8ff" d="M190.67,-59.48C178.86,-49.91 165.11,-38.77 154.48,-30.16"/>
<polygon fill="#63b8ff" stroke="#63b8ff" points="188.49,-62.22 198.47,-65.8 192.9,-56.78 188.49,-62.22"/>
</a>
</g>
</g>
<!-- Node5 -->
<g id="Node000005" class="node">
<title>Node5</title>
<g id="a_Node000005"><a xlink:href="../../d3/d37/testsuite__support_8hpp.html" target="_top" xlink:title="Testsuite support component.">
<polygon fill="white" stroke="#666666" points="367.5,-30 222.5,-30 222.5,0 367.5,0 367.5,-30"/>
<text text-anchor="start" x="230.5" y="-18" font-family="Helvetica,sans-Serif" font-size="10.00">userver/testsuite/testsuite</text>
<text text-anchor="middle" x="295" y="-7" font-family="Helvetica,sans-Serif" font-size="10.00">_support.hpp</text>
</a>
</g>
</g>
<!-- Node3&#45;&gt;Node5 -->
<g id="edge4_Node000003_Node000005" class="edge">
<title>Node3&#45;&gt;Node5</title>
<g id="a_edge4_Node000003_Node000005"><a xlink:title=" ">
<path fill="none" stroke="#63b8ff" d="M241.33,-59.48C253.14,-49.91 266.89,-38.77 277.52,-30.16"/>
<polygon fill="#63b8ff" stroke="#63b8ff" points="239.1,-56.78 233.53,-65.8 243.51,-62.22 239.1,-56.78"/>
</a>
</g>
</g>
</g>
</svg>
