<?xml version="1.0" encoding="UTF-8" standalone="no"?>
<!DOCTYPE svg PUBLIC "-//W3C//DTD SVG 1.1//EN"
 "http://www.w3.org/Graphics/SVG/1.1/DTD/svg11.dtd">
<!-- Generated by graphviz version 2.43.0 (0)
 -->
<!-- Title: userver/storages/redis/impl/exception.hpp Pages: 1 -->
<svg width="601pt" height="445pt"
 viewBox="0.00 0.00 601.00 445.00" xmlns="http://www.w3.org/2000/svg" xmlns:xlink="http://www.w3.org/1999/xlink">
<g id="graph0" class="graph" transform="scale(1 1) rotate(0) translate(4 441)">
<title>userver/storages/redis/impl/exception.hpp</title>
<!-- Node1 -->
<g id="Node000001" class="node">
<title>Node1</title>
<g id="a_Node000001"><a xlink:title="redis&#45;specific exceptions">
<polygon fill="#999999" stroke="#666666" points="255,-437 130,-437 130,-407 255,-407 255,-437"/>
<text text-anchor="start" x="138" y="-425" font-family="Helvetica,sans-Serif" font-size="10.00">userver/storages/redis</text>
<text text-anchor="middle" x="192.5" y="-414" font-family="Helvetica,sans-Serif" font-size="10.00">/impl/exception.hpp</text>
</a>
</g>
</g>
<!-- Node2 -->
<g id="Node000002" class="node">
<title>Node2</title>
<g id="a_Node000002"><a xlink:href="../../d6/ddc/command__options_8hpp_source.html" target="_top" xlink:title=" ">
<polygon fill="white" stroke="#666666" points="131,-167.5 0,-167.5 0,-137.5 131,-137.5 131,-167.5"/>
<text text-anchor="start" x="8" y="-155.5" font-family="Helvetica,sans-Serif" font-size="10.00">userver/storages/redis</text>
<text text-anchor="middle" x="65.5" y="-144.5" font-family="Helvetica,sans-Serif" font-size="10.00">/command_options.hpp</text>
</a>
</g>
</g>
<!-- Node1&#45;&gt;Node2 -->
<g id="edge1_Node000001_Node000002" class="edge">
<title>Node1&#45;&gt;Node2</title>
<g id="a_edge1_Node000001_Node000002"><a xlink:title=" ">
<path fill="none" stroke="#63b8ff" d="M181.53,-397.89C155.95,-344.02 92.97,-211.36 72.24,-167.69"/>
<polygon fill="#63b8ff" stroke="#63b8ff" points="178.4,-399.46 185.85,-406.99 184.72,-396.46 178.4,-399.46"/>
</a>
</g>
</g>
<!-- Node5 -->
<g id="Node000005" class="node">
<title>Node5</title>
<g id="a_Node000005"><a xlink:href="../../d6/d19/ttl__reply_8hpp_source.html" target="_top" xlink:title=" ">
<polygon fill="white" stroke="#666666" points="371.5,-371 239.5,-371 239.5,-341 371.5,-341 371.5,-371"/>
<text text-anchor="start" x="247.5" y="-359" font-family="Helvetica,sans-Serif" font-size="10.00">userver/storages/redis</text>
<text text-anchor="middle" x="305.5" y="-348" font-family="Helvetica,sans-Serif" font-size="10.00">/impl/reply/ttl_reply.hpp</text>
</a>
</g>
</g>
<!-- Node1&#45;&gt;Node5 -->
<g id="edge5_Node000001_Node000005" class="edge">
<title>Node1&#45;&gt;Node5</title>
<g id="a_edge5_Node000001_Node000005"><a xlink:title=" ">
<path fill="none" stroke="#63b8ff" d="M226.1,-401.97C243.64,-392.03 264.73,-380.09 280.76,-371.01"/>
<polygon fill="#63b8ff" stroke="#63b8ff" points="224.27,-398.98 217.3,-406.95 227.72,-405.07 224.27,-398.98"/>
</a>
</g>
</g>
<!-- Node10 -->
<g id="Node000010" class="node">
<title>Node10</title>
<g id="a_Node000010"><a xlink:href="../../d7/d98/redis_2include_2userver_2storages_2redis_2request_8hpp_source.html" target="_top" xlink:title=" ">
<polygon fill="white" stroke="#666666" points="274,-167.5 149,-167.5 149,-137.5 274,-137.5 274,-167.5"/>
<text text-anchor="start" x="157" y="-155.5" font-family="Helvetica,sans-Serif" font-size="10.00">userver/storages/redis</text>
<text text-anchor="middle" x="211.5" y="-144.5" font-family="Helvetica,sans-Serif" font-size="10.00">/request.hpp</text>
</a>
</g>
</g>
<!-- Node1&#45;&gt;Node10 -->
<g id="edge20_Node000001_Node000010" class="edge">
<title>Node1&#45;&gt;Node10</title>
<g id="a_edge20_Node000001_Node000010"><a xlink:title=" ">
<path fill="none" stroke="#63b8ff" d="M194.21,-396.88C198.08,-342.37 207.41,-211.08 210.49,-167.69"/>
<polygon fill="#63b8ff" stroke="#63b8ff" points="190.71,-396.77 193.49,-406.99 197.69,-397.27 190.71,-396.77"/>
</a>
</g>
</g>
<!-- Node3 -->
<g id="Node000003" class="node">
<title>Node3</title>
<g id="a_Node000003"><a xlink:href="../../dd/dc2/redis_2include_2userver_2storages_2redis_2client_8hpp.html" target="_top" xlink:title="Redis client.">
<polygon fill="white" stroke="#666666" points="292,-30 167,-30 167,0 292,0 292,-30"/>
<text text-anchor="start" x="175" y="-18" font-family="Helvetica,sans-Serif" font-size="10.00">userver/storages/redis</text>
<text text-anchor="middle" x="229.5" y="-7" font-family="Helvetica,sans-Serif" font-size="10.00">/client.hpp</text>
</a>
</g>
</g>
<!-- Node2&#45;&gt;Node3 -->
<g id="edge2_Node000002_Node000003" class="edge">
<title>Node2&#45;&gt;Node3</title>
<g id="a_edge2_Node000002_Node000003"><a xlink:title=" ">
<path fill="none" stroke="#63b8ff" d="M58.78,-127.69C55.04,-109.06 53.43,-83.47 66.5,-66 89.55,-35.19 131.23,-22.78 166.67,-18.02"/>
<polygon fill="#63b8ff" stroke="#63b8ff" points="55.38,-128.54 61.06,-137.48 62.2,-126.95 55.38,-128.54"/>
</a>
</g>
</g>
<!-- Node4 -->
<g id="Node000004" class="node">
<title>Node4</title>
<g id="a_Node000004"><a xlink:href="../../db/d36/redis_2include_2userver_2storages_2redis_2transaction_8hpp.html" target="_top" xlink:title=" ">
<polygon fill="white" stroke="#666666" points="201,-96 76,-96 76,-66 201,-66 201,-96"/>
<text text-anchor="start" x="84" y="-84" font-family="Helvetica,sans-Serif" font-size="10.00">userver/storages/redis</text>
<text text-anchor="middle" x="138.5" y="-73" font-family="Helvetica,sans-Serif" font-size="10.00">/transaction.hpp</text>
</a>
</g>
</g>
<!-- Node2&#45;&gt;Node4 -->
<g id="edge3_Node000002_Node000004" class="edge">
<title>Node2&#45;&gt;Node4</title>
<g id="a_edge3_Node000002_Node000004"><a xlink:title=" ">
<path fill="none" stroke="#63b8ff" d="M87.57,-130.49C99.28,-119.34 113.37,-105.93 123.75,-96.04"/>
<polygon fill="#63b8ff" stroke="#63b8ff" points="85.1,-128.01 80.27,-137.44 89.93,-133.08 85.1,-128.01"/>
</a>
</g>
</g>
<!-- Node4&#45;&gt;Node3 -->
<g id="edge4_Node000004_Node000003" class="edge">
<title>Node4&#45;&gt;Node3</title>
<g id="a_edge4_Node000004_Node000003"><a xlink:title=" ">
<path fill="none" stroke="#63b8ff" d="M166.9,-60.03C180.67,-50.34 196.88,-38.94 209.36,-30.16"/>
<polygon fill="#63b8ff" stroke="#63b8ff" points="164.86,-57.18 158.7,-65.8 168.89,-62.91 164.86,-57.18"/>
</a>
</g>
</g>
<!-- Node6 -->
<g id="Node000006" class="node">
<title>Node6</title>
<g id="a_Node000006"><a xlink:href="../../d9/dd6/reply__types_8hpp_source.html" target="_top" xlink:title=" ">
<polygon fill="white" stroke="#666666" points="378,-305 253,-305 253,-275 378,-275 378,-305"/>
<text text-anchor="start" x="261" y="-293" font-family="Helvetica,sans-Serif" font-size="10.00">userver/storages/redis</text>
<text text-anchor="middle" x="315.5" y="-282" font-family="Helvetica,sans-Serif" font-size="10.00">/reply_types.hpp</text>
</a>
</g>
</g>
<!-- Node5&#45;&gt;Node6 -->
<g id="edge6_Node000005_Node000006" class="edge">
<title>Node5&#45;&gt;Node6</title>
<g id="a_edge6_Node000005_Node000006"><a xlink:title=" ">
<path fill="none" stroke="#63b8ff" d="M309.28,-330.83C310.63,-322.17 312.11,-312.7 313.29,-305.16"/>
<polygon fill="#63b8ff" stroke="#63b8ff" points="305.81,-330.38 307.72,-340.8 312.72,-331.46 305.81,-330.38"/>
</a>
</g>
</g>
<!-- Node7 -->
<g id="Node000007" class="node">
<title>Node7</title>
<g id="a_Node000007"><a xlink:href="../../d1/daf/parse__reply_8hpp_source.html" target="_top" xlink:title=" ">
<polygon fill="white" stroke="#666666" points="593,-167.5 468,-167.5 468,-137.5 593,-137.5 593,-167.5"/>
<text text-anchor="start" x="476" y="-155.5" font-family="Helvetica,sans-Serif" font-size="10.00">userver/storages/redis</text>
<text text-anchor="middle" x="530.5" y="-144.5" font-family="Helvetica,sans-Serif" font-size="10.00">/parse_reply.hpp</text>
</a>
</g>
</g>
<!-- Node6&#45;&gt;Node7 -->
<g id="edge7_Node000006_Node000007" class="edge">
<title>Node6&#45;&gt;Node7</title>
<g id="a_edge7_Node000006_Node000007"><a xlink:title=" ">
<path fill="none" stroke="#63b8ff" d="M349.53,-269.83C365.44,-260.71 384.58,-249.51 401.5,-239 440.3,-214.89 484.45,-185.1 509.74,-167.8"/>
<polygon fill="#63b8ff" stroke="#63b8ff" points="347.52,-266.95 340.57,-274.94 350.99,-273.03 347.52,-266.95"/>
</a>
</g>
</g>
<!-- Node6&#45;&gt;Node10 -->
<g id="edge12_Node000006_Node000010" class="edge">
<title>Node6&#45;&gt;Node10</title>
<g id="a_edge12_Node000006_Node000010"><a xlink:title=" ">
<path fill="none" stroke="#63b8ff" d="M283.31,-269.02C271.88,-260.78 259.61,-250.46 250.5,-239 232.94,-216.9 221.3,-185.63 215.6,-167.67"/>
<polygon fill="#63b8ff" stroke="#63b8ff" points="281.6,-272.1 291.82,-274.91 285.59,-266.34 281.6,-272.1"/>
</a>
</g>
</g>
<!-- Node11 -->
<g id="Node000011" class="node">
<title>Node11</title>
<g id="a_Node000011"><a xlink:href="../../db/d81/request__data__base_8hpp_source.html" target="_top" xlink:title=" ">
<polygon fill="white" stroke="#666666" points="392,-239 259,-239 259,-209 392,-209 392,-239"/>
<text text-anchor="start" x="267" y="-227" font-family="Helvetica,sans-Serif" font-size="10.00">userver/storages/redis</text>
<text text-anchor="middle" x="325.5" y="-216" font-family="Helvetica,sans-Serif" font-size="10.00">/request_data_base.hpp</text>
</a>
</g>
</g>
<!-- Node6&#45;&gt;Node11 -->
<g id="edge17_Node000006_Node000011" class="edge">
<title>Node6&#45;&gt;Node11</title>
<g id="a_edge17_Node000006_Node000011"><a xlink:title=" ">
<path fill="none" stroke="#63b8ff" d="M319.28,-264.83C320.63,-256.17 322.11,-246.7 323.29,-239.16"/>
<polygon fill="#63b8ff" stroke="#63b8ff" points="315.81,-264.38 317.72,-274.8 322.72,-265.46 315.81,-264.38"/>
</a>
</g>
</g>
<!-- Node8 -->
<g id="Node000008" class="node">
<title>Node8</title>
<g id="a_Node000008"><a xlink:href="../../da/df5/request__eval_8hpp_source.html" target="_top" xlink:title=" ">
<polygon fill="white" stroke="#666666" points="383,-96 258,-96 258,-66 383,-66 383,-96"/>
<text text-anchor="start" x="266" y="-84" font-family="Helvetica,sans-Serif" font-size="10.00">userver/storages/redis</text>
<text text-anchor="middle" x="320.5" y="-73" font-family="Helvetica,sans-Serif" font-size="10.00">/request_eval.hpp</text>
</a>
</g>
</g>
<!-- Node7&#45;&gt;Node8 -->
<g id="edge8_Node000007_Node000008" class="edge">
<title>Node7&#45;&gt;Node8</title>
<g id="a_edge8_Node000007_Node000008"><a xlink:title=" ">
<path fill="none" stroke="#63b8ff" d="M478.28,-134.22C442.71,-122.45 396.22,-107.06 362.93,-96.04"/>
<polygon fill="#63b8ff" stroke="#63b8ff" points="477.41,-137.62 488,-137.44 479.61,-130.97 477.41,-137.62"/>
</a>
</g>
</g>
<!-- Node9 -->
<g id="Node000009" class="node">
<title>Node9</title>
<g id="a_Node000009"><a xlink:href="../../de/d60/request__evalsha_8hpp_source.html" target="_top" xlink:title=" ">
<polygon fill="white" stroke="#666666" points="526,-96 401,-96 401,-66 526,-66 526,-96"/>
<text text-anchor="start" x="409" y="-84" font-family="Helvetica,sans-Serif" font-size="10.00">userver/storages/redis</text>
<text text-anchor="middle" x="463.5" y="-73" font-family="Helvetica,sans-Serif" font-size="10.00">/request_evalsha.hpp</text>
</a>
</g>
</g>
<!-- Node7&#45;&gt;Node9 -->
<g id="edge10_Node000007_Node000009" class="edge">
<title>Node7&#45;&gt;Node9</title>
<g id="a_edge10_Node000007_Node000009"><a xlink:title=" ">
<path fill="none" stroke="#63b8ff" d="M509.94,-130.17C499.25,-119.08 486.48,-105.84 477.04,-96.04"/>
<polygon fill="#63b8ff" stroke="#63b8ff" points="507.48,-132.67 516.94,-137.44 512.52,-127.81 507.48,-132.67"/>
</a>
</g>
</g>
<!-- Node8&#45;&gt;Node3 -->
<g id="edge9_Node000008_Node000003" class="edge">
<title>Node8&#45;&gt;Node3</title>
<g id="a_edge9_Node000008_Node000003"><a xlink:title=" ">
<path fill="none" stroke="#63b8ff" d="M292.1,-60.03C278.33,-50.34 262.12,-38.94 249.64,-30.16"/>
<polygon fill="#63b8ff" stroke="#63b8ff" points="290.11,-62.91 300.3,-65.8 294.14,-57.18 290.11,-62.91"/>
</a>
</g>
</g>
<!-- Node9&#45;&gt;Node3 -->
<g id="edge11_Node000009_Node000003" class="edge">
<title>Node9&#45;&gt;Node3</title>
<g id="a_edge11_Node000009_Node000003"><a xlink:title=" ">
<path fill="none" stroke="#63b8ff" d="M402.27,-63.25C364.47,-52.91 316.52,-39.8 280.73,-30.01"/>
<polygon fill="#63b8ff" stroke="#63b8ff" points="401.58,-66.69 412.15,-65.95 403.43,-59.94 401.58,-66.69"/>
</a>
</g>
</g>
<!-- Node10&#45;&gt;Node3 -->
<g id="edge13_Node000010_Node000003" class="edge">
<title>Node10&#45;&gt;Node3</title>
<g id="a_edge13_Node000010_Node000003"><a xlink:title=" ">
<path fill="none" stroke="#63b8ff" d="M214.76,-126.98C218.52,-98.64 224.59,-52.96 227.63,-30.05"/>
<polygon fill="#63b8ff" stroke="#63b8ff" points="211.24,-126.88 213.39,-137.26 218.18,-127.8 211.24,-126.88"/>
</a>
</g>
</g>
<!-- Node10&#45;&gt;Node4 -->
<g id="edge16_Node000010_Node000004" class="edge">
<title>Node10&#45;&gt;Node4</title>
<g id="a_edge16_Node000010_Node000004"><a xlink:title=" ">
<path fill="none" stroke="#63b8ff" d="M189.43,-130.49C177.72,-119.34 163.63,-105.93 153.25,-96.04"/>
<polygon fill="#63b8ff" stroke="#63b8ff" points="187.07,-133.08 196.73,-137.44 191.9,-128.01 187.07,-133.08"/>
</a>
</g>
</g>
<!-- Node10&#45;&gt;Node8 -->
<g id="edge14_Node000010_Node000008" class="edge">
<title>Node10&#45;&gt;Node8</title>
<g id="a_edge14_Node000010_Node000008"><a xlink:title=" ">
<path fill="none" stroke="#63b8ff" d="M242.47,-131.75C260.33,-120.36 282.38,-106.31 298.48,-96.04"/>
<polygon fill="#63b8ff" stroke="#63b8ff" points="240.11,-129.11 233.56,-137.44 243.87,-135.01 240.11,-129.11"/>
</a>
</g>
</g>
<!-- Node10&#45;&gt;Node9 -->
<g id="edge15_Node000010_Node000009" class="edge">
<title>Node10&#45;&gt;Node9</title>
<g id="a_edge15_Node000010_Node000009"><a xlink:title=" ">
<path fill="none" stroke="#63b8ff" d="M272.26,-134.74C315.17,-122.91 372.04,-107.22 412.58,-96.04"/>
<polygon fill="#63b8ff" stroke="#63b8ff" points="271.21,-131.4 262.5,-137.44 273.07,-138.15 271.21,-131.4"/>
</a>
</g>
</g>
<!-- Node11&#45;&gt;Node10 -->
<g id="edge19_Node000011_Node000010" class="edge">
<title>Node11&#45;&gt;Node10</title>
<g id="a_edge19_Node000011_Node000010"><a xlink:title=" ">
<path fill="none" stroke="#63b8ff" d="M293.88,-203.72C275.06,-192.25 251.6,-177.95 234.54,-167.54"/>
<polygon fill="#63b8ff" stroke="#63b8ff" points="292.07,-206.72 302.43,-208.94 295.71,-200.74 292.07,-206.72"/>
</a>
</g>
</g>
<!-- Node12 -->
<g id="Node000012" class="node">
<title>Node12</title>
<g id="a_Node000012"><a xlink:href="../../d1/d35/transaction__subrequest__data_8hpp_source.html" target="_top" xlink:title=" ">
<polygon fill="white" stroke="#666666" points="450.5,-173 292.5,-173 292.5,-132 450.5,-132 450.5,-173"/>
<text text-anchor="start" x="300.5" y="-161" font-family="Helvetica,sans-Serif" font-size="10.00">userver/storages/redis</text>
<text text-anchor="start" x="300.5" y="-150" font-family="Helvetica,sans-Serif" font-size="10.00">/impl/transaction_subrequest</text>
<text text-anchor="middle" x="371.5" y="-139" font-family="Helvetica,sans-Serif" font-size="10.00">_data.hpp</text>
</a>
</g>
</g>
<!-- Node11&#45;&gt;Node12 -->
<g id="edge18_Node000011_Node000012" class="edge">
<title>Node11&#45;&gt;Node12</title>
<g id="a_edge18_Node000011_Node000012"><a xlink:title=" ">
<path fill="none" stroke="#63b8ff" d="M340.33,-200.59C346.2,-191.73 352.88,-181.63 358.54,-173.07"/>
<polygon fill="#63b8ff" stroke="#63b8ff" points="337.41,-198.66 334.81,-208.94 343.25,-202.53 337.41,-198.66"/>
</a>
</g>
</g>
</g>
</svg>
