<?xml version="1.0" encoding="UTF-8" standalone="no"?>
<!DOCTYPE svg PUBLIC "-//W3C//DTD SVG 1.1//EN"
 "http://www.w3.org/Graphics/SVG/1.1/DTD/svg11.dtd">
<!-- Generated by graphviz version 2.43.0 (0)
 -->
<!-- Title: server::handlers::auth::digest::NonceCacheSettingsComponent Pages: 1 -->
<svg width="192pt" height="236pt"
 viewBox="0.00 0.00 192.00 236.00" xmlns="http://www.w3.org/2000/svg" xmlns:xlink="http://www.w3.org/1999/xlink">
<g id="graph0" class="graph" transform="scale(1 1) rotate(0) translate(4 232)">
<title>server::handlers::auth::digest::NonceCacheSettingsComponent</title>
<!-- Node1 -->
<g id="Node000001" class="node">
<title>Node1</title>
<g id="a_Node000001"><a xlink:title="Component that loads nonce cache settings from a static_config.yaml.">
<polygon fill="#999999" stroke="#666666" points="171.5,-41 12.5,-41 12.5,0 171.5,0 171.5,-41"/>
<text text-anchor="start" x="20.5" y="-29" font-family="Helvetica,sans-Serif" font-size="10.00">server::handlers::auth</text>
<text text-anchor="start" x="20.5" y="-18" font-family="Helvetica,sans-Serif" font-size="10.00">::digest::NonceCacheSettings</text>
<text text-anchor="middle" x="92" y="-7" font-family="Helvetica,sans-Serif" font-size="10.00">Component</text>
</a>
</g>
</g>
<!-- Node2 -->
<g id="Node000002" class="node">
<title>Node2</title>
<g id="a_Node000002"><a xlink:href="../../d2/d38/classserver_1_1handlers_1_1auth_1_1digest_1_1AuthCheckerSettingsComponent.html" target="_top" xlink:title="Component that loads digest auth configuration settings from a static_config.yaml.">
<polygon fill="white" stroke="#666666" points="172,-118 12,-118 12,-77 172,-77 172,-118"/>
<text text-anchor="start" x="20" y="-106" font-family="Helvetica,sans-Serif" font-size="10.00">server::handlers::auth</text>
<text text-anchor="start" x="20" y="-95" font-family="Helvetica,sans-Serif" font-size="10.00">::digest::AuthCheckerSettings</text>
<text text-anchor="middle" x="92" y="-84" font-family="Helvetica,sans-Serif" font-size="10.00">Component</text>
</a>
</g>
</g>
<!-- Node2&#45;&gt;Node1 -->
<g id="edge1_Node000001_Node000002" class="edge">
<title>Node2&#45;&gt;Node1</title>
<g id="a_edge1_Node000001_Node000002"><a xlink:title=" ">
<path fill="none" stroke="#63b8ff" d="M92,-66.69C92,-58.08 92,-48.9 92,-41.07"/>
<polygon fill="#63b8ff" stroke="#63b8ff" points="88.5,-66.79 92,-76.79 95.5,-66.79 88.5,-66.79"/>
</a>
</g>
</g>
<!-- Node3 -->
<g id="Node000003" class="node">
<title>Node3</title>
<g id="a_Node000003"><a xlink:href="../../d7/db4/classcomponents_1_1ComponentBase.html" target="_top" xlink:title="Base class for all application components, it depends on components::Logger and components::Tracer.">
<polygon fill="white" stroke="#666666" points="173.5,-173 10.5,-173 10.5,-154 173.5,-154 173.5,-173"/>
<text text-anchor="middle" x="92" y="-161" font-family="Helvetica,sans-Serif" font-size="10.00">components::ComponentBase</text>
</a>
</g>
</g>
<!-- Node3&#45;&gt;Node2 -->
<g id="edge2_Node000002_Node000003" class="edge">
<title>Node3&#45;&gt;Node2</title>
<g id="a_edge2_Node000002_Node000003"><a xlink:title=" ">
<path fill="none" stroke="#63b8ff" d="M92,-143.63C92,-135.56 92,-126.15 92,-118.01"/>
<polygon fill="#63b8ff" stroke="#63b8ff" points="88.5,-143.87 92,-153.87 95.5,-143.87 88.5,-143.87"/>
</a>
</g>
</g>
<!-- Node4 -->
<g id="Node000004" class="node">
<title>Node4</title>
<g id="a_Node000004"><a xlink:href="../../d2/d86/classcomponents_1_1RawComponentBase.html" target="_top" xlink:title="The base class for all components. Don&#39;t use it for application components, use ComponentBase instead...">
<polygon fill="white" stroke="#666666" points="184,-228 0,-228 0,-209 184,-209 184,-228"/>
<text text-anchor="middle" x="92" y="-216" font-family="Helvetica,sans-Serif" font-size="10.00">components::RawComponentBase</text>
</a>
</g>
</g>
<!-- Node4&#45;&gt;Node3 -->
<g id="edge3_Node000003_Node000004" class="edge">
<title>Node4&#45;&gt;Node3</title>
<g id="a_edge3_Node000003_Node000004"><a xlink:title=" ">
<path fill="none" stroke="#63b8ff" d="M92,-198.66C92,-189.93 92,-179.99 92,-173.09"/>
<polygon fill="#63b8ff" stroke="#63b8ff" points="88.5,-198.75 92,-208.75 95.5,-198.75 88.5,-198.75"/>
</a>
</g>
</g>
</g>
</svg>
