<?xml version="1.0" encoding="UTF-8" standalone="no"?>
<!DOCTYPE svg PUBLIC "-//W3C//DTD SVG 1.1//EN"
 "http://www.w3.org/Graphics/SVG/1.1/DTD/svg11.dtd">
<!-- Generated by graphviz version 2.43.0 (0)
 -->
<!-- Title: userver/cache/update_type.hpp Pages: 1 -->
<svg width="377pt" height="170pt"
 viewBox="0.00 0.00 377.00 170.00" xmlns="http://www.w3.org/2000/svg" xmlns:xlink="http://www.w3.org/1999/xlink">
<g id="graph0" class="graph" transform="scale(1 1) rotate(0) translate(4 166)">
<title>userver/cache/update_type.hpp</title>
<!-- Node1 -->
<g id="Node000001" class="node">
<title>Node1</title>
<g id="a_Node000001"><a xlink:title="Enums representing periodic update types for CachingComponentBase">
<polygon fill="#999999" stroke="#666666" points="210.5,-162 88.5,-162 88.5,-132 210.5,-132 210.5,-162"/>
<text text-anchor="start" x="96.5" y="-150" font-family="Helvetica,sans-Serif" font-size="10.00">userver/cache/update</text>
<text text-anchor="middle" x="149.5" y="-139" font-family="Helvetica,sans-Serif" font-size="10.00">_type.hpp</text>
</a>
</g>
</g>
<!-- Node2 -->
<g id="Node000002" class="node">
<title>Node2</title>
<g id="a_Node000002"><a xlink:title=" ">
<polygon fill="#e0e0e0" stroke="#999999" points="73,-90.5 0,-90.5 0,-71.5 73,-71.5 73,-90.5"/>
<text text-anchor="middle" x="36.5" y="-78.5" font-family="Helvetica,sans-Serif" font-size="10.00">string_view</text>
</a>
</g>
</g>
<!-- Node1&#45;&gt;Node2 -->
<g id="edge1_Node000001_Node000002" class="edge">
<title>Node1&#45;&gt;Node2</title>
<g id="a_edge1_Node000001_Node000002"><a xlink:title=" ">
<path fill="none" stroke="#63b8ff" d="M124.7,-131.95C105.58,-121.13 79.3,-106.24 60.41,-95.54"/>
<polygon fill="#63b8ff" stroke="#63b8ff" points="61.96,-92.4 51.54,-90.52 58.51,-98.49 61.96,-92.4"/>
</a>
</g>
</g>
<!-- Node3 -->
<g id="Node000003" class="node">
<title>Node3</title>
<g id="a_Node000003"><a xlink:href="../../dc/d7d/json__fwd_8hpp.html" target="_top" xlink:title="Forward declarations of formats::json types, formats::parse::To and formats::serialize::To.">
<polygon fill="white" stroke="#666666" points="343.5,-96 225.5,-96 225.5,-66 343.5,-66 343.5,-96"/>
<text text-anchor="start" x="233.5" y="-84" font-family="Helvetica,sans-Serif" font-size="10.00">userver/formats/json</text>
<text text-anchor="middle" x="284.5" y="-73" font-family="Helvetica,sans-Serif" font-size="10.00">_fwd.hpp</text>
</a>
</g>
</g>
<!-- Node1&#45;&gt;Node3 -->
<g id="edge2_Node000001_Node000003" class="edge">
<title>Node1&#45;&gt;Node3</title>
<g id="a_edge2_Node000001_Node000003"><a xlink:title=" ">
<path fill="none" stroke="#63b8ff" d="M179.13,-131.95C198.73,-122.66 224.64,-110.38 245.87,-100.32"/>
<polygon fill="#63b8ff" stroke="#63b8ff" points="247.41,-103.46 254.94,-96.01 244.41,-97.13 247.41,-103.46"/>
</a>
</g>
</g>
<!-- Node6 -->
<g id="Node000006" class="node">
<title>Node6</title>
<g id="a_Node000006"><a xlink:href="../../dd/dd7/universal_2include_2userver_2yaml__config_2fwd_8hpp.html" target="_top" xlink:title="Forward declarations of YamlConfig type and formats::parse::To.">
<polygon fill="white" stroke="#666666" points="207.5,-96 91.5,-96 91.5,-66 207.5,-66 207.5,-96"/>
<text text-anchor="start" x="99.5" y="-84" font-family="Helvetica,sans-Serif" font-size="10.00">userver/yaml_config</text>
<text text-anchor="middle" x="149.5" y="-73" font-family="Helvetica,sans-Serif" font-size="10.00">/fwd.hpp</text>
</a>
</g>
</g>
<!-- Node1&#45;&gt;Node6 -->
<g id="edge5_Node000001_Node000006" class="edge">
<title>Node1&#45;&gt;Node6</title>
<g id="a_edge5_Node000001_Node000006"><a xlink:title=" ">
<path fill="none" stroke="#63b8ff" d="M149.5,-131.8C149.5,-124.34 149.5,-114.99 149.5,-106.41"/>
<polygon fill="#63b8ff" stroke="#63b8ff" points="153,-106.16 149.5,-96.16 146,-106.16 153,-106.16"/>
</a>
</g>
</g>
<!-- Node4 -->
<g id="Node000004" class="node">
<title>Node4</title>
<g id="a_Node000004"><a xlink:href="../../d2/dc8/universal_2include_2userver_2formats_2parse_2to_8hpp.html" target="_top" xlink:title="Helper for parsers.">
<polygon fill="white" stroke="#666666" points="212,-30 87,-30 87,0 212,0 212,-30"/>
<text text-anchor="start" x="95" y="-18" font-family="Helvetica,sans-Serif" font-size="10.00">userver/formats/parse</text>
<text text-anchor="middle" x="149.5" y="-7" font-family="Helvetica,sans-Serif" font-size="10.00">/to.hpp</text>
</a>
</g>
</g>
<!-- Node3&#45;&gt;Node4 -->
<g id="edge3_Node000003_Node000004" class="edge">
<title>Node3&#45;&gt;Node4</title>
<g id="a_edge3_Node000003_Node000004"><a xlink:title=" ">
<path fill="none" stroke="#63b8ff" d="M254.87,-65.95C235.27,-56.66 209.36,-44.38 188.13,-34.32"/>
<polygon fill="#63b8ff" stroke="#63b8ff" points="189.59,-31.13 179.06,-30.01 186.59,-37.46 189.59,-31.13"/>
</a>
</g>
</g>
<!-- Node5 -->
<g id="Node000005" class="node">
<title>Node5</title>
<g id="a_Node000005"><a xlink:href="../../d6/d8e/universal_2include_2userver_2formats_2serialize_2to_8hpp.html" target="_top" xlink:title="Helper for serializers.">
<polygon fill="white" stroke="#666666" points="369,-30 230,-30 230,0 369,0 369,-30"/>
<text text-anchor="start" x="238" y="-18" font-family="Helvetica,sans-Serif" font-size="10.00">userver/formats/serialize</text>
<text text-anchor="middle" x="299.5" y="-7" font-family="Helvetica,sans-Serif" font-size="10.00">/to.hpp</text>
</a>
</g>
</g>
<!-- Node3&#45;&gt;Node5 -->
<g id="edge4_Node000003_Node000005" class="edge">
<title>Node3&#45;&gt;Node5</title>
<g id="a_edge4_Node000003_Node000005"><a xlink:title=" ">
<path fill="none" stroke="#63b8ff" d="M287.83,-65.8C289.6,-58.26 291.82,-48.78 293.84,-40.13"/>
<polygon fill="#63b8ff" stroke="#63b8ff" points="297.31,-40.7 296.18,-30.16 290.49,-39.1 297.31,-40.7"/>
</a>
</g>
</g>
<!-- Node6&#45;&gt;Node4 -->
<g id="edge6_Node000006_Node000004" class="edge">
<title>Node6&#45;&gt;Node4</title>
<g id="a_edge6_Node000006_Node000004"><a xlink:title=" ">
<path fill="none" stroke="#63b8ff" d="M149.5,-65.8C149.5,-58.34 149.5,-48.99 149.5,-40.41"/>
<polygon fill="#63b8ff" stroke="#63b8ff" points="153,-40.16 149.5,-30.16 146,-40.16 153,-40.16"/>
</a>
</g>
</g>
</g>
</svg>
