<?xml version="1.0" encoding="UTF-8" standalone="no"?>
<!DOCTYPE svg PUBLIC "-//W3C//DTD SVG 1.1//EN"
 "http://www.w3.org/Graphics/SVG/1.1/DTD/svg11.dtd">
<!-- Generated by graphviz version 2.43.0 (0)
 -->
<!-- Title: clients::http::HttpClientException Pages: 1 -->
<svg width="160pt" height="203pt"
 viewBox="0.00 0.00 160.00 203.00" xmlns="http://www.w3.org/2000/svg" xmlns:xlink="http://www.w3.org/1999/xlink">
<g id="graph0" class="graph" transform="scale(1 1) rotate(0) translate(4 199)">
<title>clients::http::HttpClientException</title>
<!-- Node1 -->
<g id="Node000001" class="node">
<title>Node1</title>
<g id="a_Node000001"><a xlink:title=" ">
<polygon fill="#999999" stroke="#666666" points="141,-30 11,-30 11,0 141,0 141,-30"/>
<text text-anchor="start" x="19" y="-18" font-family="Helvetica,sans-Serif" font-size="10.00">clients::http::HttpClient</text>
<text text-anchor="middle" x="76" y="-7" font-family="Helvetica,sans-Serif" font-size="10.00">Exception</text>
</a>
</g>
</g>
<!-- Node2 -->
<g id="Node000002" class="node">
<title>Node2</title>
<g id="a_Node000002"><a xlink:href="../../d3/d4f/classclients_1_1http_1_1HttpException.html" target="_top" xlink:title="Base class for HttpClientException and HttpServerException.">
<polygon fill="white" stroke="#666666" points="150.5,-85 1.5,-85 1.5,-66 150.5,-66 150.5,-85"/>
<text text-anchor="middle" x="76" y="-73" font-family="Helvetica,sans-Serif" font-size="10.00">clients::http::HttpException</text>
</a>
</g>
</g>
<!-- Node2&#45;&gt;Node1 -->
<g id="edge1_Node000001_Node000002" class="edge">
<title>Node2&#45;&gt;Node1</title>
<g id="a_edge1_Node000001_Node000002"><a xlink:title=" ">
<path fill="none" stroke="#63b8ff" d="M76,-55.65C76,-47.36 76,-37.78 76,-30.11"/>
<polygon fill="#63b8ff" stroke="#63b8ff" points="72.5,-55.87 76,-65.87 79.5,-55.87 72.5,-55.87"/>
</a>
</g>
</g>
<!-- Node3 -->
<g id="Node000003" class="node">
<title>Node3</title>
<g id="a_Node000003"><a xlink:href="../../da/d17/classclients_1_1http_1_1BaseException.html" target="_top" xlink:title="Exception with string.">
<polygon fill="white" stroke="#666666" points="152,-140 0,-140 0,-121 152,-121 152,-140"/>
<text text-anchor="middle" x="76" y="-128" font-family="Helvetica,sans-Serif" font-size="10.00">clients::http::BaseException</text>
</a>
</g>
</g>
<!-- Node3&#45;&gt;Node2 -->
<g id="edge2_Node000002_Node000003" class="edge">
<title>Node3&#45;&gt;Node2</title>
<g id="a_edge2_Node000002_Node000003"><a xlink:title=" ">
<path fill="none" stroke="#63b8ff" d="M76,-110.66C76,-101.93 76,-91.99 76,-85.09"/>
<polygon fill="#63b8ff" stroke="#63b8ff" points="72.5,-110.75 76,-120.75 79.5,-110.75 72.5,-110.75"/>
</a>
</g>
</g>
<!-- Node4 -->
<g id="Node000004" class="node">
<title>Node4</title>
<g id="a_Node000004"><a xlink:title=" ">
<polygon fill="white" stroke="#666666" points="119,-195 33,-195 33,-176 119,-176 119,-195"/>
<text text-anchor="middle" x="76" y="-183" font-family="Helvetica,sans-Serif" font-size="10.00">std::exception</text>
</a>
</g>
</g>
<!-- Node4&#45;&gt;Node3 -->
<g id="edge3_Node000003_Node000004" class="edge">
<title>Node4&#45;&gt;Node3</title>
<g id="a_edge3_Node000003_Node000004"><a xlink:title=" ">
<path fill="none" stroke="#63b8ff" d="M76,-165.66C76,-156.93 76,-146.99 76,-140.09"/>
<polygon fill="#63b8ff" stroke="#63b8ff" points="72.5,-165.75 76,-175.75 79.5,-165.75 72.5,-165.75"/>
</a>
</g>
</g>
</g>
</svg>
