<?xml version="1.0" encoding="UTF-8" standalone="no"?>
<!DOCTYPE svg PUBLIC "-//W3C//DTD SVG 1.1//EN"
 "http://www.w3.org/Graphics/SVG/1.1/DTD/svg11.dtd">
<!-- Generated by graphviz version 2.43.0 (0)
 -->
<!-- Title: userver/storages/mysql/query.hpp Pages: 1 -->
<svg width="1213pt" height="357pt"
 viewBox="0.00 0.00 1212.50 357.00" xmlns="http://www.w3.org/2000/svg" xmlns:xlink="http://www.w3.org/1999/xlink">
<g id="graph0" class="graph" transform="scale(1 1) rotate(0) translate(4 353)">
<title>userver/storages/mysql/query.hpp</title>
<!-- Node1 -->
<g id="Node000001" class="node">
<title>Node1</title>
<g id="a_Node000001"><a xlink:title=" ">
<polygon fill="#999999" stroke="#666666" points="722.5,-349 591.5,-349 591.5,-319 722.5,-319 722.5,-349"/>
<text text-anchor="start" x="599.5" y="-337" font-family="Helvetica,sans-Serif" font-size="10.00">userver/storages/mysql</text>
<text text-anchor="middle" x="657" y="-326" font-family="Helvetica,sans-Serif" font-size="10.00">/query.hpp</text>
</a>
</g>
</g>
<!-- Node2 -->
<g id="Node000002" class="node">
<title>Node2</title>
<g id="a_Node000002"><a xlink:title=" ">
<polygon fill="#e0e0e0" stroke="#999999" points="56,-145.5 0,-145.5 0,-126.5 56,-126.5 56,-145.5"/>
<text text-anchor="middle" x="28" y="-133.5" font-family="Helvetica,sans-Serif" font-size="10.00">optional</text>
</a>
</g>
</g>
<!-- Node1&#45;&gt;Node2 -->
<g id="edge1_Node000001_Node000002" class="edge">
<title>Node1&#45;&gt;Node2</title>
<g id="a_edge1_Node000001_Node000002"><a xlink:title=" ">
<path fill="none" stroke="#63b8ff" d="M591.49,-326.53C457.94,-312.28 159.84,-274.81 77,-217 55.34,-201.88 41.46,-173.82 34.19,-155.27"/>
<polygon fill="#63b8ff" stroke="#63b8ff" points="37.39,-153.82 30.67,-145.62 30.81,-156.22 37.39,-153.82"/>
</a>
</g>
</g>
<!-- Node3 -->
<g id="Node000003" class="node">
<title>Node3</title>
<g id="a_Node000003"><a xlink:title=" ">
<polygon fill="#e0e0e0" stroke="#999999" points="775,-277.5 731,-277.5 731,-258.5 775,-258.5 775,-277.5"/>
<text text-anchor="middle" x="753" y="-265.5" font-family="Helvetica,sans-Serif" font-size="10.00">string</text>
</a>
</g>
</g>
<!-- Node1&#45;&gt;Node3 -->
<g id="edge2_Node000001_Node000003" class="edge">
<title>Node1&#45;&gt;Node3</title>
<g id="a_edge2_Node000001_Node000003"><a xlink:title=" ">
<path fill="none" stroke="#63b8ff" d="M678.31,-318.8C694.1,-308.27 715.54,-293.97 731.4,-283.4"/>
<polygon fill="#63b8ff" stroke="#63b8ff" points="733.63,-286.12 740.01,-277.66 729.75,-280.29 733.63,-286.12"/>
</a>
</g>
</g>
<!-- Node4 -->
<g id="Node000004" class="node">
<title>Node4</title>
<g id="a_Node000004"><a xlink:href="../../d5/dfe/universal_2include_2userver_2utils_2strong__typedef_8hpp.html" target="_top" xlink:title="Strong typedef for a type T.">
<polygon fill="white" stroke="#666666" points="712.5,-283 601.5,-283 601.5,-253 712.5,-253 712.5,-283"/>
<text text-anchor="start" x="609.5" y="-271" font-family="Helvetica,sans-Serif" font-size="10.00">userver/utils/strong</text>
<text text-anchor="middle" x="657" y="-260" font-family="Helvetica,sans-Serif" font-size="10.00">_typedef.hpp</text>
</a>
</g>
</g>
<!-- Node1&#45;&gt;Node4 -->
<g id="edge3_Node000001_Node000004" class="edge">
<title>Node1&#45;&gt;Node4</title>
<g id="a_edge3_Node000001_Node000004"><a xlink:title=" ">
<path fill="none" stroke="#63b8ff" d="M657,-318.8C657,-311.34 657,-301.99 657,-293.41"/>
<polygon fill="#63b8ff" stroke="#63b8ff" points="660.5,-293.16 657,-283.16 653.5,-293.16 660.5,-293.16"/>
</a>
</g>
</g>
<!-- Node5 -->
<g id="Node000005" class="node">
<title>Node5</title>
<g id="a_Node000005"><a xlink:title=" ">
<polygon fill="#e0e0e0" stroke="#999999" points="296.5,-211.5 231.5,-211.5 231.5,-192.5 296.5,-192.5 296.5,-211.5"/>
<text text-anchor="middle" x="264" y="-199.5" font-family="Helvetica,sans-Serif" font-size="10.00">functional</text>
</a>
</g>
</g>
<!-- Node4&#45;&gt;Node5 -->
<g id="edge4_Node000004_Node000005" class="edge">
<title>Node4&#45;&gt;Node5</title>
<g id="a_edge4_Node000004_Node000005"><a xlink:title=" ">
<path fill="none" stroke="#63b8ff" d="M601.42,-261.5C532.69,-254.11 412.36,-239.3 311,-217 307.38,-216.2 303.63,-215.27 299.9,-214.28"/>
<polygon fill="#63b8ff" stroke="#63b8ff" points="300.75,-210.88 290.17,-211.53 298.85,-217.62 300.75,-210.88"/>
</a>
</g>
</g>
<!-- Node6 -->
<g id="Node000006" class="node">
<title>Node6</title>
<g id="a_Node000006"><a xlink:title=" ">
<polygon fill="#e0e0e0" stroke="#999999" points="618,-145.5 570,-145.5 570,-126.5 618,-126.5 618,-145.5"/>
<text text-anchor="middle" x="594" y="-133.5" font-family="Helvetica,sans-Serif" font-size="10.00">iosfwd</text>
</a>
</g>
</g>
<!-- Node4&#45;&gt;Node6 -->
<g id="edge5_Node000004_Node000006" class="edge">
<title>Node4&#45;&gt;Node6</title>
<g id="a_edge5_Node000004_Node000006"><a xlink:title=" ">
<path fill="none" stroke="#63b8ff" d="M650.36,-252.8C642.84,-236.77 630.18,-209.94 619,-187 613.82,-176.36 607.9,-164.52 603.13,-155.03"/>
<polygon fill="#63b8ff" stroke="#63b8ff" points="606.11,-153.18 598.48,-145.82 599.86,-156.33 606.11,-153.18"/>
</a>
</g>
</g>
<!-- Node7 -->
<g id="Node000007" class="node">
<title>Node7</title>
<g id="a_Node000007"><a xlink:title=" ">
<polygon fill="#e0e0e0" stroke="#999999" points="414.5,-19 345.5,-19 345.5,0 414.5,0 414.5,-19"/>
<text text-anchor="middle" x="380" y="-7" font-family="Helvetica,sans-Serif" font-size="10.00">type_traits</text>
</a>
</g>
</g>
<!-- Node4&#45;&gt;Node7 -->
<g id="edge6_Node000004_Node000007" class="edge">
<title>Node4&#45;&gt;Node7</title>
<g id="a_edge6_Node000004_Node000007"><a xlink:title=" ">
<path fill="none" stroke="#63b8ff" d="M601.29,-258.37C505.52,-242.23 316.34,-204.26 279,-151 246.27,-104.32 317.58,-49.63 356.66,-24.47"/>
<polygon fill="#63b8ff" stroke="#63b8ff" points="358.75,-27.28 365.36,-19 355.03,-21.35 358.75,-27.28"/>
</a>
</g>
</g>
<!-- Node8 -->
<g id="Node000008" class="node">
<title>Node8</title>
<g id="a_Node000008"><a xlink:title=" ">
<polygon fill="#e0e0e0" stroke="#999999" points="749.5,-211.5 704.5,-211.5 704.5,-192.5 749.5,-192.5 749.5,-211.5"/>
<text text-anchor="middle" x="727" y="-199.5" font-family="Helvetica,sans-Serif" font-size="10.00">utility</text>
</a>
</g>
</g>
<!-- Node4&#45;&gt;Node8 -->
<g id="edge7_Node000004_Node000008" class="edge">
<title>Node4&#45;&gt;Node8</title>
<g id="a_edge7_Node000004_Node000008"><a xlink:title=" ">
<path fill="none" stroke="#63b8ff" d="M672.54,-252.8C683.56,-242.72 698.35,-229.19 709.74,-218.78"/>
<polygon fill="#63b8ff" stroke="#63b8ff" points="712.31,-221.18 717.33,-211.84 707.58,-216.01 712.31,-221.18"/>
</a>
</g>
</g>
<!-- Node9 -->
<g id="Node000009" class="node">
<title>Node9</title>
<g id="a_Node000009"><a xlink:title=" ">
<polygon fill="#e0e0e0" stroke="#999999" points="846.5,-211.5 767.5,-211.5 767.5,-192.5 846.5,-192.5 846.5,-211.5"/>
<text text-anchor="middle" x="807" y="-199.5" font-family="Helvetica,sans-Serif" font-size="10.00">fmt/format.h</text>
</a>
</g>
</g>
<!-- Node4&#45;&gt;Node9 -->
<g id="edge8_Node000004_Node000009" class="edge">
<title>Node4&#45;&gt;Node9</title>
<g id="a_edge8_Node000004_Node000009"><a xlink:title=" ">
<path fill="none" stroke="#63b8ff" d="M689.92,-252.95C716.11,-241.78 752.42,-226.29 777.63,-215.53"/>
<polygon fill="#63b8ff" stroke="#63b8ff" points="779.21,-218.66 787.04,-211.52 776.47,-212.22 779.21,-218.66"/>
</a>
</g>
</g>
<!-- Node10 -->
<g id="Node000010" class="node">
<title>Node10</title>
<g id="a_Node000010"><a xlink:href="../../d3/d6c/fmt__compat_8hpp_source.html" target="_top" xlink:title=" ">
<polygon fill="white" stroke="#666666" points="1204.5,-211.5 1043.5,-211.5 1043.5,-192.5 1204.5,-192.5 1204.5,-211.5"/>
<text text-anchor="middle" x="1124" y="-199.5" font-family="Helvetica,sans-Serif" font-size="10.00">userver/utils/fmt_compat.hpp</text>
</a>
</g>
</g>
<!-- Node4&#45;&gt;Node10 -->
<g id="edge9_Node000004_Node000010" class="edge">
<title>Node4&#45;&gt;Node10</title>
<g id="a_edge9_Node000004_Node000010"><a xlink:title=" ">
<path fill="none" stroke="#63b8ff" d="M712.6,-254.65C715.78,-254.06 718.92,-253.51 722,-253 859.72,-230.28 895.68,-235.73 1034,-217 1042.77,-215.81 1052,-214.48 1061.08,-213.11"/>
<polygon fill="#63b8ff" stroke="#63b8ff" points="1061.87,-216.53 1071.23,-211.57 1060.81,-209.61 1061.87,-216.53"/>
</a>
</g>
</g>
<!-- Node12 -->
<g id="Node000012" class="node">
<title>Node12</title>
<g id="a_Node000012"><a xlink:title=" ">
<polygon fill="#e0e0e0" stroke="#999999" points="1025,-217 903,-217 903,-187 1025,-187 1025,-217"/>
<text text-anchor="start" x="911" y="-205" font-family="Helvetica,sans-Serif" font-size="10.00">boost/functional/hash</text>
<text text-anchor="middle" x="964" y="-194" font-family="Helvetica,sans-Serif" font-size="10.00">_fwd.hpp</text>
</a>
</g>
</g>
<!-- Node4&#45;&gt;Node12 -->
<g id="edge11_Node000004_Node000012" class="edge">
<title>Node4&#45;&gt;Node12</title>
<g id="a_edge11_Node000004_Node000012"><a xlink:title=" ">
<path fill="none" stroke="#63b8ff" d="M712.66,-254.98C715.82,-254.31 718.95,-253.64 722,-253 779.41,-240.89 844.55,-227.44 892.78,-217.55"/>
<polygon fill="#63b8ff" stroke="#63b8ff" points="893.71,-220.93 902.8,-215.5 892.3,-214.08 893.71,-220.93"/>
</a>
</g>
</g>
<!-- Node13 -->
<g id="Node000013" class="node">
<title>Node13</title>
<g id="a_Node000013"><a xlink:href="../../da/d00/universal_2include_2userver_2formats_2common_2meta_8hpp.html" target="_top" xlink:title="Metaprogramming helpers for converters detection.">
<polygon fill="white" stroke="#666666" points="610,-217 470,-217 470,-187 610,-187 610,-217"/>
<text text-anchor="start" x="478" y="-205" font-family="Helvetica,sans-Serif" font-size="10.00">userver/formats/common</text>
<text text-anchor="middle" x="540" y="-194" font-family="Helvetica,sans-Serif" font-size="10.00">/meta.hpp</text>
</a>
</g>
</g>
<!-- Node4&#45;&gt;Node13 -->
<g id="edge12_Node000004_Node000013" class="edge">
<title>Node4&#45;&gt;Node13</title>
<g id="a_edge12_Node000004_Node000013"><a xlink:title=" ">
<path fill="none" stroke="#63b8ff" d="M631.32,-252.95C614.71,-243.87 592.88,-231.93 574.73,-222"/>
<polygon fill="#63b8ff" stroke="#63b8ff" points="576.07,-218.74 565.62,-217.01 572.71,-224.88 576.07,-218.74"/>
</a>
</g>
</g>
<!-- Node17 -->
<g id="Node000017" class="node">
<title>Node17</title>
<g id="a_Node000017"><a xlink:href="../../d9/dce/void__t_8hpp.html" target="_top" xlink:title="std::void_t implementation with workarounds for compiler bugs">
<polygon fill="white" stroke="#666666" points="470.5,-85 369.5,-85 369.5,-55 470.5,-55 470.5,-85"/>
<text text-anchor="start" x="377.5" y="-73" font-family="Helvetica,sans-Serif" font-size="10.00">userver/utils/void</text>
<text text-anchor="middle" x="420" y="-62" font-family="Helvetica,sans-Serif" font-size="10.00">_t.hpp</text>
</a>
</g>
</g>
<!-- Node4&#45;&gt;Node17 -->
<g id="edge29_Node000004_Node000017" class="edge">
<title>Node4&#45;&gt;Node17</title>
<g id="a_edge29_Node000004_Node000017"><a xlink:title=" ">
<path fill="none" stroke="#63b8ff" d="M660.56,-252.87C665.6,-235.41 676.34,-205.74 695,-187 721.09,-160.8 750.31,-182.29 770,-151 777.1,-139.71 778.74,-131.07 770,-121 733.26,-78.64 570.68,-71.28 480.6,-70.53"/>
<polygon fill="#63b8ff" stroke="#63b8ff" points="480.54,-67.03 470.52,-70.47 480.5,-74.03 480.54,-67.03"/>
</a>
</g>
</g>
<!-- Node18 -->
<g id="Node000018" class="node">
<title>Node18</title>
<g id="a_Node000018"><a xlink:href="../../d0/d03/universal_2include_2userver_2utils_2meta_8hpp.html" target="_top" xlink:title="Metaprogramming, template variables and concepts.">
<polygon fill="white" stroke="#666666" points="213.5,-211.5 86.5,-211.5 86.5,-192.5 213.5,-192.5 213.5,-211.5"/>
<text text-anchor="middle" x="150" y="-199.5" font-family="Helvetica,sans-Serif" font-size="10.00">userver/utils/meta.hpp</text>
</a>
</g>
</g>
<!-- Node4&#45;&gt;Node18 -->
<g id="edge20_Node000004_Node000018" class="edge">
<title>Node4&#45;&gt;Node18</title>
<g id="a_edge20_Node000004_Node000018"><a xlink:title=" ">
<path fill="none" stroke="#63b8ff" d="M601.19,-261.98C518.24,-254.21 357.6,-237.94 222,-217 215.24,-215.96 208.14,-214.73 201.14,-213.45"/>
<polygon fill="#63b8ff" stroke="#63b8ff" points="201.5,-209.96 191.02,-211.55 200.21,-216.84 201.5,-209.96"/>
</a>
</g>
</g>
<!-- Node21 -->
<g id="Node000021" class="node">
<title>Node21</title>
<g id="a_Node000021"><a xlink:href="../../db/d12/underlying__value_8hpp.html" target="_top" xlink:title=" ">
<polygon fill="white" stroke="#666666" points="950,-85 818,-85 818,-55 950,-55 950,-85"/>
<text text-anchor="start" x="826" y="-73" font-family="Helvetica,sans-Serif" font-size="10.00">userver/utils/underlying</text>
<text text-anchor="middle" x="884" y="-62" font-family="Helvetica,sans-Serif" font-size="10.00">_value.hpp</text>
</a>
</g>
</g>
<!-- Node4&#45;&gt;Node21 -->
<g id="edge27_Node000004_Node000021" class="edge">
<title>Node4&#45;&gt;Node21</title>
<g id="a_edge27_Node000004_Node000021"><a xlink:title=" ">
<path fill="none" stroke="#63b8ff" d="M712.62,-254.49C769.41,-241.48 849.97,-222.29 855,-217 886.21,-184.15 888.27,-127.81 886.47,-95.57"/>
<polygon fill="#63b8ff" stroke="#63b8ff" points="889.94,-94.97 885.72,-85.25 882.96,-95.48 889.94,-94.97"/>
</a>
</g>
</g>
<!-- Node11 -->
<g id="Node000011" class="node">
<title>Node11</title>
<g id="a_Node000011"><a xlink:title=" ">
<polygon fill="#e0e0e0" stroke="#999999" points="1157.5,-145.5 1090.5,-145.5 1090.5,-126.5 1157.5,-126.5 1157.5,-145.5"/>
<text text-anchor="middle" x="1124" y="-133.5" font-family="Helvetica,sans-Serif" font-size="10.00">fmt/core.h</text>
</a>
</g>
</g>
<!-- Node10&#45;&gt;Node11 -->
<g id="edge10_Node000010_Node000011" class="edge">
<title>Node10&#45;&gt;Node11</title>
<g id="a_edge10_Node000010_Node000011"><a xlink:title=" ">
<path fill="none" stroke="#63b8ff" d="M1124,-192.37C1124,-183.16 1124,-168.29 1124,-156.27"/>
<polygon fill="#63b8ff" stroke="#63b8ff" points="1127.5,-155.91 1124,-145.91 1120.5,-155.91 1127.5,-155.91"/>
</a>
</g>
</g>
<!-- Node13&#45;&gt;Node7 -->
<g id="edge13_Node000013_Node000007" class="edge">
<title>Node13&#45;&gt;Node7</title>
<g id="a_edge13_Node000013_Node000007"><a xlink:title=" ">
<path fill="none" stroke="#63b8ff" d="M610.16,-195.28C670.26,-188.74 750.16,-175.62 770,-151 778.37,-140.62 778.04,-131.64 770,-121 728.02,-65.47 518.01,-29.78 424.75,-16.42"/>
<polygon fill="#63b8ff" stroke="#63b8ff" points="425.16,-12.94 414.77,-15.01 424.18,-19.88 425.16,-12.94"/>
</a>
</g>
</g>
<!-- Node14 -->
<g id="Node000014" class="node">
<title>Node14</title>
<g id="a_Node000014"><a xlink:href="../../d2/dc8/universal_2include_2userver_2formats_2parse_2to_8hpp.html" target="_top" xlink:title="Helper for parsers.">
<polygon fill="white" stroke="#666666" points="761.5,-151 636.5,-151 636.5,-121 761.5,-121 761.5,-151"/>
<text text-anchor="start" x="644.5" y="-139" font-family="Helvetica,sans-Serif" font-size="10.00">userver/formats/parse</text>
<text text-anchor="middle" x="699" y="-128" font-family="Helvetica,sans-Serif" font-size="10.00">/to.hpp</text>
</a>
</g>
</g>
<!-- Node13&#45;&gt;Node14 -->
<g id="edge14_Node000013_Node000014" class="edge">
<title>Node13&#45;&gt;Node14</title>
<g id="a_edge14_Node000013_Node000014"><a xlink:title=" ">
<path fill="none" stroke="#63b8ff" d="M574.89,-186.95C598.4,-177.49 629.6,-164.93 654.84,-154.78"/>
<polygon fill="#63b8ff" stroke="#63b8ff" points="656.22,-157.99 664.19,-151.01 653.6,-151.5 656.22,-157.99"/>
</a>
</g>
</g>
<!-- Node15 -->
<g id="Node000015" class="node">
<title>Node15</title>
<g id="a_Node000015"><a xlink:href="../../d6/d8e/universal_2include_2userver_2formats_2serialize_2to_8hpp.html" target="_top" xlink:title="Helper for serializers.">
<polygon fill="white" stroke="#666666" points="551.5,-151 412.5,-151 412.5,-121 551.5,-121 551.5,-151"/>
<text text-anchor="start" x="420.5" y="-139" font-family="Helvetica,sans-Serif" font-size="10.00">userver/formats/serialize</text>
<text text-anchor="middle" x="482" y="-128" font-family="Helvetica,sans-Serif" font-size="10.00">/to.hpp</text>
</a>
</g>
</g>
<!-- Node13&#45;&gt;Node15 -->
<g id="edge15_Node000013_Node000015" class="edge">
<title>Node13&#45;&gt;Node15</title>
<g id="a_edge15_Node000013_Node000015"><a xlink:title=" ">
<path fill="none" stroke="#63b8ff" d="M527.13,-186.8C519.62,-178.51 509.99,-167.89 501.56,-158.59"/>
<polygon fill="#63b8ff" stroke="#63b8ff" points="504.14,-156.22 494.84,-151.16 498.96,-160.92 504.14,-156.22"/>
</a>
</g>
</g>
<!-- Node16 -->
<g id="Node000016" class="node">
<title>Node16</title>
<g id="a_Node000016"><a xlink:href="../../d3/da0/meta__light_8hpp.html" target="_top" xlink:title="Lightweight concepts.">
<polygon fill="white" stroke="#666666" points="394,-151 288,-151 288,-121 394,-121 394,-151"/>
<text text-anchor="start" x="296" y="-139" font-family="Helvetica,sans-Serif" font-size="10.00">userver/utils/meta</text>
<text text-anchor="middle" x="341" y="-128" font-family="Helvetica,sans-Serif" font-size="10.00">_light.hpp</text>
</a>
</g>
</g>
<!-- Node13&#45;&gt;Node16 -->
<g id="edge16_Node000013_Node000016" class="edge">
<title>Node13&#45;&gt;Node16</title>
<g id="a_edge16_Node000013_Node000016"><a xlink:title=" ">
<path fill="none" stroke="#63b8ff" d="M496.33,-186.95C466.26,-177.28 426.13,-164.38 394.2,-154.11"/>
<polygon fill="#63b8ff" stroke="#63b8ff" points="395.16,-150.74 384.57,-151.01 393.02,-157.41 395.16,-150.74"/>
</a>
</g>
</g>
<!-- Node16&#45;&gt;Node7 -->
<g id="edge17_Node000016_Node000007" class="edge">
<title>Node16&#45;&gt;Node7</title>
<g id="a_edge17_Node000016_Node000007"><a xlink:title=" ">
<path fill="none" stroke="#63b8ff" d="M343.51,-120.9C346.58,-104.74 352.32,-77.57 360,-55 363.07,-45.98 367.3,-36.29 371.08,-28.27"/>
<polygon fill="#63b8ff" stroke="#63b8ff" points="374.28,-29.69 375.51,-19.17 367.99,-26.63 374.28,-29.69"/>
</a>
</g>
</g>
<!-- Node16&#45;&gt;Node17 -->
<g id="edge18_Node000016_Node000017" class="edge">
<title>Node16&#45;&gt;Node17</title>
<g id="a_edge18_Node000016_Node000017"><a xlink:title=" ">
<path fill="none" stroke="#63b8ff" d="M358.53,-120.8C369.17,-112.18 382.92,-101.04 394.72,-91.48"/>
<polygon fill="#63b8ff" stroke="#63b8ff" points="396.95,-94.18 402.52,-85.16 392.54,-88.74 396.95,-94.18"/>
</a>
</g>
</g>
<!-- Node17&#45;&gt;Node7 -->
<g id="edge19_Node000017_Node000007" class="edge">
<title>Node17&#45;&gt;Node7</title>
<g id="a_edge19_Node000017_Node000007"><a xlink:title=" ">
<path fill="none" stroke="#63b8ff" d="M410.32,-54.84C404.75,-46.69 397.71,-36.4 391.82,-27.78"/>
<polygon fill="#63b8ff" stroke="#63b8ff" points="394.53,-25.55 385.99,-19.27 388.75,-29.5 394.53,-25.55"/>
</a>
</g>
</g>
<!-- Node18&#45;&gt;Node2 -->
<g id="edge23_Node000018_Node000002" class="edge">
<title>Node18&#45;&gt;Node2</title>
<g id="a_edge23_Node000018_Node000002"><a xlink:title=" ">
<path fill="none" stroke="#63b8ff" d="M133.55,-192.37C112.99,-181.59 77.6,-163.02 53.51,-150.38"/>
<polygon fill="#63b8ff" stroke="#63b8ff" points="55.06,-147.25 44.58,-145.7 51.81,-153.44 55.06,-147.25"/>
</a>
</g>
</g>
<!-- Node18&#45;&gt;Node6 -->
<g id="edge21_Node000018_Node000006" class="edge">
<title>Node18&#45;&gt;Node6</title>
<g id="a_edge21_Node000018_Node000006"><a xlink:title=" ">
<path fill="none" stroke="#63b8ff" d="M190.64,-192.47C200.85,-190.5 211.8,-188.53 222,-187 371.4,-164.56 413.56,-188.14 560,-151 562.16,-150.45 564.37,-149.79 566.56,-149.06"/>
<polygon fill="#63b8ff" stroke="#63b8ff" points="567.84,-152.32 575.97,-145.54 565.38,-145.77 567.84,-152.32"/>
</a>
</g>
</g>
<!-- Node18&#45;&gt;Node7 -->
<g id="edge24_Node000018_Node000007" class="edge">
<title>Node18&#45;&gt;Node7</title>
<g id="a_edge24_Node000018_Node000007"><a xlink:title=" ">
<path fill="none" stroke="#63b8ff" d="M150.32,-192.41C151.25,-177.01 154.88,-144.16 169,-121 205.26,-61.55 285.12,-32.5 335.52,-19.58"/>
<polygon fill="#63b8ff" stroke="#63b8ff" points="336.62,-22.91 345.5,-17.13 334.95,-16.11 336.62,-22.91"/>
</a>
</g>
</g>
<!-- Node18&#45;&gt;Node16 -->
<g id="edge26_Node000018_Node000016" class="edge">
<title>Node18&#45;&gt;Node16</title>
<g id="a_edge26_Node000018_Node000016"><a xlink:title=" ">
<path fill="none" stroke="#63b8ff" d="M175.76,-192.37C204.74,-182.66 252.55,-166.64 289.31,-154.32"/>
<polygon fill="#63b8ff" stroke="#63b8ff" points="290.5,-157.61 298.87,-151.12 288.28,-150.97 290.5,-157.61"/>
</a>
</g>
</g>
<!-- Node19 -->
<g id="Node000019" class="node">
<title>Node19</title>
<g id="a_Node000019"><a xlink:title=" ">
<polygon fill="#e0e0e0" stroke="#999999" points="231.5,-145.5 178.5,-145.5 178.5,-126.5 231.5,-126.5 231.5,-145.5"/>
<text text-anchor="middle" x="205" y="-133.5" font-family="Helvetica,sans-Serif" font-size="10.00">iterator</text>
</a>
</g>
</g>
<!-- Node18&#45;&gt;Node19 -->
<g id="edge22_Node000018_Node000019" class="edge">
<title>Node18&#45;&gt;Node19</title>
<g id="a_edge22_Node000018_Node000019"><a xlink:title=" ">
<path fill="none" stroke="#63b8ff" d="M157.42,-192.37C165.9,-182.5 179.98,-166.11 190.63,-153.72"/>
<polygon fill="#63b8ff" stroke="#63b8ff" points="193.48,-155.77 197.35,-145.91 188.17,-151.21 193.48,-155.77"/>
</a>
</g>
</g>
<!-- Node20 -->
<g id="Node000020" class="node">
<title>Node20</title>
<g id="a_Node000020"><a xlink:title=" ">
<polygon fill="#e0e0e0" stroke="#999999" points="121.5,-145.5 74.5,-145.5 74.5,-126.5 121.5,-126.5 121.5,-145.5"/>
<text text-anchor="middle" x="98" y="-133.5" font-family="Helvetica,sans-Serif" font-size="10.00">vector</text>
</a>
</g>
</g>
<!-- Node18&#45;&gt;Node20 -->
<g id="edge25_Node000018_Node000020" class="edge">
<title>Node18&#45;&gt;Node20</title>
<g id="a_edge25_Node000018_Node000020"><a xlink:title=" ">
<path fill="none" stroke="#63b8ff" d="M142.99,-192.37C134.97,-182.5 121.65,-166.11 111.58,-153.72"/>
<polygon fill="#63b8ff" stroke="#63b8ff" points="114.26,-151.46 105.24,-145.91 108.83,-155.87 114.26,-151.46"/>
</a>
</g>
</g>
<!-- Node21&#45;&gt;Node7 -->
<g id="edge28_Node000021_Node000007" class="edge">
<title>Node21&#45;&gt;Node7</title>
<g id="a_edge28_Node000021_Node000007"><a xlink:title=" ">
<path fill="none" stroke="#63b8ff" d="M817.7,-57.04C813.07,-56.31 808.47,-55.62 804,-55 666.43,-35.77 502.69,-20.82 425.09,-14.21"/>
<polygon fill="#63b8ff" stroke="#63b8ff" points="424.98,-10.69 414.72,-13.33 424.39,-17.66 424.98,-10.69"/>
</a>
</g>
</g>
</g>
</svg>
