<?xml version="1.0" encoding="UTF-8" standalone="no"?>
<!DOCTYPE svg PUBLIC "-//W3C//DTD SVG 1.1//EN"
 "http://www.w3.org/Graphics/SVG/1.1/DTD/svg11.dtd">
<!-- Generated by graphviz version 2.43.0 (0)
 -->
<!-- Title: components::DefaultSecdistProvider Pages: 1 -->
<svg width="672pt" height="119pt"
 viewBox="0.00 0.00 672.00 118.50" xmlns="http://www.w3.org/2000/svg" xmlns:xlink="http://www.w3.org/1999/xlink">
<g id="graph0" class="graph" transform="scale(1 1) rotate(0) translate(4 114.5)">
<title>components::DefaultSecdistProvider</title>
<!-- Node1 -->
<g id="Node000001" class="node">
<title>Node1</title>
<g id="a_Node000001"><a xlink:title="Component that stores security related data (keys, passwords, ...).">
<polygon fill="#999999" stroke="#666666" points="664,-73 510,-73 510,-43 664,-43 664,-73"/>
<text text-anchor="start" x="518" y="-61" font-family="Helvetica,sans-Serif" font-size="10.00">components::DefaultSecdist</text>
<text text-anchor="middle" x="587" y="-50" font-family="Helvetica,sans-Serif" font-size="10.00">Provider</text>
</a>
</g>
</g>
<!-- Node2 -->
<g id="Node000002" class="node">
<title>Node2</title>
<g id="a_Node000002"><a xlink:href="../../d5/d69/classcomponents_1_1LoggableComponentBase.html" target="_top" xlink:title="Base class for all application components, it depends on components::Logger and components::Tracer.">
<polygon fill="white" stroke="#666666" points="435,-110.5 228,-110.5 228,-91.5 435,-91.5 435,-110.5"/>
<text text-anchor="middle" x="331.5" y="-98.5" font-family="Helvetica,sans-Serif" font-size="10.00">components::LoggableComponentBase</text>
</a>
</g>
</g>
<!-- Node2&#45;&gt;Node1 -->
<g id="edge1_Node000001_Node000002" class="edge">
<title>Node2&#45;&gt;Node1</title>
<g id="a_edge1_Node000001_Node000002"><a xlink:title=" ">
<path fill="none" stroke="#63b8ff" d="M399.04,-89.71C433,-83.95 474.46,-76.92 509.71,-70.94"/>
<polygon fill="#63b8ff" stroke="#63b8ff" points="398.03,-86.33 388.76,-91.46 399.2,-93.24 398.03,-86.33"/>
</a>
</g>
</g>
<!-- Node3 -->
<g id="Node000003" class="node">
<title>Node3</title>
<g id="a_Node000003"><a xlink:title=" ">
<polygon fill="white" stroke="#666666" points="191,-110.5 0,-110.5 0,-91.5 191,-91.5 191,-110.5"/>
<text text-anchor="middle" x="95.5" y="-98.5" font-family="Helvetica,sans-Serif" font-size="10.00">components::impl::ComponentBase</text>
</a>
</g>
</g>
<!-- Node3&#45;&gt;Node2 -->
<g id="edge2_Node000002_Node000003" class="edge">
<title>Node3&#45;&gt;Node2</title>
<g id="a_edge2_Node000002_Node000003"><a xlink:title=" ">
<path fill="none" stroke="#63b8ff" d="M201.06,-101C210.01,-101 219.06,-101 227.99,-101"/>
<polygon fill="#63b8ff" stroke="#63b8ff" points="201,-97.5 191,-101 201,-104.5 201,-97.5"/>
</a>
</g>
</g>
<!-- Node4 -->
<g id="Node000004" class="node">
<title>Node4</title>
<g id="a_Node000004"><a xlink:href="../../d3/dfb/classstorages_1_1secdist_1_1SecdistProvider.html" target="_top" xlink:title=" ">
<polygon fill="white" stroke="#bfbfbf" points="384,-73 279,-73 279,-43 384,-43 384,-73"/>
<text text-anchor="start" x="287" y="-61" font-family="Helvetica,sans-Serif" font-size="10.00">storages::secdist::</text>
<text text-anchor="middle" x="331.5" y="-50" font-family="Helvetica,sans-Serif" font-size="10.00">SecdistProvider</text>
</a>
</g>
</g>
<!-- Node4&#45;&gt;Node1 -->
<g id="edge3_Node000001_Node000004" class="edge">
<title>Node4&#45;&gt;Node1</title>
<g id="a_edge3_Node000001_Node000004"><a xlink:title=" ">
<path fill="none" stroke="#63b8ff" d="M394.15,-58C429.03,-58 472.93,-58 509.93,-58"/>
<polygon fill="#63b8ff" stroke="#63b8ff" points="394.11,-54.5 384.11,-58 394.11,-61.5 394.11,-54.5"/>
</a>
</g>
</g>
<!-- Node5 -->
<g id="Node000005" class="node">
<title>Node5</title>
<g id="a_Node000005"><a xlink:title=" ">
<polygon fill="white" stroke="#666666" points="378.5,-24.5 284.5,-24.5 284.5,-5.5 378.5,-5.5 378.5,-24.5"/>
<text text-anchor="middle" x="331.5" y="-12.5" font-family="Helvetica,sans-Serif" font-size="10.00">std::string_view</text>
</a>
</g>
</g>
<!-- Node5&#45;&gt;Node1 -->
<g id="edge4_Node000001_Node000005" class="edge">
<title>Node5&#45;&gt;Node1</title>
<g id="a_edge4_Node000001_Node000005"><a xlink:title=" ">
<path fill="none" stroke="#9a32cd" stroke-dasharray="5,2" d="M388.91,-24.57C424.5,-30.61 470.92,-38.48 509.77,-45.07"/>
<polygon fill="#9a32cd" stroke="#9a32cd" points="389.15,-21.06 378.7,-22.84 387.97,-27.96 389.15,-21.06"/>
</a>
</g>
<text text-anchor="middle" x="472.5" y="-44" font-family="Helvetica,sans-Serif" font-size="10.00" fill="grey"> kName</text>
</g>
<!-- Node6 -->
<g id="Node000006" class="node">
<title>Node6</title>
<g id="a_Node000006"><a xlink:title=" ">
<polygon fill="white" stroke="#666666" points="158,-30 33,-30 33,0 158,0 158,-30"/>
<text text-anchor="start" x="41" y="-18" font-family="Helvetica,sans-Serif" font-size="10.00">std::basic_string_view</text>
<text text-anchor="middle" x="95.5" y="-7" font-family="Helvetica,sans-Serif" font-size="10.00">&lt; Char &gt;</text>
</a>
</g>
</g>
<!-- Node6&#45;&gt;Node5 -->
<g id="edge5_Node000005_Node000006" class="edge">
<title>Node6&#45;&gt;Node5</title>
<g id="a_edge5_Node000005_Node000006"><a xlink:title=" ">
<path fill="none" stroke="#63b8ff" d="M168.71,-15C206.39,-15 251.38,-15 284.34,-15"/>
<polygon fill="#63b8ff" stroke="#63b8ff" points="168.29,-11.5 158.29,-15 168.29,-18.5 168.29,-11.5"/>
</a>
</g>
</g>
</g>
</svg>
