<?xml version="1.0" encoding="UTF-8" standalone="no"?>
<!DOCTYPE svg PUBLIC "-//W3C//DTD SVG 1.1//EN"
 "http://www.w3.org/Graphics/SVG/1.1/DTD/svg11.dtd">
<!-- Generated by graphviz version 2.43.0 (0)
 -->
<!-- Title: userver/dynamic_config/updates_sink/component.hpp Pages: 1 -->
<svg width="205pt" height="170pt"
 viewBox="0.00 0.00 205.00 170.00" xmlns="http://www.w3.org/2000/svg" xmlns:xlink="http://www.w3.org/1999/xlink">
<g id="graph0" class="graph" transform="scale(1 1) rotate(0) translate(4 166)">
<title>userver/dynamic_config/updates_sink/component.hpp</title>
<!-- Node1 -->
<g id="Node000001" class="node">
<title>Node1</title>
<g id="a_Node000001"><a xlink:title="Base class for components acting as dynamic config updates sinks.">
<polygon fill="#999999" stroke="#666666" points="197,-162 34,-162 34,-132 197,-132 197,-162"/>
<text text-anchor="start" x="42" y="-150" font-family="Helvetica,sans-Serif" font-size="10.00">userver/dynamic_config</text>
<text text-anchor="middle" x="115.5" y="-139" font-family="Helvetica,sans-Serif" font-size="10.00">/updates_sink/component.hpp</text>
</a>
</g>
</g>
<!-- Node2 -->
<g id="Node000002" class="node">
<title>Node2</title>
<g id="a_Node000002"><a xlink:href="../../d2/d88/core_2include_2userver_2dynamic__config_2storage_2component_8hpp.html" target="_top" xlink:title="Component that stores the dynamic config.">
<polygon fill="white" stroke="#666666" points="135,-96 0,-96 0,-66 135,-66 135,-96"/>
<text text-anchor="start" x="8" y="-84" font-family="Helvetica,sans-Serif" font-size="10.00">userver/dynamic_config</text>
<text text-anchor="middle" x="67.5" y="-73" font-family="Helvetica,sans-Serif" font-size="10.00">/storage/component.hpp</text>
</a>
</g>
</g>
<!-- Node1&#45;&gt;Node2 -->
<g id="edge1_Node000001_Node000002" class="edge">
<title>Node1&#45;&gt;Node2</title>
<g id="a_edge1_Node000001_Node000002"><a xlink:title=" ">
<path fill="none" stroke="#63b8ff" d="M98.64,-123.53C91.82,-114.43 84.15,-104.19 78.12,-96.16"/>
<polygon fill="#63b8ff" stroke="#63b8ff" points="96.05,-125.9 104.85,-131.8 101.65,-121.7 96.05,-125.9"/>
</a>
</g>
</g>
<!-- Node3 -->
<g id="Node000003" class="node">
<title>Node3</title>
<g id="a_Node000003"><a xlink:href="../../db/df3/core_2include_2userver_2dynamic__config_2updater_2component_8hpp.html" target="_top" xlink:title="Component that does a periodic update of runtime configs.">
<polygon fill="white" stroke="#666666" points="183.5,-30 47.5,-30 47.5,0 183.5,0 183.5,-30"/>
<text text-anchor="start" x="55.5" y="-18" font-family="Helvetica,sans-Serif" font-size="10.00">userver/dynamic_config</text>
<text text-anchor="middle" x="115.5" y="-7" font-family="Helvetica,sans-Serif" font-size="10.00">/updater/component.hpp</text>
</a>
</g>
</g>
<!-- Node1&#45;&gt;Node3 -->
<g id="edge3_Node000001_Node000003" class="edge">
<title>Node1&#45;&gt;Node3</title>
<g id="a_edge3_Node000001_Node000003"><a xlink:title=" ">
<path fill="none" stroke="#63b8ff" d="M132.18,-123.06C137.16,-114.92 141.96,-105.43 144.5,-96 147.96,-83.12 147.96,-78.88 144.5,-66 141.01,-53.01 133.22,-39.92 126.6,-30.4"/>
<polygon fill="#63b8ff" stroke="#63b8ff" points="129.14,-121.32 126.6,-131.6 135,-125.15 129.14,-121.32"/>
</a>
</g>
</g>
<!-- Node2&#45;&gt;Node3 -->
<g id="edge2_Node000002_Node000003" class="edge">
<title>Node2&#45;&gt;Node3</title>
<g id="a_edge2_Node000002_Node000003"><a xlink:title=" ">
<path fill="none" stroke="#63b8ff" d="M84.36,-57.53C91.18,-48.43 98.85,-38.19 104.88,-30.16"/>
<polygon fill="#63b8ff" stroke="#63b8ff" points="81.35,-55.7 78.15,-65.8 86.95,-59.9 81.35,-55.7"/>
</a>
</g>
</g>
</g>
</svg>
