<?xml version="1.0" encoding="UTF-8" standalone="no"?>
<!DOCTYPE svg PUBLIC "-//W3C//DTD SVG 1.1//EN"
 "http://www.w3.org/Graphics/SVG/1.1/DTD/svg11.dtd">
<!-- Generated by graphviz version 2.43.0 (0)
 -->
<!-- Title: userver/formats/common/conversion_stack.hpp Pages: 1 -->
<svg width="1056pt" height="159pt"
 viewBox="0.00 0.00 1055.50 159.00" xmlns="http://www.w3.org/2000/svg" xmlns:xlink="http://www.w3.org/1999/xlink">
<g id="graph0" class="graph" transform="scale(1 1) rotate(0) translate(4 155)">
<title>userver/formats/common/conversion_stack.hpp</title>
<!-- Node1 -->
<g id="Node000001" class="node">
<title>Node1</title>
<g id="a_Node000001"><a xlink:title="Used in the implementation of functions that convert between different formats, e....">
<polygon fill="#999999" stroke="#666666" points="400,-151 260,-151 260,-121 400,-121 400,-151"/>
<text text-anchor="start" x="268" y="-139" font-family="Helvetica,sans-Serif" font-size="10.00">userver/formats/common</text>
<text text-anchor="middle" x="330" y="-128" font-family="Helvetica,sans-Serif" font-size="10.00">/conversion_stack.hpp</text>
</a>
</g>
</g>
<!-- Node2 -->
<g id="Node000002" class="node">
<title>Node2</title>
<g id="a_Node000002"><a xlink:title=" ">
<polygon fill="#e0e0e0" stroke="#999999" points="50,-79.5 0,-79.5 0,-60.5 50,-60.5 50,-79.5"/>
<text text-anchor="middle" x="25" y="-67.5" font-family="Helvetica,sans-Serif" font-size="10.00">cstdint</text>
</a>
</g>
</g>
<!-- Node1&#45;&gt;Node2 -->
<g id="edge1_Node000001_Node000002" class="edge">
<title>Node1&#45;&gt;Node2</title>
<g id="a_edge1_Node000001_Node000002"><a xlink:title=" ">
<path fill="none" stroke="#63b8ff" d="M259.72,-126.13C204.46,-118.18 125.89,-104.71 59,-85 57.12,-84.45 55.2,-83.82 53.27,-83.15"/>
<polygon fill="#63b8ff" stroke="#63b8ff" points="54.4,-79.84 43.81,-79.56 51.92,-86.38 54.4,-79.84"/>
</a>
</g>
</g>
<!-- Node3 -->
<g id="Node000003" class="node">
<title>Node3</title>
<g id="a_Node000003"><a xlink:title=" ">
<polygon fill="#e0e0e0" stroke="#999999" points="124,-79.5 68,-79.5 68,-60.5 124,-60.5 124,-79.5"/>
<text text-anchor="middle" x="96" y="-67.5" font-family="Helvetica,sans-Serif" font-size="10.00">optional</text>
</a>
</g>
</g>
<!-- Node1&#45;&gt;Node3 -->
<g id="edge2_Node000001_Node000003" class="edge">
<title>Node1&#45;&gt;Node3</title>
<g id="a_edge2_Node000001_Node000003"><a xlink:title=" ">
<path fill="none" stroke="#63b8ff" d="M271.75,-120.91C233.54,-111.4 182.58,-98.22 138,-85 135.55,-84.27 133.03,-83.5 130.49,-82.7"/>
<polygon fill="#63b8ff" stroke="#63b8ff" points="131.38,-79.31 120.79,-79.57 129.23,-85.97 131.38,-79.31"/>
</a>
</g>
</g>
<!-- Node4 -->
<g id="Node000004" class="node">
<title>Node4</title>
<g id="a_Node000004"><a xlink:title=" ">
<polygon fill="#e0e0e0" stroke="#999999" points="393,-19 349,-19 349,0 393,0 393,-19"/>
<text text-anchor="middle" x="371" y="-7" font-family="Helvetica,sans-Serif" font-size="10.00">string</text>
</a>
</g>
</g>
<!-- Node1&#45;&gt;Node4 -->
<g id="edge3_Node000001_Node000004" class="edge">
<title>Node1&#45;&gt;Node4</title>
<g id="a_edge3_Node000001_Node000004"><a xlink:title=" ">
<path fill="none" stroke="#63b8ff" d="M259.94,-124.65C204.61,-113.46 141.28,-92.06 171,-55 191.67,-29.22 287.67,-17.42 338.78,-12.89"/>
<polygon fill="#63b8ff" stroke="#63b8ff" points="339.29,-16.36 348.96,-12.03 338.7,-9.38 339.29,-16.36"/>
</a>
</g>
</g>
<!-- Node5 -->
<g id="Node000005" class="node">
<title>Node5</title>
<g id="a_Node000005"><a xlink:title=" ">
<polygon fill="#e0e0e0" stroke="#999999" points="249.5,-79.5 180.5,-79.5 180.5,-60.5 249.5,-60.5 249.5,-79.5"/>
<text text-anchor="middle" x="215" y="-67.5" font-family="Helvetica,sans-Serif" font-size="10.00">type_traits</text>
</a>
</g>
</g>
<!-- Node1&#45;&gt;Node5 -->
<g id="edge4_Node000001_Node000005" class="edge">
<title>Node1&#45;&gt;Node5</title>
<g id="a_edge4_Node000001_Node000005"><a xlink:title=" ">
<path fill="none" stroke="#63b8ff" d="M304.76,-120.95C285.22,-110.08 258.32,-95.11 239.07,-84.4"/>
<polygon fill="#63b8ff" stroke="#63b8ff" points="240.74,-81.32 230.3,-79.52 237.34,-87.44 240.74,-81.32"/>
</a>
</g>
</g>
<!-- Node6 -->
<g id="Node000006" class="node">
<title>Node6</title>
<g id="a_Node000006"><a xlink:title=" ">
<polygon fill="#e0e0e0" stroke="#999999" points="312.5,-79.5 267.5,-79.5 267.5,-60.5 312.5,-60.5 312.5,-79.5"/>
<text text-anchor="middle" x="290" y="-67.5" font-family="Helvetica,sans-Serif" font-size="10.00">utility</text>
</a>
</g>
</g>
<!-- Node1&#45;&gt;Node6 -->
<g id="edge5_Node000001_Node000006" class="edge">
<title>Node1&#45;&gt;Node6</title>
<g id="a_edge5_Node000001_Node000006"><a xlink:title=" ">
<path fill="none" stroke="#63b8ff" d="M321.12,-120.8C315.19,-111.31 307.35,-98.76 301.02,-88.63"/>
<polygon fill="#63b8ff" stroke="#63b8ff" points="303.8,-86.47 295.53,-79.84 297.86,-90.18 303.8,-86.47"/>
</a>
</g>
</g>
<!-- Node7 -->
<g id="Node000007" class="node">
<title>Node7</title>
<g id="a_Node000007"><a xlink:title=" ">
<polygon fill="#e0e0e0" stroke="#999999" points="409.5,-79.5 330.5,-79.5 330.5,-60.5 409.5,-60.5 409.5,-79.5"/>
<text text-anchor="middle" x="370" y="-67.5" font-family="Helvetica,sans-Serif" font-size="10.00">fmt/format.h</text>
</a>
</g>
</g>
<!-- Node1&#45;&gt;Node7 -->
<g id="edge6_Node000001_Node000007" class="edge">
<title>Node1&#45;&gt;Node7</title>
<g id="a_edge6_Node000001_Node000007"><a xlink:title=" ">
<path fill="none" stroke="#63b8ff" d="M338.88,-120.8C344.81,-111.31 352.65,-98.76 358.98,-88.63"/>
<polygon fill="#63b8ff" stroke="#63b8ff" points="362.14,-90.18 364.47,-79.84 356.2,-86.47 362.14,-90.18"/>
</a>
</g>
</g>
<!-- Node8 -->
<g id="Node000008" class="node">
<title>Node8</title>
<g id="a_Node000008"><a xlink:title=" ">
<polygon fill="#e0e0e0" stroke="#999999" points="550,-85 428,-85 428,-55 550,-55 550,-85"/>
<text text-anchor="start" x="436" y="-73" font-family="Helvetica,sans-Serif" font-size="10.00">boost/container/small</text>
<text text-anchor="middle" x="489" y="-62" font-family="Helvetica,sans-Serif" font-size="10.00">_vector.hpp</text>
</a>
</g>
</g>
<!-- Node1&#45;&gt;Node8 -->
<g id="edge7_Node000001_Node000008" class="edge">
<title>Node1&#45;&gt;Node8</title>
<g id="a_edge7_Node000001_Node000008"><a xlink:title=" ">
<path fill="none" stroke="#63b8ff" d="M364.89,-120.95C388.4,-111.49 419.6,-98.93 444.84,-88.78"/>
<polygon fill="#63b8ff" stroke="#63b8ff" points="446.22,-91.99 454.19,-85.01 443.6,-85.5 446.22,-91.99"/>
</a>
</g>
</g>
<!-- Node9 -->
<g id="Node000009" class="node">
<title>Node9</title>
<g id="a_Node000009"><a xlink:href="../../d1/d37/demangle_8hpp.html" target="_top" xlink:title="Returns a human&#45;readable representation of provided type name.">
<polygon fill="white" stroke="#666666" points="740,-79.5 568,-79.5 568,-60.5 740,-60.5 740,-79.5"/>
<text text-anchor="middle" x="654" y="-67.5" font-family="Helvetica,sans-Serif" font-size="10.00">userver/compiler/demangle.hpp</text>
</a>
</g>
</g>
<!-- Node1&#45;&gt;Node9 -->
<g id="edge8_Node000001_Node000009" class="edge">
<title>Node1&#45;&gt;Node9</title>
<g id="a_edge8_Node000001_Node000009"><a xlink:title=" ">
<path fill="none" stroke="#63b8ff" d="M400.3,-121.11C460.58,-109.21 546.1,-92.31 600.82,-81.51"/>
<polygon fill="#63b8ff" stroke="#63b8ff" points="601.53,-84.93 610.66,-79.56 600.17,-78.07 601.53,-84.93"/>
</a>
</g>
</g>
<!-- Node12 -->
<g id="Node000012" class="node">
<title>Node12</title>
<g id="a_Node000012"><a xlink:href="../../da/d72/type_8hpp.html" target="_top" xlink:title="Common enum of types.">
<polygon fill="white" stroke="#666666" points="898,-85 758,-85 758,-55 898,-55 898,-85"/>
<text text-anchor="start" x="766" y="-73" font-family="Helvetica,sans-Serif" font-size="10.00">userver/formats/common</text>
<text text-anchor="middle" x="828" y="-62" font-family="Helvetica,sans-Serif" font-size="10.00">/type.hpp</text>
</a>
</g>
</g>
<!-- Node1&#45;&gt;Node12 -->
<g id="edge12_Node000001_Node000012" class="edge">
<title>Node1&#45;&gt;Node12</title>
<g id="a_edge12_Node000001_Node000012"><a xlink:title=" ">
<path fill="none" stroke="#63b8ff" d="M400.22,-127.85C481.46,-119.3 619.48,-103.92 747.81,-85.13"/>
<polygon fill="#63b8ff" stroke="#63b8ff" points="748.44,-88.57 757.82,-83.65 747.42,-81.65 748.44,-88.57"/>
</a>
</g>
</g>
<!-- Node13 -->
<g id="Node000013" class="node">
<title>Node13</title>
<g id="a_Node000013"><a xlink:href="../../d2/d54/assert_8hpp.html" target="_top" xlink:title="Assertion macros UASSERT, UASSERT_MSG, UINVARIANT.">
<polygon fill="white" stroke="#666666" points="1047.5,-79.5 916.5,-79.5 916.5,-60.5 1047.5,-60.5 1047.5,-79.5"/>
<text text-anchor="middle" x="982" y="-67.5" font-family="Helvetica,sans-Serif" font-size="10.00">userver/utils/assert.hpp</text>
</a>
</g>
</g>
<!-- Node1&#45;&gt;Node13 -->
<g id="edge13_Node000001_Node000013" class="edge">
<title>Node1&#45;&gt;Node13</title>
<g id="a_edge13_Node000001_Node000013"><a xlink:title=" ">
<path fill="none" stroke="#63b8ff" d="M400.41,-131.13C509.36,-124.64 725.18,-109.79 907,-85 914.66,-83.96 922.72,-82.66 930.61,-81.28"/>
<polygon fill="#63b8ff" stroke="#63b8ff" points="931.24,-84.72 940.46,-79.5 930,-77.84 931.24,-84.72"/>
</a>
</g>
</g>
<!-- Node9&#45;&gt;Node4 -->
<g id="edge10_Node000009_Node000004" class="edge">
<title>Node9&#45;&gt;Node4</title>
<g id="a_edge10_Node000009_Node000004"><a xlink:title=" ">
<path fill="none" stroke="#63b8ff" d="M612.85,-60.49C556.06,-48.75 454.83,-27.83 403.2,-17.16"/>
<polygon fill="#63b8ff" stroke="#63b8ff" points="403.77,-13.7 393.27,-15.1 402.35,-20.56 403.77,-13.7"/>
</a>
</g>
</g>
<!-- Node10 -->
<g id="Node000010" class="node">
<title>Node10</title>
<g id="a_Node000010"><a xlink:title=" ">
<polygon fill="#e0e0e0" stroke="#999999" points="641,-19 591,-19 591,0 641,0 641,-19"/>
<text text-anchor="middle" x="616" y="-7" font-family="Helvetica,sans-Serif" font-size="10.00">chrono</text>
</a>
</g>
</g>
<!-- Node9&#45;&gt;Node10 -->
<g id="edge9_Node000009_Node000010" class="edge">
<title>Node9&#45;&gt;Node10</title>
<g id="a_edge9_Node000009_Node000010"><a xlink:title=" ">
<path fill="none" stroke="#63b8ff" d="M648.39,-60.37C642.84,-51.81 634.17,-38.47 627.2,-27.74"/>
<polygon fill="#63b8ff" stroke="#63b8ff" points="630.01,-25.65 621.63,-19.17 624.14,-29.46 630.01,-25.65"/>
</a>
</g>
</g>
<!-- Node11 -->
<g id="Node000011" class="node">
<title>Node11</title>
<g id="a_Node000011"><a xlink:title=" ">
<polygon fill="#e0e0e0" stroke="#999999" points="724.5,-19 659.5,-19 659.5,0 724.5,0 724.5,-19"/>
<text text-anchor="middle" x="692" y="-7" font-family="Helvetica,sans-Serif" font-size="10.00">typeindex</text>
</a>
</g>
</g>
<!-- Node9&#45;&gt;Node11 -->
<g id="edge11_Node000009_Node000011" class="edge">
<title>Node9&#45;&gt;Node11</title>
<g id="a_edge11_Node000009_Node000011"><a xlink:title=" ">
<path fill="none" stroke="#63b8ff" d="M659.61,-60.37C665.16,-51.81 673.83,-38.47 680.8,-27.74"/>
<polygon fill="#63b8ff" stroke="#63b8ff" points="683.86,-29.46 686.37,-19.17 677.99,-25.65 683.86,-29.46"/>
</a>
</g>
</g>
<!-- Node14 -->
<g id="Node000014" class="node">
<title>Node14</title>
<g id="a_Node000014"><a xlink:title=" ">
<polygon fill="#e0e0e0" stroke="#999999" points="1018.5,-19 945.5,-19 945.5,0 1018.5,0 1018.5,-19"/>
<text text-anchor="middle" x="982" y="-7" font-family="Helvetica,sans-Serif" font-size="10.00">string_view</text>
</a>
</g>
</g>
<!-- Node13&#45;&gt;Node14 -->
<g id="edge14_Node000013_Node000014" class="edge">
<title>Node13&#45;&gt;Node14</title>
<g id="a_edge14_Node000013_Node000014"><a xlink:title=" ">
<path fill="none" stroke="#63b8ff" d="M982,-60.37C982,-52.25 982,-39.81 982,-29.39"/>
<polygon fill="#63b8ff" stroke="#63b8ff" points="985.5,-29.17 982,-19.17 978.5,-29.17 985.5,-29.17"/>
</a>
</g>
</g>
</g>
</svg>
