<?xml version="1.0" encoding="UTF-8" standalone="no"?>
<!DOCTYPE svg PUBLIC "-//W3C//DTD SVG 1.1//EN"
 "http://www.w3.org/Graphics/SVG/1.1/DTD/svg11.dtd">
<!-- Generated by graphviz version 2.43.0 (0)
 -->
<!-- Title: pytest_userver.client.ClientWrapper Pages: 1 -->
<svg width="326pt" height="104pt"
 viewBox="0.00 0.00 326.00 104.00" xmlns="http://www.w3.org/2000/svg" xmlns:xlink="http://www.w3.org/1999/xlink">
<g id="graph0" class="graph" transform="scale(1 1) rotate(0) translate(4 100)">
<title>pytest_userver.client.ClientWrapper</title>
<!-- Node1 -->
<g id="Node000001" class="node">
<title>Node1</title>
<g id="a_Node000001"><a xlink:title="Base asyncio userver client that implements HTTP requests to service.">
<polygon fill="#999999" stroke="#666666" points="234,-96 84,-96 84,-66 234,-66 234,-96"/>
<text text-anchor="start" x="92" y="-84" font-family="Helvetica,sans-Serif" font-size="10.00">pytest_userver.client.Client</text>
<text text-anchor="middle" x="159" y="-73" font-family="Helvetica,sans-Serif" font-size="10.00">Wrapper</text>
</a>
</g>
</g>
<!-- Node2 -->
<g id="Node000002" class="node">
<title>Node2</title>
<g id="a_Node000002"><a xlink:href="../../d5/d79/classpytest__userver_1_1client_1_1Client.html" target="_top" xlink:title="Asyncio userver client, typically retrieved from plugins.service_client.service_client fixture.">
<polygon fill="white" stroke="#666666" points="150,-24.5 0,-24.5 0,-5.5 150,-5.5 150,-24.5"/>
<text text-anchor="middle" x="75" y="-12.5" font-family="Helvetica,sans-Serif" font-size="10.00">pytest_userver.client.Client</text>
</a>
</g>
</g>
<!-- Node1&#45;&gt;Node2 -->
<g id="edge1_Node000001_Node000002" class="edge">
<title>Node1&#45;&gt;Node2</title>
<g id="a_edge1_Node000001_Node000002"><a xlink:title=" ">
<path fill="none" stroke="#63b8ff" d="M132.21,-59.58C116.84,-47.87 98.33,-33.77 86.61,-24.84"/>
<polygon fill="#63b8ff" stroke="#63b8ff" points="130.28,-62.52 140.36,-65.8 134.52,-56.95 130.28,-62.52"/>
</a>
</g>
</g>
<!-- Node3 -->
<g id="Node000003" class="node">
<title>Node3</title>
<g id="a_Node000003"><a xlink:href="../../d5/dd8/classpytest__userver_1_1client_1_1ClientMonitor.html" target="_top" xlink:title="Asyncio userver client for monitor listeners, typically retrieved from plugins.service_client....">
<polygon fill="white" stroke="#666666" points="318,-30 168,-30 168,0 318,0 318,-30"/>
<text text-anchor="start" x="176" y="-18" font-family="Helvetica,sans-Serif" font-size="10.00">pytest_userver.client.Client</text>
<text text-anchor="middle" x="243" y="-7" font-family="Helvetica,sans-Serif" font-size="10.00">Monitor</text>
</a>
</g>
</g>
<!-- Node1&#45;&gt;Node3 -->
<g id="edge2_Node000001_Node000003" class="edge">
<title>Node1&#45;&gt;Node3</title>
<g id="a_edge2_Node000001_Node000003"><a xlink:title=" ">
<path fill="none" stroke="#63b8ff" d="M185.94,-59.48C198.49,-49.91 213.11,-38.77 224.41,-30.16"/>
<polygon fill="#63b8ff" stroke="#63b8ff" points="183.48,-56.95 177.64,-65.8 187.72,-62.52 183.48,-56.95"/>
</a>
</g>
</g>
</g>
</svg>
