<?xml version="1.0" encoding="UTF-8" standalone="no"?>
<!DOCTYPE svg PUBLIC "-//W3C//DTD SVG 1.1//EN"
 "http://www.w3.org/Graphics/SVG/1.1/DTD/svg11.dtd">
<!-- Generated by graphviz version 2.43.0 (0)
 -->
<!-- Title: userver/server/request/task_inherited_data.hpp Pages: 1 -->
<svg width="171pt" height="181pt"
 viewBox="0.00 0.00 171.00 181.00" xmlns="http://www.w3.org/2000/svg" xmlns:xlink="http://www.w3.org/1999/xlink">
<g id="graph0" class="graph" transform="scale(1 1) rotate(0) translate(4 177)">
<title>userver/server/request/task_inherited_data.hpp</title>
<!-- Node1 -->
<g id="Node000001" class="node">
<title>Node1</title>
<g id="a_Node000001"><a xlink:title="Per&#45;request data that should be available inside handlers.">
<polygon fill="#999999" stroke="#666666" points="150,-173 13,-173 13,-143 150,-143 150,-173"/>
<text text-anchor="start" x="21" y="-161" font-family="Helvetica,sans-Serif" font-size="10.00">userver/server/request</text>
<text text-anchor="middle" x="81.5" y="-150" font-family="Helvetica,sans-Serif" font-size="10.00">/task_inherited_data.hpp</text>
</a>
</g>
</g>
<!-- Node2 -->
<g id="Node000002" class="node">
<title>Node2</title>
<g id="a_Node000002"><a xlink:href="../../db/d93/service__worker__impl_8hpp_source.html" target="_top" xlink:title=" ">
<polygon fill="white" stroke="#666666" points="140.5,-107 22.5,-107 22.5,-66 140.5,-66 140.5,-107"/>
<text text-anchor="start" x="30.5" y="-95" font-family="Helvetica,sans-Serif" font-size="10.00">userver/ugrpc/server</text>
<text text-anchor="start" x="30.5" y="-84" font-family="Helvetica,sans-Serif" font-size="10.00">/impl/service_worker</text>
<text text-anchor="middle" x="81.5" y="-73" font-family="Helvetica,sans-Serif" font-size="10.00">_impl.hpp</text>
</a>
</g>
</g>
<!-- Node1&#45;&gt;Node2 -->
<g id="edge1_Node000001_Node000002" class="edge">
<title>Node1&#45;&gt;Node2</title>
<g id="a_edge1_Node000001_Node000002"><a xlink:title=" ">
<path fill="none" stroke="#63b8ff" d="M81.5,-132.91C81.5,-124.47 81.5,-115.1 81.5,-107.07"/>
<polygon fill="#63b8ff" stroke="#63b8ff" points="78,-132.94 81.5,-142.94 85,-132.94 78,-132.94"/>
</a>
</g>
</g>
<!-- Node3 -->
<g id="Node000003" class="node">
<title>Node3</title>
<g id="a_Node000003"><a xlink:href="../../d1/dac/server_2impl_2codegen__definitions_8hpp_source.html" target="_top" xlink:title=" ">
<polygon fill="white" stroke="#666666" points="163,-30 0,-30 0,0 163,0 163,-30"/>
<text text-anchor="start" x="8" y="-18" font-family="Helvetica,sans-Serif" font-size="10.00">userver/ugrpc/server</text>
<text text-anchor="middle" x="81.5" y="-7" font-family="Helvetica,sans-Serif" font-size="10.00">/impl/codegen_definitions.hpp</text>
</a>
</g>
</g>
<!-- Node2&#45;&gt;Node3 -->
<g id="edge2_Node000002_Node000003" class="edge">
<title>Node2&#45;&gt;Node3</title>
<g id="a_edge2_Node000002_Node000003"><a xlink:title=" ">
<path fill="none" stroke="#63b8ff" d="M81.5,-55.66C81.5,-46.76 81.5,-37.42 81.5,-30.04"/>
<polygon fill="#63b8ff" stroke="#63b8ff" points="78,-55.77 81.5,-65.77 85,-55.77 78,-55.77"/>
</a>
</g>
</g>
</g>
</svg>
