<?xml version="1.0" encoding="UTF-8" standalone="no"?>
<!DOCTYPE svg PUBLIC "-//W3C//DTD SVG 1.1//EN"
 "http://www.w3.org/Graphics/SVG/1.1/DTD/svg11.dtd">
<!-- Generated by graphviz version 2.43.0 (0)
 -->
<!-- Title: formats::bson::ConversionException Pages: 1 -->
<svg width="266pt" height="269pt"
 viewBox="0.00 0.00 266.00 269.00" xmlns="http://www.w3.org/2000/svg" xmlns:xlink="http://www.w3.org/1999/xlink">
<g id="graph0" class="graph" transform="scale(1 1) rotate(0) translate(4 265)">
<title>formats::bson::ConversionException</title>
<!-- Node1 -->
<g id="Node000001" class="node">
<title>Node1</title>
<g id="a_Node000001"><a xlink:title="Conversion error.">
<polygon fill="#999999" stroke="#666666" points="184.5,-30 39.5,-30 39.5,0 184.5,0 184.5,-30"/>
<text text-anchor="start" x="47.5" y="-18" font-family="Helvetica,sans-Serif" font-size="10.00">formats::bson::Conversion</text>
<text text-anchor="middle" x="112" y="-7" font-family="Helvetica,sans-Serif" font-size="10.00">Exception</text>
</a>
</g>
</g>
<!-- Node2 -->
<g id="Node000002" class="node">
<title>Node2</title>
<g id="a_Node000002"><a xlink:href="../../d8/d55/classformats_1_1bson_1_1ExceptionWithPath.html" target="_top" xlink:title=" ">
<polygon fill="white" stroke="#bfbfbf" points="181,-96 43,-96 43,-66 181,-66 181,-96"/>
<text text-anchor="start" x="51" y="-84" font-family="Helvetica,sans-Serif" font-size="10.00">formats::bson::Exception</text>
<text text-anchor="middle" x="112" y="-73" font-family="Helvetica,sans-Serif" font-size="10.00">WithPath</text>
</a>
</g>
</g>
<!-- Node2&#45;&gt;Node1 -->
<g id="edge1_Node000001_Node000002" class="edge">
<title>Node2&#45;&gt;Node1</title>
<g id="a_edge1_Node000001_Node000002"><a xlink:title=" ">
<path fill="none" stroke="#63b8ff" d="M112,-55.54C112,-46.96 112,-37.61 112,-30.16"/>
<polygon fill="#63b8ff" stroke="#63b8ff" points="108.5,-55.8 112,-65.8 115.5,-55.8 108.5,-55.8"/>
</a>
</g>
</g>
<!-- Node3 -->
<g id="Node000003" class="node">
<title>Node3</title>
<g id="a_Node000003"><a xlink:href="../../d5/d9e/classformats_1_1bson_1_1BsonException.html" target="_top" xlink:title="Generic BSON&#45;related exception.">
<polygon fill="white" stroke="#666666" points="193,-151 31,-151 31,-132 193,-132 193,-151"/>
<text text-anchor="middle" x="112" y="-139" font-family="Helvetica,sans-Serif" font-size="10.00">formats::bson::BsonException</text>
</a>
</g>
</g>
<!-- Node3&#45;&gt;Node2 -->
<g id="edge2_Node000002_Node000003" class="edge">
<title>Node3&#45;&gt;Node2</title>
<g id="a_edge2_Node000002_Node000003"><a xlink:title=" ">
<path fill="none" stroke="#63b8ff" d="M112,-121.65C112,-113.36 112,-103.78 112,-96.11"/>
<polygon fill="#63b8ff" stroke="#63b8ff" points="108.5,-121.87 112,-131.87 115.5,-121.87 108.5,-121.87"/>
</a>
</g>
</g>
<!-- Node4 -->
<g id="Node000004" class="node">
<title>Node4</title>
<g id="a_Node000004"><a xlink:href="../../df/dae/classutils_1_1TracefulException.html" target="_top" xlink:title="Exception that remembers the backtrace at the point of its construction.">
<polygon fill="white" stroke="#666666" points="177,-206 47,-206 47,-187 177,-187 177,-206"/>
<text text-anchor="middle" x="112" y="-194" font-family="Helvetica,sans-Serif" font-size="10.00">utils::TracefulException</text>
</a>
</g>
</g>
<!-- Node4&#45;&gt;Node3 -->
<g id="edge3_Node000003_Node000004" class="edge">
<title>Node4&#45;&gt;Node3</title>
<g id="a_edge3_Node000003_Node000004"><a xlink:title=" ">
<path fill="none" stroke="#63b8ff" d="M112,-176.66C112,-167.93 112,-157.99 112,-151.09"/>
<polygon fill="#63b8ff" stroke="#63b8ff" points="108.5,-176.75 112,-186.75 115.5,-176.75 108.5,-176.75"/>
</a>
</g>
</g>
<!-- Node5 -->
<g id="Node000005" class="node">
<title>Node5</title>
<g id="a_Node000005"><a xlink:title=" ">
<polygon fill="white" stroke="#666666" points="86,-261 0,-261 0,-242 86,-242 86,-261"/>
<text text-anchor="middle" x="43" y="-249" font-family="Helvetica,sans-Serif" font-size="10.00">std::exception</text>
</a>
</g>
</g>
<!-- Node5&#45;&gt;Node4 -->
<g id="edge4_Node000004_Node000005" class="edge">
<title>Node5&#45;&gt;Node4</title>
<g id="a_edge4_Node000004_Node000005"><a xlink:title=" ">
<path fill="none" stroke="#63b8ff" d="M62.04,-235.88C74.46,-226.34 90.24,-214.21 100.71,-206.17"/>
<polygon fill="#63b8ff" stroke="#63b8ff" points="59.88,-233.12 54.09,-241.98 64.15,-238.67 59.88,-233.12"/>
</a>
</g>
</g>
<!-- Node6 -->
<g id="Node000006" class="node">
<title>Node6</title>
<g id="a_Node000006"><a xlink:href="../../d9/d28/classutils_1_1TracefulExceptionBase.html" target="_top" xlink:title="Base class implementing backtrace storage and message builder, published only for documentation purpo...">
<polygon fill="white" stroke="#666666" points="258,-261 104,-261 104,-242 258,-242 258,-261"/>
<text text-anchor="middle" x="181" y="-249" font-family="Helvetica,sans-Serif" font-size="10.00">utils::TracefulExceptionBase</text>
</a>
</g>
</g>
<!-- Node6&#45;&gt;Node4 -->
<g id="edge5_Node000004_Node000006" class="edge">
<title>Node6&#45;&gt;Node4</title>
<g id="a_edge5_Node000004_Node000006"><a xlink:title=" ">
<path fill="none" stroke="#63b8ff" d="M161.96,-235.88C149.54,-226.34 133.76,-214.21 123.29,-206.17"/>
<polygon fill="#63b8ff" stroke="#63b8ff" points="159.85,-238.67 169.91,-241.98 164.12,-233.12 159.85,-238.67"/>
</a>
</g>
</g>
</g>
</svg>
