<?xml version="1.0" encoding="UTF-8" standalone="no"?>
<!DOCTYPE svg PUBLIC "-//W3C//DTD SVG 1.1//EN"
 "http://www.w3.org/Graphics/SVG/1.1/DTD/svg11.dtd">
<!-- Generated by graphviz version 2.43.0 (0)
 -->
<!-- Title: userver/utils/overloaded.hpp Pages: 1 -->
<svg width="452pt" height="93pt"
 viewBox="0.00 0.00 452.00 93.00" xmlns="http://www.w3.org/2000/svg" xmlns:xlink="http://www.w3.org/1999/xlink">
<g id="graph0" class="graph" transform="scale(1 1) rotate(0) translate(4 89)">
<title>userver/utils/overloaded.hpp</title>
<!-- Node1 -->
<g id="Node000001" class="node">
<title>Node1</title>
<g id="a_Node000001"><a xlink:title="Utility to define std::variant visitors in a simple way.">
<polygon fill="#999999" stroke="#666666" points="304.5,-85 148.5,-85 148.5,-66 304.5,-66 304.5,-85"/>
<text text-anchor="middle" x="226.5" y="-73" font-family="Helvetica,sans-Serif" font-size="10.00">userver/utils/overloaded.hpp</text>
</a>
</g>
</g>
<!-- Node2 -->
<g id="Node000002" class="node">
<title>Node2</title>
<g id="a_Node000002"><a xlink:href="../../db/d4f/oneof__with__discriminator_8hpp_source.html" target="_top" xlink:title=" ">
<polygon fill="white" stroke="#666666" points="133,-30 0,-30 0,0 133,0 133,-30"/>
<text text-anchor="start" x="8" y="-18" font-family="Helvetica,sans-Serif" font-size="10.00">userver/chaotic/oneof</text>
<text text-anchor="middle" x="66.5" y="-7" font-family="Helvetica,sans-Serif" font-size="10.00">_with_discriminator.hpp</text>
</a>
</g>
</g>
<!-- Node1&#45;&gt;Node2 -->
<g id="edge1_Node000001_Node000002" class="edge">
<title>Node1&#45;&gt;Node2</title>
<g id="a_edge1_Node000001_Node000002"><a xlink:title=" ">
<path fill="none" stroke="#63b8ff" d="M193.56,-62.46C167.83,-53.05 132.02,-39.95 104.97,-30.06"/>
<polygon fill="#63b8ff" stroke="#63b8ff" points="192.64,-65.85 203.23,-65.99 195.04,-59.27 192.64,-65.85"/>
</a>
</g>
</g>
<!-- Node3 -->
<g id="Node000003" class="node">
<title>Node3</title>
<g id="a_Node000003"><a xlink:href="../../dc/d98/chaotic_2include_2userver_2chaotic_2variant_8hpp_source.html" target="_top" xlink:title=" ">
<polygon fill="white" stroke="#666666" points="301.5,-24.5 151.5,-24.5 151.5,-5.5 301.5,-5.5 301.5,-24.5"/>
<text text-anchor="middle" x="226.5" y="-12.5" font-family="Helvetica,sans-Serif" font-size="10.00">userver/chaotic/variant.hpp</text>
</a>
</g>
</g>
<!-- Node1&#45;&gt;Node3 -->
<g id="edge2_Node000001_Node000003" class="edge">
<title>Node1&#45;&gt;Node3</title>
<g id="a_edge2_Node000001_Node000003"><a xlink:title=" ">
<path fill="none" stroke="#63b8ff" d="M226.5,-55.66C226.5,-45.24 226.5,-32.8 226.5,-24.67"/>
<polygon fill="#63b8ff" stroke="#63b8ff" points="223,-55.87 226.5,-65.87 230,-55.87 223,-55.87"/>
</a>
</g>
</g>
<!-- Node4 -->
<g id="Node000004" class="node">
<title>Node4</title>
<g id="a_Node000004"><a xlink:href="../../dd/d85/fmt_8hpp.html" target="_top" xlink:title="fmt formatters for various statistics types">
<polygon fill="white" stroke="#666666" points="444,-30 319,-30 319,0 444,0 444,-30"/>
<text text-anchor="start" x="327" y="-18" font-family="Helvetica,sans-Serif" font-size="10.00">userver/utils/statistics</text>
<text text-anchor="middle" x="381.5" y="-7" font-family="Helvetica,sans-Serif" font-size="10.00">/fmt.hpp</text>
</a>
</g>
</g>
<!-- Node1&#45;&gt;Node4 -->
<g id="edge3_Node000001_Node000004" class="edge">
<title>Node1&#45;&gt;Node4</title>
<g id="a_edge3_Node000001_Node000004"><a xlink:title=" ">
<path fill="none" stroke="#63b8ff" d="M258.41,-62.46C283.34,-53.05 318.03,-39.95 344.24,-30.06"/>
<polygon fill="#63b8ff" stroke="#63b8ff" points="257.16,-59.19 249.04,-65.99 259.63,-65.74 257.16,-59.19"/>
</a>
</g>
</g>
</g>
</svg>
