<?xml version="1.0" encoding="UTF-8" standalone="no"?>
<!DOCTYPE svg PUBLIC "-//W3C//DTD SVG 1.1//EN"
 "http://www.w3.org/Graphics/SVG/1.1/DTD/svg11.dtd">
<!-- Generated by graphviz version 2.43.0 (0)
 -->
<!-- Title: userver/ugrpc/client/queue_holder.hpp Pages: 1 -->
<svg width="361pt" height="159pt"
 viewBox="0.00 0.00 360.50 159.00" xmlns="http://www.w3.org/2000/svg" xmlns:xlink="http://www.w3.org/1999/xlink">
<g id="graph0" class="graph" transform="scale(1 1) rotate(0) translate(4 155)">
<title>userver/ugrpc/client/queue_holder.hpp</title>
<!-- Node1 -->
<g id="Node000001" class="node">
<title>Node1</title>
<g id="a_Node000001"><a xlink:title="Manages a gRPC completion queue, usable only in clients.">
<polygon fill="#999999" stroke="#666666" points="204.5,-151 91.5,-151 91.5,-121 204.5,-121 204.5,-151"/>
<text text-anchor="start" x="99.5" y="-139" font-family="Helvetica,sans-Serif" font-size="10.00">userver/ugrpc/client</text>
<text text-anchor="middle" x="148" y="-128" font-family="Helvetica,sans-Serif" font-size="10.00">/queue_holder.hpp</text>
</a>
</g>
</g>
<!-- Node2 -->
<g id="Node000002" class="node">
<title>Node2</title>
<g id="a_Node000002"><a xlink:title=" ">
<polygon fill="#e0e0e0" stroke="#999999" points="152,-79.5 0,-79.5 0,-60.5 152,-60.5 152,-79.5"/>
<text text-anchor="middle" x="76" y="-67.5" font-family="Helvetica,sans-Serif" font-size="10.00">grpcpp/completion_queue.h</text>
</a>
</g>
</g>
<!-- Node1&#45;&gt;Node2 -->
<g id="edge1_Node000001_Node000002" class="edge">
<title>Node1&#45;&gt;Node2</title>
<g id="a_edge1_Node000001_Node000002"><a xlink:title=" ">
<path fill="none" stroke="#63b8ff" d="M132.02,-120.8C120.69,-110.72 105.47,-97.19 93.75,-86.78"/>
<polygon fill="#63b8ff" stroke="#63b8ff" points="95.75,-83.87 85.95,-79.84 91.1,-89.1 95.75,-83.87"/>
</a>
</g>
</g>
<!-- Node3 -->
<g id="Node000003" class="node">
<title>Node3</title>
<g id="a_Node000003"><a xlink:href="../../d5/d02/fast__pimpl_8hpp.html" target="_top" xlink:title="Implements pimpl idiom without dynamic memory allocation.">
<polygon fill="white" stroke="#666666" points="269.5,-85 170.5,-85 170.5,-55 269.5,-55 269.5,-85"/>
<text text-anchor="start" x="178.5" y="-73" font-family="Helvetica,sans-Serif" font-size="10.00">userver/utils/fast</text>
<text text-anchor="middle" x="220" y="-62" font-family="Helvetica,sans-Serif" font-size="10.00">_pimpl.hpp</text>
</a>
</g>
</g>
<!-- Node1&#45;&gt;Node3 -->
<g id="edge2_Node000001_Node000003" class="edge">
<title>Node1&#45;&gt;Node3</title>
<g id="a_edge2_Node000001_Node000003"><a xlink:title=" ">
<path fill="none" stroke="#63b8ff" d="M163.98,-120.8C173.49,-112.34 185.73,-101.46 196.34,-92.03"/>
<polygon fill="#63b8ff" stroke="#63b8ff" points="198.92,-94.42 204.07,-85.16 194.27,-89.19 198.92,-94.42"/>
</a>
</g>
</g>
<!-- Node4 -->
<g id="Node000004" class="node">
<title>Node4</title>
<g id="a_Node000004"><a xlink:title=" ">
<polygon fill="#e0e0e0" stroke="#999999" points="147.5,-19 94.5,-19 94.5,0 147.5,0 147.5,-19"/>
<text text-anchor="middle" x="121" y="-7" font-family="Helvetica,sans-Serif" font-size="10.00">cstddef</text>
</a>
</g>
</g>
<!-- Node3&#45;&gt;Node4 -->
<g id="edge3_Node000003_Node000004" class="edge">
<title>Node3&#45;&gt;Node4</title>
<g id="a_edge3_Node000003_Node000004"><a xlink:title=" ">
<path fill="none" stroke="#63b8ff" d="M196.29,-54.99C180.65,-45.75 160.26,-33.7 144.64,-24.47"/>
<polygon fill="#63b8ff" stroke="#63b8ff" points="146.01,-21.21 135.62,-19.14 142.45,-27.24 146.01,-21.21"/>
</a>
</g>
</g>
<!-- Node5 -->
<g id="Node000005" class="node">
<title>Node5</title>
<g id="a_Node000005"><a xlink:title=" ">
<polygon fill="#e0e0e0" stroke="#999999" points="202.5,-19 165.5,-19 165.5,0 202.5,0 202.5,-19"/>
<text text-anchor="middle" x="184" y="-7" font-family="Helvetica,sans-Serif" font-size="10.00">new</text>
</a>
</g>
</g>
<!-- Node3&#45;&gt;Node5 -->
<g id="edge4_Node000003_Node000005" class="edge">
<title>Node3&#45;&gt;Node5</title>
<g id="a_edge4_Node000003_Node000005"><a xlink:title=" ">
<path fill="none" stroke="#63b8ff" d="M211.29,-54.84C206.33,-46.78 200.07,-36.62 194.8,-28.06"/>
<polygon fill="#63b8ff" stroke="#63b8ff" points="197.62,-25.95 189.39,-19.27 191.65,-29.62 197.62,-25.95"/>
</a>
</g>
</g>
<!-- Node6 -->
<g id="Node000006" class="node">
<title>Node6</title>
<g id="a_Node000006"><a xlink:title=" ">
<polygon fill="#e0e0e0" stroke="#999999" points="289.5,-19 220.5,-19 220.5,0 289.5,0 289.5,-19"/>
<text text-anchor="middle" x="255" y="-7" font-family="Helvetica,sans-Serif" font-size="10.00">type_traits</text>
</a>
</g>
</g>
<!-- Node3&#45;&gt;Node6 -->
<g id="edge5_Node000003_Node000006" class="edge">
<title>Node3&#45;&gt;Node6</title>
<g id="a_edge5_Node000003_Node000006"><a xlink:title=" ">
<path fill="none" stroke="#63b8ff" d="M228.47,-54.84C233.29,-46.78 239.37,-36.62 244.5,-28.06"/>
<polygon fill="#63b8ff" stroke="#63b8ff" points="247.62,-29.64 249.76,-19.27 241.62,-26.05 247.62,-29.64"/>
</a>
</g>
</g>
<!-- Node7 -->
<g id="Node000007" class="node">
<title>Node7</title>
<g id="a_Node000007"><a xlink:title=" ">
<polygon fill="#e0e0e0" stroke="#999999" points="352.5,-19 307.5,-19 307.5,0 352.5,0 352.5,-19"/>
<text text-anchor="middle" x="330" y="-7" font-family="Helvetica,sans-Serif" font-size="10.00">utility</text>
</a>
</g>
</g>
<!-- Node3&#45;&gt;Node7 -->
<g id="edge6_Node000003_Node000007" class="edge">
<title>Node3&#45;&gt;Node7</title>
<g id="a_edge6_Node000003_Node000007"><a xlink:title=" ">
<path fill="none" stroke="#63b8ff" d="M246.35,-54.99C264.05,-45.58 287.23,-33.24 304.71,-23.95"/>
<polygon fill="#63b8ff" stroke="#63b8ff" points="306.57,-26.92 313.76,-19.14 303.28,-20.74 306.57,-26.92"/>
</a>
</g>
</g>
</g>
</svg>
