<?xml version="1.0" encoding="UTF-8" standalone="no"?>
<!DOCTYPE svg PUBLIC "-//W3C//DTD SVG 1.1//EN"
 "http://www.w3.org/Graphics/SVG/1.1/DTD/svg11.dtd">
<!-- Generated by graphviz version 2.43.0 (0)
 -->
<!-- Title: pytest_userver.client._State Pages: 1 -->
<svg width="186pt" height="115pt"
 viewBox="0.00 0.00 186.00 115.00" xmlns="http://www.w3.org/2000/svg" xmlns:xlink="http://www.w3.org/1999/xlink">
<g id="graph0" class="graph" transform="scale(1 1) rotate(0) translate(4 111)">
<title>pytest_userver.client._State</title>
<!-- Node1 -->
<g id="Node000001" class="node">
<title>Node1</title>
<g id="a_Node000001"><a xlink:title="Reflects the (supposed) current service state.">
<polygon fill="#999999" stroke="#666666" points="143,-30 21,-30 21,0 143,0 143,-30"/>
<text text-anchor="start" x="29" y="-18" font-family="Helvetica,sans-Serif" font-size="10.00">pytest_userver.client.</text>
<text text-anchor="middle" x="82" y="-7" font-family="Helvetica,sans-Serif" font-size="10.00">_State</text>
</a>
</g>
</g>
<!-- Node2 -->
<g id="Node000002" class="node">
<title>Node2</title>
<g id="a_Node000002"><a xlink:title=" ">
<polygon fill="white" stroke="#bfbfbf" points="50,-107 0,-107 0,-88 50,-88 50,-107"/>
<text text-anchor="middle" x="25" y="-95" font-family="Helvetica,sans-Serif" font-size="10.00">caches</text>
</a>
</g>
</g>
<!-- Node2&#45;&gt;Node1 -->
<g id="edge1_Node000001_Node000002" class="edge">
<title>Node2&#45;&gt;Node1</title>
<g id="a_edge1_Node000001_Node000002"><a xlink:title=" ">
<path fill="none" stroke="#9a32cd" stroke-dasharray="5,2" d="M21.23,-77.85C20.28,-68.3 20.74,-56.85 26,-48 30.46,-40.49 37.4,-34.59 44.9,-30.01"/>
<polygon fill="#9a32cd" stroke="#9a32cd" points="17.8,-78.58 22.79,-87.92 24.71,-77.51 17.8,-78.58"/>
</a>
</g>
<text text-anchor="middle" x="71.5" y="-56.5" font-family="Helvetica,sans-Serif" font-size="10.00" fill="grey"> invalidation_state</text>
</g>
<!-- Node3 -->
<g id="Node000003" class="node">
<title>Node3</title>
<g id="a_Node000003"><a xlink:title=" ">
<polygon fill="white" stroke="#bfbfbf" points="162.5,-107 115.5,-107 115.5,-88 162.5,-88 162.5,-107"/>
<text text-anchor="middle" x="139" y="-95" font-family="Helvetica,sans-Serif" font-size="10.00">typing</text>
</a>
</g>
</g>
<!-- Node3&#45;&gt;Node1 -->
<g id="edge2_Node000001_Node000003" class="edge">
<title>Node3&#45;&gt;Node1</title>
<g id="a_edge2_Node000001_Node000003"><a xlink:title=" ">
<path fill="none" stroke="#9a32cd" stroke-dasharray="5,2" d="M132.68,-78.06C128.94,-68.58 123.63,-57.13 117,-48 112.26,-41.47 106.02,-35.25 100.12,-30.06"/>
<polygon fill="#9a32cd" stroke="#9a32cd" points="129.49,-79.52 136.22,-87.7 136.06,-77.11 129.49,-79.52"/>
</a>
</g>
<text text-anchor="middle" x="153.5" y="-62" font-family="Helvetica,sans-Serif" font-size="10.00" fill="grey"> now</text>
<text text-anchor="middle" x="153.5" y="-51" font-family="Helvetica,sans-Serif" font-size="10.00" fill="grey">testpoints</text>
</g>
</g>
</svg>
