<?xml version="1.0" encoding="UTF-8" standalone="no"?>
<!DOCTYPE svg PUBLIC "-//W3C//DTD SVG 1.1//EN"
 "http://www.w3.org/Graphics/SVG/1.1/DTD/svg11.dtd">
<!-- Generated by graphviz version 2.43.0 (0)
 -->
<!-- Title: ugrpc::client::InvalidArgumentError Pages: 1 -->
<svg width="172pt" height="269pt"
 viewBox="0.00 0.00 172.00 269.00" xmlns="http://www.w3.org/2000/svg" xmlns:xlink="http://www.w3.org/1999/xlink">
<g id="graph0" class="graph" transform="scale(1 1) rotate(0) translate(4 265)">
<title>ugrpc::client::InvalidArgumentError</title>
<!-- Node1 -->
<g id="Node000001" class="node">
<title>Node1</title>
<g id="a_Node000001"><a xlink:title=" ">
<polygon fill="#999999" stroke="#666666" points="164,-30 0,-30 0,0 164,0 164,-30"/>
<text text-anchor="start" x="8" y="-18" font-family="Helvetica,sans-Serif" font-size="10.00">ugrpc::client::InvalidArgument</text>
<text text-anchor="middle" x="82" y="-7" font-family="Helvetica,sans-Serif" font-size="10.00">Error</text>
</a>
</g>
</g>
<!-- Node2 -->
<g id="Node000002" class="node">
<title>Node2</title>
<g id="a_Node000002"><a xlink:href="../../d4/d7d/classugrpc_1_1client_1_1ErrorWithStatus.html" target="_top" xlink:title="Error with grpc::Status details.">
<polygon fill="white" stroke="#666666" points="146,-96 18,-96 18,-66 146,-66 146,-96"/>
<text text-anchor="start" x="26" y="-84" font-family="Helvetica,sans-Serif" font-size="10.00">ugrpc::client::ErrorWith</text>
<text text-anchor="middle" x="82" y="-73" font-family="Helvetica,sans-Serif" font-size="10.00">Status</text>
</a>
</g>
</g>
<!-- Node2&#45;&gt;Node1 -->
<g id="edge1_Node000001_Node000002" class="edge">
<title>Node2&#45;&gt;Node1</title>
<g id="a_edge1_Node000001_Node000002"><a xlink:title=" ">
<path fill="none" stroke="#63b8ff" d="M82,-55.54C82,-46.96 82,-37.61 82,-30.16"/>
<polygon fill="#63b8ff" stroke="#63b8ff" points="78.5,-55.8 82,-65.8 85.5,-55.8 78.5,-55.8"/>
</a>
</g>
</g>
<!-- Node3 -->
<g id="Node000003" class="node">
<title>Node3</title>
<g id="a_Node000003"><a xlink:href="../../d3/d28/classugrpc_1_1client_1_1RpcError.html" target="_top" xlink:title="Error during an RPC.">
<polygon fill="white" stroke="#666666" points="144,-151 20,-151 20,-132 144,-132 144,-151"/>
<text text-anchor="middle" x="82" y="-139" font-family="Helvetica,sans-Serif" font-size="10.00">ugrpc::client::RpcError</text>
</a>
</g>
</g>
<!-- Node3&#45;&gt;Node2 -->
<g id="edge2_Node000002_Node000003" class="edge">
<title>Node3&#45;&gt;Node2</title>
<g id="a_edge2_Node000002_Node000003"><a xlink:title=" ">
<path fill="none" stroke="#63b8ff" d="M82,-121.65C82,-113.36 82,-103.78 82,-96.11"/>
<polygon fill="#63b8ff" stroke="#63b8ff" points="78.5,-121.87 82,-131.87 85.5,-121.87 78.5,-121.87"/>
</a>
</g>
</g>
<!-- Node4 -->
<g id="Node000004" class="node">
<title>Node4</title>
<g id="a_Node000004"><a xlink:href="../../d3/d25/classugrpc_1_1client_1_1BaseError.html" target="_top" xlink:title="Base exception for all the client errors.">
<polygon fill="white" stroke="#666666" points="147,-206 17,-206 17,-187 147,-187 147,-206"/>
<text text-anchor="middle" x="82" y="-194" font-family="Helvetica,sans-Serif" font-size="10.00">ugrpc::client::BaseError</text>
</a>
</g>
</g>
<!-- Node4&#45;&gt;Node3 -->
<g id="edge3_Node000003_Node000004" class="edge">
<title>Node4&#45;&gt;Node3</title>
<g id="a_edge3_Node000003_Node000004"><a xlink:title=" ">
<path fill="none" stroke="#63b8ff" d="M82,-176.66C82,-167.93 82,-157.99 82,-151.09"/>
<polygon fill="#63b8ff" stroke="#63b8ff" points="78.5,-176.75 82,-186.75 85.5,-176.75 78.5,-176.75"/>
</a>
</g>
</g>
<!-- Node5 -->
<g id="Node000005" class="node">
<title>Node5</title>
<g id="a_Node000005"><a xlink:title=" ">
<polygon fill="white" stroke="#666666" points="125,-261 39,-261 39,-242 125,-242 125,-261"/>
<text text-anchor="middle" x="82" y="-249" font-family="Helvetica,sans-Serif" font-size="10.00">std::exception</text>
</a>
</g>
</g>
<!-- Node5&#45;&gt;Node4 -->
<g id="edge4_Node000004_Node000005" class="edge">
<title>Node5&#45;&gt;Node4</title>
<g id="a_edge4_Node000004_Node000005"><a xlink:title=" ">
<path fill="none" stroke="#63b8ff" d="M82,-231.66C82,-222.93 82,-212.99 82,-206.09"/>
<polygon fill="#63b8ff" stroke="#63b8ff" points="78.5,-231.75 82,-241.75 85.5,-231.75 78.5,-231.75"/>
</a>
</g>
</g>
</g>
</svg>
