<?xml version="1.0" encoding="UTF-8" standalone="no"?>
<!DOCTYPE svg PUBLIC "-//W3C//DTD SVG 1.1//EN"
 "http://www.w3.org/Graphics/SVG/1.1/DTD/svg11.dtd">
<!-- Generated by graphviz version 2.43.0 (0)
 -->
<!-- Title: userver/server/http/http_status.hpp Pages: 1 -->
<svg width="2142pt" height="467pt"
 viewBox="0.00 0.00 2142.00 467.00" xmlns="http://www.w3.org/2000/svg" xmlns:xlink="http://www.w3.org/1999/xlink">
<g id="graph0" class="graph" transform="scale(1 1) rotate(0) translate(4 463)">
<title>userver/server/http/http_status.hpp</title>
<!-- Node1 -->
<g id="Node000001" class="node">
<title>Node1</title>
<g id="a_Node000001"><a xlink:title="HTTP status codes.">
<polygon fill="#999999" stroke="#666666" points="681,-459 571,-459 571,-429 681,-429 681,-459"/>
<text text-anchor="start" x="579" y="-447" font-family="Helvetica,sans-Serif" font-size="10.00">userver/server/http</text>
<text text-anchor="middle" x="626" y="-436" font-family="Helvetica,sans-Serif" font-size="10.00">/http_status.hpp</text>
</a>
</g>
</g>
<!-- Node2 -->
<g id="Node000002" class="node">
<title>Node2</title>
<g id="a_Node000002"><a xlink:href="../../de/d82/digest_2auth__checker__base_8hpp.html" target="_top" xlink:title="Base class for digest authentication checkers. Implements a digest&#45;authentication logic.">
<polygon fill="white" stroke="#666666" points="387,-184 245,-184 245,-143 387,-143 387,-184"/>
<text text-anchor="start" x="253" y="-172" font-family="Helvetica,sans-Serif" font-size="10.00">userver/server/handlers</text>
<text text-anchor="start" x="253" y="-161" font-family="Helvetica,sans-Serif" font-size="10.00">/auth/digest/auth_checker</text>
<text text-anchor="middle" x="316" y="-150" font-family="Helvetica,sans-Serif" font-size="10.00">_base.hpp</text>
</a>
</g>
</g>
<!-- Node1&#45;&gt;Node2 -->
<g id="edge1_Node000001_Node000002" class="edge">
<title>Node1&#45;&gt;Node2</title>
<g id="a_edge1_Node000001_Node000002"><a xlink:title=" ">
<path fill="none" stroke="#63b8ff" d="M582.39,-424.85C520,-396.67 405.87,-336.47 343,-250 328.63,-230.23 321.73,-202.55 318.54,-184.1"/>
<polygon fill="#63b8ff" stroke="#63b8ff" points="581.02,-428.07 591.58,-428.94 583.86,-421.68 581.02,-428.07"/>
</a>
</g>
</g>
<!-- Node3 -->
<g id="Node000003" class="node">
<title>Node3</title>
<g id="a_Node000003"><a xlink:href="../../db/df0/standalone__checker_8hpp.html" target="_top" xlink:title="Class for digest authentication checker. Implements a stand&#45;alone digest&#45;authentication logic.">
<polygon fill="white" stroke="#666666" points="132,-107 0,-107 0,-66 132,-66 132,-107"/>
<text text-anchor="start" x="8" y="-95" font-family="Helvetica,sans-Serif" font-size="10.00">userver/server/handlers</text>
<text text-anchor="start" x="8" y="-84" font-family="Helvetica,sans-Serif" font-size="10.00">/auth/digest/standalone</text>
<text text-anchor="middle" x="66" y="-73" font-family="Helvetica,sans-Serif" font-size="10.00">_checker.hpp</text>
</a>
</g>
</g>
<!-- Node1&#45;&gt;Node3 -->
<g id="edge3_Node000001_Node000003" class="edge">
<title>Node1&#45;&gt;Node3</title>
<g id="a_edge3_Node000001_Node000003"><a xlink:title=" ">
<path fill="none" stroke="#63b8ff" d="M560.49,-440.46C451.47,-435.48 237.96,-422.23 169,-393 114.22,-369.78 66,-366.99 66,-307.5 66,-307.5 66,-307.5 66,-234 66,-188.73 66,-135.59 66,-107.4"/>
<polygon fill="#63b8ff" stroke="#63b8ff" points="560.56,-443.97 570.7,-440.92 560.87,-436.98 560.56,-443.97"/>
</a>
</g>
</g>
<!-- Node4 -->
<g id="Node000004" class="node">
<title>Node4</title>
<g id="a_Node000004"><a xlink:href="../../d1/dcf/handler__config_8hpp_source.html" target="_top" xlink:title=" ">
<polygon fill="white" stroke="#666666" points="1002,-321.5 870,-321.5 870,-291.5 1002,-291.5 1002,-321.5"/>
<text text-anchor="start" x="878" y="-309.5" font-family="Helvetica,sans-Serif" font-size="10.00">userver/server/handlers</text>
<text text-anchor="middle" x="936" y="-298.5" font-family="Helvetica,sans-Serif" font-size="10.00">/handler_config.hpp</text>
</a>
</g>
</g>
<!-- Node1&#45;&gt;Node4 -->
<g id="edge4_Node000001_Node000004" class="edge">
<title>Node1&#45;&gt;Node4</title>
<g id="a_edge4_Node000001_Node000004"><a xlink:title=" ">
<path fill="none" stroke="#63b8ff" d="M654.7,-423.04C688.28,-399.71 739.63,-364.12 742,-363 766.31,-351.52 831.22,-333.85 879.3,-321.55"/>
<polygon fill="#63b8ff" stroke="#63b8ff" points="652.39,-420.38 646.18,-428.96 656.38,-426.13 652.39,-420.38"/>
</a>
</g>
</g>
<!-- Node25 -->
<g id="Node000025" class="node">
<title>Node25</title>
<g id="a_Node000025"><a xlink:href="../../db/d08/legacy__json__error__builder_8hpp_source.html" target="_top" xlink:title=" ">
<polygon fill="white" stroke="#666666" points="949.5,-393 784.5,-393 784.5,-363 949.5,-363 949.5,-393"/>
<text text-anchor="start" x="792.5" y="-381" font-family="Helvetica,sans-Serif" font-size="10.00">userver/server/handlers</text>
<text text-anchor="middle" x="867" y="-370" font-family="Helvetica,sans-Serif" font-size="10.00">/legacy_json_error_builder.hpp</text>
</a>
</g>
</g>
<!-- Node1&#45;&gt;Node25 -->
<g id="edge25_Node000001_Node000025" class="edge">
<title>Node1&#45;&gt;Node25</title>
<g id="a_edge25_Node000001_Node000025"><a xlink:title=" ">
<path fill="none" stroke="#63b8ff" d="M688.56,-426.39C727.58,-416.03 777.22,-402.84 814.23,-393.01"/>
<polygon fill="#63b8ff" stroke="#63b8ff" points="687.66,-423.01 678.89,-428.95 689.45,-429.77 687.66,-423.01"/>
</a>
</g>
</g>
<!-- Node26 -->
<g id="Node000026" class="node">
<title>Node26</title>
<g id="a_Node000026"><a xlink:href="../../da/dfa/http__error_8hpp.html" target="_top" xlink:title="Get http status code mapped to generic handler error code.">
<polygon fill="white" stroke="#666666" points="1140,-321.5 1030,-321.5 1030,-291.5 1140,-291.5 1140,-321.5"/>
<text text-anchor="start" x="1038" y="-309.5" font-family="Helvetica,sans-Serif" font-size="10.00">userver/server/http</text>
<text text-anchor="middle" x="1085" y="-298.5" font-family="Helvetica,sans-Serif" font-size="10.00">/http_error.hpp</text>
</a>
</g>
</g>
<!-- Node1&#45;&gt;Node26 -->
<g id="edge26_Node000001_Node000026" class="edge">
<title>Node1&#45;&gt;Node26</title>
<g id="a_edge26_Node000001_Node000026"><a xlink:title=" ">
<path fill="none" stroke="#63b8ff" d="M670.06,-424.84C690.02,-416.05 713.65,-404.84 734,-393 753.83,-381.46 754.75,-371.64 776,-363 873.88,-323.21 907.55,-348.49 1011,-327 1018.67,-325.41 1026.74,-323.51 1034.61,-321.54"/>
<polygon fill="#63b8ff" stroke="#63b8ff" points="668.65,-421.63 660.88,-428.82 671.44,-428.05 668.65,-421.63"/>
</a>
</g>
</g>
<!-- Node27 -->
<g id="Node000027" class="node">
<title>Node27</title>
<g id="a_Node000027"><a xlink:href="../../db/d6b/http__response_8hpp.html" target="_top" xlink:title="HTTP Response data.">
<polygon fill="white" stroke="#666666" points="288,-393 178,-393 178,-363 288,-363 288,-393"/>
<text text-anchor="start" x="186" y="-381" font-family="Helvetica,sans-Serif" font-size="10.00">userver/server/http</text>
<text text-anchor="middle" x="233" y="-370" font-family="Helvetica,sans-Serif" font-size="10.00">/http_response.hpp</text>
</a>
</g>
</g>
<!-- Node1&#45;&gt;Node27 -->
<g id="edge28_Node000001_Node000027" class="edge">
<title>Node1&#45;&gt;Node27</title>
<g id="a_edge28_Node000001_Node000027"><a xlink:title=" ">
<path fill="none" stroke="#63b8ff" d="M560.65,-433.84C495.11,-424.43 391.35,-408.95 302,-393 297.55,-392.21 292.94,-391.35 288.32,-390.46"/>
<polygon fill="#63b8ff" stroke="#63b8ff" points="560.44,-437.34 570.83,-435.29 561.43,-430.41 560.44,-437.34"/>
</a>
</g>
</g>
<!-- Node32 -->
<g id="Node000032" class="node">
<title>Node32</title>
<g id="a_Node000032"><a xlink:href="../../dd/d99/request__config_8hpp_source.html" target="_top" xlink:title=" ">
<polygon fill="white" stroke="#666666" points="689.5,-393 562.5,-393 562.5,-363 689.5,-363 689.5,-393"/>
<text text-anchor="start" x="570.5" y="-381" font-family="Helvetica,sans-Serif" font-size="10.00">userver/server/request</text>
<text text-anchor="middle" x="626" y="-370" font-family="Helvetica,sans-Serif" font-size="10.00">/request_config.hpp</text>
</a>
</g>
</g>
<!-- Node1&#45;&gt;Node32 -->
<g id="edge42_Node000001_Node000032" class="edge">
<title>Node1&#45;&gt;Node32</title>
<g id="a_edge42_Node000001_Node000032"><a xlink:title=" ">
<path fill="none" stroke="#63b8ff" d="M626,-418.54C626,-409.96 626,-400.61 626,-393.16"/>
<polygon fill="#63b8ff" stroke="#63b8ff" points="622.5,-418.8 626,-428.8 629.5,-418.8 622.5,-418.8"/>
</a>
</g>
</g>
<!-- Node2&#45;&gt;Node3 -->
<g id="edge2_Node000002_Node000003" class="edge">
<title>Node2&#45;&gt;Node3</title>
<g id="a_edge2_Node000002_Node000003"><a xlink:title=" ">
<path fill="none" stroke="#63b8ff" d="M241.27,-140.08C206.23,-129.57 164.88,-117.16 131.14,-107.04"/>
<polygon fill="#63b8ff" stroke="#63b8ff" points="240.38,-143.47 250.97,-142.99 242.4,-136.76 240.38,-143.47"/>
</a>
</g>
</g>
<!-- Node5 -->
<g id="Node000005" class="node">
<title>Node5</title>
<g id="a_Node000005"><a xlink:href="../../db/ddd/auth__checker__factory_8hpp.html" target="_top" xlink:title="Authorization factory registration and base classes.">
<polygon fill="white" stroke="#666666" points="764,-178.5 596,-178.5 596,-148.5 764,-148.5 764,-178.5"/>
<text text-anchor="start" x="604" y="-166.5" font-family="Helvetica,sans-Serif" font-size="10.00">userver/server/handlers</text>
<text text-anchor="middle" x="680" y="-155.5" font-family="Helvetica,sans-Serif" font-size="10.00">/auth/auth_checker_factory.hpp</text>
</a>
</g>
</g>
<!-- Node4&#45;&gt;Node5 -->
<g id="edge5_Node000004_Node000005" class="edge">
<title>Node4&#45;&gt;Node5</title>
<g id="a_edge5_Node000004_Node000005"><a xlink:title=" ">
<path fill="none" stroke="#63b8ff" d="M901.67,-286.59C849.68,-257.95 752.13,-204.23 705.76,-178.69"/>
<polygon fill="#63b8ff" stroke="#63b8ff" points="900.07,-289.71 910.52,-291.46 903.45,-283.57 900.07,-289.71"/>
</a>
</g>
</g>
<!-- Node6 -->
<g id="Node000006" class="node">
<title>Node6</title>
<g id="a_Node000006"><a xlink:href="../../df/dd5/handler__base_8hpp.html" target="_top" xlink:title="Base class for the request handlers.">
<polygon fill="white" stroke="#666666" points="1026,-250 894,-250 894,-220 1026,-220 1026,-250"/>
<text text-anchor="start" x="902" y="-238" font-family="Helvetica,sans-Serif" font-size="10.00">userver/server/handlers</text>
<text text-anchor="middle" x="960" y="-227" font-family="Helvetica,sans-Serif" font-size="10.00">/handler_base.hpp</text>
</a>
</g>
</g>
<!-- Node4&#45;&gt;Node6 -->
<g id="edge6_Node000004_Node000006" class="edge">
<title>Node4&#45;&gt;Node6</title>
<g id="a_edge6_Node000004_Node000006"><a xlink:title=" ">
<path fill="none" stroke="#63b8ff" d="M944.15,-281.9C947.81,-271.31 952,-259.18 955.15,-250.04"/>
<polygon fill="#63b8ff" stroke="#63b8ff" points="940.81,-280.84 940.86,-291.44 947.43,-283.13 940.81,-280.84"/>
</a>
</g>
</g>
<!-- Node7 -->
<g id="Node000007" class="node">
<title>Node7</title>
<g id="a_Node000007"><a xlink:href="../../d4/df6/http__handler__base_8hpp.html" target="_top" xlink:title="Base class for all the Userver HTTP Handlers.">
<polygon fill="white" stroke="#666666" points="1049,-178.5 917,-178.5 917,-148.5 1049,-148.5 1049,-178.5"/>
<text text-anchor="start" x="925" y="-166.5" font-family="Helvetica,sans-Serif" font-size="10.00">userver/server/handlers</text>
<text text-anchor="middle" x="983" y="-155.5" font-family="Helvetica,sans-Serif" font-size="10.00">/http_handler_base.hpp</text>
</a>
</g>
</g>
<!-- Node6&#45;&gt;Node7 -->
<g id="edge7_Node000006_Node000007" class="edge">
<title>Node6&#45;&gt;Node7</title>
<g id="a_edge7_Node000006_Node000007"><a xlink:title=" ">
<path fill="none" stroke="#63b8ff" d="M967.81,-210.4C971.31,-199.81 975.33,-187.68 978.35,-178.54"/>
<polygon fill="#63b8ff" stroke="#63b8ff" points="964.47,-209.34 964.65,-219.94 971.12,-211.54 964.47,-209.34"/>
</a>
</g>
</g>
<!-- Node8 -->
<g id="Node000008" class="node">
<title>Node8</title>
<g id="a_Node000008"><a xlink:href="../../d6/d0d/dns__client__control_8hpp.html" target="_top" xlink:title="Handlers that controls the DNS client.">
<polygon fill="white" stroke="#666666" points="1828,-101.5 1696,-101.5 1696,-71.5 1828,-71.5 1828,-101.5"/>
<text text-anchor="start" x="1704" y="-89.5" font-family="Helvetica,sans-Serif" font-size="10.00">userver/server/handlers</text>
<text text-anchor="middle" x="1762" y="-78.5" font-family="Helvetica,sans-Serif" font-size="10.00">/dns_client_control.hpp</text>
</a>
</g>
</g>
<!-- Node7&#45;&gt;Node8 -->
<g id="edge8_Node000007_Node000008" class="edge">
<title>Node7&#45;&gt;Node8</title>
<g id="a_edge8_Node000007_Node000008"><a xlink:title=" ">
<path fill="none" stroke="#63b8ff" d="M1058.93,-147.5C1069.34,-145.79 1079.91,-144.22 1090,-143 1353.9,-111.11 1424.47,-148.64 1687,-107 1695.64,-105.63 1704.72,-103.7 1713.47,-101.58"/>
<polygon fill="#63b8ff" stroke="#63b8ff" points="1058.29,-144.06 1049.02,-149.19 1059.47,-150.96 1058.29,-144.06"/>
</a>
</g>
</g>
<!-- Node9 -->
<g id="Node000009" class="node">
<title>Node9</title>
<g id="a_Node000009"><a xlink:href="../../d6/dc0/dynamic__debug__log_8hpp.html" target="_top" xlink:title="HTTP Handler to show/hide logs at the specific file:line.">
<polygon fill="white" stroke="#666666" points="1984,-101.5 1846,-101.5 1846,-71.5 1984,-71.5 1984,-101.5"/>
<text text-anchor="start" x="1854" y="-89.5" font-family="Helvetica,sans-Serif" font-size="10.00">userver/server/handlers</text>
<text text-anchor="middle" x="1915" y="-78.5" font-family="Helvetica,sans-Serif" font-size="10.00">/dynamic_debug_log.hpp</text>
</a>
</g>
</g>
<!-- Node7&#45;&gt;Node9 -->
<g id="edge9_Node000007_Node000009" class="edge">
<title>Node7&#45;&gt;Node9</title>
<g id="a_edge9_Node000007_Node000009"><a xlink:title=" ">
<path fill="none" stroke="#63b8ff" d="M1058.92,-147.39C1069.33,-145.69 1079.91,-144.16 1090,-143 1420.22,-105.12 1508.18,-155.54 1837,-107 1846.11,-105.65 1855.71,-103.71 1864.94,-101.56"/>
<polygon fill="#63b8ff" stroke="#63b8ff" points="1058.29,-143.95 1049.01,-149.06 1059.45,-150.85 1058.29,-143.95"/>
</a>
</g>
</g>
<!-- Node10 -->
<g id="Node000010" class="node">
<title>Node10</title>
<g id="a_Node000010"><a xlink:href="../../d5/d4d/http__handler__flatbuf__base_8hpp.html" target="_top" xlink:title="Convenient base for handlers that accept requests with body in Flatbuffer format and respond with bod...">
<polygon fill="white" stroke="#666666" points="2134,-107 2002,-107 2002,-66 2134,-66 2134,-107"/>
<text text-anchor="start" x="2010" y="-95" font-family="Helvetica,sans-Serif" font-size="10.00">userver/server/handlers</text>
<text text-anchor="start" x="2010" y="-84" font-family="Helvetica,sans-Serif" font-size="10.00">/http_handler_flatbuf</text>
<text text-anchor="middle" x="2068" y="-73" font-family="Helvetica,sans-Serif" font-size="10.00">_base.hpp</text>
</a>
</g>
</g>
<!-- Node7&#45;&gt;Node10 -->
<g id="edge10_Node000007_Node000010" class="edge">
<title>Node7&#45;&gt;Node10</title>
<g id="a_edge10_Node000007_Node000010"><a xlink:title=" ">
<path fill="none" stroke="#63b8ff" d="M1059.45,-147.22C1069.69,-145.57 1080.08,-144.1 1090,-143 1489.22,-98.89 1595.69,-165.87 1993,-107 1995.93,-106.57 1998.91,-106.06 2001.91,-105.51"/>
<polygon fill="#63b8ff" stroke="#63b8ff" points="1058.57,-143.82 1049.28,-148.93 1059.72,-150.73 1058.57,-143.82"/>
</a>
</g>
</g>
<!-- Node11 -->
<g id="Node000011" class="node">
<title>Node11</title>
<g id="a_Node000011"><a xlink:href="../../d1/d58/http__handler__json__base_8hpp.html" target="_top" xlink:title="Convenient base for handlers that accept requests with body in JSON format and respond with body in J...">
<polygon fill="white" stroke="#666666" points="466,-101.5 310,-101.5 310,-71.5 466,-71.5 466,-101.5"/>
<text text-anchor="start" x="318" y="-89.5" font-family="Helvetica,sans-Serif" font-size="10.00">userver/server/handlers</text>
<text text-anchor="middle" x="388" y="-78.5" font-family="Helvetica,sans-Serif" font-size="10.00">/http_handler_json_base.hpp</text>
</a>
</g>
</g>
<!-- Node7&#45;&gt;Node11 -->
<g id="edge11_Node000007_Node000011" class="edge">
<title>Node7&#45;&gt;Node11</title>
<g id="a_edge11_Node000007_Node000011"><a xlink:title=" ">
<path fill="none" stroke="#63b8ff" d="M906.26,-154.02C875.14,-150.59 838.86,-146.6 806,-143 658.9,-126.9 620.98,-131.22 475,-107 465.69,-105.45 455.87,-103.54 446.32,-101.52"/>
<polygon fill="#63b8ff" stroke="#63b8ff" points="906.28,-157.55 916.6,-155.16 907.05,-150.59 906.28,-157.55"/>
</a>
</g>
</g>
<!-- Node15 -->
<g id="Node000015" class="node">
<title>Node15</title>
<g id="a_Node000015"><a xlink:href="../../dd/db6/http__handler__static_8hpp.html" target="_top" xlink:title="Handler that returns HTTP 200 if file exist and returns file data with mapped content/type.">
<polygon fill="white" stroke="#666666" points="618,-101.5 484,-101.5 484,-71.5 618,-71.5 618,-101.5"/>
<text text-anchor="start" x="492" y="-89.5" font-family="Helvetica,sans-Serif" font-size="10.00">userver/server/handlers</text>
<text text-anchor="middle" x="551" y="-78.5" font-family="Helvetica,sans-Serif" font-size="10.00">/http_handler_static.hpp</text>
</a>
</g>
</g>
<!-- Node7&#45;&gt;Node15 -->
<g id="edge15_Node000007_Node000015" class="edge">
<title>Node7&#45;&gt;Node15</title>
<g id="a_edge15_Node000007_Node000015"><a xlink:title=" ">
<path fill="none" stroke="#63b8ff" d="M906.77,-152.79C834.43,-143.05 722.82,-126.71 627,-107 619.26,-105.41 611.13,-103.54 603.18,-101.59"/>
<polygon fill="#63b8ff" stroke="#63b8ff" points="906.34,-156.26 916.72,-154.11 907.27,-149.32 906.34,-156.26"/>
</a>
</g>
</g>
<!-- Node16 -->
<g id="Node000016" class="node">
<title>Node16</title>
<g id="a_Node000016"><a xlink:href="../../d7/db3/implicit__options_8hpp.html" target="_top" xlink:title="A &quot;magical&quot; handler that will respond to OPTIONS HTTP method for any other handler that cannot handle...">
<polygon fill="white" stroke="#666666" points="768,-101.5 636,-101.5 636,-71.5 768,-71.5 768,-101.5"/>
<text text-anchor="start" x="644" y="-89.5" font-family="Helvetica,sans-Serif" font-size="10.00">userver/server/handlers</text>
<text text-anchor="middle" x="702" y="-78.5" font-family="Helvetica,sans-Serif" font-size="10.00">/implicit_options.hpp</text>
</a>
</g>
</g>
<!-- Node7&#45;&gt;Node16 -->
<g id="edge16_Node000007_Node000016" class="edge">
<title>Node7&#45;&gt;Node16</title>
<g id="a_edge16_Node000007_Node000016"><a xlink:title=" ">
<path fill="none" stroke="#63b8ff" d="M920.78,-145.89C870.97,-132.6 801.87,-114.16 754.74,-101.58"/>
<polygon fill="#63b8ff" stroke="#63b8ff" points="919.91,-149.28 930.48,-148.48 921.72,-142.52 919.91,-149.28"/>
</a>
</g>
</g>
<!-- Node17 -->
<g id="Node000017" class="node">
<title>Node17</title>
<g id="a_Node000017"><a xlink:href="../../d5/d86/jemalloc_8hpp.html" target="_top" xlink:title="Handler that controls the jemalloc allocator.">
<polygon fill="white" stroke="#666666" points="918,-101.5 786,-101.5 786,-71.5 918,-71.5 918,-101.5"/>
<text text-anchor="start" x="794" y="-89.5" font-family="Helvetica,sans-Serif" font-size="10.00">userver/server/handlers</text>
<text text-anchor="middle" x="852" y="-78.5" font-family="Helvetica,sans-Serif" font-size="10.00">/jemalloc.hpp</text>
</a>
</g>
</g>
<!-- Node7&#45;&gt;Node17 -->
<g id="edge17_Node000007_Node000017" class="edge">
<title>Node7&#45;&gt;Node17</title>
<g id="a_edge17_Node000007_Node000017"><a xlink:title=" ">
<path fill="none" stroke="#63b8ff" d="M949.38,-143.25C926.63,-130.23 897.08,-113.31 876.53,-101.54"/>
<polygon fill="#63b8ff" stroke="#63b8ff" points="947.94,-146.46 958.36,-148.39 951.42,-140.39 947.94,-146.46"/>
</a>
</g>
</g>
<!-- Node18 -->
<g id="Node000018" class="node">
<title>Node18</title>
<g id="a_Node000018"><a xlink:href="../../d0/d01/log__level_8hpp.html" target="_top" xlink:title="Handler that controls logging levels of all the loggers.">
<polygon fill="white" stroke="#666666" points="1068,-101.5 936,-101.5 936,-71.5 1068,-71.5 1068,-101.5"/>
<text text-anchor="start" x="944" y="-89.5" font-family="Helvetica,sans-Serif" font-size="10.00">userver/server/handlers</text>
<text text-anchor="middle" x="1002" y="-78.5" font-family="Helvetica,sans-Serif" font-size="10.00">/log_level.hpp</text>
</a>
</g>
</g>
<!-- Node7&#45;&gt;Node18 -->
<g id="edge18_Node000007_Node000018" class="edge">
<title>Node7&#45;&gt;Node18</title>
<g id="a_edge18_Node000007_Node000018"><a xlink:title=" ">
<path fill="none" stroke="#63b8ff" d="M989.1,-138.41C992.19,-126.24 995.82,-111.9 998.44,-101.54"/>
<polygon fill="#63b8ff" stroke="#63b8ff" points="985.64,-137.84 986.57,-148.39 992.42,-139.56 985.64,-137.84"/>
</a>
</g>
</g>
<!-- Node19 -->
<g id="Node000019" class="node">
<title>Node19</title>
<g id="a_Node000019"><a xlink:href="../../d7/d72/on__log__rotate_8hpp.html" target="_top" xlink:title="Handler that controls logging levels of all the loggers.">
<polygon fill="white" stroke="#666666" points="1218,-101.5 1086,-101.5 1086,-71.5 1218,-71.5 1218,-101.5"/>
<text text-anchor="start" x="1094" y="-89.5" font-family="Helvetica,sans-Serif" font-size="10.00">userver/server/handlers</text>
<text text-anchor="middle" x="1152" y="-78.5" font-family="Helvetica,sans-Serif" font-size="10.00">/on_log_rotate.hpp</text>
</a>
</g>
</g>
<!-- Node7&#45;&gt;Node19 -->
<g id="edge19_Node000007_Node000019" class="edge">
<title>Node7&#45;&gt;Node19</title>
<g id="a_edge19_Node000007_Node000019"><a xlink:title=" ">
<path fill="none" stroke="#63b8ff" d="M1024.04,-144.29C1053.68,-131.13 1093.13,-113.62 1120.35,-101.54"/>
<polygon fill="#63b8ff" stroke="#63b8ff" points="1022.51,-141.14 1014.79,-148.39 1025.35,-147.54 1022.51,-141.14"/>
</a>
</g>
</g>
<!-- Node20 -->
<g id="Node000020" class="node">
<title>Node20</title>
<g id="a_Node000020"><a xlink:href="../../d8/d39/ping_8hpp.html" target="_top" xlink:title="Handler that returns HTTP 200 if the service is OK and able to process requests.">
<polygon fill="white" stroke="#666666" points="1368,-101.5 1236,-101.5 1236,-71.5 1368,-71.5 1368,-101.5"/>
<text text-anchor="start" x="1244" y="-89.5" font-family="Helvetica,sans-Serif" font-size="10.00">userver/server/handlers</text>
<text text-anchor="middle" x="1302" y="-78.5" font-family="Helvetica,sans-Serif" font-size="10.00">/ping.hpp</text>
</a>
</g>
</g>
<!-- Node7&#45;&gt;Node20 -->
<g id="edge20_Node000007_Node000020" class="edge">
<title>Node7&#45;&gt;Node20</title>
<g id="a_edge20_Node000007_Node000020"><a xlink:title=" ">
<path fill="none" stroke="#63b8ff" d="M1056.86,-146.32C1105.33,-135.55 1170.04,-120.88 1227,-107 1234.06,-105.28 1241.48,-103.42 1248.79,-101.55"/>
<polygon fill="#63b8ff" stroke="#63b8ff" points="1056.09,-142.9 1047.09,-148.49 1057.61,-149.74 1056.09,-142.9"/>
</a>
</g>
</g>
<!-- Node21 -->
<g id="Node000021" class="node">
<title>Node21</title>
<g id="a_Node000021"><a xlink:href="../../de/d18/server__monitor_8hpp.html" target="_top" xlink:title="Handler that returns statistics data.">
<polygon fill="white" stroke="#666666" points="1518,-101.5 1386,-101.5 1386,-71.5 1518,-71.5 1518,-101.5"/>
<text text-anchor="start" x="1394" y="-89.5" font-family="Helvetica,sans-Serif" font-size="10.00">userver/server/handlers</text>
<text text-anchor="middle" x="1452" y="-78.5" font-family="Helvetica,sans-Serif" font-size="10.00">/server_monitor.hpp</text>
</a>
</g>
</g>
<!-- Node7&#45;&gt;Node21 -->
<g id="edge21_Node000007_Node000021" class="edge">
<title>Node7&#45;&gt;Node21</title>
<g id="a_edge21_Node000007_Node000021"><a xlink:title=" ">
<path fill="none" stroke="#63b8ff" d="M1059.01,-148.11C1069.41,-146.3 1079.96,-144.54 1090,-143 1217.06,-123.47 1250.75,-131.23 1377,-107 1385.06,-105.45 1393.54,-103.54 1401.77,-101.51"/>
<polygon fill="#63b8ff" stroke="#63b8ff" points="1058.35,-144.67 1049.11,-149.86 1059.57,-151.57 1058.35,-144.67"/>
</a>
</g>
</g>
<!-- Node22 -->
<g id="Node000022" class="node">
<title>Node22</title>
<g id="a_Node000022"><a xlink:href="../../d8/d82/core_2include_2userver_2server_2server_8hpp_source.html" target="_top" xlink:title=" ">
<polygon fill="white" stroke="#666666" points="1677.5,-96 1536.5,-96 1536.5,-77 1677.5,-77 1677.5,-96"/>
<text text-anchor="middle" x="1607" y="-84" font-family="Helvetica,sans-Serif" font-size="10.00">userver/server/server.hpp</text>
</a>
</g>
</g>
<!-- Node7&#45;&gt;Node22 -->
<g id="edge22_Node000007_Node000022" class="edge">
<title>Node7&#45;&gt;Node22</title>
<g id="a_edge22_Node000007_Node000022"><a xlink:title=" ">
<path fill="none" stroke="#63b8ff" d="M1058.96,-147.71C1069.36,-145.96 1079.93,-144.33 1090,-143 1283.2,-117.5 1334.63,-138.17 1527,-107 1543.65,-104.3 1561.95,-99.95 1576.84,-96.04"/>
<polygon fill="#63b8ff" stroke="#63b8ff" points="1058.31,-144.27 1049.05,-149.42 1059.5,-151.17 1058.31,-144.27"/>
</a>
</g>
</g>
<!-- Node24 -->
<g id="Node000024" class="node">
<title>Node24</title>
<g id="a_Node000024"><a xlink:href="../../d4/d64/websocket__handler_8hpp.html" target="_top" xlink:title=" ">
<polygon fill="white" stroke="#666666" points="292,-101.5 150,-101.5 150,-71.5 292,-71.5 292,-101.5"/>
<text text-anchor="start" x="158" y="-89.5" font-family="Helvetica,sans-Serif" font-size="10.00">userver/server/websocket</text>
<text text-anchor="middle" x="221" y="-78.5" font-family="Helvetica,sans-Serif" font-size="10.00">/websocket_handler.hpp</text>
</a>
</g>
</g>
<!-- Node7&#45;&gt;Node24 -->
<g id="edge24_Node000007_Node000024" class="edge">
<title>Node7&#45;&gt;Node24</title>
<g id="a_edge24_Node000007_Node000024"><a xlink:title=" ">
<path fill="none" stroke="#63b8ff" d="M906.32,-153.4C875.21,-149.88 838.92,-145.99 806,-143 581.91,-122.68 523.31,-141.77 301,-107 291.96,-105.59 282.44,-103.66 273.25,-101.57"/>
<polygon fill="#63b8ff" stroke="#63b8ff" points="906.33,-156.92 916.66,-154.58 907.12,-149.97 906.33,-156.92"/>
</a>
</g>
</g>
<!-- Node12 -->
<g id="Node000012" class="node">
<title>Node12</title>
<g id="a_Node000012"><a xlink:href="../../d5/ded/handler_8hpp_source.html" target="_top" xlink:title=" ">
<polygon fill="white" stroke="#666666" points="616,-24.5 472,-24.5 472,-5.5 616,-5.5 616,-24.5"/>
<text text-anchor="middle" x="544" y="-12.5" font-family="Helvetica,sans-Serif" font-size="10.00">userver/alerts/handler.hpp</text>
</a>
</g>
</g>
<!-- Node11&#45;&gt;Node12 -->
<g id="edge12_Node000011_Node000012" class="edge">
<title>Node11&#45;&gt;Node12</title>
<g id="a_edge12_Node000011_Node000012"><a xlink:title=" ">
<path fill="none" stroke="#63b8ff" d="M428.82,-67.31C459.79,-53.52 500.97,-35.17 524.77,-24.57"/>
<polygon fill="#63b8ff" stroke="#63b8ff" points="427.28,-64.17 419.57,-71.44 430.13,-70.56 427.28,-64.17"/>
</a>
</g>
</g>
<!-- Node13 -->
<g id="Node000013" class="node">
<title>Node13</title>
<g id="a_Node000013"><a xlink:href="../../d7/d79/inspect__requests_8hpp.html" target="_top" xlink:title="Handler that returns information about all in&#45;flight requests.">
<polygon fill="white" stroke="#666666" points="304,-30 172,-30 172,0 304,0 304,-30"/>
<text text-anchor="start" x="180" y="-18" font-family="Helvetica,sans-Serif" font-size="10.00">userver/server/handlers</text>
<text text-anchor="middle" x="238" y="-7" font-family="Helvetica,sans-Serif" font-size="10.00">/inspect_requests.hpp</text>
</a>
</g>
</g>
<!-- Node11&#45;&gt;Node13 -->
<g id="edge13_Node000011_Node000013" class="edge">
<title>Node11&#45;&gt;Node13</title>
<g id="a_edge13_Node000011_Node000013"><a xlink:title=" ">
<path fill="none" stroke="#63b8ff" d="M348.4,-67.15C323.32,-55.53 291.37,-40.73 268.31,-30.04"/>
<polygon fill="#63b8ff" stroke="#63b8ff" points="347.1,-70.41 357.65,-71.44 350.04,-64.06 347.1,-70.41"/>
</a>
</g>
</g>
<!-- Node14 -->
<g id="Node000014" class="node">
<title>Node14</title>
<g id="a_Node000014"><a xlink:href="../../d6/d43/tests__control_8hpp.html" target="_top" xlink:title="Handler that allows to control the behavior of server from tests, and functional tests with testsuite...">
<polygon fill="white" stroke="#666666" points="454,-30 322,-30 322,0 454,0 454,-30"/>
<text text-anchor="start" x="330" y="-18" font-family="Helvetica,sans-Serif" font-size="10.00">userver/server/handlers</text>
<text text-anchor="middle" x="388" y="-7" font-family="Helvetica,sans-Serif" font-size="10.00">/tests_control.hpp</text>
</a>
</g>
</g>
<!-- Node11&#45;&gt;Node14 -->
<g id="edge14_Node000011_Node000014" class="edge">
<title>Node11&#45;&gt;Node14</title>
<g id="a_edge14_Node000011_Node000014"><a xlink:title=" ">
<path fill="none" stroke="#63b8ff" d="M388,-61.25C388,-50.81 388,-38.99 388,-30.04"/>
<polygon fill="#63b8ff" stroke="#63b8ff" points="384.5,-61.44 388,-71.44 391.5,-61.44 384.5,-61.44"/>
</a>
</g>
</g>
<!-- Node23 -->
<g id="Node000023" class="node">
<title>Node23</title>
<g id="a_Node000023"><a xlink:href="../../d3/ddd/core_2include_2userver_2server_2component_8hpp.html" target="_top" xlink:title="Component that listens for incoming requests, manages incoming connections and passes the requests to...">
<polygon fill="white" stroke="#666666" points="1690,-24.5 1524,-24.5 1524,-5.5 1690,-5.5 1690,-24.5"/>
<text text-anchor="middle" x="1607" y="-12.5" font-family="Helvetica,sans-Serif" font-size="10.00">userver/server/component.hpp</text>
</a>
</g>
</g>
<!-- Node22&#45;&gt;Node23 -->
<g id="edge23_Node000022_Node000023" class="edge">
<title>Node22&#45;&gt;Node23</title>
<g id="a_edge23_Node000022_Node000023"><a xlink:title=" ">
<path fill="none" stroke="#63b8ff" d="M1607,-66.71C1607,-53 1607,-35.05 1607,-24.59"/>
<polygon fill="#63b8ff" stroke="#63b8ff" points="1603.5,-66.98 1607,-76.98 1610.5,-66.98 1603.5,-66.98"/>
</a>
</g>
</g>
<!-- Node26&#45;&gt;Node10 -->
<g id="edge27_Node000026_Node000010" class="edge">
<title>Node26&#45;&gt;Node10</title>
<g id="a_edge27_Node000026_Node000010"><a xlink:title=" ">
<path fill="none" stroke="#63b8ff" d="M1150.12,-292.18C1299.53,-261.41 1678.32,-182.27 1993,-107 1995.88,-106.31 1998.82,-105.6 2001.78,-104.87"/>
<polygon fill="#63b8ff" stroke="#63b8ff" points="1149.28,-288.78 1140.19,-294.22 1150.69,-295.63 1149.28,-288.78"/>
</a>
</g>
</g>
<!-- Node27&#45;&gt;Node2 -->
<g id="edge29_Node000027_Node000002" class="edge">
<title>Node27&#45;&gt;Node2</title>
<g id="a_edge29_Node000027_Node000002"><a xlink:title=" ">
<path fill="none" stroke="#63b8ff" d="M245.83,-354C250.27,-345.62 255.1,-336 259,-327 280.79,-276.65 300.63,-214.99 310.12,-184.1"/>
<polygon fill="#63b8ff" stroke="#63b8ff" points="242.74,-352.36 241.06,-362.82 248.9,-355.69 242.74,-352.36"/>
</a>
</g>
</g>
<!-- Node27&#45;&gt;Node3 -->
<g id="edge30_Node000027_Node000003" class="edge">
<title>Node27&#45;&gt;Node3</title>
<g id="a_edge30_Node000027_Node000003"><a xlink:title=" ">
<path fill="none" stroke="#63b8ff" d="M168.52,-359.26C151.59,-351.78 134.79,-341.37 123,-327 69.75,-262.06 99.83,-224.61 80,-143 77.11,-131.12 73.77,-117.85 71.07,-107.26"/>
<polygon fill="#63b8ff" stroke="#63b8ff" points="167.33,-362.55 177.91,-363.11 169.99,-356.08 167.33,-362.55"/>
</a>
</g>
</g>
<!-- Node27&#45;&gt;Node7 -->
<g id="edge31_Node000027_Node000007" class="edge">
<title>Node27&#45;&gt;Node7</title>
<g id="a_edge31_Node000027_Node000007"><a xlink:title=" ">
<path fill="none" stroke="#63b8ff" d="M298.16,-371.32C368.24,-364.34 482.6,-350.46 579,-327 680.47,-302.31 704.27,-289.37 801,-250 856.78,-227.3 920.02,-196.37 955.35,-178.61"/>
<polygon fill="#63b8ff" stroke="#63b8ff" points="297.76,-367.84 288.15,-372.3 298.44,-374.81 297.76,-367.84"/>
</a>
</g>
</g>
<!-- Node28 -->
<g id="Node000028" class="node">
<title>Node28</title>
<g id="a_Node000028"><a xlink:href="../../d2/d45/http__request_8hpp.html" target="_top" xlink:title="HTTP Request data.">
<polygon fill="white" stroke="#666666" points="570,-321.5 460,-321.5 460,-291.5 570,-291.5 570,-321.5"/>
<text text-anchor="start" x="468" y="-309.5" font-family="Helvetica,sans-Serif" font-size="10.00">userver/server/http</text>
<text text-anchor="middle" x="515" y="-298.5" font-family="Helvetica,sans-Serif" font-size="10.00">/http_request.hpp</text>
</a>
</g>
</g>
<!-- Node27&#45;&gt;Node28 -->
<g id="edge32_Node000027_Node000028" class="edge">
<title>Node27&#45;&gt;Node28</title>
<g id="a_edge32_Node000027_Node000028"><a xlink:title=" ">
<path fill="none" stroke="#63b8ff" d="M297.89,-361.01C346.81,-348.95 413.18,-332.59 459.62,-321.15"/>
<polygon fill="#63b8ff" stroke="#63b8ff" points="296.91,-357.64 288.04,-363.43 298.59,-364.44 296.91,-357.64"/>
</a>
</g>
</g>
<!-- Node31 -->
<g id="Node000031" class="node">
<title>Node31</title>
<g id="a_Node000031"><a xlink:href="../../d8/d76/http__response__body__stream_8hpp_source.html" target="_top" xlink:title=" ">
<polygon fill="white" stroke="#666666" points="250,-327 132,-327 132,-286 250,-286 250,-327"/>
<text text-anchor="start" x="140" y="-315" font-family="Helvetica,sans-Serif" font-size="10.00">userver/server/http</text>
<text text-anchor="start" x="140" y="-304" font-family="Helvetica,sans-Serif" font-size="10.00">/http_response_body</text>
<text text-anchor="middle" x="191" y="-293" font-family="Helvetica,sans-Serif" font-size="10.00">_stream.hpp</text>
</a>
</g>
</g>
<!-- Node27&#45;&gt;Node31 -->
<g id="edge41_Node000027_Node000031" class="edge">
<title>Node27&#45;&gt;Node31</title>
<g id="a_edge41_Node000027_Node000031"><a xlink:title=" ">
<path fill="none" stroke="#63b8ff" d="M219.29,-354.31C213.97,-345.52 207.95,-335.55 202.83,-327.07"/>
<polygon fill="#63b8ff" stroke="#63b8ff" points="216.33,-356.19 224.5,-362.94 222.32,-352.57 216.33,-356.19"/>
</a>
</g>
</g>
<!-- Node28&#45;&gt;Node2 -->
<g id="edge36_Node000028_Node000002" class="edge">
<title>Node28&#45;&gt;Node2</title>
<g id="a_edge36_Node000028_Node000002"><a xlink:title=" ">
<path fill="none" stroke="#63b8ff" d="M449.95,-289.31C424.12,-280.64 395.31,-267.95 373,-250 350.76,-232.1 334.06,-203.18 324.65,-184"/>
<polygon fill="#63b8ff" stroke="#63b8ff" points="449.1,-292.72 459.69,-292.44 451.24,-286.05 449.1,-292.72"/>
</a>
</g>
</g>
<!-- Node28&#45;&gt;Node3 -->
<g id="edge37_Node000028_Node000003" class="edge">
<title>Node28&#45;&gt;Node3</title>
<g id="a_edge37_Node000028_Node000003"><a xlink:title=" ">
<path fill="none" stroke="#63b8ff" d="M534.72,-283.37C548.13,-265.49 561.39,-240.1 549,-220 509.06,-155.19 468.65,-165.73 396,-143 286.77,-108.82 253.24,-129.44 141,-107 138.1,-106.42 135.14,-105.8 132.16,-105.14"/>
<polygon fill="#63b8ff" stroke="#63b8ff" points="531.75,-281.48 528.24,-291.48 537.21,-285.85 531.75,-281.48"/>
</a>
</g>
</g>
<!-- Node28&#45;&gt;Node7 -->
<g id="edge38_Node000028_Node000007" class="edge">
<title>Node28&#45;&gt;Node7</title>
<g id="a_edge38_Node000028_Node000007"><a xlink:title=" ">
<path fill="none" stroke="#63b8ff" d="M580.35,-292.06C627.14,-281.91 691.44,-266.87 747,-250 783.73,-238.85 791.93,-233.14 828,-220 867.21,-205.72 912.11,-189.68 943.46,-178.52"/>
<polygon fill="#63b8ff" stroke="#63b8ff" points="579.38,-288.69 570.34,-294.22 580.85,-295.53 579.38,-288.69"/>
</a>
</g>
</g>
<!-- Node29 -->
<g id="Node000029" class="node">
<title>Node29</title>
<g id="a_Node000029"><a xlink:href="../../da/dff/auth__checker__base_8hpp_source.html" target="_top" xlink:title=" ">
<polygon fill="white" stroke="#666666" points="540,-250 382,-250 382,-220 540,-220 540,-250"/>
<text text-anchor="start" x="390" y="-238" font-family="Helvetica,sans-Serif" font-size="10.00">userver/server/handlers</text>
<text text-anchor="middle" x="461" y="-227" font-family="Helvetica,sans-Serif" font-size="10.00">/auth/auth_checker_base.hpp</text>
</a>
</g>
</g>
<!-- Node28&#45;&gt;Node29 -->
<g id="edge33_Node000028_Node000029" class="edge">
<title>Node28&#45;&gt;Node29</title>
<g id="a_edge33_Node000028_Node000029"><a xlink:title=" ">
<path fill="none" stroke="#63b8ff" d="M497.93,-283.53C489.42,-272.57 479.37,-259.65 471.91,-250.04"/>
<polygon fill="#63b8ff" stroke="#63b8ff" points="495.17,-285.69 504.07,-291.44 500.7,-281.39 495.17,-285.69"/>
</a>
</g>
</g>
<!-- Node30 -->
<g id="Node000030" class="node">
<title>Node30</title>
<g id="a_Node000030"><a xlink:href="../../de/d4e/core_2include_2userver_2server_2websocket_2server_8hpp.html" target="_top" xlink:title=" ">
<polygon fill="white" stroke="#666666" points="738,-250 596,-250 596,-220 738,-220 738,-250"/>
<text text-anchor="start" x="604" y="-238" font-family="Helvetica,sans-Serif" font-size="10.00">userver/server/websocket</text>
<text text-anchor="middle" x="667" y="-227" font-family="Helvetica,sans-Serif" font-size="10.00">/server.hpp</text>
</a>
</g>
</g>
<!-- Node28&#45;&gt;Node30 -->
<g id="edge39_Node000028_Node000030" class="edge">
<title>Node28&#45;&gt;Node30</title>
<g id="a_edge39_Node000028_Node000030"><a xlink:title=" ">
<path fill="none" stroke="#63b8ff" d="M555.13,-287.15C580.55,-275.53 612.91,-260.73 636.29,-250.04"/>
<polygon fill="#63b8ff" stroke="#63b8ff" points="553.4,-284.09 545.76,-291.44 556.31,-290.46 553.4,-284.09"/>
</a>
</g>
</g>
<!-- Node29&#45;&gt;Node2 -->
<g id="edge35_Node000029_Node000002" class="edge">
<title>Node29&#45;&gt;Node2</title>
<g id="a_edge35_Node000029_Node000002"><a xlink:title=" ">
<path fill="none" stroke="#63b8ff" d="M422.42,-215.51C402.18,-205.81 377.4,-193.93 356.84,-184.07"/>
<polygon fill="#63b8ff" stroke="#63b8ff" points="421.13,-218.77 431.66,-219.94 424.15,-212.46 421.13,-218.77"/>
</a>
</g>
</g>
<!-- Node29&#45;&gt;Node5 -->
<g id="edge34_Node000029_Node000005" class="edge">
<title>Node29&#45;&gt;Node5</title>
<g id="a_edge34_Node000029_Node000005"><a xlink:title=" ">
<path fill="none" stroke="#63b8ff" d="M514.98,-216.87C552.14,-205.08 600.89,-189.61 635.75,-178.54"/>
<polygon fill="#63b8ff" stroke="#63b8ff" points="513.79,-213.57 505.32,-219.94 515.91,-220.25 513.79,-213.57"/>
</a>
</g>
</g>
<!-- Node30&#45;&gt;Node24 -->
<g id="edge40_Node000030_Node000024" class="edge">
<title>Node30&#45;&gt;Node24</title>
<g id="a_edge40_Node000030_Node000024"><a xlink:title=" ">
<path fill="none" stroke="#63b8ff" d="M734.74,-215.74C749.84,-208.38 764.02,-198.16 773,-184 782.76,-168.61 785.39,-156.37 773,-143 737.25,-104.42 352.94,-115.26 301,-107 291.96,-105.56 282.45,-103.63 273.25,-101.53"/>
<polygon fill="#63b8ff" stroke="#63b8ff" points="732.97,-212.7 725.25,-219.96 735.81,-219.09 732.97,-212.7"/>
</a>
</g>
</g>
<!-- Node32&#45;&gt;Node4 -->
<g id="edge43_Node000032_Node000004" class="edge">
<title>Node32&#45;&gt;Node4</title>
<g id="a_edge43_Node000032_Node000004"><a xlink:title=" ">
<path fill="none" stroke="#63b8ff" d="M699.56,-361.5C744.76,-351.85 803.8,-339.03 856,-327 863.52,-325.27 871.43,-323.4 879.23,-321.52"/>
<polygon fill="#63b8ff" stroke="#63b8ff" points="698.6,-358.12 689.55,-363.63 700.06,-364.97 698.6,-358.12"/>
</a>
</g>
</g>
</g>
</svg>
