<?xml version="1.0" encoding="UTF-8" standalone="no"?>
<!DOCTYPE svg PUBLIC "-//W3C//DTD SVG 1.1//EN"
 "http://www.w3.org/Graphics/SVG/1.1/DTD/svg11.dtd">
<!-- Generated by graphviz version 2.43.0 (0)
 -->
<!-- Title: userver/utest/default_logger_fixture.hpp Pages: 1 -->
<svg width="2118pt" height="412pt"
 viewBox="0.00 0.00 2118.00 412.00" xmlns="http://www.w3.org/2000/svg" xmlns:xlink="http://www.w3.org/1999/xlink">
<g id="graph0" class="graph" transform="scale(1 1) rotate(0) translate(4 408)">
<title>userver/utest/default_logger_fixture.hpp</title>
<!-- Node1 -->
<g id="Node000001" class="node">
<title>Node1</title>
<g id="a_Node000001"><a xlink:title="Fixture that allows to set the default logger and manages its lifetime.">
<polygon fill="#999999" stroke="#666666" points="1546,-404 1427,-404 1427,-374 1546,-374 1546,-404"/>
<text text-anchor="start" x="1435" y="-392" font-family="Helvetica,sans-Serif" font-size="10.00">userver/utest/default</text>
<text text-anchor="middle" x="1486.5" y="-381" font-family="Helvetica,sans-Serif" font-size="10.00">_logger_fixture.hpp</text>
</a>
</g>
</g>
<!-- Node2 -->
<g id="Node000002" class="node">
<title>Node2</title>
<g id="a_Node000002"><a xlink:title=" ">
<polygon fill="#e0e0e0" stroke="#999999" points="47,-145.5 0,-145.5 0,-126.5 47,-126.5 47,-145.5"/>
<text text-anchor="middle" x="23.5" y="-133.5" font-family="Helvetica,sans-Serif" font-size="10.00">vector</text>
</a>
</g>
</g>
<!-- Node1&#45;&gt;Node2 -->
<g id="edge1_Node000001_Node000002" class="edge">
<title>Node1&#45;&gt;Node2</title>
<g id="a_edge1_Node000001_Node000002"><a xlink:title=" ">
<path fill="none" stroke="#63b8ff" d="M1426.87,-385.04C1195.7,-372.89 359.6,-322.4 118.5,-217 85.09,-202.4 54.37,-172.18 37.36,-153.35"/>
<polygon fill="#63b8ff" stroke="#63b8ff" points="39.78,-150.8 30.55,-145.59 34.52,-155.42 39.78,-150.8"/>
</a>
</g>
</g>
<!-- Node3 -->
<g id="Node000003" class="node">
<title>Node3</title>
<g id="a_Node000003"><a xlink:href="../../dd/de6/universal_2include_2userver_2logging_2log_8hpp.html" target="_top" xlink:title="Logging helpers.">
<polygon fill="white" stroke="#666666" points="1552,-338 1421,-338 1421,-319 1552,-319 1552,-338"/>
<text text-anchor="middle" x="1486.5" y="-326" font-family="Helvetica,sans-Serif" font-size="10.00">userver/logging/log.hpp</text>
</a>
</g>
</g>
<!-- Node1&#45;&gt;Node3 -->
<g id="edge2_Node000001_Node000003" class="edge">
<title>Node1&#45;&gt;Node3</title>
<g id="a_edge2_Node000001_Node000003"><a xlink:title=" ">
<path fill="none" stroke="#63b8ff" d="M1486.5,-373.84C1486.5,-366.21 1486.5,-356.7 1486.5,-348.45"/>
<polygon fill="#63b8ff" stroke="#63b8ff" points="1490,-348.27 1486.5,-338.27 1483,-348.27 1490,-348.27"/>
</a>
</g>
</g>
<!-- Node35 -->
<g id="Node000035" class="node">
<title>Node35</title>
<g id="a_Node000035"><a xlink:href="../../d2/d54/assert_8hpp.html" target="_top" xlink:title="Assertion macros UASSERT, UASSERT_MSG, UINVARIANT.">
<polygon fill="white" stroke="#666666" points="2110,-277.5 1979,-277.5 1979,-258.5 2110,-258.5 2110,-277.5"/>
<text text-anchor="middle" x="2044.5" y="-265.5" font-family="Helvetica,sans-Serif" font-size="10.00">userver/utils/assert.hpp</text>
</a>
</g>
</g>
<!-- Node1&#45;&gt;Node35 -->
<g id="edge58_Node000001_Node000035" class="edge">
<title>Node1&#45;&gt;Node35</title>
<g id="a_edge58_Node000001_Node000035"><a xlink:title=" ">
<path fill="none" stroke="#63b8ff" d="M1546.22,-375.26C1656.82,-351.68 1891.63,-301.6 1994.48,-279.67"/>
<polygon fill="#63b8ff" stroke="#63b8ff" points="1995.26,-283.08 2004.31,-277.57 1993.8,-276.23 1995.26,-283.08"/>
</a>
</g>
</g>
<!-- Node4 -->
<g id="Node000004" class="node">
<title>Node4</title>
<g id="a_Node000004"><a xlink:title=" ">
<polygon fill="#e0e0e0" stroke="#999999" points="1481.5,-211.5 1431.5,-211.5 1431.5,-192.5 1481.5,-192.5 1481.5,-211.5"/>
<text text-anchor="middle" x="1456.5" y="-199.5" font-family="Helvetica,sans-Serif" font-size="10.00">chrono</text>
</a>
</g>
</g>
<!-- Node3&#45;&gt;Node4 -->
<g id="edge3_Node000003_Node000004" class="edge">
<title>Node3&#45;&gt;Node4</title>
<g id="a_edge3_Node000003_Node000004"><a xlink:title=" ">
<path fill="none" stroke="#63b8ff" d="M1484.44,-318.94C1479.62,-298.95 1467.54,-248.82 1460.95,-221.48"/>
<polygon fill="#63b8ff" stroke="#63b8ff" points="1464.32,-220.52 1458.58,-211.62 1457.52,-222.16 1464.32,-220.52"/>
</a>
</g>
</g>
<!-- Node5 -->
<g id="Node000005" class="node">
<title>Node5</title>
<g id="a_Node000005"><a xlink:href="../../d2/d84/select_8hpp.html" target="_top" xlink:title="Utilities for selection of platform specific values.">
<polygon fill="white" stroke="#666666" points="1516.5,-145.5 1364.5,-145.5 1364.5,-126.5 1516.5,-126.5 1516.5,-145.5"/>
<text text-anchor="middle" x="1440.5" y="-133.5" font-family="Helvetica,sans-Serif" font-size="10.00">userver/compiler/select.hpp</text>
</a>
</g>
</g>
<!-- Node3&#45;&gt;Node5 -->
<g id="edge4_Node000003_Node000005" class="edge">
<title>Node3&#45;&gt;Node5</title>
<g id="a_edge4_Node000003_Node000005"><a xlink:title=" ">
<path fill="none" stroke="#63b8ff" d="M1489.1,-318.83C1495.42,-296.12 1509.74,-233.44 1490.5,-187 1484.72,-173.04 1472.94,-160.94 1462.26,-152.15"/>
<polygon fill="#63b8ff" stroke="#63b8ff" points="1464.13,-149.17 1454.07,-145.83 1459.85,-154.71 1464.13,-149.17"/>
</a>
</g>
</g>
<!-- Node7 -->
<g id="Node000007" class="node">
<title>Node7</title>
<g id="a_Node000007"><a xlink:href="../../db/dfb/universal_2include_2userver_2logging_2fwd_8hpp.html" target="_top" xlink:title="Forward declarations for logging types.">
<polygon fill="white" stroke="#666666" points="1668.5,-145.5 1534.5,-145.5 1534.5,-126.5 1668.5,-126.5 1668.5,-145.5"/>
<text text-anchor="middle" x="1601.5" y="-133.5" font-family="Helvetica,sans-Serif" font-size="10.00">userver/logging/fwd.hpp</text>
</a>
</g>
</g>
<!-- Node3&#45;&gt;Node7 -->
<g id="edge6_Node000003_Node000007" class="edge">
<title>Node3&#45;&gt;Node7</title>
<g id="a_edge6_Node000003_Node000007"><a xlink:title=" ">
<path fill="none" stroke="#63b8ff" d="M1491.74,-318.82C1509.4,-289.56 1566.98,-194.19 1590.91,-154.54"/>
<polygon fill="#63b8ff" stroke="#63b8ff" points="1594.06,-156.1 1596.23,-145.73 1588.06,-152.48 1594.06,-156.1"/>
</a>
</g>
</g>
<!-- Node9 -->
<g id="Node000009" class="node">
<title>Node9</title>
<g id="a_Node000009"><a xlink:href="../../d5/d37/level_8hpp.html" target="_top" xlink:title="Log levels.">
<polygon fill="white" stroke="#666666" points="480.5,-211.5 340.5,-211.5 340.5,-192.5 480.5,-192.5 480.5,-211.5"/>
<text text-anchor="middle" x="410.5" y="-199.5" font-family="Helvetica,sans-Serif" font-size="10.00">userver/logging/level.hpp</text>
</a>
</g>
</g>
<!-- Node3&#45;&gt;Node9 -->
<g id="edge8_Node000003_Node000009" class="edge">
<title>Node3&#45;&gt;Node9</title>
<g id="a_edge8_Node000003_Node000009"><a xlink:title=" ">
<path fill="none" stroke="#63b8ff" d="M1420.63,-323.57C1317.15,-317.08 1110.24,-302.85 935.5,-283 734.65,-260.19 684.89,-250.22 485.5,-217 478.74,-215.87 471.65,-214.63 464.64,-213.36"/>
<polygon fill="#63b8ff" stroke="#63b8ff" points="464.94,-209.86 454.47,-211.5 463.68,-216.75 464.94,-209.86"/>
</a>
</g>
</g>
<!-- Node12 -->
<g id="Node000012" class="node">
<title>Node12</title>
<g id="a_Node000012"><a xlink:href="../../d4/dc3/log__filepath_8hpp.html" target="_top" xlink:title="Short source path calculator.">
<polygon fill="white" stroke="#666666" points="1978.5,-151 1868.5,-151 1868.5,-121 1978.5,-121 1978.5,-151"/>
<text text-anchor="start" x="1876.5" y="-139" font-family="Helvetica,sans-Serif" font-size="10.00">userver/logging/log</text>
<text text-anchor="middle" x="1923.5" y="-128" font-family="Helvetica,sans-Serif" font-size="10.00">_filepath.hpp</text>
</a>
</g>
</g>
<!-- Node3&#45;&gt;Node12 -->
<g id="edge11_Node000003_Node000012" class="edge">
<title>Node3&#45;&gt;Node12</title>
<g id="a_edge11_Node000003_Node000012"><a xlink:title=" ">
<path fill="none" stroke="#63b8ff" d="M1552.26,-319.36C1629.99,-307.25 1760.74,-278.9 1855.5,-217 1878.11,-202.23 1897.33,-177.76 1909.51,-159.76"/>
<polygon fill="#63b8ff" stroke="#63b8ff" points="1912.67,-161.31 1915.21,-151.03 1906.81,-157.48 1912.67,-161.31"/>
</a>
</g>
</g>
<!-- Node14 -->
<g id="Node000014" class="node">
<title>Node14</title>
<g id="a_Node000014"><a xlink:href="../../db/d94/log__helper_8hpp.html" target="_top" xlink:title=" ">
<polygon fill="white" stroke="#666666" points="1054.5,-283 944.5,-283 944.5,-253 1054.5,-253 1054.5,-283"/>
<text text-anchor="start" x="952.5" y="-271" font-family="Helvetica,sans-Serif" font-size="10.00">userver/logging/log</text>
<text text-anchor="middle" x="999.5" y="-260" font-family="Helvetica,sans-Serif" font-size="10.00">_helper.hpp</text>
</a>
</g>
</g>
<!-- Node3&#45;&gt;Node14 -->
<g id="edge13_Node000003_Node000014" class="edge">
<title>Node3&#45;&gt;Node14</title>
<g id="a_edge13_Node000003_Node000014"><a xlink:title=" ">
<path fill="none" stroke="#63b8ff" d="M1420.82,-319.61C1327.6,-308.41 1157.94,-288.03 1064.88,-276.85"/>
<polygon fill="#63b8ff" stroke="#63b8ff" points="1065.09,-273.35 1054.75,-275.64 1064.26,-280.3 1065.09,-273.35"/>
</a>
</g>
</g>
<!-- Node6 -->
<g id="Node000006" class="node">
<title>Node6</title>
<g id="a_Node000006"><a xlink:title=" ">
<polygon fill="#e0e0e0" stroke="#999999" points="1321,-79.5 1268,-79.5 1268,-60.5 1321,-60.5 1321,-79.5"/>
<text text-anchor="middle" x="1294.5" y="-67.5" font-family="Helvetica,sans-Serif" font-size="10.00">cstddef</text>
</a>
</g>
</g>
<!-- Node5&#45;&gt;Node6 -->
<g id="edge5_Node000005_Node000006" class="edge">
<title>Node5&#45;&gt;Node6</title>
<g id="a_edge5_Node000005_Node000006"><a xlink:title=" ">
<path fill="none" stroke="#63b8ff" d="M1420.81,-126.37C1395.77,-115.39 1352.35,-96.36 1323.52,-83.72"/>
<polygon fill="#63b8ff" stroke="#63b8ff" points="1324.91,-80.51 1314.34,-79.7 1322.1,-86.92 1324.91,-80.51"/>
</a>
</g>
</g>
<!-- Node8 -->
<g id="Node000008" class="node">
<title>Node8</title>
<g id="a_Node000008"><a xlink:title=" ">
<polygon fill="#e0e0e0" stroke="#999999" points="1668.5,-79.5 1610.5,-79.5 1610.5,-60.5 1668.5,-60.5 1668.5,-79.5"/>
<text text-anchor="middle" x="1639.5" y="-67.5" font-family="Helvetica,sans-Serif" font-size="10.00">memory</text>
</a>
</g>
</g>
<!-- Node7&#45;&gt;Node8 -->
<g id="edge7_Node000007_Node000008" class="edge">
<title>Node7&#45;&gt;Node8</title>
<g id="a_edge7_Node000007_Node000008"><a xlink:title=" ">
<path fill="none" stroke="#63b8ff" d="M1606.62,-126.37C1612.32,-116.78 1621.66,-101.05 1628.93,-88.8"/>
<polygon fill="#63b8ff" stroke="#63b8ff" points="1632.12,-90.29 1634.21,-79.91 1626.1,-86.72 1632.12,-90.29"/>
</a>
</g>
</g>
<!-- Node10 -->
<g id="Node000010" class="node">
<title>Node10</title>
<g id="a_Node000010"><a xlink:title=" ">
<polygon fill="#e0e0e0" stroke="#999999" points="297.5,-145.5 241.5,-145.5 241.5,-126.5 297.5,-126.5 297.5,-145.5"/>
<text text-anchor="middle" x="269.5" y="-133.5" font-family="Helvetica,sans-Serif" font-size="10.00">optional</text>
</a>
</g>
</g>
<!-- Node9&#45;&gt;Node10 -->
<g id="edge9_Node000009_Node000010" class="edge">
<title>Node9&#45;&gt;Node10</title>
<g id="a_edge9_Node000009_Node000010"><a xlink:title=" ">
<path fill="none" stroke="#63b8ff" d="M391.48,-192.37C367.41,-181.44 325.73,-162.52 297.89,-149.88"/>
<polygon fill="#63b8ff" stroke="#63b8ff" points="299.22,-146.65 288.66,-145.7 296.32,-153.02 299.22,-146.65"/>
</a>
</g>
</g>
<!-- Node11 -->
<g id="Node000011" class="node">
<title>Node11</title>
<g id="a_Node000011"><a xlink:title=" ">
<polygon fill="#e0e0e0" stroke="#999999" points="483.5,-145.5 439.5,-145.5 439.5,-126.5 483.5,-126.5 483.5,-145.5"/>
<text text-anchor="middle" x="461.5" y="-133.5" font-family="Helvetica,sans-Serif" font-size="10.00">string</text>
</a>
</g>
</g>
<!-- Node9&#45;&gt;Node11 -->
<g id="edge10_Node000009_Node000011" class="edge">
<title>Node9&#45;&gt;Node11</title>
<g id="a_edge10_Node000009_Node000011"><a xlink:title=" ">
<path fill="none" stroke="#63b8ff" d="M417.38,-192.37C425.17,-182.59 438.05,-166.42 447.89,-154.08"/>
<polygon fill="#63b8ff" stroke="#63b8ff" points="450.91,-155.91 454.4,-145.91 445.43,-151.54 450.91,-155.91"/>
</a>
</g>
</g>
<!-- Node13 -->
<g id="Node000013" class="node">
<title>Node13</title>
<g id="a_Node000013"><a xlink:title=" ">
<polygon fill="#e0e0e0" stroke="#999999" points="2001,-79.5 1928,-79.5 1928,-60.5 2001,-60.5 2001,-79.5"/>
<text text-anchor="middle" x="1964.5" y="-67.5" font-family="Helvetica,sans-Serif" font-size="10.00">string_view</text>
</a>
</g>
</g>
<!-- Node12&#45;&gt;Node13 -->
<g id="edge12_Node000012_Node000013" class="edge">
<title>Node12&#45;&gt;Node13</title>
<g id="a_edge12_Node000012_Node000013"><a xlink:title=" ">
<path fill="none" stroke="#63b8ff" d="M1932.6,-120.8C1938.74,-111.21 1946.88,-98.5 1953.4,-88.32"/>
<polygon fill="#63b8ff" stroke="#63b8ff" points="1956.39,-90.15 1958.83,-79.84 1950.49,-86.38 1956.39,-90.15"/>
</a>
</g>
</g>
<!-- Node14&#45;&gt;Node4 -->
<g id="edge14_Node000014_Node000004" class="edge">
<title>Node14&#45;&gt;Node4</title>
<g id="a_edge14_Node000014_Node000004"><a xlink:title=" ">
<path fill="none" stroke="#63b8ff" d="M1054.8,-265.26C1136.45,-261.62 1293.49,-250.51 1422.5,-217 1424.45,-216.49 1426.43,-215.9 1428.41,-215.25"/>
<polygon fill="#63b8ff" stroke="#63b8ff" points="1429.96,-218.41 1438.11,-211.64 1427.52,-211.85 1429.96,-218.41"/>
</a>
</g>
</g>
<!-- Node14&#45;&gt;Node7 -->
<g id="edge31_Node000014_Node000007" class="edge">
<title>Node14&#45;&gt;Node7</title>
<g id="a_edge31_Node000014_Node000007"><a xlink:title=" ">
<path fill="none" stroke="#63b8ff" d="M1054.51,-257.63C1101.51,-249.02 1170.66,-234.88 1229.5,-217 1264.25,-206.44 1270.49,-196.65 1305.5,-187 1401.01,-160.66 1427.89,-167.98 1525.5,-151 1532.16,-149.84 1539.14,-148.6 1546.06,-147.34"/>
<polygon fill="#63b8ff" stroke="#63b8ff" points="1546.9,-150.75 1556.11,-145.51 1545.65,-143.86 1546.9,-150.75"/>
</a>
</g>
</g>
<!-- Node14&#45;&gt;Node8 -->
<g id="edge18_Node000014_Node000008" class="edge">
<title>Node14&#45;&gt;Node8</title>
<g id="a_edge18_Node000014_Node000008"><a xlink:title=" ">
<path fill="none" stroke="#63b8ff" d="M1054.51,-262.2C1112.26,-256.03 1205.09,-242.87 1281.5,-217 1308.99,-207.69 1311.7,-195.35 1339.5,-187 1411.84,-165.28 1627,-207.17 1677.5,-151 1694.53,-132.06 1673.61,-104.14 1656.73,-86.79"/>
<polygon fill="#63b8ff" stroke="#63b8ff" points="1659,-84.12 1649.4,-79.63 1654.11,-89.12 1659,-84.12"/>
</a>
</g>
</g>
<!-- Node14&#45;&gt;Node9 -->
<g id="edge32_Node000014_Node000009" class="edge">
<title>Node14&#45;&gt;Node9</title>
<g id="a_edge32_Node000014_Node000009"><a xlink:title=" ">
<path fill="none" stroke="#63b8ff" d="M944.44,-262.75C851.48,-255.32 657.6,-238.64 494.5,-217 486.07,-215.88 477.19,-214.56 468.49,-213.18"/>
<polygon fill="#63b8ff" stroke="#63b8ff" points="468.82,-209.69 458.39,-211.55 467.7,-216.6 468.82,-209.69"/>
</a>
</g>
</g>
<!-- Node14&#45;&gt;Node10 -->
<g id="edge19_Node000014_Node000010" class="edge">
<title>Node14&#45;&gt;Node10</title>
<g id="a_edge19_Node000014_Node000010"><a xlink:title=" ">
<path fill="none" stroke="#63b8ff" d="M944.13,-264.98C836.22,-260.42 601.81,-247.28 527.5,-217 507.57,-208.88 509.05,-195.99 489.5,-187 414.2,-152.35 386.21,-173.75 306.5,-151 304.35,-150.39 302.16,-149.7 299.95,-148.98"/>
<polygon fill="#63b8ff" stroke="#63b8ff" points="301.02,-145.64 290.43,-145.61 298.69,-152.25 301.02,-145.64"/>
</a>
</g>
</g>
<!-- Node14&#45;&gt;Node13 -->
<g id="edge20_Node000014_Node000013" class="edge">
<title>Node14&#45;&gt;Node13</title>
<g id="a_edge20_Node000014_Node000013"><a xlink:title=" ">
<path fill="none" stroke="#63b8ff" d="M1054.61,-266.67C1218.93,-265.24 1703.5,-257.6 1855.5,-217 1918.87,-200.07 1953.02,-206.8 1987.5,-151 1999.68,-131.29 1987.59,-104.9 1976.84,-87.92"/>
<polygon fill="#63b8ff" stroke="#63b8ff" points="1979.68,-85.87 1971.18,-79.55 1973.89,-89.79 1979.68,-85.87"/>
</a>
</g>
</g>
<!-- Node15 -->
<g id="Node000015" class="node">
<title>Node15</title>
<g id="a_Node000015"><a xlink:title=" ">
<polygon fill="#e0e0e0" stroke="#999999" points="1413,-211.5 1348,-211.5 1348,-192.5 1413,-192.5 1413,-211.5"/>
<text text-anchor="middle" x="1380.5" y="-199.5" font-family="Helvetica,sans-Serif" font-size="10.00">exception</text>
</a>
</g>
</g>
<!-- Node14&#45;&gt;Node15 -->
<g id="edge15_Node000014_Node000015" class="edge">
<title>Node14&#45;&gt;Node15</title>
<g id="a_edge15_Node000014_Node000015"><a xlink:title=" ">
<path fill="none" stroke="#63b8ff" d="M1054.61,-261.16C1121.18,-253.56 1236.35,-238.63 1333.5,-217 1337.12,-216.19 1340.87,-215.26 1344.6,-214.26"/>
<polygon fill="#63b8ff" stroke="#63b8ff" points="1345.65,-217.6 1354.32,-211.51 1343.75,-210.86 1345.65,-217.6"/>
</a>
</g>
</g>
<!-- Node16 -->
<g id="Node000016" class="node">
<title>Node16</title>
<g id="a_Node000016"><a xlink:title=" ">
<polygon fill="#e0e0e0" stroke="#999999" points="113.5,-145.5 65.5,-145.5 65.5,-126.5 113.5,-126.5 113.5,-145.5"/>
<text text-anchor="middle" x="89.5" y="-133.5" font-family="Helvetica,sans-Serif" font-size="10.00">iosfwd</text>
</a>
</g>
</g>
<!-- Node14&#45;&gt;Node16 -->
<g id="edge16_Node000014_Node000016" class="edge">
<title>Node14&#45;&gt;Node16</title>
<g id="a_edge16_Node000014_Node000016"><a xlink:title=" ">
<path fill="none" stroke="#63b8ff" d="M944.22,-266.25C767.94,-263.5 226.52,-252.25 156.5,-217 129.63,-203.47 109.43,-173.83 98.55,-154.68"/>
<polygon fill="#63b8ff" stroke="#63b8ff" points="101.56,-152.89 93.72,-145.76 95.4,-156.22 101.56,-152.89"/>
</a>
</g>
</g>
<!-- Node17 -->
<g id="Node000017" class="node">
<title>Node17</title>
<g id="a_Node000017"><a xlink:title=" ">
<polygon fill="#e0e0e0" stroke="#999999" points="185,-145.5 132,-145.5 132,-126.5 185,-126.5 185,-145.5"/>
<text text-anchor="middle" x="158.5" y="-133.5" font-family="Helvetica,sans-Serif" font-size="10.00">iterator</text>
</a>
</g>
</g>
<!-- Node14&#45;&gt;Node17 -->
<g id="edge17_Node000014_Node000017" class="edge">
<title>Node14&#45;&gt;Node17</title>
<g id="a_edge17_Node000014_Node000017"><a xlink:title=" ">
<path fill="none" stroke="#63b8ff" d="M944.5,-267.38C769.87,-268.09 235.97,-266.17 177.5,-217 159.95,-202.24 156.94,-174.5 157.14,-155.88"/>
<polygon fill="#63b8ff" stroke="#63b8ff" points="160.65,-155.81 157.57,-145.67 153.65,-155.51 160.65,-155.81"/>
</a>
</g>
</g>
<!-- Node18 -->
<g id="Node000018" class="node">
<title>Node18</title>
<g id="a_Node000018"><a xlink:title=" ">
<polygon fill="#e0e0e0" stroke="#999999" points="618,-211.5 537,-211.5 537,-192.5 618,-192.5 618,-211.5"/>
<text text-anchor="middle" x="577.5" y="-199.5" font-family="Helvetica,sans-Serif" font-size="10.00">system_error</text>
</a>
</g>
</g>
<!-- Node14&#45;&gt;Node18 -->
<g id="edge21_Node000014_Node000018" class="edge">
<title>Node14&#45;&gt;Node18</title>
<g id="a_edge21_Node000014_Node000018"><a xlink:title=" ">
<path fill="none" stroke="#63b8ff" d="M944.46,-261.48C872.4,-253.8 742.33,-238.39 632.5,-217 627.85,-216.09 623,-215.03 618.2,-213.91"/>
<polygon fill="#63b8ff" stroke="#63b8ff" points="619.03,-210.51 608.48,-211.54 617.37,-217.31 619.03,-210.51"/>
</a>
</g>
</g>
<!-- Node19 -->
<g id="Node000019" class="node">
<title>Node19</title>
<g id="a_Node000019"><a xlink:title=" ">
<polygon fill="#e0e0e0" stroke="#999999" points="546,-19 477,-19 477,0 546,0 546,-19"/>
<text text-anchor="middle" x="511.5" y="-7" font-family="Helvetica,sans-Serif" font-size="10.00">type_traits</text>
</a>
</g>
</g>
<!-- Node14&#45;&gt;Node19 -->
<g id="edge22_Node000014_Node000019" class="edge">
<title>Node14&#45;&gt;Node19</title>
<g id="a_edge22_Node000014_Node000019"><a xlink:title=" ">
<path fill="none" stroke="#63b8ff" d="M944.44,-261.34C864.88,-252.69 721.99,-235.26 673.5,-217 650.31,-208.27 648.67,-198.08 626.5,-187 585.74,-166.63 558.91,-186.63 530.5,-151 502.32,-115.66 504.79,-58.73 508.44,-29.37"/>
<polygon fill="#63b8ff" stroke="#63b8ff" points="511.94,-29.64 509.89,-19.24 505.01,-28.65 511.94,-29.64"/>
</a>
</g>
</g>
<!-- Node20 -->
<g id="Node000020" class="node">
<title>Node20</title>
<g id="a_Node000020"><a xlink:href="../../da/d00/universal_2include_2userver_2formats_2common_2meta_8hpp.html" target="_top" xlink:title="Metaprogramming helpers for converters detection.">
<polygon fill="white" stroke="#666666" points="822.5,-217 682.5,-217 682.5,-187 822.5,-187 822.5,-217"/>
<text text-anchor="start" x="690.5" y="-205" font-family="Helvetica,sans-Serif" font-size="10.00">userver/formats/common</text>
<text text-anchor="middle" x="752.5" y="-194" font-family="Helvetica,sans-Serif" font-size="10.00">/meta.hpp</text>
</a>
</g>
</g>
<!-- Node14&#45;&gt;Node20 -->
<g id="edge23_Node000014_Node000020" class="edge">
<title>Node14&#45;&gt;Node20</title>
<g id="a_edge23_Node000014_Node000020"><a xlink:title=" ">
<path fill="none" stroke="#63b8ff" d="M945.29,-252.95C907.33,-243.12 856.45,-229.93 816.49,-219.58"/>
<polygon fill="#63b8ff" stroke="#63b8ff" points="817.14,-216.13 806.58,-217.01 815.38,-222.91 817.14,-216.13"/>
</a>
</g>
</g>
<!-- Node25 -->
<g id="Node000025" class="node">
<title>Node25</title>
<g id="a_Node000025"><a xlink:href="../../d6/def/log__extra_8hpp.html" target="_top" xlink:title="Extra tskv fields storage.">
<polygon fill="white" stroke="#666666" points="1220.5,-217 1110.5,-217 1110.5,-187 1220.5,-187 1220.5,-217"/>
<text text-anchor="start" x="1118.5" y="-205" font-family="Helvetica,sans-Serif" font-size="10.00">userver/logging/log</text>
<text text-anchor="middle" x="1165.5" y="-194" font-family="Helvetica,sans-Serif" font-size="10.00">_extra.hpp</text>
</a>
</g>
</g>
<!-- Node14&#45;&gt;Node25 -->
<g id="edge33_Node000014_Node000025" class="edge">
<title>Node14&#45;&gt;Node25</title>
<g id="a_edge33_Node000014_Node000025"><a xlink:title=" ">
<path fill="none" stroke="#63b8ff" d="M1035.93,-252.95C1060.58,-243.45 1093.33,-230.82 1119.74,-220.64"/>
<polygon fill="#63b8ff" stroke="#63b8ff" points="1121.08,-223.88 1129.16,-217.01 1118.57,-217.34 1121.08,-223.88"/>
</a>
</g>
</g>
<!-- Node32 -->
<g id="Node000032" class="node">
<title>Node32</title>
<g id="a_Node000032"><a xlink:href="../../df/dd4/source__location_8hpp_source.html" target="_top" xlink:title=" ">
<polygon fill="white" stroke="#666666" points="1846,-217 1729,-217 1729,-187 1846,-187 1846,-217"/>
<text text-anchor="start" x="1737" y="-205" font-family="Helvetica,sans-Serif" font-size="10.00">userver/utils/impl</text>
<text text-anchor="middle" x="1787.5" y="-194" font-family="Helvetica,sans-Serif" font-size="10.00">/source_location.hpp</text>
</a>
</g>
</g>
<!-- Node14&#45;&gt;Node32 -->
<g id="edge46_Node000014_Node000032" class="edge">
<title>Node14&#45;&gt;Node32</title>
<g id="a_edge46_Node000014_Node000032"><a xlink:title=" ">
<path fill="none" stroke="#63b8ff" d="M1054.6,-262.53C1194.74,-251.14 1564.58,-221.11 1718.63,-208.59"/>
<polygon fill="#63b8ff" stroke="#63b8ff" points="1719.21,-212.06 1728.9,-207.76 1718.65,-205.08 1719.21,-212.06"/>
</a>
</g>
</g>
<!-- Node34 -->
<g id="Node000034" class="node">
<title>Node34</title>
<g id="a_Node000034"><a xlink:href="../../d0/d03/universal_2include_2userver_2utils_2meta_8hpp.html" target="_top" xlink:title="Metaprogramming, template variables and concepts.">
<polygon fill="white" stroke="#666666" points="314,-211.5 187,-211.5 187,-192.5 314,-192.5 314,-211.5"/>
<text text-anchor="middle" x="250.5" y="-199.5" font-family="Helvetica,sans-Serif" font-size="10.00">userver/utils/meta.hpp</text>
</a>
</g>
</g>
<!-- Node14&#45;&gt;Node34 -->
<g id="edge51_Node000014_Node000034" class="edge">
<title>Node14&#45;&gt;Node34</title>
<g id="a_edge51_Node000014_Node000034"><a xlink:title=" ">
<path fill="none" stroke="#63b8ff" d="M944.34,-264.67C829.8,-259.45 558.01,-244.99 331.5,-217 323.05,-215.96 314.14,-214.64 305.44,-213.23"/>
<polygon fill="#63b8ff" stroke="#63b8ff" points="305.81,-209.74 295.37,-211.55 304.66,-216.65 305.81,-209.74"/>
</a>
</g>
</g>
<!-- Node20&#45;&gt;Node19 -->
<g id="edge24_Node000020_Node000019" class="edge">
<title>Node20&#45;&gt;Node19</title>
<g id="a_edge24_Node000020_Node000019"><a xlink:title=" ">
<path fill="none" stroke="#63b8ff" d="M790.22,-186.88C805.93,-178.9 822.58,-167.21 831.5,-151 837.93,-139.32 839.24,-131.86 831.5,-121 768.1,-32.04 628.09,-14.01 556.13,-10.81"/>
<polygon fill="#63b8ff" stroke="#63b8ff" points="556.14,-7.3 546.02,-10.43 555.88,-14.3 556.14,-7.3"/>
</a>
</g>
</g>
<!-- Node21 -->
<g id="Node000021" class="node">
<title>Node21</title>
<g id="a_Node000021"><a xlink:href="../../d2/dc8/universal_2include_2userver_2formats_2parse_2to_8hpp.html" target="_top" xlink:title="Helper for parsers.">
<polygon fill="white" stroke="#666666" points="665,-151 540,-151 540,-121 665,-121 665,-151"/>
<text text-anchor="start" x="548" y="-139" font-family="Helvetica,sans-Serif" font-size="10.00">userver/formats/parse</text>
<text text-anchor="middle" x="602.5" y="-128" font-family="Helvetica,sans-Serif" font-size="10.00">/to.hpp</text>
</a>
</g>
</g>
<!-- Node20&#45;&gt;Node21 -->
<g id="edge25_Node000020_Node000021" class="edge">
<title>Node20&#45;&gt;Node21</title>
<g id="a_edge25_Node000020_Node000021"><a xlink:title=" ">
<path fill="none" stroke="#63b8ff" d="M719.58,-186.95C697.6,-177.58 668.49,-165.16 644.79,-155.05"/>
<polygon fill="#63b8ff" stroke="#63b8ff" points="645.91,-151.72 635.34,-151.01 643.17,-158.16 645.91,-151.72"/>
</a>
</g>
</g>
<!-- Node22 -->
<g id="Node000022" class="node">
<title>Node22</title>
<g id="a_Node000022"><a xlink:href="../../d6/d8e/universal_2include_2userver_2formats_2serialize_2to_8hpp.html" target="_top" xlink:title="Helper for serializers.">
<polygon fill="white" stroke="#666666" points="822,-151 683,-151 683,-121 822,-121 822,-151"/>
<text text-anchor="start" x="691" y="-139" font-family="Helvetica,sans-Serif" font-size="10.00">userver/formats/serialize</text>
<text text-anchor="middle" x="752.5" y="-128" font-family="Helvetica,sans-Serif" font-size="10.00">/to.hpp</text>
</a>
</g>
</g>
<!-- Node20&#45;&gt;Node22 -->
<g id="edge26_Node000020_Node000022" class="edge">
<title>Node20&#45;&gt;Node22</title>
<g id="a_edge26_Node000020_Node000022"><a xlink:title=" ">
<path fill="none" stroke="#63b8ff" d="M752.5,-186.8C752.5,-179.34 752.5,-169.99 752.5,-161.41"/>
<polygon fill="#63b8ff" stroke="#63b8ff" points="756,-161.16 752.5,-151.16 749,-161.16 756,-161.16"/>
</a>
</g>
</g>
<!-- Node23 -->
<g id="Node000023" class="node">
<title>Node23</title>
<g id="a_Node000023"><a xlink:href="../../d3/da0/meta__light_8hpp.html" target="_top" xlink:title="Lightweight concepts.">
<polygon fill="white" stroke="#666666" points="421.5,-151 315.5,-151 315.5,-121 421.5,-121 421.5,-151"/>
<text text-anchor="start" x="323.5" y="-139" font-family="Helvetica,sans-Serif" font-size="10.00">userver/utils/meta</text>
<text text-anchor="middle" x="368.5" y="-128" font-family="Helvetica,sans-Serif" font-size="10.00">_light.hpp</text>
</a>
</g>
</g>
<!-- Node20&#45;&gt;Node23 -->
<g id="edge27_Node000020_Node000023" class="edge">
<title>Node20&#45;&gt;Node23</title>
<g id="a_edge27_Node000020_Node000023"><a xlink:title=" ">
<path fill="none" stroke="#63b8ff" d="M682.23,-191.49C619.13,-182.64 523.77,-168.46 431.61,-151.13"/>
<polygon fill="#63b8ff" stroke="#63b8ff" points="432.03,-147.65 421.55,-149.23 430.72,-154.53 432.03,-147.65"/>
</a>
</g>
</g>
<!-- Node23&#45;&gt;Node19 -->
<g id="edge28_Node000023_Node000019" class="edge">
<title>Node23&#45;&gt;Node19</title>
<g id="a_edge28_Node000023_Node000019"><a xlink:title=" ">
<path fill="none" stroke="#63b8ff" d="M364.8,-120.94C361.13,-103.56 357.92,-73.96 372.5,-55 394.42,-26.49 434.77,-15.91 466.37,-12.15"/>
<polygon fill="#63b8ff" stroke="#63b8ff" points="467.11,-15.59 476.71,-11.12 466.42,-8.63 467.11,-15.59"/>
</a>
</g>
</g>
<!-- Node24 -->
<g id="Node000024" class="node">
<title>Node24</title>
<g id="a_Node000024"><a xlink:href="../../d9/dce/void__t_8hpp.html" target="_top" xlink:title="std::void_t implementation with workarounds for compiler bugs">
<polygon fill="white" stroke="#666666" points="483,-85 382,-85 382,-55 483,-55 483,-85"/>
<text text-anchor="start" x="390" y="-73" font-family="Helvetica,sans-Serif" font-size="10.00">userver/utils/void</text>
<text text-anchor="middle" x="432.5" y="-62" font-family="Helvetica,sans-Serif" font-size="10.00">_t.hpp</text>
</a>
</g>
</g>
<!-- Node23&#45;&gt;Node24 -->
<g id="edge29_Node000023_Node000024" class="edge">
<title>Node23&#45;&gt;Node24</title>
<g id="a_edge29_Node000023_Node000024"><a xlink:title=" ">
<path fill="none" stroke="#63b8ff" d="M382.7,-120.8C391.07,-112.43 401.82,-101.68 411.19,-92.31"/>
<polygon fill="#63b8ff" stroke="#63b8ff" points="413.74,-94.71 418.34,-85.16 408.79,-89.76 413.74,-94.71"/>
</a>
</g>
</g>
<!-- Node24&#45;&gt;Node19 -->
<g id="edge30_Node000024_Node000019" class="edge">
<title>Node24&#45;&gt;Node19</title>
<g id="a_edge30_Node000024_Node000019"><a xlink:title=" ">
<path fill="none" stroke="#63b8ff" d="M451.62,-54.84C463.68,-45.91 479.21,-34.41 491.44,-25.35"/>
<polygon fill="#63b8ff" stroke="#63b8ff" points="493.71,-28.03 499.66,-19.27 489.54,-22.4 493.71,-28.03"/>
</a>
</g>
</g>
<!-- Node25&#45;&gt;Node5 -->
<g id="edge39_Node000025_Node000005" class="edge">
<title>Node25&#45;&gt;Node5</title>
<g id="a_edge39_Node000025_Node000005"><a xlink:title=" ">
<path fill="none" stroke="#63b8ff" d="M1220.82,-188.13C1271.63,-176.3 1346.09,-158.97 1393.93,-147.84"/>
<polygon fill="#63b8ff" stroke="#63b8ff" points="1394.77,-151.24 1403.72,-145.56 1393.18,-144.42 1394.77,-151.24"/>
</a>
</g>
</g>
<!-- Node25&#45;&gt;Node7 -->
<g id="edge40_Node000025_Node000007" class="edge">
<title>Node25&#45;&gt;Node7</title>
<g id="a_edge40_Node000025_Node000007"><a xlink:title=" ">
<path fill="none" stroke="#63b8ff" d="M1220.82,-192.31C1232.59,-190.51 1244.95,-188.66 1256.5,-187 1375.89,-169.83 1406.37,-169.93 1525.5,-151 1532.61,-149.87 1540.07,-148.6 1547.43,-147.3"/>
<polygon fill="#63b8ff" stroke="#63b8ff" points="1548.13,-150.73 1557.36,-145.51 1546.89,-143.84 1548.13,-150.73"/>
</a>
</g>
</g>
<!-- Node25&#45;&gt;Node11 -->
<g id="edge35_Node000025_Node000011" class="edge">
<title>Node25&#45;&gt;Node11</title>
<g id="a_edge35_Node000025_Node000011"><a xlink:title=" ">
<path fill="none" stroke="#63b8ff" d="M1110.47,-198.92C1000.05,-194.25 743.77,-180.92 530.5,-151 518.45,-149.31 505.34,-146.82 493.82,-144.4"/>
<polygon fill="#63b8ff" stroke="#63b8ff" points="494.27,-140.92 483.76,-142.23 492.79,-147.76 494.27,-140.92"/>
</a>
</g>
</g>
<!-- Node26 -->
<g id="Node000026" class="node">
<title>Node26</title>
<g id="a_Node000026"><a xlink:title=" ">
<polygon fill="#e0e0e0" stroke="#999999" points="1277,-145.5 1194,-145.5 1194,-126.5 1277,-126.5 1277,-145.5"/>
<text text-anchor="middle" x="1235.5" y="-133.5" font-family="Helvetica,sans-Serif" font-size="10.00">initializer_list</text>
</a>
</g>
</g>
<!-- Node25&#45;&gt;Node26 -->
<g id="edge34_Node000025_Node000026" class="edge">
<title>Node25&#45;&gt;Node26</title>
<g id="a_edge34_Node000025_Node000026"><a xlink:title=" ">
<path fill="none" stroke="#63b8ff" d="M1181.04,-186.8C1192.06,-176.72 1206.85,-163.19 1218.24,-152.78"/>
<polygon fill="#63b8ff" stroke="#63b8ff" points="1220.81,-155.18 1225.83,-145.84 1216.08,-150.01 1220.81,-155.18"/>
</a>
</g>
</g>
<!-- Node27 -->
<g id="Node000027" class="node">
<title>Node27</title>
<g id="a_Node000027"><a xlink:title=" ">
<polygon fill="#e0e0e0" stroke="#999999" points="1103,-79.5 1058,-79.5 1058,-60.5 1103,-60.5 1103,-79.5"/>
<text text-anchor="middle" x="1080.5" y="-67.5" font-family="Helvetica,sans-Serif" font-size="10.00">utility</text>
</a>
</g>
</g>
<!-- Node25&#45;&gt;Node27 -->
<g id="edge36_Node000025_Node000027" class="edge">
<title>Node25&#45;&gt;Node27</title>
<g id="a_edge36_Node000025_Node000027"><a xlink:title=" ">
<path fill="none" stroke="#63b8ff" d="M1165,-186.86C1163.78,-169.94 1159.76,-141.33 1146.5,-121 1136.58,-105.79 1120.38,-93.41 1106.51,-84.78"/>
<polygon fill="#63b8ff" stroke="#63b8ff" points="1108.22,-81.72 1097.82,-79.66 1104.66,-87.75 1108.22,-81.72"/>
</a>
</g>
</g>
<!-- Node28 -->
<g id="Node000028" class="node">
<title>Node28</title>
<g id="a_Node000028"><a xlink:title=" ">
<polygon fill="#e0e0e0" stroke="#999999" points="1346,-145.5 1295,-145.5 1295,-126.5 1346,-126.5 1346,-145.5"/>
<text text-anchor="middle" x="1320.5" y="-133.5" font-family="Helvetica,sans-Serif" font-size="10.00">variant</text>
</a>
</g>
</g>
<!-- Node25&#45;&gt;Node28 -->
<g id="edge37_Node000025_Node000028" class="edge">
<title>Node25&#45;&gt;Node28</title>
<g id="a_edge37_Node000025_Node000028"><a xlink:title=" ">
<path fill="none" stroke="#63b8ff" d="M1199.52,-186.95C1226.7,-175.73 1264.43,-160.15 1290.5,-149.39"/>
<polygon fill="#63b8ff" stroke="#63b8ff" points="1291.96,-152.57 1299.87,-145.52 1289.29,-146.1 1291.96,-152.57"/>
</a>
</g>
</g>
<!-- Node29 -->
<g id="Node000029" class="node">
<title>Node29</title>
<g id="a_Node000029"><a xlink:title=" ">
<polygon fill="#e0e0e0" stroke="#999999" points="1137,-151 996,-151 996,-121 1137,-121 1137,-151"/>
<text text-anchor="start" x="1004" y="-139" font-family="Helvetica,sans-Serif" font-size="10.00">boost/container/container</text>
<text text-anchor="middle" x="1066.5" y="-128" font-family="Helvetica,sans-Serif" font-size="10.00">_fwd.hpp</text>
</a>
</g>
</g>
<!-- Node25&#45;&gt;Node29 -->
<g id="edge38_Node000025_Node000029" class="edge">
<title>Node25&#45;&gt;Node29</title>
<g id="a_edge38_Node000025_Node000029"><a xlink:title=" ">
<path fill="none" stroke="#63b8ff" d="M1143.53,-186.8C1129.81,-177.93 1111.97,-166.39 1096.9,-156.66"/>
<polygon fill="#63b8ff" stroke="#63b8ff" points="1098.71,-153.65 1088.41,-151.16 1094.91,-159.53 1098.71,-153.65"/>
</a>
</g>
</g>
<!-- Node30 -->
<g id="Node000030" class="node">
<title>Node30</title>
<g id="a_Node000030"><a xlink:href="../../d5/d02/fast__pimpl_8hpp.html" target="_top" xlink:title="Implements pimpl idiom without dynamic memory allocation.">
<polygon fill="white" stroke="#666666" points="978,-151 879,-151 879,-121 978,-121 978,-151"/>
<text text-anchor="start" x="887" y="-139" font-family="Helvetica,sans-Serif" font-size="10.00">userver/utils/fast</text>
<text text-anchor="middle" x="928.5" y="-128" font-family="Helvetica,sans-Serif" font-size="10.00">_pimpl.hpp</text>
</a>
</g>
</g>
<!-- Node25&#45;&gt;Node30 -->
<g id="edge41_Node000025_Node000030" class="edge">
<title>Node25&#45;&gt;Node30</title>
<g id="a_edge41_Node000025_Node000030"><a xlink:title=" ">
<path fill="none" stroke="#63b8ff" d="M1113.49,-186.95C1076.59,-176.99 1026.97,-163.59 988.42,-153.18"/>
<polygon fill="#63b8ff" stroke="#63b8ff" points="988.93,-149.69 978.36,-150.46 987.1,-156.45 988.93,-149.69"/>
</a>
</g>
</g>
<!-- Node30&#45;&gt;Node6 -->
<g id="edge42_Node000030_Node000006" class="edge">
<title>Node30&#45;&gt;Node6</title>
<g id="a_edge42_Node000030_Node000006"><a xlink:title=" ">
<path fill="none" stroke="#63b8ff" d="M978.02,-122.98C981.22,-122.28 984.4,-121.62 987.5,-121 1084.46,-101.63 1199.77,-84.39 1257.58,-76.14"/>
<polygon fill="#63b8ff" stroke="#63b8ff" points="1258.28,-79.58 1267.69,-74.71 1257.3,-72.65 1258.28,-79.58"/>
</a>
</g>
</g>
<!-- Node30&#45;&gt;Node19 -->
<g id="edge44_Node000030_Node000019" class="edge">
<title>Node30&#45;&gt;Node19</title>
<g id="a_edge44_Node000030_Node000019"><a xlink:title=" ">
<path fill="none" stroke="#63b8ff" d="M921.66,-120.93C911.82,-102.38 891.81,-70.3 864.5,-55 812.63,-25.94 639.14,-15.42 556.29,-11.99"/>
<polygon fill="#63b8ff" stroke="#63b8ff" points="556.3,-8.49 546.17,-11.59 556.02,-15.48 556.3,-8.49"/>
</a>
</g>
</g>
<!-- Node30&#45;&gt;Node27 -->
<g id="edge45_Node000030_Node000027" class="edge">
<title>Node30&#45;&gt;Node27</title>
<g id="a_edge45_Node000030_Node000027"><a xlink:title=" ">
<path fill="none" stroke="#63b8ff" d="M961.86,-120.95C988.4,-109.78 1025.19,-94.29 1050.74,-83.53"/>
<polygon fill="#63b8ff" stroke="#63b8ff" points="1052.41,-86.62 1060.27,-79.52 1049.7,-80.17 1052.41,-86.62"/>
</a>
</g>
</g>
<!-- Node31 -->
<g id="Node000031" class="node">
<title>Node31</title>
<g id="a_Node000031"><a xlink:title=" ">
<polygon fill="#e0e0e0" stroke="#999999" points="954,-79.5 917,-79.5 917,-60.5 954,-60.5 954,-79.5"/>
<text text-anchor="middle" x="935.5" y="-67.5" font-family="Helvetica,sans-Serif" font-size="10.00">new</text>
</a>
</g>
</g>
<!-- Node30&#45;&gt;Node31 -->
<g id="edge43_Node000030_Node000031" class="edge">
<title>Node30&#45;&gt;Node31</title>
<g id="a_edge43_Node000030_Node000031"><a xlink:title=" ">
<path fill="none" stroke="#63b8ff" d="M930.05,-120.8C931.05,-111.7 932.35,-99.79 933.43,-89.9"/>
<polygon fill="#63b8ff" stroke="#63b8ff" points="936.92,-90.17 934.53,-79.84 929.97,-89.4 936.92,-90.17"/>
</a>
</g>
</g>
<!-- Node32&#45;&gt;Node12 -->
<g id="edge50_Node000032_Node000012" class="edge">
<title>Node32&#45;&gt;Node12</title>
<g id="a_edge50_Node000032_Node000012"><a xlink:title=" ">
<path fill="none" stroke="#63b8ff" d="M1817.35,-186.95C1837.1,-177.66 1863.2,-165.38 1884.58,-155.32"/>
<polygon fill="#63b8ff" stroke="#63b8ff" points="1886.17,-158.44 1893.72,-151.01 1883.19,-152.1 1886.17,-158.44"/>
</a>
</g>
</g>
<!-- Node32&#45;&gt;Node13 -->
<g id="edge48_Node000032_Node000013" class="edge">
<title>Node32&#45;&gt;Node13</title>
<g id="a_edge48_Node000032_Node000013"><a xlink:title=" ">
<path fill="none" stroke="#63b8ff" d="M1797.57,-186.72C1810.37,-169.39 1833.89,-140.11 1859.5,-121 1881.11,-104.87 1908.75,-91.96 1930.24,-83.31"/>
<polygon fill="#63b8ff" stroke="#63b8ff" points="1931.6,-86.53 1939.64,-79.63 1929.06,-80.01 1931.6,-86.53"/>
</a>
</g>
</g>
<!-- Node32&#45;&gt;Node19 -->
<g id="edge49_Node000032_Node000019" class="edge">
<title>Node32&#45;&gt;Node19</title>
<g id="a_edge49_Node000032_Node000019"><a xlink:title=" ">
<path fill="none" stroke="#63b8ff" d="M1777.86,-186.82C1753.78,-151.62 1691.91,-62.53 1677.5,-55 1627.01,-28.61 764.84,-14.24 556.53,-11.14"/>
<polygon fill="#63b8ff" stroke="#63b8ff" points="556.32,-7.64 546.27,-10.99 556.21,-14.64 556.32,-7.64"/>
</a>
</g>
</g>
<!-- Node33 -->
<g id="Node000033" class="node">
<title>Node33</title>
<g id="a_Node000033"><a xlink:title=" ">
<polygon fill="#e0e0e0" stroke="#999999" points="1812.5,-145.5 1762.5,-145.5 1762.5,-126.5 1812.5,-126.5 1812.5,-145.5"/>
<text text-anchor="middle" x="1787.5" y="-133.5" font-family="Helvetica,sans-Serif" font-size="10.00">cstdint</text>
</a>
</g>
</g>
<!-- Node32&#45;&gt;Node33 -->
<g id="edge47_Node000032_Node000033" class="edge">
<title>Node32&#45;&gt;Node33</title>
<g id="a_edge47_Node000032_Node000033"><a xlink:title=" ">
<path fill="none" stroke="#63b8ff" d="M1787.5,-186.8C1787.5,-177.7 1787.5,-165.79 1787.5,-155.9"/>
<polygon fill="#63b8ff" stroke="#63b8ff" points="1791,-155.84 1787.5,-145.84 1784,-155.84 1791,-155.84"/>
</a>
</g>
</g>
<!-- Node34&#45;&gt;Node2 -->
<g id="edge56_Node000034_Node000002" class="edge">
<title>Node34&#45;&gt;Node2</title>
<g id="a_edge56_Node000034_Node000002"><a xlink:title=" ">
<path fill="none" stroke="#63b8ff" d="M210.23,-192.47C170.64,-183.64 108.71,-168.69 56.5,-151 55.06,-150.51 53.6,-149.99 52.13,-149.45"/>
<polygon fill="#63b8ff" stroke="#63b8ff" points="53.09,-146.06 42.51,-145.63 50.51,-152.57 53.09,-146.06"/>
</a>
</g>
</g>
<!-- Node34&#45;&gt;Node10 -->
<g id="edge54_Node000034_Node000010" class="edge">
<title>Node34&#45;&gt;Node10</title>
<g id="a_edge54_Node000034_Node000010"><a xlink:title=" ">
<path fill="none" stroke="#63b8ff" d="M253.06,-192.37C255.85,-182.97 260.39,-167.67 264,-155.53"/>
<polygon fill="#63b8ff" stroke="#63b8ff" points="267.37,-156.49 266.86,-145.91 260.65,-154.5 267.37,-156.49"/>
</a>
</g>
</g>
<!-- Node34&#45;&gt;Node16 -->
<g id="edge52_Node000034_Node000016" class="edge">
<title>Node34&#45;&gt;Node16</title>
<g id="a_edge52_Node000034_Node000016"><a xlink:title=" ">
<path fill="none" stroke="#63b8ff" d="M227.76,-192.35C202.11,-182.53 159.18,-165.94 122.5,-151 121.3,-150.51 120.08,-150.01 118.84,-149.5"/>
<polygon fill="#63b8ff" stroke="#63b8ff" points="119.93,-146.16 109.35,-145.53 117.23,-152.62 119.93,-146.16"/>
</a>
</g>
</g>
<!-- Node34&#45;&gt;Node17 -->
<g id="edge53_Node000034_Node000017" class="edge">
<title>Node34&#45;&gt;Node17</title>
<g id="a_edge53_Node000034_Node000017"><a xlink:title=" ">
<path fill="none" stroke="#63b8ff" d="M238.09,-192.37C223.14,-181.97 197.78,-164.32 179.7,-151.75"/>
<polygon fill="#63b8ff" stroke="#63b8ff" points="181.21,-148.54 171,-145.7 177.22,-154.28 181.21,-148.54"/>
</a>
</g>
</g>
<!-- Node34&#45;&gt;Node19 -->
<g id="edge55_Node000034_Node000019" class="edge">
<title>Node34&#45;&gt;Node19</title>
<g id="a_edge55_Node000034_Node000019"><a xlink:title=" ">
<path fill="none" stroke="#63b8ff" d="M244.74,-192.4C235.2,-177 218.5,-144.14 232.5,-121 281.4,-40.19 400.97,-18.42 466.59,-12.59"/>
<polygon fill="#63b8ff" stroke="#63b8ff" points="466.95,-16.07 476.64,-11.79 466.39,-9.1 466.95,-16.07"/>
</a>
</g>
</g>
<!-- Node34&#45;&gt;Node23 -->
<g id="edge57_Node000034_Node000023" class="edge">
<title>Node34&#45;&gt;Node23</title>
<g id="a_edge57_Node000034_Node000023"><a xlink:title=" ">
<path fill="none" stroke="#63b8ff" d="M266.41,-192.37C283.55,-183.07 311.36,-167.99 333.63,-155.91"/>
<polygon fill="#63b8ff" stroke="#63b8ff" points="335.35,-158.96 342.47,-151.12 332.02,-152.81 335.35,-158.96"/>
</a>
</g>
</g>
<!-- Node35&#45;&gt;Node13 -->
<g id="edge59_Node000035_Node000013" class="edge">
<title>Node35&#45;&gt;Node13</title>
<g id="a_edge59_Node000035_Node000013"><a xlink:title=" ">
<path fill="none" stroke="#63b8ff" d="M2045,-258.47C2045.99,-234.94 2046.23,-167.83 2020.5,-121 2012.57,-106.57 1998.83,-94.2 1986.94,-85.38"/>
<polygon fill="#63b8ff" stroke="#63b8ff" points="1988.92,-82.49 1978.73,-79.6 1984.89,-88.22 1988.92,-82.49"/>
</a>
</g>
</g>
</g>
</svg>
