<?xml version="1.0" encoding="UTF-8" standalone="no"?>
<!DOCTYPE svg PUBLIC "-//W3C//DTD SVG 1.1//EN"
 "http://www.w3.org/Graphics/SVG/1.1/DTD/svg11.dtd">
<!-- Generated by graphviz version 2.43.0 (0)
 -->
<!-- Title: userver/engine/io/buffered.hpp Pages: 1 -->
<svg width="1273pt" height="280pt"
 viewBox="0.00 0.00 1273.00 280.00" xmlns="http://www.w3.org/2000/svg" xmlns:xlink="http://www.w3.org/1999/xlink">
<g id="graph0" class="graph" transform="scale(1 1) rotate(0) translate(4 276)">
<title>userver/engine/io/buffered.hpp</title>
<!-- Node1 -->
<g id="Node000001" class="node">
<title>Node1</title>
<g id="a_Node000001"><a xlink:title="Buffered I/O wrappers.">
<polygon fill="#999999" stroke="#666666" points="399,-272 233,-272 233,-253 399,-253 399,-272"/>
<text text-anchor="middle" x="316" y="-260" font-family="Helvetica,sans-Serif" font-size="10.00">userver/engine/io/buffered.hpp</text>
</a>
</g>
</g>
<!-- Node2 -->
<g id="Node000002" class="node">
<title>Node2</title>
<g id="a_Node000002"><a xlink:title=" ">
<polygon fill="#e0e0e0" stroke="#999999" points="81.5,-211.5 16.5,-211.5 16.5,-192.5 81.5,-192.5 81.5,-211.5"/>
<text text-anchor="middle" x="49" y="-199.5" font-family="Helvetica,sans-Serif" font-size="10.00">functional</text>
</a>
</g>
</g>
<!-- Node1&#45;&gt;Node2 -->
<g id="edge1_Node000001_Node000002" class="edge">
<title>Node1&#45;&gt;Node2</title>
<g id="a_edge1_Node000001_Node000002"><a xlink:title=" ">
<path fill="none" stroke="#63b8ff" d="M267.22,-252.94C222.45,-244.77 154.41,-231.58 96,-217 92.78,-216.2 89.45,-215.31 86.12,-214.39"/>
<polygon fill="#63b8ff" stroke="#63b8ff" points="86.8,-210.95 76.22,-211.56 84.88,-217.68 86.8,-210.95"/>
</a>
</g>
</g>
<!-- Node3 -->
<g id="Node000003" class="node">
<title>Node3</title>
<g id="a_Node000003"><a xlink:title=" ">
<polygon fill="#e0e0e0" stroke="#999999" points="44,-79.5 0,-79.5 0,-60.5 44,-60.5 44,-79.5"/>
<text text-anchor="middle" x="22" y="-67.5" font-family="Helvetica,sans-Serif" font-size="10.00">string</text>
</a>
</g>
</g>
<!-- Node1&#45;&gt;Node3 -->
<g id="edge2_Node000001_Node000003" class="edge">
<title>Node1&#45;&gt;Node3</title>
<g id="a_edge2_Node000001_Node000003"><a xlink:title=" ">
<path fill="none" stroke="#63b8ff" d="M245.54,-252.95C213.35,-246.65 175.83,-235.76 146,-217 92.65,-183.45 50.34,-119.58 31.96,-88.65"/>
<polygon fill="#63b8ff" stroke="#63b8ff" points="34.89,-86.74 26.85,-79.85 28.84,-90.25 34.89,-86.74"/>
</a>
</g>
</g>
<!-- Node4 -->
<g id="Node000004" class="node">
<title>Node4</title>
<g id="a_Node000004"><a xlink:href="../../d2/d84/select_8hpp.html" target="_top" xlink:title="Utilities for selection of platform specific values.">
<polygon fill="white" stroke="#666666" points="214,-79.5 62,-79.5 62,-60.5 214,-60.5 214,-79.5"/>
<text text-anchor="middle" x="138" y="-67.5" font-family="Helvetica,sans-Serif" font-size="10.00">userver/compiler/select.hpp</text>
</a>
</g>
</g>
<!-- Node1&#45;&gt;Node4 -->
<g id="edge3_Node000001_Node000004" class="edge">
<title>Node1&#45;&gt;Node4</title>
<g id="a_edge3_Node000001_Node000004"><a xlink:title=" ">
<path fill="none" stroke="#63b8ff" d="M232.65,-253.04C208.44,-246.64 183.99,-235.67 167,-217 134.61,-181.41 134,-120.35 136.07,-89.7"/>
<polygon fill="#63b8ff" stroke="#63b8ff" points="139.57,-89.82 136.93,-79.56 132.6,-89.23 139.57,-89.82"/>
</a>
</g>
</g>
<!-- Node6 -->
<g id="Node000006" class="node">
<title>Node6</title>
<g id="a_Node000006"><a xlink:href="../../d2/d22/deadline_8hpp.html" target="_top" xlink:title="Internal representation of a deadline time point.">
<polygon fill="white" stroke="#666666" points="864.5,-145.5 709.5,-145.5 709.5,-126.5 864.5,-126.5 864.5,-145.5"/>
<text text-anchor="middle" x="787" y="-133.5" font-family="Helvetica,sans-Serif" font-size="10.00">userver/engine/deadline.hpp</text>
</a>
</g>
</g>
<!-- Node1&#45;&gt;Node6 -->
<g id="edge5_Node000001_Node000006" class="edge">
<title>Node1&#45;&gt;Node6</title>
<g id="a_edge5_Node000001_Node000006"><a xlink:title=" ">
<path fill="none" stroke="#63b8ff" d="M348.37,-252.94C431.41,-230.99 651.93,-172.7 744.82,-148.15"/>
<polygon fill="#63b8ff" stroke="#63b8ff" points="745.94,-151.47 754.71,-145.53 744.15,-144.71 745.94,-151.47"/>
</a>
</g>
</g>
<!-- Node11 -->
<g id="Node000011" class="node">
<title>Node11</title>
<g id="a_Node000011"><a xlink:href="../../da/d29/core_2include_2userver_2engine_2io_2common_8hpp.html" target="_top" xlink:title="Common definitions and base classes for stream like objects.">
<polygon fill="white" stroke="#666666" points="344,-211.5 176,-211.5 176,-192.5 344,-192.5 344,-211.5"/>
<text text-anchor="middle" x="260" y="-199.5" font-family="Helvetica,sans-Serif" font-size="10.00">userver/engine/io/common.hpp</text>
</a>
</g>
</g>
<!-- Node1&#45;&gt;Node11 -->
<g id="edge10_Node000001_Node000011" class="edge">
<title>Node1&#45;&gt;Node11</title>
<g id="a_edge10_Node000001_Node000011"><a xlink:title=" ">
<path fill="none" stroke="#63b8ff" d="M307.74,-252.87C299.22,-243.97 285.74,-229.89 275.27,-218.95"/>
<polygon fill="#63b8ff" stroke="#63b8ff" points="277.74,-216.47 268.3,-211.67 272.68,-221.31 277.74,-216.47"/>
</a>
</g>
</g>
<!-- Node13 -->
<g id="Node000013" class="node">
<title>Node13</title>
<g id="a_Node000013"><a xlink:href="../../d1/d76/core_2include_2userver_2engine_2io_2exception_8hpp.html" target="_top" xlink:title="I/O exceptions.">
<polygon fill="white" stroke="#666666" points="1034.5,-211.5 861.5,-211.5 861.5,-192.5 1034.5,-192.5 1034.5,-211.5"/>
<text text-anchor="middle" x="948" y="-199.5" font-family="Helvetica,sans-Serif" font-size="10.00">userver/engine/io/exception.hpp</text>
</a>
</g>
</g>
<!-- Node1&#45;&gt;Node13 -->
<g id="edge14_Node000001_Node000013" class="edge">
<title>Node1&#45;&gt;Node13</title>
<g id="a_edge14_Node000001_Node000013"><a xlink:title=" ">
<path fill="none" stroke="#63b8ff" d="M399.27,-253.79C515.91,-243 727.46,-223.41 851.04,-211.98"/>
<polygon fill="#63b8ff" stroke="#63b8ff" points="851.61,-215.44 861.25,-211.03 850.97,-208.47 851.61,-215.44"/>
</a>
</g>
</g>
<!-- Node20 -->
<g id="Node000020" class="node">
<title>Node20</title>
<g id="a_Node000020"><a xlink:href="../../d5/d02/fast__pimpl_8hpp.html" target="_top" xlink:title="Implements pimpl idiom without dynamic memory allocation.">
<polygon fill="white" stroke="#666666" points="369.5,-85 270.5,-85 270.5,-55 369.5,-55 369.5,-85"/>
<text text-anchor="start" x="278.5" y="-73" font-family="Helvetica,sans-Serif" font-size="10.00">userver/utils/fast</text>
<text text-anchor="middle" x="320" y="-62" font-family="Helvetica,sans-Serif" font-size="10.00">_pimpl.hpp</text>
</a>
</g>
</g>
<!-- Node1&#45;&gt;Node20 -->
<g id="edge30_Node000001_Node000020" class="edge">
<title>Node1&#45;&gt;Node20</title>
<g id="a_edge30_Node000001_Node000020"><a xlink:title=" ">
<path fill="none" stroke="#63b8ff" d="M326.44,-252.87C335.42,-244.7 347.74,-231.55 353,-217 368.24,-174.84 347.96,-123.21 333.11,-94.01"/>
<polygon fill="#63b8ff" stroke="#63b8ff" points="336.11,-92.21 328.34,-85.01 329.93,-95.49 336.11,-92.21"/>
</a>
</g>
</g>
<!-- Node23 -->
<g id="Node000023" class="node">
<title>Node23</title>
<g id="a_Node000023"><a xlink:href="../../dc/d8f/function__ref_8hpp.html" target="_top" xlink:title="A backport of std::function_ref from C++26.">
<polygon fill="white" stroke="#666666" points="1221,-217 1101,-217 1101,-187 1221,-187 1221,-217"/>
<text text-anchor="start" x="1109" y="-205" font-family="Helvetica,sans-Serif" font-size="10.00">userver/utils/function</text>
<text text-anchor="middle" x="1161" y="-194" font-family="Helvetica,sans-Serif" font-size="10.00">_ref.hpp</text>
</a>
</g>
</g>
<!-- Node1&#45;&gt;Node23 -->
<g id="edge31_Node000001_Node000023" class="edge">
<title>Node1&#45;&gt;Node23</title>
<g id="a_edge31_Node000001_Node000023"><a xlink:title=" ">
<path fill="none" stroke="#63b8ff" d="M399.09,-257.99C534.4,-251.93 810.69,-238.07 1044,-217 1059.21,-215.63 1075.5,-213.86 1090.94,-212.06"/>
<polygon fill="#63b8ff" stroke="#63b8ff" points="1091.43,-215.52 1100.95,-210.86 1090.6,-208.57 1091.43,-215.52"/>
</a>
</g>
</g>
<!-- Node5 -->
<g id="Node000005" class="node">
<title>Node5</title>
<g id="a_Node000005"><a xlink:title=" ">
<polygon fill="#e0e0e0" stroke="#999999" points="247.5,-19 194.5,-19 194.5,0 247.5,0 247.5,-19"/>
<text text-anchor="middle" x="221" y="-7" font-family="Helvetica,sans-Serif" font-size="10.00">cstddef</text>
</a>
</g>
</g>
<!-- Node4&#45;&gt;Node5 -->
<g id="edge4_Node000004_Node000005" class="edge">
<title>Node4&#45;&gt;Node5</title>
<g id="a_edge4_Node000004_Node000005"><a xlink:title=" ">
<path fill="none" stroke="#63b8ff" d="M150.25,-60.37C163.36,-51.12 184.42,-36.28 200.15,-25.19"/>
<polygon fill="#63b8ff" stroke="#63b8ff" points="202.55,-27.79 208.7,-19.17 198.51,-22.07 202.55,-27.79"/>
</a>
</g>
</g>
<!-- Node7 -->
<g id="Node000007" class="node">
<title>Node7</title>
<g id="a_Node000007"><a xlink:title=" ">
<polygon fill="#e0e0e0" stroke="#999999" points="865,-79.5 815,-79.5 815,-60.5 865,-60.5 865,-79.5"/>
<text text-anchor="middle" x="840" y="-67.5" font-family="Helvetica,sans-Serif" font-size="10.00">chrono</text>
</a>
</g>
</g>
<!-- Node6&#45;&gt;Node7 -->
<g id="edge6_Node000006_Node000007" class="edge">
<title>Node6&#45;&gt;Node7</title>
<g id="a_edge6_Node000006_Node000007"><a xlink:title=" ">
<path fill="none" stroke="#63b8ff" d="M794.15,-126.37C802.32,-116.5 815.89,-100.11 826.16,-87.72"/>
<polygon fill="#63b8ff" stroke="#63b8ff" points="828.94,-89.84 832.63,-79.91 823.55,-85.37 828.94,-89.84"/>
</a>
</g>
</g>
<!-- Node8 -->
<g id="Node000008" class="node">
<title>Node8</title>
<g id="a_Node000008"><a xlink:title=" ">
<polygon fill="#e0e0e0" stroke="#999999" points="452.5,-19 383.5,-19 383.5,0 452.5,0 452.5,-19"/>
<text text-anchor="middle" x="418" y="-7" font-family="Helvetica,sans-Serif" font-size="10.00">type_traits</text>
</a>
</g>
</g>
<!-- Node6&#45;&gt;Node8 -->
<g id="edge7_Node000006_Node000008" class="edge">
<title>Node6&#45;&gt;Node8</title>
<g id="a_edge7_Node000006_Node000008"><a xlink:title=" ">
<path fill="none" stroke="#63b8ff" d="M787.82,-126.45C788.89,-109.91 788.6,-73.51 768,-55 723.94,-15.4 546.64,-10.24 462.6,-10.08"/>
<polygon fill="#63b8ff" stroke="#63b8ff" points="462.59,-6.58 452.59,-10.08 462.59,-13.58 462.59,-6.58"/>
</a>
</g>
</g>
<!-- Node9 -->
<g id="Node000009" class="node">
<title>Node9</title>
<g id="a_Node000009"><a xlink:href="../../d2/d54/assert_8hpp.html" target="_top" xlink:title="Assertion macros UASSERT, UASSERT_MSG, UINVARIANT.">
<polygon fill="white" stroke="#666666" points="1014.5,-79.5 883.5,-79.5 883.5,-60.5 1014.5,-60.5 1014.5,-79.5"/>
<text text-anchor="middle" x="949" y="-67.5" font-family="Helvetica,sans-Serif" font-size="10.00">userver/utils/assert.hpp</text>
</a>
</g>
</g>
<!-- Node6&#45;&gt;Node9 -->
<g id="edge8_Node000006_Node000009" class="edge">
<title>Node6&#45;&gt;Node9</title>
<g id="a_edge8_Node000006_Node000009"><a xlink:title=" ">
<path fill="none" stroke="#63b8ff" d="M808.85,-126.37C836.95,-115.27 885.93,-95.92 917.9,-83.28"/>
<polygon fill="#63b8ff" stroke="#63b8ff" points="919.23,-86.53 927.24,-79.6 916.65,-80.02 919.23,-86.53"/>
</a>
</g>
</g>
<!-- Node10 -->
<g id="Node000010" class="node">
<title>Node10</title>
<g id="a_Node000010"><a xlink:title=" ">
<polygon fill="#e0e0e0" stroke="#999999" points="1032.5,-19 959.5,-19 959.5,0 1032.5,0 1032.5,-19"/>
<text text-anchor="middle" x="996" y="-7" font-family="Helvetica,sans-Serif" font-size="10.00">string_view</text>
</a>
</g>
</g>
<!-- Node9&#45;&gt;Node10 -->
<g id="edge9_Node000009_Node000010" class="edge">
<title>Node9&#45;&gt;Node10</title>
<g id="a_edge9_Node000009_Node000010"><a xlink:title=" ">
<path fill="none" stroke="#63b8ff" d="M955.94,-60.37C962.95,-51.64 973.96,-37.93 982.67,-27.09"/>
<polygon fill="#63b8ff" stroke="#63b8ff" points="985.5,-29.16 989.04,-19.17 980.04,-24.77 985.5,-29.16"/>
</a>
</g>
</g>
<!-- Node11&#45;&gt;Node5 -->
<g id="edge11_Node000011_Node000005" class="edge">
<title>Node11&#45;&gt;Node5</title>
<g id="a_edge11_Node000011_Node000005"><a xlink:title=" ">
<path fill="none" stroke="#63b8ff" d="M258.22,-192.32C252.28,-163.31 233.04,-69.3 224.8,-29.06"/>
<polygon fill="#63b8ff" stroke="#63b8ff" points="228.22,-28.33 222.79,-19.23 221.36,-29.73 228.22,-28.33"/>
</a>
</g>
</g>
<!-- Node11&#45;&gt;Node6 -->
<g id="edge13_Node000011_Node000006" class="edge">
<title>Node11&#45;&gt;Node6</title>
<g id="a_edge13_Node000011_Node000006"><a xlink:title=" ">
<path fill="none" stroke="#63b8ff" d="M330.25,-192.47C427.89,-180.61 604.14,-159.21 706.8,-146.74"/>
<polygon fill="#63b8ff" stroke="#63b8ff" points="707.3,-150.2 716.81,-145.52 706.46,-143.26 707.3,-150.2"/>
</a>
</g>
</g>
<!-- Node12 -->
<g id="Node000012" class="node">
<title>Node12</title>
<g id="a_Node000012"><a xlink:title=" ">
<polygon fill="#e0e0e0" stroke="#999999" points="328,-145.5 270,-145.5 270,-126.5 328,-126.5 328,-145.5"/>
<text text-anchor="middle" x="299" y="-133.5" font-family="Helvetica,sans-Serif" font-size="10.00">memory</text>
</a>
</g>
</g>
<!-- Node11&#45;&gt;Node12 -->
<g id="edge12_Node000011_Node000012" class="edge">
<title>Node11&#45;&gt;Node12</title>
<g id="a_edge12_Node000011_Node000012"><a xlink:title=" ">
<path fill="none" stroke="#63b8ff" d="M265.26,-192.37C271.1,-182.78 280.69,-167.05 288.15,-154.8"/>
<polygon fill="#63b8ff" stroke="#63b8ff" points="291.36,-156.27 293.57,-145.91 285.38,-152.62 291.36,-156.27"/>
</a>
</g>
</g>
<!-- Node13&#45;&gt;Node10 -->
<g id="edge16_Node000013_Node000010" class="edge">
<title>Node13&#45;&gt;Node10</title>
<g id="a_edge16_Node000013_Node000010"><a xlink:title=" ">
<path fill="none" stroke="#63b8ff" d="M958.86,-192.45C969.97,-183.24 987.1,-167.63 998,-151 1015.29,-124.63 1018.12,-115.97 1024,-85 1026.49,-71.9 1027.7,-67.81 1024,-55 1021.13,-45.06 1015.32,-35.2 1009.72,-27.29"/>
<polygon fill="#63b8ff" stroke="#63b8ff" points="1012.5,-25.16 1003.67,-19.3 1006.92,-29.39 1012.5,-25.16"/>
</a>
</g>
</g>
<!-- Node14 -->
<g id="Node000014" class="node">
<title>Node14</title>
<g id="a_Node000014"><a xlink:title=" ">
<polygon fill="#e0e0e0" stroke="#999999" points="1136.5,-145.5 1071.5,-145.5 1071.5,-126.5 1136.5,-126.5 1136.5,-145.5"/>
<text text-anchor="middle" x="1104" y="-133.5" font-family="Helvetica,sans-Serif" font-size="10.00">stdexcept</text>
</a>
</g>
</g>
<!-- Node13&#45;&gt;Node14 -->
<g id="edge15_Node000013_Node000014" class="edge">
<title>Node13&#45;&gt;Node14</title>
<g id="a_edge15_Node000013_Node000014"><a xlink:title=" ">
<path fill="none" stroke="#63b8ff" d="M969.04,-192.37C995.98,-181.32 1042.86,-162.08 1073.66,-149.45"/>
<polygon fill="#63b8ff" stroke="#63b8ff" points="1075.12,-152.63 1083.05,-145.6 1072.47,-146.15 1075.12,-152.63"/>
</a>
</g>
</g>
<!-- Node15 -->
<g id="Node000015" class="node">
<title>Node15</title>
<g id="a_Node000015"><a xlink:title=" ">
<polygon fill="#e0e0e0" stroke="#999999" points="988.5,-145.5 907.5,-145.5 907.5,-126.5 988.5,-126.5 988.5,-145.5"/>
<text text-anchor="middle" x="948" y="-133.5" font-family="Helvetica,sans-Serif" font-size="10.00">system_error</text>
</a>
</g>
</g>
<!-- Node13&#45;&gt;Node15 -->
<g id="edge17_Node000013_Node000015" class="edge">
<title>Node13&#45;&gt;Node15</title>
<g id="a_edge17_Node000013_Node000015"><a xlink:title=" ">
<path fill="none" stroke="#63b8ff" d="M948,-192.37C948,-183.16 948,-168.29 948,-156.27"/>
<polygon fill="#63b8ff" stroke="#63b8ff" points="951.5,-155.91 948,-145.91 944.5,-155.91 951.5,-155.91"/>
</a>
</g>
</g>
<!-- Node16 -->
<g id="Node000016" class="node">
<title>Node16</title>
<g id="a_Node000016"><a xlink:href="../../da/de0/traceful__exception_8hpp.html" target="_top" xlink:title="Exception that remembers the backtrace at the point of its construction.">
<polygon fill="white" stroke="#666666" points="518,-151 400,-151 400,-121 518,-121 518,-151"/>
<text text-anchor="start" x="408" y="-139" font-family="Helvetica,sans-Serif" font-size="10.00">userver/utils/traceful</text>
<text text-anchor="middle" x="459" y="-128" font-family="Helvetica,sans-Serif" font-size="10.00">_exception.hpp</text>
</a>
</g>
</g>
<!-- Node13&#45;&gt;Node16 -->
<g id="edge18_Node000013_Node000016" class="edge">
<title>Node13&#45;&gt;Node16</title>
<g id="a_edge18_Node000013_Node000016"><a xlink:title=" ">
<path fill="none" stroke="#63b8ff" d="M882.81,-192.47C790.49,-180.38 622.39,-158.39 528.02,-146.03"/>
<polygon fill="#63b8ff" stroke="#63b8ff" points="528.38,-142.55 518.01,-144.72 527.47,-149.49 528.38,-142.55"/>
</a>
</g>
</g>
<!-- Node16&#45;&gt;Node3 -->
<g id="edge20_Node000016_Node000003" class="edge">
<title>Node16&#45;&gt;Node3</title>
<g id="a_edge20_Node000016_Node000003"><a xlink:title=" ">
<path fill="none" stroke="#63b8ff" d="M399.91,-128.2C291.3,-115.63 69.48,-89.62 53,-85 51.32,-84.53 49.61,-83.98 47.91,-83.38"/>
<polygon fill="#63b8ff" stroke="#63b8ff" points="48.97,-80.03 38.39,-79.51 46.33,-86.51 48.97,-80.03"/>
</a>
</g>
</g>
<!-- Node16&#45;&gt;Node4 -->
<g id="edge24_Node000016_Node000004" class="edge">
<title>Node16&#45;&gt;Node4</title>
<g id="a_edge24_Node000016_Node000004"><a xlink:title=" ">
<path fill="none" stroke="#63b8ff" d="M399.75,-123.19C339.94,-111.26 248.42,-93.01 190.96,-81.56"/>
<polygon fill="#63b8ff" stroke="#63b8ff" points="191.48,-78.09 180.99,-79.57 190.11,-84.96 191.48,-78.09"/>
</a>
</g>
</g>
<!-- Node16&#45;&gt;Node8 -->
<g id="edge21_Node000016_Node000008" class="edge">
<title>Node16&#45;&gt;Node8</title>
<g id="a_edge21_Node000016_Node000008"><a xlink:title=" ">
<path fill="none" stroke="#63b8ff" d="M442.16,-120.65C432.8,-111.52 422.04,-98.85 417,-85 410.37,-66.81 411.84,-44.42 414.2,-28.97"/>
<polygon fill="#63b8ff" stroke="#63b8ff" points="417.65,-29.56 415.97,-19.09 410.76,-28.32 417.65,-29.56"/>
</a>
</g>
</g>
<!-- Node17 -->
<g id="Node000017" class="node">
<title>Node17</title>
<g id="a_Node000017"><a xlink:title=" ">
<polygon fill="#e0e0e0" stroke="#999999" points="491.5,-79.5 426.5,-79.5 426.5,-60.5 491.5,-60.5 491.5,-79.5"/>
<text text-anchor="middle" x="459" y="-67.5" font-family="Helvetica,sans-Serif" font-size="10.00">exception</text>
</a>
</g>
</g>
<!-- Node16&#45;&gt;Node17 -->
<g id="edge19_Node000016_Node000017" class="edge">
<title>Node16&#45;&gt;Node17</title>
<g id="a_edge19_Node000016_Node000017"><a xlink:title=" ">
<path fill="none" stroke="#63b8ff" d="M459,-120.8C459,-111.7 459,-99.79 459,-89.9"/>
<polygon fill="#63b8ff" stroke="#63b8ff" points="462.5,-89.84 459,-79.84 455.5,-89.84 462.5,-89.84"/>
</a>
</g>
</g>
<!-- Node18 -->
<g id="Node000018" class="node">
<title>Node18</title>
<g id="a_Node000018"><a xlink:title=" ">
<polygon fill="#e0e0e0" stroke="#999999" points="588.5,-79.5 509.5,-79.5 509.5,-60.5 588.5,-60.5 588.5,-79.5"/>
<text text-anchor="middle" x="549" y="-67.5" font-family="Helvetica,sans-Serif" font-size="10.00">fmt/format.h</text>
</a>
</g>
</g>
<!-- Node16&#45;&gt;Node18 -->
<g id="edge22_Node000016_Node000018" class="edge">
<title>Node16&#45;&gt;Node18</title>
<g id="a_edge22_Node000016_Node000018"><a xlink:title=" ">
<path fill="none" stroke="#63b8ff" d="M478.97,-120.8C493.64,-110.37 513.51,-96.24 528.34,-85.69"/>
<polygon fill="#63b8ff" stroke="#63b8ff" points="530.7,-88.31 536.82,-79.66 526.65,-82.6 530.7,-88.31"/>
</a>
</g>
</g>
<!-- Node19 -->
<g id="Node000019" class="node">
<title>Node19</title>
<g id="a_Node000019"><a xlink:title=" ">
<polygon fill="#e0e0e0" stroke="#999999" points="759,-85 607,-85 607,-55 759,-55 759,-85"/>
<text text-anchor="start" x="615" y="-73" font-family="Helvetica,sans-Serif" font-size="10.00">boost/stacktrace/stacktrace</text>
<text text-anchor="middle" x="683" y="-62" font-family="Helvetica,sans-Serif" font-size="10.00">_fwd.hpp</text>
</a>
</g>
</g>
<!-- Node16&#45;&gt;Node19 -->
<g id="edge23_Node000016_Node000019" class="edge">
<title>Node16&#45;&gt;Node19</title>
<g id="a_edge23_Node000016_Node000019"><a xlink:title=" ">
<path fill="none" stroke="#63b8ff" d="M508.16,-120.95C542.3,-111.2 587.95,-98.16 624.05,-87.84"/>
<polygon fill="#63b8ff" stroke="#63b8ff" points="625.3,-91.12 633.96,-85.01 623.38,-84.39 625.3,-91.12"/>
</a>
</g>
</g>
<!-- Node16&#45;&gt;Node20 -->
<g id="edge25_Node000016_Node000020" class="edge">
<title>Node16&#45;&gt;Node20</title>
<g id="a_edge25_Node000016_Node000020"><a xlink:title=" ">
<path fill="none" stroke="#63b8ff" d="M428.5,-120.95C408.31,-111.66 381.63,-99.38 359.78,-89.32"/>
<polygon fill="#63b8ff" stroke="#63b8ff" points="360.98,-86.02 350.43,-85.01 358.05,-92.37 360.98,-86.02"/>
</a>
</g>
</g>
<!-- Node20&#45;&gt;Node5 -->
<g id="edge26_Node000020_Node000005" class="edge">
<title>Node20&#45;&gt;Node5</title>
<g id="a_edge26_Node000020_Node000005"><a xlink:title=" ">
<path fill="none" stroke="#63b8ff" d="M296.29,-54.99C280.65,-45.75 260.26,-33.7 244.64,-24.47"/>
<polygon fill="#63b8ff" stroke="#63b8ff" points="246.01,-21.21 235.62,-19.14 242.45,-27.24 246.01,-21.21"/>
</a>
</g>
</g>
<!-- Node20&#45;&gt;Node8 -->
<g id="edge28_Node000020_Node000008" class="edge">
<title>Node20&#45;&gt;Node8</title>
<g id="a_edge28_Node000020_Node000008"><a xlink:title=" ">
<path fill="none" stroke="#63b8ff" d="M343.72,-54.84C359.2,-45.6 379.32,-33.59 394.71,-24.4"/>
<polygon fill="#63b8ff" stroke="#63b8ff" points="396.81,-27.23 403.6,-19.09 393.22,-21.21 396.81,-27.23"/>
</a>
</g>
</g>
<!-- Node21 -->
<g id="Node000021" class="node">
<title>Node21</title>
<g id="a_Node000021"><a xlink:title=" ">
<polygon fill="#e0e0e0" stroke="#999999" points="365.5,-19 328.5,-19 328.5,0 365.5,0 365.5,-19"/>
<text text-anchor="middle" x="347" y="-7" font-family="Helvetica,sans-Serif" font-size="10.00">new</text>
</a>
</g>
</g>
<!-- Node20&#45;&gt;Node21 -->
<g id="edge27_Node000020_Node000021" class="edge">
<title>Node20&#45;&gt;Node21</title>
<g id="a_edge27_Node000020_Node000021"><a xlink:title=" ">
<path fill="none" stroke="#63b8ff" d="M326.54,-54.84C330.18,-46.95 334.74,-37.05 338.64,-28.61"/>
<polygon fill="#63b8ff" stroke="#63b8ff" points="341.94,-29.81 342.95,-19.27 335.59,-26.88 341.94,-29.81"/>
</a>
</g>
</g>
<!-- Node22 -->
<g id="Node000022" class="node">
<title>Node22</title>
<g id="a_Node000022"><a xlink:title=" ">
<polygon fill="#e0e0e0" stroke="#999999" points="310.5,-19 265.5,-19 265.5,0 310.5,0 310.5,-19"/>
<text text-anchor="middle" x="288" y="-7" font-family="Helvetica,sans-Serif" font-size="10.00">utility</text>
</a>
</g>
</g>
<!-- Node20&#45;&gt;Node22 -->
<g id="edge29_Node000020_Node000022" class="edge">
<title>Node20&#45;&gt;Node22</title>
<g id="a_edge29_Node000020_Node000022"><a xlink:title=" ">
<path fill="none" stroke="#63b8ff" d="M312.25,-54.84C307.85,-46.78 302.29,-36.62 297.6,-28.06"/>
<polygon fill="#63b8ff" stroke="#63b8ff" points="300.66,-26.36 292.8,-19.27 294.52,-29.72 300.66,-26.36"/>
</a>
</g>
</g>
<!-- Node24 -->
<g id="Node000024" class="node">
<title>Node24</title>
<g id="a_Node000024"><a xlink:title=" ">
<polygon fill="#e0e0e0" stroke="#999999" points="1265,-151 1155,-151 1155,-121 1265,-121 1265,-151"/>
<text text-anchor="start" x="1163" y="-139" font-family="Helvetica,sans-Serif" font-size="10.00">function_backports</text>
<text text-anchor="middle" x="1210" y="-128" font-family="Helvetica,sans-Serif" font-size="10.00">/function_ref.h</text>
</a>
</g>
</g>
<!-- Node23&#45;&gt;Node24 -->
<g id="edge32_Node000023_Node000024" class="edge">
<title>Node23&#45;&gt;Node24</title>
<g id="a_edge32_Node000023_Node000024"><a xlink:title=" ">
<path fill="none" stroke="#63b8ff" d="M1171.87,-186.8C1178.09,-178.68 1186.02,-168.31 1193.04,-159.15"/>
<polygon fill="#63b8ff" stroke="#63b8ff" points="1195.86,-161.23 1199.16,-151.16 1190.3,-156.98 1195.86,-161.23"/>
</a>
</g>
</g>
</g>
</svg>
