<?xml version="1.0" encoding="UTF-8" standalone="no"?>
<!DOCTYPE svg PUBLIC "-//W3C//DTD SVG 1.1//EN"
 "http://www.w3.org/Graphics/SVG/1.1/DTD/svg11.dtd">
<!-- Generated by graphviz version 2.43.0 (0)
 -->
<!-- Title: userver/storages/postgres/io/composite_types.hpp Pages: 1 -->
<svg width="860pt" height="434pt"
 viewBox="0.00 0.00 860.25 434.00" xmlns="http://www.w3.org/2000/svg" xmlns:xlink="http://www.w3.org/1999/xlink">
<g id="graph0" class="graph" transform="scale(1 1) rotate(0) translate(4 430)">
<title>userver/storages/postgres/io/composite_types.hpp</title>
<!-- Node1 -->
<g id="Node000001" class="node">
<title>Node1</title>
<g id="a_Node000001"><a xlink:title="Composite types I/O support.">
<polygon fill="#999999" stroke="#666666" points="489.25,-426 346.25,-426 346.25,-396 489.25,-396 489.25,-426"/>
<text text-anchor="start" x="354.25" y="-414" font-family="Helvetica,sans-Serif" font-size="10.00">userver/storages/postgres</text>
<text text-anchor="middle" x="417.75" y="-403" font-family="Helvetica,sans-Serif" font-size="10.00">/io/composite_types.hpp</text>
</a>
</g>
</g>
<!-- Node2 -->
<g id="Node000002" class="node">
<title>Node2</title>
<g id="a_Node000002"><a xlink:href="../../de/d7f/supported__types_8hpp_source.html" target="_top" xlink:title=" ">
<polygon fill="white" stroke="#666666" points="489.25,-360 346.25,-360 346.25,-330 489.25,-330 489.25,-360"/>
<text text-anchor="start" x="354.25" y="-348" font-family="Helvetica,sans-Serif" font-size="10.00">userver/storages/postgres</text>
<text text-anchor="middle" x="417.75" y="-337" font-family="Helvetica,sans-Serif" font-size="10.00">/io/supported_types.hpp</text>
</a>
</g>
</g>
<!-- Node1&#45;&gt;Node2 -->
<g id="edge1_Node000001_Node000002" class="edge">
<title>Node1&#45;&gt;Node2</title>
<g id="a_edge1_Node000001_Node000002"><a xlink:title=" ">
<path fill="none" stroke="#63b8ff" d="M417.75,-385.54C417.75,-376.96 417.75,-367.61 417.75,-360.16"/>
<polygon fill="#63b8ff" stroke="#63b8ff" points="414.25,-385.8 417.75,-395.8 421.25,-385.8 414.25,-385.8"/>
</a>
</g>
</g>
<!-- Node3 -->
<g id="Node000003" class="node">
<title>Node3</title>
<g id="a_Node000003"><a xlink:href="../../d2/d3f/query__parameters_8hpp_source.html" target="_top" xlink:title=" ">
<polygon fill="white" stroke="#666666" points="379.25,-294 218.25,-294 218.25,-264 379.25,-264 379.25,-294"/>
<text text-anchor="start" x="226.25" y="-282" font-family="Helvetica,sans-Serif" font-size="10.00">userver/storages/postgres</text>
<text text-anchor="middle" x="298.75" y="-271" font-family="Helvetica,sans-Serif" font-size="10.00">/detail/query_parameters.hpp</text>
</a>
</g>
</g>
<!-- Node2&#45;&gt;Node3 -->
<g id="edge2_Node000002_Node000003" class="edge">
<title>Node2&#45;&gt;Node3</title>
<g id="a_edge2_Node000002_Node000003"><a xlink:title=" ">
<path fill="none" stroke="#63b8ff" d="M382.62,-325.11C364.1,-315.14 341.76,-303.13 324.8,-294.01"/>
<polygon fill="#63b8ff" stroke="#63b8ff" points="381.17,-328.3 391.64,-329.95 384.49,-322.14 381.17,-328.3"/>
</a>
</g>
</g>
<!-- Node12 -->
<g id="Node000012" class="node">
<title>Node12</title>
<g id="a_Node000012"><a xlink:href="../../de/d1d/result__set_8hpp.html" target="_top" xlink:title="Result accessors.">
<polygon fill="white" stroke="#666666" points="658.25,-294 515.25,-294 515.25,-264 658.25,-264 658.25,-294"/>
<text text-anchor="start" x="523.25" y="-282" font-family="Helvetica,sans-Serif" font-size="10.00">userver/storages/postgres</text>
<text text-anchor="middle" x="586.75" y="-271" font-family="Helvetica,sans-Serif" font-size="10.00">/result_set.hpp</text>
</a>
</g>
</g>
<!-- Node2&#45;&gt;Node12 -->
<g id="edge17_Node000002_Node000012" class="edge">
<title>Node2&#45;&gt;Node12</title>
<g id="a_edge17_Node000002_Node000012"><a xlink:title=" ">
<path fill="none" stroke="#63b8ff" d="M464.43,-326.32C491.33,-316.14 524.67,-303.51 549.75,-294.01"/>
<polygon fill="#63b8ff" stroke="#63b8ff" points="462.95,-323.14 454.84,-329.95 465.43,-329.69 462.95,-323.14"/>
</a>
</g>
</g>
<!-- Node4 -->
<g id="Node000004" class="node">
<title>Node4</title>
<g id="a_Node000004"><a xlink:href="../../d4/dd3/non__transaction_8hpp_source.html" target="_top" xlink:title=" ">
<polygon fill="white" stroke="#666666" points="192.25,-162 43.25,-162 43.25,-132 192.25,-132 192.25,-162"/>
<text text-anchor="start" x="51.25" y="-150" font-family="Helvetica,sans-Serif" font-size="10.00">userver/storages/postgres</text>
<text text-anchor="middle" x="117.75" y="-139" font-family="Helvetica,sans-Serif" font-size="10.00">/detail/non_transaction.hpp</text>
</a>
</g>
</g>
<!-- Node3&#45;&gt;Node4 -->
<g id="edge3_Node000003_Node000004" class="edge">
<title>Node3&#45;&gt;Node4</title>
<g id="a_edge3_Node000003_Node000004"><a xlink:title=" ">
<path fill="none" stroke="#63b8ff" d="M207.84,-274.87C131.94,-270.12 32.18,-258.15 6.75,-228 -17.14,-199.67 29.3,-176.16 69.23,-162.12"/>
<polygon fill="#63b8ff" stroke="#63b8ff" points="207.72,-278.37 217.91,-275.47 208.13,-271.38 207.72,-278.37"/>
</a>
</g>
</g>
<!-- Node8 -->
<g id="Node000008" class="node">
<title>Node8</title>
<g id="a_Node000008"><a xlink:href="../../db/d6e/parameter__store_8hpp.html" target="_top" xlink:title="Class for dynamic PostgreSQL parameter list construction.">
<polygon fill="white" stroke="#666666" points="159.25,-228 16.25,-228 16.25,-198 159.25,-198 159.25,-228"/>
<text text-anchor="start" x="24.25" y="-216" font-family="Helvetica,sans-Serif" font-size="10.00">userver/storages/postgres</text>
<text text-anchor="middle" x="87.75" y="-205" font-family="Helvetica,sans-Serif" font-size="10.00">/parameter_store.hpp</text>
</a>
</g>
</g>
<!-- Node3&#45;&gt;Node8 -->
<g id="edge7_Node000003_Node000008" class="edge">
<title>Node3&#45;&gt;Node8</title>
<g id="a_edge7_Node000003_Node000008"><a xlink:title=" ">
<path fill="none" stroke="#63b8ff" d="M242.67,-260.99C208.72,-250.69 165.94,-237.72 133.95,-228.01"/>
<polygon fill="#63b8ff" stroke="#63b8ff" points="241.86,-264.4 252.45,-263.95 243.89,-257.7 241.86,-264.4"/>
</a>
</g>
</g>
<!-- Node9 -->
<g id="Node000009" class="node">
<title>Node9</title>
<g id="a_Node000009"><a xlink:href="../../da/deb/postgresql_2include_2userver_2storages_2postgres_2transaction_8hpp.html" target="_top" xlink:title="Transactions.">
<polygon fill="white" stroke="#666666" points="427.25,-162 284.25,-162 284.25,-132 427.25,-132 427.25,-162"/>
<text text-anchor="start" x="292.25" y="-150" font-family="Helvetica,sans-Serif" font-size="10.00">userver/storages/postgres</text>
<text text-anchor="middle" x="355.75" y="-139" font-family="Helvetica,sans-Serif" font-size="10.00">/transaction.hpp</text>
</a>
</g>
</g>
<!-- Node3&#45;&gt;Node9 -->
<g id="edge16_Node000003_Node000009" class="edge">
<title>Node3&#45;&gt;Node9</title>
<g id="a_edge16_Node000003_Node000009"><a xlink:title=" ">
<path fill="none" stroke="#63b8ff" d="M314.05,-254.87C319.13,-246.6 324.55,-237.08 328.75,-228 339.02,-205.78 347.38,-178.51 351.95,-162.23"/>
<polygon fill="#63b8ff" stroke="#63b8ff" points="310.92,-253.26 308.54,-263.58 316.84,-257 310.92,-253.26"/>
</a>
</g>
</g>
<!-- Node10 -->
<g id="Node000010" class="node">
<title>Node10</title>
<g id="a_Node000010"><a xlink:href="../../d2/de3/portal_8hpp_source.html" target="_top" xlink:title=" ">
<polygon fill="white" stroke="#666666" points="520.25,-228 377.25,-228 377.25,-198 520.25,-198 520.25,-228"/>
<text text-anchor="start" x="385.25" y="-216" font-family="Helvetica,sans-Serif" font-size="10.00">userver/storages/postgres</text>
<text text-anchor="middle" x="448.75" y="-205" font-family="Helvetica,sans-Serif" font-size="10.00">/portal.hpp</text>
</a>
</g>
</g>
<!-- Node3&#45;&gt;Node10 -->
<g id="edge12_Node000003_Node000010" class="edge">
<title>Node3&#45;&gt;Node10</title>
<g id="a_edge12_Node000003_Node000010"><a xlink:title=" ">
<path fill="none" stroke="#63b8ff" d="M341.13,-259.92C364.83,-249.8 393.94,-237.38 415.91,-228.01"/>
<polygon fill="#63b8ff" stroke="#63b8ff" points="339.49,-256.81 331.67,-263.95 342.24,-263.25 339.49,-256.81"/>
</a>
</g>
</g>
<!-- Node11 -->
<g id="Node000011" class="node">
<title>Node11</title>
<g id="a_Node000011"><a xlink:href="../../d8/d63/query__queue_8hpp.html" target="_top" xlink:title="An utility to execute multiple queries in a single network round&#45;trip.">
<polygon fill="white" stroke="#666666" points="320.25,-228 177.25,-228 177.25,-198 320.25,-198 320.25,-228"/>
<text text-anchor="start" x="185.25" y="-216" font-family="Helvetica,sans-Serif" font-size="10.00">userver/storages/postgres</text>
<text text-anchor="middle" x="248.75" y="-205" font-family="Helvetica,sans-Serif" font-size="10.00">/query_queue.hpp</text>
</a>
</g>
</g>
<!-- Node3&#45;&gt;Node11 -->
<g id="edge14_Node000003_Node000011" class="edge">
<title>Node3&#45;&gt;Node11</title>
<g id="a_edge14_Node000003_Node000011"><a xlink:title=" ">
<path fill="none" stroke="#63b8ff" d="M281.41,-255.81C274.25,-246.64 266.15,-236.28 259.82,-228.16"/>
<polygon fill="#63b8ff" stroke="#63b8ff" points="278.74,-258.07 287.65,-263.8 284.26,-253.76 278.74,-258.07"/>
</a>
</g>
</g>
<!-- Node5 -->
<g id="Node000005" class="node">
<title>Node5</title>
<g id="a_Node000005"><a xlink:href="../../de/dd3/postgresql_2include_2userver_2storages_2postgres_2cluster_8hpp.html" target="_top" xlink:title="Interface for executing queries on a cluster of PostgreSQL servers.">
<polygon fill="white" stroke="#666666" points="320.25,-96 177.25,-96 177.25,-66 320.25,-66 320.25,-96"/>
<text text-anchor="start" x="185.25" y="-84" font-family="Helvetica,sans-Serif" font-size="10.00">userver/storages/postgres</text>
<text text-anchor="middle" x="248.75" y="-73" font-family="Helvetica,sans-Serif" font-size="10.00">/cluster.hpp</text>
</a>
</g>
</g>
<!-- Node4&#45;&gt;Node5 -->
<g id="edge4_Node000004_Node000005" class="edge">
<title>Node4&#45;&gt;Node5</title>
<g id="a_edge4_Node000004_Node000005"><a xlink:title=" ">
<path fill="none" stroke="#63b8ff" d="M155.59,-127.51C176.14,-117.47 201.14,-105.26 220.07,-96.01"/>
<polygon fill="#63b8ff" stroke="#63b8ff" points="153.95,-124.42 146.5,-131.95 157.02,-130.71 153.95,-124.42"/>
</a>
</g>
</g>
<!-- Node6 -->
<g id="Node000006" class="node">
<title>Node6</title>
<g id="a_Node000006"><a xlink:href="../../dc/df7/base__postgres__cache_8hpp.html" target="_top" xlink:title="Caching component for PostgreSQL. See Caching Component for PostgreSQL.">
<polygon fill="white" stroke="#666666" points="296.25,-30 177.25,-30 177.25,0 296.25,0 296.25,-30"/>
<text text-anchor="start" x="185.25" y="-18" font-family="Helvetica,sans-Serif" font-size="10.00">userver/cache/base</text>
<text text-anchor="middle" x="236.75" y="-7" font-family="Helvetica,sans-Serif" font-size="10.00">_postgres_cache.hpp</text>
</a>
</g>
</g>
<!-- Node5&#45;&gt;Node6 -->
<g id="edge5_Node000005_Node000006" class="edge">
<title>Node5&#45;&gt;Node6</title>
<g id="a_edge5_Node000005_Node000006"><a xlink:title=" ">
<path fill="none" stroke="#63b8ff" d="M244.22,-55.83C242.59,-47.17 240.82,-37.7 239.41,-30.16"/>
<polygon fill="#63b8ff" stroke="#63b8ff" points="240.8,-56.61 246.09,-65.8 247.68,-55.32 240.8,-56.61"/>
</a>
</g>
</g>
<!-- Node7 -->
<g id="Node000007" class="node">
<title>Node7</title>
<g id="a_Node000007"><a xlink:href="../../df/d02/postgres_8hpp.html" target="_top" xlink:title=" ">
<polygon fill="white" stroke="#666666" points="457.25,-30 314.25,-30 314.25,0 457.25,0 457.25,-30"/>
<text text-anchor="start" x="322.25" y="-18" font-family="Helvetica,sans-Serif" font-size="10.00">userver/storages/postgres</text>
<text text-anchor="middle" x="385.75" y="-7" font-family="Helvetica,sans-Serif" font-size="10.00">/postgres.hpp</text>
</a>
</g>
</g>
<!-- Node5&#45;&gt;Node7 -->
<g id="edge6_Node000005_Node000007" class="edge">
<title>Node5&#45;&gt;Node7</title>
<g id="a_edge6_Node000005_Node000007"><a xlink:title=" ">
<path fill="none" stroke="#63b8ff" d="M288.03,-61.65C309.58,-51.58 335.87,-39.3 355.76,-30.01"/>
<polygon fill="#63b8ff" stroke="#63b8ff" points="286.39,-58.55 278.82,-65.95 289.36,-64.89 286.39,-58.55"/>
</a>
</g>
</g>
<!-- Node8&#45;&gt;Node4 -->
<g id="edge8_Node000008_Node000004" class="edge">
<title>Node8&#45;&gt;Node4</title>
<g id="a_edge8_Node000008_Node000004"><a xlink:title=" ">
<path fill="none" stroke="#63b8ff" d="M98.68,-188.68C102.85,-179.79 107.46,-169.95 111.11,-162.16"/>
<polygon fill="#63b8ff" stroke="#63b8ff" points="95.48,-187.26 94.41,-197.8 101.82,-190.23 95.48,-187.26"/>
</a>
</g>
</g>
<!-- Node8&#45;&gt;Node9 -->
<g id="edge9_Node000008_Node000009" class="edge">
<title>Node8&#45;&gt;Node9</title>
<g id="a_edge9_Node000008_Node000009"><a xlink:title=" ">
<path fill="none" stroke="#63b8ff" d="M156.5,-195.58C200,-185.19 255.65,-171.9 297.07,-162.01"/>
<polygon fill="#63b8ff" stroke="#63b8ff" points="155.48,-192.23 146.56,-197.95 157.1,-199.04 155.48,-192.23"/>
</a>
</g>
</g>
<!-- Node9&#45;&gt;Node5 -->
<g id="edge10_Node000009_Node000005" class="edge">
<title>Node9&#45;&gt;Node5</title>
<g id="a_edge10_Node000009_Node000005"><a xlink:title=" ">
<path fill="none" stroke="#63b8ff" d="M323.47,-126.69C306.96,-116.82 287.22,-105.01 272.18,-96.01"/>
<polygon fill="#63b8ff" stroke="#63b8ff" points="321.89,-129.83 332.27,-131.95 325.48,-123.82 321.89,-129.83"/>
</a>
</g>
</g>
<!-- Node9&#45;&gt;Node7 -->
<g id="edge11_Node000009_Node000007" class="edge">
<title>Node9&#45;&gt;Node7</title>
<g id="a_edge11_Node000009_Node000007"><a xlink:title=" ">
<path fill="none" stroke="#63b8ff" d="M361.28,-122.04C367.5,-95.08 377.39,-52.21 382.49,-30.14"/>
<polygon fill="#63b8ff" stroke="#63b8ff" points="357.86,-121.31 359.02,-131.84 364.68,-122.88 357.86,-121.31"/>
</a>
</g>
</g>
<!-- Node10&#45;&gt;Node9 -->
<g id="edge13_Node000010_Node000009" class="edge">
<title>Node10&#45;&gt;Node9</title>
<g id="a_edge13_Node000010_Node000009"><a xlink:title=" ">
<path fill="none" stroke="#63b8ff" d="M419.73,-192.03C405.66,-182.34 389.08,-170.94 376.33,-162.16"/>
<polygon fill="#63b8ff" stroke="#63b8ff" points="417.89,-195.01 428.11,-197.8 421.86,-189.24 417.89,-195.01"/>
</a>
</g>
</g>
<!-- Node11&#45;&gt;Node5 -->
<g id="edge15_Node000011_Node000005" class="edge">
<title>Node11&#45;&gt;Node5</title>
<g id="a_edge15_Node000011_Node000005"><a xlink:title=" ">
<path fill="none" stroke="#63b8ff" d="M248.75,-187.68C248.75,-160.7 248.75,-118.11 248.75,-96.14"/>
<polygon fill="#63b8ff" stroke="#63b8ff" points="245.25,-187.84 248.75,-197.84 252.25,-187.84 245.25,-187.84"/>
</a>
</g>
</g>
<!-- Node12&#45;&gt;Node4 -->
<g id="edge18_Node000012_Node000004" class="edge">
<title>Node12&#45;&gt;Node4</title>
<g id="a_edge18_Node000012_Node000004"><a xlink:title=" ">
<path fill="none" stroke="#63b8ff" d="M576.53,-254.88C567,-236.24 550.9,-211.05 528.75,-198 514.47,-189.59 307.29,-167.33 192.68,-155.55"/>
<polygon fill="#63b8ff" stroke="#63b8ff" points="573.41,-256.46 580.92,-263.93 579.71,-253.41 573.41,-256.46"/>
</a>
</g>
</g>
<!-- Node12&#45;&gt;Node7 -->
<g id="edge23_Node000012_Node000007" class="edge">
<title>Node12&#45;&gt;Node7</title>
<g id="a_edge23_Node000012_Node000007"><a xlink:title=" ">
<path fill="none" stroke="#63b8ff" d="M591.29,-254.05C593.28,-237.56 593.65,-215.56 585.75,-198 549.27,-116.86 457.21,-56.12 411.84,-30.04"/>
<polygon fill="#63b8ff" stroke="#63b8ff" points="587.82,-253.57 589.82,-263.98 594.75,-254.6 587.82,-253.57"/>
</a>
</g>
</g>
<!-- Node12&#45;&gt;Node9 -->
<g id="edge25_Node000012_Node000009" class="edge">
<title>Node12&#45;&gt;Node9</title>
<g id="a_edge25_Node000012_Node000009"><a xlink:title=" ">
<path fill="none" stroke="#63b8ff" d="M585.73,-253.99C583.67,-236.13 577.99,-212.43 562.75,-198 543.25,-179.54 479.24,-165.93 427.51,-157.61"/>
<polygon fill="#63b8ff" stroke="#63b8ff" points="582.24,-254.31 586.58,-263.97 589.22,-253.71 582.24,-254.31"/>
</a>
</g>
</g>
<!-- Node12&#45;&gt;Node10 -->
<g id="edge22_Node000012_Node000010" class="edge">
<title>Node12&#45;&gt;Node10</title>
<g id="a_edge22_Node000012_Node000010"><a xlink:title=" ">
<path fill="none" stroke="#63b8ff" d="M547.18,-259.65C525.48,-249.58 498.99,-237.3 478.96,-228.01"/>
<polygon fill="#63b8ff" stroke="#63b8ff" points="545.92,-262.92 556.47,-263.95 548.87,-256.57 545.92,-262.92"/>
</a>
</g>
</g>
<!-- Node12&#45;&gt;Node11 -->
<g id="edge24_Node000012_Node000011" class="edge">
<title>Node12&#45;&gt;Node11</title>
<g id="a_edge24_Node000012_Node000011"><a xlink:title=" ">
<path fill="none" stroke="#63b8ff" d="M505.11,-262.54C448.71,-251.86 374.41,-237.79 320.33,-227.55"/>
<polygon fill="#63b8ff" stroke="#63b8ff" points="504.59,-266.01 515.07,-264.43 505.89,-259.13 504.59,-266.01"/>
</a>
</g>
</g>
<!-- Node13 -->
<g id="Node000013" class="node">
<title>Node13</title>
<g id="a_Node000013"><a xlink:href="../../d7/d52/typed__rows_8hpp_source.html" target="_top" xlink:title=" ">
<polygon fill="white" stroke="#666666" points="852.25,-228 709.25,-228 709.25,-198 852.25,-198 852.25,-228"/>
<text text-anchor="start" x="717.25" y="-216" font-family="Helvetica,sans-Serif" font-size="10.00">userver/storages/postgres</text>
<text text-anchor="middle" x="780.75" y="-205" font-family="Helvetica,sans-Serif" font-size="10.00">/detail/typed_rows.hpp</text>
</a>
</g>
</g>
<!-- Node12&#45;&gt;Node13 -->
<g id="edge19_Node000012_Node000013" class="edge">
<title>Node12&#45;&gt;Node13</title>
<g id="a_edge19_Node000012_Node000013"><a xlink:title=" ">
<path fill="none" stroke="#63b8ff" d="M639.12,-260.72C670.21,-250.47 709.11,-237.63 738.28,-228.01"/>
<polygon fill="#63b8ff" stroke="#63b8ff" points="637.72,-257.5 629.32,-263.95 639.92,-264.15 637.72,-257.5"/>
</a>
</g>
</g>
<!-- Node14 -->
<g id="Node000014" class="node">
<title>Node14</title>
<g id="a_Node000014"><a xlink:href="../../d1/dee/typed__result__set_8hpp.html" target="_top" xlink:title="Typed PostgreSQL results.">
<polygon fill="white" stroke="#666666" points="796.25,-162 653.25,-162 653.25,-132 796.25,-132 796.25,-162"/>
<text text-anchor="start" x="661.25" y="-150" font-family="Helvetica,sans-Serif" font-size="10.00">userver/storages/postgres</text>
<text text-anchor="middle" x="724.75" y="-139" font-family="Helvetica,sans-Serif" font-size="10.00">/typed_result_set.hpp</text>
</a>
</g>
</g>
<!-- Node12&#45;&gt;Node14 -->
<g id="edge26_Node000012_Node000014" class="edge">
<title>Node12&#45;&gt;Node14</title>
<g id="a_edge26_Node000012_Node000014"><a xlink:title=" ">
<path fill="none" stroke="#63b8ff" d="M604.41,-256.49C630.45,-229.76 678.34,-184.89 705.34,-162.14"/>
<polygon fill="#63b8ff" stroke="#63b8ff" points="601.77,-254.2 597.38,-263.84 606.82,-259.04 601.77,-254.2"/>
</a>
</g>
</g>
<!-- Node13&#45;&gt;Node14 -->
<g id="edge20_Node000013_Node000014" class="edge">
<title>Node13&#45;&gt;Node14</title>
<g id="a_edge20_Node000013_Node000014"><a xlink:title=" ">
<path fill="none" stroke="#63b8ff" d="M761.58,-190.09C753.49,-180.85 744.31,-170.36 737.14,-162.16"/>
<polygon fill="#63b8ff" stroke="#63b8ff" points="759.1,-192.58 768.32,-197.8 764.37,-187.97 759.1,-192.58"/>
</a>
</g>
</g>
<!-- Node14&#45;&gt;Node12 -->
<g id="edge21_Node000014_Node000012" class="edge">
<title>Node14&#45;&gt;Node12</title>
<g id="a_edge21_Node000014_Node000012"><a xlink:title=" ">
<path fill="none" stroke="#63b8ff" d="M707.11,-169.49C681.08,-196.21 633.19,-241.08 606.18,-263.84"/>
<polygon fill="#63b8ff" stroke="#63b8ff" points="709.75,-171.79 714.14,-162.14 704.69,-166.95 709.75,-171.79"/>
</a>
</g>
</g>
</g>
</svg>
