<?xml version="1.0" encoding="UTF-8" standalone="no"?>
<!DOCTYPE svg PUBLIC "-//W3C//DTD SVG 1.1//EN"
 "http://www.w3.org/Graphics/SVG/1.1/DTD/svg11.dtd">
<!-- Generated by graphviz version 2.43.0 (0)
 -->
<!-- Title: userver/utils/sliding_interval.hpp Pages: 1 -->
<svg width="1235pt" height="445pt"
 viewBox="0.00 0.00 1234.59 445.00" xmlns="http://www.w3.org/2000/svg" xmlns:xlink="http://www.w3.org/1999/xlink">
<g id="graph0" class="graph" transform="scale(1 1) rotate(0) translate(4 441)">
<title>userver/utils/sliding_interval.hpp</title>
<!-- Node1 -->
<g id="Node000001" class="node">
<title>Node1</title>
<g id="a_Node000001"><a xlink:title="Sliding interval of values that provides functions to compute average, min and max values from the la...">
<polygon fill="#999999" stroke="#666666" points="890.5,-437 777.5,-437 777.5,-407 890.5,-407 890.5,-437"/>
<text text-anchor="start" x="785.5" y="-425" font-family="Helvetica,sans-Serif" font-size="10.00">userver/utils/sliding</text>
<text text-anchor="middle" x="834" y="-414" font-family="Helvetica,sans-Serif" font-size="10.00">_interval.hpp</text>
</a>
</g>
</g>
<!-- Node2 -->
<g id="Node000002" class="node">
<title>Node2</title>
<g id="a_Node000002"><a xlink:href="../../d9/d28/linear_8hpp_source.html" target="_top" xlink:title=" ">
<polygon fill="white" stroke="#666666" points="889,-371 779,-371 779,-330 889,-330 889,-371"/>
<text text-anchor="start" x="787" y="-359" font-family="Helvetica,sans-Serif" font-size="10.00">userver/congestion</text>
<text text-anchor="start" x="787" y="-348" font-family="Helvetica,sans-Serif" font-size="10.00">_control/controllers</text>
<text text-anchor="middle" x="834" y="-337" font-family="Helvetica,sans-Serif" font-size="10.00">/linear.hpp</text>
</a>
</g>
</g>
<!-- Node1&#45;&gt;Node2 -->
<g id="edge1_Node000001_Node000002" class="edge">
<title>Node1&#45;&gt;Node2</title>
<g id="a_edge1_Node000001_Node000002"><a xlink:title=" ">
<path fill="none" stroke="#63b8ff" d="M834,-396.91C834,-388.47 834,-379.1 834,-371.07"/>
<polygon fill="#63b8ff" stroke="#63b8ff" points="830.5,-396.94 834,-406.94 837.5,-396.94 830.5,-396.94"/>
</a>
</g>
</g>
<!-- Node3 -->
<g id="Node000003" class="node">
<title>Node3</title>
<g id="a_Node000003"><a xlink:href="../../d8/d6c/pool__config_8hpp.html" target="_top" xlink:title="MongoDB connection pool configuration.">
<polygon fill="white" stroke="#666666" points="501.5,-294 366.5,-294 366.5,-264 501.5,-264 501.5,-294"/>
<text text-anchor="start" x="374.5" y="-282" font-family="Helvetica,sans-Serif" font-size="10.00">userver/storages/mongo</text>
<text text-anchor="middle" x="434" y="-271" font-family="Helvetica,sans-Serif" font-size="10.00">/pool_config.hpp</text>
</a>
</g>
</g>
<!-- Node2&#45;&gt;Node3 -->
<g id="edge2_Node000002_Node000003" class="edge">
<title>Node2&#45;&gt;Node3</title>
<g id="a_edge2_Node000002_Node000003"><a xlink:title=" ">
<path fill="none" stroke="#63b8ff" d="M768.73,-338.16C695.18,-325.38 576.17,-304.7 501.65,-291.75"/>
<polygon fill="#63b8ff" stroke="#63b8ff" points="768.35,-341.65 778.8,-339.91 769.55,-334.75 768.35,-341.65"/>
</a>
</g>
</g>
<!-- Node10 -->
<g id="Node000010" class="node">
<title>Node10</title>
<g id="a_Node000010"><a xlink:href="../../d7/d18/postgresql_2include_2userver_2storages_2postgres_2options_8hpp.html" target="_top" xlink:title="Options.">
<polygon fill="white" stroke="#666666" points="905.5,-294 762.5,-294 762.5,-264 905.5,-264 905.5,-294"/>
<text text-anchor="start" x="770.5" y="-282" font-family="Helvetica,sans-Serif" font-size="10.00">userver/storages/postgres</text>
<text text-anchor="middle" x="834" y="-271" font-family="Helvetica,sans-Serif" font-size="10.00">/options.hpp</text>
</a>
</g>
</g>
<!-- Node2&#45;&gt;Node10 -->
<g id="edge11_Node000002_Node000010" class="edge">
<title>Node2&#45;&gt;Node10</title>
<g id="a_edge11_Node000002_Node000010"><a xlink:title=" ">
<path fill="none" stroke="#63b8ff" d="M834,-319.66C834,-310.76 834,-301.42 834,-294.04"/>
<polygon fill="#63b8ff" stroke="#63b8ff" points="830.5,-319.77 834,-329.77 837.5,-319.77 830.5,-319.77"/>
</a>
</g>
</g>
<!-- Node22 -->
<g id="Node000022" class="node">
<title>Node22</title>
<g id="a_Node000022"><a xlink:href="../../d1/db6/postgresql_2include_2userver_2storages_2postgres_2statistics_8hpp.html" target="_top" xlink:title="Statistics helpers.">
<polygon fill="white" stroke="#666666" points="1185.5,-294 1042.5,-294 1042.5,-264 1185.5,-264 1185.5,-294"/>
<text text-anchor="start" x="1050.5" y="-282" font-family="Helvetica,sans-Serif" font-size="10.00">userver/storages/postgres</text>
<text text-anchor="middle" x="1114" y="-271" font-family="Helvetica,sans-Serif" font-size="10.00">/statistics.hpp</text>
</a>
</g>
</g>
<!-- Node2&#45;&gt;Node22 -->
<g id="edge31_Node000002_Node000022" class="edge">
<title>Node2&#45;&gt;Node22</title>
<g id="a_edge31_Node000002_Node000022"><a xlink:title=" ">
<path fill="none" stroke="#63b8ff" d="M899.28,-333.3C947.19,-321.41 1011.61,-305.41 1057.36,-294.06"/>
<polygon fill="#63b8ff" stroke="#63b8ff" points="898.18,-329.96 889.32,-335.77 899.87,-336.76 898.18,-329.96"/>
</a>
</g>
</g>
<!-- Node4 -->
<g id="Node000004" class="node">
<title>Node4</title>
<g id="a_Node000004"><a xlink:href="../../d2/de5/multi__mongo_8hpp_source.html" target="_top" xlink:title=" ">
<polygon fill="white" stroke="#666666" points="501.5,-162 366.5,-162 366.5,-132 501.5,-132 501.5,-162"/>
<text text-anchor="start" x="374.5" y="-150" font-family="Helvetica,sans-Serif" font-size="10.00">userver/storages/mongo</text>
<text text-anchor="middle" x="434" y="-139" font-family="Helvetica,sans-Serif" font-size="10.00">/multi_mongo.hpp</text>
</a>
</g>
</g>
<!-- Node3&#45;&gt;Node4 -->
<g id="edge3_Node000003_Node000004" class="edge">
<title>Node3&#45;&gt;Node4</title>
<g id="a_edge3_Node000003_Node000004"><a xlink:title=" ">
<path fill="none" stroke="#63b8ff" d="M434,-253.68C434,-226.7 434,-184.11 434,-162.14"/>
<polygon fill="#63b8ff" stroke="#63b8ff" points="430.5,-253.84 434,-263.84 437.5,-253.84 430.5,-253.84"/>
</a>
</g>
</g>
<!-- Node6 -->
<g id="Node000006" class="node">
<title>Node6</title>
<g id="a_Node000006"><a xlink:href="../../d3/dc1/pool_8hpp.html" target="_top" xlink:title="MongoDB client pool.">
<polygon fill="white" stroke="#666666" points="405.5,-228 270.5,-228 270.5,-198 405.5,-198 405.5,-228"/>
<text text-anchor="start" x="278.5" y="-216" font-family="Helvetica,sans-Serif" font-size="10.00">userver/storages/mongo</text>
<text text-anchor="middle" x="338" y="-205" font-family="Helvetica,sans-Serif" font-size="10.00">/pool.hpp</text>
</a>
</g>
</g>
<!-- Node3&#45;&gt;Node6 -->
<g id="edge5_Node000003_Node000006" class="edge">
<title>Node3&#45;&gt;Node6</title>
<g id="a_edge5_Node000003_Node000006"><a xlink:title=" ">
<path fill="none" stroke="#63b8ff" d="M404.04,-258.03C389.51,-248.34 372.41,-236.94 359.25,-228.16"/>
<polygon fill="#63b8ff" stroke="#63b8ff" points="402.43,-261.16 412.69,-263.8 406.32,-255.34 402.43,-261.16"/>
</a>
</g>
</g>
<!-- Node5 -->
<g id="Node000005" class="node">
<title>Node5</title>
<g id="a_Node000005"><a xlink:href="../../d1/dd7/mongo_2include_2userver_2storages_2mongo_2component_8hpp.html" target="_top" xlink:title="MongoDB client component.">
<polygon fill="white" stroke="#666666" points="483.5,-96 348.5,-96 348.5,-66 483.5,-66 483.5,-96"/>
<text text-anchor="start" x="356.5" y="-84" font-family="Helvetica,sans-Serif" font-size="10.00">userver/storages/mongo</text>
<text text-anchor="middle" x="416" y="-73" font-family="Helvetica,sans-Serif" font-size="10.00">/component.hpp</text>
</a>
</g>
</g>
<!-- Node4&#45;&gt;Node5 -->
<g id="edge4_Node000004_Node000005" class="edge">
<title>Node4&#45;&gt;Node5</title>
<g id="a_edge4_Node000004_Node000005"><a xlink:title=" ">
<path fill="none" stroke="#63b8ff" d="M427.28,-122.11C424.82,-113.38 422.13,-103.78 419.98,-96.16"/>
<polygon fill="#63b8ff" stroke="#63b8ff" points="423.93,-123.12 430.01,-131.8 430.67,-121.22 423.93,-123.12"/>
</a>
</g>
</g>
<!-- Node6&#45;&gt;Node4 -->
<g id="edge8_Node000006_Node000004" class="edge">
<title>Node6&#45;&gt;Node4</title>
<g id="a_edge8_Node000006_Node000004"><a xlink:title=" ">
<path fill="none" stroke="#63b8ff" d="M367.96,-192.03C382.49,-182.34 399.59,-170.94 412.75,-162.16"/>
<polygon fill="#63b8ff" stroke="#63b8ff" points="365.68,-189.34 359.31,-197.8 369.57,-195.16 365.68,-189.34"/>
</a>
</g>
</g>
<!-- Node6&#45;&gt;Node5 -->
<g id="edge7_Node000006_Node000005" class="edge">
<title>Node6&#45;&gt;Node5</title>
<g id="a_edge7_Node000006_Node000005"><a xlink:title=" ">
<path fill="none" stroke="#63b8ff" d="M339.75,-187.9C341.88,-171.19 346.59,-148.97 357,-132 365.99,-117.35 380.74,-104.85 393.24,-96.01"/>
<polygon fill="#63b8ff" stroke="#63b8ff" points="336.26,-187.67 338.69,-197.98 343.22,-188.4 336.26,-187.67"/>
</a>
</g>
</g>
<!-- Node7 -->
<g id="Node000007" class="node">
<title>Node7</title>
<g id="a_Node000007"><a xlink:href="../../d2/d86/mongo_8hpp.html" target="_top" xlink:title="Include&#45;all header for MongoDB client.">
<polygon fill="white" stroke="#666666" points="156,-156.5 0,-156.5 0,-137.5 156,-137.5 156,-156.5"/>
<text text-anchor="middle" x="78" y="-144.5" font-family="Helvetica,sans-Serif" font-size="10.00">userver/storages/mongo.hpp</text>
</a>
</g>
</g>
<!-- Node6&#45;&gt;Node7 -->
<g id="edge6_Node000006_Node000007" class="edge">
<title>Node6&#45;&gt;Node7</title>
<g id="a_edge6_Node000006_Node000007"><a xlink:title=" ">
<path fill="none" stroke="#63b8ff" d="M271.05,-195.52C220.4,-183.05 152.9,-166.44 112.6,-156.52"/>
<polygon fill="#63b8ff" stroke="#63b8ff" points="270.4,-198.96 280.94,-197.95 272.07,-192.17 270.4,-198.96"/>
</a>
</g>
</g>
<!-- Node8 -->
<g id="Node000008" class="node">
<title>Node8</title>
<g id="a_Node000008"><a xlink:href="../../d7/d49/mongo__local_8hpp.html" target="_top" xlink:title=" ">
<polygon fill="white" stroke="#666666" points="309.5,-162 174.5,-162 174.5,-132 309.5,-132 309.5,-162"/>
<text text-anchor="start" x="182.5" y="-150" font-family="Helvetica,sans-Serif" font-size="10.00">userver/storages/mongo</text>
<text text-anchor="middle" x="242" y="-139" font-family="Helvetica,sans-Serif" font-size="10.00">/utest/mongo_local.hpp</text>
</a>
</g>
</g>
<!-- Node6&#45;&gt;Node8 -->
<g id="edge9_Node000006_Node000008" class="edge">
<title>Node6&#45;&gt;Node8</title>
<g id="a_edge9_Node000006_Node000008"><a xlink:title=" ">
<path fill="none" stroke="#63b8ff" d="M308.04,-192.03C293.51,-182.34 276.41,-170.94 263.25,-162.16"/>
<polygon fill="#63b8ff" stroke="#63b8ff" points="306.43,-195.16 316.69,-197.8 310.32,-189.34 306.43,-195.16"/>
</a>
</g>
</g>
<!-- Node9 -->
<g id="Node000009" class="node">
<title>Node9</title>
<g id="a_Node000009"><a xlink:href="../../d0/d79/mongo__fixture_8hpp.html" target="_top" xlink:title=" ">
<polygon fill="white" stroke="#666666" points="311.5,-96 172.5,-96 172.5,-66 311.5,-66 311.5,-96"/>
<text text-anchor="start" x="180.5" y="-84" font-family="Helvetica,sans-Serif" font-size="10.00">userver/storages/mongo</text>
<text text-anchor="middle" x="242" y="-73" font-family="Helvetica,sans-Serif" font-size="10.00">/utest/mongo_fixture.hpp</text>
</a>
</g>
</g>
<!-- Node8&#45;&gt;Node9 -->
<g id="edge10_Node000008_Node000009" class="edge">
<title>Node8&#45;&gt;Node9</title>
<g id="a_edge10_Node000008_Node000009"><a xlink:title=" ">
<path fill="none" stroke="#63b8ff" d="M242,-121.54C242,-112.96 242,-103.61 242,-96.16"/>
<polygon fill="#63b8ff" stroke="#63b8ff" points="238.5,-121.8 242,-131.8 245.5,-121.8 238.5,-121.8"/>
</a>
</g>
</g>
<!-- Node11 -->
<g id="Node000011" class="node">
<title>Node11</title>
<g id="a_Node000011"><a xlink:href="../../de/dd3/postgresql_2include_2userver_2storages_2postgres_2cluster_8hpp.html" target="_top" xlink:title="Interface for executing queries on a cluster of PostgreSQL servers.">
<polygon fill="white" stroke="#666666" points="1143.5,-96 1000.5,-96 1000.5,-66 1143.5,-66 1143.5,-96"/>
<text text-anchor="start" x="1008.5" y="-84" font-family="Helvetica,sans-Serif" font-size="10.00">userver/storages/postgres</text>
<text text-anchor="middle" x="1072" y="-73" font-family="Helvetica,sans-Serif" font-size="10.00">/cluster.hpp</text>
</a>
</g>
</g>
<!-- Node10&#45;&gt;Node11 -->
<g id="edge12_Node000010_Node000011" class="edge">
<title>Node10&#45;&gt;Node11</title>
<g id="a_edge12_Node000010_Node000011"><a xlink:title=" ">
<path fill="none" stroke="#63b8ff" d="M916.09,-271.58C1011.82,-263.24 1159.2,-247.44 1176,-228 1215.18,-182.68 1136.63,-122.96 1095.25,-96.13"/>
<polygon fill="#63b8ff" stroke="#63b8ff" points="915.5,-268.12 905.84,-272.46 916.1,-275.09 915.5,-268.12"/>
</a>
</g>
</g>
<!-- Node14 -->
<g id="Node000014" class="node">
<title>Node14</title>
<g id="a_Node000014"><a xlink:href="../../df/da2/database_8hpp.html" target="_top" xlink:title="Object for accessing PostgreSQL database instance (sharded or not)">
<polygon fill="white" stroke="#666666" points="1016.5,-162 873.5,-162 873.5,-132 1016.5,-132 1016.5,-162"/>
<text text-anchor="start" x="881.5" y="-150" font-family="Helvetica,sans-Serif" font-size="10.00">userver/storages/postgres</text>
<text text-anchor="middle" x="945" y="-139" font-family="Helvetica,sans-Serif" font-size="10.00">/database.hpp</text>
</a>
</g>
</g>
<!-- Node10&#45;&gt;Node14 -->
<g id="edge15_Node000010_Node000014" class="edge">
<title>Node10&#45;&gt;Node14</title>
<g id="a_edge15_Node000010_Node000014"><a xlink:title=" ">
<path fill="none" stroke="#63b8ff" d="M835.05,-253.49C836.91,-236.4 841.74,-213.91 854,-198 866.55,-181.72 885.96,-170.03 903.64,-162.06"/>
<polygon fill="#63b8ff" stroke="#63b8ff" points="831.53,-253.56 834.21,-263.81 838.51,-254.13 831.53,-253.56"/>
</a>
</g>
</g>
<!-- Node16 -->
<g id="Node000016" class="node">
<title>Node16</title>
<g id="a_Node000016"><a xlink:href="../../d9/d02/postgresql_2include_2userver_2storages_2postgres_2dist__lock__strategy_8hpp.html" target="_top" xlink:title="Postgres distributed locking strategy.">
<polygon fill="white" stroke="#666666" points="805.5,-228 662.5,-228 662.5,-198 805.5,-198 805.5,-228"/>
<text text-anchor="start" x="670.5" y="-216" font-family="Helvetica,sans-Serif" font-size="10.00">userver/storages/postgres</text>
<text text-anchor="middle" x="734" y="-205" font-family="Helvetica,sans-Serif" font-size="10.00">/dist_lock_strategy.hpp</text>
</a>
</g>
</g>
<!-- Node10&#45;&gt;Node16 -->
<g id="edge20_Node000010_Node000016" class="edge">
<title>Node10&#45;&gt;Node16</title>
<g id="a_edge20_Node000010_Node000016"><a xlink:title=" ">
<path fill="none" stroke="#63b8ff" d="M803.22,-258.3C788,-248.56 769.97,-237.02 756.13,-228.16"/>
<polygon fill="#63b8ff" stroke="#63b8ff" points="801.5,-261.35 811.81,-263.8 805.27,-255.46 801.5,-261.35"/>
</a>
</g>
</g>
<!-- Node18 -->
<g id="Node000018" class="node">
<title>Node18</title>
<g id="a_Node000018"><a xlink:href="../../d3/db6/notify_8hpp.html" target="_top" xlink:title="Asynchronous notifications.">
<polygon fill="white" stroke="#666666" points="1005.5,-228 862.5,-228 862.5,-198 1005.5,-198 1005.5,-228"/>
<text text-anchor="start" x="870.5" y="-216" font-family="Helvetica,sans-Serif" font-size="10.00">userver/storages/postgres</text>
<text text-anchor="middle" x="934" y="-205" font-family="Helvetica,sans-Serif" font-size="10.00">/notify.hpp</text>
</a>
</g>
</g>
<!-- Node10&#45;&gt;Node18 -->
<g id="edge22_Node000010_Node000018" class="edge">
<title>Node10&#45;&gt;Node18</title>
<g id="a_edge22_Node000010_Node000018"><a xlink:title=" ">
<path fill="none" stroke="#63b8ff" d="M864.78,-258.3C880,-248.56 898.03,-237.02 911.87,-228.16"/>
<polygon fill="#63b8ff" stroke="#63b8ff" points="862.73,-255.46 856.19,-263.8 866.5,-261.35 862.73,-255.46"/>
</a>
</g>
</g>
<!-- Node19 -->
<g id="Node000019" class="node">
<title>Node19</title>
<g id="a_Node000019"><a xlink:href="../../d2/de3/portal_8hpp_source.html" target="_top" xlink:title=" ">
<polygon fill="white" stroke="#666666" points="605.5,-228 462.5,-228 462.5,-198 605.5,-198 605.5,-228"/>
<text text-anchor="start" x="470.5" y="-216" font-family="Helvetica,sans-Serif" font-size="10.00">userver/storages/postgres</text>
<text text-anchor="middle" x="534" y="-205" font-family="Helvetica,sans-Serif" font-size="10.00">/portal.hpp</text>
</a>
</g>
</g>
<!-- Node10&#45;&gt;Node19 -->
<g id="edge24_Node000010_Node000019" class="edge">
<title>Node10&#45;&gt;Node19</title>
<g id="a_edge24_Node000010_Node000019"><a xlink:title=" ">
<path fill="none" stroke="#63b8ff" d="M758.27,-261.84C709.39,-251.42 646.44,-237.99 599.68,-228.01"/>
<polygon fill="#63b8ff" stroke="#63b8ff" points="757.65,-265.29 768.16,-263.95 759.11,-258.45 757.65,-265.29"/>
</a>
</g>
</g>
<!-- Node20 -->
<g id="Node000020" class="node">
<title>Node20</title>
<g id="a_Node000020"><a xlink:href="../../da/deb/postgresql_2include_2userver_2storages_2postgres_2transaction_8hpp.html" target="_top" xlink:title="Transactions.">
<polygon fill="white" stroke="#666666" points="664.5,-162 521.5,-162 521.5,-132 664.5,-132 664.5,-162"/>
<text text-anchor="start" x="529.5" y="-150" font-family="Helvetica,sans-Serif" font-size="10.00">userver/storages/postgres</text>
<text text-anchor="middle" x="593" y="-139" font-family="Helvetica,sans-Serif" font-size="10.00">/transaction.hpp</text>
</a>
</g>
</g>
<!-- Node10&#45;&gt;Node20 -->
<g id="edge30_Node000010_Node000020" class="edge">
<title>Node10&#45;&gt;Node20</title>
<g id="a_edge30_Node000010_Node000020"><a xlink:title=" ">
<path fill="none" stroke="#63b8ff" d="M752.31,-267.23C719.36,-260 682.29,-247.97 653,-228 628.04,-210.98 609.29,-180.14 599.84,-162.13"/>
<polygon fill="#63b8ff" stroke="#63b8ff" points="751.89,-270.71 762.39,-269.32 753.31,-263.86 751.89,-270.71"/>
</a>
</g>
</g>
<!-- Node21 -->
<g id="Node000021" class="node">
<title>Node21</title>
<g id="a_Node000021"><a xlink:href="../../d8/d63/query__queue_8hpp.html" target="_top" xlink:title="An utility to execute multiple queries in a single network round&#45;trip.">
<polygon fill="white" stroke="#666666" points="1166.5,-228 1023.5,-228 1023.5,-198 1166.5,-198 1166.5,-228"/>
<text text-anchor="start" x="1031.5" y="-216" font-family="Helvetica,sans-Serif" font-size="10.00">userver/storages/postgres</text>
<text text-anchor="middle" x="1095" y="-205" font-family="Helvetica,sans-Serif" font-size="10.00">/query_queue.hpp</text>
</a>
</g>
</g>
<!-- Node10&#45;&gt;Node21 -->
<g id="edge28_Node000010_Node000021" class="edge">
<title>Node10&#45;&gt;Node21</title>
<g id="a_edge28_Node000010_Node000021"><a xlink:title=" ">
<path fill="none" stroke="#63b8ff" d="M901.22,-261.52C943.55,-251.14 997.6,-237.88 1037.86,-228.01"/>
<polygon fill="#63b8ff" stroke="#63b8ff" points="900.16,-258.17 891.28,-263.95 901.82,-264.97 900.16,-258.17"/>
</a>
</g>
</g>
<!-- Node12 -->
<g id="Node000012" class="node">
<title>Node12</title>
<g id="a_Node000012"><a xlink:href="../../dc/df7/base__postgres__cache_8hpp.html" target="_top" xlink:title="Caching component for PostgreSQL. See Caching Component for PostgreSQL.">
<polygon fill="white" stroke="#666666" points="1125.5,-30 1006.5,-30 1006.5,0 1125.5,0 1125.5,-30"/>
<text text-anchor="start" x="1014.5" y="-18" font-family="Helvetica,sans-Serif" font-size="10.00">userver/cache/base</text>
<text text-anchor="middle" x="1066" y="-7" font-family="Helvetica,sans-Serif" font-size="10.00">_postgres_cache.hpp</text>
</a>
</g>
</g>
<!-- Node11&#45;&gt;Node12 -->
<g id="edge13_Node000011_Node000012" class="edge">
<title>Node11&#45;&gt;Node12</title>
<g id="a_edge13_Node000011_Node000012"><a xlink:title=" ">
<path fill="none" stroke="#63b8ff" d="M1069.73,-55.83C1068.92,-47.17 1068.03,-37.7 1067.33,-30.16"/>
<polygon fill="#63b8ff" stroke="#63b8ff" points="1066.25,-56.17 1070.67,-65.8 1073.22,-55.51 1066.25,-56.17"/>
</a>
</g>
</g>
<!-- Node13 -->
<g id="Node000013" class="node">
<title>Node13</title>
<g id="a_Node000013"><a xlink:href="../../df/d02/postgres_8hpp.html" target="_top" xlink:title=" ">
<polygon fill="white" stroke="#666666" points="982.5,-30 839.5,-30 839.5,0 982.5,0 982.5,-30"/>
<text text-anchor="start" x="847.5" y="-18" font-family="Helvetica,sans-Serif" font-size="10.00">userver/storages/postgres</text>
<text text-anchor="middle" x="911" y="-7" font-family="Helvetica,sans-Serif" font-size="10.00">/postgres.hpp</text>
</a>
</g>
</g>
<!-- Node11&#45;&gt;Node13 -->
<g id="edge14_Node000011_Node000013" class="edge">
<title>Node11&#45;&gt;Node13</title>
<g id="a_edge14_Node000011_Node000013"><a xlink:title=" ">
<path fill="none" stroke="#63b8ff" d="M1027.19,-62.19C1001.63,-52.02 970.03,-39.47 946.25,-30.01"/>
<polygon fill="#63b8ff" stroke="#63b8ff" points="1026.08,-65.51 1036.67,-65.95 1028.67,-59.01 1026.08,-65.51"/>
</a>
</g>
</g>
<!-- Node14&#45;&gt;Node11 -->
<g id="edge16_Node000014_Node000011" class="edge">
<title>Node14&#45;&gt;Node11</title>
<g id="a_edge16_Node000014_Node000011"><a xlink:title=" ">
<path fill="none" stroke="#63b8ff" d="M981.95,-127.38C1001.83,-117.36 1025.93,-105.22 1044.19,-96.01"/>
<polygon fill="#63b8ff" stroke="#63b8ff" points="980.23,-124.33 972.87,-131.95 983.38,-130.58 980.23,-124.33"/>
</a>
</g>
</g>
<!-- Node15 -->
<g id="Node000015" class="node">
<title>Node15</title>
<g id="a_Node000015"><a xlink:href="../../df/d08/postgresql_2include_2userver_2storages_2postgres_2component_8hpp.html" target="_top" xlink:title="PosgreSQL client component.">
<polygon fill="white" stroke="#666666" points="982.5,-96 839.5,-96 839.5,-66 982.5,-66 982.5,-96"/>
<text text-anchor="start" x="847.5" y="-84" font-family="Helvetica,sans-Serif" font-size="10.00">userver/storages/postgres</text>
<text text-anchor="middle" x="911" y="-73" font-family="Helvetica,sans-Serif" font-size="10.00">/component.hpp</text>
</a>
</g>
</g>
<!-- Node14&#45;&gt;Node15 -->
<g id="edge17_Node000014_Node000015" class="edge">
<title>Node14&#45;&gt;Node15</title>
<g id="a_edge17_Node000014_Node000015"><a xlink:title=" ">
<path fill="none" stroke="#63b8ff" d="M932.76,-122.96C928,-114 922.7,-104.03 918.52,-96.16"/>
<polygon fill="#63b8ff" stroke="#63b8ff" points="929.67,-124.61 937.45,-131.8 935.85,-121.32 929.67,-124.61"/>
</a>
</g>
</g>
<!-- Node15&#45;&gt;Node12 -->
<g id="edge18_Node000015_Node000012" class="edge">
<title>Node15&#45;&gt;Node12</title>
<g id="a_edge18_Node000015_Node000012"><a xlink:title=" ">
<path fill="none" stroke="#63b8ff" d="M954.46,-62.05C979.02,-51.91 1009.27,-39.43 1032.06,-30.01"/>
<polygon fill="#63b8ff" stroke="#63b8ff" points="952.92,-58.9 945.02,-65.95 955.59,-65.37 952.92,-58.9"/>
</a>
</g>
</g>
<!-- Node15&#45;&gt;Node13 -->
<g id="edge19_Node000015_Node000013" class="edge">
<title>Node15&#45;&gt;Node13</title>
<g id="a_edge19_Node000015_Node000013"><a xlink:title=" ">
<path fill="none" stroke="#63b8ff" d="M911,-55.54C911,-46.96 911,-37.61 911,-30.16"/>
<polygon fill="#63b8ff" stroke="#63b8ff" points="907.5,-55.8 911,-65.8 914.5,-55.8 907.5,-55.8"/>
</a>
</g>
</g>
<!-- Node17 -->
<g id="Node000017" class="node">
<title>Node17</title>
<g id="a_Node000017"><a xlink:href="../../dc/d89/postgresql_2include_2userver_2storages_2postgres_2dist__lock__component__base_8hpp.html" target="_top" xlink:title="Base class for postgres&#45;based distlock worker components.">
<polygon fill="white" stroke="#666666" points="855.5,-162 682.5,-162 682.5,-132 855.5,-132 855.5,-162"/>
<text text-anchor="start" x="690.5" y="-150" font-family="Helvetica,sans-Serif" font-size="10.00">userver/storages/postgres</text>
<text text-anchor="middle" x="769" y="-139" font-family="Helvetica,sans-Serif" font-size="10.00">/dist_lock_component_base.hpp</text>
</a>
</g>
</g>
<!-- Node16&#45;&gt;Node17 -->
<g id="edge21_Node000016_Node000017" class="edge">
<title>Node16&#45;&gt;Node17</title>
<g id="a_edge21_Node000016_Node000017"><a xlink:title=" ">
<path fill="none" stroke="#63b8ff" d="M746.6,-188.96C751.5,-180 756.95,-170.03 761.25,-162.16"/>
<polygon fill="#63b8ff" stroke="#63b8ff" points="743.5,-187.34 741.77,-197.8 749.64,-190.7 743.5,-187.34"/>
</a>
</g>
</g>
<!-- Node18&#45;&gt;Node11 -->
<g id="edge23_Node000018_Node000011" class="edge">
<title>Node18&#45;&gt;Node11</title>
<g id="a_edge23_Node000018_Node000011"><a xlink:title=" ">
<path fill="none" stroke="#63b8ff" d="M979.43,-193.55C995.44,-185.52 1012.73,-174.95 1026,-162 1045.6,-142.86 1059.54,-113.6 1066.64,-96.27"/>
<polygon fill="#63b8ff" stroke="#63b8ff" points="977.69,-190.5 970.19,-197.98 980.72,-196.81 977.69,-190.5"/>
</a>
</g>
</g>
<!-- Node19&#45;&gt;Node20 -->
<g id="edge25_Node000019_Node000020" class="edge">
<title>Node19&#45;&gt;Node20</title>
<g id="a_edge25_Node000019_Node000020"><a xlink:title=" ">
<path fill="none" stroke="#63b8ff" d="M553.94,-190.37C562.52,-181.06 572.31,-170.44 579.94,-162.16"/>
<polygon fill="#63b8ff" stroke="#63b8ff" points="551.3,-188.07 547.09,-197.8 556.45,-192.82 551.3,-188.07"/>
</a>
</g>
</g>
<!-- Node20&#45;&gt;Node11 -->
<g id="edge26_Node000020_Node000011" class="edge">
<title>Node20&#45;&gt;Node11</title>
<g id="a_edge26_Node000020_Node000011"><a xlink:title=" ">
<path fill="none" stroke="#63b8ff" d="M674.47,-131.99C816.49,-112.06 854.38,-115.81 992,-96 994.65,-95.62 997.35,-95.22 1000.07,-94.8"/>
<polygon fill="#63b8ff" stroke="#63b8ff" points="673.93,-128.54 664.52,-133.41 674.91,-135.47 673.93,-128.54"/>
</a>
</g>
</g>
<!-- Node20&#45;&gt;Node13 -->
<g id="edge27_Node000020_Node000013" class="edge">
<title>Node20&#45;&gt;Node13</title>
<g id="a_edge27_Node000020_Node000013"><a xlink:title=" ">
<path fill="none" stroke="#63b8ff" d="M636.73,-128.12C700.58,-102.02 818.05,-54 876.33,-30.17"/>
<polygon fill="#63b8ff" stroke="#63b8ff" points="635.27,-124.94 627.33,-131.96 637.91,-131.42 635.27,-124.94"/>
</a>
</g>
</g>
<!-- Node21&#45;&gt;Node11 -->
<g id="edge29_Node000021_Node000011" class="edge">
<title>Node21&#45;&gt;Node11</title>
<g id="a_edge29_Node000021_Node000011"><a xlink:title=" ">
<path fill="none" stroke="#63b8ff" d="M1090.7,-187.68C1085.92,-160.7 1078.39,-118.11 1074.5,-96.14"/>
<polygon fill="#63b8ff" stroke="#63b8ff" points="1087.31,-188.6 1092.49,-197.84 1094.2,-187.38 1087.31,-188.6"/>
</a>
</g>
</g>
<!-- Node22&#45;&gt;Node11 -->
<g id="edge32_Node000022_Node000011" class="edge">
<title>Node22&#45;&gt;Node11</title>
<g id="a_edge32_Node000022_Node000011"><a xlink:title=" ">
<path fill="none" stroke="#63b8ff" d="M1173.01,-259.32C1187.23,-251.9 1200.7,-241.74 1209,-228 1231.05,-191.47 1233.46,-166.96 1209,-132 1193.91,-110.42 1168.47,-98.13 1143.58,-91.13"/>
<polygon fill="#63b8ff" stroke="#63b8ff" points="1171.12,-256.35 1163.61,-263.82 1174.14,-262.67 1171.12,-256.35"/>
</a>
</g>
</g>
</g>
</svg>
