<?xml version="1.0" encoding="UTF-8" standalone="no"?>
<!DOCTYPE svg PUBLIC "-//W3C//DTD SVG 1.1//EN"
 "http://www.w3.org/Graphics/SVG/1.1/DTD/svg11.dtd">
<!-- Generated by graphviz version 2.43.0 (0)
 -->
<!-- Title: ugrpc::client::OutOfRangeError Pages: 1 -->
<svg width="150pt" height="269pt"
 viewBox="0.00 0.00 150.00 269.00" xmlns="http://www.w3.org/2000/svg" xmlns:xlink="http://www.w3.org/1999/xlink">
<g id="graph0" class="graph" transform="scale(1 1) rotate(0) translate(4 265)">
<title>ugrpc::client::OutOfRangeError</title>
<!-- Node1 -->
<g id="Node000001" class="node">
<title>Node1</title>
<g id="a_Node000001"><a xlink:title=" ">
<polygon fill="#999999" stroke="#666666" points="142,-30 0,-30 0,0 142,0 142,-30"/>
<text text-anchor="start" x="8" y="-18" font-family="Helvetica,sans-Serif" font-size="10.00">ugrpc::client::OutOfRange</text>
<text text-anchor="middle" x="71" y="-7" font-family="Helvetica,sans-Serif" font-size="10.00">Error</text>
</a>
</g>
</g>
<!-- Node2 -->
<g id="Node000002" class="node">
<title>Node2</title>
<g id="a_Node000002"><a xlink:href="../../d4/d7d/classugrpc_1_1client_1_1ErrorWithStatus.html" target="_top" xlink:title="Error with grpc::Status details.">
<polygon fill="white" stroke="#666666" points="135,-96 7,-96 7,-66 135,-66 135,-96"/>
<text text-anchor="start" x="15" y="-84" font-family="Helvetica,sans-Serif" font-size="10.00">ugrpc::client::ErrorWith</text>
<text text-anchor="middle" x="71" y="-73" font-family="Helvetica,sans-Serif" font-size="10.00">Status</text>
</a>
</g>
</g>
<!-- Node2&#45;&gt;Node1 -->
<g id="edge1_Node000001_Node000002" class="edge">
<title>Node2&#45;&gt;Node1</title>
<g id="a_edge1_Node000001_Node000002"><a xlink:title=" ">
<path fill="none" stroke="#63b8ff" d="M71,-55.54C71,-46.96 71,-37.61 71,-30.16"/>
<polygon fill="#63b8ff" stroke="#63b8ff" points="67.5,-55.8 71,-65.8 74.5,-55.8 67.5,-55.8"/>
</a>
</g>
</g>
<!-- Node3 -->
<g id="Node000003" class="node">
<title>Node3</title>
<g id="a_Node000003"><a xlink:href="../../d3/d28/classugrpc_1_1client_1_1RpcError.html" target="_top" xlink:title="Error during an RPC.">
<polygon fill="white" stroke="#666666" points="133,-151 9,-151 9,-132 133,-132 133,-151"/>
<text text-anchor="middle" x="71" y="-139" font-family="Helvetica,sans-Serif" font-size="10.00">ugrpc::client::RpcError</text>
</a>
</g>
</g>
<!-- Node3&#45;&gt;Node2 -->
<g id="edge2_Node000002_Node000003" class="edge">
<title>Node3&#45;&gt;Node2</title>
<g id="a_edge2_Node000002_Node000003"><a xlink:title=" ">
<path fill="none" stroke="#63b8ff" d="M71,-121.65C71,-113.36 71,-103.78 71,-96.11"/>
<polygon fill="#63b8ff" stroke="#63b8ff" points="67.5,-121.87 71,-131.87 74.5,-121.87 67.5,-121.87"/>
</a>
</g>
</g>
<!-- Node4 -->
<g id="Node000004" class="node">
<title>Node4</title>
<g id="a_Node000004"><a xlink:href="../../d3/d25/classugrpc_1_1client_1_1BaseError.html" target="_top" xlink:title="Base exception for all the client errors.">
<polygon fill="white" stroke="#666666" points="136,-206 6,-206 6,-187 136,-187 136,-206"/>
<text text-anchor="middle" x="71" y="-194" font-family="Helvetica,sans-Serif" font-size="10.00">ugrpc::client::BaseError</text>
</a>
</g>
</g>
<!-- Node4&#45;&gt;Node3 -->
<g id="edge3_Node000003_Node000004" class="edge">
<title>Node4&#45;&gt;Node3</title>
<g id="a_edge3_Node000003_Node000004"><a xlink:title=" ">
<path fill="none" stroke="#63b8ff" d="M71,-176.66C71,-167.93 71,-157.99 71,-151.09"/>
<polygon fill="#63b8ff" stroke="#63b8ff" points="67.5,-176.75 71,-186.75 74.5,-176.75 67.5,-176.75"/>
</a>
</g>
</g>
<!-- Node5 -->
<g id="Node000005" class="node">
<title>Node5</title>
<g id="a_Node000005"><a xlink:title=" ">
<polygon fill="white" stroke="#666666" points="114,-261 28,-261 28,-242 114,-242 114,-261"/>
<text text-anchor="middle" x="71" y="-249" font-family="Helvetica,sans-Serif" font-size="10.00">std::exception</text>
</a>
</g>
</g>
<!-- Node5&#45;&gt;Node4 -->
<g id="edge4_Node000004_Node000005" class="edge">
<title>Node5&#45;&gt;Node4</title>
<g id="a_edge4_Node000004_Node000005"><a xlink:title=" ">
<path fill="none" stroke="#63b8ff" d="M71,-231.66C71,-222.93 71,-212.99 71,-206.09"/>
<polygon fill="#63b8ff" stroke="#63b8ff" points="67.5,-231.75 71,-241.75 74.5,-231.75 67.5,-231.75"/>
</a>
</g>
</g>
</g>
</svg>
