<?xml version="1.0" encoding="UTF-8" standalone="no"?>
<!DOCTYPE svg PUBLIC "-//W3C//DTD SVG 1.1//EN"
 "http://www.w3.org/Graphics/SVG/1.1/DTD/svg11.dtd">
<!-- Generated by graphviz version 2.43.0 (0)
 -->
<!-- Title: userver/formats/parse/time_of_day.hpp Pages: 1 -->
<svg width="1135pt" height="291pt"
 viewBox="0.00 0.00 1135.00 291.00" xmlns="http://www.w3.org/2000/svg" xmlns:xlink="http://www.w3.org/1999/xlink">
<g id="graph0" class="graph" transform="scale(1 1) rotate(0) translate(4 287)">
<title>userver/formats/parse/time_of_day.hpp</title>
<!-- Node1 -->
<g id="Node000001" class="node">
<title>Node1</title>
<g id="a_Node000001"><a xlink:title="utils::datetime::TimeOfDay parser for any format">
<polygon fill="#999999" stroke="#666666" points="802.5,-283 677.5,-283 677.5,-253 802.5,-253 802.5,-283"/>
<text text-anchor="start" x="685.5" y="-271" font-family="Helvetica,sans-Serif" font-size="10.00">userver/formats/parse</text>
<text text-anchor="middle" x="740" y="-260" font-family="Helvetica,sans-Serif" font-size="10.00">/time_of_day.hpp</text>
</a>
</g>
</g>
<!-- Node2 -->
<g id="Node000002" class="node">
<title>Node2</title>
<g id="a_Node000002"><a xlink:href="../../d1/d65/universal_2include_2userver_2utils_2time__of__day_8hpp.html" target="_top" xlink:title="A simple implementation of a &quot;time since midnight&quot; datatype.">
<polygon fill="white" stroke="#666666" points="363.5,-217 260.5,-217 260.5,-187 363.5,-187 363.5,-217"/>
<text text-anchor="start" x="268.5" y="-205" font-family="Helvetica,sans-Serif" font-size="10.00">userver/utils/time</text>
<text text-anchor="middle" x="312" y="-194" font-family="Helvetica,sans-Serif" font-size="10.00">_of_day.hpp</text>
</a>
</g>
</g>
<!-- Node1&#45;&gt;Node2 -->
<g id="edge1_Node000001_Node000002" class="edge">
<title>Node1&#45;&gt;Node2</title>
<g id="a_edge1_Node000001_Node000002"><a xlink:title=" ">
<path fill="none" stroke="#63b8ff" d="M677.31,-257.63C595.92,-245.46 454.76,-224.35 373.81,-212.24"/>
<polygon fill="#63b8ff" stroke="#63b8ff" points="374.17,-208.76 363.77,-210.74 373.14,-215.68 374.17,-208.76"/>
</a>
</g>
</g>
<!-- Node12 -->
<g id="Node000012" class="node">
<title>Node12</title>
<g id="a_Node000012"><a xlink:href="../../da/d00/universal_2include_2userver_2formats_2common_2meta_8hpp.html" target="_top" xlink:title="Metaprogramming helpers for converters detection.">
<polygon fill="white" stroke="#666666" points="908,-217 768,-217 768,-187 908,-187 908,-217"/>
<text text-anchor="start" x="776" y="-205" font-family="Helvetica,sans-Serif" font-size="10.00">userver/formats/common</text>
<text text-anchor="middle" x="838" y="-194" font-family="Helvetica,sans-Serif" font-size="10.00">/meta.hpp</text>
</a>
</g>
</g>
<!-- Node1&#45;&gt;Node12 -->
<g id="edge11_Node000001_Node000012" class="edge">
<title>Node1&#45;&gt;Node12</title>
<g id="a_edge11_Node000001_Node000012"><a xlink:title=" ">
<path fill="none" stroke="#63b8ff" d="M761.75,-252.8C775.33,-243.93 792.99,-232.39 807.9,-222.66"/>
<polygon fill="#63b8ff" stroke="#63b8ff" points="809.85,-225.56 816.31,-217.16 806.02,-219.7 809.85,-225.56"/>
</a>
</g>
</g>
<!-- Node13 -->
<g id="Node000013" class="node">
<title>Node13</title>
<g id="a_Node000013"><a xlink:href="../../d2/dc8/universal_2include_2userver_2formats_2parse_2to_8hpp.html" target="_top" xlink:title="Helper for parsers.">
<polygon fill="white" stroke="#666666" points="806.5,-151 681.5,-151 681.5,-121 806.5,-121 806.5,-151"/>
<text text-anchor="start" x="689.5" y="-139" font-family="Helvetica,sans-Serif" font-size="10.00">userver/formats/parse</text>
<text text-anchor="middle" x="744" y="-128" font-family="Helvetica,sans-Serif" font-size="10.00">/to.hpp</text>
</a>
</g>
</g>
<!-- Node1&#45;&gt;Node13 -->
<g id="edge19_Node000001_Node000013" class="edge">
<title>Node1&#45;&gt;Node13</title>
<g id="a_edge19_Node000001_Node000013"><a xlink:title=" ">
<path fill="none" stroke="#63b8ff" d="M740.44,-252.84C741.11,-230.86 742.42,-188.27 743.25,-161.3"/>
<polygon fill="#63b8ff" stroke="#63b8ff" points="746.76,-161.25 743.56,-151.14 739.76,-161.03 746.76,-161.25"/>
</a>
</g>
</g>
<!-- Node3 -->
<g id="Node000003" class="node">
<title>Node3</title>
<g id="a_Node000003"><a xlink:title=" ">
<polygon fill="#e0e0e0" stroke="#999999" points="64,-145.5 0,-145.5 0,-126.5 64,-126.5 64,-145.5"/>
<text text-anchor="middle" x="32" y="-133.5" font-family="Helvetica,sans-Serif" font-size="10.00">algorithm</text>
</a>
</g>
</g>
<!-- Node2&#45;&gt;Node3 -->
<g id="edge2_Node000002_Node000003" class="edge">
<title>Node2&#45;&gt;Node3</title>
<g id="a_edge2_Node000002_Node000003"><a xlink:title=" ">
<path fill="none" stroke="#63b8ff" d="M260.28,-192.08C211.57,-183.23 136.78,-168.49 73,-151 70.52,-150.32 67.98,-149.57 65.43,-148.79"/>
<polygon fill="#63b8ff" stroke="#63b8ff" points="66.29,-145.39 55.69,-145.64 64.13,-152.05 66.29,-145.39"/>
</a>
</g>
</g>
<!-- Node4 -->
<g id="Node000004" class="node">
<title>Node4</title>
<g id="a_Node000004"><a xlink:title=" ">
<polygon fill="#e0e0e0" stroke="#999999" points="124,-145.5 82,-145.5 82,-126.5 124,-126.5 124,-145.5"/>
<text text-anchor="middle" x="103" y="-133.5" font-family="Helvetica,sans-Serif" font-size="10.00">array</text>
</a>
</g>
</g>
<!-- Node2&#45;&gt;Node4 -->
<g id="edge3_Node000002_Node000004" class="edge">
<title>Node2&#45;&gt;Node4</title>
<g id="a_edge3_Node000002_Node000004"><a xlink:title=" ">
<path fill="none" stroke="#63b8ff" d="M260.37,-188.97C224.22,-179.97 175.06,-166.57 133,-151 131.95,-150.61 130.88,-150.2 129.81,-149.77"/>
<polygon fill="#63b8ff" stroke="#63b8ff" points="130.81,-146.39 120.24,-145.64 128.03,-152.82 130.81,-146.39"/>
</a>
</g>
</g>
<!-- Node5 -->
<g id="Node000005" class="node">
<title>Node5</title>
<g id="a_Node000005"><a xlink:title=" ">
<polygon fill="#e0e0e0" stroke="#999999" points="192,-145.5 142,-145.5 142,-126.5 192,-126.5 192,-145.5"/>
<text text-anchor="middle" x="167" y="-133.5" font-family="Helvetica,sans-Serif" font-size="10.00">chrono</text>
</a>
</g>
</g>
<!-- Node2&#45;&gt;Node5 -->
<g id="edge4_Node000002_Node000005" class="edge">
<title>Node2&#45;&gt;Node5</title>
<g id="a_edge4_Node000002_Node000005"><a xlink:title=" ">
<path fill="none" stroke="#63b8ff" d="M280.18,-186.95C254.97,-175.83 220.07,-160.42 195.71,-149.67"/>
<polygon fill="#63b8ff" stroke="#63b8ff" points="196.86,-146.35 186.3,-145.52 194.03,-152.76 196.86,-146.35"/>
</a>
</g>
</g>
<!-- Node6 -->
<g id="Node000006" class="node">
<title>Node6</title>
<g id="a_Node000006"><a xlink:title=" ">
<polygon fill="#e0e0e0" stroke="#999999" points="283.5,-145.5 210.5,-145.5 210.5,-126.5 283.5,-126.5 283.5,-145.5"/>
<text text-anchor="middle" x="247" y="-133.5" font-family="Helvetica,sans-Serif" font-size="10.00">string_view</text>
</a>
</g>
</g>
<!-- Node2&#45;&gt;Node6 -->
<g id="edge5_Node000002_Node000006" class="edge">
<title>Node2&#45;&gt;Node6</title>
<g id="a_edge5_Node000002_Node000006"><a xlink:title=" ">
<path fill="none" stroke="#63b8ff" d="M297.57,-186.8C287.44,-176.82 273.87,-163.46 263.34,-153.09"/>
<polygon fill="#63b8ff" stroke="#63b8ff" points="265.56,-150.37 255.98,-145.84 260.65,-155.35 265.56,-150.37"/>
</a>
</g>
</g>
<!-- Node7 -->
<g id="Node000007" class="node">
<title>Node7</title>
<g id="a_Node000007"><a xlink:title=" ">
<polygon fill="#e0e0e0" stroke="#999999" points="918.5,-19 849.5,-19 849.5,0 918.5,0 918.5,-19"/>
<text text-anchor="middle" x="884" y="-7" font-family="Helvetica,sans-Serif" font-size="10.00">type_traits</text>
</a>
</g>
</g>
<!-- Node2&#45;&gt;Node7 -->
<g id="edge6_Node000002_Node000007" class="edge">
<title>Node2&#45;&gt;Node7</title>
<g id="a_edge6_Node000002_Node000007"><a xlink:title=" ">
<path fill="none" stroke="#63b8ff" d="M311.39,-186.92C311.41,-169.25 314.17,-139.07 331,-121 400.13,-46.75 719.75,-20.3 838.99,-12.92"/>
<polygon fill="#63b8ff" stroke="#63b8ff" points="839.45,-16.4 849.23,-12.3 839.03,-9.41 839.45,-16.4"/>
</a>
</g>
</g>
<!-- Node8 -->
<g id="Node000008" class="node">
<title>Node8</title>
<g id="a_Node000008"><a xlink:title=" ">
<polygon fill="#e0e0e0" stroke="#999999" points="387.5,-145.5 340.5,-145.5 340.5,-126.5 387.5,-126.5 387.5,-145.5"/>
<text text-anchor="middle" x="364" y="-133.5" font-family="Helvetica,sans-Serif" font-size="10.00">vector</text>
</a>
</g>
</g>
<!-- Node2&#45;&gt;Node8 -->
<g id="edge7_Node000002_Node000008" class="edge">
<title>Node2&#45;&gt;Node8</title>
<g id="a_edge7_Node000002_Node000008"><a xlink:title=" ">
<path fill="none" stroke="#63b8ff" d="M323.54,-186.8C331.49,-177.01 342.08,-163.98 350.43,-153.7"/>
<polygon fill="#63b8ff" stroke="#63b8ff" points="353.22,-155.81 356.81,-145.84 347.79,-151.4 353.22,-155.81"/>
</a>
</g>
</g>
<!-- Node9 -->
<g id="Node000009" class="node">
<title>Node9</title>
<g id="a_Node000009"><a xlink:title=" ">
<polygon fill="#e0e0e0" stroke="#999999" points="484.5,-145.5 405.5,-145.5 405.5,-126.5 484.5,-126.5 484.5,-145.5"/>
<text text-anchor="middle" x="445" y="-133.5" font-family="Helvetica,sans-Serif" font-size="10.00">fmt/format.h</text>
</a>
</g>
</g>
<!-- Node2&#45;&gt;Node9 -->
<g id="edge8_Node000002_Node000009" class="edge">
<title>Node2&#45;&gt;Node9</title>
<g id="a_edge8_Node000002_Node000009"><a xlink:title=" ">
<path fill="none" stroke="#63b8ff" d="M341.19,-186.95C364.1,-175.93 395.75,-160.7 418.07,-149.96"/>
<polygon fill="#63b8ff" stroke="#63b8ff" points="419.81,-153.01 427.3,-145.52 416.77,-146.7 419.81,-153.01"/>
</a>
</g>
</g>
<!-- Node10 -->
<g id="Node000010" class="node">
<title>Node10</title>
<g id="a_Node000010"><a xlink:href="../../d3/d6c/fmt__compat_8hpp_source.html" target="_top" xlink:title=" ">
<polygon fill="white" stroke="#666666" points="663.5,-145.5 502.5,-145.5 502.5,-126.5 663.5,-126.5 663.5,-145.5"/>
<text text-anchor="middle" x="583" y="-133.5" font-family="Helvetica,sans-Serif" font-size="10.00">userver/utils/fmt_compat.hpp</text>
</a>
</g>
</g>
<!-- Node2&#45;&gt;Node10 -->
<g id="edge9_Node000002_Node000010" class="edge">
<title>Node2&#45;&gt;Node10</title>
<g id="a_edge9_Node000002_Node000010"><a xlink:title=" ">
<path fill="none" stroke="#63b8ff" d="M363.61,-188.81C413.65,-176.99 488.85,-159.24 536.92,-147.88"/>
<polygon fill="#63b8ff" stroke="#63b8ff" points="537.82,-151.27 546.75,-145.56 536.21,-144.45 537.82,-151.27"/>
</a>
</g>
</g>
<!-- Node11 -->
<g id="Node000011" class="node">
<title>Node11</title>
<g id="a_Node000011"><a xlink:title=" ">
<polygon fill="#e0e0e0" stroke="#999999" points="616.5,-79.5 549.5,-79.5 549.5,-60.5 616.5,-60.5 616.5,-79.5"/>
<text text-anchor="middle" x="583" y="-67.5" font-family="Helvetica,sans-Serif" font-size="10.00">fmt/core.h</text>
</a>
</g>
</g>
<!-- Node10&#45;&gt;Node11 -->
<g id="edge10_Node000010_Node000011" class="edge">
<title>Node10&#45;&gt;Node11</title>
<g id="a_edge10_Node000010_Node000011"><a xlink:title=" ">
<path fill="none" stroke="#63b8ff" d="M583,-126.37C583,-117.16 583,-102.29 583,-90.27"/>
<polygon fill="#63b8ff" stroke="#63b8ff" points="586.5,-89.91 583,-79.91 579.5,-89.91 586.5,-89.91"/>
</a>
</g>
</g>
<!-- Node12&#45;&gt;Node7 -->
<g id="edge12_Node000012_Node000007" class="edge">
<title>Node12&#45;&gt;Node7</title>
<g id="a_edge12_Node000012_Node000007"><a xlink:title=" ">
<path fill="none" stroke="#63b8ff" d="M840.81,-186.79C844.03,-170.76 849.56,-143.93 855,-121 862.72,-88.46 872.85,-50.85 878.87,-28.96"/>
<polygon fill="#63b8ff" stroke="#63b8ff" points="882.31,-29.63 881.61,-19.06 875.57,-27.77 882.31,-29.63"/>
</a>
</g>
</g>
<!-- Node12&#45;&gt;Node13 -->
<g id="edge13_Node000012_Node000013" class="edge">
<title>Node12&#45;&gt;Node13</title>
<g id="a_edge13_Node000012_Node000013"><a xlink:title=" ">
<path fill="none" stroke="#63b8ff" d="M817.14,-186.8C804.24,-178.01 787.49,-166.61 773.27,-156.93"/>
<polygon fill="#63b8ff" stroke="#63b8ff" points="775.04,-153.9 764.8,-151.16 771.1,-159.69 775.04,-153.9"/>
</a>
</g>
</g>
<!-- Node14 -->
<g id="Node000014" class="node">
<title>Node14</title>
<g id="a_Node000014"><a xlink:href="../../d6/d8e/universal_2include_2userver_2formats_2serialize_2to_8hpp.html" target="_top" xlink:title="Helper for serializers.">
<polygon fill="white" stroke="#666666" points="1002.5,-151 863.5,-151 863.5,-121 1002.5,-121 1002.5,-151"/>
<text text-anchor="start" x="871.5" y="-139" font-family="Helvetica,sans-Serif" font-size="10.00">userver/formats/serialize</text>
<text text-anchor="middle" x="933" y="-128" font-family="Helvetica,sans-Serif" font-size="10.00">/to.hpp</text>
</a>
</g>
</g>
<!-- Node12&#45;&gt;Node14 -->
<g id="edge14_Node000012_Node000014" class="edge">
<title>Node12&#45;&gt;Node14</title>
<g id="a_edge14_Node000012_Node000014"><a xlink:title=" ">
<path fill="none" stroke="#63b8ff" d="M859.08,-186.8C872.12,-178.01 889.05,-166.61 903.42,-156.93"/>
<polygon fill="#63b8ff" stroke="#63b8ff" points="905.64,-159.65 911.98,-151.16 901.73,-153.85 905.64,-159.65"/>
</a>
</g>
</g>
<!-- Node15 -->
<g id="Node000015" class="node">
<title>Node15</title>
<g id="a_Node000015"><a xlink:href="../../d3/da0/meta__light_8hpp.html" target="_top" xlink:title="Lightweight concepts.">
<polygon fill="white" stroke="#666666" points="1127,-151 1021,-151 1021,-121 1127,-121 1127,-151"/>
<text text-anchor="start" x="1029" y="-139" font-family="Helvetica,sans-Serif" font-size="10.00">userver/utils/meta</text>
<text text-anchor="middle" x="1074" y="-128" font-family="Helvetica,sans-Serif" font-size="10.00">_light.hpp</text>
</a>
</g>
</g>
<!-- Node12&#45;&gt;Node15 -->
<g id="edge15_Node000012_Node000015" class="edge">
<title>Node12&#45;&gt;Node15</title>
<g id="a_edge15_Node000012_Node000015"><a xlink:title=" ">
<path fill="none" stroke="#63b8ff" d="M889.79,-186.95C925.91,-177.16 974.27,-164.05 1012.38,-153.71"/>
<polygon fill="#63b8ff" stroke="#63b8ff" points="1013.59,-157.01 1022.33,-151.01 1011.76,-150.25 1013.59,-157.01"/>
</a>
</g>
</g>
<!-- Node15&#45;&gt;Node7 -->
<g id="edge16_Node000015_Node000007" class="edge">
<title>Node15&#45;&gt;Node7</title>
<g id="a_edge16_Node000015_Node000007"><a xlink:title=" ">
<path fill="none" stroke="#63b8ff" d="M1046.27,-120.83C1028.19,-111.28 1004.27,-98.1 984,-85 954.38,-65.86 921.97,-40.91 902.31,-25.3"/>
<polygon fill="#63b8ff" stroke="#63b8ff" points="904.46,-22.54 894.47,-19.03 900.09,-28.01 904.46,-22.54"/>
</a>
</g>
</g>
<!-- Node16 -->
<g id="Node000016" class="node">
<title>Node16</title>
<g id="a_Node000016"><a xlink:href="../../d9/dce/void__t_8hpp.html" target="_top" xlink:title="std::void_t implementation with workarounds for compiler bugs">
<polygon fill="white" stroke="#666666" points="1093.5,-85 992.5,-85 992.5,-55 1093.5,-55 1093.5,-85"/>
<text text-anchor="start" x="1000.5" y="-73" font-family="Helvetica,sans-Serif" font-size="10.00">userver/utils/void</text>
<text text-anchor="middle" x="1043" y="-62" font-family="Helvetica,sans-Serif" font-size="10.00">_t.hpp</text>
</a>
</g>
</g>
<!-- Node15&#45;&gt;Node16 -->
<g id="edge17_Node000015_Node000016" class="edge">
<title>Node15&#45;&gt;Node16</title>
<g id="a_edge17_Node000015_Node000016"><a xlink:title=" ">
<path fill="none" stroke="#63b8ff" d="M1067.12,-120.8C1063.35,-113.01 1058.58,-103.16 1054.27,-94.28"/>
<polygon fill="#63b8ff" stroke="#63b8ff" points="1057.37,-92.64 1049.86,-85.16 1051.07,-95.69 1057.37,-92.64"/>
</a>
</g>
</g>
<!-- Node16&#45;&gt;Node7 -->
<g id="edge18_Node000016_Node000007" class="edge">
<title>Node16&#45;&gt;Node7</title>
<g id="a_edge18_Node000016_Node000007"><a xlink:title=" ">
<path fill="none" stroke="#63b8ff" d="M1004.92,-54.99C978.15,-45.14 942.7,-32.1 917.11,-22.68"/>
<polygon fill="#63b8ff" stroke="#63b8ff" points="918.07,-19.31 907.48,-19.14 915.66,-25.88 918.07,-19.31"/>
</a>
</g>
</g>
</g>
</svg>
