<?xml version="1.0" encoding="UTF-8" standalone="no"?>
<!DOCTYPE svg PUBLIC "-//W3C//DTD SVG 1.1//EN"
 "http://www.w3.org/Graphics/SVG/1.1/DTD/svg11.dtd">
<!-- Generated by graphviz version 2.43.0 (0)
 -->
<!-- Title: userver/utils/statistics/histogram_aggregator.hpp Pages: 1 -->
<svg width="515pt" height="214pt"
 viewBox="0.00 0.00 515.00 214.00" xmlns="http://www.w3.org/2000/svg" xmlns:xlink="http://www.w3.org/1999/xlink">
<g id="graph0" class="graph" transform="scale(1 1) rotate(0) translate(4 210)">
<title>userver/utils/statistics/histogram_aggregator.hpp</title>
<!-- Node1 -->
<g id="Node000001" class="node">
<title>Node1</title>
<g id="a_Node000001"><a xlink:title="Used to aggregate multiple utils::statistics::Histogram metrics.">
<polygon fill="#999999" stroke="#666666" points="263,-206 115,-206 115,-176 263,-176 263,-206"/>
<text text-anchor="start" x="123" y="-194" font-family="Helvetica,sans-Serif" font-size="10.00">userver/utils/statistics</text>
<text text-anchor="middle" x="189" y="-183" font-family="Helvetica,sans-Serif" font-size="10.00">/histogram_aggregator.hpp</text>
</a>
</g>
</g>
<!-- Node2 -->
<g id="Node000002" class="node">
<title>Node2</title>
<g id="a_Node000002"><a xlink:title=" ">
<polygon fill="#e0e0e0" stroke="#999999" points="58,-74 0,-74 0,-55 58,-55 58,-74"/>
<text text-anchor="middle" x="29" y="-62" font-family="Helvetica,sans-Serif" font-size="10.00">memory</text>
</a>
</g>
</g>
<!-- Node1&#45;&gt;Node2 -->
<g id="edge1_Node000001_Node000002" class="edge">
<title>Node1&#45;&gt;Node2</title>
<g id="a_edge1_Node000001_Node000002"><a xlink:title=" ">
<path fill="none" stroke="#63b8ff" d="M114.68,-178.99C89.69,-171.77 63.7,-159.81 46,-140 32.35,-124.73 28.98,-100.79 28.46,-84.18"/>
<polygon fill="#63b8ff" stroke="#63b8ff" points="31.96,-84.05 28.46,-74.05 24.96,-84.05 31.96,-84.05"/>
</a>
</g>
</g>
<!-- Node3 -->
<g id="Node000003" class="node">
<title>Node3</title>
<g id="a_Node000003"><a xlink:href="../../d8/d08/universal_2include_2userver_2utils_2span_8hpp.html" target="_top" xlink:title=" ">
<polygon fill="white" stroke="#666666" points="323.5,-134.5 198.5,-134.5 198.5,-115.5 323.5,-115.5 323.5,-134.5"/>
<text text-anchor="middle" x="261" y="-122.5" font-family="Helvetica,sans-Serif" font-size="10.00">userver/utils/span.hpp</text>
</a>
</g>
</g>
<!-- Node1&#45;&gt;Node3 -->
<g id="edge2_Node000001_Node000003" class="edge">
<title>Node1&#45;&gt;Node3</title>
<g id="a_edge2_Node000001_Node000003"><a xlink:title=" ">
<path fill="none" stroke="#63b8ff" d="M204.98,-175.8C216.31,-165.72 231.53,-152.19 243.25,-141.78"/>
<polygon fill="#63b8ff" stroke="#63b8ff" points="245.9,-144.1 251.05,-134.84 241.25,-138.87 245.9,-144.1"/>
</a>
</g>
</g>
<!-- Node9 -->
<g id="Node000009" class="node">
<title>Node9</title>
<g id="a_Node000009"><a xlink:href="../../d7/def/core_2include_2userver_2utils_2statistics_2fwd_8hpp.html" target="_top" xlink:title="Forward declarations for statistics entities.">
<polygon fill="white" stroke="#666666" points="180.5,-140 55.5,-140 55.5,-110 180.5,-110 180.5,-140"/>
<text text-anchor="start" x="63.5" y="-128" font-family="Helvetica,sans-Serif" font-size="10.00">userver/utils/statistics</text>
<text text-anchor="middle" x="118" y="-117" font-family="Helvetica,sans-Serif" font-size="10.00">/fwd.hpp</text>
</a>
</g>
</g>
<!-- Node1&#45;&gt;Node9 -->
<g id="edge8_Node000001_Node000009" class="edge">
<title>Node1&#45;&gt;Node9</title>
<g id="a_edge8_Node000001_Node000009"><a xlink:title=" ">
<path fill="none" stroke="#63b8ff" d="M173.24,-175.8C163.87,-167.34 151.8,-156.46 141.33,-147.03"/>
<polygon fill="#63b8ff" stroke="#63b8ff" points="143.48,-144.26 133.71,-140.16 138.8,-149.46 143.48,-144.26"/>
</a>
</g>
</g>
<!-- Node10 -->
<g id="Node000010" class="node">
<title>Node10</title>
<g id="a_Node000010"><a xlink:href="../../d5/de6/histogram__view_8hpp.html" target="_top" xlink:title="The non&#45;owning reader API for &quot;histogram&quot; metrics.">
<polygon fill="white" stroke="#666666" points="466.5,-140 341.5,-140 341.5,-110 466.5,-110 466.5,-140"/>
<text text-anchor="start" x="349.5" y="-128" font-family="Helvetica,sans-Serif" font-size="10.00">userver/utils/statistics</text>
<text text-anchor="middle" x="404" y="-117" font-family="Helvetica,sans-Serif" font-size="10.00">/histogram_view.hpp</text>
</a>
</g>
</g>
<!-- Node1&#45;&gt;Node10 -->
<g id="edge10_Node000001_Node000010" class="edge">
<title>Node1&#45;&gt;Node10</title>
<g id="a_edge10_Node000001_Node000010"><a xlink:title=" ">
<path fill="none" stroke="#63b8ff" d="M236.18,-175.95C268.81,-166.24 312.4,-153.27 346.97,-142.98"/>
<polygon fill="#63b8ff" stroke="#63b8ff" points="348.34,-146.22 356.93,-140.01 346.34,-139.51 348.34,-146.22"/>
</a>
</g>
</g>
<!-- Node4 -->
<g id="Node000004" class="node">
<title>Node4</title>
<g id="a_Node000004"><a xlink:title=" ">
<polygon fill="#e0e0e0" stroke="#999999" points="131.5,-74 78.5,-74 78.5,-55 131.5,-55 131.5,-74"/>
<text text-anchor="middle" x="105" y="-62" font-family="Helvetica,sans-Serif" font-size="10.00">iterator</text>
</a>
</g>
</g>
<!-- Node3&#45;&gt;Node4 -->
<g id="edge3_Node000003_Node000004" class="edge">
<title>Node3&#45;&gt;Node4</title>
<g id="a_edge3_Node000003_Node000004"><a xlink:title=" ">
<path fill="none" stroke="#63b8ff" d="M238.32,-115.49C211.74,-105.53 167.52,-88.95 137.36,-77.63"/>
<polygon fill="#63b8ff" stroke="#63b8ff" points="138.3,-74.25 127.71,-74.02 135.85,-80.81 138.3,-74.25"/>
</a>
</g>
</g>
<!-- Node5 -->
<g id="Node000005" class="node">
<title>Node5</title>
<g id="a_Node000005"><a xlink:title=" ">
<polygon fill="#e0e0e0" stroke="#999999" points="351.5,-74 298.5,-74 298.5,-55 351.5,-55 351.5,-74"/>
<text text-anchor="middle" x="325" y="-62" font-family="Helvetica,sans-Serif" font-size="10.00">cstddef</text>
</a>
</g>
</g>
<!-- Node3&#45;&gt;Node5 -->
<g id="edge4_Node000003_Node000005" class="edge">
<title>Node3&#45;&gt;Node5</title>
<g id="a_edge4_Node000003_Node000005"><a xlink:title=" ">
<path fill="none" stroke="#63b8ff" d="M270.44,-115.37C280.27,-106.38 295.89,-92.11 307.89,-81.14"/>
<polygon fill="#63b8ff" stroke="#63b8ff" points="310.5,-83.5 315.52,-74.17 305.78,-78.33 310.5,-83.5"/>
</a>
</g>
</g>
<!-- Node6 -->
<g id="Node000006" class="node">
<title>Node6</title>
<g id="a_Node000006"><a xlink:title=" ">
<polygon fill="#e0e0e0" stroke="#999999" points="438.5,-74 369.5,-74 369.5,-55 438.5,-55 438.5,-74"/>
<text text-anchor="middle" x="404" y="-62" font-family="Helvetica,sans-Serif" font-size="10.00">type_traits</text>
</a>
</g>
</g>
<!-- Node3&#45;&gt;Node6 -->
<g id="edge5_Node000003_Node000006" class="edge">
<title>Node3&#45;&gt;Node6</title>
<g id="a_edge5_Node000003_Node000006"><a xlink:title=" ">
<path fill="none" stroke="#63b8ff" d="M281.79,-115.49C305.94,-105.62 345.98,-89.23 373.62,-77.93"/>
<polygon fill="#63b8ff" stroke="#63b8ff" points="375.25,-81.04 383.18,-74.02 372.6,-74.56 375.25,-81.04"/>
</a>
</g>
</g>
<!-- Node7 -->
<g id="Node000007" class="node">
<title>Node7</title>
<g id="a_Node000007"><a xlink:href="../../d2/d54/assert_8hpp.html" target="_top" xlink:title="Assertion macros UASSERT, UASSERT_MSG, UINVARIANT.">
<polygon fill="white" stroke="#666666" points="280.5,-74 149.5,-74 149.5,-55 280.5,-55 280.5,-74"/>
<text text-anchor="middle" x="215" y="-62" font-family="Helvetica,sans-Serif" font-size="10.00">userver/utils/assert.hpp</text>
</a>
</g>
</g>
<!-- Node3&#45;&gt;Node7 -->
<g id="edge6_Node000003_Node000007" class="edge">
<title>Node3&#45;&gt;Node7</title>
<g id="a_edge6_Node000003_Node000007"><a xlink:title=" ">
<path fill="none" stroke="#63b8ff" d="M254.21,-115.37C247.35,-106.64 236.57,-92.93 228.05,-82.09"/>
<polygon fill="#63b8ff" stroke="#63b8ff" points="230.75,-79.86 221.82,-74.17 225.25,-84.19 230.75,-79.86"/>
</a>
</g>
</g>
<!-- Node8 -->
<g id="Node000008" class="node">
<title>Node8</title>
<g id="a_Node000008"><a xlink:title=" ">
<polygon fill="#e0e0e0" stroke="#999999" points="251.5,-19 178.5,-19 178.5,0 251.5,0 251.5,-19"/>
<text text-anchor="middle" x="215" y="-7" font-family="Helvetica,sans-Serif" font-size="10.00">string_view</text>
</a>
</g>
</g>
<!-- Node7&#45;&gt;Node8 -->
<g id="edge7_Node000007_Node000008" class="edge">
<title>Node7&#45;&gt;Node8</title>
<g id="a_edge7_Node000007_Node000008"><a xlink:title=" ">
<path fill="none" stroke="#63b8ff" d="M215,-54.75C215,-47.8 215,-37.85 215,-29.13"/>
<polygon fill="#63b8ff" stroke="#63b8ff" points="218.5,-29.09 215,-19.09 211.5,-29.09 218.5,-29.09"/>
</a>
</g>
</g>
<!-- Node9&#45;&gt;Node2 -->
<g id="edge9_Node000009_Node000002" class="edge">
<title>Node9&#45;&gt;Node2</title>
<g id="a_edge9_Node000009_Node000002"><a xlink:title=" ">
<path fill="none" stroke="#63b8ff" d="M96.46,-109.84C82.53,-100.68 64.47,-88.82 50.55,-79.66"/>
<polygon fill="#63b8ff" stroke="#63b8ff" points="52.35,-76.66 42.08,-74.09 48.51,-82.51 52.35,-76.66"/>
</a>
</g>
</g>
<!-- Node10&#45;&gt;Node5 -->
<g id="edge11_Node000010_Node000005" class="edge">
<title>Node10&#45;&gt;Node5</title>
<g id="a_edge11_Node000010_Node000005"><a xlink:title=" ">
<path fill="none" stroke="#63b8ff" d="M384.88,-109.84C372.82,-100.91 357.29,-89.41 345.06,-80.35"/>
<polygon fill="#63b8ff" stroke="#63b8ff" points="346.96,-77.4 336.84,-74.27 342.79,-83.03 346.96,-77.4"/>
</a>
</g>
</g>
<!-- Node10&#45;&gt;Node6 -->
<g id="edge13_Node000010_Node000006" class="edge">
<title>Node10&#45;&gt;Node6</title>
<g id="a_edge13_Node000010_Node000006"><a xlink:title=" ">
<path fill="none" stroke="#63b8ff" d="M404,-109.84C404,-102.21 404,-92.7 404,-84.45"/>
<polygon fill="#63b8ff" stroke="#63b8ff" points="407.5,-84.27 404,-74.27 400.5,-84.27 407.5,-84.27"/>
</a>
</g>
</g>
<!-- Node11 -->
<g id="Node000011" class="node">
<title>Node11</title>
<g id="a_Node000011"><a xlink:title=" ">
<polygon fill="#e0e0e0" stroke="#999999" points="507,-74 457,-74 457,-55 507,-55 507,-74"/>
<text text-anchor="middle" x="482" y="-62" font-family="Helvetica,sans-Serif" font-size="10.00">cstdint</text>
</a>
</g>
</g>
<!-- Node10&#45;&gt;Node11 -->
<g id="edge12_Node000010_Node000011" class="edge">
<title>Node10&#45;&gt;Node11</title>
<g id="a_edge12_Node000010_Node000011"><a xlink:title=" ">
<path fill="none" stroke="#63b8ff" d="M422.88,-109.84C434.78,-100.91 450.12,-89.41 462.2,-80.35"/>
<polygon fill="#63b8ff" stroke="#63b8ff" points="464.41,-83.07 470.31,-74.27 460.21,-77.47 464.41,-83.07"/>
</a>
</g>
</g>
</g>
</svg>
