<?xml version="1.0" encoding="UTF-8" standalone="no"?>
<!DOCTYPE svg PUBLIC "-//W3C//DTD SVG 1.1//EN"
 "http://www.w3.org/Graphics/SVG/1.1/DTD/svg11.dtd">
<!-- Generated by graphviz version 2.43.0 (0)
 -->
<!-- Title: userver/engine/io/tls_wrapper.hpp Pages: 1 -->
<svg width="1794pt" height="423pt"
 viewBox="0.00 0.00 1793.50 423.00" xmlns="http://www.w3.org/2000/svg" xmlns:xlink="http://www.w3.org/1999/xlink">
<g id="graph0" class="graph" transform="scale(1 1) rotate(0) translate(4 419)">
<title>userver/engine/io/tls_wrapper.hpp</title>
<!-- Node1 -->
<g id="Node000001" class="node">
<title>Node1</title>
<g id="a_Node000001"><a xlink:title="TLS socket wrappers.">
<polygon fill="#999999" stroke="#666666" points="504,-415 388,-415 388,-385 504,-385 504,-415"/>
<text text-anchor="start" x="396" y="-403" font-family="Helvetica,sans-Serif" font-size="10.00">userver/engine/io/tls</text>
<text text-anchor="middle" x="446" y="-392" font-family="Helvetica,sans-Serif" font-size="10.00">_wrapper.hpp</text>
</a>
</g>
</g>
<!-- Node2 -->
<g id="Node000002" class="node">
<title>Node2</title>
<g id="a_Node000002"><a xlink:title=" ">
<polygon fill="#e0e0e0" stroke="#999999" points="155,-79.5 111,-79.5 111,-60.5 155,-60.5 155,-79.5"/>
<text text-anchor="middle" x="133" y="-67.5" font-family="Helvetica,sans-Serif" font-size="10.00">string</text>
</a>
</g>
</g>
<!-- Node1&#45;&gt;Node2 -->
<g id="edge1_Node000001_Node000002" class="edge">
<title>Node1&#45;&gt;Node2</title>
<g id="a_edge1_Node000001_Node000002"><a xlink:title=" ">
<path fill="none" stroke="#63b8ff" d="M387.74,-396.8C294.38,-392.4 116.24,-380.09 62,-349 22.97,-326.63 0,-313.98 0,-269 0,-269 0,-269 0,-201 0,-160.21 16.22,-149.91 45,-121 61.08,-104.85 83.45,-92.23 101.62,-83.71"/>
<polygon fill="#63b8ff" stroke="#63b8ff" points="103.25,-86.81 110.94,-79.52 100.38,-80.43 103.25,-86.81"/>
</a>
</g>
</g>
<!-- Node3 -->
<g id="Node000003" class="node">
<title>Node3</title>
<g id="a_Node000003"><a xlink:title=" ">
<polygon fill="#e0e0e0" stroke="#999999" points="118.5,-343.5 71.5,-343.5 71.5,-324.5 118.5,-324.5 118.5,-343.5"/>
<text text-anchor="middle" x="95" y="-331.5" font-family="Helvetica,sans-Serif" font-size="10.00">vector</text>
</a>
</g>
</g>
<!-- Node1&#45;&gt;Node3 -->
<g id="edge2_Node000001_Node000003" class="edge">
<title>Node1&#45;&gt;Node3</title>
<g id="a_edge2_Node000001_Node000003"><a xlink:title=" ">
<path fill="none" stroke="#63b8ff" d="M387.98,-394.42C323.29,-388.27 216.06,-374.99 127,-349 125.32,-348.51 123.61,-347.95 121.9,-347.35"/>
<polygon fill="#63b8ff" stroke="#63b8ff" points="122.89,-343.97 112.3,-343.53 120.3,-350.48 122.89,-343.97"/>
</a>
</g>
</g>
<!-- Node4 -->
<g id="Node000004" class="node">
<title>Node4</title>
<g id="a_Node000004"><a xlink:href="../../d1/dab/certificate_8hpp.html" target="_top" xlink:title=" ">
<polygon fill="white" stroke="#666666" points="440,-343.5 280,-343.5 280,-324.5 440,-324.5 440,-343.5"/>
<text text-anchor="middle" x="360" y="-331.5" font-family="Helvetica,sans-Serif" font-size="10.00">userver/crypto/certificate.hpp</text>
</a>
</g>
</g>
<!-- Node1&#45;&gt;Node4 -->
<g id="edge3_Node000001_Node000004" class="edge">
<title>Node1&#45;&gt;Node4</title>
<g id="a_edge3_Node000001_Node000004"><a xlink:title=" ">
<path fill="none" stroke="#63b8ff" d="M426.91,-384.8C412.98,-374.43 394.14,-360.4 380,-349.88"/>
<polygon fill="#63b8ff" stroke="#63b8ff" points="382,-347.01 371.88,-343.84 377.82,-352.62 382,-347.01"/>
</a>
</g>
</g>
<!-- Node17 -->
<g id="Node000017" class="node">
<title>Node17</title>
<g id="a_Node000017"><a xlink:href="../../d5/d02/fast__pimpl_8hpp.html" target="_top" xlink:title="Implements pimpl idiom without dynamic memory allocation.">
<polygon fill="white" stroke="#666666" points="541.5,-85 442.5,-85 442.5,-55 541.5,-55 541.5,-85"/>
<text text-anchor="start" x="450.5" y="-73" font-family="Helvetica,sans-Serif" font-size="10.00">userver/utils/fast</text>
<text text-anchor="middle" x="492" y="-62" font-family="Helvetica,sans-Serif" font-size="10.00">_pimpl.hpp</text>
</a>
</g>
</g>
<!-- Node1&#45;&gt;Node17 -->
<g id="edge65_Node000001_Node000017" class="edge">
<title>Node1&#45;&gt;Node17</title>
<g id="a_edge65_Node000001_Node000017"><a xlink:title=" ">
<path fill="none" stroke="#63b8ff" d="M463.82,-384.68C489.01,-362.69 532,-317.98 532,-269 532,-269 532,-269 532,-201 532,-162.43 515.72,-120.17 503.93,-94.61"/>
<polygon fill="#63b8ff" stroke="#63b8ff" points="506.99,-92.89 499.52,-85.37 500.67,-95.9 506.99,-92.89"/>
</a>
</g>
</g>
<!-- Node20 -->
<g id="Node000020" class="node">
<title>Node20</title>
<g id="a_Node000020"><a xlink:href="../../d4/d2b/private__key_8hpp.html" target="_top" xlink:title=" ">
<polygon fill="white" stroke="#666666" points="261.5,-349 136.5,-349 136.5,-319 261.5,-319 261.5,-349"/>
<text text-anchor="start" x="144.5" y="-337" font-family="Helvetica,sans-Serif" font-size="10.00">userver/crypto/private</text>
<text text-anchor="middle" x="199" y="-326" font-family="Helvetica,sans-Serif" font-size="10.00">_key.hpp</text>
</a>
</g>
</g>
<!-- Node1&#45;&gt;Node20 -->
<g id="edge25_Node000001_Node000020" class="edge">
<title>Node1&#45;&gt;Node20</title>
<g id="a_edge25_Node000001_Node000020"><a xlink:title=" ">
<path fill="none" stroke="#63b8ff" d="M391.79,-384.95C353.83,-375.12 302.95,-361.93 262.99,-351.58"/>
<polygon fill="#63b8ff" stroke="#63b8ff" points="263.64,-348.13 253.08,-349.01 261.88,-354.91 263.64,-348.13"/>
</a>
</g>
</g>
<!-- Node21 -->
<g id="Node000021" class="node">
<title>Node21</title>
<g id="a_Node000021"><a xlink:href="../../d2/d22/deadline_8hpp.html" target="_top" xlink:title="Internal representation of a deadline time point.">
<polygon fill="white" stroke="#666666" points="1785.5,-211.5 1630.5,-211.5 1630.5,-192.5 1785.5,-192.5 1785.5,-211.5"/>
<text text-anchor="middle" x="1708" y="-199.5" font-family="Helvetica,sans-Serif" font-size="10.00">userver/engine/deadline.hpp</text>
</a>
</g>
</g>
<!-- Node1&#45;&gt;Node21 -->
<g id="edge31_Node000001_Node000021" class="edge">
<title>Node1&#45;&gt;Node21</title>
<g id="a_edge31_Node000001_Node000021"><a xlink:title=" ">
<path fill="none" stroke="#63b8ff" d="M504.25,-398.48C638.62,-396.62 980.41,-388.09 1263,-349 1399.95,-330.06 1437.85,-332.34 1567,-283 1612.39,-265.66 1660.69,-235.32 1687.33,-217.41"/>
<polygon fill="#63b8ff" stroke="#63b8ff" points="1689.51,-220.15 1695.8,-211.63 1685.57,-214.37 1689.51,-220.15"/>
</a>
</g>
</g>
<!-- Node24 -->
<g id="Node000024" class="node">
<title>Node24</title>
<g id="a_Node000024"><a xlink:href="../../da/d29/core_2include_2userver_2engine_2io_2common_8hpp.html" target="_top" xlink:title="Common definitions and base classes for stream like objects.">
<polygon fill="white" stroke="#666666" points="860,-277.5 692,-277.5 692,-258.5 860,-258.5 860,-277.5"/>
<text text-anchor="middle" x="776" y="-265.5" font-family="Helvetica,sans-Serif" font-size="10.00">userver/engine/io/common.hpp</text>
</a>
</g>
</g>
<!-- Node1&#45;&gt;Node24 -->
<g id="edge36_Node000001_Node000024" class="edge">
<title>Node1&#45;&gt;Node24</title>
<g id="a_edge36_Node000001_Node000024"><a xlink:title=" ">
<path fill="none" stroke="#63b8ff" d="M481.63,-384.96C546.52,-359.4 682.93,-305.66 744.58,-281.38"/>
<polygon fill="#63b8ff" stroke="#63b8ff" points="746.13,-284.53 754.15,-277.61 743.56,-278.02 746.13,-284.53"/>
</a>
</g>
</g>
<!-- Node25 -->
<g id="Node000025" class="node">
<title>Node25</title>
<g id="a_Node000025"><a xlink:href="../../da/dfc/socket_8hpp.html" target="_top" xlink:title="Socket representation.">
<polygon fill="white" stroke="#666666" points="1253.5,-343.5 1096.5,-343.5 1096.5,-324.5 1253.5,-324.5 1253.5,-343.5"/>
<text text-anchor="middle" x="1175" y="-331.5" font-family="Helvetica,sans-Serif" font-size="10.00">userver/engine/io/socket.hpp</text>
</a>
</g>
</g>
<!-- Node1&#45;&gt;Node25 -->
<g id="edge40_Node000001_Node000025" class="edge">
<title>Node1&#45;&gt;Node25</title>
<g id="a_edge40_Node000001_Node000025"><a xlink:title=" ">
<path fill="none" stroke="#63b8ff" d="M504.12,-393.9C631.32,-382.73 935.06,-356.07 1086.3,-342.79"/>
<polygon fill="#63b8ff" stroke="#63b8ff" points="1086.82,-346.25 1096.48,-341.89 1086.21,-339.28 1086.82,-346.25"/>
</a>
</g>
</g>
<!-- Node4&#45;&gt;Node2 -->
<g id="edge6_Node000004_Node000002" class="edge">
<title>Node4&#45;&gt;Node2</title>
<g id="a_edge6_Node000004_Node000002"><a xlink:title=" ">
<path fill="none" stroke="#63b8ff" d="M355.51,-324.37C346.99,-308.63 327.15,-274.85 303,-253 279.09,-231.36 264.06,-238.48 240,-217 196.17,-177.87 159.29,-118.03 142.59,-88.59"/>
<polygon fill="#63b8ff" stroke="#63b8ff" points="145.46,-86.57 137.54,-79.53 139.35,-89.97 145.46,-86.57"/>
</a>
</g>
</g>
<!-- Node5 -->
<g id="Node000005" class="node">
<title>Node5</title>
<g id="a_Node000005"><a xlink:title=" ">
<polygon fill="#e0e0e0" stroke="#999999" points="314,-79.5 256,-79.5 256,-60.5 314,-60.5 314,-79.5"/>
<text text-anchor="middle" x="285" y="-67.5" font-family="Helvetica,sans-Serif" font-size="10.00">memory</text>
</a>
</g>
</g>
<!-- Node4&#45;&gt;Node5 -->
<g id="edge4_Node000004_Node000005" class="edge">
<title>Node4&#45;&gt;Node5</title>
<g id="a_edge4_Node000004_Node000005"><a xlink:title=" ">
<path fill="none" stroke="#63b8ff" d="M359.75,-324.37C358.83,-308.33 354.67,-273.65 336,-253 307.94,-221.96 272.25,-251.79 249,-217 243.45,-208.7 239.33,-153.97 250,-121 254,-108.62 262.22,-96.62 269.68,-87.48"/>
<polygon fill="#63b8ff" stroke="#63b8ff" points="272.54,-89.52 276.45,-79.67 267.25,-84.93 272.54,-89.52"/>
</a>
</g>
</g>
<!-- Node6 -->
<g id="Node000006" class="node">
<title>Node6</title>
<g id="a_Node000006"><a xlink:title=" ">
<polygon fill="#e0e0e0" stroke="#999999" points="160,-277.5 104,-277.5 104,-258.5 160,-258.5 160,-277.5"/>
<text text-anchor="middle" x="132" y="-265.5" font-family="Helvetica,sans-Serif" font-size="10.00">optional</text>
</a>
</g>
</g>
<!-- Node4&#45;&gt;Node6 -->
<g id="edge5_Node000004_Node000006" class="edge">
<title>Node4&#45;&gt;Node6</title>
<g id="a_edge5_Node000004_Node000006"><a xlink:title=" ">
<path fill="none" stroke="#63b8ff" d="M322.69,-324.47C283.95,-315.32 221.74,-299.83 169,-283 167.09,-282.39 165.13,-281.74 163.16,-281.06"/>
<polygon fill="#63b8ff" stroke="#63b8ff" points="163.98,-277.63 153.39,-277.53 161.61,-284.22 163.98,-277.63"/>
</a>
</g>
</g>
<!-- Node7 -->
<g id="Node000007" class="node">
<title>Node7</title>
<g id="a_Node000007"><a xlink:title=" ">
<polygon fill="#e0e0e0" stroke="#999999" points="1462.5,-79.5 1389.5,-79.5 1389.5,-60.5 1462.5,-60.5 1462.5,-79.5"/>
<text text-anchor="middle" x="1426" y="-67.5" font-family="Helvetica,sans-Serif" font-size="10.00">string_view</text>
</a>
</g>
</g>
<!-- Node4&#45;&gt;Node7 -->
<g id="edge7_Node000004_Node000007" class="edge">
<title>Node4&#45;&gt;Node7</title>
<g id="a_edge7_Node000004_Node000007"><a xlink:title=" ">
<path fill="none" stroke="#63b8ff" d="M440.23,-333.67C575.2,-333.42 855.7,-327.01 1088,-283 1183.71,-264.87 1225.42,-283.07 1297,-217 1330.84,-185.76 1305.47,-155.48 1336,-121 1350.94,-104.14 1372.98,-91.76 1391.51,-83.54"/>
<polygon fill="#63b8ff" stroke="#63b8ff" points="1392.97,-86.72 1400.83,-79.61 1390.25,-80.27 1392.97,-86.72"/>
</a>
</g>
</g>
<!-- Node8 -->
<g id="Node000008" class="node">
<title>Node8</title>
<g id="a_Node000008"><a xlink:href="../../d0/df9/basic__types_8hpp.html" target="_top" xlink:title="Common types for crypto module.">
<polygon fill="white" stroke="#666666" points="294,-283 178,-283 178,-253 294,-253 294,-283"/>
<text text-anchor="start" x="186" y="-271" font-family="Helvetica,sans-Serif" font-size="10.00">userver/crypto/basic</text>
<text text-anchor="middle" x="236" y="-260" font-family="Helvetica,sans-Serif" font-size="10.00">_types.hpp</text>
</a>
</g>
</g>
<!-- Node4&#45;&gt;Node8 -->
<g id="edge8_Node000004_Node000008" class="edge">
<title>Node4&#45;&gt;Node8</title>
<g id="a_edge8_Node000004_Node000008"><a xlink:title=" ">
<path fill="none" stroke="#63b8ff" d="M343.28,-324.37C325.19,-315.03 295.78,-299.86 272.33,-287.75"/>
<polygon fill="#63b8ff" stroke="#63b8ff" points="273.84,-284.59 263.35,-283.12 270.63,-290.81 273.84,-284.59"/>
</a>
</g>
</g>
<!-- Node8&#45;&gt;Node2 -->
<g id="edge9_Node000008_Node000002" class="edge">
<title>Node8&#45;&gt;Node2</title>
<g id="a_edge9_Node000008_Node000002"><a xlink:title=" ">
<path fill="none" stroke="#63b8ff" d="M188.41,-252.81C170.88,-245.1 152.7,-233.63 142,-217 116.66,-177.61 123.16,-119.2 128.78,-89.61"/>
<polygon fill="#63b8ff" stroke="#63b8ff" points="132.21,-90.29 130.82,-79.79 125.36,-88.87 132.21,-90.29"/>
</a>
</g>
</g>
<!-- Node9 -->
<g id="Node000009" class="node">
<title>Node9</title>
<g id="a_Node000009"><a xlink:href="../../df/db8/universal_2include_2userver_2crypto_2exception_8hpp.html" target="_top" xlink:title="Exception classes for crypto module.">
<polygon fill="white" stroke="#666666" points="504.5,-211.5 345.5,-211.5 345.5,-192.5 504.5,-192.5 504.5,-211.5"/>
<text text-anchor="middle" x="425" y="-199.5" font-family="Helvetica,sans-Serif" font-size="10.00">userver/crypto/exception.hpp</text>
</a>
</g>
</g>
<!-- Node8&#45;&gt;Node9 -->
<g id="edge10_Node000008_Node000009" class="edge">
<title>Node8&#45;&gt;Node9</title>
<g id="a_edge10_Node000008_Node000009"><a xlink:title=" ">
<path fill="none" stroke="#63b8ff" d="M277.48,-252.95C311.21,-241.53 358.26,-225.6 390.09,-214.82"/>
<polygon fill="#63b8ff" stroke="#63b8ff" points="391.5,-218.04 399.85,-211.52 389.25,-211.41 391.5,-218.04"/>
</a>
</g>
</g>
<!-- Node9&#45;&gt;Node5 -->
<g id="edge11_Node000009_Node000005" class="edge">
<title>Node9&#45;&gt;Node5</title>
<g id="a_edge11_Node000009_Node000005"><a xlink:title=" ">
<path fill="none" stroke="#63b8ff" d="M412.78,-192.29C399.57,-182.69 378.12,-166.54 361,-151 338.29,-130.39 314.26,-104.27 299.45,-87.59"/>
<polygon fill="#63b8ff" stroke="#63b8ff" points="301.83,-85 292.59,-79.81 296.58,-89.63 301.83,-85"/>
</a>
</g>
</g>
<!-- Node10 -->
<g id="Node000010" class="node">
<title>Node10</title>
<g id="a_Node000010"><a xlink:href="../../da/de0/traceful__exception_8hpp.html" target="_top" xlink:title="Exception that remembers the backtrace at the point of its construction.">
<polygon fill="white" stroke="#666666" points="716,-151 598,-151 598,-121 716,-121 716,-151"/>
<text text-anchor="start" x="606" y="-139" font-family="Helvetica,sans-Serif" font-size="10.00">userver/utils/traceful</text>
<text text-anchor="middle" x="657" y="-128" font-family="Helvetica,sans-Serif" font-size="10.00">_exception.hpp</text>
</a>
</g>
</g>
<!-- Node9&#45;&gt;Node10 -->
<g id="edge12_Node000009_Node000010" class="edge">
<title>Node9&#45;&gt;Node10</title>
<g id="a_edge12_Node000009_Node000010"><a xlink:title=" ">
<path fill="none" stroke="#63b8ff" d="M456.29,-192.37C491.93,-182.54 551.05,-166.23 595.91,-153.85"/>
<polygon fill="#63b8ff" stroke="#63b8ff" points="597.12,-157.15 605.83,-151.12 595.26,-150.4 597.12,-157.15"/>
</a>
</g>
</g>
<!-- Node10&#45;&gt;Node2 -->
<g id="edge14_Node000010_Node000002" class="edge">
<title>Node10&#45;&gt;Node2</title>
<g id="a_edge14_Node000010_Node000002"><a xlink:title=" ">
<path fill="none" stroke="#63b8ff" d="M597.93,-127.81C518.25,-118.11 371.92,-100.29 247,-85 219.49,-81.63 188.25,-77.8 165.44,-74.99"/>
<polygon fill="#63b8ff" stroke="#63b8ff" points="165.63,-71.49 155.28,-73.74 164.78,-78.44 165.63,-71.49"/>
</a>
</g>
</g>
<!-- Node11 -->
<g id="Node000011" class="node">
<title>Node11</title>
<g id="a_Node000011"><a xlink:title=" ">
<polygon fill="#e0e0e0" stroke="#999999" points="833.5,-79.5 768.5,-79.5 768.5,-60.5 833.5,-60.5 833.5,-79.5"/>
<text text-anchor="middle" x="801" y="-67.5" font-family="Helvetica,sans-Serif" font-size="10.00">exception</text>
</a>
</g>
</g>
<!-- Node10&#45;&gt;Node11 -->
<g id="edge13_Node000010_Node000011" class="edge">
<title>Node10&#45;&gt;Node11</title>
<g id="a_edge13_Node000010_Node000011"><a xlink:title=" ">
<path fill="none" stroke="#63b8ff" d="M688.6,-120.95C713.63,-109.83 748.3,-94.42 772.49,-83.67"/>
<polygon fill="#63b8ff" stroke="#63b8ff" points="774.12,-86.78 781.84,-79.52 771.28,-80.38 774.12,-86.78"/>
</a>
</g>
</g>
<!-- Node12 -->
<g id="Node000012" class="node">
<title>Node12</title>
<g id="a_Node000012"><a xlink:title=" ">
<polygon fill="#e0e0e0" stroke="#999999" points="1066.5,-19 997.5,-19 997.5,0 1066.5,0 1066.5,-19"/>
<text text-anchor="middle" x="1032" y="-7" font-family="Helvetica,sans-Serif" font-size="10.00">type_traits</text>
</a>
</g>
</g>
<!-- Node10&#45;&gt;Node12 -->
<g id="edge15_Node000010_Node000012" class="edge">
<title>Node10&#45;&gt;Node12</title>
<g id="a_edge15_Node000010_Node000012"><a xlink:title=" ">
<path fill="none" stroke="#63b8ff" d="M716.31,-123.3C720.93,-122.49 725.54,-121.71 730,-121 792.61,-111.02 965.5,-126.98 1013,-85 1028.52,-71.28 1032.21,-46.82 1032.7,-29.68"/>
<polygon fill="#63b8ff" stroke="#63b8ff" points="1036.2,-29.18 1032.64,-19.2 1029.2,-29.22 1036.2,-29.18"/>
</a>
</g>
</g>
<!-- Node13 -->
<g id="Node000013" class="node">
<title>Node13</title>
<g id="a_Node000013"><a xlink:title=" ">
<polygon fill="#e0e0e0" stroke="#999999" points="1139.5,-79.5 1060.5,-79.5 1060.5,-60.5 1139.5,-60.5 1139.5,-79.5"/>
<text text-anchor="middle" x="1100" y="-67.5" font-family="Helvetica,sans-Serif" font-size="10.00">fmt/format.h</text>
</a>
</g>
</g>
<!-- Node10&#45;&gt;Node13 -->
<g id="edge16_Node000010_Node000013" class="edge">
<title>Node10&#45;&gt;Node13</title>
<g id="a_edge16_Node000010_Node000013"><a xlink:title=" ">
<path fill="none" stroke="#63b8ff" d="M716.3,-123.24C720.93,-122.44 725.54,-121.68 730,-121 869.73,-99.67 907.02,-110.8 1046,-85 1050.69,-84.13 1055.58,-83.07 1060.41,-81.94"/>
<polygon fill="#63b8ff" stroke="#63b8ff" points="1061.31,-85.32 1070.18,-79.53 1059.63,-78.53 1061.31,-85.32"/>
</a>
</g>
</g>
<!-- Node14 -->
<g id="Node000014" class="node">
<title>Node14</title>
<g id="a_Node000014"><a xlink:title=" ">
<polygon fill="#e0e0e0" stroke="#999999" points="1004,-85 852,-85 852,-55 1004,-55 1004,-85"/>
<text text-anchor="start" x="860" y="-73" font-family="Helvetica,sans-Serif" font-size="10.00">boost/stacktrace/stacktrace</text>
<text text-anchor="middle" x="928" y="-62" font-family="Helvetica,sans-Serif" font-size="10.00">_fwd.hpp</text>
</a>
</g>
</g>
<!-- Node10&#45;&gt;Node14 -->
<g id="edge17_Node000010_Node000014" class="edge">
<title>Node10&#45;&gt;Node14</title>
<g id="a_edge17_Node000010_Node000014"><a xlink:title=" ">
<path fill="none" stroke="#63b8ff" d="M716.14,-121.03C758.13,-111.12 814.64,-97.77 858.74,-87.36"/>
<polygon fill="#63b8ff" stroke="#63b8ff" points="859.59,-90.75 868.52,-85.05 857.98,-83.94 859.59,-90.75"/>
</a>
</g>
</g>
<!-- Node15 -->
<g id="Node000015" class="node">
<title>Node15</title>
<g id="a_Node000015"><a xlink:href="../../d2/d84/select_8hpp.html" target="_top" xlink:title="Utilities for selection of platform specific values.">
<polygon fill="white" stroke="#666666" points="750,-79.5 598,-79.5 598,-60.5 750,-60.5 750,-79.5"/>
<text text-anchor="middle" x="674" y="-67.5" font-family="Helvetica,sans-Serif" font-size="10.00">userver/compiler/select.hpp</text>
</a>
</g>
</g>
<!-- Node10&#45;&gt;Node15 -->
<g id="edge18_Node000010_Node000015" class="edge">
<title>Node10&#45;&gt;Node15</title>
<g id="a_edge18_Node000010_Node000015"><a xlink:title=" ">
<path fill="none" stroke="#63b8ff" d="M660.77,-120.8C663.22,-111.6 666.42,-99.53 669.07,-89.58"/>
<polygon fill="#63b8ff" stroke="#63b8ff" points="672.47,-90.41 671.65,-79.84 665.7,-88.61 672.47,-90.41"/>
</a>
</g>
</g>
<!-- Node10&#45;&gt;Node17 -->
<g id="edge20_Node000010_Node000017" class="edge">
<title>Node10&#45;&gt;Node17</title>
<g id="a_edge20_Node000010_Node000017"><a xlink:title=" ">
<path fill="none" stroke="#63b8ff" d="M620.79,-120.95C596.29,-111.45 563.73,-98.82 537.48,-88.64"/>
<polygon fill="#63b8ff" stroke="#63b8ff" points="538.71,-85.37 528.13,-85.01 536.18,-91.89 538.71,-85.37"/>
</a>
</g>
</g>
<!-- Node16 -->
<g id="Node000016" class="node">
<title>Node16</title>
<g id="a_Node000016"><a xlink:title=" ">
<polygon fill="#e0e0e0" stroke="#999999" points="596.5,-19 543.5,-19 543.5,0 596.5,0 596.5,-19"/>
<text text-anchor="middle" x="570" y="-7" font-family="Helvetica,sans-Serif" font-size="10.00">cstddef</text>
</a>
</g>
</g>
<!-- Node15&#45;&gt;Node16 -->
<g id="edge19_Node000015_Node000016" class="edge">
<title>Node15&#45;&gt;Node16</title>
<g id="a_edge19_Node000015_Node000016"><a xlink:title=" ">
<path fill="none" stroke="#63b8ff" d="M658.65,-60.37C641.68,-50.82 614.1,-35.31 594.21,-24.12"/>
<polygon fill="#63b8ff" stroke="#63b8ff" points="595.84,-21.02 585.41,-19.17 592.41,-27.12 595.84,-21.02"/>
</a>
</g>
</g>
<!-- Node17&#45;&gt;Node12 -->
<g id="edge23_Node000017_Node000012" class="edge">
<title>Node17&#45;&gt;Node12</title>
<g id="a_edge23_Node000017_Node000012"><a xlink:title=" ">
<path fill="none" stroke="#63b8ff" d="M541.79,-61.39C556.93,-59.19 573.63,-56.88 589,-55 734.39,-37.21 907.26,-21.38 987.27,-14.35"/>
<polygon fill="#63b8ff" stroke="#63b8ff" points="987.82,-17.81 997.48,-13.46 987.21,-10.84 987.82,-17.81"/>
</a>
</g>
</g>
<!-- Node17&#45;&gt;Node16 -->
<g id="edge21_Node000017_Node000016" class="edge">
<title>Node17&#45;&gt;Node16</title>
<g id="a_edge21_Node000017_Node000016"><a xlink:title=" ">
<path fill="none" stroke="#63b8ff" d="M510.88,-54.84C522.78,-45.91 538.12,-34.41 550.2,-25.35"/>
<polygon fill="#63b8ff" stroke="#63b8ff" points="552.41,-28.07 558.31,-19.27 548.21,-22.47 552.41,-28.07"/>
</a>
</g>
</g>
<!-- Node18 -->
<g id="Node000018" class="node">
<title>Node18</title>
<g id="a_Node000018"><a xlink:title=" ">
<polygon fill="#e0e0e0" stroke="#999999" points="456.5,-19 419.5,-19 419.5,0 456.5,0 456.5,-19"/>
<text text-anchor="middle" x="438" y="-7" font-family="Helvetica,sans-Serif" font-size="10.00">new</text>
</a>
</g>
</g>
<!-- Node17&#45;&gt;Node18 -->
<g id="edge22_Node000017_Node000018" class="edge">
<title>Node17&#45;&gt;Node18</title>
<g id="a_edge22_Node000017_Node000018"><a xlink:title=" ">
<path fill="none" stroke="#63b8ff" d="M478.93,-54.84C471.09,-46.35 461.09,-35.52 452.94,-26.69"/>
<polygon fill="#63b8ff" stroke="#63b8ff" points="455.45,-24.24 446.09,-19.27 450.3,-28.99 455.45,-24.24"/>
</a>
</g>
</g>
<!-- Node19 -->
<g id="Node000019" class="node">
<title>Node19</title>
<g id="a_Node000019"><a xlink:title=" ">
<polygon fill="#e0e0e0" stroke="#999999" points="519.5,-19 474.5,-19 474.5,0 519.5,0 519.5,-19"/>
<text text-anchor="middle" x="497" y="-7" font-family="Helvetica,sans-Serif" font-size="10.00">utility</text>
</a>
</g>
</g>
<!-- Node17&#45;&gt;Node19 -->
<g id="edge24_Node000017_Node000019" class="edge">
<title>Node17&#45;&gt;Node19</title>
<g id="a_edge24_Node000017_Node000019"><a xlink:title=" ">
<path fill="none" stroke="#63b8ff" d="M493.21,-54.84C493.86,-47.21 494.67,-37.7 495.38,-29.45"/>
<polygon fill="#63b8ff" stroke="#63b8ff" points="498.89,-29.53 496.25,-19.27 491.91,-28.93 498.89,-29.53"/>
</a>
</g>
</g>
<!-- Node20&#45;&gt;Node2 -->
<g id="edge28_Node000020_Node000002" class="edge">
<title>Node20&#45;&gt;Node2</title>
<g id="a_edge28_Node000020_Node000002"><a xlink:title=" ">
<path fill="none" stroke="#63b8ff" d="M140.82,-318.91C107.98,-309.66 71.62,-296.74 62,-283 20.73,-224 28.84,-184.91 62,-121 70.51,-104.6 87.15,-92.44 102.18,-84.22"/>
<polygon fill="#63b8ff" stroke="#63b8ff" points="103.91,-87.27 111.24,-79.61 100.74,-81.03 103.91,-87.27"/>
</a>
</g>
</g>
<!-- Node20&#45;&gt;Node5 -->
<g id="edge26_Node000020_Node000005" class="edge">
<title>Node20&#45;&gt;Node5</title>
<g id="a_edge26_Node000020_Node000005"><a xlink:title=" ">
<path fill="none" stroke="#63b8ff" d="M142.36,-318.93C124.05,-311.41 105.72,-300.04 95,-283 87.9,-271.71 89.77,-265.26 95,-253 129.25,-172.77 218.15,-110.95 261.09,-84.73"/>
<polygon fill="#63b8ff" stroke="#63b8ff" points="262.98,-87.68 269.76,-79.54 259.38,-81.67 262.98,-87.68"/>
</a>
</g>
</g>
<!-- Node20&#45;&gt;Node6 -->
<g id="edge27_Node000020_Node000006" class="edge">
<title>Node20&#45;&gt;Node6</title>
<g id="a_edge27_Node000020_Node000006"><a xlink:title=" ">
<path fill="none" stroke="#63b8ff" d="M184.13,-318.8C173.58,-308.72 159.42,-295.19 148.52,-284.78"/>
<polygon fill="#63b8ff" stroke="#63b8ff" points="150.91,-282.22 141.26,-277.84 146.07,-287.28 150.91,-282.22"/>
</a>
</g>
</g>
<!-- Node20&#45;&gt;Node7 -->
<g id="edge29_Node000020_Node000007" class="edge">
<title>Node20&#45;&gt;Node7</title>
<g id="a_edge29_Node000020_Node000007"><a xlink:title=" ">
<path fill="none" stroke="#63b8ff" d="M237.78,-318.99C297.17,-297.45 414.2,-254.75 513,-217 546.92,-204.04 554.01,-196.71 589,-187 760.94,-139.31 808.29,-145.73 985,-121 1128.14,-100.97 1298.28,-83.45 1379.01,-75.51"/>
<polygon fill="#63b8ff" stroke="#63b8ff" points="1379.72,-78.96 1389.33,-74.5 1379.04,-71.99 1379.72,-78.96"/>
</a>
</g>
</g>
<!-- Node20&#45;&gt;Node8 -->
<g id="edge30_Node000020_Node000008" class="edge">
<title>Node20&#45;&gt;Node8</title>
<g id="a_edge30_Node000020_Node000008"><a xlink:title=" ">
<path fill="none" stroke="#63b8ff" d="M207.21,-318.8C211.76,-310.92 217.53,-300.95 222.71,-291.99"/>
<polygon fill="#63b8ff" stroke="#63b8ff" points="225.84,-293.57 227.81,-283.16 219.78,-290.07 225.84,-293.57"/>
</a>
</g>
</g>
<!-- Node21&#45;&gt;Node12 -->
<g id="edge33_Node000021_Node000012" class="edge">
<title>Node21&#45;&gt;Node12</title>
<g id="a_edge33_Node000021_Node000012"><a xlink:title=" ">
<path fill="none" stroke="#63b8ff" d="M1724.4,-192.41C1750.17,-177.82 1795.11,-147.23 1774,-121 1729.84,-66.15 1230.68,-25.11 1076.85,-13.69"/>
<polygon fill="#63b8ff" stroke="#63b8ff" points="1077.04,-10.2 1066.81,-12.95 1076.52,-17.18 1077.04,-10.2"/>
</a>
</g>
</g>
<!-- Node22 -->
<g id="Node000022" class="node">
<title>Node22</title>
<g id="a_Node000022"><a xlink:title=" ">
<polygon fill="#e0e0e0" stroke="#999999" points="1765,-145.5 1715,-145.5 1715,-126.5 1765,-126.5 1765,-145.5"/>
<text text-anchor="middle" x="1740" y="-133.5" font-family="Helvetica,sans-Serif" font-size="10.00">chrono</text>
</a>
</g>
</g>
<!-- Node21&#45;&gt;Node22 -->
<g id="edge32_Node000021_Node000022" class="edge">
<title>Node21&#45;&gt;Node22</title>
<g id="a_edge32_Node000021_Node000022"><a xlink:title=" ">
<path fill="none" stroke="#63b8ff" d="M1712.32,-192.37C1717.06,-182.88 1724.82,-167.36 1730.92,-155.16"/>
<polygon fill="#63b8ff" stroke="#63b8ff" points="1734.21,-156.41 1735.55,-145.91 1727.94,-153.28 1734.21,-156.41"/>
</a>
</g>
</g>
<!-- Node23 -->
<g id="Node000023" class="node">
<title>Node23</title>
<g id="a_Node000023"><a xlink:href="../../d2/d54/assert_8hpp.html" target="_top" xlink:title="Assertion macros UASSERT, UASSERT_MSG, UINVARIANT.">
<polygon fill="white" stroke="#666666" points="1696.5,-145.5 1565.5,-145.5 1565.5,-126.5 1696.5,-126.5 1696.5,-145.5"/>
<text text-anchor="middle" x="1631" y="-133.5" font-family="Helvetica,sans-Serif" font-size="10.00">userver/utils/assert.hpp</text>
</a>
</g>
</g>
<!-- Node21&#45;&gt;Node23 -->
<g id="edge34_Node000021_Node000023" class="edge">
<title>Node21&#45;&gt;Node23</title>
<g id="a_edge34_Node000021_Node000023"><a xlink:title=" ">
<path fill="none" stroke="#63b8ff" d="M1697.62,-192.37C1685.28,-182.12 1664.49,-164.84 1649.41,-152.31"/>
<polygon fill="#63b8ff" stroke="#63b8ff" points="1651.64,-149.61 1641.71,-145.91 1647.17,-154.99 1651.64,-149.61"/>
</a>
</g>
</g>
<!-- Node23&#45;&gt;Node7 -->
<g id="edge35_Node000023_Node000007" class="edge">
<title>Node23&#45;&gt;Node7</title>
<g id="a_edge35_Node000023_Node000007"><a xlink:title=" ">
<path fill="none" stroke="#63b8ff" d="M1603.35,-126.37C1567.18,-115.08 1503.67,-95.25 1463.28,-82.64"/>
<polygon fill="#63b8ff" stroke="#63b8ff" points="1464.12,-79.24 1453.54,-79.6 1462.04,-85.92 1464.12,-79.24"/>
</a>
</g>
</g>
<!-- Node24&#45;&gt;Node5 -->
<g id="edge38_Node000024_Node000005" class="edge">
<title>Node24&#45;&gt;Node5</title>
<g id="a_edge38_Node000024_Node000005"><a xlink:title=" ">
<path fill="none" stroke="#63b8ff" d="M721.96,-258.44C709.2,-256.53 695.63,-254.61 683,-253 606.09,-243.23 396.81,-265.08 336,-217 296.42,-185.71 287.47,-121.68 285.51,-89.84"/>
<polygon fill="#63b8ff" stroke="#63b8ff" points="288.99,-89.53 285.05,-79.69 282,-89.84 288.99,-89.53"/>
</a>
</g>
</g>
<!-- Node24&#45;&gt;Node16 -->
<g id="edge37_Node000024_Node000016" class="edge">
<title>Node24&#45;&gt;Node16</title>
<g id="a_edge37_Node000024_Node000016"><a xlink:title=" ">
<path fill="none" stroke="#63b8ff" d="M772.02,-258.29C764.02,-241.79 744.4,-205.94 717,-187 668.39,-153.4 627.77,-195.6 589,-151 559.21,-116.72 562.49,-58.87 566.65,-29.23"/>
<polygon fill="#63b8ff" stroke="#63b8ff" points="570.15,-29.47 568.27,-19.04 563.24,-28.37 570.15,-29.47"/>
</a>
</g>
</g>
<!-- Node24&#45;&gt;Node21 -->
<g id="edge39_Node000024_Node000021" class="edge">
<title>Node24&#45;&gt;Node21</title>
<g id="a_edge39_Node000024_Node000021"><a xlink:title=" ">
<path fill="none" stroke="#63b8ff" d="M845.91,-258.47C864.14,-256.45 883.79,-254.47 902,-253 1221.37,-227.3 1303.39,-250.79 1622,-217 1631.6,-215.98 1641.76,-214.6 1651.6,-213.1"/>
<polygon fill="#63b8ff" stroke="#63b8ff" points="1652.38,-216.52 1661.71,-211.51 1651.29,-209.61 1652.38,-216.52"/>
</a>
</g>
</g>
<!-- Node25&#45;&gt;Node21 -->
<g id="edge43_Node000025_Node000021" class="edge">
<title>Node25&#45;&gt;Node21</title>
<g id="a_edge43_Node000025_Node000021"><a xlink:title=" ">
<path fill="none" stroke="#63b8ff" d="M1253.64,-326.81C1322.86,-320.08 1425.91,-306.92 1513,-283 1575.68,-265.78 1645.26,-233.94 1681.98,-216.06"/>
<polygon fill="#63b8ff" stroke="#63b8ff" points="1683.58,-219.18 1691.02,-211.62 1680.5,-212.89 1683.58,-219.18"/>
</a>
</g>
</g>
<!-- Node25&#45;&gt;Node24 -->
<g id="edge44_Node000025_Node000024" class="edge">
<title>Node25&#45;&gt;Node24</title>
<g id="a_edge44_Node000025_Node000024"><a xlink:title=" ">
<path fill="none" stroke="#63b8ff" d="M1121.6,-324.44C1048.44,-312.7 917.25,-291.66 839.25,-279.15"/>
<polygon fill="#63b8ff" stroke="#63b8ff" points="839.51,-275.64 829.08,-277.51 838.4,-282.55 839.51,-275.64"/>
</a>
</g>
</g>
<!-- Node26 -->
<g id="Node000026" class="node">
<title>Node26</title>
<g id="a_Node000026"><a xlink:title=" ">
<polygon fill="#e0e0e0" stroke="#999999" points="1421.5,-211.5 1344.5,-211.5 1344.5,-192.5 1421.5,-192.5 1421.5,-211.5"/>
<text text-anchor="middle" x="1383" y="-199.5" font-family="Helvetica,sans-Serif" font-size="10.00">sys/socket.h</text>
</a>
</g>
</g>
<!-- Node25&#45;&gt;Node26 -->
<g id="edge41_Node000025_Node000026" class="edge">
<title>Node25&#45;&gt;Node26</title>
<g id="a_edge41_Node000025_Node000026"><a xlink:title=" ">
<path fill="none" stroke="#63b8ff" d="M1230.5,-324.48C1262.11,-317.47 1301.05,-304.96 1330,-283 1351.41,-266.77 1366.87,-239.24 1375.39,-221.09"/>
<polygon fill="#63b8ff" stroke="#63b8ff" points="1378.62,-222.43 1379.5,-211.88 1372.23,-219.59 1378.62,-222.43"/>
</a>
</g>
</g>
<!-- Node27 -->
<g id="Node000027" class="node">
<title>Node27</title>
<g id="a_Node000027"><a xlink:title=" ">
<polygon fill="#e0e0e0" stroke="#999999" points="1503.5,-277.5 1420.5,-277.5 1420.5,-258.5 1503.5,-258.5 1503.5,-277.5"/>
<text text-anchor="middle" x="1462" y="-265.5" font-family="Helvetica,sans-Serif" font-size="10.00">initializer_list</text>
</a>
</g>
</g>
<!-- Node25&#45;&gt;Node27 -->
<g id="edge42_Node000025_Node000027" class="edge">
<title>Node25&#45;&gt;Node27</title>
<g id="a_edge42_Node000025_Node000027"><a xlink:title=" ">
<path fill="none" stroke="#63b8ff" d="M1216.4,-324.45C1262.7,-314.8 1339.86,-298.42 1406,-283 1410.12,-282.04 1414.4,-281.02 1418.68,-279.98"/>
<polygon fill="#63b8ff" stroke="#63b8ff" points="1419.71,-283.33 1428.58,-277.54 1418.03,-276.53 1419.71,-283.33"/>
</a>
</g>
</g>
<!-- Node28 -->
<g id="Node000028" class="node">
<title>Node28</title>
<g id="a_Node000028"><a xlink:href="../../d1/d76/core_2include_2userver_2engine_2io_2exception_8hpp.html" target="_top" xlink:title="I/O exceptions.">
<polygon fill="white" stroke="#666666" points="1612.5,-211.5 1439.5,-211.5 1439.5,-192.5 1612.5,-192.5 1612.5,-211.5"/>
<text text-anchor="middle" x="1526" y="-199.5" font-family="Helvetica,sans-Serif" font-size="10.00">userver/engine/io/exception.hpp</text>
</a>
</g>
</g>
<!-- Node25&#45;&gt;Node28 -->
<g id="edge45_Node000025_Node000028" class="edge">
<title>Node25&#45;&gt;Node28</title>
<g id="a_edge45_Node000025_Node000028"><a xlink:title=" ">
<path fill="none" stroke="#63b8ff" d="M1216.74,-324.43C1254.22,-316.06 1310.36,-301.83 1357,-283 1382.82,-272.58 1387,-265.27 1412,-253 1440.01,-239.25 1472.68,-225.11 1495.85,-215.39"/>
<polygon fill="#63b8ff" stroke="#63b8ff" points="1497.28,-218.58 1505.16,-211.51 1494.58,-212.12 1497.28,-218.58"/>
</a>
</g>
</g>
<!-- Node31 -->
<g id="Node000031" class="node">
<title>Node31</title>
<g id="a_Node000031"><a xlink:href="../../db/d29/fd__control__holder_8hpp_source.html" target="_top" xlink:title=" ">
<polygon fill="white" stroke="#666666" points="674,-283 560,-283 560,-253 674,-253 674,-283"/>
<text text-anchor="start" x="568" y="-271" font-family="Helvetica,sans-Serif" font-size="10.00">userver/engine/io/fd</text>
<text text-anchor="middle" x="617" y="-260" font-family="Helvetica,sans-Serif" font-size="10.00">_control_holder.hpp</text>
</a>
</g>
</g>
<!-- Node25&#45;&gt;Node31 -->
<g id="edge50_Node000025_Node000031" class="edge">
<title>Node25&#45;&gt;Node31</title>
<g id="a_edge50_Node000025_Node000031"><a xlink:title=" ">
<path fill="none" stroke="#63b8ff" d="M1096.27,-327.63C1000.94,-320.53 835.36,-306.31 684.11,-283.06"/>
<polygon fill="#63b8ff" stroke="#63b8ff" points="684.59,-279.6 674.17,-281.52 683.51,-286.51 684.59,-279.6"/>
</a>
</g>
</g>
<!-- Node32 -->
<g id="Node000032" class="node">
<title>Node32</title>
<g id="a_Node000032"><a xlink:href="../../d7/d1b/sockaddr_8hpp.html" target="_top" xlink:title="Native socket address wrapper.">
<polygon fill="white" stroke="#666666" points="1079,-277.5 911,-277.5 911,-258.5 1079,-258.5 1079,-277.5"/>
<text text-anchor="middle" x="995" y="-265.5" font-family="Helvetica,sans-Serif" font-size="10.00">userver/engine/io/sockaddr.hpp</text>
</a>
</g>
</g>
<!-- Node25&#45;&gt;Node32 -->
<g id="edge52_Node000025_Node000032" class="edge">
<title>Node25&#45;&gt;Node32</title>
<g id="a_edge52_Node000025_Node000032"><a xlink:title=" ">
<path fill="none" stroke="#63b8ff" d="M1150.72,-324.37C1119.23,-313.17 1064.14,-293.58 1028.64,-280.96"/>
<polygon fill="#63b8ff" stroke="#63b8ff" points="1029.77,-277.65 1019.18,-277.6 1027.43,-284.24 1029.77,-277.65"/>
</a>
</g>
</g>
<!-- Node28&#45;&gt;Node7 -->
<g id="edge47_Node000028_Node000007" class="edge">
<title>Node28&#45;&gt;Node7</title>
<g id="a_edge47_Node000028_Node000007"><a xlink:title=" ">
<path fill="none" stroke="#63b8ff" d="M1527.57,-192.44C1529.94,-176.81 1532.75,-143.21 1518,-121 1506.09,-103.08 1485.53,-91.04 1466.86,-83.27"/>
<polygon fill="#63b8ff" stroke="#63b8ff" points="1467.91,-79.93 1457.32,-79.6 1465.39,-86.46 1467.91,-79.93"/>
</a>
</g>
</g>
<!-- Node28&#45;&gt;Node10 -->
<g id="edge49_Node000028_Node000010" class="edge">
<title>Node28&#45;&gt;Node10</title>
<g id="a_edge49_Node000028_Node000010"><a xlink:title=" ">
<path fill="none" stroke="#63b8ff" d="M1473.34,-192.46C1459.58,-190.44 1444.76,-188.46 1431,-187 1171.94,-159.59 862.4,-145.05 726.63,-139.59"/>
<polygon fill="#63b8ff" stroke="#63b8ff" points="726.5,-136.08 716.37,-139.18 726.23,-143.07 726.5,-136.08"/>
</a>
</g>
</g>
<!-- Node29 -->
<g id="Node000029" class="node">
<title>Node29</title>
<g id="a_Node000029"><a xlink:title=" ">
<polygon fill="#e0e0e0" stroke="#999999" points="1409.5,-145.5 1344.5,-145.5 1344.5,-126.5 1409.5,-126.5 1409.5,-145.5"/>
<text text-anchor="middle" x="1377" y="-133.5" font-family="Helvetica,sans-Serif" font-size="10.00">stdexcept</text>
</a>
</g>
</g>
<!-- Node28&#45;&gt;Node29 -->
<g id="edge46_Node000028_Node000029" class="edge">
<title>Node28&#45;&gt;Node29</title>
<g id="a_edge46_Node000028_Node000029"><a xlink:title=" ">
<path fill="none" stroke="#63b8ff" d="M1505.91,-192.37C1480.36,-181.39 1436.04,-162.36 1406.61,-149.72"/>
<polygon fill="#63b8ff" stroke="#63b8ff" points="1407.82,-146.43 1397.25,-145.7 1405.06,-152.86 1407.82,-146.43"/>
</a>
</g>
</g>
<!-- Node30 -->
<g id="Node000030" class="node">
<title>Node30</title>
<g id="a_Node000030"><a xlink:title=" ">
<polygon fill="#e0e0e0" stroke="#999999" points="1508.5,-145.5 1427.5,-145.5 1427.5,-126.5 1508.5,-126.5 1508.5,-145.5"/>
<text text-anchor="middle" x="1468" y="-133.5" font-family="Helvetica,sans-Serif" font-size="10.00">system_error</text>
</a>
</g>
</g>
<!-- Node28&#45;&gt;Node30 -->
<g id="edge48_Node000028_Node000030" class="edge">
<title>Node28&#45;&gt;Node30</title>
<g id="a_edge48_Node000028_Node000030"><a xlink:title=" ">
<path fill="none" stroke="#63b8ff" d="M1518.18,-192.37C1509.15,-182.4 1494.09,-165.79 1482.83,-153.36"/>
<polygon fill="#63b8ff" stroke="#63b8ff" points="1485.38,-150.96 1476.07,-145.91 1480.19,-155.67 1485.38,-150.96"/>
</a>
</g>
</g>
<!-- Node31&#45;&gt;Node5 -->
<g id="edge51_Node000031_Node000005" class="edge">
<title>Node31&#45;&gt;Node5</title>
<g id="a_edge51_Node000031_Node000005"><a xlink:title=" ">
<path fill="none" stroke="#63b8ff" d="M559.87,-262.92C465.37,-255.57 284.96,-238.85 266,-217 234.39,-180.57 259.7,-118.54 275.19,-88.43"/>
<polygon fill="#63b8ff" stroke="#63b8ff" points="278.32,-89.99 279.97,-79.52 272.16,-86.67 278.32,-89.99"/>
</a>
</g>
</g>
<!-- Node32&#45;&gt;Node2 -->
<g id="edge58_Node000032_Node000002" class="edge">
<title>Node32&#45;&gt;Node2</title>
<g id="a_edge58_Node000032_Node000002"><a xlink:title=" ">
<path fill="none" stroke="#63b8ff" d="M923.09,-258.47C905.42,-256.52 886.54,-254.57 869,-253 750.76,-242.44 447.7,-257.2 336,-217 256.17,-188.27 179.92,-118.31 148.3,-86.82"/>
<polygon fill="#63b8ff" stroke="#63b8ff" points="150.78,-84.34 141.25,-79.69 145.8,-89.27 150.78,-84.34"/>
</a>
</g>
</g>
<!-- Node32&#45;&gt;Node13 -->
<g id="edge59_Node000032_Node000013" class="edge">
<title>Node32&#45;&gt;Node13</title>
<g id="a_edge59_Node000032_Node000013"><a xlink:title=" ">
<path fill="none" stroke="#63b8ff" d="M923.2,-258.5C872.19,-250.81 810.03,-237.5 794,-217 785.79,-206.5 786.43,-197.97 794,-187 824.31,-143.09 974.85,-101.17 1052.89,-81.96"/>
<polygon fill="#63b8ff" stroke="#63b8ff" points="1054.06,-85.28 1062.95,-79.51 1052.41,-78.48 1054.06,-85.28"/>
</a>
</g>
</g>
<!-- Node32&#45;&gt;Node26 -->
<g id="edge54_Node000032_Node000026" class="edge">
<title>Node32&#45;&gt;Node26</title>
<g id="a_edge54_Node000032_Node000026"><a xlink:title=" ">
<path fill="none" stroke="#63b8ff" d="M1046.92,-258.44C1122.26,-246.01 1260.88,-223.14 1334.34,-211.03"/>
<polygon fill="#63b8ff" stroke="#63b8ff" points="1334.96,-214.47 1344.26,-209.39 1333.82,-207.56 1334.96,-214.47"/>
</a>
</g>
</g>
<!-- Node33 -->
<g id="Node000033" class="node">
<title>Node33</title>
<g id="a_Node000033"><a xlink:title=" ">
<polygon fill="#e0e0e0" stroke="#999999" points="1198,-211.5 1126,-211.5 1126,-192.5 1198,-192.5 1198,-211.5"/>
<text text-anchor="middle" x="1162" y="-199.5" font-family="Helvetica,sans-Serif" font-size="10.00">netinet/in.h</text>
</a>
</g>
</g>
<!-- Node32&#45;&gt;Node33 -->
<g id="edge53_Node000032_Node000033" class="edge">
<title>Node32&#45;&gt;Node33</title>
<g id="a_edge53_Node000032_Node000033"><a xlink:title=" ">
<path fill="none" stroke="#63b8ff" d="M1017.52,-258.37C1046.49,-247.27 1096.98,-227.92 1129.94,-215.28"/>
<polygon fill="#63b8ff" stroke="#63b8ff" points="1131.48,-218.44 1139.57,-211.6 1128.98,-211.91 1131.48,-218.44"/>
</a>
</g>
</g>
<!-- Node34 -->
<g id="Node000034" class="node">
<title>Node34</title>
<g id="a_Node000034"><a xlink:title=" ">
<polygon fill="#e0e0e0" stroke="#999999" points="1288,-211.5 1216,-211.5 1216,-192.5 1288,-192.5 1288,-211.5"/>
<text text-anchor="middle" x="1252" y="-199.5" font-family="Helvetica,sans-Serif" font-size="10.00">sys/types.h</text>
</a>
</g>
</g>
<!-- Node32&#45;&gt;Node34 -->
<g id="edge55_Node000032_Node000034" class="edge">
<title>Node32&#45;&gt;Node34</title>
<g id="a_edge55_Node000032_Node000034"><a xlink:title=" ">
<path fill="none" stroke="#63b8ff" d="M1035.07,-258.43C1077.85,-249.07 1147.54,-233.24 1207,-217 1209.81,-216.23 1212.71,-215.41 1215.62,-214.55"/>
<polygon fill="#63b8ff" stroke="#63b8ff" points="1216.87,-217.83 1225.44,-211.6 1214.86,-211.13 1216.87,-217.83"/>
</a>
</g>
</g>
<!-- Node35 -->
<g id="Node000035" class="node">
<title>Node35</title>
<g id="a_Node000035"><a xlink:title=" ">
<polygon fill="#e0e0e0" stroke="#999999" points="859.5,-211.5 802.5,-211.5 802.5,-192.5 859.5,-192.5 859.5,-211.5"/>
<text text-anchor="middle" x="831" y="-199.5" font-family="Helvetica,sans-Serif" font-size="10.00">sys/un.h</text>
</a>
</g>
</g>
<!-- Node32&#45;&gt;Node35 -->
<g id="edge56_Node000032_Node000035" class="edge">
<title>Node32&#45;&gt;Node35</title>
<g id="a_edge56_Node000032_Node000035"><a xlink:title=" ">
<path fill="none" stroke="#63b8ff" d="M972.88,-258.37C944.44,-247.27 894.85,-227.92 862.48,-215.28"/>
<polygon fill="#63b8ff" stroke="#63b8ff" points="863.62,-211.97 853.03,-211.6 861.07,-218.49 863.62,-211.97"/>
</a>
</g>
</g>
<!-- Node36 -->
<g id="Node000036" class="node">
<title>Node36</title>
<g id="a_Node000036"><a xlink:title=" ">
<polygon fill="#e0e0e0" stroke="#999999" points="928,-211.5 878,-211.5 878,-192.5 928,-192.5 928,-211.5"/>
<text text-anchor="middle" x="903" y="-199.5" font-family="Helvetica,sans-Serif" font-size="10.00">cstring</text>
</a>
</g>
</g>
<!-- Node32&#45;&gt;Node36 -->
<g id="edge57_Node000032_Node000036" class="edge">
<title>Node32&#45;&gt;Node36</title>
<g id="a_edge57_Node000032_Node000036"><a xlink:title=" ">
<path fill="none" stroke="#63b8ff" d="M982.59,-258.37C967.64,-247.97 942.28,-230.32 924.2,-217.75"/>
<polygon fill="#63b8ff" stroke="#63b8ff" points="925.71,-214.54 915.5,-211.7 921.72,-220.28 925.71,-214.54"/>
</a>
</g>
</g>
<!-- Node37 -->
<g id="Node000037" class="node">
<title>Node37</title>
<g id="a_Node000037"><a xlink:href="../../d3/d6c/fmt__compat_8hpp_source.html" target="_top" xlink:title=" ">
<polygon fill="white" stroke="#666666" points="1107.5,-211.5 946.5,-211.5 946.5,-192.5 1107.5,-192.5 1107.5,-211.5"/>
<text text-anchor="middle" x="1027" y="-199.5" font-family="Helvetica,sans-Serif" font-size="10.00">userver/utils/fmt_compat.hpp</text>
</a>
</g>
</g>
<!-- Node32&#45;&gt;Node37 -->
<g id="edge60_Node000032_Node000037" class="edge">
<title>Node32&#45;&gt;Node37</title>
<g id="a_edge60_Node000032_Node000037"><a xlink:title=" ">
<path fill="none" stroke="#63b8ff" d="M999.32,-258.37C1004.06,-248.88 1011.82,-233.36 1017.92,-221.16"/>
<polygon fill="#63b8ff" stroke="#63b8ff" points="1021.21,-222.41 1022.55,-211.91 1014.94,-219.28 1021.21,-222.41"/>
</a>
</g>
</g>
<!-- Node39 -->
<g id="Node000039" class="node">
<title>Node39</title>
<g id="a_Node000039"><a xlink:href="../../d0/d14/log__helper__fwd_8hpp.html" target="_top" xlink:title=" ">
<polygon fill="white" stroke="#666666" points="708,-217 598,-217 598,-187 708,-187 708,-217"/>
<text text-anchor="start" x="606" y="-205" font-family="Helvetica,sans-Serif" font-size="10.00">userver/logging/log</text>
<text text-anchor="middle" x="653" y="-194" font-family="Helvetica,sans-Serif" font-size="10.00">_helper_fwd.hpp</text>
</a>
</g>
</g>
<!-- Node32&#45;&gt;Node39 -->
<g id="edge62_Node000032_Node000039" class="edge">
<title>Node32&#45;&gt;Node39</title>
<g id="a_edge62_Node000032_Node000039"><a xlink:title=" ">
<path fill="none" stroke="#63b8ff" d="M949.23,-258.44C889.85,-247.32 785.86,-227.86 718.23,-215.21"/>
<polygon fill="#63b8ff" stroke="#63b8ff" points="718.59,-211.71 708.11,-213.31 717.3,-218.59 718.59,-211.71"/>
</a>
</g>
</g>
<!-- Node38 -->
<g id="Node000038" class="node">
<title>Node38</title>
<g id="a_Node000038"><a xlink:title=" ">
<polygon fill="#e0e0e0" stroke="#999999" points="1060.5,-145.5 993.5,-145.5 993.5,-126.5 1060.5,-126.5 1060.5,-145.5"/>
<text text-anchor="middle" x="1027" y="-133.5" font-family="Helvetica,sans-Serif" font-size="10.00">fmt/core.h</text>
</a>
</g>
</g>
<!-- Node37&#45;&gt;Node38 -->
<g id="edge61_Node000037_Node000038" class="edge">
<title>Node37&#45;&gt;Node38</title>
<g id="a_edge61_Node000037_Node000038"><a xlink:title=" ">
<path fill="none" stroke="#63b8ff" d="M1027,-192.37C1027,-183.16 1027,-168.29 1027,-156.27"/>
<polygon fill="#63b8ff" stroke="#63b8ff" points="1030.5,-155.91 1027,-145.91 1023.5,-155.91 1030.5,-155.91"/>
</a>
</g>
</g>
<!-- Node40 -->
<g id="Node000040" class="node">
<title>Node40</title>
<g id="a_Node000040"><a xlink:href="../../db/dfb/universal_2include_2userver_2logging_2fwd_8hpp.html" target="_top" xlink:title="Forward declarations for logging types.">
<polygon fill="white" stroke="#666666" points="504,-145.5 370,-145.5 370,-126.5 504,-126.5 504,-145.5"/>
<text text-anchor="middle" x="437" y="-133.5" font-family="Helvetica,sans-Serif" font-size="10.00">userver/logging/fwd.hpp</text>
</a>
</g>
</g>
<!-- Node39&#45;&gt;Node40 -->
<g id="edge63_Node000039_Node000040" class="edge">
<title>Node39&#45;&gt;Node40</title>
<g id="a_edge63_Node000039_Node000040"><a xlink:title=" ">
<path fill="none" stroke="#63b8ff" d="M605.6,-186.95C566.55,-175.38 511.87,-159.18 475.49,-148.41"/>
<polygon fill="#63b8ff" stroke="#63b8ff" points="476.33,-145 465.75,-145.52 474.34,-151.71 476.33,-145"/>
</a>
</g>
</g>
<!-- Node40&#45;&gt;Node5 -->
<g id="edge64_Node000040_Node000005" class="edge">
<title>Node40&#45;&gt;Node5</title>
<g id="a_edge64_Node000040_Node000005"><a xlink:title=" ">
<path fill="none" stroke="#63b8ff" d="M416.5,-126.37C390.44,-115.39 345.22,-96.36 315.21,-83.72"/>
<polygon fill="#63b8ff" stroke="#63b8ff" points="316.23,-80.35 305.66,-79.7 313.52,-86.81 316.23,-80.35"/>
</a>
</g>
</g>
</g>
</svg>
