<?xml version="1.0" encoding="UTF-8" standalone="no"?>
<!DOCTYPE svg PUBLIC "-//W3C//DTD SVG 1.1//EN"
 "http://www.w3.org/Graphics/SVG/1.1/DTD/svg11.dtd">
<!-- Generated by graphviz version 2.43.0 (0)
 -->
<!-- Title: components::Logging Pages: 1 -->
<svg width="327pt" height="160pt"
 viewBox="0.00 0.00 327.00 160.00" xmlns="http://www.w3.org/2000/svg" xmlns:xlink="http://www.w3.org/1999/xlink">
<g id="graph0" class="graph" transform="scale(1 1) rotate(0) translate(4 156)">
<title>components::Logging</title>
<!-- Node1 -->
<g id="Node000001" class="node">
<title>Node1</title>
<g id="a_Node000001"><a xlink:title="Logging component">
<polygon fill="#999999" stroke="#666666" points="172,-19 51,-19 51,0 172,0 172,-19"/>
<text text-anchor="middle" x="111.5" y="-7" font-family="Helvetica,sans-Serif" font-size="10.00">components::Logging</text>
</a>
</g>
</g>
<!-- Node2 -->
<g id="Node000002" class="node">
<title>Node2</title>
<g id="a_Node000002"><a xlink:title=" ">
<polygon fill="white" stroke="#666666" points="191,-85 0,-85 0,-66 191,-66 191,-85"/>
<text text-anchor="middle" x="95.5" y="-73" font-family="Helvetica,sans-Serif" font-size="10.00">components::impl::ComponentBase</text>
</a>
</g>
</g>
<!-- Node2&#45;&gt;Node1 -->
<g id="edge1_Node000001_Node000002" class="edge">
<title>Node2&#45;&gt;Node1</title>
<g id="a_edge1_Node000001_Node000002"><a xlink:title=" ">
<path fill="none" stroke="#63b8ff" d="M100.14,-55.95C103.14,-43.93 106.92,-28.82 109.27,-19.41"/>
<polygon fill="#63b8ff" stroke="#63b8ff" points="96.69,-55.32 97.66,-65.87 103.48,-57.02 96.69,-55.32"/>
</a>
</g>
</g>
<!-- Node3 -->
<g id="Node000003" class="node">
<title>Node3</title>
<g id="a_Node000003"><a xlink:title=" ">
<polygon fill="white" stroke="#666666" points="303.5,-85 209.5,-85 209.5,-66 303.5,-66 303.5,-85"/>
<text text-anchor="middle" x="256.5" y="-73" font-family="Helvetica,sans-Serif" font-size="10.00">std::string_view</text>
</a>
</g>
</g>
<!-- Node3&#45;&gt;Node1 -->
<g id="edge2_Node000001_Node000003" class="edge">
<title>Node3&#45;&gt;Node1</title>
<g id="a_edge2_Node000001_Node000003"><a xlink:title=" ">
<path fill="none" stroke="#9a32cd" stroke-dasharray="5,2" d="M227.49,-61.69C198.91,-49.08 156.04,-30.16 131.21,-19.2"/>
<polygon fill="#9a32cd" stroke="#9a32cd" points="226.38,-65.03 236.94,-65.87 229.21,-58.63 226.38,-65.03"/>
</a>
</g>
<text text-anchor="middle" x="212" y="-40" font-family="Helvetica,sans-Serif" font-size="10.00" fill="grey"> kName</text>
</g>
<!-- Node4 -->
<g id="Node000004" class="node">
<title>Node4</title>
<g id="a_Node000004"><a xlink:title=" ">
<polygon fill="white" stroke="#666666" points="319,-152 194,-152 194,-122 319,-122 319,-152"/>
<text text-anchor="start" x="202" y="-140" font-family="Helvetica,sans-Serif" font-size="10.00">std::basic_string_view</text>
<text text-anchor="middle" x="256.5" y="-129" font-family="Helvetica,sans-Serif" font-size="10.00">&lt; Char &gt;</text>
</a>
</g>
</g>
<!-- Node4&#45;&gt;Node3 -->
<g id="edge3_Node000003_Node000004" class="edge">
<title>Node4&#45;&gt;Node3</title>
<g id="a_edge3_Node000003_Node000004"><a xlink:title=" ">
<path fill="none" stroke="#63b8ff" d="M256.5,-111.79C256.5,-102.36 256.5,-92.15 256.5,-85.16"/>
<polygon fill="#63b8ff" stroke="#63b8ff" points="253,-111.9 256.5,-121.9 260,-111.9 253,-111.9"/>
</a>
</g>
</g>
</g>
</svg>
