<?xml version="1.0" encoding="UTF-8" standalone="no"?>
<!DOCTYPE svg PUBLIC "-//W3C//DTD SVG 1.1//EN"
 "http://www.w3.org/Graphics/SVG/1.1/DTD/svg11.dtd">
<!-- Generated by graphviz version 2.43.0 (0)
 -->
<!-- Title: userver/formats/yaml/value_builder.hpp Pages: 1 -->
<svg width="286pt" height="104pt"
 viewBox="0.00 0.00 285.50 104.00" xmlns="http://www.w3.org/2000/svg" xmlns:xlink="http://www.w3.org/1999/xlink">
<g id="graph0" class="graph" transform="scale(1 1) rotate(0) translate(4 100)">
<title>userver/formats/yaml/value_builder.hpp</title>
<!-- Node1 -->
<g id="Node000001" class="node">
<title>Node1</title>
<g id="a_Node000001"><a xlink:title="Builder for YAML.">
<polygon fill="#999999" stroke="#666666" points="193,-96 71,-96 71,-66 193,-66 193,-96"/>
<text text-anchor="start" x="79" y="-84" font-family="Helvetica,sans-Serif" font-size="10.00">userver/formats/yaml</text>
<text text-anchor="middle" x="132" y="-73" font-family="Helvetica,sans-Serif" font-size="10.00">/value_builder.hpp</text>
</a>
</g>
</g>
<!-- Node2 -->
<g id="Node000002" class="node">
<title>Node2</title>
<g id="a_Node000002"><a xlink:href="../../db/dfa/type__bundle__cpp_8hpp_source.html" target="_top" xlink:title=" ">
<polygon fill="white" stroke="#666666" points="116,-30 0,-30 0,0 116,0 116,-30"/>
<text text-anchor="start" x="8" y="-18" font-family="Helvetica,sans-Serif" font-size="10.00">userver/chaotic/type</text>
<text text-anchor="middle" x="58" y="-7" font-family="Helvetica,sans-Serif" font-size="10.00">_bundle_cpp.hpp</text>
</a>
</g>
</g>
<!-- Node1&#45;&gt;Node2 -->
<g id="edge1_Node000001_Node000002" class="edge">
<title>Node1&#45;&gt;Node2</title>
<g id="a_edge1_Node000001_Node000002"><a xlink:title=" ">
<path fill="none" stroke="#63b8ff" d="M107.95,-59.2C96.97,-49.7 84.24,-38.69 74.38,-30.16"/>
<polygon fill="#63b8ff" stroke="#63b8ff" points="105.72,-61.9 115.58,-65.8 110.3,-56.61 105.72,-61.9"/>
</a>
</g>
</g>
<!-- Node3 -->
<g id="Node000003" class="node">
<title>Node3</title>
<g id="a_Node000003"><a xlink:href="../../d5/d95/yaml_8hpp.html" target="_top" xlink:title="Include&#45;all header for YAML support.">
<polygon fill="white" stroke="#666666" points="277.5,-24.5 134.5,-24.5 134.5,-5.5 277.5,-5.5 277.5,-24.5"/>
<text text-anchor="middle" x="206" y="-12.5" font-family="Helvetica,sans-Serif" font-size="10.00">userver/formats/yaml.hpp</text>
</a>
</g>
</g>
<!-- Node1&#45;&gt;Node3 -->
<g id="edge2_Node000001_Node000003" class="edge">
<title>Node1&#45;&gt;Node3</title>
<g id="a_edge2_Node000001_Node000003"><a xlink:title=" ">
<path fill="none" stroke="#63b8ff" d="M156.36,-58.93C169.75,-47.35 185.64,-33.61 195.77,-24.84"/>
<polygon fill="#63b8ff" stroke="#63b8ff" points="153.7,-56.61 148.42,-65.8 158.28,-61.9 153.7,-56.61"/>
</a>
</g>
</g>
</g>
</svg>
