<?xml version="1.0" encoding="UTF-8" standalone="no"?>
<!DOCTYPE svg PUBLIC "-//W3C//DTD SVG 1.1//EN"
 "http://www.w3.org/Graphics/SVG/1.1/DTD/svg11.dtd">
<!-- Generated by graphviz version 2.43.0 (0)
 -->
<!-- Title: userver/components/component_context.hpp Pages: 1 -->
<svg width="1033pt" height="159pt"
 viewBox="0.00 0.00 1032.50 159.00" xmlns="http://www.w3.org/2000/svg" xmlns:xlink="http://www.w3.org/1999/xlink">
<g id="graph0" class="graph" transform="scale(1 1) rotate(0) translate(4 155)">
<title>userver/components/component_context.hpp</title>
<!-- Node1 -->
<g id="Node000001" class="node">
<title>Node1</title>
<g id="a_Node000001"><a xlink:title="Class to retrieve other components.">
<polygon fill="#999999" stroke="#666666" points="498,-151 361,-151 361,-121 498,-121 498,-151"/>
<text text-anchor="start" x="369" y="-139" font-family="Helvetica,sans-Serif" font-size="10.00">userver/components</text>
<text text-anchor="middle" x="429.5" y="-128" font-family="Helvetica,sans-Serif" font-size="10.00">/component_context.hpp</text>
</a>
</g>
</g>
<!-- Node2 -->
<g id="Node000002" class="node">
<title>Node2</title>
<g id="a_Node000002"><a xlink:title=" ">
<polygon fill="#e0e0e0" stroke="#999999" points="230,-19 165,-19 165,0 230,0 230,-19"/>
<text text-anchor="middle" x="197.5" y="-7" font-family="Helvetica,sans-Serif" font-size="10.00">functional</text>
</a>
</g>
</g>
<!-- Node1&#45;&gt;Node2 -->
<g id="edge1_Node000001_Node000002" class="edge">
<title>Node1&#45;&gt;Node2</title>
<g id="a_edge1_Node000001_Node000002"><a xlink:title=" ">
<path fill="none" stroke="#63b8ff" d="M403.7,-120.93C386.58,-111.32 363.8,-98.03 344.5,-85 326.37,-72.77 324.44,-65.93 305.5,-55 282.5,-41.73 254.77,-30.39 233.17,-22.48"/>
<polygon fill="#63b8ff" stroke="#63b8ff" points="234.31,-19.17 223.72,-19.09 231.95,-25.76 234.31,-19.17"/>
</a>
</g>
</g>
<!-- Node3 -->
<g id="Node000003" class="node">
<title>Node3</title>
<g id="a_Node000003"><a xlink:title=" ">
<polygon fill="#e0e0e0" stroke="#999999" points="213.5,-79.5 155.5,-79.5 155.5,-60.5 213.5,-60.5 213.5,-79.5"/>
<text text-anchor="middle" x="184.5" y="-67.5" font-family="Helvetica,sans-Serif" font-size="10.00">memory</text>
</a>
</g>
</g>
<!-- Node1&#45;&gt;Node3 -->
<g id="edge2_Node000001_Node000003" class="edge">
<title>Node1&#45;&gt;Node3</title>
<g id="a_edge2_Node000001_Node000003"><a xlink:title=" ">
<path fill="none" stroke="#63b8ff" d="M362.78,-120.95C321.96,-111.84 268.84,-99.08 222.5,-85 220.37,-84.35 218.18,-83.65 215.99,-82.92"/>
<polygon fill="#63b8ff" stroke="#63b8ff" points="217.05,-79.58 206.46,-79.58 214.74,-86.19 217.05,-79.58"/>
</a>
</g>
</g>
<!-- Node4 -->
<g id="Node000004" class="node">
<title>Node4</title>
<g id="a_Node000004"><a xlink:title=" ">
<polygon fill="#e0e0e0" stroke="#999999" points="297,-79.5 232,-79.5 232,-60.5 297,-60.5 297,-79.5"/>
<text text-anchor="middle" x="264.5" y="-67.5" font-family="Helvetica,sans-Serif" font-size="10.00">stdexcept</text>
</a>
</g>
</g>
<!-- Node1&#45;&gt;Node4 -->
<g id="edge3_Node000001_Node000004" class="edge">
<title>Node1&#45;&gt;Node4</title>
<g id="a_edge3_Node000001_Node000004"><a xlink:title=" ">
<path fill="none" stroke="#63b8ff" d="M393.29,-120.95C364.23,-109.68 323.83,-94.01 296.07,-83.25"/>
<polygon fill="#63b8ff" stroke="#63b8ff" points="297.05,-79.87 286.46,-79.52 294.52,-86.4 297.05,-79.87"/>
</a>
</g>
</g>
<!-- Node5 -->
<g id="Node000005" class="node">
<title>Node5</title>
<g id="a_Node000005"><a xlink:title=" ">
<polygon fill="#e0e0e0" stroke="#999999" points="629.5,-19 585.5,-19 585.5,0 629.5,0 629.5,-19"/>
<text text-anchor="middle" x="607.5" y="-7" font-family="Helvetica,sans-Serif" font-size="10.00">string</text>
</a>
</g>
</g>
<!-- Node1&#45;&gt;Node5 -->
<g id="edge4_Node000001_Node000005" class="edge">
<title>Node1&#45;&gt;Node5</title>
<g id="a_edge4_Node000001_Node000005"><a xlink:title=" ">
<path fill="none" stroke="#63b8ff" d="M450.17,-120.79C464.42,-110.9 483.75,-97.33 500.5,-85 518.11,-72.03 521.67,-67.66 539.5,-55 554.45,-44.38 571.76,-33.07 585.16,-24.51"/>
<polygon fill="#63b8ff" stroke="#63b8ff" points="587.18,-27.38 593.75,-19.07 583.43,-21.47 587.18,-27.38"/>
</a>
</g>
</g>
<!-- Node6 -->
<g id="Node000006" class="node">
<title>Node6</title>
<g id="a_Node000006"><a xlink:title=" ">
<polygon fill="#e0e0e0" stroke="#999999" points="427,-79.5 354,-79.5 354,-60.5 427,-60.5 427,-79.5"/>
<text text-anchor="middle" x="390.5" y="-67.5" font-family="Helvetica,sans-Serif" font-size="10.00">string_view</text>
</a>
</g>
</g>
<!-- Node1&#45;&gt;Node6 -->
<g id="edge5_Node000001_Node000006" class="edge">
<title>Node1&#45;&gt;Node6</title>
<g id="a_edge5_Node000001_Node000006"><a xlink:title=" ">
<path fill="none" stroke="#63b8ff" d="M420.84,-120.8C415.06,-111.31 407.42,-98.76 401.24,-88.63"/>
<polygon fill="#63b8ff" stroke="#63b8ff" points="404.08,-86.56 395.89,-79.84 398.1,-90.21 404.08,-86.56"/>
</a>
</g>
</g>
<!-- Node7 -->
<g id="Node000007" class="node">
<title>Node7</title>
<g id="a_Node000007"><a xlink:title=" ">
<polygon fill="#e0e0e0" stroke="#999999" points="492,-79.5 445,-79.5 445,-60.5 492,-60.5 492,-79.5"/>
<text text-anchor="middle" x="468.5" y="-67.5" font-family="Helvetica,sans-Serif" font-size="10.00">vector</text>
</a>
</g>
</g>
<!-- Node1&#45;&gt;Node7 -->
<g id="edge6_Node000001_Node000007" class="edge">
<title>Node1&#45;&gt;Node7</title>
<g id="a_edge6_Node000001_Node000007"><a xlink:title=" ">
<path fill="none" stroke="#63b8ff" d="M438.16,-120.8C443.94,-111.31 451.58,-98.76 457.76,-88.63"/>
<polygon fill="#63b8ff" stroke="#63b8ff" points="460.9,-90.21 463.11,-79.84 454.92,-86.56 460.9,-90.21"/>
</a>
</g>
</g>
<!-- Node8 -->
<g id="Node000008" class="node">
<title>Node8</title>
<g id="a_Node000008"><a xlink:href="../../d1/d37/demangle_8hpp.html" target="_top" xlink:title="Returns a human&#45;readable representation of provided type name.">
<polygon fill="white" stroke="#666666" points="1024.5,-79.5 852.5,-79.5 852.5,-60.5 1024.5,-60.5 1024.5,-79.5"/>
<text text-anchor="middle" x="938.5" y="-67.5" font-family="Helvetica,sans-Serif" font-size="10.00">userver/compiler/demangle.hpp</text>
</a>
</g>
</g>
<!-- Node1&#45;&gt;Node8 -->
<g id="edge7_Node000001_Node000008" class="edge">
<title>Node1&#45;&gt;Node8</title>
<g id="a_edge7_Node000001_Node000008"><a xlink:title=" ">
<path fill="none" stroke="#63b8ff" d="M498.26,-127.19C580.28,-117.76 721.51,-101.14 842.5,-85 851.92,-83.74 861.84,-82.36 871.6,-80.97"/>
<polygon fill="#63b8ff" stroke="#63b8ff" points="872.28,-84.41 881.68,-79.52 871.28,-77.48 872.28,-84.41"/>
</a>
</g>
</g>
<!-- Node11 -->
<g id="Node000011" class="node">
<title>Node11</title>
<g id="a_Node000011"><a xlink:href="../../d7/d47/component__fwd_8hpp.html" target="_top" xlink:title="Forward declarations for components::ComponentContext and components::ComponentConfig; function compo...">
<polygon fill="white" stroke="#666666" points="666.5,-85 548.5,-85 548.5,-55 666.5,-55 666.5,-85"/>
<text text-anchor="start" x="556.5" y="-73" font-family="Helvetica,sans-Serif" font-size="10.00">userver/components</text>
<text text-anchor="middle" x="607.5" y="-62" font-family="Helvetica,sans-Serif" font-size="10.00">/component_fwd.hpp</text>
</a>
</g>
</g>
<!-- Node1&#45;&gt;Node11 -->
<g id="edge11_Node000001_Node000011" class="edge">
<title>Node1&#45;&gt;Node11</title>
<g id="a_edge11_Node000001_Node000011"><a xlink:title=" ">
<path fill="none" stroke="#63b8ff" d="M468.56,-120.95C495.11,-111.41 530.42,-98.71 558.8,-88.51"/>
<polygon fill="#63b8ff" stroke="#63b8ff" points="560.3,-91.69 568.53,-85.01 557.93,-85.1 560.3,-91.69"/>
</a>
</g>
</g>
<!-- Node12 -->
<g id="Node000012" class="node">
<title>Node12</title>
<g id="a_Node000012"><a xlink:href="../../d2/d61/component__base_8hpp_source.html" target="_top" xlink:title=" ">
<polygon fill="white" stroke="#666666" points="834,-85 685,-85 685,-55 834,-55 834,-85"/>
<text text-anchor="start" x="693" y="-73" font-family="Helvetica,sans-Serif" font-size="10.00">userver/components</text>
<text text-anchor="middle" x="759.5" y="-62" font-family="Helvetica,sans-Serif" font-size="10.00">/impl/component_base.hpp</text>
</a>
</g>
</g>
<!-- Node1&#45;&gt;Node12 -->
<g id="edge13_Node000001_Node000012" class="edge">
<title>Node1&#45;&gt;Node12</title>
<g id="a_edge13_Node000001_Node000012"><a xlink:title=" ">
<path fill="none" stroke="#63b8ff" d="M498.28,-121.66C550.29,-111.57 621.91,-97.68 677.01,-87"/>
<polygon fill="#63b8ff" stroke="#63b8ff" points="677.95,-90.38 687.1,-85.04 676.61,-83.51 677.95,-90.38"/>
</a>
</g>
</g>
<!-- Node13 -->
<g id="Node000013" class="node">
<title>Node13</title>
<g id="a_Node000013"><a xlink:href="../../d8/d03/task__processor__fwd_8hpp.html" target="_top" xlink:title=" ">
<polygon fill="white" stroke="#666666" points="137,-85 0,-85 0,-55 137,-55 137,-85"/>
<text text-anchor="start" x="8" y="-73" font-family="Helvetica,sans-Serif" font-size="10.00">userver/engine/task</text>
<text text-anchor="middle" x="68.5" y="-62" font-family="Helvetica,sans-Serif" font-size="10.00">/task_processor_fwd.hpp</text>
</a>
</g>
</g>
<!-- Node1&#45;&gt;Node13 -->
<g id="edge14_Node000001_Node000013" class="edge">
<title>Node1&#45;&gt;Node13</title>
<g id="a_edge14_Node000001_Node000013"><a xlink:title=" ">
<path fill="none" stroke="#63b8ff" d="M360.87,-122.93C305.9,-113.25 226.52,-99.24 147.53,-85.18"/>
<polygon fill="#63b8ff" stroke="#63b8ff" points="147.86,-81.68 137.4,-83.38 146.63,-88.58 147.86,-81.68"/>
</a>
</g>
</g>
<!-- Node8&#45;&gt;Node5 -->
<g id="edge9_Node000008_Node000005" class="edge">
<title>Node8&#45;&gt;Node5</title>
<g id="a_edge9_Node000008_Node000005"><a xlink:title=" ">
<path fill="none" stroke="#63b8ff" d="M890.37,-60.49C822.01,-48.41 698.6,-26.6 640.04,-16.25"/>
<polygon fill="#63b8ff" stroke="#63b8ff" points="640.34,-12.75 629.88,-14.46 639.12,-19.64 640.34,-12.75"/>
</a>
</g>
</g>
<!-- Node9 -->
<g id="Node000009" class="node">
<title>Node9</title>
<g id="a_Node000009"><a xlink:title=" ">
<polygon fill="#e0e0e0" stroke="#999999" points="925.5,-19 875.5,-19 875.5,0 925.5,0 925.5,-19"/>
<text text-anchor="middle" x="900.5" y="-7" font-family="Helvetica,sans-Serif" font-size="10.00">chrono</text>
</a>
</g>
</g>
<!-- Node8&#45;&gt;Node9 -->
<g id="edge8_Node000008_Node000009" class="edge">
<title>Node8&#45;&gt;Node9</title>
<g id="a_edge8_Node000008_Node000009"><a xlink:title=" ">
<path fill="none" stroke="#63b8ff" d="M932.89,-60.37C927.34,-51.81 918.67,-38.47 911.7,-27.74"/>
<polygon fill="#63b8ff" stroke="#63b8ff" points="914.51,-25.65 906.13,-19.17 908.64,-29.46 914.51,-25.65"/>
</a>
</g>
</g>
<!-- Node10 -->
<g id="Node000010" class="node">
<title>Node10</title>
<g id="a_Node000010"><a xlink:title=" ">
<polygon fill="#e0e0e0" stroke="#999999" points="1009,-19 944,-19 944,0 1009,0 1009,-19"/>
<text text-anchor="middle" x="976.5" y="-7" font-family="Helvetica,sans-Serif" font-size="10.00">typeindex</text>
</a>
</g>
</g>
<!-- Node8&#45;&gt;Node10 -->
<g id="edge10_Node000008_Node000010" class="edge">
<title>Node8&#45;&gt;Node10</title>
<g id="a_edge10_Node000008_Node000010"><a xlink:title=" ">
<path fill="none" stroke="#63b8ff" d="M944.11,-60.37C949.66,-51.81 958.33,-38.47 965.3,-27.74"/>
<polygon fill="#63b8ff" stroke="#63b8ff" points="968.36,-29.46 970.87,-19.17 962.49,-25.65 968.36,-29.46"/>
</a>
</g>
</g>
<!-- Node11&#45;&gt;Node5 -->
<g id="edge12_Node000011_Node000005" class="edge">
<title>Node11&#45;&gt;Node5</title>
<g id="a_edge12_Node000011_Node000005"><a xlink:title=" ">
<path fill="none" stroke="#63b8ff" d="M607.5,-54.84C607.5,-47.21 607.5,-37.7 607.5,-29.45"/>
<polygon fill="#63b8ff" stroke="#63b8ff" points="611,-29.27 607.5,-19.27 604,-29.27 611,-29.27"/>
</a>
</g>
</g>
<!-- Node13&#45;&gt;Node2 -->
<g id="edge15_Node000013_Node000002" class="edge">
<title>Node13&#45;&gt;Node2</title>
<g id="a_edge15_Node000013_Node000002"><a xlink:title=" ">
<path fill="none" stroke="#63b8ff" d="M99.4,-54.99C120.63,-45.36 148.61,-32.67 169.25,-23.31"/>
<polygon fill="#63b8ff" stroke="#63b8ff" points="170.79,-26.46 178.45,-19.14 167.9,-20.08 170.79,-26.46"/>
</a>
</g>
</g>
</g>
</svg>
