<?xml version="1.0" encoding="UTF-8" standalone="no"?>
<!DOCTYPE svg PUBLIC "-//W3C//DTD SVG 1.1//EN"
 "http://www.w3.org/Graphics/SVG/1.1/DTD/svg11.dtd">
<!-- Generated by graphviz version 2.43.0 (0)
 -->
<!-- Title: userver/storages/clickhouse/io/columns/datetime64_column.hpp Pages: 1 -->
<svg width="592pt" height="489pt"
 viewBox="0.00 0.00 591.92 489.00" xmlns="http://www.w3.org/2000/svg" xmlns:xlink="http://www.w3.org/1999/xlink">
<g id="graph0" class="graph" transform="scale(1 1) rotate(0) translate(4 485)">
<title>userver/storages/clickhouse/io/columns/datetime64_column.hpp</title>
<!-- Node1 -->
<g id="Node000001" class="node">
<title>Node1</title>
<g id="a_Node000001"><a xlink:title="DateTime64 columns support.">
<polygon fill="#999999" stroke="#666666" points="477.42,-481 283.42,-481 283.42,-451 477.42,-451 477.42,-481"/>
<text text-anchor="start" x="291.42" y="-469" font-family="Helvetica,sans-Serif" font-size="10.00">userver/storages/clickhouse</text>
<text text-anchor="middle" x="380.42" y="-458" font-family="Helvetica,sans-Serif" font-size="10.00">/io/columns/datetime64_column.hpp</text>
</a>
</g>
</g>
<!-- Node2 -->
<g id="Node000002" class="node">
<title>Node2</title>
<g id="a_Node000002"><a xlink:href="../../d3/d25/common__columns_8hpp.html" target="_top" xlink:title=" ">
<polygon fill="white" stroke="#666666" points="379.42,-415 193.42,-415 193.42,-385 379.42,-385 379.42,-415"/>
<text text-anchor="start" x="201.42" y="-403" font-family="Helvetica,sans-Serif" font-size="10.00">userver/storages/clickhouse</text>
<text text-anchor="middle" x="286.42" y="-392" font-family="Helvetica,sans-Serif" font-size="10.00">/io/columns/common_columns.hpp</text>
</a>
</g>
</g>
<!-- Node1&#45;&gt;Node2 -->
<g id="edge1_Node000001_Node000002" class="edge">
<title>Node1&#45;&gt;Node2</title>
<g id="a_edge1_Node000001_Node000002"><a xlink:title=" ">
<path fill="none" stroke="#63b8ff" d="M351.09,-445.03C336.86,-435.34 320.11,-423.94 307.22,-415.16"/>
<polygon fill="#63b8ff" stroke="#63b8ff" points="349.32,-448.06 359.56,-450.8 353.26,-442.28 349.32,-448.06"/>
</a>
</g>
</g>
<!-- Node11 -->
<g id="Node000011" class="node">
<title>Node11</title>
<g id="a_Node000011"><a xlink:href="../../de/dab/clickhouse_2include_2userver_2storages_2clickhouse_2io_2typedefs_8hpp.html" target="_top" xlink:title=" ">
<polygon fill="white" stroke="#666666" points="566.92,-415 413.92,-415 413.92,-385 566.92,-385 566.92,-415"/>
<text text-anchor="start" x="421.92" y="-403" font-family="Helvetica,sans-Serif" font-size="10.00">userver/storages/clickhouse</text>
<text text-anchor="middle" x="490.42" y="-392" font-family="Helvetica,sans-Serif" font-size="10.00">/io/typedefs.hpp</text>
</a>
</g>
</g>
<!-- Node1&#45;&gt;Node11 -->
<g id="edge17_Node000001_Node000011" class="edge">
<title>Node1&#45;&gt;Node11</title>
<g id="a_edge17_Node000001_Node000011"><a xlink:title=" ">
<path fill="none" stroke="#63b8ff" d="M413.6,-445.69C430.58,-435.82 450.87,-424.01 466.34,-415.01"/>
<polygon fill="#63b8ff" stroke="#63b8ff" points="411.44,-442.9 404.56,-450.95 414.96,-448.95 411.44,-442.9"/>
</a>
</g>
</g>
<!-- Node3 -->
<g id="Node000003" class="node">
<title>Node3</title>
<g id="a_Node000003"><a xlink:href="../../dd/d84/insertion__request_8hpp_source.html" target="_top" xlink:title=" ">
<polygon fill="white" stroke="#666666" points="362.92,-217 209.92,-217 209.92,-187 362.92,-187 362.92,-217"/>
<text text-anchor="start" x="217.92" y="-205" font-family="Helvetica,sans-Serif" font-size="10.00">userver/storages/clickhouse</text>
<text text-anchor="middle" x="286.42" y="-194" font-family="Helvetica,sans-Serif" font-size="10.00">/impl/insertion_request.hpp</text>
</a>
</g>
</g>
<!-- Node2&#45;&gt;Node3 -->
<g id="edge2_Node000002_Node000003" class="edge">
<title>Node2&#45;&gt;Node3</title>
<g id="a_edge2_Node000002_Node000003"><a xlink:title=" ">
<path fill="none" stroke="#63b8ff" d="M346.44,-380.68C361.04,-373.25 374.89,-363 383.42,-349 413.59,-299.5 345.15,-242.82 308.15,-217.06"/>
<polygon fill="#63b8ff" stroke="#63b8ff" points="344.88,-377.55 337.3,-384.95 347.84,-383.89 344.88,-377.55"/>
</a>
</g>
</g>
<!-- Node6 -->
<g id="Node000006" class="node">
<title>Node6</title>
<g id="a_Node000006"><a xlink:href="../../dd/d45/array__column_8hpp.html" target="_top" xlink:title="Array column support.">
<polygon fill="white" stroke="#666666" points="179.42,-349 15.42,-349 15.42,-319 179.42,-319 179.42,-349"/>
<text text-anchor="start" x="23.42" y="-337" font-family="Helvetica,sans-Serif" font-size="10.00">userver/storages/clickhouse</text>
<text text-anchor="middle" x="97.42" y="-326" font-family="Helvetica,sans-Serif" font-size="10.00">/io/columns/array_column.hpp</text>
</a>
</g>
</g>
<!-- Node2&#45;&gt;Node6 -->
<g id="edge5_Node000002_Node000006" class="edge">
<title>Node2&#45;&gt;Node6</title>
<g id="a_edge5_Node000002_Node000006"><a xlink:title=" ">
<path fill="none" stroke="#63b8ff" d="M235.4,-381.72C205.12,-371.47 167.21,-358.63 138.8,-349.01"/>
<polygon fill="#63b8ff" stroke="#63b8ff" points="234.35,-385.06 244.94,-384.95 236.59,-378.43 234.35,-385.06"/>
</a>
</g>
</g>
<!-- Node7 -->
<g id="Node000007" class="node">
<title>Node7</title>
<g id="a_Node000007"><a xlink:href="../../d4/d7c/clickhouse_2include_2userver_2storages_2clickhouse_2io_2impl_2validate_8hpp_source.html" target="_top" xlink:title=" ">
<polygon fill="white" stroke="#666666" points="182.92,-283 29.92,-283 29.92,-253 182.92,-253 182.92,-283"/>
<text text-anchor="start" x="37.92" y="-271" font-family="Helvetica,sans-Serif" font-size="10.00">userver/storages/clickhouse</text>
<text text-anchor="middle" x="106.42" y="-260" font-family="Helvetica,sans-Serif" font-size="10.00">/io/impl/validate.hpp</text>
</a>
</g>
</g>
<!-- Node2&#45;&gt;Node7 -->
<g id="edge16_Node000002_Node000007" class="edge">
<title>Node2&#45;&gt;Node7</title>
<g id="a_edge16_Node000002_Node000007"><a xlink:title=" ">
<path fill="none" stroke="#63b8ff" d="M183.06,-394.11C112.91,-388.37 28.97,-375.93 6.42,-349 -16.27,-321.9 27.8,-297.6 64.46,-283.08"/>
<polygon fill="#63b8ff" stroke="#63b8ff" points="183.06,-397.62 193.3,-394.91 183.61,-390.64 183.06,-397.62"/>
</a>
</g>
</g>
<!-- Node10 -->
<g id="Node000010" class="node">
<title>Node10</title>
<g id="a_Node000010"><a xlink:href="../../d3/d11/nullable__column_8hpp.html" target="_top" xlink:title="Nullable column support.">
<polygon fill="white" stroke="#666666" points="374.92,-349 197.92,-349 197.92,-319 374.92,-319 374.92,-349"/>
<text text-anchor="start" x="205.92" y="-337" font-family="Helvetica,sans-Serif" font-size="10.00">userver/storages/clickhouse</text>
<text text-anchor="middle" x="286.42" y="-326" font-family="Helvetica,sans-Serif" font-size="10.00">/io/columns/nullable_column.hpp</text>
</a>
</g>
</g>
<!-- Node2&#45;&gt;Node10 -->
<g id="edge13_Node000002_Node000010" class="edge">
<title>Node2&#45;&gt;Node10</title>
<g id="a_edge13_Node000002_Node000010"><a xlink:title=" ">
<path fill="none" stroke="#63b8ff" d="M286.42,-374.54C286.42,-365.96 286.42,-356.61 286.42,-349.16"/>
<polygon fill="#63b8ff" stroke="#63b8ff" points="282.92,-374.8 286.42,-384.8 289.92,-374.8 282.92,-374.8"/>
</a>
</g>
</g>
<!-- Node4 -->
<g id="Node000004" class="node">
<title>Node4</title>
<g id="a_Node000004"><a xlink:href="../../da/de8/clickhouse_2include_2userver_2storages_2clickhouse_2cluster_8hpp.html" target="_top" xlink:title="Interface for executing queries on a cluster of ClickHouse servers.">
<polygon fill="white" stroke="#666666" points="382.92,-85 229.92,-85 229.92,-55 382.92,-55 382.92,-85"/>
<text text-anchor="start" x="237.92" y="-73" font-family="Helvetica,sans-Serif" font-size="10.00">userver/storages/clickhouse</text>
<text text-anchor="middle" x="306.42" y="-62" font-family="Helvetica,sans-Serif" font-size="10.00">/cluster.hpp</text>
</a>
</g>
</g>
<!-- Node3&#45;&gt;Node4 -->
<g id="edge3_Node000003_Node000004" class="edge">
<title>Node3&#45;&gt;Node4</title>
<g id="a_edge3_Node000003_Node000004"><a xlink:title=" ">
<path fill="none" stroke="#63b8ff" d="M290.16,-176.68C294.31,-149.7 300.87,-107.11 304.24,-85.14"/>
<polygon fill="#63b8ff" stroke="#63b8ff" points="286.66,-176.42 288.6,-186.84 293.58,-177.49 286.66,-176.42"/>
</a>
</g>
</g>
<!-- Node5 -->
<g id="Node000005" class="node">
<title>Node5</title>
<g id="a_Node000005"><a xlink:href="../../d7/d29/clickhouse_8hpp.html" target="_top" xlink:title=" ">
<polygon fill="white" stroke="#666666" points="393.42,-19 219.42,-19 219.42,0 393.42,0 393.42,-19"/>
<text text-anchor="middle" x="306.42" y="-7" font-family="Helvetica,sans-Serif" font-size="10.00">userver/storages/clickhouse.hpp</text>
</a>
</g>
</g>
<!-- Node4&#45;&gt;Node5 -->
<g id="edge4_Node000004_Node000005" class="edge">
<title>Node4&#45;&gt;Node5</title>
<g id="a_edge4_Node000004_Node000005"><a xlink:title=" ">
<path fill="none" stroke="#63b8ff" d="M306.42,-44.75C306.42,-35.72 306.42,-26.03 306.42,-19.27"/>
<polygon fill="#63b8ff" stroke="#63b8ff" points="302.92,-44.84 306.42,-54.84 309.92,-44.84 302.92,-44.84"/>
</a>
</g>
</g>
<!-- Node6&#45;&gt;Node3 -->
<g id="edge6_Node000006_Node000003" class="edge">
<title>Node6&#45;&gt;Node3</title>
<g id="a_edge6_Node000006_Node000003"><a xlink:title=" ">
<path fill="none" stroke="#63b8ff" d="M136.81,-314.39C154.05,-305.66 174.23,-294.62 191.42,-283 221.79,-262.47 253.72,-233.93 271.74,-217.07"/>
<polygon fill="#63b8ff" stroke="#63b8ff" points="134.95,-311.41 127.56,-319 138.07,-317.67 134.95,-311.41"/>
</a>
</g>
</g>
<!-- Node6&#45;&gt;Node7 -->
<g id="edge7_Node000006_Node000007" class="edge">
<title>Node6&#45;&gt;Node7</title>
<g id="a_edge7_Node000006_Node000007"><a xlink:title=" ">
<path fill="none" stroke="#63b8ff" d="M100.82,-308.83C102.04,-300.17 103.37,-290.7 104.43,-283.16"/>
<polygon fill="#63b8ff" stroke="#63b8ff" points="97.34,-308.41 99.42,-318.8 104.28,-309.38 97.34,-308.41"/>
</a>
</g>
</g>
<!-- Node7&#45;&gt;Node3 -->
<g id="edge12_Node000007_Node000003" class="edge">
<title>Node7&#45;&gt;Node3</title>
<g id="a_edge12_Node000007_Node000003"><a xlink:title=" ">
<path fill="none" stroke="#63b8ff" d="M155.39,-249.59C184.17,-239.36 220.07,-226.59 247.01,-217.01"/>
<polygon fill="#63b8ff" stroke="#63b8ff" points="154.17,-246.31 145.92,-252.95 156.52,-252.9 154.17,-246.31"/>
</a>
</g>
</g>
<!-- Node8 -->
<g id="Node000008" class="node">
<title>Node8</title>
<g id="a_Node000008"><a xlink:href="../../db/d1b/clickhouse_2include_2userver_2storages_2clickhouse_2execution__result_8hpp.html" target="_top" xlink:title="Result accessor.">
<polygon fill="white" stroke="#666666" points="182.92,-217 29.92,-217 29.92,-187 182.92,-187 182.92,-217"/>
<text text-anchor="start" x="37.92" y="-205" font-family="Helvetica,sans-Serif" font-size="10.00">userver/storages/clickhouse</text>
<text text-anchor="middle" x="106.42" y="-194" font-family="Helvetica,sans-Serif" font-size="10.00">/execution_result.hpp</text>
</a>
</g>
</g>
<!-- Node7&#45;&gt;Node8 -->
<g id="edge8_Node000007_Node000008" class="edge">
<title>Node7&#45;&gt;Node8</title>
<g id="a_edge8_Node000007_Node000008"><a xlink:title=" ">
<path fill="none" stroke="#63b8ff" d="M106.42,-242.54C106.42,-233.96 106.42,-224.61 106.42,-217.16"/>
<polygon fill="#63b8ff" stroke="#63b8ff" points="102.92,-242.8 106.42,-252.8 109.92,-242.8 102.92,-242.8"/>
</a>
</g>
</g>
<!-- Node8&#45;&gt;Node5 -->
<g id="edge9_Node000008_Node000005" class="edge">
<title>Node8&#45;&gt;Node5</title>
<g id="a_edge9_Node000008_Node000005"><a xlink:title=" ">
<path fill="none" stroke="#63b8ff" d="M103.87,-176.62C103.31,-159.77 105.05,-137.5 115.42,-121 151.59,-63.42 229.42,-32.56 273.76,-19.06"/>
<polygon fill="#63b8ff" stroke="#63b8ff" points="100.39,-177.03 104.51,-186.79 107.38,-176.59 100.39,-177.03"/>
</a>
</g>
</g>
<!-- Node9 -->
<g id="Node000009" class="node">
<title>Node9</title>
<g id="a_Node000009"><a xlink:href="../../d3/de4/clickhouse_2include_2userver_2storages_2clickhouse_2impl_2pool_8hpp_source.html" target="_top" xlink:title=" ">
<polygon fill="white" stroke="#666666" points="277.92,-151 124.92,-151 124.92,-121 277.92,-121 277.92,-151"/>
<text text-anchor="start" x="132.92" y="-139" font-family="Helvetica,sans-Serif" font-size="10.00">userver/storages/clickhouse</text>
<text text-anchor="middle" x="201.42" y="-128" font-family="Helvetica,sans-Serif" font-size="10.00">/impl/pool.hpp</text>
</a>
</g>
</g>
<!-- Node8&#45;&gt;Node9 -->
<g id="edge10_Node000008_Node000009" class="edge">
<title>Node8&#45;&gt;Node9</title>
<g id="a_edge10_Node000008_Node000009"><a xlink:title=" ">
<path fill="none" stroke="#63b8ff" d="M136.07,-181.03C150.44,-171.34 167.37,-159.94 180.4,-151.16"/>
<polygon fill="#63b8ff" stroke="#63b8ff" points="133.84,-178.31 127.5,-186.8 137.75,-184.11 133.84,-178.31"/>
</a>
</g>
</g>
<!-- Node9&#45;&gt;Node4 -->
<g id="edge11_Node000009_Node000004" class="edge">
<title>Node9&#45;&gt;Node4</title>
<g id="a_edge11_Node000009_Node000004"><a xlink:title=" ">
<path fill="none" stroke="#63b8ff" d="M233.09,-115.69C249.3,-105.82 268.67,-94.01 283.43,-85.01"/>
<polygon fill="#63b8ff" stroke="#63b8ff" points="231.18,-112.76 224.46,-120.95 234.82,-118.74 231.18,-112.76"/>
</a>
</g>
</g>
<!-- Node10&#45;&gt;Node3 -->
<g id="edge14_Node000010_Node000003" class="edge">
<title>Node10&#45;&gt;Node3</title>
<g id="a_edge14_Node000010_Node000003"><a xlink:title=" ">
<path fill="none" stroke="#63b8ff" d="M286.42,-308.68C286.42,-281.7 286.42,-239.11 286.42,-217.14"/>
<polygon fill="#63b8ff" stroke="#63b8ff" points="282.92,-308.84 286.42,-318.84 289.92,-308.84 282.92,-308.84"/>
</a>
</g>
</g>
<!-- Node10&#45;&gt;Node7 -->
<g id="edge15_Node000010_Node000007" class="edge">
<title>Node10&#45;&gt;Node7</title>
<g id="a_edge15_Node000010_Node000007"><a xlink:title=" ">
<path fill="none" stroke="#63b8ff" d="M237.46,-315.59C208.68,-305.36 172.77,-292.59 145.83,-283.01"/>
<polygon fill="#63b8ff" stroke="#63b8ff" points="236.32,-318.9 246.92,-318.95 238.67,-312.31 236.32,-318.9"/>
</a>
</g>
</g>
<!-- Node12 -->
<g id="Node000012" class="node">
<title>Node12</title>
<g id="a_Node000012"><a xlink:href="../../d3/d92/escape_8hpp_source.html" target="_top" xlink:title=" ">
<polygon fill="white" stroke="#666666" points="583.92,-283 430.92,-283 430.92,-253 583.92,-253 583.92,-283"/>
<text text-anchor="start" x="438.92" y="-271" font-family="Helvetica,sans-Serif" font-size="10.00">userver/storages/clickhouse</text>
<text text-anchor="middle" x="507.42" y="-260" font-family="Helvetica,sans-Serif" font-size="10.00">/io/impl/escape.hpp</text>
</a>
</g>
</g>
<!-- Node11&#45;&gt;Node12 -->
<g id="edge18_Node000011_Node000012" class="edge">
<title>Node11&#45;&gt;Node12</title>
<g id="a_edge18_Node000011_Node000012"><a xlink:title=" ">
<path fill="none" stroke="#63b8ff" d="M493.6,-374.68C497.13,-347.7 502.7,-305.11 505.57,-283.14"/>
<polygon fill="#63b8ff" stroke="#63b8ff" points="490.1,-374.47 492.27,-384.84 497.04,-375.38 490.1,-374.47"/>
</a>
</g>
</g>
<!-- Node13 -->
<g id="Node000013" class="node">
<title>Node13</title>
<g id="a_Node000013"><a xlink:href="../../d7/de9/clickhouse_2include_2userver_2storages_2clickhouse_2query_8hpp.html" target="_top" xlink:title="Holds a query and its name. In case query is expected to be executed with parameters,...">
<polygon fill="white" stroke="#666666" points="487.92,-151 334.92,-151 334.92,-121 487.92,-121 487.92,-151"/>
<text text-anchor="start" x="342.92" y="-139" font-family="Helvetica,sans-Serif" font-size="10.00">userver/storages/clickhouse</text>
<text text-anchor="middle" x="411.42" y="-128" font-family="Helvetica,sans-Serif" font-size="10.00">/query.hpp</text>
</a>
</g>
</g>
<!-- Node12&#45;&gt;Node13 -->
<g id="edge19_Node000012_Node000013" class="edge">
<title>Node12&#45;&gt;Node13</title>
<g id="a_edge19_Node000012_Node000013"><a xlink:title=" ">
<path fill="none" stroke="#63b8ff" d="M490.77,-244.45C470.95,-217.61 438.45,-173.6 421.86,-151.14"/>
<polygon fill="#63b8ff" stroke="#63b8ff" points="488.21,-246.88 496.96,-252.84 493.84,-242.72 488.21,-246.88"/>
</a>
</g>
</g>
<!-- Node13&#45;&gt;Node4 -->
<g id="edge21_Node000013_Node000004" class="edge">
<title>Node13&#45;&gt;Node4</title>
<g id="a_edge21_Node000013_Node000004"><a xlink:title=" ">
<path fill="none" stroke="#63b8ff" d="M379.75,-115.69C363.54,-105.82 344.17,-94.01 329.41,-85.01"/>
<polygon fill="#63b8ff" stroke="#63b8ff" points="378.02,-118.74 388.38,-120.95 381.66,-112.76 378.02,-118.74"/>
</a>
</g>
</g>
<!-- Node13&#45;&gt;Node5 -->
<g id="edge20_Node000013_Node000005" class="edge">
<title>Node13&#45;&gt;Node5</title>
<g id="a_edge20_Node000013_Node000005"><a xlink:title=" ">
<path fill="none" stroke="#63b8ff" d="M410.47,-110.41C408.65,-93.29 403.84,-70.78 391.42,-55 377.51,-37.33 354.64,-25.92 336.12,-19.08"/>
<polygon fill="#63b8ff" stroke="#63b8ff" points="407.01,-111.06 411.28,-120.76 413.99,-110.52 407.01,-111.06"/>
</a>
</g>
</g>
</g>
</svg>
