<?xml version="1.0" encoding="UTF-8" standalone="no"?>
<!DOCTYPE svg PUBLIC "-//W3C//DTD SVG 1.1//EN"
 "http://www.w3.org/Graphics/SVG/1.1/DTD/svg11.dtd">
<!-- Generated by graphviz version 2.43.0 (0)
 -->
<!-- Title: storages::redis::Config Pages: 1 -->
<svg width="481pt" height="337pt"
 viewBox="0.00 0.00 481.00 337.00" xmlns="http://www.w3.org/2000/svg" xmlns:xlink="http://www.w3.org/1999/xlink">
<g id="graph0" class="graph" transform="scale(1 1) rotate(0) translate(4 333)">
<title>storages::redis::Config</title>
<!-- Node1 -->
<g id="Node000001" class="node">
<title>Node1</title>
<g id="a_Node000001"><a xlink:title=" ">
<polygon fill="#999999" stroke="#666666" points="473,-169.5 348,-169.5 348,-150.5 473,-150.5 473,-169.5"/>
<text text-anchor="middle" x="410.5" y="-157.5" font-family="Helvetica,sans-Serif" font-size="10.00">storages::redis::Config</text>
</a>
</g>
</g>
<!-- Node2 -->
<g id="Node000002" class="node">
<title>Node2</title>
<g id="a_Node000002"><a xlink:href="../../d2/ded/structredis_1_1CommandControl.html" target="_top" xlink:title="Redis command execution options.">
<polygon fill="white" stroke="#666666" points="149.5,-297.5 17.5,-297.5 17.5,-278.5 149.5,-278.5 149.5,-297.5"/>
<text text-anchor="middle" x="83.5" y="-285.5" font-family="Helvetica,sans-Serif" font-size="10.00">redis::CommandControl</text>
</a>
</g>
</g>
<!-- Node2&#45;&gt;Node1 -->
<g id="edge1_Node000001_Node000002" class="edge">
<title>Node2&#45;&gt;Node1</title>
<g id="a_edge1_Node000001_Node000002"><a xlink:title=" ">
<path fill="none" stroke="#9a32cd" stroke-dasharray="5,2" d="M159.68,-296.15C210.81,-298.2 278.28,-293.8 330,-265 369.95,-242.75 396,-191.18 405.49,-169.68"/>
<polygon fill="#9a32cd" stroke="#9a32cd" points="159.85,-292.65 149.69,-295.66 159.51,-299.65 159.85,-292.65"/>
</a>
</g>
<text text-anchor="middle" x="257.5" y="-321" font-family="Helvetica,sans-Serif" font-size="10.00" fill="grey"> default_command_control</text>
<text text-anchor="start" x="185" y="-310" font-family="Helvetica,sans-Serif" font-size="10.00" fill="grey">subscriber_default_command</text>
<text text-anchor="middle" x="257.5" y="-299" font-family="Helvetica,sans-Serif" font-size="10.00" fill="grey">_control</text>
</g>
<!-- Node3 -->
<g id="Node000003" class="node">
<title>Node3</title>
<g id="a_Node000003"><a xlink:href="../../d1/dd5/structredis_1_1RedisWaitConnected.html" target="_top" xlink:title=" ">
<polygon fill="white" stroke="#bfbfbf" points="157,-260.5 10,-260.5 10,-241.5 157,-241.5 157,-260.5"/>
<text text-anchor="middle" x="83.5" y="-248.5" font-family="Helvetica,sans-Serif" font-size="10.00">redis::RedisWaitConnected</text>
</a>
</g>
</g>
<!-- Node3&#45;&gt;Node1 -->
<g id="edge2_Node000001_Node000003" class="edge">
<title>Node3&#45;&gt;Node1</title>
<g id="a_edge2_Node000001_Node000003"><a xlink:title=" ">
<path fill="none" stroke="#9a32cd" stroke-dasharray="5,2" d="M167.35,-251.68C216.28,-249.47 278.51,-242.05 330,-221 358.99,-209.15 386.51,-183.81 400.3,-169.8"/>
<polygon fill="#9a32cd" stroke="#9a32cd" points="166.98,-248.19 157.12,-252.07 167.24,-255.18 166.98,-248.19"/>
</a>
</g>
<text text-anchor="middle" x="257.5" y="-253" font-family="Helvetica,sans-Serif" font-size="10.00" fill="grey"> redis_wait_connected</text>
</g>
<!-- Node4 -->
<g id="Node000004" class="node">
<title>Node4</title>
<g id="a_Node000004"><a xlink:href="../../d9/db2/structredis_1_1CommandsBufferingSettings.html" target="_top" xlink:title=" ">
<polygon fill="white" stroke="#bfbfbf" points="156.5,-223 10.5,-223 10.5,-193 156.5,-193 156.5,-223"/>
<text text-anchor="start" x="18.5" y="-211" font-family="Helvetica,sans-Serif" font-size="10.00">redis::CommandsBuffering</text>
<text text-anchor="middle" x="83.5" y="-200" font-family="Helvetica,sans-Serif" font-size="10.00">Settings</text>
</a>
</g>
</g>
<!-- Node4&#45;&gt;Node1 -->
<g id="edge3_Node000001_Node000004" class="edge">
<title>Node4&#45;&gt;Node1</title>
<g id="a_edge3_Node000001_Node000004"><a xlink:title=" ">
<path fill="none" stroke="#9a32cd" stroke-dasharray="5,2" d="M166.6,-198.07C214.38,-192.01 275.7,-183.77 330,-175 340.12,-173.37 350.94,-171.44 361.22,-169.53"/>
<polygon fill="#9a32cd" stroke="#9a32cd" points="166.1,-194.6 156.62,-199.32 166.98,-201.55 166.1,-194.6"/>
</a>
</g>
<text text-anchor="start" x="204.5" y="-209" font-family="Helvetica,sans-Serif" font-size="10.00" fill="grey"> commands_buffering</text>
<text text-anchor="middle" x="257.5" y="-198" font-family="Helvetica,sans-Serif" font-size="10.00" fill="grey">_settings</text>
</g>
<!-- Node5 -->
<g id="Node000005" class="node">
<title>Node5</title>
<g id="a_Node000005"><a xlink:href="../../d8/d8f/structredis_1_1MetricsSettings_1_1DynamicSettings.html" target="_top" xlink:title=" ">
<polygon fill="white" stroke="#bfbfbf" points="144.5,-175 22.5,-175 22.5,-145 144.5,-145 144.5,-175"/>
<text text-anchor="start" x="30.5" y="-163" font-family="Helvetica,sans-Serif" font-size="10.00">redis::MetricsSettings</text>
<text text-anchor="middle" x="83.5" y="-152" font-family="Helvetica,sans-Serif" font-size="10.00">::DynamicSettings</text>
</a>
</g>
</g>
<!-- Node5&#45;&gt;Node1 -->
<g id="edge4_Node000001_Node000005" class="edge">
<title>Node5&#45;&gt;Node1</title>
<g id="a_edge4_Node000001_Node000005"><a xlink:title=" ">
<path fill="none" stroke="#9a32cd" stroke-dasharray="5,2" d="M154.96,-160C212.44,-160 292.83,-160 347.8,-160"/>
<polygon fill="#9a32cd" stroke="#9a32cd" points="154.87,-156.5 144.87,-160 154.87,-163.5 154.87,-156.5"/>
</a>
</g>
<text text-anchor="middle" x="257.5" y="-163" font-family="Helvetica,sans-Serif" font-size="10.00" fill="grey"> metrics_settings</text>
</g>
<!-- Node6 -->
<g id="Node000006" class="node">
<title>Node6</title>
<g id="a_Node000006"><a xlink:href="../../d6/d02/structredis_1_1PubsubMetricsSettings.html" target="_top" xlink:title=" ">
<polygon fill="white" stroke="#bfbfbf" points="162.5,-126.5 4.5,-126.5 4.5,-107.5 162.5,-107.5 162.5,-126.5"/>
<text text-anchor="middle" x="83.5" y="-114.5" font-family="Helvetica,sans-Serif" font-size="10.00">redis::PubsubMetricsSettings</text>
</a>
</g>
</g>
<!-- Node6&#45;&gt;Node1 -->
<g id="edge5_Node000001_Node000006" class="edge">
<title>Node6&#45;&gt;Node1</title>
<g id="a_edge5_Node000001_Node000006"><a xlink:title=" ">
<path fill="none" stroke="#9a32cd" stroke-dasharray="5,2" d="M172.75,-125.49C219.58,-130.4 278.04,-137.15 330,-145 340.42,-146.57 351.55,-148.51 362.09,-150.47"/>
<polygon fill="#9a32cd" stroke="#9a32cd" points="172.95,-121.99 162.64,-124.44 172.23,-128.96 172.95,-121.99"/>
</a>
</g>
<text text-anchor="middle" x="257.5" y="-148" font-family="Helvetica,sans-Serif" font-size="10.00" fill="grey"> pubsub_metrics_settings</text>
</g>
<!-- Node7 -->
<g id="Node000007" class="node">
<title>Node7</title>
<g id="a_Node000007"><a xlink:href="../../db/de5/classutils_1_1DefaultDict.html" target="_top" xlink:title=" ">
<polygon fill="white" stroke="#666666" points="166,-89.5 1,-89.5 1,-48.5 166,-48.5 166,-89.5"/>
<text text-anchor="start" x="9" y="-77.5" font-family="Helvetica,sans-Serif" font-size="10.00">utils::DefaultDict</text>
<text text-anchor="start" x="9" y="-66.5" font-family="Helvetica,sans-Serif" font-size="10.00">&lt; redis::ReplicationMonitoring</text>
<text text-anchor="middle" x="83.5" y="-55.5" font-family="Helvetica,sans-Serif" font-size="10.00">Settings &gt;</text>
</a>
</g>
</g>
<!-- Node7&#45;&gt;Node1 -->
<g id="edge6_Node000001_Node000007" class="edge">
<title>Node7&#45;&gt;Node1</title>
<g id="a_edge6_Node000001_Node000007"><a xlink:title=" ">
<path fill="none" stroke="#9a32cd" stroke-dasharray="5,2" d="M176.4,-70.01C223.75,-73.22 281.55,-81.42 330,-101 358.37,-112.46 385.72,-136.51 399.76,-150.1"/>
<polygon fill="#9a32cd" stroke="#9a32cd" points="176.35,-66.5 166.16,-69.38 175.93,-73.49 176.35,-66.5"/>
</a>
</g>
<text text-anchor="start" x="200.5" y="-115" font-family="Helvetica,sans-Serif" font-size="10.00" fill="grey"> replication_monitoring</text>
<text text-anchor="middle" x="257.5" y="-104" font-family="Helvetica,sans-Serif" font-size="10.00" fill="grey">_settings</text>
</g>
<!-- Node8 -->
<g id="Node000008" class="node">
<title>Node8</title>
<g id="a_Node000008"><a xlink:href="../../db/de5/classutils_1_1DefaultDict.html" target="_top" xlink:title=" ">
<polygon fill="white" stroke="#666666" points="167,-30 0,-30 0,0 167,0 167,-30"/>
<text text-anchor="start" x="8" y="-18" font-family="Helvetica,sans-Serif" font-size="10.00">utils::DefaultDict</text>
<text text-anchor="middle" x="83.5" y="-7" font-family="Helvetica,sans-Serif" font-size="10.00">&lt; utils::RetryBudgetSettings &gt;</text>
</a>
</g>
</g>
<!-- Node8&#45;&gt;Node1 -->
<g id="edge7_Node000001_Node000008" class="edge">
<title>Node8&#45;&gt;Node1</title>
<g id="a_edge7_Node000001_Node000008"><a xlink:title=" ">
<path fill="none" stroke="#9a32cd" stroke-dasharray="5,2" d="M177.32,-13.96C225.83,-17.25 284.41,-27.54 330,-55 368.98,-78.48 395.4,-128.9 405.23,-150.19"/>
<polygon fill="#9a32cd" stroke="#9a32cd" points="177.32,-10.46 167.13,-13.36 176.91,-17.44 177.32,-10.46"/>
</a>
</g>
<text text-anchor="middle" x="257.5" y="-58" font-family="Helvetica,sans-Serif" font-size="10.00" fill="grey"> retry_budget_settings</text>
</g>
</g>
</svg>
