<?xml version="1.0" encoding="UTF-8" standalone="no"?>
<!DOCTYPE svg PUBLIC "-//W3C//DTD SVG 1.1//EN"
 "http://www.w3.org/Graphics/SVG/1.1/DTD/svg11.dtd">
<!-- Generated by graphviz version 2.43.0 (0)
 -->
<!-- Title: formats::json::parser::Subscriber&lt; T &gt; Pages: 1 -->
<svg width="326pt" height="86pt"
 viewBox="0.00 0.00 326.00 86.00" xmlns="http://www.w3.org/2000/svg" xmlns:xlink="http://www.w3.org/1999/xlink">
<g id="graph0" class="graph" transform="scale(1 1) rotate(0) translate(4 82)">
<title>formats::json::parser::Subscriber&lt; T &gt;</title>
<!-- Node1 -->
<g id="Node000001" class="node">
<title>Node1</title>
<g id="a_Node000001"><a xlink:title=" ">
<polygon fill="#999999" stroke="#666666" points="118,-54 0,-54 0,-24 118,-24 118,-54"/>
<text text-anchor="start" x="8" y="-42" font-family="Helvetica,sans-Serif" font-size="10.00">formats::json::parser</text>
<text text-anchor="middle" x="59" y="-31" font-family="Helvetica,sans-Serif" font-size="10.00">::Subscriber&lt; T &gt;</text>
</a>
</g>
</g>
<!-- Node2 -->
<g id="Node000002" class="node">
<title>Node2</title>
<g id="a_Node000002"><a xlink:href="../../d2/dfd/classformats_1_1json_1_1parser_1_1SubscriberSink.html" target="_top" xlink:title=" ">
<polygon fill="white" stroke="#bfbfbf" points="297.5,-78 174.5,-78 174.5,-48 297.5,-48 297.5,-78"/>
<text text-anchor="start" x="182.5" y="-66" font-family="Helvetica,sans-Serif" font-size="10.00">formats::json::parser</text>
<text text-anchor="middle" x="236" y="-55" font-family="Helvetica,sans-Serif" font-size="10.00">::SubscriberSink&lt; T &gt;</text>
</a>
</g>
</g>
<!-- Node1&#45;&gt;Node2 -->
<g id="edge1_Node000001_Node000002" class="edge">
<title>Node1&#45;&gt;Node2</title>
<g id="a_edge1_Node000001_Node000002"><a xlink:title=" ">
<path fill="none" stroke="#63b8ff" d="M128.57,-48.4C143.66,-50.47 159.53,-52.65 174.29,-54.67"/>
<polygon fill="#63b8ff" stroke="#63b8ff" points="128.66,-44.88 118.27,-46.99 127.7,-51.82 128.66,-44.88"/>
</a>
</g>
</g>
<!-- Node3 -->
<g id="Node000003" class="node">
<title>Node3</title>
<g id="a_Node000003"><a xlink:href="../../d8/d1a/classformats_1_1json_1_1parser_1_1SubscriberSinkOptional.html" target="_top" xlink:title=" ">
<polygon fill="white" stroke="#bfbfbf" points="318,-30 154,-30 154,0 318,0 318,-30"/>
<text text-anchor="start" x="162" y="-18" font-family="Helvetica,sans-Serif" font-size="10.00">formats::json::parser</text>
<text text-anchor="middle" x="236" y="-7" font-family="Helvetica,sans-Serif" font-size="10.00">::SubscriberSinkOptional&lt; T &gt;</text>
</a>
</g>
</g>
<!-- Node1&#45;&gt;Node3 -->
<g id="edge2_Node000001_Node000003" class="edge">
<title>Node1&#45;&gt;Node3</title>
<g id="a_edge2_Node000001_Node000003"><a xlink:title=" ">
<path fill="none" stroke="#63b8ff" d="M128.35,-29.63C136.74,-28.48 145.37,-27.29 153.92,-26.12"/>
<polygon fill="#63b8ff" stroke="#63b8ff" points="127.7,-26.18 118.27,-31.01 128.66,-33.12 127.7,-26.18"/>
</a>
</g>
</g>
</g>
</svg>
