<?xml version="1.0" encoding="UTF-8" standalone="no"?>
<!DOCTYPE svg PUBLIC "-//W3C//DTD SVG 1.1//EN"
 "http://www.w3.org/Graphics/SVG/1.1/DTD/svg11.dtd">
<!-- Generated by graphviz version 2.43.0 (0)
 -->
<!-- Title: userver/server/request/task_inherited_data.hpp Pages: 1 -->
<svg width="739pt" height="291pt"
 viewBox="0.00 0.00 738.50 291.00" xmlns="http://www.w3.org/2000/svg" xmlns:xlink="http://www.w3.org/1999/xlink">
<g id="graph0" class="graph" transform="scale(1 1) rotate(0) translate(4 287)">
<title>userver/server/request/task_inherited_data.hpp</title>
<!-- Node1 -->
<g id="Node000001" class="node">
<title>Node1</title>
<g id="a_Node000001"><a xlink:title="Per&#45;request data that should be available inside handlers.">
<polygon fill="#999999" stroke="#666666" points="395.5,-283 258.5,-283 258.5,-253 395.5,-253 395.5,-283"/>
<text text-anchor="start" x="266.5" y="-271" font-family="Helvetica,sans-Serif" font-size="10.00">userver/server/request</text>
<text text-anchor="middle" x="327" y="-260" font-family="Helvetica,sans-Serif" font-size="10.00">/task_inherited_data.hpp</text>
</a>
</g>
</g>
<!-- Node2 -->
<g id="Node000002" class="node">
<title>Node2</title>
<g id="a_Node000002"><a xlink:title=" ">
<polygon fill="#e0e0e0" stroke="#999999" points="306,-79.5 256,-79.5 256,-60.5 306,-60.5 306,-79.5"/>
<text text-anchor="middle" x="281" y="-67.5" font-family="Helvetica,sans-Serif" font-size="10.00">atomic</text>
</a>
</g>
</g>
<!-- Node1&#45;&gt;Node2 -->
<g id="edge1_Node000001_Node000002" class="edge">
<title>Node1&#45;&gt;Node2</title>
<g id="a_edge1_Node000001_Node000002"><a xlink:title=" ">
<path fill="none" stroke="#63b8ff" d="M317.48,-252.76C311.48,-243.08 304.12,-229.77 300,-217 285.78,-172.96 282.17,-118.18 281.28,-89.89"/>
<polygon fill="#63b8ff" stroke="#63b8ff" points="284.77,-89.71 281.04,-79.8 277.77,-89.88 284.77,-89.71"/>
</a>
</g>
</g>
<!-- Node3 -->
<g id="Node000003" class="node">
<title>Node3</title>
<g id="a_Node000003"><a xlink:title=" ">
<polygon fill="#e0e0e0" stroke="#999999" points="501,-211.5 457,-211.5 457,-192.5 501,-192.5 501,-211.5"/>
<text text-anchor="middle" x="479" y="-199.5" font-family="Helvetica,sans-Serif" font-size="10.00">string</text>
</a>
</g>
</g>
<!-- Node1&#45;&gt;Node3 -->
<g id="edge2_Node000001_Node000003" class="edge">
<title>Node1&#45;&gt;Node3</title>
<g id="a_edge2_Node000001_Node000003"><a xlink:title=" ">
<path fill="none" stroke="#63b8ff" d="M361.21,-252.94C385.25,-243 418.15,-229.32 447,-217 448,-216.57 449.02,-216.13 450.06,-215.69"/>
<polygon fill="#63b8ff" stroke="#63b8ff" points="451.61,-218.83 459.39,-211.64 448.83,-212.41 451.61,-218.83"/>
</a>
</g>
</g>
<!-- Node4 -->
<g id="Node000004" class="node">
<title>Node4</title>
<g id="a_Node000004"><a xlink:href="../../d2/d22/deadline_8hpp.html" target="_top" xlink:title="Internal representation of a deadline time point.">
<polygon fill="white" stroke="#666666" points="232.5,-211.5 77.5,-211.5 77.5,-192.5 232.5,-192.5 232.5,-211.5"/>
<text text-anchor="middle" x="155" y="-199.5" font-family="Helvetica,sans-Serif" font-size="10.00">userver/engine/deadline.hpp</text>
</a>
</g>
</g>
<!-- Node1&#45;&gt;Node4 -->
<g id="edge3_Node000001_Node000004" class="edge">
<title>Node1&#45;&gt;Node4</title>
<g id="a_edge3_Node000001_Node000004"><a xlink:title=" ">
<path fill="none" stroke="#63b8ff" d="M289.25,-252.95C258.82,-241.63 216.48,-225.88 187.53,-215.1"/>
<polygon fill="#63b8ff" stroke="#63b8ff" points="188.48,-211.72 177.89,-211.52 186.04,-218.28 188.48,-211.72"/>
</a>
</g>
</g>
<!-- Node9 -->
<g id="Node000009" class="node">
<title>Node9</title>
<g id="a_Node000009"><a xlink:href="../../d9/d56/inherited__variable_8hpp.html" target="_top" xlink:title="TaskInheritedVariable is a per&#45;coroutine variable of arbitrary type.">
<polygon fill="white" stroke="#666666" points="438.5,-217 309.5,-217 309.5,-187 438.5,-187 438.5,-217"/>
<text text-anchor="start" x="317.5" y="-205" font-family="Helvetica,sans-Serif" font-size="10.00">userver/engine/task</text>
<text text-anchor="middle" x="374" y="-194" font-family="Helvetica,sans-Serif" font-size="10.00">/inherited_variable.hpp</text>
</a>
</g>
</g>
<!-- Node1&#45;&gt;Node9 -->
<g id="edge8_Node000001_Node000009" class="edge">
<title>Node1&#45;&gt;Node9</title>
<g id="a_edge8_Node000001_Node000009"><a xlink:title=" ">
<path fill="none" stroke="#63b8ff" d="M337.43,-252.8C343.33,-244.76 350.85,-234.53 357.53,-225.43"/>
<polygon fill="#63b8ff" stroke="#63b8ff" points="360.5,-227.3 363.6,-217.16 354.86,-223.15 360.5,-227.3"/>
</a>
</g>
</g>
<!-- Node5 -->
<g id="Node000005" class="node">
<title>Node5</title>
<g id="a_Node000005"><a xlink:title=" ">
<polygon fill="#e0e0e0" stroke="#999999" points="50,-145.5 0,-145.5 0,-126.5 50,-126.5 50,-145.5"/>
<text text-anchor="middle" x="25" y="-133.5" font-family="Helvetica,sans-Serif" font-size="10.00">chrono</text>
</a>
</g>
</g>
<!-- Node4&#45;&gt;Node5 -->
<g id="edge4_Node000004_Node000005" class="edge">
<title>Node4&#45;&gt;Node5</title>
<g id="a_edge4_Node000004_Node000005"><a xlink:title=" ">
<path fill="none" stroke="#63b8ff" d="M137.47,-192.37C115.47,-181.54 77.51,-162.85 51.85,-150.22"/>
<polygon fill="#63b8ff" stroke="#63b8ff" points="53.19,-146.98 42.67,-145.7 50.1,-153.26 53.19,-146.98"/>
</a>
</g>
</g>
<!-- Node6 -->
<g id="Node000006" class="node">
<title>Node6</title>
<g id="a_Node000006"><a xlink:title=" ">
<polygon fill="#e0e0e0" stroke="#999999" points="387.5,-19 318.5,-19 318.5,0 387.5,0 387.5,-19"/>
<text text-anchor="middle" x="353" y="-7" font-family="Helvetica,sans-Serif" font-size="10.00">type_traits</text>
</a>
</g>
</g>
<!-- Node4&#45;&gt;Node6 -->
<g id="edge5_Node000004_Node000006" class="edge">
<title>Node4&#45;&gt;Node6</title>
<g id="a_edge5_Node000004_Node000006"><a xlink:title=" ">
<path fill="none" stroke="#63b8ff" d="M166.95,-192.23C178.72,-183.06 196.57,-167.7 208,-151 234.01,-113 214.62,-87.75 247,-55 263.59,-38.21 287.48,-27.44 308.38,-20.7"/>
<polygon fill="#63b8ff" stroke="#63b8ff" points="309.47,-24.03 318.04,-17.8 307.46,-17.33 309.47,-24.03"/>
</a>
</g>
</g>
<!-- Node7 -->
<g id="Node000007" class="node">
<title>Node7</title>
<g id="a_Node000007"><a xlink:href="../../d2/d54/assert_8hpp.html" target="_top" xlink:title="Assertion macros UASSERT, UASSERT_MSG, UINVARIANT.">
<polygon fill="white" stroke="#666666" points="199.5,-145.5 68.5,-145.5 68.5,-126.5 199.5,-126.5 199.5,-145.5"/>
<text text-anchor="middle" x="134" y="-133.5" font-family="Helvetica,sans-Serif" font-size="10.00">userver/utils/assert.hpp</text>
</a>
</g>
</g>
<!-- Node4&#45;&gt;Node7 -->
<g id="edge6_Node000004_Node000007" class="edge">
<title>Node4&#45;&gt;Node7</title>
<g id="a_edge6_Node000004_Node000007"><a xlink:title=" ">
<path fill="none" stroke="#63b8ff" d="M152.17,-192.37C149.09,-182.97 144.06,-167.67 140.08,-155.53"/>
<polygon fill="#63b8ff" stroke="#63b8ff" points="143.37,-154.32 136.92,-145.91 136.71,-156.5 143.37,-154.32"/>
</a>
</g>
</g>
<!-- Node8 -->
<g id="Node000008" class="node">
<title>Node8</title>
<g id="a_Node000008"><a xlink:title=" ">
<polygon fill="#e0e0e0" stroke="#999999" points="170.5,-79.5 97.5,-79.5 97.5,-60.5 170.5,-60.5 170.5,-79.5"/>
<text text-anchor="middle" x="134" y="-67.5" font-family="Helvetica,sans-Serif" font-size="10.00">string_view</text>
</a>
</g>
</g>
<!-- Node7&#45;&gt;Node8 -->
<g id="edge7_Node000007_Node000008" class="edge">
<title>Node7&#45;&gt;Node8</title>
<g id="a_edge7_Node000007_Node000008"><a xlink:title=" ">
<path fill="none" stroke="#63b8ff" d="M134,-126.37C134,-117.16 134,-102.29 134,-90.27"/>
<polygon fill="#63b8ff" stroke="#63b8ff" points="137.5,-89.91 134,-79.91 130.5,-89.91 137.5,-89.91"/>
</a>
</g>
</g>
<!-- Node9&#45;&gt;Node6 -->
<g id="edge9_Node000009_Node000006" class="edge">
<title>Node9&#45;&gt;Node6</title>
<g id="a_edge9_Node000009_Node000006"><a xlink:title=" ">
<path fill="none" stroke="#63b8ff" d="M366.75,-186.99C362.1,-177.2 356.48,-163.66 354,-151 345.57,-108.06 348.46,-56.32 350.95,-29.19"/>
<polygon fill="#63b8ff" stroke="#63b8ff" points="354.44,-29.46 351.96,-19.16 347.47,-28.76 354.44,-29.46"/>
</a>
</g>
</g>
<!-- Node10 -->
<g id="Node000010" class="node">
<title>Node10</title>
<g id="a_Node000010"><a xlink:title=" ">
<polygon fill="#e0e0e0" stroke="#999999" points="730.5,-19 685.5,-19 685.5,0 730.5,0 730.5,-19"/>
<text text-anchor="middle" x="708" y="-7" font-family="Helvetica,sans-Serif" font-size="10.00">utility</text>
</a>
</g>
</g>
<!-- Node9&#45;&gt;Node10 -->
<g id="edge10_Node000009_Node000010" class="edge">
<title>Node9&#45;&gt;Node10</title>
<g id="a_edge10_Node000009_Node000010"><a xlink:title=" ">
<path fill="none" stroke="#63b8ff" d="M436.5,-186.94C521.19,-166.58 665.67,-126.72 699,-85 711.42,-69.45 712.22,-45.93 710.85,-29.49"/>
<polygon fill="#63b8ff" stroke="#63b8ff" points="714.31,-28.95 709.67,-19.43 707.36,-29.77 714.31,-28.95"/>
</a>
</g>
</g>
<!-- Node11 -->
<g id="Node000011" class="node">
<title>Node11</title>
<g id="a_Node000011"><a xlink:href="../../df/ddb/task__local__storage_8hpp_source.html" target="_top" xlink:title=" ">
<polygon fill="white" stroke="#666666" points="495,-151 363,-151 363,-121 495,-121 495,-151"/>
<text text-anchor="start" x="371" y="-139" font-family="Helvetica,sans-Serif" font-size="10.00">userver/engine/impl</text>
<text text-anchor="middle" x="429" y="-128" font-family="Helvetica,sans-Serif" font-size="10.00">/task_local_storage.hpp</text>
</a>
</g>
</g>
<!-- Node9&#45;&gt;Node11 -->
<g id="edge11_Node000009_Node000011" class="edge">
<title>Node9&#45;&gt;Node11</title>
<g id="a_edge11_Node000009_Node000011"><a xlink:title=" ">
<path fill="none" stroke="#63b8ff" d="M386.21,-186.8C393.26,-178.59 402.27,-168.1 410.21,-158.87"/>
<polygon fill="#63b8ff" stroke="#63b8ff" points="412.96,-161.03 416.83,-151.16 407.66,-156.47 412.96,-161.03"/>
</a>
</g>
</g>
<!-- Node11&#45;&gt;Node2 -->
<g id="edge12_Node000011_Node000002" class="edge">
<title>Node11&#45;&gt;Node2</title>
<g id="a_edge12_Node000011_Node000002"><a xlink:title=" ">
<path fill="none" stroke="#63b8ff" d="M396.52,-120.95C370.68,-109.78 334.85,-94.29 309.97,-83.53"/>
<polygon fill="#63b8ff" stroke="#63b8ff" points="311.26,-80.27 300.7,-79.52 308.49,-86.7 311.26,-80.27"/>
</a>
</g>
</g>
<!-- Node11&#45;&gt;Node6 -->
<g id="edge15_Node000011_Node000006" class="edge">
<title>Node11&#45;&gt;Node6</title>
<g id="a_edge15_Node000011_Node000006"><a xlink:title=" ">
<path fill="none" stroke="#63b8ff" d="M416.98,-120.62C409.12,-110.88 398.89,-97.56 391,-85 379.33,-66.42 368.2,-43.81 361.03,-28.41"/>
<polygon fill="#63b8ff" stroke="#63b8ff" points="364.09,-26.68 356.75,-19.03 357.72,-29.58 364.09,-26.68"/>
</a>
</g>
</g>
<!-- Node12 -->
<g id="Node000012" class="node">
<title>Node12</title>
<g id="a_Node000012"><a xlink:title=" ">
<polygon fill="#e0e0e0" stroke="#999999" points="595.5,-19 542.5,-19 542.5,0 595.5,0 595.5,-19"/>
<text text-anchor="middle" x="569" y="-7" font-family="Helvetica,sans-Serif" font-size="10.00">cstddef</text>
</a>
</g>
</g>
<!-- Node11&#45;&gt;Node12 -->
<g id="edge13_Node000011_Node000012" class="edge">
<title>Node11&#45;&gt;Node12</title>
<g id="a_edge13_Node000011_Node000012"><a xlink:title=" ">
<path fill="none" stroke="#63b8ff" d="M483.36,-120.96C504.03,-113.27 526.34,-101.78 542,-85 556.34,-69.64 563.18,-46.08 566.36,-29.58"/>
<polygon fill="#63b8ff" stroke="#63b8ff" points="569.86,-29.91 568.03,-19.47 562.95,-28.77 569.86,-29.91"/>
</a>
</g>
</g>
<!-- Node13 -->
<g id="Node000013" class="node">
<title>Node13</title>
<g id="a_Node000013"><a xlink:title=" ">
<polygon fill="#e0e0e0" stroke="#999999" points="458,-79.5 400,-79.5 400,-60.5 458,-60.5 458,-79.5"/>
<text text-anchor="middle" x="429" y="-67.5" font-family="Helvetica,sans-Serif" font-size="10.00">memory</text>
</a>
</g>
</g>
<!-- Node11&#45;&gt;Node13 -->
<g id="edge14_Node000011_Node000013" class="edge">
<title>Node11&#45;&gt;Node13</title>
<g id="a_edge14_Node000011_Node000013"><a xlink:title=" ">
<path fill="none" stroke="#63b8ff" d="M429,-120.8C429,-111.7 429,-99.79 429,-89.9"/>
<polygon fill="#63b8ff" stroke="#63b8ff" points="432.5,-89.84 429,-79.84 425.5,-89.84 432.5,-89.84"/>
</a>
</g>
</g>
<!-- Node14 -->
<g id="Node000014" class="node">
<title>Node14</title>
<g id="a_Node000014"><a xlink:title=" ">
<polygon fill="#e0e0e0" stroke="#999999" points="533.5,-79.5 476.5,-79.5 476.5,-60.5 533.5,-60.5 533.5,-79.5"/>
<text text-anchor="middle" x="505" y="-67.5" font-family="Helvetica,sans-Serif" font-size="10.00">typeinfo</text>
</a>
</g>
</g>
<!-- Node11&#45;&gt;Node14 -->
<g id="edge16_Node000011_Node000014" class="edge">
<title>Node11&#45;&gt;Node14</title>
<g id="a_edge16_Node000011_Node000014"><a xlink:title=" ">
<path fill="none" stroke="#63b8ff" d="M445.87,-120.8C457.95,-110.62 474.21,-96.93 486.62,-86.48"/>
<polygon fill="#63b8ff" stroke="#63b8ff" points="489.1,-88.96 494.5,-79.84 484.59,-83.61 489.1,-88.96"/>
</a>
</g>
</g>
<!-- Node15 -->
<g id="Node000015" class="node">
<title>Node15</title>
<g id="a_Node000015"><a xlink:href="../../d5/d02/fast__pimpl_8hpp.html" target="_top" xlink:title="Implements pimpl idiom without dynamic memory allocation.">
<polygon fill="white" stroke="#666666" points="689.5,-85 590.5,-85 590.5,-55 689.5,-55 689.5,-85"/>
<text text-anchor="start" x="598.5" y="-73" font-family="Helvetica,sans-Serif" font-size="10.00">userver/utils/fast</text>
<text text-anchor="middle" x="640" y="-62" font-family="Helvetica,sans-Serif" font-size="10.00">_pimpl.hpp</text>
</a>
</g>
</g>
<!-- Node11&#45;&gt;Node15 -->
<g id="edge17_Node000011_Node000015" class="edge">
<title>Node11&#45;&gt;Node15</title>
<g id="a_edge17_Node000011_Node000015"><a xlink:title=" ">
<path fill="none" stroke="#63b8ff" d="M475.3,-120.95C507.32,-111.24 550.1,-98.27 584.03,-87.98"/>
<polygon fill="#63b8ff" stroke="#63b8ff" points="585.25,-91.26 593.8,-85.01 583.22,-84.57 585.25,-91.26"/>
</a>
</g>
</g>
<!-- Node15&#45;&gt;Node6 -->
<g id="edge20_Node000015_Node000006" class="edge">
<title>Node15&#45;&gt;Node6</title>
<g id="a_edge20_Node000015_Node000006"><a xlink:title=" ">
<path fill="none" stroke="#63b8ff" d="M590.34,-58.88C536.04,-47.81 449.82,-30.24 397.61,-19.59"/>
<polygon fill="#63b8ff" stroke="#63b8ff" points="398.14,-16.13 387.64,-17.56 396.74,-22.99 398.14,-16.13"/>
</a>
</g>
</g>
<!-- Node15&#45;&gt;Node10 -->
<g id="edge21_Node000015_Node000010" class="edge">
<title>Node15&#45;&gt;Node10</title>
<g id="a_edge21_Node000015_Node000010"><a xlink:title=" ">
<path fill="none" stroke="#63b8ff" d="M656.46,-54.84C666.63,-46.09 679.69,-34.85 690.12,-25.88"/>
<polygon fill="#63b8ff" stroke="#63b8ff" points="692.51,-28.44 697.81,-19.27 687.95,-23.13 692.51,-28.44"/>
</a>
</g>
</g>
<!-- Node15&#45;&gt;Node12 -->
<g id="edge18_Node000015_Node000012" class="edge">
<title>Node15&#45;&gt;Node12</title>
<g id="a_edge18_Node000015_Node000012"><a xlink:title=" ">
<path fill="none" stroke="#63b8ff" d="M622.81,-54.84C612.19,-46.09 598.56,-34.85 587.67,-25.88"/>
<polygon fill="#63b8ff" stroke="#63b8ff" points="589.58,-22.92 579.64,-19.27 585.13,-28.33 589.58,-22.92"/>
</a>
</g>
</g>
<!-- Node16 -->
<g id="Node000016" class="node">
<title>Node16</title>
<g id="a_Node000016"><a xlink:title=" ">
<polygon fill="#e0e0e0" stroke="#999999" points="658.5,-19 621.5,-19 621.5,0 658.5,0 658.5,-19"/>
<text text-anchor="middle" x="640" y="-7" font-family="Helvetica,sans-Serif" font-size="10.00">new</text>
</a>
</g>
</g>
<!-- Node15&#45;&gt;Node16 -->
<g id="edge19_Node000015_Node000016" class="edge">
<title>Node15&#45;&gt;Node16</title>
<g id="a_edge19_Node000015_Node000016"><a xlink:title=" ">
<path fill="none" stroke="#63b8ff" d="M640,-54.84C640,-47.21 640,-37.7 640,-29.45"/>
<polygon fill="#63b8ff" stroke="#63b8ff" points="643.5,-29.27 640,-19.27 636.5,-29.27 643.5,-29.27"/>
</a>
</g>
</g>
</g>
</svg>
