<?xml version="1.0" encoding="UTF-8" standalone="no"?>
<!DOCTYPE svg PUBLIC "-//W3C//DTD SVG 1.1//EN"
 "http://www.w3.org/Graphics/SVG/1.1/DTD/svg11.dtd">
<!-- Generated by graphviz version 2.43.0 (0)
 -->
<!-- Title: userver/dump/fwd.hpp Pages: 1 -->
<svg width="148pt" height="83pt"
 viewBox="0.00 0.00 147.50 82.74" xmlns="http://www.w3.org/2000/svg" xmlns:xlink="http://www.w3.org/1999/xlink">
<g id="graph0" class="graph" transform="scale(1 1) rotate(0) translate(4 78.74)">
<title>userver/dump/fwd.hpp</title>
<!-- Node1 -->
<g id="Node000001" class="node">
<title>Node1</title>
<g id="a_Node000001"><a xlink:title="Forward declarations of dump::Reader, dump::Writer and dump::To.">
<polygon fill="#999999" stroke="#666666" points="125,-74.74 0,-74.74 0,-55.74 125,-55.74 125,-74.74"/>
<text text-anchor="middle" x="62.5" y="-62.74" font-family="Helvetica,sans-Serif" font-size="10.00">userver/dump/fwd.hpp</text>
</a>
</g>
</g>
<!-- Node2 -->
<g id="Node000002" class="node">
<title>Node2</title>
<g id="a_Node000002"><a xlink:href="../../d4/d56/core_2include_2userver_2dump_2to_8hpp.html" target="_top" xlink:title="A marker type used in ADL&#45;found Read">
<polygon fill="white" stroke="#666666" points="121.5,-19.74 3.5,-19.74 3.5,-0.74 121.5,-0.74 121.5,-19.74"/>
<text text-anchor="middle" x="62.5" y="-7.74" font-family="Helvetica,sans-Serif" font-size="10.00">userver/dump/to.hpp</text>
</a>
</g>
</g>
<!-- Node1&#45;&gt;Node2 -->
<g id="edge1_Node000001_Node000002" class="edge">
<title>Node1&#45;&gt;Node2</title>
<g id="a_edge1_Node000001_Node000002"><a xlink:title=" ">
<path fill="none" stroke="#63b8ff" d="M62.5,-55.49C62.5,-48.55 62.5,-38.59 62.5,-29.88"/>
<polygon fill="#63b8ff" stroke="#63b8ff" points="66,-29.83 62.5,-19.83 59,-29.83 66,-29.83"/>
</a>
</g>
</g>
<!-- Node2&#45;&gt;Node2 -->
<g id="edge2_Node000002_Node000002" class="edge">
<title>Node2&#45;&gt;Node2</title>
<g id="a_edge2_Node000002_Node000002"><a xlink:title=" ">
<path fill="none" stroke="#63b8ff" d="M98.54,-19.78C119.7,-21.81 139.5,-18.63 139.5,-10.24 139.5,-3.24 125.66,0.13 108.76,-0.13"/>
<polygon fill="#63b8ff" stroke="#63b8ff" points="108.33,3.35 98.54,-0.71 108.72,-3.64 108.33,3.35"/>
</a>
</g>
</g>
</g>
</svg>
