<?xml version="1.0" encoding="UTF-8" standalone="no"?>
<!DOCTYPE svg PUBLIC "-//W3C//DTD SVG 1.1//EN"
 "http://www.w3.org/Graphics/SVG/1.1/DTD/svg11.dtd">
<!-- Generated by graphviz version 2.43.0 (0)
 -->
<!-- Title: userver/engine/task/shared_task_with_result.hpp Pages: 1 -->
<svg width="1623pt" height="544pt"
 viewBox="0.00 0.00 1623.00 544.00" xmlns="http://www.w3.org/2000/svg" xmlns:xlink="http://www.w3.org/1999/xlink">
<g id="graph0" class="graph" transform="scale(1 1) rotate(0) translate(4 540)">
<title>userver/engine/task/shared_task_with_result.hpp</title>
<!-- Node1 -->
<g id="Node000001" class="node">
<title>Node1</title>
<g id="a_Node000001"><a xlink:title="Asynchronous task with result that has a shared ownership of payload.">
<polygon fill="#999999" stroke="#666666" points="463.5,-536 304.5,-536 304.5,-506 463.5,-506 463.5,-536"/>
<text text-anchor="start" x="312.5" y="-524" font-family="Helvetica,sans-Serif" font-size="10.00">userver/engine/task</text>
<text text-anchor="middle" x="384" y="-513" font-family="Helvetica,sans-Serif" font-size="10.00">/shared_task_with_result.hpp</text>
</a>
</g>
</g>
<!-- Node2 -->
<g id="Node000002" class="node">
<title>Node2</title>
<g id="a_Node000002"><a xlink:title=" ">
<polygon fill="#e0e0e0" stroke="#999999" points="212,-266.5 154,-266.5 154,-247.5 212,-247.5 212,-266.5"/>
<text text-anchor="middle" x="183" y="-254.5" font-family="Helvetica,sans-Serif" font-size="10.00">memory</text>
</a>
</g>
</g>
<!-- Node1&#45;&gt;Node2 -->
<g id="edge1_Node000001_Node000002" class="edge">
<title>Node1&#45;&gt;Node2</title>
<g id="a_edge1_Node000001_Node000002"><a xlink:title=" ">
<path fill="none" stroke="#63b8ff" d="M373.19,-505.91C338.95,-461.28 232.93,-323.09 195.92,-274.84"/>
<polygon fill="#63b8ff" stroke="#63b8ff" points="198.52,-272.48 189.66,-266.68 192.97,-276.74 198.52,-272.48"/>
</a>
</g>
</g>
<!-- Node3 -->
<g id="Node000003" class="node">
<title>Node3</title>
<g id="a_Node000003"><a xlink:title=" ">
<polygon fill="#e0e0e0" stroke="#999999" points="297.5,-200.5 232.5,-200.5 232.5,-181.5 297.5,-181.5 297.5,-200.5"/>
<text text-anchor="middle" x="265" y="-188.5" font-family="Helvetica,sans-Serif" font-size="10.00">stdexcept</text>
</a>
</g>
</g>
<!-- Node1&#45;&gt;Node3 -->
<g id="edge2_Node000001_Node000003" class="edge">
<title>Node1&#45;&gt;Node3</title>
<g id="a_edge2_Node000001_Node000003"><a xlink:title=" ">
<path fill="none" stroke="#63b8ff" d="M363.56,-505.86C350.34,-496.33 333.03,-483.14 319,-470 276.25,-429.95 165.66,-326.81 145,-272 140.3,-259.52 137.6,-253.09 145,-242 162.15,-216.27 195.31,-203.76 222.43,-197.69"/>
<polygon fill="#63b8ff" stroke="#63b8ff" points="223.38,-201.07 232.49,-195.66 221.99,-194.21 223.38,-201.07"/>
</a>
</g>
</g>
<!-- Node4 -->
<g id="Node000004" class="node">
<title>Node4</title>
<g id="a_Node000004"><a xlink:title=" ">
<polygon fill="#e0e0e0" stroke="#999999" points="804.5,-74 735.5,-74 735.5,-55 804.5,-55 804.5,-74"/>
<text text-anchor="middle" x="770" y="-62" font-family="Helvetica,sans-Serif" font-size="10.00">type_traits</text>
</a>
</g>
</g>
<!-- Node1&#45;&gt;Node4 -->
<g id="edge3_Node000001_Node000004" class="edge">
<title>Node1&#45;&gt;Node4</title>
<g id="a_edge3_Node000001_Node000004"><a xlink:title=" ">
<path fill="none" stroke="#63b8ff" d="M304.43,-509.47C191.96,-492.31 0,-453.7 0,-390 0,-390 0,-390 0,-190 0,-147.59 15.37,-131.37 52,-110 110.01,-76.16 577.39,-67.77 725.29,-65.95"/>
<polygon fill="#63b8ff" stroke="#63b8ff" points="725.42,-69.45 735.38,-65.83 725.34,-62.45 725.42,-69.45"/>
</a>
</g>
</g>
<!-- Node5 -->
<g id="Node000005" class="node">
<title>Node5</title>
<g id="a_Node000005"><a xlink:title=" ">
<polygon fill="#e0e0e0" stroke="#999999" points="1472.5,-200.5 1427.5,-200.5 1427.5,-181.5 1472.5,-181.5 1472.5,-200.5"/>
<text text-anchor="middle" x="1450" y="-188.5" font-family="Helvetica,sans-Serif" font-size="10.00">utility</text>
</a>
</g>
</g>
<!-- Node1&#45;&gt;Node5 -->
<g id="edge4_Node000001_Node000005" class="edge">
<title>Node1&#45;&gt;Node5</title>
<g id="a_edge4_Node000001_Node000005"><a xlink:title=" ">
<path fill="none" stroke="#63b8ff" d="M463.66,-519.7C730.63,-517.65 1577,-502.31 1577,-390 1577,-390 1577,-390 1577,-322 1577,-265.72 1515.34,-224.75 1477.94,-205.08"/>
<polygon fill="#63b8ff" stroke="#63b8ff" points="1479.51,-201.95 1469.01,-200.55 1476.34,-208.2 1479.51,-201.95"/>
</a>
</g>
</g>
<!-- Node6 -->
<g id="Node000006" class="node">
<title>Node6</title>
<g id="a_Node000006"><a xlink:href="../../d9/d27/core_2include_2userver_2engine_2exception_8hpp.html" target="_top" xlink:title="Coroutine engine exceptions.">
<polygon fill="white" stroke="#666666" points="391.5,-266.5 230.5,-266.5 230.5,-247.5 391.5,-247.5 391.5,-266.5"/>
<text text-anchor="middle" x="311" y="-254.5" font-family="Helvetica,sans-Serif" font-size="10.00">userver/engine/exception.hpp</text>
</a>
</g>
</g>
<!-- Node1&#45;&gt;Node6 -->
<g id="edge5_Node000001_Node000006" class="edge">
<title>Node1&#45;&gt;Node6</title>
<g id="a_edge5_Node000001_Node000006"><a xlink:title=" ">
<path fill="none" stroke="#63b8ff" d="M376.58,-505.87C371.64,-496.02 365.29,-482.47 361,-470 337.03,-400.33 320.58,-313.9 314.09,-276.59"/>
<polygon fill="#63b8ff" stroke="#63b8ff" points="317.53,-275.93 312.4,-266.66 310.63,-277.1 317.53,-275.93"/>
</a>
</g>
</g>
<!-- Node12 -->
<g id="Node000012" class="node">
<title>Node12</title>
<g id="a_Node000012"><a xlink:href="../../d2/d54/assert_8hpp.html" target="_top" xlink:title="Assertion macros UASSERT, UASSERT_MSG, UINVARIANT.">
<polygon fill="white" stroke="#666666" points="1566.5,-74 1435.5,-74 1435.5,-55 1566.5,-55 1566.5,-74"/>
<text text-anchor="middle" x="1501" y="-62" font-family="Helvetica,sans-Serif" font-size="10.00">userver/utils/assert.hpp</text>
</a>
</g>
</g>
<!-- Node1&#45;&gt;Node12 -->
<g id="edge35_Node000001_Node000012" class="edge">
<title>Node1&#45;&gt;Node12</title>
<g id="a_edge35_Node000001_Node000012"><a xlink:title=" ">
<path fill="none" stroke="#63b8ff" d="M463.81,-520.29C678.27,-520.43 1263.35,-516.41 1450,-470 1529.09,-450.33 1615,-471.5 1615,-390 1615,-390 1615,-390 1615,-190 1615,-138.3 1560.86,-98.73 1527.2,-79.13"/>
<polygon fill="#63b8ff" stroke="#63b8ff" points="1528.75,-75.98 1518.31,-74.13 1525.32,-82.08 1528.75,-75.98"/>
</a>
</g>
</g>
<!-- Node14 -->
<g id="Node000014" class="node">
<title>Node14</title>
<g id="a_Node000014"><a xlink:href="../../d5/df2/task__context__holder_8hpp_source.html" target="_top" xlink:title=" ">
<polygon fill="white" stroke="#666666" points="205.5,-404 66.5,-404 66.5,-374 205.5,-374 205.5,-404"/>
<text text-anchor="start" x="74.5" y="-392" font-family="Helvetica,sans-Serif" font-size="10.00">userver/engine/impl</text>
<text text-anchor="middle" x="136" y="-381" font-family="Helvetica,sans-Serif" font-size="10.00">/task_context_holder.hpp</text>
</a>
</g>
</g>
<!-- Node1&#45;&gt;Node14 -->
<g id="edge15_Node000001_Node000014" class="edge">
<title>Node1&#45;&gt;Node14</title>
<g id="a_edge15_Node000001_Node000014"><a xlink:title=" ">
<path fill="none" stroke="#63b8ff" d="M312.82,-505.98C282.84,-498.17 248.4,-486.58 220,-470 193.91,-454.77 169.55,-429.91 153.85,-411.95"/>
<polygon fill="#63b8ff" stroke="#63b8ff" points="156.43,-409.57 147.28,-404.24 151.1,-414.12 156.43,-409.57"/>
</a>
</g>
</g>
<!-- Node15 -->
<g id="Node000015" class="node">
<title>Node15</title>
<g id="a_Node000015"><a xlink:href="../../d5/d6a/shared__task_8hpp.html" target="_top" xlink:title="Asynchronous task that has a shared ownership of the payload.">
<polygon fill="white" stroke="#666666" points="483.5,-470 370.5,-470 370.5,-440 483.5,-440 483.5,-470"/>
<text text-anchor="start" x="378.5" y="-458" font-family="Helvetica,sans-Serif" font-size="10.00">userver/engine/task</text>
<text text-anchor="middle" x="427" y="-447" font-family="Helvetica,sans-Serif" font-size="10.00">/shared_task.hpp</text>
</a>
</g>
</g>
<!-- Node1&#45;&gt;Node15 -->
<g id="edge17_Node000001_Node000015" class="edge">
<title>Node1&#45;&gt;Node15</title>
<g id="a_edge17_Node000001_Node000015"><a xlink:title=" ">
<path fill="none" stroke="#63b8ff" d="M393.54,-505.8C398.89,-497.84 405.68,-487.74 411.74,-478.71"/>
<polygon fill="#63b8ff" stroke="#63b8ff" points="414.81,-480.42 417.48,-470.16 409,-476.51 414.81,-480.42"/>
</a>
</g>
</g>
<!-- Node18 -->
<g id="Node000018" class="node">
<title>Node18</title>
<g id="a_Node000018"><a xlink:href="../../d8/d03/task__processor__fwd_8hpp.html" target="_top" xlink:title=" ">
<polygon fill="white" stroke="#666666" points="737.5,-272 600.5,-272 600.5,-242 737.5,-242 737.5,-272"/>
<text text-anchor="start" x="608.5" y="-260" font-family="Helvetica,sans-Serif" font-size="10.00">userver/engine/task</text>
<text text-anchor="middle" x="669" y="-249" font-family="Helvetica,sans-Serif" font-size="10.00">/task_processor_fwd.hpp</text>
</a>
</g>
</g>
<!-- Node1&#45;&gt;Node18 -->
<g id="edge34_Node000001_Node000018" class="edge">
<title>Node1&#45;&gt;Node18</title>
<g id="a_edge34_Node000001_Node000018"><a xlink:title=" ">
<path fill="none" stroke="#63b8ff" d="M422.12,-505.97C443.57,-497.2 470.32,-484.78 492,-470 562.13,-422.19 579.96,-406.55 630,-338 642.75,-320.53 653.22,-298.26 660.08,-281.65"/>
<polygon fill="#63b8ff" stroke="#63b8ff" points="663.43,-282.72 663.88,-272.13 656.92,-280.12 663.43,-282.72"/>
</a>
</g>
</g>
<!-- Node20 -->
<g id="Node000020" class="node">
<title>Node20</title>
<g id="a_Node000020"><a xlink:href="../../d9/d1c/wrapped__call_8hpp.html" target="_top" xlink:title="std::packaged_task replacement with noncopyable types support">
<polygon fill="white" stroke="#666666" points="1194.5,-338 1089.5,-338 1089.5,-308 1194.5,-308 1194.5,-338"/>
<text text-anchor="start" x="1097.5" y="-326" font-family="Helvetica,sans-Serif" font-size="10.00">userver/utils/impl</text>
<text text-anchor="middle" x="1142" y="-315" font-family="Helvetica,sans-Serif" font-size="10.00">/wrapped_call.hpp</text>
</a>
</g>
</g>
<!-- Node1&#45;&gt;Node20 -->
<g id="edge36_Node000001_Node000020" class="edge">
<title>Node1&#45;&gt;Node20</title>
<g id="a_edge36_Node000001_Node000020"><a xlink:title=" ">
<path fill="none" stroke="#63b8ff" d="M463.56,-518.75C634.58,-515.43 1025.77,-504.15 1075,-470 1115.94,-441.6 1132.37,-381.73 1138.56,-348.15"/>
<polygon fill="#63b8ff" stroke="#63b8ff" points="1142.02,-348.68 1140.23,-338.24 1135.12,-347.52 1142.02,-348.68"/>
</a>
</g>
</g>
<!-- Node6&#45;&gt;Node3 -->
<g id="edge6_Node000006_Node000003" class="edge">
<title>Node6&#45;&gt;Node3</title>
<g id="a_edge6_Node000006_Node000003"><a xlink:title=" ">
<path fill="none" stroke="#63b8ff" d="M304.8,-247.37C297.77,-237.59 286.15,-221.42 277.27,-209.08"/>
<polygon fill="#63b8ff" stroke="#63b8ff" points="280.08,-206.98 271.4,-200.91 274.39,-211.07 280.08,-206.98"/>
</a>
</g>
</g>
<!-- Node7 -->
<g id="Node000007" class="node">
<title>Node7</title>
<g id="a_Node000007"><a xlink:href="../../db/df2/cancel_8hpp.html" target="_top" xlink:title="Task cancellation helpers.">
<polygon fill="white" stroke="#666666" points="467.5,-206 354.5,-206 354.5,-176 467.5,-176 467.5,-206"/>
<text text-anchor="start" x="362.5" y="-194" font-family="Helvetica,sans-Serif" font-size="10.00">userver/engine/task</text>
<text text-anchor="middle" x="411" y="-183" font-family="Helvetica,sans-Serif" font-size="10.00">/cancel.hpp</text>
</a>
</g>
</g>
<!-- Node6&#45;&gt;Node7 -->
<g id="edge7_Node000006_Node000007" class="edge">
<title>Node6&#45;&gt;Node7</title>
<g id="a_edge7_Node000006_Node000007"><a xlink:title=" ">
<path fill="none" stroke="#63b8ff" d="M324.49,-247.37C338.75,-238.24 361.74,-223.53 380.44,-211.56"/>
<polygon fill="#63b8ff" stroke="#63b8ff" points="382.41,-214.45 388.94,-206.12 378.63,-208.56 382.41,-214.45"/>
</a>
</g>
</g>
<!-- Node8 -->
<g id="Node000008" class="node">
<title>Node8</title>
<g id="a_Node000008"><a xlink:title=" ">
<polygon fill="#e0e0e0" stroke="#999999" points="488,-134.5 444,-134.5 444,-115.5 488,-115.5 488,-134.5"/>
<text text-anchor="middle" x="466" y="-122.5" font-family="Helvetica,sans-Serif" font-size="10.00">string</text>
</a>
</g>
</g>
<!-- Node7&#45;&gt;Node8 -->
<g id="edge8_Node000007_Node000008" class="edge">
<title>Node7&#45;&gt;Node8</title>
<g id="a_edge8_Node000007_Node000008"><a xlink:title=" ">
<path fill="none" stroke="#63b8ff" d="M423.21,-175.8C431.61,-166.01 442.81,-152.98 451.65,-142.7"/>
<polygon fill="#63b8ff" stroke="#63b8ff" points="454.54,-144.71 458.4,-134.84 449.23,-140.15 454.54,-144.71"/>
</a>
</g>
</g>
<!-- Node9 -->
<g id="Node000009" class="node">
<title>Node9</title>
<g id="a_Node000009"><a xlink:title=" ">
<polygon fill="#e0e0e0" stroke="#999999" points="396,-140 256,-140 256,-110 396,-110 396,-140"/>
<text text-anchor="start" x="264" y="-128" font-family="Helvetica,sans-Serif" font-size="10.00">boost/smart_ptr/intrusive</text>
<text text-anchor="middle" x="326" y="-117" font-family="Helvetica,sans-Serif" font-size="10.00">_ptr.hpp</text>
</a>
</g>
</g>
<!-- Node7&#45;&gt;Node9 -->
<g id="edge9_Node000007_Node000009" class="edge">
<title>Node7&#45;&gt;Node9</title>
<g id="a_edge9_Node000007_Node000009"><a xlink:title=" ">
<path fill="none" stroke="#63b8ff" d="M392.14,-175.8C380.58,-167.1 365.61,-155.82 352.83,-146.2"/>
<polygon fill="#63b8ff" stroke="#63b8ff" points="354.91,-143.38 344.81,-140.16 350.69,-148.98 354.91,-143.38"/>
</a>
</g>
</g>
<!-- Node10 -->
<g id="Node000010" class="node">
<title>Node10</title>
<g id="a_Node000010"><a xlink:href="../../d2/d22/deadline_8hpp.html" target="_top" xlink:title="Internal representation of a deadline time point.">
<polygon fill="white" stroke="#666666" points="953.5,-134.5 798.5,-134.5 798.5,-115.5 953.5,-115.5 953.5,-134.5"/>
<text text-anchor="middle" x="876" y="-122.5" font-family="Helvetica,sans-Serif" font-size="10.00">userver/engine/deadline.hpp</text>
</a>
</g>
</g>
<!-- Node7&#45;&gt;Node10 -->
<g id="edge10_Node000007_Node000010" class="edge">
<title>Node7&#45;&gt;Node10</title>
<g id="a_edge10_Node000007_Node000010"><a xlink:title=" ">
<path fill="none" stroke="#63b8ff" d="M467.55,-182.22C552.01,-170.59 711.04,-148.7 803.79,-135.94"/>
<polygon fill="#63b8ff" stroke="#63b8ff" points="804.5,-139.37 813.93,-134.54 803.55,-132.44 804.5,-139.37"/>
</a>
</g>
</g>
<!-- Node10&#45;&gt;Node4 -->
<g id="edge12_Node000010_Node000004" class="edge">
<title>Node10&#45;&gt;Node4</title>
<g id="a_edge12_Node000010_Node000004"><a xlink:title=" ">
<path fill="none" stroke="#63b8ff" d="M860.36,-115.37C843.06,-105.82 814.95,-90.31 794.67,-79.12"/>
<polygon fill="#63b8ff" stroke="#63b8ff" points="796.15,-75.93 785.7,-74.17 792.77,-82.06 796.15,-75.93"/>
</a>
</g>
</g>
<!-- Node11 -->
<g id="Node000011" class="node">
<title>Node11</title>
<g id="a_Node000011"><a xlink:title=" ">
<polygon fill="#e0e0e0" stroke="#999999" points="973,-74 923,-74 923,-55 973,-55 973,-74"/>
<text text-anchor="middle" x="948" y="-62" font-family="Helvetica,sans-Serif" font-size="10.00">chrono</text>
</a>
</g>
</g>
<!-- Node10&#45;&gt;Node11 -->
<g id="edge11_Node000010_Node000011" class="edge">
<title>Node10&#45;&gt;Node11</title>
<g id="a_edge11_Node000010_Node000011"><a xlink:title=" ">
<path fill="none" stroke="#63b8ff" d="M886.62,-115.37C897.9,-106.21 915.92,-91.56 929.53,-80.51"/>
<polygon fill="#63b8ff" stroke="#63b8ff" points="931.78,-83.19 937.33,-74.17 927.36,-77.76 931.78,-83.19"/>
</a>
</g>
</g>
<!-- Node10&#45;&gt;Node12 -->
<g id="edge13_Node000010_Node000012" class="edge">
<title>Node10&#45;&gt;Node12</title>
<g id="a_edge13_Node000010_Node000012"><a xlink:title=" ">
<path fill="none" stroke="#63b8ff" d="M953.58,-116.74C1074.29,-105.44 1305.6,-83.79 1425.21,-72.59"/>
<polygon fill="#63b8ff" stroke="#63b8ff" points="1425.75,-76.06 1435.38,-71.64 1425.09,-69.09 1425.75,-76.06"/>
</a>
</g>
</g>
<!-- Node13 -->
<g id="Node000013" class="node">
<title>Node13</title>
<g id="a_Node000013"><a xlink:title=" ">
<polygon fill="#e0e0e0" stroke="#999999" points="1537.5,-19 1464.5,-19 1464.5,0 1537.5,0 1537.5,-19"/>
<text text-anchor="middle" x="1501" y="-7" font-family="Helvetica,sans-Serif" font-size="10.00">string_view</text>
</a>
</g>
</g>
<!-- Node12&#45;&gt;Node13 -->
<g id="edge14_Node000012_Node000013" class="edge">
<title>Node12&#45;&gt;Node13</title>
<g id="a_edge14_Node000012_Node000013"><a xlink:title=" ">
<path fill="none" stroke="#63b8ff" d="M1501,-54.75C1501,-47.8 1501,-37.85 1501,-29.13"/>
<polygon fill="#63b8ff" stroke="#63b8ff" points="1504.5,-29.09 1501,-19.09 1497.5,-29.09 1504.5,-29.09"/>
</a>
</g>
</g>
<!-- Node14&#45;&gt;Node9 -->
<g id="edge16_Node000014_Node000009" class="edge">
<title>Node14&#45;&gt;Node9</title>
<g id="a_edge16_Node000014_Node000009"><a xlink:title=" ">
<path fill="none" stroke="#63b8ff" d="M127.9,-373.66C113.58,-346.19 87.49,-285.09 112,-242 141.92,-189.4 205.33,-159.35 255.4,-143.08"/>
<polygon fill="#63b8ff" stroke="#63b8ff" points="256.72,-146.33 265.22,-140.01 254.63,-139.65 256.72,-146.33"/>
</a>
</g>
</g>
<!-- Node15&#45;&gt;Node2 -->
<g id="edge18_Node000015_Node000002" class="edge">
<title>Node15&#45;&gt;Node2</title>
<g id="a_edge18_Node000015_Node000002"><a xlink:title=" ">
<path fill="none" stroke="#63b8ff" d="M416.27,-439.95C394.32,-411.93 341.63,-348.34 286,-308 264.33,-292.29 236.95,-279.27 215.87,-270.46"/>
<polygon fill="#63b8ff" stroke="#63b8ff" points="216.96,-267.12 206.38,-266.6 214.32,-273.61 216.96,-267.12"/>
</a>
</g>
</g>
<!-- Node15&#45;&gt;Node4 -->
<g id="edge19_Node000015_Node000004" class="edge">
<title>Node15&#45;&gt;Node4</title>
<g id="a_edge19_Node000015_Node000004"><a xlink:title=" ">
<path fill="none" stroke="#63b8ff" d="M370.27,-453.92C278.17,-452.59 101.86,-444.63 57,-404 29.91,-379.47 38,-360.54 38,-324 38,-324 38,-324 38,-190 38,-90.54 150.05,-132.21 247,-110 420.45,-70.26 633.58,-65.25 724.95,-65.12"/>
<polygon fill="#63b8ff" stroke="#63b8ff" points="725.22,-68.62 735.22,-65.12 725.22,-61.62 725.22,-68.62"/>
</a>
</g>
</g>
<!-- Node15&#45;&gt;Node5 -->
<g id="edge20_Node000015_Node000005" class="edge">
<title>Node15&#45;&gt;Node5</title>
<g id="a_edge20_Node000015_Node000005"><a xlink:title=" ">
<path fill="none" stroke="#63b8ff" d="M483.89,-447.51C612.77,-432.38 936.59,-391.89 1204,-338 1320.45,-314.53 1390.11,-365.8 1463,-272 1476.86,-254.17 1468.23,-227.25 1459.86,-209.65"/>
<polygon fill="#63b8ff" stroke="#63b8ff" points="1462.84,-207.78 1455.14,-200.5 1456.62,-210.99 1462.84,-207.78"/>
</a>
</g>
</g>
<!-- Node15&#45;&gt;Node14 -->
<g id="edge21_Node000015_Node000014" class="edge">
<title>Node15&#45;&gt;Node14</title>
<g id="a_edge21_Node000015_Node000014"><a xlink:title=" ">
<path fill="none" stroke="#63b8ff" d="M370.2,-441.51C324.4,-431.43 259.63,-417.19 209.81,-406.23"/>
<polygon fill="#63b8ff" stroke="#63b8ff" points="210.26,-402.75 199.74,-404.02 208.75,-409.58 210.26,-402.75"/>
</a>
</g>
</g>
<!-- Node16 -->
<g id="Node000016" class="node">
<title>Node16</title>
<g id="a_Node000016"><a xlink:href="../../d8/da1/task_8hpp.html" target="_top" xlink:title="Asynchronous task that has a unique ownership of the payload.">
<polygon fill="white" stroke="#666666" points="521.5,-404 408.5,-404 408.5,-374 521.5,-374 521.5,-404"/>
<text text-anchor="start" x="416.5" y="-392" font-family="Helvetica,sans-Serif" font-size="10.00">userver/engine/task</text>
<text text-anchor="middle" x="465" y="-381" font-family="Helvetica,sans-Serif" font-size="10.00">/task.hpp</text>
</a>
</g>
</g>
<!-- Node15&#45;&gt;Node16 -->
<g id="edge22_Node000015_Node000016" class="edge">
<title>Node15&#45;&gt;Node16</title>
<g id="a_edge22_Node000015_Node000016"><a xlink:title=" ">
<path fill="none" stroke="#63b8ff" d="M435.43,-439.8C440.11,-431.92 446.03,-421.95 451.35,-412.99"/>
<polygon fill="#63b8ff" stroke="#63b8ff" points="454.49,-414.55 456.59,-404.16 448.48,-410.98 454.49,-414.55"/>
</a>
</g>
</g>
<!-- Node15&#45;&gt;Node18 -->
<g id="edge33_Node000015_Node000018" class="edge">
<title>Node15&#45;&gt;Node18</title>
<g id="a_edge33_Node000015_Node000018"><a xlink:title=" ">
<path fill="none" stroke="#63b8ff" d="M464.06,-439.84C484.51,-431.12 509.78,-418.77 530,-404 580.37,-367.2 627.98,-310.87 652.26,-280.04"/>
<polygon fill="#63b8ff" stroke="#63b8ff" points="655.09,-282.1 658.47,-272.06 649.57,-277.8 655.09,-282.1"/>
</a>
</g>
</g>
<!-- Node17 -->
<g id="Node000017" class="node">
<title>Node17</title>
<g id="a_Node000017"><a xlink:href="../../d9/d72/task__base_8hpp.html" target="_top" xlink:title="Base class for all the asynchronous tasks (engine::Task, engine::SharedTask, engine::SharedTaskWithRe...">
<polygon fill="white" stroke="#666666" points="521.5,-338 408.5,-338 408.5,-308 521.5,-308 521.5,-338"/>
<text text-anchor="start" x="416.5" y="-326" font-family="Helvetica,sans-Serif" font-size="10.00">userver/engine/task</text>
<text text-anchor="middle" x="465" y="-315" font-family="Helvetica,sans-Serif" font-size="10.00">/task_base.hpp</text>
</a>
</g>
</g>
<!-- Node16&#45;&gt;Node17 -->
<g id="edge23_Node000016_Node000017" class="edge">
<title>Node16&#45;&gt;Node17</title>
<g id="a_edge23_Node000016_Node000017"><a xlink:title=" ">
<path fill="none" stroke="#63b8ff" d="M465,-373.8C465,-366.34 465,-356.99 465,-348.41"/>
<polygon fill="#63b8ff" stroke="#63b8ff" points="468.5,-348.16 465,-338.16 461.5,-348.16 468.5,-348.16"/>
</a>
</g>
</g>
<!-- Node17&#45;&gt;Node2 -->
<g id="edge25_Node000017_Node000002" class="edge">
<title>Node17&#45;&gt;Node2</title>
<g id="a_edge25_Node000017_Node000002"><a xlink:title=" ">
<path fill="none" stroke="#63b8ff" d="M408.21,-312.87C358.38,-304.26 284.21,-290.01 221,-272 218.72,-271.35 216.38,-270.63 214.03,-269.86"/>
<polygon fill="#63b8ff" stroke="#63b8ff" points="215.11,-266.53 204.52,-266.57 212.82,-273.15 215.11,-266.53"/>
</a>
</g>
</g>
<!-- Node17&#45;&gt;Node6 -->
<g id="edge29_Node000017_Node000006" class="edge">
<title>Node17&#45;&gt;Node6</title>
<g id="a_edge29_Node000017_Node000006"><a xlink:title=" ">
<path fill="none" stroke="#63b8ff" d="M431.2,-307.95C404.2,-296.73 366.7,-281.15 340.81,-270.39"/>
<polygon fill="#63b8ff" stroke="#63b8ff" points="342.07,-267.12 331.49,-266.52 339.39,-273.59 342.07,-267.12"/>
</a>
</g>
</g>
<!-- Node17&#45;&gt;Node7 -->
<g id="edge30_Node000017_Node000007" class="edge">
<title>Node17&#45;&gt;Node7</title>
<g id="a_edge30_Node000017_Node000007"><a xlink:title=" ">
<path fill="none" stroke="#63b8ff" d="M459.77,-307.73C453.81,-291.65 443.64,-264.77 434,-242 430.31,-233.27 426.02,-223.8 422.16,-215.47"/>
<polygon fill="#63b8ff" stroke="#63b8ff" points="425.29,-213.91 417.88,-206.34 418.95,-216.88 425.29,-213.91"/>
</a>
</g>
</g>
<!-- Node17&#45;&gt;Node8 -->
<g id="edge26_Node000017_Node000008" class="edge">
<title>Node17&#45;&gt;Node8</title>
<g id="a_edge26_Node000017_Node000008"><a xlink:title=" ">
<path fill="none" stroke="#63b8ff" d="M467.69,-307.89C472.31,-281.81 480.78,-224.31 476,-176 474.96,-165.49 472.72,-153.92 470.62,-144.55"/>
<polygon fill="#63b8ff" stroke="#63b8ff" points="474.01,-143.7 468.3,-134.77 467.2,-145.31 474.01,-143.7"/>
</a>
</g>
</g>
<!-- Node17&#45;&gt;Node9 -->
<g id="edge27_Node000017_Node000009" class="edge">
<title>Node17&#45;&gt;Node9</title>
<g id="a_edge27_Node000017_Node000009"><a xlink:title=" ">
<path fill="none" stroke="#63b8ff" d="M455.57,-307.88C443.84,-290.97 422.59,-262.38 400,-242 378.31,-222.43 361.79,-229.91 345,-206 333.56,-189.71 328.95,-167.43 327.11,-150.52"/>
<polygon fill="#63b8ff" stroke="#63b8ff" points="330.58,-149.97 326.27,-140.3 323.61,-150.55 330.58,-149.97"/>
</a>
</g>
</g>
<!-- Node17&#45;&gt;Node10 -->
<g id="edge28_Node000017_Node000010" class="edge">
<title>Node17&#45;&gt;Node10</title>
<g id="a_edge28_Node000017_Node000010"><a xlink:title=" ">
<path fill="none" stroke="#63b8ff" d="M470.92,-307.93C484.26,-278.09 519.74,-208.56 573,-176 608.26,-154.44 711.95,-140.66 788.24,-133.14"/>
<polygon fill="#63b8ff" stroke="#63b8ff" points="788.73,-136.61 798.35,-132.16 788.06,-129.64 788.73,-136.61"/>
</a>
</g>
</g>
<!-- Node17&#45;&gt;Node11 -->
<g id="edge24_Node000017_Node000011" class="edge">
<title>Node17&#45;&gt;Node11</title>
<g id="a_edge24_Node000017_Node000011"><a xlink:title=" ">
<path fill="none" stroke="#63b8ff" d="M477.91,-307.68C506.22,-277.36 577.26,-206.95 653,-176 717.2,-149.76 916.88,-191.79 963,-140 976.94,-124.35 967.81,-99.44 958.87,-82.79"/>
<polygon fill="#63b8ff" stroke="#63b8ff" points="961.85,-80.96 953.8,-74.07 955.8,-84.47 961.85,-80.96"/>
</a>
</g>
</g>
<!-- Node17&#45;&gt;Node18 -->
<g id="edge31_Node000017_Node000018" class="edge">
<title>Node17&#45;&gt;Node18</title>
<g id="a_edge31_Node000017_Node000018"><a xlink:title=" ">
<path fill="none" stroke="#63b8ff" d="M509.77,-307.95C540.59,-298.28 581.73,-285.38 614.47,-275.11"/>
<polygon fill="#63b8ff" stroke="#63b8ff" points="615.84,-278.35 624.34,-272.01 613.75,-271.67 615.84,-278.35"/>
</a>
</g>
</g>
<!-- Node19 -->
<g id="Node000019" class="node">
<title>Node19</title>
<g id="a_Node000019"><a xlink:title=" ">
<polygon fill="#e0e0e0" stroke="#999999" points="726.5,-200.5 661.5,-200.5 661.5,-181.5 726.5,-181.5 726.5,-200.5"/>
<text text-anchor="middle" x="694" y="-188.5" font-family="Helvetica,sans-Serif" font-size="10.00">functional</text>
</a>
</g>
</g>
<!-- Node18&#45;&gt;Node19 -->
<g id="edge32_Node000018_Node000019" class="edge">
<title>Node18&#45;&gt;Node19</title>
<g id="a_edge32_Node000018_Node000019"><a xlink:title=" ">
<path fill="none" stroke="#63b8ff" d="M674.55,-241.8C678.18,-232.5 682.96,-220.27 686.87,-210.26"/>
<polygon fill="#63b8ff" stroke="#63b8ff" points="690.17,-211.43 690.55,-200.84 683.65,-208.89 690.17,-211.43"/>
</a>
</g>
</g>
<!-- Node20&#45;&gt;Node4 -->
<g id="edge42_Node000020_Node000004" class="edge">
<title>Node20&#45;&gt;Node4</title>
<g id="a_edge42_Node000020_Node000004"><a xlink:title=" ">
<path fill="none" stroke="#63b8ff" d="M1089.38,-318.77C1013.99,-313.23 880.02,-299.74 841,-272 779.15,-228.03 770.61,-126.56 769.83,-84.4"/>
<polygon fill="#63b8ff" stroke="#63b8ff" points="773.33,-84.16 769.78,-74.18 766.33,-84.2 773.33,-84.16"/>
</a>
</g>
</g>
<!-- Node20&#45;&gt;Node5 -->
<g id="edge43_Node000020_Node000005" class="edge">
<title>Node20&#45;&gt;Node5</title>
<g id="a_edge43_Node000020_Node000005"><a xlink:title=" ">
<path fill="none" stroke="#63b8ff" d="M1194.61,-320.84C1272.11,-317.93 1411.32,-307.74 1444,-272 1458.95,-255.66 1457.64,-228.76 1454.51,-210.71"/>
<polygon fill="#63b8ff" stroke="#63b8ff" points="1457.91,-209.88 1452.45,-200.8 1451.05,-211.3 1457.91,-209.88"/>
</a>
</g>
</g>
<!-- Node20&#45;&gt;Node12 -->
<g id="edge44_Node000020_Node000012" class="edge">
<title>Node20&#45;&gt;Node12</title>
<g id="a_edge44_Node000020_Node000012"><a xlink:title=" ">
<path fill="none" stroke="#63b8ff" d="M1194.66,-320.5C1275.28,-317.13 1424.08,-306.31 1463,-272 1517.49,-223.97 1510.17,-125.6 1504.26,-84.35"/>
<polygon fill="#63b8ff" stroke="#63b8ff" points="1507.69,-83.66 1502.68,-74.33 1500.78,-84.75 1507.69,-83.66"/>
</a>
</g>
</g>
<!-- Node20&#45;&gt;Node19 -->
<g id="edge38_Node000020_Node000019" class="edge">
<title>Node20&#45;&gt;Node19</title>
<g id="a_edge38_Node000020_Node000019"><a xlink:title=" ">
<path fill="none" stroke="#63b8ff" d="M1089.41,-310.59C1084.55,-309.67 1079.69,-308.78 1075,-308 949.08,-286.93 907.08,-322.91 790,-272 772.28,-264.29 732.74,-228.58 710.33,-207.57"/>
<polygon fill="#63b8ff" stroke="#63b8ff" points="712.59,-204.89 702.92,-200.57 707.78,-209.98 712.59,-204.89"/>
</a>
</g>
</g>
<!-- Node21 -->
<g id="Node000021" class="node">
<title>Node21</title>
<g id="a_Node000021"><a xlink:title=" ">
<polygon fill="#e0e0e0" stroke="#999999" points="1168.5,-266.5 1115.5,-266.5 1115.5,-247.5 1168.5,-247.5 1168.5,-266.5"/>
<text text-anchor="middle" x="1142" y="-254.5" font-family="Helvetica,sans-Serif" font-size="10.00">cstddef</text>
</a>
</g>
</g>
<!-- Node20&#45;&gt;Node21 -->
<g id="edge37_Node000020_Node000021" class="edge">
<title>Node20&#45;&gt;Node21</title>
<g id="a_edge37_Node000020_Node000021"><a xlink:title=" ">
<path fill="none" stroke="#63b8ff" d="M1142,-307.8C1142,-298.7 1142,-286.79 1142,-276.9"/>
<polygon fill="#63b8ff" stroke="#63b8ff" points="1145.5,-276.84 1142,-266.84 1138.5,-276.84 1145.5,-276.84"/>
</a>
</g>
</g>
<!-- Node22 -->
<g id="Node000022" class="node">
<title>Node22</title>
<g id="a_Node000022"><a xlink:title=" ">
<polygon fill="#e0e0e0" stroke="#999999" points="1223.5,-266.5 1186.5,-266.5 1186.5,-247.5 1223.5,-247.5 1223.5,-266.5"/>
<text text-anchor="middle" x="1205" y="-254.5" font-family="Helvetica,sans-Serif" font-size="10.00">new</text>
</a>
</g>
</g>
<!-- Node20&#45;&gt;Node22 -->
<g id="edge39_Node000020_Node000022" class="edge">
<title>Node20&#45;&gt;Node22</title>
<g id="a_edge39_Node000020_Node000022"><a xlink:title=" ">
<path fill="none" stroke="#63b8ff" d="M1155.98,-307.8C1165.8,-297.82 1178.96,-284.46 1189.17,-274.09"/>
<polygon fill="#63b8ff" stroke="#63b8ff" points="1191.77,-276.43 1196.29,-266.84 1186.78,-271.52 1191.77,-276.43"/>
</a>
</g>
</g>
<!-- Node23 -->
<g id="Node000023" class="node">
<title>Node23</title>
<g id="a_Node000023"><a xlink:title=" ">
<polygon fill="#e0e0e0" stroke="#999999" points="870,-200.5 814,-200.5 814,-181.5 870,-181.5 870,-200.5"/>
<text text-anchor="middle" x="842" y="-188.5" font-family="Helvetica,sans-Serif" font-size="10.00">optional</text>
</a>
</g>
</g>
<!-- Node20&#45;&gt;Node23 -->
<g id="edge40_Node000020_Node000023" class="edge">
<title>Node20&#45;&gt;Node23</title>
<g id="a_edge40_Node000020_Node000023"><a xlink:title=" ">
<path fill="none" stroke="#63b8ff" d="M1089.37,-310.8C1084.52,-309.83 1079.67,-308.88 1075,-308 1027.61,-299.07 896.21,-304.95 861,-272 844.34,-256.41 841.08,-229.11 840.98,-210.79"/>
<polygon fill="#63b8ff" stroke="#63b8ff" points="844.48,-210.82 841.23,-200.73 837.48,-210.64 844.48,-210.82"/>
</a>
</g>
</g>
<!-- Node24 -->
<g id="Node000024" class="node">
<title>Node24</title>
<g id="a_Node000024"><a xlink:title=" ">
<polygon fill="#e0e0e0" stroke="#999999" points="1282.5,-266.5 1241.5,-266.5 1241.5,-247.5 1282.5,-247.5 1282.5,-266.5"/>
<text text-anchor="middle" x="1262" y="-254.5" font-family="Helvetica,sans-Serif" font-size="10.00">tuple</text>
</a>
</g>
</g>
<!-- Node20&#45;&gt;Node24 -->
<g id="edge41_Node000020_Node000024" class="edge">
<title>Node20&#45;&gt;Node24</title>
<g id="a_edge41_Node000020_Node000024"><a xlink:title=" ">
<path fill="none" stroke="#63b8ff" d="M1168.33,-307.95C1188.82,-297.03 1217.06,-281.97 1237.16,-271.25"/>
<polygon fill="#63b8ff" stroke="#63b8ff" points="1238.85,-274.31 1246.03,-266.52 1235.56,-268.14 1238.85,-274.31"/>
</a>
</g>
</g>
<!-- Node25 -->
<g id="Node000025" class="node">
<title>Node25</title>
<g id="a_Node000025"><a xlink:href="../../d8/d72/wrapped__call__base_8hpp_source.html" target="_top" xlink:title=" ">
<polygon fill="white" stroke="#666666" points="1435,-272 1301,-272 1301,-242 1435,-242 1435,-272"/>
<text text-anchor="start" x="1309" y="-260" font-family="Helvetica,sans-Serif" font-size="10.00">userver/utils/impl</text>
<text text-anchor="middle" x="1368" y="-249" font-family="Helvetica,sans-Serif" font-size="10.00">/wrapped_call_base.hpp</text>
</a>
</g>
</g>
<!-- Node20&#45;&gt;Node25 -->
<g id="edge45_Node000020_Node000025" class="edge">
<title>Node20&#45;&gt;Node25</title>
<g id="a_edge45_Node000020_Node000025"><a xlink:title=" ">
<path fill="none" stroke="#63b8ff" d="M1191.6,-307.95C1226.04,-298.2 1272.1,-285.16 1308.52,-274.84"/>
<polygon fill="#63b8ff" stroke="#63b8ff" points="1309.85,-278.1 1318.52,-272.01 1307.94,-271.37 1309.85,-278.1"/>
</a>
</g>
</g>
<!-- Node26 -->
<g id="Node000026" class="node">
<title>Node26</title>
<g id="a_Node000026"><a xlink:href="../../d3/d89/lazy__prvalue_8hpp.html" target="_top" xlink:title="Can be used with various emplace functions to allow in&#45;place constructing a non&#45;movable value using a...">
<polygon fill="white" stroke="#666666" points="1097.5,-272 996.5,-272 996.5,-242 1097.5,-242 1097.5,-272"/>
<text text-anchor="start" x="1004.5" y="-260" font-family="Helvetica,sans-Serif" font-size="10.00">userver/utils/lazy</text>
<text text-anchor="middle" x="1047" y="-249" font-family="Helvetica,sans-Serif" font-size="10.00">_prvalue.hpp</text>
</a>
</g>
</g>
<!-- Node20&#45;&gt;Node26 -->
<g id="edge46_Node000020_Node000026" class="edge">
<title>Node20&#45;&gt;Node26</title>
<g id="a_edge46_Node000020_Node000026"><a xlink:title=" ">
<path fill="none" stroke="#63b8ff" d="M1120.92,-307.8C1107.88,-299.01 1090.95,-287.61 1076.58,-277.93"/>
<polygon fill="#63b8ff" stroke="#63b8ff" points="1078.27,-274.85 1068.02,-272.16 1074.36,-280.65 1078.27,-274.85"/>
</a>
</g>
</g>
<!-- Node27 -->
<g id="Node000027" class="node">
<title>Node27</title>
<g id="a_Node000027"><a xlink:href="../../d8/df1/result__store_8hpp.html" target="_top" xlink:title=" ">
<polygon fill="white" stroke="#666666" points="978,-272 870,-272 870,-242 978,-242 978,-272"/>
<text text-anchor="start" x="878" y="-260" font-family="Helvetica,sans-Serif" font-size="10.00">userver/utils/result</text>
<text text-anchor="middle" x="924" y="-249" font-family="Helvetica,sans-Serif" font-size="10.00">_store.hpp</text>
</a>
</g>
</g>
<!-- Node20&#45;&gt;Node27 -->
<g id="edge49_Node000020_Node000027" class="edge">
<title>Node20&#45;&gt;Node27</title>
<g id="a_edge49_Node000020_Node000027"><a xlink:title=" ">
<path fill="none" stroke="#63b8ff" d="M1094.16,-307.95C1060.94,-298.2 1016.5,-285.16 981.37,-274.84"/>
<polygon fill="#63b8ff" stroke="#63b8ff" points="982.31,-271.47 971.73,-272.01 980.34,-278.19 982.31,-271.47"/>
</a>
</g>
</g>
<!-- Node26&#45;&gt;Node4 -->
<g id="edge47_Node000026_Node000004" class="edge">
<title>Node26&#45;&gt;Node4</title>
<g id="a_edge47_Node000026_Node000004"><a xlink:title=" ">
<path fill="none" stroke="#63b8ff" d="M1043.05,-241.77C1034.08,-212.27 1009.29,-144.3 963,-110 919.7,-77.92 857.09,-68.44 815.03,-65.91"/>
<polygon fill="#63b8ff" stroke="#63b8ff" points="814.97,-62.4 804.81,-65.41 814.62,-69.4 814.97,-62.4"/>
</a>
</g>
</g>
<!-- Node26&#45;&gt;Node5 -->
<g id="edge48_Node000026_Node000005" class="edge">
<title>Node26&#45;&gt;Node5</title>
<g id="a_edge48_Node000026_Node000005"><a xlink:title=" ">
<path fill="none" stroke="#63b8ff" d="M1097.68,-243.86C1100.82,-243.2 1103.95,-242.58 1107,-242 1220.23,-220.58 1355.99,-203.23 1417.22,-195.84"/>
<polygon fill="#63b8ff" stroke="#63b8ff" points="1417.9,-199.29 1427.42,-194.62 1417.07,-192.33 1417.9,-199.29"/>
</a>
</g>
</g>
<!-- Node27&#45;&gt;Node3 -->
<g id="edge52_Node000027_Node000003" class="edge">
<title>Node27&#45;&gt;Node3</title>
<g id="a_edge52_Node000027_Node000003"><a xlink:title=" ">
<path fill="none" stroke="#63b8ff" d="M869.83,-251.59C735.88,-240.66 396.21,-212.68 345,-206 332.77,-204.4 319.55,-202.26 307.45,-200.14"/>
<polygon fill="#63b8ff" stroke="#63b8ff" points="308.06,-196.69 297.6,-198.37 306.82,-203.58 308.06,-196.69"/>
</a>
</g>
</g>
<!-- Node27&#45;&gt;Node5 -->
<g id="edge53_Node000027_Node000005" class="edge">
<title>Node27&#45;&gt;Node5</title>
<g id="a_edge53_Node000027_Node000005"><a xlink:title=" ">
<path fill="none" stroke="#63b8ff" d="M978.04,-243.75C981.41,-243.12 984.74,-242.53 988,-242 1147.76,-215.96 1340.87,-200.02 1416.93,-194.35"/>
<polygon fill="#63b8ff" stroke="#63b8ff" points="1417.57,-197.81 1427.29,-193.59 1417.06,-190.83 1417.57,-197.81"/>
</a>
</g>
</g>
<!-- Node27&#45;&gt;Node23 -->
<g id="edge51_Node000027_Node000023" class="edge">
<title>Node27&#45;&gt;Node23</title>
<g id="a_edge51_Node000027_Node000023"><a xlink:title=" ">
<path fill="none" stroke="#63b8ff" d="M905.8,-241.8C892.64,-231.53 874.89,-217.67 861.45,-207.18"/>
<polygon fill="#63b8ff" stroke="#63b8ff" points="863.37,-204.24 853.33,-200.84 859.06,-209.76 863.37,-204.24"/>
</a>
</g>
</g>
<!-- Node28 -->
<g id="Node000028" class="node">
<title>Node28</title>
<g id="a_Node000028"><a xlink:title=" ">
<polygon fill="#e0e0e0" stroke="#999999" points="953.5,-200.5 888.5,-200.5 888.5,-181.5 953.5,-181.5 953.5,-200.5"/>
<text text-anchor="middle" x="921" y="-188.5" font-family="Helvetica,sans-Serif" font-size="10.00">exception</text>
</a>
</g>
</g>
<!-- Node27&#45;&gt;Node28 -->
<g id="edge50_Node000027_Node000028" class="edge">
<title>Node27&#45;&gt;Node28</title>
<g id="a_edge50_Node000027_Node000028"><a xlink:title=" ">
<path fill="none" stroke="#63b8ff" d="M923.33,-241.8C922.91,-232.7 922.35,-220.79 921.89,-210.9"/>
<polygon fill="#63b8ff" stroke="#63b8ff" points="925.38,-210.67 921.41,-200.84 918.39,-211 925.38,-210.67"/>
</a>
</g>
</g>
</g>
</svg>
