<?xml version="1.0" encoding="UTF-8" standalone="no"?>
<!DOCTYPE svg PUBLIC "-//W3C//DTD SVG 1.1//EN"
 "http://www.w3.org/Graphics/SVG/1.1/DTD/svg11.dtd">
<!-- Generated by graphviz version 2.43.0 (0)
 -->
<!-- Title: userver/storages/clickhouse/io/columns/common_columns.hpp Pages: 1 -->
<svg width="2425pt" height="489pt"
 viewBox="0.00 0.00 2424.50 489.00" xmlns="http://www.w3.org/2000/svg" xmlns:xlink="http://www.w3.org/1999/xlink">
<g id="graph0" class="graph" transform="scale(1 1) rotate(0) translate(4 485)">
<title>userver/storages/clickhouse/io/columns/common_columns.hpp</title>
<!-- Node1 -->
<g id="Node000001" class="node">
<title>Node1</title>
<g id="a_Node000001"><a xlink:title=" ">
<polygon fill="#999999" stroke="#666666" points="1323,-481 1137,-481 1137,-451 1323,-451 1323,-481"/>
<text text-anchor="start" x="1145" y="-469" font-family="Helvetica,sans-Serif" font-size="10.00">userver/storages/clickhouse</text>
<text text-anchor="middle" x="1230" y="-458" font-family="Helvetica,sans-Serif" font-size="10.00">/io/columns/common_columns.hpp</text>
</a>
</g>
</g>
<!-- Node2 -->
<g id="Node000002" class="node">
<title>Node2</title>
<g id="a_Node000002"><a xlink:href="../../d0/dbe/datetime64__column_8hpp.html" target="_top" xlink:title="DateTime64 columns support.">
<polygon fill="white" stroke="#666666" points="394,-415 200,-415 200,-385 394,-385 394,-415"/>
<text text-anchor="start" x="208" y="-403" font-family="Helvetica,sans-Serif" font-size="10.00">userver/storages/clickhouse</text>
<text text-anchor="middle" x="297" y="-392" font-family="Helvetica,sans-Serif" font-size="10.00">/io/columns/datetime64_column.hpp</text>
</a>
</g>
</g>
<!-- Node1&#45;&gt;Node2 -->
<g id="edge1_Node000001_Node000002" class="edge">
<title>Node1&#45;&gt;Node2</title>
<g id="a_edge1_Node000001_Node000002"><a xlink:title=" ">
<path fill="none" stroke="#63b8ff" d="M1136.81,-461.52C985.38,-455.39 676.26,-440.9 404.09,-415.06"/>
<polygon fill="#63b8ff" stroke="#63b8ff" points="404.3,-411.56 394.01,-414.09 403.64,-418.53 404.3,-411.56"/>
</a>
</g>
</g>
<!-- Node16 -->
<g id="Node000016" class="node">
<title>Node16</title>
<g id="a_Node000016"><a xlink:href="../../dd/d64/datetime__column_8hpp.html" target="_top" xlink:title="DateTime column support.">
<polygon fill="white" stroke="#666666" points="182,-415 0,-415 0,-385 182,-385 182,-415"/>
<text text-anchor="start" x="8" y="-403" font-family="Helvetica,sans-Serif" font-size="10.00">userver/storages/clickhouse</text>
<text text-anchor="middle" x="91" y="-392" font-family="Helvetica,sans-Serif" font-size="10.00">/io/columns/datetime_column.hpp</text>
</a>
</g>
</g>
<!-- Node1&#45;&gt;Node16 -->
<g id="edge22_Node000001_Node000016" class="edge">
<title>Node1&#45;&gt;Node16</title>
<g id="a_edge22_Node000001_Node000016"><a xlink:title=" ">
<path fill="none" stroke="#63b8ff" d="M1136.66,-463.35C956.22,-459.55 546.81,-447.88 192.45,-415.08"/>
<polygon fill="#63b8ff" stroke="#63b8ff" points="192.53,-411.57 182.25,-414.12 191.88,-418.54 192.53,-411.57"/>
</a>
</g>
</g>
<!-- Node17 -->
<g id="Node000017" class="node">
<title>Node17</title>
<g id="a_Node000017"><a xlink:href="../../d5/d0f/float32__column_8hpp.html" target="_top" xlink:title="Float32 column support.">
<polygon fill="white" stroke="#666666" points="1502,-415 1330,-415 1330,-385 1502,-385 1502,-415"/>
<text text-anchor="start" x="1338" y="-403" font-family="Helvetica,sans-Serif" font-size="10.00">userver/storages/clickhouse</text>
<text text-anchor="middle" x="1416" y="-392" font-family="Helvetica,sans-Serif" font-size="10.00">/io/columns/float32_column.hpp</text>
</a>
</g>
</g>
<!-- Node1&#45;&gt;Node17 -->
<g id="edge25_Node000001_Node000017" class="edge">
<title>Node1&#45;&gt;Node17</title>
<g id="a_edge25_Node000001_Node000017"><a xlink:title=" ">
<path fill="none" stroke="#63b8ff" d="M1270.82,-450.95C1298.68,-441.37 1335.78,-428.6 1365.5,-418.37"/>
<polygon fill="#63b8ff" stroke="#63b8ff" points="1366.96,-421.58 1375.28,-415.01 1364.68,-414.96 1366.96,-421.58"/>
</a>
</g>
</g>
<!-- Node18 -->
<g id="Node000018" class="node">
<title>Node18</title>
<g id="a_Node000018"><a xlink:href="../../d5/d1e/float64__column_8hpp.html" target="_top" xlink:title="Float64 column support.">
<polygon fill="white" stroke="#666666" points="1692,-415 1520,-415 1520,-385 1692,-385 1692,-415"/>
<text text-anchor="start" x="1528" y="-403" font-family="Helvetica,sans-Serif" font-size="10.00">userver/storages/clickhouse</text>
<text text-anchor="middle" x="1606" y="-392" font-family="Helvetica,sans-Serif" font-size="10.00">/io/columns/float64_column.hpp</text>
</a>
</g>
</g>
<!-- Node1&#45;&gt;Node18 -->
<g id="edge27_Node000001_Node000018" class="edge">
<title>Node1&#45;&gt;Node18</title>
<g id="a_edge27_Node000001_Node000018"><a xlink:title=" ">
<path fill="none" stroke="#63b8ff" d="M1312.51,-450.95C1371.9,-440.85 1452.05,-427.2 1513.58,-416.73"/>
<polygon fill="#63b8ff" stroke="#63b8ff" points="1514.41,-420.14 1523.68,-415.01 1513.23,-413.24 1514.41,-420.14"/>
</a>
</g>
</g>
<!-- Node19 -->
<g id="Node000019" class="node">
<title>Node19</title>
<g id="a_Node000019"><a xlink:href="../../d6/d6e/int32__column_8hpp.html" target="_top" xlink:title="Int32 column support.">
<polygon fill="white" stroke="#666666" points="1873.5,-415 1710.5,-415 1710.5,-385 1873.5,-385 1873.5,-415"/>
<text text-anchor="start" x="1718.5" y="-403" font-family="Helvetica,sans-Serif" font-size="10.00">userver/storages/clickhouse</text>
<text text-anchor="middle" x="1792" y="-392" font-family="Helvetica,sans-Serif" font-size="10.00">/io/columns/int32_column.hpp</text>
</a>
</g>
</g>
<!-- Node1&#45;&gt;Node19 -->
<g id="edge29_Node000001_Node000019" class="edge">
<title>Node1&#45;&gt;Node19</title>
<g id="a_edge29_Node000001_Node000019"><a xlink:title=" ">
<path fill="none" stroke="#63b8ff" d="M1323.09,-456.42C1415.89,-447.56 1562.74,-432.75 1699.9,-415.1"/>
<polygon fill="#63b8ff" stroke="#63b8ff" points="1700.71,-418.53 1710.17,-413.77 1699.81,-411.59 1700.71,-418.53"/>
</a>
</g>
</g>
<!-- Node20 -->
<g id="Node000020" class="node">
<title>Node20</title>
<g id="a_Node000020"><a xlink:href="../../d5/d88/int64__column_8hpp.html" target="_top" xlink:title="Int64 column support.">
<polygon fill="white" stroke="#666666" points="2054.5,-415 1891.5,-415 1891.5,-385 2054.5,-385 2054.5,-415"/>
<text text-anchor="start" x="1899.5" y="-403" font-family="Helvetica,sans-Serif" font-size="10.00">userver/storages/clickhouse</text>
<text text-anchor="middle" x="1973" y="-392" font-family="Helvetica,sans-Serif" font-size="10.00">/io/columns/int64_column.hpp</text>
</a>
</g>
</g>
<!-- Node1&#45;&gt;Node20 -->
<g id="edge31_Node000001_Node000020" class="edge">
<title>Node1&#45;&gt;Node20</title>
<g id="a_edge31_Node000001_Node000020"><a xlink:title=" ">
<path fill="none" stroke="#63b8ff" d="M1323.07,-460.1C1447.73,-453.03 1676,-438.33 1881.13,-415.04"/>
<polygon fill="#63b8ff" stroke="#63b8ff" points="1881.65,-418.5 1891.19,-413.89 1880.85,-411.55 1881.65,-418.5"/>
</a>
</g>
</g>
<!-- Node21 -->
<g id="Node000021" class="node">
<title>Node21</title>
<g id="a_Node000021"><a xlink:href="../../de/dff/int8__column_8hpp.html" target="_top" xlink:title="Int8 column support.">
<polygon fill="white" stroke="#666666" points="569.5,-415 412.5,-415 412.5,-385 569.5,-385 569.5,-415"/>
<text text-anchor="start" x="420.5" y="-403" font-family="Helvetica,sans-Serif" font-size="10.00">userver/storages/clickhouse</text>
<text text-anchor="middle" x="491" y="-392" font-family="Helvetica,sans-Serif" font-size="10.00">/io/columns/int8_column.hpp</text>
</a>
</g>
</g>
<!-- Node1&#45;&gt;Node21 -->
<g id="edge33_Node000001_Node000021" class="edge">
<title>Node1&#45;&gt;Node21</title>
<g id="a_edge33_Node000001_Node000021"><a xlink:title=" ">
<path fill="none" stroke="#63b8ff" d="M1136.91,-460.3C1012.22,-453.45 783.92,-439.01 579.69,-415.14"/>
<polygon fill="#63b8ff" stroke="#63b8ff" points="580.02,-411.66 569.68,-413.96 579.2,-418.61 580.02,-411.66"/>
</a>
</g>
</g>
<!-- Node22 -->
<g id="Node000022" class="node">
<title>Node22</title>
<g id="a_Node000022"><a xlink:href="../../d2/d33/string__column_8hpp.html" target="_top" xlink:title="String column support.">
<polygon fill="white" stroke="#666666" points="2239,-415 2073,-415 2073,-385 2239,-385 2239,-415"/>
<text text-anchor="start" x="2081" y="-403" font-family="Helvetica,sans-Serif" font-size="10.00">userver/storages/clickhouse</text>
<text text-anchor="middle" x="2156" y="-392" font-family="Helvetica,sans-Serif" font-size="10.00">/io/columns/string_column.hpp</text>
</a>
</g>
</g>
<!-- Node1&#45;&gt;Node22 -->
<g id="edge35_Node000001_Node000022" class="edge">
<title>Node1&#45;&gt;Node22</title>
<g id="a_edge35_Node000001_Node000022"><a xlink:title=" ">
<path fill="none" stroke="#63b8ff" d="M1323.29,-462.12C1475.68,-456.82 1787.63,-443.45 2062.71,-414.95"/>
<polygon fill="#63b8ff" stroke="#63b8ff" points="2063.31,-418.41 2072.89,-413.89 2062.58,-411.45 2063.31,-418.41"/>
</a>
</g>
</g>
<!-- Node24 -->
<g id="Node000024" class="node">
<title>Node24</title>
<g id="a_Node000024"><a xlink:href="../../d3/d31/uint16__column_8hpp.html" target="_top" xlink:title="UInt16 column support.">
<polygon fill="white" stroke="#666666" points="756.5,-415 587.5,-415 587.5,-385 756.5,-385 756.5,-415"/>
<text text-anchor="start" x="595.5" y="-403" font-family="Helvetica,sans-Serif" font-size="10.00">userver/storages/clickhouse</text>
<text text-anchor="middle" x="672" y="-392" font-family="Helvetica,sans-Serif" font-size="10.00">/io/columns/uint16_column.hpp</text>
</a>
</g>
</g>
<!-- Node1&#45;&gt;Node24 -->
<g id="edge38_Node000001_Node000024" class="edge">
<title>Node1&#45;&gt;Node24</title>
<g id="a_edge38_Node000001_Node000024"><a xlink:title=" ">
<path fill="none" stroke="#63b8ff" d="M1136.79,-456.15C1045.1,-447.17 900.89,-432.34 766.68,-415.19"/>
<polygon fill="#63b8ff" stroke="#63b8ff" points="766.99,-411.7 756.63,-413.89 766.1,-418.64 766.99,-411.7"/>
</a>
</g>
</g>
<!-- Node25 -->
<g id="Node000025" class="node">
<title>Node25</title>
<g id="a_Node000025"><a xlink:href="../../d8/d18/uint32__column_8hpp.html" target="_top" xlink:title="UInt32 column support.">
<polygon fill="white" stroke="#666666" points="943.5,-415 774.5,-415 774.5,-385 943.5,-385 943.5,-415"/>
<text text-anchor="start" x="782.5" y="-403" font-family="Helvetica,sans-Serif" font-size="10.00">userver/storages/clickhouse</text>
<text text-anchor="middle" x="859" y="-392" font-family="Helvetica,sans-Serif" font-size="10.00">/io/columns/uint32_column.hpp</text>
</a>
</g>
</g>
<!-- Node1&#45;&gt;Node25 -->
<g id="edge40_Node000001_Node000025" class="edge">
<title>Node1&#45;&gt;Node25</title>
<g id="a_edge40_Node000001_Node000025"><a xlink:title=" ">
<path fill="none" stroke="#63b8ff" d="M1148.58,-450.95C1089.99,-440.85 1010.91,-427.2 950.19,-416.73"/>
<polygon fill="#63b8ff" stroke="#63b8ff" points="950.68,-413.26 940.23,-415.01 949.49,-420.16 950.68,-413.26"/>
</a>
</g>
</g>
<!-- Node26 -->
<g id="Node000026" class="node">
<title>Node26</title>
<g id="a_Node000026"><a xlink:href="../../d8/d6c/uint64__column_8hpp.html" target="_top" xlink:title="UInt64 column support.">
<polygon fill="white" stroke="#666666" points="1130.5,-415 961.5,-415 961.5,-385 1130.5,-385 1130.5,-415"/>
<text text-anchor="start" x="969.5" y="-403" font-family="Helvetica,sans-Serif" font-size="10.00">userver/storages/clickhouse</text>
<text text-anchor="middle" x="1046" y="-392" font-family="Helvetica,sans-Serif" font-size="10.00">/io/columns/uint64_column.hpp</text>
</a>
</g>
</g>
<!-- Node1&#45;&gt;Node26 -->
<g id="edge42_Node000001_Node000026" class="edge">
<title>Node1&#45;&gt;Node26</title>
<g id="a_edge42_Node000001_Node000026"><a xlink:title=" ">
<path fill="none" stroke="#63b8ff" d="M1189.62,-450.95C1162.06,-441.37 1125.36,-428.6 1095.95,-418.37"/>
<polygon fill="#63b8ff" stroke="#63b8ff" points="1096.88,-414.99 1086.29,-415.01 1094.58,-421.6 1096.88,-414.99"/>
</a>
</g>
</g>
<!-- Node27 -->
<g id="Node000027" class="node">
<title>Node27</title>
<g id="a_Node000027"><a xlink:href="../../d3/d2d/uint8__column_8hpp.html" target="_top" xlink:title="UInt8 column support.">
<polygon fill="white" stroke="#666666" points="1311.5,-415 1148.5,-415 1148.5,-385 1311.5,-385 1311.5,-415"/>
<text text-anchor="start" x="1156.5" y="-403" font-family="Helvetica,sans-Serif" font-size="10.00">userver/storages/clickhouse</text>
<text text-anchor="middle" x="1230" y="-392" font-family="Helvetica,sans-Serif" font-size="10.00">/io/columns/uint8_column.hpp</text>
</a>
</g>
</g>
<!-- Node1&#45;&gt;Node27 -->
<g id="edge44_Node000001_Node000027" class="edge">
<title>Node1&#45;&gt;Node27</title>
<g id="a_edge44_Node000001_Node000027"><a xlink:title=" ">
<path fill="none" stroke="#63b8ff" d="M1230,-450.8C1230,-443.34 1230,-433.99 1230,-425.41"/>
<polygon fill="#63b8ff" stroke="#63b8ff" points="1233.5,-425.16 1230,-415.16 1226.5,-425.16 1233.5,-425.16"/>
</a>
</g>
</g>
<!-- Node28 -->
<g id="Node000028" class="node">
<title>Node28</title>
<g id="a_Node000028"><a xlink:href="../../d6/dca/uuid__column_8hpp.html" target="_top" xlink:title="UUID column support.">
<polygon fill="white" stroke="#666666" points="2416.5,-415 2257.5,-415 2257.5,-385 2416.5,-385 2416.5,-415"/>
<text text-anchor="start" x="2265.5" y="-403" font-family="Helvetica,sans-Serif" font-size="10.00">userver/storages/clickhouse</text>
<text text-anchor="middle" x="2337" y="-392" font-family="Helvetica,sans-Serif" font-size="10.00">/io/columns/uuid_column.hpp</text>
</a>
</g>
</g>
<!-- Node1&#45;&gt;Node28 -->
<g id="edge46_Node000001_Node000028" class="edge">
<title>Node1&#45;&gt;Node28</title>
<g id="a_edge46_Node000001_Node000028"><a xlink:title=" ">
<path fill="none" stroke="#63b8ff" d="M1323.24,-463.75C1501.01,-460.64 1900.8,-450.14 2247.5,-414.96"/>
<polygon fill="#63b8ff" stroke="#63b8ff" points="2247.89,-418.44 2257.48,-413.94 2247.17,-411.48 2247.89,-418.44"/>
</a>
</g>
</g>
<!-- Node3 -->
<g id="Node000003" class="node">
<title>Node3</title>
<g id="a_Node000003"><a xlink:title=" ">
<polygon fill="#e0e0e0" stroke="#999999" points="219,-343.5 169,-343.5 169,-324.5 219,-324.5 219,-343.5"/>
<text text-anchor="middle" x="194" y="-331.5" font-family="Helvetica,sans-Serif" font-size="10.00">chrono</text>
</a>
</g>
</g>
<!-- Node2&#45;&gt;Node3 -->
<g id="edge2_Node000002_Node000003" class="edge">
<title>Node2&#45;&gt;Node3</title>
<g id="a_edge2_Node000002_Node000003"><a xlink:title=" ">
<path fill="none" stroke="#63b8ff" d="M274.4,-384.95C257.21,-374.27 233.67,-359.65 216.51,-348.98"/>
<polygon fill="#63b8ff" stroke="#63b8ff" points="218.05,-345.82 207.71,-343.52 214.35,-351.77 218.05,-345.82"/>
</a>
</g>
</g>
<!-- Node4 -->
<g id="Node000004" class="node">
<title>Node4</title>
<g id="a_Node000004"><a xlink:href="../../df/d5f/column__includes_8hpp.html" target="_top" xlink:title=" ">
<polygon fill="white" stroke="#666666" points="1319.5,-349 1140.5,-349 1140.5,-319 1319.5,-319 1319.5,-349"/>
<text text-anchor="start" x="1148.5" y="-337" font-family="Helvetica,sans-Serif" font-size="10.00">userver/storages/clickhouse</text>
<text text-anchor="middle" x="1230" y="-326" font-family="Helvetica,sans-Serif" font-size="10.00">/io/columns/column_includes.hpp</text>
</a>
</g>
</g>
<!-- Node2&#45;&gt;Node4 -->
<g id="edge3_Node000002_Node000004" class="edge">
<title>Node2&#45;&gt;Node4</title>
<g id="a_edge3_Node000002_Node000004"><a xlink:title=" ">
<path fill="none" stroke="#63b8ff" d="M394.01,-385.91C397.04,-385.59 400.04,-385.28 403,-385 664.82,-359.83 974.56,-345.11 1130.17,-338.75"/>
<polygon fill="#63b8ff" stroke="#63b8ff" points="1130.35,-342.24 1140.2,-338.34 1130.06,-335.25 1130.35,-342.24"/>
</a>
</g>
</g>
<!-- Node5 -->
<g id="Node000005" class="node">
<title>Node5</title>
<g id="a_Node000005"><a xlink:title=" ">
<polygon fill="#e0e0e0" stroke="#999999" points="955,-277.5 905,-277.5 905,-258.5 955,-258.5 955,-277.5"/>
<text text-anchor="middle" x="930" y="-265.5" font-family="Helvetica,sans-Serif" font-size="10.00">cstdint</text>
</a>
</g>
</g>
<!-- Node4&#45;&gt;Node5 -->
<g id="edge4_Node000004_Node000005" class="edge">
<title>Node4&#45;&gt;Node5</title>
<g id="a_edge4_Node000004_Node000005"><a xlink:title=" ">
<path fill="none" stroke="#63b8ff" d="M1140.42,-319.38C1089.68,-310.79 1025.3,-298.4 969,-283 966.57,-282.34 964.08,-281.59 961.58,-280.8"/>
<polygon fill="#63b8ff" stroke="#63b8ff" points="962.68,-277.48 952.08,-277.6 960.44,-284.11 962.68,-277.48"/>
</a>
</g>
</g>
<!-- Node6 -->
<g id="Node000006" class="node">
<title>Node6</title>
<g id="a_Node000006"><a xlink:title=" ">
<polygon fill="#e0e0e0" stroke="#999999" points="1181,-19 1123,-19 1123,0 1181,0 1181,-19"/>
<text text-anchor="middle" x="1152" y="-7" font-family="Helvetica,sans-Serif" font-size="10.00">memory</text>
</a>
</g>
</g>
<!-- Node4&#45;&gt;Node6 -->
<g id="edge5_Node000004_Node000006" class="edge">
<title>Node4&#45;&gt;Node6</title>
<g id="a_edge5_Node000004_Node000006"><a xlink:title=" ">
<path fill="none" stroke="#63b8ff" d="M1300.57,-318.93C1394.26,-298.2 1548,-256.08 1548,-203 1548,-203 1548,-203 1548,-135 1548,-60.7 1291.08,-25.32 1191.12,-14.37"/>
<polygon fill="#63b8ff" stroke="#63b8ff" points="1191.43,-10.88 1181.12,-13.29 1190.69,-17.84 1191.43,-10.88"/>
</a>
</g>
</g>
<!-- Node7 -->
<g id="Node000007" class="node">
<title>Node7</title>
<g id="a_Node000007"><a xlink:title=" ">
<polygon fill="#e0e0e0" stroke="#999999" points="1381.5,-79.5 1308.5,-79.5 1308.5,-60.5 1381.5,-60.5 1381.5,-79.5"/>
<text text-anchor="middle" x="1345" y="-67.5" font-family="Helvetica,sans-Serif" font-size="10.00">string_view</text>
</a>
</g>
</g>
<!-- Node4&#45;&gt;Node7 -->
<g id="edge6_Node000004_Node000007" class="edge">
<title>Node4&#45;&gt;Node7</title>
<g id="a_edge6_Node000004_Node000007"><a xlink:title=" ">
<path fill="none" stroke="#63b8ff" d="M1271.02,-318.93C1332.4,-295.32 1445.66,-241.25 1490,-151 1495.88,-139.03 1497.74,-131.86 1490,-121 1467.87,-89.95 1425.13,-78 1391.76,-73.48"/>
<polygon fill="#63b8ff" stroke="#63b8ff" points="1392.08,-70 1381.74,-72.31 1391.27,-76.95 1392.08,-70"/>
</a>
</g>
</g>
<!-- Node8 -->
<g id="Node000008" class="node">
<title>Node8</title>
<g id="a_Node000008"><a xlink:title=" ">
<polygon fill="#e0e0e0" stroke="#999999" points="1623.5,-277.5 1576.5,-277.5 1576.5,-258.5 1623.5,-258.5 1623.5,-277.5"/>
<text text-anchor="middle" x="1600" y="-265.5" font-family="Helvetica,sans-Serif" font-size="10.00">vector</text>
</a>
</g>
</g>
<!-- Node4&#45;&gt;Node8 -->
<g id="edge7_Node000004_Node000008" class="edge">
<title>Node4&#45;&gt;Node8</title>
<g id="a_edge7_Node000004_Node000008"><a xlink:title=" ">
<path fill="none" stroke="#63b8ff" d="M1319.76,-324.49C1387.13,-316.89 1481.26,-303.72 1562,-283 1564.44,-282.37 1566.95,-281.65 1569.45,-280.86"/>
<polygon fill="#63b8ff" stroke="#63b8ff" points="1570.6,-284.17 1578.94,-277.62 1568.34,-277.54 1570.6,-284.17"/>
</a>
</g>
</g>
<!-- Node9 -->
<g id="Node000009" class="node">
<title>Node9</title>
<g id="a_Node000009"><a xlink:href="../../df/d9a/block__wrapper__fwd_8hpp_source.html" target="_top" xlink:title=" ">
<polygon fill="white" stroke="#666666" points="1124.5,-85 965.5,-85 965.5,-55 1124.5,-55 1124.5,-85"/>
<text text-anchor="start" x="973.5" y="-73" font-family="Helvetica,sans-Serif" font-size="10.00">userver/storages/clickhouse</text>
<text text-anchor="middle" x="1045" y="-62" font-family="Helvetica,sans-Serif" font-size="10.00">/impl/block_wrapper_fwd.hpp</text>
</a>
</g>
</g>
<!-- Node4&#45;&gt;Node9 -->
<g id="edge8_Node000004_Node000009" class="edge">
<title>Node4&#45;&gt;Node9</title>
<g id="a_edge8_Node000004_Node000009"><a xlink:title=" ">
<path fill="none" stroke="#63b8ff" d="M1188.9,-318.98C1167.24,-310.48 1140.9,-298.3 1120,-283 1056.26,-236.34 1029.33,-224.73 1001,-151 996.22,-138.55 996.29,-133.47 1001,-121 1004.98,-110.45 1012.31,-100.69 1019.86,-92.64"/>
<polygon fill="#63b8ff" stroke="#63b8ff" points="1022.73,-94.72 1027.37,-85.19 1017.81,-89.75 1022.73,-94.72"/>
</a>
</g>
</g>
<!-- Node10 -->
<g id="Node000010" class="node">
<title>Node10</title>
<g id="a_Node000010"><a xlink:href="../../d0/da9/base__column_8hpp.html" target="_top" xlink:title="Base class for every typed ClickHouse column. To add new columns one should derive from this class,...">
<polygon fill="white" stroke="#666666" points="1310.5,-283 1149.5,-283 1149.5,-253 1310.5,-253 1310.5,-283"/>
<text text-anchor="start" x="1157.5" y="-271" font-family="Helvetica,sans-Serif" font-size="10.00">userver/storages/clickhouse</text>
<text text-anchor="middle" x="1230" y="-260" font-family="Helvetica,sans-Serif" font-size="10.00">/io/columns/base_column.hpp</text>
</a>
</g>
</g>
<!-- Node4&#45;&gt;Node10 -->
<g id="edge10_Node000004_Node000010" class="edge">
<title>Node4&#45;&gt;Node10</title>
<g id="a_edge10_Node000004_Node000010"><a xlink:title=" ">
<path fill="none" stroke="#63b8ff" d="M1230,-318.8C1230,-311.34 1230,-301.99 1230,-293.41"/>
<polygon fill="#63b8ff" stroke="#63b8ff" points="1233.5,-293.16 1230,-283.16 1226.5,-293.16 1233.5,-293.16"/>
</a>
</g>
</g>
<!-- Node15 -->
<g id="Node000015" class="node">
<title>Node15</title>
<g id="a_Node000015"><a xlink:href="../../d1/d0b/column__wrapper_8hpp_source.html" target="_top" xlink:title=" ">
<polygon fill="white" stroke="#666666" points="1187.5,-151 1010.5,-151 1010.5,-121 1187.5,-121 1187.5,-151"/>
<text text-anchor="start" x="1018.5" y="-139" font-family="Helvetica,sans-Serif" font-size="10.00">userver/storages/clickhouse</text>
<text text-anchor="middle" x="1099" y="-128" font-family="Helvetica,sans-Serif" font-size="10.00">/io/columns/column_wrapper.hpp</text>
</a>
</g>
</g>
<!-- Node4&#45;&gt;Node15 -->
<g id="edge21_Node000004_Node000015" class="edge">
<title>Node4&#45;&gt;Node15</title>
<g id="a_edge21_Node000004_Node000015"><a xlink:title=" ">
<path fill="none" stroke="#63b8ff" d="M1189.77,-318.88C1172.2,-310.86 1152.74,-299.13 1140,-283 1111.53,-246.97 1102.82,-192.25 1100.16,-161.05"/>
<polygon fill="#63b8ff" stroke="#63b8ff" points="1103.65,-160.78 1099.45,-151.06 1096.67,-161.28 1103.65,-160.78"/>
</a>
</g>
</g>
<!-- Node9&#45;&gt;Node6 -->
<g id="edge9_Node000009_Node000006" class="edge">
<title>Node9&#45;&gt;Node6</title>
<g id="a_edge9_Node000009_Node000006"><a xlink:title=" ">
<path fill="none" stroke="#63b8ff" d="M1070.63,-54.99C1087.84,-45.58 1110.4,-33.24 1127.4,-23.95"/>
<polygon fill="#63b8ff" stroke="#63b8ff" points="1129.1,-27.01 1136.2,-19.14 1125.75,-20.87 1129.1,-27.01"/>
</a>
</g>
</g>
<!-- Node11 -->
<g id="Node000011" class="node">
<title>Node11</title>
<g id="a_Node000011"><a xlink:href="../../d8/d73/column__iterator_8hpp.html" target="_top" xlink:title=" ">
<polygon fill="white" stroke="#666666" points="1338.5,-217 1165.5,-217 1165.5,-187 1338.5,-187 1338.5,-217"/>
<text text-anchor="start" x="1173.5" y="-205" font-family="Helvetica,sans-Serif" font-size="10.00">userver/storages/clickhouse</text>
<text text-anchor="middle" x="1252" y="-194" font-family="Helvetica,sans-Serif" font-size="10.00">/io/columns/column_iterator.hpp</text>
</a>
</g>
</g>
<!-- Node10&#45;&gt;Node11 -->
<g id="edge11_Node000010_Node000011" class="edge">
<title>Node10&#45;&gt;Node11</title>
<g id="a_edge11_Node000010_Node000011"><a xlink:title=" ">
<path fill="none" stroke="#63b8ff" d="M1234.88,-252.8C1237.5,-245.17 1240.8,-235.57 1243.8,-226.84"/>
<polygon fill="#63b8ff" stroke="#63b8ff" points="1247.19,-227.76 1247.13,-217.16 1240.57,-225.48 1247.19,-227.76"/>
</a>
</g>
</g>
<!-- Node10&#45;&gt;Node15 -->
<g id="edge20_Node000010_Node000015" class="edge">
<title>Node10&#45;&gt;Node15</title>
<g id="a_edge20_Node000010_Node000015"><a xlink:title=" ">
<path fill="none" stroke="#63b8ff" d="M1204.35,-252.81C1189.29,-243.75 1170.43,-231.07 1156,-217 1138.49,-199.92 1122.71,-176.86 1112.21,-159.89"/>
<polygon fill="#63b8ff" stroke="#63b8ff" points="1115.11,-157.92 1106.95,-151.17 1109.12,-161.54 1115.11,-157.92"/>
</a>
</g>
</g>
<!-- Node12 -->
<g id="Node000012" class="node">
<title>Node12</title>
<g id="a_Node000012"><a xlink:title=" ">
<polygon fill="#e0e0e0" stroke="#999999" points="1481.5,-145.5 1428.5,-145.5 1428.5,-126.5 1481.5,-126.5 1481.5,-145.5"/>
<text text-anchor="middle" x="1455" y="-133.5" font-family="Helvetica,sans-Serif" font-size="10.00">iterator</text>
</a>
</g>
</g>
<!-- Node11&#45;&gt;Node12 -->
<g id="edge12_Node000011_Node000012" class="edge">
<title>Node11&#45;&gt;Node12</title>
<g id="a_edge12_Node000011_Node000012"><a xlink:title=" ">
<path fill="none" stroke="#63b8ff" d="M1302.76,-186.95C1336.03,-177.45 1380.36,-164.27 1419,-151 1420.66,-150.43 1422.35,-149.83 1424.06,-149.22"/>
<polygon fill="#63b8ff" stroke="#63b8ff" points="1425.64,-152.36 1433.78,-145.58 1423.19,-145.8 1425.64,-152.36"/>
</a>
</g>
</g>
<!-- Node13 -->
<g id="Node000013" class="node">
<title>Node13</title>
<g id="a_Node000013"><a xlink:title=" ">
<polygon fill="#e0e0e0" stroke="#999999" points="1261,-145.5 1205,-145.5 1205,-126.5 1261,-126.5 1261,-145.5"/>
<text text-anchor="middle" x="1233" y="-133.5" font-family="Helvetica,sans-Serif" font-size="10.00">optional</text>
</a>
</g>
</g>
<!-- Node11&#45;&gt;Node13 -->
<g id="edge13_Node000011_Node000013" class="edge">
<title>Node11&#45;&gt;Node13</title>
<g id="a_edge13_Node000011_Node000013"><a xlink:title=" ">
<path fill="none" stroke="#63b8ff" d="M1247.78,-186.8C1245.05,-177.6 1241.47,-165.53 1238.52,-155.58"/>
<polygon fill="#63b8ff" stroke="#63b8ff" points="1241.83,-154.43 1235.63,-145.84 1235.12,-156.43 1241.83,-154.43"/>
</a>
</g>
</g>
<!-- Node14 -->
<g id="Node000014" class="node">
<title>Node14</title>
<g id="a_Node000014"><a xlink:href="../../d2/d54/assert_8hpp.html" target="_top" xlink:title="Assertion macros UASSERT, UASSERT_MSG, UINVARIANT.">
<polygon fill="white" stroke="#666666" points="1410.5,-145.5 1279.5,-145.5 1279.5,-126.5 1410.5,-126.5 1410.5,-145.5"/>
<text text-anchor="middle" x="1345" y="-133.5" font-family="Helvetica,sans-Serif" font-size="10.00">userver/utils/assert.hpp</text>
</a>
</g>
</g>
<!-- Node11&#45;&gt;Node14 -->
<g id="edge14_Node000011_Node000014" class="edge">
<title>Node11&#45;&gt;Node14</title>
<g id="a_edge14_Node000011_Node000014"><a xlink:title=" ">
<path fill="none" stroke="#63b8ff" d="M1272.64,-186.8C1287.94,-176.27 1308.71,-161.97 1324.08,-151.4"/>
<polygon fill="#63b8ff" stroke="#63b8ff" points="1326.16,-154.21 1332.42,-145.66 1322.2,-148.44 1326.16,-154.21"/>
</a>
</g>
</g>
<!-- Node11&#45;&gt;Node15 -->
<g id="edge16_Node000011_Node000015" class="edge">
<title>Node11&#45;&gt;Node15</title>
<g id="a_edge16_Node000011_Node000015"><a xlink:title=" ">
<path fill="none" stroke="#63b8ff" d="M1218.42,-186.95C1195.9,-177.53 1166.04,-165.04 1141.82,-154.91"/>
<polygon fill="#63b8ff" stroke="#63b8ff" points="1143.07,-151.64 1132.5,-151.01 1140.37,-158.1 1143.07,-151.64"/>
</a>
</g>
</g>
<!-- Node14&#45;&gt;Node7 -->
<g id="edge15_Node000014_Node000007" class="edge">
<title>Node14&#45;&gt;Node7</title>
<g id="a_edge15_Node000014_Node000007"><a xlink:title=" ">
<path fill="none" stroke="#63b8ff" d="M1345,-126.37C1345,-117.16 1345,-102.29 1345,-90.27"/>
<polygon fill="#63b8ff" stroke="#63b8ff" points="1348.5,-89.91 1345,-79.91 1341.5,-89.91 1348.5,-89.91"/>
</a>
</g>
</g>
<!-- Node15&#45;&gt;Node6 -->
<g id="edge17_Node000015_Node000006" class="edge">
<title>Node15&#45;&gt;Node6</title>
<g id="a_edge17_Node000015_Node000006"><a xlink:title=" ">
<path fill="none" stroke="#63b8ff" d="M1110.54,-120.92C1117.9,-111.31 1127.13,-98.02 1133,-85 1141.21,-66.79 1146.31,-44.4 1149.14,-28.95"/>
<polygon fill="#63b8ff" stroke="#63b8ff" points="1152.59,-29.53 1150.8,-19.09 1145.69,-28.37 1152.59,-29.53"/>
</a>
</g>
</g>
<!-- Node15&#45;&gt;Node7 -->
<g id="edge18_Node000015_Node000007" class="edge">
<title>Node15&#45;&gt;Node7</title>
<g id="a_edge18_Node000015_Node000007"><a xlink:title=" ">
<path fill="none" stroke="#63b8ff" d="M1152.99,-120.95C1197.93,-109.26 1261.06,-92.84 1302.48,-82.06"/>
<polygon fill="#63b8ff" stroke="#63b8ff" points="1303.47,-85.42 1312.26,-79.52 1301.7,-78.65 1303.47,-85.42"/>
</a>
</g>
</g>
<!-- Node15&#45;&gt;Node9 -->
<g id="edge19_Node000015_Node000009" class="edge">
<title>Node15&#45;&gt;Node9</title>
<g id="a_edge19_Node000015_Node000009"><a xlink:title=" ">
<path fill="none" stroke="#63b8ff" d="M1087.02,-120.8C1080.09,-112.59 1071.24,-102.1 1063.45,-92.87"/>
<polygon fill="#63b8ff" stroke="#63b8ff" points="1066.07,-90.55 1056.95,-85.16 1060.72,-95.06 1066.07,-90.55"/>
</a>
</g>
</g>
<!-- Node16&#45;&gt;Node3 -->
<g id="edge23_Node000016_Node000003" class="edge">
<title>Node16&#45;&gt;Node3</title>
<g id="a_edge23_Node000016_Node000003"><a xlink:title=" ">
<path fill="none" stroke="#63b8ff" d="M113.6,-384.95C130.79,-374.27 154.33,-359.65 171.49,-348.98"/>
<polygon fill="#63b8ff" stroke="#63b8ff" points="173.65,-351.77 180.29,-343.52 169.95,-345.82 173.65,-351.77"/>
</a>
</g>
</g>
<!-- Node16&#45;&gt;Node4 -->
<g id="edge24_Node000016_Node000004" class="edge">
<title>Node16&#45;&gt;Node4</title>
<g id="a_edge24_Node000016_Node000004"><a xlink:title=" ">
<path fill="none" stroke="#63b8ff" d="M182.25,-385.88C185.2,-385.56 188.12,-385.27 191,-385 534.84,-352.73 944.75,-340.77 1130.16,-336.78"/>
<polygon fill="#63b8ff" stroke="#63b8ff" points="1130.24,-340.28 1140.16,-336.57 1130.09,-333.29 1130.24,-340.28"/>
</a>
</g>
</g>
<!-- Node17&#45;&gt;Node4 -->
<g id="edge26_Node000017_Node000004" class="edge">
<title>Node17&#45;&gt;Node4</title>
<g id="a_edge26_Node000017_Node000004"><a xlink:title=" ">
<path fill="none" stroke="#63b8ff" d="M1375.18,-384.95C1347.32,-375.37 1310.22,-362.6 1280.5,-352.37"/>
<polygon fill="#63b8ff" stroke="#63b8ff" points="1281.32,-348.96 1270.72,-349.01 1279.04,-355.58 1281.32,-348.96"/>
</a>
</g>
</g>
<!-- Node18&#45;&gt;Node4 -->
<g id="edge28_Node000018_Node000004" class="edge">
<title>Node18&#45;&gt;Node4</title>
<g id="a_edge28_Node000018_Node000004"><a xlink:title=" ">
<path fill="none" stroke="#63b8ff" d="M1523.49,-384.95C1464.1,-374.85 1383.95,-361.2 1322.42,-350.73"/>
<polygon fill="#63b8ff" stroke="#63b8ff" points="1322.77,-347.24 1312.32,-349.01 1321.59,-354.14 1322.77,-347.24"/>
</a>
</g>
</g>
<!-- Node19&#45;&gt;Node4 -->
<g id="edge30_Node000019_Node000004" class="edge">
<title>Node19&#45;&gt;Node4</title>
<g id="a_edge30_Node000019_Node000004"><a xlink:title=" ">
<path fill="none" stroke="#63b8ff" d="M1710.17,-386.23C1707.08,-385.8 1704.01,-385.39 1701,-385 1573.15,-368.39 1425.23,-353.37 1329.79,-344.22"/>
<polygon fill="#63b8ff" stroke="#63b8ff" points="1329.85,-340.71 1319.56,-343.25 1329.19,-347.68 1329.85,-340.71"/>
</a>
</g>
</g>
<!-- Node20&#45;&gt;Node4 -->
<g id="edge32_Node000020_Node000004" class="edge">
<title>Node20&#45;&gt;Node4</title>
<g id="a_edge32_Node000020_Node000004"><a xlink:title=" ">
<path fill="none" stroke="#63b8ff" d="M1891.19,-386.11C1888.09,-385.72 1885.02,-385.35 1882,-385 1686.95,-362.55 1457.88,-347.61 1329.77,-340.29"/>
<polygon fill="#63b8ff" stroke="#63b8ff" points="1329.77,-336.78 1319.59,-339.71 1329.37,-343.77 1329.77,-336.78"/>
</a>
</g>
</g>
<!-- Node21&#45;&gt;Node4 -->
<g id="edge34_Node000021_Node000004" class="edge">
<title>Node21&#45;&gt;Node4</title>
<g id="a_edge34_Node000021_Node000004"><a xlink:title=" ">
<path fill="none" stroke="#63b8ff" d="M569.68,-386.04C572.49,-385.67 575.27,-385.32 578,-385 772.97,-361.88 1002.07,-347.18 1130.21,-340.07"/>
<polygon fill="#63b8ff" stroke="#63b8ff" points="1130.6,-343.56 1140.39,-339.51 1130.21,-336.57 1130.6,-343.56"/>
</a>
</g>
</g>
<!-- Node22&#45;&gt;Node4 -->
<g id="edge37_Node000022_Node000004" class="edge">
<title>Node22&#45;&gt;Node4</title>
<g id="a_edge37_Node000022_Node000004"><a xlink:title=" ">
<path fill="none" stroke="#63b8ff" d="M2072.89,-386.11C2069.56,-385.71 2066.25,-385.34 2063,-385 1799,-357.26 1486.18,-343.62 1329.67,-338.1"/>
<polygon fill="#63b8ff" stroke="#63b8ff" points="1329.7,-334.6 1319.59,-337.75 1329.46,-341.59 1329.7,-334.6"/>
</a>
</g>
</g>
<!-- Node23 -->
<g id="Node000023" class="node">
<title>Node23</title>
<g id="a_Node000023"><a xlink:title=" ">
<polygon fill="#e0e0e0" stroke="#999999" points="2178,-343.5 2134,-343.5 2134,-324.5 2178,-324.5 2178,-343.5"/>
<text text-anchor="middle" x="2156" y="-331.5" font-family="Helvetica,sans-Serif" font-size="10.00">string</text>
</a>
</g>
</g>
<!-- Node22&#45;&gt;Node23 -->
<g id="edge36_Node000022_Node000023" class="edge">
<title>Node22&#45;&gt;Node23</title>
<g id="a_edge36_Node000022_Node000023"><a xlink:title=" ">
<path fill="none" stroke="#63b8ff" d="M2156,-384.8C2156,-375.7 2156,-363.79 2156,-353.9"/>
<polygon fill="#63b8ff" stroke="#63b8ff" points="2159.5,-353.84 2156,-343.84 2152.5,-353.84 2159.5,-353.84"/>
</a>
</g>
</g>
<!-- Node24&#45;&gt;Node4 -->
<g id="edge39_Node000024_Node000004" class="edge">
<title>Node24&#45;&gt;Node4</title>
<g id="a_edge39_Node000024_Node000004"><a xlink:title=" ">
<path fill="none" stroke="#63b8ff" d="M756.63,-386.11C759.45,-385.72 762.25,-385.36 765,-385 890.67,-368.79 1035.93,-353.76 1130.19,-344.5"/>
<polygon fill="#63b8ff" stroke="#63b8ff" points="1130.68,-347.97 1140.29,-343.51 1130,-341 1130.68,-347.97"/>
</a>
</g>
</g>
<!-- Node25&#45;&gt;Node4 -->
<g id="edge41_Node000025_Node000004" class="edge">
<title>Node25&#45;&gt;Node4</title>
<g id="a_edge41_Node000025_Node000004"><a xlink:title=" ">
<path fill="none" stroke="#63b8ff" d="M940.42,-384.95C999.01,-374.85 1078.09,-361.2 1138.81,-350.73"/>
<polygon fill="#63b8ff" stroke="#63b8ff" points="1139.51,-354.16 1148.77,-349.01 1138.32,-347.26 1139.51,-354.16"/>
</a>
</g>
</g>
<!-- Node26&#45;&gt;Node4 -->
<g id="edge43_Node000026_Node000004" class="edge">
<title>Node26&#45;&gt;Node4</title>
<g id="a_edge43_Node000026_Node000004"><a xlink:title=" ">
<path fill="none" stroke="#63b8ff" d="M1086.38,-384.95C1113.94,-375.37 1150.64,-362.6 1180.05,-352.37"/>
<polygon fill="#63b8ff" stroke="#63b8ff" points="1181.42,-355.6 1189.71,-349.01 1179.12,-348.99 1181.42,-355.6"/>
</a>
</g>
</g>
<!-- Node27&#45;&gt;Node4 -->
<g id="edge45_Node000027_Node000004" class="edge">
<title>Node27&#45;&gt;Node4</title>
<g id="a_edge45_Node000027_Node000004"><a xlink:title=" ">
<path fill="none" stroke="#63b8ff" d="M1230,-384.8C1230,-377.34 1230,-367.99 1230,-359.41"/>
<polygon fill="#63b8ff" stroke="#63b8ff" points="1233.5,-359.16 1230,-349.16 1226.5,-359.16 1233.5,-359.16"/>
</a>
</g>
</g>
<!-- Node28&#45;&gt;Node4 -->
<g id="edge48_Node000028_Node000004" class="edge">
<title>Node28&#45;&gt;Node4</title>
<g id="a_edge48_Node000028_Node000004"><a xlink:title=" ">
<path fill="none" stroke="#63b8ff" d="M2257.48,-386.06C2254.28,-385.68 2251.11,-385.32 2248,-385 1912.64,-350.49 1512.6,-339.65 1329.9,-336.37"/>
<polygon fill="#63b8ff" stroke="#63b8ff" points="1329.84,-332.86 1319.78,-336.19 1329.71,-339.86 1329.84,-332.86"/>
</a>
</g>
</g>
<!-- Node29 -->
<g id="Node000029" class="node">
<title>Node29</title>
<g id="a_Node000029"><a xlink:title=" ">
<polygon fill="#e0e0e0" stroke="#999999" points="2393.5,-343.5 2280.5,-343.5 2280.5,-324.5 2393.5,-324.5 2393.5,-343.5"/>
<text text-anchor="middle" x="2337" y="-331.5" font-family="Helvetica,sans-Serif" font-size="10.00">boost/uuid/uuid.hpp</text>
</a>
</g>
</g>
<!-- Node28&#45;&gt;Node29 -->
<g id="edge47_Node000028_Node000029" class="edge">
<title>Node28&#45;&gt;Node29</title>
<g id="a_edge47_Node000028_Node000029"><a xlink:title=" ">
<path fill="none" stroke="#63b8ff" d="M2337,-384.8C2337,-375.7 2337,-363.79 2337,-353.9"/>
<polygon fill="#63b8ff" stroke="#63b8ff" points="2340.5,-353.84 2337,-343.84 2333.5,-353.84 2340.5,-353.84"/>
</a>
</g>
</g>
</g>
</svg>
