<?xml version="1.0" encoding="UTF-8" standalone="no"?>
<!DOCTYPE svg PUBLIC "-//W3C//DTD SVG 1.1//EN"
 "http://www.w3.org/Graphics/SVG/1.1/DTD/svg11.dtd">
<!-- Generated by graphviz version 2.43.0 (0)
 -->
<!-- Title: userver/storages/clickhouse/io/columns/int32_column.hpp Pages: 1 -->
<svg width="401pt" height="489pt"
 viewBox="0.00 0.00 400.87 489.00" xmlns="http://www.w3.org/2000/svg" xmlns:xlink="http://www.w3.org/1999/xlink">
<g id="graph0" class="graph" transform="scale(1 1) rotate(0) translate(4 485)">
<title>userver/storages/clickhouse/io/columns/int32_column.hpp</title>
<!-- Node1 -->
<g id="Node000001" class="node">
<title>Node1</title>
<g id="a_Node000001"><a xlink:title="Int32 column support.">
<polygon fill="#999999" stroke="#666666" points="276.4,-481 113.4,-481 113.4,-451 276.4,-451 276.4,-481"/>
<text text-anchor="start" x="121.4" y="-469" font-family="Helvetica,sans-Serif" font-size="10.00">userver/storages/clickhouse</text>
<text text-anchor="middle" x="194.9" y="-458" font-family="Helvetica,sans-Serif" font-size="10.00">/io/columns/int32_column.hpp</text>
</a>
</g>
</g>
<!-- Node2 -->
<g id="Node000002" class="node">
<title>Node2</title>
<g id="a_Node000002"><a xlink:href="../../d3/d25/common__columns_8hpp.html" target="_top" xlink:title=" ">
<polygon fill="white" stroke="#666666" points="287.9,-415 101.9,-415 101.9,-385 287.9,-385 287.9,-415"/>
<text text-anchor="start" x="109.9" y="-403" font-family="Helvetica,sans-Serif" font-size="10.00">userver/storages/clickhouse</text>
<text text-anchor="middle" x="194.9" y="-392" font-family="Helvetica,sans-Serif" font-size="10.00">/io/columns/common_columns.hpp</text>
</a>
</g>
</g>
<!-- Node1&#45;&gt;Node2 -->
<g id="edge1_Node000001_Node000002" class="edge">
<title>Node1&#45;&gt;Node2</title>
<g id="a_edge1_Node000001_Node000002"><a xlink:title=" ">
<path fill="none" stroke="#63b8ff" d="M194.9,-440.54C194.9,-431.96 194.9,-422.61 194.9,-415.16"/>
<polygon fill="#63b8ff" stroke="#63b8ff" points="191.4,-440.8 194.9,-450.8 198.4,-440.8 191.4,-440.8"/>
</a>
</g>
</g>
<!-- Node3 -->
<g id="Node000003" class="node">
<title>Node3</title>
<g id="a_Node000003"><a xlink:href="../../dd/d84/insertion__request_8hpp_source.html" target="_top" xlink:title=" ">
<polygon fill="white" stroke="#666666" points="188.4,-217 35.4,-217 35.4,-187 188.4,-187 188.4,-217"/>
<text text-anchor="start" x="43.4" y="-205" font-family="Helvetica,sans-Serif" font-size="10.00">userver/storages/clickhouse</text>
<text text-anchor="middle" x="111.9" y="-194" font-family="Helvetica,sans-Serif" font-size="10.00">/impl/insertion_request.hpp</text>
</a>
</g>
</g>
<!-- Node2&#45;&gt;Node3 -->
<g id="edge2_Node000002_Node000003" class="edge">
<title>Node2&#45;&gt;Node3</title>
<g id="a_edge2_Node000002_Node000003"><a xlink:title=" ">
<path fill="none" stroke="#63b8ff" d="M93.57,-382.87C56.55,-374.74 20.99,-363.49 9.9,-349 -26.09,-301.98 48.84,-243.61 88.88,-217.18"/>
<polygon fill="#63b8ff" stroke="#63b8ff" points="93,-386.33 103.51,-384.98 94.45,-379.48 93,-386.33"/>
</a>
</g>
</g>
<!-- Node6 -->
<g id="Node000006" class="node">
<title>Node6</title>
<g id="a_Node000006"><a xlink:href="../../dd/d45/array__column_8hpp.html" target="_top" xlink:title="Array column support.">
<polygon fill="white" stroke="#666666" points="182.9,-349 18.9,-349 18.9,-319 182.9,-319 182.9,-349"/>
<text text-anchor="start" x="26.9" y="-337" font-family="Helvetica,sans-Serif" font-size="10.00">userver/storages/clickhouse</text>
<text text-anchor="middle" x="100.9" y="-326" font-family="Helvetica,sans-Serif" font-size="10.00">/io/columns/array_column.hpp</text>
</a>
</g>
</g>
<!-- Node2&#45;&gt;Node6 -->
<g id="edge5_Node000002_Node000006" class="edge">
<title>Node2&#45;&gt;Node6</title>
<g id="a_edge5_Node000002_Node000006"><a xlink:title=" ">
<path fill="none" stroke="#63b8ff" d="M165.57,-379.03C151.34,-369.34 134.59,-357.94 121.7,-349.16"/>
<polygon fill="#63b8ff" stroke="#63b8ff" points="163.8,-382.06 174.04,-384.8 167.74,-376.28 163.8,-382.06"/>
</a>
</g>
</g>
<!-- Node7 -->
<g id="Node000007" class="node">
<title>Node7</title>
<g id="a_Node000007"><a xlink:href="../../d4/d7c/clickhouse_2include_2userver_2storages_2clickhouse_2io_2impl_2validate_8hpp_source.html" target="_top" xlink:title=" ">
<polygon fill="white" stroke="#666666" points="363.4,-283 210.4,-283 210.4,-253 363.4,-253 363.4,-283"/>
<text text-anchor="start" x="218.4" y="-271" font-family="Helvetica,sans-Serif" font-size="10.00">userver/storages/clickhouse</text>
<text text-anchor="middle" x="286.9" y="-260" font-family="Helvetica,sans-Serif" font-size="10.00">/io/impl/validate.hpp</text>
</a>
</g>
</g>
<!-- Node2&#45;&gt;Node7 -->
<g id="edge16_Node000002_Node000007" class="edge">
<title>Node2&#45;&gt;Node7</title>
<g id="a_edge16_Node000002_Node000007"><a xlink:title=" ">
<path fill="none" stroke="#63b8ff" d="M298.09,-383.73C337.19,-375.65 375.15,-364.2 386.9,-349 408.32,-321.29 365.53,-297.4 329.43,-283.11"/>
<polygon fill="#63b8ff" stroke="#63b8ff" points="297.26,-380.32 288.14,-385.71 298.63,-387.19 297.26,-380.32"/>
</a>
</g>
</g>
<!-- Node10 -->
<g id="Node000010" class="node">
<title>Node10</title>
<g id="a_Node000010"><a xlink:href="../../d3/d11/nullable__column_8hpp.html" target="_top" xlink:title="Nullable column support.">
<polygon fill="white" stroke="#666666" points="378.4,-349 201.4,-349 201.4,-319 378.4,-319 378.4,-349"/>
<text text-anchor="start" x="209.4" y="-337" font-family="Helvetica,sans-Serif" font-size="10.00">userver/storages/clickhouse</text>
<text text-anchor="middle" x="289.9" y="-326" font-family="Helvetica,sans-Serif" font-size="10.00">/io/columns/nullable_column.hpp</text>
</a>
</g>
</g>
<!-- Node2&#45;&gt;Node10 -->
<g id="edge13_Node000002_Node000010" class="edge">
<title>Node2&#45;&gt;Node10</title>
<g id="a_edge13_Node000002_Node000010"><a xlink:title=" ">
<path fill="none" stroke="#63b8ff" d="M224.55,-379.03C238.92,-369.34 255.85,-357.94 268.88,-349.16"/>
<polygon fill="#63b8ff" stroke="#63b8ff" points="222.32,-376.31 215.98,-384.8 226.23,-382.11 222.32,-376.31"/>
</a>
</g>
</g>
<!-- Node4 -->
<g id="Node000004" class="node">
<title>Node4</title>
<g id="a_Node000004"><a xlink:href="../../da/de8/clickhouse_2include_2userver_2storages_2clickhouse_2cluster_8hpp.html" target="_top" xlink:title="Interface for executing queries on a cluster of ClickHouse servers.">
<polygon fill="white" stroke="#666666" points="293.4,-85 140.4,-85 140.4,-55 293.4,-55 293.4,-85"/>
<text text-anchor="start" x="148.4" y="-73" font-family="Helvetica,sans-Serif" font-size="10.00">userver/storages/clickhouse</text>
<text text-anchor="middle" x="216.9" y="-62" font-family="Helvetica,sans-Serif" font-size="10.00">/cluster.hpp</text>
</a>
</g>
</g>
<!-- Node3&#45;&gt;Node4 -->
<g id="edge3_Node000003_Node000004" class="edge">
<title>Node3&#45;&gt;Node4</title>
<g id="a_edge3_Node000003_Node000004"><a xlink:title=" ">
<path fill="none" stroke="#63b8ff" d="M112.72,-176.59C114.4,-159.56 118.96,-137.08 130.9,-121 142.84,-104.92 161.62,-93.14 178.59,-85.07"/>
<polygon fill="#63b8ff" stroke="#63b8ff" points="109.21,-176.65 111.98,-186.88 116.19,-177.16 109.21,-176.65"/>
</a>
</g>
</g>
<!-- Node5 -->
<g id="Node000005" class="node">
<title>Node5</title>
<g id="a_Node000005"><a xlink:href="../../d7/d29/clickhouse_8hpp.html" target="_top" xlink:title=" ">
<polygon fill="white" stroke="#666666" points="355.9,-19 181.9,-19 181.9,0 355.9,0 355.9,-19"/>
<text text-anchor="middle" x="268.9" y="-7" font-family="Helvetica,sans-Serif" font-size="10.00">userver/storages/clickhouse.hpp</text>
</a>
</g>
</g>
<!-- Node4&#45;&gt;Node5 -->
<g id="edge4_Node000004_Node000005" class="edge">
<title>Node4&#45;&gt;Node5</title>
<g id="a_edge4_Node000004_Node000005"><a xlink:title=" ">
<path fill="none" stroke="#63b8ff" d="M236.38,-47.09C244.97,-37.42 254.58,-26.61 261.11,-19.27"/>
<polygon fill="#63b8ff" stroke="#63b8ff" points="233.52,-45.04 229.49,-54.84 238.75,-49.69 233.52,-45.04"/>
</a>
</g>
</g>
<!-- Node6&#45;&gt;Node3 -->
<g id="edge6_Node000006_Node000003" class="edge">
<title>Node6&#45;&gt;Node3</title>
<g id="a_edge6_Node000006_Node000003"><a xlink:title=" ">
<path fill="none" stroke="#63b8ff" d="M102.96,-308.68C105.24,-281.7 108.85,-239.11 110.7,-217.14"/>
<polygon fill="#63b8ff" stroke="#63b8ff" points="99.45,-308.58 102.1,-318.84 106.43,-309.17 99.45,-308.58"/>
</a>
</g>
</g>
<!-- Node6&#45;&gt;Node7 -->
<g id="edge7_Node000006_Node000007" class="edge">
<title>Node6&#45;&gt;Node7</title>
<g id="a_edge7_Node000006_Node000007"><a xlink:title=" ">
<path fill="none" stroke="#63b8ff" d="M151.5,-315.59C181.24,-305.36 218.34,-292.59 246.18,-283.01"/>
<polygon fill="#63b8ff" stroke="#63b8ff" points="150.04,-312.39 141.72,-318.95 152.31,-319.01 150.04,-312.39"/>
</a>
</g>
</g>
<!-- Node7&#45;&gt;Node3 -->
<g id="edge12_Node000007_Node000003" class="edge">
<title>Node7&#45;&gt;Node3</title>
<g id="a_edge12_Node000007_Node000003"><a xlink:title=" ">
<path fill="none" stroke="#63b8ff" d="M238.93,-249.46C211.01,-239.25 176.3,-226.55 150.22,-217.01"/>
<polygon fill="#63b8ff" stroke="#63b8ff" points="237.9,-252.81 248.5,-252.95 240.31,-246.23 237.9,-252.81"/>
</a>
</g>
</g>
<!-- Node8 -->
<g id="Node000008" class="node">
<title>Node8</title>
<g id="a_Node000008"><a xlink:href="../../db/d1b/clickhouse_2include_2userver_2storages_2clickhouse_2execution__result_8hpp.html" target="_top" xlink:title="Result accessor.">
<polygon fill="white" stroke="#666666" points="363.4,-217 210.4,-217 210.4,-187 363.4,-187 363.4,-217"/>
<text text-anchor="start" x="218.4" y="-205" font-family="Helvetica,sans-Serif" font-size="10.00">userver/storages/clickhouse</text>
<text text-anchor="middle" x="286.9" y="-194" font-family="Helvetica,sans-Serif" font-size="10.00">/execution_result.hpp</text>
</a>
</g>
</g>
<!-- Node7&#45;&gt;Node8 -->
<g id="edge8_Node000007_Node000008" class="edge">
<title>Node7&#45;&gt;Node8</title>
<g id="a_edge8_Node000007_Node000008"><a xlink:title=" ">
<path fill="none" stroke="#63b8ff" d="M286.9,-242.54C286.9,-233.96 286.9,-224.61 286.9,-217.16"/>
<polygon fill="#63b8ff" stroke="#63b8ff" points="283.4,-242.8 286.9,-252.8 290.4,-242.8 283.4,-242.8"/>
</a>
</g>
</g>
<!-- Node8&#45;&gt;Node5 -->
<g id="edge9_Node000008_Node000005" class="edge">
<title>Node8&#45;&gt;Node5</title>
<g id="a_edge9_Node000008_Node000005"><a xlink:title=" ">
<path fill="none" stroke="#63b8ff" d="M296.17,-177.21C298.91,-169.03 301.54,-159.74 302.9,-151 309.48,-108.84 316.57,-95.42 302.9,-55 298.1,-40.82 286.77,-27.59 278.51,-19.31"/>
<polygon fill="#63b8ff" stroke="#63b8ff" points="292.8,-176.25 292.73,-186.84 299.39,-178.6 292.8,-176.25"/>
</a>
</g>
</g>
<!-- Node9 -->
<g id="Node000009" class="node">
<title>Node9</title>
<g id="a_Node000009"><a xlink:href="../../d3/de4/clickhouse_2include_2userver_2storages_2clickhouse_2impl_2pool_8hpp_source.html" target="_top" xlink:title=" ">
<polygon fill="white" stroke="#666666" points="293.4,-151 140.4,-151 140.4,-121 293.4,-121 293.4,-151"/>
<text text-anchor="start" x="148.4" y="-139" font-family="Helvetica,sans-Serif" font-size="10.00">userver/storages/clickhouse</text>
<text text-anchor="middle" x="216.9" y="-128" font-family="Helvetica,sans-Serif" font-size="10.00">/impl/pool.hpp</text>
</a>
</g>
</g>
<!-- Node8&#45;&gt;Node9 -->
<g id="edge10_Node000008_Node000009" class="edge">
<title>Node8&#45;&gt;Node9</title>
<g id="a_edge10_Node000008_Node000009"><a xlink:title=" ">
<path fill="none" stroke="#63b8ff" d="M263.85,-179.92C253.53,-170.49 241.63,-159.61 232.39,-151.16"/>
<polygon fill="#63b8ff" stroke="#63b8ff" points="261.62,-182.63 271.37,-186.8 266.35,-177.47 261.62,-182.63"/>
</a>
</g>
</g>
<!-- Node9&#45;&gt;Node4 -->
<g id="edge11_Node000009_Node000004" class="edge">
<title>Node9&#45;&gt;Node4</title>
<g id="a_edge11_Node000009_Node000004"><a xlink:title=" ">
<path fill="none" stroke="#63b8ff" d="M216.9,-110.54C216.9,-101.96 216.9,-92.61 216.9,-85.16"/>
<polygon fill="#63b8ff" stroke="#63b8ff" points="213.4,-110.8 216.9,-120.8 220.4,-110.8 213.4,-110.8"/>
</a>
</g>
</g>
<!-- Node10&#45;&gt;Node3 -->
<g id="edge14_Node000010_Node000003" class="edge">
<title>Node10&#45;&gt;Node3</title>
<g id="a_edge14_Node000010_Node000003"><a xlink:title=" ">
<path fill="none" stroke="#63b8ff" d="M252.05,-314.12C235.81,-305.42 216.91,-294.48 200.9,-283 172.2,-262.42 142.37,-233.89 125.57,-217.05"/>
<polygon fill="#63b8ff" stroke="#63b8ff" points="250.79,-317.42 261.27,-318.98 254.05,-311.22 250.79,-317.42"/>
</a>
</g>
</g>
<!-- Node10&#45;&gt;Node7 -->
<g id="edge15_Node000010_Node000007" class="edge">
<title>Node10&#45;&gt;Node7</title>
<g id="a_edge15_Node000010_Node000007"><a xlink:title=" ">
<path fill="none" stroke="#63b8ff" d="M288.75,-308.54C288.35,-299.96 287.91,-290.61 287.56,-283.16"/>
<polygon fill="#63b8ff" stroke="#63b8ff" points="285.27,-308.97 289.24,-318.8 292.26,-308.64 285.27,-308.97"/>
</a>
</g>
</g>
</g>
</svg>
