<?xml version="1.0" encoding="UTF-8" standalone="no"?>
<!DOCTYPE svg PUBLIC "-//W3C//DTD SVG 1.1//EN"
 "http://www.w3.org/Graphics/SVG/1.1/DTD/svg11.dtd">
<!-- Generated by graphviz version 2.43.0 (0)
 -->
<!-- Title: urabbitmq::EndpointInfo Pages: 1 -->
<svg width="142pt" height="160pt"
 viewBox="0.00 0.00 142.00 160.00" xmlns="http://www.w3.org/2000/svg" xmlns:xlink="http://www.w3.org/1999/xlink">
<g id="graph0" class="graph" transform="scale(1 1) rotate(0) translate(4 156)">
<title>urabbitmq::EndpointInfo</title>
<!-- Node1 -->
<g id="Node000001" class="node">
<title>Node1</title>
<g id="a_Node000001"><a xlink:title=" ">
<polygon fill="#999999" stroke="#666666" points="134,-19 0,-19 0,0 134,0 134,-19"/>
<text text-anchor="middle" x="67" y="-7" font-family="Helvetica,sans-Serif" font-size="10.00">urabbitmq::EndpointInfo</text>
</a>
</g>
</g>
<!-- Node2 -->
<g id="Node000002" class="node">
<title>Node2</title>
<g id="a_Node000002"><a xlink:title=" ">
<polygon fill="white" stroke="#666666" points="99.5,-85 34.5,-85 34.5,-66 99.5,-66 99.5,-85"/>
<text text-anchor="middle" x="67" y="-73" font-family="Helvetica,sans-Serif" font-size="10.00">std::string</text>
</a>
</g>
</g>
<!-- Node2&#45;&gt;Node1 -->
<g id="edge1_Node000001_Node000002" class="edge">
<title>Node2&#45;&gt;Node1</title>
<g id="a_edge1_Node000001_Node000002"><a xlink:title=" ">
<path fill="none" stroke="#9a32cd" stroke-dasharray="5,2" d="M67,-55.58C67,-43.63 67,-28.72 67,-19.41"/>
<polygon fill="#9a32cd" stroke="#9a32cd" points="63.5,-55.87 67,-65.87 70.5,-55.87 63.5,-55.87"/>
</a>
</g>
<text text-anchor="middle" x="79.5" y="-40" font-family="Helvetica,sans-Serif" font-size="10.00" fill="grey"> host</text>
</g>
<!-- Node3 -->
<g id="Node000003" class="node">
<title>Node3</title>
<g id="a_Node000003"><a xlink:title=" ">
<polygon fill="white" stroke="#666666" points="119,-152 15,-152 15,-122 119,-122 119,-152"/>
<text text-anchor="start" x="23" y="-140" font-family="Helvetica,sans-Serif" font-size="10.00">std::basic_string&lt;</text>
<text text-anchor="middle" x="67" y="-129" font-family="Helvetica,sans-Serif" font-size="10.00"> Char &gt;</text>
</a>
</g>
</g>
<!-- Node3&#45;&gt;Node2 -->
<g id="edge2_Node000002_Node000003" class="edge">
<title>Node3&#45;&gt;Node2</title>
<g id="a_edge2_Node000002_Node000003"><a xlink:title=" ">
<path fill="none" stroke="#63b8ff" d="M67,-111.79C67,-102.36 67,-92.15 67,-85.16"/>
<polygon fill="#63b8ff" stroke="#63b8ff" points="63.5,-111.9 67,-121.9 70.5,-111.9 63.5,-111.9"/>
</a>
</g>
</g>
</g>
</svg>
