<?xml version="1.0" encoding="UTF-8" standalone="no"?>
<!DOCTYPE svg PUBLIC "-//W3C//DTD SVG 1.1//EN"
 "http://www.w3.org/Graphics/SVG/1.1/DTD/svg11.dtd">
<!-- Generated by graphviz version 2.43.0 (0)
 -->
<!-- Title: urabbitmq::AuthSettings Pages: 1 -->
<svg width="143pt" height="182pt"
 viewBox="0.00 0.00 143.00 182.00" xmlns="http://www.w3.org/2000/svg" xmlns:xlink="http://www.w3.org/1999/xlink">
<g id="graph0" class="graph" transform="scale(1 1) rotate(0) translate(4 178)">
<title>urabbitmq::AuthSettings</title>
<!-- Node1 -->
<g id="Node000001" class="node">
<title>Node1</title>
<g id="a_Node000001"><a xlink:title=" ">
<polygon fill="#999999" stroke="#666666" points="135,-19 0,-19 0,0 135,0 135,-19"/>
<text text-anchor="middle" x="67.5" y="-7" font-family="Helvetica,sans-Serif" font-size="10.00">urabbitmq::AuthSettings</text>
</a>
</g>
</g>
<!-- Node2 -->
<g id="Node000002" class="node">
<title>Node2</title>
<g id="a_Node000002"><a xlink:title=" ">
<polygon fill="white" stroke="#666666" points="100,-107 35,-107 35,-88 100,-88 100,-107"/>
<text text-anchor="middle" x="67.5" y="-95" font-family="Helvetica,sans-Serif" font-size="10.00">std::string</text>
</a>
</g>
</g>
<!-- Node2&#45;&gt;Node1 -->
<g id="edge1_Node000001_Node000002" class="edge">
<title>Node2&#45;&gt;Node1</title>
<g id="a_edge1_Node000001_Node000002"><a xlink:title=" ">
<path fill="none" stroke="#9a32cd" stroke-dasharray="5,2" d="M67.5,-77.91C67.5,-59.67 67.5,-32.65 67.5,-19.03"/>
<polygon fill="#9a32cd" stroke="#9a32cd" points="64,-77.94 67.5,-87.94 71,-77.94 64,-77.94"/>
</a>
</g>
<text text-anchor="middle" x="91" y="-62" font-family="Helvetica,sans-Serif" font-size="10.00" fill="grey"> login</text>
<text text-anchor="middle" x="91" y="-51" font-family="Helvetica,sans-Serif" font-size="10.00" fill="grey">password</text>
<text text-anchor="middle" x="91" y="-40" font-family="Helvetica,sans-Serif" font-size="10.00" fill="grey">vhost</text>
</g>
<!-- Node3 -->
<g id="Node000003" class="node">
<title>Node3</title>
<g id="a_Node000003"><a xlink:title=" ">
<polygon fill="white" stroke="#666666" points="119.5,-174 15.5,-174 15.5,-144 119.5,-144 119.5,-174"/>
<text text-anchor="start" x="23.5" y="-162" font-family="Helvetica,sans-Serif" font-size="10.00">std::basic_string&lt;</text>
<text text-anchor="middle" x="67.5" y="-151" font-family="Helvetica,sans-Serif" font-size="10.00"> Char &gt;</text>
</a>
</g>
</g>
<!-- Node3&#45;&gt;Node2 -->
<g id="edge2_Node000002_Node000003" class="edge">
<title>Node3&#45;&gt;Node2</title>
<g id="a_edge2_Node000002_Node000003"><a xlink:title=" ">
<path fill="none" stroke="#63b8ff" d="M67.5,-133.79C67.5,-124.36 67.5,-114.15 67.5,-107.16"/>
<polygon fill="#63b8ff" stroke="#63b8ff" points="64,-133.9 67.5,-143.9 71,-133.9 64,-133.9"/>
</a>
</g>
</g>
</g>
</svg>
