<?xml version="1.0" encoding="UTF-8" standalone="no"?>
<!DOCTYPE svg PUBLIC "-//W3C//DTD SVG 1.1//EN"
 "http://www.w3.org/Graphics/SVG/1.1/DTD/svg11.dtd">
<!-- Generated by graphviz version 2.43.0 (0)
 -->
<!-- Title: userver/server Pages: 1 -->
<svg width="1319pt" height="306pt"
 viewBox="0.00 0.00 1318.79 306.00" xmlns="http://www.w3.org/2000/svg" xmlns:xlink="http://www.w3.org/1999/xlink">
<g id="graph0" class="graph" transform="scale(1 1) rotate(0) translate(4 302)">
<title>userver/server</title>
<g id="clust1" class="cluster">
<title>clusterdir_26f8c63b8c67b2ed6c1b7078f08f1e18</title>
<g id="a_clust1"><a xlink:href="dir_26f8c63b8c67b2ed6c1b7078f08f1e18.html" target="_top" xlink:title="userver">
<polygon fill="#feefdf" stroke="#404040" stroke-dasharray="5,2" points="8,-8 8,-290 1095,-290 1095,-8 8,-8"/>
<text text-anchor="middle" x="551.5" y="-278" font-family="Helvetica,sans-Serif" font-size="10.00">userver</text>
</a>
</g>
</g>
<g id="clust2" class="cluster">
<title>clusterdir_ee914885184833579e051451a9f6b65c</title>
<g id="a_clust2"><a xlink:href="dir_ee914885184833579e051451a9f6b65c.html" target="_top">
<polygon fill="#feefdf" stroke="#404040" stroke-width="2" points="525,-63 525,-263 900,-263 900,-63 525,-63"/>
</a>
</g>
</g>
<!-- dir_0c57938951830d22b3fad77440a122e7 -->
<g id="node1" class="node">
<title>dir_0c57938951830d22b3fad77440a122e7</title>
<g id="a_node1"><a xlink:href="dir_0c57938951830d22b3fad77440a122e7.html" target="_top" xlink:title="tracing">
<polygon fill="#fdaf60" stroke="#404040" points="406,-145 356,-145 356,-126 406,-126 406,-145"/>
<text text-anchor="middle" x="381" y="-133" font-family="Helvetica,sans-Serif" font-size="10.00">tracing</text>
</a>
</g>
</g>
<!-- dir_150bbd271f1504029fbda942e72f1022 -->
<g id="node2" class="node">
<title>dir_150bbd271f1504029fbda942e72f1022</title>
<g id="a_node2"><a xlink:href="dir_150bbd271f1504029fbda942e72f1022.html" target="_top" xlink:title="utils">
<polygon fill="#fdaf60" stroke="red" points="172,-145 134,-145 134,-126 172,-126 172,-145"/>
<text text-anchor="middle" x="153" y="-133" font-family="Helvetica,sans-Serif" font-size="10.00">utils</text>
</a>
</g>
</g>
<!-- dir_2c6b70c628beb7fc0194b7f508f3ad90 -->
<g id="node3" class="node">
<title>dir_2c6b70c628beb7fc0194b7f508f3ad90</title>
<g id="a_node3"><a xlink:href="dir_2c6b70c628beb7fc0194b7f508f3ad90.html" target="_top" xlink:title="cache">
<polygon fill="#fdaf60" stroke="#404040" points="469.5,-145 424.5,-145 424.5,-126 469.5,-126 469.5,-145"/>
<text text-anchor="middle" x="447" y="-133" font-family="Helvetica,sans-Serif" font-size="10.00">cache</text>
</a>
</g>
</g>
<!-- dir_3285f5f33091c25af669261537588667 -->
<g id="node4" class="node">
<title>dir_3285f5f33091c25af669261537588667</title>
<g id="a_node4"><a xlink:href="dir_3285f5f33091c25af669261537588667.html" target="_top" xlink:title="rcu">
<polygon fill="#fdaf60" stroke="#404040" points="338,-145 306,-145 306,-126 338,-126 338,-145"/>
<text text-anchor="middle" x="322" y="-133" font-family="Helvetica,sans-Serif" font-size="10.00">rcu</text>
</a>
</g>
</g>
<!-- dir_486b9402482621fd641691dc37d76b53 -->
<g id="node5" class="node">
<title>dir_486b9402482621fd641691dc37d76b53</title>
<g id="a_node5"><a xlink:href="dir_486b9402482621fd641691dc37d76b53.html" target="_top" xlink:title="engine">
<polygon fill="#fdaf60" stroke="red" points="389,-35 339,-35 339,-16 389,-16 389,-35"/>
<text text-anchor="middle" x="364" y="-23" font-family="Helvetica,sans-Serif" font-size="10.00">engine</text>
</a>
</g>
</g>
<!-- dir_6fe6ce792de102936b3c02369b7e8bae -->
<g id="node6" class="node">
<title>dir_6fe6ce792de102936b3c02369b7e8bae</title>
<g id="a_node6"><a xlink:href="dir_6fe6ce792de102936b3c02369b7e8bae.html" target="_top" xlink:title="dynamic_config">
<polygon fill="#fdaf60" stroke="red" points="1087.5,-145 994.5,-145 994.5,-126 1087.5,-126 1087.5,-145"/>
<text text-anchor="middle" x="1041" y="-133" font-family="Helvetica,sans-Serif" font-size="10.00">dynamic_config</text>
</a>
</g>
</g>
<!-- dir_994ef2a14b32cb8134d8b7b97f08d542 -->
<g id="node7" class="node">
<title>dir_994ef2a14b32cb8134d8b7b97f08d542</title>
<g id="a_node7"><a xlink:href="dir_994ef2a14b32cb8134d8b7b97f08d542.html" target="_top" xlink:title="components">
<polygon fill="#fdaf60" stroke="red" points="287.5,-145 210.5,-145 210.5,-126 287.5,-126 287.5,-145"/>
<text text-anchor="middle" x="249" y="-133" font-family="Helvetica,sans-Serif" font-size="10.00">components</text>
</a>
</g>
</g>
<!-- dir_a002d428d11eb8614f350575a2d4c4e0 -->
<g id="node8" class="node">
<title>dir_a002d428d11eb8614f350575a2d4c4e0</title>
<g id="a_node8"><a xlink:href="dir_a002d428d11eb8614f350575a2d4c4e0.html" target="_top" xlink:title="fs">
<polygon fill="#fdaf60" stroke="#404040" points="516.5,-145 487.5,-145 487.5,-126 516.5,-126 516.5,-145"/>
<text text-anchor="middle" x="502" y="-133" font-family="Helvetica,sans-Serif" font-size="10.00">fs</text>
</a>
</g>
</g>
<!-- dir_b2e5dd734b4dca0bb7544c080eed55d0 -->
<g id="node9" class="node">
<title>dir_b2e5dd734b4dca0bb7544c080eed55d0</title>
<g id="a_node9"><a xlink:href="dir_b2e5dd734b4dca0bb7544c080eed55d0.html" target="_top" xlink:title="storages">
<polygon fill="#fdaf60" stroke="red" points="115.5,-145 56.5,-145 56.5,-126 115.5,-126 115.5,-145"/>
<text text-anchor="middle" x="86" y="-133" font-family="Helvetica,sans-Serif" font-size="10.00">storages</text>
</a>
</g>
</g>
<!-- dir_e64dfdcbff0f609bc29171eebbcbbcc9 -->
<g id="node10" class="node">
<title>dir_e64dfdcbff0f609bc29171eebbcbbcc9</title>
<g id="a_node10"><a xlink:href="dir_e64dfdcbff0f609bc29171eebbcbbcc9.html" target="_top" xlink:title="concurrent">
<polygon fill="#fdaf60" stroke="red" points="976,-145 908,-145 908,-126 976,-126 976,-145"/>
<text text-anchor="middle" x="942" y="-133" font-family="Helvetica,sans-Serif" font-size="10.00">concurrent</text>
</a>
</g>
</g>
<!-- dir_ee914885184833579e051451a9f6b65c -->
<g id="node11" class="node">
<title>dir_ee914885184833579e051451a9f6b65c</title>
<text text-anchor="middle" x="557" y="-243" font-family="Helvetica,sans-Serif" font-size="10.00">server</text>
</g>
<!-- dir_ee914885184833579e051451a9f6b65c&#45;&gt;dir_150bbd271f1504029fbda942e72f1022 -->
<g id="edge1" class="edge">
<title>dir_ee914885184833579e051451a9f6b65c&#45;&gt;dir_150bbd271f1504029fbda942e72f1022</title>
<g id="a_edge1"><a xlink:href="dir_000116_000152.html" target="_top">
<path fill="none" stroke="#63b8ff" d="M533.33,-244.4C461.06,-243.68 244.77,-238.3 188,-200 172.38,-189.46 163.06,-169.54 158.02,-154.81"/>
<polygon fill="#63b8ff" stroke="#63b8ff" points="161.35,-153.74 155.07,-145.21 154.66,-155.8 161.35,-153.74"/>
</a>
</g>
<g id="a_edge1&#45;headlabel"><a xlink:href="dir_000116_000152.html" target="_top" xlink:title="5">
<text text-anchor="middle" x="165.12" y="-153.84" font-family="Helvetica,sans-Serif" font-size="10.00" fill="#63b8ff">5</text>
</a>
</g>
</g>
<!-- dir_ee914885184833579e051451a9f6b65c&#45;&gt;dir_486b9402482621fd641691dc37d76b53 -->
<g id="edge2" class="edge">
<title>dir_ee914885184833579e051451a9f6b65c&#45;&gt;dir_486b9402482621fd641691dc37d76b53</title>
<g id="a_edge2"><a xlink:href="dir_000116_000047.html" target="_top">
<path fill="none" stroke="#63b8ff" d="M533.49,-244.38C438.32,-243.3 84.23,-233.34 32,-145 13.45,-113.63 7.68,-90.14 32,-63 51.56,-41.17 247.29,-31.06 328.73,-27.77"/>
<polygon fill="#63b8ff" stroke="#63b8ff" points="329.13,-31.25 338.99,-27.37 328.86,-24.26 329.13,-31.25"/>
</a>
</g>
<g id="a_edge2&#45;headlabel"><a xlink:href="dir_000116_000047.html" target="_top" xlink:title="9">
<text text-anchor="middle" x="325.65" y="-31.73" font-family="Helvetica,sans-Serif" font-size="10.00" fill="#63b8ff">9</text>
</a>
</g>
</g>
<!-- dir_ee914885184833579e051451a9f6b65c&#45;&gt;dir_994ef2a14b32cb8134d8b7b97f08d542 -->
<g id="edge3" class="edge">
<title>dir_ee914885184833579e051451a9f6b65c&#45;&gt;dir_994ef2a14b32cb8134d8b7b97f08d542</title>
<g id="a_edge3"><a xlink:href="dir_000116_000022.html" target="_top">
<path fill="none" stroke="#63b8ff" d="M533.38,-243.37C456.72,-239.47 218.43,-225.37 196,-200 181.17,-183.23 204.07,-163.33 224.23,-150.34"/>
<polygon fill="#63b8ff" stroke="#63b8ff" points="226.17,-153.25 232.88,-145.05 222.52,-147.28 226.17,-153.25"/>
</a>
</g>
<g id="a_edge3&#45;headlabel"><a xlink:href="dir_000116_000022.html" target="_top" xlink:title="12">
<text text-anchor="middle" x="224.58" y="-155.05" font-family="Helvetica,sans-Serif" font-size="10.00" fill="#63b8ff">12</text>
</a>
</g>
</g>
<!-- dir_ee914885184833579e051451a9f6b65c&#45;&gt;dir_b2e5dd734b4dca0bb7544c080eed55d0 -->
<g id="edge5" class="edge">
<title>dir_ee914885184833579e051451a9f6b65c&#45;&gt;dir_b2e5dd734b4dca0bb7544c080eed55d0</title>
<g id="a_edge5"><a xlink:href="dir_000116_000122.html" target="_top">
<path fill="none" stroke="#63b8ff" d="M533.37,-243.49C459.55,-240.06 234.15,-227.54 167,-200 141.06,-189.36 116.48,-167.9 101.34,-152.89"/>
<polygon fill="#63b8ff" stroke="#63b8ff" points="103.45,-150.03 93.96,-145.32 98.44,-154.92 103.45,-150.03"/>
</a>
</g>
<g id="a_edge5&#45;headlabel"><a xlink:href="dir_000116_000122.html" target="_top" xlink:title="3">
<text text-anchor="middle" x="107.99" y="-148.12" font-family="Helvetica,sans-Serif" font-size="10.00" fill="#63b8ff">3</text>
</a>
</g>
</g>
<!-- dir_cbd02b5be4584b4d66ebef73a874b298 -->
<g id="node14" class="node">
<title>dir_cbd02b5be4584b4d66ebef73a874b298</title>
<g id="a_node14"><a xlink:href="dir_cbd02b5be4584b4d66ebef73a874b298.html" target="_top" xlink:title="handlers">
<polygon fill="#fdaf60" stroke="#404040" points="592.5,-200 533.5,-200 533.5,-181 592.5,-181 592.5,-200"/>
<text text-anchor="middle" x="563" y="-188" font-family="Helvetica,sans-Serif" font-size="10.00">handlers</text>
</a>
</g>
</g>
<!-- dir_ee914885184833579e051451a9f6b65c&#45;&gt;dir_cbd02b5be4584b4d66ebef73a874b298 -->
<g id="edge6" class="edge">
<title>dir_ee914885184833579e051451a9f6b65c&#45;&gt;dir_cbd02b5be4584b4d66ebef73a874b298</title>
<g id="a_edge6"><a xlink:href="dir_000116_000054.html" target="_top">
<path fill="none" stroke="#63b8ff" d="M557.99,-235.75C558.78,-228.8 559.9,-218.85 560.89,-210.13"/>
<polygon fill="#63b8ff" stroke="#63b8ff" points="564.38,-210.42 562.03,-200.09 557.42,-209.63 564.38,-210.42"/>
</a>
</g>
<g id="a_edge6&#45;headlabel"><a xlink:href="dir_000116_000054.html" target="_top" xlink:title="3">
<text text-anchor="middle" x="566.8" y="-211.81" font-family="Helvetica,sans-Serif" font-size="10.00" fill="#63b8ff">3</text>
</a>
</g>
</g>
<!-- dir_a7364e945deb3de9e65ddca50507f79f -->
<g id="node19" class="node">
<title>dir_a7364e945deb3de9e65ddca50507f79f</title>
<g id="a_node19"><a xlink:href="dir_a7364e945deb3de9e65ddca50507f79f.html" target="_top" xlink:title="userver">
<polygon fill="#feefdf" stroke="red" points="1199.5,-35 1146.5,-35 1146.5,-16 1199.5,-16 1199.5,-35"/>
<text text-anchor="middle" x="1173" y="-23" font-family="Helvetica,sans-Serif" font-size="10.00">userver</text>
</a>
</g>
</g>
<!-- dir_ee914885184833579e051451a9f6b65c&#45;&gt;dir_a7364e945deb3de9e65ddca50507f79f -->
<g id="edge4" class="edge">
<title>dir_ee914885184833579e051451a9f6b65c&#45;&gt;dir_a7364e945deb3de9e65ddca50507f79f</title>
<g id="a_edge4"><a xlink:href="dir_000116_000149.html" target="_top">
<path fill="none" stroke="#63b8ff" d="M580.7,-237.92C583.49,-237.23 586.3,-236.58 589,-236 836.9,-183.18 949.41,-297.33 1152,-145 1182.56,-122.02 1180.6,-101.14 1178,-63 1177.6,-57.17 1176.85,-50.85 1176.05,-45.13"/>
<polygon fill="#63b8ff" stroke="#63b8ff" points="1179.5,-44.52 1174.53,-35.17 1172.58,-45.58 1179.5,-44.52"/>
</a>
</g>
<g id="a_edge4&#45;headlabel"><a xlink:href="dir_000116_000149.html" target="_top" xlink:title="41">
<text text-anchor="middle" x="1182.85" y="-45.15" font-family="Helvetica,sans-Serif" font-size="10.00" fill="#63b8ff">41</text>
</a>
</g>
</g>
<!-- dir_6dee7a840c66e9033c3284f1ad4fe4a1 -->
<g id="node12" class="node">
<title>dir_6dee7a840c66e9033c3284f1ad4fe4a1</title>
<g id="a_node12"><a xlink:href="dir_6dee7a840c66e9033c3284f1ad4fe4a1.html" target="_top" xlink:title="auth">
<polygon fill="#fdaf60" stroke="#404040" points="695,-200 657,-200 657,-181 695,-181 695,-200"/>
<text text-anchor="middle" x="676" y="-188" font-family="Helvetica,sans-Serif" font-size="10.00">auth</text>
</a>
</g>
</g>
<!-- dir_990ca0e4d1092627101070a1c89f24df -->
<g id="node17" class="node">
<title>dir_990ca0e4d1092627101070a1c89f24df</title>
<g id="a_node17"><a xlink:href="dir_990ca0e4d1092627101070a1c89f24df.html" target="_top" xlink:title="request">
<polygon fill="#fdaf60" stroke="#404040" points="635.5,-145 582.5,-145 582.5,-126 635.5,-126 635.5,-145"/>
<text text-anchor="middle" x="609" y="-133" font-family="Helvetica,sans-Serif" font-size="10.00">request</text>
</a>
</g>
</g>
<!-- dir_6dee7a840c66e9033c3284f1ad4fe4a1&#45;&gt;dir_990ca0e4d1092627101070a1c89f24df -->
<g id="edge7" class="edge">
<title>dir_6dee7a840c66e9033c3284f1ad4fe4a1&#45;&gt;dir_990ca0e4d1092627101070a1c89f24df</title>
<g id="a_edge7"><a xlink:href="dir_000001_000112.html" target="_top">
<path fill="none" stroke="#63b8ff" d="M665.24,-180.98C655.23,-173.07 640.11,-161.11 628.07,-151.58"/>
<polygon fill="#63b8ff" stroke="#63b8ff" points="629.97,-148.63 619.96,-145.17 625.63,-154.12 629.97,-148.63"/>
</a>
</g>
<g id="a_edge7&#45;headlabel"><a xlink:href="dir_000001_000112.html" target="_top" xlink:title="1">
<text text-anchor="middle" x="634.56" y="-146.13" font-family="Helvetica,sans-Serif" font-size="10.00" fill="#63b8ff">1</text>
</a>
</g>
</g>
<!-- dir_6dee7a840c66e9033c3284f1ad4fe4a1&#45;&gt;dir_a7364e945deb3de9e65ddca50507f79f -->
<g id="edge8" class="edge">
<title>dir_6dee7a840c66e9033c3284f1ad4fe4a1&#45;&gt;dir_a7364e945deb3de9e65ddca50507f79f</title>
<g id="a_edge8"><a xlink:href="dir_000001_000149.html" target="_top">
<path fill="none" stroke="#63b8ff" d="M695.22,-188.81C777.23,-185.72 1095.16,-172.05 1130,-145 1161.16,-120.81 1169.76,-71.94 1172.12,-45.13"/>
<polygon fill="#63b8ff" stroke="#63b8ff" points="1175.61,-45.34 1172.8,-35.13 1168.63,-44.87 1175.61,-45.34"/>
</a>
</g>
<g id="a_edge8&#45;headlabel"><a xlink:href="dir_000001_000149.html" target="_top" xlink:title="5">
<text text-anchor="middle" x="1178.2" y="-46.62" font-family="Helvetica,sans-Serif" font-size="10.00" fill="#63b8ff">5</text>
</a>
</g>
</g>
<!-- dir_87e8b8d6be5db6018332e1f6029d9963 -->
<g id="node13" class="node">
<title>dir_87e8b8d6be5db6018332e1f6029d9963</title>
<g id="a_node13"><a xlink:href="dir_87e8b8d6be5db6018332e1f6029d9963.html" target="_top" xlink:title="congestion_control">
<polygon fill="#fdaf60" stroke="#404040" points="707.5,-255 598.5,-255 598.5,-236 707.5,-236 707.5,-255"/>
<text text-anchor="middle" x="653" y="-243" font-family="Helvetica,sans-Serif" font-size="10.00">congestion_control</text>
</a>
</g>
</g>
<!-- dir_87e8b8d6be5db6018332e1f6029d9963&#45;&gt;dir_3285f5f33091c25af669261537588667 -->
<g id="edge9" class="edge">
<title>dir_87e8b8d6be5db6018332e1f6029d9963&#45;&gt;dir_3285f5f33091c25af669261537588667</title>
<g id="a_edge9"><a xlink:href="dir_000025_000109.html" target="_top">
<path fill="none" stroke="#63b8ff" d="M598.39,-236.16C530.53,-225.58 421.48,-207.76 404,-200 378.17,-188.53 353.2,-167.26 337.73,-152.52"/>
<polygon fill="#63b8ff" stroke="#63b8ff" points="339.76,-149.6 330.17,-145.1 334.86,-154.6 339.76,-149.6"/>
</a>
</g>
<g id="a_edge9&#45;headlabel"><a xlink:href="dir_000025_000109.html" target="_top" xlink:title="1">
<text text-anchor="middle" x="344.32" y="-147.6" font-family="Helvetica,sans-Serif" font-size="10.00" fill="#63b8ff">1</text>
</a>
</g>
</g>
<!-- dir_87e8b8d6be5db6018332e1f6029d9963&#45;&gt;dir_486b9402482621fd641691dc37d76b53 -->
<g id="edge10" class="edge">
<title>dir_87e8b8d6be5db6018332e1f6029d9963&#45;&gt;dir_486b9402482621fd641691dc37d76b53</title>
<g id="a_edge10"><a xlink:href="dir_000025_000047.html" target="_top">
<path fill="none" stroke="#63b8ff" d="M598.28,-236.47C450.88,-214.73 55.94,-155.6 47,-145 -32.42,-50.87 230.75,-31.44 328.72,-27.49"/>
<polygon fill="#63b8ff" stroke="#63b8ff" points="328.89,-30.99 338.75,-27.12 328.63,-23.99 328.89,-30.99"/>
</a>
</g>
<g id="a_edge10&#45;headlabel"><a xlink:href="dir_000025_000047.html" target="_top" xlink:title="1">
<text text-anchor="middle" x="325.4" y="-31.46" font-family="Helvetica,sans-Serif" font-size="10.00" fill="#63b8ff">1</text>
</a>
</g>
</g>
<!-- dir_87e8b8d6be5db6018332e1f6029d9963&#45;&gt;dir_a7364e945deb3de9e65ddca50507f79f -->
<g id="edge11" class="edge">
<title>dir_87e8b8d6be5db6018332e1f6029d9963&#45;&gt;dir_a7364e945deb3de9e65ddca50507f79f</title>
<g id="a_edge11"><a xlink:href="dir_000025_000149.html" target="_top">
<path fill="none" stroke="#63b8ff" d="M707.79,-237.01C710.9,-236.65 713.99,-236.31 717,-236 771.19,-230.41 1168.92,-239.91 1206,-200 1247.44,-155.39 1227.88,-119.82 1206,-63 1203,-55.22 1197.49,-48.06 1191.82,-42.19"/>
<polygon fill="#63b8ff" stroke="#63b8ff" points="1193.89,-39.33 1184.21,-35.03 1189.1,-44.43 1193.89,-39.33"/>
</a>
</g>
<g id="a_edge11&#45;headlabel"><a xlink:href="dir_000025_000149.html" target="_top" xlink:title="1">
<text text-anchor="middle" x="1198.46" y="-37.23" font-family="Helvetica,sans-Serif" font-size="10.00" fill="#63b8ff">1</text>
</a>
</g>
</g>
<!-- dir_cbd02b5be4584b4d66ebef73a874b298&#45;&gt;dir_0c57938951830d22b3fad77440a122e7 -->
<g id="edge12" class="edge">
<title>dir_cbd02b5be4584b4d66ebef73a874b298&#45;&gt;dir_0c57938951830d22b3fad77440a122e7</title>
<g id="a_edge12"><a xlink:href="dir_000054_000132.html" target="_top">
<path fill="none" stroke="#63b8ff" d="M533.76,-180.98C501.7,-171.65 450.29,-156.68 416.09,-146.72"/>
<polygon fill="#63b8ff" stroke="#63b8ff" points="416.65,-143.24 406.07,-143.8 414.69,-149.96 416.65,-143.24"/>
</a>
</g>
<g id="a_edge12&#45;headlabel"><a xlink:href="dir_000054_000132.html" target="_top" xlink:title="1">
<text text-anchor="middle" x="420.89" y="-139.01" font-family="Helvetica,sans-Serif" font-size="10.00" fill="#63b8ff">1</text>
</a>
</g>
</g>
<!-- dir_cbd02b5be4584b4d66ebef73a874b298&#45;&gt;dir_150bbd271f1504029fbda942e72f1022 -->
<g id="edge13" class="edge">
<title>dir_cbd02b5be4584b4d66ebef73a874b298&#45;&gt;dir_150bbd271f1504029fbda942e72f1022</title>
<g id="a_edge13"><a xlink:href="dir_000054_000152.html" target="_top">
<path fill="none" stroke="#63b8ff" d="M533.38,-181.84C531.9,-181.54 530.44,-181.26 529,-181 384.64,-155.16 346.17,-165.8 201,-145 194.88,-144.12 188.35,-143.06 182.13,-141.98"/>
<polygon fill="#63b8ff" stroke="#63b8ff" points="182.57,-138.5 172.11,-140.18 181.33,-145.39 182.57,-138.5"/>
</a>
</g>
<g id="a_edge13&#45;headlabel"><a xlink:href="dir_000054_000152.html" target="_top" xlink:title="3">
<text text-anchor="middle" x="186.61" y="-133.84" font-family="Helvetica,sans-Serif" font-size="10.00" fill="#63b8ff">3</text>
</a>
</g>
</g>
<!-- dir_cbd02b5be4584b4d66ebef73a874b298&#45;&gt;dir_2c6b70c628beb7fc0194b7f508f3ad90 -->
<g id="edge14" class="edge">
<title>dir_cbd02b5be4584b4d66ebef73a874b298&#45;&gt;dir_2c6b70c628beb7fc0194b7f508f3ad90</title>
<g id="a_edge14"><a xlink:href="dir_000054_000010.html" target="_top">
<path fill="none" stroke="#63b8ff" d="M544.36,-180.98C525.7,-172.46 496.75,-159.23 475.26,-149.41"/>
<polygon fill="#63b8ff" stroke="#63b8ff" points="476.53,-146.14 465.98,-145.17 473.62,-152.51 476.53,-146.14"/>
</a>
</g>
<g id="a_edge14&#45;headlabel"><a xlink:href="dir_000054_000010.html" target="_top" xlink:title="1">
<text text-anchor="middle" x="480.98" y="-142.55" font-family="Helvetica,sans-Serif" font-size="10.00" fill="#63b8ff">1</text>
</a>
</g>
</g>
<!-- dir_cbd02b5be4584b4d66ebef73a874b298&#45;&gt;dir_3285f5f33091c25af669261537588667 -->
<g id="edge15" class="edge">
<title>dir_cbd02b5be4584b4d66ebef73a874b298&#45;&gt;dir_3285f5f33091c25af669261537588667</title>
<g id="a_edge15"><a xlink:href="dir_000054_000109.html" target="_top">
<path fill="none" stroke="#63b8ff" d="M533.35,-182C531.88,-181.65 530.43,-181.32 529,-181 451.68,-163.7 428.45,-166.09 348.13,-145"/>
<polygon fill="#63b8ff" stroke="#63b8ff" points="348.61,-141.5 338.04,-142.3 346.8,-148.26 348.61,-141.5"/>
</a>
</g>
<g id="a_edge15&#45;headlabel"><a xlink:href="dir_000054_000109.html" target="_top" xlink:title="2">
<text text-anchor="middle" x="352.81" y="-137.18" font-family="Helvetica,sans-Serif" font-size="10.00" fill="#63b8ff">2</text>
</a>
</g>
</g>
<!-- dir_cbd02b5be4584b4d66ebef73a874b298&#45;&gt;dir_486b9402482621fd641691dc37d76b53 -->
<g id="edge16" class="edge">
<title>dir_cbd02b5be4584b4d66ebef73a874b298&#45;&gt;dir_486b9402482621fd641691dc37d76b53</title>
<g id="a_edge16"><a xlink:href="dir_000054_000047.html" target="_top">
<path fill="none" stroke="#63b8ff" d="M559.42,-180.82C553.7,-167.72 541.42,-142.65 525,-126 485.89,-86.32 427.96,-55.56 393.29,-39.3"/>
<polygon fill="#63b8ff" stroke="#63b8ff" points="394.72,-36.1 384.17,-35.11 391.79,-42.46 394.72,-36.1"/>
</a>
</g>
<g id="a_edge16&#45;headlabel"><a xlink:href="dir_000054_000047.html" target="_top" xlink:title="2">
<text text-anchor="middle" x="399.17" y="-32.53" font-family="Helvetica,sans-Serif" font-size="10.00" fill="#63b8ff">2</text>
</a>
</g>
</g>
<!-- dir_cbd02b5be4584b4d66ebef73a874b298&#45;&gt;dir_6fe6ce792de102936b3c02369b7e8bae -->
<g id="edge17" class="edge">
<title>dir_cbd02b5be4584b4d66ebef73a874b298&#45;&gt;dir_6fe6ce792de102936b3c02369b7e8bae</title>
<g id="a_edge17"><a xlink:href="dir_000054_000044.html" target="_top">
<path fill="none" stroke="#63b8ff" d="M592.73,-186.54C672.61,-178.57 891.56,-156.54 984.15,-145.04"/>
<polygon fill="#63b8ff" stroke="#63b8ff" points="984.79,-148.48 994.27,-143.76 983.91,-141.54 984.79,-148.48"/>
</a>
</g>
<g id="a_edge17&#45;headlabel"><a xlink:href="dir_000054_000044.html" target="_top" xlink:title="5">
<text text-anchor="middle" x="981.58" y="-149.25" font-family="Helvetica,sans-Serif" font-size="10.00" fill="#63b8ff">5</text>
</a>
</g>
</g>
<!-- dir_cbd02b5be4584b4d66ebef73a874b298&#45;&gt;dir_994ef2a14b32cb8134d8b7b97f08d542 -->
<g id="edge20" class="edge">
<title>dir_cbd02b5be4584b4d66ebef73a874b298&#45;&gt;dir_994ef2a14b32cb8134d8b7b97f08d542</title>
<g id="a_edge20"><a xlink:href="dir_000054_000022.html" target="_top">
<path fill="none" stroke="#63b8ff" d="M533.37,-181.92C531.89,-181.6 530.43,-181.29 529,-181 429.82,-160.95 401.63,-162.01 297.72,-145.08"/>
<polygon fill="#63b8ff" stroke="#63b8ff" points="298.2,-141.61 287.76,-143.44 297.06,-148.52 298.2,-141.61"/>
</a>
</g>
<g id="a_edge20&#45;headlabel"><a xlink:href="dir_000054_000022.html" target="_top" xlink:title="7">
<text text-anchor="middle" x="302.2" y="-136.89" font-family="Helvetica,sans-Serif" font-size="10.00" fill="#63b8ff">7</text>
</a>
</g>
</g>
<!-- dir_cbd02b5be4584b4d66ebef73a874b298&#45;&gt;dir_a002d428d11eb8614f350575a2d4c4e0 -->
<g id="edge21" class="edge">
<title>dir_cbd02b5be4584b4d66ebef73a874b298&#45;&gt;dir_a002d428d11eb8614f350575a2d4c4e0</title>
<g id="a_edge21"><a xlink:href="dir_000054_000051.html" target="_top">
<path fill="none" stroke="#63b8ff" d="M553.2,-180.98C544.18,-173.15 530.59,-161.34 519.68,-151.86"/>
<polygon fill="#63b8ff" stroke="#63b8ff" points="521.82,-149.09 511.98,-145.17 517.23,-154.37 521.82,-149.09"/>
</a>
</g>
<g id="a_edge21&#45;headlabel"><a xlink:href="dir_000054_000051.html" target="_top" xlink:title="1">
<text text-anchor="middle" x="526.4" y="-146.8" font-family="Helvetica,sans-Serif" font-size="10.00" fill="#63b8ff">1</text>
</a>
</g>
</g>
<!-- dir_cbd02b5be4584b4d66ebef73a874b298&#45;&gt;dir_b2e5dd734b4dca0bb7544c080eed55d0 -->
<g id="edge23" class="edge">
<title>dir_cbd02b5be4584b4d66ebef73a874b298&#45;&gt;dir_b2e5dd734b4dca0bb7544c080eed55d0</title>
<g id="a_edge23"><a xlink:href="dir_000054_000122.html" target="_top">
<path fill="none" stroke="#63b8ff" d="M533.39,-181.81C531.91,-181.51 530.44,-181.24 529,-181 354.45,-151.59 304.97,-171.5 125.76,-144.9"/>
<polygon fill="#63b8ff" stroke="#63b8ff" points="126.15,-141.42 115.74,-143.38 125.1,-148.34 126.15,-141.42"/>
</a>
</g>
<g id="a_edge23&#45;headlabel"><a xlink:href="dir_000054_000122.html" target="_top" xlink:title="2">
<text text-anchor="middle" x="130.13" y="-136.65" font-family="Helvetica,sans-Serif" font-size="10.00" fill="#63b8ff">2</text>
</a>
</g>
</g>
<!-- dir_cbd02b5be4584b4d66ebef73a874b298&#45;&gt;dir_e64dfdcbff0f609bc29171eebbcbbcc9 -->
<g id="edge24" class="edge">
<title>dir_cbd02b5be4584b4d66ebef73a874b298&#45;&gt;dir_e64dfdcbff0f609bc29171eebbcbbcc9</title>
<g id="a_edge24"><a xlink:href="dir_000054_000023.html" target="_top">
<path fill="none" stroke="#63b8ff" d="M592.79,-186.53C650.53,-180.57 781.93,-166.06 897.57,-146.09"/>
<polygon fill="#63b8ff" stroke="#63b8ff" points="898.4,-149.5 907.64,-144.33 897.19,-142.6 898.4,-149.5"/>
</a>
</g>
<g id="a_edge24&#45;headlabel"><a xlink:href="dir_000054_000023.html" target="_top" xlink:title="1">
<text text-anchor="middle" x="895.34" y="-150.42" font-family="Helvetica,sans-Serif" font-size="10.00" fill="#63b8ff">1</text>
</a>
</g>
</g>
<!-- dir_7c8aad318a3904861a0ee81bd37c7629 -->
<g id="node15" class="node">
<title>dir_7c8aad318a3904861a0ee81bd37c7629</title>
<g id="a_node15"><a xlink:href="dir_7c8aad318a3904861a0ee81bd37c7629.html" target="_top" xlink:title="http">
<polygon fill="#fdaf60" stroke="#404040" points="625,-90 589,-90 589,-71 625,-71 625,-90"/>
<text text-anchor="middle" x="607" y="-78" font-family="Helvetica,sans-Serif" font-size="10.00">http</text>
</a>
</g>
</g>
<!-- dir_cbd02b5be4584b4d66ebef73a874b298&#45;&gt;dir_7c8aad318a3904861a0ee81bd37c7629 -->
<g id="edge18" class="edge">
<title>dir_cbd02b5be4584b4d66ebef73a874b298&#45;&gt;dir_7c8aad318a3904861a0ee81bd37c7629</title>
<g id="a_edge18"><a xlink:href="dir_000054_000057.html" target="_top">
<path fill="none" stroke="#63b8ff" d="M557.36,-180.93C554.85,-168.38 557.07,-144.51 565,-126 569.43,-115.66 576.71,-105.47 584.16,-97.46"/>
<polygon fill="#63b8ff" stroke="#63b8ff" points="586.84,-99.73 591.57,-90.25 581.96,-94.72 586.84,-99.73"/>
</a>
</g>
<g id="a_edge18&#45;headlabel"><a xlink:href="dir_000054_000057.html" target="_top" xlink:title="12">
<text text-anchor="middle" x="586.25" y="-101.78" font-family="Helvetica,sans-Serif" font-size="10.00" fill="#63b8ff">12</text>
</a>
</g>
</g>
<!-- dir_cbd02b5be4584b4d66ebef73a874b298&#45;&gt;dir_990ca0e4d1092627101070a1c89f24df -->
<g id="edge19" class="edge">
<title>dir_cbd02b5be4584b4d66ebef73a874b298&#45;&gt;dir_990ca0e4d1092627101070a1c89f24df</title>
<g id="a_edge19"><a xlink:href="dir_000054_000112.html" target="_top">
<path fill="none" stroke="#63b8ff" d="M570.6,-180.75C577.16,-173.18 586.82,-162.05 594.81,-152.84"/>
<polygon fill="#63b8ff" stroke="#63b8ff" points="597.63,-154.94 601.55,-145.09 592.35,-150.35 597.63,-154.94"/>
</a>
</g>
<g id="a_edge19&#45;headlabel"><a xlink:href="dir_000054_000112.html" target="_top" xlink:title="4">
<text text-anchor="middle" x="597.42" y="-157.01" font-family="Helvetica,sans-Serif" font-size="10.00" fill="#63b8ff">4</text>
</a>
</g>
</g>
<!-- dir_cbd02b5be4584b4d66ebef73a874b298&#45;&gt;dir_a7364e945deb3de9e65ddca50507f79f -->
<g id="edge22" class="edge">
<title>dir_cbd02b5be4584b4d66ebef73a874b298&#45;&gt;dir_a7364e945deb3de9e65ddca50507f79f</title>
<g id="a_edge22"><a xlink:href="dir_000054_000149.html" target="_top">
<path fill="none" stroke="#63b8ff" d="M592.88,-186.36C609.17,-184.69 629.68,-182.65 648,-181 748.14,-172 1013.08,-197.22 1099,-145 1118.55,-133.12 1149.48,-74.38 1164.39,-44.31"/>
<polygon fill="#63b8ff" stroke="#63b8ff" points="1167.54,-45.84 1168.8,-35.32 1161.26,-42.76 1167.54,-45.84"/>
</a>
</g>
<g id="a_edge22&#45;headlabel"><a xlink:href="dir_000054_000149.html" target="_top" xlink:title="20">
<text text-anchor="middle" x="1168.51" y="-47.82" font-family="Helvetica,sans-Serif" font-size="10.00" fill="#63b8ff">20</text>
</a>
</g>
</g>
<!-- dir_7c8aad318a3904861a0ee81bd37c7629&#45;&gt;dir_486b9402482621fd641691dc37d76b53 -->
<g id="edge25" class="edge">
<title>dir_7c8aad318a3904861a0ee81bd37c7629&#45;&gt;dir_486b9402482621fd641691dc37d76b53</title>
<g id="a_edge25"><a xlink:href="dir_000057_000047.html" target="_top">
<path fill="none" stroke="#63b8ff" d="M597.34,-70.67C593.71,-67.8 589.39,-64.87 585,-63 523.25,-36.63 444.27,-29.23 399.38,-27.2"/>
<polygon fill="#63b8ff" stroke="#63b8ff" points="399.4,-23.7 389.27,-26.81 399.13,-30.7 399.4,-23.7"/>
</a>
</g>
<g id="a_edge25&#45;headlabel"><a xlink:href="dir_000057_000047.html" target="_top" xlink:title="1">
<text text-anchor="middle" x="403.1" y="-18.5" font-family="Helvetica,sans-Serif" font-size="10.00" fill="#63b8ff">1</text>
</a>
</g>
</g>
<!-- dir_7c8aad318a3904861a0ee81bd37c7629&#45;&gt;dir_cbd02b5be4584b4d66ebef73a874b298 -->
<g id="edge27" class="edge">
<title>dir_7c8aad318a3904861a0ee81bd37c7629&#45;&gt;dir_cbd02b5be4584b4d66ebef73a874b298</title>
<g id="a_edge27"><a xlink:href="dir_000057_000054.html" target="_top">
<path fill="none" stroke="#63b8ff" d="M605.5,-90.25C599.87,-98.7 588.91,-112.21 583,-126 576.87,-140.32 574.15,-157.84 571.5,-170.85"/>
<polygon fill="#63b8ff" stroke="#63b8ff" points="568.01,-170.39 569.11,-180.93 574.82,-172.01 568.01,-170.39"/>
</a>
</g>
<g id="a_edge27&#45;headlabel"><a xlink:href="dir_000057_000054.html" target="_top" xlink:title="1">
<text text-anchor="middle" x="566.08" y="-163.74" font-family="Helvetica,sans-Serif" font-size="10.00" fill="#63b8ff">1</text>
</a>
</g>
</g>
<!-- dir_7c8aad318a3904861a0ee81bd37c7629&#45;&gt;dir_a7364e945deb3de9e65ddca50507f79f -->
<g id="edge26" class="edge">
<title>dir_7c8aad318a3904861a0ee81bd37c7629&#45;&gt;dir_a7364e945deb3de9e65ddca50507f79f</title>
<g id="a_edge26"><a xlink:href="dir_000057_000149.html" target="_top">
<path fill="none" stroke="#63b8ff" d="M625.33,-78C690.11,-72.68 914.29,-53.96 1099,-35 1111.14,-33.75 1124.38,-32.27 1136.27,-30.9"/>
<polygon fill="#63b8ff" stroke="#63b8ff" points="1136.77,-34.36 1146.3,-29.72 1135.96,-27.41 1136.77,-34.36"/>
</a>
</g>
<g id="a_edge26&#45;headlabel"><a xlink:href="dir_000057_000149.html" target="_top" xlink:title="5">
<text text-anchor="middle" x="1133.53" y="-35.1" font-family="Helvetica,sans-Serif" font-size="10.00" fill="#63b8ff">5</text>
</a>
</g>
</g>
<!-- dir_3b37cbeefdaad7974093b4b99f4234e7 -->
<g id="node16" class="node">
<title>dir_3b37cbeefdaad7974093b4b99f4234e7</title>
<g id="a_node16"><a xlink:href="dir_3b37cbeefdaad7974093b4b99f4234e7.html" target="_top" xlink:title="middlewares">
<polygon fill="#fdaf60" stroke="#404040" points="892,-255 812,-255 812,-236 892,-236 892,-255"/>
<text text-anchor="middle" x="852" y="-243" font-family="Helvetica,sans-Serif" font-size="10.00">middlewares</text>
</a>
</g>
</g>
<!-- dir_3b37cbeefdaad7974093b4b99f4234e7&#45;&gt;dir_994ef2a14b32cb8134d8b7b97f08d542 -->
<g id="edge28" class="edge">
<title>dir_3b37cbeefdaad7974093b4b99f4234e7&#45;&gt;dir_994ef2a14b32cb8134d8b7b97f08d542</title>
<g id="a_edge28"><a xlink:href="dir_000092_000022.html" target="_top">
<path fill="none" stroke="#63b8ff" d="M811.91,-237.4C808.9,-236.91 805.9,-236.44 803,-236 679.38,-217.31 647.06,-222.09 524,-200 512.73,-197.98 371.25,-165.04 295.76,-147.42"/>
<polygon fill="#63b8ff" stroke="#63b8ff" points="296.1,-143.91 285.57,-145.04 294.51,-150.73 296.1,-143.91"/>
</a>
</g>
<g id="a_edge28&#45;headlabel"><a xlink:href="dir_000092_000022.html" target="_top" xlink:title="2">
<text text-anchor="middle" x="300.25" y="-139.46" font-family="Helvetica,sans-Serif" font-size="10.00" fill="#63b8ff">2</text>
</a>
</g>
</g>
<!-- dir_3b37cbeefdaad7974093b4b99f4234e7&#45;&gt;dir_a7364e945deb3de9e65ddca50507f79f -->
<g id="edge29" class="edge">
<title>dir_3b37cbeefdaad7974093b4b99f4234e7&#45;&gt;dir_a7364e945deb3de9e65ddca50507f79f</title>
<g id="a_edge29"><a xlink:href="dir_000092_000149.html" target="_top">
<path fill="none" stroke="#63b8ff" d="M892.21,-243.34C994.09,-240 1256.15,-228.67 1282,-200 1322.78,-154.78 1317.57,-112.42 1282,-63 1265.68,-40.32 1234.61,-31.53 1209.81,-28.22"/>
<polygon fill="#63b8ff" stroke="#63b8ff" points="1209.94,-24.72 1199.62,-27.12 1209.18,-31.68 1209.94,-24.72"/>
</a>
</g>
<g id="a_edge29&#45;headlabel"><a xlink:href="dir_000092_000149.html" target="_top" xlink:title="2">
<text text-anchor="middle" x="1213.82" y="-19.78" font-family="Helvetica,sans-Serif" font-size="10.00" fill="#63b8ff">2</text>
</a>
</g>
</g>
<!-- dir_990ca0e4d1092627101070a1c89f24df&#45;&gt;dir_486b9402482621fd641691dc37d76b53 -->
<g id="edge30" class="edge">
<title>dir_990ca0e4d1092627101070a1c89f24df&#45;&gt;dir_486b9402482621fd641691dc37d76b53</title>
<g id="a_edge30"><a xlink:href="dir_000112_000047.html" target="_top">
<path fill="none" stroke="#63b8ff" d="M603.68,-125.84C593.77,-110.51 570.96,-78.76 543,-63 497.67,-37.45 436.92,-29.66 399.13,-27.36"/>
<polygon fill="#63b8ff" stroke="#63b8ff" points="399.28,-23.86 389.11,-26.84 398.92,-30.85 399.28,-23.86"/>
</a>
</g>
<g id="a_edge30&#45;headlabel"><a xlink:href="dir_000112_000047.html" target="_top" xlink:title="2">
<text text-anchor="middle" x="403.02" y="-18.71" font-family="Helvetica,sans-Serif" font-size="10.00" fill="#63b8ff">2</text>
</a>
</g>
</g>
<!-- dir_990ca0e4d1092627101070a1c89f24df&#45;&gt;dir_7c8aad318a3904861a0ee81bd37c7629 -->
<g id="edge31" class="edge">
<title>dir_990ca0e4d1092627101070a1c89f24df&#45;&gt;dir_7c8aad318a3904861a0ee81bd37c7629</title>
<g id="a_edge31"><a xlink:href="dir_000112_000057.html" target="_top">
<path fill="none" stroke="#63b8ff" d="M608.67,-125.75C608.41,-118.8 608.03,-108.85 607.7,-100.13"/>
<polygon fill="#63b8ff" stroke="#63b8ff" points="611.2,-99.95 607.32,-90.09 604.2,-100.21 611.2,-99.95"/>
</a>
</g>
<g id="a_edge31&#45;headlabel"><a xlink:href="dir_000112_000057.html" target="_top" xlink:title="1">
<text text-anchor="middle" x="614.17" y="-100.93" font-family="Helvetica,sans-Serif" font-size="10.00" fill="#63b8ff">1</text>
</a>
</g>
</g>
<!-- dir_990ca0e4d1092627101070a1c89f24df&#45;&gt;dir_a7364e945deb3de9e65ddca50507f79f -->
<g id="edge32" class="edge">
<title>dir_990ca0e4d1092627101070a1c89f24df&#45;&gt;dir_a7364e945deb3de9e65ddca50507f79f</title>
<g id="a_edge32"><a xlink:href="dir_000112_000149.html" target="_top">
<path fill="none" stroke="#63b8ff" d="M635.68,-127.03C637.14,-126.67 638.59,-126.33 640,-126 825.16,-83.41 1049.66,-46.13 1136.38,-32.26"/>
<polygon fill="#63b8ff" stroke="#63b8ff" points="1137.17,-35.68 1146.5,-30.65 1136.07,-28.76 1137.17,-35.68"/>
</a>
</g>
<g id="a_edge32&#45;headlabel"><a xlink:href="dir_000112_000149.html" target="_top" xlink:title="5">
<text text-anchor="middle" x="1134.07" y="-36.55" font-family="Helvetica,sans-Serif" font-size="10.00" fill="#63b8ff">5</text>
</a>
</g>
</g>
<!-- dir_3ce3464159f2bbaab90110805323015e -->
<g id="node18" class="node">
<title>dir_3ce3464159f2bbaab90110805323015e</title>
<g id="a_node18"><a xlink:href="dir_3ce3464159f2bbaab90110805323015e.html" target="_top" xlink:title="websocket">
<polygon fill="#fdaf60" stroke="#404040" points="794,-255 726,-255 726,-236 794,-236 794,-255"/>
<text text-anchor="middle" x="760" y="-243" font-family="Helvetica,sans-Serif" font-size="10.00">websocket</text>
</a>
</g>
</g>
<!-- dir_3ce3464159f2bbaab90110805323015e&#45;&gt;dir_0c57938951830d22b3fad77440a122e7 -->
<g id="edge33" class="edge">
<title>dir_3ce3464159f2bbaab90110805323015e&#45;&gt;dir_0c57938951830d22b3fad77440a122e7</title>
<g id="a_edge33"><a xlink:href="dir_000156_000132.html" target="_top">
<path fill="none" stroke="#63b8ff" d="M725.74,-237.69C722.78,-237.12 719.84,-236.55 717,-236 631.31,-219.54 607.33,-225.88 524,-200 481.07,-186.67 433.89,-164.04 405.89,-149.7"/>
<polygon fill="#63b8ff" stroke="#63b8ff" points="407.31,-146.5 396.82,-145 404.09,-152.71 407.31,-146.5"/>
</a>
</g>
<g id="a_edge33&#45;headlabel"><a xlink:href="dir_000156_000132.html" target="_top" xlink:title="1">
<text text-anchor="middle" x="411.81" y="-143.13" font-family="Helvetica,sans-Serif" font-size="10.00" fill="#63b8ff">1</text>
</a>
</g>
</g>
<!-- dir_3ce3464159f2bbaab90110805323015e&#45;&gt;dir_486b9402482621fd641691dc37d76b53 -->
<g id="edge34" class="edge">
<title>dir_3ce3464159f2bbaab90110805323015e&#45;&gt;dir_486b9402482621fd641691dc37d76b53</title>
<g id="a_edge34"><a xlink:href="dir_000156_000047.html" target="_top">
<path fill="none" stroke="#63b8ff" d="M725.78,-237.47C722.81,-236.94 719.86,-236.44 717,-236 601.93,-218.25 271.15,-237.93 201,-145 160.95,-91.94 270.15,-52.36 329.11,-35.49"/>
<polygon fill="#63b8ff" stroke="#63b8ff" points="330.1,-38.84 338.79,-32.79 328.22,-32.1 330.1,-38.84"/>
</a>
</g>
<g id="a_edge34&#45;headlabel"><a xlink:href="dir_000156_000047.html" target="_top" xlink:title="1">
<text text-anchor="middle" x="327.4" y="-40.04" font-family="Helvetica,sans-Serif" font-size="10.00" fill="#63b8ff">1</text>
</a>
</g>
</g>
<!-- dir_3ce3464159f2bbaab90110805323015e&#45;&gt;dir_994ef2a14b32cb8134d8b7b97f08d542 -->
<g id="edge36" class="edge">
<title>dir_3ce3464159f2bbaab90110805323015e&#45;&gt;dir_994ef2a14b32cb8134d8b7b97f08d542</title>
<g id="a_edge36"><a xlink:href="dir_000156_000022.html" target="_top">
<path fill="none" stroke="#63b8ff" d="M725.76,-237.57C722.8,-237.02 719.85,-236.49 717,-236 608.54,-217.32 579.6,-223.12 472,-200 404.82,-185.56 328.08,-162.15 284.4,-148.14"/>
<polygon fill="#63b8ff" stroke="#63b8ff" points="285.4,-144.79 274.81,-145.05 283.25,-151.45 285.4,-144.79"/>
</a>
</g>
<g id="a_edge36&#45;headlabel"><a xlink:href="dir_000156_000022.html" target="_top" xlink:title="1">
<text text-anchor="middle" x="289.7" y="-140.69" font-family="Helvetica,sans-Serif" font-size="10.00" fill="#63b8ff">1</text>
</a>
</g>
</g>
<!-- dir_3ce3464159f2bbaab90110805323015e&#45;&gt;dir_cbd02b5be4584b4d66ebef73a874b298 -->
<g id="edge38" class="edge">
<title>dir_3ce3464159f2bbaab90110805323015e&#45;&gt;dir_cbd02b5be4584b4d66ebef73a874b298</title>
<g id="a_edge38"><a xlink:href="dir_000156_000054.html" target="_top">
<path fill="none" stroke="#63b8ff" d="M728.35,-235.98C694.15,-226.78 639.59,-212.11 602.58,-202.15"/>
<polygon fill="#63b8ff" stroke="#63b8ff" points="603.21,-198.69 592.64,-199.47 601.39,-205.45 603.21,-198.69"/>
</a>
</g>
<g id="a_edge38&#45;headlabel"><a xlink:href="dir_000156_000054.html" target="_top" xlink:title="1">
<text text-anchor="middle" x="607.41" y="-194.38" font-family="Helvetica,sans-Serif" font-size="10.00" fill="#63b8ff">1</text>
</a>
</g>
</g>
<!-- dir_3ce3464159f2bbaab90110805323015e&#45;&gt;dir_7c8aad318a3904861a0ee81bd37c7629 -->
<g id="edge35" class="edge">
<title>dir_3ce3464159f2bbaab90110805323015e&#45;&gt;dir_7c8aad318a3904861a0ee81bd37c7629</title>
<g id="a_edge35"><a xlink:href="dir_000156_000057.html" target="_top">
<path fill="none" stroke="#63b8ff" d="M752.53,-235.75C741.91,-223.39 721.79,-200.18 704,-181 676.03,-150.84 642.29,-116.71 622.87,-97.29"/>
<polygon fill="#63b8ff" stroke="#63b8ff" points="625.26,-94.73 615.71,-90.14 620.32,-99.68 625.26,-94.73"/>
</a>
</g>
<g id="a_edge35&#45;headlabel"><a xlink:href="dir_000156_000057.html" target="_top" xlink:title="1">
<text text-anchor="middle" x="629.81" y="-92.76" font-family="Helvetica,sans-Serif" font-size="10.00" fill="#63b8ff">1</text>
</a>
</g>
</g>
<!-- dir_3ce3464159f2bbaab90110805323015e&#45;&gt;dir_a7364e945deb3de9e65ddca50507f79f -->
<g id="edge37" class="edge">
<title>dir_3ce3464159f2bbaab90110805323015e&#45;&gt;dir_a7364e945deb3de9e65ddca50507f79f</title>
<g id="a_edge37"><a xlink:href="dir_000156_000149.html" target="_top">
<path fill="none" stroke="#63b8ff" d="M794.21,-237.37C797.17,-236.87 800.14,-236.4 803,-236 851.69,-229.22 1210.68,-236.15 1244,-200 1285.27,-155.23 1275.72,-114.97 1244,-63 1236.27,-50.34 1222.6,-41.88 1209.3,-36.33"/>
<polygon fill="#63b8ff" stroke="#63b8ff" points="1210.36,-32.99 1199.77,-32.78 1207.92,-39.55 1210.36,-32.99"/>
</a>
</g>
<g id="a_edge37&#45;headlabel"><a xlink:href="dir_000156_000149.html" target="_top" xlink:title="2">
<text text-anchor="middle" x="1214.72" y="-29.09" font-family="Helvetica,sans-Serif" font-size="10.00" fill="#63b8ff">2</text>
</a>
</g>
</g>
</g>
</svg>
