<?xml version="1.0" encoding="UTF-8" standalone="no"?>
<!DOCTYPE svg PUBLIC "-//W3C//DTD SVG 1.1//EN"
 "http://www.w3.org/Graphics/SVG/1.1/DTD/svg11.dtd">
<!-- Generated by graphviz version 2.43.0 (0)
 -->
<!-- Title: userver/server/handlers/auth Pages: 1 -->
<svg width="670pt" height="125pt"
 viewBox="0.00 0.00 670.00 125.00" xmlns="http://www.w3.org/2000/svg" xmlns:xlink="http://www.w3.org/1999/xlink">
<g id="graph0" class="graph" transform="scale(1 1) rotate(0) translate(4 121)">
<title>userver/server/handlers/auth</title>
<g id="clust1" class="cluster">
<title>clusterdir_cbd02b5be4584b4d66ebef73a874b298</title>
<g id="a_clust1"><a xlink:href="dir_cbd02b5be4584b4d66ebef73a874b298.html" target="_top" xlink:title="handlers">
<polygon fill="#feefdf" stroke="#7f7f7f" stroke-dasharray="5,2" points="195.5,-39 195.5,-109 331.5,-109 331.5,-39 195.5,-39"/>
<text text-anchor="middle" x="263.5" y="-97" font-family="Helvetica,sans-Serif" font-size="10.00">handlers</text>
</a>
</g>
</g>
<g id="clust2" class="cluster">
<title>clusterdir_f0867cc1ce4a2ece86f405b085483ee0</title>
<g id="a_clust2"><a xlink:href="dir_f0867cc1ce4a2ece86f405b085483ee0.html" target="_top">
<polygon fill="#feefdf" stroke="#404040" stroke-width="2" points="203.5,-47 203.5,-82 323.5,-82 323.5,-47 203.5,-47"/>
</a>
</g>
</g>
<!-- dir_f0867cc1ce4a2ece86f405b085483ee0 -->
<g id="node1" class="node">
<title>dir_f0867cc1ce4a2ece86f405b085483ee0</title>
<text text-anchor="middle" x="230.5" y="-62" font-family="Helvetica,sans-Serif" font-size="10.00">auth</text>
</g>
<!-- dir_7c8aad318a3904861a0ee81bd37c7629 -->
<g id="node3" class="node">
<title>dir_7c8aad318a3904861a0ee81bd37c7629</title>
<g id="a_node3"><a xlink:href="dir_7c8aad318a3904861a0ee81bd37c7629.html" target="_top" xlink:title="http">
<polygon fill="#feefdf" stroke="#7f7f7f" points="279.5,-19 243.5,-19 243.5,0 279.5,0 279.5,-19"/>
<text text-anchor="middle" x="261.5" y="-7" font-family="Helvetica,sans-Serif" font-size="10.00">http</text>
</a>
</g>
</g>
<!-- dir_f0867cc1ce4a2ece86f405b085483ee0&#45;&gt;dir_7c8aad318a3904861a0ee81bd37c7629 -->
<g id="edge1" class="edge">
<title>dir_f0867cc1ce4a2ece86f405b085483ee0&#45;&gt;dir_7c8aad318a3904861a0ee81bd37c7629</title>
<g id="a_edge1"><a xlink:href="dir_000002_000057.html" target="_top">
<path fill="none" stroke="#63b8ff" d="M235.62,-54.75C239.86,-47.49 246.03,-36.95 251.28,-27.98"/>
<polygon fill="#63b8ff" stroke="#63b8ff" points="254.45,-29.49 256.48,-19.09 248.41,-25.95 254.45,-29.49"/>
</a>
</g>
<g id="a_edge1&#45;headlabel"><a xlink:href="dir_000002_000057.html" target="_top" xlink:title="7">
<text text-anchor="middle" x="255.08" y="-31.52" font-family="Helvetica,sans-Serif" font-size="10.00" fill="#63b8ff">7</text>
</a>
</g>
</g>
<!-- dir_990ca0e4d1092627101070a1c89f24df -->
<g id="node4" class="node">
<title>dir_990ca0e4d1092627101070a1c89f24df</title>
<g id="a_node4"><a xlink:href="dir_990ca0e4d1092627101070a1c89f24df.html" target="_top" xlink:title="request">
<polygon fill="#feefdf" stroke="#7f7f7f" points="351,-19 298,-19 298,0 351,0 351,-19"/>
<text text-anchor="middle" x="324.5" y="-7" font-family="Helvetica,sans-Serif" font-size="10.00">request</text>
</a>
</g>
</g>
<!-- dir_f0867cc1ce4a2ece86f405b085483ee0&#45;&gt;dir_990ca0e4d1092627101070a1c89f24df -->
<g id="edge2" class="edge">
<title>dir_f0867cc1ce4a2ece86f405b085483ee0&#45;&gt;dir_990ca0e4d1092627101070a1c89f24df</title>
<g id="a_edge2"><a xlink:href="dir_000002_000112.html" target="_top">
<path fill="none" stroke="#63b8ff" d="M239.26,-54.56C244.51,-49.54 251.51,-43.41 258.5,-39 268.36,-32.78 279.81,-27.3 290.38,-22.85"/>
<polygon fill="#63b8ff" stroke="#63b8ff" points="291.8,-26.05 299.76,-19.07 289.18,-19.56 291.8,-26.05"/>
</a>
</g>
<g id="a_edge2&#45;headlabel"><a xlink:href="dir_000002_000112.html" target="_top" xlink:title="3">
<text text-anchor="middle" x="289.53" y="-27.53" font-family="Helvetica,sans-Serif" font-size="10.00" fill="#63b8ff">3</text>
</a>
</g>
</g>
<!-- dir_994ef2a14b32cb8134d8b7b97f08d542 -->
<g id="node5" class="node">
<title>dir_994ef2a14b32cb8134d8b7b97f08d542</title>
<g id="a_node5"><a xlink:href="dir_994ef2a14b32cb8134d8b7b97f08d542.html" target="_top" xlink:title="components">
<polygon fill="#feefdf" stroke="red" stroke-dasharray="5,2" points="77,-19 0,-19 0,0 77,0 77,-19"/>
<text text-anchor="middle" x="38.5" y="-7" font-family="Helvetica,sans-Serif" font-size="10.00">components</text>
</a>
</g>
</g>
<!-- dir_f0867cc1ce4a2ece86f405b085483ee0&#45;&gt;dir_994ef2a14b32cb8134d8b7b97f08d542 -->
<g id="edge3" class="edge">
<title>dir_f0867cc1ce4a2ece86f405b085483ee0&#45;&gt;dir_994ef2a14b32cb8134d8b7b97f08d542</title>
<g id="a_edge3"><a xlink:href="dir_000002_000022.html" target="_top">
<path fill="none" stroke="#63b8ff" d="M211.39,-58.22C180.78,-49.78 120.09,-33.02 79.39,-21.79"/>
<polygon fill="#63b8ff" stroke="#63b8ff" points="80.07,-18.34 69.5,-19.06 78.21,-25.09 80.07,-18.34"/>
</a>
</g>
<g id="a_edge3&#45;headlabel"><a xlink:href="dir_000002_000022.html" target="_top" xlink:title="4">
<text text-anchor="middle" x="84.29" y="-14.06" font-family="Helvetica,sans-Serif" font-size="10.00" fill="#63b8ff">4</text>
</a>
</g>
</g>
<!-- dir_a7364e945deb3de9e65ddca50507f79f -->
<g id="node6" class="node">
<title>dir_a7364e945deb3de9e65ddca50507f79f</title>
<g id="a_node6"><a xlink:href="dir_a7364e945deb3de9e65ddca50507f79f.html" target="_top" xlink:title="userver">
<polygon fill="#feefdf" stroke="red" points="148,-19 95,-19 95,0 148,0 148,-19"/>
<text text-anchor="middle" x="121.5" y="-7" font-family="Helvetica,sans-Serif" font-size="10.00">userver</text>
</a>
</g>
</g>
<!-- dir_f0867cc1ce4a2ece86f405b085483ee0&#45;&gt;dir_a7364e945deb3de9e65ddca50507f79f -->
<g id="edge4" class="edge">
<title>dir_f0867cc1ce4a2ece86f405b085483ee0&#45;&gt;dir_a7364e945deb3de9e65ddca50507f79f</title>
<g id="a_edge4"><a xlink:href="dir_000002_000149.html" target="_top">
<path fill="none" stroke="#63b8ff" d="M212.99,-54.98C195.53,-46.5 168.49,-33.35 148.33,-23.54"/>
<polygon fill="#63b8ff" stroke="#63b8ff" points="149.86,-20.4 139.33,-19.17 146.79,-26.69 149.86,-20.4"/>
</a>
</g>
<g id="a_edge4&#45;headlabel"><a xlink:href="dir_000002_000149.html" target="_top" xlink:title="5">
<text text-anchor="middle" x="154.33" y="-16.91" font-family="Helvetica,sans-Serif" font-size="10.00" fill="#63b8ff">5</text>
</a>
</g>
</g>
<!-- dir_b2e5dd734b4dca0bb7544c080eed55d0 -->
<g id="node7" class="node">
<title>dir_b2e5dd734b4dca0bb7544c080eed55d0</title>
<g id="a_node7"><a xlink:href="dir_b2e5dd734b4dca0bb7544c080eed55d0.html" target="_top" xlink:title="storages">
<polygon fill="#feefdf" stroke="red" stroke-dasharray="5,2" points="225,-19 166,-19 166,0 225,0 225,-19"/>
<text text-anchor="middle" x="195.5" y="-7" font-family="Helvetica,sans-Serif" font-size="10.00">storages</text>
</a>
</g>
</g>
<!-- dir_f0867cc1ce4a2ece86f405b085483ee0&#45;&gt;dir_b2e5dd734b4dca0bb7544c080eed55d0 -->
<g id="edge5" class="edge">
<title>dir_f0867cc1ce4a2ece86f405b085483ee0&#45;&gt;dir_b2e5dd734b4dca0bb7544c080eed55d0</title>
<g id="a_edge5"><a xlink:href="dir_000002_000122.html" target="_top">
<path fill="none" stroke="#63b8ff" d="M224.72,-54.75C219.88,-47.42 212.82,-36.73 206.86,-27.7"/>
<polygon fill="#63b8ff" stroke="#63b8ff" points="209.6,-25.5 201.17,-19.09 203.76,-29.36 209.6,-25.5"/>
</a>
</g>
<g id="a_edge5&#45;headlabel"><a xlink:href="dir_000002_000122.html" target="_top" xlink:title="2">
<text text-anchor="middle" x="213.95" y="-24.44" font-family="Helvetica,sans-Serif" font-size="10.00" fill="#63b8ff">2</text>
</a>
</g>
</g>
<!-- dir_822d95190bbb721a8341ddda411d2e34 -->
<g id="node2" class="node">
<title>dir_822d95190bbb721a8341ddda411d2e34</title>
<g id="a_node2"><a xlink:href="dir_822d95190bbb721a8341ddda411d2e34.html" target="_top" xlink:title="digest">
<polygon fill="#fdaf60" stroke="#404040" points="315,-74 268,-74 268,-55 315,-55 315,-74"/>
<text text-anchor="middle" x="291.5" y="-62" font-family="Helvetica,sans-Serif" font-size="10.00">digest</text>
</a>
</g>
</g>
<!-- dir_822d95190bbb721a8341ddda411d2e34&#45;&gt;dir_7c8aad318a3904861a0ee81bd37c7629 -->
<g id="edge9" class="edge">
<title>dir_822d95190bbb721a8341ddda411d2e34&#45;&gt;dir_7c8aad318a3904861a0ee81bd37c7629</title>
<g id="a_edge9"><a xlink:href="dir_000037_000057.html" target="_top">
<path fill="none" stroke="#63b8ff" d="M286.55,-54.75C282.44,-47.49 276.47,-36.95 271.4,-27.98"/>
<polygon fill="#63b8ff" stroke="#63b8ff" points="274.33,-26.07 266.36,-19.09 268.24,-29.52 274.33,-26.07"/>
</a>
</g>
<g id="a_edge9&#45;headlabel"><a xlink:href="dir_000037_000057.html" target="_top" xlink:title="6">
<text text-anchor="middle" x="278.58" y="-25.3" font-family="Helvetica,sans-Serif" font-size="10.00" fill="#63b8ff">6</text>
</a>
</g>
</g>
<!-- dir_822d95190bbb721a8341ddda411d2e34&#45;&gt;dir_990ca0e4d1092627101070a1c89f24df -->
<g id="edge10" class="edge">
<title>dir_822d95190bbb721a8341ddda411d2e34&#45;&gt;dir_990ca0e4d1092627101070a1c89f24df</title>
<g id="a_edge10"><a xlink:href="dir_000037_000112.html" target="_top">
<path fill="none" stroke="#63b8ff" d="M296.95,-54.75C301.51,-47.42 308.17,-36.73 313.79,-27.7"/>
<polygon fill="#63b8ff" stroke="#63b8ff" points="316.84,-29.43 319.15,-19.09 310.9,-25.73 316.84,-29.43"/>
</a>
</g>
<g id="a_edge10&#45;headlabel"><a xlink:href="dir_000037_000112.html" target="_top" xlink:title="2">
<text text-anchor="middle" x="317.35" y="-31.48" font-family="Helvetica,sans-Serif" font-size="10.00" fill="#63b8ff">2</text>
</a>
</g>
</g>
<!-- dir_822d95190bbb721a8341ddda411d2e34&#45;&gt;dir_994ef2a14b32cb8134d8b7b97f08d542 -->
<g id="edge11" class="edge">
<title>dir_822d95190bbb721a8341ddda411d2e34&#45;&gt;dir_994ef2a14b32cb8134d8b7b97f08d542</title>
<g id="a_edge11"><a xlink:href="dir_000037_000022.html" target="_top">
<path fill="none" stroke="#63b8ff" d="M282.77,-54.99C276.53,-49.46 267.66,-42.62 258.5,-39 189.48,-11.68 164.15,-28.79 87.34,-19.1"/>
<polygon fill="#63b8ff" stroke="#63b8ff" points="87.58,-15.6 77.2,-17.7 86.63,-22.53 87.58,-15.6"/>
</a>
</g>
<g id="a_edge11&#45;headlabel"><a xlink:href="dir_000037_000022.html" target="_top" xlink:title="2">
<text text-anchor="middle" x="91.53" y="-10.77" font-family="Helvetica,sans-Serif" font-size="10.00" fill="#63b8ff">2</text>
</a>
</g>
</g>
<!-- dir_822d95190bbb721a8341ddda411d2e34&#45;&gt;dir_a7364e945deb3de9e65ddca50507f79f -->
<g id="edge12" class="edge">
<title>dir_822d95190bbb721a8341ddda411d2e34&#45;&gt;dir_a7364e945deb3de9e65ddca50507f79f</title>
<g id="a_edge12"><a xlink:href="dir_000037_000149.html" target="_top">
<path fill="none" stroke="#63b8ff" d="M282.4,-54.98C276.13,-49.59 267.38,-42.92 258.5,-39 218.97,-21.53 203.62,-27.91 158.08,-19.16"/>
<polygon fill="#63b8ff" stroke="#63b8ff" points="158.73,-15.72 148.22,-17.12 157.31,-22.57 158.73,-15.72"/>
</a>
</g>
<g id="a_edge12&#45;headlabel"><a xlink:href="dir_000037_000149.html" target="_top" xlink:title="3">
<text text-anchor="middle" x="162.82" y="-11.16" font-family="Helvetica,sans-Serif" font-size="10.00" fill="#63b8ff">3</text>
</a>
</g>
</g>
<!-- dir_822d95190bbb721a8341ddda411d2e34&#45;&gt;dir_b2e5dd734b4dca0bb7544c080eed55d0 -->
<g id="edge13" class="edge">
<title>dir_822d95190bbb721a8341ddda411d2e34&#45;&gt;dir_b2e5dd734b4dca0bb7544c080eed55d0</title>
<g id="a_edge13"><a xlink:href="dir_000037_000122.html" target="_top">
<path fill="none" stroke="#63b8ff" d="M281.2,-54.96C274.88,-49.95 266.5,-43.7 258.5,-39 248.54,-33.14 237.17,-27.66 226.85,-23.1"/>
<polygon fill="#63b8ff" stroke="#63b8ff" points="227.93,-19.76 217.36,-19.03 225.17,-26.19 227.93,-19.76"/>
</a>
</g>
<g id="a_edge13&#45;headlabel"><a xlink:href="dir_000037_000122.html" target="_top" xlink:title="1">
<text text-anchor="middle" x="232.35" y="-16.06" font-family="Helvetica,sans-Serif" font-size="10.00" fill="#63b8ff">1</text>
</a>
</g>
</g>
<!-- dir_3285f5f33091c25af669261537588667 -->
<g id="node8" class="node">
<title>dir_3285f5f33091c25af669261537588667</title>
<g id="a_node8"><a xlink:href="dir_3285f5f33091c25af669261537588667.html" target="_top" xlink:title="rcu">
<polygon fill="#feefdf" stroke="#7f7f7f" points="550.5,-19 518.5,-19 518.5,0 550.5,0 550.5,-19"/>
<text text-anchor="middle" x="534.5" y="-7" font-family="Helvetica,sans-Serif" font-size="10.00">rcu</text>
</a>
</g>
</g>
<!-- dir_822d95190bbb721a8341ddda411d2e34&#45;&gt;dir_3285f5f33091c25af669261537588667 -->
<g id="edge7" class="edge">
<title>dir_822d95190bbb721a8341ddda411d2e34&#45;&gt;dir_3285f5f33091c25af669261537588667</title>
<g id="a_edge7"><a xlink:href="dir_000037_000109.html" target="_top">
<path fill="none" stroke="#63b8ff" d="M315.28,-59.66C353.94,-53.2 432.95,-39.11 508.75,-18.91"/>
<polygon fill="#63b8ff" stroke="#63b8ff" points="509.71,-22.28 518.45,-16.29 507.89,-15.52 509.71,-22.28"/>
</a>
</g>
<g id="a_edge7&#45;headlabel"><a xlink:href="dir_000037_000109.html" target="_top" xlink:title="2">
<text text-anchor="middle" x="506.99" y="-23.46" font-family="Helvetica,sans-Serif" font-size="10.00" fill="#63b8ff">2</text>
</a>
</g>
</g>
<!-- dir_6fe6ce792de102936b3c02369b7e8bae -->
<g id="node9" class="node">
<title>dir_6fe6ce792de102936b3c02369b7e8bae</title>
<g id="a_node9"><a xlink:href="dir_6fe6ce792de102936b3c02369b7e8bae.html" target="_top" xlink:title="dynamic_config">
<polygon fill="#feefdf" stroke="red" stroke-dasharray="5,2" points="662,-19 569,-19 569,0 662,0 662,-19"/>
<text text-anchor="middle" x="615.5" y="-7" font-family="Helvetica,sans-Serif" font-size="10.00">dynamic_config</text>
</a>
</g>
</g>
<!-- dir_822d95190bbb721a8341ddda411d2e34&#45;&gt;dir_6fe6ce792de102936b3c02369b7e8bae -->
<g id="edge8" class="edge">
<title>dir_822d95190bbb721a8341ddda411d2e34&#45;&gt;dir_6fe6ce792de102936b3c02369b7e8bae</title>
<g id="a_edge8"><a xlink:href="dir_000037_000044.html" target="_top">
<path fill="none" stroke="#63b8ff" d="M315.06,-59.65C365.79,-51.35 486.58,-31.59 558.6,-19.81"/>
<polygon fill="#63b8ff" stroke="#63b8ff" points="559.55,-23.2 568.86,-18.13 558.42,-16.29 559.55,-23.2"/>
</a>
</g>
<g id="a_edge8&#45;headlabel"><a xlink:href="dir_000037_000044.html" target="_top" xlink:title="2">
<text text-anchor="middle" x="556.46" y="-24.08" font-family="Helvetica,sans-Serif" font-size="10.00" fill="#63b8ff">2</text>
</a>
</g>
</g>
<!-- dir_2c6b70c628beb7fc0194b7f508f3ad90 -->
<g id="node10" class="node">
<title>dir_2c6b70c628beb7fc0194b7f508f3ad90</title>
<g id="a_node10"><a xlink:href="dir_2c6b70c628beb7fc0194b7f508f3ad90.html" target="_top" xlink:title="cache">
<polygon fill="#feefdf" stroke="#7f7f7f" points="414,-19 369,-19 369,0 414,0 414,-19"/>
<text text-anchor="middle" x="391.5" y="-7" font-family="Helvetica,sans-Serif" font-size="10.00">cache</text>
</a>
</g>
</g>
<!-- dir_822d95190bbb721a8341ddda411d2e34&#45;&gt;dir_2c6b70c628beb7fc0194b7f508f3ad90 -->
<g id="edge6" class="edge">
<title>dir_822d95190bbb721a8341ddda411d2e34&#45;&gt;dir_2c6b70c628beb7fc0194b7f508f3ad90</title>
<g id="a_edge6"><a xlink:href="dir_000037_000010.html" target="_top">
<path fill="none" stroke="#63b8ff" d="M307.57,-54.98C323.36,-46.61 347.72,-33.7 366.13,-23.95"/>
<polygon fill="#63b8ff" stroke="#63b8ff" points="367.94,-26.95 375.14,-19.17 364.67,-20.76 367.94,-26.95"/>
</a>
</g>
<g id="a_edge6&#45;headlabel"><a xlink:href="dir_000037_000010.html" target="_top" xlink:title="1">
<text text-anchor="middle" x="366.1" y="-28.64" font-family="Helvetica,sans-Serif" font-size="10.00" fill="#63b8ff">1</text>
</a>
</g>
</g>
<!-- dir_e64dfdcbff0f609bc29171eebbcbbcc9 -->
<g id="node11" class="node">
<title>dir_e64dfdcbff0f609bc29171eebbcbbcc9</title>
<g id="a_node11"><a xlink:href="dir_e64dfdcbff0f609bc29171eebbcbbcc9.html" target="_top" xlink:title="concurrent">
<polygon fill="#feefdf" stroke="red" stroke-dasharray="5,2" points="500.5,-19 432.5,-19 432.5,0 500.5,0 500.5,-19"/>
<text text-anchor="middle" x="466.5" y="-7" font-family="Helvetica,sans-Serif" font-size="10.00">concurrent</text>
</a>
</g>
</g>
<!-- dir_822d95190bbb721a8341ddda411d2e34&#45;&gt;dir_e64dfdcbff0f609bc29171eebbcbbcc9 -->
<g id="edge14" class="edge">
<title>dir_822d95190bbb721a8341ddda411d2e34&#45;&gt;dir_e64dfdcbff0f609bc29171eebbcbbcc9</title>
<g id="a_edge14"><a xlink:href="dir_000037_000023.html" target="_top">
<path fill="none" stroke="#63b8ff" d="M315.1,-56.35C344.23,-47.53 394.12,-32.42 428.63,-21.97"/>
<polygon fill="#63b8ff" stroke="#63b8ff" points="429.81,-25.27 438.36,-19.02 427.78,-18.57 429.81,-25.27"/>
</a>
</g>
<g id="a_edge14&#45;headlabel"><a xlink:href="dir_000037_000023.html" target="_top" xlink:title="1">
<text text-anchor="middle" x="427.19" y="-26.53" font-family="Helvetica,sans-Serif" font-size="10.00" fill="#63b8ff">1</text>
</a>
</g>
</g>
</g>
</svg>
