<?xml version="1.0" encoding="UTF-8" standalone="no"?>
<!DOCTYPE svg PUBLIC "-//W3C//DTD SVG 1.1//EN"
 "http://www.w3.org/Graphics/SVG/1.1/DTD/svg11.dtd">
<!-- Generated by graphviz version 2.43.0 (0)
 -->
<!-- Title: userver Pages: 1 -->
<svg width="174pt" height="153pt"
 viewBox="0.00 0.00 173.50 153.00" xmlns="http://www.w3.org/2000/svg" xmlns:xlink="http://www.w3.org/1999/xlink">
<g id="graph0" class="graph" transform="scale(1 1) rotate(0) translate(4 149)">
<title>userver</title>
<g id="clust1" class="cluster">
<title>clusterdir_ff8ba60ba2fcf9da3e41ec77f93766a2</title>
<g id="a_clust1"><a xlink:href="dir_ff8ba60ba2fcf9da3e41ec77f93766a2.html" target="_top">
<polygon fill="#feefdf" stroke="#404040" stroke-width="2" points="24.5,-47 24.5,-137 157.5,-137 157.5,-47 24.5,-47"/>
</a>
</g>
</g>
<!-- dir_ff8ba60ba2fcf9da3e41ec77f93766a2 -->
<g id="node1" class="node">
<title>dir_ff8ba60ba2fcf9da3e41ec77f93766a2</title>
<text text-anchor="middle" x="122.5" y="-117" font-family="Helvetica,sans-Serif" font-size="10.00">userver</text>
</g>
<!-- dir_2109d89f3f1392ed43fa1d725b8918e1 -->
<g id="node2" class="node">
<title>dir_2109d89f3f1392ed43fa1d725b8918e1</title>
<g id="a_node2"><a xlink:href="dir_2109d89f3f1392ed43fa1d725b8918e1.html" target="_top" xlink:title="cache">
<polygon fill="#fdaf60" stroke="#404040" points="78,-129 33,-129 33,-110 78,-110 78,-129"/>
<text text-anchor="middle" x="55.5" y="-117" font-family="Helvetica,sans-Serif" font-size="10.00">cache</text>
</a>
</g>
</g>
<!-- dir_30661dfc9e458668178dc2298ed88a57 -->
<g id="node3" class="node">
<title>dir_30661dfc9e458668178dc2298ed88a57</title>
<g id="a_node3"><a xlink:href="dir_30661dfc9e458668178dc2298ed88a57.html" target="_top" xlink:title="storages">
<polygon fill="#fdaf60" stroke="#404040" points="92,-74 33,-74 33,-55 92,-55 92,-74"/>
<text text-anchor="middle" x="62.5" y="-62" font-family="Helvetica,sans-Serif" font-size="10.00">storages</text>
</a>
</g>
</g>
<!-- dir_2109d89f3f1392ed43fa1d725b8918e1&#45;&gt;dir_30661dfc9e458668178dc2298ed88a57 -->
<g id="edge2" class="edge">
<title>dir_2109d89f3f1392ed43fa1d725b8918e1&#45;&gt;dir_30661dfc9e458668178dc2298ed88a57</title>
<g id="a_edge2"><a xlink:href="dir_000013_000125.html" target="_top">
<path fill="none" stroke="#63b8ff" d="M56.66,-109.75C57.57,-102.8 58.89,-92.85 60.04,-84.13"/>
<polygon fill="#63b8ff" stroke="#63b8ff" points="63.53,-84.46 61.37,-74.09 56.59,-83.54 63.53,-84.46"/>
</a>
</g>
<g id="a_edge2&#45;headlabel"><a xlink:href="dir_000013_000125.html" target="_top" xlink:title="3">
<text text-anchor="middle" x="65.87" y="-85.9" font-family="Helvetica,sans-Serif" font-size="10.00" fill="#63b8ff">3</text>
</a>
</g>
</g>
<!-- dir_26f8c63b8c67b2ed6c1b7078f08f1e18 -->
<g id="node4" class="node">
<title>dir_26f8c63b8c67b2ed6c1b7078f08f1e18</title>
<g id="a_node4"><a xlink:href="dir_26f8c63b8c67b2ed6c1b7078f08f1e18.html" target="_top" xlink:title="userver">
<polygon fill="#feefdf" stroke="red" points="53,-19 0,-19 0,0 53,0 53,-19"/>
<text text-anchor="middle" x="26.5" y="-7" font-family="Helvetica,sans-Serif" font-size="10.00">userver</text>
</a>
</g>
</g>
<!-- dir_2109d89f3f1392ed43fa1d725b8918e1&#45;&gt;dir_26f8c63b8c67b2ed6c1b7078f08f1e18 -->
<g id="edge1" class="edge">
<title>dir_2109d89f3f1392ed43fa1d725b8918e1&#45;&gt;dir_26f8c63b8c67b2ed6c1b7078f08f1e18</title>
<g id="a_edge1"><a xlink:href="dir_000013_000140.html" target="_top">
<path fill="none" stroke="#63b8ff" d="M46.75,-109.9C38.94,-101.56 28.05,-88.13 23.5,-74 18.84,-59.54 20.06,-42.27 22.18,-29.39"/>
<polygon fill="#63b8ff" stroke="#63b8ff" points="25.65,-29.87 24.16,-19.39 18.79,-28.52 25.65,-29.87"/>
</a>
</g>
<g id="a_edge1&#45;headlabel"><a xlink:href="dir_000013_000140.html" target="_top" xlink:title="5">
<text text-anchor="middle" x="27.74" y="-31.45" font-family="Helvetica,sans-Serif" font-size="10.00" fill="#63b8ff">5</text>
</a>
</g>
</g>
<!-- dir_a7364e945deb3de9e65ddca50507f79f -->
<g id="node5" class="node">
<title>dir_a7364e945deb3de9e65ddca50507f79f</title>
<g id="a_node5"><a xlink:href="dir_a7364e945deb3de9e65ddca50507f79f.html" target="_top" xlink:title="userver">
<polygon fill="#feefdf" stroke="red" points="135,-19 82,-19 82,0 135,0 135,-19"/>
<text text-anchor="middle" x="108.5" y="-7" font-family="Helvetica,sans-Serif" font-size="10.00">userver</text>
</a>
</g>
</g>
<!-- dir_2109d89f3f1392ed43fa1d725b8918e1&#45;&gt;dir_a7364e945deb3de9e65ddca50507f79f -->
<g id="edge3" class="edge">
<title>dir_2109d89f3f1392ed43fa1d725b8918e1&#45;&gt;dir_a7364e945deb3de9e65ddca50507f79f</title>
<g id="a_edge3"><a xlink:href="dir_000013_000149.html" target="_top">
<path fill="none" stroke="#63b8ff" d="M68.43,-109.94C79.24,-102.01 94.06,-89.16 101.5,-74 108.3,-60.14 109.77,-42.57 109.7,-29.43"/>
<polygon fill="#63b8ff" stroke="#63b8ff" points="113.19,-29.1 109.34,-19.23 106.2,-29.35 113.19,-29.1"/>
</a>
</g>
<g id="a_edge3&#45;headlabel"><a xlink:href="dir_000013_000149.html" target="_top" xlink:title="6">
<text text-anchor="middle" x="116.16" y="-30.09" font-family="Helvetica,sans-Serif" font-size="10.00" fill="#63b8ff">6</text>
</a>
</g>
</g>
<!-- dir_30661dfc9e458668178dc2298ed88a57&#45;&gt;dir_26f8c63b8c67b2ed6c1b7078f08f1e18 -->
<g id="edge4" class="edge">
<title>dir_30661dfc9e458668178dc2298ed88a57&#45;&gt;dir_26f8c63b8c67b2ed6c1b7078f08f1e18</title>
<g id="a_edge4"><a xlink:href="dir_000125_000140.html" target="_top">
<path fill="none" stroke="#63b8ff" d="M56.56,-54.75C51.52,-47.34 44.16,-36.5 37.99,-27.41"/>
<polygon fill="#63b8ff" stroke="#63b8ff" points="40.85,-25.39 32.33,-19.09 35.06,-29.33 40.85,-25.39"/>
</a>
</g>
<g id="a_edge4&#45;headlabel"><a xlink:href="dir_000125_000140.html" target="_top" xlink:title="23">
<text text-anchor="middle" x="45.22" y="-24.27" font-family="Helvetica,sans-Serif" font-size="10.00" fill="#63b8ff">23</text>
</a>
</g>
</g>
<!-- dir_30661dfc9e458668178dc2298ed88a57&#45;&gt;dir_a7364e945deb3de9e65ddca50507f79f -->
<g id="edge5" class="edge">
<title>dir_30661dfc9e458668178dc2298ed88a57&#45;&gt;dir_a7364e945deb3de9e65ddca50507f79f</title>
<g id="a_edge5"><a xlink:href="dir_000125_000149.html" target="_top">
<path fill="none" stroke="#63b8ff" d="M70.1,-54.75C76.66,-47.18 86.32,-36.05 94.31,-26.84"/>
<polygon fill="#63b8ff" stroke="#63b8ff" points="97.13,-28.94 101.05,-19.09 91.85,-24.35 97.13,-28.94"/>
</a>
</g>
<g id="a_edge5&#45;headlabel"><a xlink:href="dir_000125_000149.html" target="_top" xlink:title="39">
<text text-anchor="middle" x="96.92" y="-31.01" font-family="Helvetica,sans-Serif" font-size="10.00" fill="#63b8ff">39</text>
</a>
</g>
</g>
</g>
</svg>
