<?xml version="1.0" encoding="UTF-8" standalone="no"?>
<!DOCTYPE svg PUBLIC "-//W3C//DTD SVG 1.1//EN"
 "http://www.w3.org/Graphics/SVG/1.1/DTD/svg11.dtd">
<!-- Generated by graphviz version 2.43.0 (0)
 -->
<!-- Title: userver/ugrpc/server Pages: 1 -->
<svg width="253pt" height="180pt"
 viewBox="0.00 0.00 253.00 180.00" xmlns="http://www.w3.org/2000/svg" xmlns:xlink="http://www.w3.org/1999/xlink">
<g id="graph0" class="graph" transform="scale(1 1) rotate(0) translate(4 176)">
<title>userver/ugrpc/server</title>
<g id="clust1" class="cluster">
<title>clusterdir_3b53e7235b5b017fbc099410d3aa8fff</title>
<g id="a_clust1"><a xlink:href="dir_3b53e7235b5b017fbc099410d3aa8fff.html" target="_top" xlink:title="ugrpc">
<polygon fill="#feefdf" stroke="#7f7f7f" stroke-dasharray="5,2" points="16.5,-39 16.5,-164 198.5,-164 198.5,-39 16.5,-39"/>
<text text-anchor="middle" x="107.5" y="-152" font-family="Helvetica,sans-Serif" font-size="10.00">ugrpc</text>
</a>
</g>
</g>
<g id="clust2" class="cluster">
<title>clusterdir_62924e4ce81b9bc225af917b2062040e</title>
<g id="a_clust2"><a xlink:href="dir_62924e4ce81b9bc225af917b2062040e.html" target="_top">
<polygon fill="#feefdf" stroke="#404040" stroke-width="2" points="24.5,-47 24.5,-137 144.5,-137 144.5,-47 24.5,-47"/>
</a>
</g>
</g>
<!-- dir_a148fe09fa3f3600cf9d3e96e5d8e914 -->
<g id="node1" class="node">
<title>dir_a148fe09fa3f3600cf9d3e96e5d8e914</title>
<g id="a_node1"><a xlink:href="dir_a148fe09fa3f3600cf9d3e96e5d8e914.html" target="_top" xlink:title="impl">
<polygon fill="#fdaf60" stroke="#404040" points="190.5,-74 152.5,-74 152.5,-55 190.5,-55 190.5,-74"/>
<text text-anchor="middle" x="171.5" y="-62" font-family="Helvetica,sans-Serif" font-size="10.00">impl</text>
</a>
</g>
</g>
<!-- dir_62924e4ce81b9bc225af917b2062040e -->
<g id="node2" class="node">
<title>dir_62924e4ce81b9bc225af917b2062040e</title>
<text text-anchor="middle" x="56.5" y="-117" font-family="Helvetica,sans-Serif" font-size="10.00">server</text>
</g>
<!-- dir_62924e4ce81b9bc225af917b2062040e&#45;&gt;dir_a148fe09fa3f3600cf9d3e96e5d8e914 -->
<g id="edge2" class="edge">
<title>dir_62924e4ce81b9bc225af917b2062040e&#45;&gt;dir_a148fe09fa3f3600cf9d3e96e5d8e914</title>
<g id="a_edge2"><a xlink:href="dir_000117_000071.html" target="_top">
<path fill="none" stroke="#63b8ff" d="M74.98,-109.98C93.48,-101.46 122.18,-88.23 143.48,-78.41"/>
<polygon fill="#63b8ff" stroke="#63b8ff" points="145.07,-81.53 152.69,-74.17 142.14,-75.18 145.07,-81.53"/>
</a>
</g>
<g id="a_edge2&#45;headlabel"><a xlink:href="dir_000117_000071.html" target="_top" xlink:title="1">
<text text-anchor="middle" x="142.99" y="-83.12" font-family="Helvetica,sans-Serif" font-size="10.00" fill="#63b8ff">1</text>
</a>
</g>
</g>
<!-- dir_a17d16d8439cfc5a9ddbe4e96b8fb83e -->
<g id="node4" class="node">
<title>dir_a17d16d8439cfc5a9ddbe4e96b8fb83e</title>
<g id="a_node4"><a xlink:href="dir_a17d16d8439cfc5a9ddbe4e96b8fb83e.html" target="_top" xlink:title="middlewares">
<polygon fill="#fdaf60" stroke="#404040" points="134.5,-74 54.5,-74 54.5,-55 134.5,-55 134.5,-74"/>
<text text-anchor="middle" x="94.5" y="-62" font-family="Helvetica,sans-Serif" font-size="10.00">middlewares</text>
</a>
</g>
</g>
<!-- dir_62924e4ce81b9bc225af917b2062040e&#45;&gt;dir_a17d16d8439cfc5a9ddbe4e96b8fb83e -->
<g id="edge3" class="edge">
<title>dir_62924e4ce81b9bc225af917b2062040e&#45;&gt;dir_a17d16d8439cfc5a9ddbe4e96b8fb83e</title>
<g id="a_edge3"><a xlink:href="dir_000117_000094.html" target="_top">
<path fill="none" stroke="#63b8ff" d="M62.77,-109.75C68.09,-102.34 75.86,-91.5 82.38,-82.41"/>
<polygon fill="#63b8ff" stroke="#63b8ff" points="85.36,-84.26 88.34,-74.09 79.67,-80.18 85.36,-84.26"/>
</a>
</g>
<g id="a_edge3&#45;headlabel"><a xlink:href="dir_000117_000094.html" target="_top" xlink:title="4">
<text text-anchor="middle" x="85.57" y="-86.33" font-family="Helvetica,sans-Serif" font-size="10.00" fill="#63b8ff">4</text>
</a>
</g>
</g>
<!-- dir_26f8c63b8c67b2ed6c1b7078f08f1e18 -->
<g id="node5" class="node">
<title>dir_26f8c63b8c67b2ed6c1b7078f08f1e18</title>
<g id="a_node5"><a xlink:href="dir_26f8c63b8c67b2ed6c1b7078f08f1e18.html" target="_top" xlink:title="userver">
<polygon fill="#feefdf" stroke="red" points="53,-19 0,-19 0,0 53,0 53,-19"/>
<text text-anchor="middle" x="26.5" y="-7" font-family="Helvetica,sans-Serif" font-size="10.00">userver</text>
</a>
</g>
</g>
<!-- dir_62924e4ce81b9bc225af917b2062040e&#45;&gt;dir_26f8c63b8c67b2ed6c1b7078f08f1e18 -->
<g id="edge1" class="edge">
<title>dir_62924e4ce81b9bc225af917b2062040e&#45;&gt;dir_26f8c63b8c67b2ed6c1b7078f08f1e18</title>
<g id="a_edge1"><a xlink:href="dir_000117_000140.html" target="_top">
<path fill="none" stroke="#63b8ff" d="M43.72,-110C33.11,-102.1 18.78,-89.27 12.5,-74 6.59,-59.61 8.98,-54.15 12.5,-39 13.35,-35.35 14.74,-31.62 16.32,-28.12"/>
<polygon fill="#63b8ff" stroke="#63b8ff" points="19.5,-29.58 20.99,-19.09 13.28,-26.37 19.5,-29.58"/>
</a>
</g>
<g id="a_edge1&#45;headlabel"><a xlink:href="dir_000117_000140.html" target="_top" xlink:title="23">
<text text-anchor="middle" x="20.37" y="-31.58" font-family="Helvetica,sans-Serif" font-size="10.00" fill="#63b8ff">23</text>
</a>
</g>
</g>
<!-- dir_a7364e945deb3de9e65ddca50507f79f -->
<g id="node6" class="node">
<title>dir_a7364e945deb3de9e65ddca50507f79f</title>
<g id="a_node6"><a xlink:href="dir_a7364e945deb3de9e65ddca50507f79f.html" target="_top" xlink:title="userver">
<polygon fill="#feefdf" stroke="red" points="245,-19 192,-19 192,0 245,0 245,-19"/>
<text text-anchor="middle" x="218.5" y="-7" font-family="Helvetica,sans-Serif" font-size="10.00">userver</text>
</a>
</g>
</g>
<!-- dir_62924e4ce81b9bc225af917b2062040e&#45;&gt;dir_a7364e945deb3de9e65ddca50507f79f -->
<g id="edge4" class="edge">
<title>dir_62924e4ce81b9bc225af917b2062040e&#45;&gt;dir_a7364e945deb3de9e65ddca50507f79f</title>
<g id="a_edge4"><a xlink:href="dir_000117_000149.html" target="_top">
<path fill="none" stroke="#63b8ff" d="M80.06,-111.97C120.25,-100.75 198.17,-78.55 202.5,-74 213.88,-62.05 217.5,-43.23 218.5,-29.17"/>
<polygon fill="#63b8ff" stroke="#63b8ff" points="222,-29.26 218.84,-19.15 215,-29.02 222,-29.26"/>
</a>
</g>
<g id="a_edge4&#45;headlabel"><a xlink:href="dir_000117_000149.html" target="_top" xlink:title="15">
<text text-anchor="middle" x="224.72" y="-30.45" font-family="Helvetica,sans-Serif" font-size="10.00" fill="#63b8ff">15</text>
</a>
</g>
</g>
<!-- dir_a1f8767648ff89fab08f07be51dd2e3b -->
<g id="node3" class="node">
<title>dir_a1f8767648ff89fab08f07be51dd2e3b</title>
<g id="a_node3"><a xlink:href="dir_a1f8767648ff89fab08f07be51dd2e3b.html" target="_top" xlink:title="impl">
<polygon fill="#fdaf60" stroke="#404040" points="136.5,-129 98.5,-129 98.5,-110 136.5,-110 136.5,-129"/>
<text text-anchor="middle" x="117.5" y="-117" font-family="Helvetica,sans-Serif" font-size="10.00">impl</text>
</a>
</g>
</g>
<!-- dir_a1f8767648ff89fab08f07be51dd2e3b&#45;&gt;dir_a17d16d8439cfc5a9ddbe4e96b8fb83e -->
<g id="edge6" class="edge">
<title>dir_a1f8767648ff89fab08f07be51dd2e3b&#45;&gt;dir_a17d16d8439cfc5a9ddbe4e96b8fb83e</title>
<g id="a_edge6"><a xlink:href="dir_000072_000094.html" target="_top">
<path fill="none" stroke="#63b8ff" d="M113.7,-109.75C110.59,-102.57 106.08,-92.18 102.21,-83.27"/>
<polygon fill="#63b8ff" stroke="#63b8ff" points="105.42,-81.87 98.23,-74.09 99,-84.66 105.42,-81.87"/>
</a>
</g>
<g id="a_edge6&#45;headlabel"><a xlink:href="dir_000072_000094.html" target="_top" xlink:title="1">
<text text-anchor="middle" x="109.45" y="-81.54" font-family="Helvetica,sans-Serif" font-size="10.00" fill="#63b8ff">1</text>
</a>
</g>
</g>
<!-- dir_a1f8767648ff89fab08f07be51dd2e3b&#45;&gt;dir_26f8c63b8c67b2ed6c1b7078f08f1e18 -->
<g id="edge5" class="edge">
<title>dir_a1f8767648ff89fab08f07be51dd2e3b&#45;&gt;dir_26f8c63b8c67b2ed6c1b7078f08f1e18</title>
<g id="a_edge5"><a xlink:href="dir_000072_000140.html" target="_top">
<path fill="none" stroke="#63b8ff" d="M98.23,-111.21C81.92,-104.09 59.09,-91.73 45.5,-74 35.55,-61.01 30.79,-42.86 28.52,-29.29"/>
<polygon fill="#63b8ff" stroke="#63b8ff" points="31.97,-28.62 27.15,-19.18 25.03,-29.56 31.97,-28.62"/>
</a>
</g>
<g id="a_edge5&#45;headlabel"><a xlink:href="dir_000072_000140.html" target="_top" xlink:title="15">
<text text-anchor="middle" x="35.26" y="-29.3" font-family="Helvetica,sans-Serif" font-size="10.00" fill="#63b8ff">15</text>
</a>
</g>
</g>
<!-- dir_a1f8767648ff89fab08f07be51dd2e3b&#45;&gt;dir_a7364e945deb3de9e65ddca50507f79f -->
<g id="edge7" class="edge">
<title>dir_a1f8767648ff89fab08f07be51dd2e3b&#45;&gt;dir_a7364e945deb3de9e65ddca50507f79f</title>
<g id="a_edge7"><a xlink:href="dir_000072_000149.html" target="_top">
<path fill="none" stroke="#63b8ff" d="M136.57,-117.42C163.24,-114.77 210.84,-105.61 232.5,-74 241.85,-60.36 235.92,-41.55 229.13,-27.94"/>
<polygon fill="#63b8ff" stroke="#63b8ff" points="232.15,-26.16 224.24,-19.1 226.02,-29.55 232.15,-26.16"/>
</a>
</g>
<g id="a_edge7&#45;headlabel"><a xlink:href="dir_000072_000149.html" target="_top" xlink:title="8">
<text text-anchor="middle" x="236.37" y="-25.43" font-family="Helvetica,sans-Serif" font-size="10.00" fill="#63b8ff">8</text>
</a>
</g>
</g>
<!-- dir_a17d16d8439cfc5a9ddbe4e96b8fb83e&#45;&gt;dir_26f8c63b8c67b2ed6c1b7078f08f1e18 -->
<g id="edge8" class="edge">
<title>dir_a17d16d8439cfc5a9ddbe4e96b8fb83e&#45;&gt;dir_26f8c63b8c67b2ed6c1b7078f08f1e18</title>
<g id="a_edge8"><a xlink:href="dir_000094_000140.html" target="_top">
<path fill="none" stroke="#63b8ff" d="M83.57,-54.98C73.42,-47.07 58.08,-35.11 45.85,-25.58"/>
<polygon fill="#63b8ff" stroke="#63b8ff" points="47.66,-22.56 37.62,-19.17 43.36,-28.08 47.66,-22.56"/>
</a>
</g>
<g id="a_edge8&#45;headlabel"><a xlink:href="dir_000094_000140.html" target="_top" xlink:title="1">
<text text-anchor="middle" x="52.24" y="-20.03" font-family="Helvetica,sans-Serif" font-size="10.00" fill="#63b8ff">1</text>
</a>
</g>
</g>
<!-- dir_a17d16d8439cfc5a9ddbe4e96b8fb83e&#45;&gt;dir_a7364e945deb3de9e65ddca50507f79f -->
<g id="edge9" class="edge">
<title>dir_a17d16d8439cfc5a9ddbe4e96b8fb83e&#45;&gt;dir_a7364e945deb3de9e65ddca50507f79f</title>
<g id="a_edge9"><a xlink:href="dir_000094_000149.html" target="_top">
<path fill="none" stroke="#63b8ff" d="M108.46,-54.94C116.96,-49.93 128.15,-43.69 138.5,-39 152.44,-32.69 168.23,-26.81 182.08,-22.05"/>
<polygon fill="#63b8ff" stroke="#63b8ff" points="183.4,-25.3 191.76,-18.79 181.17,-18.66 183.4,-25.3"/>
</a>
</g>
<g id="a_edge9&#45;headlabel"><a xlink:href="dir_000094_000149.html" target="_top" xlink:title="1">
<text text-anchor="middle" x="180.9" y="-26.63" font-family="Helvetica,sans-Serif" font-size="10.00" fill="#63b8ff">1</text>
</a>
</g>
</g>
</g>
</svg>
