<?xml version="1.0" encoding="UTF-8" standalone="no"?>
<!DOCTYPE svg PUBLIC "-//W3C//DTD SVG 1.1//EN"
 "http://www.w3.org/Graphics/SVG/1.1/DTD/svg11.dtd">
<!-- Generated by graphviz version 2.43.0 (0)
 -->
<!-- Title: userver/ugrpc/client Pages: 1 -->
<svg width="253pt" height="180pt"
 viewBox="0.00 0.00 253.00 180.00" xmlns="http://www.w3.org/2000/svg" xmlns:xlink="http://www.w3.org/1999/xlink">
<g id="graph0" class="graph" transform="scale(1 1) rotate(0) translate(4 176)">
<title>userver/ugrpc/client</title>
<g id="clust1" class="cluster">
<title>clusterdir_3b53e7235b5b017fbc099410d3aa8fff</title>
<g id="a_clust1"><a xlink:href="dir_3b53e7235b5b017fbc099410d3aa8fff.html" target="_top" xlink:title="ugrpc">
<polygon fill="#feefdf" stroke="#7f7f7f" stroke-dasharray="5,2" points="20.5,-39 20.5,-164 198.5,-164 198.5,-39 20.5,-39"/>
<text text-anchor="middle" x="109.5" y="-152" font-family="Helvetica,sans-Serif" font-size="10.00">ugrpc</text>
</a>
</g>
</g>
<g id="clust2" class="cluster">
<title>clusterdir_122e10cd8f03b78e3d116381568eac02</title>
<g id="a_clust2"><a xlink:href="dir_122e10cd8f03b78e3d116381568eac02.html" target="_top">
<polygon fill="#feefdf" stroke="#404040" stroke-width="2" points="28.5,-47 28.5,-137 144.5,-137 144.5,-47 28.5,-47"/>
</a>
</g>
</g>
<!-- dir_a148fe09fa3f3600cf9d3e96e5d8e914 -->
<g id="node1" class="node">
<title>dir_a148fe09fa3f3600cf9d3e96e5d8e914</title>
<g id="a_node1"><a xlink:href="dir_a148fe09fa3f3600cf9d3e96e5d8e914.html" target="_top" xlink:title="impl">
<polygon fill="#fdaf60" stroke="#404040" points="190.5,-74 152.5,-74 152.5,-55 190.5,-55 190.5,-74"/>
<text text-anchor="middle" x="171.5" y="-62" font-family="Helvetica,sans-Serif" font-size="10.00">impl</text>
</a>
</g>
</g>
<!-- dir_122e10cd8f03b78e3d116381568eac02 -->
<g id="node2" class="node">
<title>dir_122e10cd8f03b78e3d116381568eac02</title>
<text text-anchor="middle" x="58.5" y="-117" font-family="Helvetica,sans-Serif" font-size="10.00">client</text>
</g>
<!-- dir_122e10cd8f03b78e3d116381568eac02&#45;&gt;dir_a148fe09fa3f3600cf9d3e96e5d8e914 -->
<g id="edge2" class="edge">
<title>dir_122e10cd8f03b78e3d116381568eac02&#45;&gt;dir_a148fe09fa3f3600cf9d3e96e5d8e914</title>
<g id="a_edge2"><a xlink:href="dir_000017_000071.html" target="_top">
<path fill="none" stroke="#63b8ff" d="M76.66,-109.98C94.75,-101.5 122.78,-88.35 143.69,-78.54"/>
<polygon fill="#63b8ff" stroke="#63b8ff" points="145.45,-81.59 153.01,-74.17 142.47,-75.25 145.45,-81.59"/>
</a>
</g>
<g id="a_edge2&#45;headlabel"><a xlink:href="dir_000017_000071.html" target="_top" xlink:title="1">
<text text-anchor="middle" x="143.4" y="-83.18" font-family="Helvetica,sans-Serif" font-size="10.00" fill="#63b8ff">1</text>
</a>
</g>
</g>
<!-- dir_a1771f1c764fdc49790d52d47d49a5b8 -->
<g id="node4" class="node">
<title>dir_a1771f1c764fdc49790d52d47d49a5b8</title>
<g id="a_node4"><a xlink:href="dir_a1771f1c764fdc49790d52d47d49a5b8.html" target="_top" xlink:title="middlewares">
<polygon fill="#fdaf60" stroke="#404040" points="134.5,-74 54.5,-74 54.5,-55 134.5,-55 134.5,-74"/>
<text text-anchor="middle" x="94.5" y="-62" font-family="Helvetica,sans-Serif" font-size="10.00">middlewares</text>
</a>
</g>
</g>
<!-- dir_122e10cd8f03b78e3d116381568eac02&#45;&gt;dir_a1771f1c764fdc49790d52d47d49a5b8 -->
<g id="edge3" class="edge">
<title>dir_122e10cd8f03b78e3d116381568eac02&#45;&gt;dir_a1771f1c764fdc49790d52d47d49a5b8</title>
<g id="a_edge3"><a xlink:href="dir_000017_000093.html" target="_top">
<path fill="none" stroke="#63b8ff" d="M64.44,-109.75C69.48,-102.34 76.84,-91.5 83.01,-82.41"/>
<polygon fill="#63b8ff" stroke="#63b8ff" points="85.94,-84.33 88.67,-74.09 80.15,-80.39 85.94,-84.33"/>
</a>
</g>
<g id="a_edge3&#45;headlabel"><a xlink:href="dir_000017_000093.html" target="_top" xlink:title="4">
<text text-anchor="middle" x="86.27" y="-86.4" font-family="Helvetica,sans-Serif" font-size="10.00" fill="#63b8ff">4</text>
</a>
</g>
</g>
<!-- dir_26f8c63b8c67b2ed6c1b7078f08f1e18 -->
<g id="node5" class="node">
<title>dir_26f8c63b8c67b2ed6c1b7078f08f1e18</title>
<g id="a_node5"><a xlink:href="dir_26f8c63b8c67b2ed6c1b7078f08f1e18.html" target="_top" xlink:title="userver">
<polygon fill="#feefdf" stroke="red" points="53,-19 0,-19 0,0 53,0 53,-19"/>
<text text-anchor="middle" x="26.5" y="-7" font-family="Helvetica,sans-Serif" font-size="10.00">userver</text>
</a>
</g>
</g>
<!-- dir_122e10cd8f03b78e3d116381568eac02&#45;&gt;dir_26f8c63b8c67b2ed6c1b7078f08f1e18 -->
<g id="edge1" class="edge">
<title>dir_122e10cd8f03b78e3d116381568eac02&#45;&gt;dir_26f8c63b8c67b2ed6c1b7078f08f1e18</title>
<g id="a_edge1"><a xlink:href="dir_000017_000140.html" target="_top">
<path fill="none" stroke="#63b8ff" d="M44.72,-109.82C33.68,-101.99 19.01,-89.35 12.5,-74 6.43,-59.68 8.98,-54.15 12.5,-39 13.35,-35.35 14.74,-31.62 16.32,-28.12"/>
<polygon fill="#63b8ff" stroke="#63b8ff" points="19.5,-29.58 20.99,-19.09 13.28,-26.37 19.5,-29.58"/>
</a>
</g>
<g id="a_edge1&#45;headlabel"><a xlink:href="dir_000017_000140.html" target="_top" xlink:title="19">
<text text-anchor="middle" x="20.37" y="-31.58" font-family="Helvetica,sans-Serif" font-size="10.00" fill="#63b8ff">19</text>
</a>
</g>
</g>
<!-- dir_a7364e945deb3de9e65ddca50507f79f -->
<g id="node6" class="node">
<title>dir_a7364e945deb3de9e65ddca50507f79f</title>
<g id="a_node6"><a xlink:href="dir_a7364e945deb3de9e65ddca50507f79f.html" target="_top" xlink:title="userver">
<polygon fill="#feefdf" stroke="red" points="245,-19 192,-19 192,0 245,0 245,-19"/>
<text text-anchor="middle" x="218.5" y="-7" font-family="Helvetica,sans-Serif" font-size="10.00">userver</text>
</a>
</g>
</g>
<!-- dir_122e10cd8f03b78e3d116381568eac02&#45;&gt;dir_a7364e945deb3de9e65ddca50507f79f -->
<g id="edge4" class="edge">
<title>dir_122e10cd8f03b78e3d116381568eac02&#45;&gt;dir_a7364e945deb3de9e65ddca50507f79f</title>
<g id="a_edge4"><a xlink:href="dir_000017_000149.html" target="_top">
<path fill="none" stroke="#63b8ff" d="M80.8,-112.23C120.16,-101.07 198.2,-78.53 202.5,-74 213.86,-62.02 217.48,-43.21 218.49,-29.16"/>
<polygon fill="#63b8ff" stroke="#63b8ff" points="221.99,-29.26 218.83,-19.14 214.99,-29.02 221.99,-29.26"/>
</a>
</g>
<g id="a_edge4&#45;headlabel"><a xlink:href="dir_000017_000149.html" target="_top" xlink:title="10">
<text text-anchor="middle" x="224.7" y="-30.45" font-family="Helvetica,sans-Serif" font-size="10.00" fill="#63b8ff">10</text>
</a>
</g>
</g>
<!-- dir_353cce1fb0f92752691a6617bbc50164 -->
<g id="node3" class="node">
<title>dir_353cce1fb0f92752691a6617bbc50164</title>
<g id="a_node3"><a xlink:href="dir_353cce1fb0f92752691a6617bbc50164.html" target="_top" xlink:title="impl">
<polygon fill="#fdaf60" stroke="#404040" points="136.5,-129 98.5,-129 98.5,-110 136.5,-110 136.5,-129"/>
<text text-anchor="middle" x="117.5" y="-117" font-family="Helvetica,sans-Serif" font-size="10.00">impl</text>
</a>
</g>
</g>
<!-- dir_353cce1fb0f92752691a6617bbc50164&#45;&gt;dir_a1771f1c764fdc49790d52d47d49a5b8 -->
<g id="edge6" class="edge">
<title>dir_353cce1fb0f92752691a6617bbc50164&#45;&gt;dir_a1771f1c764fdc49790d52d47d49a5b8</title>
<g id="a_edge6"><a xlink:href="dir_000070_000093.html" target="_top">
<path fill="none" stroke="#63b8ff" d="M113.7,-109.75C110.59,-102.57 106.08,-92.18 102.21,-83.27"/>
<polygon fill="#63b8ff" stroke="#63b8ff" points="105.42,-81.87 98.23,-74.09 99,-84.66 105.42,-81.87"/>
</a>
</g>
<g id="a_edge6&#45;headlabel"><a xlink:href="dir_000070_000093.html" target="_top" xlink:title="3">
<text text-anchor="middle" x="109.45" y="-81.54" font-family="Helvetica,sans-Serif" font-size="10.00" fill="#63b8ff">3</text>
</a>
</g>
</g>
<!-- dir_353cce1fb0f92752691a6617bbc50164&#45;&gt;dir_26f8c63b8c67b2ed6c1b7078f08f1e18 -->
<g id="edge5" class="edge">
<title>dir_353cce1fb0f92752691a6617bbc50164&#45;&gt;dir_26f8c63b8c67b2ed6c1b7078f08f1e18</title>
<g id="a_edge5"><a xlink:href="dir_000070_000140.html" target="_top">
<path fill="none" stroke="#63b8ff" d="M98.23,-111.21C81.92,-104.09 59.09,-91.73 45.5,-74 35.55,-61.01 30.79,-42.86 28.52,-29.29"/>
<polygon fill="#63b8ff" stroke="#63b8ff" points="31.97,-28.62 27.15,-19.18 25.03,-29.56 31.97,-28.62"/>
</a>
</g>
<g id="a_edge5&#45;headlabel"><a xlink:href="dir_000070_000140.html" target="_top" xlink:title="7">
<text text-anchor="middle" x="35.26" y="-29.3" font-family="Helvetica,sans-Serif" font-size="10.00" fill="#63b8ff">7</text>
</a>
</g>
</g>
<!-- dir_353cce1fb0f92752691a6617bbc50164&#45;&gt;dir_a7364e945deb3de9e65ddca50507f79f -->
<g id="edge7" class="edge">
<title>dir_353cce1fb0f92752691a6617bbc50164&#45;&gt;dir_a7364e945deb3de9e65ddca50507f79f</title>
<g id="a_edge7"><a xlink:href="dir_000070_000149.html" target="_top">
<path fill="none" stroke="#63b8ff" d="M136.57,-117.42C163.24,-114.77 210.84,-105.61 232.5,-74 241.85,-60.36 235.92,-41.55 229.13,-27.94"/>
<polygon fill="#63b8ff" stroke="#63b8ff" points="232.15,-26.16 224.24,-19.1 226.02,-29.55 232.15,-26.16"/>
</a>
</g>
<g id="a_edge7&#45;headlabel"><a xlink:href="dir_000070_000149.html" target="_top" xlink:title="3">
<text text-anchor="middle" x="236.37" y="-25.43" font-family="Helvetica,sans-Serif" font-size="10.00" fill="#63b8ff">3</text>
</a>
</g>
</g>
<!-- dir_a1771f1c764fdc49790d52d47d49a5b8&#45;&gt;dir_26f8c63b8c67b2ed6c1b7078f08f1e18 -->
<g id="edge8" class="edge">
<title>dir_a1771f1c764fdc49790d52d47d49a5b8&#45;&gt;dir_26f8c63b8c67b2ed6c1b7078f08f1e18</title>
<g id="a_edge8"><a xlink:href="dir_000093_000140.html" target="_top">
<path fill="none" stroke="#63b8ff" d="M83.57,-54.98C73.42,-47.07 58.08,-35.11 45.85,-25.58"/>
<polygon fill="#63b8ff" stroke="#63b8ff" points="47.66,-22.56 37.62,-19.17 43.36,-28.08 47.66,-22.56"/>
</a>
</g>
<g id="a_edge8&#45;headlabel"><a xlink:href="dir_000093_000140.html" target="_top" xlink:title="1">
<text text-anchor="middle" x="52.24" y="-20.03" font-family="Helvetica,sans-Serif" font-size="10.00" fill="#63b8ff">1</text>
</a>
</g>
</g>
<!-- dir_a1771f1c764fdc49790d52d47d49a5b8&#45;&gt;dir_a7364e945deb3de9e65ddca50507f79f -->
<g id="edge9" class="edge">
<title>dir_a1771f1c764fdc49790d52d47d49a5b8&#45;&gt;dir_a7364e945deb3de9e65ddca50507f79f</title>
<g id="a_edge9"><a xlink:href="dir_000093_000149.html" target="_top">
<path fill="none" stroke="#63b8ff" d="M108.46,-54.94C116.96,-49.93 128.15,-43.69 138.5,-39 152.44,-32.69 168.23,-26.81 182.08,-22.05"/>
<polygon fill="#63b8ff" stroke="#63b8ff" points="183.4,-25.3 191.76,-18.79 181.17,-18.66 183.4,-25.3"/>
</a>
</g>
<g id="a_edge9&#45;headlabel"><a xlink:href="dir_000093_000149.html" target="_top" xlink:title="1">
<text text-anchor="middle" x="180.9" y="-26.63" font-family="Helvetica,sans-Serif" font-size="10.00" fill="#63b8ff">1</text>
</a>
</g>
</g>
</g>
</svg>
