<?xml version="1.0" encoding="UTF-8" standalone="no"?>
<!DOCTYPE svg PUBLIC "-//W3C//DTD SVG 1.1//EN"
 "http://www.w3.org/Graphics/SVG/1.1/DTD/svg11.dtd">
<!-- Generated by graphviz version 2.43.0 (0)
 -->
<!-- Title: userver/clients Pages: 1 -->
<svg width="610pt" height="141pt"
 viewBox="0.00 0.00 609.50 141.00" xmlns="http://www.w3.org/2000/svg" xmlns:xlink="http://www.w3.org/1999/xlink">
<g id="graph0" class="graph" transform="scale(1 1) rotate(0) translate(4 137)">
<title>userver/clients</title>
<g id="clust1" class="cluster">
<title>clusterdir_26f8c63b8c67b2ed6c1b7078f08f1e18</title>
<g id="a_clust1"><a xlink:href="dir_26f8c63b8c67b2ed6c1b7078f08f1e18.html" target="_top" xlink:title="userver">
<polygon fill="#feefdf" stroke="#404040" stroke-dasharray="5,2" points="8,-8 8,-125 539,-125 539,-8 8,-8"/>
<text text-anchor="middle" x="273.5" y="-113" font-family="Helvetica,sans-Serif" font-size="10.00">userver</text>
</a>
</g>
</g>
<g id="clust2" class="cluster">
<title>clusterdir_977bdc1b15aad864e706361ca31eff2e</title>
<g id="a_clust2"><a xlink:href="dir_977bdc1b15aad864e706361ca31eff2e.html" target="_top">
<polygon fill="#feefdf" stroke="#404040" stroke-width="2" points="164,-63 164,-98 336,-98 336,-63 164,-63"/>
</a>
</g>
</g>
<!-- dir_486b9402482621fd641691dc37d76b53 -->
<g id="node1" class="node">
<title>dir_486b9402482621fd641691dc37d76b53</title>
<g id="a_node1"><a xlink:href="dir_486b9402482621fd641691dc37d76b53.html" target="_top" xlink:title="engine">
<polygon fill="#fdaf60" stroke="red" points="122,-35 72,-35 72,-16 122,-16 122,-35"/>
<text text-anchor="middle" x="97" y="-23" font-family="Helvetica,sans-Serif" font-size="10.00">engine</text>
</a>
</g>
</g>
<!-- dir_994ef2a14b32cb8134d8b7b97f08d542 -->
<g id="node2" class="node">
<title>dir_994ef2a14b32cb8134d8b7b97f08d542</title>
<g id="a_node2"><a xlink:href="dir_994ef2a14b32cb8134d8b7b97f08d542.html" target="_top" xlink:title="components">
<polygon fill="#fdaf60" stroke="red" points="217.5,-35 140.5,-35 140.5,-16 217.5,-16 217.5,-35"/>
<text text-anchor="middle" x="179" y="-23" font-family="Helvetica,sans-Serif" font-size="10.00">components</text>
</a>
</g>
</g>
<!-- dir_150bbd271f1504029fbda942e72f1022 -->
<g id="node3" class="node">
<title>dir_150bbd271f1504029fbda942e72f1022</title>
<g id="a_node3"><a xlink:href="dir_150bbd271f1504029fbda942e72f1022.html" target="_top" xlink:title="utils">
<polygon fill="#fdaf60" stroke="red" points="54,-35 16,-35 16,-16 54,-16 54,-35"/>
<text text-anchor="middle" x="35" y="-23" font-family="Helvetica,sans-Serif" font-size="10.00">utils</text>
</a>
</g>
</g>
<!-- dir_3285f5f33091c25af669261537588667 -->
<g id="node4" class="node">
<title>dir_3285f5f33091c25af669261537588667</title>
<g id="a_node4"><a xlink:href="dir_3285f5f33091c25af669261537588667.html" target="_top" xlink:title="rcu">
<polygon fill="#fdaf60" stroke="#404040" points="268,-35 236,-35 236,-16 268,-16 268,-35"/>
<text text-anchor="middle" x="252" y="-23" font-family="Helvetica,sans-Serif" font-size="10.00">rcu</text>
</a>
</g>
</g>
<!-- dir_e64dfdcbff0f609bc29171eebbcbbcc9 -->
<g id="node5" class="node">
<title>dir_e64dfdcbff0f609bc29171eebbcbbcc9</title>
<g id="a_node5"><a xlink:href="dir_e64dfdcbff0f609bc29171eebbcbbcc9.html" target="_top" xlink:title="concurrent">
<polygon fill="#fdaf60" stroke="red" points="354,-35 286,-35 286,-16 354,-16 354,-35"/>
<text text-anchor="middle" x="320" y="-23" font-family="Helvetica,sans-Serif" font-size="10.00">concurrent</text>
</a>
</g>
</g>
<!-- dir_6fe6ce792de102936b3c02369b7e8bae -->
<g id="node6" class="node">
<title>dir_6fe6ce792de102936b3c02369b7e8bae</title>
<g id="a_node6"><a xlink:href="dir_6fe6ce792de102936b3c02369b7e8bae.html" target="_top" xlink:title="dynamic_config">
<polygon fill="#fdaf60" stroke="red" points="465.5,-35 372.5,-35 372.5,-16 465.5,-16 465.5,-35"/>
<text text-anchor="middle" x="419" y="-23" font-family="Helvetica,sans-Serif" font-size="10.00">dynamic_config</text>
</a>
</g>
</g>
<!-- dir_ee914885184833579e051451a9f6b65c -->
<g id="node7" class="node">
<title>dir_ee914885184833579e051451a9f6b65c</title>
<g id="a_node7"><a xlink:href="dir_ee914885184833579e051451a9f6b65c.html" target="_top" xlink:title="server">
<polygon fill="#fdaf60" stroke="red" points="530.5,-35 483.5,-35 483.5,-16 530.5,-16 530.5,-35"/>
<text text-anchor="middle" x="507" y="-23" font-family="Helvetica,sans-Serif" font-size="10.00">server</text>
</a>
</g>
</g>
<!-- dir_977bdc1b15aad864e706361ca31eff2e -->
<g id="node8" class="node">
<title>dir_977bdc1b15aad864e706361ca31eff2e</title>
<text text-anchor="middle" x="303" y="-78" font-family="Helvetica,sans-Serif" font-size="10.00">clients</text>
</g>
<!-- dir_019fd35e56c772238e000d005517ccde -->
<g id="node9" class="node">
<title>dir_019fd35e56c772238e000d005517ccde</title>
<g id="a_node9"><a xlink:href="dir_019fd35e56c772238e000d005517ccde.html" target="_top" xlink:title="dns">
<polygon fill="#fdaf60" stroke="#404040" points="206,-90 172,-90 172,-71 206,-71 206,-90"/>
<text text-anchor="middle" x="189" y="-78" font-family="Helvetica,sans-Serif" font-size="10.00">dns</text>
</a>
</g>
</g>
<!-- dir_019fd35e56c772238e000d005517ccde&#45;&gt;dir_486b9402482621fd641691dc37d76b53 -->
<g id="edge2" class="edge">
<title>dir_019fd35e56c772238e000d005517ccde&#45;&gt;dir_486b9402482621fd641691dc37d76b53</title>
<g id="a_edge2"><a xlink:href="dir_000039_000047.html" target="_top">
<path fill="none" stroke="#63b8ff" d="M174.22,-70.98C159.82,-62.69 137.69,-49.94 120.81,-40.22"/>
<polygon fill="#63b8ff" stroke="#63b8ff" points="122.46,-37.13 112.05,-35.17 118.97,-43.19 122.46,-37.13"/>
</a>
</g>
<g id="a_edge2&#45;headlabel"><a xlink:href="dir_000039_000047.html" target="_top" xlink:title="4">
<text text-anchor="middle" x="126.99" y="-33.96" font-family="Helvetica,sans-Serif" font-size="10.00" fill="#63b8ff">4</text>
</a>
</g>
</g>
<!-- dir_019fd35e56c772238e000d005517ccde&#45;&gt;dir_994ef2a14b32cb8134d8b7b97f08d542 -->
<g id="edge3" class="edge">
<title>dir_019fd35e56c772238e000d005517ccde&#45;&gt;dir_994ef2a14b32cb8134d8b7b97f08d542</title>
<g id="a_edge3"><a xlink:href="dir_000039_000022.html" target="_top">
<path fill="none" stroke="#63b8ff" d="M187.35,-70.75C186.04,-63.8 184.16,-53.85 182.52,-45.13"/>
<polygon fill="#63b8ff" stroke="#63b8ff" points="185.91,-44.27 180.62,-35.09 179.04,-45.56 185.91,-44.27"/>
</a>
</g>
<g id="a_edge3&#45;headlabel"><a xlink:href="dir_000039_000022.html" target="_top" xlink:title="2">
<text text-anchor="middle" x="189.37" y="-44.77" font-family="Helvetica,sans-Serif" font-size="10.00" fill="#63b8ff">2</text>
</a>
</g>
</g>
<!-- dir_019fd35e56c772238e000d005517ccde&#45;&gt;dir_150bbd271f1504029fbda942e72f1022 -->
<g id="edge1" class="edge">
<title>dir_019fd35e56c772238e000d005517ccde&#45;&gt;dir_150bbd271f1504029fbda942e72f1022</title>
<g id="a_edge1"><a xlink:href="dir_000039_000152.html" target="_top">
<path fill="none" stroke="#63b8ff" d="M171.93,-73.63C145.79,-64.63 95.51,-47.33 63.7,-36.38"/>
<polygon fill="#63b8ff" stroke="#63b8ff" points="64.66,-33.01 54.07,-33.06 62.39,-39.63 64.66,-33.01"/>
</a>
</g>
<g id="a_edge1&#45;headlabel"><a xlink:href="dir_000039_000152.html" target="_top" xlink:title="2">
<text text-anchor="middle" x="68.99" y="-28.99" font-family="Helvetica,sans-Serif" font-size="10.00" fill="#63b8ff">2</text>
</a>
</g>
</g>
<!-- dir_a7364e945deb3de9e65ddca50507f79f -->
<g id="node11" class="node">
<title>dir_a7364e945deb3de9e65ddca50507f79f</title>
<g id="a_node11"><a xlink:href="dir_a7364e945deb3de9e65ddca50507f79f.html" target="_top" xlink:title="userver">
<polygon fill="#feefdf" stroke="red" points="601.5,-35 548.5,-35 548.5,-16 601.5,-16 601.5,-35"/>
<text text-anchor="middle" x="575" y="-23" font-family="Helvetica,sans-Serif" font-size="10.00">userver</text>
</a>
</g>
</g>
<!-- dir_019fd35e56c772238e000d005517ccde&#45;&gt;dir_a7364e945deb3de9e65ddca50507f79f -->
<g id="edge4" class="edge">
<title>dir_019fd35e56c772238e000d005517ccde&#45;&gt;dir_a7364e945deb3de9e65ddca50507f79f</title>
<g id="a_edge4"><a xlink:href="dir_000039_000149.html" target="_top">
<path fill="none" stroke="#63b8ff" d="M200.04,-70.84C204.45,-67.83 209.73,-64.78 215,-63 350.52,-17.29 396.78,-58.17 538.28,-35.64"/>
<polygon fill="#63b8ff" stroke="#63b8ff" points="538.9,-39.09 548.19,-33.99 537.75,-32.18 538.9,-39.09"/>
</a>
</g>
<g id="a_edge4&#45;headlabel"><a xlink:href="dir_000039_000149.html" target="_top" xlink:title="1">
<text text-anchor="middle" x="535.82" y="-39.98" font-family="Helvetica,sans-Serif" font-size="10.00" fill="#63b8ff">1</text>
</a>
</g>
</g>
<!-- dir_66253c40696f945a0fa4daca02b135e2 -->
<g id="node10" class="node">
<title>dir_66253c40696f945a0fa4daca02b135e2</title>
<g id="a_node10"><a xlink:href="dir_66253c40696f945a0fa4daca02b135e2.html" target="_top" xlink:title="http">
<polygon fill="#fdaf60" stroke="#404040" points="260,-90 224,-90 224,-71 260,-71 260,-90"/>
<text text-anchor="middle" x="242" y="-78" font-family="Helvetica,sans-Serif" font-size="10.00">http</text>
</a>
</g>
</g>
<!-- dir_66253c40696f945a0fa4daca02b135e2&#45;&gt;dir_486b9402482621fd641691dc37d76b53 -->
<g id="edge7" class="edge">
<title>dir_66253c40696f945a0fa4daca02b135e2&#45;&gt;dir_486b9402482621fd641691dc37d76b53</title>
<g id="a_edge7"><a xlink:href="dir_000056_000047.html" target="_top">
<path fill="none" stroke="#63b8ff" d="M229.45,-70.94C225.01,-68.15 219.91,-65.22 215,-63 200.1,-56.27 161.07,-44.6 131.95,-36.27"/>
<polygon fill="#63b8ff" stroke="#63b8ff" points="132.7,-32.84 122.12,-33.48 130.78,-39.58 132.7,-32.84"/>
</a>
</g>
<g id="a_edge7&#45;headlabel"><a xlink:href="dir_000056_000047.html" target="_top" xlink:title="5">
<text text-anchor="middle" x="136.93" y="-28.6" font-family="Helvetica,sans-Serif" font-size="10.00" fill="#63b8ff">5</text>
</a>
</g>
</g>
<!-- dir_66253c40696f945a0fa4daca02b135e2&#45;&gt;dir_994ef2a14b32cb8134d8b7b97f08d542 -->
<g id="edge9" class="edge">
<title>dir_66253c40696f945a0fa4daca02b135e2&#45;&gt;dir_994ef2a14b32cb8134d8b7b97f08d542</title>
<g id="a_edge9"><a xlink:href="dir_000056_000022.html" target="_top">
<path fill="none" stroke="#63b8ff" d="M231.88,-70.98C222.56,-63.15 208.53,-51.34 197.26,-41.86"/>
<polygon fill="#63b8ff" stroke="#63b8ff" points="199.21,-38.93 189.31,-35.17 194.71,-44.29 199.21,-38.93"/>
</a>
</g>
<g id="a_edge9&#45;headlabel"><a xlink:href="dir_000056_000022.html" target="_top" xlink:title="2">
<text text-anchor="middle" x="203.79" y="-36.57" font-family="Helvetica,sans-Serif" font-size="10.00" fill="#63b8ff">2</text>
</a>
</g>
</g>
<!-- dir_66253c40696f945a0fa4daca02b135e2&#45;&gt;dir_150bbd271f1504029fbda942e72f1022 -->
<g id="edge5" class="edge">
<title>dir_66253c40696f945a0fa4daca02b135e2&#45;&gt;dir_150bbd271f1504029fbda942e72f1022</title>
<g id="a_edge5"><a xlink:href="dir_000056_000152.html" target="_top">
<path fill="none" stroke="#63b8ff" d="M230.12,-70.94C225.58,-68.03 220.23,-65 215,-63 153.72,-39.56 131.73,-50.15 64.06,-34.96"/>
<polygon fill="#63b8ff" stroke="#63b8ff" points="64.74,-31.52 54.2,-32.64 63.13,-38.34 64.74,-31.52"/>
</a>
</g>
<g id="a_edge5&#45;headlabel"><a xlink:href="dir_000056_000152.html" target="_top" xlink:title="2">
<text text-anchor="middle" x="68.89" y="-27.08" font-family="Helvetica,sans-Serif" font-size="10.00" fill="#63b8ff">2</text>
</a>
</g>
</g>
<!-- dir_66253c40696f945a0fa4daca02b135e2&#45;&gt;dir_3285f5f33091c25af669261537588667 -->
<g id="edge6" class="edge">
<title>dir_66253c40696f945a0fa4daca02b135e2&#45;&gt;dir_3285f5f33091c25af669261537588667</title>
<g id="a_edge6"><a xlink:href="dir_000056_000109.html" target="_top">
<path fill="none" stroke="#63b8ff" d="M243.65,-70.75C244.96,-63.8 246.84,-53.85 248.48,-45.13"/>
<polygon fill="#63b8ff" stroke="#63b8ff" points="251.96,-45.56 250.38,-35.09 245.09,-44.27 251.96,-45.56"/>
</a>
</g>
<g id="a_edge6&#45;headlabel"><a xlink:href="dir_000056_000109.html" target="_top" xlink:title="1">
<text text-anchor="middle" x="254.09" y="-47.12" font-family="Helvetica,sans-Serif" font-size="10.00" fill="#63b8ff">1</text>
</a>
</g>
</g>
<!-- dir_66253c40696f945a0fa4daca02b135e2&#45;&gt;dir_e64dfdcbff0f609bc29171eebbcbbcc9 -->
<g id="edge11" class="edge">
<title>dir_66253c40696f945a0fa4daca02b135e2&#45;&gt;dir_e64dfdcbff0f609bc29171eebbcbbcc9</title>
<g id="a_edge11"><a xlink:href="dir_000056_000023.html" target="_top">
<path fill="none" stroke="#63b8ff" d="M254.53,-70.98C266.4,-62.92 284.46,-50.65 298.61,-41.03"/>
<polygon fill="#63b8ff" stroke="#63b8ff" points="300.94,-43.69 307.24,-35.17 297,-37.9 300.94,-43.69"/>
</a>
</g>
<g id="a_edge11&#45;headlabel"><a xlink:href="dir_000056_000023.html" target="_top" xlink:title="1">
<text text-anchor="middle" x="299.56" y="-45.55" font-family="Helvetica,sans-Serif" font-size="10.00" fill="#63b8ff">1</text>
</a>
</g>
</g>
<!-- dir_66253c40696f945a0fa4daca02b135e2&#45;&gt;dir_6fe6ce792de102936b3c02369b7e8bae -->
<g id="edge8" class="edge">
<title>dir_66253c40696f945a0fa4daca02b135e2&#45;&gt;dir_6fe6ce792de102936b3c02369b7e8bae</title>
<g id="a_edge8"><a xlink:href="dir_000056_000044.html" target="_top">
<path fill="none" stroke="#63b8ff" d="M254.7,-70.95C259.36,-68.11 264.77,-65.13 270,-63 299.44,-51.02 333.81,-42.28 362.12,-36.36"/>
<polygon fill="#63b8ff" stroke="#63b8ff" points="363.15,-39.72 372.26,-34.3 361.76,-32.86 363.15,-39.72"/>
</a>
</g>
<g id="a_edge8&#45;headlabel"><a xlink:href="dir_000056_000044.html" target="_top" xlink:title="2">
<text text-anchor="middle" x="360.19" y="-40.72" font-family="Helvetica,sans-Serif" font-size="10.00" fill="#63b8ff">2</text>
</a>
</g>
</g>
<!-- dir_66253c40696f945a0fa4daca02b135e2&#45;&gt;dir_ee914885184833579e051451a9f6b65c -->
<g id="edge12" class="edge">
<title>dir_66253c40696f945a0fa4daca02b135e2&#45;&gt;dir_ee914885184833579e051451a9f6b65c</title>
<g id="a_edge12"><a xlink:href="dir_000056_000116.html" target="_top">
<path fill="none" stroke="#63b8ff" d="M254.03,-70.99C258.8,-68.01 264.46,-64.92 270,-63 353.9,-33.87 382.85,-51.74 473.46,-35.05"/>
<polygon fill="#63b8ff" stroke="#63b8ff" points="474.16,-38.48 483.31,-33.14 472.83,-31.6 474.16,-38.48"/>
</a>
</g>
<g id="a_edge12&#45;headlabel"><a xlink:href="dir_000056_000116.html" target="_top" xlink:title="1">
<text text-anchor="middle" x="471.17" y="-39.45" font-family="Helvetica,sans-Serif" font-size="10.00" fill="#63b8ff">1</text>
</a>
</g>
</g>
<!-- dir_66253c40696f945a0fa4daca02b135e2&#45;&gt;dir_a7364e945deb3de9e65ddca50507f79f -->
<g id="edge10" class="edge">
<title>dir_66253c40696f945a0fa4daca02b135e2&#45;&gt;dir_a7364e945deb3de9e65ddca50507f79f</title>
<g id="a_edge10"><a xlink:href="dir_000056_000149.html" target="_top">
<path fill="none" stroke="#63b8ff" d="M254,-70.89C258.76,-67.9 264.42,-64.83 270,-63 382.71,-25.98 420.93,-55.25 538.11,-35.72"/>
<polygon fill="#63b8ff" stroke="#63b8ff" points="538.94,-39.13 548.18,-33.95 537.73,-32.23 538.94,-39.13"/>
</a>
</g>
<g id="a_edge10&#45;headlabel"><a xlink:href="dir_000056_000149.html" target="_top" xlink:title="10">
<text text-anchor="middle" x="535.89" y="-40.04" font-family="Helvetica,sans-Serif" font-size="10.00" fill="#63b8ff">10</text>
</a>
</g>
</g>
</g>
</svg>
