<?xml version="1.0" encoding="UTF-8" standalone="no"?>
<!DOCTYPE svg PUBLIC "-//W3C//DTD SVG 1.1//EN"
 "http://www.w3.org/Graphics/SVG/1.1/DTD/svg11.dtd">
<!-- Generated by graphviz version 2.43.0 (0)
 -->
<!-- Title: userver/formats Pages: 1 -->
<svg width="280pt" height="306pt"
 viewBox="0.00 0.00 280.00 306.00" xmlns="http://www.w3.org/2000/svg" xmlns:xlink="http://www.w3.org/1999/xlink">
<g id="graph0" class="graph" transform="scale(1 1) rotate(0) translate(4 302)">
<title>userver/formats</title>
<g id="clust1" class="cluster">
<title>clusterdir_a7364e945deb3de9e65ddca50507f79f</title>
<g id="a_clust1"><a xlink:href="dir_a7364e945deb3de9e65ddca50507f79f.html" target="_top" xlink:title="userver">
<polygon fill="#feefdf" stroke="#404040" stroke-dasharray="5,2" points="8,-8 8,-290 264,-290 264,-8 8,-8"/>
<text text-anchor="middle" x="136" y="-278" font-family="Helvetica,sans-Serif" font-size="10.00">userver</text>
</a>
</g>
</g>
<g id="clust2" class="cluster">
<title>clusterdir_e5d739089ab2f029c385362e3cd8d126</title>
<g id="a_clust2"><a xlink:href="dir_e5d739089ab2f029c385362e3cd8d126.html" target="_top">
<polygon fill="#feefdf" stroke="#404040" stroke-width="2" points="48,-63 48,-263 244,-263 244,-63 48,-63"/>
</a>
</g>
</g>
<!-- dir_257c7dd21ee5674f3b200d28efeb46c0 -->
<g id="node1" class="node">
<title>dir_257c7dd21ee5674f3b200d28efeb46c0</title>
<g id="a_node1"><a xlink:href="dir_257c7dd21ee5674f3b200d28efeb46c0.html" target="_top" xlink:title="utils">
<polygon fill="#fdaf60" stroke="red" points="76,-35 38,-35 38,-16 76,-16 76,-35"/>
<text text-anchor="middle" x="57" y="-23" font-family="Helvetica,sans-Serif" font-size="10.00">utils</text>
</a>
</g>
</g>
<!-- dir_43758eace6093c93b1a9e9554aba0822 -->
<g id="node2" class="node">
<title>dir_43758eace6093c93b1a9e9554aba0822</title>
<g id="a_node2"><a xlink:href="dir_43758eace6093c93b1a9e9554aba0822.html" target="_top" xlink:title="compiler">
<polygon fill="#fdaf60" stroke="red" points="249.5,-35 190.5,-35 190.5,-16 249.5,-16 249.5,-35"/>
<text text-anchor="middle" x="220" y="-23" font-family="Helvetica,sans-Serif" font-size="10.00">compiler</text>
</a>
</g>
</g>
<!-- dir_e5d739089ab2f029c385362e3cd8d126 -->
<g id="node3" class="node">
<title>dir_e5d739089ab2f029c385362e3cd8d126</title>
<text text-anchor="middle" x="125" y="-243" font-family="Helvetica,sans-Serif" font-size="10.00">formats</text>
</g>
<!-- dir_0ff24befbf8b818075ce0110e6c83a25 -->
<g id="node5" class="node">
<title>dir_0ff24befbf8b818075ce0110e6c83a25</title>
<g id="a_node5"><a xlink:href="dir_0ff24befbf8b818075ce0110e6c83a25.html" target="_top" xlink:title="json">
<polygon fill="#fdaf60" stroke="#404040" points="172.5,-200 135.5,-200 135.5,-181 172.5,-181 172.5,-200"/>
<text text-anchor="middle" x="154" y="-188" font-family="Helvetica,sans-Serif" font-size="10.00">json</text>
</a>
</g>
</g>
<!-- dir_e5d739089ab2f029c385362e3cd8d126&#45;&gt;dir_0ff24befbf8b818075ce0110e6c83a25 -->
<g id="edge1" class="edge">
<title>dir_e5d739089ab2f029c385362e3cd8d126&#45;&gt;dir_0ff24befbf8b818075ce0110e6c83a25</title>
<g id="a_edge1"><a xlink:href="dir_000050_000086.html" target="_top">
<path fill="none" stroke="#63b8ff" d="M129.79,-235.75C133.76,-228.49 139.53,-217.95 144.43,-208.98"/>
<polygon fill="#63b8ff" stroke="#63b8ff" points="147.57,-210.54 149.3,-200.09 141.43,-207.18 147.57,-210.54"/>
</a>
</g>
<g id="a_edge1&#45;headlabel"><a xlink:href="dir_000050_000086.html" target="_top" xlink:title="6">
<text text-anchor="middle" x="148.34" y="-212.56" font-family="Helvetica,sans-Serif" font-size="10.00" fill="#63b8ff">6</text>
</a>
</g>
</g>
<!-- dir_21df508d69b23d4739d18ebf8f3a190b -->
<g id="node6" class="node">
<title>dir_21df508d69b23d4739d18ebf8f3a190b</title>
<g id="a_node6"><a xlink:href="dir_21df508d69b23d4739d18ebf8f3a190b.html" target="_top" xlink:title="parse">
<polygon fill="#fdaf60" stroke="#404040" points="201,-90 157,-90 157,-71 201,-71 201,-90"/>
<text text-anchor="middle" x="179" y="-78" font-family="Helvetica,sans-Serif" font-size="10.00">parse</text>
</a>
</g>
</g>
<!-- dir_e5d739089ab2f029c385362e3cd8d126&#45;&gt;dir_21df508d69b23d4739d18ebf8f3a190b -->
<g id="edge2" class="edge">
<title>dir_e5d739089ab2f029c385362e3cd8d126&#45;&gt;dir_21df508d69b23d4739d18ebf8f3a190b</title>
<g id="a_edge2"><a xlink:href="dir_000050_000101.html" target="_top">
<path fill="none" stroke="#63b8ff" d="M139.79,-235.9C152.4,-227.94 170.3,-215.08 182,-200 198.35,-178.93 200.55,-171.11 206,-145 207.73,-136.73 208.27,-134.13 206,-126 203.24,-116.12 197.61,-106.25 192.21,-98.32"/>
<polygon fill="#63b8ff" stroke="#63b8ff" points="194.87,-96.04 186.15,-90.03 189.22,-100.17 194.87,-96.04"/>
</a>
</g>
<g id="a_edge2&#45;headlabel"><a xlink:href="dir_000050_000101.html" target="_top" xlink:title="7">
<text text-anchor="middle" x="199.29" y="-94.77" font-family="Helvetica,sans-Serif" font-size="10.00" fill="#63b8ff">7</text>
</a>
</g>
</g>
<!-- dir_23c15cb36468dc16ec328f258c45a386 -->
<g id="node7" class="node">
<title>dir_23c15cb36468dc16ec328f258c45a386</title>
<g id="a_node7"><a xlink:href="dir_23c15cb36468dc16ec328f258c45a386.html" target="_top" xlink:title="serialize">
<polygon fill="#fdaf60" stroke="#404040" points="134,-90 76,-90 76,-71 134,-71 134,-90"/>
<text text-anchor="middle" x="105" y="-78" font-family="Helvetica,sans-Serif" font-size="10.00">serialize</text>
</a>
</g>
</g>
<!-- dir_e5d739089ab2f029c385362e3cd8d126&#45;&gt;dir_23c15cb36468dc16ec328f258c45a386 -->
<g id="edge4" class="edge">
<title>dir_e5d739089ab2f029c385362e3cd8d126&#45;&gt;dir_23c15cb36468dc16ec328f258c45a386</title>
<g id="a_edge4"><a xlink:href="dir_000050_000115.html" target="_top">
<path fill="none" stroke="#63b8ff" d="M106.65,-235.88C93.21,-228.46 75.98,-216.36 68,-200 51.23,-165.63 75.48,-121.97 91.95,-98.42"/>
<polygon fill="#63b8ff" stroke="#63b8ff" points="94.9,-100.31 97.98,-90.17 89.25,-96.17 94.9,-100.31"/>
</a>
</g>
<g id="a_edge4&#45;headlabel"><a xlink:href="dir_000050_000115.html" target="_top" xlink:title="9">
<text text-anchor="middle" x="95.07" y="-102.38" font-family="Helvetica,sans-Serif" font-size="10.00" fill="#63b8ff">9</text>
</a>
</g>
</g>
<!-- dir_227832b22ab05b0e33cd3f1313eabb65 -->
<g id="node8" class="node">
<title>dir_227832b22ab05b0e33cd3f1313eabb65</title>
<g id="a_node8"><a xlink:href="dir_227832b22ab05b0e33cd3f1313eabb65.html" target="_top" xlink:title="yaml">
<polygon fill="#fdaf60" stroke="#404040" points="117.5,-200 76.5,-200 76.5,-181 117.5,-181 117.5,-200"/>
<text text-anchor="middle" x="97" y="-188" font-family="Helvetica,sans-Serif" font-size="10.00">yaml</text>
</a>
</g>
</g>
<!-- dir_e5d739089ab2f029c385362e3cd8d126&#45;&gt;dir_227832b22ab05b0e33cd3f1313eabb65 -->
<g id="edge3" class="edge">
<title>dir_e5d739089ab2f029c385362e3cd8d126&#45;&gt;dir_227832b22ab05b0e33cd3f1313eabb65</title>
<g id="a_edge3"><a xlink:href="dir_000050_000157.html" target="_top">
<path fill="none" stroke="#63b8ff" d="M120.38,-235.75C116.54,-228.49 110.98,-217.95 106.24,-208.98"/>
<polygon fill="#63b8ff" stroke="#63b8ff" points="109.3,-207.3 101.54,-200.09 103.11,-210.57 109.3,-207.3"/>
</a>
</g>
<g id="a_edge3&#45;headlabel"><a xlink:href="dir_000050_000157.html" target="_top" xlink:title="6">
<text text-anchor="middle" x="113.49" y="-206.65" font-family="Helvetica,sans-Serif" font-size="10.00" fill="#63b8ff">6</text>
</a>
</g>
</g>
<!-- dir_efd27ce7c10cb1e5e16c82ebbb233a32 -->
<g id="node4" class="node">
<title>dir_efd27ce7c10cb1e5e16c82ebbb233a32</title>
<g id="a_node4"><a xlink:href="dir_efd27ce7c10cb1e5e16c82ebbb233a32.html" target="_top" xlink:title="common">
<polygon fill="#fdaf60" stroke="#404040" points="175.5,-145 116.5,-145 116.5,-126 175.5,-126 175.5,-145"/>
<text text-anchor="middle" x="146" y="-133" font-family="Helvetica,sans-Serif" font-size="10.00">common</text>
</a>
</g>
</g>
<!-- dir_efd27ce7c10cb1e5e16c82ebbb233a32&#45;&gt;dir_257c7dd21ee5674f3b200d28efeb46c0 -->
<g id="edge7" class="edge">
<title>dir_efd27ce7c10cb1e5e16c82ebbb233a32&#45;&gt;dir_257c7dd21ee5674f3b200d28efeb46c0</title>
<g id="a_edge7"><a xlink:href="dir_000020_000155.html" target="_top">
<path fill="none" stroke="#63b8ff" d="M118.25,-125.92C100.74,-119.04 79.21,-107.58 67,-90 57.95,-76.97 55.87,-58.82 55.81,-45.26"/>
<polygon fill="#63b8ff" stroke="#63b8ff" points="59.31,-45.27 56.12,-35.17 52.31,-45.05 59.31,-45.27"/>
</a>
</g>
<g id="a_edge7&#45;headlabel"><a xlink:href="dir_000020_000155.html" target="_top" xlink:title="3">
<text text-anchor="middle" x="62.03" y="-46.45" font-family="Helvetica,sans-Serif" font-size="10.00" fill="#63b8ff">3</text>
</a>
</g>
</g>
<!-- dir_efd27ce7c10cb1e5e16c82ebbb233a32&#45;&gt;dir_43758eace6093c93b1a9e9554aba0822 -->
<g id="edge8" class="edge">
<title>dir_efd27ce7c10cb1e5e16c82ebbb233a32&#45;&gt;dir_43758eace6093c93b1a9e9554aba0822</title>
<g id="a_edge8"><a xlink:href="dir_000020_000021.html" target="_top">
<path fill="none" stroke="#63b8ff" d="M166.09,-125.88C180.7,-118.53 199.65,-106.51 210,-90 218.34,-76.69 220.53,-58.82 220.82,-45.42"/>
<polygon fill="#63b8ff" stroke="#63b8ff" points="224.31,-44.99 220.68,-35.04 217.31,-45.08 224.31,-44.99"/>
</a>
</g>
<g id="a_edge8&#45;headlabel"><a xlink:href="dir_000020_000021.html" target="_top" xlink:title="1">
<text text-anchor="middle" x="227.2" y="-46.05" font-family="Helvetica,sans-Serif" font-size="10.00" fill="#63b8ff">1</text>
</a>
</g>
</g>
<!-- dir_efd27ce7c10cb1e5e16c82ebbb233a32&#45;&gt;dir_21df508d69b23d4739d18ebf8f3a190b -->
<g id="edge5" class="edge">
<title>dir_efd27ce7c10cb1e5e16c82ebbb233a32&#45;&gt;dir_21df508d69b23d4739d18ebf8f3a190b</title>
<g id="a_edge5"><a xlink:href="dir_000020_000101.html" target="_top">
<path fill="none" stroke="#63b8ff" d="M146.28,-125.75C149.34,-118.26 155.79,-107.28 162.33,-98.13"/>
<polygon fill="#63b8ff" stroke="#63b8ff" points="165.19,-100.15 168.52,-90.09 159.65,-95.88 165.19,-100.15"/>
</a>
</g>
<g id="a_edge5&#45;headlabel"><a xlink:href="dir_000020_000101.html" target="_top" xlink:title="1">
<text text-anchor="middle" x="165.25" y="-102.23" font-family="Helvetica,sans-Serif" font-size="10.00" fill="#63b8ff">1</text>
</a>
</g>
</g>
<!-- dir_efd27ce7c10cb1e5e16c82ebbb233a32&#45;&gt;dir_23c15cb36468dc16ec328f258c45a386 -->
<g id="edge6" class="edge">
<title>dir_efd27ce7c10cb1e5e16c82ebbb233a32&#45;&gt;dir_23c15cb36468dc16ec328f258c45a386</title>
<g id="a_edge6"><a xlink:href="dir_000020_000115.html" target="_top">
<path fill="none" stroke="#63b8ff" d="M134.06,-125.75C126.82,-118.42 118.15,-107.73 111.94,-98.7"/>
<polygon fill="#63b8ff" stroke="#63b8ff" points="114.81,-96.68 106.51,-90.09 108.88,-100.42 114.81,-96.68"/>
</a>
</g>
<g id="a_edge6&#45;headlabel"><a xlink:href="dir_000020_000115.html" target="_top" xlink:title="1">
<text text-anchor="middle" x="119.12" y="-95.71" font-family="Helvetica,sans-Serif" font-size="10.00" fill="#63b8ff">1</text>
</a>
</g>
</g>
<!-- dir_0ff24befbf8b818075ce0110e6c83a25&#45;&gt;dir_257c7dd21ee5674f3b200d28efeb46c0 -->
<g id="edge11" class="edge">
<title>dir_0ff24befbf8b818075ce0110e6c83a25&#45;&gt;dir_257c7dd21ee5674f3b200d28efeb46c0</title>
<g id="a_edge11"><a xlink:href="dir_000086_000155.html" target="_top">
<path fill="none" stroke="#63b8ff" d="M138.93,-180.92C114.73,-166.11 68.39,-133.12 53,-90 47.83,-75.52 49.47,-58.01 52.03,-45.04"/>
<polygon fill="#63b8ff" stroke="#63b8ff" points="55.51,-45.55 54.38,-35.02 48.7,-43.95 55.51,-45.55"/>
</a>
</g>
<g id="a_edge11&#45;headlabel"><a xlink:href="dir_000086_000155.html" target="_top" xlink:title="9">
<text text-anchor="middle" x="57.46" y="-47.2" font-family="Helvetica,sans-Serif" font-size="10.00" fill="#63b8ff">9</text>
</a>
</g>
</g>
<!-- dir_0ff24befbf8b818075ce0110e6c83a25&#45;&gt;dir_43758eace6093c93b1a9e9554aba0822 -->
<g id="edge12" class="edge">
<title>dir_0ff24befbf8b818075ce0110e6c83a25&#45;&gt;dir_43758eace6093c93b1a9e9554aba0822</title>
<g id="a_edge12"><a xlink:href="dir_000086_000021.html" target="_top">
<path fill="none" stroke="#63b8ff" d="M168.59,-180.76C180.46,-172.88 196.72,-160.22 206,-145 224.9,-114 224.48,-69.91 222.34,-45.18"/>
<polygon fill="#63b8ff" stroke="#63b8ff" points="225.8,-44.59 221.26,-35.02 218.84,-45.33 225.8,-44.59"/>
</a>
</g>
<g id="a_edge12&#45;headlabel"><a xlink:href="dir_000086_000021.html" target="_top" xlink:title="1">
<text text-anchor="middle" x="229" y="-45.37" font-family="Helvetica,sans-Serif" font-size="10.00" fill="#63b8ff">1</text>
</a>
</g>
</g>
<!-- dir_0ff24befbf8b818075ce0110e6c83a25&#45;&gt;dir_efd27ce7c10cb1e5e16c82ebbb233a32 -->
<g id="edge13" class="edge">
<title>dir_0ff24befbf8b818075ce0110e6c83a25&#45;&gt;dir_efd27ce7c10cb1e5e16c82ebbb233a32</title>
<g id="a_edge13"><a xlink:href="dir_000086_000020.html" target="_top">
<path fill="none" stroke="#63b8ff" d="M152.68,-180.75C151.63,-173.8 150.13,-163.85 148.81,-155.13"/>
<polygon fill="#63b8ff" stroke="#63b8ff" points="152.25,-154.45 147.3,-145.09 145.33,-155.5 152.25,-154.45"/>
</a>
</g>
<g id="a_edge13&#45;headlabel"><a xlink:href="dir_000086_000020.html" target="_top" xlink:title="6">
<text text-anchor="middle" x="155.59" y="-155.09" font-family="Helvetica,sans-Serif" font-size="10.00" fill="#63b8ff">6</text>
</a>
</g>
</g>
<!-- dir_0ff24befbf8b818075ce0110e6c83a25&#45;&gt;dir_21df508d69b23d4739d18ebf8f3a190b -->
<g id="edge9" class="edge">
<title>dir_0ff24befbf8b818075ce0110e6c83a25&#45;&gt;dir_21df508d69b23d4739d18ebf8f3a190b</title>
<g id="a_edge9"><a xlink:href="dir_000086_000101.html" target="_top">
<path fill="none" stroke="#63b8ff" d="M167.78,-180.82C178.82,-172.99 193.49,-160.35 200,-145 206.49,-129.69 199.15,-111.63 191.41,-98.7"/>
<polygon fill="#63b8ff" stroke="#63b8ff" points="194.32,-96.74 185.91,-90.29 188.46,-100.58 194.32,-96.74"/>
</a>
</g>
<g id="a_edge9&#45;headlabel"><a xlink:href="dir_000086_000101.html" target="_top" xlink:title="2">
<text text-anchor="middle" x="198.66" y="-95.69" font-family="Helvetica,sans-Serif" font-size="10.00" fill="#63b8ff">2</text>
</a>
</g>
</g>
<!-- dir_0ff24befbf8b818075ce0110e6c83a25&#45;&gt;dir_23c15cb36468dc16ec328f258c45a386 -->
<g id="edge10" class="edge">
<title>dir_0ff24befbf8b818075ce0110e6c83a25&#45;&gt;dir_23c15cb36468dc16ec328f258c45a386</title>
<g id="a_edge10"><a xlink:href="dir_000086_000115.html" target="_top">
<path fill="none" stroke="#63b8ff" d="M140.4,-180.74C129.48,-172.85 114.87,-160.19 108,-145 101.67,-131 101.34,-113.45 102.35,-100.35"/>
<polygon fill="#63b8ff" stroke="#63b8ff" points="105.86,-100.5 103.47,-90.18 98.9,-99.74 105.86,-100.5"/>
</a>
</g>
<g id="a_edge10&#45;headlabel"><a xlink:href="dir_000086_000115.html" target="_top" xlink:title="5">
<text text-anchor="middle" x="108.28" y="-101.89" font-family="Helvetica,sans-Serif" font-size="10.00" fill="#63b8ff">5</text>
</a>
</g>
</g>
<!-- dir_21df508d69b23d4739d18ebf8f3a190b&#45;&gt;dir_257c7dd21ee5674f3b200d28efeb46c0 -->
<g id="edge14" class="edge">
<title>dir_21df508d69b23d4739d18ebf8f3a190b&#45;&gt;dir_257c7dd21ee5674f3b200d28efeb46c0</title>
<g id="a_edge14"><a xlink:href="dir_000101_000155.html" target="_top">
<path fill="none" stroke="#63b8ff" d="M160.36,-70.84C154.79,-68.28 148.66,-65.5 143,-63 123.9,-54.57 102.26,-45.39 85.47,-38.34"/>
<polygon fill="#63b8ff" stroke="#63b8ff" points="86.77,-35.09 76.2,-34.46 84.07,-41.55 86.77,-35.09"/>
</a>
</g>
<g id="a_edge14&#45;headlabel"><a xlink:href="dir_000101_000155.html" target="_top" xlink:title="7">
<text text-anchor="middle" x="91.18" y="-31.36" font-family="Helvetica,sans-Serif" font-size="10.00" fill="#63b8ff">7</text>
</a>
</g>
</g>
<!-- dir_21df508d69b23d4739d18ebf8f3a190b&#45;&gt;dir_43758eace6093c93b1a9e9554aba0822 -->
<g id="edge15" class="edge">
<title>dir_21df508d69b23d4739d18ebf8f3a190b&#45;&gt;dir_43758eace6093c93b1a9e9554aba0822</title>
<g id="a_edge15"><a xlink:href="dir_000101_000021.html" target="_top">
<path fill="none" stroke="#63b8ff" d="M185.77,-70.75C191.56,-63.26 200.06,-52.28 207.14,-43.13"/>
<polygon fill="#63b8ff" stroke="#63b8ff" points="210.01,-45.14 213.36,-35.09 204.47,-40.86 210.01,-45.14"/>
</a>
</g>
<g id="a_edge15&#45;headlabel"><a xlink:href="dir_000101_000021.html" target="_top" xlink:title="2">
<text text-anchor="middle" x="210.05" y="-47.22" font-family="Helvetica,sans-Serif" font-size="10.00" fill="#63b8ff">2</text>
</a>
</g>
</g>
<!-- dir_21df508d69b23d4739d18ebf8f3a190b&#45;&gt;dir_efd27ce7c10cb1e5e16c82ebbb233a32 -->
<g id="edge16" class="edge">
<title>dir_21df508d69b23d4739d18ebf8f3a190b&#45;&gt;dir_efd27ce7c10cb1e5e16c82ebbb233a32</title>
<g id="a_edge16"><a xlink:href="dir_000101_000020.html" target="_top">
<path fill="none" stroke="#63b8ff" d="M178.78,-90.09C175.78,-97.52 169.35,-108.5 162.81,-117.67"/>
<polygon fill="#63b8ff" stroke="#63b8ff" points="159.93,-115.68 156.62,-125.75 165.48,-119.94 159.93,-115.68"/>
</a>
</g>
<g id="a_edge16&#45;headlabel"><a xlink:href="dir_000101_000020.html" target="_top" xlink:title="4">
<text text-anchor="middle" x="159.86" y="-108.6" font-family="Helvetica,sans-Serif" font-size="10.00" fill="#63b8ff">4</text>
</a>
</g>
</g>
<!-- dir_23c15cb36468dc16ec328f258c45a386&#45;&gt;dir_257c7dd21ee5674f3b200d28efeb46c0 -->
<g id="edge17" class="edge">
<title>dir_23c15cb36468dc16ec328f258c45a386&#45;&gt;dir_257c7dd21ee5674f3b200d28efeb46c0</title>
<g id="a_edge17"><a xlink:href="dir_000115_000155.html" target="_top">
<path fill="none" stroke="#63b8ff" d="M97.07,-70.75C90.15,-63.11 79.93,-51.82 71.55,-42.56"/>
<polygon fill="#63b8ff" stroke="#63b8ff" points="74.09,-40.15 64.78,-35.09 68.9,-44.85 74.09,-40.15"/>
</a>
</g>
<g id="a_edge17&#45;headlabel"><a xlink:href="dir_000115_000155.html" target="_top" xlink:title="3">
<text text-anchor="middle" x="78.6" y="-38.41" font-family="Helvetica,sans-Serif" font-size="10.00" fill="#63b8ff">3</text>
</a>
</g>
</g>
<!-- dir_23c15cb36468dc16ec328f258c45a386&#45;&gt;dir_efd27ce7c10cb1e5e16c82ebbb233a32 -->
<g id="edge18" class="edge">
<title>dir_23c15cb36468dc16ec328f258c45a386&#45;&gt;dir_efd27ce7c10cb1e5e16c82ebbb233a32</title>
<g id="a_edge18"><a xlink:href="dir_000115_000020.html" target="_top">
<path fill="none" stroke="#63b8ff" d="M116.78,-90.09C124,-97.37 132.68,-108.04 138.92,-117.1"/>
<polygon fill="#63b8ff" stroke="#63b8ff" points="136.09,-119.17 144.4,-125.75 142.01,-115.43 136.09,-119.17"/>
</a>
</g>
<g id="a_edge18&#45;headlabel"><a xlink:href="dir_000115_000020.html" target="_top" xlink:title="3">
<text text-anchor="middle" x="131.77" y="-115.15" font-family="Helvetica,sans-Serif" font-size="10.00" fill="#63b8ff">3</text>
</a>
</g>
</g>
<!-- dir_227832b22ab05b0e33cd3f1313eabb65&#45;&gt;dir_257c7dd21ee5674f3b200d28efeb46c0 -->
<g id="edge21" class="edge">
<title>dir_227832b22ab05b0e33cd3f1313eabb65&#45;&gt;dir_257c7dd21ee5674f3b200d28efeb46c0</title>
<g id="a_edge21"><a xlink:href="dir_000157_000155.html" target="_top">
<path fill="none" stroke="#63b8ff" d="M76.47,-181.7C61.14,-174.65 41.31,-162.66 32,-145 15,-112.76 21.22,-97.81 32,-63 34.15,-56.07 38.12,-49.28 42.27,-43.47"/>
<polygon fill="#63b8ff" stroke="#63b8ff" points="45.28,-45.3 48.71,-35.28 39.78,-40.98 45.28,-45.3"/>
</a>
</g>
<g id="a_edge21&#45;headlabel"><a xlink:href="dir_000157_000155.html" target="_top" xlink:title="4">
<text text-anchor="middle" x="45.29" y="-47.38" font-family="Helvetica,sans-Serif" font-size="10.00" fill="#63b8ff">4</text>
</a>
</g>
</g>
<!-- dir_227832b22ab05b0e33cd3f1313eabb65&#45;&gt;dir_efd27ce7c10cb1e5e16c82ebbb233a32 -->
<g id="edge22" class="edge">
<title>dir_227832b22ab05b0e33cd3f1313eabb65&#45;&gt;dir_efd27ce7c10cb1e5e16c82ebbb233a32</title>
<g id="a_edge22"><a xlink:href="dir_000157_000020.html" target="_top">
<path fill="none" stroke="#63b8ff" d="M105.09,-180.75C112.16,-173.11 122.59,-161.82 131.15,-152.56"/>
<polygon fill="#63b8ff" stroke="#63b8ff" points="133.84,-154.81 138.06,-145.09 128.7,-150.06 133.84,-154.81"/>
</a>
</g>
<g id="a_edge22&#45;headlabel"><a xlink:href="dir_000157_000020.html" target="_top" xlink:title="5">
<text text-anchor="middle" x="133.49" y="-156.87" font-family="Helvetica,sans-Serif" font-size="10.00" fill="#63b8ff">5</text>
</a>
</g>
</g>
<!-- dir_227832b22ab05b0e33cd3f1313eabb65&#45;&gt;dir_21df508d69b23d4739d18ebf8f3a190b -->
<g id="edge19" class="edge">
<title>dir_227832b22ab05b0e33cd3f1313eabb65&#45;&gt;dir_21df508d69b23d4739d18ebf8f3a190b</title>
<g id="a_edge19"><a xlink:href="dir_000157_000101.html" target="_top">
<path fill="none" stroke="#63b8ff" d="M117.54,-182C141.07,-172.95 177.38,-157.4 185,-145 193.33,-131.45 190.43,-113.12 186.27,-99.64"/>
<polygon fill="#63b8ff" stroke="#63b8ff" points="189.51,-98.3 182.86,-90.05 182.91,-100.64 189.51,-98.3"/>
</a>
</g>
<g id="a_edge19&#45;headlabel"><a xlink:href="dir_000157_000101.html" target="_top" xlink:title="2">
<text text-anchor="middle" x="193.39" y="-98.23" font-family="Helvetica,sans-Serif" font-size="10.00" fill="#63b8ff">2</text>
</a>
</g>
</g>
<!-- dir_227832b22ab05b0e33cd3f1313eabb65&#45;&gt;dir_23c15cb36468dc16ec328f258c45a386 -->
<g id="edge20" class="edge">
<title>dir_227832b22ab05b0e33cd3f1313eabb65&#45;&gt;dir_23c15cb36468dc16ec328f258c45a386</title>
<g id="a_edge20"><a xlink:href="dir_000157_000115.html" target="_top">
<path fill="none" stroke="#63b8ff" d="M95.11,-180.83C92.72,-168.57 89.21,-145.49 92,-126 93.25,-117.24 95.83,-107.79 98.36,-99.86"/>
<polygon fill="#63b8ff" stroke="#63b8ff" points="101.74,-100.8 101.66,-90.2 95.12,-98.54 101.74,-100.8"/>
</a>
</g>
<g id="a_edge20&#45;headlabel"><a xlink:href="dir_000157_000115.html" target="_top" xlink:title="1">
<text text-anchor="middle" x="103.27" y="-102.62" font-family="Helvetica,sans-Serif" font-size="10.00" fill="#63b8ff">1</text>
</a>
</g>
</g>
</g>
</svg>
