<?xml version="1.0" encoding="UTF-8" standalone="no"?>
<!DOCTYPE svg PUBLIC "-//W3C//DTD SVG 1.1//EN"
 "http://www.w3.org/Graphics/SVG/1.1/DTD/svg11.dtd">
<!-- Generated by graphviz version 2.43.0 (0)
 -->
<!-- Title: userver/storages/clickhouse Pages: 1 -->
<svg width="250pt" height="180pt"
 viewBox="0.00 0.00 250.12 180.00" xmlns="http://www.w3.org/2000/svg" xmlns:xlink="http://www.w3.org/1999/xlink">
<g id="graph0" class="graph" transform="scale(1 1) rotate(0) translate(4 176)">
<title>userver/storages/clickhouse</title>
<g id="clust1" class="cluster">
<title>clusterdir_2fe42423b78867205eaf34496448b22e</title>
<g id="a_clust1"><a xlink:href="dir_2fe42423b78867205eaf34496448b22e.html" target="_top" xlink:title="storages">
<polygon fill="#feefdf" stroke="#7f7f7f" stroke-dasharray="5,2" points="8,-39 8,-164 164,-164 164,-39 8,-39"/>
<text text-anchor="middle" x="86" y="-152" font-family="Helvetica,sans-Serif" font-size="10.00">storages</text>
</a>
</g>
</g>
<g id="clust2" class="cluster">
<title>clusterdir_0a1fc742c525dc86edc5601bad65e573</title>
<g id="a_clust2"><a xlink:href="dir_0a1fc742c525dc86edc5601bad65e573.html" target="_top">
<polygon fill="#feefdf" stroke="#404040" stroke-width="2" points="16,-47 16,-137 156,-137 156,-47 16,-47"/>
</a>
</g>
</g>
<!-- dir_0a1fc742c525dc86edc5601bad65e573 -->
<g id="node1" class="node">
<title>dir_0a1fc742c525dc86edc5601bad65e573</title>
<text text-anchor="middle" x="114" y="-117" font-family="Helvetica,sans-Serif" font-size="10.00">clickhouse</text>
</g>
<!-- dir_26f8c63b8c67b2ed6c1b7078f08f1e18 -->
<g id="node4" class="node">
<title>dir_26f8c63b8c67b2ed6c1b7078f08f1e18</title>
<g id="a_node4"><a xlink:href="dir_26f8c63b8c67b2ed6c1b7078f08f1e18.html" target="_top" xlink:title="userver">
<polygon fill="#feefdf" stroke="red" points="225.5,-74 172.5,-74 172.5,-55 225.5,-55 225.5,-74"/>
<text text-anchor="middle" x="199" y="-62" font-family="Helvetica,sans-Serif" font-size="10.00">userver</text>
</a>
</g>
</g>
<!-- dir_0a1fc742c525dc86edc5601bad65e573&#45;&gt;dir_26f8c63b8c67b2ed6c1b7078f08f1e18 -->
<g id="edge1" class="edge">
<title>dir_0a1fc742c525dc86edc5601bad65e573&#45;&gt;dir_26f8c63b8c67b2ed6c1b7078f08f1e18</title>
<g id="a_edge1"><a xlink:href="dir_000015_000140.html" target="_top">
<path fill="none" stroke="#63b8ff" d="M127.66,-109.98C140.84,-101.77 161.03,-89.18 176.57,-79.49"/>
<polygon fill="#63b8ff" stroke="#63b8ff" points="178.46,-82.43 185.09,-74.17 174.76,-76.49 178.46,-82.43"/>
</a>
</g>
<g id="a_edge1&#45;headlabel"><a xlink:href="dir_000015_000140.html" target="_top" xlink:title="5">
<text text-anchor="middle" x="176.91" y="-84.24" font-family="Helvetica,sans-Serif" font-size="10.00" fill="#63b8ff">5</text>
</a>
</g>
</g>
<!-- dir_a7364e945deb3de9e65ddca50507f79f -->
<g id="node5" class="node">
<title>dir_a7364e945deb3de9e65ddca50507f79f</title>
<g id="a_node5"><a xlink:href="dir_a7364e945deb3de9e65ddca50507f79f.html" target="_top" xlink:title="userver">
<polygon fill="#feefdf" stroke="red" points="112.5,-19 59.5,-19 59.5,0 112.5,0 112.5,-19"/>
<text text-anchor="middle" x="86" y="-7" font-family="Helvetica,sans-Serif" font-size="10.00">userver</text>
</a>
</g>
</g>
<!-- dir_0a1fc742c525dc86edc5601bad65e573&#45;&gt;dir_a7364e945deb3de9e65ddca50507f79f -->
<g id="edge2" class="edge">
<title>dir_0a1fc742c525dc86edc5601bad65e573&#45;&gt;dir_a7364e945deb3de9e65ddca50507f79f</title>
<g id="a_edge2"><a xlink:href="dir_000015_000149.html" target="_top">
<path fill="none" stroke="#63b8ff" d="M148.05,-116.25C176.53,-112.36 215.53,-101.9 235,-74 243.9,-61.24 244.91,-50.99 235,-39 221.02,-22.09 162.12,-15.12 122.7,-12.31"/>
<polygon fill="#63b8ff" stroke="#63b8ff" points="122.85,-8.82 112.64,-11.66 122.39,-15.8 122.85,-8.82"/>
</a>
</g>
<g id="a_edge2&#45;headlabel"><a xlink:href="dir_000015_000149.html" target="_top" xlink:title="10">
<text text-anchor="middle" x="126.62" y="-3.72" font-family="Helvetica,sans-Serif" font-size="10.00" fill="#63b8ff">10</text>
</a>
</g>
</g>
<!-- dir_caf9b6ceeb994f013fa16410071dc927 -->
<g id="node2" class="node">
<title>dir_caf9b6ceeb994f013fa16410071dc927</title>
<g id="a_node2"><a xlink:href="dir_caf9b6ceeb994f013fa16410071dc927.html" target="_top" xlink:title="impl">
<polygon fill="#fdaf60" stroke="#404040" points="62,-129 24,-129 24,-110 62,-110 62,-129"/>
<text text-anchor="middle" x="43" y="-117" font-family="Helvetica,sans-Serif" font-size="10.00">impl</text>
</a>
</g>
</g>
<!-- dir_6e2baad16fba7c7864573387bbc4359f -->
<g id="node3" class="node">
<title>dir_6e2baad16fba7c7864573387bbc4359f</title>
<g id="a_node3"><a xlink:href="dir_6e2baad16fba7c7864573387bbc4359f.html" target="_top" xlink:title="io">
<polygon fill="#fdaf60" stroke="#404040" points="57.5,-74 28.5,-74 28.5,-55 57.5,-55 57.5,-74"/>
<text text-anchor="middle" x="43" y="-62" font-family="Helvetica,sans-Serif" font-size="10.00">io</text>
</a>
</g>
</g>
<!-- dir_caf9b6ceeb994f013fa16410071dc927&#45;&gt;dir_6e2baad16fba7c7864573387bbc4359f -->
<g id="edge4" class="edge">
<title>dir_caf9b6ceeb994f013fa16410071dc927&#45;&gt;dir_6e2baad16fba7c7864573387bbc4359f</title>
<g id="a_edge4"><a xlink:href="dir_000059_000082.html" target="_top">
<path fill="none" stroke="#63b8ff" d="M43,-109.75C43,-102.8 43,-92.85 43,-84.13"/>
<polygon fill="#63b8ff" stroke="#63b8ff" points="46.5,-84.09 43,-74.09 39.5,-84.09 46.5,-84.09"/>
</a>
</g>
<g id="a_edge4&#45;headlabel"><a xlink:href="dir_000059_000082.html" target="_top" xlink:title="3">
<text text-anchor="middle" x="49.34" y="-85.18" font-family="Helvetica,sans-Serif" font-size="10.00" fill="#63b8ff">3</text>
</a>
</g>
</g>
<!-- dir_caf9b6ceeb994f013fa16410071dc927&#45;&gt;dir_26f8c63b8c67b2ed6c1b7078f08f1e18 -->
<g id="edge3" class="edge">
<title>dir_caf9b6ceeb994f013fa16410071dc927&#45;&gt;dir_26f8c63b8c67b2ed6c1b7078f08f1e18</title>
<g id="a_edge3"><a xlink:href="dir_000059_000140.html" target="_top">
<path fill="none" stroke="#63b8ff" d="M62.13,-112C87.46,-103.4 132.59,-88.06 164.07,-77.37"/>
<polygon fill="#63b8ff" stroke="#63b8ff" points="165.43,-80.6 173.77,-74.07 163.18,-73.97 165.43,-80.6"/>
</a>
</g>
<g id="a_edge3&#45;headlabel"><a xlink:href="dir_000059_000140.html" target="_top" xlink:title="1">
<text text-anchor="middle" x="162.94" y="-81.95" font-family="Helvetica,sans-Serif" font-size="10.00" fill="#63b8ff">1</text>
</a>
</g>
</g>
<!-- dir_caf9b6ceeb994f013fa16410071dc927&#45;&gt;dir_a7364e945deb3de9e65ddca50507f79f -->
<g id="edge5" class="edge">
<title>dir_caf9b6ceeb994f013fa16410071dc927&#45;&gt;dir_a7364e945deb3de9e65ddca50507f79f</title>
<g id="a_edge5"><a xlink:href="dir_000059_000149.html" target="_top">
<path fill="none" stroke="#63b8ff" d="M48.33,-109.89C53.59,-101.11 61.63,-86.98 67,-74 73.06,-59.36 78.1,-42.1 81.46,-29.28"/>
<polygon fill="#63b8ff" stroke="#63b8ff" points="84.92,-29.87 83.97,-19.32 78.13,-28.17 84.92,-29.87"/>
</a>
</g>
<g id="a_edge5&#45;headlabel"><a xlink:href="dir_000059_000149.html" target="_top" xlink:title="1">
<text text-anchor="middle" x="86.79" y="-31.55" font-family="Helvetica,sans-Serif" font-size="10.00" fill="#63b8ff">1</text>
</a>
</g>
</g>
<!-- dir_6e2baad16fba7c7864573387bbc4359f&#45;&gt;dir_a7364e945deb3de9e65ddca50507f79f -->
<g id="edge6" class="edge">
<title>dir_6e2baad16fba7c7864573387bbc4359f&#45;&gt;dir_a7364e945deb3de9e65ddca50507f79f</title>
<g id="a_edge6"><a xlink:href="dir_000082_000149.html" target="_top">
<path fill="none" stroke="#63b8ff" d="M50.1,-54.75C56.17,-47.26 65.09,-36.28 72.51,-27.13"/>
<polygon fill="#63b8ff" stroke="#63b8ff" points="75.45,-29.06 79.03,-19.09 70.01,-24.65 75.45,-29.06"/>
</a>
</g>
<g id="a_edge6&#45;headlabel"><a xlink:href="dir_000082_000149.html" target="_top" xlink:title="8">
<text text-anchor="middle" x="75.39" y="-31.14" font-family="Helvetica,sans-Serif" font-size="10.00" fill="#63b8ff">8</text>
</a>
</g>
</g>
</g>
</svg>
