<?xml version="1.0" encoding="UTF-8" standalone="no"?>
<!DOCTYPE svg PUBLIC "-//W3C//DTD SVG 1.1//EN"
 "http://www.w3.org/Graphics/SVG/1.1/DTD/svg11.dtd">
<!-- Generated by graphviz version 2.43.0 (0)
 -->
<!-- Title: userver Pages: 1 -->
<svg width="276pt" height="153pt"
 viewBox="0.00 0.00 276.00 153.00" xmlns="http://www.w3.org/2000/svg" xmlns:xlink="http://www.w3.org/1999/xlink">
<g id="graph0" class="graph" transform="scale(1 1) rotate(0) translate(4 149)">
<title>userver</title>
<g id="clust1" class="cluster">
<title>clusterdir_6349ea87f95ea7e910bf83441f001388</title>
<g id="a_clust1"><a xlink:href="dir_6349ea87f95ea7e910bf83441f001388.html" target="_top">
<polygon fill="#feefdf" stroke="#404040" stroke-width="2" points="8,-47 8,-137 260,-137 260,-47 8,-47"/>
</a>
</g>
</g>
<!-- dir_6349ea87f95ea7e910bf83441f001388 -->
<g id="node1" class="node">
<title>dir_6349ea87f95ea7e910bf83441f001388</title>
<text text-anchor="middle" x="225" y="-117" font-family="Helvetica,sans-Serif" font-size="10.00">userver</text>
</g>
<!-- dir_3aaf350671dc1cb80fbfc6c5e6300ebc -->
<g id="node2" class="node">
<title>dir_3aaf350671dc1cb80fbfc6c5e6300ebc</title>
<g id="a_node2"><a xlink:href="dir_3aaf350671dc1cb80fbfc6c5e6300ebc.html" target="_top" xlink:title="cache">
<polygon fill="#fdaf60" stroke="#404040" points="61.5,-129 16.5,-129 16.5,-110 61.5,-110 61.5,-129"/>
<text text-anchor="middle" x="39" y="-117" font-family="Helvetica,sans-Serif" font-size="10.00">cache</text>
</a>
</g>
</g>
<!-- dir_26f8c63b8c67b2ed6c1b7078f08f1e18 -->
<g id="node6" class="node">
<title>dir_26f8c63b8c67b2ed6c1b7078f08f1e18</title>
<g id="a_node6"><a xlink:href="dir_26f8c63b8c67b2ed6c1b7078f08f1e18.html" target="_top" xlink:title="userver">
<polygon fill="#feefdf" stroke="red" points="103.5,-19 50.5,-19 50.5,0 103.5,0 103.5,-19"/>
<text text-anchor="middle" x="77" y="-7" font-family="Helvetica,sans-Serif" font-size="10.00">userver</text>
</a>
</g>
</g>
<!-- dir_3aaf350671dc1cb80fbfc6c5e6300ebc&#45;&gt;dir_26f8c63b8c67b2ed6c1b7078f08f1e18 -->
<g id="edge1" class="edge">
<title>dir_3aaf350671dc1cb80fbfc6c5e6300ebc&#45;&gt;dir_26f8c63b8c67b2ed6c1b7078f08f1e18</title>
<g id="a_edge1"><a xlink:href="dir_000011_000140.html" target="_top">
<path fill="none" stroke="#63b8ff" d="M42.11,-109.66C48.32,-92.01 62.37,-52.09 70.62,-28.64"/>
<polygon fill="#63b8ff" stroke="#63b8ff" points="73.94,-29.75 73.95,-19.16 67.33,-27.43 73.94,-29.75"/>
</a>
</g>
<g id="a_edge1&#45;headlabel"><a xlink:href="dir_000011_000140.html" target="_top" xlink:title="2">
<text text-anchor="middle" x="75.42" y="-31.59" font-family="Helvetica,sans-Serif" font-size="10.00" fill="#63b8ff">2</text>
</a>
</g>
</g>
<!-- dir_fed2b5b6fdd9e358d483ef17fb200666 -->
<g id="node3" class="node">
<title>dir_fed2b5b6fdd9e358d483ef17fb200666</title>
<g id="a_node3"><a xlink:href="dir_fed2b5b6fdd9e358d483ef17fb200666.html" target="_top" xlink:title="dump">
<polygon fill="#fdaf60" stroke="#404040" points="180,-129 136,-129 136,-110 180,-110 180,-129"/>
<text text-anchor="middle" x="158" y="-117" font-family="Helvetica,sans-Serif" font-size="10.00">dump</text>
</a>
</g>
</g>
<!-- dir_1e5c942fabacdb2b8ef35ff65792dfd8 -->
<g id="node4" class="node">
<title>dir_1e5c942fabacdb2b8ef35ff65792dfd8</title>
<g id="a_node4"><a xlink:href="dir_1e5c942fabacdb2b8ef35ff65792dfd8.html" target="_top" xlink:title="utest">
<polygon fill="#fdaf60" stroke="#404040" points="146.5,-74 105.5,-74 105.5,-55 146.5,-55 146.5,-74"/>
<text text-anchor="middle" x="126" y="-62" font-family="Helvetica,sans-Serif" font-size="10.00">utest</text>
</a>
</g>
</g>
<!-- dir_fed2b5b6fdd9e358d483ef17fb200666&#45;&gt;dir_1e5c942fabacdb2b8ef35ff65792dfd8 -->
<g id="edge2" class="edge">
<title>dir_fed2b5b6fdd9e358d483ef17fb200666&#45;&gt;dir_1e5c942fabacdb2b8ef35ff65792dfd8</title>
<g id="a_edge2"><a xlink:href="dir_000043_000150.html" target="_top">
<path fill="none" stroke="#63b8ff" d="M152.72,-109.75C148.29,-102.42 141.84,-91.73 136.38,-82.7"/>
<polygon fill="#63b8ff" stroke="#63b8ff" points="139.35,-80.84 131.19,-74.09 133.36,-84.46 139.35,-80.84"/>
</a>
</g>
<g id="a_edge2&#45;headlabel"><a xlink:href="dir_000043_000150.html" target="_top" xlink:title="1">
<text text-anchor="middle" x="143.64" y="-79.95" font-family="Helvetica,sans-Serif" font-size="10.00" fill="#63b8ff">1</text>
</a>
</g>
</g>
<!-- dir_a7364e945deb3de9e65ddca50507f79f -->
<g id="node7" class="node">
<title>dir_a7364e945deb3de9e65ddca50507f79f</title>
<g id="a_node7"><a xlink:href="dir_a7364e945deb3de9e65ddca50507f79f.html" target="_top" xlink:title="userver">
<polygon fill="#feefdf" stroke="red" points="201.5,-19 148.5,-19 148.5,0 201.5,0 201.5,-19"/>
<text text-anchor="middle" x="175" y="-7" font-family="Helvetica,sans-Serif" font-size="10.00">userver</text>
</a>
</g>
</g>
<!-- dir_fed2b5b6fdd9e358d483ef17fb200666&#45;&gt;dir_a7364e945deb3de9e65ddca50507f79f -->
<g id="edge3" class="edge">
<title>dir_fed2b5b6fdd9e358d483ef17fb200666&#45;&gt;dir_a7364e945deb3de9e65ddca50507f79f</title>
<g id="a_edge3"><a xlink:href="dir_000043_000149.html" target="_top">
<path fill="none" stroke="#63b8ff" d="M166.48,-109.85C174.05,-101.47 184.6,-88.01 189,-74 193.75,-58.87 189.07,-41.23 183.88,-28.39"/>
<polygon fill="#63b8ff" stroke="#63b8ff" points="187.07,-26.94 179.78,-19.25 180.69,-29.81 187.07,-26.94"/>
</a>
</g>
<g id="a_edge3&#45;headlabel"><a xlink:href="dir_000043_000149.html" target="_top" xlink:title="1">
<text text-anchor="middle" x="191.14" y="-26.56" font-family="Helvetica,sans-Serif" font-size="10.00" fill="#63b8ff">1</text>
</a>
</g>
</g>
<!-- dir_1e5c942fabacdb2b8ef35ff65792dfd8&#45;&gt;dir_26f8c63b8c67b2ed6c1b7078f08f1e18 -->
<g id="edge4" class="edge">
<title>dir_1e5c942fabacdb2b8ef35ff65792dfd8&#45;&gt;dir_26f8c63b8c67b2ed6c1b7078f08f1e18</title>
<g id="a_edge4"><a xlink:href="dir_000150_000140.html" target="_top">
<path fill="none" stroke="#63b8ff" d="M117.91,-54.75C110.84,-47.11 100.41,-35.82 91.85,-26.56"/>
<polygon fill="#63b8ff" stroke="#63b8ff" points="94.3,-24.06 84.94,-19.09 89.16,-28.81 94.3,-24.06"/>
</a>
</g>
<g id="a_edge4&#45;headlabel"><a xlink:href="dir_000150_000140.html" target="_top" xlink:title="5">
<text text-anchor="middle" x="98.82" y="-22.27" font-family="Helvetica,sans-Serif" font-size="10.00" fill="#63b8ff">5</text>
</a>
</g>
</g>
<!-- dir_1e5c942fabacdb2b8ef35ff65792dfd8&#45;&gt;dir_a7364e945deb3de9e65ddca50507f79f -->
<g id="edge5" class="edge">
<title>dir_1e5c942fabacdb2b8ef35ff65792dfd8&#45;&gt;dir_a7364e945deb3de9e65ddca50507f79f</title>
<g id="a_edge5"><a xlink:href="dir_000150_000149.html" target="_top">
<path fill="none" stroke="#63b8ff" d="M134.09,-54.75C141.16,-47.11 151.59,-35.82 160.15,-26.56"/>
<polygon fill="#63b8ff" stroke="#63b8ff" points="162.84,-28.81 167.06,-19.09 157.7,-24.06 162.84,-28.81"/>
</a>
</g>
<g id="a_edge5&#45;headlabel"><a xlink:href="dir_000150_000149.html" target="_top" xlink:title="6">
<text text-anchor="middle" x="162.49" y="-30.87" font-family="Helvetica,sans-Serif" font-size="10.00" fill="#63b8ff">6</text>
</a>
</g>
</g>
<!-- dir_7847989fe4a5fd1a4d25d07b8b4df2af -->
<g id="node5" class="node">
<title>dir_7847989fe4a5fd1a4d25d07b8b4df2af</title>
<g id="a_node5"><a xlink:href="dir_7847989fe4a5fd1a4d25d07b8b4df2af.html" target="_top" xlink:title="utils">
<polygon fill="#fdaf60" stroke="#404040" points="118,-129 80,-129 80,-110 118,-110 118,-129"/>
<text text-anchor="middle" x="99" y="-117" font-family="Helvetica,sans-Serif" font-size="10.00">utils</text>
</a>
</g>
</g>
<!-- dir_7847989fe4a5fd1a4d25d07b8b4df2af&#45;&gt;dir_26f8c63b8c67b2ed6c1b7078f08f1e18 -->
<g id="edge6" class="edge">
<title>dir_7847989fe4a5fd1a4d25d07b8b4df2af&#45;&gt;dir_26f8c63b8c67b2ed6c1b7078f08f1e18</title>
<g id="a_edge6"><a xlink:href="dir_000153_000140.html" target="_top">
<path fill="none" stroke="#63b8ff" d="M97.2,-109.66C93.64,-92.17 85.62,-52.8 80.82,-29.27"/>
<polygon fill="#63b8ff" stroke="#63b8ff" points="84.19,-28.26 78.76,-19.16 77.33,-29.66 84.19,-28.26"/>
</a>
</g>
<g id="a_edge6&#45;headlabel"><a xlink:href="dir_000153_000140.html" target="_top" xlink:title="3">
<text text-anchor="middle" x="87.69" y="-28.71" font-family="Helvetica,sans-Serif" font-size="10.00" fill="#63b8ff">3</text>
</a>
</g>
</g>
<!-- dir_7847989fe4a5fd1a4d25d07b8b4df2af&#45;&gt;dir_a7364e945deb3de9e65ddca50507f79f -->
<g id="edge7" class="edge">
<title>dir_7847989fe4a5fd1a4d25d07b8b4df2af&#45;&gt;dir_a7364e945deb3de9e65ddca50507f79f</title>
<g id="a_edge7"><a xlink:href="dir_000153_000149.html" target="_top">
<path fill="none" stroke="#63b8ff" d="M114.76,-109.93C127.63,-102.15 145.38,-89.55 156,-74 165.23,-60.49 170.07,-42.4 172.55,-28.98"/>
<polygon fill="#63b8ff" stroke="#63b8ff" points="176.02,-29.44 174.12,-19.02 169.1,-28.35 176.02,-29.44"/>
</a>
</g>
<g id="a_edge7&#45;headlabel"><a xlink:href="dir_000153_000149.html" target="_top" xlink:title="1">
<text text-anchor="middle" x="178.26" y="-30.93" font-family="Helvetica,sans-Serif" font-size="10.00" fill="#63b8ff">1</text>
</a>
</g>
</g>
</g>
</svg>
