<?xml version="1.0" encoding="UTF-8" standalone="no"?>
<!DOCTYPE svg PUBLIC "-//W3C//DTD SVG 1.1//EN"
 "http://www.w3.org/Graphics/SVG/1.1/DTD/svg11.dtd">
<!-- Generated by graphviz version 2.43.0 (0)
 -->
<!-- Title: userver/dynamic_config Pages: 1 -->
<svg width="540pt" height="251pt"
 viewBox="0.00 0.00 539.50 251.00" xmlns="http://www.w3.org/2000/svg" xmlns:xlink="http://www.w3.org/1999/xlink">
<g id="graph0" class="graph" transform="scale(1 1) rotate(0) translate(4 247)">
<title>userver/dynamic_config</title>
<g id="clust1" class="cluster">
<title>clusterdir_26f8c63b8c67b2ed6c1b7078f08f1e18</title>
<g id="a_clust1"><a xlink:href="dir_26f8c63b8c67b2ed6c1b7078f08f1e18.html" target="_top" xlink:title="userver">
<polygon fill="#feefdf" stroke="#404040" stroke-dasharray="5,2" points="8,-8 8,-235 470,-235 470,-8 8,-8"/>
<text text-anchor="middle" x="239" y="-223" font-family="Helvetica,sans-Serif" font-size="10.00">userver</text>
</a>
</g>
</g>
<g id="clust2" class="cluster">
<title>clusterdir_6fe6ce792de102936b3c02369b7e8bae</title>
<g id="a_clust2"><a xlink:href="dir_6fe6ce792de102936b3c02369b7e8bae.html" target="_top">
<polygon fill="#feefdf" stroke="#404040" stroke-width="2" points="82,-63 82,-208 320,-208 320,-63 82,-63"/>
</a>
</g>
</g>
<!-- dir_150bbd271f1504029fbda942e72f1022 -->
<g id="node1" class="node">
<title>dir_150bbd271f1504029fbda942e72f1022</title>
<g id="a_node1"><a xlink:href="dir_150bbd271f1504029fbda942e72f1022.html" target="_top" xlink:title="utils">
<polygon fill="#fdaf60" stroke="red" points="74,-145 36,-145 36,-126 74,-126 74,-145"/>
<text text-anchor="middle" x="55" y="-133" font-family="Helvetica,sans-Serif" font-size="10.00">utils</text>
</a>
</g>
</g>
<!-- dir_994ef2a14b32cb8134d8b7b97f08d542 -->
<g id="node2" class="node">
<title>dir_994ef2a14b32cb8134d8b7b97f08d542</title>
<g id="a_node2"><a xlink:href="dir_994ef2a14b32cb8134d8b7b97f08d542.html" target="_top" xlink:title="components">
<polygon fill="#fdaf60" stroke="red" points="159.5,-35 82.5,-35 82.5,-16 159.5,-16 159.5,-35"/>
<text text-anchor="middle" x="121" y="-23" font-family="Helvetica,sans-Serif" font-size="10.00">components</text>
</a>
</g>
</g>
<!-- dir_e64dfdcbff0f609bc29171eebbcbbcc9 -->
<g id="node3" class="node">
<title>dir_e64dfdcbff0f609bc29171eebbcbbcc9</title>
<g id="a_node3"><a xlink:href="dir_e64dfdcbff0f609bc29171eebbcbbcc9.html" target="_top" xlink:title="concurrent">
<polygon fill="#fdaf60" stroke="red" points="428,-90 360,-90 360,-71 428,-71 428,-90"/>
<text text-anchor="middle" x="394" y="-78" font-family="Helvetica,sans-Serif" font-size="10.00">concurrent</text>
</a>
</g>
</g>
<!-- dir_2c6b70c628beb7fc0194b7f508f3ad90 -->
<g id="node4" class="node">
<title>dir_2c6b70c628beb7fc0194b7f508f3ad90</title>
<g id="a_node4"><a xlink:href="dir_2c6b70c628beb7fc0194b7f508f3ad90.html" target="_top" xlink:title="cache">
<polygon fill="#fdaf60" stroke="#404040" points="441.5,-145 396.5,-145 396.5,-126 441.5,-126 441.5,-145"/>
<text text-anchor="middle" x="419" y="-133" font-family="Helvetica,sans-Serif" font-size="10.00">cache</text>
</a>
</g>
</g>
<!-- dir_486b9402482621fd641691dc37d76b53 -->
<g id="node5" class="node">
<title>dir_486b9402482621fd641691dc37d76b53</title>
<g id="a_node5"><a xlink:href="dir_486b9402482621fd641691dc37d76b53.html" target="_top" xlink:title="engine">
<polygon fill="#fdaf60" stroke="red" points="378,-145 328,-145 328,-126 378,-126 378,-145"/>
<text text-anchor="middle" x="353" y="-133" font-family="Helvetica,sans-Serif" font-size="10.00">engine</text>
</a>
</g>
</g>
<!-- dir_6fe6ce792de102936b3c02369b7e8bae -->
<g id="node6" class="node">
<title>dir_6fe6ce792de102936b3c02369b7e8bae</title>
<text text-anchor="middle" x="209" y="-188" font-family="Helvetica,sans-Serif" font-size="10.00">dynamic_config</text>
</g>
<!-- dir_6fe6ce792de102936b3c02369b7e8bae&#45;&gt;dir_150bbd271f1504029fbda942e72f1022 -->
<g id="edge1" class="edge">
<title>dir_6fe6ce792de102936b3c02369b7e8bae&#45;&gt;dir_150bbd271f1504029fbda942e72f1022</title>
<g id="a_edge1"><a xlink:href="dir_000044_000152.html" target="_top">
<path fill="none" stroke="#63b8ff" d="M182.83,-180.84C158.41,-172.7 120.71,-160.02 83.5,-146.93"/>
<polygon fill="#63b8ff" stroke="#63b8ff" points="84.66,-143.62 74.06,-143.59 82.32,-150.22 84.66,-143.62"/>
</a>
</g>
<g id="a_edge1&#45;headlabel"><a xlink:href="dir_000044_000152.html" target="_top" xlink:title="2">
<text text-anchor="middle" x="88.99" y="-139.64" font-family="Helvetica,sans-Serif" font-size="10.00" fill="#63b8ff">2</text>
</a>
</g>
</g>
<!-- dir_6fe6ce792de102936b3c02369b7e8bae&#45;&gt;dir_e64dfdcbff0f609bc29171eebbcbbcc9 -->
<g id="edge3" class="edge">
<title>dir_6fe6ce792de102936b3c02369b7e8bae&#45;&gt;dir_e64dfdcbff0f609bc29171eebbcbbcc9</title>
<g id="a_edge3"><a xlink:href="dir_000044_000023.html" target="_top">
<path fill="none" stroke="#63b8ff" d="M255.66,-182.45C323.96,-171.9 443.79,-152.46 450,-145 464.56,-127.5 441.01,-107.94 420.13,-95.21"/>
<polygon fill="#63b8ff" stroke="#63b8ff" points="421.87,-92.17 411.46,-90.2 418.37,-98.23 421.87,-92.17"/>
</a>
</g>
<g id="a_edge3&#45;headlabel"><a xlink:href="dir_000044_000023.html" target="_top" xlink:title="2">
<text text-anchor="middle" x="426.4" y="-89.01" font-family="Helvetica,sans-Serif" font-size="10.00" fill="#63b8ff">2</text>
</a>
</g>
</g>
<!-- dir_a7364e945deb3de9e65ddca50507f79f -->
<g id="node12" class="node">
<title>dir_a7364e945deb3de9e65ddca50507f79f</title>
<g id="a_node12"><a xlink:href="dir_a7364e945deb3de9e65ddca50507f79f.html" target="_top" xlink:title="userver">
<polygon fill="#feefdf" stroke="red" points="531.5,-90 478.5,-90 478.5,-71 531.5,-71 531.5,-90"/>
<text text-anchor="middle" x="505" y="-78" font-family="Helvetica,sans-Serif" font-size="10.00">userver</text>
</a>
</g>
</g>
<!-- dir_6fe6ce792de102936b3c02369b7e8bae&#45;&gt;dir_a7364e945deb3de9e65ddca50507f79f -->
<g id="edge2" class="edge">
<title>dir_6fe6ce792de102936b3c02369b7e8bae&#45;&gt;dir_a7364e945deb3de9e65ddca50507f79f</title>
<g id="a_edge2"><a xlink:href="dir_000044_000149.html" target="_top">
<path fill="none" stroke="#63b8ff" d="M255.73,-182.21C330.62,-170.44 469.64,-148.26 474,-145 488.57,-134.12 496.66,-114.55 500.89,-100"/>
<polygon fill="#63b8ff" stroke="#63b8ff" points="504.34,-100.64 503.41,-90.08 497.56,-98.91 504.34,-100.64"/>
</a>
</g>
<g id="a_edge2&#45;headlabel"><a xlink:href="dir_000044_000149.html" target="_top" xlink:title="11">
<text text-anchor="middle" x="506.2" y="-102.32" font-family="Helvetica,sans-Serif" font-size="10.00" fill="#63b8ff">11</text>
</a>
</g>
</g>
<!-- dir_05a6664772dfaaf897e460ab78028af4 -->
<g id="node7" class="node">
<title>dir_05a6664772dfaaf897e460ab78028af4</title>
<g id="a_node7"><a xlink:href="dir_05a6664772dfaaf897e460ab78028af4.html" target="_top" xlink:title="client">
<polygon fill="#fdaf60" stroke="#404040" points="240,-145 196,-145 196,-126 240,-126 240,-145"/>
<text text-anchor="middle" x="218" y="-133" font-family="Helvetica,sans-Serif" font-size="10.00">client</text>
</a>
</g>
</g>
<!-- dir_05a6664772dfaaf897e460ab78028af4&#45;&gt;dir_994ef2a14b32cb8134d8b7b97f08d542 -->
<g id="edge4" class="edge">
<title>dir_05a6664772dfaaf897e460ab78028af4&#45;&gt;dir_994ef2a14b32cb8134d8b7b97f08d542</title>
<g id="a_edge4"><a xlink:href="dir_000016_000022.html" target="_top">
<path fill="none" stroke="#63b8ff" d="M218.12,-125.97C217.87,-111.4 215.36,-81.52 200,-63 191.01,-52.16 178.09,-44.37 165.29,-38.85"/>
<polygon fill="#63b8ff" stroke="#63b8ff" points="166.19,-35.44 155.6,-35.06 163.64,-41.96 166.19,-35.44"/>
</a>
</g>
<g id="a_edge4&#45;headlabel"><a xlink:href="dir_000016_000022.html" target="_top" xlink:title="1">
<text text-anchor="middle" x="170.57" y="-31.61" font-family="Helvetica,sans-Serif" font-size="10.00" fill="#63b8ff">1</text>
</a>
</g>
</g>
<!-- dir_4a0b8f7ef673ceac6865b8ac4f9409e3 -->
<g id="node8" class="node">
<title>dir_4a0b8f7ef673ceac6865b8ac4f9409e3</title>
<g id="a_node8"><a xlink:href="dir_4a0b8f7ef673ceac6865b8ac4f9409e3.html" target="_top" xlink:title="impl">
<polygon fill="#fdaf60" stroke="#404040" points="312,-200 274,-200 274,-181 312,-181 312,-200"/>
<text text-anchor="middle" x="293" y="-188" font-family="Helvetica,sans-Serif" font-size="10.00">impl</text>
</a>
</g>
</g>
<!-- dir_4a0b8f7ef673ceac6865b8ac4f9409e3&#45;&gt;dir_a7364e945deb3de9e65ddca50507f79f -->
<g id="edge5" class="edge">
<title>dir_4a0b8f7ef673ceac6865b8ac4f9409e3&#45;&gt;dir_a7364e945deb3de9e65ddca50507f79f</title>
<g id="a_edge5"><a xlink:href="dir_000065_000149.html" target="_top">
<path fill="none" stroke="#63b8ff" d="M312.23,-188.41C359.56,-185.28 479.65,-174.54 504,-145 514.18,-132.65 513.14,-113.88 510.32,-99.95"/>
<polygon fill="#63b8ff" stroke="#63b8ff" points="513.67,-98.9 507.87,-90.03 506.87,-100.58 513.67,-98.9"/>
</a>
</g>
<g id="a_edge5&#45;headlabel"><a xlink:href="dir_000065_000149.html" target="_top" xlink:title="2">
<text text-anchor="middle" x="517.29" y="-99.2" font-family="Helvetica,sans-Serif" font-size="10.00" fill="#63b8ff">2</text>
</a>
</g>
</g>
<!-- dir_dae432e0d0164373c6da79fe3057ff2d -->
<g id="node9" class="node">
<title>dir_dae432e0d0164373c6da79fe3057ff2d</title>
<g id="a_node9"><a xlink:href="dir_dae432e0d0164373c6da79fe3057ff2d.html" target="_top" xlink:title="storage">
<polygon fill="#fdaf60" stroke="#404040" points="177.5,-145 124.5,-145 124.5,-126 177.5,-126 177.5,-145"/>
<text text-anchor="middle" x="151" y="-133" font-family="Helvetica,sans-Serif" font-size="10.00">storage</text>
</a>
</g>
</g>
<!-- dir_dae432e0d0164373c6da79fe3057ff2d&#45;&gt;dir_994ef2a14b32cb8134d8b7b97f08d542 -->
<g id="edge7" class="edge">
<title>dir_dae432e0d0164373c6da79fe3057ff2d&#45;&gt;dir_994ef2a14b32cb8134d8b7b97f08d542</title>
<g id="a_edge7"><a xlink:href="dir_000120_000022.html" target="_top">
<path fill="none" stroke="#63b8ff" d="M135.57,-125.8C123.65,-118.11 108.04,-105.69 101,-90 94.22,-74.9 101.29,-56.81 108.83,-43.82"/>
<polygon fill="#63b8ff" stroke="#63b8ff" points="111.79,-45.68 114.22,-35.37 105.89,-41.92 111.79,-45.68"/>
</a>
</g>
<g id="a_edge7&#45;headlabel"><a xlink:href="dir_000120_000022.html" target="_top" xlink:title="1">
<text text-anchor="middle" x="112.26" y="-47.74" font-family="Helvetica,sans-Serif" font-size="10.00" fill="#63b8ff">1</text>
</a>
</g>
</g>
<!-- dir_dae432e0d0164373c6da79fe3057ff2d&#45;&gt;dir_e64dfdcbff0f609bc29171eebbcbbcc9 -->
<g id="edge9" class="edge">
<title>dir_dae432e0d0164373c6da79fe3057ff2d&#45;&gt;dir_e64dfdcbff0f609bc29171eebbcbbcc9</title>
<g id="a_edge9"><a xlink:href="dir_000120_000023.html" target="_top">
<path fill="none" stroke="#63b8ff" d="M177.72,-128.13C180.85,-127.4 183.99,-126.68 187,-126 243.15,-113.34 308.06,-99.52 350,-90.69"/>
<polygon fill="#63b8ff" stroke="#63b8ff" points="350.82,-94.09 359.89,-88.61 349.38,-87.24 350.82,-94.09"/>
</a>
</g>
<g id="a_edge9&#45;headlabel"><a xlink:href="dir_000120_000023.html" target="_top" xlink:title="1">
<text text-anchor="middle" x="347.89" y="-95.11" font-family="Helvetica,sans-Serif" font-size="10.00" fill="#63b8ff">1</text>
</a>
</g>
</g>
<!-- dir_3da997a331c0854ed3f0597e9ff03ec2 -->
<g id="node11" class="node">
<title>dir_3da997a331c0854ed3f0597e9ff03ec2</title>
<g id="a_node11"><a xlink:href="dir_3da997a331c0854ed3f0597e9ff03ec2.html" target="_top" xlink:title="updates_sink">
<polygon fill="#fdaf60" stroke="#404040" points="191.5,-90 110.5,-90 110.5,-71 191.5,-71 191.5,-90"/>
<text text-anchor="middle" x="151" y="-78" font-family="Helvetica,sans-Serif" font-size="10.00">updates_sink</text>
</a>
</g>
</g>
<!-- dir_dae432e0d0164373c6da79fe3057ff2d&#45;&gt;dir_3da997a331c0854ed3f0597e9ff03ec2 -->
<g id="edge6" class="edge">
<title>dir_dae432e0d0164373c6da79fe3057ff2d&#45;&gt;dir_3da997a331c0854ed3f0597e9ff03ec2</title>
<g id="a_edge6"><a xlink:href="dir_000120_000137.html" target="_top">
<path fill="none" stroke="#63b8ff" d="M151,-125.75C151,-118.8 151,-108.85 151,-100.13"/>
<polygon fill="#63b8ff" stroke="#63b8ff" points="154.5,-100.09 151,-90.09 147.5,-100.09 154.5,-100.09"/>
</a>
</g>
<g id="a_edge6&#45;headlabel"><a xlink:href="dir_000120_000137.html" target="_top" xlink:title="1">
<text text-anchor="middle" x="157.34" y="-101.18" font-family="Helvetica,sans-Serif" font-size="10.00" fill="#63b8ff">1</text>
</a>
</g>
</g>
<!-- dir_dae432e0d0164373c6da79fe3057ff2d&#45;&gt;dir_a7364e945deb3de9e65ddca50507f79f -->
<g id="edge8" class="edge">
<title>dir_dae432e0d0164373c6da79fe3057ff2d&#45;&gt;dir_a7364e945deb3de9e65ddca50507f79f</title>
<g id="a_edge8"><a xlink:href="dir_000120_000149.html" target="_top">
<path fill="none" stroke="#63b8ff" d="M177.67,-127.87C180.8,-127.19 183.97,-126.55 187,-126 310.18,-103.8 346.03,-114.46 468.22,-91.05"/>
<polygon fill="#63b8ff" stroke="#63b8ff" points="469.2,-94.42 478.34,-89.07 467.85,-87.55 469.2,-94.42"/>
</a>
</g>
<g id="a_edge8&#45;headlabel"><a xlink:href="dir_000120_000149.html" target="_top" xlink:title="1">
<text text-anchor="middle" x="466.21" y="-95.4" font-family="Helvetica,sans-Serif" font-size="10.00" fill="#63b8ff">1</text>
</a>
</g>
</g>
<!-- dir_8fb6b2bfcd52ae2cc2387ccc03fd3fed -->
<g id="node10" class="node">
<title>dir_8fb6b2bfcd52ae2cc2387ccc03fd3fed</title>
<g id="a_node10"><a xlink:href="dir_8fb6b2bfcd52ae2cc2387ccc03fd3fed.html" target="_top" xlink:title="updater">
<polygon fill="#fdaf60" stroke="#404040" points="144,-200 90,-200 90,-181 144,-181 144,-200"/>
<text text-anchor="middle" x="117" y="-188" font-family="Helvetica,sans-Serif" font-size="10.00">updater</text>
</a>
</g>
</g>
<!-- dir_8fb6b2bfcd52ae2cc2387ccc03fd3fed&#45;&gt;dir_150bbd271f1504029fbda942e72f1022 -->
<g id="edge11" class="edge">
<title>dir_8fb6b2bfcd52ae2cc2387ccc03fd3fed&#45;&gt;dir_150bbd271f1504029fbda942e72f1022</title>
<g id="a_edge11"><a xlink:href="dir_000136_000152.html" target="_top">
<path fill="none" stroke="#63b8ff" d="M107.04,-180.98C97.87,-173.15 84.06,-161.34 72.97,-151.86"/>
<polygon fill="#63b8ff" stroke="#63b8ff" points="75.02,-149.01 65.14,-145.17 70.47,-154.33 75.02,-149.01"/>
</a>
</g>
<g id="a_edge11&#45;headlabel"><a xlink:href="dir_000136_000152.html" target="_top" xlink:title="1">
<text text-anchor="middle" x="79.6" y="-146.69" font-family="Helvetica,sans-Serif" font-size="10.00" fill="#63b8ff">1</text>
</a>
</g>
</g>
<!-- dir_8fb6b2bfcd52ae2cc2387ccc03fd3fed&#45;&gt;dir_994ef2a14b32cb8134d8b7b97f08d542 -->
<g id="edge15" class="edge">
<title>dir_8fb6b2bfcd52ae2cc2387ccc03fd3fed&#45;&gt;dir_994ef2a14b32cb8134d8b7b97f08d542</title>
<g id="a_edge15"><a xlink:href="dir_000136_000022.html" target="_top">
<path fill="none" stroke="#63b8ff" d="M89.83,-183.2C59.13,-174.51 14.92,-156.39 27,-126 41.64,-89.19 77.07,-58.13 100.01,-40.94"/>
<polygon fill="#63b8ff" stroke="#63b8ff" points="102.09,-43.75 108.12,-35.04 97.97,-38.09 102.09,-43.75"/>
</a>
</g>
<g id="a_edge15&#45;headlabel"><a xlink:href="dir_000136_000022.html" target="_top" xlink:title="1">
<text text-anchor="middle" x="100.85" y="-45.66" font-family="Helvetica,sans-Serif" font-size="10.00" fill="#63b8ff">1</text>
</a>
</g>
</g>
<!-- dir_8fb6b2bfcd52ae2cc2387ccc03fd3fed&#45;&gt;dir_2c6b70c628beb7fc0194b7f508f3ad90 -->
<g id="edge12" class="edge">
<title>dir_8fb6b2bfcd52ae2cc2387ccc03fd3fed&#45;&gt;dir_2c6b70c628beb7fc0194b7f508f3ad90</title>
<g id="a_edge12"><a xlink:href="dir_000136_000010.html" target="_top">
<path fill="none" stroke="#63b8ff" d="M144.08,-182.86C147.08,-182.2 150.1,-181.56 153,-181 253.16,-161.5 282.26,-166.22 386.37,-144.91"/>
<polygon fill="#63b8ff" stroke="#63b8ff" points="387.27,-148.3 396.35,-142.84 385.84,-141.45 387.27,-148.3"/>
</a>
</g>
<g id="a_edge12&#45;headlabel"><a xlink:href="dir_000136_000010.html" target="_top" xlink:title="3">
<text text-anchor="middle" x="384.33" y="-149.31" font-family="Helvetica,sans-Serif" font-size="10.00" fill="#63b8ff">3</text>
</a>
</g>
</g>
<!-- dir_8fb6b2bfcd52ae2cc2387ccc03fd3fed&#45;&gt;dir_486b9402482621fd641691dc37d76b53 -->
<g id="edge14" class="edge">
<title>dir_8fb6b2bfcd52ae2cc2387ccc03fd3fed&#45;&gt;dir_486b9402482621fd641691dc37d76b53</title>
<g id="a_edge14"><a xlink:href="dir_000136_000047.html" target="_top">
<path fill="none" stroke="#63b8ff" d="M144.11,-183.02C147.11,-182.33 150.12,-181.64 153,-181 225.54,-164.8 246.87,-163.98 317.85,-146.49"/>
<polygon fill="#63b8ff" stroke="#63b8ff" points="318.87,-149.85 327.73,-144.03 317.18,-143.05 318.87,-149.85"/>
</a>
</g>
<g id="a_edge14&#45;headlabel"><a xlink:href="dir_000136_000047.html" target="_top" xlink:title="1">
<text text-anchor="middle" x="316.07" y="-150.97" font-family="Helvetica,sans-Serif" font-size="10.00" fill="#63b8ff">1</text>
</a>
</g>
</g>
<!-- dir_8fb6b2bfcd52ae2cc2387ccc03fd3fed&#45;&gt;dir_05a6664772dfaaf897e460ab78028af4 -->
<g id="edge10" class="edge">
<title>dir_8fb6b2bfcd52ae2cc2387ccc03fd3fed&#45;&gt;dir_05a6664772dfaaf897e460ab78028af4</title>
<g id="a_edge10"><a xlink:href="dir_000136_000016.html" target="_top">
<path fill="none" stroke="#63b8ff" d="M133.23,-180.98C149.18,-172.61 173.78,-159.7 192.38,-149.95"/>
<polygon fill="#63b8ff" stroke="#63b8ff" points="194.25,-152.92 201.48,-145.17 191,-146.72 194.25,-152.92"/>
</a>
</g>
<g id="a_edge10&#45;headlabel"><a xlink:href="dir_000136_000016.html" target="_top" xlink:title="1">
<text text-anchor="middle" x="192.39" y="-154.6" font-family="Helvetica,sans-Serif" font-size="10.00" fill="#63b8ff">1</text>
</a>
</g>
</g>
<!-- dir_8fb6b2bfcd52ae2cc2387ccc03fd3fed&#45;&gt;dir_dae432e0d0164373c6da79fe3057ff2d -->
<g id="edge16" class="edge">
<title>dir_8fb6b2bfcd52ae2cc2387ccc03fd3fed&#45;&gt;dir_dae432e0d0164373c6da79fe3057ff2d</title>
<g id="a_edge16"><a xlink:href="dir_000136_000120.html" target="_top">
<path fill="none" stroke="#63b8ff" d="M122.61,-180.75C127.32,-173.42 134.17,-162.73 139.97,-153.7"/>
<polygon fill="#63b8ff" stroke="#63b8ff" points="143.04,-155.4 145.49,-145.09 137.14,-151.62 143.04,-155.4"/>
</a>
</g>
<g id="a_edge16&#45;headlabel"><a xlink:href="dir_000136_000120.html" target="_top" xlink:title="1">
<text text-anchor="middle" x="143.49" y="-157.45" font-family="Helvetica,sans-Serif" font-size="10.00" fill="#63b8ff">1</text>
</a>
</g>
</g>
<!-- dir_8fb6b2bfcd52ae2cc2387ccc03fd3fed&#45;&gt;dir_3da997a331c0854ed3f0597e9ff03ec2 -->
<g id="edge13" class="edge">
<title>dir_8fb6b2bfcd52ae2cc2387ccc03fd3fed&#45;&gt;dir_3da997a331c0854ed3f0597e9ff03ec2</title>
<g id="a_edge13"><a xlink:href="dir_000136_000137.html" target="_top">
<path fill="none" stroke="#63b8ff" d="M114.82,-180.98C112.06,-168.51 108.38,-144.72 115,-126 118.75,-115.41 126.21,-105.49 133.37,-97.71"/>
<polygon fill="#63b8ff" stroke="#63b8ff" points="136.28,-99.76 140.84,-90.19 131.31,-94.82 136.28,-99.76"/>
</a>
</g>
<g id="a_edge13&#45;headlabel"><a xlink:href="dir_000136_000137.html" target="_top" xlink:title="1">
<text text-anchor="middle" x="135.76" y="-101.81" font-family="Helvetica,sans-Serif" font-size="10.00" fill="#63b8ff">1</text>
</a>
</g>
</g>
<!-- dir_3da997a331c0854ed3f0597e9ff03ec2&#45;&gt;dir_994ef2a14b32cb8134d8b7b97f08d542 -->
<g id="edge17" class="edge">
<title>dir_3da997a331c0854ed3f0597e9ff03ec2&#45;&gt;dir_994ef2a14b32cb8134d8b7b97f08d542</title>
<g id="a_edge17"><a xlink:href="dir_000137_000022.html" target="_top">
<path fill="none" stroke="#63b8ff" d="M146.05,-70.75C141.94,-63.49 135.97,-52.95 130.9,-43.98"/>
<polygon fill="#63b8ff" stroke="#63b8ff" points="133.83,-42.07 125.86,-35.09 127.74,-45.52 133.83,-42.07"/>
</a>
</g>
<g id="a_edge17&#45;headlabel"><a xlink:href="dir_000137_000022.html" target="_top" xlink:title="2">
<text text-anchor="middle" x="138.08" y="-41.3" font-family="Helvetica,sans-Serif" font-size="10.00" fill="#63b8ff">2</text>
</a>
</g>
</g>
</g>
</svg>
