<?xml version="1.0" encoding="UTF-8" standalone="no"?>
<!DOCTYPE svg PUBLIC "-//W3C//DTD SVG 1.1//EN"
 "http://www.w3.org/Graphics/SVG/1.1/DTD/svg11.dtd">
<!-- Generated by graphviz version 2.43.0 (0)
 -->
<!-- Title: userver Pages: 1 -->
<svg width="225pt" height="208pt"
 viewBox="0.00 0.00 224.63 208.00" xmlns="http://www.w3.org/2000/svg" xmlns:xlink="http://www.w3.org/1999/xlink">
<g id="graph0" class="graph" transform="scale(1 1) rotate(0) translate(4 204)">
<title>userver</title>
<g id="clust1" class="cluster">
<title>clusterdir_d9c31c527b15f57a01a6820d311d3020</title>
<g id="a_clust1"><a xlink:href="dir_d9c31c527b15f57a01a6820d311d3020.html" target="_top">
<polygon fill="#feefdf" stroke="#404040" stroke-width="2" points="8,-47 8,-192 141,-192 141,-47 8,-47"/>
</a>
</g>
</g>
<!-- dir_d9c31c527b15f57a01a6820d311d3020 -->
<g id="node1" class="node">
<title>dir_d9c31c527b15f57a01a6820d311d3020</title>
<text text-anchor="middle" x="106" y="-172" font-family="Helvetica,sans-Serif" font-size="10.00">userver</text>
</g>
<!-- dir_1a4e9b65cea9e01186108ca1aaa2d3aa -->
<g id="node2" class="node">
<title>dir_1a4e9b65cea9e01186108ca1aaa2d3aa</title>
<g id="a_node2"><a xlink:href="dir_1a4e9b65cea9e01186108ca1aaa2d3aa.html" target="_top" xlink:title="cache">
<polygon fill="#fdaf60" stroke="#404040" points="61.5,-184 16.5,-184 16.5,-165 61.5,-165 61.5,-184"/>
<text text-anchor="middle" x="39" y="-172" font-family="Helvetica,sans-Serif" font-size="10.00">cache</text>
</a>
</g>
</g>
<!-- dir_4b556fc41c8475c3d0df415f20fd41dd -->
<g id="node3" class="node">
<title>dir_4b556fc41c8475c3d0df415f20fd41dd</title>
<g id="a_node3"><a xlink:href="dir_4b556fc41c8475c3d0df415f20fd41dd.html" target="_top" xlink:title="formats">
<polygon fill="#fdaf60" stroke="#404040" points="75.5,-74 20.5,-74 20.5,-55 75.5,-55 75.5,-74"/>
<text text-anchor="middle" x="48" y="-62" font-family="Helvetica,sans-Serif" font-size="10.00">formats</text>
</a>
</g>
</g>
<!-- dir_1a4e9b65cea9e01186108ca1aaa2d3aa&#45;&gt;dir_4b556fc41c8475c3d0df415f20fd41dd -->
<g id="edge3" class="edge">
<title>dir_1a4e9b65cea9e01186108ca1aaa2d3aa&#45;&gt;dir_4b556fc41c8475c3d0df415f20fd41dd</title>
<g id="a_edge3"><a xlink:href="dir_000012_000049.html" target="_top">
<path fill="none" stroke="#63b8ff" d="M39.74,-164.66C41.19,-147.17 44.47,-107.8 46.44,-84.27"/>
<polygon fill="#63b8ff" stroke="#63b8ff" points="49.94,-84.41 47.28,-74.16 42.96,-83.83 49.94,-84.41"/>
</a>
</g>
<g id="a_edge3&#45;headlabel"><a xlink:href="dir_000012_000049.html" target="_top" xlink:title="3">
<text text-anchor="middle" x="52.47" y="-85.73" font-family="Helvetica,sans-Serif" font-size="10.00" fill="#63b8ff">3</text>
</a>
</g>
</g>
<!-- dir_2e7bd111f17b8db11fe2ce128c55eaa9 -->
<g id="node4" class="node">
<title>dir_2e7bd111f17b8db11fe2ce128c55eaa9</title>
<g id="a_node4"><a xlink:href="dir_2e7bd111f17b8db11fe2ce128c55eaa9.html" target="_top" xlink:title="storages">
<polygon fill="#fdaf60" stroke="#404040" points="127.5,-129 68.5,-129 68.5,-110 127.5,-110 127.5,-129"/>
<text text-anchor="middle" x="98" y="-117" font-family="Helvetica,sans-Serif" font-size="10.00">storages</text>
</a>
</g>
</g>
<!-- dir_1a4e9b65cea9e01186108ca1aaa2d3aa&#45;&gt;dir_2e7bd111f17b8db11fe2ce128c55eaa9 -->
<g id="edge2" class="edge">
<title>dir_1a4e9b65cea9e01186108ca1aaa2d3aa&#45;&gt;dir_2e7bd111f17b8db11fe2ce128c55eaa9</title>
<g id="a_edge2"><a xlink:href="dir_000012_000123.html" target="_top">
<path fill="none" stroke="#63b8ff" d="M48.48,-164.98C57.2,-157.15 70.34,-145.34 80.9,-135.86"/>
<polygon fill="#63b8ff" stroke="#63b8ff" points="83.25,-138.46 88.35,-129.17 78.57,-133.25 83.25,-138.46"/>
</a>
</g>
<g id="a_edge2&#45;headlabel"><a xlink:href="dir_000012_000123.html" target="_top" xlink:title="3">
<text text-anchor="middle" x="82.47" y="-140.47" font-family="Helvetica,sans-Serif" font-size="10.00" fill="#63b8ff">3</text>
</a>
</g>
</g>
<!-- dir_26f8c63b8c67b2ed6c1b7078f08f1e18 -->
<g id="node5" class="node">
<title>dir_26f8c63b8c67b2ed6c1b7078f08f1e18</title>
<g id="a_node5"><a xlink:href="dir_26f8c63b8c67b2ed6c1b7078f08f1e18.html" target="_top" xlink:title="userver">
<polygon fill="#feefdf" stroke="red" points="202.5,-74 149.5,-74 149.5,-55 202.5,-55 202.5,-74"/>
<text text-anchor="middle" x="176" y="-62" font-family="Helvetica,sans-Serif" font-size="10.00">userver</text>
</a>
</g>
</g>
<!-- dir_1a4e9b65cea9e01186108ca1aaa2d3aa&#45;&gt;dir_26f8c63b8c67b2ed6c1b7078f08f1e18 -->
<g id="edge1" class="edge">
<title>dir_1a4e9b65cea9e01186108ca1aaa2d3aa&#45;&gt;dir_26f8c63b8c67b2ed6c1b7078f08f1e18</title>
<g id="a_edge1"><a xlink:href="dir_000012_000140.html" target="_top">
<path fill="none" stroke="#63b8ff" d="M61.76,-167.39C83.13,-160.75 115.01,-148.41 137,-129 151.22,-116.45 161.95,-97.44 168.51,-83.49"/>
<polygon fill="#63b8ff" stroke="#63b8ff" points="171.87,-84.57 172.72,-74.01 165.47,-81.73 171.87,-84.57"/>
</a>
</g>
<g id="a_edge1&#45;headlabel"><a xlink:href="dir_000012_000140.html" target="_top" xlink:title="6">
<text text-anchor="middle" x="173.01" y="-86.5" font-family="Helvetica,sans-Serif" font-size="10.00" fill="#63b8ff">6</text>
</a>
</g>
</g>
<!-- dir_a7364e945deb3de9e65ddca50507f79f -->
<g id="node6" class="node">
<title>dir_a7364e945deb3de9e65ddca50507f79f</title>
<g id="a_node6"><a xlink:href="dir_a7364e945deb3de9e65ddca50507f79f.html" target="_top" xlink:title="userver">
<polygon fill="#feefdf" stroke="red" points="130.5,-19 77.5,-19 77.5,0 130.5,0 130.5,-19"/>
<text text-anchor="middle" x="104" y="-7" font-family="Helvetica,sans-Serif" font-size="10.00">userver</text>
</a>
</g>
</g>
<!-- dir_1a4e9b65cea9e01186108ca1aaa2d3aa&#45;&gt;dir_a7364e945deb3de9e65ddca50507f79f -->
<g id="edge4" class="edge">
<title>dir_1a4e9b65cea9e01186108ca1aaa2d3aa&#45;&gt;dir_a7364e945deb3de9e65ddca50507f79f</title>
<g id="a_edge4"><a xlink:href="dir_000012_000149.html" target="_top">
<path fill="none" stroke="#63b8ff" d="M61.58,-166.36C91.3,-156.74 141.68,-139.61 158,-129 186.73,-110.34 199.04,-105.71 212,-74 216.54,-62.89 219,-56.75 212,-47 195.95,-24.63 165.44,-15.79 140.94,-12.39"/>
<polygon fill="#63b8ff" stroke="#63b8ff" points="141.2,-8.89 130.86,-11.24 140.4,-15.85 141.2,-8.89"/>
</a>
</g>
<g id="a_edge4&#45;headlabel"><a xlink:href="dir_000012_000149.html" target="_top" xlink:title="3">
<text text-anchor="middle" x="145.09" y="-3.98" font-family="Helvetica,sans-Serif" font-size="10.00" fill="#63b8ff">3</text>
</a>
</g>
</g>
<!-- dir_4b556fc41c8475c3d0df415f20fd41dd&#45;&gt;dir_a7364e945deb3de9e65ddca50507f79f -->
<g id="edge5" class="edge">
<title>dir_4b556fc41c8475c3d0df415f20fd41dd&#45;&gt;dir_a7364e945deb3de9e65ddca50507f79f</title>
<g id="a_edge5"><a xlink:href="dir_000049_000149.html" target="_top">
<path fill="none" stroke="#63b8ff" d="M57,-54.98C65.19,-47.23 77.51,-35.58 87.47,-26.14"/>
<polygon fill="#63b8ff" stroke="#63b8ff" points="89.98,-28.59 94.84,-19.17 85.17,-23.5 89.98,-28.59"/>
</a>
</g>
<g id="a_edge5&#45;headlabel"><a xlink:href="dir_000049_000149.html" target="_top" xlink:title="19">
<text text-anchor="middle" x="89.32" y="-30.62" font-family="Helvetica,sans-Serif" font-size="10.00" fill="#63b8ff">19</text>
</a>
</g>
</g>
<!-- dir_2e7bd111f17b8db11fe2ce128c55eaa9&#45;&gt;dir_4b556fc41c8475c3d0df415f20fd41dd -->
<g id="edge7" class="edge">
<title>dir_2e7bd111f17b8db11fe2ce128c55eaa9&#45;&gt;dir_4b556fc41c8475c3d0df415f20fd41dd</title>
<g id="a_edge7"><a xlink:href="dir_000123_000049.html" target="_top">
<path fill="none" stroke="#63b8ff" d="M89.74,-109.75C82.54,-102.11 71.89,-90.82 63.15,-81.56"/>
<polygon fill="#63b8ff" stroke="#63b8ff" points="65.51,-78.96 56.1,-74.09 60.42,-83.76 65.51,-78.96"/>
</a>
</g>
<g id="a_edge7&#45;headlabel"><a xlink:href="dir_000123_000049.html" target="_top" xlink:title="11">
<text text-anchor="middle" x="70.04" y="-77.13" font-family="Helvetica,sans-Serif" font-size="10.00" fill="#63b8ff">11</text>
</a>
</g>
</g>
<!-- dir_2e7bd111f17b8db11fe2ce128c55eaa9&#45;&gt;dir_26f8c63b8c67b2ed6c1b7078f08f1e18 -->
<g id="edge6" class="edge">
<title>dir_2e7bd111f17b8db11fe2ce128c55eaa9&#45;&gt;dir_26f8c63b8c67b2ed6c1b7078f08f1e18</title>
<g id="a_edge6"><a xlink:href="dir_000123_000140.html" target="_top">
<path fill="none" stroke="#63b8ff" d="M110.53,-109.98C122.4,-101.92 140.46,-89.65 154.61,-80.03"/>
<polygon fill="#63b8ff" stroke="#63b8ff" points="156.94,-82.69 163.24,-74.17 153,-76.9 156.94,-82.69"/>
</a>
</g>
<g id="a_edge6&#45;headlabel"><a xlink:href="dir_000123_000140.html" target="_top" xlink:title="13">
<text text-anchor="middle" x="155.56" y="-84.55" font-family="Helvetica,sans-Serif" font-size="10.00" fill="#63b8ff">13</text>
</a>
</g>
</g>
<!-- dir_2e7bd111f17b8db11fe2ce128c55eaa9&#45;&gt;dir_a7364e945deb3de9e65ddca50507f79f -->
<g id="edge8" class="edge">
<title>dir_2e7bd111f17b8db11fe2ce128c55eaa9&#45;&gt;dir_a7364e945deb3de9e65ddca50507f79f</title>
<g id="a_edge8"><a xlink:href="dir_000123_000149.html" target="_top">
<path fill="none" stroke="#63b8ff" d="M98.49,-109.66C99.46,-92.17 101.65,-52.8 102.96,-29.27"/>
<polygon fill="#63b8ff" stroke="#63b8ff" points="106.46,-29.34 103.52,-19.16 99.47,-28.95 106.46,-29.34"/>
</a>
</g>
<g id="a_edge8&#45;headlabel"><a xlink:href="dir_000123_000149.html" target="_top" xlink:title="5">
<text text-anchor="middle" x="109.09" y="-30.58" font-family="Helvetica,sans-Serif" font-size="10.00" fill="#63b8ff">5</text>
</a>
</g>
</g>
</g>
</svg>
