<?xml version="1.0" encoding="UTF-8" standalone="no"?>
<!DOCTYPE svg PUBLIC "-//W3C//DTD SVG 1.1//EN"
 "http://www.w3.org/Graphics/SVG/1.1/DTD/svg11.dtd">
<!-- Generated by graphviz version 2.43.0 (0)
 -->
<!-- Title: userver/components Pages: 1 -->
<svg width="497pt" height="141pt"
 viewBox="0.00 0.00 496.50 141.00" xmlns="http://www.w3.org/2000/svg" xmlns:xlink="http://www.w3.org/1999/xlink">
<g id="graph0" class="graph" transform="scale(1 1) rotate(0) translate(4 137)">
<title>userver/components</title>
<g id="clust1" class="cluster">
<title>clusterdir_26f8c63b8c67b2ed6c1b7078f08f1e18</title>
<g id="a_clust1"><a xlink:href="dir_26f8c63b8c67b2ed6c1b7078f08f1e18.html" target="_top" xlink:title="userver">
<polygon fill="#feefdf" stroke="#404040" stroke-dasharray="5,2" points="8,-8 8,-125 425,-125 425,-8 8,-8"/>
<text text-anchor="middle" x="216.5" y="-113" font-family="Helvetica,sans-Serif" font-size="10.00">userver</text>
</a>
</g>
</g>
<g id="clust2" class="cluster">
<title>clusterdir_994ef2a14b32cb8134d8b7b97f08d542</title>
<g id="a_clust2"><a xlink:href="dir_994ef2a14b32cb8134d8b7b97f08d542.html" target="_top">
<polygon fill="#feefdf" stroke="#404040" stroke-width="2" points="134,-63 134,-98 284,-98 284,-63 134,-63"/>
</a>
</g>
</g>
<!-- dir_150bbd271f1504029fbda942e72f1022 -->
<g id="node1" class="node">
<title>dir_150bbd271f1504029fbda942e72f1022</title>
<g id="a_node1"><a xlink:href="dir_150bbd271f1504029fbda942e72f1022.html" target="_top" xlink:title="utils">
<polygon fill="#fdaf60" stroke="red" points="54,-35 16,-35 16,-16 54,-16 54,-35"/>
<text text-anchor="middle" x="35" y="-23" font-family="Helvetica,sans-Serif" font-size="10.00">utils</text>
</a>
</g>
</g>
<!-- dir_3285f5f33091c25af669261537588667 -->
<g id="node2" class="node">
<title>dir_3285f5f33091c25af669261537588667</title>
<g id="a_node2"><a xlink:href="dir_3285f5f33091c25af669261537588667.html" target="_top" xlink:title="rcu">
<polygon fill="#fdaf60" stroke="#404040" points="104,-35 72,-35 72,-16 104,-16 104,-35"/>
<text text-anchor="middle" x="88" y="-23" font-family="Helvetica,sans-Serif" font-size="10.00">rcu</text>
</a>
</g>
</g>
<!-- dir_486b9402482621fd641691dc37d76b53 -->
<g id="node3" class="node">
<title>dir_486b9402482621fd641691dc37d76b53</title>
<g id="a_node3"><a xlink:href="dir_486b9402482621fd641691dc37d76b53.html" target="_top" xlink:title="engine">
<polygon fill="#fdaf60" stroke="red" points="172,-35 122,-35 122,-16 172,-16 172,-35"/>
<text text-anchor="middle" x="147" y="-23" font-family="Helvetica,sans-Serif" font-size="10.00">engine</text>
</a>
</g>
</g>
<!-- dir_6fe6ce792de102936b3c02369b7e8bae -->
<g id="node4" class="node">
<title>dir_6fe6ce792de102936b3c02369b7e8bae</title>
<g id="a_node4"><a xlink:href="dir_6fe6ce792de102936b3c02369b7e8bae.html" target="_top" xlink:title="dynamic_config">
<polygon fill="#fdaf60" stroke="red" points="283.5,-35 190.5,-35 190.5,-16 283.5,-16 283.5,-35"/>
<text text-anchor="middle" x="237" y="-23" font-family="Helvetica,sans-Serif" font-size="10.00">dynamic_config</text>
</a>
</g>
</g>
<!-- dir_a002d428d11eb8614f350575a2d4c4e0 -->
<g id="node5" class="node">
<title>dir_a002d428d11eb8614f350575a2d4c4e0</title>
<g id="a_node5"><a xlink:href="dir_a002d428d11eb8614f350575a2d4c4e0.html" target="_top" xlink:title="fs">
<polygon fill="#fdaf60" stroke="#404040" points="330.5,-35 301.5,-35 301.5,-16 330.5,-16 330.5,-35"/>
<text text-anchor="middle" x="316" y="-23" font-family="Helvetica,sans-Serif" font-size="10.00">fs</text>
</a>
</g>
</g>
<!-- dir_e64dfdcbff0f609bc29171eebbcbbcc9 -->
<g id="node6" class="node">
<title>dir_e64dfdcbff0f609bc29171eebbcbbcc9</title>
<g id="a_node6"><a xlink:href="dir_e64dfdcbff0f609bc29171eebbcbbcc9.html" target="_top" xlink:title="concurrent">
<polygon fill="#fdaf60" stroke="red" points="417,-35 349,-35 349,-16 417,-16 417,-35"/>
<text text-anchor="middle" x="383" y="-23" font-family="Helvetica,sans-Serif" font-size="10.00">concurrent</text>
</a>
</g>
</g>
<!-- dir_994ef2a14b32cb8134d8b7b97f08d542 -->
<g id="node7" class="node">
<title>dir_994ef2a14b32cb8134d8b7b97f08d542</title>
<text text-anchor="middle" x="237" y="-78" font-family="Helvetica,sans-Serif" font-size="10.00">components</text>
</g>
<!-- dir_994ef2a14b32cb8134d8b7b97f08d542&#45;&gt;dir_150bbd271f1504029fbda942e72f1022 -->
<g id="edge1" class="edge">
<title>dir_994ef2a14b32cb8134d8b7b97f08d542&#45;&gt;dir_150bbd271f1504029fbda942e72f1022</title>
<g id="a_edge1"><a xlink:href="dir_000022_000152.html" target="_top">
<path fill="none" stroke="#63b8ff" d="M213.73,-70.91C205.93,-68.19 197.14,-65.3 189,-63 136.7,-48.25 120.21,-49.39 64,-35.08"/>
<polygon fill="#63b8ff" stroke="#63b8ff" points="64.78,-31.67 54.22,-32.55 63.02,-38.45 64.78,-31.67"/>
</a>
</g>
<g id="a_edge1&#45;headlabel"><a xlink:href="dir_000022_000152.html" target="_top" xlink:title="2">
<text text-anchor="middle" x="68.98" y="-27.33" font-family="Helvetica,sans-Serif" font-size="10.00" fill="#63b8ff">2</text>
</a>
</g>
</g>
<!-- dir_994ef2a14b32cb8134d8b7b97f08d542&#45;&gt;dir_3285f5f33091c25af669261537588667 -->
<g id="edge2" class="edge">
<title>dir_994ef2a14b32cb8134d8b7b97f08d542&#45;&gt;dir_3285f5f33091c25af669261537588667</title>
<g id="a_edge2"><a xlink:href="dir_000022_000109.html" target="_top">
<path fill="none" stroke="#63b8ff" d="M213.06,-70.98C185.81,-61.29 141.46,-45.51 113.55,-35.59"/>
<polygon fill="#63b8ff" stroke="#63b8ff" points="114.67,-32.27 104.07,-32.22 112.32,-38.87 114.67,-32.27"/>
</a>
</g>
<g id="a_edge2&#45;headlabel"><a xlink:href="dir_000022_000109.html" target="_top" xlink:title="1">
<text text-anchor="middle" x="119.01" y="-28.3" font-family="Helvetica,sans-Serif" font-size="10.00" fill="#63b8ff">1</text>
</a>
</g>
</g>
<!-- dir_994ef2a14b32cb8134d8b7b97f08d542&#45;&gt;dir_486b9402482621fd641691dc37d76b53 -->
<g id="edge3" class="edge">
<title>dir_994ef2a14b32cb8134d8b7b97f08d542&#45;&gt;dir_486b9402482621fd641691dc37d76b53</title>
<g id="a_edge3"><a xlink:href="dir_000022_000047.html" target="_top">
<path fill="none" stroke="#63b8ff" d="M222.54,-70.98C208.58,-62.77 187.21,-50.18 170.75,-40.49"/>
<polygon fill="#63b8ff" stroke="#63b8ff" points="172.12,-37.23 161.72,-35.17 168.56,-43.26 172.12,-37.23"/>
</a>
</g>
<g id="a_edge3&#45;headlabel"><a xlink:href="dir_000022_000047.html" target="_top" xlink:title="6">
<text text-anchor="middle" x="176.65" y="-34.11" font-family="Helvetica,sans-Serif" font-size="10.00" fill="#63b8ff">6</text>
</a>
</g>
</g>
<!-- dir_994ef2a14b32cb8134d8b7b97f08d542&#45;&gt;dir_6fe6ce792de102936b3c02369b7e8bae -->
<g id="edge4" class="edge">
<title>dir_994ef2a14b32cb8134d8b7b97f08d542&#45;&gt;dir_6fe6ce792de102936b3c02369b7e8bae</title>
<g id="a_edge4"><a xlink:href="dir_000022_000044.html" target="_top">
<path fill="none" stroke="#63b8ff" d="M237,-70.75C237,-63.8 237,-53.85 237,-45.13"/>
<polygon fill="#63b8ff" stroke="#63b8ff" points="240.5,-45.09 237,-35.09 233.5,-45.09 240.5,-45.09"/>
</a>
</g>
<g id="a_edge4&#45;headlabel"><a xlink:href="dir_000022_000044.html" target="_top" xlink:title="2">
<text text-anchor="middle" x="243.34" y="-46.18" font-family="Helvetica,sans-Serif" font-size="10.00" fill="#63b8ff">2</text>
</a>
</g>
</g>
<!-- dir_994ef2a14b32cb8134d8b7b97f08d542&#45;&gt;dir_a002d428d11eb8614f350575a2d4c4e0 -->
<g id="edge5" class="edge">
<title>dir_994ef2a14b32cb8134d8b7b97f08d542&#45;&gt;dir_a002d428d11eb8614f350575a2d4c4e0</title>
<g id="a_edge5"><a xlink:href="dir_000022_000051.html" target="_top">
<path fill="none" stroke="#63b8ff" d="M249.69,-70.98C261.83,-62.84 280.36,-50.41 294.75,-40.76"/>
<polygon fill="#63b8ff" stroke="#63b8ff" points="296.72,-43.65 303.08,-35.17 292.82,-37.84 296.72,-43.65"/>
</a>
</g>
<g id="a_edge5&#45;headlabel"><a xlink:href="dir_000022_000051.html" target="_top" xlink:title="1">
<text text-anchor="middle" x="295.32" y="-45.51" font-family="Helvetica,sans-Serif" font-size="10.00" fill="#63b8ff">1</text>
</a>
</g>
</g>
<!-- dir_994ef2a14b32cb8134d8b7b97f08d542&#45;&gt;dir_e64dfdcbff0f609bc29171eebbcbbcc9 -->
<g id="edge7" class="edge">
<title>dir_994ef2a14b32cb8134d8b7b97f08d542&#45;&gt;dir_e64dfdcbff0f609bc29171eebbcbbcc9</title>
<g id="a_edge7"><a xlink:href="dir_000022_000023.html" target="_top">
<path fill="none" stroke="#63b8ff" d="M260.46,-70.98C284.58,-62.23 322.37,-48.51 349.6,-38.62"/>
<polygon fill="#63b8ff" stroke="#63b8ff" points="350.91,-41.87 359.12,-35.17 348.52,-35.29 350.91,-41.87"/>
</a>
</g>
<g id="a_edge7&#45;headlabel"><a xlink:href="dir_000022_000023.html" target="_top" xlink:title="3">
<text text-anchor="middle" x="348.5" y="-43.27" font-family="Helvetica,sans-Serif" font-size="10.00" fill="#63b8ff">3</text>
</a>
</g>
</g>
<!-- dir_a7364e945deb3de9e65ddca50507f79f -->
<g id="node9" class="node">
<title>dir_a7364e945deb3de9e65ddca50507f79f</title>
<g id="a_node9"><a xlink:href="dir_a7364e945deb3de9e65ddca50507f79f.html" target="_top" xlink:title="userver">
<polygon fill="#feefdf" stroke="red" points="488.5,-35 435.5,-35 435.5,-16 488.5,-16 488.5,-35"/>
<text text-anchor="middle" x="462" y="-23" font-family="Helvetica,sans-Serif" font-size="10.00">userver</text>
</a>
</g>
</g>
<!-- dir_994ef2a14b32cb8134d8b7b97f08d542&#45;&gt;dir_a7364e945deb3de9e65ddca50507f79f -->
<g id="edge6" class="edge">
<title>dir_994ef2a14b32cb8134d8b7b97f08d542&#45;&gt;dir_a7364e945deb3de9e65ddca50507f79f</title>
<g id="a_edge6"><a xlink:href="dir_000022_000149.html" target="_top">
<path fill="none" stroke="#63b8ff" d="M274.95,-70.99C311.61,-62.71 368.95,-49.58 425.55,-35.82"/>
<polygon fill="#63b8ff" stroke="#63b8ff" points="426.47,-39.19 435.36,-33.42 424.81,-32.39 426.47,-39.19"/>
</a>
</g>
<g id="a_edge6&#45;headlabel"><a xlink:href="dir_000022_000149.html" target="_top" xlink:title="5">
<text text-anchor="middle" x="423.65" y="-40.3" font-family="Helvetica,sans-Serif" font-size="10.00" fill="#63b8ff">5</text>
</a>
</g>
</g>
<!-- dir_c3e136e607a5c1becf4d7ec9097eb05f -->
<g id="node8" class="node">
<title>dir_c3e136e607a5c1becf4d7ec9097eb05f</title>
<g id="a_node8"><a xlink:href="dir_c3e136e607a5c1becf4d7ec9097eb05f.html" target="_top" xlink:title="impl">
<polygon fill="#fdaf60" stroke="#404040" points="180,-90 142,-90 142,-71 180,-71 180,-90"/>
<text text-anchor="middle" x="161" y="-78" font-family="Helvetica,sans-Serif" font-size="10.00">impl</text>
</a>
</g>
</g>
</g>
</svg>
