<?xml version="1.0" encoding="UTF-8" standalone="no"?>
<!DOCTYPE svg PUBLIC "-//W3C//DTD SVG 1.1//EN"
 "http://www.w3.org/Graphics/SVG/1.1/DTD/svg11.dtd">
<!-- Generated by graphviz version 14.1.2 (0)
 -->
<!-- Title: TypicalService Pages: 1 -->
<svg width="1006pt" height="101pt"
 viewBox="0.00 0.00 1006.00 101.00" xmlns="http://www.w3.org/2000/svg" xmlns:xlink="http://www.w3.org/1999/xlink">
<g id="graph0" class="graph" transform="scale(1 1) rotate(0) translate(4 97.25)">
<title>TypicalService</title>
<g id="a_graph0"><a xlink:title="You didn&#39;t hit the arrow with the cursor :&#45;)">
<polygon fill="white" stroke="none" points="-4,4 -4,-97.25 1002,-97.25 1002,4 -4,4"/>
</a>
</g>
<g id="clust1" class="cluster">
<title>cluster_TypicalService1</title>
<g id="a_clust1"><a xlink:title="You didn&#39;t hit the arrow with the cursor :&#45;)">
<polygon fill="none" stroke="black" points="8,-8 8,-85.25 330,-85.25 330,-8 8,-8"/>
<text xml:space="preserve" text-anchor="middle" x="77.12" y="-67.95" font-family="Times,serif" font-size="14.00">Docker container</text>
</a>
</g>
</g>
<g id="clust2" class="cluster">
<title>cluster_TypicalService2</title>
<g id="a_clust2"><a xlink:title="You didn&#39;t hit the arrow with the cursor :&#45;)">
<polygon fill="none" stroke="black" points="338,-8 338,-85.25 660,-85.25 660,-8 338,-8"/>
<text xml:space="preserve" text-anchor="middle" x="407.12" y="-67.95" font-family="Times,serif" font-size="14.00">Docker container</text>
</a>
</g>
</g>
<g id="clust3" class="cluster">
<title>cluster_TypicalService3</title>
<g id="a_clust3"><a xlink:title="You didn&#39;t hit the arrow with the cursor :&#45;)">
<polygon fill="none" stroke="black" points="668,-8 668,-85.25 990,-85.25 990,-8 668,-8"/>
<text xml:space="preserve" text-anchor="middle" x="737.12" y="-67.95" font-family="Times,serif" font-size="14.00">Docker container</text>
</a>
</g>
</g>
<!-- MainService1 -->
<g id="node1" class="node">
<title>MainService1</title>
<polygon fill="none" stroke="black" points="160,-52 16,-52 16,-48 12,-48 12,-44 16,-44 16,-24 12,-24 12,-20 16,-20 16,-16 160,-16 160,-52"/>
<polyline fill="none" stroke="black" points="16,-48 20,-48 20,-44 16,-44"/>
<polyline fill="none" stroke="black" points="16,-24 20,-24 20,-20 16,-20"/>
<text xml:space="preserve" text-anchor="middle" x="88" y="-29.32" font-family="Times,serif" font-size="14.00">Main Service</text>
</g>
<!-- Sidecar1 -->
<g id="node2" class="node">
<title>Sidecar1</title>
<polygon fill="none" stroke="black" points="322,-52 178,-52 178,-48 174,-48 174,-44 178,-44 178,-24 174,-24 174,-20 178,-20 178,-16 322,-16 322,-52"/>
<polyline fill="none" stroke="black" points="178,-48 182,-48 182,-44 178,-44"/>
<polyline fill="none" stroke="black" points="178,-24 182,-24 182,-20 178,-20"/>
<text xml:space="preserve" text-anchor="middle" x="250" y="-29.32" font-family="Times,serif" font-size="14.00">🐙 Sidecar</text>
</g>
<!-- MainService1&#45;&gt;Sidecar1 -->
<g id="edge1" class="edge">
<title>MainService1&#45;&gt;Sidecar1</title>
<g id="a_edge1"><a xlink:title="pipeline, TCP socket, compressed HTTP, or gRPC">
<path fill="none" stroke="black" stroke-width="3" d="M174.92,-34C175.03,-34 175.14,-34 175.25,-34"/>
<polygon fill="black" stroke="black" stroke-width="3" points="175,-30.5 165,-34 175,-37.5 175,-30.5"/>
<polygon fill="black" stroke="black" stroke-width="3" points="163.06,-37.5 173.06,-34 163.06,-30.5 163.06,-37.5"/>
</a>
</g>
</g>
<!-- MainService2 -->
<g id="node3" class="node">
<title>MainService2</title>
<polygon fill="none" stroke="black" points="490,-52 346,-52 346,-48 342,-48 342,-44 346,-44 346,-24 342,-24 342,-20 346,-20 346,-16 490,-16 490,-52"/>
<polyline fill="none" stroke="black" points="346,-48 350,-48 350,-44 346,-44"/>
<polyline fill="none" stroke="black" points="346,-24 350,-24 350,-20 346,-20"/>
<text xml:space="preserve" text-anchor="middle" x="418" y="-29.32" font-family="Times,serif" font-size="14.00">Other Service</text>
</g>
<!-- Sidecar2 -->
<g id="node4" class="node">
<title>Sidecar2</title>
<polygon fill="none" stroke="black" points="652,-52 508,-52 508,-48 504,-48 504,-44 508,-44 508,-24 504,-24 504,-20 508,-20 508,-16 652,-16 652,-52"/>
<polyline fill="none" stroke="black" points="508,-48 512,-48 512,-44 508,-44"/>
<polyline fill="none" stroke="black" points="508,-24 512,-24 512,-20 508,-20"/>
<text xml:space="preserve" text-anchor="middle" x="580" y="-29.32" font-family="Times,serif" font-size="14.00">🐙 Sidecar</text>
</g>
<!-- MainService2&#45;&gt;Sidecar2 -->
<g id="edge2" class="edge">
<title>MainService2&#45;&gt;Sidecar2</title>
<g id="a_edge2"><a xlink:title="pipeline, TCP socket, compressed HTTP, or gRPC">
<path fill="none" stroke="black" stroke-width="3" d="M504.92,-34C505.03,-34 505.14,-34 505.25,-34"/>
<polygon fill="black" stroke="black" stroke-width="3" points="505,-30.5 495,-34 505,-37.5 505,-30.5"/>
<polygon fill="black" stroke="black" stroke-width="3" points="493.06,-37.5 503.06,-34 493.06,-30.5 493.06,-37.5"/>
</a>
</g>
</g>
<!-- MainService3 -->
<g id="node5" class="node">
<title>MainService3</title>
<polygon fill="none" stroke="black" points="820,-52 676,-52 676,-48 672,-48 672,-44 676,-44 676,-24 672,-24 672,-20 676,-20 676,-16 820,-16 820,-52"/>
<polyline fill="none" stroke="black" points="676,-48 680,-48 680,-44 676,-44"/>
<polyline fill="none" stroke="black" points="676,-24 680,-24 680,-20 676,-20"/>
<text xml:space="preserve" text-anchor="middle" x="748" y="-29.32" font-family="Times,serif" font-size="14.00">Another Service</text>
</g>
<!-- Sidecar3 -->
<g id="node6" class="node">
<title>Sidecar3</title>
<polygon fill="none" stroke="black" points="982,-52 838,-52 838,-48 834,-48 834,-44 838,-44 838,-24 834,-24 834,-20 838,-20 838,-16 982,-16 982,-52"/>
<polyline fill="none" stroke="black" points="838,-48 842,-48 842,-44 838,-44"/>
<polyline fill="none" stroke="black" points="838,-24 842,-24 842,-20 838,-20"/>
<text xml:space="preserve" text-anchor="middle" x="910" y="-29.32" font-family="Times,serif" font-size="14.00">🐙 Sidecar</text>
</g>
<!-- MainService3&#45;&gt;Sidecar3 -->
<g id="edge3" class="edge">
<title>MainService3&#45;&gt;Sidecar3</title>
<g id="a_edge3"><a xlink:title="pipeline, TCP socket, compressed HTTP, or gRPC">
<path fill="none" stroke="black" stroke-width="3" d="M834.92,-34C835.03,-34 835.14,-34 835.25,-34"/>
<polygon fill="black" stroke="black" stroke-width="3" points="835,-30.5 825,-34 835,-37.5 835,-30.5"/>
<polygon fill="black" stroke="black" stroke-width="3" points="823.06,-37.5 833.06,-34 823.06,-30.5 823.06,-37.5"/>
</a>
</g>
</g>
</g>
</svg>
