<?xml version="1.0" encoding="UTF-8" standalone="no"?>
<!DOCTYPE svg PUBLIC "-//W3C//DTD SVG 1.1//EN"
 "http://www.w3.org/Graphics/SVG/1.1/DTD/svg11.dtd">
<!-- Generated by graphviz version 2.43.0 (0)
 -->
<!-- Title: Graphical Class Hierarchy Pages: 1 -->
<svg width="317pt" height="108pt"
 viewBox="0.00 0.00 317.00 108.00" xmlns="http://www.w3.org/2000/svg" xmlns:xlink="http://www.w3.org/1999/xlink">
<g id="graph0" class="graph" transform="scale(1 1) rotate(0) translate(4 104)">
<title>Graphical Class Hierarchy</title>
<!-- Node0 -->
<g id="Node000000" class="node">
<title>Node0</title>
<g id="a_Node000000"><a xlink:title=" ">
<polygon fill="#e0e0e0" stroke="#999999" points="106,-59 0,-59 0,-40 106,-40 106,-59"/>
<text text-anchor="middle" x="53" y="-47" font-family="Helvetica,sans-Serif" font-size="10.00">std::bool_constant</text>
</a>
</g>
</g>
<!-- Node1 -->
<g id="Node000001" class="node">
<title>Node1</title>
<g id="a_Node000001"><a xlink:href="d5/dc6/structstorages_1_1postgres_1_1io_1_1traits_1_1TupleHasFormatters_3_01std_1_1tuple_3_01T_8_8_8_01_4_01_4.html" target="_top" xlink:title=" ">
<polygon fill="white" stroke="#666666" points="309,-100 142,-100 142,-59 309,-59 309,-100"/>
<text text-anchor="start" x="150" y="-88" font-family="Helvetica,sans-Serif" font-size="10.00">storages::postgres</text>
<text text-anchor="start" x="150" y="-77" font-family="Helvetica,sans-Serif" font-size="10.00">::io::traits::TupleHasFormatters</text>
<text text-anchor="middle" x="225.5" y="-66" font-family="Helvetica,sans-Serif" font-size="10.00">&lt; std::tuple&lt; T... &gt; &gt;</text>
</a>
</g>
</g>
<!-- Node0&#45;&gt;Node1 -->
<g id="edge363_Node000000_Node000001" class="edge">
<title>Node0&#45;&gt;Node1</title>
<g id="a_edge363_Node000000_Node000001"><a xlink:title=" ">
<path fill="none" stroke="#63b8ff" d="M116.14,-60.43C124.54,-61.91 133.26,-63.45 141.95,-64.98"/>
<polygon fill="#63b8ff" stroke="#63b8ff" points="116.54,-56.95 106.08,-58.66 115.32,-63.84 116.54,-56.95"/>
</a>
</g>
</g>
<!-- Node2 -->
<g id="Node000002" class="node">
<title>Node2</title>
<g id="a_Node000002"><a xlink:href="de/dbd/structstorages_1_1postgres_1_1io_1_1traits_1_1TupleHasParsers_3_01std_1_1tuple_3_01T_8_8_8_01_4_01_4.html" target="_top" xlink:title=" ">
<polygon fill="white" stroke="#666666" points="300,-41 151,-41 151,0 300,0 300,-41"/>
<text text-anchor="start" x="159" y="-29" font-family="Helvetica,sans-Serif" font-size="10.00">storages::postgres</text>
<text text-anchor="start" x="159" y="-18" font-family="Helvetica,sans-Serif" font-size="10.00">::io::traits::TupleHasParsers</text>
<text text-anchor="middle" x="225.5" y="-7" font-family="Helvetica,sans-Serif" font-size="10.00">&lt; std::tuple&lt; T... &gt; &gt;</text>
</a>
</g>
</g>
<!-- Node0&#45;&gt;Node2 -->
<g id="edge364_Node000000_Node000002" class="edge">
<title>Node0&#45;&gt;Node2</title>
<g id="a_edge364_Node000000_Node000002"><a xlink:title=" ">
<path fill="none" stroke="#63b8ff" d="M116.21,-38.92C127.44,-37.01 139.25,-35 150.77,-33.04"/>
<polygon fill="#63b8ff" stroke="#63b8ff" points="115.35,-35.51 106.08,-40.64 116.53,-42.42 115.35,-35.51"/>
</a>
</g>
</g>
</g>
</svg>
