<?xml version="1.0" encoding="UTF-8" standalone="no"?>
<!DOCTYPE svg PUBLIC "-//W3C//DTD SVG 1.1//EN"
 "http://www.w3.org/Graphics/SVG/1.1/DTD/svg11.dtd">
<!-- Generated by graphviz version 2.43.0 (0)
 -->
<!-- Title: Graphical Class Hierarchy Pages: 1 -->
<svg width="354pt" height="98pt"
 viewBox="0.00 0.00 354.00 97.50" xmlns="http://www.w3.org/2000/svg" xmlns:xlink="http://www.w3.org/1999/xlink">
<g id="graph0" class="graph" transform="scale(1 1) rotate(0) translate(4 93.5)">
<title>Graphical Class Hierarchy</title>
<!-- Node0 -->
<g id="Node000000" class="node">
<title>Node0</title>
<g id="a_Node000000"><a xlink:href="d7/da2/classformats_1_1json_1_1parser_1_1Subscriber.html" target="_top" xlink:title=" ">
<polygon fill="white" stroke="#666666" points="132,-89.5 14,-89.5 14,-59.5 132,-59.5 132,-89.5"/>
<text text-anchor="start" x="22" y="-77.5" font-family="Helvetica,sans-Serif" font-size="10.00">formats::json::parser</text>
<text text-anchor="middle" x="73" y="-66.5" font-family="Helvetica,sans-Serif" font-size="10.00">::Subscriber&lt; T &gt;</text>
</a>
</g>
</g>
<!-- Node1 -->
<g id="Node000001" class="node">
<title>Node1</title>
<g id="a_Node000001"><a xlink:href="d2/dfd/classformats_1_1json_1_1parser_1_1SubscriberSink.html" target="_top" xlink:title=" ">
<polygon fill="white" stroke="#666666" points="325.5,-89.5 202.5,-89.5 202.5,-59.5 325.5,-59.5 325.5,-89.5"/>
<text text-anchor="start" x="210.5" y="-77.5" font-family="Helvetica,sans-Serif" font-size="10.00">formats::json::parser</text>
<text text-anchor="middle" x="264" y="-66.5" font-family="Helvetica,sans-Serif" font-size="10.00">::SubscriberSink&lt; T &gt;</text>
</a>
</g>
</g>
<!-- Node0&#45;&gt;Node1 -->
<g id="edge258_Node000000_Node000001" class="edge">
<title>Node0&#45;&gt;Node1</title>
<g id="a_edge258_Node000000_Node000001"><a xlink:title=" ">
<path fill="none" stroke="#63b8ff" d="M142.34,-74.5C161.96,-74.5 183.21,-74.5 202.33,-74.5"/>
<polygon fill="#63b8ff" stroke="#63b8ff" points="142.25,-71 132.25,-74.5 142.25,-78 142.25,-71"/>
</a>
</g>
</g>
<!-- Node2 -->
<g id="Node000002" class="node">
<title>Node2</title>
<g id="a_Node000002"><a xlink:href="d8/d1a/classformats_1_1json_1_1parser_1_1SubscriberSinkOptional.html" target="_top" xlink:title=" ">
<polygon fill="white" stroke="#666666" points="346,-38.5 182,-38.5 182,-8.5 346,-8.5 346,-38.5"/>
<text text-anchor="start" x="190" y="-26.5" font-family="Helvetica,sans-Serif" font-size="10.00">formats::json::parser</text>
<text text-anchor="middle" x="264" y="-15.5" font-family="Helvetica,sans-Serif" font-size="10.00">::SubscriberSinkOptional&lt; T &gt;</text>
</a>
</g>
</g>
<!-- Node0&#45;&gt;Node2 -->
<g id="edge259_Node000000_Node000002" class="edge">
<title>Node0&#45;&gt;Node2</title>
<g id="a_edge259_Node000000_Node000002"><a xlink:title=" ">
<path fill="none" stroke="#63b8ff" d="M139.35,-56.87C161.52,-50.88 186.05,-44.26 207.39,-38.51"/>
<polygon fill="#63b8ff" stroke="#63b8ff" points="138.43,-53.49 129.68,-59.47 140.25,-60.25 138.43,-53.49"/>
</a>
</g>
</g>
<!-- Node3 -->
<g id="Node000003" class="node">
<title>Node3</title>
<g id="a_Node000003"><a xlink:href="d7/da2/classformats_1_1json_1_1parser_1_1Subscriber.html" target="_top" xlink:title=" ">
<polygon fill="white" stroke="#666666" points="146,-41 0,-41 0,0 146,0 146,-41"/>
<text text-anchor="start" x="8" y="-29" font-family="Helvetica,sans-Serif" font-size="10.00">formats::json::parser</text>
<text text-anchor="start" x="8" y="-18" font-family="Helvetica,sans-Serif" font-size="10.00">::Subscriber&lt; std::optional</text>
<text text-anchor="middle" x="73" y="-7" font-family="Helvetica,sans-Serif" font-size="10.00">&lt; T &gt; &gt;</text>
</a>
</g>
</g>
<!-- Node3&#45;&gt;Node2 -->
<g id="edge260_Node000003_Node000002" class="edge">
<title>Node3&#45;&gt;Node2</title>
<g id="a_edge260_Node000003_Node000002"><a xlink:title=" ">
<path fill="none" stroke="#63b8ff" d="M156.48,-21.81C164.93,-21.94 173.51,-22.08 181.95,-22.21"/>
<polygon fill="#63b8ff" stroke="#63b8ff" points="156.32,-18.31 146.26,-21.65 156.2,-25.31 156.32,-18.31"/>
</a>
</g>
</g>
</g>
</svg>
