<?xml version="1.0" encoding="UTF-8" standalone="no"?>
<!DOCTYPE svg PUBLIC "-//W3C//DTD SVG 1.1//EN"
 "http://www.w3.org/Graphics/SVG/1.1/DTD/svg11.dtd">
<!-- Generated by graphviz version 2.43.0 (0)
 -->
<!-- Title: Graphical Class Hierarchy Pages: 1 -->
<svg width="302pt" height="86pt"
 viewBox="0.00 0.00 302.00 86.00" xmlns="http://www.w3.org/2000/svg" xmlns:xlink="http://www.w3.org/1999/xlink">
<g id="graph0" class="graph" transform="scale(1 1) rotate(0) translate(4 82)">
<title>Graphical Class Hierarchy</title>
<!-- Node0 -->
<g id="Node000000" class="node">
<title>Node0</title>
<g id="a_Node000000"><a xlink:href="d8/d27/classserver_1_1congestion__control_1_1Limitee.html" target="_top" xlink:title=" ">
<polygon fill="white" stroke="#666666" points="123.5,-78 16.5,-78 16.5,-48 123.5,-48 123.5,-78"/>
<text text-anchor="start" x="24.5" y="-66" font-family="Helvetica,sans-Serif" font-size="10.00">server::congestion</text>
<text text-anchor="middle" x="70" y="-55" font-family="Helvetica,sans-Serif" font-size="10.00">_control::Limitee</text>
</a>
</g>
</g>
<!-- Node1 -->
<g id="Node000001" class="node">
<title>Node1</title>
<g id="a_Node000001"><a xlink:href="d0/d68/classserver_1_1Server.html" target="_top" xlink:title=" ">
<polygon fill="white" stroke="#666666" points="277.5,-66.5 192.5,-66.5 192.5,-47.5 277.5,-47.5 277.5,-66.5"/>
<text text-anchor="middle" x="235" y="-54.5" font-family="Helvetica,sans-Serif" font-size="10.00">server::Server</text>
</a>
</g>
</g>
<!-- Node0&#45;&gt;Node1 -->
<g id="edge354_Node000000_Node000001" class="edge">
<title>Node0&#45;&gt;Node1</title>
<g id="a_edge354_Node000000_Node000001"><a xlink:title=" ">
<path fill="none" stroke="#63b8ff" d="M134,-60.68C153.6,-59.96 174.69,-59.18 192.44,-58.53"/>
<polygon fill="#63b8ff" stroke="#63b8ff" points="133.79,-57.19 123.92,-61.05 134.04,-64.18 133.79,-57.19"/>
</a>
</g>
</g>
<!-- Node2 -->
<g id="Node000002" class="node">
<title>Node2</title>
<g id="a_Node000002"><a xlink:href="d1/dc2/classserver_1_1congestion__control_1_1RequestsSource.html" target="_top" xlink:title=" ">
<polygon fill="white" stroke="#666666" points="140,-30 0,-30 0,0 140,0 140,-30"/>
<text text-anchor="start" x="8" y="-18" font-family="Helvetica,sans-Serif" font-size="10.00">server::congestion</text>
<text text-anchor="middle" x="70" y="-7" font-family="Helvetica,sans-Serif" font-size="10.00">_control::RequestsSource</text>
</a>
</g>
</g>
<!-- Node2&#45;&gt;Node1 -->
<g id="edge355_Node000002_Node000001" class="edge">
<title>Node2&#45;&gt;Node1</title>
<g id="a_edge355_Node000002_Node000001"><a xlink:title=" ">
<path fill="none" stroke="#63b8ff" d="M139.27,-32.59C158.99,-37.67 179.77,-43.03 196.83,-47.42"/>
<polygon fill="#63b8ff" stroke="#63b8ff" points="139.94,-29.15 129.39,-30.04 138.2,-35.93 139.94,-29.15"/>
</a>
</g>
</g>
<!-- Node3 -->
<g id="Node000003" class="node">
<title>Node3</title>
<g id="a_Node000003"><a xlink:href="d9/d55/classugrpc_1_1server_1_1Server.html" target="_top" xlink:title="Manages the gRPC server.">
<polygon fill="white" stroke="#666666" points="294,-24.5 176,-24.5 176,-5.5 294,-5.5 294,-24.5"/>
<text text-anchor="middle" x="235" y="-12.5" font-family="Helvetica,sans-Serif" font-size="10.00">ugrpc::server::Server</text>
</a>
</g>
</g>
<!-- Node2&#45;&gt;Node3 -->
<g id="edge356_Node000002_Node000003" class="edge">
<title>Node2&#45;&gt;Node3</title>
<g id="a_edge356_Node000002_Node000003"><a xlink:title=" ">
<path fill="none" stroke="#63b8ff" d="M150.22,-15C158.85,-15 167.51,-15 175.82,-15"/>
<polygon fill="#63b8ff" stroke="#63b8ff" points="150.13,-11.5 140.13,-15 150.13,-18.5 150.13,-11.5"/>
</a>
</g>
</g>
</g>
</svg>
