<?xml version="1.0" encoding="UTF-8" standalone="no"?>
<!DOCTYPE svg PUBLIC "-//W3C//DTD SVG 1.1//EN"
 "http://www.w3.org/Graphics/SVG/1.1/DTD/svg11.dtd">
<!-- Generated by graphviz version 2.43.0 (0)
 -->
<!-- Title: Graphical Class Hierarchy Pages: 1 -->
<svg width="296pt" height="300pt"
 viewBox="0.00 0.00 296.00 300.00" xmlns="http://www.w3.org/2000/svg" xmlns:xlink="http://www.w3.org/1999/xlink">
<g id="graph0" class="graph" transform="scale(1 1) rotate(0) translate(4 296)">
<title>Graphical Class Hierarchy</title>
<!-- Node0 -->
<g id="Node000000" class="node">
<title>Node0</title>
<g id="a_Node000000"><a xlink:title=" ">
<polygon fill="#e0e0e0" stroke="#999999" points="86,-144.5 0,-144.5 0,-125.5 86,-125.5 86,-144.5"/>
<text text-anchor="middle" x="43" y="-132.5" font-family="Helvetica,sans-Serif" font-size="10.00">fmt::formatter</text>
</a>
</g>
</g>
<!-- Node1 -->
<g id="Node000001" class="node">
<title>Node1</title>
<g id="a_Node000001"><a xlink:href="d6/df7/structfmt_1_1formatter_3_01T_00_01Char_00_01std_1_1enable__if__t_3_1_1utils_1_1IsStrongTypedef_3_01T_01_4_02_03_4_01_4.html" target="_top" xlink:title=" ">
<polygon fill="white" stroke="#666666" points="277.5,-292 132.5,-292 132.5,-240 277.5,-240 277.5,-292"/>
<text text-anchor="start" x="140.5" y="-280" font-family="Helvetica,sans-Serif" font-size="10.00">fmt::formatter&lt; T,</text>
<text text-anchor="start" x="140.5" y="-269" font-family="Helvetica,sans-Serif" font-size="10.00"> Char, std::enable_if</text>
<text text-anchor="start" x="140.5" y="-258" font-family="Helvetica,sans-Serif" font-size="10.00">_t&lt;::utils::IsStrongTypedef</text>
<text text-anchor="middle" x="205" y="-247" font-family="Helvetica,sans-Serif" font-size="10.00">&lt; T &gt;{}&gt; &gt;</text>
</a>
</g>
</g>
<!-- Node0&#45;&gt;Node1 -->
<g id="edge229_Node000000_Node000001" class="edge">
<title>Node0&#45;&gt;Node1</title>
<g id="a_edge229_Node000000_Node000001"><a xlink:title=" ">
<path fill="none" stroke="#63b8ff" d="M55.04,-153.45C68.53,-174.63 93.15,-209.25 122,-231 126.2,-234.17 130.74,-237.11 135.44,-239.84"/>
<polygon fill="#63b8ff" stroke="#63b8ff" points="57.9,-151.41 49.66,-144.75 51.95,-155.1 57.9,-151.41"/>
</a>
</g>
</g>
<!-- Node2 -->
<g id="Node000002" class="node">
<title>Node2</title>
<g id="a_Node000002"><a xlink:href="de/da4/structfmt_1_1formatter_3_1_1formats_1_1bson_1_1Document_01_4.html" target="_top" xlink:title="Uses formats::bson::ToRelaxedJsonString representation by default.">
<polygon fill="white" stroke="#666666" points="274.5,-222 135.5,-222 135.5,-192 274.5,-192 274.5,-222"/>
<text text-anchor="start" x="143.5" y="-210" font-family="Helvetica,sans-Serif" font-size="10.00">fmt::formatter&lt;::formats</text>
<text text-anchor="middle" x="205" y="-199" font-family="Helvetica,sans-Serif" font-size="10.00">::bson::Document &gt;</text>
</a>
</g>
</g>
<!-- Node0&#45;&gt;Node2 -->
<g id="edge230_Node000000_Node000002" class="edge">
<title>Node0&#45;&gt;Node2</title>
<g id="a_edge230_Node000000_Node000002"><a xlink:title=" ">
<path fill="none" stroke="#63b8ff" d="M65.83,-150.63C81.01,-160.94 102.03,-174.12 122,-183 129.46,-186.31 137.49,-189.31 145.52,-191.97"/>
<polygon fill="#63b8ff" stroke="#63b8ff" points="67.41,-147.47 57.2,-144.65 63.43,-153.22 67.41,-147.47"/>
</a>
</g>
</g>
<!-- Node3 -->
<g id="Node000003" class="node">
<title>Node3</title>
<g id="a_Node000003"><a xlink:href="d1/dc7/structfmt_1_1formatter_3_1_1formats_1_1bson_1_1JsonString_01_4.html" target="_top" xlink:title=" ">
<polygon fill="white" stroke="#666666" points="274.5,-174 135.5,-174 135.5,-144 274.5,-144 274.5,-174"/>
<text text-anchor="start" x="143.5" y="-162" font-family="Helvetica,sans-Serif" font-size="10.00">fmt::formatter&lt;::formats</text>
<text text-anchor="middle" x="205" y="-151" font-family="Helvetica,sans-Serif" font-size="10.00">::bson::JsonString &gt;</text>
</a>
</g>
</g>
<!-- Node0&#45;&gt;Node3 -->
<g id="edge231_Node000000_Node000003" class="edge">
<title>Node0&#45;&gt;Node3</title>
<g id="a_edge231_Node000000_Node000003"><a xlink:title=" ">
<path fill="none" stroke="#63b8ff" d="M96.25,-142.84C108.73,-144.71 122.23,-146.74 135.33,-148.7"/>
<polygon fill="#63b8ff" stroke="#63b8ff" points="96.45,-139.33 86.04,-141.31 95.41,-146.25 96.45,-139.33"/>
</a>
</g>
</g>
<!-- Node4 -->
<g id="Node000004" class="node">
<title>Node4</title>
<g id="a_Node000004"><a xlink:href="d8/d07/structfmt_1_1formatter_3_1_1formats_1_1json_1_1Value_01_4.html" target="_top" xlink:title=" ">
<polygon fill="white" stroke="#666666" points="274.5,-126 135.5,-126 135.5,-96 274.5,-96 274.5,-126"/>
<text text-anchor="start" x="143.5" y="-114" font-family="Helvetica,sans-Serif" font-size="10.00">fmt::formatter&lt;::formats</text>
<text text-anchor="middle" x="205" y="-103" font-family="Helvetica,sans-Serif" font-size="10.00">::json::Value &gt;</text>
</a>
</g>
</g>
<!-- Node0&#45;&gt;Node4 -->
<g id="edge232_Node000000_Node000004" class="edge">
<title>Node0&#45;&gt;Node4</title>
<g id="a_edge232_Node000000_Node000004"><a xlink:title=" ">
<path fill="none" stroke="#63b8ff" d="M96.25,-127.16C108.73,-125.29 122.23,-123.26 135.33,-121.3"/>
<polygon fill="#63b8ff" stroke="#63b8ff" points="95.41,-123.75 86.04,-128.69 96.45,-130.67 95.41,-123.75"/>
</a>
</g>
</g>
<!-- Node5 -->
<g id="Node000005" class="node">
<title>Node5</title>
<g id="a_Node000005"><a xlink:href="d4/d76/structfmt_1_1formatter_3_1_1http_1_1headers_1_1PredefinedHeader_01_4.html" target="_top" xlink:title=" ">
<polygon fill="white" stroke="#666666" points="288,-78 122,-78 122,-48 288,-48 288,-78"/>
<text text-anchor="start" x="130" y="-66" font-family="Helvetica,sans-Serif" font-size="10.00">fmt::formatter&lt;::http</text>
<text text-anchor="middle" x="205" y="-55" font-family="Helvetica,sans-Serif" font-size="10.00">::headers::PredefinedHeader &gt;</text>
</a>
</g>
</g>
<!-- Node0&#45;&gt;Node5 -->
<g id="edge233_Node000000_Node000005" class="edge">
<title>Node0&#45;&gt;Node5</title>
<g id="a_edge233_Node000000_Node000005"><a xlink:title=" ">
<path fill="none" stroke="#63b8ff" d="M65.83,-119.37C81.01,-109.06 102.03,-95.88 122,-87 129.46,-83.69 137.49,-80.69 145.52,-78.03"/>
<polygon fill="#63b8ff" stroke="#63b8ff" points="63.43,-116.78 57.2,-125.35 67.41,-122.53 63.43,-116.78"/>
</a>
</g>
</g>
<!-- Node6 -->
<g id="Node000006" class="node">
<title>Node6</title>
<g id="a_Node000006"><a xlink:href="d0/d45/structfmt_1_1formatter_3_1_1utils_1_1SmallString_3_01N_01_4_01_4.html" target="_top" xlink:title=" ">
<polygon fill="white" stroke="#666666" points="266,-30 144,-30 144,0 266,0 266,-30"/>
<text text-anchor="start" x="152" y="-18" font-family="Helvetica,sans-Serif" font-size="10.00">fmt::formatter&lt;::utils</text>
<text text-anchor="middle" x="205" y="-7" font-family="Helvetica,sans-Serif" font-size="10.00">::SmallString&lt; N &gt; &gt;</text>
</a>
</g>
</g>
<!-- Node0&#45;&gt;Node6 -->
<g id="edge234_Node000000_Node000006" class="edge">
<title>Node0&#45;&gt;Node6</title>
<g id="a_edge234_Node000000_Node000006"><a xlink:title=" ">
<path fill="none" stroke="#63b8ff" d="M54.21,-116.61C67.19,-94.9 91.6,-59.2 122,-39 128.67,-34.57 136.18,-30.93 143.87,-27.97"/>
<polygon fill="#63b8ff" stroke="#63b8ff" points="51.05,-115.08 49.07,-125.49 57.11,-118.59 51.05,-115.08"/>
</a>
</g>
</g>
</g>
</svg>
