<?xml version="1.0" encoding="UTF-8" standalone="no"?>
<!DOCTYPE svg PUBLIC "-//W3C//DTD SVG 1.1//EN"
 "http://www.w3.org/Graphics/SVG/1.1/DTD/svg11.dtd">
<!-- Generated by graphviz version 2.43.0 (0)
 -->
<!-- Title: Graphical Class Hierarchy Pages: 1 -->
<svg width="811pt" height="301pt"
 viewBox="0.00 0.00 811.00 300.50" xmlns="http://www.w3.org/2000/svg" xmlns:xlink="http://www.w3.org/1999/xlink">
<g id="graph0" class="graph" transform="scale(1 1) rotate(0) translate(4 296.5)">
<title>Graphical Class Hierarchy</title>
<!-- Node0 -->
<g id="Node000000" class="node">
<title>Node0</title>
<g id="a_Node000000"><a xlink:title=" ">
<polygon fill="#e0e0e0" stroke="#999999" points="159,-132 0,-132 0,-102 159,-102 159,-132"/>
<text text-anchor="start" x="8" y="-120" font-family="Helvetica,sans-Serif" font-size="10.00">concurrent::impl::AsyncEvent</text>
<text text-anchor="middle" x="79.5" y="-109" font-family="Helvetica,sans-Serif" font-size="10.00">SourceBase</text>
</a>
</g>
</g>
<!-- Node1 -->
<g id="Node000001" class="node">
<title>Node1</title>
<g id="a_Node000001"><a xlink:href="dc/d11/classconcurrent_1_1AsyncEventSource.html" target="_top" xlink:title=" ">
<polygon fill="white" stroke="#666666" points="359,-156 195,-156 195,-126 359,-126 359,-156"/>
<text text-anchor="start" x="203" y="-144" font-family="Helvetica,sans-Serif" font-size="10.00">concurrent::AsyncEventSource</text>
<text text-anchor="middle" x="277" y="-133" font-family="Helvetica,sans-Serif" font-size="10.00">&lt; Args... &gt;</text>
</a>
</g>
</g>
<!-- Node0&#45;&gt;Node1 -->
<g id="edge165_Node000000_Node000001" class="edge">
<title>Node0&#45;&gt;Node1</title>
<g id="a_edge165_Node000000_Node000001"><a xlink:title=" ">
<path fill="none" stroke="#63b8ff" d="M169.18,-127.89C177.76,-128.94 186.44,-130.01 194.94,-131.05"/>
<polygon fill="#63b8ff" stroke="#63b8ff" points="169.52,-124.4 159.17,-126.66 168.67,-131.35 169.52,-124.4"/>
</a>
</g>
</g>
<!-- Node9 -->
<g id="Node000009" class="node">
<title>Node9</title>
<g id="a_Node000009"><a xlink:href="dc/d11/classconcurrent_1_1AsyncEventSource.html" target="_top" xlink:title="The read&#45;only side of an event channel. Events are delivered to listeners in a strict FIFO order,...">
<polygon fill="white" stroke="#666666" points="359,-108 195,-108 195,-78 359,-78 359,-108"/>
<text text-anchor="start" x="203" y="-96" font-family="Helvetica,sans-Serif" font-size="10.00">concurrent::AsyncEventSource</text>
<text text-anchor="middle" x="277" y="-85" font-family="Helvetica,sans-Serif" font-size="10.00">&lt; Args &gt;</text>
</a>
</g>
</g>
<!-- Node0&#45;&gt;Node9 -->
<g id="edge173_Node000000_Node000009" class="edge">
<title>Node0&#45;&gt;Node9</title>
<g id="a_edge173_Node000000_Node000009"><a xlink:title=" ">
<path fill="none" stroke="#63b8ff" d="M169.18,-106.11C177.76,-105.06 186.44,-103.99 194.94,-102.95"/>
<polygon fill="#63b8ff" stroke="#63b8ff" points="168.67,-102.65 159.17,-107.34 169.52,-109.6 168.67,-102.65"/>
</a>
</g>
</g>
<!-- Node2 -->
<g id="Node000002" class="node">
<title>Node2</title>
<g id="a_Node000002"><a xlink:href="d6/d38/classconcurrent_1_1AsyncEventChannel.html" target="_top" xlink:title=" ">
<polygon fill="white" stroke="#666666" points="611,-292.5 402,-292.5 402,-251.5 611,-251.5 611,-292.5"/>
<text text-anchor="start" x="410" y="-280.5" font-family="Helvetica,sans-Serif" font-size="10.00">concurrent::AsyncEventChannel</text>
<text text-anchor="start" x="410" y="-269.5" font-family="Helvetica,sans-Serif" font-size="10.00">&lt; const std::shared_ptr&lt;</text>
<text text-anchor="middle" x="506.5" y="-258.5" font-family="Helvetica,sans-Serif" font-size="10.00"> const dynamic_config::DocsMap &gt; &amp; &gt;</text>
</a>
</g>
</g>
<!-- Node1&#45;&gt;Node2 -->
<g id="edge166_Node000001_Node000002" class="edge">
<title>Node1&#45;&gt;Node2</title>
<g id="a_edge166_Node000001_Node000002"><a xlink:title=" ">
<path fill="none" stroke="#63b8ff" d="M298.17,-163.94C319.85,-187.19 356.44,-222.59 395,-243 400.87,-246.11 407.1,-248.9 413.49,-251.4"/>
<polygon fill="#63b8ff" stroke="#63b8ff" points="300.48,-161.27 291.14,-156.26 295.31,-166 300.48,-161.27"/>
</a>
</g>
</g>
<!-- Node3 -->
<g id="Node000003" class="node">
<title>Node3</title>
<g id="a_Node000003"><a xlink:href="d6/d38/classconcurrent_1_1AsyncEventChannel.html" target="_top" xlink:title=" ">
<polygon fill="white" stroke="#666666" points="618,-233.5 395,-233.5 395,-192.5 618,-192.5 618,-233.5"/>
<text text-anchor="start" x="403" y="-221.5" font-family="Helvetica,sans-Serif" font-size="10.00">concurrent::AsyncEventChannel</text>
<text text-anchor="start" x="403" y="-210.5" font-family="Helvetica,sans-Serif" font-size="10.00">&lt; const std::shared_ptr&lt;</text>
<text text-anchor="middle" x="506.5" y="-199.5" font-family="Helvetica,sans-Serif" font-size="10.00"> const MongoCacheTraits::DataType &gt; &amp; &gt;</text>
</a>
</g>
</g>
<!-- Node1&#45;&gt;Node3 -->
<g id="edge167_Node000001_Node000003" class="edge">
<title>Node1&#45;&gt;Node3</title>
<g id="a_edge167_Node000001_Node000003"><a xlink:title=" ">
<path fill="none" stroke="#63b8ff" d="M325.54,-159.64C346.65,-167.62 371.9,-176.74 395,-184 404.27,-186.91 414.04,-189.77 423.78,-192.49"/>
<polygon fill="#63b8ff" stroke="#63b8ff" points="326.74,-156.36 316.15,-156.07 324.25,-162.9 326.74,-156.36"/>
</a>
</g>
</g>
<!-- Node4 -->
<g id="Node000004" class="node">
<title>Node4</title>
<g id="a_Node000004"><a xlink:href="d6/d38/classconcurrent_1_1AsyncEventChannel.html" target="_top" xlink:title=" ">
<polygon fill="white" stroke="#666666" points="600.5,-174.5 412.5,-174.5 412.5,-155.5 600.5,-155.5 600.5,-174.5"/>
<text text-anchor="middle" x="506.5" y="-162.5" font-family="Helvetica,sans-Serif" font-size="10.00">concurrent::AsyncEventChannel&lt;&gt;</text>
</a>
</g>
</g>
<!-- Node1&#45;&gt;Node4 -->
<g id="edge168_Node000001_Node000004" class="edge">
<title>Node1&#45;&gt;Node4</title>
<g id="a_edge168_Node000001_Node000004"><a xlink:title=" ">
<path fill="none" stroke="#63b8ff" d="M369.48,-150.65C384.51,-152.24 400.08,-153.88 415.08,-155.46"/>
<polygon fill="#63b8ff" stroke="#63b8ff" points="369.48,-147.13 359.17,-149.56 368.75,-154.09 369.48,-147.13"/>
</a>
</g>
</g>
<!-- Node6 -->
<g id="Node000006" class="node">
<title>Node6</title>
<g id="a_Node000006"><a xlink:href="d6/d38/classconcurrent_1_1AsyncEventChannel.html" target="_top" xlink:title=" ">
<polygon fill="white" stroke="#666666" points="592,-137.5 421,-137.5 421,-96.5 592,-96.5 592,-137.5"/>
<text text-anchor="start" x="429" y="-125.5" font-family="Helvetica,sans-Serif" font-size="10.00">concurrent::AsyncEventChannel</text>
<text text-anchor="start" x="429" y="-114.5" font-family="Helvetica,sans-Serif" font-size="10.00">&lt; const std::shared_ptr&lt;</text>
<text text-anchor="middle" x="506.5" y="-103.5" font-family="Helvetica,sans-Serif" font-size="10.00"> const T &gt; &amp; &gt;</text>
</a>
</g>
</g>
<!-- Node1&#45;&gt;Node6 -->
<g id="edge170_Node000001_Node000006" class="edge">
<title>Node1&#45;&gt;Node6</title>
<g id="a_edge170_Node000001_Node000006"><a xlink:title=" ">
<path fill="none" stroke="#63b8ff" d="M369.14,-131.39C386.23,-129.58 404.02,-127.71 420.9,-125.92"/>
<polygon fill="#63b8ff" stroke="#63b8ff" points="368.75,-127.91 359.17,-132.44 369.48,-134.87 368.75,-127.91"/>
</a>
</g>
</g>
<!-- Node7 -->
<g id="Node000007" class="node">
<title>Node7</title>
<g id="a_Node000007"><a xlink:href="d6/d38/classconcurrent_1_1AsyncEventChannel.html" target="_top" xlink:title=" ">
<polygon fill="white" stroke="#666666" points="592,-78 421,-78 421,-48 592,-48 592,-78"/>
<text text-anchor="start" x="429" y="-66" font-family="Helvetica,sans-Serif" font-size="10.00">concurrent::AsyncEventChannel</text>
<text text-anchor="middle" x="506.5" y="-55" font-family="Helvetica,sans-Serif" font-size="10.00">&lt; int &gt;</text>
</a>
</g>
</g>
<!-- Node1&#45;&gt;Node7 -->
<g id="edge171_Node000001_Node000007" class="edge">
<title>Node1&#45;&gt;Node7</title>
<g id="a_edge171_Node000001_Node000007"><a xlink:title=" ">
<path fill="none" stroke="#63b8ff" d="M348.15,-122.12C351.88,-120.53 355.52,-118.83 359,-117 377.19,-107.46 376.5,-96.94 395,-88 403.15,-84.06 411.93,-80.73 420.87,-77.92"/>
<polygon fill="#63b8ff" stroke="#63b8ff" points="346.76,-118.91 338.75,-125.85 349.34,-125.42 346.76,-118.91"/>
</a>
</g>
</g>
<!-- Node8 -->
<g id="Node000008" class="node">
<title>Node8</title>
<g id="a_Node000008"><a xlink:href="d6/d38/classconcurrent_1_1AsyncEventChannel.html" target="_top" xlink:title=" ">
<polygon fill="white" stroke="#666666" points="592,-30 421,-30 421,0 592,0 592,-30"/>
<text text-anchor="start" x="429" y="-18" font-family="Helvetica,sans-Serif" font-size="10.00">concurrent::AsyncEventChannel</text>
<text text-anchor="middle" x="506.5" y="-7" font-family="Helvetica,sans-Serif" font-size="10.00">&lt; Args &gt;</text>
</a>
</g>
</g>
<!-- Node1&#45;&gt;Node8 -->
<g id="edge172_Node000001_Node000008" class="edge">
<title>Node1&#45;&gt;Node8</title>
<g id="a_edge172_Node000001_Node000008"><a xlink:title=" ">
<path fill="none" stroke="#63b8ff" d="M354.32,-120.68C355.94,-119.52 357.5,-118.3 359,-117 387.87,-92.02 365.22,-62.89 395,-39 402.66,-32.86 411.54,-28.2 420.87,-24.68"/>
<polygon fill="#63b8ff" stroke="#63b8ff" points="352.47,-117.71 345.8,-125.94 356.14,-123.67 352.47,-117.71"/>
</a>
</g>
</g>
<!-- Node5 -->
<g id="Node000005" class="node">
<title>Node5</title>
<g id="a_Node000005"><a xlink:href="d2/d89/classconcurrent_1_1ConflatedEventChannel.html" target="_top" xlink:title="A non&#45;blocking version of &#39;AsyncEventChannel&#39;.">
<polygon fill="white" stroke="#666666" points="803,-180 654,-180 654,-150 803,-150 803,-180"/>
<text text-anchor="start" x="662" y="-168" font-family="Helvetica,sans-Serif" font-size="10.00">concurrent::ConflatedEvent</text>
<text text-anchor="middle" x="728.5" y="-157" font-family="Helvetica,sans-Serif" font-size="10.00">Channel</text>
</a>
</g>
</g>
<!-- Node4&#45;&gt;Node5 -->
<g id="edge169_Node000004_Node000005" class="edge">
<title>Node4&#45;&gt;Node5</title>
<g id="a_edge169_Node000004_Node000005"><a xlink:title=" ">
<path fill="none" stroke="#8b1a1a" d="M611.21,-165C625.57,-165 640.07,-165 653.73,-165"/>
<polygon fill="#8b1a1a" stroke="#8b1a1a" points="610.8,-161.5 600.8,-165 610.8,-168.5 610.8,-161.5"/>
</a>
</g>
</g>
</g>
</svg>
