<?xml version="1.0" encoding="UTF-8" standalone="no"?>
<!DOCTYPE svg PUBLIC "-//W3C//DTD SVG 1.1//EN"
 "http://www.w3.org/Graphics/SVG/1.1/DTD/svg11.dtd">
<!-- Generated by graphviz version 2.43.0 (0)
 -->
<!-- Title: Graphical Class Hierarchy Pages: 1 -->
<svg width="278pt" height="64pt"
 viewBox="0.00 0.00 278.00 64.00" xmlns="http://www.w3.org/2000/svg" xmlns:xlink="http://www.w3.org/1999/xlink">
<g id="graph0" class="graph" transform="scale(1 1) rotate(0) translate(4 60)">
<title>Graphical Class Hierarchy</title>
<!-- Node0 -->
<g id="Node000000" class="node">
<title>Node0</title>
<g id="a_Node000000"><a xlink:title=" ">
<polygon fill="#e0e0e0" stroke="#999999" points="130,-37 0,-37 0,-18 130,-18 130,-37"/>
<text text-anchor="middle" x="65" y="-25" font-family="Helvetica,sans-Serif" font-size="10.00">logging::impl::HexBase</text>
</a>
</g>
</g>
<!-- Node1 -->
<g id="Node000001" class="node">
<title>Node1</title>
<g id="a_Node000001"><a xlink:href="d8/de6/structlogging_1_1Hex.html" target="_top" xlink:title="Formats value in a hex mode with the fixed length representation.">
<polygon fill="white" stroke="#666666" points="257,-56 179,-56 179,-37 257,-37 257,-56"/>
<text text-anchor="middle" x="218" y="-44" font-family="Helvetica,sans-Serif" font-size="10.00">logging::Hex</text>
</a>
</g>
</g>
<!-- Node0&#45;&gt;Node1 -->
<g id="edge264_Node000000_Node000001" class="edge">
<title>Node0&#45;&gt;Node1</title>
<g id="a_edge264_Node000000_Node000001"><a xlink:title=" ">
<path fill="none" stroke="#63b8ff" d="M140.19,-36.84C153.52,-38.51 166.91,-40.2 178.69,-41.68"/>
<polygon fill="#63b8ff" stroke="#63b8ff" points="140.4,-33.33 130.04,-35.56 139.52,-40.28 140.4,-33.33"/>
</a>
</g>
</g>
<!-- Node2 -->
<g id="Node000002" class="node">
<title>Node2</title>
<g id="a_Node000002"><a xlink:href="df/d58/structlogging_1_1HexShort.html" target="_top" xlink:title=" ">
<polygon fill="white" stroke="#666666" points="270,-19 166,-19 166,0 270,0 270,-19"/>
<text text-anchor="middle" x="218" y="-7" font-family="Helvetica,sans-Serif" font-size="10.00">logging::HexShort</text>
</a>
</g>
</g>
<!-- Node0&#45;&gt;Node2 -->
<g id="edge265_Node000000_Node000002" class="edge">
<title>Node0&#45;&gt;Node2</title>
<g id="a_edge265_Node000000_Node000002"><a xlink:title=" ">
<path fill="none" stroke="#63b8ff" d="M140.14,-18.66C148.78,-17.63 157.44,-16.6 165.67,-15.62"/>
<polygon fill="#63b8ff" stroke="#63b8ff" points="139.55,-15.21 130.04,-19.87 140.38,-22.16 139.55,-15.21"/>
</a>
</g>
</g>
</g>
</svg>
