<?xml version="1.0" encoding="UTF-8" standalone="no"?>
<!DOCTYPE svg PUBLIC "-//W3C//DTD SVG 1.1//EN"
 "http://www.w3.org/Graphics/SVG/1.1/DTD/svg11.dtd">
<!-- Generated by graphviz version 2.43.0 (0)
 -->
<!-- Title: Graphical Class Hierarchy Pages: 1 -->
<svg width="344pt" height="76pt"
 viewBox="0.00 0.00 344.00 75.50" xmlns="http://www.w3.org/2000/svg" xmlns:xlink="http://www.w3.org/1999/xlink">
<g id="graph0" class="graph" transform="scale(1 1) rotate(0) translate(4 71.5)">
<title>Graphical Class Hierarchy</title>
<!-- Node0 -->
<g id="Node000000" class="node">
<title>Node0</title>
<g id="a_Node000000"><a xlink:href="d0/d61/classpytest__userver_1_1client_1_1ClientWrapper.html" target="_top" xlink:title="Base asyncio userver client that implements HTTP requests to service.">
<polygon fill="white" stroke="#666666" points="150,-51 0,-51 0,-21 150,-21 150,-51"/>
<text text-anchor="start" x="8" y="-39" font-family="Helvetica,sans-Serif" font-size="10.00">pytest_userver.client.Client</text>
<text text-anchor="middle" x="75" y="-28" font-family="Helvetica,sans-Serif" font-size="10.00">Wrapper</text>
</a>
</g>
</g>
<!-- Node1 -->
<g id="Node000001" class="node">
<title>Node1</title>
<g id="a_Node000001"><a xlink:href="d5/d79/classpytest__userver_1_1client_1_1Client.html" target="_top" xlink:title="Asyncio userver client, typically retrieved from plugins.service_client.service_client fixture.">
<polygon fill="white" stroke="#666666" points="336,-67.5 186,-67.5 186,-48.5 336,-48.5 336,-67.5"/>
<text text-anchor="middle" x="261" y="-55.5" font-family="Helvetica,sans-Serif" font-size="10.00">pytest_userver.client.Client</text>
</a>
</g>
</g>
<!-- Node0&#45;&gt;Node1 -->
<g id="edge352_Node000000_Node000001" class="edge">
<title>Node0&#45;&gt;Node1</title>
<g id="a_edge352_Node000000_Node000001"><a xlink:title=" ">
<path fill="none" stroke="#63b8ff" d="M160.07,-46.05C168.65,-47.08 177.34,-48.12 185.81,-49.13"/>
<polygon fill="#63b8ff" stroke="#63b8ff" points="160.39,-42.57 150.04,-44.85 159.56,-49.52 160.39,-42.57"/>
</a>
</g>
</g>
<!-- Node2 -->
<g id="Node000002" class="node">
<title>Node2</title>
<g id="a_Node000002"><a xlink:href="d5/dd8/classpytest__userver_1_1client_1_1ClientMonitor.html" target="_top" xlink:title="Asyncio userver client for monitor listeners, typically retrieved from plugins.service_client....">
<polygon fill="white" stroke="#666666" points="336,-30 186,-30 186,0 336,0 336,-30"/>
<text text-anchor="start" x="194" y="-18" font-family="Helvetica,sans-Serif" font-size="10.00">pytest_userver.client.Client</text>
<text text-anchor="middle" x="261" y="-7" font-family="Helvetica,sans-Serif" font-size="10.00">Monitor</text>
</a>
</g>
</g>
<!-- Node0&#45;&gt;Node2 -->
<g id="edge353_Node000000_Node000002" class="edge">
<title>Node0&#45;&gt;Node2</title>
<g id="a_edge353_Node000000_Node000002"><a xlink:title=" ">
<path fill="none" stroke="#63b8ff" d="M160.07,-26.41C168.65,-25.43 177.34,-24.43 185.81,-23.47"/>
<polygon fill="#63b8ff" stroke="#63b8ff" points="159.58,-22.94 150.04,-27.55 160.38,-29.89 159.58,-22.94"/>
</a>
</g>
</g>
</g>
</svg>
