<?xml version="1.0" encoding="UTF-8" standalone="no"?>
<!DOCTYPE svg PUBLIC "-//W3C//DTD SVG 1.1//EN"
 "http://www.w3.org/Graphics/SVG/1.1/DTD/svg11.dtd">
<!-- Generated by graphviz version 2.43.0 (0)
 -->
<!-- Title: Graphical Class Hierarchy Pages: 1 -->
<svg width="572pt" height="71pt"
 viewBox="0.00 0.00 572.00 71.00" xmlns="http://www.w3.org/2000/svg" xmlns:xlink="http://www.w3.org/1999/xlink">
<g id="graph0" class="graph" transform="scale(1 1) rotate(0) translate(4 67)">
<title>Graphical Class Hierarchy</title>
<!-- Node0 -->
<g id="Node000000" class="node">
<title>Node0</title>
<g id="a_Node000000"><a xlink:title=" ">
<polygon fill="#e0e0e0" stroke="#999999" points="133,-52 0,-52 0,-11 133,-11 133,-52"/>
<text text-anchor="start" x="8" y="-40" font-family="Helvetica,sans-Serif" font-size="10.00">storages::postgres</text>
<text text-anchor="start" x="8" y="-29" font-family="Helvetica,sans-Serif" font-size="10.00">::io::detail::BufferParser</text>
<text text-anchor="middle" x="66.5" y="-18" font-family="Helvetica,sans-Serif" font-size="10.00">Base&lt; StrongTypedef &gt;</text>
</a>
</g>
</g>
<!-- Node1 -->
<g id="Node000001" class="node">
<title>Node1</title>
<g id="a_Node000001"><a xlink:title=" ">
<polygon fill="#e0e0e0" stroke="#999999" points="385,-63 169,-63 169,0 385,0 385,-63"/>
<text text-anchor="start" x="177" y="-51" font-family="Helvetica,sans-Serif" font-size="10.00">storages::postgres</text>
<text text-anchor="start" x="177" y="-40" font-family="Helvetica,sans-Serif" font-size="10.00">::io::detail::StrongTypedef</text>
<text text-anchor="start" x="177" y="-29" font-family="Helvetica,sans-Serif" font-size="10.00">Parser&lt; ::utils::StrongTypedef</text>
<text text-anchor="start" x="177" y="-18" font-family="Helvetica,sans-Serif" font-size="10.00">&lt; Tag, T, Ops, Enable &gt;, detail</text>
<text text-anchor="middle" x="277" y="-7" font-family="Helvetica,sans-Serif" font-size="10.00">::kParserRequiresTypeCategories&lt; T &gt; &gt;</text>
</a>
</g>
</g>
<!-- Node0&#45;&gt;Node1 -->
<g id="edge725_Node000000_Node000001" class="edge">
<title>Node0&#45;&gt;Node1</title>
<g id="a_edge725_Node000000_Node000001"><a xlink:title=" ">
<path fill="none" stroke="#63b8ff" d="M143.45,-31.5C151.68,-31.5 160.17,-31.5 168.68,-31.5"/>
<polygon fill="#63b8ff" stroke="#63b8ff" points="143.18,-28 133.18,-31.5 143.18,-35 143.18,-28"/>
</a>
</g>
</g>
<!-- Node2 -->
<g id="Node000002" class="node">
<title>Node2</title>
<g id="a_Node000002"><a xlink:href="de/d80/structstorages_1_1postgres_1_1io_1_1BufferParser_3_01_1_1utils_1_1StrongTypedef_3_01Tag_00_01T_00_01Ops_00_01Enable_01_4_01_4.html" target="_top" xlink:title=" ">
<polygon fill="white" stroke="#666666" points="564,-57.5 421,-57.5 421,-5.5 564,-5.5 564,-57.5"/>
<text text-anchor="start" x="429" y="-45.5" font-family="Helvetica,sans-Serif" font-size="10.00">storages::postgres</text>
<text text-anchor="start" x="429" y="-34.5" font-family="Helvetica,sans-Serif" font-size="10.00">::io::BufferParser&lt;</text>
<text text-anchor="start" x="429" y="-23.5" font-family="Helvetica,sans-Serif" font-size="10.00"> ::utils::StrongTypedef</text>
<text text-anchor="middle" x="492.5" y="-12.5" font-family="Helvetica,sans-Serif" font-size="10.00">&lt; Tag, T, Ops, Enable &gt; &gt;</text>
</a>
</g>
</g>
<!-- Node1&#45;&gt;Node2 -->
<g id="edge726_Node000001_Node000002" class="edge">
<title>Node1&#45;&gt;Node2</title>
<g id="a_edge726_Node000001_Node000002"><a xlink:title=" ">
<path fill="none" stroke="#63b8ff" d="M395.32,-31.5C404.03,-31.5 412.65,-31.5 420.93,-31.5"/>
<polygon fill="#63b8ff" stroke="#63b8ff" points="395.06,-28 385.06,-31.5 395.06,-35 395.06,-28"/>
</a>
</g>
</g>
</g>
</svg>
