<?xml version="1.0" encoding="UTF-8" standalone="no"?>
<!DOCTYPE svg PUBLIC "-//W3C//DTD SVG 1.1//EN"
 "http://www.w3.org/Graphics/SVG/1.1/DTD/svg11.dtd">
<!-- Generated by graphviz version 2.43.0 (0)
 -->
<!-- Title: Graphical Class Hierarchy Pages: 1 -->
<svg width="329pt" height="205pt"
 viewBox="0.00 0.00 329.00 204.50" xmlns="http://www.w3.org/2000/svg" xmlns:xlink="http://www.w3.org/1999/xlink">
<g id="graph0" class="graph" transform="scale(1 1) rotate(0) translate(4 200.5)">
<title>Graphical Class Hierarchy</title>
<!-- Node0 -->
<g id="Node000000" class="node">
<title>Node0</title>
<g id="a_Node000000"><a xlink:title=" ">
<polygon fill="#e0e0e0" stroke="#999999" points="121,-116 0,-116 0,-97 121,-97 121,-116"/>
<text text-anchor="middle" x="60.5" y="-104" font-family="Helvetica,sans-Serif" font-size="10.00">utils::IsDeclComplete</text>
</a>
</g>
</g>
<!-- Node1 -->
<g id="Node000001" class="node">
<title>Node1</title>
<g id="a_Node000001"><a xlink:href="d9/d14/structstorages_1_1postgres_1_1io_1_1traits_1_1HasFormatter.html" target="_top" xlink:title="Metafunction to detect if a type has a formatter.">
<polygon fill="white" stroke="#666666" points="321,-196.5 157,-196.5 157,-166.5 321,-166.5 321,-196.5"/>
<text text-anchor="start" x="165" y="-184.5" font-family="Helvetica,sans-Serif" font-size="10.00">storages::postgres</text>
<text text-anchor="middle" x="239" y="-173.5" font-family="Helvetica,sans-Serif" font-size="10.00">::io::traits::HasFormatter&lt; T &gt;</text>
</a>
</g>
</g>
<!-- Node0&#45;&gt;Node1 -->
<g id="edge787_Node000000_Node000001" class="edge">
<title>Node0&#45;&gt;Node1</title>
<g id="a_edge787_Node000000_Node000001"><a xlink:title=" ">
<path fill="none" stroke="#63b8ff" d="M86.08,-121.41C104.98,-132.43 132.01,-147.25 157,-157.5 164.87,-160.73 173.33,-163.73 181.71,-166.43"/>
<polygon fill="#63b8ff" stroke="#63b8ff" points="87.63,-118.26 77.24,-116.19 84.07,-124.29 87.63,-118.26"/>
</a>
</g>
</g>
<!-- Node2 -->
<g id="Node000002" class="node">
<title>Node2</title>
<g id="a_Node000002"><a xlink:href="dd/d06/structstorages_1_1postgres_1_1io_1_1traits_1_1HasParser.html" target="_top" xlink:title="Metafunction to detect if a type has a parser.">
<polygon fill="white" stroke="#666666" points="312,-148.5 166,-148.5 166,-118.5 312,-118.5 312,-148.5"/>
<text text-anchor="start" x="174" y="-136.5" font-family="Helvetica,sans-Serif" font-size="10.00">storages::postgres</text>
<text text-anchor="middle" x="239" y="-125.5" font-family="Helvetica,sans-Serif" font-size="10.00">::io::traits::HasParser&lt; T &gt;</text>
</a>
</g>
</g>
<!-- Node0&#45;&gt;Node2 -->
<g id="edge788_Node000000_Node000002" class="edge">
<title>Node0&#45;&gt;Node2</title>
<g id="a_edge788_Node000000_Node000002"><a xlink:title=" ">
<path fill="none" stroke="#63b8ff" d="M131.47,-117.2C142.75,-118.93 154.44,-120.72 165.77,-122.45"/>
<polygon fill="#63b8ff" stroke="#63b8ff" points="131.67,-113.69 121.25,-115.64 130.61,-120.61 131.67,-113.69"/>
</a>
</g>
</g>
<!-- Node3 -->
<g id="Node000003" class="node">
<title>Node3</title>
<g id="a_Node000003"><a xlink:href="d1/d40/structstorages_1_1postgres_1_1io_1_1traits_1_1IsMappedToSystemType.html" target="_top" xlink:title="Detect if the C++ type is mapped to a Postgres system type.">
<polygon fill="white" stroke="#666666" points="321,-100 157,-100 157,-59 321,-59 321,-100"/>
<text text-anchor="start" x="165" y="-88" font-family="Helvetica,sans-Serif" font-size="10.00">storages::postgres</text>
<text text-anchor="start" x="165" y="-77" font-family="Helvetica,sans-Serif" font-size="10.00">::io::traits::IsMappedToSystem</text>
<text text-anchor="middle" x="239" y="-66" font-family="Helvetica,sans-Serif" font-size="10.00">Type&lt; T &gt;</text>
</a>
</g>
</g>
<!-- Node0&#45;&gt;Node3 -->
<g id="edge789_Node000000_Node000003" class="edge">
<title>Node0&#45;&gt;Node3</title>
<g id="a_edge789_Node000000_Node000003"><a xlink:title=" ">
<path fill="none" stroke="#63b8ff" d="M131.3,-95.82C139.64,-94.55 148.22,-93.23 156.71,-91.94"/>
<polygon fill="#63b8ff" stroke="#63b8ff" points="130.61,-92.39 121.25,-97.36 131.67,-99.31 130.61,-92.39"/>
</a>
</g>
</g>
<!-- Node4 -->
<g id="Node000004" class="node">
<title>Node4</title>
<g id="a_Node000004"><a xlink:href="d7/dad/structstorages_1_1postgres_1_1io_1_1traits_1_1IsMappedToUserType.html" target="_top" xlink:title="Detect if the C++ type is mapped to a Postgres user type.">
<polygon fill="white" stroke="#666666" points="313.5,-41 164.5,-41 164.5,0 313.5,0 313.5,-41"/>
<text text-anchor="start" x="172.5" y="-29" font-family="Helvetica,sans-Serif" font-size="10.00">storages::postgres</text>
<text text-anchor="start" x="172.5" y="-18" font-family="Helvetica,sans-Serif" font-size="10.00">::io::traits::IsMappedToUser</text>
<text text-anchor="middle" x="239" y="-7" font-family="Helvetica,sans-Serif" font-size="10.00">Type&lt; T &gt;</text>
</a>
</g>
</g>
<!-- Node0&#45;&gt;Node4 -->
<g id="edge790_Node000000_Node000004" class="edge">
<title>Node0&#45;&gt;Node4</title>
<g id="a_edge790_Node000000_Node000004"><a xlink:title=" ">
<path fill="none" stroke="#63b8ff" d="M84.5,-91.47C103.46,-79.45 131.33,-62.67 157,-50.5 163.91,-47.22 171.28,-44.06 178.66,-41.1"/>
<polygon fill="#63b8ff" stroke="#63b8ff" points="82.48,-88.6 75.95,-96.94 86.26,-94.5 82.48,-88.6"/>
</a>
</g>
</g>
</g>
</svg>
