<?xml version="1.0" encoding="UTF-8" standalone="no"?>
<!DOCTYPE svg PUBLIC "-//W3C//DTD SVG 1.1//EN"
 "http://www.w3.org/Graphics/SVG/1.1/DTD/svg11.dtd">
<!-- Generated by graphviz version 2.43.0 (0)
 -->
<!-- Title: Graphical Class Hierarchy Pages: 1 -->
<svg width="540pt" height="786pt"
 viewBox="0.00 0.00 540.00 785.50" xmlns="http://www.w3.org/2000/svg" xmlns:xlink="http://www.w3.org/1999/xlink">
<g id="graph0" class="graph" transform="scale(1 1) rotate(0) translate(4 781.5)">
<title>Graphical Class Hierarchy</title>
<!-- Node0 -->
<g id="Node000000" class="node">
<title>Node0</title>
<g id="a_Node000000"><a xlink:title=" ">
<polygon fill="#e0e0e0" stroke="#999999" points="89,-385.5 0,-385.5 0,-366.5 89,-366.5 89,-385.5"/>
<text text-anchor="middle" x="44.5" y="-373.5" font-family="Helvetica,sans-Serif" font-size="10.00">std::false_type</text>
</a>
</g>
</g>
<!-- Node1 -->
<g id="Node000001" class="node">
<title>Node1</title>
<g id="a_Node000001"><a xlink:href="d7/ddc/structstorages_1_1postgres_1_1io_1_1traits_1_1IsCompatibleContainer.html" target="_top" xlink:title=" ">
<polygon fill="white" stroke="#666666" points="287.5,-777.5 153.5,-777.5 153.5,-736.5 287.5,-736.5 287.5,-777.5"/>
<text text-anchor="start" x="161.5" y="-765.5" font-family="Helvetica,sans-Serif" font-size="10.00">storages::postgres</text>
<text text-anchor="start" x="161.5" y="-754.5" font-family="Helvetica,sans-Serif" font-size="10.00">::io::traits::IsCompatible</text>
<text text-anchor="middle" x="220.5" y="-743.5" font-family="Helvetica,sans-Serif" font-size="10.00">Container&lt; Container &gt;</text>
</a>
</g>
</g>
<!-- Node0&#45;&gt;Node1 -->
<g id="edge609_Node000000_Node000001" class="edge">
<title>Node0&#45;&gt;Node1</title>
<g id="a_edge609_Node000000_Node000001"><a xlink:title=" ">
<path fill="none" stroke="#63b8ff" d="M47.39,-395.9C54.14,-462.84 79.1,-678.49 125,-728 132.7,-736.31 142.71,-742.26 153.33,-746.51"/>
<polygon fill="#63b8ff" stroke="#63b8ff" points="50.86,-395.44 46.4,-385.83 43.9,-396.13 50.86,-395.44"/>
</a>
</g>
</g>
<!-- Node2 -->
<g id="Node000002" class="node">
<title>Node2</title>
<g id="a_Node000002"><a xlink:href="db/d97/structstorages_1_1postgres_1_1io_1_1traits_1_1CanClear.html" target="_top" xlink:title=" ">
<polygon fill="white" stroke="#666666" points="277,-718.5 164,-718.5 164,-677.5 277,-677.5 277,-718.5"/>
<text text-anchor="start" x="172" y="-706.5" font-family="Helvetica,sans-Serif" font-size="10.00">storages::postgres</text>
<text text-anchor="start" x="172" y="-695.5" font-family="Helvetica,sans-Serif" font-size="10.00">::io::traits::CanClear</text>
<text text-anchor="middle" x="220.5" y="-684.5" font-family="Helvetica,sans-Serif" font-size="10.00">&lt; T, typename &gt;</text>
</a>
</g>
</g>
<!-- Node0&#45;&gt;Node2 -->
<g id="edge610_Node000000_Node000002" class="edge">
<title>Node0&#45;&gt;Node2</title>
<g id="a_edge610_Node000000_Node000002"><a xlink:title=" ">
<path fill="none" stroke="#63b8ff" d="M44.78,-395.94C44.01,-448.26 49.35,-590.83 125,-669 135.38,-679.73 149.62,-686.52 163.9,-690.8"/>
<polygon fill="#63b8ff" stroke="#63b8ff" points="48.28,-395.77 45.03,-385.68 41.28,-395.59 48.28,-395.77"/>
</a>
</g>
</g>
<!-- Node3 -->
<g id="Node000003" class="node">
<title>Node3</title>
<g id="a_Node000003"><a xlink:href="d5/dcd/structstorages_1_1postgres_1_1io_1_1traits_1_1CanReserve.html" target="_top" xlink:title=" ">
<polygon fill="white" stroke="#666666" points="284.5,-659.5 156.5,-659.5 156.5,-618.5 284.5,-618.5 284.5,-659.5"/>
<text text-anchor="start" x="164.5" y="-647.5" font-family="Helvetica,sans-Serif" font-size="10.00">storages::postgres</text>
<text text-anchor="start" x="164.5" y="-636.5" font-family="Helvetica,sans-Serif" font-size="10.00">::io::traits::CanReserve</text>
<text text-anchor="middle" x="220.5" y="-625.5" font-family="Helvetica,sans-Serif" font-size="10.00">&lt; T, typename &gt;</text>
</a>
</g>
</g>
<!-- Node0&#45;&gt;Node3 -->
<g id="edge611_Node000000_Node000003" class="edge">
<title>Node0&#45;&gt;Node3</title>
<g id="a_edge611_Node000000_Node000003"><a xlink:title=" ">
<path fill="none" stroke="#63b8ff" d="M46.38,-395.75C49.46,-440.44 63.26,-550.07 125,-610 133.74,-618.49 144.91,-624.5 156.47,-628.75"/>
<polygon fill="#63b8ff" stroke="#63b8ff" points="49.87,-395.41 45.8,-385.63 42.88,-395.82 49.87,-395.41"/>
</a>
</g>
</g>
<!-- Node4 -->
<g id="Node000004" class="node">
<title>Node4</title>
<g id="a_Node000004"><a xlink:href="dc/df0/structstorages_1_1postgres_1_1io_1_1traits_1_1CanResize.html" target="_top" xlink:title=" ">
<polygon fill="white" stroke="#666666" points="280.5,-600.5 160.5,-600.5 160.5,-559.5 280.5,-559.5 280.5,-600.5"/>
<text text-anchor="start" x="168.5" y="-588.5" font-family="Helvetica,sans-Serif" font-size="10.00">storages::postgres</text>
<text text-anchor="start" x="168.5" y="-577.5" font-family="Helvetica,sans-Serif" font-size="10.00">::io::traits::CanResize</text>
<text text-anchor="middle" x="220.5" y="-566.5" font-family="Helvetica,sans-Serif" font-size="10.00">&lt; T, typename &gt;</text>
</a>
</g>
</g>
<!-- Node0&#45;&gt;Node4 -->
<g id="edge612_Node000000_Node000004" class="edge">
<title>Node0&#45;&gt;Node4</title>
<g id="a_edge612_Node000000_Node000004"><a xlink:title=" ">
<path fill="none" stroke="#63b8ff" d="M48.98,-395.81C56.37,-431.98 77.05,-508.86 125,-551 134.93,-559.72 147.43,-565.82 160.06,-570.09"/>
<polygon fill="#63b8ff" stroke="#63b8ff" points="52.34,-394.76 47.03,-385.59 45.47,-396.07 52.34,-394.76"/>
</a>
</g>
</g>
<!-- Node5 -->
<g id="Node000005" class="node">
<title>Node5</title>
<g id="a_Node000005"><a xlink:href="d7/d7d/structstorages_1_1postgres_1_1io_1_1traits_1_1CanUseEnumAsStrongTypedef.html" target="_top" xlink:title=" ">
<polygon fill="white" stroke="#666666" points="305.5,-541.5 135.5,-541.5 135.5,-500.5 305.5,-500.5 305.5,-541.5"/>
<text text-anchor="start" x="143.5" y="-529.5" font-family="Helvetica,sans-Serif" font-size="10.00">storages::postgres</text>
<text text-anchor="start" x="143.5" y="-518.5" font-family="Helvetica,sans-Serif" font-size="10.00">::io::traits::CanUseEnumAs</text>
<text text-anchor="middle" x="220.5" y="-507.5" font-family="Helvetica,sans-Serif" font-size="10.00">StrongTypedef&lt; T, typename &gt;</text>
</a>
</g>
</g>
<!-- Node0&#45;&gt;Node5 -->
<g id="edge613_Node000000_Node000005" class="edge">
<title>Node0&#45;&gt;Node5</title>
<g id="a_edge613_Node000000_Node000005"><a xlink:title=" ">
<path fill="none" stroke="#63b8ff" d="M53.66,-395.16C65.6,-420.93 90.25,-466.46 125,-492 129.29,-495.15 133.92,-497.96 138.76,-500.47"/>
<polygon fill="#63b8ff" stroke="#63b8ff" points="56.73,-393.44 49.46,-385.74 50.34,-396.3 56.73,-393.44"/>
</a>
</g>
</g>
<!-- Node6 -->
<g id="Node000006" class="node">
<title>Node6</title>
<g id="a_Node000006"><a xlink:href="df/d3c/structstorages_1_1postgres_1_1io_1_1traits_1_1HasInputOperator.html" target="_top" xlink:title=" ">
<polygon fill="white" stroke="#666666" points="298,-482.5 143,-482.5 143,-441.5 298,-441.5 298,-482.5"/>
<text text-anchor="start" x="151" y="-470.5" font-family="Helvetica,sans-Serif" font-size="10.00">storages::postgres</text>
<text text-anchor="start" x="151" y="-459.5" font-family="Helvetica,sans-Serif" font-size="10.00">::io::traits::HasInputOperator</text>
<text text-anchor="middle" x="220.5" y="-448.5" font-family="Helvetica,sans-Serif" font-size="10.00">&lt; T, typename &gt;</text>
</a>
</g>
</g>
<!-- Node0&#45;&gt;Node6 -->
<g id="edge614_Node000000_Node000006" class="edge">
<title>Node0&#45;&gt;Node6</title>
<g id="a_edge614_Node000000_Node000006"><a xlink:title=" ">
<path fill="none" stroke="#63b8ff" d="M64.09,-392.01C79.53,-404.62 102.53,-421.87 125,-433 131.15,-436.05 137.69,-438.85 144.34,-441.41"/>
<polygon fill="#63b8ff" stroke="#63b8ff" points="66.26,-389.26 56.34,-385.55 61.78,-394.64 66.26,-389.26"/>
</a>
</g>
</g>
<!-- Node7 -->
<g id="Node000007" class="node">
<title>Node7</title>
<g id="a_Node000007"><a xlink:href="da/d58/structstorages_1_1postgres_1_1io_1_1traits_1_1HasOutputOperator.html" target="_top" xlink:title=" ">
<polygon fill="white" stroke="#666666" points="302.5,-423.5 138.5,-423.5 138.5,-382.5 302.5,-382.5 302.5,-423.5"/>
<text text-anchor="start" x="146.5" y="-411.5" font-family="Helvetica,sans-Serif" font-size="10.00">storages::postgres</text>
<text text-anchor="start" x="146.5" y="-400.5" font-family="Helvetica,sans-Serif" font-size="10.00">::io::traits::HasOutputOperator</text>
<text text-anchor="middle" x="220.5" y="-389.5" font-family="Helvetica,sans-Serif" font-size="10.00">&lt; T, typename &gt;</text>
</a>
</g>
</g>
<!-- Node0&#45;&gt;Node7 -->
<g id="edge615_Node000000_Node000007" class="edge">
<title>Node0&#45;&gt;Node7</title>
<g id="a_edge615_Node000000_Node000007"><a xlink:title=" ">
<path fill="none" stroke="#63b8ff" d="M99.48,-384.38C111.8,-386.29 125.15,-388.36 138.33,-390.4"/>
<polygon fill="#63b8ff" stroke="#63b8ff" points="99.83,-380.89 89.41,-382.81 98.75,-387.81 99.83,-380.89"/>
</a>
</g>
</g>
<!-- Node8 -->
<g id="Node000008" class="node">
<title>Node8</title>
<g id="a_Node000008"><a xlink:href="d3/dff/structstorages_1_1postgres_1_1io_1_1traits_1_1IsByteaCompatible.html" target="_top" xlink:title=" ">
<polygon fill="white" stroke="#666666" points="316,-364 125,-364 125,-334 316,-334 316,-364"/>
<text text-anchor="start" x="133" y="-352" font-family="Helvetica,sans-Serif" font-size="10.00">storages::postgres</text>
<text text-anchor="middle" x="220.5" y="-341" font-family="Helvetica,sans-Serif" font-size="10.00">::io::traits::IsByteaCompatible&lt; T &gt;</text>
</a>
</g>
</g>
<!-- Node0&#45;&gt;Node8 -->
<g id="edge616_Node000000_Node000008" class="edge">
<title>Node0&#45;&gt;Node8</title>
<g id="a_edge616_Node000000_Node000008"><a xlink:title=" ">
<path fill="none" stroke="#63b8ff" d="M99.48,-367.62C107.64,-366.36 116.26,-365.02 124.98,-363.67"/>
<polygon fill="#63b8ff" stroke="#63b8ff" points="98.75,-364.19 89.41,-369.19 99.83,-371.11 98.75,-364.19"/>
</a>
</g>
</g>
<!-- Node9 -->
<g id="Node000009" class="node">
<title>Node9</title>
<g id="a_Node000009"><a xlink:href="d7/ddc/structstorages_1_1postgres_1_1io_1_1traits_1_1IsCompatibleContainer.html" target="_top" xlink:title="Mark C++ container type as supported by the driver.">
<polygon fill="white" stroke="#666666" points="287.5,-315.5 153.5,-315.5 153.5,-274.5 287.5,-274.5 287.5,-315.5"/>
<text text-anchor="start" x="161.5" y="-303.5" font-family="Helvetica,sans-Serif" font-size="10.00">storages::postgres</text>
<text text-anchor="start" x="161.5" y="-292.5" font-family="Helvetica,sans-Serif" font-size="10.00">::io::traits::IsCompatible</text>
<text text-anchor="middle" x="220.5" y="-281.5" font-family="Helvetica,sans-Serif" font-size="10.00">Container&lt; T &gt;</text>
</a>
</g>
</g>
<!-- Node0&#45;&gt;Node9 -->
<g id="edge617_Node000000_Node000009" class="edge">
<title>Node0&#45;&gt;Node9</title>
<g id="a_edge617_Node000000_Node000009"><a xlink:title=" ">
<path fill="none" stroke="#63b8ff" d="M66.45,-360.38C81.99,-349.35 104.03,-334.84 125,-325 133.96,-320.79 143.66,-316.96 153.32,-313.55"/>
<polygon fill="#63b8ff" stroke="#63b8ff" points="64.17,-357.72 58.11,-366.41 68.27,-363.39 64.17,-357.72"/>
</a>
</g>
</g>
<!-- Node10 -->
<g id="Node000010" class="node">
<title>Node10</title>
<g id="a_Node000010"><a xlink:href="da/df0/structstorages_1_1postgres_1_1io_1_1traits_1_1IsNullable.html" target="_top" xlink:title="Metafunction to detect nullability of a type.">
<polygon fill="white" stroke="#666666" points="293.5,-256 147.5,-256 147.5,-226 293.5,-226 293.5,-256"/>
<text text-anchor="start" x="155.5" y="-244" font-family="Helvetica,sans-Serif" font-size="10.00">storages::postgres</text>
<text text-anchor="middle" x="220.5" y="-233" font-family="Helvetica,sans-Serif" font-size="10.00">::io::traits::IsNullable&lt; T &gt;</text>
</a>
</g>
</g>
<!-- Node0&#45;&gt;Node10 -->
<g id="edge618_Node000000_Node000010" class="edge">
<title>Node0&#45;&gt;Node10</title>
<g id="a_edge618_Node000000_Node000010"><a xlink:title=" ">
<path fill="none" stroke="#63b8ff" d="M53.97,-357.27C66.12,-332.56 90.86,-289.45 125,-266 131.71,-261.39 139.23,-257.63 147.02,-254.56"/>
<polygon fill="#63b8ff" stroke="#63b8ff" points="50.79,-355.81 49.67,-366.34 57.12,-358.8 50.79,-355.81"/>
</a>
</g>
</g>
<!-- Node12 -->
<g id="Node000012" class="node">
<title>Node12</title>
<g id="a_Node000012"><a xlink:href="d9/d44/structstorages_1_1postgres_1_1io_1_1traits_1_1IsSpecialMapping.html" target="_top" xlink:title="Mark C++ mapping a special case for disambiguation.">
<polygon fill="white" stroke="#666666" points="298,-207.5 143,-207.5 143,-166.5 298,-166.5 298,-207.5"/>
<text text-anchor="start" x="151" y="-195.5" font-family="Helvetica,sans-Serif" font-size="10.00">storages::postgres</text>
<text text-anchor="start" x="151" y="-184.5" font-family="Helvetica,sans-Serif" font-size="10.00">::io::traits::IsSpecialMapping</text>
<text text-anchor="middle" x="220.5" y="-173.5" font-family="Helvetica,sans-Serif" font-size="10.00">&lt; T, typename &gt;</text>
</a>
</g>
</g>
<!-- Node0&#45;&gt;Node12 -->
<g id="edge620_Node000000_Node000012" class="edge">
<title>Node0&#45;&gt;Node12</title>
<g id="a_edge620_Node000000_Node000012"><a xlink:title=" ">
<path fill="none" stroke="#63b8ff" d="M50.04,-356.16C58.75,-322.61 80.95,-254.65 125,-217 130.36,-212.41 136.43,-208.53 142.85,-205.23"/>
<polygon fill="#63b8ff" stroke="#63b8ff" points="46.58,-355.58 47.6,-366.13 53.38,-357.25 46.58,-355.58"/>
</a>
</g>
</g>
<!-- Node13 -->
<g id="Node000013" class="node">
<title>Node13</title>
<g id="a_Node000013"><a xlink:href="d4/d54/structstorages_1_1postgres_1_1io_1_1traits_1_1IsTuple.html" target="_top" xlink:title=" ">
<polygon fill="white" stroke="#666666" points="286,-148 155,-148 155,-118 286,-118 286,-148"/>
<text text-anchor="start" x="163" y="-136" font-family="Helvetica,sans-Serif" font-size="10.00">storages::postgres</text>
<text text-anchor="middle" x="220.5" y="-125" font-family="Helvetica,sans-Serif" font-size="10.00">::io::traits::IsTuple&lt; T &gt;</text>
</a>
</g>
</g>
<!-- Node0&#45;&gt;Node13 -->
<g id="edge621_Node000000_Node000013" class="edge">
<title>Node0&#45;&gt;Node13</title>
<g id="a_edge621_Node000000_Node000013"><a xlink:title=" ">
<path fill="none" stroke="#63b8ff" d="M46.78,-356.28C50.63,-313.57 65.86,-211.99 125,-158 133.4,-150.33 143.87,-144.97 154.76,-141.22"/>
<polygon fill="#63b8ff" stroke="#63b8ff" points="43.27,-356.22 45.98,-366.47 50.25,-356.77 43.27,-356.22"/>
</a>
</g>
</g>
<!-- Node14 -->
<g id="Node000014" class="node">
<title>Node14</title>
<g id="a_Node000014"><a xlink:href="d8/d8c/structstorages_1_1postgres_1_1io_1_1traits_1_1IsTupleOfRefs.html" target="_top" xlink:title=" ">
<polygon fill="white" stroke="#666666" points="302.5,-100 138.5,-100 138.5,-70 302.5,-70 302.5,-100"/>
<text text-anchor="start" x="146.5" y="-88" font-family="Helvetica,sans-Serif" font-size="10.00">storages::postgres</text>
<text text-anchor="middle" x="220.5" y="-77" font-family="Helvetica,sans-Serif" font-size="10.00">::io::traits::IsTupleOfRefs&lt; T &gt;</text>
</a>
</g>
</g>
<!-- Node0&#45;&gt;Node14 -->
<g id="edge622_Node000000_Node000014" class="edge">
<title>Node0&#45;&gt;Node14</title>
<g id="a_edge622_Node000000_Node000014"><a xlink:title=" ">
<path fill="none" stroke="#63b8ff" d="M45.2,-355.98C45.59,-306.48 53.78,-177.38 125,-109 129.03,-105.13 133.59,-101.86 138.48,-99.1"/>
<polygon fill="#63b8ff" stroke="#63b8ff" points="41.7,-356.29 45.22,-366.28 48.7,-356.27 41.7,-356.29"/>
</a>
</g>
</g>
<!-- Node15 -->
<g id="Node000015" class="node">
<title>Node15</title>
<g id="a_Node000015"><a xlink:title=" ">
<polygon fill="#e0e0e0" stroke="#999999" points="293.5,-52 147.5,-52 147.5,0 293.5,0 293.5,-52"/>
<text text-anchor="start" x="155.5" y="-40" font-family="Helvetica,sans-Serif" font-size="10.00">storages::postgres</text>
<text text-anchor="start" x="155.5" y="-29" font-family="Helvetica,sans-Serif" font-size="10.00">::io::traits::impl::</text>
<text text-anchor="start" x="155.5" y="-18" font-family="Helvetica,sans-Serif" font-size="10.00">HasNonConstIntrospection</text>
<text text-anchor="middle" x="220.5" y="-7" font-family="Helvetica,sans-Serif" font-size="10.00">&lt; T, typename &gt;</text>
</a>
</g>
</g>
<!-- Node0&#45;&gt;Node15 -->
<g id="edge623_Node000000_Node000015" class="edge">
<title>Node0&#45;&gt;Node15</title>
<g id="a_edge623_Node000000_Node000015"><a xlink:title=" ">
<path fill="none" stroke="#63b8ff" d="M48.05,-356.31C56.42,-294.49 84.83,-105.74 125,-61 131.19,-54.1 138.88,-48.56 147.16,-44.11"/>
<polygon fill="#63b8ff" stroke="#63b8ff" points="44.57,-355.94 46.72,-366.31 51.51,-356.86 44.57,-355.94"/>
</a>
</g>
</g>
<!-- Node11 -->
<g id="Node000011" class="node">
<title>Node11</title>
<g id="a_Node000011"><a xlink:href="d9/de7/structstorages_1_1postgres_1_1io_1_1traits_1_1IsNullable_3_1_1utils_1_1StrongTypedef_3_01Tag_00_02831ee52db5b184368590a0ed7b59b3.html" target="_top" xlink:title=" ">
<polygon fill="white" stroke="#666666" points="513.5,-267 370.5,-267 370.5,-215 513.5,-215 513.5,-267"/>
<text text-anchor="start" x="378.5" y="-255" font-family="Helvetica,sans-Serif" font-size="10.00">storages::postgres</text>
<text text-anchor="start" x="378.5" y="-244" font-family="Helvetica,sans-Serif" font-size="10.00">::io::traits::IsNullable</text>
<text text-anchor="start" x="378.5" y="-233" font-family="Helvetica,sans-Serif" font-size="10.00">&lt;::utils::StrongTypedef</text>
<text text-anchor="middle" x="442" y="-222" font-family="Helvetica,sans-Serif" font-size="10.00">&lt; Tag, T, Ops, Enable &gt; &gt;</text>
</a>
</g>
</g>
<!-- Node10&#45;&gt;Node11 -->
<g id="edge619_Node000010_Node000011" class="edge">
<title>Node10&#45;&gt;Node11</title>
<g id="a_edge619_Node000010_Node000011"><a xlink:title=" ">
<path fill="none" stroke="#63b8ff" d="M303.92,-241C325.75,-241 349.13,-241 370.28,-241"/>
<polygon fill="#63b8ff" stroke="#63b8ff" points="303.68,-237.5 293.68,-241 303.68,-244.5 303.68,-237.5"/>
</a>
</g>
</g>
<!-- Node16 -->
<g id="Node000016" class="node">
<title>Node16</title>
<g id="a_Node000016"><a xlink:href="df/d26/structstorages_1_1postgres_1_1io_1_1traits_1_1HasIntrospection.html" target="_top" xlink:title=" ">
<polygon fill="white" stroke="#666666" points="532,-41 352,-41 352,-11 532,-11 532,-41"/>
<text text-anchor="start" x="360" y="-29" font-family="Helvetica,sans-Serif" font-size="10.00">storages::postgres</text>
<text text-anchor="middle" x="442" y="-18" font-family="Helvetica,sans-Serif" font-size="10.00">::io::traits::HasIntrospection&lt; T &gt;</text>
</a>
</g>
</g>
<!-- Node15&#45;&gt;Node16 -->
<g id="edge624_Node000015_Node000016" class="edge">
<title>Node15&#45;&gt;Node16</title>
<g id="a_edge624_Node000015_Node000016"><a xlink:title=" ">
<path fill="none" stroke="#63b8ff" d="M303.86,-26C319.55,-26 336.03,-26 351.92,-26"/>
<polygon fill="#63b8ff" stroke="#63b8ff" points="303.68,-22.5 293.68,-26 303.68,-29.5 303.68,-22.5"/>
</a>
</g>
</g>
</g>
</svg>
