<?xml version="1.0" encoding="UTF-8" standalone="no"?>
<!DOCTYPE svg PUBLIC "-//W3C//DTD SVG 1.1//EN"
 "http://www.w3.org/Graphics/SVG/1.1/DTD/svg11.dtd">
<!-- Generated by graphviz version 2.43.0 (0)
 -->
<!-- Title: Graphical Class Hierarchy Pages: 1 -->
<svg width="254pt" height="275pt"
 viewBox="0.00 0.00 254.00 275.00" xmlns="http://www.w3.org/2000/svg" xmlns:xlink="http://www.w3.org/1999/xlink">
<g id="graph0" class="graph" transform="scale(1 1) rotate(0) translate(4 271)">
<title>Graphical Class Hierarchy</title>
<!-- Node0 -->
<g id="Node000000" class="node">
<title>Node0</title>
<g id="a_Node000000"><a xlink:title=" ">
<polygon fill="#e0e0e0" stroke="#999999" points="61,-132 0,-132 0,-113 61,-113 61,-132"/>
<text text-anchor="middle" x="30.5" y="-120" font-family="Helvetica,sans-Serif" font-size="10.00">std::hash</text>
</a>
</g>
</g>
<!-- Node1 -->
<g id="Node000001" class="node">
<title>Node1</title>
<g id="a_Node000001"><a xlink:href="d5/d09/classconcurrent_1_1MutexSet.html" target="_top" xlink:title=" ">
<polygon fill="white" stroke="#666666" points="246,-267 97,-267 97,-226 246,-226 246,-267"/>
<text text-anchor="start" x="105" y="-255" font-family="Helvetica,sans-Serif" font-size="10.00">concurrent::MutexSet</text>
<text text-anchor="start" x="105" y="-244" font-family="Helvetica,sans-Serif" font-size="10.00">&lt; Key, std::hash&lt; Key</text>
<text text-anchor="middle" x="171.5" y="-233" font-family="Helvetica,sans-Serif" font-size="10.00"> &gt;, std::equal_to&lt; Key &gt; &gt;</text>
</a>
</g>
</g>
<!-- Node0&#45;&gt;Node1 -->
<g id="edge625_Node000000_Node000001" class="edge">
<title>Node0&#45;&gt;Node1</title>
<g id="a_edge625_Node000000_Node000001"><a xlink:title=" ">
<path fill="none" stroke="#8b1a1a" d="M40.4,-141.26C51.16,-162.18 71.11,-195.78 97,-216.5 101.3,-219.94 106.06,-223.04 111.02,-225.82"/>
<polygon fill="#8b1a1a" stroke="#8b1a1a" points="43.44,-139.53 35.86,-132.13 37.17,-142.64 43.44,-139.53"/>
</a>
</g>
</g>
<!-- Node2 -->
<g id="Node000002" class="node">
<title>Node2</title>
<g id="a_Node000002"><a xlink:href="d5/d09/classconcurrent_1_1MutexSet.html" target="_top" xlink:title=" ">
<polygon fill="white" stroke="#666666" points="242.5,-207.5 100.5,-207.5 100.5,-155.5 242.5,-155.5 242.5,-207.5"/>
<text text-anchor="start" x="108.5" y="-195.5" font-family="Helvetica,sans-Serif" font-size="10.00">concurrent::MutexSet</text>
<text text-anchor="start" x="108.5" y="-184.5" font-family="Helvetica,sans-Serif" font-size="10.00">&lt; std::string, std::hash</text>
<text text-anchor="start" x="108.5" y="-173.5" font-family="Helvetica,sans-Serif" font-size="10.00">&lt; std::string &gt;, std::equal</text>
<text text-anchor="middle" x="171.5" y="-162.5" font-family="Helvetica,sans-Serif" font-size="10.00">_to&lt; std::string &gt; &gt;</text>
</a>
</g>
</g>
<!-- Node0&#45;&gt;Node2 -->
<g id="edge626_Node000000_Node000002" class="edge">
<title>Node0&#45;&gt;Node2</title>
<g id="a_edge626_Node000000_Node000002"><a xlink:title=" ">
<path fill="none" stroke="#8b1a1a" d="M63.51,-136.09C77.1,-141.85 93.42,-148.78 109.17,-155.47"/>
<polygon fill="#8b1a1a" stroke="#8b1a1a" points="64.71,-132.8 54.14,-132.11 61.98,-139.24 64.71,-132.8"/>
</a>
</g>
</g>
<!-- Node3 -->
<g id="Node000003" class="node">
<title>Node3</title>
<g id="a_Node000003"><a xlink:href="d5/d09/classconcurrent_1_1MutexSet.html" target="_top" xlink:title="A dynamic set of mutexes.">
<polygon fill="white" stroke="#666666" points="232,-137.5 111,-137.5 111,-107.5 232,-107.5 232,-137.5"/>
<text text-anchor="start" x="119" y="-125.5" font-family="Helvetica,sans-Serif" font-size="10.00">concurrent::MutexSet</text>
<text text-anchor="middle" x="171.5" y="-114.5" font-family="Helvetica,sans-Serif" font-size="10.00">&lt; Key, Hash, Equal &gt;</text>
</a>
</g>
</g>
<!-- Node0&#45;&gt;Node3 -->
<g id="edge627_Node000000_Node000003" class="edge">
<title>Node0&#45;&gt;Node3</title>
<g id="a_edge627_Node000000_Node000003"><a xlink:title=" ">
<path fill="none" stroke="#8b1a1a" d="M71.67,-122.5C83.95,-122.5 97.72,-122.5 110.99,-122.5"/>
<polygon fill="#8b1a1a" stroke="#8b1a1a" points="71.32,-119 61.32,-122.5 71.32,-126 71.32,-119"/>
</a>
</g>
</g>
<!-- Node4 -->
<g id="Node000004" class="node">
<title>Node4</title>
<g id="a_Node000004"><a xlink:href="d5/d29/structstd_1_1hash_3_1_1utils_1_1NotNull_3_01T_01_4_01_4.html" target="_top" xlink:title=" ">
<polygon fill="white" stroke="#666666" points="222.5,-89.5 120.5,-89.5 120.5,-59.5 222.5,-59.5 222.5,-89.5"/>
<text text-anchor="start" x="128.5" y="-77.5" font-family="Helvetica,sans-Serif" font-size="10.00">std::hash&lt;::utils::</text>
<text text-anchor="middle" x="171.5" y="-66.5" font-family="Helvetica,sans-Serif" font-size="10.00">NotNull&lt; T &gt; &gt;</text>
</a>
</g>
</g>
<!-- Node0&#45;&gt;Node4 -->
<g id="edge628_Node000000_Node000004" class="edge">
<title>Node0&#45;&gt;Node4</title>
<g id="a_edge628_Node000000_Node000004"><a xlink:title=" ">
<path fill="none" stroke="#63b8ff" d="M66.43,-109.44C76.29,-105.82 87.04,-101.95 97,-98.5 105.5,-95.56 114.58,-92.51 123.36,-89.62"/>
<polygon fill="#63b8ff" stroke="#63b8ff" points="65.1,-106.2 56.93,-112.94 67.52,-112.77 65.1,-106.2"/>
</a>
</g>
</g>
<!-- Node5 -->
<g id="Node000005" class="node">
<title>Node5</title>
<g id="a_Node000005"><a xlink:href="de/d38/structstd_1_1hash_3_1_1utils_1_1StrongTypedef_3_01Tag_00_01T_00_01Ops_01_4_01_4.html" target="_top" xlink:title=" ">
<polygon fill="white" stroke="#666666" points="230,-41 113,-41 113,0 230,0 230,-41"/>
<text text-anchor="start" x="121" y="-29" font-family="Helvetica,sans-Serif" font-size="10.00">std::hash&lt;::utils::</text>
<text text-anchor="start" x="121" y="-18" font-family="Helvetica,sans-Serif" font-size="10.00">StrongTypedef&lt; Tag,</text>
<text text-anchor="middle" x="171.5" y="-7" font-family="Helvetica,sans-Serif" font-size="10.00"> T, Ops &gt; &gt;</text>
</a>
</g>
</g>
<!-- Node0&#45;&gt;Node5 -->
<g id="edge629_Node000000_Node000005" class="edge">
<title>Node0&#45;&gt;Node5</title>
<g id="a_edge629_Node000000_Node000005"><a xlink:title=" ">
<path fill="none" stroke="#63b8ff" d="M44.29,-104.36C56.35,-88.38 75.7,-65.39 97,-50.5 101.97,-47.03 107.4,-43.86 112.99,-41"/>
<polygon fill="#63b8ff" stroke="#63b8ff" points="41.17,-102.71 38.08,-112.85 46.81,-106.84 41.17,-102.71"/>
</a>
</g>
</g>
</g>
</svg>
