<?xml version="1.0" encoding="UTF-8" standalone="no"?>
<!DOCTYPE svg PUBLIC "-//W3C//DTD SVG 1.1//EN"
 "http://www.w3.org/Graphics/SVG/1.1/DTD/svg11.dtd">
<!-- Generated by graphviz version 2.43.0 (0)
 -->
<!-- Title: Graphical Class Hierarchy Pages: 1 -->
<svg width="523pt" height="334pt"
 viewBox="0.00 0.00 523.00 333.50" xmlns="http://www.w3.org/2000/svg" xmlns:xlink="http://www.w3.org/1999/xlink">
<g id="graph0" class="graph" transform="scale(1 1) rotate(0) translate(4 329.5)">
<title>Graphical Class Hierarchy</title>
<!-- Node0 -->
<g id="Node000000" class="node">
<title>Node0</title>
<g id="a_Node000000"><a xlink:title=" ">
<polygon fill="#e0e0e0" stroke="#999999" points="151,-172 0,-172 0,-142 151,-142 151,-172"/>
<text text-anchor="start" x="8" y="-160" font-family="Helvetica,sans-Serif" font-size="10.00">utils::impl::strong</text>
<text text-anchor="middle" x="75.5" y="-149" font-family="Helvetica,sans-Serif" font-size="10.00">_typedef::StrongTypedefTag</text>
</a>
</g>
</g>
<!-- Node1 -->
<g id="Node000001" class="node">
<title>Node1</title>
<g id="a_Node000001"><a xlink:href="d4/d67/classutils_1_1StrongTypedef.html" target="_top" xlink:title=" ">
<polygon fill="white" stroke="#666666" points="316,-325.5 187,-325.5 187,-284.5 316,-284.5 316,-325.5"/>
<text text-anchor="start" x="195" y="-313.5" font-family="Helvetica,sans-Serif" font-size="10.00">utils::StrongTypedef</text>
<text text-anchor="start" x="195" y="-302.5" font-family="Helvetica,sans-Serif" font-size="10.00">&lt; InMemoryConfig, std</text>
<text text-anchor="middle" x="251.5" y="-291.5" font-family="Helvetica,sans-Serif" font-size="10.00">::string &gt;</text>
</a>
</g>
</g>
<!-- Node0&#45;&gt;Node1 -->
<g id="edge778_Node000000_Node000001" class="edge">
<title>Node0&#45;&gt;Node1</title>
<g id="a_edge778_Node000000_Node000001"><a xlink:title=" ">
<path fill="none" stroke="#63b8ff" d="M93.72,-180.52C113.77,-206.59 149.01,-248.57 187,-276 191.13,-278.98 195.61,-281.76 200.22,-284.33"/>
<polygon fill="#63b8ff" stroke="#63b8ff" points="96.35,-178.2 87.53,-172.34 90.77,-182.42 96.35,-178.2"/>
</a>
</g>
</g>
<!-- Node3 -->
<g id="Node000003" class="node">
<title>Node3</title>
<g id="a_Node000003"><a xlink:href="d4/d67/classutils_1_1StrongTypedef.html" target="_top" xlink:title=" ">
<polygon fill="white" stroke="#666666" points="312.5,-266.5 190.5,-266.5 190.5,-225.5 312.5,-225.5 312.5,-266.5"/>
<text text-anchor="start" x="198.5" y="-254.5" font-family="Helvetica,sans-Serif" font-size="10.00">utils::StrongTypedef</text>
<text text-anchor="start" x="198.5" y="-243.5" font-family="Helvetica,sans-Serif" font-size="10.00">&lt; class ExchangeTag,</text>
<text text-anchor="middle" x="251.5" y="-232.5" font-family="Helvetica,sans-Serif" font-size="10.00"> std::string &gt;</text>
</a>
</g>
</g>
<!-- Node0&#45;&gt;Node3 -->
<g id="edge780_Node000000_Node000003" class="edge">
<title>Node0&#45;&gt;Node3</title>
<g id="a_edge780_Node000000_Node000003"><a xlink:title=" ">
<path fill="none" stroke="#63b8ff" d="M113.07,-177.11C134.48,-188.73 162.12,-203.49 187,-216 193.21,-219.12 199.8,-222.34 206.3,-225.46"/>
<polygon fill="#63b8ff" stroke="#63b8ff" points="114.46,-173.88 104,-172.17 111.11,-180.03 114.46,-173.88"/>
</a>
</g>
</g>
<!-- Node5 -->
<g id="Node000005" class="node">
<title>Node5</title>
<g id="a_Node000005"><a xlink:href="d4/d67/classutils_1_1StrongTypedef.html" target="_top" xlink:title=" ">
<polygon fill="white" stroke="#666666" points="314,-207.5 189,-207.5 189,-166.5 314,-166.5 314,-207.5"/>
<text text-anchor="start" x="197" y="-195.5" font-family="Helvetica,sans-Serif" font-size="10.00">utils::StrongTypedef</text>
<text text-anchor="start" x="197" y="-184.5" font-family="Helvetica,sans-Serif" font-size="10.00">&lt; class QueueTag, std</text>
<text text-anchor="middle" x="251.5" y="-173.5" font-family="Helvetica,sans-Serif" font-size="10.00">::string &gt;</text>
</a>
</g>
</g>
<!-- Node0&#45;&gt;Node5 -->
<g id="edge782_Node000000_Node000005" class="edge">
<title>Node0&#45;&gt;Node5</title>
<g id="a_edge782_Node000000_Node000005"><a xlink:title=" ">
<path fill="none" stroke="#63b8ff" d="M161.17,-171.6C170.54,-173.21 179.94,-174.83 188.94,-176.39"/>
<polygon fill="#63b8ff" stroke="#63b8ff" points="161.5,-168.1 151.05,-169.85 160.31,-175 161.5,-168.1"/>
</a>
</g>
</g>
<!-- Node7 -->
<g id="Node000007" class="node">
<title>Node7</title>
<g id="a_Node000007"><a xlink:href="d4/d67/classutils_1_1StrongTypedef.html" target="_top" xlink:title=" ">
<polygon fill="white" stroke="#666666" points="312,-148.5 191,-148.5 191,-107.5 312,-107.5 312,-148.5"/>
<text text-anchor="start" x="199" y="-136.5" font-family="Helvetica,sans-Serif" font-size="10.00">utils::StrongTypedef</text>
<text text-anchor="start" x="199" y="-125.5" font-family="Helvetica,sans-Serif" font-size="10.00">&lt; class PasswordTag,</text>
<text text-anchor="middle" x="251.5" y="-114.5" font-family="Helvetica,sans-Serif" font-size="10.00"> std::string &gt;</text>
</a>
</g>
</g>
<!-- Node0&#45;&gt;Node7 -->
<g id="edge784_Node000000_Node000007" class="edge">
<title>Node0&#45;&gt;Node7</title>
<g id="a_edge784_Node000000_Node000007"><a xlink:title=" ">
<path fill="none" stroke="#63b8ff" d="M161.06,-142.91C171.12,-141.23 181.21,-139.55 190.81,-137.95"/>
<polygon fill="#63b8ff" stroke="#63b8ff" points="160.34,-139.48 151.05,-144.58 161.49,-146.38 160.34,-139.48"/>
</a>
</g>
</g>
<!-- Node8 -->
<g id="Node000008" class="node">
<title>Node8</title>
<g id="a_Node000008"><a xlink:href="d4/d67/classutils_1_1StrongTypedef.html" target="_top" xlink:title=" ">
<polygon fill="white" stroke="#666666" points="311,-89.5 192,-89.5 192,-48.5 311,-48.5 311,-89.5"/>
<text text-anchor="start" x="200" y="-77.5" font-family="Helvetica,sans-Serif" font-size="10.00">utils::StrongTypedef</text>
<text text-anchor="start" x="200" y="-66.5" font-family="Helvetica,sans-Serif" font-size="10.00">&lt; class HA1Tag, std::</text>
<text text-anchor="middle" x="251.5" y="-55.5" font-family="Helvetica,sans-Serif" font-size="10.00">string &gt;</text>
</a>
</g>
</g>
<!-- Node0&#45;&gt;Node8 -->
<g id="edge785_Node000000_Node000008" class="edge">
<title>Node0&#45;&gt;Node8</title>
<g id="a_edge785_Node000000_Node000008"><a xlink:title=" ">
<path fill="none" stroke="#63b8ff" d="M112.29,-137.17C133.78,-125.44 161.76,-110.49 187,-98 192.65,-95.21 198.62,-92.35 204.56,-89.57"/>
<polygon fill="#63b8ff" stroke="#63b8ff" points="110.59,-134.1 103.5,-141.98 113.95,-140.24 110.59,-134.1"/>
</a>
</g>
</g>
<!-- Node9 -->
<g id="Node000009" class="node">
<title>Node9</title>
<g id="a_Node000009"><a xlink:href="d4/d67/classutils_1_1StrongTypedef.html" target="_top" xlink:title="Strong typedef for a type T.">
<polygon fill="white" stroke="#666666" points="313,-30 190,-30 190,0 313,0 313,-30"/>
<text text-anchor="start" x="198" y="-18" font-family="Helvetica,sans-Serif" font-size="10.00">utils::StrongTypedef</text>
<text text-anchor="middle" x="251.5" y="-7" font-family="Helvetica,sans-Serif" font-size="10.00">&lt; Tag, T, Ops, class &gt;</text>
</a>
</g>
</g>
<!-- Node0&#45;&gt;Node9 -->
<g id="edge786_Node000000_Node000009" class="edge">
<title>Node0&#45;&gt;Node9</title>
<g id="a_edge786_Node000000_Node000009"><a xlink:title=" ">
<path fill="none" stroke="#63b8ff" d="M93.12,-133.63C112.85,-107.4 148.02,-65.09 187,-39 192,-35.66 197.52,-32.69 203.17,-30.09"/>
<polygon fill="#63b8ff" stroke="#63b8ff" points="90.16,-131.75 87.04,-141.87 95.79,-135.9 90.16,-131.75"/>
</a>
</g>
</g>
<!-- Node2 -->
<g id="Node000002" class="node">
<title>Node2</title>
<g id="a_Node000002"><a xlink:href="dc/db3/structcomponents_1_1InMemoryConfig.html" target="_top" xlink:title=" ">
<polygon fill="white" stroke="#666666" points="515,-314.5 352,-314.5 352,-295.5 515,-295.5 515,-314.5"/>
<text text-anchor="middle" x="433.5" y="-302.5" font-family="Helvetica,sans-Serif" font-size="10.00">components::InMemoryConfig</text>
</a>
</g>
</g>
<!-- Node1&#45;&gt;Node2 -->
<g id="edge779_Node000001_Node000002" class="edge">
<title>Node1&#45;&gt;Node2</title>
<g id="a_edge779_Node000001_Node000002"><a xlink:title=" ">
<path fill="none" stroke="#63b8ff" d="M326.35,-305C334.76,-305 343.35,-305 351.84,-305"/>
<polygon fill="#63b8ff" stroke="#63b8ff" points="326.21,-301.5 316.21,-305 326.21,-308.5 326.21,-301.5"/>
</a>
</g>
</g>
<!-- Node4 -->
<g id="Node000004" class="node">
<title>Node4</title>
<g id="a_Node000004"><a xlink:href="de/d62/classurabbitmq_1_1Exchange.html" target="_top" xlink:title="StrongTypedef alias for an exchange name.">
<polygon fill="white" stroke="#666666" points="493.5,-255.5 373.5,-255.5 373.5,-236.5 493.5,-236.5 493.5,-255.5"/>
<text text-anchor="middle" x="433.5" y="-243.5" font-family="Helvetica,sans-Serif" font-size="10.00">urabbitmq::Exchange</text>
</a>
</g>
</g>
<!-- Node3&#45;&gt;Node4 -->
<g id="edge781_Node000003_Node000004" class="edge">
<title>Node3&#45;&gt;Node4</title>
<g id="a_edge781_Node000003_Node000004"><a xlink:title=" ">
<path fill="none" stroke="#63b8ff" d="M322.92,-246C339.58,-246 357.18,-246 373.29,-246"/>
<polygon fill="#63b8ff" stroke="#63b8ff" points="322.69,-242.5 312.69,-246 322.69,-249.5 322.69,-242.5"/>
</a>
</g>
</g>
<!-- Node6 -->
<g id="Node000006" class="node">
<title>Node6</title>
<g id="a_Node000006"><a xlink:href="d4/df6/classurabbitmq_1_1Queue.html" target="_top" xlink:title="StrongTypedef alias for a queue name.">
<polygon fill="white" stroke="#666666" points="485.5,-196.5 381.5,-196.5 381.5,-177.5 485.5,-177.5 485.5,-196.5"/>
<text text-anchor="middle" x="433.5" y="-184.5" font-family="Helvetica,sans-Serif" font-size="10.00">urabbitmq::Queue</text>
</a>
</g>
</g>
<!-- Node5&#45;&gt;Node6 -->
<g id="edge783_Node000005_Node000006" class="edge">
<title>Node5&#45;&gt;Node6</title>
<g id="a_edge783_Node000005_Node000006"><a xlink:title=" ">
<path fill="none" stroke="#63b8ff" d="M324.35,-187C343.42,-187 363.63,-187 381.35,-187"/>
<polygon fill="#63b8ff" stroke="#63b8ff" points="324.19,-183.5 314.19,-187 324.19,-190.5 324.19,-183.5"/>
</a>
</g>
</g>
</g>
</svg>
