<?xml version="1.0" encoding="UTF-8" standalone="no"?>
<!DOCTYPE svg PUBLIC "-//W3C//DTD SVG 1.1//EN"
 "http://www.w3.org/Graphics/SVG/1.1/DTD/svg11.dtd">
<!-- Generated by graphviz version 2.43.0 (0)
 -->
<!-- Title: Graphical Class Hierarchy Pages: 1 -->
<svg width="719pt" height="658pt"
 viewBox="0.00 0.00 719.00 658.00" xmlns="http://www.w3.org/2000/svg" xmlns:xlink="http://www.w3.org/1999/xlink">
<g id="graph0" class="graph" transform="scale(1 1) rotate(0) translate(4 654)">
<title>Graphical Class Hierarchy</title>
<!-- Node0 -->
<g id="Node000000" class="node">
<title>Node0</title>
<g id="a_Node000000"><a xlink:title=" ">
<polygon fill="#e0e0e0" stroke="#999999" points="149,-462 0,-462 0,-421 149,-421 149,-462"/>
<text text-anchor="start" x="8" y="-450" font-family="Helvetica,sans-Serif" font-size="10.00">storages::postgres</text>
<text text-anchor="start" x="8" y="-439" font-family="Helvetica,sans-Serif" font-size="10.00">::io::detail::BufferFormatter</text>
<text text-anchor="middle" x="74.5" y="-428" font-family="Helvetica,sans-Serif" font-size="10.00">Base&lt; T &gt;</text>
</a>
</g>
</g>
<!-- Node1 -->
<g id="Node000001" class="node">
<title>Node1</title>
<g id="a_Node000001"><a xlink:title=" ">
<polygon fill="#e0e0e0" stroke="#999999" points="357.5,-648 199.5,-648 199.5,-607 357.5,-607 357.5,-648"/>
<text text-anchor="start" x="207.5" y="-636" font-family="Helvetica,sans-Serif" font-size="10.00">storages::postgres</text>
<text text-anchor="start" x="207.5" y="-625" font-family="Helvetica,sans-Serif" font-size="10.00">::io::detail::IpBufferFormatter</text>
<text text-anchor="middle" x="278.5" y="-614" font-family="Helvetica,sans-Serif" font-size="10.00">Base&lt; InetNetwork &gt;</text>
</a>
</g>
</g>
<!-- Node0&#45;&gt;Node1 -->
<g id="edge693_Node000000_Node000001" class="edge">
<title>Node0&#45;&gt;Node1</title>
<g id="a_edge693_Node000000_Node000001"><a xlink:title=" ">
<path fill="none" stroke="#63b8ff" d="M89.09,-471.45C106.49,-506.55 139.87,-564.17 185,-597.5 189.75,-601.01 194.94,-604.12 200.34,-606.88"/>
<polygon fill="#63b8ff" stroke="#63b8ff" points="92.11,-469.66 84.61,-462.18 85.81,-472.71 92.11,-469.66"/>
</a>
</g>
</g>
<!-- Node3 -->
<g id="Node000003" class="node">
<title>Node3</title>
<g id="a_Node000003"><a xlink:title=" ">
<polygon fill="#e0e0e0" stroke="#999999" points="359,-588 198,-588 198,-547 359,-547 359,-588"/>
<text text-anchor="start" x="206" y="-576" font-family="Helvetica,sans-Serif" font-size="10.00">storages::postgres</text>
<text text-anchor="start" x="206" y="-565" font-family="Helvetica,sans-Serif" font-size="10.00">::io::detail::MacaddrFormatter</text>
<text text-anchor="middle" x="278.5" y="-554" font-family="Helvetica,sans-Serif" font-size="10.00">Base&lt; Macaddr &gt;</text>
</a>
</g>
</g>
<!-- Node0&#45;&gt;Node3 -->
<g id="edge695_Node000000_Node000003" class="edge">
<title>Node0&#45;&gt;Node3</title>
<g id="a_edge695_Node000000_Node000003"><a xlink:title=" ">
<path fill="none" stroke="#63b8ff" d="M101.95,-469.3C122.86,-489.93 153.65,-517.5 185,-535.5 192.37,-539.73 200.39,-543.53 208.52,-546.9"/>
<polygon fill="#63b8ff" stroke="#63b8ff" points="104.25,-466.65 94.71,-462.04 99.29,-471.59 104.25,-466.65"/>
</a>
</g>
</g>
<!-- Node5 -->
<g id="Node000005" class="node">
<title>Node5</title>
<g id="a_Node000005"><a xlink:title=" ">
<polygon fill="#e0e0e0" stroke="#999999" points="359,-526 198,-526 198,-485 359,-485 359,-526"/>
<text text-anchor="start" x="206" y="-514" font-family="Helvetica,sans-Serif" font-size="10.00">storages::postgres</text>
<text text-anchor="start" x="206" y="-503" font-family="Helvetica,sans-Serif" font-size="10.00">::io::detail::MacaddrFormatter</text>
<text text-anchor="middle" x="278.5" y="-492" font-family="Helvetica,sans-Serif" font-size="10.00">Base&lt; Macaddr8 &gt;</text>
</a>
</g>
</g>
<!-- Node0&#45;&gt;Node5 -->
<g id="edge697_Node000000_Node000005" class="edge">
<title>Node0&#45;&gt;Node5</title>
<g id="a_edge697_Node000000_Node000005"><a xlink:title=" ">
<path fill="none" stroke="#63b8ff" d="M149.91,-465.08C170.53,-471.61 192.75,-478.65 212.77,-484.99"/>
<polygon fill="#63b8ff" stroke="#63b8ff" points="150.84,-461.7 140.25,-462.01 148.72,-468.37 150.84,-461.7"/>
</a>
</g>
</g>
<!-- Node7 -->
<g id="Node000007" class="node">
<title>Node7</title>
<g id="a_Node000007"><a xlink:title=" ">
<polygon fill="#e0e0e0" stroke="#999999" points="364.5,-462 192.5,-462 192.5,-421 364.5,-421 364.5,-462"/>
<text text-anchor="start" x="200.5" y="-450" font-family="Helvetica,sans-Serif" font-size="10.00">storages::postgres</text>
<text text-anchor="start" x="200.5" y="-439" font-family="Helvetica,sans-Serif" font-size="10.00">::io::detail::OptionalValue</text>
<text text-anchor="middle" x="278.5" y="-428" font-family="Helvetica,sans-Serif" font-size="10.00">Formatter&lt; boost::optional, T &gt;</text>
</a>
</g>
</g>
<!-- Node0&#45;&gt;Node7 -->
<g id="edge699_Node000000_Node000007" class="edge">
<title>Node0&#45;&gt;Node7</title>
<g id="a_edge699_Node000000_Node000007"><a xlink:title=" ">
<path fill="none" stroke="#63b8ff" d="M159.55,-441.5C170.37,-441.5 181.45,-441.5 192.28,-441.5"/>
<polygon fill="#63b8ff" stroke="#63b8ff" points="159.28,-438 149.28,-441.5 159.28,-445 159.28,-438"/>
</a>
</g>
</g>
<!-- Node9 -->
<g id="Node000009" class="node">
<title>Node9</title>
<g id="a_Node000009"><a xlink:title=" ">
<polygon fill="#e0e0e0" stroke="#999999" points="358.5,-392 198.5,-392 198.5,-351 358.5,-351 358.5,-392"/>
<text text-anchor="start" x="206.5" y="-380" font-family="Helvetica,sans-Serif" font-size="10.00">storages::postgres</text>
<text text-anchor="start" x="206.5" y="-369" font-family="Helvetica,sans-Serif" font-size="10.00">::io::detail::OptionalValue</text>
<text text-anchor="middle" x="278.5" y="-358" font-family="Helvetica,sans-Serif" font-size="10.00">Formatter&lt; std::optional, T &gt;</text>
</a>
</g>
</g>
<!-- Node0&#45;&gt;Node9 -->
<g id="edge701_Node000000_Node000009" class="edge">
<title>Node0&#45;&gt;Node9</title>
<g id="a_edge701_Node000000_Node000009"><a xlink:title=" ">
<path fill="none" stroke="#63b8ff" d="M144.49,-417.59C168.47,-409.28 195.14,-400.04 218.26,-392.03"/>
<polygon fill="#63b8ff" stroke="#63b8ff" points="143.04,-414.39 134.74,-420.97 145.34,-421 143.04,-414.39"/>
</a>
</g>
</g>
<!-- Node11 -->
<g id="Node000011" class="node">
<title>Node11</title>
<g id="a_Node000011"><a xlink:title=" ">
<polygon fill="#e0e0e0" stroke="#999999" points="372,-313 185,-313 185,-272 372,-272 372,-313"/>
<text text-anchor="start" x="193" y="-301" font-family="Helvetica,sans-Serif" font-size="10.00">storages::postgres</text>
<text text-anchor="start" x="193" y="-290" font-family="Helvetica,sans-Serif" font-size="10.00">::io::detail::OptionalValue</text>
<text text-anchor="middle" x="278.5" y="-279" font-family="Helvetica,sans-Serif" font-size="10.00">Formatter&lt;::utils::OptionalRef, T &gt;</text>
</a>
</g>
</g>
<!-- Node0&#45;&gt;Node11 -->
<g id="edge703_Node000000_Node000011" class="edge">
<title>Node0&#45;&gt;Node11</title>
<g id="a_edge703_Node000000_Node000011"><a xlink:title=" ">
<path fill="none" stroke="#63b8ff" d="M102.33,-413.86C123.59,-392.83 154.67,-363.94 185,-342.5 200.35,-331.65 218.33,-321.43 234.33,-313.1"/>
<polygon fill="#63b8ff" stroke="#63b8ff" points="99.84,-411.41 95.24,-420.95 104.78,-416.36 99.84,-411.41"/>
</a>
</g>
</g>
<!-- Node13 -->
<g id="Node000013" class="node">
<title>Node13</title>
<g id="a_Node000013"><a xlink:title=" ">
<polygon fill="#e0e0e0" stroke="#999999" points="357.5,-159 199.5,-159 199.5,-118 357.5,-118 357.5,-159"/>
<text text-anchor="start" x="207.5" y="-147" font-family="Helvetica,sans-Serif" font-size="10.00">storages::postgres</text>
<text text-anchor="start" x="207.5" y="-136" font-family="Helvetica,sans-Serif" font-size="10.00">::io::detail::IpBufferFormatter</text>
<text text-anchor="middle" x="278.5" y="-125" font-family="Helvetica,sans-Serif" font-size="10.00">Base&lt; T &gt;</text>
</a>
</g>
</g>
<!-- Node0&#45;&gt;Node13 -->
<g id="edge705_Node000000_Node000013" class="edge">
<title>Node0&#45;&gt;Node13</title>
<g id="a_edge705_Node000000_Node000013"><a xlink:title=" ">
<path fill="none" stroke="#63b8ff" d="M92.64,-411.92C113.59,-376.2 150.5,-314.55 185,-263.5 210.4,-225.92 242.3,-183.83 261.23,-159.34"/>
<polygon fill="#63b8ff" stroke="#63b8ff" points="89.45,-410.45 87.42,-420.85 95.49,-413.99 89.45,-410.45"/>
</a>
</g>
</g>
<!-- Node2 -->
<g id="Node000002" class="node">
<title>Node2</title>
<g id="a_Node000002"><a xlink:href="d3/de0/structstorages_1_1postgres_1_1io_1_1BufferFormatter_3_01InetNetwork_01_4.html" target="_top" xlink:title="Binary formatter for utils::ip::InetNetwork.">
<polygon fill="white" stroke="#666666" points="541.5,-650 426.5,-650 426.5,-609 541.5,-609 541.5,-650"/>
<text text-anchor="start" x="434.5" y="-638" font-family="Helvetica,sans-Serif" font-size="10.00">storages::postgres</text>
<text text-anchor="start" x="434.5" y="-627" font-family="Helvetica,sans-Serif" font-size="10.00">::io::BufferFormatter</text>
<text text-anchor="middle" x="484" y="-616" font-family="Helvetica,sans-Serif" font-size="10.00">&lt; InetNetwork &gt;</text>
</a>
</g>
</g>
<!-- Node1&#45;&gt;Node2 -->
<g id="edge694_Node000001_Node000002" class="edge">
<title>Node1&#45;&gt;Node2</title>
<g id="a_edge694_Node000001_Node000002"><a xlink:title=" ">
<path fill="none" stroke="#63b8ff" d="M367.6,-628.37C387.49,-628.56 408.09,-628.76 426.28,-628.94"/>
<polygon fill="#63b8ff" stroke="#63b8ff" points="367.63,-624.87 357.6,-628.27 367.56,-631.87 367.63,-624.87"/>
</a>
</g>
</g>
<!-- Node4 -->
<g id="Node000004" class="node">
<title>Node4</title>
<g id="a_Node000004"><a xlink:href="df/dfe/structstorages_1_1postgres_1_1io_1_1BufferFormatter_3_01Macaddr_01_4.html" target="_top" xlink:title="Binary formatter for utils::macaddr:Macaddr.">
<polygon fill="white" stroke="#666666" points="541.5,-591 426.5,-591 426.5,-550 541.5,-550 541.5,-591"/>
<text text-anchor="start" x="434.5" y="-579" font-family="Helvetica,sans-Serif" font-size="10.00">storages::postgres</text>
<text text-anchor="start" x="434.5" y="-568" font-family="Helvetica,sans-Serif" font-size="10.00">::io::BufferFormatter</text>
<text text-anchor="middle" x="484" y="-557" font-family="Helvetica,sans-Serif" font-size="10.00">&lt; Macaddr &gt;</text>
</a>
</g>
</g>
<!-- Node3&#45;&gt;Node4 -->
<g id="edge696_Node000003_Node000004" class="edge">
<title>Node3&#45;&gt;Node4</title>
<g id="a_edge696_Node000003_Node000004"><a xlink:title=" ">
<path fill="none" stroke="#63b8ff" d="M369.17,-568.82C388.64,-569.11 408.71,-569.4 426.47,-569.67"/>
<polygon fill="#63b8ff" stroke="#63b8ff" points="369.1,-565.32 359.05,-568.67 369,-572.32 369.1,-565.32"/>
</a>
</g>
</g>
<!-- Node6 -->
<g id="Node000006" class="node">
<title>Node6</title>
<g id="a_Node000006"><a xlink:href="df/d15/structstorages_1_1postgres_1_1io_1_1BufferFormatter_3_01Macaddr8_01_4.html" target="_top" xlink:title="Binary formatter for utils::macaddr:Macaddr8.">
<polygon fill="white" stroke="#666666" points="541.5,-532 426.5,-532 426.5,-491 541.5,-491 541.5,-532"/>
<text text-anchor="start" x="434.5" y="-520" font-family="Helvetica,sans-Serif" font-size="10.00">storages::postgres</text>
<text text-anchor="start" x="434.5" y="-509" font-family="Helvetica,sans-Serif" font-size="10.00">::io::BufferFormatter</text>
<text text-anchor="middle" x="484" y="-498" font-family="Helvetica,sans-Serif" font-size="10.00">&lt; Macaddr8 &gt;</text>
</a>
</g>
</g>
<!-- Node5&#45;&gt;Node6 -->
<g id="edge698_Node000005_Node000006" class="edge">
<title>Node5&#45;&gt;Node6</title>
<g id="a_edge698_Node000005_Node000006"><a xlink:title=" ">
<path fill="none" stroke="#63b8ff" d="M369.17,-508.14C388.64,-508.72 408.71,-509.31 426.47,-509.83"/>
<polygon fill="#63b8ff" stroke="#63b8ff" points="369.15,-504.64 359.05,-507.85 368.95,-511.64 369.15,-504.64"/>
</a>
</g>
</g>
<!-- Node8 -->
<g id="Node000008" class="node">
<title>Node8</title>
<g id="a_Node000008"><a xlink:href="de/def/structstorages_1_1postgres_1_1io_1_1BufferFormatter_3_01boost_1_1optional_3_01T_01_4_00_01std_1_c72a17c1aed54848028043d728a5604f.html" target="_top" xlink:title="Formatter specialization for boost::optional.">
<polygon fill="white" stroke="#666666" points="557,-473 411,-473 411,-410 557,-410 557,-473"/>
<text text-anchor="start" x="419" y="-461" font-family="Helvetica,sans-Serif" font-size="10.00">storages::postgres</text>
<text text-anchor="start" x="419" y="-450" font-family="Helvetica,sans-Serif" font-size="10.00">::io::BufferFormatter</text>
<text text-anchor="start" x="419" y="-439" font-family="Helvetica,sans-Serif" font-size="10.00">&lt; boost::optional&lt; T &gt;</text>
<text text-anchor="start" x="419" y="-428" font-family="Helvetica,sans-Serif" font-size="10.00">, std::enable_if_t&lt; traits</text>
<text text-anchor="middle" x="484" y="-417" font-family="Helvetica,sans-Serif" font-size="10.00">::kHasFormatter&lt; T &gt; &gt; &gt;</text>
</a>
</g>
</g>
<!-- Node7&#45;&gt;Node8 -->
<g id="edge700_Node000007_Node000008" class="edge">
<title>Node7&#45;&gt;Node8</title>
<g id="a_edge700_Node000007_Node000008"><a xlink:title=" ">
<path fill="none" stroke="#63b8ff" d="M374.76,-441.5C386.88,-441.5 399.13,-441.5 410.8,-441.5"/>
<polygon fill="#63b8ff" stroke="#63b8ff" points="374.62,-438 364.62,-441.5 374.62,-445 374.62,-438"/>
</a>
</g>
</g>
<!-- Node10 -->
<g id="Node000010" class="node">
<title>Node10</title>
<g id="a_Node000010"><a xlink:href="d9/d4c/structstorages_1_1postgres_1_1io_1_1BufferFormatter_3_01std_1_1optional_3_01T_01_4_00_01std_1_1eb467875aee52b6f201e9e8e272f5f36e.html" target="_top" xlink:title="Formatter specialization for std::optional.">
<polygon fill="white" stroke="#666666" points="557,-392 411,-392 411,-329 557,-329 557,-392"/>
<text text-anchor="start" x="419" y="-380" font-family="Helvetica,sans-Serif" font-size="10.00">storages::postgres</text>
<text text-anchor="start" x="419" y="-369" font-family="Helvetica,sans-Serif" font-size="10.00">::io::BufferFormatter</text>
<text text-anchor="start" x="419" y="-358" font-family="Helvetica,sans-Serif" font-size="10.00">&lt; std::optional&lt; T &gt;,</text>
<text text-anchor="start" x="419" y="-347" font-family="Helvetica,sans-Serif" font-size="10.00"> std::enable_if_t&lt; traits</text>
<text text-anchor="middle" x="484" y="-336" font-family="Helvetica,sans-Serif" font-size="10.00">::kHasFormatter&lt; T &gt; &gt; &gt;</text>
</a>
</g>
</g>
<!-- Node9&#45;&gt;Node10 -->
<g id="edge702_Node000009_Node000010" class="edge">
<title>Node9&#45;&gt;Node10</title>
<g id="a_edge702_Node000009_Node000010"><a xlink:title=" ">
<path fill="none" stroke="#63b8ff" d="M368.92,-366.67C382.97,-365.91 397.33,-365.13 410.93,-364.4"/>
<polygon fill="#63b8ff" stroke="#63b8ff" points="368.56,-363.18 358.76,-367.22 368.94,-370.17 368.56,-363.18"/>
</a>
</g>
</g>
<!-- Node12 -->
<g id="Node000012" class="node">
<title>Node12</title>
<g id="a_Node000012"><a xlink:href="d7/d78/structstorages_1_1postgres_1_1io_1_1BufferFormatter_3_1_1utils_1_1OptionalRef_3_01T_01_4_00_01st8ec8a2f0324460c3c9ff78ecef90ebc0.html" target="_top" xlink:title="Formatter specialization for utils::OptionalRef.">
<polygon fill="white" stroke="#666666" points="550,-310.5 418,-310.5 418,-236.5 550,-236.5 550,-310.5"/>
<text text-anchor="start" x="426" y="-298.5" font-family="Helvetica,sans-Serif" font-size="10.00">storages::postgres</text>
<text text-anchor="start" x="426" y="-287.5" font-family="Helvetica,sans-Serif" font-size="10.00">::io::BufferFormatter</text>
<text text-anchor="start" x="426" y="-276.5" font-family="Helvetica,sans-Serif" font-size="10.00">&lt;::utils::OptionalRef</text>
<text text-anchor="start" x="426" y="-265.5" font-family="Helvetica,sans-Serif" font-size="10.00">&lt; T &gt;, std::enable_if_t</text>
<text text-anchor="start" x="426" y="-254.5" font-family="Helvetica,sans-Serif" font-size="10.00">&lt; traits::kHasFormatter</text>
<text text-anchor="middle" x="484" y="-243.5" font-family="Helvetica,sans-Serif" font-size="10.00">&lt; T &gt; &gt; &gt;</text>
</a>
</g>
</g>
<!-- Node11&#45;&gt;Node12 -->
<g id="edge704_Node000011_Node000012" class="edge">
<title>Node11&#45;&gt;Node12</title>
<g id="a_edge704_Node000011_Node000012"><a xlink:title=" ">
<path fill="none" stroke="#63b8ff" d="M382.18,-282.91C394.28,-281.78 406.36,-280.66 417.74,-279.59"/>
<polygon fill="#63b8ff" stroke="#63b8ff" points="381.65,-279.45 372.02,-283.86 382.3,-286.42 381.65,-279.45"/>
</a>
</g>
</g>
<!-- Node14 -->
<g id="Node000014" class="node">
<title>Node14</title>
<g id="a_Node000014"><a xlink:title=" ">
<polygon fill="#e0e0e0" stroke="#999999" points="560,-218 408,-218 408,-177 560,-177 560,-218"/>
<text text-anchor="start" x="416" y="-206" font-family="Helvetica,sans-Serif" font-size="10.00">storages::postgres</text>
<text text-anchor="start" x="416" y="-195" font-family="Helvetica,sans-Serif" font-size="10.00">::io::detail::AddressNetwork</text>
<text text-anchor="middle" x="484" y="-184" font-family="Helvetica,sans-Serif" font-size="10.00">Buffer&lt; AddressV4 &gt;</text>
</a>
</g>
</g>
<!-- Node13&#45;&gt;Node14 -->
<g id="edge706_Node000013_Node000014" class="edge">
<title>Node13&#45;&gt;Node14</title>
<g id="a_edge706_Node000013_Node000014"><a xlink:title=" ">
<path fill="none" stroke="#63b8ff" d="M360.34,-161.94C377.42,-166.89 395.33,-172.08 412.02,-176.92"/>
<polygon fill="#63b8ff" stroke="#63b8ff" points="360.97,-158.48 350.39,-159.05 359.02,-165.2 360.97,-158.48"/>
</a>
</g>
</g>
<!-- Node16 -->
<g id="Node000016" class="node">
<title>Node16</title>
<g id="a_Node000016"><a xlink:title=" ">
<polygon fill="#e0e0e0" stroke="#999999" points="560,-159 408,-159 408,-118 560,-118 560,-159"/>
<text text-anchor="start" x="416" y="-147" font-family="Helvetica,sans-Serif" font-size="10.00">storages::postgres</text>
<text text-anchor="start" x="416" y="-136" font-family="Helvetica,sans-Serif" font-size="10.00">::io::detail::AddressNetwork</text>
<text text-anchor="middle" x="484" y="-125" font-family="Helvetica,sans-Serif" font-size="10.00">Buffer&lt; AddressV6 &gt;</text>
</a>
</g>
</g>
<!-- Node13&#45;&gt;Node16 -->
<g id="edge708_Node000013_Node000016" class="edge">
<title>Node13&#45;&gt;Node16</title>
<g id="a_edge708_Node000013_Node000016"><a xlink:title=" ">
<path fill="none" stroke="#63b8ff" d="M367.73,-138.5C381.08,-138.5 394.75,-138.5 407.79,-138.5"/>
<polygon fill="#63b8ff" stroke="#63b8ff" points="367.6,-135 357.6,-138.5 367.6,-142 367.6,-135"/>
</a>
</g>
</g>
<!-- Node18 -->
<g id="Node000018" class="node">
<title>Node18</title>
<g id="a_Node000018"><a xlink:title=" ">
<polygon fill="#e0e0e0" stroke="#999999" points="555,-100 413,-100 413,-59 555,-59 555,-100"/>
<text text-anchor="start" x="421" y="-88" font-family="Helvetica,sans-Serif" font-size="10.00">storages::postgres</text>
<text text-anchor="start" x="421" y="-77" font-family="Helvetica,sans-Serif" font-size="10.00">::io::detail::NetworkBuffer</text>
<text text-anchor="middle" x="484" y="-66" font-family="Helvetica,sans-Serif" font-size="10.00">Formatter&lt; NetworkV4 &gt;</text>
</a>
</g>
</g>
<!-- Node13&#45;&gt;Node18 -->
<g id="edge710_Node000013_Node000018" class="edge">
<title>Node13&#45;&gt;Node18</title>
<g id="a_edge710_Node000013_Node000018"><a xlink:title=" ">
<path fill="none" stroke="#63b8ff" d="M360.45,-115.03C377.74,-110.02 395.86,-104.76 412.71,-99.88"/>
<polygon fill="#63b8ff" stroke="#63b8ff" points="359.02,-111.8 350.39,-117.95 360.97,-118.52 359.02,-111.8"/>
</a>
</g>
</g>
<!-- Node20 -->
<g id="Node000020" class="node">
<title>Node20</title>
<g id="a_Node000020"><a xlink:title=" ">
<polygon fill="#e0e0e0" stroke="#999999" points="555,-41 413,-41 413,0 555,0 555,-41"/>
<text text-anchor="start" x="421" y="-29" font-family="Helvetica,sans-Serif" font-size="10.00">storages::postgres</text>
<text text-anchor="start" x="421" y="-18" font-family="Helvetica,sans-Serif" font-size="10.00">::io::detail::NetworkBuffer</text>
<text text-anchor="middle" x="484" y="-7" font-family="Helvetica,sans-Serif" font-size="10.00">Formatter&lt; NetworkV6 &gt;</text>
</a>
</g>
</g>
<!-- Node13&#45;&gt;Node20 -->
<g id="edge712_Node000013_Node000020" class="edge">
<title>Node13&#45;&gt;Node20</title>
<g id="a_edge712_Node000013_Node000020"><a xlink:title=" ">
<path fill="none" stroke="#63b8ff" d="M313.5,-111.63C338.62,-92.62 374.18,-67.43 408,-49.5 413.55,-46.56 419.47,-43.75 425.45,-41.13"/>
<polygon fill="#63b8ff" stroke="#63b8ff" points="311.22,-108.96 305.4,-117.82 315.47,-114.52 311.22,-108.96"/>
</a>
</g>
</g>
<!-- Node15 -->
<g id="Node000015" class="node">
<title>Node15</title>
<g id="a_Node000015"><a xlink:href="df/d87/structstorages_1_1postgres_1_1io_1_1BufferFormatter_3_01AddressV4_01_4.html" target="_top" xlink:title="Binary formatter for utils::ip::AddressV4.">
<polygon fill="white" stroke="#666666" points="711,-218 596,-218 596,-177 711,-177 711,-218"/>
<text text-anchor="start" x="604" y="-206" font-family="Helvetica,sans-Serif" font-size="10.00">storages::postgres</text>
<text text-anchor="start" x="604" y="-195" font-family="Helvetica,sans-Serif" font-size="10.00">::io::BufferFormatter</text>
<text text-anchor="middle" x="653.5" y="-184" font-family="Helvetica,sans-Serif" font-size="10.00">&lt; AddressV4 &gt;</text>
</a>
</g>
</g>
<!-- Node14&#45;&gt;Node15 -->
<g id="edge707_Node000014_Node000015" class="edge">
<title>Node14&#45;&gt;Node15</title>
<g id="a_edge707_Node000014_Node000015"><a xlink:title=" ">
<path fill="none" stroke="#63b8ff" d="M570.69,-197.5C579.12,-197.5 587.53,-197.5 595.57,-197.5"/>
<polygon fill="#63b8ff" stroke="#63b8ff" points="570.42,-194 560.42,-197.5 570.42,-201 570.42,-194"/>
</a>
</g>
</g>
<!-- Node17 -->
<g id="Node000017" class="node">
<title>Node17</title>
<g id="a_Node000017"><a xlink:href="d8/d10/structstorages_1_1postgres_1_1io_1_1BufferFormatter_3_01AddressV6_01_4.html" target="_top" xlink:title="Binary formatter for utils::ip::AddressV6.">
<polygon fill="white" stroke="#666666" points="711,-159 596,-159 596,-118 711,-118 711,-159"/>
<text text-anchor="start" x="604" y="-147" font-family="Helvetica,sans-Serif" font-size="10.00">storages::postgres</text>
<text text-anchor="start" x="604" y="-136" font-family="Helvetica,sans-Serif" font-size="10.00">::io::BufferFormatter</text>
<text text-anchor="middle" x="653.5" y="-125" font-family="Helvetica,sans-Serif" font-size="10.00">&lt; AddressV6 &gt;</text>
</a>
</g>
</g>
<!-- Node16&#45;&gt;Node17 -->
<g id="edge709_Node000016_Node000017" class="edge">
<title>Node16&#45;&gt;Node17</title>
<g id="a_edge709_Node000016_Node000017"><a xlink:title=" ">
<path fill="none" stroke="#63b8ff" d="M570.69,-138.5C579.12,-138.5 587.53,-138.5 595.57,-138.5"/>
<polygon fill="#63b8ff" stroke="#63b8ff" points="570.42,-135 560.42,-138.5 570.42,-142 570.42,-135"/>
</a>
</g>
</g>
<!-- Node19 -->
<g id="Node000019" class="node">
<title>Node19</title>
<g id="a_Node000019"><a xlink:href="da/ddf/structstorages_1_1postgres_1_1io_1_1BufferFormatter_3_01NetworkV4_01_4.html" target="_top" xlink:title="Binary formatter for utils::ip::NetworkV4.">
<polygon fill="white" stroke="#666666" points="711,-100 596,-100 596,-59 711,-59 711,-100"/>
<text text-anchor="start" x="604" y="-88" font-family="Helvetica,sans-Serif" font-size="10.00">storages::postgres</text>
<text text-anchor="start" x="604" y="-77" font-family="Helvetica,sans-Serif" font-size="10.00">::io::BufferFormatter</text>
<text text-anchor="middle" x="653.5" y="-66" font-family="Helvetica,sans-Serif" font-size="10.00">&lt; NetworkV4 &gt;</text>
</a>
</g>
</g>
<!-- Node18&#45;&gt;Node19 -->
<g id="edge711_Node000018_Node000019" class="edge">
<title>Node18&#45;&gt;Node19</title>
<g id="a_edge711_Node000018_Node000019"><a xlink:title=" ">
<path fill="none" stroke="#63b8ff" d="M565.35,-79.5C575.69,-79.5 586.1,-79.5 595.94,-79.5"/>
<polygon fill="#63b8ff" stroke="#63b8ff" points="565.06,-76 555.06,-79.5 565.06,-83 565.06,-76"/>
</a>
</g>
</g>
<!-- Node21 -->
<g id="Node000021" class="node">
<title>Node21</title>
<g id="a_Node000021"><a xlink:href="d6/dac/structstorages_1_1postgres_1_1io_1_1BufferFormatter_3_01NetworkV6_01_4.html" target="_top" xlink:title="Binary formatter for utils::ip::NetworkV6.">
<polygon fill="white" stroke="#666666" points="711,-41 596,-41 596,0 711,0 711,-41"/>
<text text-anchor="start" x="604" y="-29" font-family="Helvetica,sans-Serif" font-size="10.00">storages::postgres</text>
<text text-anchor="start" x="604" y="-18" font-family="Helvetica,sans-Serif" font-size="10.00">::io::BufferFormatter</text>
<text text-anchor="middle" x="653.5" y="-7" font-family="Helvetica,sans-Serif" font-size="10.00">&lt; NetworkV6 &gt;</text>
</a>
</g>
</g>
<!-- Node20&#45;&gt;Node21 -->
<g id="edge713_Node000020_Node000021" class="edge">
<title>Node20&#45;&gt;Node21</title>
<g id="a_edge713_Node000020_Node000021"><a xlink:title=" ">
<path fill="none" stroke="#63b8ff" d="M565.35,-20.5C575.69,-20.5 586.1,-20.5 595.94,-20.5"/>
<polygon fill="#63b8ff" stroke="#63b8ff" points="565.06,-17 555.06,-20.5 565.06,-24 565.06,-17"/>
</a>
</g>
</g>
</g>
</svg>
