<?xml version="1.0" encoding="UTF-8" standalone="no"?>
<!DOCTYPE svg PUBLIC "-//W3C//DTD SVG 1.1//EN"
 "http://www.w3.org/Graphics/SVG/1.1/DTD/svg11.dtd">
<!-- Generated by graphviz version 2.43.0 (0)
 -->
<!-- Title: userver/storages/clickhouse/io/columns/column_iterator.hpp Pages: 1 -->
<svg width="524pt" height="225pt"
 viewBox="0.00 0.00 524.00 225.00" xmlns="http://www.w3.org/2000/svg" xmlns:xlink="http://www.w3.org/1999/xlink">
<g id="graph0" class="graph" transform="scale(1 1) rotate(0) translate(4 221)">
<title>userver/storages/clickhouse/io/columns/column_iterator.hpp</title>
<!-- Node1 -->
<g id="Node000001" class="node">
<title>Node1</title>
<g id="a_Node000001"><a xlink:title=" ">
<polygon fill="#999999" stroke="#666666" points="242,-217 69,-217 69,-187 242,-187 242,-217"/>
<text text-anchor="start" x="77" y="-205" font-family="Helvetica,sans-Serif" font-size="10.00">userver/storages/clickhouse</text>
<text text-anchor="middle" x="155.5" y="-194" font-family="Helvetica,sans-Serif" font-size="10.00">/io/columns/column_iterator.hpp</text>
</a>
</g>
</g>
<!-- Node2 -->
<g id="Node000002" class="node">
<title>Node2</title>
<g id="a_Node000002"><a xlink:title=" ">
<polygon fill="#e0e0e0" stroke="#999999" points="53,-145.5 0,-145.5 0,-126.5 53,-126.5 53,-145.5"/>
<text text-anchor="middle" x="26.5" y="-133.5" font-family="Helvetica,sans-Serif" font-size="10.00">iterator</text>
</a>
</g>
</g>
<!-- Node1&#45;&gt;Node2 -->
<g id="edge1_Node000001_Node000002" class="edge">
<title>Node1&#45;&gt;Node2</title>
<g id="a_edge1_Node000001_Node000002"><a xlink:title=" ">
<path fill="none" stroke="#63b8ff" d="M127.19,-186.95C105.07,-175.98 74.54,-160.83 52.92,-150.11"/>
<polygon fill="#63b8ff" stroke="#63b8ff" points="54.18,-146.83 43.67,-145.52 51.07,-153.1 54.18,-146.83"/>
</a>
</g>
</g>
<!-- Node3 -->
<g id="Node000003" class="node">
<title>Node3</title>
<g id="a_Node000003"><a xlink:title=" ">
<polygon fill="#e0e0e0" stroke="#999999" points="127.5,-145.5 71.5,-145.5 71.5,-126.5 127.5,-126.5 127.5,-145.5"/>
<text text-anchor="middle" x="99.5" y="-133.5" font-family="Helvetica,sans-Serif" font-size="10.00">optional</text>
</a>
</g>
</g>
<!-- Node1&#45;&gt;Node3 -->
<g id="edge2_Node000001_Node000003" class="edge">
<title>Node1&#45;&gt;Node3</title>
<g id="a_edge2_Node000001_Node000003"><a xlink:title=" ">
<path fill="none" stroke="#63b8ff" d="M143.07,-186.8C134.43,-176.92 122.88,-163.72 113.84,-153.39"/>
<polygon fill="#63b8ff" stroke="#63b8ff" points="116.46,-151.07 107.24,-145.84 111.19,-155.67 116.46,-151.07"/>
</a>
</g>
</g>
<!-- Node4 -->
<g id="Node000004" class="node">
<title>Node4</title>
<g id="a_Node000004"><a xlink:href="../../d2/d54/assert_8hpp.html" target="_top" xlink:title="Assertion macros UASSERT, UASSERT_MSG, UINVARIANT.">
<polygon fill="white" stroke="#666666" points="277,-145.5 146,-145.5 146,-126.5 277,-126.5 277,-145.5"/>
<text text-anchor="middle" x="211.5" y="-133.5" font-family="Helvetica,sans-Serif" font-size="10.00">userver/utils/assert.hpp</text>
</a>
</g>
</g>
<!-- Node1&#45;&gt;Node4 -->
<g id="edge3_Node000001_Node000004" class="edge">
<title>Node1&#45;&gt;Node4</title>
<g id="a_edge3_Node000001_Node000004"><a xlink:title=" ">
<path fill="none" stroke="#63b8ff" d="M167.93,-186.8C176.57,-176.92 188.12,-163.72 197.16,-153.39"/>
<polygon fill="#63b8ff" stroke="#63b8ff" points="199.81,-155.67 203.76,-145.84 194.54,-151.07 199.81,-155.67"/>
</a>
</g>
</g>
<!-- Node6 -->
<g id="Node000006" class="node">
<title>Node6</title>
<g id="a_Node000006"><a xlink:href="../../d1/d0b/column__wrapper_8hpp_source.html" target="_top" xlink:title=" ">
<polygon fill="white" stroke="#666666" points="472,-151 295,-151 295,-121 472,-121 472,-151"/>
<text text-anchor="start" x="303" y="-139" font-family="Helvetica,sans-Serif" font-size="10.00">userver/storages/clickhouse</text>
<text text-anchor="middle" x="383.5" y="-128" font-family="Helvetica,sans-Serif" font-size="10.00">/io/columns/column_wrapper.hpp</text>
</a>
</g>
</g>
<!-- Node1&#45;&gt;Node6 -->
<g id="edge5_Node000001_Node000006" class="edge">
<title>Node1&#45;&gt;Node6</title>
<g id="a_edge5_Node000001_Node000006"><a xlink:title=" ">
<path fill="none" stroke="#63b8ff" d="M205.54,-186.95C240.28,-177.2 286.75,-164.16 323.49,-153.84"/>
<polygon fill="#63b8ff" stroke="#63b8ff" points="324.9,-157.08 333.58,-151.01 323.01,-150.35 324.9,-157.08"/>
</a>
</g>
</g>
<!-- Node5 -->
<g id="Node000005" class="node">
<title>Node5</title>
<g id="a_Node000005"><a xlink:title=" ">
<polygon fill="#e0e0e0" stroke="#999999" points="301,-79.5 228,-79.5 228,-60.5 301,-60.5 301,-79.5"/>
<text text-anchor="middle" x="264.5" y="-67.5" font-family="Helvetica,sans-Serif" font-size="10.00">string_view</text>
</a>
</g>
</g>
<!-- Node4&#45;&gt;Node5 -->
<g id="edge4_Node000004_Node000005" class="edge">
<title>Node4&#45;&gt;Node5</title>
<g id="a_edge4_Node000004_Node000005"><a xlink:title=" ">
<path fill="none" stroke="#63b8ff" d="M218.65,-126.37C226.82,-116.5 240.39,-100.11 250.66,-87.72"/>
<polygon fill="#63b8ff" stroke="#63b8ff" points="253.44,-89.84 257.13,-79.91 248.05,-85.37 253.44,-89.84"/>
</a>
</g>
</g>
<!-- Node6&#45;&gt;Node5 -->
<g id="edge7_Node000006_Node000005" class="edge">
<title>Node6&#45;&gt;Node5</title>
<g id="a_edge7_Node000006_Node000005"><a xlink:title=" ">
<path fill="none" stroke="#63b8ff" d="M357.38,-120.95C337.16,-110.08 309.32,-95.11 289.41,-84.4"/>
<polygon fill="#63b8ff" stroke="#63b8ff" points="290.8,-81.17 280.34,-79.52 287.49,-87.34 290.8,-81.17"/>
</a>
</g>
</g>
<!-- Node7 -->
<g id="Node000007" class="node">
<title>Node7</title>
<g id="a_Node000007"><a xlink:title=" ">
<polygon fill="#e0e0e0" stroke="#999999" points="411.5,-19 353.5,-19 353.5,0 411.5,0 411.5,-19"/>
<text text-anchor="middle" x="382.5" y="-7" font-family="Helvetica,sans-Serif" font-size="10.00">memory</text>
</a>
</g>
</g>
<!-- Node6&#45;&gt;Node7 -->
<g id="edge6_Node000006_Node000007" class="edge">
<title>Node6&#45;&gt;Node7</title>
<g id="a_edge6_Node000006_Node000007"><a xlink:title=" ">
<path fill="none" stroke="#63b8ff" d="M369.39,-120.63C361.27,-111.31 351.83,-98.44 347.5,-85 343.41,-72.31 343.14,-67.6 347.5,-55 351.17,-44.38 358.54,-34.38 365.58,-26.55"/>
<polygon fill="#63b8ff" stroke="#63b8ff" points="368.2,-28.88 372.62,-19.25 363.16,-24.02 368.2,-28.88"/>
</a>
</g>
</g>
<!-- Node8 -->
<g id="Node000008" class="node">
<title>Node8</title>
<g id="a_Node000008"><a xlink:href="../../df/d9a/block__wrapper__fwd_8hpp_source.html" target="_top" xlink:title=" ">
<polygon fill="white" stroke="#666666" points="516,-85 357,-85 357,-55 516,-55 516,-85"/>
<text text-anchor="start" x="365" y="-73" font-family="Helvetica,sans-Serif" font-size="10.00">userver/storages/clickhouse</text>
<text text-anchor="middle" x="436.5" y="-62" font-family="Helvetica,sans-Serif" font-size="10.00">/impl/block_wrapper_fwd.hpp</text>
</a>
</g>
</g>
<!-- Node6&#45;&gt;Node8 -->
<g id="edge8_Node000006_Node000008" class="edge">
<title>Node6&#45;&gt;Node8</title>
<g id="a_edge8_Node000006_Node000008"><a xlink:title=" ">
<path fill="none" stroke="#63b8ff" d="M395.26,-120.8C402.06,-112.59 410.74,-102.1 418.39,-92.87"/>
<polygon fill="#63b8ff" stroke="#63b8ff" points="421.09,-95.1 424.77,-85.16 415.7,-90.63 421.09,-95.1"/>
</a>
</g>
</g>
<!-- Node8&#45;&gt;Node7 -->
<g id="edge9_Node000008_Node000007" class="edge">
<title>Node8&#45;&gt;Node7</title>
<g id="a_edge9_Node000008_Node000007"><a xlink:title=" ">
<path fill="none" stroke="#63b8ff" d="M423.43,-54.84C415.59,-46.35 405.59,-35.52 397.44,-26.69"/>
<polygon fill="#63b8ff" stroke="#63b8ff" points="399.95,-24.24 390.59,-19.27 394.8,-28.99 399.95,-24.24"/>
</a>
</g>
</g>
</g>
</svg>
