<?xml version="1.0" encoding="UTF-8" standalone="no"?>
<!DOCTYPE svg PUBLIC "-//W3C//DTD SVG 1.1//EN"
 "http://www.w3.org/Graphics/SVG/1.1/DTD/svg11.dtd">
<!-- Generated by graphviz version 2.43.0 (0)
 -->
<!-- Title: userver/utils/not_null.hpp Pages: 1 -->
<svg width="1009pt" height="302pt"
 viewBox="0.00 0.00 1009.00 302.00" xmlns="http://www.w3.org/2000/svg" xmlns:xlink="http://www.w3.org/1999/xlink">
<g id="graph0" class="graph" transform="scale(1 1) rotate(0) translate(4 298)">
<title>userver/utils/not_null.hpp</title>
<!-- Node1 -->
<g id="Node000001" class="node">
<title>Node1</title>
<g id="a_Node000001"><a xlink:title="Restricts a pointer or smart pointer to only hold non&#45;null values.">
<polygon fill="#999999" stroke="#666666" points="545.5,-294 405.5,-294 405.5,-275 545.5,-275 545.5,-294"/>
<text text-anchor="middle" x="475.5" y="-282" font-family="Helvetica,sans-Serif" font-size="10.00">userver/utils/not_null.hpp</text>
</a>
</g>
</g>
<!-- Node2 -->
<g id="Node000002" class="node">
<title>Node2</title>
<g id="a_Node000002"><a xlink:href="../../d3/db8/core_2include_2userver_2clients_2http_2client_8hpp.html" target="_top" xlink:title="HTTP client that returns a HTTP request builder from CreateRequest().">
<polygon fill="white" stroke="#666666" points="111,-101.5 0,-101.5 0,-71.5 111,-71.5 111,-101.5"/>
<text text-anchor="start" x="8" y="-89.5" font-family="Helvetica,sans-Serif" font-size="10.00">userver/clients/http</text>
<text text-anchor="middle" x="55.5" y="-78.5" font-family="Helvetica,sans-Serif" font-size="10.00">/client.hpp</text>
</a>
</g>
</g>
<!-- Node1&#45;&gt;Node2 -->
<g id="edge1_Node000001_Node000002" class="edge">
<title>Node1&#45;&gt;Node2</title>
<g id="a_edge1_Node000001_Node000002"><a xlink:title=" ">
<path fill="none" stroke="#63b8ff" d="M395.17,-283.01C301.87,-280.86 155.27,-272.11 112.5,-239 68.28,-204.77 58.36,-132.21 56.14,-101.6"/>
<polygon fill="#63b8ff" stroke="#63b8ff" points="395.36,-286.51 405.43,-283.22 395.51,-279.51 395.36,-286.51"/>
</a>
</g>
</g>
<!-- Node4 -->
<g id="Node000004" class="node">
<title>Node4</title>
<g id="a_Node000004"><a xlink:href="../../d1/dab/plugin_8hpp.html" target="_top" xlink:title="Base class for HTTP Client plugins.">
<polygon fill="white" stroke="#666666" points="233,-239 122,-239 122,-209 233,-209 233,-239"/>
<text text-anchor="start" x="130" y="-227" font-family="Helvetica,sans-Serif" font-size="10.00">userver/clients/http</text>
<text text-anchor="middle" x="177.5" y="-216" font-family="Helvetica,sans-Serif" font-size="10.00">/plugin.hpp</text>
</a>
</g>
</g>
<!-- Node1&#45;&gt;Node4 -->
<g id="edge3_Node000001_Node000004" class="edge">
<title>Node1&#45;&gt;Node4</title>
<g id="a_edge3_Node000001_Node000004"><a xlink:title=" ">
<path fill="none" stroke="#63b8ff" d="M418.29,-273.07C370.86,-264.32 301.7,-251.31 241.5,-239 238.83,-238.45 236.09,-237.89 233.33,-237.31"/>
<polygon fill="#63b8ff" stroke="#63b8ff" points="417.9,-276.56 428.36,-274.93 419.16,-269.68 417.9,-276.56"/>
</a>
</g>
</g>
<!-- Node9 -->
<g id="Node000009" class="node">
<title>Node9</title>
<g id="a_Node000009"><a xlink:href="../../d6/df3/core_2include_2userver_2fs_2temp__file_8hpp.html" target="_top" xlink:title="A unique temporary file. The file is deleted when the TempFile object is destroyed.">
<polygon fill="white" stroke="#666666" points="386,-233.5 251,-233.5 251,-214.5 386,-214.5 386,-233.5"/>
<text text-anchor="middle" x="318.5" y="-221.5" font-family="Helvetica,sans-Serif" font-size="10.00">userver/fs/temp_file.hpp</text>
</a>
</g>
</g>
<!-- Node1&#45;&gt;Node9 -->
<g id="edge10_Node000001_Node000009" class="edge">
<title>Node1&#45;&gt;Node9</title>
<g id="a_edge10_Node000001_Node000009"><a xlink:title=" ">
<path fill="none" stroke="#63b8ff" d="M442.97,-271.38C412.62,-260.07 368.11,-243.49 341.36,-233.52"/>
<polygon fill="#63b8ff" stroke="#63b8ff" points="442.08,-274.78 452.67,-274.99 444.52,-268.22 442.08,-274.78"/>
</a>
</g>
</g>
<!-- Node10 -->
<g id="Node000010" class="node">
<title>Node10</title>
<g id="a_Node000010"><a xlink:href="../../d3/d1a/server_2congestion__control_2limiter_8hpp_source.html" target="_top" xlink:title=" ">
<polygon fill="white" stroke="#666666" points="547,-239 404,-239 404,-209 547,-209 547,-239"/>
<text text-anchor="start" x="412" y="-227" font-family="Helvetica,sans-Serif" font-size="10.00">userver/server/congestion</text>
<text text-anchor="middle" x="475.5" y="-216" font-family="Helvetica,sans-Serif" font-size="10.00">_control/limiter.hpp</text>
</a>
</g>
</g>
<!-- Node1&#45;&gt;Node10 -->
<g id="edge11_Node000001_Node000010" class="edge">
<title>Node1&#45;&gt;Node10</title>
<g id="a_edge11_Node000001_Node000010"><a xlink:title=" ">
<path fill="none" stroke="#63b8ff" d="M475.5,-264.65C475.5,-256.36 475.5,-246.78 475.5,-239.11"/>
<polygon fill="#63b8ff" stroke="#63b8ff" points="472,-264.87 475.5,-274.87 479,-264.87 472,-264.87"/>
</a>
</g>
</g>
<!-- Node14 -->
<g id="Node000014" class="node">
<title>Node14</title>
<g id="a_Node000014"><a xlink:href="../../d2/d2b/dump__control_8hpp.html" target="_top" xlink:title="Dumper control interface for testsuite.">
<polygon fill="white" stroke="#666666" points="695.5,-239 565.5,-239 565.5,-209 695.5,-209 695.5,-239"/>
<text text-anchor="start" x="573.5" y="-227" font-family="Helvetica,sans-Serif" font-size="10.00">userver/testsuite/dump</text>
<text text-anchor="middle" x="630.5" y="-216" font-family="Helvetica,sans-Serif" font-size="10.00">_control.hpp</text>
</a>
</g>
</g>
<!-- Node1&#45;&gt;Node14 -->
<g id="edge15_Node000001_Node000014" class="edge">
<title>Node1&#45;&gt;Node14</title>
<g id="a_edge15_Node000001_Node000014"><a xlink:title=" ">
<path fill="none" stroke="#63b8ff" d="M507.41,-271.46C532.34,-262.05 567.03,-248.95 593.24,-239.06"/>
<polygon fill="#63b8ff" stroke="#63b8ff" points="506.16,-268.19 498.04,-274.99 508.63,-274.74 506.16,-268.19"/>
</a>
</g>
</g>
<!-- Node16 -->
<g id="Node000016" class="node">
<title>Node16</title>
<g id="a_Node000016"><a xlink:href="../../da/dbd/userver__experiments_8hpp_source.html" target="_top" xlink:title=" ">
<polygon fill="white" stroke="#666666" points="857.5,-239 713.5,-239 713.5,-209 857.5,-209 857.5,-239"/>
<text text-anchor="start" x="721.5" y="-227" font-family="Helvetica,sans-Serif" font-size="10.00">userver/utils/impl</text>
<text text-anchor="middle" x="785.5" y="-216" font-family="Helvetica,sans-Serif" font-size="10.00">/userver_experiments.hpp</text>
</a>
</g>
</g>
<!-- Node1&#45;&gt;Node16 -->
<g id="edge17_Node000001_Node000016" class="edge">
<title>Node1&#45;&gt;Node16</title>
<g id="a_edge17_Node000001_Node000016"><a xlink:title=" ">
<path fill="none" stroke="#63b8ff" d="M530.42,-273.14C581.37,-263.52 657.52,-249.15 713.36,-238.61"/>
<polygon fill="#63b8ff" stroke="#63b8ff" points="529.75,-269.7 520.58,-274.99 531.05,-276.58 529.75,-269.7"/>
</a>
</g>
</g>
<!-- Node17 -->
<g id="Node000017" class="node">
<title>Node17</title>
<g id="a_Node000017"><a xlink:href="../../d2/da2/testing_8hpp_source.html" target="_top" xlink:title=" ">
<polygon fill="white" stroke="#666666" points="1001,-239 876,-239 876,-209 1001,-209 1001,-239"/>
<text text-anchor="start" x="884" y="-227" font-family="Helvetica,sans-Serif" font-size="10.00">userver/utils/statistics</text>
<text text-anchor="middle" x="938.5" y="-216" font-family="Helvetica,sans-Serif" font-size="10.00">/testing.hpp</text>
</a>
</g>
</g>
<!-- Node1&#45;&gt;Node17 -->
<g id="edge18_Node000001_Node000017" class="edge">
<title>Node1&#45;&gt;Node17</title>
<g id="a_edge18_Node000001_Node000017"><a xlink:title=" ">
<path fill="none" stroke="#63b8ff" d="M556.04,-276.2C635.27,-268.59 759.55,-255.46 866.5,-239 869.52,-238.54 872.61,-238.03 875.72,-237.51"/>
<polygon fill="#63b8ff" stroke="#63b8ff" points="555.27,-272.76 545.65,-277.2 555.93,-279.73 555.27,-272.76"/>
</a>
</g>
</g>
<!-- Node3 -->
<g id="Node000003" class="node">
<title>Node3</title>
<g id="a_Node000003"><a xlink:href="../../d7/d98/core_2include_2userver_2clients_2http_2component_8hpp.html" target="_top" xlink:title="Component that manages clients::http::Client.">
<polygon fill="white" stroke="#666666" points="111,-30 0,-30 0,0 111,0 111,-30"/>
<text text-anchor="start" x="8" y="-18" font-family="Helvetica,sans-Serif" font-size="10.00">userver/clients/http</text>
<text text-anchor="middle" x="55.5" y="-7" font-family="Helvetica,sans-Serif" font-size="10.00">/component.hpp</text>
</a>
</g>
</g>
<!-- Node2&#45;&gt;Node3 -->
<g id="edge2_Node000002_Node000003" class="edge">
<title>Node2&#45;&gt;Node3</title>
<g id="a_edge2_Node000002_Node000003"><a xlink:title=" ">
<path fill="none" stroke="#63b8ff" d="M55.5,-61.25C55.5,-50.81 55.5,-38.99 55.5,-30.04"/>
<polygon fill="#63b8ff" stroke="#63b8ff" points="52,-61.44 55.5,-71.44 59,-61.44 52,-61.44"/>
</a>
</g>
</g>
<!-- Node4&#45;&gt;Node2 -->
<g id="edge4_Node000004_Node000002" class="edge">
<title>Node4&#45;&gt;Node2</title>
<g id="a_edge4_Node000004_Node000002"><a xlink:title=" ">
<path fill="none" stroke="#63b8ff" d="M147.39,-203.03C135.77,-194.54 122.83,-184.05 112.5,-173 91.43,-150.45 72.81,-119.33 62.94,-101.52"/>
<polygon fill="#63b8ff" stroke="#63b8ff" points="145.38,-205.89 155.55,-208.84 149.43,-200.19 145.38,-205.89"/>
</a>
</g>
</g>
<!-- Node5 -->
<g id="Node000005" class="node">
<title>Node5</title>
<g id="a_Node000005"><a xlink:href="../../d5/d70/plugin__component_8hpp_source.html" target="_top" xlink:title=" ">
<polygon fill="white" stroke="#666666" points="382,-173 251,-173 251,-143 382,-143 382,-173"/>
<text text-anchor="start" x="259" y="-161" font-family="Helvetica,sans-Serif" font-size="10.00">userver/clients/http</text>
<text text-anchor="middle" x="316.5" y="-150" font-family="Helvetica,sans-Serif" font-size="10.00">/plugin_component.hpp</text>
</a>
</g>
</g>
<!-- Node4&#45;&gt;Node5 -->
<g id="edge5_Node000004_Node000005" class="edge">
<title>Node4&#45;&gt;Node5</title>
<g id="a_edge5_Node000004_Node000005"><a xlink:title=" ">
<path fill="none" stroke="#63b8ff" d="M217.36,-204.65C239.22,-194.58 265.89,-182.3 286.07,-173.01"/>
<polygon fill="#63b8ff" stroke="#63b8ff" points="215.62,-201.59 208,-208.95 218.55,-207.95 215.62,-201.59"/>
</a>
</g>
</g>
<!-- Node7 -->
<g id="Node000007" class="node">
<title>Node7</title>
<g id="a_Node000007"><a xlink:href="../../d1/d57/core_2include_2userver_2clients_2http_2request_8hpp.html" target="_top" xlink:title="Class for creating and performing new http requests.">
<polygon fill="white" stroke="#666666" points="233,-173 122,-173 122,-143 233,-143 233,-173"/>
<text text-anchor="start" x="130" y="-161" font-family="Helvetica,sans-Serif" font-size="10.00">userver/clients/http</text>
<text text-anchor="middle" x="177.5" y="-150" font-family="Helvetica,sans-Serif" font-size="10.00">/request.hpp</text>
</a>
</g>
</g>
<!-- Node4&#45;&gt;Node7 -->
<g id="edge7_Node000004_Node000007" class="edge">
<title>Node4&#45;&gt;Node7</title>
<g id="a_edge7_Node000004_Node000007"><a xlink:title=" ">
<path fill="none" stroke="#63b8ff" d="M177.5,-198.54C177.5,-189.96 177.5,-180.61 177.5,-173.16"/>
<polygon fill="#63b8ff" stroke="#63b8ff" points="174,-198.8 177.5,-208.8 181,-198.8 174,-198.8"/>
</a>
</g>
</g>
<!-- Node6 -->
<g id="Node000006" class="node">
<title>Node6</title>
<g id="a_Node000006"><a xlink:href="../../d5/d3d/core_2include_2userver_2clients_2http_2plugins_2yandex__tracing_2component_8hpp_source.html" target="_top" xlink:title=" ">
<polygon fill="white" stroke="#666666" points="387,-107 254,-107 254,-66 387,-66 387,-107"/>
<text text-anchor="start" x="262" y="-95" font-family="Helvetica,sans-Serif" font-size="10.00">userver/clients/http</text>
<text text-anchor="start" x="262" y="-84" font-family="Helvetica,sans-Serif" font-size="10.00">/plugins/yandex_tracing</text>
<text text-anchor="middle" x="320.5" y="-73" font-family="Helvetica,sans-Serif" font-size="10.00">/component.hpp</text>
</a>
</g>
</g>
<!-- Node5&#45;&gt;Node6 -->
<g id="edge6_Node000005_Node000006" class="edge">
<title>Node5&#45;&gt;Node6</title>
<g id="a_edge6_Node000005_Node000006"><a xlink:title=" ">
<path fill="none" stroke="#63b8ff" d="M317.89,-132.91C318.37,-124.47 318.91,-115.1 319.37,-107.07"/>
<polygon fill="#63b8ff" stroke="#63b8ff" points="314.39,-132.75 317.31,-142.94 321.38,-133.15 314.39,-132.75"/>
</a>
</g>
</g>
<!-- Node7&#45;&gt;Node2 -->
<g id="edge8_Node000007_Node000002" class="edge">
<title>Node7&#45;&gt;Node2</title>
<g id="a_edge8_Node000007_Node000002"><a xlink:title=" ">
<path fill="none" stroke="#63b8ff" d="M143.94,-137.88C123.75,-126.38 98.5,-111.99 80.15,-101.54"/>
<polygon fill="#63b8ff" stroke="#63b8ff" points="142.39,-141.03 152.81,-142.94 145.85,-134.94 142.39,-141.03"/>
</a>
</g>
</g>
<!-- Node8 -->
<g id="Node000008" class="node">
<title>Node8</title>
<g id="a_Node000008"><a xlink:href="../../d2/d6c/http__server__mock_8hpp_source.html" target="_top" xlink:title=" ">
<polygon fill="white" stroke="#666666" points="235.5,-101.5 129.5,-101.5 129.5,-71.5 235.5,-71.5 235.5,-101.5"/>
<text text-anchor="start" x="137.5" y="-89.5" font-family="Helvetica,sans-Serif" font-size="10.00">userver/utest/http</text>
<text text-anchor="middle" x="182.5" y="-78.5" font-family="Helvetica,sans-Serif" font-size="10.00">_server_mock.hpp</text>
</a>
</g>
</g>
<!-- Node7&#45;&gt;Node8 -->
<g id="edge9_Node000007_Node000008" class="edge">
<title>Node7&#45;&gt;Node8</title>
<g id="a_edge9_Node000007_Node000008"><a xlink:title=" ">
<path fill="none" stroke="#63b8ff" d="M179.24,-132.75C180,-122.31 180.85,-110.49 181.49,-101.54"/>
<polygon fill="#63b8ff" stroke="#63b8ff" points="175.74,-132.71 178.51,-142.94 182.72,-133.21 175.74,-132.71"/>
</a>
</g>
</g>
<!-- Node11 -->
<g id="Node000011" class="node">
<title>Node11</title>
<g id="a_Node000011"><a xlink:href="../../dd/d55/core_2include_2userver_2congestion__control_2component_8hpp.html" target="_top" xlink:title="Component to limit too active requests, also known as CC.">
<polygon fill="white" stroke="#666666" points="534.5,-173 400.5,-173 400.5,-143 534.5,-143 534.5,-173"/>
<text text-anchor="start" x="408.5" y="-161" font-family="Helvetica,sans-Serif" font-size="10.00">userver/congestion</text>
<text text-anchor="middle" x="467.5" y="-150" font-family="Helvetica,sans-Serif" font-size="10.00">_control/component.hpp</text>
</a>
</g>
</g>
<!-- Node10&#45;&gt;Node11 -->
<g id="edge12_Node000010_Node000011" class="edge">
<title>Node10&#45;&gt;Node11</title>
<g id="a_edge12_Node000010_Node000011"><a xlink:title=" ">
<path fill="none" stroke="#63b8ff" d="M472.48,-198.83C471.4,-190.17 470.21,-180.7 469.27,-173.16"/>
<polygon fill="#63b8ff" stroke="#63b8ff" points="469.01,-199.31 473.72,-208.8 475.96,-198.44 469.01,-199.31"/>
</a>
</g>
</g>
<!-- Node12 -->
<g id="Node000012" class="node">
<title>Node12</title>
<g id="a_Node000012"><a xlink:href="../../d8/d82/core_2include_2userver_2server_2server_8hpp_source.html" target="_top" xlink:title=" ">
<polygon fill="white" stroke="#666666" points="694,-167.5 553,-167.5 553,-148.5 694,-148.5 694,-167.5"/>
<text text-anchor="middle" x="623.5" y="-155.5" font-family="Helvetica,sans-Serif" font-size="10.00">userver/server/server.hpp</text>
</a>
</g>
</g>
<!-- Node10&#45;&gt;Node12 -->
<g id="edge13_Node000010_Node000012" class="edge">
<title>Node10&#45;&gt;Node12</title>
<g id="a_edge13_Node000010_Node000012"><a xlink:title=" ">
<path fill="none" stroke="#63b8ff" d="M517.26,-204.94C545.62,-192.68 581.82,-177.02 603.8,-167.52"/>
<polygon fill="#63b8ff" stroke="#63b8ff" points="515.77,-201.77 507.98,-208.95 518.55,-208.2 515.77,-201.77"/>
</a>
</g>
</g>
<!-- Node13 -->
<g id="Node000013" class="node">
<title>Node13</title>
<g id="a_Node000013"><a xlink:href="../../d3/ddd/core_2include_2userver_2server_2component_8hpp.html" target="_top" xlink:title="Component that listens for incoming requests, manages incoming connections and passes the requests to...">
<polygon fill="white" stroke="#666666" points="706.5,-96 540.5,-96 540.5,-77 706.5,-77 706.5,-96"/>
<text text-anchor="middle" x="623.5" y="-84" font-family="Helvetica,sans-Serif" font-size="10.00">userver/server/component.hpp</text>
</a>
</g>
</g>
<!-- Node12&#45;&gt;Node13 -->
<g id="edge14_Node000012_Node000013" class="edge">
<title>Node12&#45;&gt;Node13</title>
<g id="a_edge14_Node000012_Node000013"><a xlink:title=" ">
<path fill="none" stroke="#63b8ff" d="M623.5,-138.21C623.5,-124.5 623.5,-106.55 623.5,-96.09"/>
<polygon fill="#63b8ff" stroke="#63b8ff" points="620,-138.48 623.5,-148.48 627,-138.48 620,-138.48"/>
</a>
</g>
</g>
<!-- Node15 -->
<g id="Node000015" class="node">
<title>Node15</title>
<g id="a_Node000015"><a xlink:href="../../d3/d37/testsuite__support_8hpp.html" target="_top" xlink:title="Testsuite support component.">
<polygon fill="white" stroke="#666666" points="857,-173 712,-173 712,-143 857,-143 857,-173"/>
<text text-anchor="start" x="720" y="-161" font-family="Helvetica,sans-Serif" font-size="10.00">userver/testsuite/testsuite</text>
<text text-anchor="middle" x="784.5" y="-150" font-family="Helvetica,sans-Serif" font-size="10.00">_support.hpp</text>
</a>
</g>
</g>
<!-- Node14&#45;&gt;Node15 -->
<g id="edge16_Node000014_Node000015" class="edge">
<title>Node14&#45;&gt;Node15</title>
<g id="a_edge16_Node000014_Node000015"><a xlink:title=" ">
<path fill="none" stroke="#63b8ff" d="M673.68,-205.05C698.08,-194.91 728.13,-182.43 750.78,-173.01"/>
<polygon fill="#63b8ff" stroke="#63b8ff" points="672.19,-201.89 664.3,-208.95 674.87,-208.35 672.19,-201.89"/>
</a>
</g>
</g>
</g>
</svg>
