<?xml version="1.0" encoding="UTF-8" standalone="no"?>
<!DOCTYPE svg PUBLIC "-//W3C//DTD SVG 1.1//EN"
 "http://www.w3.org/Graphics/SVG/1.1/DTD/svg11.dtd">
<!-- Generated by graphviz version 2.43.0 (0)
 -->
<!-- Title: userver/utils/not_null.hpp Pages: 1 -->
<svg width="1563pt" height="302pt"
 viewBox="0.00 0.00 1563.00 302.00" xmlns="http://www.w3.org/2000/svg" xmlns:xlink="http://www.w3.org/1999/xlink">
<g id="graph0" class="graph" transform="scale(1 1) rotate(0) translate(4 298)">
<title>userver/utils/not_null.hpp</title>
<!-- Node1 -->
<g id="Node000001" class="node">
<title>Node1</title>
<g id="a_Node000001"><a xlink:title="Restricts a pointer or smart pointer to only hold non&#45;null values.">
<polygon fill="#999999" stroke="#666666" points="877.5,-294 737.5,-294 737.5,-275 877.5,-275 877.5,-294"/>
<text text-anchor="middle" x="807.5" y="-282" font-family="Helvetica,sans-Serif" font-size="10.00">userver/utils/not_null.hpp</text>
</a>
</g>
</g>
<!-- Node2 -->
<g id="Node000002" class="node">
<title>Node2</title>
<g id="a_Node000002"><a xlink:href="../../d3/db8/core_2include_2userver_2clients_2http_2client_8hpp.html" target="_top" xlink:title="HTTP client that returns a HTTP request builder from CreateRequest().">
<polygon fill="white" stroke="#666666" points="111,-101.5 0,-101.5 0,-71.5 111,-71.5 111,-101.5"/>
<text text-anchor="start" x="8" y="-89.5" font-family="Helvetica,sans-Serif" font-size="10.00">userver/clients/http</text>
<text text-anchor="middle" x="55.5" y="-78.5" font-family="Helvetica,sans-Serif" font-size="10.00">/client.hpp</text>
</a>
</g>
</g>
<!-- Node1&#45;&gt;Node2 -->
<g id="edge1_Node000001_Node000002" class="edge">
<title>Node1&#45;&gt;Node2</title>
<g id="a_edge1_Node000001_Node000002"><a xlink:title=" ">
<path fill="none" stroke="#63b8ff" d="M727.04,-284.21C618.58,-283.53 420.08,-276.56 255.5,-239 176.08,-220.87 140.9,-231.78 84.5,-173 65.51,-153.21 58.93,-120.52 56.67,-101.82"/>
<polygon fill="#63b8ff" stroke="#63b8ff" points="727.23,-287.71 737.25,-284.25 727.27,-280.71 727.23,-287.71"/>
</a>
</g>
</g>
<!-- Node4 -->
<g id="Node000004" class="node">
<title>Node4</title>
<g id="a_Node000004"><a xlink:href="../../d1/dab/plugin_8hpp.html" target="_top" xlink:title="Base class for HTTP Client plugins.">
<polygon fill="white" stroke="#666666" points="376,-239 265,-239 265,-209 376,-209 376,-239"/>
<text text-anchor="start" x="273" y="-227" font-family="Helvetica,sans-Serif" font-size="10.00">userver/clients/http</text>
<text text-anchor="middle" x="320.5" y="-216" font-family="Helvetica,sans-Serif" font-size="10.00">/plugin.hpp</text>
</a>
</g>
</g>
<!-- Node1&#45;&gt;Node4 -->
<g id="edge3_Node000001_Node000004" class="edge">
<title>Node1&#45;&gt;Node4</title>
<g id="a_edge3_Node000001_Node000004"><a xlink:title=" ">
<path fill="none" stroke="#63b8ff" d="M726.82,-274.94C648.1,-266.42 524.96,-252.69 418.5,-239 404.78,-237.24 390,-235.2 376.18,-233.23"/>
<polygon fill="#63b8ff" stroke="#63b8ff" points="726.84,-278.46 737.15,-276.05 727.59,-271.5 726.84,-278.46"/>
</a>
</g>
</g>
<!-- Node12 -->
<g id="Node000012" class="node">
<title>Node12</title>
<g id="a_Node000012"><a xlink:href="../../d6/df3/core_2include_2userver_2fs_2temp__file_8hpp.html" target="_top" xlink:title="A unique temporary file. The file is deleted when the TempFile object is destroyed.">
<polygon fill="white" stroke="#666666" points="563,-233.5 428,-233.5 428,-214.5 563,-214.5 563,-233.5"/>
<text text-anchor="middle" x="495.5" y="-221.5" font-family="Helvetica,sans-Serif" font-size="10.00">userver/fs/temp_file.hpp</text>
</a>
</g>
</g>
<!-- Node1&#45;&gt;Node12 -->
<g id="edge13_Node000001_Node000012" class="edge">
<title>Node1&#45;&gt;Node12</title>
<g id="a_edge13_Node000001_Node000012"><a xlink:title=" ">
<path fill="none" stroke="#63b8ff" d="M752.05,-273.1C691.86,-261.82 596.87,-244.01 540.92,-233.52"/>
<polygon fill="#63b8ff" stroke="#63b8ff" points="751.66,-276.59 762.13,-274.99 752.95,-269.71 751.66,-276.59"/>
</a>
</g>
</g>
<!-- Node13 -->
<g id="Node000013" class="node">
<title>Node13</title>
<g id="a_Node000013"><a xlink:href="../../d3/d1a/server_2congestion__control_2limiter_8hpp_source.html" target="_top" xlink:title=" ">
<polygon fill="white" stroke="#666666" points="724,-239 581,-239 581,-209 724,-209 724,-239"/>
<text text-anchor="start" x="589" y="-227" font-family="Helvetica,sans-Serif" font-size="10.00">userver/server/congestion</text>
<text text-anchor="middle" x="652.5" y="-216" font-family="Helvetica,sans-Serif" font-size="10.00">_control/limiter.hpp</text>
</a>
</g>
</g>
<!-- Node1&#45;&gt;Node13 -->
<g id="edge14_Node000001_Node000013" class="edge">
<title>Node1&#45;&gt;Node13</title>
<g id="a_edge14_Node000001_Node000013"><a xlink:title=" ">
<path fill="none" stroke="#63b8ff" d="M775.59,-271.46C750.66,-262.05 715.97,-248.95 689.76,-239.06"/>
<polygon fill="#63b8ff" stroke="#63b8ff" points="774.37,-274.74 784.96,-274.99 776.84,-268.19 774.37,-274.74"/>
</a>
</g>
</g>
<!-- Node17 -->
<g id="Node000017" class="node">
<title>Node17</title>
<g id="a_Node000017"><a xlink:href="../../d2/d2b/dump__control_8hpp.html" target="_top" xlink:title="Dumper control interface for testsuite.">
<polygon fill="white" stroke="#666666" points="872.5,-239 742.5,-239 742.5,-209 872.5,-209 872.5,-239"/>
<text text-anchor="start" x="750.5" y="-227" font-family="Helvetica,sans-Serif" font-size="10.00">userver/testsuite/dump</text>
<text text-anchor="middle" x="807.5" y="-216" font-family="Helvetica,sans-Serif" font-size="10.00">_control.hpp</text>
</a>
</g>
</g>
<!-- Node1&#45;&gt;Node17 -->
<g id="edge18_Node000001_Node000017" class="edge">
<title>Node1&#45;&gt;Node17</title>
<g id="a_edge18_Node000001_Node000017"><a xlink:title=" ">
<path fill="none" stroke="#63b8ff" d="M807.5,-264.65C807.5,-256.36 807.5,-246.78 807.5,-239.11"/>
<polygon fill="#63b8ff" stroke="#63b8ff" points="804,-264.87 807.5,-274.87 811,-264.87 804,-264.87"/>
</a>
</g>
</g>
<!-- Node19 -->
<g id="Node000019" class="node">
<title>Node19</title>
<g id="a_Node000019"><a xlink:href="../../dd/d0e/log__capture__fixture_8hpp.html" target="_top" xlink:title="Fixture that allows to capture and extract log written into the default logger.">
<polygon fill="white" stroke="#666666" points="1032,-239 891,-239 891,-209 1032,-209 1032,-239"/>
<text text-anchor="start" x="899" y="-227" font-family="Helvetica,sans-Serif" font-size="10.00">userver/utest/log_capture</text>
<text text-anchor="middle" x="961.5" y="-216" font-family="Helvetica,sans-Serif" font-size="10.00">_fixture.hpp</text>
</a>
</g>
</g>
<!-- Node1&#45;&gt;Node19 -->
<g id="edge20_Node000001_Node000019" class="edge">
<title>Node1&#45;&gt;Node19</title>
<g id="a_edge20_Node000001_Node000019"><a xlink:title=" ">
<path fill="none" stroke="#63b8ff" d="M839.53,-271.33C864.27,-261.93 898.56,-248.91 924.48,-239.06"/>
<polygon fill="#63b8ff" stroke="#63b8ff" points="838,-268.17 829.89,-274.99 840.48,-274.71 838,-268.17"/>
</a>
</g>
</g>
<!-- Node20 -->
<g id="Node000020" class="node">
<title>Node20</title>
<g id="a_Node000020"><a xlink:href="../../d2/da2/testing_8hpp_source.html" target="_top" xlink:title=" ">
<polygon fill="white" stroke="#666666" points="1175,-239 1050,-239 1050,-209 1175,-209 1175,-239"/>
<text text-anchor="start" x="1058" y="-227" font-family="Helvetica,sans-Serif" font-size="10.00">userver/utils/statistics</text>
<text text-anchor="middle" x="1112.5" y="-216" font-family="Helvetica,sans-Serif" font-size="10.00">/testing.hpp</text>
</a>
</g>
</g>
<!-- Node1&#45;&gt;Node20 -->
<g id="edge21_Node000001_Node000020" class="edge">
<title>Node1&#45;&gt;Node20</title>
<g id="a_edge21_Node000001_Node000020"><a xlink:title=" ">
<path fill="none" stroke="#63b8ff" d="M862.63,-273.02C909.85,-264.04 979.66,-250.73 1040.5,-239 1043.5,-238.42 1046.57,-237.83 1049.67,-237.23"/>
<polygon fill="#63b8ff" stroke="#63b8ff" points="861.78,-269.62 852.61,-274.93 863.09,-276.5 861.78,-269.62"/>
</a>
</g>
</g>
<!-- Node22 -->
<g id="Node000022" class="node">
<title>Node22</title>
<g id="a_Node000022"><a xlink:href="../../d9/d9b/worker_8hpp.html" target="_top" xlink:title=" ">
<polygon fill="white" stroke="#666666" points="1314,-239 1193,-239 1193,-209 1314,-209 1314,-239"/>
<text text-anchor="start" x="1201" y="-227" font-family="Helvetica,sans-Serif" font-size="10.00">userver/ydb/dist_lock</text>
<text text-anchor="middle" x="1253.5" y="-216" font-family="Helvetica,sans-Serif" font-size="10.00">/worker.hpp</text>
</a>
</g>
</g>
<!-- Node1&#45;&gt;Node22 -->
<g id="edge23_Node000001_Node000022" class="edge">
<title>Node1&#45;&gt;Node22</title>
<g id="a_edge23_Node000001_Node000022"><a xlink:title=" ">
<path fill="none" stroke="#63b8ff" d="M887.74,-275.87C964.04,-268.18 1081.92,-255.14 1183.5,-239 1186.56,-238.51 1189.69,-237.99 1192.85,-237.44"/>
<polygon fill="#63b8ff" stroke="#63b8ff" points="887.32,-272.4 877.72,-276.88 888.02,-279.36 887.32,-272.4"/>
</a>
</g>
</g>
<!-- Node24 -->
<g id="Node000024" class="node">
<title>Node24</title>
<g id="a_Node000024"><a xlink:href="../../db/d0b/ydb_2include_2userver_2ydb_2response_8hpp_source.html" target="_top" xlink:title=" ">
<polygon fill="white" stroke="#666666" points="1475,-233.5 1332,-233.5 1332,-214.5 1475,-214.5 1475,-233.5"/>
<text text-anchor="middle" x="1403.5" y="-221.5" font-family="Helvetica,sans-Serif" font-size="10.00">userver/ydb/response.hpp</text>
</a>
</g>
</g>
<!-- Node1&#45;&gt;Node24 -->
<g id="edge25_Node000001_Node000024" class="edge">
<title>Node1&#45;&gt;Node24</title>
<g id="a_edge25_Node000001_Node000024"><a xlink:title=" ">
<path fill="none" stroke="#63b8ff" d="M887.85,-278.68C989.37,-272.1 1169.34,-258.82 1322.5,-239 1334.11,-237.5 1346.59,-235.52 1358.19,-233.53"/>
<polygon fill="#63b8ff" stroke="#63b8ff" points="887.43,-275.2 877.67,-279.33 887.88,-282.18 887.43,-275.2"/>
</a>
</g>
</g>
<!-- Node3 -->
<g id="Node000003" class="node">
<title>Node3</title>
<g id="a_Node000003"><a xlink:href="../../d7/d98/core_2include_2userver_2clients_2http_2component_8hpp.html" target="_top" xlink:title="Component that manages clients::http::Client.">
<polygon fill="white" stroke="#666666" points="111,-30 0,-30 0,0 111,0 111,-30"/>
<text text-anchor="start" x="8" y="-18" font-family="Helvetica,sans-Serif" font-size="10.00">userver/clients/http</text>
<text text-anchor="middle" x="55.5" y="-7" font-family="Helvetica,sans-Serif" font-size="10.00">/component.hpp</text>
</a>
</g>
</g>
<!-- Node2&#45;&gt;Node3 -->
<g id="edge2_Node000002_Node000003" class="edge">
<title>Node2&#45;&gt;Node3</title>
<g id="a_edge2_Node000002_Node000003"><a xlink:title=" ">
<path fill="none" stroke="#63b8ff" d="M55.5,-61.25C55.5,-50.81 55.5,-38.99 55.5,-30.04"/>
<polygon fill="#63b8ff" stroke="#63b8ff" points="52,-61.44 55.5,-71.44 59,-61.44 52,-61.44"/>
</a>
</g>
</g>
<!-- Node4&#45;&gt;Node2 -->
<g id="edge4_Node000004_Node000002" class="edge">
<title>Node4&#45;&gt;Node2</title>
<g id="a_edge4_Node000004_Node000002"><a xlink:title=" ">
<path fill="none" stroke="#63b8ff" d="M254.76,-218.64C212.26,-213.13 157.44,-200.75 116.5,-173 89.78,-154.89 70.85,-120.95 61.71,-101.73"/>
<polygon fill="#63b8ff" stroke="#63b8ff" points="254.38,-222.12 264.73,-219.83 255.22,-215.17 254.38,-222.12"/>
</a>
</g>
</g>
<!-- Node5 -->
<g id="Node000005" class="node">
<title>Node5</title>
<g id="a_Node000005"><a xlink:href="../../d5/d70/plugin__component_8hpp_source.html" target="_top" xlink:title=" ">
<polygon fill="white" stroke="#666666" points="386,-173 255,-173 255,-143 386,-143 386,-173"/>
<text text-anchor="start" x="263" y="-161" font-family="Helvetica,sans-Serif" font-size="10.00">userver/clients/http</text>
<text text-anchor="middle" x="320.5" y="-150" font-family="Helvetica,sans-Serif" font-size="10.00">/plugin_component.hpp</text>
</a>
</g>
</g>
<!-- Node4&#45;&gt;Node5 -->
<g id="edge5_Node000004_Node000005" class="edge">
<title>Node4&#45;&gt;Node5</title>
<g id="a_edge5_Node000004_Node000005"><a xlink:title=" ">
<path fill="none" stroke="#63b8ff" d="M320.5,-198.54C320.5,-189.96 320.5,-180.61 320.5,-173.16"/>
<polygon fill="#63b8ff" stroke="#63b8ff" points="317,-198.8 320.5,-208.8 324,-198.8 317,-198.8"/>
</a>
</g>
</g>
<!-- Node8 -->
<g id="Node000008" class="node">
<title>Node8</title>
<g id="a_Node000008"><a xlink:href="../../d1/d57/core_2include_2userver_2clients_2http_2request_8hpp.html" target="_top" xlink:title="Class for creating and performing new http requests.">
<polygon fill="white" stroke="#666666" points="237,-173 126,-173 126,-143 237,-143 237,-173"/>
<text text-anchor="start" x="134" y="-161" font-family="Helvetica,sans-Serif" font-size="10.00">userver/clients/http</text>
<text text-anchor="middle" x="181.5" y="-150" font-family="Helvetica,sans-Serif" font-size="10.00">/request.hpp</text>
</a>
</g>
</g>
<!-- Node4&#45;&gt;Node8 -->
<g id="edge8_Node000004_Node000008" class="edge">
<title>Node4&#45;&gt;Node8</title>
<g id="a_edge8_Node000004_Node000008"><a xlink:title=" ">
<path fill="none" stroke="#63b8ff" d="M280.64,-204.65C258.78,-194.58 232.11,-182.3 211.93,-173.01"/>
<polygon fill="#63b8ff" stroke="#63b8ff" points="279.45,-207.95 290,-208.95 282.38,-201.59 279.45,-207.95"/>
</a>
</g>
</g>
<!-- Node10 -->
<g id="Node000010" class="node">
<title>Node10</title>
<g id="a_Node000010"><a xlink:href="../../da/d04/manager_8hpp.html" target="_top" xlink:title="Base class for propagating trace context information in headers.">
<polygon fill="white" stroke="#666666" points="561,-167.5 404,-167.5 404,-148.5 561,-148.5 561,-167.5"/>
<text text-anchor="middle" x="482.5" y="-155.5" font-family="Helvetica,sans-Serif" font-size="10.00">userver/tracing/manager.hpp</text>
</a>
</g>
</g>
<!-- Node4&#45;&gt;Node10 -->
<g id="edge11_Node000004_Node000010" class="edge">
<title>Node4&#45;&gt;Node10</title>
<g id="a_edge11_Node000004_Node000010"><a xlink:title=" ">
<path fill="none" stroke="#63b8ff" d="M365.41,-205.26C396.56,-192.95 436.67,-177.11 460.94,-167.52"/>
<polygon fill="#63b8ff" stroke="#63b8ff" points="364.07,-202.03 356.05,-208.95 366.64,-208.54 364.07,-202.03"/>
</a>
</g>
</g>
<!-- Node6 -->
<g id="Node000006" class="node">
<title>Node6</title>
<g id="a_Node000006"><a xlink:href="../../d7/d59/core_2include_2userver_2clients_2http_2plugins_2headers__propagator_2component_8hpp_source.html" target="_top" xlink:title=" ">
<polygon fill="white" stroke="#666666" points="560,-107 405,-107 405,-66 560,-66 560,-107"/>
<text text-anchor="start" x="413" y="-95" font-family="Helvetica,sans-Serif" font-size="10.00">userver/clients/http</text>
<text text-anchor="start" x="413" y="-84" font-family="Helvetica,sans-Serif" font-size="10.00">/plugins/headers_propagator</text>
<text text-anchor="middle" x="482.5" y="-73" font-family="Helvetica,sans-Serif" font-size="10.00">/component.hpp</text>
</a>
</g>
</g>
<!-- Node5&#45;&gt;Node6 -->
<g id="edge6_Node000005_Node000006" class="edge">
<title>Node5&#45;&gt;Node6</title>
<g id="a_edge6_Node000005_Node000006"><a xlink:title=" ">
<path fill="none" stroke="#63b8ff" d="M362.69,-138.9C385.46,-129.13 413.59,-117.06 436.88,-107.07"/>
<polygon fill="#63b8ff" stroke="#63b8ff" points="361.09,-135.78 353.28,-142.94 363.85,-142.21 361.09,-135.78"/>
</a>
</g>
</g>
<!-- Node7 -->
<g id="Node000007" class="node">
<title>Node7</title>
<g id="a_Node000007"><a xlink:href="../../d5/d3d/core_2include_2userver_2clients_2http_2plugins_2yandex__tracing_2component_8hpp_source.html" target="_top" xlink:title=" ">
<polygon fill="white" stroke="#666666" points="387,-107 254,-107 254,-66 387,-66 387,-107"/>
<text text-anchor="start" x="262" y="-95" font-family="Helvetica,sans-Serif" font-size="10.00">userver/clients/http</text>
<text text-anchor="start" x="262" y="-84" font-family="Helvetica,sans-Serif" font-size="10.00">/plugins/yandex_tracing</text>
<text text-anchor="middle" x="320.5" y="-73" font-family="Helvetica,sans-Serif" font-size="10.00">/component.hpp</text>
</a>
</g>
</g>
<!-- Node5&#45;&gt;Node7 -->
<g id="edge7_Node000005_Node000007" class="edge">
<title>Node5&#45;&gt;Node7</title>
<g id="a_edge7_Node000005_Node000007"><a xlink:title=" ">
<path fill="none" stroke="#63b8ff" d="M320.5,-132.91C320.5,-124.47 320.5,-115.1 320.5,-107.07"/>
<polygon fill="#63b8ff" stroke="#63b8ff" points="317,-132.94 320.5,-142.94 324,-132.94 317,-132.94"/>
</a>
</g>
</g>
<!-- Node8&#45;&gt;Node2 -->
<g id="edge9_Node000008_Node000002" class="edge">
<title>Node8&#45;&gt;Node2</title>
<g id="a_edge9_Node000008_Node000002"><a xlink:title=" ">
<path fill="none" stroke="#63b8ff" d="M147.12,-138.03C126.22,-126.51 99.99,-112.04 80.96,-101.54"/>
<polygon fill="#63b8ff" stroke="#63b8ff" points="145.56,-141.17 156,-142.94 148.94,-135.04 145.56,-141.17"/>
</a>
</g>
</g>
<!-- Node9 -->
<g id="Node000009" class="node">
<title>Node9</title>
<g id="a_Node000009"><a xlink:href="../../d2/d6c/http__server__mock_8hpp_source.html" target="_top" xlink:title=" ">
<polygon fill="white" stroke="#666666" points="235.5,-101.5 129.5,-101.5 129.5,-71.5 235.5,-71.5 235.5,-101.5"/>
<text text-anchor="start" x="137.5" y="-89.5" font-family="Helvetica,sans-Serif" font-size="10.00">userver/utest/http</text>
<text text-anchor="middle" x="182.5" y="-78.5" font-family="Helvetica,sans-Serif" font-size="10.00">_server_mock.hpp</text>
</a>
</g>
</g>
<!-- Node8&#45;&gt;Node9 -->
<g id="edge10_Node000008_Node000009" class="edge">
<title>Node8&#45;&gt;Node9</title>
<g id="a_edge10_Node000008_Node000009"><a xlink:title=" ">
<path fill="none" stroke="#63b8ff" d="M181.85,-132.75C182,-122.31 182.17,-110.49 182.3,-101.54"/>
<polygon fill="#63b8ff" stroke="#63b8ff" points="178.35,-132.89 181.7,-142.94 185.35,-132.99 178.35,-132.89"/>
</a>
</g>
</g>
<!-- Node11 -->
<g id="Node000011" class="node">
<title>Node11</title>
<g id="a_Node000011"><a xlink:href="../../d6/dbd/manager__component_8hpp.html" target="_top" xlink:title="TracingManager base and default components.">
<polygon fill="white" stroke="#666666" points="715,-101.5 578,-101.5 578,-71.5 715,-71.5 715,-101.5"/>
<text text-anchor="start" x="586" y="-89.5" font-family="Helvetica,sans-Serif" font-size="10.00">userver/tracing/manager</text>
<text text-anchor="middle" x="646.5" y="-78.5" font-family="Helvetica,sans-Serif" font-size="10.00">_component.hpp</text>
</a>
</g>
</g>
<!-- Node10&#45;&gt;Node11 -->
<g id="edge12_Node000010_Node000011" class="edge">
<title>Node10&#45;&gt;Node11</title>
<g id="a_edge12_Node000010_Node000011"><a xlink:title=" ">
<path fill="none" stroke="#63b8ff" d="M512.05,-144.48C540.6,-132.38 583.77,-114.08 613.45,-101.51"/>
<polygon fill="#63b8ff" stroke="#63b8ff" points="510.45,-141.35 502.61,-148.48 513.18,-147.8 510.45,-141.35"/>
</a>
</g>
</g>
<!-- Node14 -->
<g id="Node000014" class="node">
<title>Node14</title>
<g id="a_Node000014"><a xlink:href="../../dd/d55/core_2include_2userver_2congestion__control_2component_8hpp.html" target="_top" xlink:title="Component to limit too active requests, also known as CC.">
<polygon fill="white" stroke="#666666" points="713.5,-173 579.5,-173 579.5,-143 713.5,-143 713.5,-173"/>
<text text-anchor="start" x="587.5" y="-161" font-family="Helvetica,sans-Serif" font-size="10.00">userver/congestion</text>
<text text-anchor="middle" x="646.5" y="-150" font-family="Helvetica,sans-Serif" font-size="10.00">_control/component.hpp</text>
</a>
</g>
</g>
<!-- Node13&#45;&gt;Node14 -->
<g id="edge15_Node000013_Node000014" class="edge">
<title>Node13&#45;&gt;Node14</title>
<g id="a_edge15_Node000013_Node000014"><a xlink:title=" ">
<path fill="none" stroke="#63b8ff" d="M650.23,-198.83C649.42,-190.17 648.53,-180.7 647.83,-173.16"/>
<polygon fill="#63b8ff" stroke="#63b8ff" points="646.75,-199.17 651.17,-208.8 653.72,-198.51 646.75,-199.17"/>
</a>
</g>
</g>
<!-- Node15 -->
<g id="Node000015" class="node">
<title>Node15</title>
<g id="a_Node000015"><a xlink:href="../../d8/d82/core_2include_2userver_2server_2server_8hpp_source.html" target="_top" xlink:title=" ">
<polygon fill="white" stroke="#666666" points="873,-167.5 732,-167.5 732,-148.5 873,-148.5 873,-167.5"/>
<text text-anchor="middle" x="802.5" y="-155.5" font-family="Helvetica,sans-Serif" font-size="10.00">userver/server/server.hpp</text>
</a>
</g>
</g>
<!-- Node13&#45;&gt;Node15 -->
<g id="edge16_Node000013_Node000015" class="edge">
<title>Node13&#45;&gt;Node15</title>
<g id="a_edge16_Node000013_Node000015"><a xlink:title=" ">
<path fill="none" stroke="#63b8ff" d="M694.83,-204.94C723.56,-192.68 760.26,-177.02 782.54,-167.52"/>
<polygon fill="#63b8ff" stroke="#63b8ff" points="693.24,-201.81 685.42,-208.95 695.99,-208.25 693.24,-201.81"/>
</a>
</g>
</g>
<!-- Node16 -->
<g id="Node000016" class="node">
<title>Node16</title>
<g id="a_Node000016"><a xlink:href="../../d3/ddd/core_2include_2userver_2server_2component_8hpp.html" target="_top" xlink:title="Component that listens for incoming requests, manages incoming connections and passes the requests to...">
<polygon fill="white" stroke="#666666" points="899.5,-96 733.5,-96 733.5,-77 899.5,-77 899.5,-96"/>
<text text-anchor="middle" x="816.5" y="-84" font-family="Helvetica,sans-Serif" font-size="10.00">userver/server/component.hpp</text>
</a>
</g>
</g>
<!-- Node15&#45;&gt;Node16 -->
<g id="edge17_Node000015_Node000016" class="edge">
<title>Node15&#45;&gt;Node16</title>
<g id="a_edge17_Node000015_Node000016"><a xlink:title=" ">
<path fill="none" stroke="#63b8ff" d="M806.2,-138.62C808.97,-124.86 812.64,-106.65 814.77,-96.09"/>
<polygon fill="#63b8ff" stroke="#63b8ff" points="802.76,-137.98 804.22,-148.48 809.62,-139.37 802.76,-137.98"/>
</a>
</g>
</g>
<!-- Node18 -->
<g id="Node000018" class="node">
<title>Node18</title>
<g id="a_Node000018"><a xlink:href="../../d3/d37/testsuite__support_8hpp.html" target="_top" xlink:title="Testsuite support component.">
<polygon fill="white" stroke="#666666" points="1036,-173 891,-173 891,-143 1036,-143 1036,-173"/>
<text text-anchor="start" x="899" y="-161" font-family="Helvetica,sans-Serif" font-size="10.00">userver/testsuite/testsuite</text>
<text text-anchor="middle" x="963.5" y="-150" font-family="Helvetica,sans-Serif" font-size="10.00">_support.hpp</text>
</a>
</g>
</g>
<!-- Node17&#45;&gt;Node18 -->
<g id="edge19_Node000017_Node000018" class="edge">
<title>Node17&#45;&gt;Node18</title>
<g id="a_edge19_Node000017_Node000018"><a xlink:title=" ">
<path fill="none" stroke="#63b8ff" d="M851.24,-205.05C875.96,-194.91 906.4,-182.43 929.34,-173.01"/>
<polygon fill="#63b8ff" stroke="#63b8ff" points="849.66,-201.92 841.73,-208.95 852.32,-208.4 849.66,-201.92"/>
</a>
</g>
</g>
<!-- Node21 -->
<g id="Node000021" class="node">
<title>Node21</title>
<g id="a_Node000021"><a xlink:href="../../d1/d31/service__fixtures_8hpp.html" target="_top" xlink:title="gtest fixtures for testing ugrpc service implementations. Requires linking to userver::grpc&#45;utest.">
<polygon fill="white" stroke="#666666" points="1172.5,-173 1054.5,-173 1054.5,-143 1172.5,-143 1172.5,-173"/>
<text text-anchor="start" x="1062.5" y="-161" font-family="Helvetica,sans-Serif" font-size="10.00">userver/ugrpc/tests</text>
<text text-anchor="middle" x="1113.5" y="-150" font-family="Helvetica,sans-Serif" font-size="10.00">/service_fixtures.hpp</text>
</a>
</g>
</g>
<!-- Node20&#45;&gt;Node21 -->
<g id="edge22_Node000020_Node000021" class="edge">
<title>Node20&#45;&gt;Node21</title>
<g id="a_edge22_Node000020_Node000021"><a xlink:title=" ">
<path fill="none" stroke="#63b8ff" d="M1112.88,-198.54C1113.02,-189.96 1113.16,-180.61 1113.28,-173.16"/>
<polygon fill="#63b8ff" stroke="#63b8ff" points="1109.38,-198.74 1112.72,-208.8 1116.38,-198.85 1109.38,-198.74"/>
</a>
</g>
</g>
<!-- Node23 -->
<g id="Node000023" class="node">
<title>Node23</title>
<g id="a_Node000023"><a xlink:href="../../d5/dcf/ydb_2include_2userver_2ydb_2dist__lock_2component__base_8hpp.html" target="_top" xlink:title="Base class for YDB&#45;based distlock worker components.">
<polygon fill="white" stroke="#666666" points="1315.5,-173 1191.5,-173 1191.5,-143 1315.5,-143 1315.5,-173"/>
<text text-anchor="start" x="1199.5" y="-161" font-family="Helvetica,sans-Serif" font-size="10.00">userver/ydb/dist_lock</text>
<text text-anchor="middle" x="1253.5" y="-150" font-family="Helvetica,sans-Serif" font-size="10.00">/component_base.hpp</text>
</a>
</g>
</g>
<!-- Node22&#45;&gt;Node23 -->
<g id="edge24_Node000022_Node000023" class="edge">
<title>Node22&#45;&gt;Node23</title>
<g id="a_edge24_Node000022_Node000023"><a xlink:title=" ">
<path fill="none" stroke="#63b8ff" d="M1253.5,-198.54C1253.5,-189.96 1253.5,-180.61 1253.5,-173.16"/>
<polygon fill="#63b8ff" stroke="#63b8ff" points="1250,-198.8 1253.5,-208.8 1257,-198.8 1250,-198.8"/>
</a>
</g>
</g>
<!-- Node25 -->
<g id="Node000025" class="node">
<title>Node25</title>
<g id="a_Node000025"><a xlink:href="../../de/d2d/table_8hpp_source.html" target="_top" xlink:title=" ">
<polygon fill="white" stroke="#666666" points="1487,-96 1364,-96 1364,-77 1487,-77 1487,-96"/>
<text text-anchor="middle" x="1425.5" y="-84" font-family="Helvetica,sans-Serif" font-size="10.00">userver/ydb/table.hpp</text>
</a>
</g>
</g>
<!-- Node24&#45;&gt;Node25 -->
<g id="edge26_Node000024_Node000025" class="edge">
<title>Node24&#45;&gt;Node25</title>
<g id="a_edge26_Node000024_Node000025"><a xlink:title=" ">
<path fill="none" stroke="#63b8ff" d="M1396.81,-204.53C1391.84,-188.14 1386.82,-163.65 1392.5,-143 1397.49,-124.84 1410.14,-106.61 1418.25,-96.23"/>
<polygon fill="#63b8ff" stroke="#63b8ff" points="1393.63,-206.06 1400.11,-214.44 1400.27,-203.85 1393.63,-206.06"/>
</a>
</g>
</g>
<!-- Node26 -->
<g id="Node000026" class="node">
<title>Node26</title>
<g id="a_Node000026"><a xlink:href="../../da/d14/ydb_2include_2userver_2ydb_2transaction_8hpp_source.html" target="_top" xlink:title=" ">
<polygon fill="white" stroke="#666666" points="1555,-167.5 1402,-167.5 1402,-148.5 1555,-148.5 1555,-167.5"/>
<text text-anchor="middle" x="1478.5" y="-155.5" font-family="Helvetica,sans-Serif" font-size="10.00">userver/ydb/transaction.hpp</text>
</a>
</g>
</g>
<!-- Node24&#45;&gt;Node26 -->
<g id="edge27_Node000024_Node000026" class="edge">
<title>Node24&#45;&gt;Node26</title>
<g id="a_edge27_Node000024_Node000026"><a xlink:title=" ">
<path fill="none" stroke="#63b8ff" d="M1421.45,-207.68C1436.01,-195.26 1456.02,-178.18 1468.06,-167.91"/>
<polygon fill="#63b8ff" stroke="#63b8ff" points="1418.95,-205.22 1413.61,-214.37 1423.49,-210.54 1418.95,-205.22"/>
</a>
</g>
</g>
<!-- Node26&#45;&gt;Node25 -->
<g id="edge28_Node000026_Node000025" class="edge">
<title>Node26&#45;&gt;Node25</title>
<g id="a_edge28_Node000026_Node000025"><a xlink:title=" ">
<path fill="none" stroke="#63b8ff" d="M1465.72,-140.24C1455.1,-126.31 1440.42,-107.07 1432.05,-96.09"/>
<polygon fill="#63b8ff" stroke="#63b8ff" points="1463.15,-142.65 1472,-148.48 1468.72,-138.4 1463.15,-142.65"/>
</a>
</g>
</g>
</g>
</svg>
