<?xml version="1.0" encoding="UTF-8" standalone="no"?>
<!DOCTYPE svg PUBLIC "-//W3C//DTD SVG 1.1//EN"
 "http://www.w3.org/Graphics/SVG/1.1/DTD/svg11.dtd">
<!-- Generated by graphviz version 2.43.0 (0)
 -->
<!-- Title: userver/net/blocking/get_addr_info.hpp Pages: 1 -->
<svg width="889pt" height="269pt"
 viewBox="0.00 0.00 889.00 269.00" xmlns="http://www.w3.org/2000/svg" xmlns:xlink="http://www.w3.org/1999/xlink">
<g id="graph0" class="graph" transform="scale(1 1) rotate(0) translate(4 265)">
<title>userver/net/blocking/get_addr_info.hpp</title>
<!-- Node1 -->
<g id="Node000001" class="node">
<title>Node1</title>
<g id="a_Node000001"><a xlink:title="Blocking Functions for getaddrinfo.">
<polygon fill="#999999" stroke="#666666" points="372,-261 256,-261 256,-231 372,-231 372,-261"/>
<text text-anchor="start" x="264" y="-249" font-family="Helvetica,sans-Serif" font-size="10.00">userver/net/blocking</text>
<text text-anchor="middle" x="314" y="-238" font-family="Helvetica,sans-Serif" font-size="10.00">/get_addr_info.hpp</text>
</a>
</g>
</g>
<!-- Node2 -->
<g id="Node000002" class="node">
<title>Node2</title>
<g id="a_Node000002"><a xlink:title=" ">
<polygon fill="#e0e0e0" stroke="#999999" points="275.5,-195 228.5,-195 228.5,-176 275.5,-176 275.5,-195"/>
<text text-anchor="middle" x="252" y="-183" font-family="Helvetica,sans-Serif" font-size="10.00">vector</text>
</a>
</g>
</g>
<!-- Node1&#45;&gt;Node2 -->
<g id="edge1_Node000001_Node000002" class="edge">
<title>Node1&#45;&gt;Node2</title>
<g id="a_edge1_Node000001_Node000002"><a xlink:title=" ">
<path fill="none" stroke="#63b8ff" d="M298.99,-230.84C289.81,-222.17 278.05,-211.08 268.59,-202.15"/>
<polygon fill="#63b8ff" stroke="#63b8ff" points="270.97,-199.58 261.29,-195.27 266.16,-204.67 270.97,-199.58"/>
</a>
</g>
</g>
<!-- Node3 -->
<g id="Node000003" class="node">
<title>Node3</title>
<g id="a_Node000003"><a xlink:href="../../d7/d1b/sockaddr_8hpp.html" target="_top" xlink:title="Native socket address wrapper.">
<polygon fill="white" stroke="#666666" points="461,-195 293,-195 293,-176 461,-176 461,-195"/>
<text text-anchor="middle" x="377" y="-183" font-family="Helvetica,sans-Serif" font-size="10.00">userver/engine/io/sockaddr.hpp</text>
</a>
</g>
</g>
<!-- Node1&#45;&gt;Node3 -->
<g id="edge2_Node000001_Node000003" class="edge">
<title>Node1&#45;&gt;Node3</title>
<g id="a_edge2_Node000001_Node000003"><a xlink:title=" ">
<path fill="none" stroke="#63b8ff" d="M329.25,-230.84C338.58,-222.17 350.53,-211.08 360.15,-202.15"/>
<polygon fill="#63b8ff" stroke="#63b8ff" points="362.61,-204.64 367.56,-195.27 357.85,-199.51 362.61,-204.64"/>
</a>
</g>
</g>
<!-- Node4 -->
<g id="Node000004" class="node">
<title>Node4</title>
<g id="a_Node000004"><a xlink:title=" ">
<polygon fill="#e0e0e0" stroke="#999999" points="72,-134.5 0,-134.5 0,-115.5 72,-115.5 72,-134.5"/>
<text text-anchor="middle" x="36" y="-122.5" font-family="Helvetica,sans-Serif" font-size="10.00">netinet/in.h</text>
</a>
</g>
</g>
<!-- Node3&#45;&gt;Node4 -->
<g id="edge3_Node000003_Node000004" class="edge">
<title>Node3&#45;&gt;Node4</title>
<g id="a_edge3_Node000003_Node000004"><a xlink:title=" ">
<path fill="none" stroke="#63b8ff" d="M298.18,-175.97C238.18,-168.67 153.81,-156.7 81,-140 77.63,-139.23 74.14,-138.33 70.67,-137.36"/>
<polygon fill="#63b8ff" stroke="#63b8ff" points="71.62,-134 61.04,-134.53 69.65,-140.71 71.62,-134"/>
</a>
</g>
</g>
<!-- Node5 -->
<g id="Node000005" class="node">
<title>Node5</title>
<g id="a_Node000005"><a xlink:title=" ">
<polygon fill="#e0e0e0" stroke="#999999" points="167.5,-134.5 90.5,-134.5 90.5,-115.5 167.5,-115.5 167.5,-134.5"/>
<text text-anchor="middle" x="129" y="-122.5" font-family="Helvetica,sans-Serif" font-size="10.00">sys/socket.h</text>
</a>
</g>
</g>
<!-- Node3&#45;&gt;Node5 -->
<g id="edge4_Node000003_Node000005" class="edge">
<title>Node3&#45;&gt;Node5</title>
<g id="a_edge4_Node000003_Node000005"><a xlink:title=" ">
<path fill="none" stroke="#63b8ff" d="M335.06,-175.99C294.46,-167.57 231.26,-153.93 177,-140 173.66,-139.14 170.2,-138.21 166.75,-137.26"/>
<polygon fill="#63b8ff" stroke="#63b8ff" points="167.66,-133.88 157.09,-134.52 165.76,-140.62 167.66,-133.88"/>
</a>
</g>
</g>
<!-- Node6 -->
<g id="Node000006" class="node">
<title>Node6</title>
<g id="a_Node000006"><a xlink:title=" ">
<polygon fill="#e0e0e0" stroke="#999999" points="258,-134.5 186,-134.5 186,-115.5 258,-115.5 258,-134.5"/>
<text text-anchor="middle" x="222" y="-122.5" font-family="Helvetica,sans-Serif" font-size="10.00">sys/types.h</text>
</a>
</g>
</g>
<!-- Node3&#45;&gt;Node6 -->
<g id="edge5_Node000003_Node000006" class="edge">
<title>Node3&#45;&gt;Node6</title>
<g id="a_edge5_Node000003_Node000006"><a xlink:title=" ">
<path fill="none" stroke="#63b8ff" d="M354.46,-175.99C328.06,-166.03 284.12,-149.45 254.15,-138.13"/>
<polygon fill="#63b8ff" stroke="#63b8ff" points="255.16,-134.77 244.57,-134.52 252.69,-141.32 255.16,-134.77"/>
</a>
</g>
</g>
<!-- Node7 -->
<g id="Node000007" class="node">
<title>Node7</title>
<g id="a_Node000007"><a xlink:title=" ">
<polygon fill="#e0e0e0" stroke="#999999" points="333.5,-134.5 276.5,-134.5 276.5,-115.5 333.5,-115.5 333.5,-134.5"/>
<text text-anchor="middle" x="305" y="-122.5" font-family="Helvetica,sans-Serif" font-size="10.00">sys/un.h</text>
</a>
</g>
</g>
<!-- Node3&#45;&gt;Node7 -->
<g id="edge6_Node000003_Node000007" class="edge">
<title>Node3&#45;&gt;Node7</title>
<g id="a_edge6_Node000003_Node000007"><a xlink:title=" ">
<path fill="none" stroke="#63b8ff" d="M366.38,-175.87C355.1,-166.71 337.08,-152.06 323.47,-141.01"/>
<polygon fill="#63b8ff" stroke="#63b8ff" points="325.64,-138.26 315.67,-134.67 321.22,-143.69 325.64,-138.26"/>
</a>
</g>
</g>
<!-- Node8 -->
<g id="Node000008" class="node">
<title>Node8</title>
<g id="a_Node000008"><a xlink:title=" ">
<polygon fill="#e0e0e0" stroke="#999999" points="402,-134.5 352,-134.5 352,-115.5 402,-115.5 402,-134.5"/>
<text text-anchor="middle" x="377" y="-122.5" font-family="Helvetica,sans-Serif" font-size="10.00">cstring</text>
</a>
</g>
</g>
<!-- Node3&#45;&gt;Node8 -->
<g id="edge7_Node000003_Node000008" class="edge">
<title>Node3&#45;&gt;Node8</title>
<g id="a_edge7_Node000003_Node000008"><a xlink:title=" ">
<path fill="none" stroke="#63b8ff" d="M377,-175.87C377,-167.75 377,-155.31 377,-144.89"/>
<polygon fill="#63b8ff" stroke="#63b8ff" points="380.5,-144.67 377,-134.67 373.5,-144.67 380.5,-144.67"/>
</a>
</g>
</g>
<!-- Node9 -->
<g id="Node000009" class="node">
<title>Node9</title>
<g id="a_Node000009"><a xlink:title=" ">
<polygon fill="#e0e0e0" stroke="#999999" points="464,-134.5 420,-134.5 420,-115.5 464,-115.5 464,-134.5"/>
<text text-anchor="middle" x="442" y="-122.5" font-family="Helvetica,sans-Serif" font-size="10.00">string</text>
</a>
</g>
</g>
<!-- Node3&#45;&gt;Node9 -->
<g id="edge8_Node000003_Node000009" class="edge">
<title>Node3&#45;&gt;Node9</title>
<g id="a_edge8_Node000003_Node000009"><a xlink:title=" ">
<path fill="none" stroke="#63b8ff" d="M386.59,-175.87C396.58,-166.88 412.43,-152.61 424.63,-141.64"/>
<polygon fill="#63b8ff" stroke="#63b8ff" points="427.28,-143.96 432.37,-134.67 422.6,-138.76 427.28,-143.96"/>
</a>
</g>
</g>
<!-- Node10 -->
<g id="Node000010" class="node">
<title>Node10</title>
<g id="a_Node000010"><a xlink:title=" ">
<polygon fill="#e0e0e0" stroke="#999999" points="561.5,-134.5 482.5,-134.5 482.5,-115.5 561.5,-115.5 561.5,-134.5"/>
<text text-anchor="middle" x="522" y="-122.5" font-family="Helvetica,sans-Serif" font-size="10.00">fmt/format.h</text>
</a>
</g>
</g>
<!-- Node3&#45;&gt;Node10 -->
<g id="edge9_Node000003_Node000010" class="edge">
<title>Node3&#45;&gt;Node10</title>
<g id="a_edge9_Node000003_Node000010"><a xlink:title=" ">
<path fill="none" stroke="#63b8ff" d="M398.08,-175.99C422.68,-166.07 463.53,-149.59 491.56,-138.28"/>
<polygon fill="#63b8ff" stroke="#63b8ff" points="492.93,-141.5 500.89,-134.52 490.31,-135.01 492.93,-141.5"/>
</a>
</g>
</g>
<!-- Node11 -->
<g id="Node000011" class="node">
<title>Node11</title>
<g id="a_Node000011"><a xlink:href="../../d3/d6c/fmt__compat_8hpp_source.html" target="_top" xlink:title=" ">
<polygon fill="white" stroke="#666666" points="740.5,-134.5 579.5,-134.5 579.5,-115.5 740.5,-115.5 740.5,-134.5"/>
<text text-anchor="middle" x="660" y="-122.5" font-family="Helvetica,sans-Serif" font-size="10.00">userver/utils/fmt_compat.hpp</text>
</a>
</g>
</g>
<!-- Node3&#45;&gt;Node11 -->
<g id="edge10_Node000003_Node000011" class="edge">
<title>Node3&#45;&gt;Node11</title>
<g id="a_edge10_Node000003_Node000011"><a xlink:title=" ">
<path fill="none" stroke="#63b8ff" d="M418.15,-175.99C468.66,-165.55 554.32,-147.85 608.97,-136.55"/>
<polygon fill="#63b8ff" stroke="#63b8ff" points="609.72,-139.97 618.8,-134.52 608.3,-133.11 609.72,-139.97"/>
</a>
</g>
</g>
<!-- Node13 -->
<g id="Node000013" class="node">
<title>Node13</title>
<g id="a_Node000013"><a xlink:href="../../d0/d14/log__helper__fwd_8hpp.html" target="_top" xlink:title=" ">
<polygon fill="white" stroke="#666666" points="869,-140 759,-140 759,-110 869,-110 869,-140"/>
<text text-anchor="start" x="767" y="-128" font-family="Helvetica,sans-Serif" font-size="10.00">userver/logging/log</text>
<text text-anchor="middle" x="814" y="-117" font-family="Helvetica,sans-Serif" font-size="10.00">_helper_fwd.hpp</text>
</a>
</g>
</g>
<!-- Node3&#45;&gt;Node13 -->
<g id="edge12_Node000003_Node000013" class="edge">
<title>Node3&#45;&gt;Node13</title>
<g id="a_edge12_Node000003_Node000013"><a xlink:title=" ">
<path fill="none" stroke="#63b8ff" d="M461.16,-176.69C534.41,-169.37 643.6,-157.22 748.6,-139.95"/>
<polygon fill="#63b8ff" stroke="#63b8ff" points="749.46,-143.36 758.75,-138.27 748.31,-136.45 749.46,-143.36"/>
</a>
</g>
</g>
<!-- Node12 -->
<g id="Node000012" class="node">
<title>Node12</title>
<g id="a_Node000012"><a xlink:title=" ">
<polygon fill="#e0e0e0" stroke="#999999" points="693.5,-74 626.5,-74 626.5,-55 693.5,-55 693.5,-74"/>
<text text-anchor="middle" x="660" y="-62" font-family="Helvetica,sans-Serif" font-size="10.00">fmt/core.h</text>
</a>
</g>
</g>
<!-- Node11&#45;&gt;Node12 -->
<g id="edge11_Node000011_Node000012" class="edge">
<title>Node11&#45;&gt;Node12</title>
<g id="a_edge11_Node000011_Node000012"><a xlink:title=" ">
<path fill="none" stroke="#63b8ff" d="M660,-115.37C660,-107.25 660,-94.81 660,-84.39"/>
<polygon fill="#63b8ff" stroke="#63b8ff" points="663.5,-84.17 660,-74.17 656.5,-84.17 663.5,-84.17"/>
</a>
</g>
</g>
<!-- Node14 -->
<g id="Node000014" class="node">
<title>Node14</title>
<g id="a_Node000014"><a xlink:href="../../db/dfb/universal_2include_2userver_2logging_2fwd_8hpp.html" target="_top" xlink:title="Forward declarations for logging types.">
<polygon fill="white" stroke="#666666" points="881,-74 747,-74 747,-55 881,-55 881,-74"/>
<text text-anchor="middle" x="814" y="-62" font-family="Helvetica,sans-Serif" font-size="10.00">userver/logging/fwd.hpp</text>
</a>
</g>
</g>
<!-- Node13&#45;&gt;Node14 -->
<g id="edge13_Node000013_Node000014" class="edge">
<title>Node13&#45;&gt;Node14</title>
<g id="a_edge13_Node000013_Node000014"><a xlink:title=" ">
<path fill="none" stroke="#63b8ff" d="M814,-109.84C814,-102.21 814,-92.7 814,-84.45"/>
<polygon fill="#63b8ff" stroke="#63b8ff" points="817.5,-84.27 814,-74.27 810.5,-84.27 817.5,-84.27"/>
</a>
</g>
</g>
<!-- Node15 -->
<g id="Node000015" class="node">
<title>Node15</title>
<g id="a_Node000015"><a xlink:title=" ">
<polygon fill="#e0e0e0" stroke="#999999" points="843,-19 785,-19 785,0 843,0 843,-19"/>
<text text-anchor="middle" x="814" y="-7" font-family="Helvetica,sans-Serif" font-size="10.00">memory</text>
</a>
</g>
</g>
<!-- Node14&#45;&gt;Node15 -->
<g id="edge14_Node000014_Node000015" class="edge">
<title>Node14&#45;&gt;Node15</title>
<g id="a_edge14_Node000014_Node000015"><a xlink:title=" ">
<path fill="none" stroke="#63b8ff" d="M814,-54.75C814,-47.8 814,-37.85 814,-29.13"/>
<polygon fill="#63b8ff" stroke="#63b8ff" points="817.5,-29.09 814,-19.09 810.5,-29.09 817.5,-29.09"/>
</a>
</g>
</g>
</g>
</svg>
