<?xml version="1.0" encoding="UTF-8" standalone="no"?>
<!DOCTYPE svg PUBLIC "-//W3C//DTD SVG 1.1//EN"
 "http://www.w3.org/Graphics/SVG/1.1/DTD/svg11.dtd">
<!-- Generated by graphviz version 2.43.0 (0)
 -->
<!-- Title: userver/formats/yaml/serialize.hpp Pages: 1 -->
<svg width="2038pt" height="423pt"
 viewBox="0.00 0.00 2037.50 423.00" xmlns="http://www.w3.org/2000/svg" xmlns:xlink="http://www.w3.org/1999/xlink">
<g id="graph0" class="graph" transform="scale(1 1) rotate(0) translate(4 419)">
<title>userver/formats/yaml/serialize.hpp</title>
<!-- Node1 -->
<g id="Node000001" class="node">
<title>Node1</title>
<g id="a_Node000001"><a xlink:title="Parsers and serializers to/from string and stream.">
<polygon fill="#999999" stroke="#666666" points="1236.5,-415 1114.5,-415 1114.5,-385 1236.5,-385 1236.5,-415"/>
<text text-anchor="start" x="1122.5" y="-403" font-family="Helvetica,sans-Serif" font-size="10.00">userver/formats/yaml</text>
<text text-anchor="middle" x="1175.5" y="-392" font-family="Helvetica,sans-Serif" font-size="10.00">/serialize.hpp</text>
</a>
</g>
</g>
<!-- Node2 -->
<g id="Node000002" class="node">
<title>Node2</title>
<g id="a_Node000002"><a xlink:title=" ">
<polygon fill="#e0e0e0" stroke="#999999" points="1016.5,-145.5 968.5,-145.5 968.5,-126.5 1016.5,-126.5 1016.5,-145.5"/>
<text text-anchor="middle" x="992.5" y="-133.5" font-family="Helvetica,sans-Serif" font-size="10.00">iosfwd</text>
</a>
</g>
</g>
<!-- Node1&#45;&gt;Node2 -->
<g id="edge1_Node000001_Node000002" class="edge">
<title>Node1&#45;&gt;Node2</title>
<g id="a_edge1_Node000001_Node000002"><a xlink:title=" ">
<path fill="none" stroke="#63b8ff" d="M1159.15,-384.62C1127.39,-355.86 1057.05,-287.89 1017.5,-217 1006.67,-197.59 999.86,-172.86 996.13,-156.07"/>
<polygon fill="#63b8ff" stroke="#63b8ff" points="999.48,-154.97 994.03,-145.88 992.62,-156.38 999.48,-154.97"/>
</a>
</g>
</g>
<!-- Node3 -->
<g id="Node000003" class="node">
<title>Node3</title>
<g id="a_Node000003"><a xlink:href="../../d6/d64/universal_2include_2userver_2formats_2yaml_2value_8hpp.html" target="_top" xlink:title="Non&#45;mutable YAML value representation.">
<polygon fill="white" stroke="#666666" points="1421.5,-349 1299.5,-349 1299.5,-319 1421.5,-319 1421.5,-349"/>
<text text-anchor="start" x="1307.5" y="-337" font-family="Helvetica,sans-Serif" font-size="10.00">userver/formats/yaml</text>
<text text-anchor="middle" x="1360.5" y="-326" font-family="Helvetica,sans-Serif" font-size="10.00">/value.hpp</text>
</a>
</g>
</g>
<!-- Node1&#45;&gt;Node3 -->
<g id="edge2_Node000001_Node000003" class="edge">
<title>Node1&#45;&gt;Node3</title>
<g id="a_edge2_Node000001_Node000003"><a xlink:title=" ">
<path fill="none" stroke="#63b8ff" d="M1216.1,-384.95C1243.81,-375.37 1280.71,-362.6 1310.28,-352.37"/>
<polygon fill="#63b8ff" stroke="#63b8ff" points="1311.69,-355.59 1320,-349.01 1309.4,-348.97 1311.69,-355.59"/>
</a>
</g>
</g>
<!-- Node4 -->
<g id="Node000004" class="node">
<title>Node4</title>
<g id="a_Node000004"><a xlink:title=" ">
<polygon fill="#e0e0e0" stroke="#999999" points="1331,-19 1262,-19 1262,0 1331,0 1331,-19"/>
<text text-anchor="middle" x="1296.5" y="-7" font-family="Helvetica,sans-Serif" font-size="10.00">type_traits</text>
</a>
</g>
</g>
<!-- Node3&#45;&gt;Node4 -->
<g id="edge3_Node000003_Node000004" class="edge">
<title>Node3&#45;&gt;Node4</title>
<g id="a_edge3_Node000003_Node000004"><a xlink:title=" ">
<path fill="none" stroke="#63b8ff" d="M1421.64,-327.55C1586.79,-312.01 2029.5,-264.6 2029.5,-203 2029.5,-203 2029.5,-203 2029.5,-135 2029.5,-64.89 1501.57,-24.11 1341.78,-13.37"/>
<polygon fill="#63b8ff" stroke="#63b8ff" points="1341.57,-9.85 1331.36,-12.68 1341.11,-16.84 1341.57,-9.85"/>
</a>
</g>
</g>
<!-- Node5 -->
<g id="Node000005" class="node">
<title>Node5</title>
<g id="a_Node000005"><a xlink:href="../../dd/d14/items_8hpp.html" target="_top" xlink:title="Wrapper for handy python&#45;like iteration over a map.">
<polygon fill="white" stroke="#666666" points="1526.5,-217 1386.5,-217 1386.5,-187 1526.5,-187 1526.5,-217"/>
<text text-anchor="start" x="1394.5" y="-205" font-family="Helvetica,sans-Serif" font-size="10.00">userver/formats/common</text>
<text text-anchor="middle" x="1456.5" y="-194" font-family="Helvetica,sans-Serif" font-size="10.00">/items.hpp</text>
</a>
</g>
</g>
<!-- Node3&#45;&gt;Node5 -->
<g id="edge4_Node000003_Node000005" class="edge">
<title>Node3&#45;&gt;Node5</title>
<g id="a_edge4_Node000003_Node000005"><a xlink:title=" ">
<path fill="none" stroke="#63b8ff" d="M1388.06,-318.95C1402.52,-310.33 1419.47,-298.06 1430.5,-283 1442.54,-266.57 1449.18,-244.3 1452.73,-227.43"/>
<polygon fill="#63b8ff" stroke="#63b8ff" points="1456.23,-227.71 1454.64,-217.24 1449.35,-226.42 1456.23,-227.71"/>
</a>
</g>
</g>
<!-- Node9 -->
<g id="Node000009" class="node">
<title>Node9</title>
<g id="a_Node000009"><a xlink:href="../../da/d00/universal_2include_2userver_2formats_2common_2meta_8hpp.html" target="_top" xlink:title="Metaprogramming helpers for converters detection.">
<polygon fill="white" stroke="#666666" points="230.5,-217 90.5,-217 90.5,-187 230.5,-187 230.5,-217"/>
<text text-anchor="start" x="98.5" y="-205" font-family="Helvetica,sans-Serif" font-size="10.00">userver/formats/common</text>
<text text-anchor="middle" x="160.5" y="-194" font-family="Helvetica,sans-Serif" font-size="10.00">/meta.hpp</text>
</a>
</g>
</g>
<!-- Node3&#45;&gt;Node9 -->
<g id="edge9_Node000003_Node000009" class="edge">
<title>Node3&#45;&gt;Node9</title>
<g id="a_edge9_Node000003_Node000009"><a xlink:title=" ">
<path fill="none" stroke="#63b8ff" d="M1299.35,-331.76C1166.78,-328.49 843.22,-317.37 574.5,-283 452.51,-267.4 312.35,-237.82 230.39,-219.33"/>
<polygon fill="#63b8ff" stroke="#63b8ff" points="230.97,-215.87 220.45,-217.08 229.43,-222.7 230.97,-215.87"/>
</a>
</g>
</g>
<!-- Node14 -->
<g id="Node000014" class="node">
<title>Node14</title>
<g id="a_Node000014"><a xlink:href="../../d1/deb/universal_2include_2userver_2formats_2parse_2common_8hpp.html" target="_top" xlink:title="Parsers and converters for std::chrono::seconds, std::chrono::system_clock::time_point and integral t...">
<polygon fill="white" stroke="#666666" points="709,-283 584,-283 584,-253 709,-253 709,-283"/>
<text text-anchor="start" x="592" y="-271" font-family="Helvetica,sans-Serif" font-size="10.00">userver/formats/parse</text>
<text text-anchor="middle" x="646.5" y="-260" font-family="Helvetica,sans-Serif" font-size="10.00">/common.hpp</text>
</a>
</g>
</g>
<!-- Node3&#45;&gt;Node14 -->
<g id="edge17_Node000003_Node000014" class="edge">
<title>Node3&#45;&gt;Node14</title>
<g id="a_edge17_Node000003_Node000014"><a xlink:title=" ">
<path fill="none" stroke="#63b8ff" d="M1299.32,-327.52C1168.17,-315.76 860.49,-288.18 719.46,-275.54"/>
<polygon fill="#63b8ff" stroke="#63b8ff" points="719.46,-272.03 709.19,-274.62 718.83,-279 719.46,-272.03"/>
</a>
</g>
</g>
<!-- Node27 -->
<g id="Node000027" class="node">
<title>Node27</title>
<g id="a_Node000027"><a xlink:href="../../d6/db5/universal_2include_2userver_2formats_2yaml_2exception_8hpp.html" target="_top" xlink:title="Exception classes for YAML module.">
<polygon fill="white" stroke="#666666" points="1281.5,-283 1159.5,-283 1159.5,-253 1281.5,-253 1281.5,-283"/>
<text text-anchor="start" x="1167.5" y="-271" font-family="Helvetica,sans-Serif" font-size="10.00">userver/formats/yaml</text>
<text text-anchor="middle" x="1220.5" y="-260" font-family="Helvetica,sans-Serif" font-size="10.00">/exception.hpp</text>
</a>
</g>
</g>
<!-- Node3&#45;&gt;Node27 -->
<g id="edge43_Node000003_Node000027" class="edge">
<title>Node3&#45;&gt;Node27</title>
<g id="a_edge43_Node000003_Node000027"><a xlink:title=" ">
<path fill="none" stroke="#63b8ff" d="M1329.78,-318.95C1309.35,-309.62 1282.33,-297.27 1260.27,-287.18"/>
<polygon fill="#63b8ff" stroke="#63b8ff" points="1261.7,-283.99 1251.15,-283.01 1258.79,-290.35 1261.7,-283.99"/>
</a>
</g>
</g>
<!-- Node28 -->
<g id="Node000028" class="node">
<title>Node28</title>
<g id="a_Node000028"><a xlink:href="../../d5/dda/universal_2include_2userver_2formats_2yaml_2types_8hpp.html" target="_top" xlink:title="Forward declarations of the internal YAML types.">
<polygon fill="white" stroke="#666666" points="1666.5,-217 1544.5,-217 1544.5,-187 1666.5,-187 1666.5,-217"/>
<text text-anchor="start" x="1552.5" y="-205" font-family="Helvetica,sans-Serif" font-size="10.00">userver/formats/yaml</text>
<text text-anchor="middle" x="1605.5" y="-194" font-family="Helvetica,sans-Serif" font-size="10.00">/types.hpp</text>
</a>
</g>
</g>
<!-- Node3&#45;&gt;Node28 -->
<g id="edge64_Node000003_Node000028" class="edge">
<title>Node3&#45;&gt;Node28</title>
<g id="a_edge64_Node000003_Node000028"><a xlink:title=" ">
<path fill="none" stroke="#63b8ff" d="M1387.19,-318.84C1431.46,-295.35 1520.13,-248.3 1569.76,-221.96"/>
<polygon fill="#63b8ff" stroke="#63b8ff" points="1571.65,-224.92 1578.85,-217.14 1568.37,-218.74 1571.65,-224.92"/>
</a>
</g>
</g>
<!-- Node32 -->
<g id="Node000032" class="node">
<title>Node32</title>
<g id="a_Node000032"><a xlink:href="../../d7/dbc/universal_2include_2userver_2formats_2yaml_2iterator_8hpp.html" target="_top" xlink:title="Iterator for formats::yaml::Value">
<polygon fill="white" stroke="#666666" points="1421.5,-283 1299.5,-283 1299.5,-253 1421.5,-253 1421.5,-283"/>
<text text-anchor="start" x="1307.5" y="-271" font-family="Helvetica,sans-Serif" font-size="10.00">userver/formats/yaml</text>
<text text-anchor="middle" x="1360.5" y="-260" font-family="Helvetica,sans-Serif" font-size="10.00">/iterator.hpp</text>
</a>
</g>
</g>
<!-- Node3&#45;&gt;Node32 -->
<g id="edge54_Node000003_Node000032" class="edge">
<title>Node3&#45;&gt;Node32</title>
<g id="a_edge54_Node000003_Node000032"><a xlink:title=" ">
<path fill="none" stroke="#63b8ff" d="M1360.5,-318.8C1360.5,-311.34 1360.5,-301.99 1360.5,-293.41"/>
<polygon fill="#63b8ff" stroke="#63b8ff" points="1364,-293.16 1360.5,-283.16 1357,-293.16 1364,-293.16"/>
</a>
</g>
</g>
<!-- Node33 -->
<g id="Node000033" class="node">
<title>Node33</title>
<g id="a_Node000033"><a xlink:href="../../d5/d02/fast__pimpl_8hpp.html" target="_top" xlink:title="Implements pimpl idiom without dynamic memory allocation.">
<polygon fill="white" stroke="#666666" points="1894,-217 1795,-217 1795,-187 1894,-187 1894,-217"/>
<text text-anchor="start" x="1803" y="-205" font-family="Helvetica,sans-Serif" font-size="10.00">userver/utils/fast</text>
<text text-anchor="middle" x="1844.5" y="-194" font-family="Helvetica,sans-Serif" font-size="10.00">_pimpl.hpp</text>
</a>
</g>
</g>
<!-- Node3&#45;&gt;Node33 -->
<g id="edge65_Node000003_Node000033" class="edge">
<title>Node3&#45;&gt;Node33</title>
<g id="a_edge65_Node000003_Node000033"><a xlink:title=" ">
<path fill="none" stroke="#63b8ff" d="M1412.76,-318.96C1503.53,-294.58 1689.75,-244.56 1785.21,-218.92"/>
<polygon fill="#63b8ff" stroke="#63b8ff" points="1786.25,-222.27 1795,-216.3 1784.43,-215.51 1786.25,-222.27"/>
</a>
</g>
</g>
<!-- Node5&#45;&gt;Node4 -->
<g id="edge8_Node000005_Node000004" class="edge">
<title>Node5&#45;&gt;Node4</title>
<g id="a_edge8_Node000005_Node000004"><a xlink:title=" ">
<path fill="none" stroke="#63b8ff" d="M1444.73,-186.99C1415.87,-152.63 1341.65,-64.26 1310.55,-27.22"/>
<polygon fill="#63b8ff" stroke="#63b8ff" points="1313.05,-24.77 1303.94,-19.36 1307.69,-29.27 1313.05,-24.77"/>
</a>
</g>
</g>
<!-- Node6 -->
<g id="Node000006" class="node">
<title>Node6</title>
<g id="a_Node000006"><a xlink:title=" ">
<polygon fill="#e0e0e0" stroke="#999999" points="1844,-145.5 1791,-145.5 1791,-126.5 1844,-126.5 1844,-145.5"/>
<text text-anchor="middle" x="1817.5" y="-133.5" font-family="Helvetica,sans-Serif" font-size="10.00">cstddef</text>
</a>
</g>
</g>
<!-- Node5&#45;&gt;Node6 -->
<g id="edge5_Node000005_Node000006" class="edge">
<title>Node5&#45;&gt;Node6</title>
<g id="a_edge5_Node000005_Node000006"><a xlink:title=" ">
<path fill="none" stroke="#63b8ff" d="M1526.69,-188.45C1529.67,-187.95 1532.61,-187.47 1535.5,-187 1644.58,-169.36 1674.66,-179.2 1781.5,-151 1783.8,-150.39 1786.15,-149.69 1788.5,-148.92"/>
<polygon fill="#63b8ff" stroke="#63b8ff" points="1789.73,-152.19 1797.96,-145.52 1787.37,-145.61 1789.73,-152.19"/>
</a>
</g>
</g>
<!-- Node7 -->
<g id="Node000007" class="node">
<title>Node7</title>
<g id="a_Node000007"><a xlink:title=" ">
<polygon fill="#e0e0e0" stroke="#999999" points="1304,-145.5 1251,-145.5 1251,-126.5 1304,-126.5 1304,-145.5"/>
<text text-anchor="middle" x="1277.5" y="-133.5" font-family="Helvetica,sans-Serif" font-size="10.00">iterator</text>
</a>
</g>
</g>
<!-- Node5&#45;&gt;Node7 -->
<g id="edge6_Node000005_Node000007" class="edge">
<title>Node5&#45;&gt;Node7</title>
<g id="a_edge6_Node000005_Node000007"><a xlink:title=" ">
<path fill="none" stroke="#63b8ff" d="M1417.22,-186.95C1385.41,-175.58 1341.09,-159.74 1310.96,-148.96"/>
<polygon fill="#63b8ff" stroke="#63b8ff" points="1311.92,-145.59 1301.32,-145.52 1309.56,-152.18 1311.92,-145.59"/>
</a>
</g>
</g>
<!-- Node8 -->
<g id="Node000008" class="node">
<title>Node8</title>
<g id="a_Node000008"><a xlink:title=" ">
<polygon fill="#e0e0e0" stroke="#999999" points="1194.5,-79.5 1150.5,-79.5 1150.5,-60.5 1194.5,-60.5 1194.5,-79.5"/>
<text text-anchor="middle" x="1172.5" y="-67.5" font-family="Helvetica,sans-Serif" font-size="10.00">string</text>
</a>
</g>
</g>
<!-- Node5&#45;&gt;Node8 -->
<g id="edge7_Node000005_Node000008" class="edge">
<title>Node5&#45;&gt;Node8</title>
<g id="a_edge7_Node000005_Node000008"><a xlink:title=" ">
<path fill="none" stroke="#63b8ff" d="M1425.25,-186.81C1405.21,-177.37 1378.86,-164.29 1356.5,-151 1336.47,-139.09 1334.22,-131.66 1313.5,-121 1277.76,-102.62 1233.7,-88.19 1204.45,-79.65"/>
<polygon fill="#63b8ff" stroke="#63b8ff" points="1205.33,-76.26 1194.75,-76.88 1203.41,-82.99 1205.33,-76.26"/>
</a>
</g>
</g>
<!-- Node9&#45;&gt;Node4 -->
<g id="edge10_Node000009_Node000004" class="edge">
<title>Node9&#45;&gt;Node4</title>
<g id="a_edge10_Node000009_Node000004"><a xlink:title=" ">
<path fill="none" stroke="#63b8ff" d="M160.71,-186.88C161.8,-168.59 166.67,-137.12 186.5,-121 270.51,-52.7 1054.74,-19.41 1251.76,-12.08"/>
<polygon fill="#63b8ff" stroke="#63b8ff" points="1251.9,-15.58 1261.76,-11.71 1251.64,-8.58 1251.9,-15.58"/>
</a>
</g>
</g>
<!-- Node10 -->
<g id="Node000010" class="node">
<title>Node10</title>
<g id="a_Node000010"><a xlink:href="../../d2/dc8/universal_2include_2userver_2formats_2parse_2to_8hpp.html" target="_top" xlink:title="Helper for parsers.">
<polygon fill="white" stroke="#666666" points="321,-151 196,-151 196,-121 321,-121 321,-151"/>
<text text-anchor="start" x="204" y="-139" font-family="Helvetica,sans-Serif" font-size="10.00">userver/formats/parse</text>
<text text-anchor="middle" x="258.5" y="-128" font-family="Helvetica,sans-Serif" font-size="10.00">/to.hpp</text>
</a>
</g>
</g>
<!-- Node9&#45;&gt;Node10 -->
<g id="edge11_Node000009_Node000010" class="edge">
<title>Node9&#45;&gt;Node10</title>
<g id="a_edge11_Node000009_Node000010"><a xlink:title=" ">
<path fill="none" stroke="#63b8ff" d="M182.25,-186.8C195.83,-177.93 213.49,-166.39 228.4,-156.66"/>
<polygon fill="#63b8ff" stroke="#63b8ff" points="230.35,-159.56 236.81,-151.16 226.52,-153.7 230.35,-159.56"/>
</a>
</g>
</g>
<!-- Node11 -->
<g id="Node000011" class="node">
<title>Node11</title>
<g id="a_Node000011"><a xlink:href="../../d6/d8e/universal_2include_2userver_2formats_2serialize_2to_8hpp.html" target="_top" xlink:title="Helper for serializers.">
<polygon fill="white" stroke="#666666" points="139,-151 0,-151 0,-121 139,-121 139,-151"/>
<text text-anchor="start" x="8" y="-139" font-family="Helvetica,sans-Serif" font-size="10.00">userver/formats/serialize</text>
<text text-anchor="middle" x="69.5" y="-128" font-family="Helvetica,sans-Serif" font-size="10.00">/to.hpp</text>
</a>
</g>
</g>
<!-- Node9&#45;&gt;Node11 -->
<g id="edge12_Node000009_Node000011" class="edge">
<title>Node9&#45;&gt;Node11</title>
<g id="a_edge12_Node000009_Node000011"><a xlink:title=" ">
<path fill="none" stroke="#63b8ff" d="M140.3,-186.8C127.82,-178.01 111.6,-166.61 97.84,-156.93"/>
<polygon fill="#63b8ff" stroke="#63b8ff" points="99.83,-154.05 89.64,-151.16 95.81,-159.78 99.83,-154.05"/>
</a>
</g>
</g>
<!-- Node12 -->
<g id="Node000012" class="node">
<title>Node12</title>
<g id="a_Node000012"><a xlink:href="../../d3/da0/meta__light_8hpp.html" target="_top" xlink:title="Lightweight concepts.">
<polygon fill="white" stroke="#666666" points="566.5,-151 460.5,-151 460.5,-121 566.5,-121 566.5,-151"/>
<text text-anchor="start" x="468.5" y="-139" font-family="Helvetica,sans-Serif" font-size="10.00">userver/utils/meta</text>
<text text-anchor="middle" x="513.5" y="-128" font-family="Helvetica,sans-Serif" font-size="10.00">_light.hpp</text>
</a>
</g>
</g>
<!-- Node9&#45;&gt;Node12 -->
<g id="edge13_Node000009_Node000012" class="edge">
<title>Node9&#45;&gt;Node12</title>
<g id="a_edge13_Node000009_Node000012"><a xlink:title=" ">
<path fill="none" stroke="#63b8ff" d="M230.66,-188.28C294.75,-176.66 388.67,-159.63 450.43,-148.43"/>
<polygon fill="#63b8ff" stroke="#63b8ff" points="451.22,-151.85 460.44,-146.62 449.97,-144.96 451.22,-151.85"/>
</a>
</g>
</g>
<!-- Node12&#45;&gt;Node4 -->
<g id="edge14_Node000012_Node000004" class="edge">
<title>Node12&#45;&gt;Node4</title>
<g id="a_edge14_Node000012_Node000004"><a xlink:title=" ">
<path fill="none" stroke="#63b8ff" d="M566.84,-123.59C571.46,-122.68 576.06,-121.81 580.5,-121 833.42,-75.09 1138.83,-32.06 1251.74,-16.57"/>
<polygon fill="#63b8ff" stroke="#63b8ff" points="1252.31,-20.02 1261.74,-15.2 1251.36,-13.09 1252.31,-20.02"/>
</a>
</g>
</g>
<!-- Node13 -->
<g id="Node000013" class="node">
<title>Node13</title>
<g id="a_Node000013"><a xlink:href="../../d9/dce/void__t_8hpp.html" target="_top" xlink:title="std::void_t implementation with workarounds for compiler bugs">
<polygon fill="white" stroke="#666666" points="1132,-85 1031,-85 1031,-55 1132,-55 1132,-85"/>
<text text-anchor="start" x="1039" y="-73" font-family="Helvetica,sans-Serif" font-size="10.00">userver/utils/void</text>
<text text-anchor="middle" x="1081.5" y="-62" font-family="Helvetica,sans-Serif" font-size="10.00">_t.hpp</text>
</a>
</g>
</g>
<!-- Node12&#45;&gt;Node13 -->
<g id="edge15_Node000012_Node000013" class="edge">
<title>Node12&#45;&gt;Node13</title>
<g id="a_edge15_Node000012_Node000013"><a xlink:title=" ">
<path fill="none" stroke="#63b8ff" d="M566.8,-123.33C571.42,-122.48 576.04,-121.69 580.5,-121 738.3,-96.71 925.96,-81.63 1020.55,-74.98"/>
<polygon fill="#63b8ff" stroke="#63b8ff" points="1021.05,-78.45 1030.79,-74.27 1020.57,-71.47 1021.05,-78.45"/>
</a>
</g>
</g>
<!-- Node13&#45;&gt;Node4 -->
<g id="edge16_Node000013_Node000004" class="edge">
<title>Node13&#45;&gt;Node4</title>
<g id="a_edge16_Node000013_Node000004"><a xlink:title=" ">
<path fill="none" stroke="#63b8ff" d="M1132.18,-55.21C1169.69,-45 1220.16,-31.27 1255.23,-21.73"/>
<polygon fill="#63b8ff" stroke="#63b8ff" points="1256.4,-25.04 1265.13,-19.03 1254.57,-18.28 1256.4,-25.04"/>
</a>
</g>
</g>
<!-- Node14&#45;&gt;Node9 -->
<g id="edge22_Node000014_Node000009" class="edge">
<title>Node14&#45;&gt;Node9</title>
<g id="a_edge22_Node000014_Node000009"><a xlink:title=" ">
<path fill="none" stroke="#63b8ff" d="M583.72,-260.01C504.53,-251 364.21,-234.41 244.5,-217 243.22,-216.81 241.94,-216.63 240.64,-216.43"/>
<polygon fill="#63b8ff" stroke="#63b8ff" points="241,-212.95 230.59,-214.9 239.95,-219.87 241,-212.95"/>
</a>
</g>
</g>
<!-- Node14&#45;&gt;Node10 -->
<g id="edge23_Node000014_Node000010" class="edge">
<title>Node14&#45;&gt;Node10</title>
<g id="a_edge23_Node000014_Node000010"><a xlink:title=" ">
<path fill="none" stroke="#63b8ff" d="M583.91,-266.8C490.6,-265.18 321.28,-256.66 277.5,-217 262.18,-203.12 258.12,-179.36 257.47,-161.32"/>
<polygon fill="#63b8ff" stroke="#63b8ff" points="260.97,-161.22 257.43,-151.23 253.97,-161.24 260.97,-161.22"/>
</a>
</g>
</g>
<!-- Node15 -->
<g id="Node000015" class="node">
<title>Node15</title>
<g id="a_Node000015"><a xlink:title=" ">
<polygon fill="#e0e0e0" stroke="#999999" points="672.5,-145.5 622.5,-145.5 622.5,-126.5 672.5,-126.5 672.5,-145.5"/>
<text text-anchor="middle" x="647.5" y="-133.5" font-family="Helvetica,sans-Serif" font-size="10.00">chrono</text>
</a>
</g>
</g>
<!-- Node14&#45;&gt;Node15 -->
<g id="edge18_Node000014_Node000015" class="edge">
<title>Node14&#45;&gt;Node15</title>
<g id="a_edge18_Node000014_Node000015"><a xlink:title=" ">
<path fill="none" stroke="#63b8ff" d="M583.99,-258.74C526.82,-248.49 455.37,-227.22 485.5,-187 519.65,-141.42 554.34,-168.63 608.5,-151 610.61,-150.31 612.78,-149.59 614.96,-148.84"/>
<polygon fill="#63b8ff" stroke="#63b8ff" points="616.19,-152.12 624.48,-145.52 613.89,-145.51 616.19,-152.12"/>
</a>
</g>
</g>
<!-- Node16 -->
<g id="Node000016" class="node">
<title>Node16</title>
<g id="a_Node000016"><a xlink:title=" ">
<polygon fill="#e0e0e0" stroke="#999999" points="1254.5,-211.5 1204.5,-211.5 1204.5,-192.5 1254.5,-192.5 1254.5,-211.5"/>
<text text-anchor="middle" x="1229.5" y="-199.5" font-family="Helvetica,sans-Serif" font-size="10.00">cstdint</text>
</a>
</g>
</g>
<!-- Node14&#45;&gt;Node16 -->
<g id="edge19_Node000014_Node000016" class="edge">
<title>Node14&#45;&gt;Node16</title>
<g id="a_edge19_Node000014_Node000016"><a xlink:title=" ">
<path fill="none" stroke="#63b8ff" d="M709.25,-267.34C812.28,-266.56 1023.08,-259.32 1195.5,-217 1197.67,-216.47 1199.87,-215.82 1202.07,-215.1"/>
<polygon fill="#63b8ff" stroke="#63b8ff" points="1203.34,-218.36 1211.49,-211.59 1200.89,-211.8 1203.34,-218.36"/>
</a>
</g>
</g>
<!-- Node17 -->
<g id="Node000017" class="node">
<title>Node17</title>
<g id="a_Node000017"><a xlink:title=" ">
<polygon fill="#e0e0e0" stroke="#999999" points="926.5,-211.5 882.5,-211.5 882.5,-192.5 926.5,-192.5 926.5,-211.5"/>
<text text-anchor="middle" x="904.5" y="-199.5" font-family="Helvetica,sans-Serif" font-size="10.00">limits</text>
</a>
</g>
</g>
<!-- Node14&#45;&gt;Node17 -->
<g id="edge20_Node000014_Node000017" class="edge">
<title>Node14&#45;&gt;Node17</title>
<g id="a_edge20_Node000014_Node000017"><a xlink:title=" ">
<path fill="none" stroke="#63b8ff" d="M709.1,-256.82C755.22,-248.46 819.11,-235.05 873.5,-217 874.9,-216.53 876.32,-216.03 877.75,-215.49"/>
<polygon fill="#63b8ff" stroke="#63b8ff" points="879.15,-218.7 887.05,-211.64 876.47,-212.23 879.15,-218.7"/>
</a>
</g>
</g>
<!-- Node18 -->
<g id="Node000018" class="node">
<title>Node18</title>
<g id="a_Node000018"><a xlink:title=" ">
<polygon fill="#e0e0e0" stroke="#999999" points="574,-211.5 495,-211.5 495,-192.5 574,-192.5 574,-211.5"/>
<text text-anchor="middle" x="534.5" y="-199.5" font-family="Helvetica,sans-Serif" font-size="10.00">fmt/format.h</text>
</a>
</g>
</g>
<!-- Node14&#45;&gt;Node18 -->
<g id="edge21_Node000014_Node000018" class="edge">
<title>Node14&#45;&gt;Node18</title>
<g id="a_edge21_Node000014_Node000018"><a xlink:title=" ">
<path fill="none" stroke="#63b8ff" d="M621.92,-252.95C602.97,-242.13 576.92,-227.24 558.2,-216.54"/>
<polygon fill="#63b8ff" stroke="#63b8ff" points="559.82,-213.44 549.41,-211.52 556.35,-219.52 559.82,-213.44"/>
</a>
</g>
</g>
<!-- Node19 -->
<g id="Node000019" class="node">
<title>Node19</title>
<g id="a_Node000019"><a xlink:href="../../d7/d4a/datetime_8hpp.html" target="_top" xlink:title="Date and Time related converters.">
<polygon fill="white" stroke="#666666" points="864.5,-211.5 718.5,-211.5 718.5,-192.5 864.5,-192.5 864.5,-211.5"/>
<text text-anchor="middle" x="791.5" y="-199.5" font-family="Helvetica,sans-Serif" font-size="10.00">userver/utils/datetime.hpp</text>
</a>
</g>
</g>
<!-- Node14&#45;&gt;Node19 -->
<g id="edge24_Node000014_Node000019" class="edge">
<title>Node14&#45;&gt;Node19</title>
<g id="a_edge24_Node000014_Node000019"><a xlink:title=" ">
<path fill="none" stroke="#63b8ff" d="M678.32,-252.95C703.53,-241.83 738.43,-226.42 762.79,-215.67"/>
<polygon fill="#63b8ff" stroke="#63b8ff" points="764.47,-218.76 772.2,-211.52 761.64,-212.35 764.47,-218.76"/>
</a>
</g>
</g>
<!-- Node23 -->
<g id="Node000023" class="node">
<title>Node23</title>
<g id="a_Node000023"><a xlink:href="../../dd/d10/from__string__saturating_8hpp.html" target="_top" xlink:title="Saturating converters from strings to time points.">
<polygon fill="white" stroke="#666666" points="438.5,-217 286.5,-217 286.5,-187 438.5,-187 438.5,-217"/>
<text text-anchor="start" x="294.5" y="-205" font-family="Helvetica,sans-Serif" font-size="10.00">userver/utils/datetime</text>
<text text-anchor="middle" x="362.5" y="-194" font-family="Helvetica,sans-Serif" font-size="10.00">/from_string_saturating.hpp</text>
</a>
</g>
</g>
<!-- Node14&#45;&gt;Node23 -->
<g id="edge30_Node000014_Node000023" class="edge">
<title>Node14&#45;&gt;Node23</title>
<g id="a_edge30_Node000014_Node000023"><a xlink:title=" ">
<path fill="none" stroke="#63b8ff" d="M584.17,-252.95C540.06,-243.01 480.78,-229.65 434.62,-219.25"/>
<polygon fill="#63b8ff" stroke="#63b8ff" points="435.2,-215.8 424.68,-217.01 433.67,-222.63 435.2,-215.8"/>
</a>
</g>
</g>
<!-- Node24 -->
<g id="Node000024" class="node">
<title>Node24</title>
<g id="a_Node000024"><a xlink:href="../../d0/d03/universal_2include_2userver_2utils_2meta_8hpp.html" target="_top" xlink:title="Metaprogramming, template variables and concepts.">
<polygon fill="white" stroke="#666666" points="1186,-211.5 1059,-211.5 1059,-192.5 1186,-192.5 1186,-211.5"/>
<text text-anchor="middle" x="1122.5" y="-199.5" font-family="Helvetica,sans-Serif" font-size="10.00">userver/utils/meta.hpp</text>
</a>
</g>
</g>
<!-- Node14&#45;&gt;Node24 -->
<g id="edge33_Node000014_Node000024" class="edge">
<title>Node14&#45;&gt;Node24</title>
<g id="a_edge33_Node000014_Node000024"><a xlink:title=" ">
<path fill="none" stroke="#63b8ff" d="M709.22,-258.57C796.94,-246.77 955.94,-225.39 1049.07,-212.87"/>
<polygon fill="#63b8ff" stroke="#63b8ff" points="1049.82,-216.3 1059.26,-211.5 1048.89,-209.37 1049.82,-216.3"/>
</a>
</g>
</g>
<!-- Node26 -->
<g id="Node000026" class="node">
<title>Node26</title>
<g id="a_Node000026"><a xlink:href="../../dc/dff/string__to__duration_8hpp.html" target="_top" xlink:title="Converts strings like &quot;10s&quot;, &quot;5d&quot;, &quot;1h&quot; to durations.">
<polygon fill="white" stroke="#666666" points="700.5,-217 592.5,-217 592.5,-187 700.5,-187 700.5,-217"/>
<text text-anchor="start" x="600.5" y="-205" font-family="Helvetica,sans-Serif" font-size="10.00">userver/utils/string</text>
<text text-anchor="middle" x="646.5" y="-194" font-family="Helvetica,sans-Serif" font-size="10.00">_to_duration.hpp</text>
</a>
</g>
</g>
<!-- Node14&#45;&gt;Node26 -->
<g id="edge40_Node000014_Node000026" class="edge">
<title>Node14&#45;&gt;Node26</title>
<g id="a_edge40_Node000014_Node000026"><a xlink:title=" ">
<path fill="none" stroke="#63b8ff" d="M646.5,-252.8C646.5,-245.34 646.5,-235.99 646.5,-227.41"/>
<polygon fill="#63b8ff" stroke="#63b8ff" points="650,-227.16 646.5,-217.16 643,-227.16 650,-227.16"/>
</a>
</g>
</g>
<!-- Node19&#45;&gt;Node8 -->
<g id="edge28_Node000019_Node000008" class="edge">
<title>Node19&#45;&gt;Node8</title>
<g id="a_edge28_Node000019_Node000008"><a xlink:title=" ">
<path fill="none" stroke="#63b8ff" d="M799.3,-192.44C816.62,-173.65 858.21,-129.72 876.5,-121 983.78,-69.83 1027.26,-117.8 1141.5,-85 1143.14,-84.53 1144.8,-83.99 1146.46,-83.39"/>
<polygon fill="#63b8ff" stroke="#63b8ff" points="1147.83,-86.62 1155.78,-79.61 1145.2,-80.13 1147.83,-86.62"/>
</a>
</g>
</g>
<!-- Node19&#45;&gt;Node15 -->
<g id="edge25_Node000019_Node000015" class="edge">
<title>Node19&#45;&gt;Node15</title>
<g id="a_edge25_Node000019_Node000015"><a xlink:title=" ">
<path fill="none" stroke="#63b8ff" d="M772.08,-192.37C747.49,-181.44 704.93,-162.52 676.49,-149.88"/>
<polygon fill="#63b8ff" stroke="#63b8ff" points="677.63,-146.56 667.07,-145.7 674.79,-152.96 677.63,-146.56"/>
</a>
</g>
</g>
<!-- Node20 -->
<g id="Node000020" class="node">
<title>Node20</title>
<g id="a_Node000020"><a xlink:title=" ">
<polygon fill="#e0e0e0" stroke="#999999" points="1156.5,-145.5 1100.5,-145.5 1100.5,-126.5 1156.5,-126.5 1156.5,-145.5"/>
<text text-anchor="middle" x="1128.5" y="-133.5" font-family="Helvetica,sans-Serif" font-size="10.00">optional</text>
</a>
</g>
</g>
<!-- Node19&#45;&gt;Node20 -->
<g id="edge26_Node000019_Node000020" class="edge">
<title>Node19&#45;&gt;Node20</title>
<g id="a_edge26_Node000019_Node000020"><a xlink:title=" ">
<path fill="none" stroke="#63b8ff" d="M841.36,-192.44C851.97,-190.63 863.1,-188.75 873.5,-187 970.35,-170.74 996.67,-176.5 1091.5,-151 1093.79,-150.38 1096.14,-149.68 1098.49,-148.92"/>
<polygon fill="#63b8ff" stroke="#63b8ff" points="1099.72,-152.2 1107.99,-145.58 1097.4,-145.59 1099.72,-152.2"/>
</a>
</g>
</g>
<!-- Node21 -->
<g id="Node000021" class="node">
<title>Node21</title>
<g id="a_Node000021"><a xlink:title=" ">
<polygon fill="#e0e0e0" stroke="#999999" points="950,-145.5 885,-145.5 885,-126.5 950,-126.5 950,-145.5"/>
<text text-anchor="middle" x="917.5" y="-133.5" font-family="Helvetica,sans-Serif" font-size="10.00">stdexcept</text>
</a>
</g>
</g>
<!-- Node19&#45;&gt;Node21 -->
<g id="edge27_Node000019_Node000021" class="edge">
<title>Node19&#45;&gt;Node21</title>
<g id="a_edge27_Node000019_Node000021"><a xlink:title=" ">
<path fill="none" stroke="#63b8ff" d="M808.49,-192.37C829.72,-181.59 866.28,-163.02 891.15,-150.38"/>
<polygon fill="#63b8ff" stroke="#63b8ff" points="893.04,-153.35 900.37,-145.7 889.87,-147.11 893.04,-153.35"/>
</a>
</g>
</g>
<!-- Node22 -->
<g id="Node000022" class="node">
<title>Node22</title>
<g id="a_Node000022"><a xlink:title=" ">
<polygon fill="#e0e0e0" stroke="#999999" points="828.5,-145.5 732.5,-145.5 732.5,-126.5 828.5,-126.5 828.5,-145.5"/>
<text text-anchor="middle" x="780.5" y="-133.5" font-family="Helvetica,sans-Serif" font-size="10.00">cctz/civil_time.h</text>
</a>
</g>
</g>
<!-- Node19&#45;&gt;Node22 -->
<g id="edge29_Node000019_Node000022" class="edge">
<title>Node19&#45;&gt;Node22</title>
<g id="a_edge29_Node000019_Node000022"><a xlink:title=" ">
<path fill="none" stroke="#63b8ff" d="M790.02,-192.37C788.42,-183.07 785.82,-167.98 783.75,-155.9"/>
<polygon fill="#63b8ff" stroke="#63b8ff" points="787.17,-155.17 782.03,-145.91 780.28,-156.35 787.17,-155.17"/>
</a>
</g>
</g>
<!-- Node23&#45;&gt;Node8 -->
<g id="edge32_Node000023_Node000008" class="edge">
<title>Node23&#45;&gt;Node8</title>
<g id="a_edge32_Node000023_Node000008"><a xlink:title=" ">
<path fill="none" stroke="#63b8ff" d="M438.65,-191.41C480.53,-184.13 532.56,-171.71 575.5,-151 594.88,-141.65 593.42,-128.74 613.5,-121 832.95,-36.34 913.38,-142.31 1141.5,-85 1143.23,-84.56 1144.99,-84.04 1146.74,-83.44"/>
<polygon fill="#63b8ff" stroke="#63b8ff" points="1148.5,-86.51 1156.48,-79.54 1145.9,-80.01 1148.5,-86.51"/>
</a>
</g>
</g>
<!-- Node23&#45;&gt;Node15 -->
<g id="edge31_Node000023_Node000015" class="edge">
<title>Node23&#45;&gt;Node15</title>
<g id="a_edge31_Node000023_Node000015"><a xlink:title=" ">
<path fill="none" stroke="#63b8ff" d="M438.54,-188.47C487.49,-179.68 552.26,-166.72 608.5,-151 610.92,-150.32 613.42,-149.57 615.91,-148.77"/>
<polygon fill="#63b8ff" stroke="#63b8ff" points="617.06,-152.08 625.4,-145.56 614.81,-145.45 617.06,-152.08"/>
</a>
</g>
</g>
<!-- Node24&#45;&gt;Node2 -->
<g id="edge34_Node000024_Node000002" class="edge">
<title>Node24&#45;&gt;Node2</title>
<g id="a_edge34_Node000024_Node000002"><a xlink:title=" ">
<path fill="none" stroke="#63b8ff" d="M1104.97,-192.37C1082.97,-181.54 1045.01,-162.85 1019.35,-150.22"/>
<polygon fill="#63b8ff" stroke="#63b8ff" points="1020.69,-146.98 1010.17,-145.7 1017.6,-153.26 1020.69,-146.98"/>
</a>
</g>
</g>
<!-- Node24&#45;&gt;Node4 -->
<g id="edge37_Node000024_Node000004" class="edge">
<title>Node24&#45;&gt;Node4</title>
<g id="a_edge37_Node000024_Node000004"><a xlink:title=" ">
<path fill="none" stroke="#63b8ff" d="M1130.43,-192.32C1157.38,-162.82 1245.74,-66.07 1281.39,-27.04"/>
<polygon fill="#63b8ff" stroke="#63b8ff" points="1284.37,-28.98 1288.52,-19.23 1279.2,-24.25 1284.37,-28.98"/>
</a>
</g>
</g>
<!-- Node24&#45;&gt;Node7 -->
<g id="edge35_Node000024_Node000007" class="edge">
<title>Node24&#45;&gt;Node7</title>
<g id="a_edge35_Node000024_Node000007"><a xlink:title=" ">
<path fill="none" stroke="#63b8ff" d="M1143.4,-192.37C1170.1,-181.35 1216.49,-162.19 1247.09,-149.55"/>
<polygon fill="#63b8ff" stroke="#63b8ff" points="1248.52,-152.75 1256.43,-145.7 1245.85,-146.28 1248.52,-152.75"/>
</a>
</g>
</g>
<!-- Node24&#45;&gt;Node12 -->
<g id="edge39_Node000024_Node000012" class="edge">
<title>Node24&#45;&gt;Node12</title>
<g id="a_edge39_Node000024_Node000012"><a xlink:title=" ">
<path fill="none" stroke="#63b8ff" d="M1058.93,-195.6C962.5,-187.22 773.53,-170.05 613.5,-151 601.6,-149.58 588.93,-147.92 576.74,-146.25"/>
<polygon fill="#63b8ff" stroke="#63b8ff" points="577.03,-142.76 566.64,-144.85 576.07,-149.7 577.03,-142.76"/>
</a>
</g>
</g>
<!-- Node24&#45;&gt;Node20 -->
<g id="edge36_Node000024_Node000020" class="edge">
<title>Node24&#45;&gt;Node20</title>
<g id="a_edge36_Node000024_Node000020"><a xlink:title=" ">
<path fill="none" stroke="#63b8ff" d="M1123.31,-192.37C1124.18,-183.07 1125.6,-167.98 1126.73,-155.9"/>
<polygon fill="#63b8ff" stroke="#63b8ff" points="1130.22,-156.19 1127.67,-145.91 1123.25,-155.53 1130.22,-156.19"/>
</a>
</g>
</g>
<!-- Node25 -->
<g id="Node000025" class="node">
<title>Node25</title>
<g id="a_Node000025"><a xlink:title=" ">
<polygon fill="#e0e0e0" stroke="#999999" points="1082,-145.5 1035,-145.5 1035,-126.5 1082,-126.5 1082,-145.5"/>
<text text-anchor="middle" x="1058.5" y="-133.5" font-family="Helvetica,sans-Serif" font-size="10.00">vector</text>
</a>
</g>
</g>
<!-- Node24&#45;&gt;Node25 -->
<g id="edge38_Node000024_Node000025" class="edge">
<title>Node24&#45;&gt;Node25</title>
<g id="a_edge38_Node000024_Node000025"><a xlink:title=" ">
<path fill="none" stroke="#63b8ff" d="M1113.87,-192.37C1103.81,-182.31 1086.98,-165.48 1074.51,-153.01"/>
<polygon fill="#63b8ff" stroke="#63b8ff" points="1076.95,-150.5 1067.41,-145.91 1072,-155.45 1076.95,-150.5"/>
</a>
</g>
</g>
<!-- Node26&#45;&gt;Node8 -->
<g id="edge42_Node000026_Node000008" class="edge">
<title>Node26&#45;&gt;Node8</title>
<g id="a_edge42_Node000026_Node000008"><a xlink:title=" ">
<path fill="none" stroke="#63b8ff" d="M655.39,-186.73C667.97,-167.94 692.88,-135.61 723.5,-121 891.79,-40.7 961.07,-132.04 1141.5,-85 1143.19,-84.56 1144.9,-84.03 1146.61,-83.45"/>
<polygon fill="#63b8ff" stroke="#63b8ff" points="1148.17,-86.6 1156.15,-79.63 1145.56,-80.1 1148.17,-86.6"/>
</a>
</g>
</g>
<!-- Node26&#45;&gt;Node15 -->
<g id="edge41_Node000026_Node000015" class="edge">
<title>Node26&#45;&gt;Node15</title>
<g id="a_edge41_Node000026_Node000015"><a xlink:title=" ">
<path fill="none" stroke="#63b8ff" d="M646.72,-186.8C646.86,-177.7 647.05,-165.79 647.2,-155.9"/>
<polygon fill="#63b8ff" stroke="#63b8ff" points="650.71,-155.9 647.36,-145.84 643.71,-155.79 650.71,-155.9"/>
</a>
</g>
</g>
<!-- Node27&#45;&gt;Node2 -->
<g id="edge44_Node000027_Node000002" class="edge">
<title>Node27&#45;&gt;Node2</title>
<g id="a_edge44_Node000027_Node000002"><a xlink:title=" ">
<path fill="none" stroke="#63b8ff" d="M1159.22,-258.95C1124.84,-252.11 1082.54,-239.62 1050.5,-217 1027.8,-200.97 1010.6,-173.19 1001.03,-154.95"/>
<polygon fill="#63b8ff" stroke="#63b8ff" points="1004.13,-153.31 996.52,-145.94 997.87,-156.45 1004.13,-153.31"/>
</a>
</g>
</g>
<!-- Node27&#45;&gt;Node8 -->
<g id="edge46_Node000027_Node000008" class="edge">
<title>Node27&#45;&gt;Node8</title>
<g id="a_edge46_Node000027_Node000008"><a xlink:title=" ">
<path fill="none" stroke="#63b8ff" d="M1237.73,-252.73C1247.32,-243.63 1258.32,-230.96 1263.5,-217 1268.14,-204.5 1267.85,-199.6 1263.5,-187 1255.73,-164.51 1211.27,-113.52 1187.49,-87.28"/>
<polygon fill="#63b8ff" stroke="#63b8ff" points="1189.9,-84.72 1180.57,-79.69 1184.73,-89.44 1189.9,-84.72"/>
</a>
</g>
</g>
<!-- Node27&#45;&gt;Node21 -->
<g id="edge45_Node000027_Node000021" class="edge">
<title>Node27&#45;&gt;Node21</title>
<g id="a_edge45_Node000027_Node000021"><a xlink:title=" ">
<path fill="none" stroke="#63b8ff" d="M1159.05,-258.97C1117.5,-251.86 1062.26,-239.07 1017.5,-217 984.15,-200.55 951.69,-171.45 933.2,-153.25"/>
<polygon fill="#63b8ff" stroke="#63b8ff" points="935.48,-150.58 925.95,-145.96 930.52,-155.52 935.48,-150.58"/>
</a>
</g>
</g>
<!-- Node27&#45;&gt;Node28 -->
<g id="edge47_Node000027_Node000028" class="edge">
<title>Node27&#45;&gt;Node28</title>
<g id="a_edge47_Node000027_Node000028"><a xlink:title=" ">
<path fill="none" stroke="#63b8ff" d="M1281.55,-254.6C1284.57,-254.04 1287.57,-253.51 1290.5,-253 1395.76,-234.75 1425.34,-235.72 1534.36,-217.14"/>
<polygon fill="#63b8ff" stroke="#63b8ff" points="1535.19,-220.55 1544.45,-215.4 1534,-213.65 1535.19,-220.55"/>
</a>
</g>
</g>
<!-- Node28&#45;&gt;Node4 -->
<g id="edge48_Node000028_Node000004" class="edge">
<title>Node28&#45;&gt;Node4</title>
<g id="a_edge48_Node000028_Node000004"><a xlink:title=" ">
<path fill="none" stroke="#63b8ff" d="M1605.17,-186.82C1603.62,-156.78 1595.34,-86.87 1552.5,-55 1519.84,-30.7 1406.02,-18.55 1341.69,-13.49"/>
<polygon fill="#63b8ff" stroke="#63b8ff" points="1341.67,-9.98 1331.43,-12.71 1341.14,-16.96 1341.67,-9.98"/>
</a>
</g>
</g>
<!-- Node28&#45;&gt;Node13 -->
<g id="edge49_Node000028_Node000013" class="edge">
<title>Node28&#45;&gt;Node13</title>
<g id="a_edge49_Node000028_Node000013"><a xlink:title=" ">
<path fill="none" stroke="#63b8ff" d="M1555.73,-186.97C1485.16,-167.14 1359.49,-132.1 1313.5,-121 1240.69,-103.42 1219.48,-101.97 1142.42,-85.16"/>
<polygon fill="#63b8ff" stroke="#63b8ff" points="1142.74,-81.65 1132.22,-82.92 1141.24,-88.49 1142.74,-81.65"/>
</a>
</g>
</g>
<!-- Node29 -->
<g id="Node000029" class="node">
<title>Node29</title>
<g id="a_Node000029"><a xlink:href="../../d1/d4c/path_8hpp.html" target="_top" xlink:title=" ">
<polygon fill="white" stroke="#666666" points="1576.5,-151 1436.5,-151 1436.5,-121 1576.5,-121 1576.5,-151"/>
<text text-anchor="start" x="1444.5" y="-139" font-family="Helvetica,sans-Serif" font-size="10.00">userver/formats/common</text>
<text text-anchor="middle" x="1506.5" y="-128" font-family="Helvetica,sans-Serif" font-size="10.00">/path.hpp</text>
</a>
</g>
</g>
<!-- Node28&#45;&gt;Node29 -->
<g id="edge50_Node000028_Node000029" class="edge">
<title>Node28&#45;&gt;Node29</title>
<g id="a_edge50_Node000028_Node000029"><a xlink:title=" ">
<path fill="none" stroke="#63b8ff" d="M1583.53,-186.8C1569.81,-177.93 1551.97,-166.39 1536.9,-156.66"/>
<polygon fill="#63b8ff" stroke="#63b8ff" points="1538.71,-153.65 1528.41,-151.16 1534.91,-159.53 1538.71,-153.65"/>
</a>
</g>
</g>
<!-- Node31 -->
<g id="Node000031" class="node">
<title>Node31</title>
<g id="a_Node000031"><a xlink:href="../../da/d72/type_8hpp.html" target="_top" xlink:title="Common enum of types.">
<polygon fill="white" stroke="#666666" points="1772.5,-151 1632.5,-151 1632.5,-121 1772.5,-121 1772.5,-151"/>
<text text-anchor="start" x="1640.5" y="-139" font-family="Helvetica,sans-Serif" font-size="10.00">userver/formats/common</text>
<text text-anchor="middle" x="1702.5" y="-128" font-family="Helvetica,sans-Serif" font-size="10.00">/type.hpp</text>
</a>
</g>
</g>
<!-- Node28&#45;&gt;Node31 -->
<g id="edge53_Node000028_Node000031" class="edge">
<title>Node28&#45;&gt;Node31</title>
<g id="a_edge53_Node000028_Node000031"><a xlink:title=" ">
<path fill="none" stroke="#63b8ff" d="M1627.03,-186.8C1640.34,-178.01 1657.63,-166.61 1672.3,-156.93"/>
<polygon fill="#63b8ff" stroke="#63b8ff" points="1674.61,-159.59 1681.03,-151.16 1670.76,-153.75 1674.61,-159.59"/>
</a>
</g>
</g>
<!-- Node29&#45;&gt;Node8 -->
<g id="edge51_Node000029_Node000008" class="edge">
<title>Node29&#45;&gt;Node8</title>
<g id="a_edge51_Node000029_Node000008"><a xlink:title=" ">
<path fill="none" stroke="#63b8ff" d="M1436.48,-121.58C1365.11,-107.91 1257.56,-87.3 1204.48,-77.13"/>
<polygon fill="#63b8ff" stroke="#63b8ff" points="1205.09,-73.68 1194.61,-75.24 1203.77,-80.56 1205.09,-73.68"/>
</a>
</g>
</g>
<!-- Node30 -->
<g id="Node000030" class="node">
<title>Node30</title>
<g id="a_Node000030"><a xlink:title=" ">
<polygon fill="#e0e0e0" stroke="#999999" points="1543,-79.5 1470,-79.5 1470,-60.5 1543,-60.5 1543,-79.5"/>
<text text-anchor="middle" x="1506.5" y="-67.5" font-family="Helvetica,sans-Serif" font-size="10.00">string_view</text>
</a>
</g>
</g>
<!-- Node29&#45;&gt;Node30 -->
<g id="edge52_Node000029_Node000030" class="edge">
<title>Node29&#45;&gt;Node30</title>
<g id="a_edge52_Node000029_Node000030"><a xlink:title=" ">
<path fill="none" stroke="#63b8ff" d="M1506.5,-120.8C1506.5,-111.7 1506.5,-99.79 1506.5,-89.9"/>
<polygon fill="#63b8ff" stroke="#63b8ff" points="1510,-89.84 1506.5,-79.84 1503,-89.84 1510,-89.84"/>
</a>
</g>
</g>
<!-- Node32&#45;&gt;Node7 -->
<g id="edge56_Node000032_Node000007" class="edge">
<title>Node32&#45;&gt;Node7</title>
<g id="a_edge56_Node000032_Node000007"><a xlink:title=" ">
<path fill="none" stroke="#63b8ff" d="M1358.24,-252.7C1355.06,-235.87 1348.08,-207.61 1334.5,-187 1325.29,-173.02 1311.17,-160.6 1299.29,-151.63"/>
<polygon fill="#63b8ff" stroke="#63b8ff" points="1301.29,-148.76 1291.13,-145.74 1297.19,-154.43 1301.29,-148.76"/>
</a>
</g>
</g>
<!-- Node32&#45;&gt;Node16 -->
<g id="edge55_Node000032_Node000016" class="edge">
<title>Node32&#45;&gt;Node16</title>
<g id="a_edge55_Node000032_Node000016"><a xlink:title=" ">
<path fill="none" stroke="#63b8ff" d="M1331.75,-252.95C1309.18,-241.93 1278.01,-226.7 1256.03,-215.96"/>
<polygon fill="#63b8ff" stroke="#63b8ff" points="1257.46,-212.76 1246.93,-211.52 1254.38,-219.05 1257.46,-212.76"/>
</a>
</g>
</g>
<!-- Node32&#45;&gt;Node20 -->
<g id="edge57_Node000032_Node000020" class="edge">
<title>Node32&#45;&gt;Node20</title>
<g id="a_edge57_Node000032_Node000020"><a xlink:title=" ">
<path fill="none" stroke="#63b8ff" d="M1346.53,-252.86C1328.64,-235.4 1296.04,-205.73 1263.5,-187 1232.63,-169.24 1194.3,-155.76 1166.38,-147.29"/>
<polygon fill="#63b8ff" stroke="#63b8ff" points="1167.17,-143.88 1156.59,-144.41 1165.19,-150.59 1167.17,-143.88"/>
</a>
</g>
</g>
<!-- Node32&#45;&gt;Node28 -->
<g id="edge58_Node000032_Node000028" class="edge">
<title>Node32&#45;&gt;Node28</title>
<g id="a_edge58_Node000032_Node000028"><a xlink:title=" ">
<path fill="none" stroke="#63b8ff" d="M1414.27,-252.95C1451.92,-243.12 1502.39,-229.93 1542.03,-219.58"/>
<polygon fill="#63b8ff" stroke="#63b8ff" points="1543.07,-222.93 1551.86,-217.01 1541.3,-216.15 1543.07,-222.93"/>
</a>
</g>
</g>
<!-- Node32&#45;&gt;Node33 -->
<g id="edge59_Node000032_Node000033" class="edge">
<title>Node32&#45;&gt;Node33</title>
<g id="a_edge59_Node000032_Node000033"><a xlink:title=" ">
<path fill="none" stroke="#63b8ff" d="M1421.8,-258.89C1515.21,-246.54 1692.08,-223.15 1784.63,-210.92"/>
<polygon fill="#63b8ff" stroke="#63b8ff" points="1785.22,-214.37 1794.68,-209.59 1784.31,-207.43 1785.22,-214.37"/>
</a>
</g>
</g>
<!-- Node33&#45;&gt;Node4 -->
<g id="edge62_Node000033_Node000004" class="edge">
<title>Node33&#45;&gt;Node4</title>
<g id="a_edge62_Node000033_Node000004"><a xlink:title=" ">
<path fill="none" stroke="#63b8ff" d="M1851.58,-186.91C1859.2,-169.5 1868.38,-139.88 1853.5,-121 1790.04,-40.51 1462.18,-17.87 1341.31,-12.21"/>
<polygon fill="#63b8ff" stroke="#63b8ff" points="1341.43,-8.71 1331.28,-11.76 1341.12,-15.71 1341.43,-8.71"/>
</a>
</g>
</g>
<!-- Node33&#45;&gt;Node6 -->
<g id="edge60_Node000033_Node000006" class="edge">
<title>Node33&#45;&gt;Node6</title>
<g id="a_edge60_Node000033_Node000006"><a xlink:title=" ">
<path fill="none" stroke="#63b8ff" d="M1838.51,-186.8C1834.59,-177.5 1829.43,-165.27 1825.2,-155.26"/>
<polygon fill="#63b8ff" stroke="#63b8ff" points="1828.34,-153.7 1821.23,-145.84 1821.89,-156.42 1828.34,-153.7"/>
</a>
</g>
</g>
<!-- Node34 -->
<g id="Node000034" class="node">
<title>Node34</title>
<g id="a_Node000034"><a xlink:title=" ">
<polygon fill="#e0e0e0" stroke="#999999" points="2001,-145.5 1964,-145.5 1964,-126.5 2001,-126.5 2001,-145.5"/>
<text text-anchor="middle" x="1982.5" y="-133.5" font-family="Helvetica,sans-Serif" font-size="10.00">new</text>
</a>
</g>
</g>
<!-- Node33&#45;&gt;Node34 -->
<g id="edge61_Node000033_Node000034" class="edge">
<title>Node33&#45;&gt;Node34</title>
<g id="a_edge61_Node000033_Node000034"><a xlink:title=" ">
<path fill="none" stroke="#63b8ff" d="M1877.26,-186.81C1899.48,-177.05 1929.44,-163.62 1955.5,-151 1956.05,-150.73 1956.6,-150.46 1957.16,-150.19"/>
<polygon fill="#63b8ff" stroke="#63b8ff" points="1958.94,-153.21 1966.3,-145.59 1955.79,-146.96 1958.94,-153.21"/>
</a>
</g>
</g>
<!-- Node35 -->
<g id="Node000035" class="node">
<title>Node35</title>
<g id="a_Node000035"><a xlink:title=" ">
<polygon fill="#e0e0e0" stroke="#999999" points="1946,-145.5 1901,-145.5 1901,-126.5 1946,-126.5 1946,-145.5"/>
<text text-anchor="middle" x="1923.5" y="-133.5" font-family="Helvetica,sans-Serif" font-size="10.00">utility</text>
</a>
</g>
</g>
<!-- Node33&#45;&gt;Node35 -->
<g id="edge63_Node000033_Node000035" class="edge">
<title>Node33&#45;&gt;Node35</title>
<g id="a_edge63_Node000033_Node000035"><a xlink:title=" ">
<path fill="none" stroke="#63b8ff" d="M1862.03,-186.8C1874.71,-176.53 1891.82,-162.67 1904.76,-152.18"/>
<polygon fill="#63b8ff" stroke="#63b8ff" points="1907.02,-154.86 1912.58,-145.84 1902.61,-149.42 1907.02,-154.86"/>
</a>
</g>
</g>
</g>
</svg>
