<?xml version="1.0" encoding="UTF-8" standalone="no"?>
<!DOCTYPE svg PUBLIC "-//W3C//DTD SVG 1.1//EN"
 "http://www.w3.org/Graphics/SVG/1.1/DTD/svg11.dtd">
<!-- Generated by graphviz version 2.43.0 (0)
 -->
<!-- Title: userver/utils/any_storage.hpp Pages: 1 -->
<svg width="980pt" height="511pt"
 viewBox="0.00 0.00 980.00 511.00" xmlns="http://www.w3.org/2000/svg" xmlns:xlink="http://www.w3.org/1999/xlink">
<g id="graph0" class="graph" transform="scale(1 1) rotate(0) translate(4 507)">
<title>userver/utils/any_storage.hpp</title>
<!-- Node1 -->
<g id="Node000001" class="node">
<title>Node1</title>
<g id="a_Node000001"><a xlink:title="map&#45;like heterogeneous data storage">
<polygon fill="#999999" stroke="#666666" points="161,-503 0,-503 0,-484 161,-484 161,-503"/>
<text text-anchor="middle" x="80.5" y="-491" font-family="Helvetica,sans-Serif" font-size="10.00">userver/utils/any_storage.hpp</text>
</a>
</g>
</g>
<!-- Node2 -->
<g id="Node000002" class="node">
<title>Node2</title>
<g id="a_Node000002"><a xlink:href="../../d4/d8c/server_2impl_2call__params_8hpp_source.html" target="_top" xlink:title=" ">
<polygon fill="white" stroke="#666666" points="143,-382 18,-382 18,-352 143,-352 143,-382"/>
<text text-anchor="start" x="26" y="-370" font-family="Helvetica,sans-Serif" font-size="10.00">userver/ugrpc/server</text>
<text text-anchor="middle" x="80.5" y="-359" font-family="Helvetica,sans-Serif" font-size="10.00">/impl/call_params.hpp</text>
</a>
</g>
</g>
<!-- Node1&#45;&gt;Node2 -->
<g id="edge1_Node000001_Node000002" class="edge">
<title>Node1&#45;&gt;Node2</title>
<g id="a_edge1_Node000001_Node000002"><a xlink:title=" ">
<path fill="none" stroke="#63b8ff" d="M68.26,-475.54C63.25,-467.59 58.05,-457.74 55.5,-448 52.12,-435.1 52.44,-430.98 55.5,-418 58.53,-405.15 65.4,-391.85 71.17,-382.19"/>
<polygon fill="#63b8ff" stroke="#63b8ff" points="65.39,-477.54 73.87,-483.88 71.19,-473.63 65.39,-477.54"/>
</a>
</g>
</g>
<!-- Node14 -->
<g id="Node000014" class="node">
<title>Node14</title>
<g id="a_Node000014"><a xlink:href="../../da/dd0/storage__context_8hpp.html" target="_top" xlink:title="StorageContext.">
<polygon fill="white" stroke="#666666" points="184,-448 65,-448 65,-418 184,-418 184,-448"/>
<text text-anchor="start" x="73" y="-436" font-family="Helvetica,sans-Serif" font-size="10.00">userver/ugrpc/server</text>
<text text-anchor="middle" x="124.5" y="-425" font-family="Helvetica,sans-Serif" font-size="10.00">/storage_context.hpp</text>
</a>
</g>
</g>
<!-- Node1&#45;&gt;Node14 -->
<g id="edge17_Node000001_Node000014" class="edge">
<title>Node1&#45;&gt;Node14</title>
<g id="a_edge17_Node000001_Node000014"><a xlink:title=" ">
<path fill="none" stroke="#63b8ff" d="M93.21,-475.61C99.76,-466.89 107.66,-456.39 113.88,-448.11"/>
<polygon fill="#63b8ff" stroke="#63b8ff" points="90.21,-473.77 86.99,-483.87 95.8,-477.98 90.21,-473.77"/>
</a>
</g>
</g>
<!-- Node3 -->
<g id="Node000003" class="node">
<title>Node3</title>
<g id="a_Node000003"><a xlink:href="../../db/d93/service__worker__impl_8hpp_source.html" target="_top" xlink:title=" ">
<polygon fill="white" stroke="#666666" points="153.5,-107 35.5,-107 35.5,-66 153.5,-66 153.5,-107"/>
<text text-anchor="start" x="43.5" y="-95" font-family="Helvetica,sans-Serif" font-size="10.00">userver/ugrpc/server</text>
<text text-anchor="start" x="43.5" y="-84" font-family="Helvetica,sans-Serif" font-size="10.00">/impl/service_worker</text>
<text text-anchor="middle" x="94.5" y="-73" font-family="Helvetica,sans-Serif" font-size="10.00">_impl.hpp</text>
</a>
</g>
</g>
<!-- Node2&#45;&gt;Node3 -->
<g id="edge2_Node000002_Node000003" class="edge">
<title>Node2&#45;&gt;Node3</title>
<g id="a_edge2_Node000002_Node000003"><a xlink:title=" ">
<path fill="none" stroke="#63b8ff" d="M73.12,-342.15C61.49,-300.8 42.13,-213.48 61.5,-143 65.04,-130.14 72.41,-117.24 79.3,-107.12"/>
<polygon fill="#63b8ff" stroke="#63b8ff" points="69.79,-343.24 75.95,-351.86 76.51,-341.28 69.79,-343.24"/>
</a>
</g>
</g>
<!-- Node5 -->
<g id="Node000005" class="node">
<title>Node5</title>
<g id="a_Node000005"><a xlink:href="../../dd/de8/server_2rpc_8hpp.html" target="_top" xlink:title="Classes representing an incoming RPC.">
<polygon fill="white" stroke="#666666" points="202,-316 85,-316 85,-286 202,-286 202,-316"/>
<text text-anchor="start" x="93" y="-304" font-family="Helvetica,sans-Serif" font-size="10.00">userver/ugrpc/server</text>
<text text-anchor="middle" x="143.5" y="-293" font-family="Helvetica,sans-Serif" font-size="10.00">/rpc.hpp</text>
</a>
</g>
</g>
<!-- Node2&#45;&gt;Node5 -->
<g id="edge4_Node000002_Node000005" class="edge">
<title>Node2&#45;&gt;Node5</title>
<g id="a_edge4_Node000002_Node000005"><a xlink:title=" ">
<path fill="none" stroke="#63b8ff" d="M101.52,-344.65C110.75,-335.27 121.33,-324.53 129.56,-316.16"/>
<polygon fill="#63b8ff" stroke="#63b8ff" points="99,-342.21 94.48,-351.8 103.99,-347.13 99,-342.21"/>
</a>
</g>
</g>
<!-- Node4 -->
<g id="Node000004" class="node">
<title>Node4</title>
<g id="a_Node000004"><a xlink:href="../../d1/dac/server_2impl_2codegen__definitions_8hpp_source.html" target="_top" xlink:title=" ">
<polygon fill="white" stroke="#666666" points="176,-30 13,-30 13,0 176,0 176,-30"/>
<text text-anchor="start" x="21" y="-18" font-family="Helvetica,sans-Serif" font-size="10.00">userver/ugrpc/server</text>
<text text-anchor="middle" x="94.5" y="-7" font-family="Helvetica,sans-Serif" font-size="10.00">/impl/codegen_definitions.hpp</text>
</a>
</g>
</g>
<!-- Node3&#45;&gt;Node4 -->
<g id="edge3_Node000003_Node000004" class="edge">
<title>Node3&#45;&gt;Node4</title>
<g id="a_edge3_Node000003_Node000004"><a xlink:title=" ">
<path fill="none" stroke="#63b8ff" d="M94.5,-55.66C94.5,-46.76 94.5,-37.42 94.5,-30.04"/>
<polygon fill="#63b8ff" stroke="#63b8ff" points="91,-55.77 94.5,-65.77 98,-55.77 91,-55.77"/>
</a>
</g>
</g>
<!-- Node5&#45;&gt;Node3 -->
<g id="edge10_Node000005_Node000003" class="edge">
<title>Node5&#45;&gt;Node3</title>
<g id="a_edge10_Node000005_Node000003"><a xlink:title=" ">
<path fill="none" stroke="#63b8ff" d="M104.32,-280.44C92.91,-272.64 81.83,-262.5 75.5,-250 51.78,-203.11 72.26,-139.13 85.45,-107.25"/>
<polygon fill="#63b8ff" stroke="#63b8ff" points="102.71,-283.56 113.04,-285.94 106.45,-277.64 102.71,-283.56"/>
</a>
</g>
</g>
<!-- Node6 -->
<g id="Node000006" class="node">
<title>Node6</title>
<g id="a_Node000006"><a xlink:href="../../d8/d55/call__traits_8hpp_source.html" target="_top" xlink:title=" ">
<polygon fill="white" stroke="#666666" points="202,-250 85,-250 85,-220 202,-220 202,-250"/>
<text text-anchor="start" x="93" y="-238" font-family="Helvetica,sans-Serif" font-size="10.00">userver/ugrpc/server</text>
<text text-anchor="middle" x="143.5" y="-227" font-family="Helvetica,sans-Serif" font-size="10.00">/impl/call_traits.hpp</text>
</a>
</g>
</g>
<!-- Node5&#45;&gt;Node6 -->
<g id="edge5_Node000005_Node000006" class="edge">
<title>Node5&#45;&gt;Node6</title>
<g id="a_edge5_Node000005_Node000006"><a xlink:title=" ">
<path fill="none" stroke="#63b8ff" d="M143.5,-275.54C143.5,-266.96 143.5,-257.61 143.5,-250.16"/>
<polygon fill="#63b8ff" stroke="#63b8ff" points="140,-275.8 143.5,-285.8 147,-275.8 140,-275.8"/>
</a>
</g>
</g>
<!-- Node8 -->
<g id="Node000008" class="node">
<title>Node8</title>
<g id="a_Node000008"><a xlink:href="../../df/d2b/server_2impl_2codegen__declarations_8hpp_source.html" target="_top" xlink:title=" ">
<polygon fill="white" stroke="#666666" points="392.5,-250 220.5,-250 220.5,-220 392.5,-220 392.5,-250"/>
<text text-anchor="start" x="228.5" y="-238" font-family="Helvetica,sans-Serif" font-size="10.00">userver/ugrpc/server</text>
<text text-anchor="middle" x="306.5" y="-227" font-family="Helvetica,sans-Serif" font-size="10.00">/impl/codegen_declarations.hpp</text>
</a>
</g>
</g>
<!-- Node5&#45;&gt;Node8 -->
<g id="edge9_Node000005_Node000008" class="edge">
<title>Node5&#45;&gt;Node8</title>
<g id="a_edge9_Node000005_Node000008"><a xlink:title=" ">
<path fill="none" stroke="#63b8ff" d="M188.86,-282.19C214.75,-272.02 246.73,-259.47 270.81,-250.01"/>
<polygon fill="#63b8ff" stroke="#63b8ff" points="187.3,-279.04 179.27,-285.95 189.86,-285.56 187.3,-279.04"/>
</a>
</g>
</g>
<!-- Node9 -->
<g id="Node000009" class="node">
<title>Node9</title>
<g id="a_Node000009"><a xlink:href="../../d4/d4f/grpc_2include_2userver_2ugrpc_2server_2middlewares_2base_8hpp_source.html" target="_top" xlink:title=" ">
<polygon fill="white" stroke="#666666" points="566.5,-250 436.5,-250 436.5,-220 566.5,-220 566.5,-250"/>
<text text-anchor="start" x="444.5" y="-238" font-family="Helvetica,sans-Serif" font-size="10.00">userver/ugrpc/server</text>
<text text-anchor="middle" x="501.5" y="-227" font-family="Helvetica,sans-Serif" font-size="10.00">/middlewares/base.hpp</text>
</a>
</g>
</g>
<!-- Node5&#45;&gt;Node9 -->
<g id="edge11_Node000005_Node000009" class="edge">
<title>Node5&#45;&gt;Node9</title>
<g id="a_edge11_Node000005_Node000009"><a xlink:title=" ">
<path fill="none" stroke="#63b8ff" d="M212.31,-287.7C276.95,-276.14 372.97,-258.98 436.38,-247.64"/>
<polygon fill="#63b8ff" stroke="#63b8ff" points="211.44,-284.3 202.22,-289.5 212.68,-291.19 211.44,-284.3"/>
</a>
</g>
</g>
<!-- Node6&#45;&gt;Node3 -->
<g id="edge8_Node000006_Node000003" class="edge">
<title>Node6&#45;&gt;Node3</title>
<g id="a_edge8_Node000006_Node000003"><a xlink:title=" ">
<path fill="none" stroke="#63b8ff" d="M127.69,-211.42C122.5,-203.12 117.13,-193.44 113.5,-184 103.69,-158.5 98.72,-127.18 96.37,-107.28"/>
<polygon fill="#63b8ff" stroke="#63b8ff" points="124.77,-213.35 133.16,-219.81 130.63,-209.52 124.77,-213.35"/>
</a>
</g>
</g>
<!-- Node7 -->
<g id="Node000007" class="node">
<title>Node7</title>
<g id="a_Node000007"><a xlink:href="../../d4/dad/async__service_8hpp_source.html" target="_top" xlink:title=" ">
<polygon fill="white" stroke="#666666" points="256.5,-178.5 122.5,-178.5 122.5,-148.5 256.5,-148.5 256.5,-178.5"/>
<text text-anchor="start" x="130.5" y="-166.5" font-family="Helvetica,sans-Serif" font-size="10.00">userver/ugrpc/server</text>
<text text-anchor="middle" x="189.5" y="-155.5" font-family="Helvetica,sans-Serif" font-size="10.00">/impl/async_service.hpp</text>
</a>
</g>
</g>
<!-- Node6&#45;&gt;Node7 -->
<g id="edge6_Node000006_Node000007" class="edge">
<title>Node6&#45;&gt;Node7</title>
<g id="a_edge6_Node000006_Node000007"><a xlink:title=" ">
<path fill="none" stroke="#63b8ff" d="M158.47,-211.38C165.63,-200.57 173.97,-187.96 180.21,-178.54"/>
<polygon fill="#63b8ff" stroke="#63b8ff" points="155.41,-209.66 152.81,-219.94 161.25,-213.53 155.41,-209.66"/>
</a>
</g>
</g>
<!-- Node7&#45;&gt;Node3 -->
<g id="edge7_Node000007_Node000003" class="edge">
<title>Node7&#45;&gt;Node3</title>
<g id="a_edge7_Node000007_Node000003"><a xlink:title=" ">
<path fill="none" stroke="#63b8ff" d="M163.53,-142C149.8,-131.16 133.03,-117.92 119.46,-107.2"/>
<polygon fill="#63b8ff" stroke="#63b8ff" points="161.61,-144.94 171.63,-148.39 165.95,-139.45 161.61,-144.94"/>
</a>
</g>
</g>
<!-- Node9&#45;&gt;Node3 -->
<g id="edge12_Node000009_Node000003" class="edge">
<title>Node9&#45;&gt;Node3</title>
<g id="a_edge12_Node000009_Node000003"><a xlink:title=" ">
<path fill="none" stroke="#63b8ff" d="M426.23,-219.61C379.44,-209.79 324.35,-196.37 303.5,-184 282.13,-171.33 286.44,-156.38 265.5,-143 231.44,-121.24 188.08,-107.29 153.55,-98.82"/>
<polygon fill="#63b8ff" stroke="#63b8ff" points="425.57,-223.05 436.07,-221.65 426.99,-216.2 425.57,-223.05"/>
</a>
</g>
</g>
<!-- Node10 -->
<g id="Node000010" class="node">
<title>Node10</title>
<g id="a_Node000010"><a xlink:href="../../d0/d46/grpc_2include_2userver_2ugrpc_2server_2middlewares_2baggage_2component_8hpp.html" target="_top" xlink:title="ugrpc::server::middlewares::baggage::Component">
<polygon fill="white" stroke="#666666" points="440.5,-184 312.5,-184 312.5,-143 440.5,-143 440.5,-184"/>
<text text-anchor="start" x="320.5" y="-172" font-family="Helvetica,sans-Serif" font-size="10.00">userver/ugrpc/server</text>
<text text-anchor="start" x="320.5" y="-161" font-family="Helvetica,sans-Serif" font-size="10.00">/middlewares/baggage</text>
<text text-anchor="middle" x="376.5" y="-150" font-family="Helvetica,sans-Serif" font-size="10.00">/component.hpp</text>
</a>
</g>
</g>
<!-- Node9&#45;&gt;Node10 -->
<g id="edge13_Node000009_Node000010" class="edge">
<title>Node9&#45;&gt;Node10</title>
<g id="a_edge13_Node000009_Node000010"><a xlink:title=" ">
<path fill="none" stroke="#63b8ff" d="M467.05,-214.85C449.83,-205.27 429.03,-193.71 411.7,-184.07"/>
<polygon fill="#63b8ff" stroke="#63b8ff" points="465.76,-218.14 476.2,-219.94 469.17,-212.02 465.76,-218.14"/>
</a>
</g>
</g>
<!-- Node11 -->
<g id="Node000011" class="node">
<title>Node11</title>
<g id="a_Node000011"><a xlink:href="../../d7/d59/grpc_2include_2userver_2ugrpc_2server_2middlewares_2congestion__control_2component_8hpp.html" target="_top" xlink:title="ugrpc::server::middlewares::congestion_control::Component">
<polygon fill="white" stroke="#666666" points="598,-184 459,-184 459,-143 598,-143 598,-184"/>
<text text-anchor="start" x="467" y="-172" font-family="Helvetica,sans-Serif" font-size="10.00">userver/ugrpc/server</text>
<text text-anchor="start" x="467" y="-161" font-family="Helvetica,sans-Serif" font-size="10.00">/middlewares/congestion</text>
<text text-anchor="middle" x="528.5" y="-150" font-family="Helvetica,sans-Serif" font-size="10.00">_control/component.hpp</text>
</a>
</g>
</g>
<!-- Node9&#45;&gt;Node11 -->
<g id="edge14_Node000009_Node000011" class="edge">
<title>Node9&#45;&gt;Node11</title>
<g id="a_edge14_Node000009_Node000011"><a xlink:title=" ">
<path fill="none" stroke="#63b8ff" d="M510.64,-210.47C513.98,-201.89 517.71,-192.28 520.9,-184.07"/>
<polygon fill="#63b8ff" stroke="#63b8ff" points="507.32,-209.35 506.96,-219.94 513.85,-211.88 507.32,-209.35"/>
</a>
</g>
</g>
<!-- Node12 -->
<g id="Node000012" class="node">
<title>Node12</title>
<g id="a_Node000012"><a xlink:href="../../dc/dbf/grpc_2include_2userver_2ugrpc_2server_2middlewares_2deadline__propagation_2component_8hpp.html" target="_top" xlink:title="ugrpc::server::middlewares::deadline_propagation::Component">
<polygon fill="white" stroke="#666666" points="775,-184 616,-184 616,-143 775,-143 775,-184"/>
<text text-anchor="start" x="624" y="-172" font-family="Helvetica,sans-Serif" font-size="10.00">userver/ugrpc/server</text>
<text text-anchor="start" x="624" y="-161" font-family="Helvetica,sans-Serif" font-size="10.00">/middlewares/deadline</text>
<text text-anchor="middle" x="695.5" y="-150" font-family="Helvetica,sans-Serif" font-size="10.00">_propagation/component.hpp</text>
</a>
</g>
</g>
<!-- Node9&#45;&gt;Node12 -->
<g id="edge15_Node000009_Node000012" class="edge">
<title>Node9&#45;&gt;Node12</title>
<g id="a_edge15_Node000009_Node000012"><a xlink:title=" ">
<path fill="none" stroke="#63b8ff" d="M550.2,-216.55C577.78,-206.67 612.36,-194.28 640.86,-184.07"/>
<polygon fill="#63b8ff" stroke="#63b8ff" points="548.99,-213.27 540.76,-219.94 551.35,-219.86 548.99,-213.27"/>
</a>
</g>
</g>
<!-- Node13 -->
<g id="Node000013" class="node">
<title>Node13</title>
<g id="a_Node000013"><a xlink:href="../../dd/d14/grpc_2include_2userver_2ugrpc_2server_2middlewares_2log_2component_8hpp_source.html" target="_top" xlink:title=" ">
<polygon fill="white" stroke="#666666" points="972,-178.5 793,-178.5 793,-148.5 972,-148.5 972,-178.5"/>
<text text-anchor="start" x="801" y="-166.5" font-family="Helvetica,sans-Serif" font-size="10.00">userver/ugrpc/server</text>
<text text-anchor="middle" x="882.5" y="-155.5" font-family="Helvetica,sans-Serif" font-size="10.00">/middlewares/log/component.hpp</text>
</a>
</g>
</g>
<!-- Node9&#45;&gt;Node13 -->
<g id="edge16_Node000009_Node000013" class="edge">
<title>Node9&#45;&gt;Node13</title>
<g id="a_edge16_Node000009_Node000013"><a xlink:title=" ">
<path fill="none" stroke="#63b8ff" d="M576.79,-221.15C633.86,-211.3 714.19,-197.21 784.5,-184 793.71,-182.27 803.39,-180.4 812.94,-178.53"/>
<polygon fill="#63b8ff" stroke="#63b8ff" points="576.03,-217.73 566.77,-222.88 577.22,-224.63 576.03,-217.73"/>
</a>
</g>
</g>
<!-- Node14&#45;&gt;Node2 -->
<g id="edge18_Node000014_Node000002" class="edge">
<title>Node14&#45;&gt;Node2</title>
<g id="a_edge18_Node000014_Node000002"><a xlink:title=" ">
<path fill="none" stroke="#63b8ff" d="M109.05,-409.53C102.79,-400.43 95.76,-390.19 90.24,-382.16"/>
<polygon fill="#63b8ff" stroke="#63b8ff" points="106.19,-411.54 114.73,-417.8 111.95,-407.57 106.19,-411.54"/>
</a>
</g>
</g>
</g>
</svg>
