<?xml version="1.0" encoding="UTF-8" standalone="no"?>
<!DOCTYPE svg PUBLIC "-//W3C//DTD SVG 1.1//EN"
 "http://www.w3.org/Graphics/SVG/1.1/DTD/svg11.dtd">
<!-- Generated by graphviz version 2.43.0 (0)
 -->
<!-- Title: storages::postgres::io::traits::IsMappedToPg&lt; T, typename &gt; Pages: 1 -->
<svg width="577pt" height="462pt"
 viewBox="0.00 0.00 577.00 462.00" xmlns="http://www.w3.org/2000/svg" xmlns:xlink="http://www.w3.org/1999/xlink">
<g id="graph0" class="graph" transform="scale(1 1) rotate(0) translate(4 458)">
<title>storages::postgres::io::traits::IsMappedToPg&lt; T, typename &gt;</title>
<!-- Node1 -->
<g id="Node000001" class="node">
<title>Node1</title>
<g id="a_Node000001"><a xlink:title="Detect if the C++ type is mapped to a Postgres type.">
<polygon fill="#999999" stroke="#666666" points="378,-247 239,-247 239,-206 378,-206 378,-247"/>
<text text-anchor="start" x="247" y="-235" font-family="Helvetica,sans-Serif" font-size="10.00">storages::postgres</text>
<text text-anchor="start" x="247" y="-224" font-family="Helvetica,sans-Serif" font-size="10.00">::io::traits::IsMappedToPg</text>
<text text-anchor="middle" x="308.5" y="-213" font-family="Helvetica,sans-Serif" font-size="10.00">&lt; T, typename &gt;</text>
</a>
</g>
</g>
<!-- Node3 -->
<g id="Node000003" class="node">
<title>Node3</title>
<g id="a_Node000003"><a xlink:href="../../d0/d67/structstorages_1_1postgres_1_1io_1_1traits_1_1IsMappedToPg_3_01Null_3_01T_01_4_01_4.html" target="_top" xlink:title=" ">
<polygon fill="white" stroke="#bfbfbf" points="561,-454 422,-454 422,-413 561,-413 561,-454"/>
<text text-anchor="start" x="430" y="-442" font-family="Helvetica,sans-Serif" font-size="10.00">storages::postgres</text>
<text text-anchor="start" x="430" y="-431" font-family="Helvetica,sans-Serif" font-size="10.00">::io::traits::IsMappedToPg</text>
<text text-anchor="middle" x="491.5" y="-420" font-family="Helvetica,sans-Serif" font-size="10.00">&lt; Null&lt; T &gt; &gt;</text>
</a>
</g>
</g>
<!-- Node1&#45;&gt;Node3 -->
<g id="edge2_Node000001_Node000003" class="edge">
<title>Node1&#45;&gt;Node3</title>
<g id="a_edge2_Node000001_Node000003"><a xlink:title=" ">
<path fill="none" stroke="#63b8ff" d="M319.93,-256.68C334.92,-295.89 366.14,-364.1 414,-404.5 417.69,-407.62 421.75,-410.41 426.01,-412.93"/>
<polygon fill="#63b8ff" stroke="#63b8ff" points="323.15,-255.29 316.38,-247.14 316.59,-257.73 323.15,-255.29"/>
</a>
</g>
</g>
<!-- Node4 -->
<g id="Node000004" class="node">
<title>Node4</title>
<g id="a_Node000004"><a xlink:href="../../df/dce/structstorages_1_1postgres_1_1io_1_1traits_1_1IsMappedToPg_3_01boost_1_1optional_3_01T_01_4_01_4.html" target="_top" xlink:title=" ">
<polygon fill="white" stroke="#bfbfbf" points="561.5,-395 421.5,-395 421.5,-354 561.5,-354 561.5,-395"/>
<text text-anchor="start" x="429.5" y="-383" font-family="Helvetica,sans-Serif" font-size="10.00">storages::postgres</text>
<text text-anchor="start" x="429.5" y="-372" font-family="Helvetica,sans-Serif" font-size="10.00">::io::traits::IsMappedToPg</text>
<text text-anchor="middle" x="491.5" y="-361" font-family="Helvetica,sans-Serif" font-size="10.00">&lt; boost::optional&lt; T &gt; &gt;</text>
</a>
</g>
</g>
<!-- Node1&#45;&gt;Node4 -->
<g id="edge3_Node000001_Node000004" class="edge">
<title>Node1&#45;&gt;Node4</title>
<g id="a_edge3_Node000001_Node000004"><a xlink:title=" ">
<path fill="none" stroke="#63b8ff" d="M328.95,-255.89C347.89,-282.5 378.88,-321.15 414,-345.5 418.44,-348.58 423.24,-351.38 428.21,-353.92"/>
<polygon fill="#63b8ff" stroke="#63b8ff" points="331.6,-253.57 323,-247.37 325.86,-257.57 331.6,-253.57"/>
</a>
</g>
</g>
<!-- Node5 -->
<g id="Node000005" class="node">
<title>Node5</title>
<g id="a_Node000005"><a xlink:href="../../dd/d35/structstorages_1_1postgres_1_1io_1_1traits_1_1IsMappedToPg_3_01std_1_1optional_3_01T_01_4_01_4.html" target="_top" xlink:title=" ">
<polygon fill="white" stroke="#bfbfbf" points="561,-336 422,-336 422,-295 561,-295 561,-336"/>
<text text-anchor="start" x="430" y="-324" font-family="Helvetica,sans-Serif" font-size="10.00">storages::postgres</text>
<text text-anchor="start" x="430" y="-313" font-family="Helvetica,sans-Serif" font-size="10.00">::io::traits::IsMappedToPg</text>
<text text-anchor="middle" x="491.5" y="-302" font-family="Helvetica,sans-Serif" font-size="10.00">&lt; std::optional&lt; T &gt; &gt;</text>
</a>
</g>
</g>
<!-- Node1&#45;&gt;Node5 -->
<g id="edge4_Node000001_Node000005" class="edge">
<title>Node1&#45;&gt;Node5</title>
<g id="a_edge4_Node000001_Node000005"><a xlink:title=" ">
<path fill="none" stroke="#63b8ff" d="M350.84,-252.26C369.73,-263.5 392.61,-276.38 414,-286.5 420.16,-289.41 426.7,-292.26 433.27,-294.95"/>
<polygon fill="#63b8ff" stroke="#63b8ff" points="352.57,-249.21 342.19,-247.06 348.96,-255.21 352.57,-249.21"/>
</a>
</g>
</g>
<!-- Node6 -->
<g id="Node000006" class="node">
<title>Node6</title>
<g id="a_Node000006"><a xlink:href="../../d4/d73/structstorages_1_1postgres_1_1io_1_1traits_1_1IsMappedToPg_3_1_1utils_1_1OptionalRef_3_01T_01_4_01_4.html" target="_top" xlink:title=" ">
<polygon fill="white" stroke="#bfbfbf" points="569,-277 414,-277 414,-236 569,-236 569,-277"/>
<text text-anchor="start" x="422" y="-265" font-family="Helvetica,sans-Serif" font-size="10.00">storages::postgres</text>
<text text-anchor="start" x="422" y="-254" font-family="Helvetica,sans-Serif" font-size="10.00">::io::traits::IsMappedToPg</text>
<text text-anchor="middle" x="491.5" y="-243" font-family="Helvetica,sans-Serif" font-size="10.00">&lt;::utils::OptionalRef&lt; T &gt; &gt;</text>
</a>
</g>
</g>
<!-- Node1&#45;&gt;Node6 -->
<g id="edge5_Node000001_Node000006" class="edge">
<title>Node1&#45;&gt;Node6</title>
<g id="a_edge5_Node000001_Node000006"><a xlink:title=" ">
<path fill="none" stroke="#63b8ff" d="M388.16,-239.54C396.73,-240.96 405.45,-242.4 413.99,-243.82"/>
<polygon fill="#63b8ff" stroke="#63b8ff" points="388.62,-236.07 378.19,-237.88 387.48,-242.97 388.62,-236.07"/>
</a>
</g>
</g>
<!-- Node7 -->
<g id="Node000007" class="node">
<title>Node7</title>
<g id="a_Node000007"><a xlink:href="../../d6/d12/structstorages_1_1postgres_1_1io_1_1traits_1_1IsSpecialMapping_3_01Null_3_01T_01_4_01_4.html" target="_top" xlink:title=" ">
<polygon fill="white" stroke="#bfbfbf" points="569,-218 414,-218 414,-177 569,-177 569,-218"/>
<text text-anchor="start" x="422" y="-206" font-family="Helvetica,sans-Serif" font-size="10.00">storages::postgres</text>
<text text-anchor="start" x="422" y="-195" font-family="Helvetica,sans-Serif" font-size="10.00">::io::traits::IsSpecialMapping</text>
<text text-anchor="middle" x="491.5" y="-184" font-family="Helvetica,sans-Serif" font-size="10.00">&lt; Null&lt; T &gt; &gt;</text>
</a>
</g>
</g>
<!-- Node1&#45;&gt;Node7 -->
<g id="edge6_Node000001_Node000007" class="edge">
<title>Node1&#45;&gt;Node7</title>
<g id="a_edge6_Node000001_Node000007"><a xlink:title=" ">
<path fill="none" stroke="#63b8ff" d="M388.16,-213.9C396.73,-212.52 405.45,-211.13 413.99,-209.76"/>
<polygon fill="#63b8ff" stroke="#63b8ff" points="387.51,-210.46 378.19,-215.49 388.61,-217.37 387.51,-210.46"/>
</a>
</g>
</g>
<!-- Node8 -->
<g id="Node000008" class="node">
<title>Node8</title>
<g id="a_Node000008"><a xlink:href="../../da/dbc/structstorages_1_1postgres_1_1io_1_1traits_1_1IsSpecialMapping_3_01boost_1_1optional_3_01T_01_4_01_4.html" target="_top" xlink:title=" ">
<polygon fill="white" stroke="#bfbfbf" points="569,-159 414,-159 414,-118 569,-118 569,-159"/>
<text text-anchor="start" x="422" y="-147" font-family="Helvetica,sans-Serif" font-size="10.00">storages::postgres</text>
<text text-anchor="start" x="422" y="-136" font-family="Helvetica,sans-Serif" font-size="10.00">::io::traits::IsSpecialMapping</text>
<text text-anchor="middle" x="491.5" y="-125" font-family="Helvetica,sans-Serif" font-size="10.00">&lt; boost::optional&lt; T &gt; &gt;</text>
</a>
</g>
</g>
<!-- Node1&#45;&gt;Node8 -->
<g id="edge7_Node000001_Node000008" class="edge">
<title>Node1&#45;&gt;Node8</title>
<g id="a_edge7_Node000001_Node000008"><a xlink:title=" ">
<path fill="none" stroke="#63b8ff" d="M352.01,-200.56C370.69,-189.68 393.09,-177.3 414,-167.5 420.17,-164.61 426.72,-161.78 433.29,-159.1"/>
<polygon fill="#63b8ff" stroke="#63b8ff" points="350.01,-197.68 343.17,-205.76 353.56,-203.71 350.01,-197.68"/>
</a>
</g>
</g>
<!-- Node9 -->
<g id="Node000009" class="node">
<title>Node9</title>
<g id="a_Node000009"><a xlink:href="../../d5/d66/structstorages_1_1postgres_1_1io_1_1traits_1_1IsSpecialMapping_3_01std_1_1optional_3_01T_01_4_01_4.html" target="_top" xlink:title=" ">
<polygon fill="white" stroke="#bfbfbf" points="569,-100 414,-100 414,-59 569,-59 569,-100"/>
<text text-anchor="start" x="422" y="-88" font-family="Helvetica,sans-Serif" font-size="10.00">storages::postgres</text>
<text text-anchor="start" x="422" y="-77" font-family="Helvetica,sans-Serif" font-size="10.00">::io::traits::IsSpecialMapping</text>
<text text-anchor="middle" x="491.5" y="-66" font-family="Helvetica,sans-Serif" font-size="10.00">&lt; std::optional&lt; T &gt; &gt;</text>
</a>
</g>
</g>
<!-- Node1&#45;&gt;Node9 -->
<g id="edge8_Node000001_Node000009" class="edge">
<title>Node1&#45;&gt;Node9</title>
<g id="a_edge8_Node000001_Node000009"><a xlink:title=" ">
<path fill="none" stroke="#63b8ff" d="M329.01,-197.36C347.98,-170.98 379,-132.66 414,-108.5 418.44,-105.43 423.25,-102.64 428.22,-100.1"/>
<polygon fill="#63b8ff" stroke="#63b8ff" points="325.95,-195.62 323.05,-205.81 331.67,-199.66 325.95,-195.62"/>
</a>
</g>
</g>
<!-- Node10 -->
<g id="Node000010" class="node">
<title>Node10</title>
<g id="a_Node000010"><a xlink:href="../../d9/dab/structstorages_1_1postgres_1_1io_1_1traits_1_1IsSpecialMapping_3_1_1utils_1_1OptionalRef_3_01T_01_4_01_4.html" target="_top" xlink:title=" ">
<polygon fill="white" stroke="#bfbfbf" points="569,-41 414,-41 414,0 569,0 569,-41"/>
<text text-anchor="start" x="422" y="-29" font-family="Helvetica,sans-Serif" font-size="10.00">storages::postgres</text>
<text text-anchor="start" x="422" y="-18" font-family="Helvetica,sans-Serif" font-size="10.00">::io::traits::IsSpecialMapping</text>
<text text-anchor="middle" x="491.5" y="-7" font-family="Helvetica,sans-Serif" font-size="10.00">&lt;::utils::OptionalRef&lt; T &gt; &gt;</text>
</a>
</g>
</g>
<!-- Node1&#45;&gt;Node10 -->
<g id="edge9_Node000001_Node000010" class="edge">
<title>Node1&#45;&gt;Node10</title>
<g id="a_edge9_Node000001_Node000010"><a xlink:title=" ">
<path fill="none" stroke="#63b8ff" d="M320.07,-196.24C335.15,-157.21 366.39,-89.59 414,-49.5 417.69,-46.39 421.76,-43.59 426.02,-41.08"/>
<polygon fill="#63b8ff" stroke="#63b8ff" points="316.65,-195.39 316.41,-205.98 323.21,-197.85 316.65,-195.39"/>
</a>
</g>
</g>
<!-- Node2 -->
<g id="Node000002" class="node">
<title>Node2</title>
<g id="a_Node000002"><a xlink:title=" ">
<polygon fill="white" stroke="#bfbfbf" points="203,-247 0,-247 0,-206 203,-206 203,-247"/>
<text text-anchor="start" x="8" y="-235" font-family="Helvetica,sans-Serif" font-size="10.00">BoolConstant&lt; kIsMappedTo</text>
<text text-anchor="start" x="8" y="-224" font-family="Helvetica,sans-Serif" font-size="10.00">UserType&lt; T &gt;||kIsMappedToSystem</text>
<text text-anchor="middle" x="101.5" y="-213" font-family="Helvetica,sans-Serif" font-size="10.00">Type&lt; T &gt;||kIsMappedToArray&lt; T &gt; &gt;</text>
</a>
</g>
</g>
<!-- Node2&#45;&gt;Node1 -->
<g id="edge1_Node000001_Node000002" class="edge">
<title>Node2&#45;&gt;Node1</title>
<g id="a_edge1_Node000001_Node000002"><a xlink:title=" ">
<path fill="none" stroke="#63b8ff" d="M213.36,-226.5C221.99,-226.5 230.55,-226.5 238.78,-226.5"/>
<polygon fill="#63b8ff" stroke="#63b8ff" points="213.2,-223 203.2,-226.5 213.2,-230 213.2,-223"/>
</a>
</g>
</g>
</g>
</svg>
