<?xml version="1.0" encoding="UTF-8" standalone="no"?>
<!DOCTYPE svg PUBLIC "-//W3C//DTD SVG 1.1//EN"
 "http://www.w3.org/Graphics/SVG/1.1/DTD/svg11.dtd">
<!-- Generated by graphviz version 2.43.0 (0)
 -->
<!-- Title: userver/urabbitmq/typedefs.hpp Pages: 1 -->
<svg width="804pt" height="214pt"
 viewBox="0.00 0.00 804.14 214.00" xmlns="http://www.w3.org/2000/svg" xmlns:xlink="http://www.w3.org/1999/xlink">
<g id="graph0" class="graph" transform="scale(1 1) rotate(0) translate(4 210)">
<title>userver/urabbitmq/typedefs.hpp</title>
<!-- Node1 -->
<g id="Node000001" class="node">
<title>Node1</title>
<g id="a_Node000001"><a xlink:title="Convenient typedefs for RabbitMQ entities.">
<polygon fill="#999999" stroke="#666666" points="444.64,-206 271.64,-206 271.64,-187 444.64,-187 444.64,-206"/>
<text text-anchor="middle" x="358.14" y="-194" font-family="Helvetica,sans-Serif" font-size="10.00">userver/urabbitmq/typedefs.hpp</text>
</a>
</g>
</g>
<!-- Node2 -->
<g id="Node000002" class="node">
<title>Node2</title>
<g id="a_Node000002"><a xlink:href="../../d7/de4/rabbitmq_8hpp.html" target="_top" xlink:title=" ">
<polygon fill="white" stroke="#666666" points="435.14,-19 313.14,-19 313.14,0 435.14,0 435.14,-19"/>
<text text-anchor="middle" x="374.14" y="-7" font-family="Helvetica,sans-Serif" font-size="10.00">userver/rabbitmq.hpp</text>
</a>
</g>
</g>
<!-- Node1&#45;&gt;Node2 -->
<g id="edge1_Node000001_Node000002" class="edge">
<title>Node1&#45;&gt;Node2</title>
<g id="a_edge1_Node000001_Node000002"><a xlink:title=" ">
<path fill="none" stroke="#63b8ff" d="M261.56,-188.12C136.14,-175.01 -58.33,-140.46 17.14,-55 36.36,-33.23 216.11,-19.6 312.97,-13.78"/>
<polygon fill="#63b8ff" stroke="#63b8ff" points="261.29,-191.61 271.59,-189.14 262,-184.65 261.29,-191.61"/>
</a>
</g>
</g>
<!-- Node3 -->
<g id="Node000003" class="node">
<title>Node3</title>
<g id="a_Node000003"><a xlink:href="../../d4/d61/broker__interface_8hpp.html" target="_top" xlink:title="A bunch of interface classes.">
<polygon fill="white" stroke="#666666" points="345.14,-151 205.14,-151 205.14,-121 345.14,-121 345.14,-151"/>
<text text-anchor="start" x="213.14" y="-139" font-family="Helvetica,sans-Serif" font-size="10.00">userver/urabbitmq/broker</text>
<text text-anchor="middle" x="275.14" y="-128" font-family="Helvetica,sans-Serif" font-size="10.00">_interface.hpp</text>
</a>
</g>
</g>
<!-- Node1&#45;&gt;Node3 -->
<g id="edge2_Node000001_Node000003" class="edge">
<title>Node1&#45;&gt;Node3</title>
<g id="a_edge2_Node000001_Node000003"><a xlink:title=" ">
<path fill="none" stroke="#63b8ff" d="M337.61,-181.03C324.66,-171.9 308.02,-160.17 295.16,-151.11"/>
<polygon fill="#63b8ff" stroke="#63b8ff" points="335.7,-183.97 345.89,-186.87 339.73,-178.25 335.7,-183.97"/>
</a>
</g>
</g>
<!-- Node7 -->
<g id="Node000007" class="node">
<title>Node7</title>
<g id="a_Node000007"><a xlink:href="../../d9/dda/consumer__component__base_8hpp.html" target="_top" xlink:title="Base component for your consumers.">
<polygon fill="white" stroke="#666666" points="521.14,-151 363.14,-151 363.14,-121 521.14,-121 521.14,-151"/>
<text text-anchor="start" x="371.14" y="-139" font-family="Helvetica,sans-Serif" font-size="10.00">userver/urabbitmq/consumer</text>
<text text-anchor="middle" x="442.14" y="-128" font-family="Helvetica,sans-Serif" font-size="10.00">_component_base.hpp</text>
</a>
</g>
</g>
<!-- Node1&#45;&gt;Node7 -->
<g id="edge10_Node000001_Node000007" class="edge">
<title>Node1&#45;&gt;Node7</title>
<g id="a_edge10_Node000001_Node000007"><a xlink:title=" ">
<path fill="none" stroke="#63b8ff" d="M378.91,-181.03C392.02,-171.9 408.86,-160.17 421.87,-151.11"/>
<polygon fill="#63b8ff" stroke="#63b8ff" points="376.74,-178.28 370.53,-186.87 380.74,-184.03 376.74,-178.28"/>
</a>
</g>
</g>
<!-- Node8 -->
<g id="Node000008" class="node">
<title>Node8</title>
<g id="a_Node000008"><a xlink:href="../../d8/d13/consumer__settings_8hpp.html" target="_top" xlink:title="Consumer settings.">
<polygon fill="white" stroke="#666666" points="697.14,-151 539.14,-151 539.14,-121 697.14,-121 697.14,-151"/>
<text text-anchor="start" x="547.14" y="-139" font-family="Helvetica,sans-Serif" font-size="10.00">userver/urabbitmq/consumer</text>
<text text-anchor="middle" x="618.14" y="-128" font-family="Helvetica,sans-Serif" font-size="10.00">_settings.hpp</text>
</a>
</g>
</g>
<!-- Node1&#45;&gt;Node8 -->
<g id="edge12_Node000001_Node000008" class="edge">
<title>Node1&#45;&gt;Node8</title>
<g id="a_edge12_Node000001_Node000008"><a xlink:title=" ">
<path fill="none" stroke="#63b8ff" d="M405.96,-184.74C448.13,-175.25 509.86,-161.36 555.88,-151.01"/>
<polygon fill="#63b8ff" stroke="#63b8ff" points="404.93,-181.38 395.94,-186.99 406.47,-188.21 404.93,-181.38"/>
</a>
</g>
</g>
<!-- Node3&#45;&gt;Node2 -->
<g id="edge3_Node000003_Node000002" class="edge">
<title>Node3&#45;&gt;Node2</title>
<g id="a_edge3_Node000003_Node000002"><a xlink:title=" ">
<path fill="none" stroke="#63b8ff" d="M194.72,-133.2C106.1,-128.43 -17.74,-111.79 32.14,-55 50.34,-34.28 219.5,-20.33 312.89,-14.14"/>
<polygon fill="#63b8ff" stroke="#63b8ff" points="194.64,-136.7 204.8,-133.7 194.99,-129.71 194.64,-136.7"/>
</a>
</g>
</g>
<!-- Node4 -->
<g id="Node000004" class="node">
<title>Node4</title>
<g id="a_Node000004"><a xlink:href="../../d5/d95/admin__channel_8hpp.html" target="_top" xlink:title="Administrative interface for the broker.">
<polygon fill="white" stroke="#666666" points="181.14,-85 41.14,-85 41.14,-55 181.14,-55 181.14,-85"/>
<text text-anchor="start" x="49.14" y="-73" font-family="Helvetica,sans-Serif" font-size="10.00">userver/urabbitmq/admin</text>
<text text-anchor="middle" x="111.14" y="-62" font-family="Helvetica,sans-Serif" font-size="10.00">_channel.hpp</text>
</a>
</g>
</g>
<!-- Node3&#45;&gt;Node4 -->
<g id="edge4_Node000003_Node000004" class="edge">
<title>Node3&#45;&gt;Node4</title>
<g id="a_edge4_Node000003_Node000004"><a xlink:title=" ">
<path fill="none" stroke="#63b8ff" d="M229.5,-117.19C203.45,-107.02 171.27,-94.47 147.04,-85.01"/>
<polygon fill="#63b8ff" stroke="#63b8ff" points="228.56,-120.58 239.15,-120.95 231.1,-114.06 228.56,-120.58"/>
</a>
</g>
</g>
<!-- Node5 -->
<g id="Node000005" class="node">
<title>Node5</title>
<g id="a_Node000005"><a xlink:href="../../db/d20/channel_8hpp.html" target="_top" xlink:title="Publisher interface for the broker.">
<polygon fill="white" stroke="#666666" points="368.64,-79.5 199.64,-79.5 199.64,-60.5 368.64,-60.5 368.64,-79.5"/>
<text text-anchor="middle" x="284.14" y="-67.5" font-family="Helvetica,sans-Serif" font-size="10.00">userver/urabbitmq/channel.hpp</text>
</a>
</g>
</g>
<!-- Node3&#45;&gt;Node5 -->
<g id="edge6_Node000003_Node000005" class="edge">
<title>Node3&#45;&gt;Node5</title>
<g id="a_edge6_Node000003_Node000005"><a xlink:title=" ">
<path fill="none" stroke="#63b8ff" d="M278.57,-110.6C280.09,-99.8 281.78,-87.78 282.89,-79.84"/>
<polygon fill="#63b8ff" stroke="#63b8ff" points="275.06,-110.41 277.14,-120.8 281.99,-111.38 275.06,-110.41"/>
</a>
</g>
</g>
<!-- Node6 -->
<g id="Node000006" class="node">
<title>Node6</title>
<g id="a_Node000006"><a xlink:href="../../d7/dec/rabbitmq_2include_2userver_2urabbitmq_2client_8hpp.html" target="_top" xlink:title="Interface for communicating with a RabbitMQ cluster.">
<polygon fill="white" stroke="#666666" points="544.14,-79.5 386.14,-79.5 386.14,-60.5 544.14,-60.5 544.14,-79.5"/>
<text text-anchor="middle" x="465.14" y="-67.5" font-family="Helvetica,sans-Serif" font-size="10.00">userver/urabbitmq/client.hpp</text>
</a>
</g>
</g>
<!-- Node3&#45;&gt;Node6 -->
<g id="edge8_Node000003_Node000006" class="edge">
<title>Node3&#45;&gt;Node6</title>
<g id="a_edge8_Node000003_Node000006"><a xlink:title=" ">
<path fill="none" stroke="#63b8ff" d="M326.39,-117.74C363.12,-105.36 411.02,-89.23 439.85,-79.52"/>
<polygon fill="#63b8ff" stroke="#63b8ff" points="325.19,-114.45 316.83,-120.95 327.43,-121.08 325.19,-114.45"/>
</a>
</g>
</g>
<!-- Node4&#45;&gt;Node2 -->
<g id="edge5_Node000004_Node000002" class="edge">
<title>Node4&#45;&gt;Node2</title>
<g id="a_edge5_Node000004_Node000002"><a xlink:title=" ">
<path fill="none" stroke="#63b8ff" d="M184.08,-52.78C233.2,-41.85 296.02,-27.88 335.68,-19.05"/>
<polygon fill="#63b8ff" stroke="#63b8ff" points="183.13,-49.4 174.13,-54.99 184.65,-56.23 183.13,-49.4"/>
</a>
</g>
</g>
<!-- Node5&#45;&gt;Node2 -->
<g id="edge7_Node000005_Node000002" class="edge">
<title>Node5&#45;&gt;Node2</title>
<g id="a_edge7_Node000005_Node000002"><a xlink:title=" ">
<path fill="none" stroke="#63b8ff" d="M306.2,-54.66C323.3,-43.55 346.42,-28.51 360.8,-19.17"/>
<polygon fill="#63b8ff" stroke="#63b8ff" points="303.89,-51.98 297.42,-60.37 307.71,-57.85 303.89,-51.98"/>
</a>
</g>
</g>
<!-- Node6&#45;&gt;Node2 -->
<g id="edge9_Node000006_Node000002" class="edge">
<title>Node6&#45;&gt;Node2</title>
<g id="a_edge9_Node000006_Node000002"><a xlink:title=" ">
<path fill="none" stroke="#63b8ff" d="M442.83,-54.66C425.54,-43.55 402.16,-28.51 387.62,-19.17"/>
<polygon fill="#63b8ff" stroke="#63b8ff" points="441.41,-57.9 451.71,-60.37 445.19,-52.02 441.41,-57.9"/>
</a>
</g>
</g>
<!-- Node7&#45;&gt;Node2 -->
<g id="edge11_Node000007_Node000002" class="edge">
<title>Node7&#45;&gt;Node2</title>
<g id="a_edge11_Node000007_Node000002"><a xlink:title=" ">
<path fill="none" stroke="#63b8ff" d="M501.06,-117.29C537.58,-103.23 573.89,-81.54 553.14,-55 538.59,-36.39 481.38,-24.46 435.51,-17.68"/>
<polygon fill="#63b8ff" stroke="#63b8ff" points="499.49,-114.14 491.31,-120.88 501.9,-120.71 499.49,-114.14"/>
</a>
</g>
</g>
<!-- Node8&#45;&gt;Node2 -->
<g id="edge13_Node000008_Node000002" class="edge">
<title>Node8&#45;&gt;Node2</title>
<g id="a_edge13_Node000008_Node000002"><a xlink:title=" ">
<path fill="none" stroke="#63b8ff" d="M610.1,-111.12C602.77,-92.99 590.15,-68.89 571.14,-55 531.78,-26.25 477.09,-15.6 435.31,-11.87"/>
<polygon fill="#63b8ff" stroke="#63b8ff" points="606.92,-112.6 613.73,-120.72 613.47,-110.13 606.92,-112.6"/>
</a>
</g>
</g>
<!-- Node9 -->
<g id="Node000009" class="node">
<title>Node9</title>
<g id="a_Node000009"><a xlink:href="../../db/d6a/consumer__base_8hpp.html" target="_top" xlink:title="Base class for your consumers.">
<polygon fill="white" stroke="#666666" points="796.14,-85 638.14,-85 638.14,-55 796.14,-55 796.14,-85"/>
<text text-anchor="start" x="646.14" y="-73" font-family="Helvetica,sans-Serif" font-size="10.00">userver/urabbitmq/consumer</text>
<text text-anchor="middle" x="717.14" y="-62" font-family="Helvetica,sans-Serif" font-size="10.00">_base.hpp</text>
</a>
</g>
</g>
<!-- Node8&#45;&gt;Node9 -->
<g id="edge14_Node000008_Node000009" class="edge">
<title>Node8&#45;&gt;Node9</title>
<g id="a_edge14_Node000008_Node000009"><a xlink:title=" ">
<path fill="none" stroke="#63b8ff" d="M648.61,-115.3C663.68,-105.56 681.53,-94.02 695.23,-85.16"/>
<polygon fill="#63b8ff" stroke="#63b8ff" points="646.61,-112.43 640.11,-120.8 650.41,-118.31 646.61,-112.43"/>
</a>
</g>
</g>
<!-- Node9&#45;&gt;Node2 -->
<g id="edge15_Node000009_Node000002" class="edge">
<title>Node9&#45;&gt;Node2</title>
<g id="a_edge15_Node000009_Node000002"><a xlink:title=" ">
<path fill="none" stroke="#63b8ff" d="M627.79,-53.76C562.9,-42.69 477.48,-28.12 424.19,-19.04"/>
<polygon fill="#63b8ff" stroke="#63b8ff" points="627.57,-57.27 638.02,-55.51 628.75,-50.37 627.57,-57.27"/>
</a>
</g>
</g>
</g>
</svg>
