<?xml version="1.0" encoding="UTF-8" standalone="no"?>
<!DOCTYPE svg PUBLIC "-//W3C//DTD SVG 1.1//EN"
 "http://www.w3.org/Graphics/SVG/1.1/DTD/svg11.dtd">
<!-- Generated by graphviz version 2.43.0 (0)
 -->
<!-- Title: userver/logging/log_helper_fwd.hpp Pages: 1 -->
<svg width="2504pt" height="390pt"
 viewBox="0.00 0.00 2503.50 390.00" xmlns="http://www.w3.org/2000/svg" xmlns:xlink="http://www.w3.org/1999/xlink">
<g id="graph0" class="graph" transform="scale(1 1) rotate(0) translate(4 386)">
<title>userver/logging/log_helper_fwd.hpp</title>
<!-- Node1 -->
<g id="Node000001" class="node">
<title>Node1</title>
<g id="a_Node000001"><a xlink:title=" ">
<polygon fill="#999999" stroke="#666666" points="962.5,-382 852.5,-382 852.5,-352 962.5,-352 962.5,-382"/>
<text text-anchor="start" x="860.5" y="-370" font-family="Helvetica,sans-Serif" font-size="10.00">userver/logging/log</text>
<text text-anchor="middle" x="907.5" y="-359" font-family="Helvetica,sans-Serif" font-size="10.00">_helper_fwd.hpp</text>
</a>
</g>
</g>
<!-- Node2 -->
<g id="Node000002" class="node">
<title>Node2</title>
<g id="a_Node000002"><a xlink:href="../../d7/d1b/sockaddr_8hpp.html" target="_top" xlink:title="Native socket address wrapper.">
<polygon fill="white" stroke="#666666" points="668.5,-310.5 500.5,-310.5 500.5,-291.5 668.5,-291.5 668.5,-310.5"/>
<text text-anchor="middle" x="584.5" y="-298.5" font-family="Helvetica,sans-Serif" font-size="10.00">userver/engine/io/sockaddr.hpp</text>
</a>
</g>
</g>
<!-- Node1&#45;&gt;Node2 -->
<g id="edge1_Node000001_Node000002" class="edge">
<title>Node1&#45;&gt;Node2</title>
<g id="a_edge1_Node000001_Node000002"><a xlink:title=" ">
<path fill="none" stroke="#63b8ff" d="M842.36,-353.09C778.37,-340.41 682.58,-321.43 627.55,-310.53"/>
<polygon fill="#63b8ff" stroke="#63b8ff" points="841.85,-356.56 852.34,-355.07 843.21,-349.69 841.85,-356.56"/>
</a>
</g>
</g>
<!-- Node14 -->
<g id="Node000014" class="node">
<title>Node14</title>
<g id="a_Node000014"><a xlink:href="../../d6/de5/mongo_2include_2userver_2formats_2bson_2serialize_8hpp.html" target="_top" xlink:title="Textual serialization helpers.">
<polygon fill="white" stroke="#666666" points="1013,-316 892,-316 892,-286 1013,-286 1013,-316"/>
<text text-anchor="start" x="900" y="-304" font-family="Helvetica,sans-Serif" font-size="10.00">userver/formats/bson</text>
<text text-anchor="middle" x="952.5" y="-293" font-family="Helvetica,sans-Serif" font-size="10.00">/serialize.hpp</text>
</a>
</g>
</g>
<!-- Node1&#45;&gt;Node14 -->
<g id="edge15_Node000001_Node000014" class="edge">
<title>Node1&#45;&gt;Node14</title>
<g id="a_edge15_Node000001_Node000014"><a xlink:title=" ">
<path fill="none" stroke="#63b8ff" d="M923.3,-343.53C929.7,-334.43 936.89,-324.19 942.54,-316.16"/>
<polygon fill="#63b8ff" stroke="#63b8ff" points="920.38,-341.6 917.49,-351.8 926.1,-345.63 920.38,-341.6"/>
</a>
</g>
</g>
<!-- Node15 -->
<g id="Node000015" class="node">
<title>Node15</title>
<g id="a_Node000015"><a xlink:href="../../d2/d45/http__request_8hpp.html" target="_top" xlink:title="HTTP Request data.">
<polygon fill="white" stroke="#666666" points="1766.5,-250 1656.5,-250 1656.5,-220 1766.5,-220 1766.5,-250"/>
<text text-anchor="start" x="1664.5" y="-238" font-family="Helvetica,sans-Serif" font-size="10.00">userver/server/http</text>
<text text-anchor="middle" x="1711.5" y="-227" font-family="Helvetica,sans-Serif" font-size="10.00">/http_request.hpp</text>
</a>
</g>
</g>
<!-- Node1&#45;&gt;Node15 -->
<g id="edge16_Node000001_Node000015" class="edge">
<title>Node1&#45;&gt;Node15</title>
<g id="a_edge16_Node000001_Node000015"><a xlink:title=" ">
<path fill="none" stroke="#63b8ff" d="M889.66,-343.12C878.18,-325.47 867.89,-301.52 882.5,-286 909.05,-257.8 1475.07,-241.71 1656.25,-237.27"/>
<polygon fill="#63b8ff" stroke="#63b8ff" points="887.06,-345.5 895.65,-351.7 892.8,-341.49 887.06,-345.5"/>
</a>
</g>
</g>
<!-- Node37 -->
<g id="Node000037" class="node">
<title>Node37</title>
<g id="a_Node000037"><a xlink:href="../../d7/de4/box_8hpp.html" target="_top" xlink:title="Remote storage for a single item. Implemented as a unique pointer that is never null,...">
<polygon fill="white" stroke="#666666" points="1150,-310.5 1031,-310.5 1031,-291.5 1150,-291.5 1150,-310.5"/>
<text text-anchor="middle" x="1090.5" y="-298.5" font-family="Helvetica,sans-Serif" font-size="10.00">userver/utils/box.hpp</text>
</a>
</g>
</g>
<!-- Node1&#45;&gt;Node37 -->
<g id="edge42_Node000001_Node000037" class="edge">
<title>Node1&#45;&gt;Node37</title>
<g id="a_edge42_Node000001_Node000037"><a xlink:title=" ">
<path fill="none" stroke="#63b8ff" d="M957.32,-348.58C992.64,-336.23 1038.49,-320.19 1066.15,-310.52"/>
<polygon fill="#63b8ff" stroke="#63b8ff" points="955.94,-345.35 947.66,-351.95 958.25,-351.96 955.94,-345.35"/>
</a>
</g>
</g>
<!-- Node3 -->
<g id="Node000003" class="node">
<title>Node3</title>
<g id="a_Node000003"><a xlink:href="../../d4/dc3/core_2include_2userver_2clients_2dns_2common_8hpp.html" target="_top" xlink:title="Common DNS client declarations.">
<polygon fill="white" stroke="#666666" points="448,-250 339,-250 339,-220 448,-220 448,-250"/>
<text text-anchor="start" x="347" y="-238" font-family="Helvetica,sans-Serif" font-size="10.00">userver/clients/dns</text>
<text text-anchor="middle" x="393.5" y="-227" font-family="Helvetica,sans-Serif" font-size="10.00">/common.hpp</text>
</a>
</g>
</g>
<!-- Node2&#45;&gt;Node3 -->
<g id="edge2_Node000002_Node000003" class="edge">
<title>Node2&#45;&gt;Node3</title>
<g id="a_edge2_Node000002_Node000003"><a xlink:title=" ">
<path fill="none" stroke="#63b8ff" d="M548.89,-288.07C516.8,-277.31 469.58,-261.49 435.63,-250.12"/>
<polygon fill="#63b8ff" stroke="#63b8ff" points="548.15,-291.51 558.74,-291.37 550.37,-284.87 548.15,-291.51"/>
</a>
</g>
</g>
<!-- Node4 -->
<g id="Node000004" class="node">
<title>Node4</title>
<g id="a_Node000004"><a xlink:href="../../dc/da6/resolver_8hpp.html" target="_top" xlink:title="Caching DNS resolver implementation.">
<polygon fill="white" stroke="#666666" points="363,-184 254,-184 254,-154 363,-154 363,-184"/>
<text text-anchor="start" x="262" y="-172" font-family="Helvetica,sans-Serif" font-size="10.00">userver/clients/dns</text>
<text text-anchor="middle" x="308.5" y="-161" font-family="Helvetica,sans-Serif" font-size="10.00">/resolver.hpp</text>
</a>
</g>
</g>
<!-- Node2&#45;&gt;Node4 -->
<g id="edge5_Node000002_Node000004" class="edge">
<title>Node2&#45;&gt;Node4</title>
<g id="a_edge5_Node000002_Node000004"><a xlink:title=" ">
<path fill="none" stroke="#63b8ff" d="M490.34,-291.97C427.65,-284.72 352.68,-271.76 329.5,-250 311.28,-232.9 308.13,-202.09 307.98,-184.1"/>
<polygon fill="#63b8ff" stroke="#63b8ff" points="489.96,-295.45 500.29,-293.08 490.74,-288.49 489.96,-295.45"/>
</a>
</g>
</g>
<!-- Node6 -->
<g id="Node000006" class="node">
<title>Node6</title>
<g id="a_Node000006"><a xlink:href="../../d2/dc6/io_8hpp.html" target="_top" xlink:title="Include&#45;all header for low&#45;level asynchronous I/O interfaces.">
<polygon fill="white" stroke="#666666" points="503.5,-178.5 381.5,-178.5 381.5,-159.5 503.5,-159.5 503.5,-178.5"/>
<text text-anchor="middle" x="442.5" y="-166.5" font-family="Helvetica,sans-Serif" font-size="10.00">userver/engine/io.hpp</text>
</a>
</g>
</g>
<!-- Node2&#45;&gt;Node6 -->
<g id="edge6_Node000002_Node000006" class="edge">
<title>Node2&#45;&gt;Node6</title>
<g id="a_edge6_Node000002_Node000006"><a xlink:title=" ">
<path fill="none" stroke="#63b8ff" d="M554.04,-287.02C535.96,-278.32 513.36,-265.61 496.5,-250 473.01,-228.26 454.51,-194.43 446.63,-178.65"/>
<polygon fill="#63b8ff" stroke="#63b8ff" points="553,-290.4 563.55,-291.43 555.95,-284.05 553,-290.4"/>
</a>
</g>
</g>
<!-- Node7 -->
<g id="Node000007" class="node">
<title>Node7</title>
<g id="a_Node000007"><a xlink:href="../../da/dfc/socket_8hpp.html" target="_top" xlink:title="Socket representation.">
<polygon fill="white" stroke="#666666" points="663,-244.5 506,-244.5 506,-225.5 663,-225.5 663,-244.5"/>
<text text-anchor="middle" x="584.5" y="-232.5" font-family="Helvetica,sans-Serif" font-size="10.00">userver/engine/io/socket.hpp</text>
</a>
</g>
</g>
<!-- Node2&#45;&gt;Node7 -->
<g id="edge7_Node000002_Node000007" class="edge">
<title>Node2&#45;&gt;Node7</title>
<g id="a_edge7_Node000002_Node000007"><a xlink:title=" ">
<path fill="none" stroke="#63b8ff" d="M584.5,-281.08C584.5,-269.13 584.5,-254.22 584.5,-244.91"/>
<polygon fill="#63b8ff" stroke="#63b8ff" points="581,-281.37 584.5,-291.37 588,-281.37 581,-281.37"/>
</a>
</g>
</g>
<!-- Node12 -->
<g id="Node000012" class="node">
<title>Node12</title>
<g id="a_Node000012"><a xlink:href="../../d8/d8f/get__addr__info_8hpp.html" target="_top" xlink:title="Blocking Functions for getaddrinfo.">
<polygon fill="white" stroke="#666666" points="797.5,-250 681.5,-250 681.5,-220 797.5,-220 797.5,-250"/>
<text text-anchor="start" x="689.5" y="-238" font-family="Helvetica,sans-Serif" font-size="10.00">userver/net/blocking</text>
<text text-anchor="middle" x="739.5" y="-227" font-family="Helvetica,sans-Serif" font-size="10.00">/get_addr_info.hpp</text>
</a>
</g>
</g>
<!-- Node2&#45;&gt;Node12 -->
<g id="edge13_Node000002_Node000012" class="edge">
<title>Node2&#45;&gt;Node12</title>
<g id="a_edge13_Node000002_Node000012"><a xlink:title=" ">
<path fill="none" stroke="#63b8ff" d="M614.76,-287.5C640.76,-276.77 678.23,-261.3 705.31,-250.12"/>
<polygon fill="#63b8ff" stroke="#63b8ff" points="613.31,-284.32 605.4,-291.37 615.98,-290.79 613.31,-284.32"/>
</a>
</g>
</g>
<!-- Node13 -->
<g id="Node000013" class="node">
<title>Node13</title>
<g id="a_Node000013"><a xlink:href="../../d2/d63/dns__server__mock_8hpp_source.html" target="_top" xlink:title=" ">
<polygon fill="white" stroke="#666666" points="953,-250 816,-250 816,-220 953,-220 953,-250"/>
<text text-anchor="start" x="824" y="-238" font-family="Helvetica,sans-Serif" font-size="10.00">userver/utest/dns_server</text>
<text text-anchor="middle" x="884.5" y="-227" font-family="Helvetica,sans-Serif" font-size="10.00">_mock.hpp</text>
</a>
</g>
</g>
<!-- Node2&#45;&gt;Node13 -->
<g id="edge14_Node000002_Node000013" class="edge">
<title>Node2&#45;&gt;Node13</title>
<g id="a_edge14_Node000002_Node000013"><a xlink:title=" ">
<path fill="none" stroke="#63b8ff" d="M634.68,-289.3C685.18,-278.52 763.33,-261.85 818.76,-250.02"/>
<polygon fill="#63b8ff" stroke="#63b8ff" points="633.7,-285.93 624.65,-291.44 635.16,-292.77 633.7,-285.93"/>
</a>
</g>
</g>
<!-- Node3&#45;&gt;Node4 -->
<g id="edge3_Node000003_Node000004" class="edge">
<title>Node3&#45;&gt;Node4</title>
<g id="a_edge3_Node000003_Node000004"><a xlink:title=" ">
<path fill="none" stroke="#63b8ff" d="M366.61,-213.75C353.83,-204.13 338.86,-192.86 327.31,-184.16"/>
<polygon fill="#63b8ff" stroke="#63b8ff" points="364.54,-216.58 374.64,-219.8 368.75,-210.99 364.54,-216.58"/>
</a>
</g>
</g>
<!-- Node5 -->
<g id="Node000005" class="node">
<title>Node5</title>
<g id="a_Node000005"><a xlink:href="../../d6/dbb/core_2include_2userver_2clients_2dns_2component_8hpp.html" target="_top" xlink:title="Caching DNS resolver component.">
<polygon fill="white" stroke="#666666" points="109,-112.5 0,-112.5 0,-82.5 109,-82.5 109,-112.5"/>
<text text-anchor="start" x="8" y="-100.5" font-family="Helvetica,sans-Serif" font-size="10.00">userver/clients/dns</text>
<text text-anchor="middle" x="54.5" y="-89.5" font-family="Helvetica,sans-Serif" font-size="10.00">/component.hpp</text>
</a>
</g>
</g>
<!-- Node4&#45;&gt;Node5 -->
<g id="edge4_Node000004_Node000005" class="edge">
<title>Node4&#45;&gt;Node5</title>
<g id="a_edge4_Node000004_Node000005"><a xlink:title=" ">
<path fill="none" stroke="#63b8ff" d="M243.78,-151.63C206.96,-142.15 160.04,-129.79 118.5,-118 112.47,-116.29 106.13,-114.43 99.89,-112.56"/>
<polygon fill="#63b8ff" stroke="#63b8ff" points="243.33,-155.12 253.89,-154.22 245.07,-148.34 243.33,-155.12"/>
</a>
</g>
</g>
<!-- Node7&#45;&gt;Node6 -->
<g id="edge9_Node000007_Node000006" class="edge">
<title>Node7&#45;&gt;Node6</title>
<g id="a_edge9_Node000007_Node000006"><a xlink:title=" ">
<path fill="none" stroke="#63b8ff" d="M556.09,-221.19C528.1,-208.58 486.12,-189.66 461.8,-178.7"/>
<polygon fill="#63b8ff" stroke="#63b8ff" points="554.79,-224.45 565.35,-225.37 557.67,-218.07 554.79,-224.45"/>
</a>
</g>
</g>
<!-- Node8 -->
<g id="Node000008" class="node">
<title>Node8</title>
<g id="a_Node000008"><a xlink:href="../../d2/d41/tcp__acceptor__base_8hpp.html" target="_top" xlink:title="Component for accepting incoming TCP connections.">
<polygon fill="white" stroke="#666666" points="653,-184 522,-184 522,-154 653,-154 653,-184"/>
<text text-anchor="start" x="530" y="-172" font-family="Helvetica,sans-Serif" font-size="10.00">userver/components</text>
<text text-anchor="middle" x="587.5" y="-161" font-family="Helvetica,sans-Serif" font-size="10.00">/tcp_acceptor_base.hpp</text>
</a>
</g>
</g>
<!-- Node7&#45;&gt;Node8 -->
<g id="edge8_Node000007_Node000008" class="edge">
<title>Node7&#45;&gt;Node8</title>
<g id="a_edge8_Node000007_Node000008"><a xlink:title=" ">
<path fill="none" stroke="#63b8ff" d="M585.37,-215.35C585.84,-205.47 586.4,-193.51 586.83,-184.36"/>
<polygon fill="#63b8ff" stroke="#63b8ff" points="581.88,-215.22 584.9,-225.37 588.87,-215.54 581.88,-215.22"/>
</a>
</g>
</g>
<!-- Node9 -->
<g id="Node000009" class="node">
<title>Node9</title>
<g id="a_Node000009"><a xlink:href="../../d2/d28/tls__wrapper_8hpp.html" target="_top" xlink:title="TLS socket wrappers.">
<polygon fill="white" stroke="#666666" points="787.5,-184 671.5,-184 671.5,-154 787.5,-154 787.5,-184"/>
<text text-anchor="start" x="679.5" y="-172" font-family="Helvetica,sans-Serif" font-size="10.00">userver/engine/io/tls</text>
<text text-anchor="middle" x="729.5" y="-161" font-family="Helvetica,sans-Serif" font-size="10.00">_wrapper.hpp</text>
</a>
</g>
</g>
<!-- Node7&#45;&gt;Node9 -->
<g id="edge10_Node000007_Node000009" class="edge">
<title>Node7&#45;&gt;Node9</title>
<g id="a_edge10_Node000007_Node000009"><a xlink:title=" ">
<path fill="none" stroke="#63b8ff" d="M613.46,-221.22C637.75,-210.5 672.41,-195.2 697.52,-184.12"/>
<polygon fill="#63b8ff" stroke="#63b8ff" points="611.79,-218.13 604.06,-225.37 614.62,-224.53 611.79,-218.13"/>
</a>
</g>
</g>
<!-- Node10 -->
<g id="Node000010" class="node">
<title>Node10</title>
<g id="a_Node000010"><a xlink:href="../../de/d4e/core_2include_2userver_2server_2websocket_2server_8hpp.html" target="_top" xlink:title=" ">
<polygon fill="white" stroke="#666666" points="947.5,-184 805.5,-184 805.5,-154 947.5,-154 947.5,-184"/>
<text text-anchor="start" x="813.5" y="-172" font-family="Helvetica,sans-Serif" font-size="10.00">userver/server/websocket</text>
<text text-anchor="middle" x="876.5" y="-161" font-family="Helvetica,sans-Serif" font-size="10.00">/server.hpp</text>
</a>
</g>
</g>
<!-- Node7&#45;&gt;Node10 -->
<g id="edge11_Node000007_Node000010" class="edge">
<title>Node7&#45;&gt;Node10</title>
<g id="a_edge11_Node000007_Node000010"><a xlink:title=" ">
<path fill="none" stroke="#63b8ff" d="M633.65,-223.23C682.81,-212.45 758.67,-195.83 812.51,-184.02"/>
<polygon fill="#63b8ff" stroke="#63b8ff" points="632.6,-219.88 623.58,-225.44 634.09,-226.71 632.6,-219.88"/>
</a>
</g>
</g>
<!-- Node11 -->
<g id="Node000011" class="node">
<title>Node11</title>
<g id="a_Node000011"><a xlink:href="../../d4/d64/websocket__handler_8hpp.html" target="_top" xlink:title=" ">
<polygon fill="white" stroke="#666666" points="269.5,-112.5 127.5,-112.5 127.5,-82.5 269.5,-82.5 269.5,-112.5"/>
<text text-anchor="start" x="135.5" y="-100.5" font-family="Helvetica,sans-Serif" font-size="10.00">userver/server/websocket</text>
<text text-anchor="middle" x="198.5" y="-89.5" font-family="Helvetica,sans-Serif" font-size="10.00">/websocket_handler.hpp</text>
</a>
</g>
</g>
<!-- Node10&#45;&gt;Node11 -->
<g id="edge12_Node000010_Node000011" class="edge">
<title>Node10&#45;&gt;Node11</title>
<g id="a_edge12_Node000010_Node000011"><a xlink:title=" ">
<path fill="none" stroke="#63b8ff" d="M795.45,-153.97C565.66,-126.83 503.31,-152.95 278.5,-118 269.46,-116.59 259.94,-114.67 250.74,-112.58"/>
<polygon fill="#63b8ff" stroke="#63b8ff" points="795.11,-157.45 805.46,-155.17 795.95,-150.5 795.11,-157.45"/>
</a>
</g>
</g>
<!-- Node15&#45;&gt;Node10 -->
<g id="edge41_Node000015_Node000010" class="edge">
<title>Node15&#45;&gt;Node10</title>
<g id="a_edge41_Node000015_Node000010"><a xlink:title=" ">
<path fill="none" stroke="#63b8ff" d="M1646.14,-228.99C1492.08,-217.18 1107.17,-187.68 947.57,-175.45"/>
<polygon fill="#63b8ff" stroke="#63b8ff" points="1646.15,-232.5 1656.39,-229.78 1646.69,-225.52 1646.15,-232.5"/>
</a>
</g>
</g>
<!-- Node16 -->
<g id="Node000016" class="node">
<title>Node16</title>
<g id="a_Node000016"><a xlink:href="../../da/dff/auth__checker__base_8hpp_source.html" target="_top" xlink:title=" ">
<polygon fill="white" stroke="#666666" points="2292.5,-184 2134.5,-184 2134.5,-154 2292.5,-154 2292.5,-184"/>
<text text-anchor="start" x="2142.5" y="-172" font-family="Helvetica,sans-Serif" font-size="10.00">userver/server/handlers</text>
<text text-anchor="middle" x="2213.5" y="-161" font-family="Helvetica,sans-Serif" font-size="10.00">/auth/auth_checker_base.hpp</text>
</a>
</g>
</g>
<!-- Node15&#45;&gt;Node16 -->
<g id="edge17_Node000015_Node000016" class="edge">
<title>Node15&#45;&gt;Node16</title>
<g id="a_edge17_Node000015_Node000016"><a xlink:title=" ">
<path fill="none" stroke="#63b8ff" d="M1776.65,-225.69C1868.43,-213.99 2035.58,-192.68 2134.38,-180.09"/>
<polygon fill="#63b8ff" stroke="#63b8ff" points="1776.14,-222.23 1766.66,-226.97 1777.02,-229.17 1776.14,-222.23"/>
</a>
</g>
</g>
<!-- Node18 -->
<g id="Node000018" class="node">
<title>Node18</title>
<g id="a_Node000018"><a xlink:href="../../de/d82/digest_2auth__checker__base_8hpp.html" target="_top" xlink:title="Base class for digest authentication checkers. Implements a digest&#45;authentication logic.">
<polygon fill="white" stroke="#666666" points="2495.5,-118 2353.5,-118 2353.5,-77 2495.5,-77 2495.5,-118"/>
<text text-anchor="start" x="2361.5" y="-106" font-family="Helvetica,sans-Serif" font-size="10.00">userver/server/handlers</text>
<text text-anchor="start" x="2361.5" y="-95" font-family="Helvetica,sans-Serif" font-size="10.00">/auth/digest/auth_checker</text>
<text text-anchor="middle" x="2424.5" y="-84" font-family="Helvetica,sans-Serif" font-size="10.00">_base.hpp</text>
</a>
</g>
</g>
<!-- Node15&#45;&gt;Node18 -->
<g id="edge21_Node000015_Node000018" class="edge">
<title>Node15&#45;&gt;Node18</title>
<g id="a_edge21_Node000015_Node000018"><a xlink:title=" ">
<path fill="none" stroke="#63b8ff" d="M1776.82,-234.47C1916.78,-234.58 2240.87,-229.7 2339.5,-184 2370.65,-169.57 2396.77,-138.54 2411.52,-118.1"/>
<polygon fill="#63b8ff" stroke="#63b8ff" points="1776.67,-230.97 1766.67,-234.46 1776.66,-237.97 1776.67,-230.97"/>
</a>
</g>
</g>
<!-- Node19 -->
<g id="Node000019" class="node">
<title>Node19</title>
<g id="a_Node000019"><a xlink:href="../../db/df0/standalone__checker_8hpp.html" target="_top" xlink:title="Class for digest authentication checker. Implements a stand&#45;alone digest&#45;authentication logic.">
<polygon fill="white" stroke="#666666" points="2440.5,-41 2308.5,-41 2308.5,0 2440.5,0 2440.5,-41"/>
<text text-anchor="start" x="2316.5" y="-29" font-family="Helvetica,sans-Serif" font-size="10.00">userver/server/handlers</text>
<text text-anchor="start" x="2316.5" y="-18" font-family="Helvetica,sans-Serif" font-size="10.00">/auth/digest/standalone</text>
<text text-anchor="middle" x="2374.5" y="-7" font-family="Helvetica,sans-Serif" font-size="10.00">_checker.hpp</text>
</a>
</g>
</g>
<!-- Node15&#45;&gt;Node19 -->
<g id="edge22_Node000015_Node000019" class="edge">
<title>Node15&#45;&gt;Node19</title>
<g id="a_edge22_Node000015_Node000019"><a xlink:title=" ">
<path fill="none" stroke="#63b8ff" d="M1776.69,-232.29C1921.42,-227.96 2260.05,-214.64 2301.5,-184 2342.71,-153.53 2322.72,-123.4 2344.5,-77 2350.18,-64.9 2357.26,-51.73 2363.11,-41.26"/>
<polygon fill="#63b8ff" stroke="#63b8ff" points="1776.51,-228.8 1766.61,-232.59 1776.71,-235.79 1776.51,-228.8"/>
</a>
</g>
</g>
<!-- Node20 -->
<g id="Node000020" class="node">
<title>Node20</title>
<g id="a_Node000020"><a xlink:href="../../d4/df6/http__handler__base_8hpp.html" target="_top" xlink:title="Base class for all the Userver HTTP Handlers.">
<polygon fill="white" stroke="#666666" points="1276.5,-184 1144.5,-184 1144.5,-154 1276.5,-154 1276.5,-184"/>
<text text-anchor="start" x="1152.5" y="-172" font-family="Helvetica,sans-Serif" font-size="10.00">userver/server/handlers</text>
<text text-anchor="middle" x="1210.5" y="-161" font-family="Helvetica,sans-Serif" font-size="10.00">/http_handler_base.hpp</text>
</a>
</g>
</g>
<!-- Node15&#45;&gt;Node20 -->
<g id="edge23_Node000015_Node000020" class="edge">
<title>Node15&#45;&gt;Node20</title>
<g id="a_edge23_Node000015_Node000020"><a xlink:title=" ">
<path fill="none" stroke="#63b8ff" d="M1646.32,-225.67C1550.62,-213.45 1373.03,-190.76 1276.73,-178.46"/>
<polygon fill="#63b8ff" stroke="#63b8ff" points="1646.09,-229.17 1656.45,-226.97 1646.98,-222.23 1646.09,-229.17"/>
</a>
</g>
</g>
<!-- Node17 -->
<g id="Node000017" class="node">
<title>Node17</title>
<g id="a_Node000017"><a xlink:href="../../db/ddd/auth__checker__factory_8hpp.html" target="_top" xlink:title="Authorization factory registration and base classes.">
<polygon fill="white" stroke="#666666" points="2297.5,-112.5 2129.5,-112.5 2129.5,-82.5 2297.5,-82.5 2297.5,-112.5"/>
<text text-anchor="start" x="2137.5" y="-100.5" font-family="Helvetica,sans-Serif" font-size="10.00">userver/server/handlers</text>
<text text-anchor="middle" x="2213.5" y="-89.5" font-family="Helvetica,sans-Serif" font-size="10.00">/auth/auth_checker_factory.hpp</text>
</a>
</g>
</g>
<!-- Node16&#45;&gt;Node17 -->
<g id="edge18_Node000016_Node000017" class="edge">
<title>Node16&#45;&gt;Node17</title>
<g id="a_edge18_Node000016_Node000017"><a xlink:title=" ">
<path fill="none" stroke="#63b8ff" d="M2213.5,-143.75C2213.5,-133.31 2213.5,-121.49 2213.5,-112.54"/>
<polygon fill="#63b8ff" stroke="#63b8ff" points="2210,-143.94 2213.5,-153.94 2217,-143.94 2210,-143.94"/>
</a>
</g>
</g>
<!-- Node16&#45;&gt;Node18 -->
<g id="edge19_Node000016_Node000018" class="edge">
<title>Node16&#45;&gt;Node18</title>
<g id="a_edge19_Node000016_Node000018"><a xlink:title=" ">
<path fill="none" stroke="#63b8ff" d="M2266.08,-150.68C2296.14,-140.78 2333.94,-128.33 2365.08,-118.07"/>
<polygon fill="#63b8ff" stroke="#63b8ff" points="2264.6,-147.48 2256.2,-153.94 2266.79,-154.13 2264.6,-147.48"/>
</a>
</g>
</g>
<!-- Node18&#45;&gt;Node19 -->
<g id="edge20_Node000018_Node000019" class="edge">
<title>Node18&#45;&gt;Node19</title>
<g id="a_edge20_Node000018_Node000019"><a xlink:title=" ">
<path fill="none" stroke="#63b8ff" d="M2405.76,-68.39C2399.7,-59.3 2393.11,-49.41 2387.55,-41.07"/>
<polygon fill="#63b8ff" stroke="#63b8ff" points="2402.9,-70.42 2411.36,-76.79 2408.73,-66.53 2402.9,-70.42"/>
</a>
</g>
</g>
<!-- Node20&#45;&gt;Node11 -->
<g id="edge40_Node000020_Node000011" class="edge">
<title>Node20&#45;&gt;Node11</title>
<g id="a_edge40_Node000020_Node000011"><a xlink:title=" ">
<path fill="none" stroke="#63b8ff" d="M1134.28,-163.76C1083.83,-160.96 1016.22,-157.23 956.5,-154 655.18,-137.7 577.04,-161.92 278.5,-118 269.17,-116.63 259.33,-114.67 249.86,-112.51"/>
<polygon fill="#63b8ff" stroke="#63b8ff" points="1134.27,-167.26 1144.45,-164.32 1134.66,-160.27 1134.27,-167.26"/>
</a>
</g>
</g>
<!-- Node21 -->
<g id="Node000021" class="node">
<title>Node21</title>
<g id="a_Node000021"><a xlink:href="../../d6/d0d/dns__client__control_8hpp.html" target="_top" xlink:title="Handlers that controls the DNS client.">
<polygon fill="white" stroke="#666666" points="419.5,-112.5 287.5,-112.5 287.5,-82.5 419.5,-82.5 419.5,-112.5"/>
<text text-anchor="start" x="295.5" y="-100.5" font-family="Helvetica,sans-Serif" font-size="10.00">userver/server/handlers</text>
<text text-anchor="middle" x="353.5" y="-89.5" font-family="Helvetica,sans-Serif" font-size="10.00">/dns_client_control.hpp</text>
</a>
</g>
</g>
<!-- Node20&#45;&gt;Node21 -->
<g id="edge24_Node000020_Node000021" class="edge">
<title>Node20&#45;&gt;Node21</title>
<g id="a_edge24_Node000020_Node000021"><a xlink:title=" ">
<path fill="none" stroke="#63b8ff" d="M1134.14,-163.51C944.15,-152.29 462.94,-123.53 428.5,-118 419.87,-116.61 410.78,-114.68 402.03,-112.55"/>
<polygon fill="#63b8ff" stroke="#63b8ff" points="1134.14,-167.02 1144.32,-164.11 1134.55,-160.03 1134.14,-167.02"/>
</a>
</g>
</g>
<!-- Node22 -->
<g id="Node000022" class="node">
<title>Node22</title>
<g id="a_Node000022"><a xlink:href="../../d6/dc0/dynamic__debug__log_8hpp.html" target="_top" xlink:title="HTTP Handler to show/hide logs at the specific file:line.">
<polygon fill="white" stroke="#666666" points="575.5,-112.5 437.5,-112.5 437.5,-82.5 575.5,-82.5 575.5,-112.5"/>
<text text-anchor="start" x="445.5" y="-100.5" font-family="Helvetica,sans-Serif" font-size="10.00">userver/server/handlers</text>
<text text-anchor="middle" x="506.5" y="-89.5" font-family="Helvetica,sans-Serif" font-size="10.00">/dynamic_debug_log.hpp</text>
</a>
</g>
</g>
<!-- Node20&#45;&gt;Node22 -->
<g id="edge25_Node000020_Node000022" class="edge">
<title>Node20&#45;&gt;Node22</title>
<g id="a_edge25_Node000020_Node000022"><a xlink:title=" ">
<path fill="none" stroke="#63b8ff" d="M1134.27,-163.49C991.38,-154.79 688.32,-135 584.5,-118 575.68,-116.56 566.4,-114.62 557.44,-112.52"/>
<polygon fill="#63b8ff" stroke="#63b8ff" points="1134.09,-166.99 1144.28,-164.1 1134.51,-160 1134.09,-166.99"/>
</a>
</g>
</g>
<!-- Node23 -->
<g id="Node000023" class="node">
<title>Node23</title>
<g id="a_Node000023"><a xlink:href="../../d5/d4d/http__handler__flatbuf__base_8hpp.html" target="_top" xlink:title="Convenient base for handlers that accept requests with body in Flatbuffer format and respond with bod...">
<polygon fill="white" stroke="#666666" points="725.5,-118 593.5,-118 593.5,-77 725.5,-77 725.5,-118"/>
<text text-anchor="start" x="601.5" y="-106" font-family="Helvetica,sans-Serif" font-size="10.00">userver/server/handlers</text>
<text text-anchor="start" x="601.5" y="-95" font-family="Helvetica,sans-Serif" font-size="10.00">/http_handler_flatbuf</text>
<text text-anchor="middle" x="659.5" y="-84" font-family="Helvetica,sans-Serif" font-size="10.00">_base.hpp</text>
</a>
</g>
</g>
<!-- Node20&#45;&gt;Node23 -->
<g id="edge26_Node000020_Node000023" class="edge">
<title>Node20&#45;&gt;Node23</title>
<g id="a_edge26_Node000020_Node000023"><a xlink:title=" ">
<path fill="none" stroke="#63b8ff" d="M1134.19,-163.52C1039.76,-157.16 874.32,-143.37 734.5,-118 731.59,-117.47 728.62,-116.89 725.63,-116.27"/>
<polygon fill="#63b8ff" stroke="#63b8ff" points="1134.01,-167.01 1144.22,-164.18 1134.48,-160.03 1134.01,-167.01"/>
</a>
</g>
</g>
<!-- Node24 -->
<g id="Node000024" class="node">
<title>Node24</title>
<g id="a_Node000024"><a xlink:href="../../d1/d58/http__handler__json__base_8hpp.html" target="_top" xlink:title="Convenient base for handlers that accept requests with body in JSON format and respond with body in J...">
<polygon fill="white" stroke="#666666" points="899.5,-112.5 743.5,-112.5 743.5,-82.5 899.5,-82.5 899.5,-112.5"/>
<text text-anchor="start" x="751.5" y="-100.5" font-family="Helvetica,sans-Serif" font-size="10.00">userver/server/handlers</text>
<text text-anchor="middle" x="821.5" y="-89.5" font-family="Helvetica,sans-Serif" font-size="10.00">/http_handler_json_base.hpp</text>
</a>
</g>
</g>
<!-- Node20&#45;&gt;Node24 -->
<g id="edge27_Node000020_Node000024" class="edge">
<title>Node20&#45;&gt;Node24</title>
<g id="a_edge27_Node000020_Node000024"><a xlink:title=" ">
<path fill="none" stroke="#63b8ff" d="M1134.36,-156.61C1073.17,-147.17 985.09,-132.91 908.5,-118 899.99,-116.34 891.04,-114.48 882.25,-112.58"/>
<polygon fill="#63b8ff" stroke="#63b8ff" points="1133.91,-160.08 1144.33,-158.14 1134.97,-153.16 1133.91,-160.08"/>
</a>
</g>
</g>
<!-- Node28 -->
<g id="Node000028" class="node">
<title>Node28</title>
<g id="a_Node000028"><a xlink:href="../../dd/db6/http__handler__static_8hpp.html" target="_top" xlink:title="Handler that returns HTTP 200 if file exist and returns file data with mapped content/type.">
<polygon fill="white" stroke="#666666" points="1051.5,-112.5 917.5,-112.5 917.5,-82.5 1051.5,-82.5 1051.5,-112.5"/>
<text text-anchor="start" x="925.5" y="-100.5" font-family="Helvetica,sans-Serif" font-size="10.00">userver/server/handlers</text>
<text text-anchor="middle" x="984.5" y="-89.5" font-family="Helvetica,sans-Serif" font-size="10.00">/http_handler_static.hpp</text>
</a>
</g>
</g>
<!-- Node20&#45;&gt;Node28 -->
<g id="edge31_Node000020_Node000028" class="edge">
<title>Node20&#45;&gt;Node28</title>
<g id="a_edge31_Node000020_Node000028"><a xlink:title=" ">
<path fill="none" stroke="#63b8ff" d="M1154.79,-150.87C1116.45,-139.08 1066.14,-123.61 1030.17,-112.54"/>
<polygon fill="#63b8ff" stroke="#63b8ff" points="1154.18,-154.34 1164.77,-153.94 1156.24,-147.65 1154.18,-154.34"/>
</a>
</g>
</g>
<!-- Node29 -->
<g id="Node000029" class="node">
<title>Node29</title>
<g id="a_Node000029"><a xlink:href="../../d7/db3/implicit__options_8hpp.html" target="_top" xlink:title="A &quot;magical&quot; handler that will respond to OPTIONS HTTP method for any other handler that cannot handle...">
<polygon fill="white" stroke="#666666" points="1201.5,-112.5 1069.5,-112.5 1069.5,-82.5 1201.5,-82.5 1201.5,-112.5"/>
<text text-anchor="start" x="1077.5" y="-100.5" font-family="Helvetica,sans-Serif" font-size="10.00">userver/server/handlers</text>
<text text-anchor="middle" x="1135.5" y="-89.5" font-family="Helvetica,sans-Serif" font-size="10.00">/implicit_options.hpp</text>
</a>
</g>
</g>
<!-- Node20&#45;&gt;Node29 -->
<g id="edge32_Node000020_Node000029" class="edge">
<title>Node20&#45;&gt;Node29</title>
<g id="a_edge32_Node000020_Node000029"><a xlink:title=" ">
<path fill="none" stroke="#63b8ff" d="M1187.83,-146.99C1175.79,-135.84 1161.32,-122.43 1150.65,-112.54"/>
<polygon fill="#63b8ff" stroke="#63b8ff" points="1185.61,-149.71 1195.32,-153.94 1190.37,-144.57 1185.61,-149.71"/>
</a>
</g>
</g>
<!-- Node30 -->
<g id="Node000030" class="node">
<title>Node30</title>
<g id="a_Node000030"><a xlink:href="../../d5/d86/jemalloc_8hpp.html" target="_top" xlink:title="Handler that controls the jemalloc allocator.">
<polygon fill="white" stroke="#666666" points="1351.5,-112.5 1219.5,-112.5 1219.5,-82.5 1351.5,-82.5 1351.5,-112.5"/>
<text text-anchor="start" x="1227.5" y="-100.5" font-family="Helvetica,sans-Serif" font-size="10.00">userver/server/handlers</text>
<text text-anchor="middle" x="1285.5" y="-89.5" font-family="Helvetica,sans-Serif" font-size="10.00">/jemalloc.hpp</text>
</a>
</g>
</g>
<!-- Node20&#45;&gt;Node30 -->
<g id="edge33_Node000020_Node000030" class="edge">
<title>Node20&#45;&gt;Node30</title>
<g id="a_edge33_Node000020_Node000030"><a xlink:title=" ">
<path fill="none" stroke="#63b8ff" d="M1233.17,-146.99C1245.21,-135.84 1259.68,-122.43 1270.35,-112.54"/>
<polygon fill="#63b8ff" stroke="#63b8ff" points="1230.63,-144.57 1225.68,-153.94 1235.39,-149.71 1230.63,-144.57"/>
</a>
</g>
</g>
<!-- Node31 -->
<g id="Node000031" class="node">
<title>Node31</title>
<g id="a_Node000031"><a xlink:href="../../d0/d01/log__level_8hpp.html" target="_top" xlink:title="Handler that controls logging levels of all the loggers.">
<polygon fill="white" stroke="#666666" points="1501.5,-112.5 1369.5,-112.5 1369.5,-82.5 1501.5,-82.5 1501.5,-112.5"/>
<text text-anchor="start" x="1377.5" y="-100.5" font-family="Helvetica,sans-Serif" font-size="10.00">userver/server/handlers</text>
<text text-anchor="middle" x="1435.5" y="-89.5" font-family="Helvetica,sans-Serif" font-size="10.00">/log_level.hpp</text>
</a>
</g>
</g>
<!-- Node20&#45;&gt;Node31 -->
<g id="edge34_Node000020_Node000031" class="edge">
<title>Node20&#45;&gt;Node31</title>
<g id="a_edge34_Node000020_Node000031"><a xlink:title=" ">
<path fill="none" stroke="#63b8ff" d="M1265.96,-150.87C1304.13,-139.08 1354.22,-123.61 1390.04,-112.54"/>
<polygon fill="#63b8ff" stroke="#63b8ff" points="1264.55,-147.64 1256.03,-153.94 1266.62,-154.33 1264.55,-147.64"/>
</a>
</g>
</g>
<!-- Node32 -->
<g id="Node000032" class="node">
<title>Node32</title>
<g id="a_Node000032"><a xlink:href="../../d7/d72/on__log__rotate_8hpp.html" target="_top" xlink:title="Handler that controls logging levels of all the loggers.">
<polygon fill="white" stroke="#666666" points="1651.5,-112.5 1519.5,-112.5 1519.5,-82.5 1651.5,-82.5 1651.5,-112.5"/>
<text text-anchor="start" x="1527.5" y="-100.5" font-family="Helvetica,sans-Serif" font-size="10.00">userver/server/handlers</text>
<text text-anchor="middle" x="1585.5" y="-89.5" font-family="Helvetica,sans-Serif" font-size="10.00">/on_log_rotate.hpp</text>
</a>
</g>
</g>
<!-- Node20&#45;&gt;Node32 -->
<g id="edge35_Node000020_Node000032" class="edge">
<title>Node20&#45;&gt;Node32</title>
<g id="a_edge35_Node000020_Node000032"><a xlink:title=" ">
<path fill="none" stroke="#63b8ff" d="M1286.57,-157.24C1347.42,-148.17 1434.79,-134.12 1510.5,-118 1518.13,-116.38 1526.16,-114.49 1534,-112.53"/>
<polygon fill="#63b8ff" stroke="#63b8ff" points="1286.04,-153.78 1276.66,-158.71 1287.06,-160.7 1286.04,-153.78"/>
</a>
</g>
</g>
<!-- Node33 -->
<g id="Node000033" class="node">
<title>Node33</title>
<g id="a_Node000033"><a xlink:href="../../d8/d39/ping_8hpp.html" target="_top" xlink:title="Handler that returns HTTP 200 if the service is OK and able to process requests.">
<polygon fill="white" stroke="#666666" points="1801.5,-112.5 1669.5,-112.5 1669.5,-82.5 1801.5,-82.5 1801.5,-112.5"/>
<text text-anchor="start" x="1677.5" y="-100.5" font-family="Helvetica,sans-Serif" font-size="10.00">userver/server/handlers</text>
<text text-anchor="middle" x="1735.5" y="-89.5" font-family="Helvetica,sans-Serif" font-size="10.00">/ping.hpp</text>
</a>
</g>
</g>
<!-- Node20&#45;&gt;Node33 -->
<g id="edge36_Node000020_Node000033" class="edge">
<title>Node20&#45;&gt;Node33</title>
<g id="a_edge36_Node000020_Node000033"><a xlink:title=" ">
<path fill="none" stroke="#63b8ff" d="M1286.62,-162.9C1376.5,-156.1 1530.24,-142.04 1660.5,-118 1668.7,-116.49 1677.33,-114.56 1685.7,-112.51"/>
<polygon fill="#63b8ff" stroke="#63b8ff" points="1286.23,-159.41 1276.52,-163.65 1286.75,-166.4 1286.23,-159.41"/>
</a>
</g>
</g>
<!-- Node34 -->
<g id="Node000034" class="node">
<title>Node34</title>
<g id="a_Node000034"><a xlink:href="../../de/d18/server__monitor_8hpp.html" target="_top" xlink:title="Handler that returns statistics data.">
<polygon fill="white" stroke="#666666" points="1951.5,-112.5 1819.5,-112.5 1819.5,-82.5 1951.5,-82.5 1951.5,-112.5"/>
<text text-anchor="start" x="1827.5" y="-100.5" font-family="Helvetica,sans-Serif" font-size="10.00">userver/server/handlers</text>
<text text-anchor="middle" x="1885.5" y="-89.5" font-family="Helvetica,sans-Serif" font-size="10.00">/server_monitor.hpp</text>
</a>
</g>
</g>
<!-- Node20&#45;&gt;Node34 -->
<g id="edge37_Node000020_Node000034" class="edge">
<title>Node20&#45;&gt;Node34</title>
<g id="a_edge37_Node000020_Node000034"><a xlink:title=" ">
<path fill="none" stroke="#63b8ff" d="M1286.73,-165.82C1401.19,-161.62 1623.96,-149.78 1810.5,-118 1818.99,-116.55 1827.92,-114.61 1836.54,-112.51"/>
<polygon fill="#63b8ff" stroke="#63b8ff" points="1286.53,-162.33 1276.66,-166.18 1286.78,-169.32 1286.53,-162.33"/>
</a>
</g>
</g>
<!-- Node35 -->
<g id="Node000035" class="node">
<title>Node35</title>
<g id="a_Node000035"><a xlink:href="../../d8/d82/core_2include_2userver_2server_2server_8hpp_source.html" target="_top" xlink:title=" ">
<polygon fill="white" stroke="#666666" points="2111,-107 1970,-107 1970,-88 2111,-88 2111,-107"/>
<text text-anchor="middle" x="2040.5" y="-95" font-family="Helvetica,sans-Serif" font-size="10.00">userver/server/server.hpp</text>
</a>
</g>
</g>
<!-- Node20&#45;&gt;Node35 -->
<g id="edge38_Node000020_Node000035" class="edge">
<title>Node20&#45;&gt;Node35</title>
<g id="a_edge38_Node000020_Node000035"><a xlink:title=" ">
<path fill="none" stroke="#63b8ff" d="M1286.95,-167.25C1423.13,-164.94 1716.32,-155.61 1960.5,-118 1977.31,-115.41 1995.78,-111.01 2010.73,-107.05"/>
<polygon fill="#63b8ff" stroke="#63b8ff" points="1286.57,-163.75 1276.63,-167.41 1286.68,-170.75 1286.57,-163.75"/>
</a>
</g>
</g>
<!-- Node25 -->
<g id="Node000025" class="node">
<title>Node25</title>
<g id="a_Node000025"><a xlink:href="../../d5/ded/handler_8hpp_source.html" target="_top" xlink:title=" ">
<polygon fill="white" stroke="#666666" points="737.5,-30 593.5,-30 593.5,-11 737.5,-11 737.5,-30"/>
<text text-anchor="middle" x="665.5" y="-18" font-family="Helvetica,sans-Serif" font-size="10.00">userver/alerts/handler.hpp</text>
</a>
</g>
</g>
<!-- Node24&#45;&gt;Node25 -->
<g id="edge28_Node000024_Node000025" class="edge">
<title>Node24&#45;&gt;Node25</title>
<g id="a_edge28_Node000024_Node000025"><a xlink:title=" ">
<path fill="none" stroke="#63b8ff" d="M783.14,-78.06C751.4,-62.8 707.73,-41.8 683.52,-30.16"/>
<polygon fill="#63b8ff" stroke="#63b8ff" points="781.63,-81.21 792.16,-82.39 784.66,-74.91 781.63,-81.21"/>
</a>
</g>
</g>
<!-- Node26 -->
<g id="Node000026" class="node">
<title>Node26</title>
<g id="a_Node000026"><a xlink:href="../../d7/d79/inspect__requests_8hpp.html" target="_top" xlink:title="Handler that returns information about all in&#45;flight requests.">
<polygon fill="white" stroke="#666666" points="887.5,-35.5 755.5,-35.5 755.5,-5.5 887.5,-5.5 887.5,-35.5"/>
<text text-anchor="start" x="763.5" y="-23.5" font-family="Helvetica,sans-Serif" font-size="10.00">userver/server/handlers</text>
<text text-anchor="middle" x="821.5" y="-12.5" font-family="Helvetica,sans-Serif" font-size="10.00">/inspect_requests.hpp</text>
</a>
</g>
</g>
<!-- Node24&#45;&gt;Node26 -->
<g id="edge29_Node000024_Node000026" class="edge">
<title>Node24&#45;&gt;Node26</title>
<g id="a_edge29_Node000024_Node000026"><a xlink:title=" ">
<path fill="none" stroke="#63b8ff" d="M821.5,-72.04C821.5,-59.95 821.5,-45.79 821.5,-35.54"/>
<polygon fill="#63b8ff" stroke="#63b8ff" points="818,-72.39 821.5,-82.39 825,-72.39 818,-72.39"/>
</a>
</g>
</g>
<!-- Node27 -->
<g id="Node000027" class="node">
<title>Node27</title>
<g id="a_Node000027"><a xlink:href="../../d6/d43/tests__control_8hpp.html" target="_top" xlink:title="Handler that allows to control the behavior of server from tests, and functional tests with testsuite...">
<polygon fill="white" stroke="#666666" points="1037.5,-35.5 905.5,-35.5 905.5,-5.5 1037.5,-5.5 1037.5,-35.5"/>
<text text-anchor="start" x="913.5" y="-23.5" font-family="Helvetica,sans-Serif" font-size="10.00">userver/server/handlers</text>
<text text-anchor="middle" x="971.5" y="-12.5" font-family="Helvetica,sans-Serif" font-size="10.00">/tests_control.hpp</text>
</a>
</g>
</g>
<!-- Node24&#45;&gt;Node27 -->
<g id="edge30_Node000024_Node000027" class="edge">
<title>Node24&#45;&gt;Node27</title>
<g id="a_edge30_Node000024_Node000027"><a xlink:title=" ">
<path fill="none" stroke="#63b8ff" d="M858.96,-77.77C885.15,-64.68 919.57,-47.47 943.41,-35.54"/>
<polygon fill="#63b8ff" stroke="#63b8ff" points="857.09,-74.79 849.71,-82.39 860.22,-81.05 857.09,-74.79"/>
</a>
</g>
</g>
<!-- Node36 -->
<g id="Node000036" class="node">
<title>Node36</title>
<g id="a_Node000036"><a xlink:href="../../d3/ddd/core_2include_2userver_2server_2component_8hpp.html" target="_top" xlink:title="Component that listens for incoming requests, manages incoming connections and passes the requests to...">
<polygon fill="white" stroke="#666666" points="2123.5,-30 1957.5,-30 1957.5,-11 2123.5,-11 2123.5,-30"/>
<text text-anchor="middle" x="2040.5" y="-18" font-family="Helvetica,sans-Serif" font-size="10.00">userver/server/component.hpp</text>
</a>
</g>
</g>
<!-- Node35&#45;&gt;Node36 -->
<g id="edge39_Node000035_Node000036" class="edge">
<title>Node35&#45;&gt;Node36</title>
<g id="a_edge39_Node000035_Node000036"><a xlink:title=" ">
<path fill="none" stroke="#63b8ff" d="M2040.5,-77.52C2040.5,-62.24 2040.5,-41.48 2040.5,-30"/>
<polygon fill="#63b8ff" stroke="#63b8ff" points="2037,-77.9 2040.5,-87.9 2044,-77.9 2037,-77.9"/>
</a>
</g>
</g>
</g>
</svg>
