<?xml version="1.0" encoding="UTF-8" standalone="no"?>
<!DOCTYPE svg PUBLIC "-//W3C//DTD SVG 1.1//EN"
 "http://www.w3.org/Graphics/SVG/1.1/DTD/svg11.dtd">
<!-- Generated by graphviz version 2.43.0 (0)
 -->
<!-- Title: pytest_userver.plugins.log_capture.BaseError Pages: 1 -->
<svg width="484pt" height="86pt"
 viewBox="0.00 0.00 484.00 86.00" xmlns="http://www.w3.org/2000/svg" xmlns:xlink="http://www.w3.org/1999/xlink">
<g id="graph0" class="graph" transform="scale(1 1) rotate(0) translate(4 82)">
<title>pytest_userver.plugins.log_capture.BaseError</title>
<!-- Node1 -->
<g id="Node000001" class="node">
<title>Node1</title>
<g id="a_Node000001"><a xlink:title=" ">
<polygon fill="#999999" stroke="#666666" points="246,-54 101,-54 101,-24 246,-24 246,-54"/>
<text text-anchor="start" x="109" y="-42" font-family="Helvetica,sans-Serif" font-size="10.00">pytest_userver.plugins.log</text>
<text text-anchor="middle" x="173.5" y="-31" font-family="Helvetica,sans-Serif" font-size="10.00">_capture.BaseError</text>
</a>
</g>
</g>
<!-- Node3 -->
<g id="Node000003" class="node">
<title>Node3</title>
<g id="a_Node000003"><a xlink:href="../../d9/df2/classpytest__userver_1_1plugins_1_1log__capture_1_1ClientConnectTimeoutError.html" target="_top" xlink:title=" ">
<polygon fill="white" stroke="#bfbfbf" points="476,-78 282,-78 282,-48 476,-48 476,-78"/>
<text text-anchor="start" x="290" y="-66" font-family="Helvetica,sans-Serif" font-size="10.00">pytest_userver.plugins.log</text>
<text text-anchor="middle" x="379" y="-55" font-family="Helvetica,sans-Serif" font-size="10.00">_capture.ClientConnectTimeoutError</text>
</a>
</g>
</g>
<!-- Node1&#45;&gt;Node3 -->
<g id="edge2_Node000001_Node000003" class="edge">
<title>Node1&#45;&gt;Node3</title>
<g id="a_edge2_Node000001_Node000003"><a xlink:title=" ">
<path fill="none" stroke="#63b8ff" d="M256.39,-48.66C264.8,-49.65 273.4,-50.66 281.95,-51.67"/>
<polygon fill="#63b8ff" stroke="#63b8ff" points="256.59,-45.16 246.25,-47.46 255.77,-52.11 256.59,-45.16"/>
</a>
</g>
</g>
<!-- Node4 -->
<g id="Node000004" class="node">
<title>Node4</title>
<g id="a_Node000004"><a xlink:href="../../d3/dab/classpytest__userver_1_1plugins_1_1log__capture_1_1IncorrectUsageError.html" target="_top" xlink:title=" ">
<polygon fill="white" stroke="#bfbfbf" points="458,-30 300,-30 300,0 458,0 458,-30"/>
<text text-anchor="start" x="308" y="-18" font-family="Helvetica,sans-Serif" font-size="10.00">pytest_userver.plugins.log</text>
<text text-anchor="middle" x="379" y="-7" font-family="Helvetica,sans-Serif" font-size="10.00">_capture.IncorrectUsageError</text>
</a>
</g>
</g>
<!-- Node1&#45;&gt;Node4 -->
<g id="edge3_Node000001_Node000004" class="edge">
<title>Node1&#45;&gt;Node4</title>
<g id="a_edge3_Node000001_Node000004"><a xlink:title=" ">
<path fill="none" stroke="#63b8ff" d="M256.57,-29.32C270.9,-27.63 285.77,-25.88 299.99,-24.2"/>
<polygon fill="#63b8ff" stroke="#63b8ff" points="255.77,-25.89 246.25,-30.54 256.59,-32.84 255.77,-25.89"/>
</a>
</g>
</g>
<!-- Node2 -->
<g id="Node000002" class="node">
<title>Node2</title>
<g id="a_Node000002"><a xlink:title=" ">
<polygon fill="white" stroke="#bfbfbf" points="65,-48.5 0,-48.5 0,-29.5 65,-29.5 65,-48.5"/>
<text text-anchor="middle" x="32.5" y="-36.5" font-family="Helvetica,sans-Serif" font-size="10.00">Exception</text>
</a>
</g>
</g>
<!-- Node2&#45;&gt;Node1 -->
<g id="edge1_Node000001_Node000002" class="edge">
<title>Node2&#45;&gt;Node1</title>
<g id="a_edge1_Node000001_Node000002"><a xlink:title=" ">
<path fill="none" stroke="#63b8ff" d="M75.29,-39C83.39,-39 92.08,-39 100.82,-39"/>
<polygon fill="#63b8ff" stroke="#63b8ff" points="75.04,-35.5 65.04,-39 75.04,-42.5 75.04,-35.5"/>
</a>
</g>
</g>
</g>
</svg>
