<?xml version="1.0" encoding="UTF-8" standalone="no"?>
<!DOCTYPE svg PUBLIC "-//W3C//DTD SVG 1.1//EN"
 "http://www.w3.org/Graphics/SVG/1.1/DTD/svg11.dtd">
<!-- Generated by graphviz version 2.43.0 (0)
 -->
<!-- Title: userver/http/content_type.hpp Pages: 1 -->
<svg width="2432pt" height="401pt"
 viewBox="0.00 0.00 2432.00 401.00" xmlns="http://www.w3.org/2000/svg" xmlns:xlink="http://www.w3.org/1999/xlink">
<g id="graph0" class="graph" transform="scale(1 1) rotate(0) translate(4 397)">
<title>userver/http/content_type.hpp</title>
<!-- Node1 -->
<g id="Node000001" class="node">
<title>Node1</title>
<g id="a_Node000001"><a xlink:title="Content&#45;Type representation.">
<polygon fill="#999999" stroke="#666666" points="723,-393 607,-393 607,-363 723,-363 723,-393"/>
<text text-anchor="start" x="615" y="-381" font-family="Helvetica,sans-Serif" font-size="10.00">userver/http/content</text>
<text text-anchor="middle" x="665" y="-370" font-family="Helvetica,sans-Serif" font-size="10.00">_type.hpp</text>
</a>
</g>
</g>
<!-- Node2 -->
<g id="Node000002" class="node">
<title>Node2</title>
<g id="a_Node000002"><a xlink:href="../../de/db6/formatted__error__data_8hpp_source.html" target="_top" xlink:title=" ">
<polygon fill="white" stroke="#666666" points="1182.5,-255.5 1037.5,-255.5 1037.5,-225.5 1182.5,-225.5 1182.5,-255.5"/>
<text text-anchor="start" x="1045.5" y="-243.5" font-family="Helvetica,sans-Serif" font-size="10.00">userver/server/handlers</text>
<text text-anchor="middle" x="1110" y="-232.5" font-family="Helvetica,sans-Serif" font-size="10.00">/formatted_error_data.hpp</text>
</a>
</g>
</g>
<!-- Node1&#45;&gt;Node2 -->
<g id="edge1_Node000001_Node000002" class="edge">
<title>Node1&#45;&gt;Node2</title>
<g id="a_edge1_Node000001_Node000002"><a xlink:title=" ">
<path fill="none" stroke="#63b8ff" d="M725.74,-360.25C759.71,-350.75 802.8,-338.5 841,-327 921.24,-302.86 1014.31,-272.82 1067.26,-255.53"/>
<polygon fill="#63b8ff" stroke="#63b8ff" points="724.64,-356.92 715.95,-362.97 726.53,-363.66 724.64,-356.92"/>
</a>
</g>
</g>
<!-- Node21 -->
<g id="Node000021" class="node">
<title>Node21</title>
<g id="a_Node000021"><a xlink:href="../../d3/d0e/json__error__builder_8hpp_source.html" target="_top" xlink:title=" ">
<polygon fill="white" stroke="#666666" points="648,-327 516,-327 516,-297 648,-297 648,-327"/>
<text text-anchor="start" x="524" y="-315" font-family="Helvetica,sans-Serif" font-size="10.00">userver/server/handlers</text>
<text text-anchor="middle" x="582" y="-304" font-family="Helvetica,sans-Serif" font-size="10.00">/json_error_builder.hpp</text>
</a>
</g>
</g>
<!-- Node1&#45;&gt;Node21 -->
<g id="edge20_Node000001_Node000021" class="edge">
<title>Node1&#45;&gt;Node21</title>
<g id="a_edge20_Node000001_Node000021"><a xlink:title=" ">
<path fill="none" stroke="#63b8ff" d="M638.39,-356.48C625.98,-346.91 611.53,-335.77 600.37,-327.16"/>
<polygon fill="#63b8ff" stroke="#63b8ff" points="636.52,-359.46 646.58,-362.8 640.8,-353.92 636.52,-359.46"/>
</a>
</g>
</g>
<!-- Node22 -->
<g id="Node000022" class="node">
<title>Node22</title>
<g id="a_Node000022"><a xlink:href="../../db/d08/legacy__json__error__builder_8hpp_source.html" target="_top" xlink:title=" ">
<polygon fill="white" stroke="#666666" points="831.5,-327 666.5,-327 666.5,-297 831.5,-297 831.5,-327"/>
<text text-anchor="start" x="674.5" y="-315" font-family="Helvetica,sans-Serif" font-size="10.00">userver/server/handlers</text>
<text text-anchor="middle" x="749" y="-304" font-family="Helvetica,sans-Serif" font-size="10.00">/legacy_json_error_builder.hpp</text>
</a>
</g>
</g>
<!-- Node1&#45;&gt;Node22 -->
<g id="edge21_Node000001_Node000022" class="edge">
<title>Node1&#45;&gt;Node22</title>
<g id="a_edge21_Node000001_Node000022"><a xlink:title=" ">
<path fill="none" stroke="#63b8ff" d="M691.94,-356.48C704.49,-346.91 719.11,-335.77 730.41,-327.16"/>
<polygon fill="#63b8ff" stroke="#63b8ff" points="689.48,-353.95 683.64,-362.8 693.72,-359.52 689.48,-353.95"/>
</a>
</g>
</g>
<!-- Node23 -->
<g id="Node000023" class="node">
<title>Node23</title>
<g id="a_Node000023"><a xlink:href="../../db/d6b/http__response_8hpp.html" target="_top" xlink:title="HTTP Response data.">
<polygon fill="white" stroke="#666666" points="424,-327 314,-327 314,-297 424,-297 424,-327"/>
<text text-anchor="start" x="322" y="-315" font-family="Helvetica,sans-Serif" font-size="10.00">userver/server/http</text>
<text text-anchor="middle" x="369" y="-304" font-family="Helvetica,sans-Serif" font-size="10.00">/http_response.hpp</text>
</a>
</g>
</g>
<!-- Node1&#45;&gt;Node23 -->
<g id="edge22_Node000001_Node000023" class="edge">
<title>Node1&#45;&gt;Node23</title>
<g id="a_edge22_Node000001_Node000023"><a xlink:title=" ">
<path fill="none" stroke="#63b8ff" d="M597.01,-362.3C544.72,-350.99 473.37,-335.57 424.49,-325"/>
<polygon fill="#63b8ff" stroke="#63b8ff" points="596.36,-365.74 606.87,-364.43 597.84,-358.9 596.36,-365.74"/>
</a>
</g>
</g>
<!-- Node3 -->
<g id="Node000003" class="node">
<title>Node3</title>
<g id="a_Node000003"><a xlink:href="../../d4/df6/http__handler__base_8hpp.html" target="_top" xlink:title="Base class for all the Userver HTTP Handlers.">
<polygon fill="white" stroke="#666666" points="1257,-184 1125,-184 1125,-154 1257,-154 1257,-184"/>
<text text-anchor="start" x="1133" y="-172" font-family="Helvetica,sans-Serif" font-size="10.00">userver/server/handlers</text>
<text text-anchor="middle" x="1191" y="-161" font-family="Helvetica,sans-Serif" font-size="10.00">/http_handler_base.hpp</text>
</a>
</g>
</g>
<!-- Node2&#45;&gt;Node3 -->
<g id="edge2_Node000002_Node000003" class="edge">
<title>Node2&#45;&gt;Node3</title>
<g id="a_edge2_Node000002_Node000003"><a xlink:title=" ">
<path fill="none" stroke="#63b8ff" d="M1134.12,-218.81C1147.19,-207.59 1163,-194.02 1174.63,-184.04"/>
<polygon fill="#63b8ff" stroke="#63b8ff" points="1131.7,-216.27 1126.39,-225.44 1136.26,-221.58 1131.7,-216.27"/>
</a>
</g>
</g>
<!-- Node4 -->
<g id="Node000004" class="node">
<title>Node4</title>
<g id="a_Node000004"><a xlink:href="../../d6/d0d/dns__client__control_8hpp.html" target="_top" xlink:title="Handlers that controls the DNS client.">
<polygon fill="white" stroke="#666666" points="1792,-112.5 1660,-112.5 1660,-82.5 1792,-82.5 1792,-112.5"/>
<text text-anchor="start" x="1668" y="-100.5" font-family="Helvetica,sans-Serif" font-size="10.00">userver/server/handlers</text>
<text text-anchor="middle" x="1726" y="-89.5" font-family="Helvetica,sans-Serif" font-size="10.00">/dns_client_control.hpp</text>
</a>
</g>
</g>
<!-- Node3&#45;&gt;Node4 -->
<g id="edge3_Node000003_Node000004" class="edge">
<title>Node3&#45;&gt;Node4</title>
<g id="a_edge3_Node000003_Node000004"><a xlink:title=" ">
<path fill="none" stroke="#63b8ff" d="M1267.35,-163.13C1359.02,-156.5 1517.15,-142.54 1651,-118 1659.2,-116.5 1667.83,-114.58 1676.2,-112.53"/>
<polygon fill="#63b8ff" stroke="#63b8ff" points="1267.06,-159.64 1257.33,-163.85 1267.55,-166.62 1267.06,-159.64"/>
</a>
</g>
</g>
<!-- Node5 -->
<g id="Node000005" class="node">
<title>Node5</title>
<g id="a_Node000005"><a xlink:href="../../d6/dc0/dynamic__debug__log_8hpp.html" target="_top" xlink:title="HTTP Handler to show/hide logs at the specific file:line.">
<polygon fill="white" stroke="#666666" points="1948,-112.5 1810,-112.5 1810,-82.5 1948,-82.5 1948,-112.5"/>
<text text-anchor="start" x="1818" y="-100.5" font-family="Helvetica,sans-Serif" font-size="10.00">userver/server/handlers</text>
<text text-anchor="middle" x="1879" y="-89.5" font-family="Helvetica,sans-Serif" font-size="10.00">/dynamic_debug_log.hpp</text>
</a>
</g>
</g>
<!-- Node3&#45;&gt;Node5 -->
<g id="edge4_Node000003_Node000005" class="edge">
<title>Node3&#45;&gt;Node5</title>
<g id="a_edge4_Node000003_Node000005"><a xlink:title=" ">
<path fill="none" stroke="#63b8ff" d="M1267.53,-165.73C1383.57,-161.39 1610.69,-149.37 1801,-118 1809.81,-116.55 1819.1,-114.6 1828.06,-112.5"/>
<polygon fill="#63b8ff" stroke="#63b8ff" points="1267.19,-162.24 1257.33,-166.1 1267.45,-169.24 1267.19,-162.24"/>
</a>
</g>
</g>
<!-- Node6 -->
<g id="Node000006" class="node">
<title>Node6</title>
<g id="a_Node000006"><a xlink:href="../../d5/d4d/http__handler__flatbuf__base_8hpp.html" target="_top" xlink:title="Convenient base for handlers that accept requests with body in Flatbuffer format and respond with bod...">
<polygon fill="white" stroke="#666666" points="2098,-118 1966,-118 1966,-77 2098,-77 2098,-118"/>
<text text-anchor="start" x="1974" y="-106" font-family="Helvetica,sans-Serif" font-size="10.00">userver/server/handlers</text>
<text text-anchor="start" x="1974" y="-95" font-family="Helvetica,sans-Serif" font-size="10.00">/http_handler_flatbuf</text>
<text text-anchor="middle" x="2032" y="-84" font-family="Helvetica,sans-Serif" font-size="10.00">_base.hpp</text>
</a>
</g>
</g>
<!-- Node3&#45;&gt;Node6 -->
<g id="edge5_Node000003_Node000006" class="edge">
<title>Node3&#45;&gt;Node6</title>
<g id="a_edge5_Node000003_Node000006"><a xlink:title=" ">
<path fill="none" stroke="#63b8ff" d="M1267.12,-167.78C1405.4,-166.33 1706.7,-158.34 1957,-118 1959.92,-117.53 1962.9,-117 1965.89,-116.41"/>
<polygon fill="#63b8ff" stroke="#63b8ff" points="1267.01,-164.28 1257.05,-167.88 1267.08,-171.28 1267.01,-164.28"/>
</a>
</g>
</g>
<!-- Node7 -->
<g id="Node000007" class="node">
<title>Node7</title>
<g id="a_Node000007"><a xlink:href="../../d1/d58/http__handler__json__base_8hpp.html" target="_top" xlink:title="Convenient base for handlers that accept requests with body in JSON format and respond with body in J...">
<polygon fill="white" stroke="#666666" points="2272,-112.5 2116,-112.5 2116,-82.5 2272,-82.5 2272,-112.5"/>
<text text-anchor="start" x="2124" y="-100.5" font-family="Helvetica,sans-Serif" font-size="10.00">userver/server/handlers</text>
<text text-anchor="middle" x="2194" y="-89.5" font-family="Helvetica,sans-Serif" font-size="10.00">/http_handler_json_base.hpp</text>
</a>
</g>
</g>
<!-- Node3&#45;&gt;Node7 -->
<g id="edge6_Node000003_Node000007" class="edge">
<title>Node3&#45;&gt;Node7</title>
<g id="a_edge6_Node000003_Node000007"><a xlink:title=" ">
<path fill="none" stroke="#63b8ff" d="M1267.24,-168.1C1424.85,-167.37 1797.68,-160.81 2107,-118 2116.97,-116.62 2127.48,-114.68 2137.62,-112.56"/>
<polygon fill="#63b8ff" stroke="#63b8ff" points="1267.16,-164.6 1257.17,-168.14 1267.19,-171.6 1267.16,-164.6"/>
</a>
</g>
</g>
<!-- Node11 -->
<g id="Node000011" class="node">
<title>Node11</title>
<g id="a_Node000011"><a xlink:href="../../dd/db6/http__handler__static_8hpp.html" target="_top" xlink:title="Handler that returns HTTP 200 if file exist and returns file data with mapped content/type.">
<polygon fill="white" stroke="#666666" points="2424,-112.5 2290,-112.5 2290,-82.5 2424,-82.5 2424,-112.5"/>
<text text-anchor="start" x="2298" y="-100.5" font-family="Helvetica,sans-Serif" font-size="10.00">userver/server/handlers</text>
<text text-anchor="middle" x="2357" y="-89.5" font-family="Helvetica,sans-Serif" font-size="10.00">/http_handler_static.hpp</text>
</a>
</g>
</g>
<!-- Node3&#45;&gt;Node11 -->
<g id="edge10_Node000003_Node000011" class="edge">
<title>Node3&#45;&gt;Node11</title>
<g id="a_edge10_Node000003_Node000011"><a xlink:title=" ">
<path fill="none" stroke="#63b8ff" d="M1267.32,-166.54C1481.46,-162.11 2085.03,-147.32 2281,-118 2289.89,-116.67 2299.25,-114.73 2308.24,-112.58"/>
<polygon fill="#63b8ff" stroke="#63b8ff" points="1267.04,-163.04 1257.12,-166.75 1267.19,-170.04 1267.04,-163.04"/>
</a>
</g>
</g>
<!-- Node12 -->
<g id="Node000012" class="node">
<title>Node12</title>
<g id="a_Node000012"><a xlink:href="../../d7/db3/implicit__options_8hpp.html" target="_top" xlink:title="A &quot;magical&quot; handler that will respond to OPTIONS HTTP method for any other handler that cannot handle...">
<polygon fill="white" stroke="#666666" points="732,-112.5 600,-112.5 600,-82.5 732,-82.5 732,-112.5"/>
<text text-anchor="start" x="608" y="-100.5" font-family="Helvetica,sans-Serif" font-size="10.00">userver/server/handlers</text>
<text text-anchor="middle" x="666" y="-89.5" font-family="Helvetica,sans-Serif" font-size="10.00">/implicit_options.hpp</text>
</a>
</g>
</g>
<!-- Node3&#45;&gt;Node12 -->
<g id="edge11_Node000003_Node000012" class="edge">
<title>Node3&#45;&gt;Node12</title>
<g id="a_edge11_Node000003_Node000012"><a xlink:title=" ">
<path fill="none" stroke="#63b8ff" d="M1114.88,-162.9C1025,-156.1 871.26,-142.04 741,-118 732.8,-116.49 724.17,-114.56 715.8,-112.51"/>
<polygon fill="#63b8ff" stroke="#63b8ff" points="1114.75,-166.4 1124.98,-163.65 1115.27,-159.41 1114.75,-166.4"/>
</a>
</g>
</g>
<!-- Node13 -->
<g id="Node000013" class="node">
<title>Node13</title>
<g id="a_Node000013"><a xlink:href="../../d5/d86/jemalloc_8hpp.html" target="_top" xlink:title="Handler that controls the jemalloc allocator.">
<polygon fill="white" stroke="#666666" points="882,-112.5 750,-112.5 750,-82.5 882,-82.5 882,-112.5"/>
<text text-anchor="start" x="758" y="-100.5" font-family="Helvetica,sans-Serif" font-size="10.00">userver/server/handlers</text>
<text text-anchor="middle" x="816" y="-89.5" font-family="Helvetica,sans-Serif" font-size="10.00">/jemalloc.hpp</text>
</a>
</g>
</g>
<!-- Node3&#45;&gt;Node13 -->
<g id="edge12_Node000003_Node000013" class="edge">
<title>Node3&#45;&gt;Node13</title>
<g id="a_edge12_Node000003_Node000013"><a xlink:title=" ">
<path fill="none" stroke="#63b8ff" d="M1114.93,-157.24C1054.08,-148.17 966.71,-134.12 891,-118 883.37,-116.38 875.34,-114.49 867.5,-112.53"/>
<polygon fill="#63b8ff" stroke="#63b8ff" points="1114.44,-160.7 1124.84,-158.71 1115.46,-153.78 1114.44,-160.7"/>
</a>
</g>
</g>
<!-- Node14 -->
<g id="Node000014" class="node">
<title>Node14</title>
<g id="a_Node000014"><a xlink:href="../../d0/d01/log__level_8hpp.html" target="_top" xlink:title="Handler that controls logging levels of all the loggers.">
<polygon fill="white" stroke="#666666" points="1032,-112.5 900,-112.5 900,-82.5 1032,-82.5 1032,-112.5"/>
<text text-anchor="start" x="908" y="-100.5" font-family="Helvetica,sans-Serif" font-size="10.00">userver/server/handlers</text>
<text text-anchor="middle" x="966" y="-89.5" font-family="Helvetica,sans-Serif" font-size="10.00">/log_level.hpp</text>
</a>
</g>
</g>
<!-- Node3&#45;&gt;Node14 -->
<g id="edge13_Node000003_Node000014" class="edge">
<title>Node3&#45;&gt;Node14</title>
<g id="a_edge13_Node000003_Node000014"><a xlink:title=" ">
<path fill="none" stroke="#63b8ff" d="M1135.54,-150.87C1097.37,-139.08 1047.28,-123.61 1011.46,-112.54"/>
<polygon fill="#63b8ff" stroke="#63b8ff" points="1134.88,-154.33 1145.47,-153.94 1136.95,-147.64 1134.88,-154.33"/>
</a>
</g>
</g>
<!-- Node15 -->
<g id="Node000015" class="node">
<title>Node15</title>
<g id="a_Node000015"><a xlink:href="../../d7/d72/on__log__rotate_8hpp.html" target="_top" xlink:title="Handler that controls logging levels of all the loggers.">
<polygon fill="white" stroke="#666666" points="1182,-112.5 1050,-112.5 1050,-82.5 1182,-82.5 1182,-112.5"/>
<text text-anchor="start" x="1058" y="-100.5" font-family="Helvetica,sans-Serif" font-size="10.00">userver/server/handlers</text>
<text text-anchor="middle" x="1116" y="-89.5" font-family="Helvetica,sans-Serif" font-size="10.00">/on_log_rotate.hpp</text>
</a>
</g>
</g>
<!-- Node3&#45;&gt;Node15 -->
<g id="edge14_Node000003_Node000015" class="edge">
<title>Node3&#45;&gt;Node15</title>
<g id="a_edge14_Node000003_Node000015"><a xlink:title=" ">
<path fill="none" stroke="#63b8ff" d="M1168.33,-146.99C1156.29,-135.84 1141.82,-122.43 1131.15,-112.54"/>
<polygon fill="#63b8ff" stroke="#63b8ff" points="1166.11,-149.71 1175.82,-153.94 1170.87,-144.57 1166.11,-149.71"/>
</a>
</g>
</g>
<!-- Node16 -->
<g id="Node000016" class="node">
<title>Node16</title>
<g id="a_Node000016"><a xlink:href="../../d8/d39/ping_8hpp.html" target="_top" xlink:title="Handler that returns HTTP 200 if the service is OK and able to process requests.">
<polygon fill="white" stroke="#666666" points="1332,-112.5 1200,-112.5 1200,-82.5 1332,-82.5 1332,-112.5"/>
<text text-anchor="start" x="1208" y="-100.5" font-family="Helvetica,sans-Serif" font-size="10.00">userver/server/handlers</text>
<text text-anchor="middle" x="1266" y="-89.5" font-family="Helvetica,sans-Serif" font-size="10.00">/ping.hpp</text>
</a>
</g>
</g>
<!-- Node3&#45;&gt;Node16 -->
<g id="edge15_Node000003_Node000016" class="edge">
<title>Node3&#45;&gt;Node16</title>
<g id="a_edge15_Node000003_Node000016"><a xlink:title=" ">
<path fill="none" stroke="#63b8ff" d="M1213.67,-146.99C1225.71,-135.84 1240.18,-122.43 1250.85,-112.54"/>
<polygon fill="#63b8ff" stroke="#63b8ff" points="1211.13,-144.57 1206.18,-153.94 1215.89,-149.71 1211.13,-144.57"/>
</a>
</g>
</g>
<!-- Node17 -->
<g id="Node000017" class="node">
<title>Node17</title>
<g id="a_Node000017"><a xlink:href="../../de/d18/server__monitor_8hpp.html" target="_top" xlink:title="Handler that returns statistics data.">
<polygon fill="white" stroke="#666666" points="1482,-112.5 1350,-112.5 1350,-82.5 1482,-82.5 1482,-112.5"/>
<text text-anchor="start" x="1358" y="-100.5" font-family="Helvetica,sans-Serif" font-size="10.00">userver/server/handlers</text>
<text text-anchor="middle" x="1416" y="-89.5" font-family="Helvetica,sans-Serif" font-size="10.00">/server_monitor.hpp</text>
</a>
</g>
</g>
<!-- Node3&#45;&gt;Node17 -->
<g id="edge16_Node000003_Node000017" class="edge">
<title>Node3&#45;&gt;Node17</title>
<g id="a_edge16_Node000003_Node000017"><a xlink:title=" ">
<path fill="none" stroke="#63b8ff" d="M1246.46,-150.87C1284.63,-139.08 1334.72,-123.61 1370.54,-112.54"/>
<polygon fill="#63b8ff" stroke="#63b8ff" points="1245.05,-147.64 1236.53,-153.94 1247.12,-154.33 1245.05,-147.64"/>
</a>
</g>
</g>
<!-- Node18 -->
<g id="Node000018" class="node">
<title>Node18</title>
<g id="a_Node000018"><a xlink:href="../../d8/d82/core_2include_2userver_2server_2server_8hpp_source.html" target="_top" xlink:title=" ">
<polygon fill="white" stroke="#666666" points="1641.5,-107 1500.5,-107 1500.5,-88 1641.5,-88 1641.5,-107"/>
<text text-anchor="middle" x="1571" y="-95" font-family="Helvetica,sans-Serif" font-size="10.00">userver/server/server.hpp</text>
</a>
</g>
</g>
<!-- Node3&#45;&gt;Node18 -->
<g id="edge17_Node000003_Node000018" class="edge">
<title>Node3&#45;&gt;Node18</title>
<g id="a_edge17_Node000003_Node000018"><a xlink:title=" ">
<path fill="none" stroke="#63b8ff" d="M1267,-156.92C1327.82,-147.68 1415.17,-133.54 1491,-118 1506.69,-114.79 1523.96,-110.65 1538.43,-107.02"/>
<polygon fill="#63b8ff" stroke="#63b8ff" points="1266.46,-153.46 1257.1,-158.42 1267.51,-160.39 1266.46,-153.46"/>
</a>
</g>
</g>
<!-- Node20 -->
<g id="Node000020" class="node">
<title>Node20</title>
<g id="a_Node000020"><a xlink:href="../../d4/d64/websocket__handler_8hpp.html" target="_top" xlink:title=" ">
<polygon fill="white" stroke="#666666" points="582,-112.5 440,-112.5 440,-82.5 582,-82.5 582,-112.5"/>
<text text-anchor="start" x="448" y="-100.5" font-family="Helvetica,sans-Serif" font-size="10.00">userver/server/websocket</text>
<text text-anchor="middle" x="511" y="-89.5" font-family="Helvetica,sans-Serif" font-size="10.00">/websocket_handler.hpp</text>
</a>
</g>
</g>
<!-- Node3&#45;&gt;Node20 -->
<g id="edge19_Node000003_Node000020" class="edge">
<title>Node3&#45;&gt;Node20</title>
<g id="a_edge19_Node000003_Node000020"><a xlink:title=" ">
<path fill="none" stroke="#63b8ff" d="M1114.83,-165.46C1000.45,-160.78 777.78,-148.36 591,-118 582.11,-116.56 572.75,-114.64 563.69,-112.57"/>
<polygon fill="#63b8ff" stroke="#63b8ff" points="1114.76,-168.96 1124.89,-165.86 1115.04,-161.96 1114.76,-168.96"/>
</a>
</g>
</g>
<!-- Node8 -->
<g id="Node000008" class="node">
<title>Node8</title>
<g id="a_Node000008"><a xlink:href="../../d5/ded/handler_8hpp_source.html" target="_top" xlink:title=" ">
<polygon fill="white" stroke="#666666" points="2266,-30 2122,-30 2122,-11 2266,-11 2266,-30"/>
<text text-anchor="middle" x="2194" y="-18" font-family="Helvetica,sans-Serif" font-size="10.00">userver/alerts/handler.hpp</text>
</a>
</g>
</g>
<!-- Node7&#45;&gt;Node8 -->
<g id="edge7_Node000007_Node000008" class="edge">
<title>Node7&#45;&gt;Node8</title>
<g id="a_edge7_Node000007_Node000008"><a xlink:title=" ">
<path fill="none" stroke="#63b8ff" d="M2194,-72.18C2194,-57.86 2194,-40.61 2194,-30.37"/>
<polygon fill="#63b8ff" stroke="#63b8ff" points="2190.5,-72.39 2194,-82.39 2197.5,-72.39 2190.5,-72.39"/>
</a>
</g>
</g>
<!-- Node9 -->
<g id="Node000009" class="node">
<title>Node9</title>
<g id="a_Node000009"><a xlink:href="../../d7/d79/inspect__requests_8hpp.html" target="_top" xlink:title="Handler that returns information about all in&#45;flight requests.">
<polygon fill="white" stroke="#666666" points="2416,-35.5 2284,-35.5 2284,-5.5 2416,-5.5 2416,-35.5"/>
<text text-anchor="start" x="2292" y="-23.5" font-family="Helvetica,sans-Serif" font-size="10.00">userver/server/handlers</text>
<text text-anchor="middle" x="2350" y="-12.5" font-family="Helvetica,sans-Serif" font-size="10.00">/inspect_requests.hpp</text>
</a>
</g>
</g>
<!-- Node7&#45;&gt;Node9 -->
<g id="edge8_Node000007_Node000009" class="edge">
<title>Node7&#45;&gt;Node9</title>
<g id="a_edge8_Node000007_Node000009"><a xlink:title=" ">
<path fill="none" stroke="#63b8ff" d="M2232.6,-77.94C2259.88,-64.83 2295.88,-47.52 2320.79,-35.54"/>
<polygon fill="#63b8ff" stroke="#63b8ff" points="2230.84,-74.91 2223.34,-82.39 2233.87,-81.21 2230.84,-74.91"/>
</a>
</g>
</g>
<!-- Node10 -->
<g id="Node000010" class="node">
<title>Node10</title>
<g id="a_Node000010"><a xlink:href="../../d6/d43/tests__control_8hpp.html" target="_top" xlink:title="Handler that allows to control the behavior of server from tests, and functional tests with testsuite...">
<polygon fill="white" stroke="#666666" points="2104,-35.5 1972,-35.5 1972,-5.5 2104,-5.5 2104,-35.5"/>
<text text-anchor="start" x="1980" y="-23.5" font-family="Helvetica,sans-Serif" font-size="10.00">userver/server/handlers</text>
<text text-anchor="middle" x="2038" y="-12.5" font-family="Helvetica,sans-Serif" font-size="10.00">/tests_control.hpp</text>
</a>
</g>
</g>
<!-- Node7&#45;&gt;Node10 -->
<g id="edge9_Node000007_Node000010" class="edge">
<title>Node7&#45;&gt;Node10</title>
<g id="a_edge9_Node000007_Node000010"><a xlink:title=" ">
<path fill="none" stroke="#63b8ff" d="M2155.4,-77.94C2128.12,-64.83 2092.12,-47.52 2067.21,-35.54"/>
<polygon fill="#63b8ff" stroke="#63b8ff" points="2154.13,-81.21 2164.66,-82.39 2157.16,-74.91 2154.13,-81.21"/>
</a>
</g>
</g>
<!-- Node19 -->
<g id="Node000019" class="node">
<title>Node19</title>
<g id="a_Node000019"><a xlink:href="../../d3/ddd/core_2include_2userver_2server_2component_8hpp.html" target="_top" xlink:title="Component that listens for incoming requests, manages incoming connections and passes the requests to...">
<polygon fill="white" stroke="#666666" points="1654,-30 1488,-30 1488,-11 1654,-11 1654,-30"/>
<text text-anchor="middle" x="1571" y="-18" font-family="Helvetica,sans-Serif" font-size="10.00">userver/server/component.hpp</text>
</a>
</g>
</g>
<!-- Node18&#45;&gt;Node19 -->
<g id="edge18_Node000018_Node000019" class="edge">
<title>Node18&#45;&gt;Node19</title>
<g id="a_edge18_Node000018_Node000019"><a xlink:title=" ">
<path fill="none" stroke="#63b8ff" d="M1571,-77.52C1571,-62.24 1571,-41.48 1571,-30"/>
<polygon fill="#63b8ff" stroke="#63b8ff" points="1567.5,-77.9 1571,-87.9 1574.5,-77.9 1567.5,-77.9"/>
</a>
</g>
</g>
<!-- Node23&#45;&gt;Node3 -->
<g id="edge26_Node000023_Node000003" class="edge">
<title>Node23&#45;&gt;Node3</title>
<g id="a_edge26_Node000023_Node000003"><a xlink:title=" ">
<path fill="none" stroke="#63b8ff" d="M434.43,-299.78C588.05,-273.43 970.43,-207.84 1124.8,-181.36"/>
<polygon fill="#63b8ff" stroke="#63b8ff" points="433.47,-296.39 424.21,-301.53 434.66,-303.29 433.47,-296.39"/>
</a>
</g>
</g>
<!-- Node24 -->
<g id="Node000024" class="node">
<title>Node24</title>
<g id="a_Node000024"><a xlink:href="../../de/d82/digest_2auth__checker__base_8hpp.html" target="_top" xlink:title="Base class for digest authentication checkers. Implements a digest&#45;authentication logic.">
<polygon fill="white" stroke="#666666" points="236,-118 94,-118 94,-77 236,-77 236,-118"/>
<text text-anchor="start" x="102" y="-106" font-family="Helvetica,sans-Serif" font-size="10.00">userver/server/handlers</text>
<text text-anchor="start" x="102" y="-95" font-family="Helvetica,sans-Serif" font-size="10.00">/auth/digest/auth_checker</text>
<text text-anchor="middle" x="165" y="-84" font-family="Helvetica,sans-Serif" font-size="10.00">_base.hpp</text>
</a>
</g>
</g>
<!-- Node23&#45;&gt;Node24 -->
<g id="edge23_Node000023_Node000024" class="edge">
<title>Node23&#45;&gt;Node24</title>
<g id="a_edge23_Node000023_Node000024"><a xlink:title=" ">
<path fill="none" stroke="#63b8ff" d="M303.98,-295.02C281.73,-287.33 257.75,-276.34 239,-261 193.53,-223.81 174.83,-152.64 168.18,-118.17"/>
<polygon fill="#63b8ff" stroke="#63b8ff" points="303.13,-298.43 313.72,-298.23 305.32,-291.78 303.13,-298.43"/>
</a>
</g>
</g>
<!-- Node25 -->
<g id="Node000025" class="node">
<title>Node25</title>
<g id="a_Node000025"><a xlink:href="../../db/df0/standalone__checker_8hpp.html" target="_top" xlink:title="Class for digest authentication checker. Implements a stand&#45;alone digest&#45;authentication logic.">
<polygon fill="white" stroke="#666666" points="132,-41 0,-41 0,0 132,0 132,-41"/>
<text text-anchor="start" x="8" y="-29" font-family="Helvetica,sans-Serif" font-size="10.00">userver/server/handlers</text>
<text text-anchor="start" x="8" y="-18" font-family="Helvetica,sans-Serif" font-size="10.00">/auth/digest/standalone</text>
<text text-anchor="middle" x="66" y="-7" font-family="Helvetica,sans-Serif" font-size="10.00">_checker.hpp</text>
</a>
</g>
</g>
<!-- Node23&#45;&gt;Node25 -->
<g id="edge25_Node000023_Node000025" class="edge">
<title>Node23&#45;&gt;Node25</title>
<g id="a_edge25_Node000023_Node000025"><a xlink:title=" ">
<path fill="none" stroke="#63b8ff" d="M303.95,-299.76C271.63,-292.19 232.97,-280.02 202,-261 127.26,-215.1 98.55,-199.45 66,-118 55.99,-92.95 58.57,-61.24 61.87,-41.16"/>
<polygon fill="#63b8ff" stroke="#63b8ff" points="303.24,-303.19 313.76,-301.97 304.77,-296.36 303.24,-303.19"/>
</a>
</g>
</g>
<!-- Node26 -->
<g id="Node000026" class="node">
<title>Node26</title>
<g id="a_Node000026"><a xlink:href="../../d2/d45/http__request_8hpp.html" target="_top" xlink:title="HTTP Request data.">
<polygon fill="white" stroke="#666666" points="358,-255.5 248,-255.5 248,-225.5 358,-225.5 358,-255.5"/>
<text text-anchor="start" x="256" y="-243.5" font-family="Helvetica,sans-Serif" font-size="10.00">userver/server/http</text>
<text text-anchor="middle" x="303" y="-232.5" font-family="Helvetica,sans-Serif" font-size="10.00">/http_request.hpp</text>
</a>
</g>
</g>
<!-- Node23&#45;&gt;Node26 -->
<g id="edge27_Node000023_Node000026" class="edge">
<title>Node23&#45;&gt;Node26</title>
<g id="a_edge27_Node000023_Node000026"><a xlink:title=" ">
<path fill="none" stroke="#63b8ff" d="M348.75,-289.67C338.21,-278.58 325.64,-265.34 316.34,-255.54"/>
<polygon fill="#63b8ff" stroke="#63b8ff" points="346.22,-292.09 355.64,-296.94 351.3,-287.27 346.22,-292.09"/>
</a>
</g>
</g>
<!-- Node30 -->
<g id="Node000030" class="node">
<title>Node30</title>
<g id="a_Node000030"><a xlink:href="../../d8/d76/http__response__body__stream_8hpp_source.html" target="_top" xlink:title=" ">
<polygon fill="white" stroke="#666666" points="494,-261 376,-261 376,-220 494,-220 494,-261"/>
<text text-anchor="start" x="384" y="-249" font-family="Helvetica,sans-Serif" font-size="10.00">userver/server/http</text>
<text text-anchor="start" x="384" y="-238" font-family="Helvetica,sans-Serif" font-size="10.00">/http_response_body</text>
<text text-anchor="middle" x="435" y="-227" font-family="Helvetica,sans-Serif" font-size="10.00">_stream.hpp</text>
</a>
</g>
</g>
<!-- Node23&#45;&gt;Node30 -->
<g id="edge36_Node000023_Node000030" class="edge">
<title>Node23&#45;&gt;Node30</title>
<g id="a_edge36_Node000023_Node000030"><a xlink:title=" ">
<path fill="none" stroke="#63b8ff" d="M389.5,-289.41C398.1,-280.36 408.03,-269.9 416.41,-261.07"/>
<polygon fill="#63b8ff" stroke="#63b8ff" points="386.7,-287.27 382.36,-296.94 391.78,-292.09 386.7,-287.27"/>
</a>
</g>
</g>
<!-- Node24&#45;&gt;Node25 -->
<g id="edge24_Node000024_Node000025" class="edge">
<title>Node24&#45;&gt;Node25</title>
<g id="a_edge24_Node000024_Node000025"><a xlink:title=" ">
<path fill="none" stroke="#63b8ff" d="M131.1,-70.82C118.29,-61.11 103.93,-50.24 91.97,-41.17"/>
<polygon fill="#63b8ff" stroke="#63b8ff" points="129.16,-73.74 139.25,-76.99 133.39,-68.16 129.16,-73.74"/>
</a>
</g>
</g>
<!-- Node26&#45;&gt;Node3 -->
<g id="edge33_Node000026_Node000003" class="edge">
<title>Node26&#45;&gt;Node3</title>
<g id="a_edge33_Node000026_Node000003"><a xlink:title=" ">
<path fill="none" stroke="#63b8ff" d="M353.68,-222.88C358.15,-221.77 362.64,-220.79 367,-220 512.1,-193.87 956.23,-177.44 1124.99,-172"/>
<polygon fill="#63b8ff" stroke="#63b8ff" points="352.73,-219.51 343.96,-225.47 354.53,-226.27 352.73,-219.51"/>
</a>
</g>
</g>
<!-- Node26&#45;&gt;Node24 -->
<g id="edge31_Node000026_Node000024" class="edge">
<title>Node26&#45;&gt;Node24</title>
<g id="a_edge31_Node000026_Node000024"><a xlink:title=" ">
<path fill="none" stroke="#63b8ff" d="M264.24,-220.43C247.74,-211.03 229.09,-198.57 215,-184 196.23,-164.59 181.68,-136.83 173.23,-118.26"/>
<polygon fill="#63b8ff" stroke="#63b8ff" points="262.69,-223.58 273.14,-225.33 266.07,-217.45 262.69,-223.58"/>
</a>
</g>
</g>
<!-- Node26&#45;&gt;Node25 -->
<g id="edge32_Node000026_Node000025" class="edge">
<title>Node26&#45;&gt;Node25</title>
<g id="a_edge32_Node000026_Node000025"><a xlink:title=" ">
<path fill="none" stroke="#63b8ff" d="M242.01,-222.25C191.47,-204.61 122.11,-172.01 85,-118 69.24,-95.06 65.85,-62.21 65.46,-41.37"/>
<polygon fill="#63b8ff" stroke="#63b8ff" points="240.94,-225.58 251.54,-225.48 243.19,-218.95 240.94,-225.58"/>
</a>
</g>
</g>
<!-- Node27 -->
<g id="Node000027" class="node">
<title>Node27</title>
<g id="a_Node000027"><a xlink:href="../../da/dff/auth__checker__base_8hpp_source.html" target="_top" xlink:title=" ">
<polygon fill="white" stroke="#666666" points="382,-184 224,-184 224,-154 382,-154 382,-184"/>
<text text-anchor="start" x="232" y="-172" font-family="Helvetica,sans-Serif" font-size="10.00">userver/server/handlers</text>
<text text-anchor="middle" x="303" y="-161" font-family="Helvetica,sans-Serif" font-size="10.00">/auth/auth_checker_base.hpp</text>
</a>
</g>
</g>
<!-- Node26&#45;&gt;Node27 -->
<g id="edge28_Node000026_Node000027" class="edge">
<title>Node26&#45;&gt;Node27</title>
<g id="a_edge28_Node000026_Node000027"><a xlink:title=" ">
<path fill="none" stroke="#63b8ff" d="M303,-215.25C303,-204.81 303,-192.99 303,-184.04"/>
<polygon fill="#63b8ff" stroke="#63b8ff" points="299.5,-215.44 303,-225.44 306.5,-215.44 299.5,-215.44"/>
</a>
</g>
</g>
<!-- Node29 -->
<g id="Node000029" class="node">
<title>Node29</title>
<g id="a_Node000029"><a xlink:href="../../de/d4e/core_2include_2userver_2server_2websocket_2server_8hpp.html" target="_top" xlink:title=" ">
<polygon fill="white" stroke="#666666" points="556,-184 414,-184 414,-154 556,-154 556,-184"/>
<text text-anchor="start" x="422" y="-172" font-family="Helvetica,sans-Serif" font-size="10.00">userver/server/websocket</text>
<text text-anchor="middle" x="485" y="-161" font-family="Helvetica,sans-Serif" font-size="10.00">/server.hpp</text>
</a>
</g>
</g>
<!-- Node26&#45;&gt;Node29 -->
<g id="edge34_Node000026_Node000029" class="edge">
<title>Node26&#45;&gt;Node29</title>
<g id="a_edge34_Node000026_Node000029"><a xlink:title=" ">
<path fill="none" stroke="#63b8ff" d="M349.45,-221.76C380.12,-210.05 419.75,-194.92 448.22,-184.04"/>
<polygon fill="#63b8ff" stroke="#63b8ff" points="347.92,-218.6 339.83,-225.44 350.42,-225.14 347.92,-218.6"/>
</a>
</g>
</g>
<!-- Node27&#45;&gt;Node24 -->
<g id="edge30_Node000027_Node000024" class="edge">
<title>Node27&#45;&gt;Node24</title>
<g id="a_edge30_Node000027_Node000024"><a xlink:title=" ">
<path fill="none" stroke="#63b8ff" d="M266.02,-149.38C246.81,-139.7 223.34,-127.88 203.87,-118.07"/>
<polygon fill="#63b8ff" stroke="#63b8ff" points="264.57,-152.56 275.07,-153.94 267.72,-146.31 264.57,-152.56"/>
</a>
</g>
</g>
<!-- Node28 -->
<g id="Node000028" class="node">
<title>Node28</title>
<g id="a_Node000028"><a xlink:href="../../db/ddd/auth__checker__factory_8hpp.html" target="_top" xlink:title="Authorization factory registration and base classes.">
<polygon fill="white" stroke="#666666" points="422,-112.5 254,-112.5 254,-82.5 422,-82.5 422,-112.5"/>
<text text-anchor="start" x="262" y="-100.5" font-family="Helvetica,sans-Serif" font-size="10.00">userver/server/handlers</text>
<text text-anchor="middle" x="338" y="-89.5" font-family="Helvetica,sans-Serif" font-size="10.00">/auth/auth_checker_factory.hpp</text>
</a>
</g>
</g>
<!-- Node27&#45;&gt;Node28 -->
<g id="edge29_Node000027_Node000028" class="edge">
<title>Node27&#45;&gt;Node28</title>
<g id="a_edge29_Node000027_Node000028"><a xlink:title=" ">
<path fill="none" stroke="#63b8ff" d="M314.72,-144.73C320.09,-134.06 326.28,-121.77 330.93,-112.54"/>
<polygon fill="#63b8ff" stroke="#63b8ff" points="311.45,-143.43 310.08,-153.94 317.71,-146.58 311.45,-143.43"/>
</a>
</g>
</g>
<!-- Node29&#45;&gt;Node20 -->
<g id="edge35_Node000029_Node000020" class="edge">
<title>Node29&#45;&gt;Node20</title>
<g id="a_edge35_Node000029_Node000020"><a xlink:title=" ">
<path fill="none" stroke="#63b8ff" d="M493.83,-144.4C497.79,-133.81 502.33,-121.68 505.75,-112.54"/>
<polygon fill="#63b8ff" stroke="#63b8ff" points="490.49,-143.34 490.26,-153.94 497.04,-145.8 490.49,-143.34"/>
</a>
</g>
</g>
</g>
</svg>
