<?xml version="1.0" encoding="UTF-8" standalone="no"?>
<!DOCTYPE svg PUBLIC "-//W3C//DTD SVG 1.1//EN"
 "http://www.w3.org/Graphics/SVG/1.1/DTD/svg11.dtd">
<!-- Generated by graphviz version 2.43.0 (0)
 -->
<!-- Title: formats::yaml::TypeMismatchException Pages: 1 -->
<svg width="170pt" height="214pt"
 viewBox="0.00 0.00 170.00 214.00" xmlns="http://www.w3.org/2000/svg" xmlns:xlink="http://www.w3.org/1999/xlink">
<g id="graph0" class="graph" transform="scale(1 1) rotate(0) translate(4 210)">
<title>formats::yaml::TypeMismatchException</title>
<!-- Node1 -->
<g id="Node000001" class="node">
<title>Node1</title>
<g id="a_Node000001"><a xlink:title=" ">
<polygon fill="#999999" stroke="#666666" points="162,-30 0,-30 0,0 162,0 162,-30"/>
<text text-anchor="start" x="8" y="-18" font-family="Helvetica,sans-Serif" font-size="10.00">formats::yaml::TypeMismatch</text>
<text text-anchor="middle" x="81" y="-7" font-family="Helvetica,sans-Serif" font-size="10.00">Exception</text>
</a>
</g>
</g>
<!-- Node2 -->
<g id="Node000002" class="node">
<title>Node2</title>
<g id="a_Node000002"><a xlink:href="../../d4/d0c/classformats_1_1yaml_1_1ExceptionWithPath.html" target="_top" xlink:title=" ">
<polygon fill="white" stroke="#bfbfbf" points="151,-96 11,-96 11,-66 151,-66 151,-96"/>
<text text-anchor="start" x="19" y="-84" font-family="Helvetica,sans-Serif" font-size="10.00">formats::yaml::Exception</text>
<text text-anchor="middle" x="81" y="-73" font-family="Helvetica,sans-Serif" font-size="10.00">WithPath</text>
</a>
</g>
</g>
<!-- Node2&#45;&gt;Node1 -->
<g id="edge1_Node000001_Node000002" class="edge">
<title>Node2&#45;&gt;Node1</title>
<g id="a_edge1_Node000001_Node000002"><a xlink:title=" ">
<path fill="none" stroke="#63b8ff" d="M81,-55.54C81,-46.96 81,-37.61 81,-30.16"/>
<polygon fill="#63b8ff" stroke="#63b8ff" points="77.5,-55.8 81,-65.8 84.5,-55.8 77.5,-55.8"/>
</a>
</g>
</g>
<!-- Node3 -->
<g id="Node000003" class="node">
<title>Node3</title>
<g id="a_Node000003"><a xlink:href="../../d6/d9a/classformats_1_1yaml_1_1Exception.html" target="_top" xlink:title=" ">
<polygon fill="white" stroke="#bfbfbf" points="151,-151 11,-151 11,-132 151,-132 151,-151"/>
<text text-anchor="middle" x="81" y="-139" font-family="Helvetica,sans-Serif" font-size="10.00">formats::yaml::Exception</text>
</a>
</g>
</g>
<!-- Node3&#45;&gt;Node2 -->
<g id="edge2_Node000002_Node000003" class="edge">
<title>Node3&#45;&gt;Node2</title>
<g id="a_edge2_Node000002_Node000003"><a xlink:title=" ">
<path fill="none" stroke="#63b8ff" d="M81,-121.65C81,-113.36 81,-103.78 81,-96.11"/>
<polygon fill="#63b8ff" stroke="#63b8ff" points="77.5,-121.87 81,-131.87 84.5,-121.87 77.5,-121.87"/>
</a>
</g>
</g>
<!-- Node4 -->
<g id="Node000004" class="node">
<title>Node4</title>
<g id="a_Node000004"><a xlink:title=" ">
<polygon fill="white" stroke="#666666" points="124,-206 38,-206 38,-187 124,-187 124,-206"/>
<text text-anchor="middle" x="81" y="-194" font-family="Helvetica,sans-Serif" font-size="10.00">std::exception</text>
</a>
</g>
</g>
<!-- Node4&#45;&gt;Node3 -->
<g id="edge3_Node000003_Node000004" class="edge">
<title>Node4&#45;&gt;Node3</title>
<g id="a_edge3_Node000003_Node000004"><a xlink:title=" ">
<path fill="none" stroke="#63b8ff" d="M81,-176.66C81,-167.93 81,-157.99 81,-151.09"/>
<polygon fill="#63b8ff" stroke="#63b8ff" points="77.5,-176.75 81,-186.75 84.5,-176.75 77.5,-176.75"/>
</a>
</g>
</g>
</g>
</svg>
