<?xml version="1.0" encoding="UTF-8" standalone="no"?>
<!DOCTYPE svg PUBLIC "-//W3C//DTD SVG 1.1//EN"
 "http://www.w3.org/Graphics/SVG/1.1/DTD/svg11.dtd">
<!-- Generated by graphviz version 2.43.0 (0)
 -->
<!-- Title: components::LoggableComponentBase Pages: 1 -->
<svg width="885pt" height="1990pt"
 viewBox="0.00 0.00 885.00 1989.50" xmlns="http://www.w3.org/2000/svg" xmlns:xlink="http://www.w3.org/1999/xlink">
<g id="graph0" class="graph" transform="scale(1 1) rotate(0) translate(4 1985.5)">
<title>components::LoggableComponentBase</title>
<!-- Node1 -->
<g id="Node000001" class="node">
<title>Node1</title>
<g id="a_Node000001"><a xlink:title="Base class for all application components, it depends on components::Logger and components::Tracer.">
<polygon fill="#999999" stroke="#666666" points="434,-1032 227,-1032 227,-1013 434,-1013 434,-1032"/>
<text text-anchor="middle" x="330.5" y="-1020" font-family="Helvetica,sans-Serif" font-size="10.00">components::LoggableComponentBase</text>
</a>
</g>
</g>
<!-- Node3 -->
<g id="Node000003" class="node">
<title>Node3</title>
<g id="a_Node000003"><a xlink:href="../../df/dd1/classcomponents_1_1CachingComponentBase.html" target="_top" xlink:title=" ">
<polygon fill="white" stroke="#666666" points="672.5,-1981.5 481.5,-1981.5 481.5,-1951.5 672.5,-1951.5 672.5,-1981.5"/>
<text text-anchor="start" x="489.5" y="-1969.5" font-family="Helvetica,sans-Serif" font-size="10.00">components::CachingComponent</text>
<text text-anchor="middle" x="577" y="-1958.5" font-family="Helvetica,sans-Serif" font-size="10.00">Base&lt; dynamic_config::DocsMap &gt;</text>
</a>
</g>
</g>
<!-- Node1&#45;&gt;Node3 -->
<g id="edge2_Node000001_Node000003" class="edge">
<title>Node1&#45;&gt;Node3</title>
<g id="a_edge2_Node000001_Node000003"><a xlink:title=" ">
<path fill="none" stroke="#63b8ff" d="M331.59,-1042.32C332.52,-1163.52 343.45,-1804.12 470,-1941.5 473.46,-1945.25 477.37,-1948.5 481.59,-1951.29"/>
<polygon fill="#63b8ff" stroke="#63b8ff" points="335.09,-1042.22 331.52,-1032.24 328.09,-1042.27 335.09,-1042.22"/>
</a>
</g>
</g>
<!-- Node5 -->
<g id="Node000005" class="node">
<title>Node5</title>
<g id="a_Node000005"><a xlink:href="../../df/dd1/classcomponents_1_1CachingComponentBase.html" target="_top" xlink:title=" ">
<polygon fill="white" stroke="orangered" points="666,-1933 488,-1933 488,-1892 666,-1892 666,-1933"/>
<text text-anchor="start" x="496" y="-1921" font-family="Helvetica,sans-Serif" font-size="10.00">components::CachingComponent</text>
<text text-anchor="start" x="496" y="-1910" font-family="Helvetica,sans-Serif" font-size="10.00">Base&lt; MongoCacheTraits::</text>
<text text-anchor="middle" x="577" y="-1899" font-family="Helvetica,sans-Serif" font-size="10.00">DataType &gt;</text>
</a>
</g>
</g>
<!-- Node1&#45;&gt;Node5 -->
<g id="edge4_Node000001_Node000005" class="edge">
<title>Node1&#45;&gt;Node5</title>
<g id="a_edge4_Node000001_Node000005"><a xlink:title=" ">
<path fill="none" stroke="#63b8ff" d="M331.9,-1042.4C334.62,-1158.94 354.08,-1752.27 470,-1882.5 475.09,-1888.21 481.17,-1892.88 487.82,-1896.67"/>
<polygon fill="#63b8ff" stroke="#63b8ff" points="335.39,-1042.04 331.67,-1032.12 328.39,-1042.19 335.39,-1042.04"/>
</a>
</g>
</g>
<!-- Node7 -->
<g id="Node000007" class="node">
<title>Node7</title>
<g id="a_Node000007"><a xlink:href="../../d5/d40/classbaggage_1_1BaggageManagerComponent.html" target="_top" xlink:title="Component for relationship with header baggage.">
<polygon fill="white" stroke="#666666" points="680,-1874 474,-1874 474,-1855 680,-1855 680,-1874"/>
<text text-anchor="middle" x="577" y="-1862" font-family="Helvetica,sans-Serif" font-size="10.00">baggage::BaggageManagerComponent</text>
</a>
</g>
</g>
<!-- Node1&#45;&gt;Node7 -->
<g id="edge5_Node000001_Node000007" class="edge">
<title>Node1&#45;&gt;Node7</title>
<g id="a_edge5_Node000001_Node000007"><a xlink:title=" ">
<path fill="none" stroke="#63b8ff" d="M331.86,-1042.07C334.35,-1155.44 352.63,-1726.88 470,-1845.5 473.68,-1849.22 477.83,-1852.36 482.29,-1854.99"/>
<polygon fill="#63b8ff" stroke="#63b8ff" points="335.36,-1041.98 331.65,-1032.05 328.36,-1042.12 335.36,-1041.98"/>
</a>
</g>
</g>
<!-- Node8 -->
<g id="Node000008" class="node">
<title>Node8</title>
<g id="a_Node000008"><a xlink:href="../../d9/d97/classcache_1_1LruCacheComponent.html" target="_top" xlink:title="Base class for LRU&#45;cache components.">
<polygon fill="white" stroke="#666666" points="654,-1836.5 500,-1836.5 500,-1806.5 654,-1806.5 654,-1836.5"/>
<text text-anchor="start" x="508" y="-1824.5" font-family="Helvetica,sans-Serif" font-size="10.00">cache::LruCacheComponent</text>
<text text-anchor="middle" x="577" y="-1813.5" font-family="Helvetica,sans-Serif" font-size="10.00">&lt; Key, Value, Hash, Equal &gt;</text>
</a>
</g>
</g>
<!-- Node1&#45;&gt;Node8 -->
<g id="edge6_Node000001_Node000008" class="edge">
<title>Node1&#45;&gt;Node8</title>
<g id="a_edge6_Node000001_Node000008"><a xlink:title=" ">
<path fill="none" stroke="#63b8ff" d="M332.2,-1042.51C336.47,-1152.52 362.46,-1682.93 470,-1796.5 478.13,-1805.08 488.6,-1810.96 499.8,-1814.95"/>
<polygon fill="#63b8ff" stroke="#63b8ff" points="335.69,-1042.06 331.82,-1032.2 328.69,-1042.32 335.69,-1042.06"/>
</a>
</g>
</g>
<!-- Node9 -->
<g id="Node000009" class="node">
<title>Node9</title>
<g id="a_Node000009"><a xlink:href="../../d0/d1e/classclients_1_1dns_1_1Component.html" target="_top" xlink:title="Caching DNS resolver component.">
<polygon fill="white" stroke="#666666" points="644,-1788 510,-1788 510,-1769 644,-1769 644,-1788"/>
<text text-anchor="middle" x="577" y="-1776" font-family="Helvetica,sans-Serif" font-size="10.00">clients::dns::Component</text>
</a>
</g>
</g>
<!-- Node1&#45;&gt;Node9 -->
<g id="edge7_Node000001_Node000009" class="edge">
<title>Node1&#45;&gt;Node9</title>
<g id="a_edge7_Node000001_Node000009"><a xlink:title=" ">
<path fill="none" stroke="#63b8ff" d="M332.28,-1042.32C336.93,-1149.09 364.3,-1654.69 470,-1759.5 480.69,-1770.1 495.13,-1775.91 509.92,-1778.9"/>
<polygon fill="#63b8ff" stroke="#63b8ff" points="335.78,-1042.13 331.87,-1032.28 328.79,-1042.42 335.78,-1042.13"/>
</a>
</g>
</g>
<!-- Node10 -->
<g id="Node000010" class="node">
<title>Node10</title>
<g id="a_Node000010"><a xlink:href="../../dd/d3c/classclients_1_1http_1_1plugin_1_1ComponentBase.html" target="_top" xlink:title=" ">
<polygon fill="white" stroke="orangered" points="632,-1750.5 522,-1750.5 522,-1720.5 632,-1720.5 632,-1750.5"/>
<text text-anchor="start" x="530" y="-1738.5" font-family="Helvetica,sans-Serif" font-size="10.00">clients::http::plugin</text>
<text text-anchor="middle" x="577" y="-1727.5" font-family="Helvetica,sans-Serif" font-size="10.00">::ComponentBase</text>
</a>
</g>
</g>
<!-- Node1&#45;&gt;Node10 -->
<g id="edge8_Node000001_Node000010" class="edge">
<title>Node1&#45;&gt;Node10</title>
<g id="a_edge8_Node000001_Node000010"><a xlink:title=" ">
<path fill="none" stroke="#63b8ff" d="M332.67,-1042.18C339.1,-1144.07 373.53,-1610.8 470,-1710.5 483.48,-1724.43 503.15,-1731.21 521.91,-1734.34"/>
<polygon fill="#63b8ff" stroke="#63b8ff" points="336.15,-1041.83 332.04,-1032.07 329.16,-1042.26 336.15,-1041.83"/>
</a>
</g>
</g>
<!-- Node12 -->
<g id="Node000012" class="node">
<title>Node12</title>
<g id="a_Node000012"><a xlink:href="../../dc/d75/classcomponents_1_1AuthCheckerSettings.html" target="_top" xlink:title="Component that loads auth configuration settings from a components::Secdist component if the latter w...">
<polygon fill="white" stroke="#666666" points="669,-1702 485,-1702 485,-1683 669,-1683 669,-1702"/>
<text text-anchor="middle" x="577" y="-1690" font-family="Helvetica,sans-Serif" font-size="10.00">components::AuthCheckerSettings</text>
</a>
</g>
</g>
<!-- Node1&#45;&gt;Node12 -->
<g id="edge9_Node000001_Node000012" class="edge">
<title>Node1&#45;&gt;Node12</title>
<g id="a_edge9_Node000001_Node000012"><a xlink:title=" ">
<path fill="none" stroke="#63b8ff" d="M332.8,-1042.14C339.75,-1140.92 375.77,-1582.27 470,-1673.5 474.43,-1677.79 479.48,-1681.29 484.92,-1684.14"/>
<polygon fill="#63b8ff" stroke="#63b8ff" points="336.29,-1041.8 332.11,-1032.06 329.3,-1042.28 336.29,-1041.8"/>
</a>
</g>
</g>
<!-- Node13 -->
<g id="Node000013" class="node">
<title>Node13</title>
<g id="a_Node000013"><a xlink:href="../../df/dd1/classcomponents_1_1CachingComponentBase.html" target="_top" xlink:title="Base class for caching components.">
<polygon fill="#fff0f0" stroke="red" points="666,-1664.5 488,-1664.5 488,-1634.5 666,-1634.5 666,-1664.5"/>
<text text-anchor="start" x="496" y="-1652.5" font-family="Helvetica,sans-Serif" font-size="10.00">components::CachingComponent</text>
<text text-anchor="middle" x="577" y="-1641.5" font-family="Helvetica,sans-Serif" font-size="10.00">Base&lt; T &gt;</text>
</a>
</g>
</g>
<!-- Node1&#45;&gt;Node13 -->
<g id="edge10_Node000001_Node000013" class="edge">
<title>Node1&#45;&gt;Node13</title>
<g id="a_edge10_Node000001_Node000013"><a xlink:title=" ">
<path fill="none" stroke="#63b8ff" d="M333.29,-1042.33C342.18,-1136.65 384.7,-1538.73 470,-1624.5 475.2,-1629.73 481.28,-1633.94 487.84,-1637.33"/>
<polygon fill="#63b8ff" stroke="#63b8ff" points="336.76,-1041.82 332.35,-1032.18 329.78,-1042.46 336.76,-1041.82"/>
</a>
</g>
</g>
<!-- Node15 -->
<g id="Node000015" class="node">
<title>Node15</title>
<g id="a_Node000015"><a xlink:href="../../d8/daa/classcomponents_1_1ClickHouse.html" target="_top" xlink:title="ClickHouse client component.">
<polygon fill="white" stroke="#666666" points="645.5,-1616 508.5,-1616 508.5,-1597 645.5,-1597 645.5,-1616"/>
<text text-anchor="middle" x="577" y="-1604" font-family="Helvetica,sans-Serif" font-size="10.00">components::ClickHouse</text>
</a>
</g>
</g>
<!-- Node1&#45;&gt;Node15 -->
<g id="edge11_Node000001_Node000015" class="edge">
<title>Node1&#45;&gt;Node15</title>
<g id="a_edge11_Node000001_Node000015"><a xlink:title=" ">
<path fill="none" stroke="#63b8ff" d="M333.47,-1042.07C343,-1132.61 387.21,-1509.77 470,-1587.5 480.5,-1597.35 494.27,-1603 508.39,-1606.08"/>
<polygon fill="#63b8ff" stroke="#63b8ff" points="336.95,-1041.66 332.44,-1032.07 329.99,-1042.38 336.95,-1041.66"/>
</a>
</g>
</g>
<!-- Node16 -->
<g id="Node000016" class="node">
<title>Node16</title>
<g id="a_Node000016"><a xlink:href="../../de/d65/classcomponents_1_1DefaultSecdistProvider.html" target="_top" xlink:title="Component that stores security related data (keys, passwords, ...).">
<polygon fill="white" stroke="#666666" points="654,-1578.5 500,-1578.5 500,-1548.5 654,-1548.5 654,-1578.5"/>
<text text-anchor="start" x="508" y="-1566.5" font-family="Helvetica,sans-Serif" font-size="10.00">components::DefaultSecdist</text>
<text text-anchor="middle" x="577" y="-1555.5" font-family="Helvetica,sans-Serif" font-size="10.00">Provider</text>
</a>
</g>
</g>
<!-- Node1&#45;&gt;Node16 -->
<g id="edge12_Node000001_Node000016" class="edge">
<title>Node1&#45;&gt;Node16</title>
<g id="a_edge12_Node000001_Node000016"><a xlink:title=" ">
<path fill="none" stroke="#63b8ff" d="M334.07,-1042.15C345.66,-1127.67 395.68,-1466.42 470,-1538.5 478.35,-1546.6 488.8,-1552.24 499.87,-1556.15"/>
<polygon fill="#63b8ff" stroke="#63b8ff" points="337.51,-1041.46 332.72,-1032.01 330.57,-1042.39 337.51,-1041.46"/>
</a>
</g>
</g>
<!-- Node17 -->
<g id="Node000017" class="node">
<title>Node17</title>
<g id="a_Node000017"><a xlink:href="../../d2/da7/classcomponents_1_1DumpConfigurator.html" target="_top" xlink:title="Helper component that manages common configuration for userver dumps.">
<polygon fill="white" stroke="#666666" points="663,-1530 491,-1530 491,-1511 663,-1511 663,-1530"/>
<text text-anchor="middle" x="577" y="-1518" font-family="Helvetica,sans-Serif" font-size="10.00">components::DumpConfigurator</text>
</a>
</g>
</g>
<!-- Node1&#45;&gt;Node17 -->
<g id="edge13_Node000001_Node000017" class="edge">
<title>Node1&#45;&gt;Node17</title>
<g id="a_edge13_Node000001_Node000017"><a xlink:title=" ">
<path fill="none" stroke="#63b8ff" d="M334.39,-1042.14C346.86,-1124.04 398.59,-1437.17 470,-1501.5 476.11,-1507.01 483.25,-1511.18 490.89,-1514.32"/>
<polygon fill="#63b8ff" stroke="#63b8ff" points="337.84,-1041.54 332.9,-1032.17 330.92,-1042.57 337.84,-1041.54"/>
</a>
</g>
</g>
<!-- Node18 -->
<g id="Node000018" class="node">
<title>Node18</title>
<g id="a_Node000018"><a xlink:href="../../d8/d1f/classcomponents_1_1DynamicConfigClient.html" target="_top" xlink:title="Component that starts a clients::dynamic_config::Client client.">
<polygon fill="white" stroke="#666666" points="655.5,-1492.5 498.5,-1492.5 498.5,-1462.5 655.5,-1462.5 655.5,-1492.5"/>
<text text-anchor="start" x="506.5" y="-1480.5" font-family="Helvetica,sans-Serif" font-size="10.00">components::DynamicConfig</text>
<text text-anchor="middle" x="577" y="-1469.5" font-family="Helvetica,sans-Serif" font-size="10.00">Client</text>
</a>
</g>
</g>
<!-- Node1&#45;&gt;Node18 -->
<g id="edge14_Node000001_Node000018" class="edge">
<title>Node1&#45;&gt;Node18</title>
<g id="a_edge14_Node000001_Node000018"><a xlink:title=" ">
<path fill="none" stroke="#63b8ff" d="M331.42,-1042.38C332.27,-1110.84 344.78,-1338.87 470,-1453.5 478.07,-1460.89 487.93,-1466.16 498.34,-1469.9"/>
<polygon fill="#63b8ff" stroke="#63b8ff" points="334.91,-1042.14 331.37,-1032.15 327.91,-1042.17 334.91,-1042.14"/>
</a>
</g>
</g>
<!-- Node19 -->
<g id="Node000019" class="node">
<title>Node19</title>
<g id="a_Node000019"><a xlink:href="../../d9/d43/classcomponents_1_1DynamicConfigUpdatesSinkBase.html" target="_top" xlink:title="Base class for components acting as dynamic config updates sinks.">
<polygon fill="#fff0f0" stroke="red" points="655.5,-1444.5 498.5,-1444.5 498.5,-1414.5 655.5,-1414.5 655.5,-1444.5"/>
<text text-anchor="start" x="506.5" y="-1432.5" font-family="Helvetica,sans-Serif" font-size="10.00">components::DynamicConfig</text>
<text text-anchor="middle" x="577" y="-1421.5" font-family="Helvetica,sans-Serif" font-size="10.00">UpdatesSinkBase</text>
</a>
</g>
</g>
<!-- Node1&#45;&gt;Node19 -->
<g id="edge15_Node000001_Node000019" class="edge">
<title>Node1&#45;&gt;Node19</title>
<g id="a_edge15_Node000001_Node000019"><a xlink:title=" ">
<path fill="none" stroke="#63b8ff" d="M332.4,-1042.55C336.37,-1106.07 357.64,-1304.49 470,-1404.5 478.12,-1411.73 487.94,-1416.97 498.29,-1420.75"/>
<polygon fill="#63b8ff" stroke="#63b8ff" points="335.88,-1042.11 331.84,-1032.32 328.89,-1042.49 335.88,-1042.11"/>
</a>
</g>
</g>
<!-- Node21 -->
<g id="Node000021" class="node">
<title>Node21</title>
<g id="a_Node000021"><a xlink:href="../../da/dd3/classcomponents_1_1FsCache.html" target="_top" xlink:title="Component for storing files in memory.">
<polygon fill="white" stroke="#666666" points="639,-1396 515,-1396 515,-1377 639,-1377 639,-1396"/>
<text text-anchor="middle" x="577" y="-1384" font-family="Helvetica,sans-Serif" font-size="10.00">components::FsCache</text>
</a>
</g>
</g>
<!-- Node1&#45;&gt;Node21 -->
<g id="edge16_Node000001_Node000021" class="edge">
<title>Node1&#45;&gt;Node21</title>
<g id="a_edge16_Node000001_Node000021"><a xlink:title=" ">
<path fill="none" stroke="#63b8ff" d="M333.01,-1042.42C338.68,-1102.22 364.18,-1281.36 470,-1367.5 482.61,-1377.77 498.9,-1383.25 514.9,-1386.02"/>
<polygon fill="#63b8ff" stroke="#63b8ff" points="336.47,-1041.77 332.12,-1032.11 329.49,-1042.38 336.47,-1041.77"/>
</a>
</g>
</g>
<!-- Node22 -->
<g id="Node000022" class="node">
<title>Node22</title>
<g id="a_Node000022"><a xlink:href="../../d4/df0/classcomponents_1_1HeadersPropagatorComponent.html" target="_top" xlink:title="Headers Propagator Component can scrape configured headers and then enrich HttpClient request with th...">
<polygon fill="white" stroke="#666666" points="665,-1358.5 489,-1358.5 489,-1328.5 665,-1328.5 665,-1358.5"/>
<text text-anchor="start" x="497" y="-1346.5" font-family="Helvetica,sans-Serif" font-size="10.00">components::HeadersPropagator</text>
<text text-anchor="middle" x="577" y="-1335.5" font-family="Helvetica,sans-Serif" font-size="10.00">Component</text>
</a>
</g>
</g>
<!-- Node1&#45;&gt;Node22 -->
<g id="edge17_Node000001_Node000022" class="edge">
<title>Node1&#45;&gt;Node22</title>
<g id="a_edge17_Node000001_Node000022"><a xlink:title=" ">
<path fill="none" stroke="#63b8ff" d="M334.66,-1042.15C344.3,-1095.53 378.52,-1244.16 470,-1318.5 475.72,-1323.15 482.16,-1326.96 488.97,-1330.09"/>
<polygon fill="#63b8ff" stroke="#63b8ff" points="338.06,-1041.27 332.92,-1032.01 331.16,-1042.46 338.06,-1041.27"/>
</a>
</g>
</g>
<!-- Node23 -->
<g id="Node000023" class="node">
<title>Node23</title>
<g id="a_Node000023"><a xlink:href="../../dd/d5a/classcomponents_1_1HttpClient.html" target="_top" xlink:title="Component that manages clients::http::Client.">
<polygon fill="white" stroke="#666666" points="643,-1310 511,-1310 511,-1291 643,-1291 643,-1310"/>
<text text-anchor="middle" x="577" y="-1298" font-family="Helvetica,sans-Serif" font-size="10.00">components::HttpClient</text>
</a>
</g>
</g>
<!-- Node1&#45;&gt;Node23 -->
<g id="edge18_Node000001_Node000023" class="edge">
<title>Node1&#45;&gt;Node23</title>
<g id="a_edge18_Node000001_Node000023"><a xlink:title=" ">
<path fill="none" stroke="#63b8ff" d="M335.81,-1042.24C347.66,-1091.47 385.63,-1220.17 470,-1281.5 481.87,-1290.13 496.43,-1295.25 510.91,-1298.21"/>
<polygon fill="#63b8ff" stroke="#63b8ff" points="339.16,-1041.2 333.5,-1032.25 332.34,-1042.78 339.16,-1041.2"/>
</a>
</g>
</g>
<!-- Node24 -->
<g id="Node000024" class="node">
<title>Node24</title>
<g id="a_Node000024"><a xlink:href="../../d0/dda/classcomponents_1_1Mongo.html" target="_top" xlink:title="MongoDB client component.">
<polygon fill="white" stroke="#666666" points="635,-1273 519,-1273 519,-1254 635,-1254 635,-1273"/>
<text text-anchor="middle" x="577" y="-1261" font-family="Helvetica,sans-Serif" font-size="10.00">components::Mongo</text>
</a>
</g>
</g>
<!-- Node1&#45;&gt;Node24 -->
<g id="edge19_Node000001_Node000024" class="edge">
<title>Node1&#45;&gt;Node24</title>
<g id="a_edge19_Node000001_Node000024"><a xlink:title=" ">
<path fill="none" stroke="#63b8ff" d="M337.47,-1041.77C352.14,-1085.68 394.4,-1193.31 470,-1244.5 484.24,-1254.14 501.94,-1259.31 518.77,-1261.97"/>
<polygon fill="#63b8ff" stroke="#63b8ff" points="340.73,-1040.49 334.33,-1032.05 334.07,-1042.64 340.73,-1040.49"/>
</a>
</g>
</g>
<!-- Node25 -->
<g id="Node000025" class="node">
<title>Node25</title>
<g id="a_Node000025"><a xlink:href="../../d2/d4a/classcomponents_1_1MultiMongo.html" target="_top" xlink:title="Dynamically configurable MongoDB client component.">
<polygon fill="white" stroke="#666666" points="647,-1236 507,-1236 507,-1217 647,-1217 647,-1236"/>
<text text-anchor="middle" x="577" y="-1224" font-family="Helvetica,sans-Serif" font-size="10.00">components::MultiMongo</text>
</a>
</g>
</g>
<!-- Node1&#45;&gt;Node25 -->
<g id="edge20_Node000001_Node000025" class="edge">
<title>Node1&#45;&gt;Node25</title>
<g id="a_edge20_Node000001_Node000025"><a xlink:title=" ">
<path fill="none" stroke="#63b8ff" d="M339.83,-1041.65C357.62,-1080.05 403.21,-1166.29 470,-1207.5 481.06,-1214.32 493.93,-1218.84 506.8,-1221.8"/>
<polygon fill="#63b8ff" stroke="#63b8ff" points="342.86,-1039.84 335.56,-1032.16 336.48,-1042.72 342.86,-1039.84"/>
</a>
</g>
</g>
<!-- Node26 -->
<g id="Node000026" class="node">
<title>Node26</title>
<g id="a_Node000026"><a xlink:href="../../d1/d92/classcomponents_1_1Postgres.html" target="_top" xlink:title="PosgreSQL client component.">
<polygon fill="white" stroke="#666666" points="639.5,-1199 514.5,-1199 514.5,-1180 639.5,-1180 639.5,-1199"/>
<text text-anchor="middle" x="577" y="-1187" font-family="Helvetica,sans-Serif" font-size="10.00">components::Postgres</text>
</a>
</g>
</g>
<!-- Node1&#45;&gt;Node26 -->
<g id="edge21_Node000001_Node000026" class="edge">
<title>Node1&#45;&gt;Node26</title>
<g id="a_edge21_Node000001_Node000026"><a xlink:title=" ">
<path fill="none" stroke="#63b8ff" d="M342.85,-1040.87C363.72,-1072.92 411.44,-1138.66 470,-1170.5 483.47,-1177.82 499.19,-1182.4 514.33,-1185.25"/>
<polygon fill="#63b8ff" stroke="#63b8ff" points="345.58,-1038.64 337.26,-1032.08 339.67,-1042.4 345.58,-1038.64"/>
</a>
</g>
</g>
<!-- Node27 -->
<g id="Node000027" class="node">
<title>Node27</title>
<g id="a_Node000027"><a xlink:href="../../d6/d8c/classcomponents_1_1ProcessStarter.html" target="_top" xlink:title="Component for getting the engine::subprocess::ProcessStarter.">
<polygon fill="white" stroke="#666666" points="653.5,-1162 500.5,-1162 500.5,-1143 653.5,-1143 653.5,-1162"/>
<text text-anchor="middle" x="577" y="-1150" font-family="Helvetica,sans-Serif" font-size="10.00">components::ProcessStarter</text>
</a>
</g>
</g>
<!-- Node1&#45;&gt;Node27 -->
<g id="edge22_Node000001_Node000027" class="edge">
<title>Node1&#45;&gt;Node27</title>
<g id="a_edge22_Node000001_Node000027"><a xlink:title=" ">
<path fill="none" stroke="#63b8ff" d="M346.98,-1039.41C370.81,-1064.3 419.12,-1110.38 470,-1133.5 479.53,-1137.83 489.97,-1141.18 500.45,-1143.76"/>
<polygon fill="#63b8ff" stroke="#63b8ff" points="349.52,-1037.01 340.12,-1032.12 344.43,-1041.8 349.52,-1037.01"/>
</a>
</g>
</g>
<!-- Node28 -->
<g id="Node000028" class="node">
<title>Node28</title>
<g id="a_Node000028"><a xlink:href="../../d5/d23/classcomponents_1_1RabbitMQ.html" target="_top" xlink:title="RabbitMQ (AMQP 0.9.1) client component.">
<polygon fill="white" stroke="#666666" points="642.5,-1125 511.5,-1125 511.5,-1106 642.5,-1106 642.5,-1125"/>
<text text-anchor="middle" x="577" y="-1113" font-family="Helvetica,sans-Serif" font-size="10.00">components::RabbitMQ</text>
</a>
</g>
</g>
<!-- Node1&#45;&gt;Node28 -->
<g id="edge23_Node000001_Node000028" class="edge">
<title>Node1&#45;&gt;Node28</title>
<g id="a_edge23_Node000001_Node000028"><a xlink:title=" ">
<path fill="none" stroke="#63b8ff" d="M354.35,-1037.62C381,-1054.54 426.92,-1081.55 470,-1096.5 483.07,-1101.04 497.44,-1104.54 511.27,-1107.22"/>
<polygon fill="#63b8ff" stroke="#63b8ff" points="356.07,-1034.56 345.76,-1032.09 352.28,-1040.44 356.07,-1034.56"/>
</a>
</g>
</g>
<!-- Node29 -->
<g id="Node000029" class="node">
<title>Node29</title>
<g id="a_Node000029"><a xlink:href="../../d6/dd0/classcomponents_1_1Redis.html" target="_top" xlink:title="Redis client component.">
<polygon fill="white" stroke="#666666" points="632,-1088 522,-1088 522,-1069 632,-1069 632,-1088"/>
<text text-anchor="middle" x="577" y="-1076" font-family="Helvetica,sans-Serif" font-size="10.00">components::Redis</text>
</a>
</g>
</g>
<!-- Node1&#45;&gt;Node29 -->
<g id="edge24_Node000001_Node000029" class="edge">
<title>Node1&#45;&gt;Node29</title>
<g id="a_edge24_Node000001_Node000029"><a xlink:title=" ">
<path fill="none" stroke="#63b8ff" d="M373.68,-1034.75C401.01,-1042.44 437.44,-1052.25 470,-1059.5 486.79,-1063.24 505.2,-1066.75 521.9,-1069.7"/>
<polygon fill="#63b8ff" stroke="#63b8ff" points="374.63,-1031.38 364.05,-1032.02 372.72,-1038.12 374.63,-1031.38"/>
</a>
</g>
</g>
<!-- Node30 -->
<g id="Node000030" class="node">
<title>Node30</title>
<g id="a_Node000030"><a xlink:href="../../da/dc7/classcomponents_1_1Secdist.html" target="_top" xlink:title="Component that stores security related data (keys, passwords, ...).">
<polygon fill="white" stroke="#666666" points="636,-1051 518,-1051 518,-1032 636,-1032 636,-1051"/>
<text text-anchor="middle" x="577" y="-1039" font-family="Helvetica,sans-Serif" font-size="10.00">components::Secdist</text>
</a>
</g>
</g>
<!-- Node1&#45;&gt;Node30 -->
<g id="edge25_Node000001_Node000030" class="edge">
<title>Node1&#45;&gt;Node30</title>
<g id="a_edge25_Node000001_Node000030"><a xlink:title=" ">
<path fill="none" stroke="#63b8ff" d="M444.24,-1031.26C469.73,-1033.24 495.78,-1035.27 517.91,-1036.99"/>
<polygon fill="#63b8ff" stroke="#63b8ff" points="444.37,-1027.76 434.13,-1030.48 443.83,-1034.74 444.37,-1027.76"/>
</a>
</g>
</g>
<!-- Node31 -->
<g id="Node000031" class="node">
<title>Node31</title>
<g id="a_Node000031"><a xlink:href="../../d0/d0b/classcomponents_1_1Server.html" target="_top" xlink:title="Component that listens for incoming requests, manages incoming connections and passes the requests to...">
<polygon fill="white" stroke="#666666" points="634,-1014 520,-1014 520,-995 634,-995 634,-1014"/>
<text text-anchor="middle" x="577" y="-1002" font-family="Helvetica,sans-Serif" font-size="10.00">components::Server</text>
</a>
</g>
</g>
<!-- Node1&#45;&gt;Node31 -->
<g id="edge26_Node000001_Node000031" class="edge">
<title>Node1&#45;&gt;Node31</title>
<g id="a_edge26_Node000001_Node000031"><a xlink:title=" ">
<path fill="none" stroke="#63b8ff" d="M444.17,-1014.21C470.47,-1012.27 497.38,-1010.29 519.96,-1008.63"/>
<polygon fill="#63b8ff" stroke="#63b8ff" points="443.84,-1010.72 434.13,-1014.94 444.36,-1017.7 443.84,-1010.72"/>
</a>
</g>
</g>
<!-- Node32 -->
<g id="Node000032" class="node">
<title>Node32</title>
<g id="a_Node000032"><a xlink:href="../../d4/dfa/classcomponents_1_1SingleThreadedTaskProcessors.html" target="_top" xlink:title="Component that starts multiple single threaded task processors.">
<polygon fill="white" stroke="#666666" points="656,-976.5 498,-976.5 498,-946.5 656,-946.5 656,-976.5"/>
<text text-anchor="start" x="506" y="-964.5" font-family="Helvetica,sans-Serif" font-size="10.00">components::SingleThreaded</text>
<text text-anchor="middle" x="577" y="-953.5" font-family="Helvetica,sans-Serif" font-size="10.00">TaskProcessors</text>
</a>
</g>
</g>
<!-- Node1&#45;&gt;Node32 -->
<g id="edge27_Node000001_Node000032" class="edge">
<title>Node1&#45;&gt;Node32</title>
<g id="a_edge27_Node000001_Node000032"><a xlink:title=" ">
<path fill="none" stroke="#63b8ff" d="M375.8,-1010.2C402.93,-1002.78 438.4,-993.3 470,-985.5 482.18,-982.49 495.19,-979.43 507.77,-976.54"/>
<polygon fill="#63b8ff" stroke="#63b8ff" points="374.56,-1006.91 365.84,-1012.93 376.41,-1013.66 374.56,-1006.91"/>
</a>
</g>
</g>
<!-- Node33 -->
<g id="Node000033" class="node">
<title>Node33</title>
<g id="a_Node000033"><a xlink:href="../../df/df4/classcomponents_1_1SystemStatisticsCollector.html" target="_top" xlink:title="Component for system resource usage statistics collection.">
<polygon fill="white" stroke="#666666" points="659,-928.5 495,-928.5 495,-898.5 659,-898.5 659,-928.5"/>
<text text-anchor="start" x="503" y="-916.5" font-family="Helvetica,sans-Serif" font-size="10.00">components::SystemStatistics</text>
<text text-anchor="middle" x="577" y="-905.5" font-family="Helvetica,sans-Serif" font-size="10.00">Collector</text>
</a>
</g>
</g>
<!-- Node1&#45;&gt;Node33 -->
<g id="edge28_Node000001_Node000033" class="edge">
<title>Node1&#45;&gt;Node33</title>
<g id="a_edge28_Node000001_Node000033"><a xlink:title=" ">
<path fill="none" stroke="#63b8ff" d="M352.46,-1006.58C378.61,-987.45 425.35,-955.67 470,-937.5 478.39,-934.09 487.36,-931.11 496.4,-928.52"/>
<polygon fill="#63b8ff" stroke="#63b8ff" points="350.05,-1004 344.1,-1012.77 354.22,-1009.63 350.05,-1004"/>
</a>
</g>
</g>
<!-- Node34 -->
<g id="Node000034" class="node">
<title>Node34</title>
<g id="a_Node000034"><a xlink:href="../../d1/dbc/classcomponents_1_1TcpAcceptorBase.html" target="_top" xlink:title="Component for accepting incoming TCP connections.">
<polygon fill="white" stroke="#666666" points="659.5,-880 494.5,-880 494.5,-861 659.5,-861 659.5,-880"/>
<text text-anchor="middle" x="577" y="-868" font-family="Helvetica,sans-Serif" font-size="10.00">components::TcpAcceptorBase</text>
</a>
</g>
</g>
<!-- Node1&#45;&gt;Node34 -->
<g id="edge29_Node000001_Node000034" class="edge">
<title>Node1&#45;&gt;Node34</title>
<g id="a_edge29_Node000001_Node000034"><a xlink:title=" ">
<path fill="none" stroke="#63b8ff" d="M344.27,-1004.74C366.32,-975.53 414.55,-917.75 470,-889.5 477.58,-885.64 485.81,-882.55 494.23,-880.08"/>
<polygon fill="#63b8ff" stroke="#63b8ff" points="341.42,-1002.71 338.28,-1012.83 347.05,-1006.87 341.42,-1002.71"/>
</a>
</g>
</g>
<!-- Node35 -->
<g id="Node000035" class="node">
<title>Node35</title>
<g id="a_Node000035"><a xlink:href="../../de/dac/classcongestion__control_1_1Component.html" target="_top" xlink:title="Component to limit too active requests, also known as CC.">
<polygon fill="white" stroke="#666666" points="631.5,-842.5 522.5,-842.5 522.5,-812.5 631.5,-812.5 631.5,-842.5"/>
<text text-anchor="start" x="530.5" y="-830.5" font-family="Helvetica,sans-Serif" font-size="10.00">congestion_control</text>
<text text-anchor="middle" x="577" y="-819.5" font-family="Helvetica,sans-Serif" font-size="10.00">::Component</text>
</a>
</g>
</g>
<!-- Node1&#45;&gt;Node35 -->
<g id="edge30_Node000001_Node000035" class="edge">
<title>Node1&#45;&gt;Node35</title>
<g id="a_edge30_Node000001_Node000035"><a xlink:title=" ">
<path fill="none" stroke="#63b8ff" d="M341.17,-1003.58C360.49,-967.82 407.4,-890.43 470,-851.5 485.62,-841.78 504.72,-835.99 522.38,-832.54"/>
<polygon fill="#63b8ff" stroke="#63b8ff" points="337.84,-1002.39 336.27,-1012.87 344.03,-1005.66 337.84,-1002.39"/>
</a>
</g>
</g>
<!-- Node36 -->
<g id="Node000036" class="node">
<title>Node36</title>
<g id="a_Node000036"><a xlink:href="../../d5/d0e/classengine_1_1TaskProcessorsLoadMonitor.html" target="_top" xlink:title="Component to monitor CPU usage for every TaskProcessor present in the service, and dump per&#45;thread st...">
<polygon fill="white" stroke="#666666" points="653.5,-794.5 500.5,-794.5 500.5,-764.5 653.5,-764.5 653.5,-794.5"/>
<text text-anchor="start" x="508.5" y="-782.5" font-family="Helvetica,sans-Serif" font-size="10.00">engine::TaskProcessorsLoad</text>
<text text-anchor="middle" x="577" y="-771.5" font-family="Helvetica,sans-Serif" font-size="10.00">Monitor</text>
</a>
</g>
</g>
<!-- Node1&#45;&gt;Node36 -->
<g id="edge31_Node000001_Node000036" class="edge">
<title>Node1&#45;&gt;Node36</title>
<g id="a_edge31_Node000001_Node000036"><a xlink:title=" ">
<path fill="none" stroke="#63b8ff" d="M337.92,-1003.13C353.29,-959.92 396.48,-855.41 470,-803.5 479.09,-797.08 489.63,-792.34 500.45,-788.86"/>
<polygon fill="#63b8ff" stroke="#63b8ff" points="334.56,-1002.13 334.61,-1012.72 341.18,-1004.41 334.56,-1002.13"/>
</a>
</g>
</g>
<!-- Node37 -->
<g id="Node000037" class="node">
<title>Node37</title>
<g id="a_Node000037"><a xlink:href="../../d1/ddc/classserver_1_1handlers_1_1HandlerBase.html" target="_top" xlink:title="Base class for the request handlers.">
<polygon fill="#fff0f0" stroke="red" points="659,-746 495,-746 495,-727 659,-727 659,-746"/>
<text text-anchor="middle" x="577" y="-734" font-family="Helvetica,sans-Serif" font-size="10.00">server::handlers::HandlerBase</text>
</a>
</g>
</g>
<!-- Node1&#45;&gt;Node37 -->
<g id="edge32_Node000001_Node000037" class="edge">
<title>Node1&#45;&gt;Node37</title>
<g id="a_edge32_Node000001_Node000037"><a xlink:title=" ">
<path fill="none" stroke="#63b8ff" d="M335.39,-1003.17C346.51,-953.21 383.42,-819.27 470,-755.5 477.45,-750.01 485.98,-745.94 494.9,-742.93"/>
<polygon fill="#63b8ff" stroke="#63b8ff" points="331.95,-1002.49 333.29,-1013 338.8,-1003.94 331.95,-1002.49"/>
</a>
</g>
</g>
<!-- Node54 -->
<g id="Node000054" class="node">
<title>Node54</title>
<g id="a_Node000054"><a xlink:href="../../d2/d38/classserver_1_1handlers_1_1auth_1_1digest_1_1AuthCheckerSettingsComponent.html" target="_top" xlink:title="Component that loads digest auth configuration settings from a static_config.yaml.">
<polygon fill="#fff0f0" stroke="red" points="657,-709 497,-709 497,-668 657,-668 657,-709"/>
<text text-anchor="start" x="505" y="-697" font-family="Helvetica,sans-Serif" font-size="10.00">server::handlers::auth</text>
<text text-anchor="start" x="505" y="-686" font-family="Helvetica,sans-Serif" font-size="10.00">::digest::AuthCheckerSettings</text>
<text text-anchor="middle" x="577" y="-675" font-family="Helvetica,sans-Serif" font-size="10.00">Component</text>
</a>
</g>
</g>
<!-- Node1&#45;&gt;Node54 -->
<g id="edge33_Node000001_Node000054" class="edge">
<title>Node1&#45;&gt;Node54</title>
<g id="a_edge33_Node000001_Node000054"><a xlink:title=" ">
<path fill="none" stroke="#63b8ff" d="M334.55,-1002.78C343.98,-948.55 377.85,-796.03 470,-717.5 477.84,-710.82 487.09,-705.66 496.81,-701.69"/>
<polygon fill="#63b8ff" stroke="#63b8ff" points="331.07,-1002.36 332.89,-1012.8 337.97,-1003.5 331.07,-1002.36"/>
</a>
</g>
</g>
<!-- Node56 -->
<g id="Node000056" class="node">
<title>Node56</title>
<g id="a_Node000056"><a xlink:href="../../d1/dbd/classserver_1_1middlewares_1_1HandlerPipelineBuilder.html" target="_top" xlink:title="Base class to build a per&#45;handler middleware pipeline. One may inherit from it and implement any cust...">
<polygon fill="white" stroke="#666666" points="644,-649.5 510,-649.5 510,-619.5 644,-619.5 644,-649.5"/>
<text text-anchor="start" x="518" y="-637.5" font-family="Helvetica,sans-Serif" font-size="10.00">server::middlewares</text>
<text text-anchor="middle" x="577" y="-626.5" font-family="Helvetica,sans-Serif" font-size="10.00">::HandlerPipelineBuilder</text>
</a>
</g>
</g>
<!-- Node1&#45;&gt;Node56 -->
<g id="edge34_Node000001_Node000056" class="edge">
<title>Node1&#45;&gt;Node56</title>
<g id="a_edge34_Node000001_Node000056"><a xlink:title=" ">
<path fill="none" stroke="#63b8ff" d="M332.75,-1002.54C337.74,-940.99 361.6,-752.61 470,-658.5 481.18,-648.79 495.48,-642.78 509.92,-639.11"/>
<polygon fill="#63b8ff" stroke="#63b8ff" points="329.24,-1002.57 332.01,-1012.8 336.22,-1003.08 329.24,-1002.57"/>
</a>
</g>
</g>
<!-- Node57 -->
<g id="Node000057" class="node">
<title>Node57</title>
<g id="a_Node000057"><a xlink:href="../../dd/d90/classserver_1_1middlewares_1_1HttpMiddlewareFactoryBase.html" target="_top" xlink:title=" ">
<polygon fill="white" stroke="orangered" points="657,-601.5 497,-601.5 497,-571.5 657,-571.5 657,-601.5"/>
<text text-anchor="start" x="505" y="-589.5" font-family="Helvetica,sans-Serif" font-size="10.00">server::middlewares</text>
<text text-anchor="middle" x="577" y="-578.5" font-family="Helvetica,sans-Serif" font-size="10.00">::HttpMiddlewareFactoryBase</text>
</a>
</g>
</g>
<!-- Node1&#45;&gt;Node57 -->
<g id="edge35_Node000001_Node000057" class="edge">
<title>Node1&#45;&gt;Node57</title>
<g id="a_edge35_Node000001_Node000057"><a xlink:title=" ">
<path fill="none" stroke="#63b8ff" d="M331.75,-1002.63C333.73,-936.11 349.55,-719.29 470,-610.5 477.7,-603.54 486.99,-598.47 496.82,-594.79"/>
<polygon fill="#63b8ff" stroke="#63b8ff" points="328.25,-1002.86 331.53,-1012.93 335.24,-1003.01 328.25,-1002.86"/>
</a>
</g>
</g>
<!-- Node59 -->
<g id="Node000059" class="node">
<title>Node59</title>
<g id="a_Node000059"><a xlink:href="../../df/db8/classserver_1_1middlewares_1_1PipelineBuilder.html" target="_top" xlink:title="Base class to build a server&#45;wide middleware pipeline. One may inherit from it and implement any cust...">
<polygon fill="white" stroke="#666666" points="635,-553.5 519,-553.5 519,-523.5 635,-523.5 635,-553.5"/>
<text text-anchor="start" x="527" y="-541.5" font-family="Helvetica,sans-Serif" font-size="10.00">server::middlewares</text>
<text text-anchor="middle" x="577" y="-530.5" font-family="Helvetica,sans-Serif" font-size="10.00">::PipelineBuilder</text>
</a>
</g>
</g>
<!-- Node1&#45;&gt;Node59 -->
<g id="edge36_Node000001_Node000059" class="edge">
<title>Node1&#45;&gt;Node59</title>
<g id="a_edge36_Node000001_Node000059"><a xlink:title=" ">
<path fill="none" stroke="#63b8ff" d="M330.95,-1002.71C330.13,-931.52 337.4,-686.16 470,-562.5 483.18,-550.21 501.28,-543.75 518.79,-540.48"/>
<polygon fill="#63b8ff" stroke="#63b8ff" points="327.46,-1003 331.14,-1012.93 334.46,-1002.87 327.46,-1003"/>
</a>
</g>
</g>
<!-- Node60 -->
<g id="Node000060" class="node">
<title>Node60</title>
<g id="a_Node000060"><a xlink:href="../../db/df7/classstorages_1_1mongo_1_1DistLockComponentBase.html" target="_top" xlink:title="Base class for mongo&#45;based distlock worker components.">
<polygon fill="white" stroke="#666666" points="650,-505.5 504,-505.5 504,-475.5 650,-475.5 650,-505.5"/>
<text text-anchor="start" x="512" y="-493.5" font-family="Helvetica,sans-Serif" font-size="10.00">storages::mongo::DistLock</text>
<text text-anchor="middle" x="577" y="-482.5" font-family="Helvetica,sans-Serif" font-size="10.00">ComponentBase</text>
</a>
</g>
</g>
<!-- Node1&#45;&gt;Node60 -->
<g id="edge37_Node000001_Node000060" class="edge">
<title>Node1&#45;&gt;Node60</title>
<g id="a_edge37_Node000001_Node000060"><a xlink:title=" ">
<path fill="none" stroke="#63b8ff" d="M334.18,-1002.59C346.03,-917.43 396.46,-584.91 470,-514.5 479.34,-505.56 491.27,-499.69 503.73,-495.88"/>
<polygon fill="#63b8ff" stroke="#63b8ff" points="330.68,-1002.34 332.79,-1012.72 337.62,-1003.29 330.68,-1002.34"/>
</a>
</g>
</g>
<!-- Node61 -->
<g id="Node000061" class="node">
<title>Node61</title>
<g id="a_Node000061"><a xlink:href="../../d5/d20/classstorages_1_1mysql_1_1Component.html" target="_top" xlink:title="MySQL/MariaDB client component.">
<polygon fill="white" stroke="#666666" points="655.5,-457 498.5,-457 498.5,-438 655.5,-438 655.5,-457"/>
<text text-anchor="middle" x="577" y="-445" font-family="Helvetica,sans-Serif" font-size="10.00">storages::mysql::Component</text>
</a>
</g>
</g>
<!-- Node1&#45;&gt;Node61 -->
<g id="edge38_Node000001_Node000061" class="edge">
<title>Node1&#45;&gt;Node61</title>
<g id="a_edge38_Node000001_Node000061"><a xlink:title=" ">
<path fill="none" stroke="#63b8ff" d="M333.58,-1002.66C343.46,-912.54 388.49,-542.75 470,-466.5 477.99,-459.03 487.86,-453.98 498.34,-450.64"/>
<polygon fill="#63b8ff" stroke="#63b8ff" points="330.1,-1002.33 332.51,-1012.65 337.06,-1003.08 330.1,-1002.33"/>
</a>
</g>
</g>
<!-- Node62 -->
<g id="Node000062" class="node">
<title>Node62</title>
<g id="a_Node000062"><a xlink:href="../../d2/d55/classstorages_1_1postgres_1_1DistLockComponentBase.html" target="_top" xlink:title="Base class for postgres&#45;based distlock worker components.">
<polygon fill="white" stroke="#666666" points="649.5,-419.5 504.5,-419.5 504.5,-389.5 649.5,-389.5 649.5,-419.5"/>
<text text-anchor="start" x="512.5" y="-407.5" font-family="Helvetica,sans-Serif" font-size="10.00">storages::postgres</text>
<text text-anchor="middle" x="577" y="-396.5" font-family="Helvetica,sans-Serif" font-size="10.00">::DistLockComponentBase</text>
</a>
</g>
</g>
<!-- Node1&#45;&gt;Node62 -->
<g id="edge39_Node000001_Node000062" class="edge">
<title>Node1&#45;&gt;Node62</title>
<g id="a_edge39_Node000001_Node000062"><a xlink:title=" ">
<path fill="none" stroke="#63b8ff" d="M333.31,-1002.91C342.32,-909.76 385.27,-512.69 470,-428.5 479.37,-419.19 491.54,-413.18 504.28,-409.35"/>
<polygon fill="#63b8ff" stroke="#63b8ff" points="329.82,-1002.65 332.36,-1012.93 336.79,-1003.31 329.82,-1002.65"/>
</a>
</g>
</g>
<!-- Node63 -->
<g id="Node000063" class="node">
<title>Node63</title>
<g id="a_Node000063"><a xlink:href="../../da/d25/classtracing_1_1DefaultTracingManagerLocator.html" target="_top" xlink:title="Component that provides access to the actual TracingManager that is used in handlers and clients.">
<polygon fill="white" stroke="#666666" points="662,-371.5 492,-371.5 492,-341.5 662,-341.5 662,-371.5"/>
<text text-anchor="start" x="500" y="-359.5" font-family="Helvetica,sans-Serif" font-size="10.00">tracing::DefaultTracingManager</text>
<text text-anchor="middle" x="577" y="-348.5" font-family="Helvetica,sans-Serif" font-size="10.00">Locator</text>
</a>
</g>
</g>
<!-- Node1&#45;&gt;Node63 -->
<g id="edge40_Node000001_Node000063" class="edge">
<title>Node1&#45;&gt;Node63</title>
<g id="a_edge40_Node000001_Node000063"><a xlink:title=" ">
<path fill="none" stroke="#63b8ff" d="M332.97,-1002.59C340.63,-904.33 379.14,-472.29 470,-380.5 476.24,-374.2 483.76,-369.4 491.88,-365.77"/>
<polygon fill="#63b8ff" stroke="#63b8ff" points="329.48,-1002.41 332.21,-1012.64 336.45,-1002.94 329.48,-1002.41"/>
</a>
</g>
</g>
<!-- Node64 -->
<g id="Node000064" class="node">
<title>Node64</title>
<g id="a_Node000064"><a xlink:href="../../d4/d9a/classtracing_1_1TracingManagerComponentBase.html" target="_top" xlink:title="Base component for implementing TracingManager component.">
<polygon fill="white" stroke="#666666" points="684,-323 470,-323 470,-304 684,-304 684,-323"/>
<text text-anchor="middle" x="577" y="-311" font-family="Helvetica,sans-Serif" font-size="10.00">tracing::TracingManagerComponentBase</text>
</a>
</g>
</g>
<!-- Node1&#45;&gt;Node64 -->
<g id="edge41_Node000001_Node000064" class="edge">
<title>Node1&#45;&gt;Node64</title>
<g id="a_edge41_Node000001_Node000064"><a xlink:title=" ">
<path fill="none" stroke="#63b8ff" d="M332.56,-1002.67C338.45,-900 370.61,-429.85 470,-332.5 473.74,-328.84 477.93,-325.75 482.43,-323.15"/>
<polygon fill="#63b8ff" stroke="#63b8ff" points="329.05,-1002.68 331.99,-1012.86 336.04,-1003.07 329.05,-1002.68"/>
</a>
</g>
</g>
<!-- Node65 -->
<g id="Node000065" class="node">
<title>Node65</title>
<g id="a_Node000065"><a xlink:href="../../db/d02/classugrpc_1_1client_1_1ClientFactoryComponent.html" target="_top" xlink:title="Provides a ClientFactory in the component system.">
<polygon fill="white" stroke="#666666" points="650,-285.5 504,-285.5 504,-255.5 650,-255.5 650,-285.5"/>
<text text-anchor="start" x="512" y="-273.5" font-family="Helvetica,sans-Serif" font-size="10.00">ugrpc::client::ClientFactory</text>
<text text-anchor="middle" x="577" y="-262.5" font-family="Helvetica,sans-Serif" font-size="10.00">Component</text>
</a>
</g>
</g>
<!-- Node1&#45;&gt;Node65 -->
<g id="edge42_Node000001_Node000065" class="edge">
<title>Node1&#45;&gt;Node65</title>
<g id="a_edge42_Node000001_Node000065"><a xlink:title=" ">
<path fill="none" stroke="#63b8ff" d="M332.42,-1002.67C337.73,-896.93 367.91,-400.19 470,-294.5 479.18,-285 491.26,-278.9 503.97,-275.05"/>
<polygon fill="#63b8ff" stroke="#63b8ff" points="328.91,-1002.72 331.93,-1012.88 335.91,-1003.06 328.91,-1002.72"/>
</a>
</g>
</g>
<!-- Node66 -->
<g id="Node000066" class="node">
<title>Node66</title>
<g id="a_Node000066"><a xlink:href="../../da/d1b/classugrpc_1_1client_1_1MiddlewareComponentBase.html" target="_top" xlink:title="Base class for client middleware component.">
<polygon fill="#fff0f0" stroke="red" points="647,-237.5 507,-237.5 507,-207.5 647,-207.5 647,-237.5"/>
<text text-anchor="start" x="515" y="-225.5" font-family="Helvetica,sans-Serif" font-size="10.00">ugrpc::client::Middleware</text>
<text text-anchor="middle" x="577" y="-214.5" font-family="Helvetica,sans-Serif" font-size="10.00">ComponentBase</text>
</a>
</g>
</g>
<!-- Node1&#45;&gt;Node66 -->
<g id="edge43_Node000001_Node000066" class="edge">
<title>Node1&#45;&gt;Node66</title>
<g id="a_edge43_Node000001_Node000066"><a xlink:title=" ">
<path fill="none" stroke="#63b8ff" d="M332.16,-1002.76C336.26,-893.12 361.6,-360.01 470,-246.5 479.84,-236.2 493.09,-229.88 506.89,-226.1"/>
<polygon fill="#63b8ff" stroke="#63b8ff" points="328.67,-1002.65 331.81,-1012.77 335.66,-1002.9 328.67,-1002.65"/>
</a>
</g>
</g>
<!-- Node70 -->
<g id="Node000070" class="node">
<title>Node70</title>
<g id="a_Node000070"><a xlink:title=" ">
<polygon fill="white" stroke="orangered" points="657,-189.5 497,-189.5 497,-159.5 657,-159.5 657,-189.5"/>
<text text-anchor="start" x="505" y="-177.5" font-family="Helvetica,sans-Serif" font-size="10.00">ugrpc::client::impl</text>
<text text-anchor="middle" x="577" y="-166.5" font-family="Helvetica,sans-Serif" font-size="10.00">::SimpleClientComponentAny</text>
</a>
</g>
</g>
<!-- Node1&#45;&gt;Node70 -->
<g id="edge44_Node000001_Node000070" class="edge">
<title>Node1&#45;&gt;Node70</title>
<g id="a_edge44_Node000001_Node000070"><a xlink:title=" ">
<path fill="none" stroke="#63b8ff" d="M331.95,-1002.64C334.91,-888.78 355.34,-319.78 470,-198.5 477.39,-190.68 486.74,-185.16 496.82,-181.29"/>
<polygon fill="#63b8ff" stroke="#63b8ff" points="328.44,-1002.89 331.69,-1012.98 335.44,-1003.06 328.44,-1002.89"/>
</a>
</g>
</g>
<!-- Node72 -->
<g id="Node000072" class="node">
<title>Node72</title>
<g id="a_Node000072"><a xlink:href="../../dd/d32/classugrpc_1_1server_1_1MiddlewareComponentBase.html" target="_top" xlink:title="Base class for middleware component.">
<polygon fill="#fff0f0" stroke="red" points="648.5,-141.5 505.5,-141.5 505.5,-111.5 648.5,-111.5 648.5,-141.5"/>
<text text-anchor="start" x="513.5" y="-129.5" font-family="Helvetica,sans-Serif" font-size="10.00">ugrpc::server::Middleware</text>
<text text-anchor="middle" x="577" y="-118.5" font-family="Helvetica,sans-Serif" font-size="10.00">ComponentBase</text>
</a>
</g>
</g>
<!-- Node1&#45;&gt;Node72 -->
<g id="edge45_Node000001_Node000072" class="edge">
<title>Node1&#45;&gt;Node72</title>
<g id="a_edge45_Node000001_Node000072"><a xlink:title=" ">
<path fill="none" stroke="#63b8ff" d="M331.74,-1002.96C333.58,-886.03 348.92,-279.73 470,-150.5 479.42,-140.45 492.08,-134.18 505.38,-130.35"/>
<polygon fill="#63b8ff" stroke="#63b8ff" points="328.24,-1002.93 331.6,-1012.97 335.24,-1003.03 328.24,-1002.93"/>
</a>
</g>
</g>
<!-- Node77 -->
<g id="Node000077" class="node">
<title>Node77</title>
<g id="a_Node000077"><a xlink:href="../../d7/d9a/classugrpc_1_1server_1_1ServerComponent.html" target="_top" xlink:title="Component that configures and manages the gRPC server.">
<polygon fill="white" stroke="#666666" points="664,-93 490,-93 490,-74 664,-74 664,-93"/>
<text text-anchor="middle" x="577" y="-81" font-family="Helvetica,sans-Serif" font-size="10.00">ugrpc::server::ServerComponent</text>
</a>
</g>
</g>
<!-- Node1&#45;&gt;Node77 -->
<g id="edge46_Node000001_Node000077" class="edge">
<title>Node1&#45;&gt;Node77</title>
<g id="a_edge46_Node000001_Node000077"><a xlink:title=" ">
<path fill="none" stroke="#63b8ff" d="M331.48,-1002.95C331.77,-882.01 339.5,-236.69 470,-102.5 475.67,-96.67 482.47,-92.27 489.86,-88.99"/>
<polygon fill="#63b8ff" stroke="#63b8ff" points="327.98,-1002.98 331.47,-1012.98 334.98,-1002.98 327.98,-1002.98"/>
</a>
</g>
</g>
<!-- Node78 -->
<g id="Node000078" class="node">
<title>Node78</title>
<g id="a_Node000078"><a xlink:href="../../df/d19/classugrpc_1_1server_1_1ServiceComponentBase.html" target="_top" xlink:title="Base class for all the gRPC service components.">
<polygon fill="#fff0f0" stroke="red" points="678.5,-56 475.5,-56 475.5,-37 678.5,-37 678.5,-56"/>
<text text-anchor="middle" x="577" y="-44" font-family="Helvetica,sans-Serif" font-size="10.00">ugrpc::server::ServiceComponentBase</text>
</a>
</g>
</g>
<!-- Node1&#45;&gt;Node78 -->
<g id="edge47_Node000001_Node000078" class="edge">
<title>Node1&#45;&gt;Node78</title>
<g id="a_edge47_Node000001_Node000078"><a xlink:title=" ">
<path fill="none" stroke="#63b8ff" d="M331.33,-1002.52C330.73,-877.55 333.86,-204.04 470,-64.5 473.13,-61.29 476.6,-58.53 480.33,-56.15"/>
<polygon fill="#63b8ff" stroke="#63b8ff" points="327.84,-1002.89 331.4,-1012.87 334.84,-1002.85 327.84,-1002.89"/>
</a>
</g>
</g>
<!-- Node80 -->
<g id="Node000080" class="node">
<title>Node80</title>
<g id="a_Node000080"><a xlink:href="../../d8/d65/classurabbitmq_1_1ConsumerComponentBase.html" target="_top" xlink:title="Base component for your consumers. Basically a ConsumerBase but in a nice component&#45;ish way.">
<polygon fill="white" stroke="#666666" points="678.5,-19 475.5,-19 475.5,0 678.5,0 678.5,-19"/>
<text text-anchor="middle" x="577" y="-7" font-family="Helvetica,sans-Serif" font-size="10.00">urabbitmq::ConsumerComponentBase</text>
</a>
</g>
</g>
<!-- Node1&#45;&gt;Node80 -->
<g id="edge48_Node000001_Node000080" class="edge">
<title>Node1&#45;&gt;Node80</title>
<g id="a_edge48_Node000001_Node000080"><a xlink:title=" ">
<path fill="none" stroke="#63b8ff" d="M331.22,-1002.55C329.84,-874.87 328.8,-172.99 470,-27.5 473.12,-24.29 476.59,-21.52 480.31,-19.13"/>
<polygon fill="#63b8ff" stroke="#63b8ff" points="327.72,-1002.84 331.34,-1012.8 334.72,-1002.75 327.72,-1002.84"/>
</a>
</g>
</g>
<!-- Node2 -->
<g id="Node000002" class="node">
<title>Node2</title>
<g id="a_Node000002"><a xlink:title=" ">
<polygon fill="white" stroke="#666666" points="191,-1032 0,-1032 0,-1013 191,-1013 191,-1032"/>
<text text-anchor="middle" x="95.5" y="-1020" font-family="Helvetica,sans-Serif" font-size="10.00">components::impl::ComponentBase</text>
</a>
</g>
</g>
<!-- Node2&#45;&gt;Node1 -->
<g id="edge1_Node000001_Node000002" class="edge">
<title>Node2&#45;&gt;Node1</title>
<g id="a_edge1_Node000001_Node000002"><a xlink:title=" ">
<path fill="none" stroke="#63b8ff" d="M201.5,-1022.5C209.92,-1022.5 218.43,-1022.5 226.84,-1022.5"/>
<polygon fill="#63b8ff" stroke="#63b8ff" points="201.27,-1019 191.27,-1022.5 201.27,-1026 201.27,-1019"/>
</a>
</g>
</g>
<!-- Node4 -->
<g id="Node000004" class="node">
<title>Node4</title>
<g id="a_Node000004"><a xlink:href="../../d3/da0/classcomponents_1_1DynamicConfigClientUpdater.html" target="_top" xlink:title="Component that does a periodic update of runtime configs.">
<polygon fill="white" stroke="#666666" points="877,-1981.5 720,-1981.5 720,-1951.5 877,-1951.5 877,-1981.5"/>
<text text-anchor="start" x="728" y="-1969.5" font-family="Helvetica,sans-Serif" font-size="10.00">components::DynamicConfig</text>
<text text-anchor="middle" x="798.5" y="-1958.5" font-family="Helvetica,sans-Serif" font-size="10.00">ClientUpdater</text>
</a>
</g>
</g>
<!-- Node3&#45;&gt;Node4 -->
<g id="edge3_Node000003_Node000004" class="edge">
<title>Node3&#45;&gt;Node4</title>
<g id="a_edge3_Node000003_Node000004"><a xlink:title=" ">
<path fill="none" stroke="#63b8ff" d="M682.71,-1966.5C695.26,-1966.5 707.89,-1966.5 719.95,-1966.5"/>
<polygon fill="#63b8ff" stroke="#63b8ff" points="682.68,-1963 672.68,-1966.5 682.68,-1970 682.68,-1963"/>
</a>
</g>
</g>
</g>
</svg>
