<?xml version="1.0" encoding="UTF-8" standalone="no"?>
<!DOCTYPE svg PUBLIC "-//W3C//DTD SVG 1.1//EN"
 "http://www.w3.org/Graphics/SVG/1.1/DTD/svg11.dtd">
<!-- Generated by graphviz version 2.43.0 (0)
 -->
<!-- Title: formats::json::parser::ArrayParser&lt; Item, ItemParser, Array &gt; Pages: 1 -->
<svg width="264pt" height="181pt"
 viewBox="0.00 0.00 263.50 181.00" xmlns="http://www.w3.org/2000/svg" xmlns:xlink="http://www.w3.org/1999/xlink">
<g id="graph0" class="graph" transform="scale(1 1) rotate(0) translate(4 177)">
<title>formats::json::parser::ArrayParser&lt; Item, ItemParser, Array &gt;</title>
<!-- Node1 -->
<g id="Node000001" class="node">
<title>Node1</title>
<g id="a_Node000001"><a xlink:title=" ">
<polygon fill="#999999" stroke="#666666" points="186,-41 68,-41 68,0 186,0 186,-41"/>
<text text-anchor="start" x="76" y="-29" font-family="Helvetica,sans-Serif" font-size="10.00">formats::json::parser</text>
<text text-anchor="start" x="76" y="-18" font-family="Helvetica,sans-Serif" font-size="10.00">::ArrayParser&lt; Item,</text>
<text text-anchor="middle" x="127" y="-7" font-family="Helvetica,sans-Serif" font-size="10.00"> ItemParser, Array &gt;</text>
</a>
</g>
</g>
<!-- Node2 -->
<g id="Node000002" class="node">
<title>Node2</title>
<g id="a_Node000002"><a xlink:href="../../d6/da9/classformats_1_1json_1_1parser_1_1TypedParser.html" target="_top" xlink:title="Main base class for SAX parsers.">
<polygon fill="white" stroke="#666666" points="118,-107 0,-107 0,-77 118,-77 118,-107"/>
<text text-anchor="start" x="8" y="-95" font-family="Helvetica,sans-Serif" font-size="10.00">formats::json::parser</text>
<text text-anchor="middle" x="59" y="-84" font-family="Helvetica,sans-Serif" font-size="10.00">::TypedParser&lt; T &gt;</text>
</a>
</g>
</g>
<!-- Node2&#45;&gt;Node1 -->
<g id="edge1_Node000001_Node000002" class="edge">
<title>Node2&#45;&gt;Node1</title>
<g id="a_edge1_Node000001_Node000002"><a xlink:title=" ">
<path fill="none" stroke="#63b8ff" d="M79.85,-69.69C88.77,-60.57 99.12,-49.99 107.85,-41.07"/>
<polygon fill="#63b8ff" stroke="#63b8ff" points="77.25,-67.34 72.76,-76.94 82.26,-72.24 77.25,-67.34"/>
</a>
</g>
</g>
<!-- Node3 -->
<g id="Node000003" class="node">
<title>Node3</title>
<g id="a_Node000003"><a xlink:href="../../dd/d76/classformats_1_1json_1_1parser_1_1BaseParser.html" target="_top" xlink:title="Base class for SAX parser.">
<polygon fill="white" stroke="#666666" points="118,-173 0,-173 0,-143 118,-143 118,-173"/>
<text text-anchor="start" x="8" y="-161" font-family="Helvetica,sans-Serif" font-size="10.00">formats::json::parser</text>
<text text-anchor="middle" x="59" y="-150" font-family="Helvetica,sans-Serif" font-size="10.00">::BaseParser</text>
</a>
</g>
</g>
<!-- Node3&#45;&gt;Node2 -->
<g id="edge2_Node000002_Node000003" class="edge">
<title>Node3&#45;&gt;Node2</title>
<g id="a_edge2_Node000002_Node000003"><a xlink:title=" ">
<path fill="none" stroke="#63b8ff" d="M59,-132.54C59,-123.96 59,-114.61 59,-107.16"/>
<polygon fill="#63b8ff" stroke="#63b8ff" points="55.5,-132.8 59,-142.8 62.5,-132.8 55.5,-132.8"/>
</a>
</g>
</g>
<!-- Node4 -->
<g id="Node000004" class="node">
<title>Node4</title>
<g id="a_Node000004"><a xlink:href="../../d7/da2/classformats_1_1json_1_1parser_1_1Subscriber.html" target="_top" xlink:title=" ">
<polygon fill="white" stroke="#bfbfbf" points="255.5,-107 136.5,-107 136.5,-77 255.5,-77 255.5,-107"/>
<text text-anchor="start" x="144.5" y="-95" font-family="Helvetica,sans-Serif" font-size="10.00">formats::json::parser</text>
<text text-anchor="middle" x="196" y="-84" font-family="Helvetica,sans-Serif" font-size="10.00">::Subscriber&lt; Item &gt;</text>
</a>
</g>
</g>
<!-- Node4&#45;&gt;Node1 -->
<g id="edge3_Node000001_Node000004" class="edge">
<title>Node4&#45;&gt;Node1</title>
<g id="a_edge3_Node000001_Node000004"><a xlink:title=" ">
<path fill="none" stroke="#63b8ff" d="M174.84,-69.69C165.79,-60.57 155.29,-49.99 146.43,-41.07"/>
<polygon fill="#63b8ff" stroke="#63b8ff" points="172.51,-72.3 182.04,-76.94 177.48,-67.37 172.51,-72.3"/>
</a>
</g>
</g>
</g>
</svg>
