<?xml version="1.0" encoding="UTF-8" standalone="no"?>
<!DOCTYPE svg PUBLIC "-//W3C//DTD SVG 1.1//EN"
 "http://www.w3.org/Graphics/SVG/1.1/DTD/svg11.dtd">
<!-- Generated by graphviz version 2.43.0 (0)
 -->
<!-- Title: userver/utils/statistics/rate_counter.hpp Pages: 1 -->
<svg width="1198pt" height="654pt"
 viewBox="0.00 0.00 1197.50 654.00" xmlns="http://www.w3.org/2000/svg" xmlns:xlink="http://www.w3.org/1999/xlink">
<g id="graph0" class="graph" transform="scale(1 1) rotate(0) translate(4 650)">
<title>userver/utils/statistics/rate_counter.hpp</title>
<!-- Node1 -->
<g id="Node000001" class="node">
<title>Node1</title>
<g id="a_Node000001"><a xlink:title="Atomic counter of type Rate with relaxed memory ordering.">
<polygon fill="#999999" stroke="#666666" points="844.5,-646 719.5,-646 719.5,-616 844.5,-616 844.5,-646"/>
<text text-anchor="start" x="727.5" y="-634" font-family="Helvetica,sans-Serif" font-size="10.00">userver/utils/statistics</text>
<text text-anchor="middle" x="782" y="-623" font-family="Helvetica,sans-Serif" font-size="10.00">/rate_counter.hpp</text>
</a>
</g>
</g>
<!-- Node2 -->
<g id="Node000002" class="node">
<title>Node2</title>
<g id="a_Node000002"><a xlink:href="../../d6/d93/grpc_2include_2userver_2ugrpc_2impl_2statistics_8hpp_source.html" target="_top" xlink:title=" ">
<polygon fill="white" stroke="#666666" points="774,-580 666,-580 666,-550 774,-550 774,-580"/>
<text text-anchor="start" x="674" y="-568" font-family="Helvetica,sans-Serif" font-size="10.00">userver/ugrpc/impl</text>
<text text-anchor="middle" x="720" y="-557" font-family="Helvetica,sans-Serif" font-size="10.00">/statistics.hpp</text>
</a>
</g>
</g>
<!-- Node1&#45;&gt;Node2 -->
<g id="edge1_Node000001_Node000002" class="edge">
<title>Node1&#45;&gt;Node2</title>
<g id="a_edge1_Node000001_Node000002"><a xlink:title=" ">
<path fill="none" stroke="#63b8ff" d="M761.04,-608.37C752.03,-599.06 741.74,-588.44 733.72,-580.16"/>
<polygon fill="#63b8ff" stroke="#63b8ff" points="758.77,-611.05 768.24,-615.8 763.8,-606.18 758.77,-611.05"/>
</a>
</g>
</g>
<!-- Node25 -->
<g id="Node000025" class="node">
<title>Node25</title>
<g id="a_Node000025"><a xlink:href="../../d5/d25/retry__budget_8hpp.html" target="_top" xlink:title=" ">
<polygon fill="white" stroke="#666666" points="1008,-580 904,-580 904,-550 1008,-550 1008,-580"/>
<text text-anchor="start" x="912" y="-568" font-family="Helvetica,sans-Serif" font-size="10.00">userver/utils/retry</text>
<text text-anchor="middle" x="956" y="-557" font-family="Helvetica,sans-Serif" font-size="10.00">_budget.hpp</text>
</a>
</g>
</g>
<!-- Node1&#45;&gt;Node25 -->
<g id="edge35_Node000001_Node000025" class="edge">
<title>Node1&#45;&gt;Node25</title>
<g id="a_edge35_Node000001_Node000025"><a xlink:title=" ">
<path fill="none" stroke="#63b8ff" d="M829.7,-612.46C857.46,-602.25 891.97,-589.55 917.9,-580.01"/>
<polygon fill="#63b8ff" stroke="#63b8ff" points="828.36,-609.22 820.19,-615.95 830.78,-615.79 828.36,-609.22"/>
</a>
</g>
</g>
<!-- Node3 -->
<g id="Node000003" class="node">
<title>Node3</title>
<g id="a_Node000003"><a xlink:href="../../d2/d7b/client_2impl_2call__params_8hpp_source.html" target="_top" xlink:title=" ">
<polygon fill="white" stroke="#666666" points="345.5,-448 220.5,-448 220.5,-418 345.5,-418 345.5,-448"/>
<text text-anchor="start" x="228.5" y="-436" font-family="Helvetica,sans-Serif" font-size="10.00">userver/ugrpc/client</text>
<text text-anchor="middle" x="283" y="-425" font-family="Helvetica,sans-Serif" font-size="10.00">/impl/call_params.hpp</text>
</a>
</g>
</g>
<!-- Node2&#45;&gt;Node3 -->
<g id="edge2_Node000002_Node000003" class="edge">
<title>Node2&#45;&gt;Node3</title>
<g id="a_edge2_Node000002_Node000003"><a xlink:title=" ">
<path fill="none" stroke="#63b8ff" d="M655.66,-559.62C594.58,-553.96 500.94,-541.36 424,-514 377.59,-497.5 328.74,-466.17 302.48,-448"/>
<polygon fill="#63b8ff" stroke="#63b8ff" points="655.65,-563.13 665.92,-560.53 656.27,-556.16 655.65,-563.13"/>
</a>
</g>
</g>
<!-- Node6 -->
<g id="Node000006" class="node">
<title>Node6</title>
<g id="a_Node000006"><a xlink:href="../../d8/d5f/client_2impl_2codegen__declarations_8hpp_source.html" target="_top" xlink:title=" ">
<polygon fill="white" stroke="#666666" points="515,-239 343,-239 343,-209 515,-209 515,-239"/>
<text text-anchor="start" x="351" y="-227" font-family="Helvetica,sans-Serif" font-size="10.00">userver/ugrpc/client</text>
<text text-anchor="middle" x="429" y="-216" font-family="Helvetica,sans-Serif" font-size="10.00">/impl/codegen_declarations.hpp</text>
</a>
</g>
</g>
<!-- Node2&#45;&gt;Node6 -->
<g id="edge19_Node000002_Node000006" class="edge">
<title>Node2&#45;&gt;Node6</title>
<g id="a_edge19_Node000002_Node000006"><a xlink:title=" ">
<path fill="none" stroke="#63b8ff" d="M676.66,-545.49C635.87,-524.82 581,-487.14 581,-434 581,-434 581,-434 581,-366 581,-302.65 509.16,-259.76 464.25,-239.14"/>
<polygon fill="#63b8ff" stroke="#63b8ff" points="675.12,-548.64 685.64,-549.89 678.2,-542.35 675.12,-548.64"/>
</a>
</g>
</g>
<!-- Node14 -->
<g id="Node000014" class="node">
<title>Node14</title>
<g id="a_Node000014"><a xlink:href="../../d9/d5b/client__data_8hpp_source.html" target="_top" xlink:title=" ">
<polygon fill="white" stroke="#666666" points="552.5,-514 433.5,-514 433.5,-484 552.5,-484 552.5,-514"/>
<text text-anchor="start" x="441.5" y="-502" font-family="Helvetica,sans-Serif" font-size="10.00">userver/ugrpc/client</text>
<text text-anchor="middle" x="493" y="-491" font-family="Helvetica,sans-Serif" font-size="10.00">/impl/client_data.hpp</text>
</a>
</g>
</g>
<!-- Node2&#45;&gt;Node14 -->
<g id="edge14_Node000002_Node000014" class="edge">
<title>Node2&#45;&gt;Node14</title>
<g id="a_edge14_Node000002_Node000014"><a xlink:title=" ">
<path fill="none" stroke="#63b8ff" d="M660.13,-547.12C623.53,-536.8 577.27,-523.76 542.7,-514.01"/>
<polygon fill="#63b8ff" stroke="#63b8ff" points="659.61,-550.61 670.18,-549.95 661.51,-543.87 659.61,-550.61"/>
</a>
</g>
</g>
<!-- Node16 -->
<g id="Node000016" class="node">
<title>Node16</title>
<g id="a_Node000016"><a xlink:href="../../d8/dc6/grpc_2include_2userver_2ugrpc_2impl_2statistics__storage_8hpp_source.html" target="_top" xlink:title=" ">
<polygon fill="white" stroke="#666666" points="783.5,-514 656.5,-514 656.5,-484 783.5,-484 783.5,-514"/>
<text text-anchor="start" x="664.5" y="-502" font-family="Helvetica,sans-Serif" font-size="10.00">userver/ugrpc/impl</text>
<text text-anchor="middle" x="720" y="-491" font-family="Helvetica,sans-Serif" font-size="10.00">/statistics_storage.hpp</text>
</a>
</g>
</g>
<!-- Node2&#45;&gt;Node16 -->
<g id="edge20_Node000002_Node000016" class="edge">
<title>Node2&#45;&gt;Node16</title>
<g id="a_edge20_Node000002_Node000016"><a xlink:title=" ">
<path fill="none" stroke="#63b8ff" d="M720,-539.54C720,-530.96 720,-521.61 720,-514.16"/>
<polygon fill="#63b8ff" stroke="#63b8ff" points="716.5,-539.8 720,-549.8 723.5,-539.8 716.5,-539.8"/>
</a>
</g>
</g>
<!-- Node19 -->
<g id="Node000019" class="node">
<title>Node19</title>
<g id="a_Node000019"><a xlink:href="../../db/d93/service__worker__impl_8hpp_source.html" target="_top" xlink:title=" ">
<polygon fill="white" stroke="#666666" points="1023,-316 905,-316 905,-275 1023,-275 1023,-316"/>
<text text-anchor="start" x="913" y="-304" font-family="Helvetica,sans-Serif" font-size="10.00">userver/ugrpc/server</text>
<text text-anchor="start" x="913" y="-293" font-family="Helvetica,sans-Serif" font-size="10.00">/impl/service_worker</text>
<text text-anchor="middle" x="964" y="-282" font-family="Helvetica,sans-Serif" font-size="10.00">_impl.hpp</text>
</a>
</g>
</g>
<!-- Node2&#45;&gt;Node19 -->
<g id="edge33_Node000002_Node000019" class="edge">
<title>Node2&#45;&gt;Node19</title>
<g id="a_edge33_Node000002_Node000019"><a xlink:title=" ">
<path fill="none" stroke="#63b8ff" d="M752.14,-544.28C765.1,-535.68 779.82,-525.05 792,-514 861.86,-450.58 925.57,-356.78 951.6,-316.29"/>
<polygon fill="#63b8ff" stroke="#63b8ff" points="749.99,-541.5 743.51,-549.89 753.81,-547.37 749.99,-541.5"/>
</a>
</g>
</g>
<!-- Node22 -->
<g id="Node000022" class="node">
<title>Node22</title>
<g id="a_Node000022"><a xlink:href="../../d4/d79/grpc_2include_2userver_2ugrpc_2server_2server_8hpp.html" target="_top" xlink:title="Manages the gRPC server.">
<polygon fill="white" stroke="#666666" points="1158.5,-310.5 1041.5,-310.5 1041.5,-280.5 1158.5,-280.5 1158.5,-310.5"/>
<text text-anchor="start" x="1049.5" y="-298.5" font-family="Helvetica,sans-Serif" font-size="10.00">userver/ugrpc/server</text>
<text text-anchor="middle" x="1100" y="-287.5" font-family="Helvetica,sans-Serif" font-size="10.00">/server.hpp</text>
</a>
</g>
</g>
<!-- Node2&#45;&gt;Node22 -->
<g id="edge34_Node000002_Node000022" class="edge">
<title>Node2&#45;&gt;Node22</title>
<g id="a_edge34_Node000002_Node000022"><a xlink:title=" ">
<path fill="none" stroke="#63b8ff" d="M761.85,-545.62C780.44,-536.87 802.29,-525.75 821,-514 927.87,-446.86 1042.95,-347.36 1084.19,-310.71"/>
<polygon fill="#63b8ff" stroke="#63b8ff" points="760.34,-542.46 752.74,-549.84 763.29,-548.81 760.34,-542.46"/>
</a>
</g>
</g>
<!-- Node4 -->
<g id="Node000004" class="node">
<title>Node4</title>
<g id="a_Node000004"><a xlink:href="../../d7/d8b/client_2impl_2async__methods_8hpp_source.html" target="_top" xlink:title=" ">
<polygon fill="white" stroke="#666666" points="323,-382 181,-382 181,-352 323,-352 323,-382"/>
<text text-anchor="start" x="189" y="-370" font-family="Helvetica,sans-Serif" font-size="10.00">userver/ugrpc/client</text>
<text text-anchor="middle" x="252" y="-359" font-family="Helvetica,sans-Serif" font-size="10.00">/impl/async_methods.hpp</text>
</a>
</g>
</g>
<!-- Node3&#45;&gt;Node4 -->
<g id="edge3_Node000003_Node000004" class="edge">
<title>Node3&#45;&gt;Node4</title>
<g id="a_edge3_Node000003_Node000004"><a xlink:title=" ">
<path fill="none" stroke="#63b8ff" d="M271.7,-408.68C267.4,-399.79 262.63,-389.95 258.86,-382.16"/>
<polygon fill="#63b8ff" stroke="#63b8ff" points="268.61,-410.32 276.12,-417.8 274.91,-407.27 268.61,-410.32"/>
</a>
</g>
</g>
<!-- Node5 -->
<g id="Node000005" class="node">
<title>Node5</title>
<g id="a_Node000005"><a xlink:href="../../db/df8/client_2rpc_8hpp.html" target="_top" xlink:title="Classes representing an outgoing RPC.">
<polygon fill="white" stroke="#666666" points="346.5,-310.5 233.5,-310.5 233.5,-280.5 346.5,-280.5 346.5,-310.5"/>
<text text-anchor="start" x="241.5" y="-298.5" font-family="Helvetica,sans-Serif" font-size="10.00">userver/ugrpc/client</text>
<text text-anchor="middle" x="290" y="-287.5" font-family="Helvetica,sans-Serif" font-size="10.00">/rpc.hpp</text>
</a>
</g>
</g>
<!-- Node3&#45;&gt;Node5 -->
<g id="edge13_Node000003_Node000005" class="edge">
<title>Node3&#45;&gt;Node5</title>
<g id="a_edge13_Node000003_Node000005"><a xlink:title=" ">
<path fill="none" stroke="#63b8ff" d="M310.81,-410.97C319.26,-402.94 327.5,-393.03 332,-382 342.5,-356.28 321.13,-327.49 305.2,-310.74"/>
<polygon fill="#63b8ff" stroke="#63b8ff" points="308.26,-408.56 303.09,-417.8 312.9,-413.8 308.26,-408.56"/>
</a>
</g>
</g>
<!-- Node4&#45;&gt;Node5 -->
<g id="edge4_Node000004_Node000005" class="edge">
<title>Node4&#45;&gt;Node5</title>
<g id="a_edge4_Node000004_Node000005"><a xlink:title=" ">
<path fill="none" stroke="#63b8ff" d="M264.54,-343.06C270.42,-332.32 277.22,-319.86 282.32,-310.54"/>
<polygon fill="#63b8ff" stroke="#63b8ff" points="261.42,-341.48 259.69,-351.94 267.56,-344.84 261.42,-341.48"/>
</a>
</g>
</g>
<!-- Node5&#45;&gt;Node6 -->
<g id="edge5_Node000005_Node000006" class="edge">
<title>Node5&#45;&gt;Node6</title>
<g id="a_edge5_Node000005_Node000006"><a xlink:title=" ">
<path fill="none" stroke="#63b8ff" d="M327.31,-275.84C350.46,-264.27 379.73,-249.64 400.91,-239.04"/>
<polygon fill="#63b8ff" stroke="#63b8ff" points="325.51,-272.83 318.13,-280.44 328.64,-279.09 325.51,-272.83"/>
</a>
</g>
</g>
<!-- Node7 -->
<g id="Node000007" class="node">
<title>Node7</title>
<g id="a_Node000007"><a xlink:href="../../d3/d3e/grpc_2include_2userver_2ugrpc_2client_2middlewares_2base_8hpp_source.html" target="_top" xlink:title=" ">
<polygon fill="white" stroke="#666666" points="325,-239 195,-239 195,-209 325,-209 325,-239"/>
<text text-anchor="start" x="203" y="-227" font-family="Helvetica,sans-Serif" font-size="10.00">userver/ugrpc/client</text>
<text text-anchor="middle" x="260" y="-216" font-family="Helvetica,sans-Serif" font-size="10.00">/middlewares/base.hpp</text>
</a>
</g>
</g>
<!-- Node5&#45;&gt;Node7 -->
<g id="edge6_Node000005_Node000007" class="edge">
<title>Node5&#45;&gt;Node7</title>
<g id="a_edge6_Node000005_Node000007"><a xlink:title=" ">
<path fill="none" stroke="#63b8ff" d="M279.96,-271.23C275.35,-260.56 270.04,-248.27 266.06,-239.04"/>
<polygon fill="#63b8ff" stroke="#63b8ff" points="276.75,-272.64 283.93,-280.44 283.18,-269.87 276.75,-272.64"/>
</a>
</g>
</g>
<!-- Node8 -->
<g id="Node000008" class="node">
<title>Node8</title>
<g id="a_Node000008"><a xlink:href="../../d0/d98/client__factory_8hpp.html" target="_top" xlink:title="Creates generated gRPC clients. Has a minimal built&#45;in channel cache: as long as a channel to the sam...">
<polygon fill="white" stroke="#666666" points="633.5,-167.5 520.5,-167.5 520.5,-137.5 633.5,-137.5 633.5,-167.5"/>
<text text-anchor="start" x="528.5" y="-155.5" font-family="Helvetica,sans-Serif" font-size="10.00">userver/ugrpc/client</text>
<text text-anchor="middle" x="577" y="-144.5" font-family="Helvetica,sans-Serif" font-size="10.00">/client_factory.hpp</text>
</a>
</g>
</g>
<!-- Node7&#45;&gt;Node8 -->
<g id="edge7_Node000007_Node000008" class="edge">
<title>Node7&#45;&gt;Node8</title>
<g id="a_edge7_Node000007_Node000008"><a xlink:title=" ">
<path fill="none" stroke="#63b8ff" d="M335.44,-208.33C403.02,-195.13 494.02,-177.19 511,-173 517.61,-171.37 524.55,-169.5 531.35,-167.57"/>
<polygon fill="#63b8ff" stroke="#63b8ff" points="334.38,-204.97 325.23,-210.32 335.72,-211.84 334.38,-204.97"/>
</a>
</g>
</g>
<!-- Node11 -->
<g id="Node000011" class="node">
<title>Node11</title>
<g id="a_Node000011"><a xlink:href="../../d4/d96/grpc_2include_2userver_2ugrpc_2client_2middlewares_2baggage_2component_8hpp_source.html" target="_top" xlink:title=" ">
<polygon fill="white" stroke="#666666" points="128,-173 0,-173 0,-132 128,-132 128,-173"/>
<text text-anchor="start" x="8" y="-161" font-family="Helvetica,sans-Serif" font-size="10.00">userver/ugrpc/client</text>
<text text-anchor="start" x="8" y="-150" font-family="Helvetica,sans-Serif" font-size="10.00">/middlewares/baggage</text>
<text text-anchor="middle" x="64" y="-139" font-family="Helvetica,sans-Serif" font-size="10.00">/component.hpp</text>
</a>
</g>
</g>
<!-- Node7&#45;&gt;Node11 -->
<g id="edge10_Node000007_Node000011" class="edge">
<title>Node7&#45;&gt;Node11</title>
<g id="a_edge10_Node000007_Node000011"><a xlink:title=" ">
<path fill="none" stroke="#63b8ff" d="M210.8,-205.55C182.93,-195.67 148,-183.28 119.2,-173.07"/>
<polygon fill="#63b8ff" stroke="#63b8ff" points="209.74,-208.89 220.34,-208.94 212.08,-202.29 209.74,-208.89"/>
</a>
</g>
</g>
<!-- Node12 -->
<g id="Node000012" class="node">
<title>Node12</title>
<g id="a_Node000012"><a xlink:href="../../d6/d04/grpc_2include_2userver_2ugrpc_2client_2middlewares_2deadline__propagation_2component_8hpp.html" target="_top" xlink:title="ugrpc::client::middlewares::deadline_propagation::Component">
<polygon fill="white" stroke="#666666" points="305.5,-173 146.5,-173 146.5,-132 305.5,-132 305.5,-173"/>
<text text-anchor="start" x="154.5" y="-161" font-family="Helvetica,sans-Serif" font-size="10.00">userver/ugrpc/client</text>
<text text-anchor="start" x="154.5" y="-150" font-family="Helvetica,sans-Serif" font-size="10.00">/middlewares/deadline</text>
<text text-anchor="middle" x="226" y="-139" font-family="Helvetica,sans-Serif" font-size="10.00">_propagation/component.hpp</text>
</a>
</g>
</g>
<!-- Node7&#45;&gt;Node12 -->
<g id="edge11_Node000007_Node000012" class="edge">
<title>Node7&#45;&gt;Node12</title>
<g id="a_edge11_Node000007_Node000012"><a xlink:title=" ">
<path fill="none" stroke="#63b8ff" d="M248.63,-199.75C244.39,-191.1 239.63,-181.37 235.58,-173.07"/>
<polygon fill="#63b8ff" stroke="#63b8ff" points="245.58,-201.49 253.12,-208.94 251.87,-198.41 245.58,-201.49"/>
</a>
</g>
</g>
<!-- Node13 -->
<g id="Node000013" class="node">
<title>Node13</title>
<g id="a_Node000013"><a xlink:href="../../d1/de5/grpc_2include_2userver_2ugrpc_2client_2middlewares_2log_2component_8hpp_source.html" target="_top" xlink:title=" ">
<polygon fill="white" stroke="#666666" points="502.5,-167.5 323.5,-167.5 323.5,-137.5 502.5,-137.5 502.5,-167.5"/>
<text text-anchor="start" x="331.5" y="-155.5" font-family="Helvetica,sans-Serif" font-size="10.00">userver/ugrpc/client</text>
<text text-anchor="middle" x="413" y="-144.5" font-family="Helvetica,sans-Serif" font-size="10.00">/middlewares/log/component.hpp</text>
</a>
</g>
</g>
<!-- Node7&#45;&gt;Node13 -->
<g id="edge12_Node000007_Node000013" class="edge">
<title>Node7&#45;&gt;Node13</title>
<g id="a_edge12_Node000007_Node000013"><a xlink:title=" ">
<path fill="none" stroke="#63b8ff" d="M300.39,-204.65C325.98,-193.03 358.56,-178.23 382.08,-167.54"/>
<polygon fill="#63b8ff" stroke="#63b8ff" points="298.62,-201.61 290.96,-208.94 301.51,-207.99 298.62,-201.61"/>
</a>
</g>
</g>
<!-- Node9 -->
<g id="Node000009" class="node">
<title>Node9</title>
<g id="a_Node000009"><a xlink:href="../../da/dd3/client__factory__component_8hpp.html" target="_top" xlink:title="Provides a ClientFactory in the component system.">
<polygon fill="white" stroke="#666666" points="660.5,-96 493.5,-96 493.5,-66 660.5,-66 660.5,-96"/>
<text text-anchor="start" x="501.5" y="-84" font-family="Helvetica,sans-Serif" font-size="10.00">userver/ugrpc/client</text>
<text text-anchor="middle" x="577" y="-73" font-family="Helvetica,sans-Serif" font-size="10.00">/client_factory_component.hpp</text>
</a>
</g>
</g>
<!-- Node8&#45;&gt;Node9 -->
<g id="edge8_Node000008_Node000009" class="edge">
<title>Node8&#45;&gt;Node9</title>
<g id="a_edge8_Node000008_Node000009"><a xlink:title=" ">
<path fill="none" stroke="#63b8ff" d="M577,-127.25C577,-116.81 577,-104.99 577,-96.04"/>
<polygon fill="#63b8ff" stroke="#63b8ff" points="573.5,-127.44 577,-137.44 580.5,-127.44 573.5,-127.44"/>
</a>
</g>
</g>
<!-- Node10 -->
<g id="Node000010" class="node">
<title>Node10</title>
<g id="a_Node000010"><a xlink:href="../../d8/d98/simple__client__component_8hpp.html" target="_top" xlink:title="Template class for a simple gRPC client.">
<polygon fill="white" stroke="#666666" points="660,-30 494,-30 494,0 660,0 660,-30"/>
<text text-anchor="start" x="502" y="-18" font-family="Helvetica,sans-Serif" font-size="10.00">userver/ugrpc/client</text>
<text text-anchor="middle" x="577" y="-7" font-family="Helvetica,sans-Serif" font-size="10.00">/simple_client_component.hpp</text>
</a>
</g>
</g>
<!-- Node9&#45;&gt;Node10 -->
<g id="edge9_Node000009_Node000010" class="edge">
<title>Node9&#45;&gt;Node10</title>
<g id="a_edge9_Node000009_Node000010"><a xlink:title=" ">
<path fill="none" stroke="#63b8ff" d="M577,-55.54C577,-46.96 577,-37.61 577,-30.16"/>
<polygon fill="#63b8ff" stroke="#63b8ff" points="573.5,-55.8 577,-65.8 580.5,-55.8 573.5,-55.8"/>
</a>
</g>
</g>
<!-- Node14&#45;&gt;Node3 -->
<g id="edge17_Node000014_Node000003" class="edge">
<title>Node14&#45;&gt;Node3</title>
<g id="a_edge17_Node000014_Node000003"><a xlink:title=" ">
<path fill="none" stroke="#63b8ff" d="M437.18,-480.99C403.39,-470.69 360.82,-457.72 328.98,-448.01"/>
<polygon fill="#63b8ff" stroke="#63b8ff" points="436.33,-484.39 446.91,-483.95 438.37,-477.69 436.33,-484.39"/>
</a>
</g>
</g>
<!-- Node14&#45;&gt;Node6 -->
<g id="edge18_Node000014_Node000006" class="edge">
<title>Node14&#45;&gt;Node6</title>
<g id="a_edge18_Node000014_Node000006"><a xlink:title=" ">
<path fill="none" stroke="#63b8ff" d="M491.72,-473.63C490.6,-457.7 488.57,-436.48 485,-418 471.82,-349.83 445.29,-271.02 434.13,-239.31"/>
<polygon fill="#63b8ff" stroke="#63b8ff" points="488.24,-473.96 492.36,-483.72 495.22,-473.52 488.24,-473.96"/>
</a>
</g>
</g>
<!-- Node14&#45;&gt;Node8 -->
<g id="edge16_Node000014_Node000008" class="edge">
<title>Node14&#45;&gt;Node8</title>
<g id="a_edge16_Node000014_Node000008"><a xlink:title=" ">
<path fill="none" stroke="#63b8ff" d="M507.72,-475.08C522.47,-449.88 543,-407.67 543,-368 543,-368 543,-368 543,-294.5 543,-246.91 561.53,-192.74 571.23,-167.64"/>
<polygon fill="#63b8ff" stroke="#63b8ff" points="504.59,-473.5 502.4,-483.87 510.57,-477.13 504.59,-473.5"/>
</a>
</g>
</g>
<!-- Node15 -->
<g id="Node000015" class="node">
<title>Node15</title>
<g id="a_Node000015"><a xlink:href="../../d5/d0c/channels_8hpp.html" target="_top" xlink:title="Utilities for managing gRPC connections.">
<polygon fill="white" stroke="#666666" points="476.5,-448 363.5,-448 363.5,-418 476.5,-418 476.5,-448"/>
<text text-anchor="start" x="371.5" y="-436" font-family="Helvetica,sans-Serif" font-size="10.00">userver/ugrpc/client</text>
<text text-anchor="middle" x="420" y="-425" font-family="Helvetica,sans-Serif" font-size="10.00">/channels.hpp</text>
</a>
</g>
</g>
<!-- Node14&#45;&gt;Node15 -->
<g id="edge15_Node000014_Node000015" class="edge">
<title>Node14&#45;&gt;Node15</title>
<g id="a_edge15_Node000014_Node000015"><a xlink:title=" ">
<path fill="none" stroke="#63b8ff" d="M469.28,-477.2C458.44,-467.7 445.88,-456.69 436.16,-448.16"/>
<polygon fill="#63b8ff" stroke="#63b8ff" points="466.97,-479.84 476.8,-483.8 471.59,-474.57 466.97,-479.84"/>
</a>
</g>
</g>
<!-- Node16&#45;&gt;Node8 -->
<g id="edge21_Node000016_Node000008" class="edge">
<title>Node16&#45;&gt;Node8</title>
<g id="a_edge21_Node000016_Node000008"><a xlink:title=" ">
<path fill="none" stroke="#63b8ff" d="M690.03,-477.7C660.26,-454.85 619,-414.76 619,-368 619,-368 619,-368 619,-294.5 619,-246.48 596.35,-192.95 584.32,-167.9"/>
<polygon fill="#63b8ff" stroke="#63b8ff" points="687.97,-480.53 698.08,-483.68 692.14,-474.91 687.97,-480.53"/>
</a>
</g>
</g>
<!-- Node17 -->
<g id="Node000017" class="node">
<title>Node17</title>
<g id="a_Node000017"><a xlink:href="../../d9/dfa/service__worker_8hpp_source.html" target="_top" xlink:title=" ">
<polygon fill="white" stroke="#666666" points="831,-448 693,-448 693,-418 831,-418 831,-448"/>
<text text-anchor="start" x="701" y="-436" font-family="Helvetica,sans-Serif" font-size="10.00">userver/ugrpc/server</text>
<text text-anchor="middle" x="762" y="-425" font-family="Helvetica,sans-Serif" font-size="10.00">/impl/service_worker.hpp</text>
</a>
</g>
</g>
<!-- Node16&#45;&gt;Node17 -->
<g id="edge22_Node000016_Node000017" class="edge">
<title>Node16&#45;&gt;Node17</title>
<g id="a_edge22_Node000016_Node000017"><a xlink:title=" ">
<path fill="none" stroke="#63b8ff" d="M734.93,-475.24C740.86,-466.21 747.49,-456.11 752.7,-448.16"/>
<polygon fill="#63b8ff" stroke="#63b8ff" points="731.88,-473.52 729.32,-483.8 737.73,-477.36 731.88,-473.52"/>
</a>
</g>
</g>
<!-- Node18 -->
<g id="Node000018" class="node">
<title>Node18</title>
<g id="a_Node000018"><a xlink:href="../../df/d2b/server_2impl_2codegen__declarations_8hpp_source.html" target="_top" xlink:title=" ">
<polygon fill="white" stroke="#666666" points="853,-239 681,-239 681,-209 853,-209 853,-239"/>
<text text-anchor="start" x="689" y="-227" font-family="Helvetica,sans-Serif" font-size="10.00">userver/ugrpc/server</text>
<text text-anchor="middle" x="767" y="-216" font-family="Helvetica,sans-Serif" font-size="10.00">/impl/codegen_declarations.hpp</text>
</a>
</g>
</g>
<!-- Node17&#45;&gt;Node18 -->
<g id="edge23_Node000017_Node000018" class="edge">
<title>Node17&#45;&gt;Node18</title>
<g id="a_edge23_Node000017_Node000018"><a xlink:title=" ">
<path fill="none" stroke="#63b8ff" d="M736,-411.23C701.37,-380.95 647.58,-323.04 676,-275 685.91,-258.24 703.66,-246.73 720.86,-239.01"/>
<polygon fill="#63b8ff" stroke="#63b8ff" points="734.03,-414.15 743.91,-417.97 738.56,-408.82 734.03,-414.15"/>
</a>
</g>
</g>
<!-- Node17&#45;&gt;Node19 -->
<g id="edge24_Node000017_Node000019" class="edge">
<title>Node17&#45;&gt;Node19</title>
<g id="a_edge24_Node000017_Node000019"><a xlink:title=" ">
<path fill="none" stroke="#63b8ff" d="M809.54,-414.03C829.3,-405.61 852,-394.63 871,-382 899.86,-362.81 928.52,-334.74 946.24,-316.06"/>
<polygon fill="#63b8ff" stroke="#63b8ff" points="808,-410.89 800.11,-417.96 810.69,-417.35 808,-410.89"/>
</a>
</g>
</g>
<!-- Node21 -->
<g id="Node000021" class="node">
<title>Node21</title>
<g id="a_Node000021"><a xlink:href="../../df/da9/service__base_8hpp.html" target="_top" xlink:title="The type&#45;erased base class for all gRPC service implementations.">
<polygon fill="white" stroke="#666666" points="861.5,-382 744.5,-382 744.5,-352 861.5,-352 861.5,-382"/>
<text text-anchor="start" x="752.5" y="-370" font-family="Helvetica,sans-Serif" font-size="10.00">userver/ugrpc/server</text>
<text text-anchor="middle" x="803" y="-359" font-family="Helvetica,sans-Serif" font-size="10.00">/service_base.hpp</text>
</a>
</g>
</g>
<!-- Node17&#45;&gt;Node21 -->
<g id="edge26_Node000017_Node000021" class="edge">
<title>Node17&#45;&gt;Node21</title>
<g id="a_edge26_Node000017_Node000021"><a xlink:title=" ">
<path fill="none" stroke="#63b8ff" d="M776.58,-409.24C782.36,-400.21 788.84,-390.11 793.93,-382.16"/>
<polygon fill="#63b8ff" stroke="#63b8ff" points="773.55,-407.49 771.1,-417.8 779.44,-411.26 773.55,-407.49"/>
</a>
</g>
</g>
<!-- Node20 -->
<g id="Node000020" class="node">
<title>Node20</title>
<g id="a_Node000020"><a xlink:href="../../d1/dac/server_2impl_2codegen__definitions_8hpp_source.html" target="_top" xlink:title=" ">
<polygon fill="white" stroke="#666666" points="1040.5,-239 877.5,-239 877.5,-209 1040.5,-209 1040.5,-239"/>
<text text-anchor="start" x="885.5" y="-227" font-family="Helvetica,sans-Serif" font-size="10.00">userver/ugrpc/server</text>
<text text-anchor="middle" x="959" y="-216" font-family="Helvetica,sans-Serif" font-size="10.00">/impl/codegen_definitions.hpp</text>
</a>
</g>
</g>
<!-- Node19&#45;&gt;Node20 -->
<g id="edge25_Node000019_Node000020" class="edge">
<title>Node19&#45;&gt;Node20</title>
<g id="a_edge25_Node000019_Node000020"><a xlink:title=" ">
<path fill="none" stroke="#63b8ff" d="M961.85,-264.66C961.21,-255.76 960.54,-246.42 960.01,-239.04"/>
<polygon fill="#63b8ff" stroke="#63b8ff" points="958.37,-265.05 962.58,-274.77 965.35,-264.54 958.37,-265.05"/>
</a>
</g>
</g>
<!-- Node21&#45;&gt;Node18 -->
<g id="edge27_Node000021_Node000018" class="edge">
<title>Node21&#45;&gt;Node18</title>
<g id="a_edge27_Node000021_Node000018"><a xlink:title=" ">
<path fill="none" stroke="#63b8ff" d="M834.02,-345.7C843.54,-337.69 852.86,-327.62 858,-316 865.37,-299.34 867.28,-290.68 858,-275 848.09,-258.24 830.34,-246.73 813.14,-239.01"/>
<polygon fill="#63b8ff" stroke="#63b8ff" points="831.78,-343 826.06,-351.92 836.09,-348.52 831.78,-343"/>
</a>
</g>
</g>
<!-- Node21&#45;&gt;Node19 -->
<g id="edge28_Node000021_Node000019" class="edge">
<title>Node21&#45;&gt;Node19</title>
<g id="a_edge28_Node000021_Node000019"><a xlink:title=" ">
<path fill="none" stroke="#63b8ff" d="M844.92,-347.9C867.56,-338.13 895.52,-326.06 918.66,-316.07"/>
<polygon fill="#63b8ff" stroke="#63b8ff" points="843.37,-344.76 835.58,-351.94 846.15,-351.19 843.37,-344.76"/>
</a>
</g>
</g>
<!-- Node21&#45;&gt;Node22 -->
<g id="edge29_Node000021_Node000022" class="edge">
<title>Node21&#45;&gt;Node22</title>
<g id="a_edge29_Node000021_Node000022"><a xlink:title=" ">
<path fill="none" stroke="#63b8ff" d="M871.67,-352.21C917.3,-342.75 978.44,-329.51 1032,-316 1038.67,-314.32 1045.67,-312.44 1052.55,-310.53"/>
<polygon fill="#63b8ff" stroke="#63b8ff" points="870.68,-348.84 861.6,-354.29 872.1,-355.69 870.68,-348.84"/>
</a>
</g>
</g>
<!-- Node24 -->
<g id="Node000024" class="node">
<title>Node24</title>
<g id="a_Node000024"><a xlink:href="../../d1/d68/service__component__base_8hpp.html" target="_top" xlink:title="Base class for all the gRPC service components.">
<polygon fill="white" stroke="#666666" points="849,-310.5 685,-310.5 685,-280.5 849,-280.5 849,-310.5"/>
<text text-anchor="start" x="693" y="-298.5" font-family="Helvetica,sans-Serif" font-size="10.00">userver/ugrpc/server</text>
<text text-anchor="middle" x="767" y="-287.5" font-family="Helvetica,sans-Serif" font-size="10.00">/service_component_base.hpp</text>
</a>
</g>
</g>
<!-- Node21&#45;&gt;Node24 -->
<g id="edge31_Node000021_Node000024" class="edge">
<title>Node21&#45;&gt;Node24</title>
<g id="a_edge31_Node000021_Node000024"><a xlink:title=" ">
<path fill="none" stroke="#63b8ff" d="M790.95,-342.73C785.42,-332.06 779.05,-319.77 774.27,-310.54"/>
<polygon fill="#63b8ff" stroke="#63b8ff" points="788.01,-344.67 795.71,-351.94 794.22,-341.45 788.01,-344.67"/>
</a>
</g>
</g>
<!-- Node23 -->
<g id="Node000023" class="node">
<title>Node23</title>
<g id="a_Node000023"><a xlink:href="../../db/d7e/server__component_8hpp.html" target="_top" xlink:title="Component that configures and manages the gRPC server.">
<polygon fill="white" stroke="#666666" points="1189.5,-239 1058.5,-239 1058.5,-209 1189.5,-209 1189.5,-239"/>
<text text-anchor="start" x="1066.5" y="-227" font-family="Helvetica,sans-Serif" font-size="10.00">userver/ugrpc/server</text>
<text text-anchor="middle" x="1124" y="-216" font-family="Helvetica,sans-Serif" font-size="10.00">/server_component.hpp</text>
</a>
</g>
</g>
<!-- Node22&#45;&gt;Node23 -->
<g id="edge30_Node000022_Node000023" class="edge">
<title>Node22&#45;&gt;Node23</title>
<g id="a_edge30_Node000022_Node000023"><a xlink:title=" ">
<path fill="none" stroke="#63b8ff" d="M1108.15,-270.9C1111.81,-260.31 1116,-248.18 1119.15,-239.04"/>
<polygon fill="#63b8ff" stroke="#63b8ff" points="1104.81,-269.84 1104.86,-280.44 1111.43,-272.13 1104.81,-269.84"/>
</a>
</g>
</g>
<!-- Node24&#45;&gt;Node18 -->
<g id="edge32_Node000024_Node000018" class="edge">
<title>Node24&#45;&gt;Node18</title>
<g id="a_edge32_Node000024_Node000018"><a xlink:title=" ">
<path fill="none" stroke="#63b8ff" d="M767,-270.25C767,-259.81 767,-247.99 767,-239.04"/>
<polygon fill="#63b8ff" stroke="#63b8ff" points="763.5,-270.44 767,-280.44 770.5,-270.44 763.5,-270.44"/>
</a>
</g>
</g>
<!-- Node26 -->
<g id="Node000026" class="node">
<title>Node26</title>
<g id="a_Node000026"><a xlink:href="../../d0/d5e/redis__config_8hpp_source.html" target="_top" xlink:title=" ">
<polygon fill="white" stroke="#666666" points="1119.5,-514 994.5,-514 994.5,-484 1119.5,-484 1119.5,-514"/>
<text text-anchor="start" x="1002.5" y="-502" font-family="Helvetica,sans-Serif" font-size="10.00">userver/storages/redis</text>
<text text-anchor="middle" x="1057" y="-491" font-family="Helvetica,sans-Serif" font-size="10.00">/redis_config.hpp</text>
</a>
</g>
</g>
<!-- Node25&#45;&gt;Node26 -->
<g id="edge36_Node000025_Node000026" class="edge">
<title>Node25&#45;&gt;Node26</title>
<g id="a_edge36_Node000025_Node000026"><a xlink:title=" ">
<path fill="none" stroke="#63b8ff" d="M987.09,-544.3C1002.46,-534.56 1020.67,-523.02 1034.65,-514.16"/>
<polygon fill="#63b8ff" stroke="#63b8ff" points="984.99,-541.49 978.42,-549.8 988.74,-547.4 984.99,-541.49"/>
</a>
</g>
</g>
</g>
</svg>
