<?xml version="1.0" encoding="UTF-8" standalone="no"?>
<!DOCTYPE svg PUBLIC "-//W3C//DTD SVG 1.1//EN"
 "http://www.w3.org/Graphics/SVG/1.1/DTD/svg11.dtd">
<!-- Generated by graphviz version 2.43.0 (0)
 -->
<!-- Title: userver/utils/statistics/rate_counter.hpp Pages: 1 -->
<svg width="759pt" height="302pt"
 viewBox="0.00 0.00 759.00 302.00" xmlns="http://www.w3.org/2000/svg" xmlns:xlink="http://www.w3.org/1999/xlink">
<g id="graph0" class="graph" transform="scale(1 1) rotate(0) translate(4 298)">
<title>userver/utils/statistics/rate_counter.hpp</title>
<!-- Node1 -->
<g id="Node000001" class="node">
<title>Node1</title>
<g id="a_Node000001"><a xlink:title="Atomic counter of type Rate with relaxed memory ordering.">
<polygon fill="#999999" stroke="#666666" points="599,-294 474,-294 474,-264 599,-264 599,-294"/>
<text text-anchor="start" x="482" y="-282" font-family="Helvetica,sans-Serif" font-size="10.00">userver/utils/statistics</text>
<text text-anchor="middle" x="536.5" y="-271" font-family="Helvetica,sans-Serif" font-size="10.00">/rate_counter.hpp</text>
</a>
</g>
</g>
<!-- Node2 -->
<g id="Node000002" class="node">
<title>Node2</title>
<g id="a_Node000002"><a xlink:href="../../d1/d8c/cache__statistics_8hpp.html" target="_top" xlink:title="Statistics collection for components::CachingComponentBase.">
<polygon fill="white" stroke="#666666" points="301.5,-228 185.5,-228 185.5,-198 301.5,-198 301.5,-228"/>
<text text-anchor="start" x="193.5" y="-216" font-family="Helvetica,sans-Serif" font-size="10.00">userver/cache/cache</text>
<text text-anchor="middle" x="243.5" y="-205" font-family="Helvetica,sans-Serif" font-size="10.00">_statistics.hpp</text>
</a>
</g>
</g>
<!-- Node1&#45;&gt;Node2 -->
<g id="edge1_Node000001_Node000002" class="edge">
<title>Node1&#45;&gt;Node2</title>
<g id="a_edge1_Node000001_Node000002"><a xlink:title=" ">
<path fill="none" stroke="#63b8ff" d="M463.86,-262.13C413.87,-251.21 348.34,-236.9 301.77,-226.73"/>
<polygon fill="#63b8ff" stroke="#63b8ff" points="463.13,-265.56 473.64,-264.27 464.62,-258.72 463.13,-265.56"/>
</a>
</g>
</g>
<!-- Node9 -->
<g id="Node000009" class="node">
<title>Node9</title>
<g id="a_Node000009"><a xlink:href="../../d1/db6/postgresql_2include_2userver_2storages_2postgres_2statistics_8hpp.html" target="_top" xlink:title="Statistics helpers.">
<polygon fill="white" stroke="#666666" points="608,-228 465,-228 465,-198 608,-198 608,-228"/>
<text text-anchor="start" x="473" y="-216" font-family="Helvetica,sans-Serif" font-size="10.00">userver/storages/postgres</text>
<text text-anchor="middle" x="536.5" y="-205" font-family="Helvetica,sans-Serif" font-size="10.00">/statistics.hpp</text>
</a>
</g>
</g>
<!-- Node1&#45;&gt;Node9 -->
<g id="edge11_Node000001_Node000009" class="edge">
<title>Node1&#45;&gt;Node9</title>
<g id="a_edge11_Node000001_Node000009"><a xlink:title=" ">
<path fill="none" stroke="#63b8ff" d="M536.5,-253.54C536.5,-244.96 536.5,-235.61 536.5,-228.16"/>
<polygon fill="#63b8ff" stroke="#63b8ff" points="533,-253.8 536.5,-263.8 540,-253.8 533,-253.8"/>
</a>
</g>
</g>
<!-- Node12 -->
<g id="Node000012" class="node">
<title>Node12</title>
<g id="a_Node000012"><a xlink:href="../../d5/d25/retry__budget_8hpp.html" target="_top" xlink:title=" ">
<polygon fill="white" stroke="#666666" points="735.5,-228 631.5,-228 631.5,-198 735.5,-198 735.5,-228"/>
<text text-anchor="start" x="639.5" y="-216" font-family="Helvetica,sans-Serif" font-size="10.00">userver/utils/retry</text>
<text text-anchor="middle" x="683.5" y="-205" font-family="Helvetica,sans-Serif" font-size="10.00">_budget.hpp</text>
</a>
</g>
</g>
<!-- Node1&#45;&gt;Node12 -->
<g id="edge15_Node000001_Node000012" class="edge">
<title>Node1&#45;&gt;Node12</title>
<g id="a_edge15_Node000001_Node000012"><a xlink:title=" ">
<path fill="none" stroke="#63b8ff" d="M578.03,-259.92C601.26,-249.8 629.79,-237.38 651.32,-228.01"/>
<polygon fill="#63b8ff" stroke="#63b8ff" points="576.53,-256.75 568.76,-263.95 579.33,-263.17 576.53,-256.75"/>
</a>
</g>
</g>
<!-- Node3 -->
<g id="Node000003" class="node">
<title>Node3</title>
<g id="a_Node000003"><a xlink:href="../../dd/d6c/base__mongo__cache_8hpp.html" target="_top" xlink:title="Base class for all caches polling mongo collection">
<polygon fill="white" stroke="#666666" points="111,-30 0,-30 0,0 111,0 111,-30"/>
<text text-anchor="start" x="8" y="-18" font-family="Helvetica,sans-Serif" font-size="10.00">userver/cache/base</text>
<text text-anchor="middle" x="55.5" y="-7" font-family="Helvetica,sans-Serif" font-size="10.00">_mongo_cache.hpp</text>
</a>
</g>
</g>
<!-- Node2&#45;&gt;Node3 -->
<g id="edge2_Node000002_Node000003" class="edge">
<title>Node2&#45;&gt;Node3</title>
<g id="a_edge2_Node000002_Node000003"><a xlink:title=" ">
<path fill="none" stroke="#63b8ff" d="M175.66,-198.23C152.89,-190.75 128.9,-179.32 111.5,-162 73.8,-124.45 61,-58.82 57.07,-30.11"/>
<polygon fill="#63b8ff" stroke="#63b8ff" points="174.73,-201.61 185.32,-201.21 176.79,-194.92 174.73,-201.61"/>
</a>
</g>
</g>
<!-- Node4 -->
<g id="Node000004" class="node">
<title>Node4</title>
<g id="a_Node000004"><a xlink:href="../../dc/df7/base__postgres__cache_8hpp.html" target="_top" xlink:title="Caching component for PostgreSQL. See Caching Component for PostgreSQL.">
<polygon fill="white" stroke="#666666" points="403,-30 284,-30 284,0 403,0 403,-30"/>
<text text-anchor="start" x="292" y="-18" font-family="Helvetica,sans-Serif" font-size="10.00">userver/cache/base</text>
<text text-anchor="middle" x="343.5" y="-7" font-family="Helvetica,sans-Serif" font-size="10.00">_postgres_cache.hpp</text>
</a>
</g>
</g>
<!-- Node2&#45;&gt;Node4 -->
<g id="edge3_Node000002_Node000004" class="edge">
<title>Node2&#45;&gt;Node4</title>
<g id="a_edge3_Node000002_Node000004"><a xlink:title=" ">
<path fill="none" stroke="#63b8ff" d="M255.27,-188.94C276.15,-148 319.13,-63.77 336.24,-30.23"/>
<polygon fill="#63b8ff" stroke="#63b8ff" points="252.12,-187.41 250.69,-197.9 258.35,-190.59 252.12,-187.41"/>
</a>
</g>
</g>
<!-- Node5 -->
<g id="Node000005" class="node">
<title>Node5</title>
<g id="a_Node000005"><a xlink:href="../../d1/d20/cache__update__trait_8hpp.html" target="_top" xlink:title="Base class for periodically updated caches.">
<polygon fill="white" stroke="#666666" points="256.5,-162 140.5,-162 140.5,-132 256.5,-132 256.5,-162"/>
<text text-anchor="start" x="148.5" y="-150" font-family="Helvetica,sans-Serif" font-size="10.00">userver/cache/cache</text>
<text text-anchor="middle" x="198.5" y="-139" font-family="Helvetica,sans-Serif" font-size="10.00">_update_trait.hpp</text>
</a>
</g>
</g>
<!-- Node2&#45;&gt;Node5 -->
<g id="edge4_Node000002_Node000005" class="edge">
<title>Node2&#45;&gt;Node5</title>
<g id="a_edge4_Node000002_Node000005"><a xlink:title=" ">
<path fill="none" stroke="#63b8ff" d="M227.7,-189.53C221.3,-180.43 214.11,-170.19 208.46,-162.16"/>
<polygon fill="#63b8ff" stroke="#63b8ff" points="224.9,-191.63 233.51,-197.8 230.62,-187.6 224.9,-191.63"/>
</a>
</g>
</g>
<!-- Node7 -->
<g id="Node000007" class="node">
<title>Node7</title>
<g id="a_Node000007"><a xlink:href="../../db/df3/core_2include_2userver_2dynamic__config_2updater_2component_8hpp.html" target="_top" xlink:title="Component that does a periodic update of runtime configs.">
<polygon fill="white" stroke="#666666" points="265.5,-30 129.5,-30 129.5,0 265.5,0 265.5,-30"/>
<text text-anchor="start" x="137.5" y="-18" font-family="Helvetica,sans-Serif" font-size="10.00">userver/dynamic_config</text>
<text text-anchor="middle" x="197.5" y="-7" font-family="Helvetica,sans-Serif" font-size="10.00">/updater/component.hpp</text>
</a>
</g>
</g>
<!-- Node2&#45;&gt;Node7 -->
<g id="edge10_Node000002_Node000007" class="edge">
<title>Node2&#45;&gt;Node7</title>
<g id="a_edge10_Node000002_Node000007"><a xlink:title=" ">
<path fill="none" stroke="#63b8ff" d="M175.79,-195.18C158.79,-187.75 142.32,-177.13 131.5,-162 106.63,-127.23 105.69,-103.88 125.5,-66 133.82,-50.09 149.77,-38.22 164.55,-30.05"/>
<polygon fill="#63b8ff" stroke="#63b8ff" points="174.68,-198.51 185.27,-199 177.29,-192.02 174.68,-198.51"/>
</a>
</g>
</g>
<!-- Node8 -->
<g id="Node000008" class="node">
<title>Node8</title>
<g id="a_Node000008"><a xlink:href="../../dd/dd2/statistics__mock_8hpp.html" target="_top" xlink:title="Allows to test helper functions of CacheUpdateTrait::Update that use UpdateStatisticsScope.">
<polygon fill="white" stroke="#666666" points="446.5,-162 314.5,-162 314.5,-132 446.5,-132 446.5,-162"/>
<text text-anchor="start" x="322.5" y="-150" font-family="Helvetica,sans-Serif" font-size="10.00">userver/cache/statistics</text>
<text text-anchor="middle" x="380.5" y="-139" font-family="Helvetica,sans-Serif" font-size="10.00">_mock.hpp</text>
</a>
</g>
</g>
<!-- Node2&#45;&gt;Node8 -->
<g id="edge9_Node000002_Node000008" class="edge">
<title>Node2&#45;&gt;Node8</title>
<g id="a_edge9_Node000002_Node000008"><a xlink:title=" ">
<path fill="none" stroke="#63b8ff" d="M282.78,-193.65C304.33,-183.58 330.62,-171.3 350.5,-162.01"/>
<polygon fill="#63b8ff" stroke="#63b8ff" points="281.14,-190.55 273.57,-197.95 284.11,-196.89 281.14,-190.55"/>
</a>
</g>
</g>
<!-- Node6 -->
<g id="Node000006" class="node">
<title>Node6</title>
<g id="a_Node000006"><a xlink:href="../../df/d56/caching__component__base_8hpp.html" target="_top" xlink:title="Base class for caching components.">
<polygon fill="white" stroke="#666666" points="260.5,-96 134.5,-96 134.5,-66 260.5,-66 260.5,-96"/>
<text text-anchor="start" x="142.5" y="-84" font-family="Helvetica,sans-Serif" font-size="10.00">userver/cache/caching</text>
<text text-anchor="middle" x="197.5" y="-73" font-family="Helvetica,sans-Serif" font-size="10.00">_component_base.hpp</text>
</a>
</g>
</g>
<!-- Node5&#45;&gt;Node6 -->
<g id="edge5_Node000005_Node000006" class="edge">
<title>Node5&#45;&gt;Node6</title>
<g id="a_edge5_Node000005_Node000006"><a xlink:title=" ">
<path fill="none" stroke="#63b8ff" d="M198.12,-121.54C197.98,-112.96 197.84,-103.61 197.72,-96.16"/>
<polygon fill="#63b8ff" stroke="#63b8ff" points="194.62,-121.85 198.28,-131.8 201.62,-121.74 194.62,-121.85"/>
</a>
</g>
</g>
<!-- Node6&#45;&gt;Node3 -->
<g id="edge6_Node000006_Node000003" class="edge">
<title>Node6&#45;&gt;Node3</title>
<g id="a_edge6_Node000006_Node000003"><a xlink:title=" ">
<path fill="none" stroke="#63b8ff" d="M157.08,-61.78C134.7,-51.69 107.29,-39.34 86.59,-30.01"/>
<polygon fill="#63b8ff" stroke="#63b8ff" points="155.78,-65.04 166.34,-65.95 158.66,-58.65 155.78,-65.04"/>
</a>
</g>
</g>
<!-- Node6&#45;&gt;Node4 -->
<g id="edge7_Node000006_Node000004" class="edge">
<title>Node6&#45;&gt;Node4</title>
<g id="a_edge7_Node000006_Node000004"><a xlink:title=" ">
<path fill="none" stroke="#63b8ff" d="M238.75,-61.92C261.82,-51.8 290.16,-39.38 311.53,-30.01"/>
<polygon fill="#63b8ff" stroke="#63b8ff" points="237.29,-58.73 229.54,-65.95 240.1,-65.15 237.29,-58.73"/>
</a>
</g>
</g>
<!-- Node6&#45;&gt;Node7 -->
<g id="edge8_Node000006_Node000007" class="edge">
<title>Node6&#45;&gt;Node7</title>
<g id="a_edge8_Node000006_Node000007"><a xlink:title=" ">
<path fill="none" stroke="#63b8ff" d="M197.5,-55.54C197.5,-46.96 197.5,-37.61 197.5,-30.16"/>
<polygon fill="#63b8ff" stroke="#63b8ff" points="194,-55.8 197.5,-65.8 201,-55.8 194,-55.8"/>
</a>
</g>
</g>
<!-- Node10 -->
<g id="Node000010" class="node">
<title>Node10</title>
<g id="a_Node000010"><a xlink:href="../../de/dd3/postgresql_2include_2userver_2storages_2postgres_2cluster_8hpp.html" target="_top" xlink:title="Interface for executing queries on a cluster of PostgreSQL servers.">
<polygon fill="white" stroke="#666666" points="608,-162 465,-162 465,-132 608,-132 608,-162"/>
<text text-anchor="start" x="473" y="-150" font-family="Helvetica,sans-Serif" font-size="10.00">userver/storages/postgres</text>
<text text-anchor="middle" x="536.5" y="-139" font-family="Helvetica,sans-Serif" font-size="10.00">/cluster.hpp</text>
</a>
</g>
</g>
<!-- Node9&#45;&gt;Node10 -->
<g id="edge12_Node000009_Node000010" class="edge">
<title>Node9&#45;&gt;Node10</title>
<g id="a_edge12_Node000009_Node000010"><a xlink:title=" ">
<path fill="none" stroke="#63b8ff" d="M536.5,-187.54C536.5,-178.96 536.5,-169.61 536.5,-162.16"/>
<polygon fill="#63b8ff" stroke="#63b8ff" points="533,-187.8 536.5,-197.8 540,-187.8 533,-187.8"/>
</a>
</g>
</g>
<!-- Node10&#45;&gt;Node4 -->
<g id="edge13_Node000010_Node000004" class="edge">
<title>Node10&#45;&gt;Node4</title>
<g id="a_edge13_Node000010_Node000004"><a xlink:title=" ">
<path fill="none" stroke="#63b8ff" d="M503.97,-126.61C489.06,-117.54 471.23,-106.45 455.5,-96 422.27,-73.91 384.73,-46.6 362.65,-30.27"/>
<polygon fill="#63b8ff" stroke="#63b8ff" points="502.47,-129.79 512.84,-131.97 506.1,-123.8 502.47,-129.79"/>
</a>
</g>
</g>
<!-- Node11 -->
<g id="Node000011" class="node">
<title>Node11</title>
<g id="a_Node000011"><a xlink:href="../../df/d02/postgres_8hpp.html" target="_top" xlink:title=" ">
<polygon fill="white" stroke="#666666" points="608,-96 465,-96 465,-66 608,-66 608,-96"/>
<text text-anchor="start" x="473" y="-84" font-family="Helvetica,sans-Serif" font-size="10.00">userver/storages/postgres</text>
<text text-anchor="middle" x="536.5" y="-73" font-family="Helvetica,sans-Serif" font-size="10.00">/postgres.hpp</text>
</a>
</g>
</g>
<!-- Node10&#45;&gt;Node11 -->
<g id="edge14_Node000010_Node000011" class="edge">
<title>Node10&#45;&gt;Node11</title>
<g id="a_edge14_Node000010_Node000011"><a xlink:title=" ">
<path fill="none" stroke="#63b8ff" d="M536.5,-121.54C536.5,-112.96 536.5,-103.61 536.5,-96.16"/>
<polygon fill="#63b8ff" stroke="#63b8ff" points="533,-121.8 536.5,-131.8 540,-121.8 533,-121.8"/>
</a>
</g>
</g>
<!-- Node13 -->
<g id="Node000013" class="node">
<title>Node13</title>
<g id="a_Node000013"><a xlink:href="../../d0/d5e/redis__config_8hpp_source.html" target="_top" xlink:title=" ">
<polygon fill="white" stroke="#666666" points="751,-162 626,-162 626,-132 751,-132 751,-162"/>
<text text-anchor="start" x="634" y="-150" font-family="Helvetica,sans-Serif" font-size="10.00">userver/storages/redis</text>
<text text-anchor="middle" x="688.5" y="-139" font-family="Helvetica,sans-Serif" font-size="10.00">/redis_config.hpp</text>
</a>
</g>
</g>
<!-- Node12&#45;&gt;Node13 -->
<g id="edge16_Node000012_Node000013" class="edge">
<title>Node12&#45;&gt;Node13</title>
<g id="a_edge16_Node000012_Node000013"><a xlink:title=" ">
<path fill="none" stroke="#63b8ff" d="M685.39,-187.83C686.06,-179.17 686.8,-169.7 687.39,-162.16"/>
<polygon fill="#63b8ff" stroke="#63b8ff" points="681.9,-187.55 684.61,-197.8 688.88,-188.1 681.9,-187.55"/>
</a>
</g>
</g>
</g>
</svg>
