<?xml version="1.0" encoding="UTF-8" standalone="no"?>
<!DOCTYPE svg PUBLIC "-//W3C//DTD SVG 1.1//EN"
 "http://www.w3.org/Graphics/SVG/1.1/DTD/svg11.dtd">
<!-- Generated by graphviz version 2.43.0 (0)
 -->
<!-- Title: userver/concurrent/mpsc_queue.hpp Pages: 1 -->
<svg width="310pt" height="115pt"
 viewBox="0.00 0.00 310.00 115.00" xmlns="http://www.w3.org/2000/svg" xmlns:xlink="http://www.w3.org/1999/xlink">
<g id="graph0" class="graph" transform="scale(1 1) rotate(0) translate(4 111)">
<title>userver/concurrent/mpsc_queue.hpp</title>
<!-- Node1 -->
<g id="Node000001" class="node">
<title>Node1</title>
<g id="a_Node000001"><a xlink:title="Multiple producer, single consumer queue.">
<polygon fill="#999999" stroke="#666666" points="210,-107 102,-107 102,-77 210,-77 210,-107"/>
<text text-anchor="start" x="110" y="-95" font-family="Helvetica,sans-Serif" font-size="10.00">userver/concurrent</text>
<text text-anchor="middle" x="156" y="-84" font-family="Helvetica,sans-Serif" font-size="10.00">/mpsc_queue.hpp</text>
</a>
</g>
</g>
<!-- Node2 -->
<g id="Node000002" class="node">
<title>Node2</title>
<g id="a_Node000002"><a xlink:href="../../d0/d3f/poller_8hpp.html" target="_top" xlink:title="I/O event monitor.">
<polygon fill="white" stroke="#666666" points="152,-30 0,-30 0,-11 152,-11 152,-30"/>
<text text-anchor="middle" x="76" y="-18" font-family="Helvetica,sans-Serif" font-size="10.00">userver/engine/io/poller.hpp</text>
</a>
</g>
</g>
<!-- Node1&#45;&gt;Node2 -->
<g id="edge1_Node000001_Node000002" class="edge">
<title>Node1&#45;&gt;Node2</title>
<g id="a_edge1_Node000001_Node000002"><a xlink:title=" ">
<path fill="none" stroke="#63b8ff" d="M132.18,-70.31C116.81,-56.95 97.6,-40.26 86.09,-30.27"/>
<polygon fill="#63b8ff" stroke="#63b8ff" points="129.97,-73.02 139.81,-76.94 134.56,-67.74 129.97,-73.02"/>
</a>
</g>
</g>
<!-- Node3 -->
<g id="Node000003" class="node">
<title>Node3</title>
<g id="a_Node000003"><a xlink:href="../../db/df0/standalone__checker_8hpp.html" target="_top" xlink:title="Class for digest authentication checker. Implements a stand&#45;alone digest&#45;authentication logic.">
<polygon fill="white" stroke="#666666" points="302,-41 170,-41 170,0 302,0 302,-41"/>
<text text-anchor="start" x="178" y="-29" font-family="Helvetica,sans-Serif" font-size="10.00">userver/server/handlers</text>
<text text-anchor="start" x="178" y="-18" font-family="Helvetica,sans-Serif" font-size="10.00">/auth/digest/standalone</text>
<text text-anchor="middle" x="236" y="-7" font-family="Helvetica,sans-Serif" font-size="10.00">_checker.hpp</text>
</a>
</g>
</g>
<!-- Node1&#45;&gt;Node3 -->
<g id="edge2_Node000001_Node000003" class="edge">
<title>Node1&#45;&gt;Node3</title>
<g id="a_edge2_Node000001_Node000003"><a xlink:title=" ">
<path fill="none" stroke="#63b8ff" d="M179.9,-70.23C190.54,-60.99 203,-50.17 213.47,-41.07"/>
<polygon fill="#63b8ff" stroke="#63b8ff" points="177.44,-67.74 172.19,-76.94 182.03,-73.02 177.44,-67.74"/>
</a>
</g>
</g>
</g>
</svg>
