<?xml version="1.0" encoding="UTF-8" standalone="no"?>
<!DOCTYPE svg PUBLIC "-//W3C//DTD SVG 1.1//EN"
 "http://www.w3.org/Graphics/SVG/1.1/DTD/svg11.dtd">
<!-- Generated by graphviz version 2.43.0 (0)
 -->
<!-- Title: urabbitmq::IChannelInterface Pages: 1 -->
<svg width="240pt" height="82pt"
 viewBox="0.00 0.00 240.00 82.00" xmlns="http://www.w3.org/2000/svg" xmlns:xlink="http://www.w3.org/1999/xlink">
<g id="graph0" class="graph" transform="scale(1 1) rotate(0) translate(4 78)">
<title>urabbitmq::IChannelInterface</title>
<!-- Node1 -->
<g id="Node000001" class="node">
<title>Node1</title>
<g id="a_Node000001"><a xlink:title="Publisher interface for the broker. This class is merely an interface for convenience and you are not...">
<polygon fill="#999999" stroke="#666666" points="198,-74 39,-74 39,-55 198,-55 198,-74"/>
<text text-anchor="middle" x="118.5" y="-62" font-family="Helvetica,sans-Serif" font-size="10.00">urabbitmq::IChannelInterface</text>
</a>
</g>
</g>
<!-- Node2 -->
<g id="Node000002" class="node">
<title>Node2</title>
<g id="a_Node000002"><a xlink:href="../../da/d8b/classurabbitmq_1_1Channel.html" target="_top" xlink:title="Publisher interface for the broker. You may use this class to publish your messages.">
<polygon fill="white" stroke="#666666" points="113,-19 0,-19 0,0 113,0 113,-19"/>
<text text-anchor="middle" x="56.5" y="-7" font-family="Helvetica,sans-Serif" font-size="10.00">urabbitmq::Channel</text>
</a>
</g>
</g>
<!-- Node1&#45;&gt;Node2 -->
<g id="edge1_Node000001_Node000002" class="edge">
<title>Node1&#45;&gt;Node2</title>
<g id="a_edge1_Node000001_Node000002"><a xlink:title=" ">
<path fill="none" stroke="#8b1a1a" d="M100.75,-48.32C89.69,-38.87 75.87,-27.06 66.64,-19.17"/>
<polygon fill="#8b1a1a" stroke="#8b1a1a" points="98.66,-51.15 108.54,-54.98 103.21,-45.83 98.66,-51.15"/>
</a>
</g>
</g>
<!-- Node3 -->
<g id="Node000003" class="node">
<title>Node3</title>
<g id="a_Node000003"><a xlink:href="../../da/d66/classurabbitmq_1_1Client.html" target="_top" xlink:title="Interface for communicating with a RabbitMQ cluster.">
<polygon fill="white" stroke="#666666" points="232,-19 131,-19 131,0 232,0 232,-19"/>
<text text-anchor="middle" x="181.5" y="-7" font-family="Helvetica,sans-Serif" font-size="10.00">urabbitmq::Client</text>
</a>
</g>
</g>
<!-- Node1&#45;&gt;Node3 -->
<g id="edge2_Node000001_Node000003" class="edge">
<title>Node1&#45;&gt;Node3</title>
<g id="a_edge2_Node000001_Node000003"><a xlink:title=" ">
<path fill="none" stroke="#63b8ff" d="M136.54,-48.32C147.77,-38.87 161.82,-27.06 171.19,-19.17"/>
<polygon fill="#63b8ff" stroke="#63b8ff" points="134.02,-45.87 128.62,-54.98 138.53,-51.23 134.02,-45.87"/>
</a>
</g>
</g>
</g>
</svg>
