<?xml version="1.0" encoding="UTF-8" standalone="no"?>
<!DOCTYPE svg PUBLIC "-//W3C//DTD SVG 1.1//EN"
 "http://www.w3.org/Graphics/SVG/1.1/DTD/svg11.dtd">
<!-- Generated by graphviz version 2.43.0 (0)
 -->
<!-- Title: ugrpc::server::middlewares::baggage::Component Pages: 1 -->
<svg width="358pt" height="238pt"
 viewBox="0.00 0.00 358.00 238.00" xmlns="http://www.w3.org/2000/svg" xmlns:xlink="http://www.w3.org/1999/xlink">
<g id="graph0" class="graph" transform="scale(1 1) rotate(0) translate(4 234)">
<title>ugrpc::server::middlewares::baggage::Component</title>
<!-- Node1 -->
<g id="Node000001" class="node">
<title>Node1</title>
<g id="a_Node000001"><a xlink:title="Component for gRPC server baggage.">
<polygon fill="#999999" stroke="#666666" points="275,-30 126,-30 126,0 275,0 275,-30"/>
<text text-anchor="start" x="134" y="-18" font-family="Helvetica,sans-Serif" font-size="10.00">ugrpc::server::middlewares</text>
<text text-anchor="middle" x="200.5" y="-7" font-family="Helvetica,sans-Serif" font-size="10.00">::baggage::Component</text>
</a>
</g>
</g>
<!-- Node2 -->
<g id="Node000002" class="node">
<title>Node2</title>
<g id="a_Node000002"><a xlink:href="../../dd/d32/classugrpc_1_1server_1_1MiddlewareComponentBase.html" target="_top" xlink:title="Base class for middleware component.">
<polygon fill="white" stroke="#666666" points="204,-107 61,-107 61,-77 204,-77 204,-107"/>
<text text-anchor="start" x="69" y="-95" font-family="Helvetica,sans-Serif" font-size="10.00">ugrpc::server::Middleware</text>
<text text-anchor="middle" x="132.5" y="-84" font-family="Helvetica,sans-Serif" font-size="10.00">ComponentBase</text>
</a>
</g>
</g>
<!-- Node2&#45;&gt;Node1 -->
<g id="edge1_Node000001_Node000002" class="edge">
<title>Node2&#45;&gt;Node1</title>
<g id="a_edge1_Node000001_Node000002"><a xlink:title=" ">
<path fill="none" stroke="#63b8ff" d="M152.03,-69.46C163.52,-56.79 177.72,-41.13 187.77,-30.04"/>
<polygon fill="#63b8ff" stroke="#63b8ff" points="149.41,-67.13 145.29,-76.89 154.6,-71.84 149.41,-67.13"/>
</a>
</g>
</g>
<!-- Node3 -->
<g id="Node000003" class="node">
<title>Node3</title>
<g id="a_Node000003"><a xlink:href="../../d5/d69/classcomponents_1_1LoggableComponentBase.html" target="_top" xlink:title="Base class for all application components, it depends on components::Logger and components::Tracer.">
<polygon fill="white" stroke="#666666" points="207,-168.5 0,-168.5 0,-149.5 207,-149.5 207,-168.5"/>
<text text-anchor="middle" x="103.5" y="-156.5" font-family="Helvetica,sans-Serif" font-size="10.00">components::LoggableComponentBase</text>
</a>
</g>
</g>
<!-- Node3&#45;&gt;Node2 -->
<g id="edge2_Node000002_Node000003" class="edge">
<title>Node3&#45;&gt;Node2</title>
<g id="a_edge2_Node000002_Node000003"><a xlink:title=" ">
<path fill="none" stroke="#63b8ff" d="M111.58,-139.89C116.21,-129.52 121.93,-116.7 126.21,-107.09"/>
<polygon fill="#63b8ff" stroke="#63b8ff" points="108.29,-138.68 107.41,-149.23 114.68,-141.53 108.29,-138.68"/>
</a>
</g>
</g>
<!-- Node4 -->
<g id="Node000004" class="node">
<title>Node4</title>
<g id="a_Node000004"><a xlink:title=" ">
<polygon fill="white" stroke="#666666" points="199,-230 8,-230 8,-211 199,-211 199,-230"/>
<text text-anchor="middle" x="103.5" y="-218" font-family="Helvetica,sans-Serif" font-size="10.00">components::impl::ComponentBase</text>
</a>
</g>
</g>
<!-- Node4&#45;&gt;Node3 -->
<g id="edge3_Node000003_Node000004" class="edge">
<title>Node4&#45;&gt;Node3</title>
<g id="a_edge3_Node000003_Node000004"><a xlink:title=" ">
<path fill="none" stroke="#63b8ff" d="M103.5,-200.82C103.5,-190 103.5,-176.9 103.5,-168.51"/>
<polygon fill="#63b8ff" stroke="#63b8ff" points="100,-200.98 103.5,-210.98 107,-200.98 100,-200.98"/>
</a>
</g>
</g>
<!-- Node5 -->
<g id="Node000005" class="node">
<title>Node5</title>
<g id="a_Node000005"><a xlink:title=" ">
<polygon fill="white" stroke="#666666" points="328.5,-101.5 234.5,-101.5 234.5,-82.5 328.5,-82.5 328.5,-101.5"/>
<text text-anchor="middle" x="281.5" y="-89.5" font-family="Helvetica,sans-Serif" font-size="10.00">std::string_view</text>
</a>
</g>
</g>
<!-- Node5&#45;&gt;Node1 -->
<g id="edge4_Node000001_Node000005" class="edge">
<title>Node5&#45;&gt;Node1</title>
<g id="a_edge4_Node000001_Node000005"><a xlink:title=" ">
<path fill="none" stroke="#9a32cd" stroke-dasharray="5,2" d="M264.52,-75.28C250.12,-61.94 229.63,-42.97 215.74,-30.11"/>
<polygon fill="#9a32cd" stroke="#9a32cd" points="262.49,-78.17 272.21,-82.4 267.25,-73.03 262.49,-78.17"/>
</a>
</g>
<text text-anchor="middle" x="266" y="-51" font-family="Helvetica,sans-Serif" font-size="10.00" fill="grey"> kName</text>
</g>
<!-- Node6 -->
<g id="Node000006" class="node">
<title>Node6</title>
<g id="a_Node000006"><a xlink:title=" ">
<polygon fill="white" stroke="#666666" points="350,-174 225,-174 225,-144 350,-144 350,-174"/>
<text text-anchor="start" x="233" y="-162" font-family="Helvetica,sans-Serif" font-size="10.00">std::basic_string_view</text>
<text text-anchor="middle" x="287.5" y="-151" font-family="Helvetica,sans-Serif" font-size="10.00">&lt; Char &gt;</text>
</a>
</g>
</g>
<!-- Node6&#45;&gt;Node5 -->
<g id="edge5_Node000005_Node000006" class="edge">
<title>Node6&#45;&gt;Node5</title>
<g id="a_edge5_Node000005_Node000006"><a xlink:title=" ">
<path fill="none" stroke="#63b8ff" d="M285.26,-133.75C284.22,-122.52 283.06,-109.88 282.3,-101.69"/>
<polygon fill="#63b8ff" stroke="#63b8ff" points="281.79,-134.26 286.2,-143.9 288.76,-133.62 281.79,-134.26"/>
</a>
</g>
</g>
</g>
</svg>
