<?xml version="1.0" encoding="UTF-8" standalone="no"?>
<!DOCTYPE svg PUBLIC "-//W3C//DTD SVG 1.1//EN"
 "http://www.w3.org/Graphics/SVG/1.1/DTD/svg11.dtd">
<!-- Generated by graphviz version 2.43.0 (0)
 -->
<!-- Title: userver/engine/wait_all_checked.hpp Pages: 1 -->
<svg width="802pt" height="291pt"
 viewBox="0.00 0.00 802.00 291.00" xmlns="http://www.w3.org/2000/svg" xmlns:xlink="http://www.w3.org/1999/xlink">
<g id="graph0" class="graph" transform="scale(1 1) rotate(0) translate(4 287)">
<title>userver/engine/wait_all_checked.hpp</title>
<!-- Node1 -->
<g id="Node000001" class="node">
<title>Node1</title>
<g id="a_Node000001"><a xlink:title="Provides engine::WaitAllChecked.">
<polygon fill="#999999" stroke="#666666" points="391.5,-283 278.5,-283 278.5,-253 391.5,-253 391.5,-283"/>
<text text-anchor="start" x="286.5" y="-271" font-family="Helvetica,sans-Serif" font-size="10.00">userver/engine/wait</text>
<text text-anchor="middle" x="335" y="-260" font-family="Helvetica,sans-Serif" font-size="10.00">_all_checked.hpp</text>
</a>
</g>
</g>
<!-- Node2 -->
<g id="Node000002" class="node">
<title>Node2</title>
<g id="a_Node000002"><a xlink:title=" ">
<polygon fill="#e0e0e0" stroke="#999999" points="50,-145.5 0,-145.5 0,-126.5 50,-126.5 50,-145.5"/>
<text text-anchor="middle" x="25" y="-133.5" font-family="Helvetica,sans-Serif" font-size="10.00">chrono</text>
</a>
</g>
</g>
<!-- Node1&#45;&gt;Node2 -->
<g id="edge1_Node000001_Node000002" class="edge">
<title>Node1&#45;&gt;Node2</title>
<g id="a_edge1_Node000001_Node000002"><a xlink:title=" ">
<path fill="none" stroke="#63b8ff" d="M278.25,-260.82C213.62,-252.92 112.87,-237.75 81,-217 57.75,-201.86 41.33,-173.37 32.52,-154.8"/>
<polygon fill="#63b8ff" stroke="#63b8ff" points="35.7,-153.34 28.41,-145.65 29.32,-156.2 35.7,-153.34"/>
</a>
</g>
</g>
<!-- Node3 -->
<g id="Node000003" class="node">
<title>Node3</title>
<g id="a_Node000003"><a xlink:title=" ">
<polygon fill="#e0e0e0" stroke="#999999" points="153.5,-145.5 106.5,-145.5 106.5,-126.5 153.5,-126.5 153.5,-145.5"/>
<text text-anchor="middle" x="130" y="-133.5" font-family="Helvetica,sans-Serif" font-size="10.00">vector</text>
</a>
</g>
</g>
<!-- Node1&#45;&gt;Node3 -->
<g id="edge2_Node000001_Node000003" class="edge">
<title>Node1&#45;&gt;Node3</title>
<g id="a_edge2_Node000001_Node000003"><a xlink:title=" ">
<path fill="none" stroke="#63b8ff" d="M323.74,-252.84C309.21,-235.36 282.41,-205.67 254,-187 245.94,-181.71 196.14,-162.23 162.15,-149.21"/>
<polygon fill="#63b8ff" stroke="#63b8ff" points="163.2,-145.86 152.61,-145.56 160.7,-152.4 163.2,-145.86"/>
</a>
</g>
</g>
<!-- Node4 -->
<g id="Node000004" class="node">
<title>Node4</title>
<g id="a_Node000004"><a xlink:href="../../d2/d22/deadline_8hpp.html" target="_top" xlink:title="Internal representation of a deadline time point.">
<polygon fill="white" stroke="#666666" points="245.5,-211.5 90.5,-211.5 90.5,-192.5 245.5,-192.5 245.5,-211.5"/>
<text text-anchor="middle" x="168" y="-199.5" font-family="Helvetica,sans-Serif" font-size="10.00">userver/engine/deadline.hpp</text>
</a>
</g>
</g>
<!-- Node1&#45;&gt;Node4 -->
<g id="edge3_Node000001_Node000004" class="edge">
<title>Node1&#45;&gt;Node4</title>
<g id="a_edge3_Node000001_Node000004"><a xlink:title=" ">
<path fill="none" stroke="#63b8ff" d="M298.35,-252.95C268.81,-241.63 227.69,-225.88 199.58,-215.1"/>
<polygon fill="#63b8ff" stroke="#63b8ff" points="200.82,-211.83 190.22,-211.52 198.31,-218.36 200.82,-211.83"/>
</a>
</g>
</g>
<!-- Node8 -->
<g id="Node000008" class="node">
<title>Node8</title>
<g id="a_Node000008"><a xlink:href="../../d0/dd6/future__status_8hpp.html" target="_top" xlink:title="std::future state extended with &quot;cancelled&quot; state">
<polygon fill="white" stroke="#666666" points="794,-217 672,-217 672,-187 794,-187 794,-217"/>
<text text-anchor="start" x="680" y="-205" font-family="Helvetica,sans-Serif" font-size="10.00">userver/engine/future</text>
<text text-anchor="middle" x="733" y="-194" font-family="Helvetica,sans-Serif" font-size="10.00">_status.hpp</text>
</a>
</g>
</g>
<!-- Node1&#45;&gt;Node8 -->
<g id="edge8_Node000001_Node000008" class="edge">
<title>Node1&#45;&gt;Node8</title>
<g id="a_edge8_Node000001_Node000008"><a xlink:title=" ">
<path fill="none" stroke="#63b8ff" d="M391.54,-259.11C454.72,-250.12 560.31,-234.6 661.72,-217"/>
<polygon fill="#63b8ff" stroke="#63b8ff" points="662.59,-220.4 671.84,-215.23 661.39,-213.5 662.59,-220.4"/>
</a>
</g>
</g>
<!-- Node9 -->
<g id="Node000009" class="node">
<title>Node9</title>
<g id="a_Node000009"><a xlink:href="../../d0/d03/universal_2include_2userver_2utils_2meta_8hpp.html" target="_top" xlink:title="Metaprogramming, template variables and concepts.">
<polygon fill="white" stroke="#666666" points="451.5,-211.5 324.5,-211.5 324.5,-192.5 451.5,-192.5 451.5,-211.5"/>
<text text-anchor="middle" x="388" y="-199.5" font-family="Helvetica,sans-Serif" font-size="10.00">userver/utils/meta.hpp</text>
</a>
</g>
</g>
<!-- Node1&#45;&gt;Node9 -->
<g id="edge9_Node000001_Node000009" class="edge">
<title>Node1&#45;&gt;Node9</title>
<g id="a_edge9_Node000001_Node000009"><a xlink:title=" ">
<path fill="none" stroke="#63b8ff" d="M346.76,-252.8C354.86,-243.01 365.66,-229.98 374.17,-219.7"/>
<polygon fill="#63b8ff" stroke="#63b8ff" points="376.99,-221.78 380.68,-211.84 371.6,-217.31 376.99,-221.78"/>
</a>
</g>
</g>
<!-- Node15 -->
<g id="Node000015" class="node">
<title>Node15</title>
<g id="a_Node000015"><a xlink:href="../../d8/d08/universal_2include_2userver_2utils_2span_8hpp.html" target="_top" xlink:title=" ">
<polygon fill="white" stroke="#666666" points="653.5,-211.5 528.5,-211.5 528.5,-192.5 653.5,-192.5 653.5,-211.5"/>
<text text-anchor="middle" x="591" y="-199.5" font-family="Helvetica,sans-Serif" font-size="10.00">userver/utils/span.hpp</text>
</a>
</g>
</g>
<!-- Node1&#45;&gt;Node15 -->
<g id="edge19_Node000001_Node000015" class="edge">
<title>Node1&#45;&gt;Node15</title>
<g id="a_edge19_Node000001_Node000015"><a xlink:title=" ">
<path fill="none" stroke="#63b8ff" d="M391.18,-252.95C438.05,-241.24 503.92,-224.77 547.03,-213.99"/>
<polygon fill="#63b8ff" stroke="#63b8ff" points="548.08,-217.34 556.93,-211.52 546.38,-210.55 548.08,-217.34"/>
</a>
</g>
</g>
<!-- Node4&#45;&gt;Node2 -->
<g id="edge4_Node000004_Node000002" class="edge">
<title>Node4&#45;&gt;Node2</title>
<g id="a_edge4_Node000004_Node000002"><a xlink:title=" ">
<path fill="none" stroke="#63b8ff" d="M148.71,-192.37C124.3,-181.44 82.03,-162.52 53.79,-149.88"/>
<polygon fill="#63b8ff" stroke="#63b8ff" points="54.99,-146.59 44.44,-145.7 52.13,-152.98 54.99,-146.59"/>
</a>
</g>
</g>
<!-- Node5 -->
<g id="Node000005" class="node">
<title>Node5</title>
<g id="a_Node000005"><a xlink:title=" ">
<polygon fill="#e0e0e0" stroke="#999999" points="442.5,-19 373.5,-19 373.5,0 442.5,0 442.5,-19"/>
<text text-anchor="middle" x="408" y="-7" font-family="Helvetica,sans-Serif" font-size="10.00">type_traits</text>
</a>
</g>
</g>
<!-- Node4&#45;&gt;Node5 -->
<g id="edge5_Node000004_Node000005" class="edge">
<title>Node4&#45;&gt;Node5</title>
<g id="a_edge5_Node000004_Node000005"><a xlink:title=" ">
<path fill="none" stroke="#63b8ff" d="M146.24,-192.39C129.4,-184.42 107.28,-170.81 97,-151 90.86,-139.16 90.48,-132.63 97,-121 149.23,-27.88 290.19,-11.77 363.05,-9.91"/>
<polygon fill="#63b8ff" stroke="#63b8ff" points="363.35,-13.4 373.28,-9.73 363.22,-6.4 363.35,-13.4"/>
</a>
</g>
</g>
<!-- Node6 -->
<g id="Node000006" class="node">
<title>Node6</title>
<g id="a_Node000006"><a xlink:href="../../d2/d54/assert_8hpp.html" target="_top" xlink:title="Assertion macros UASSERT, UASSERT_MSG, UINVARIANT.">
<polygon fill="white" stroke="#666666" points="341.5,-145.5 210.5,-145.5 210.5,-126.5 341.5,-126.5 341.5,-145.5"/>
<text text-anchor="middle" x="276" y="-133.5" font-family="Helvetica,sans-Serif" font-size="10.00">userver/utils/assert.hpp</text>
</a>
</g>
</g>
<!-- Node4&#45;&gt;Node6 -->
<g id="edge6_Node000004_Node000006" class="edge">
<title>Node4&#45;&gt;Node6</title>
<g id="a_edge6_Node000004_Node000006"><a xlink:title=" ">
<path fill="none" stroke="#63b8ff" d="M182.57,-192.37C200.52,-181.73 231.27,-163.51 252.56,-150.89"/>
<polygon fill="#63b8ff" stroke="#63b8ff" points="254.5,-153.81 261.32,-145.7 250.93,-147.79 254.5,-153.81"/>
</a>
</g>
</g>
<!-- Node7 -->
<g id="Node000007" class="node">
<title>Node7</title>
<g id="a_Node000007"><a xlink:title=" ">
<polygon fill="#e0e0e0" stroke="#999999" points="312.5,-79.5 239.5,-79.5 239.5,-60.5 312.5,-60.5 312.5,-79.5"/>
<text text-anchor="middle" x="276" y="-67.5" font-family="Helvetica,sans-Serif" font-size="10.00">string_view</text>
</a>
</g>
</g>
<!-- Node6&#45;&gt;Node7 -->
<g id="edge7_Node000006_Node000007" class="edge">
<title>Node6&#45;&gt;Node7</title>
<g id="a_edge7_Node000006_Node000007"><a xlink:title=" ">
<path fill="none" stroke="#63b8ff" d="M276,-126.37C276,-117.16 276,-102.29 276,-90.27"/>
<polygon fill="#63b8ff" stroke="#63b8ff" points="279.5,-89.91 276,-79.91 272.5,-89.91 279.5,-89.91"/>
</a>
</g>
</g>
<!-- Node9&#45;&gt;Node3 -->
<g id="edge14_Node000009_Node000003" class="edge">
<title>Node9&#45;&gt;Node3</title>
<g id="a_edge14_Node000009_Node000003"><a xlink:title=" ">
<path fill="none" stroke="#63b8ff" d="M342.47,-192.45C297.67,-183.61 227.52,-168.65 168,-151 165.86,-150.37 163.67,-149.68 161.48,-148.95"/>
<polygon fill="#63b8ff" stroke="#63b8ff" points="162.54,-145.61 151.94,-145.63 160.23,-152.22 162.54,-145.61"/>
</a>
</g>
</g>
<!-- Node9&#45;&gt;Node5 -->
<g id="edge13_Node000009_Node000005" class="edge">
<title>Node9&#45;&gt;Node5</title>
<g id="a_edge13_Node000009_Node000005"><a xlink:title=" ">
<path fill="none" stroke="#63b8ff" d="M324.81,-192.42C276.69,-184.45 216.2,-170.79 201,-151 192.88,-140.42 198.26,-134.05 201,-121 207.59,-89.64 205.51,-75.66 230,-55 267.32,-23.51 323.77,-13.78 363.06,-11.03"/>
<polygon fill="#63b8ff" stroke="#63b8ff" points="363.38,-14.52 373.16,-10.46 362.98,-7.53 363.38,-14.52"/>
</a>
</g>
</g>
<!-- Node10 -->
<g id="Node000010" class="node">
<title>Node10</title>
<g id="a_Node000010"><a xlink:title=" ">
<polygon fill="#e0e0e0" stroke="#999999" points="606,-145.5 558,-145.5 558,-126.5 606,-126.5 606,-145.5"/>
<text text-anchor="middle" x="582" y="-133.5" font-family="Helvetica,sans-Serif" font-size="10.00">iosfwd</text>
</a>
</g>
</g>
<!-- Node9&#45;&gt;Node10 -->
<g id="edge10_Node000009_Node000010" class="edge">
<title>Node9&#45;&gt;Node10</title>
<g id="a_edge10_Node000009_Node000010"><a xlink:title=" ">
<path fill="none" stroke="#63b8ff" d="M418.57,-192.5C451.18,-183.19 504.2,-167.41 549,-151 550.39,-150.49 551.8,-149.96 553.23,-149.41"/>
<polygon fill="#63b8ff" stroke="#63b8ff" points="554.63,-152.61 562.59,-145.62 552,-146.12 554.63,-152.61"/>
</a>
</g>
</g>
<!-- Node11 -->
<g id="Node000011" class="node">
<title>Node11</title>
<g id="a_Node000011"><a xlink:title=" ">
<polygon fill="#e0e0e0" stroke="#999999" points="677.5,-145.5 624.5,-145.5 624.5,-126.5 677.5,-126.5 677.5,-145.5"/>
<text text-anchor="middle" x="651" y="-133.5" font-family="Helvetica,sans-Serif" font-size="10.00">iterator</text>
</a>
</g>
</g>
<!-- Node9&#45;&gt;Node11 -->
<g id="edge11_Node000009_Node000011" class="edge">
<title>Node9&#45;&gt;Node11</title>
<g id="a_edge11_Node000009_Node000011"><a xlink:title=" ">
<path fill="none" stroke="#63b8ff" d="M437.27,-192.42C483.63,-183.81 554.75,-169.23 615,-151 616.93,-150.42 618.89,-149.78 620.87,-149.11"/>
<polygon fill="#63b8ff" stroke="#63b8ff" points="622.43,-152.26 630.63,-145.55 620.04,-145.68 622.43,-152.26"/>
</a>
</g>
</g>
<!-- Node12 -->
<g id="Node000012" class="node">
<title>Node12</title>
<g id="a_Node000012"><a xlink:title=" ">
<polygon fill="#e0e0e0" stroke="#999999" points="416,-145.5 360,-145.5 360,-126.5 416,-126.5 416,-145.5"/>
<text text-anchor="middle" x="388" y="-133.5" font-family="Helvetica,sans-Serif" font-size="10.00">optional</text>
</a>
</g>
</g>
<!-- Node9&#45;&gt;Node12 -->
<g id="edge12_Node000009_Node000012" class="edge">
<title>Node9&#45;&gt;Node12</title>
<g id="a_edge12_Node000009_Node000012"><a xlink:title=" ">
<path fill="none" stroke="#63b8ff" d="M388,-192.37C388,-183.16 388,-168.29 388,-156.27"/>
<polygon fill="#63b8ff" stroke="#63b8ff" points="391.5,-155.91 388,-145.91 384.5,-155.91 391.5,-155.91"/>
</a>
</g>
</g>
<!-- Node13 -->
<g id="Node000013" class="node">
<title>Node13</title>
<g id="a_Node000013"><a xlink:href="../../d3/da0/meta__light_8hpp.html" target="_top" xlink:title="Lightweight concepts.">
<polygon fill="white" stroke="#666666" points="540,-151 434,-151 434,-121 540,-121 540,-151"/>
<text text-anchor="start" x="442" y="-139" font-family="Helvetica,sans-Serif" font-size="10.00">userver/utils/meta</text>
<text text-anchor="middle" x="487" y="-128" font-family="Helvetica,sans-Serif" font-size="10.00">_light.hpp</text>
</a>
</g>
</g>
<!-- Node9&#45;&gt;Node13 -->
<g id="edge15_Node000009_Node000013" class="edge">
<title>Node9&#45;&gt;Node13</title>
<g id="a_edge15_Node000009_Node000013"><a xlink:title=" ">
<path fill="none" stroke="#63b8ff" d="M401.35,-192.37C415.48,-183.24 438.23,-168.53 456.74,-156.56"/>
<polygon fill="#63b8ff" stroke="#63b8ff" points="458.67,-159.48 465.16,-151.12 454.87,-153.61 458.67,-159.48"/>
</a>
</g>
</g>
<!-- Node13&#45;&gt;Node5 -->
<g id="edge16_Node000013_Node000005" class="edge">
<title>Node13&#45;&gt;Node5</title>
<g id="a_edge16_Node000013_Node000005"><a xlink:title=" ">
<path fill="none" stroke="#63b8ff" d="M463.65,-120.8C451.03,-111.98 436.19,-99.56 427,-85 416.34,-68.1 411.65,-45.5 409.59,-29.64"/>
<polygon fill="#63b8ff" stroke="#63b8ff" points="413.05,-29.03 408.51,-19.45 406.09,-29.77 413.05,-29.03"/>
</a>
</g>
</g>
<!-- Node14 -->
<g id="Node000014" class="node">
<title>Node14</title>
<g id="a_Node000014"><a xlink:href="../../d9/dce/void__t_8hpp.html" target="_top" xlink:title="std::void_t implementation with workarounds for compiler bugs">
<polygon fill="white" stroke="#666666" points="537.5,-85 436.5,-85 436.5,-55 537.5,-55 537.5,-85"/>
<text text-anchor="start" x="444.5" y="-73" font-family="Helvetica,sans-Serif" font-size="10.00">userver/utils/void</text>
<text text-anchor="middle" x="487" y="-62" font-family="Helvetica,sans-Serif" font-size="10.00">_t.hpp</text>
</a>
</g>
</g>
<!-- Node13&#45;&gt;Node14 -->
<g id="edge17_Node000013_Node000014" class="edge">
<title>Node13&#45;&gt;Node14</title>
<g id="a_edge17_Node000013_Node000014"><a xlink:title=" ">
<path fill="none" stroke="#63b8ff" d="M487,-120.8C487,-113.34 487,-103.99 487,-95.41"/>
<polygon fill="#63b8ff" stroke="#63b8ff" points="490.5,-95.16 487,-85.16 483.5,-95.16 490.5,-95.16"/>
</a>
</g>
</g>
<!-- Node14&#45;&gt;Node5 -->
<g id="edge18_Node000014_Node000005" class="edge">
<title>Node14&#45;&gt;Node5</title>
<g id="a_edge18_Node000014_Node000005"><a xlink:title=" ">
<path fill="none" stroke="#63b8ff" d="M467.88,-54.84C455.82,-45.91 440.29,-34.41 428.06,-25.35"/>
<polygon fill="#63b8ff" stroke="#63b8ff" points="429.96,-22.4 419.84,-19.27 425.79,-28.03 429.96,-22.4"/>
</a>
</g>
</g>
<!-- Node15&#45;&gt;Node5 -->
<g id="edge22_Node000015_Node000005" class="edge">
<title>Node15&#45;&gt;Node5</title>
<g id="a_edge22_Node000015_Node000005"><a xlink:title=" ">
<path fill="none" stroke="#63b8ff" d="M626.73,-192.42C648.25,-185.22 673.94,-172.53 687,-151 693.92,-139.6 694.16,-132.25 687,-121 636.44,-41.51 518.1,-19.18 452.97,-12.93"/>
<polygon fill="#63b8ff" stroke="#63b8ff" points="453.25,-9.44 442.99,-12.05 452.64,-16.41 453.25,-9.44"/>
</a>
</g>
</g>
<!-- Node15&#45;&gt;Node6 -->
<g id="edge23_Node000015_Node000006" class="edge">
<title>Node15&#45;&gt;Node6</title>
<g id="a_edge23_Node000015_Node000006"><a xlink:title=" ">
<path fill="none" stroke="#63b8ff" d="M548.84,-192.44C491.67,-180.82 389.62,-160.09 327.84,-147.53"/>
<polygon fill="#63b8ff" stroke="#63b8ff" points="328.4,-144.08 317.91,-145.51 327.01,-150.94 328.4,-144.08"/>
</a>
</g>
</g>
<!-- Node15&#45;&gt;Node11 -->
<g id="edge20_Node000015_Node000011" class="edge">
<title>Node15&#45;&gt;Node11</title>
<g id="a_edge20_Node000015_Node000011"><a xlink:title=" ">
<path fill="none" stroke="#63b8ff" d="M599.09,-192.37C608.43,-182.4 624.01,-165.79 635.66,-153.36"/>
<polygon fill="#63b8ff" stroke="#63b8ff" points="638.37,-155.59 642.65,-145.91 633.26,-150.81 638.37,-155.59"/>
</a>
</g>
</g>
<!-- Node16 -->
<g id="Node000016" class="node">
<title>Node16</title>
<g id="a_Node000016"><a xlink:title=" ">
<polygon fill="#e0e0e0" stroke="#999999" points="787.5,-145.5 734.5,-145.5 734.5,-126.5 787.5,-126.5 787.5,-145.5"/>
<text text-anchor="middle" x="761" y="-133.5" font-family="Helvetica,sans-Serif" font-size="10.00">cstddef</text>
</a>
</g>
</g>
<!-- Node15&#45;&gt;Node16 -->
<g id="edge21_Node000015_Node000016" class="edge">
<title>Node15&#45;&gt;Node16</title>
<g id="a_edge21_Node000015_Node000016"><a xlink:title=" ">
<path fill="none" stroke="#63b8ff" d="M613.93,-192.37C643.54,-181.22 695.25,-161.75 728.8,-149.12"/>
<polygon fill="#63b8ff" stroke="#63b8ff" points="730.04,-152.4 738.17,-145.6 727.57,-145.84 730.04,-152.4"/>
</a>
</g>
</g>
</g>
</svg>
