<?xml version="1.0" encoding="UTF-8" standalone="no"?>
<!DOCTYPE svg PUBLIC "-//W3C//DTD SVG 1.1//EN"
 "http://www.w3.org/Graphics/SVG/1.1/DTD/svg11.dtd">
<!-- Generated by graphviz version 2.43.0 (0)
 -->
<!-- Title: userver/ugrpc/client/client_factory.hpp Pages: 1 -->
<svg width="633pt" height="170pt"
 viewBox="0.00 0.00 633.00 170.00" xmlns="http://www.w3.org/2000/svg" xmlns:xlink="http://www.w3.org/1999/xlink">
<g id="graph0" class="graph" transform="scale(1 1) rotate(0) translate(4 166)">
<title>userver/ugrpc/client/client_factory.hpp</title>
<!-- Node1 -->
<g id="Node000001" class="node">
<title>Node1</title>
<g id="a_Node000001"><a xlink:title="Creates gRPC clients.">
<polygon fill="#999999" stroke="#666666" points="403,-162 290,-162 290,-132 403,-132 403,-162"/>
<text text-anchor="start" x="298" y="-150" font-family="Helvetica,sans-Serif" font-size="10.00">userver/ugrpc/client</text>
<text text-anchor="middle" x="346.5" y="-139" font-family="Helvetica,sans-Serif" font-size="10.00">/client_factory.hpp</text>
</a>
</g>
</g>
<!-- Node2 -->
<g id="Node000002" class="node">
<title>Node2</title>
<g id="a_Node000002"><a xlink:href="../../da/dd3/client__factory__component_8hpp.html" target="_top" xlink:title="Provides a ClientFactory in the component system.">
<polygon fill="white" stroke="#666666" points="167,-96 0,-96 0,-66 167,-66 167,-96"/>
<text text-anchor="start" x="8" y="-84" font-family="Helvetica,sans-Serif" font-size="10.00">userver/ugrpc/client</text>
<text text-anchor="middle" x="83.5" y="-73" font-family="Helvetica,sans-Serif" font-size="10.00">/client_factory_component.hpp</text>
</a>
</g>
</g>
<!-- Node1&#45;&gt;Node2 -->
<g id="edge1_Node000001_Node000002" class="edge">
<title>Node1&#45;&gt;Node2</title>
<g id="a_edge1_Node000001_Node000002"><a xlink:title=" ">
<path fill="none" stroke="#63b8ff" d="M279.98,-129.81C237.14,-119.39 182,-105.97 141.05,-96"/>
<polygon fill="#63b8ff" stroke="#63b8ff" points="279.21,-133.23 289.76,-132.19 280.87,-126.43 279.21,-133.23"/>
</a>
</g>
</g>
<!-- Node3 -->
<g id="Node000003" class="node">
<title>Node3</title>
<g id="a_Node000003"><a xlink:href="../../d8/d98/simple__client__component_8hpp.html" target="_top" xlink:title="Template class for a simple gRPC client.">
<polygon fill="white" stroke="#666666" points="351.5,-96 185.5,-96 185.5,-66 351.5,-66 351.5,-96"/>
<text text-anchor="start" x="193.5" y="-84" font-family="Helvetica,sans-Serif" font-size="10.00">userver/ugrpc/client</text>
<text text-anchor="middle" x="268.5" y="-73" font-family="Helvetica,sans-Serif" font-size="10.00">/simple_client_component.hpp</text>
</a>
</g>
</g>
<!-- Node1&#45;&gt;Node3 -->
<g id="edge2_Node000001_Node000003" class="edge">
<title>Node1&#45;&gt;Node3</title>
<g id="a_edge2_Node000001_Node000003"><a xlink:title=" ">
<path fill="none" stroke="#63b8ff" d="M321.15,-125.2C309.57,-115.7 296.15,-104.69 285.76,-96.16"/>
<polygon fill="#63b8ff" stroke="#63b8ff" points="319.24,-128.16 329.19,-131.8 323.68,-122.75 319.24,-128.16"/>
</a>
</g>
</g>
<!-- Node4 -->
<g id="Node000004" class="node">
<title>Node4</title>
<g id="a_Node000004"><a xlink:href="../../d3/d31/service_8hpp.html" target="_top" xlink:title="Base classes for testing and benchmarking ugrpc service implementations in a simplified gRPC environm...">
<polygon fill="white" stroke="#666666" points="479.5,-96 369.5,-96 369.5,-66 479.5,-66 479.5,-96"/>
<text text-anchor="start" x="377.5" y="-84" font-family="Helvetica,sans-Serif" font-size="10.00">userver/ugrpc/tests</text>
<text text-anchor="middle" x="424.5" y="-73" font-family="Helvetica,sans-Serif" font-size="10.00">/service.hpp</text>
</a>
</g>
</g>
<!-- Node1&#45;&gt;Node4 -->
<g id="edge3_Node000001_Node000004" class="edge">
<title>Node1&#45;&gt;Node4</title>
<g id="a_edge3_Node000001_Node000004"><a xlink:title=" ">
<path fill="none" stroke="#63b8ff" d="M371.85,-125.2C383.43,-115.7 396.85,-104.69 407.24,-96.16"/>
<polygon fill="#63b8ff" stroke="#63b8ff" points="369.32,-122.75 363.81,-131.8 373.76,-128.16 369.32,-122.75"/>
</a>
</g>
</g>
<!-- Node6 -->
<g id="Node000006" class="node">
<title>Node6</title>
<g id="a_Node000006"><a xlink:href="../../d5/d64/standalone__client_8hpp.html" target="_top" xlink:title="Sets up a mini gRPC client that is not directly associated with any userver gRPC server.">
<polygon fill="white" stroke="#666666" points="625,-96 498,-96 498,-66 625,-66 625,-96"/>
<text text-anchor="start" x="506" y="-84" font-family="Helvetica,sans-Serif" font-size="10.00">userver/ugrpc/tests</text>
<text text-anchor="middle" x="561.5" y="-73" font-family="Helvetica,sans-Serif" font-size="10.00">/standalone_client.hpp</text>
</a>
</g>
</g>
<!-- Node1&#45;&gt;Node6 -->
<g id="edge5_Node000001_Node000006" class="edge">
<title>Node1&#45;&gt;Node6</title>
<g id="a_edge5_Node000001_Node000006"><a xlink:title=" ">
<path fill="none" stroke="#63b8ff" d="M403.65,-128.99C438.24,-118.69 481.83,-105.72 514.43,-96.01"/>
<polygon fill="#63b8ff" stroke="#63b8ff" points="402.27,-125.75 393.68,-131.95 404.27,-132.46 402.27,-125.75"/>
</a>
</g>
</g>
<!-- Node5 -->
<g id="Node000005" class="node">
<title>Node5</title>
<g id="a_Node000005"><a xlink:href="../../d1/d31/service__fixtures_8hpp.html" target="_top" xlink:title="gtest fixtures for testing ugrpc service implementations. Requires linking to userver::grpc&#45;utest.">
<polygon fill="white" stroke="#666666" points="483.5,-30 365.5,-30 365.5,0 483.5,0 483.5,-30"/>
<text text-anchor="start" x="373.5" y="-18" font-family="Helvetica,sans-Serif" font-size="10.00">userver/ugrpc/tests</text>
<text text-anchor="middle" x="424.5" y="-7" font-family="Helvetica,sans-Serif" font-size="10.00">/service_fixtures.hpp</text>
</a>
</g>
</g>
<!-- Node4&#45;&gt;Node5 -->
<g id="edge4_Node000004_Node000005" class="edge">
<title>Node4&#45;&gt;Node5</title>
<g id="a_edge4_Node000004_Node000005"><a xlink:title=" ">
<path fill="none" stroke="#63b8ff" d="M424.5,-55.54C424.5,-46.96 424.5,-37.61 424.5,-30.16"/>
<polygon fill="#63b8ff" stroke="#63b8ff" points="421,-55.8 424.5,-65.8 428,-55.8 421,-55.8"/>
</a>
</g>
</g>
</g>
</svg>
