<?xml version="1.0" encoding="UTF-8" standalone="no"?>
<!DOCTYPE svg PUBLIC "-//W3C//DTD SVG 1.1//EN"
 "http://www.w3.org/Graphics/SVG/1.1/DTD/svg11.dtd">
<!-- Generated by graphviz version 2.43.0 (0)
 -->
<!-- Title: userver/storages/postgres/io/interval.hpp Pages: 1 -->
<svg width="888pt" height="500pt"
 viewBox="0.00 0.00 887.72 500.00" xmlns="http://www.w3.org/2000/svg" xmlns:xlink="http://www.w3.org/1999/xlink">
<g id="graph0" class="graph" transform="scale(1 1) rotate(0) translate(4 496)">
<title>userver/storages/postgres/io/interval.hpp</title>
<!-- Node1 -->
<g id="Node000001" class="node">
<title>Node1</title>
<g id="a_Node000001"><a xlink:title="Time intervals I/O support.">
<polygon fill="#999999" stroke="#666666" points="220.5,-492 77.5,-492 77.5,-462 220.5,-462 220.5,-492"/>
<text text-anchor="start" x="85.5" y="-480" font-family="Helvetica,sans-Serif" font-size="10.00">userver/storages/postgres</text>
<text text-anchor="middle" x="149" y="-469" font-family="Helvetica,sans-Serif" font-size="10.00">/io/interval.hpp</text>
</a>
</g>
</g>
<!-- Node2 -->
<g id="Node000002" class="node">
<title>Node2</title>
<g id="a_Node000002"><a xlink:href="../../d6/db8/chrono_8hpp.html" target="_top" xlink:title="Timestamp (std::chrono::*) I/O support.">
<polygon fill="white" stroke="#666666" points="220.5,-426 77.5,-426 77.5,-396 220.5,-396 220.5,-426"/>
<text text-anchor="start" x="85.5" y="-414" font-family="Helvetica,sans-Serif" font-size="10.00">userver/storages/postgres</text>
<text text-anchor="middle" x="149" y="-403" font-family="Helvetica,sans-Serif" font-size="10.00">/io/chrono.hpp</text>
</a>
</g>
</g>
<!-- Node1&#45;&gt;Node2 -->
<g id="edge1_Node000001_Node000002" class="edge">
<title>Node1&#45;&gt;Node2</title>
<g id="a_edge1_Node000001_Node000002"><a xlink:title=" ">
<path fill="none" stroke="#63b8ff" d="M149,-451.54C149,-442.96 149,-433.61 149,-426.16"/>
<polygon fill="#63b8ff" stroke="#63b8ff" points="145.5,-451.8 149,-461.8 152.5,-451.8 145.5,-451.8"/>
</a>
</g>
</g>
<!-- Node3 -->
<g id="Node000003" class="node">
<title>Node3</title>
<g id="a_Node000003"><a xlink:href="../../dc/df7/base__postgres__cache_8hpp.html" target="_top" xlink:title="Caching component for PostgreSQL. See Caching Component for PostgreSQL.">
<polygon fill="white" stroke="#666666" points="184.5,-30 65.5,-30 65.5,0 184.5,0 184.5,-30"/>
<text text-anchor="start" x="73.5" y="-18" font-family="Helvetica,sans-Serif" font-size="10.00">userver/cache/base</text>
<text text-anchor="middle" x="125" y="-7" font-family="Helvetica,sans-Serif" font-size="10.00">_postgres_cache.hpp</text>
</a>
</g>
</g>
<!-- Node2&#45;&gt;Node3 -->
<g id="edge2_Node000002_Node000003" class="edge">
<title>Node2&#45;&gt;Node3</title>
<g id="a_edge2_Node000002_Node000003"><a xlink:title=" ">
<path fill="none" stroke="#63b8ff" d="M101.29,-391.78C57.7,-371.66 0,-334.69 0,-280 0,-280 0,-280 0,-146 0,-90.89 59.08,-50.11 96.01,-30.01"/>
<polygon fill="#63b8ff" stroke="#63b8ff" points="100.07,-395.07 110.63,-395.94 102.92,-388.67 100.07,-395.07"/>
</a>
</g>
</g>
<!-- Node4 -->
<g id="Node000004" class="node">
<title>Node4</title>
<g id="a_Node000004"><a xlink:href="../../de/d7f/supported__types_8hpp_source.html" target="_top" xlink:title=" ">
<polygon fill="white" stroke="#666666" points="370.5,-360 227.5,-360 227.5,-330 370.5,-330 370.5,-360"/>
<text text-anchor="start" x="235.5" y="-348" font-family="Helvetica,sans-Serif" font-size="10.00">userver/storages/postgres</text>
<text text-anchor="middle" x="299" y="-337" font-family="Helvetica,sans-Serif" font-size="10.00">/io/supported_types.hpp</text>
</a>
</g>
</g>
<!-- Node2&#45;&gt;Node4 -->
<g id="edge3_Node000002_Node000004" class="edge">
<title>Node2&#45;&gt;Node4</title>
<g id="a_edge3_Node000002_Node000004"><a xlink:title=" ">
<path fill="none" stroke="#63b8ff" d="M191.38,-391.92C215.08,-381.8 244.19,-369.38 266.16,-360.01"/>
<polygon fill="#63b8ff" stroke="#63b8ff" points="189.74,-388.81 181.92,-395.95 192.49,-395.25 189.74,-388.81"/>
</a>
</g>
</g>
<!-- Node5 -->
<g id="Node000005" class="node">
<title>Node5</title>
<g id="a_Node000005"><a xlink:href="../../d2/d3f/query__parameters_8hpp_source.html" target="_top" xlink:title=" ">
<polygon fill="white" stroke="#666666" points="379.5,-294 218.5,-294 218.5,-264 379.5,-264 379.5,-294"/>
<text text-anchor="start" x="226.5" y="-282" font-family="Helvetica,sans-Serif" font-size="10.00">userver/storages/postgres</text>
<text text-anchor="middle" x="299" y="-271" font-family="Helvetica,sans-Serif" font-size="10.00">/detail/query_parameters.hpp</text>
</a>
</g>
</g>
<!-- Node4&#45;&gt;Node5 -->
<g id="edge4_Node000004_Node000005" class="edge">
<title>Node4&#45;&gt;Node5</title>
<g id="a_edge4_Node000004_Node000005"><a xlink:title=" ">
<path fill="none" stroke="#63b8ff" d="M299,-319.54C299,-310.96 299,-301.61 299,-294.16"/>
<polygon fill="#63b8ff" stroke="#63b8ff" points="295.5,-319.8 299,-329.8 302.5,-319.8 295.5,-319.8"/>
</a>
</g>
</g>
<!-- Node13 -->
<g id="Node000013" class="node">
<title>Node13</title>
<g id="a_Node000013"><a xlink:href="../../de/d1d/result__set_8hpp.html" target="_top" xlink:title="Result accessors.">
<polygon fill="white" stroke="#666666" points="708.5,-294 565.5,-294 565.5,-264 708.5,-264 708.5,-294"/>
<text text-anchor="start" x="573.5" y="-282" font-family="Helvetica,sans-Serif" font-size="10.00">userver/storages/postgres</text>
<text text-anchor="middle" x="637" y="-271" font-family="Helvetica,sans-Serif" font-size="10.00">/result_set.hpp</text>
</a>
</g>
</g>
<!-- Node4&#45;&gt;Node13 -->
<g id="edge19_Node000004_Node000013" class="edge">
<title>Node4&#45;&gt;Node13</title>
<g id="a_edge19_Node000004_Node000013"><a xlink:title=" ">
<path fill="none" stroke="#63b8ff" d="M380.64,-328.54C437.04,-317.86 511.34,-303.79 565.42,-293.55"/>
<polygon fill="#63b8ff" stroke="#63b8ff" points="379.86,-325.13 370.68,-330.43 381.16,-332.01 379.86,-325.13"/>
</a>
</g>
</g>
<!-- Node6 -->
<g id="Node000006" class="node">
<title>Node6</title>
<g id="a_Node000006"><a xlink:href="../../d4/dd3/non__transaction_8hpp_source.html" target="_top" xlink:title=" ">
<polygon fill="white" stroke="#666666" points="242.5,-162 93.5,-162 93.5,-132 242.5,-132 242.5,-162"/>
<text text-anchor="start" x="101.5" y="-150" font-family="Helvetica,sans-Serif" font-size="10.00">userver/storages/postgres</text>
<text text-anchor="middle" x="168" y="-139" font-family="Helvetica,sans-Serif" font-size="10.00">/detail/non_transaction.hpp</text>
</a>
</g>
</g>
<!-- Node5&#45;&gt;Node6 -->
<g id="edge5_Node000005_Node000006" class="edge">
<title>Node5&#45;&gt;Node6</title>
<g id="a_edge5_Node000005_Node000006"><a xlink:title=" ">
<path fill="none" stroke="#63b8ff" d="M208.42,-271.05C147.96,-264.31 76.15,-251.51 57,-228 33.67,-199.36 79.64,-176 119.33,-162.07"/>
<polygon fill="#63b8ff" stroke="#63b8ff" points="208.09,-274.53 218.4,-272.12 208.83,-267.57 208.09,-274.53"/>
</a>
</g>
</g>
<!-- Node9 -->
<g id="Node000009" class="node">
<title>Node9</title>
<g id="a_Node000009"><a xlink:href="../../db/d6e/parameter__store_8hpp.html" target="_top" xlink:title="Class for dynamic PostgreSQL parameter list construction.">
<polygon fill="white" stroke="#666666" points="209.5,-228 66.5,-228 66.5,-198 209.5,-198 209.5,-228"/>
<text text-anchor="start" x="74.5" y="-216" font-family="Helvetica,sans-Serif" font-size="10.00">userver/storages/postgres</text>
<text text-anchor="middle" x="138" y="-205" font-family="Helvetica,sans-Serif" font-size="10.00">/parameter_store.hpp</text>
</a>
</g>
</g>
<!-- Node5&#45;&gt;Node9 -->
<g id="edge9_Node000005_Node000009" class="edge">
<title>Node5&#45;&gt;Node9</title>
<g id="a_edge9_Node000005_Node000009"><a xlink:title=" ">
<path fill="none" stroke="#63b8ff" d="M254.19,-260.19C228.63,-250.02 197.03,-237.47 173.25,-228.01"/>
<polygon fill="#63b8ff" stroke="#63b8ff" points="253.08,-263.51 263.67,-263.95 255.67,-257.01 253.08,-263.51"/>
</a>
</g>
</g>
<!-- Node10 -->
<g id="Node000010" class="node">
<title>Node10</title>
<g id="a_Node000010"><a xlink:href="../../da/deb/postgresql_2include_2userver_2storages_2postgres_2transaction_8hpp.html" target="_top" xlink:title="Transactions.">
<polygon fill="white" stroke="#666666" points="470.5,-162 327.5,-162 327.5,-132 470.5,-132 470.5,-162"/>
<text text-anchor="start" x="335.5" y="-150" font-family="Helvetica,sans-Serif" font-size="10.00">userver/storages/postgres</text>
<text text-anchor="middle" x="399" y="-139" font-family="Helvetica,sans-Serif" font-size="10.00">/transaction.hpp</text>
</a>
</g>
</g>
<!-- Node5&#45;&gt;Node10 -->
<g id="edge18_Node000005_Node000010" class="edge">
<title>Node5&#45;&gt;Node10</title>
<g id="a_edge18_Node000005_Node000010"><a xlink:title=" ">
<path fill="none" stroke="#63b8ff" d="M343.15,-259.09C356.77,-251.28 370.63,-240.97 380,-228 394.29,-208.21 397.97,-179.16 398.83,-162.06"/>
<polygon fill="#63b8ff" stroke="#63b8ff" points="341.43,-256.04 334.28,-263.86 344.75,-262.2 341.43,-256.04"/>
</a>
</g>
</g>
<!-- Node11 -->
<g id="Node000011" class="node">
<title>Node11</title>
<g id="a_Node000011"><a xlink:href="../../d2/de3/portal_8hpp_source.html" target="_top" xlink:title=" ">
<polygon fill="white" stroke="#666666" points="570.5,-228 427.5,-228 427.5,-198 570.5,-198 570.5,-228"/>
<text text-anchor="start" x="435.5" y="-216" font-family="Helvetica,sans-Serif" font-size="10.00">userver/storages/postgres</text>
<text text-anchor="middle" x="499" y="-205" font-family="Helvetica,sans-Serif" font-size="10.00">/portal.hpp</text>
</a>
</g>
</g>
<!-- Node5&#45;&gt;Node11 -->
<g id="edge14_Node000005_Node000011" class="edge">
<title>Node5&#45;&gt;Node11</title>
<g id="a_edge14_Node000005_Node000011"><a xlink:title=" ">
<path fill="none" stroke="#63b8ff" d="M352.57,-260.86C384.69,-250.58 425.01,-237.68 455.21,-228.01"/>
<polygon fill="#63b8ff" stroke="#63b8ff" points="351.35,-257.57 342.89,-263.95 353.48,-264.24 351.35,-257.57"/>
</a>
</g>
</g>
<!-- Node12 -->
<g id="Node000012" class="node">
<title>Node12</title>
<g id="a_Node000012"><a xlink:href="../../d8/d63/query__queue_8hpp.html" target="_top" xlink:title="An utility to execute multiple queries in a single network round&#45;trip.">
<polygon fill="white" stroke="#666666" points="370.5,-228 227.5,-228 227.5,-198 370.5,-198 370.5,-228"/>
<text text-anchor="start" x="235.5" y="-216" font-family="Helvetica,sans-Serif" font-size="10.00">userver/storages/postgres</text>
<text text-anchor="middle" x="299" y="-205" font-family="Helvetica,sans-Serif" font-size="10.00">/query_queue.hpp</text>
</a>
</g>
</g>
<!-- Node5&#45;&gt;Node12 -->
<g id="edge16_Node000005_Node000012" class="edge">
<title>Node5&#45;&gt;Node12</title>
<g id="a_edge16_Node000005_Node000012"><a xlink:title=" ">
<path fill="none" stroke="#63b8ff" d="M299,-253.54C299,-244.96 299,-235.61 299,-228.16"/>
<polygon fill="#63b8ff" stroke="#63b8ff" points="295.5,-253.8 299,-263.8 302.5,-253.8 295.5,-253.8"/>
</a>
</g>
</g>
<!-- Node7 -->
<g id="Node000007" class="node">
<title>Node7</title>
<g id="a_Node000007"><a xlink:href="../../de/dd3/postgresql_2include_2userver_2storages_2postgres_2cluster_8hpp.html" target="_top" xlink:title="Interface for executing queries on a cluster of PostgreSQL servers.">
<polygon fill="white" stroke="#666666" points="370.5,-96 227.5,-96 227.5,-66 370.5,-66 370.5,-96"/>
<text text-anchor="start" x="235.5" y="-84" font-family="Helvetica,sans-Serif" font-size="10.00">userver/storages/postgres</text>
<text text-anchor="middle" x="299" y="-73" font-family="Helvetica,sans-Serif" font-size="10.00">/cluster.hpp</text>
</a>
</g>
</g>
<!-- Node6&#45;&gt;Node7 -->
<g id="edge6_Node000006_Node000007" class="edge">
<title>Node6&#45;&gt;Node7</title>
<g id="a_edge6_Node000006_Node000007"><a xlink:title=" ">
<path fill="none" stroke="#63b8ff" d="M205.84,-127.51C226.39,-117.47 251.39,-105.26 270.32,-96.01"/>
<polygon fill="#63b8ff" stroke="#63b8ff" points="204.2,-124.42 196.75,-131.95 207.27,-130.71 204.2,-124.42"/>
</a>
</g>
</g>
<!-- Node7&#45;&gt;Node3 -->
<g id="edge7_Node000007_Node000003" class="edge">
<title>Node7&#45;&gt;Node3</title>
<g id="a_edge7_Node000007_Node000003"><a xlink:title=" ">
<path fill="none" stroke="#63b8ff" d="M251.3,-62.46C223.54,-52.25 189.03,-39.55 163.1,-30.01"/>
<polygon fill="#63b8ff" stroke="#63b8ff" points="250.22,-65.79 260.81,-65.95 252.64,-59.22 250.22,-65.79"/>
</a>
</g>
</g>
<!-- Node8 -->
<g id="Node000008" class="node">
<title>Node8</title>
<g id="a_Node000008"><a xlink:href="../../df/d02/postgres_8hpp.html" target="_top" xlink:title=" ">
<polygon fill="white" stroke="#666666" points="470.5,-30 327.5,-30 327.5,0 470.5,0 470.5,-30"/>
<text text-anchor="start" x="335.5" y="-18" font-family="Helvetica,sans-Serif" font-size="10.00">userver/storages/postgres</text>
<text text-anchor="middle" x="399" y="-7" font-family="Helvetica,sans-Serif" font-size="10.00">/postgres.hpp</text>
</a>
</g>
</g>
<!-- Node7&#45;&gt;Node8 -->
<g id="edge8_Node000007_Node000008" class="edge">
<title>Node7&#45;&gt;Node8</title>
<g id="a_edge8_Node000007_Node000008"><a xlink:title=" ">
<path fill="none" stroke="#63b8ff" d="M329.78,-60.3C345,-50.56 363.03,-39.02 376.87,-30.16"/>
<polygon fill="#63b8ff" stroke="#63b8ff" points="327.73,-57.46 321.19,-65.8 331.5,-63.35 327.73,-57.46"/>
</a>
</g>
</g>
<!-- Node9&#45;&gt;Node6 -->
<g id="edge10_Node000009_Node000006" class="edge">
<title>Node9&#45;&gt;Node6</title>
<g id="a_edge10_Node000009_Node000006"><a xlink:title=" ">
<path fill="none" stroke="#63b8ff" d="M148.93,-188.68C153.1,-179.79 157.71,-169.95 161.36,-162.16"/>
<polygon fill="#63b8ff" stroke="#63b8ff" points="145.73,-187.26 144.66,-197.8 152.07,-190.23 145.73,-187.26"/>
</a>
</g>
</g>
<!-- Node9&#45;&gt;Node10 -->
<g id="edge11_Node000009_Node000010" class="edge">
<title>Node9&#45;&gt;Node10</title>
<g id="a_edge11_Node000009_Node000010"><a xlink:title=" ">
<path fill="none" stroke="#63b8ff" d="M205.22,-195.52C247.55,-185.14 301.6,-171.88 341.86,-162.01"/>
<polygon fill="#63b8ff" stroke="#63b8ff" points="204.16,-192.17 195.28,-197.95 205.82,-198.97 204.16,-192.17"/>
</a>
</g>
</g>
<!-- Node10&#45;&gt;Node7 -->
<g id="edge12_Node000010_Node000007" class="edge">
<title>Node10&#45;&gt;Node7</title>
<g id="a_edge12_Node000010_Node000007"><a xlink:title=" ">
<path fill="none" stroke="#63b8ff" d="M368.22,-126.3C353,-116.56 334.97,-105.02 321.13,-96.16"/>
<polygon fill="#63b8ff" stroke="#63b8ff" points="366.5,-129.35 376.81,-131.8 370.27,-123.46 366.5,-129.35"/>
</a>
</g>
</g>
<!-- Node10&#45;&gt;Node8 -->
<g id="edge13_Node000010_Node000008" class="edge">
<title>Node10&#45;&gt;Node8</title>
<g id="a_edge13_Node000010_Node000008"><a xlink:title=" ">
<path fill="none" stroke="#63b8ff" d="M399,-121.68C399,-94.7 399,-52.11 399,-30.14"/>
<polygon fill="#63b8ff" stroke="#63b8ff" points="395.5,-121.84 399,-131.84 402.5,-121.84 395.5,-121.84"/>
</a>
</g>
</g>
<!-- Node11&#45;&gt;Node10 -->
<g id="edge15_Node000011_Node000010" class="edge">
<title>Node11&#45;&gt;Node10</title>
<g id="a_edge15_Node000011_Node000010"><a xlink:title=" ">
<path fill="none" stroke="#63b8ff" d="M468.22,-192.3C453,-182.56 434.97,-171.02 421.13,-162.16"/>
<polygon fill="#63b8ff" stroke="#63b8ff" points="466.5,-195.35 476.81,-197.8 470.27,-189.46 466.5,-195.35"/>
</a>
</g>
</g>
<!-- Node12&#45;&gt;Node7 -->
<g id="edge17_Node000012_Node000007" class="edge">
<title>Node12&#45;&gt;Node7</title>
<g id="a_edge17_Node000012_Node000007"><a xlink:title=" ">
<path fill="none" stroke="#63b8ff" d="M299,-187.68C299,-160.7 299,-118.11 299,-96.14"/>
<polygon fill="#63b8ff" stroke="#63b8ff" points="295.5,-187.84 299,-197.84 302.5,-187.84 295.5,-187.84"/>
</a>
</g>
</g>
<!-- Node13&#45;&gt;Node6 -->
<g id="edge20_Node000013_Node000006" class="edge">
<title>Node13&#45;&gt;Node6</title>
<g id="a_edge20_Node000013_Node000006"><a xlink:title=" ">
<path fill="none" stroke="#63b8ff" d="M627.06,-254.89C617.75,-236.25 601.97,-211.06 580,-198 565.7,-189.5 357.46,-167.23 242.65,-155.49"/>
<polygon fill="#63b8ff" stroke="#63b8ff" points="623.9,-256.39 631.34,-263.94 630.23,-253.4 623.9,-256.39"/>
</a>
</g>
</g>
<!-- Node13&#45;&gt;Node8 -->
<g id="edge25_Node000013_Node000008" class="edge">
<title>Node13&#45;&gt;Node8</title>
<g id="a_edge25_Node000013_Node000008"><a xlink:title=" ">
<path fill="none" stroke="#63b8ff" d="M718.64,-271.59C779.21,-264.94 854.52,-252.02 874,-228 882.4,-217.64 880.55,-209.62 874,-198 794.01,-56.05 582.6,-24.18 470.74,-17.44"/>
<polygon fill="#63b8ff" stroke="#63b8ff" points="718.25,-268.11 708.68,-272.64 718.99,-275.07 718.25,-268.11"/>
</a>
</g>
</g>
<!-- Node13&#45;&gt;Node10 -->
<g id="edge27_Node000013_Node000010" class="edge">
<title>Node13&#45;&gt;Node10</title>
<g id="a_edge27_Node000013_Node000010"><a xlink:title=" ">
<path fill="none" stroke="#63b8ff" d="M636.01,-253.96C633.97,-236.08 628.3,-212.38 613,-198 592.5,-178.73 524.58,-165.07 470.69,-156.95"/>
<polygon fill="#63b8ff" stroke="#63b8ff" points="632.52,-254.28 636.85,-263.95 639.5,-253.69 632.52,-254.28"/>
</a>
</g>
</g>
<!-- Node13&#45;&gt;Node11 -->
<g id="edge24_Node000013_Node000011" class="edge">
<title>Node13&#45;&gt;Node11</title>
<g id="a_edge24_Node000013_Node000011"><a xlink:title=" ">
<path fill="none" stroke="#63b8ff" d="M597.43,-259.65C575.73,-249.58 549.24,-237.3 529.21,-228.01"/>
<polygon fill="#63b8ff" stroke="#63b8ff" points="596.17,-262.92 606.72,-263.95 599.12,-256.57 596.17,-262.92"/>
</a>
</g>
</g>
<!-- Node13&#45;&gt;Node12 -->
<g id="edge26_Node000013_Node000012" class="edge">
<title>Node13&#45;&gt;Node12</title>
<g id="a_edge26_Node000013_Node000012"><a xlink:title=" ">
<path fill="none" stroke="#63b8ff" d="M555.36,-262.54C498.96,-251.86 424.66,-237.79 370.58,-227.55"/>
<polygon fill="#63b8ff" stroke="#63b8ff" points="554.84,-266.01 565.32,-264.43 556.14,-259.13 554.84,-266.01"/>
</a>
</g>
</g>
<!-- Node14 -->
<g id="Node000014" class="node">
<title>Node14</title>
<g id="a_Node000014"><a xlink:href="../../d7/d52/typed__rows_8hpp_source.html" target="_top" xlink:title=" ">
<polygon fill="white" stroke="#666666" points="864.5,-228 721.5,-228 721.5,-198 864.5,-198 864.5,-228"/>
<text text-anchor="start" x="729.5" y="-216" font-family="Helvetica,sans-Serif" font-size="10.00">userver/storages/postgres</text>
<text text-anchor="middle" x="793" y="-205" font-family="Helvetica,sans-Serif" font-size="10.00">/detail/typed_rows.hpp</text>
</a>
</g>
</g>
<!-- Node13&#45;&gt;Node14 -->
<g id="edge21_Node000013_Node000014" class="edge">
<title>Node13&#45;&gt;Node14</title>
<g id="a_edge21_Node000013_Node000014"><a xlink:title=" ">
<path fill="none" stroke="#63b8ff" d="M680.74,-260.05C705.46,-249.91 735.9,-237.43 758.84,-228.01"/>
<polygon fill="#63b8ff" stroke="#63b8ff" points="679.16,-256.92 671.23,-263.95 681.82,-263.4 679.16,-256.92"/>
</a>
</g>
</g>
<!-- Node15 -->
<g id="Node000015" class="node">
<title>Node15</title>
<g id="a_Node000015"><a xlink:href="../../d1/dee/typed__result__set_8hpp.html" target="_top" xlink:title="Typed PostgreSQL results.">
<polygon fill="white" stroke="#666666" points="755.5,-162 612.5,-162 612.5,-132 755.5,-132 755.5,-162"/>
<text text-anchor="start" x="620.5" y="-150" font-family="Helvetica,sans-Serif" font-size="10.00">userver/storages/postgres</text>
<text text-anchor="middle" x="684" y="-139" font-family="Helvetica,sans-Serif" font-size="10.00">/typed_result_set.hpp</text>
</a>
</g>
</g>
<!-- Node13&#45;&gt;Node15 -->
<g id="edge28_Node000013_Node000015" class="edge">
<title>Node13&#45;&gt;Node15</title>
<g id="a_edge28_Node000013_Node000015"><a xlink:title=" ">
<path fill="none" stroke="#63b8ff" d="M640.29,-254.04C647.92,-227.08 663.74,-184.21 674.49,-162.14"/>
<polygon fill="#63b8ff" stroke="#63b8ff" points="636.87,-253.28 637.72,-263.84 643.64,-255.06 636.87,-253.28"/>
</a>
</g>
</g>
<!-- Node14&#45;&gt;Node15 -->
<g id="edge22_Node000014_Node000015" class="edge">
<title>Node14&#45;&gt;Node15</title>
<g id="a_edge22_Node000014_Node000015"><a xlink:title=" ">
<path fill="none" stroke="#63b8ff" d="M760.12,-192.69C743.29,-182.82 723.19,-171.01 707.86,-162.01"/>
<polygon fill="#63b8ff" stroke="#63b8ff" points="758.68,-195.91 769.08,-197.95 762.23,-189.87 758.68,-195.91"/>
</a>
</g>
</g>
<!-- Node15&#45;&gt;Node13 -->
<g id="edge23_Node000015_Node000013" class="edge">
<title>Node15&#45;&gt;Node13</title>
<g id="a_edge23_Node000015_Node000013"><a xlink:title=" ">
<path fill="none" stroke="#63b8ff" d="M680.72,-171.94C673.09,-198.89 657.27,-241.76 646.52,-263.84"/>
<polygon fill="#63b8ff" stroke="#63b8ff" points="684.13,-172.7 683.29,-162.14 677.36,-170.93 684.13,-172.7"/>
</a>
</g>
</g>
</g>
</svg>
