<?xml version="1.0" encoding="UTF-8" standalone="no"?>
<!DOCTYPE svg PUBLIC "-//W3C//DTD SVG 1.1//EN"
 "http://www.w3.org/Graphics/SVG/1.1/DTD/svg11.dtd">
<!-- Generated by graphviz version 2.43.0 (0)
 -->
<!-- Title: userver/formats/json.hpp Pages: 1 -->
<svg width="2707pt" height="511pt"
 viewBox="0.00 0.00 2706.50 511.00" xmlns="http://www.w3.org/2000/svg" xmlns:xlink="http://www.w3.org/1999/xlink">
<g id="graph0" class="graph" transform="scale(1 1) rotate(0) translate(4 507)">
<title>userver/formats/json.hpp</title>
<!-- Node1 -->
<g id="Node000001" class="node">
<title>Node1</title>
<g id="a_Node000001"><a xlink:title="Include&#45;all header for JSON support.">
<polygon fill="#999999" stroke="#666666" points="2304.5,-503 2165.5,-503 2165.5,-484 2304.5,-484 2304.5,-503"/>
<text text-anchor="middle" x="2235" y="-491" font-family="Helvetica,sans-Serif" font-size="10.00">userver/formats/json.hpp</text>
</a>
</g>
</g>
<!-- Node2 -->
<g id="Node000002" class="node">
<title>Node2</title>
<g id="a_Node000002"><a xlink:href="../../d4/d07/core_2include_2userver_2server_2handlers_2exceptions_8hpp.html" target="_top" xlink:title="Helpers for throwing exceptions.">
<polygon fill="white" stroke="#666666" points="1849,-448 1717,-448 1717,-418 1849,-418 1849,-448"/>
<text text-anchor="start" x="1725" y="-436" font-family="Helvetica,sans-Serif" font-size="10.00">userver/server/handlers</text>
<text text-anchor="middle" x="1783" y="-425" font-family="Helvetica,sans-Serif" font-size="10.00">/exceptions.hpp</text>
</a>
</g>
</g>
<!-- Node1&#45;&gt;Node2 -->
<g id="edge1_Node000001_Node000002" class="edge">
<title>Node1&#45;&gt;Node2</title>
<g id="a_edge1_Node000001_Node000002"><a xlink:title=" ">
<path fill="none" stroke="#63b8ff" d="M2159.23,-482.69C2072.46,-471.46 1931.7,-453.25 1849.17,-442.56"/>
<polygon fill="#63b8ff" stroke="#63b8ff" points="2158.91,-486.18 2169.28,-483.99 2159.81,-479.24 2158.91,-486.18"/>
</a>
</g>
</g>
<!-- Node29 -->
<g id="Node000029" class="node">
<title>Node29</title>
<g id="a_Node000029"><a xlink:href="../../dd/d50/json__types_8hpp.html" target="_top" xlink:title="JSON I/O support.">
<polygon fill="white" stroke="#666666" points="2233.5,-448 2090.5,-448 2090.5,-418 2233.5,-418 2233.5,-448"/>
<text text-anchor="start" x="2098.5" y="-436" font-family="Helvetica,sans-Serif" font-size="10.00">userver/storages/postgres</text>
<text text-anchor="middle" x="2162" y="-425" font-family="Helvetica,sans-Serif" font-size="10.00">/io/json_types.hpp</text>
</a>
</g>
</g>
<!-- Node1&#45;&gt;Node29 -->
<g id="edge30_Node000001_Node000029" class="edge">
<title>Node1&#45;&gt;Node29</title>
<g id="a_edge30_Node000001_Node000029"><a xlink:title=" ">
<path fill="none" stroke="#63b8ff" d="M2216.28,-477.5C2204.99,-468.45 2190.7,-457 2179.61,-448.11"/>
<polygon fill="#63b8ff" stroke="#63b8ff" points="2214.24,-480.35 2224.23,-483.87 2218.61,-474.88 2214.24,-480.35"/>
</a>
</g>
</g>
<!-- Node39 -->
<g id="Node000039" class="node">
<title>Node39</title>
<g id="a_Node000039"><a xlink:href="../../de/da6/proto__json_8hpp.html" target="_top" xlink:title="Utilities for conversion Protobuf &#45;&gt; Json.">
<polygon fill="white" stroke="#666666" points="2364,-448 2252,-448 2252,-418 2364,-418 2364,-448"/>
<text text-anchor="start" x="2260" y="-436" font-family="Helvetica,sans-Serif" font-size="10.00">userver/ugrpc/proto</text>
<text text-anchor="middle" x="2308" y="-425" font-family="Helvetica,sans-Serif" font-size="10.00">_json.hpp</text>
</a>
</g>
</g>
<!-- Node1&#45;&gt;Node39 -->
<g id="edge45_Node000001_Node000039" class="edge">
<title>Node1&#45;&gt;Node39</title>
<g id="a_edge45_Node000001_Node000039"><a xlink:title=" ">
<path fill="none" stroke="#63b8ff" d="M2253.72,-477.5C2265.01,-468.45 2279.3,-457 2290.39,-448.11"/>
<polygon fill="#63b8ff" stroke="#63b8ff" points="2251.39,-474.88 2245.77,-483.87 2255.76,-480.35 2251.39,-474.88"/>
</a>
</g>
</g>
<!-- Node40 -->
<g id="Node000040" class="node">
<title>Node40</title>
<g id="a_Node000040"><a xlink:href="../../d1/d84/ydb_2include_2userver_2ydb_2component_8hpp.html" target="_top" xlink:title="YDB client component.">
<polygon fill="white" stroke="#666666" points="2535.5,-442.5 2382.5,-442.5 2382.5,-423.5 2535.5,-423.5 2535.5,-442.5"/>
<text text-anchor="middle" x="2459" y="-430.5" font-family="Helvetica,sans-Serif" font-size="10.00">userver/ydb/component.hpp</text>
</a>
</g>
</g>
<!-- Node1&#45;&gt;Node40 -->
<g id="edge46_Node000001_Node000040" class="edge">
<title>Node1&#45;&gt;Node40</title>
<g id="a_edge46_Node000001_Node000040"><a xlink:title=" ">
<path fill="none" stroke="#63b8ff" d="M2277.52,-481.4C2320.83,-470.08 2387.05,-452.79 2426.39,-442.52"/>
<polygon fill="#63b8ff" stroke="#63b8ff" points="2276.36,-478.08 2267.57,-483.99 2278.13,-484.85 2276.36,-478.08"/>
</a>
</g>
</g>
<!-- Node3 -->
<g id="Node000003" class="node">
<title>Node3</title>
<g id="a_Node000003"><a xlink:href="../../da/dff/auth__checker__base_8hpp_source.html" target="_top" xlink:title=" ">
<polygon fill="white" stroke="#666666" points="2117,-382 1959,-382 1959,-352 2117,-352 2117,-382"/>
<text text-anchor="start" x="1967" y="-370" font-family="Helvetica,sans-Serif" font-size="10.00">userver/server/handlers</text>
<text text-anchor="middle" x="2038" y="-359" font-family="Helvetica,sans-Serif" font-size="10.00">/auth/auth_checker_base.hpp</text>
</a>
</g>
</g>
<!-- Node2&#45;&gt;Node3 -->
<g id="edge2_Node000002_Node000003" class="edge">
<title>Node2&#45;&gt;Node3</title>
<g id="a_edge2_Node000002_Node000003"><a xlink:title=" ">
<path fill="none" stroke="#63b8ff" d="M1848.67,-415.52C1890.03,-405.14 1942.84,-391.88 1982.17,-382.01"/>
<polygon fill="#63b8ff" stroke="#63b8ff" points="1847.81,-412.13 1838.96,-417.95 1849.51,-418.92 1847.81,-412.13"/>
</a>
</g>
</g>
<!-- Node7 -->
<g id="Node000007" class="node">
<title>Node7</title>
<g id="a_Node000007"><a xlink:href="../../df/dd5/handler__base_8hpp.html" target="_top" xlink:title="Base class for the request handlers.">
<polygon fill="white" stroke="#666666" points="1488,-382 1356,-382 1356,-352 1488,-352 1488,-382"/>
<text text-anchor="start" x="1364" y="-370" font-family="Helvetica,sans-Serif" font-size="10.00">userver/server/handlers</text>
<text text-anchor="middle" x="1422" y="-359" font-family="Helvetica,sans-Serif" font-size="10.00">/handler_base.hpp</text>
</a>
</g>
</g>
<!-- Node2&#45;&gt;Node7 -->
<g id="edge6_Node000002_Node000007" class="edge">
<title>Node2&#45;&gt;Node7</title>
<g id="a_edge6_Node000002_Node000007"><a xlink:title=" ">
<path fill="none" stroke="#63b8ff" d="M1706.63,-418.46C1641.82,-406.97 1549.79,-390.66 1488.1,-379.72"/>
<polygon fill="#63b8ff" stroke="#63b8ff" points="1706.33,-421.96 1716.79,-420.26 1707.55,-415.07 1706.33,-421.96"/>
</a>
</g>
</g>
<!-- Node8 -->
<g id="Node000008" class="node">
<title>Node8</title>
<g id="a_Node000008"><a xlink:href="../../d4/df6/http__handler__base_8hpp.html" target="_top" xlink:title="Base class for all the Userver HTTP Handlers.">
<polygon fill="white" stroke="#666666" points="1202,-310.5 1070,-310.5 1070,-280.5 1202,-280.5 1202,-310.5"/>
<text text-anchor="start" x="1078" y="-298.5" font-family="Helvetica,sans-Serif" font-size="10.00">userver/server/handlers</text>
<text text-anchor="middle" x="1136" y="-287.5" font-family="Helvetica,sans-Serif" font-size="10.00">/http_handler_base.hpp</text>
</a>
</g>
</g>
<!-- Node2&#45;&gt;Node8 -->
<g id="edge25_Node000002_Node000008" class="edge">
<title>Node2&#45;&gt;Node8</title>
<g id="a_edge25_Node000002_Node000008"><a xlink:title=" ">
<path fill="none" stroke="#63b8ff" d="M1706.84,-429.5C1618.93,-425.18 1470.57,-413.5 1347,-382 1278.83,-364.62 1203.45,-330.07 1163.84,-310.64"/>
<polygon fill="#63b8ff" stroke="#63b8ff" points="1706.84,-433 1717,-429.98 1707.17,-426.01 1706.84,-433"/>
</a>
</g>
</g>
<!-- Node26 -->
<g id="Node000026" class="node">
<title>Node26</title>
<g id="a_Node000026"><a xlink:href="../../d3/d0e/json__error__builder_8hpp_source.html" target="_top" xlink:title=" ">
<polygon fill="white" stroke="#666666" points="1682,-382 1550,-382 1550,-352 1682,-352 1682,-382"/>
<text text-anchor="start" x="1558" y="-370" font-family="Helvetica,sans-Serif" font-size="10.00">userver/server/handlers</text>
<text text-anchor="middle" x="1616" y="-359" font-family="Helvetica,sans-Serif" font-size="10.00">/json_error_builder.hpp</text>
</a>
</g>
</g>
<!-- Node2&#45;&gt;Node26 -->
<g id="edge26_Node000002_Node000026" class="edge">
<title>Node2&#45;&gt;Node26</title>
<g id="a_edge26_Node000002_Node000026"><a xlink:title=" ">
<path fill="none" stroke="#63b8ff" d="M1736.87,-414.32C1710.29,-404.14 1677.34,-391.51 1652.56,-382.01"/>
<polygon fill="#63b8ff" stroke="#63b8ff" points="1735.76,-417.64 1746.35,-417.95 1738.27,-411.11 1735.76,-417.64"/>
</a>
</g>
</g>
<!-- Node27 -->
<g id="Node000027" class="node">
<title>Node27</title>
<g id="a_Node000027"><a xlink:href="../../db/d08/legacy__json__error__builder_8hpp_source.html" target="_top" xlink:title=" ">
<polygon fill="white" stroke="#666666" points="1865.5,-382 1700.5,-382 1700.5,-352 1865.5,-352 1865.5,-382"/>
<text text-anchor="start" x="1708.5" y="-370" font-family="Helvetica,sans-Serif" font-size="10.00">userver/server/handlers</text>
<text text-anchor="middle" x="1783" y="-359" font-family="Helvetica,sans-Serif" font-size="10.00">/legacy_json_error_builder.hpp</text>
</a>
</g>
</g>
<!-- Node2&#45;&gt;Node27 -->
<g id="edge27_Node000002_Node000027" class="edge">
<title>Node2&#45;&gt;Node27</title>
<g id="a_edge27_Node000002_Node000027"><a xlink:title=" ">
<path fill="none" stroke="#63b8ff" d="M1783,-407.54C1783,-398.96 1783,-389.61 1783,-382.16"/>
<polygon fill="#63b8ff" stroke="#63b8ff" points="1779.5,-407.8 1783,-417.8 1786.5,-407.8 1779.5,-407.8"/>
</a>
</g>
</g>
<!-- Node28 -->
<g id="Node000028" class="node">
<title>Node28</title>
<g id="a_Node000028"><a xlink:href="../../da/dfa/http__error_8hpp.html" target="_top" xlink:title="Get http status code mapped to generic handler error code.">
<polygon fill="white" stroke="#666666" points="1949,-310.5 1839,-310.5 1839,-280.5 1949,-280.5 1949,-310.5"/>
<text text-anchor="start" x="1847" y="-298.5" font-family="Helvetica,sans-Serif" font-size="10.00">userver/server/http</text>
<text text-anchor="middle" x="1894" y="-287.5" font-family="Helvetica,sans-Serif" font-size="10.00">/http_error.hpp</text>
</a>
</g>
</g>
<!-- Node2&#45;&gt;Node28 -->
<g id="edge28_Node000002_Node000028" class="edge">
<title>Node2&#45;&gt;Node28</title>
<g id="a_edge28_Node000002_Node000028"><a xlink:title=" ">
<path fill="none" stroke="#63b8ff" d="M1834.1,-413.39C1848.9,-405.73 1863.8,-395.44 1874,-382 1890.03,-360.87 1893.51,-328.96 1894.09,-310.69"/>
<polygon fill="#63b8ff" stroke="#63b8ff" points="1832.42,-410.31 1824.94,-417.82 1835.46,-416.61 1832.42,-410.31"/>
</a>
</g>
</g>
<!-- Node4 -->
<g id="Node000004" class="node">
<title>Node4</title>
<g id="a_Node000004"><a xlink:href="../../db/ddd/auth__checker__factory_8hpp.html" target="_top" xlink:title="Authorization factory registration and base classes.">
<polygon fill="white" stroke="#666666" points="2295,-310.5 2127,-310.5 2127,-280.5 2295,-280.5 2295,-310.5"/>
<text text-anchor="start" x="2135" y="-298.5" font-family="Helvetica,sans-Serif" font-size="10.00">userver/server/handlers</text>
<text text-anchor="middle" x="2211" y="-287.5" font-family="Helvetica,sans-Serif" font-size="10.00">/auth/auth_checker_factory.hpp</text>
</a>
</g>
</g>
<!-- Node3&#45;&gt;Node4 -->
<g id="edge3_Node000003_Node000004" class="edge">
<title>Node3&#45;&gt;Node4</title>
<g id="a_edge3_Node000003_Node000004"><a xlink:title=" ">
<path fill="none" stroke="#63b8ff" d="M2082.53,-348.11C2111.63,-336.42 2149.09,-321.37 2176.04,-310.54"/>
<polygon fill="#63b8ff" stroke="#63b8ff" points="2080.98,-344.96 2073.01,-351.94 2083.59,-351.46 2080.98,-344.96"/>
</a>
</g>
</g>
<!-- Node5 -->
<g id="Node000005" class="node">
<title>Node5</title>
<g id="a_Node000005"><a xlink:href="../../de/d82/digest_2auth__checker__base_8hpp.html" target="_top" xlink:title="Base class for digest authentication checkers. Implements a digest&#45;authentication logic.">
<polygon fill="white" stroke="#666666" points="2109,-316 1967,-316 1967,-275 2109,-275 2109,-316"/>
<text text-anchor="start" x="1975" y="-304" font-family="Helvetica,sans-Serif" font-size="10.00">userver/server/handlers</text>
<text text-anchor="start" x="1975" y="-293" font-family="Helvetica,sans-Serif" font-size="10.00">/auth/digest/auth_checker</text>
<text text-anchor="middle" x="2038" y="-282" font-family="Helvetica,sans-Serif" font-size="10.00">_base.hpp</text>
</a>
</g>
</g>
<!-- Node3&#45;&gt;Node5 -->
<g id="edge4_Node000003_Node000005" class="edge">
<title>Node3&#45;&gt;Node5</title>
<g id="a_edge4_Node000003_Node000005"><a xlink:title=" ">
<path fill="none" stroke="#63b8ff" d="M2038,-341.91C2038,-333.47 2038,-324.1 2038,-316.07"/>
<polygon fill="#63b8ff" stroke="#63b8ff" points="2034.5,-341.94 2038,-351.94 2041.5,-341.94 2034.5,-341.94"/>
</a>
</g>
</g>
<!-- Node6 -->
<g id="Node000006" class="node">
<title>Node6</title>
<g id="a_Node000006"><a xlink:href="../../db/df0/standalone__checker_8hpp.html" target="_top" xlink:title="Class for digest authentication checker. Implements a stand&#45;alone digest&#45;authentication logic.">
<polygon fill="white" stroke="#666666" points="2134,-239 2002,-239 2002,-198 2134,-198 2134,-239"/>
<text text-anchor="start" x="2010" y="-227" font-family="Helvetica,sans-Serif" font-size="10.00">userver/server/handlers</text>
<text text-anchor="start" x="2010" y="-216" font-family="Helvetica,sans-Serif" font-size="10.00">/auth/digest/standalone</text>
<text text-anchor="middle" x="2068" y="-205" font-family="Helvetica,sans-Serif" font-size="10.00">_checker.hpp</text>
</a>
</g>
</g>
<!-- Node5&#45;&gt;Node6 -->
<g id="edge5_Node000005_Node000006" class="edge">
<title>Node5&#45;&gt;Node6</title>
<g id="a_edge5_Node000005_Node000006"><a xlink:title=" ">
<path fill="none" stroke="#63b8ff" d="M2049.7,-265.26C2053.21,-256.48 2056.97,-247.07 2060.17,-239.07"/>
<polygon fill="#63b8ff" stroke="#63b8ff" points="2046.35,-264.21 2045.88,-274.79 2052.85,-266.81 2046.35,-264.21"/>
</a>
</g>
</g>
<!-- Node7&#45;&gt;Node8 -->
<g id="edge7_Node000007_Node000008" class="edge">
<title>Node7&#45;&gt;Node8</title>
<g id="a_edge7_Node000007_Node000008"><a xlink:title=" ">
<path fill="none" stroke="#63b8ff" d="M1354.27,-349.54C1305.43,-337.67 1240.19,-321.82 1193.79,-310.54"/>
<polygon fill="#63b8ff" stroke="#63b8ff" points="1353.58,-352.98 1364.12,-351.94 1355.23,-346.17 1353.58,-352.98"/>
</a>
</g>
</g>
<!-- Node9 -->
<g id="Node000009" class="node">
<title>Node9</title>
<g id="a_Node000009"><a xlink:href="../../d6/d0d/dns__client__control_8hpp.html" target="_top" xlink:title="Handlers that controls the DNS client.">
<polygon fill="white" stroke="#666666" points="1202,-233.5 1070,-233.5 1070,-203.5 1202,-203.5 1202,-233.5"/>
<text text-anchor="start" x="1078" y="-221.5" font-family="Helvetica,sans-Serif" font-size="10.00">userver/server/handlers</text>
<text text-anchor="middle" x="1136" y="-210.5" font-family="Helvetica,sans-Serif" font-size="10.00">/dns_client_control.hpp</text>
</a>
</g>
</g>
<!-- Node8&#45;&gt;Node9 -->
<g id="edge8_Node000008_Node000009" class="edge">
<title>Node8&#45;&gt;Node9</title>
<g id="a_edge8_Node000008_Node000009"><a xlink:title=" ">
<path fill="none" stroke="#63b8ff" d="M1136,-270.04C1136,-257.95 1136,-243.79 1136,-233.54"/>
<polygon fill="#63b8ff" stroke="#63b8ff" points="1132.5,-270.39 1136,-280.39 1139.5,-270.39 1132.5,-270.39"/>
</a>
</g>
</g>
<!-- Node10 -->
<g id="Node000010" class="node">
<title>Node10</title>
<g id="a_Node000010"><a xlink:href="../../d6/dc0/dynamic__debug__log_8hpp.html" target="_top" xlink:title="HTTP Handler to show/hide logs at the specific file:line.">
<polygon fill="white" stroke="#666666" points="1358,-233.5 1220,-233.5 1220,-203.5 1358,-203.5 1358,-233.5"/>
<text text-anchor="start" x="1228" y="-221.5" font-family="Helvetica,sans-Serif" font-size="10.00">userver/server/handlers</text>
<text text-anchor="middle" x="1289" y="-210.5" font-family="Helvetica,sans-Serif" font-size="10.00">/dynamic_debug_log.hpp</text>
</a>
</g>
</g>
<!-- Node8&#45;&gt;Node10 -->
<g id="edge9_Node000008_Node000010" class="edge">
<title>Node8&#45;&gt;Node10</title>
<g id="a_edge9_Node000008_Node000010"><a xlink:title=" ">
<path fill="none" stroke="#63b8ff" d="M1173.85,-275.94C1200.61,-262.83 1235.92,-245.52 1260.35,-233.54"/>
<polygon fill="#63b8ff" stroke="#63b8ff" points="1172.22,-272.85 1164.78,-280.39 1175.3,-279.13 1172.22,-272.85"/>
</a>
</g>
</g>
<!-- Node11 -->
<g id="Node000011" class="node">
<title>Node11</title>
<g id="a_Node000011"><a xlink:href="../../d5/d4d/http__handler__flatbuf__base_8hpp.html" target="_top" xlink:title="Convenient base for handlers that accept requests with body in Flatbuffer format and respond with bod...">
<polygon fill="white" stroke="#666666" points="1984,-239 1852,-239 1852,-198 1984,-198 1984,-239"/>
<text text-anchor="start" x="1860" y="-227" font-family="Helvetica,sans-Serif" font-size="10.00">userver/server/handlers</text>
<text text-anchor="start" x="1860" y="-216" font-family="Helvetica,sans-Serif" font-size="10.00">/http_handler_flatbuf</text>
<text text-anchor="middle" x="1918" y="-205" font-family="Helvetica,sans-Serif" font-size="10.00">_base.hpp</text>
</a>
</g>
</g>
<!-- Node8&#45;&gt;Node11 -->
<g id="edge10_Node000008_Node000011" class="edge">
<title>Node8&#45;&gt;Node11</title>
<g id="a_edge10_Node000008_Node000011"><a xlink:title=" ">
<path fill="none" stroke="#63b8ff" d="M1212.53,-292.9C1342.83,-289.19 1615.72,-277.16 1843,-239 1845.92,-238.51 1848.89,-237.96 1851.88,-237.36"/>
<polygon fill="#63b8ff" stroke="#63b8ff" points="1212.17,-289.41 1202.27,-293.18 1212.36,-296.4 1212.17,-289.41"/>
</a>
</g>
</g>
<!-- Node12 -->
<g id="Node000012" class="node">
<title>Node12</title>
<g id="a_Node000012"><a xlink:href="../../d1/d58/http__handler__json__base_8hpp.html" target="_top" xlink:title="Convenient base for handlers that accept requests with body in JSON format and respond with body in J...">
<polygon fill="white" stroke="#666666" points="1532,-233.5 1376,-233.5 1376,-203.5 1532,-203.5 1532,-233.5"/>
<text text-anchor="start" x="1384" y="-221.5" font-family="Helvetica,sans-Serif" font-size="10.00">userver/server/handlers</text>
<text text-anchor="middle" x="1454" y="-210.5" font-family="Helvetica,sans-Serif" font-size="10.00">/http_handler_json_base.hpp</text>
</a>
</g>
</g>
<!-- Node8&#45;&gt;Node12 -->
<g id="edge11_Node000008_Node000012" class="edge">
<title>Node8&#45;&gt;Node12</title>
<g id="a_edge11_Node000008_Node000012"><a xlink:title=" ">
<path fill="none" stroke="#63b8ff" d="M1205.37,-278.14C1261.91,-264.8 1340.92,-246.17 1394.58,-233.51"/>
<polygon fill="#63b8ff" stroke="#63b8ff" points="1204.37,-274.78 1195.44,-280.48 1205.98,-281.59 1204.37,-274.78"/>
</a>
</g>
</g>
<!-- Node16 -->
<g id="Node000016" class="node">
<title>Node16</title>
<g id="a_Node000016"><a xlink:href="../../dd/db6/http__handler__static_8hpp.html" target="_top" xlink:title="Handler that returns HTTP 200 if file exist and returns file data with mapped content/type.">
<polygon fill="white" stroke="#666666" points="1684,-233.5 1550,-233.5 1550,-203.5 1684,-203.5 1684,-233.5"/>
<text text-anchor="start" x="1558" y="-221.5" font-family="Helvetica,sans-Serif" font-size="10.00">userver/server/handlers</text>
<text text-anchor="middle" x="1617" y="-210.5" font-family="Helvetica,sans-Serif" font-size="10.00">/http_handler_static.hpp</text>
</a>
</g>
</g>
<!-- Node8&#45;&gt;Node16 -->
<g id="edge15_Node000008_Node000016" class="edge">
<title>Node8&#45;&gt;Node16</title>
<g id="a_edge15_Node000008_Node000016"><a xlink:title=" ">
<path fill="none" stroke="#63b8ff" d="M1212.28,-286.7C1294.02,-277.72 1427.35,-261.29 1541,-239 1549.02,-237.43 1557.46,-235.52 1565.67,-233.52"/>
<polygon fill="#63b8ff" stroke="#63b8ff" points="1211.89,-283.22 1202.33,-287.78 1212.65,-290.18 1211.89,-283.22"/>
</a>
</g>
</g>
<!-- Node17 -->
<g id="Node000017" class="node">
<title>Node17</title>
<g id="a_Node000017"><a xlink:href="../../d7/db3/implicit__options_8hpp.html" target="_top" xlink:title="A &quot;magical&quot; handler that will respond to OPTIONS HTTP method for any other handler that cannot handle...">
<polygon fill="white" stroke="#666666" points="1834,-233.5 1702,-233.5 1702,-203.5 1834,-203.5 1834,-233.5"/>
<text text-anchor="start" x="1710" y="-221.5" font-family="Helvetica,sans-Serif" font-size="10.00">userver/server/handlers</text>
<text text-anchor="middle" x="1768" y="-210.5" font-family="Helvetica,sans-Serif" font-size="10.00">/implicit_options.hpp</text>
</a>
</g>
</g>
<!-- Node8&#45;&gt;Node17 -->
<g id="edge16_Node000008_Node000017" class="edge">
<title>Node8&#45;&gt;Node17</title>
<g id="a_edge16_Node000008_Node000017"><a xlink:title=" ">
<path fill="none" stroke="#63b8ff" d="M1212.18,-290.66C1319.93,-284.38 1522.71,-269.43 1693,-239 1701.21,-237.53 1709.84,-235.63 1718.21,-233.59"/>
<polygon fill="#63b8ff" stroke="#63b8ff" points="1211.83,-287.17 1202.05,-291.24 1212.24,-294.16 1211.83,-287.17"/>
</a>
</g>
</g>
<!-- Node18 -->
<g id="Node000018" class="node">
<title>Node18</title>
<g id="a_Node000018"><a xlink:href="../../d5/d86/jemalloc_8hpp.html" target="_top" xlink:title="Handler that controls the jemalloc allocator.">
<polygon fill="white" stroke="#666666" points="132,-233.5 0,-233.5 0,-203.5 132,-203.5 132,-233.5"/>
<text text-anchor="start" x="8" y="-221.5" font-family="Helvetica,sans-Serif" font-size="10.00">userver/server/handlers</text>
<text text-anchor="middle" x="66" y="-210.5" font-family="Helvetica,sans-Serif" font-size="10.00">/jemalloc.hpp</text>
</a>
</g>
</g>
<!-- Node8&#45;&gt;Node18 -->
<g id="edge17_Node000008_Node000018" class="edge">
<title>Node8&#45;&gt;Node18</title>
<g id="a_edge17_Node000008_Node000018"><a xlink:title=" ">
<path fill="none" stroke="#63b8ff" d="M1059.54,-295.38C892.03,-296.2 480.47,-292.06 141,-239 132.23,-237.63 122.99,-235.67 114.12,-233.51"/>
<polygon fill="#63b8ff" stroke="#63b8ff" points="1059.76,-298.88 1069.74,-295.33 1059.72,-291.88 1059.76,-298.88"/>
</a>
</g>
</g>
<!-- Node19 -->
<g id="Node000019" class="node">
<title>Node19</title>
<g id="a_Node000019"><a xlink:href="../../d0/d01/log__level_8hpp.html" target="_top" xlink:title="Handler that controls logging levels of all the loggers.">
<polygon fill="white" stroke="#666666" points="282,-233.5 150,-233.5 150,-203.5 282,-203.5 282,-233.5"/>
<text text-anchor="start" x="158" y="-221.5" font-family="Helvetica,sans-Serif" font-size="10.00">userver/server/handlers</text>
<text text-anchor="middle" x="216" y="-210.5" font-family="Helvetica,sans-Serif" font-size="10.00">/log_level.hpp</text>
</a>
</g>
</g>
<!-- Node8&#45;&gt;Node19 -->
<g id="edge18_Node000008_Node000019" class="edge">
<title>Node8&#45;&gt;Node19</title>
<g id="a_edge18_Node000008_Node000019"><a xlink:title=" ">
<path fill="none" stroke="#63b8ff" d="M1059.39,-294.29C910.41,-292.82 571.64,-284.28 291,-239 282.37,-237.61 273.28,-235.66 264.53,-233.54"/>
<polygon fill="#63b8ff" stroke="#63b8ff" points="1059.75,-297.79 1069.78,-294.38 1059.82,-290.79 1059.75,-297.79"/>
</a>
</g>
</g>
<!-- Node20 -->
<g id="Node000020" class="node">
<title>Node20</title>
<g id="a_Node000020"><a xlink:href="../../d7/d72/on__log__rotate_8hpp.html" target="_top" xlink:title="Handler that controls logging levels of all the loggers.">
<polygon fill="white" stroke="#666666" points="432,-233.5 300,-233.5 300,-203.5 432,-203.5 432,-233.5"/>
<text text-anchor="start" x="308" y="-221.5" font-family="Helvetica,sans-Serif" font-size="10.00">userver/server/handlers</text>
<text text-anchor="middle" x="366" y="-210.5" font-family="Helvetica,sans-Serif" font-size="10.00">/on_log_rotate.hpp</text>
</a>
</g>
</g>
<!-- Node8&#45;&gt;Node20 -->
<g id="edge19_Node000008_Node000020" class="edge">
<title>Node8&#45;&gt;Node20</title>
<g id="a_edge19_Node000008_Node000020"><a xlink:title=" ">
<path fill="none" stroke="#63b8ff" d="M1059.76,-292.76C931.28,-288.86 663.84,-276.57 441,-239 432.51,-237.57 423.58,-235.63 414.95,-233.54"/>
<polygon fill="#63b8ff" stroke="#63b8ff" points="1059.79,-296.26 1069.89,-293.06 1060,-289.27 1059.79,-296.26"/>
</a>
</g>
</g>
<!-- Node21 -->
<g id="Node000021" class="node">
<title>Node21</title>
<g id="a_Node000021"><a xlink:href="../../d8/d39/ping_8hpp.html" target="_top" xlink:title="Handler that returns HTTP 200 if the service is OK and able to process requests.">
<polygon fill="white" stroke="#666666" points="582,-233.5 450,-233.5 450,-203.5 582,-203.5 582,-233.5"/>
<text text-anchor="start" x="458" y="-221.5" font-family="Helvetica,sans-Serif" font-size="10.00">userver/server/handlers</text>
<text text-anchor="middle" x="516" y="-210.5" font-family="Helvetica,sans-Serif" font-size="10.00">/ping.hpp</text>
</a>
</g>
</g>
<!-- Node8&#45;&gt;Node21 -->
<g id="edge20_Node000008_Node000021" class="edge">
<title>Node8&#45;&gt;Node21</title>
<g id="a_edge20_Node000008_Node000021"><a xlink:title=" ">
<path fill="none" stroke="#63b8ff" d="M1059.41,-290.4C953.48,-283.9 756.55,-268.77 591,-239 582.79,-237.52 574.16,-235.62 565.79,-233.58"/>
<polygon fill="#63b8ff" stroke="#63b8ff" points="1059.5,-293.91 1069.69,-291.02 1059.92,-286.93 1059.5,-293.91"/>
</a>
</g>
</g>
<!-- Node22 -->
<g id="Node000022" class="node">
<title>Node22</title>
<g id="a_Node000022"><a xlink:href="../../de/d18/server__monitor_8hpp.html" target="_top" xlink:title="Handler that returns statistics data.">
<polygon fill="white" stroke="#666666" points="732,-233.5 600,-233.5 600,-203.5 732,-203.5 732,-233.5"/>
<text text-anchor="start" x="608" y="-221.5" font-family="Helvetica,sans-Serif" font-size="10.00">userver/server/handlers</text>
<text text-anchor="middle" x="666" y="-210.5" font-family="Helvetica,sans-Serif" font-size="10.00">/server_monitor.hpp</text>
</a>
</g>
</g>
<!-- Node8&#45;&gt;Node22 -->
<g id="edge21_Node000008_Node000022" class="edge">
<title>Node8&#45;&gt;Node22</title>
<g id="a_edge21_Node000008_Node000022"><a xlink:title=" ">
<path fill="none" stroke="#63b8ff" d="M1059.94,-286.44C980.08,-277.36 851.06,-260.96 741,-239 733.08,-237.42 724.76,-235.51 716.65,-233.51"/>
<polygon fill="#63b8ff" stroke="#63b8ff" points="1059.58,-289.92 1069.91,-287.56 1060.37,-282.96 1059.58,-289.92"/>
</a>
</g>
</g>
<!-- Node23 -->
<g id="Node000023" class="node">
<title>Node23</title>
<g id="a_Node000023"><a xlink:href="../../d8/d82/core_2include_2userver_2server_2server_8hpp_source.html" target="_top" xlink:title=" ">
<polygon fill="white" stroke="#666666" points="891.5,-228 750.5,-228 750.5,-209 891.5,-209 891.5,-228"/>
<text text-anchor="middle" x="821" y="-216" font-family="Helvetica,sans-Serif" font-size="10.00">userver/server/server.hpp</text>
</a>
</g>
</g>
<!-- Node8&#45;&gt;Node23 -->
<g id="edge22_Node000008_Node000023" class="edge">
<title>Node8&#45;&gt;Node23</title>
<g id="a_edge22_Node000008_Node000023"><a xlink:title=" ">
<path fill="none" stroke="#63b8ff" d="M1066.07,-278.12C1019.32,-267.14 956.45,-252.3 901,-239 886.13,-235.43 869.71,-231.44 855.64,-228"/>
<polygon fill="#63b8ff" stroke="#63b8ff" points="1065.55,-281.6 1076.09,-280.48 1067.15,-274.78 1065.55,-281.6"/>
</a>
</g>
</g>
<!-- Node25 -->
<g id="Node000025" class="node">
<title>Node25</title>
<g id="a_Node000025"><a xlink:href="../../d4/d64/websocket__handler_8hpp.html" target="_top" xlink:title=" ">
<polygon fill="white" stroke="#666666" points="1052,-233.5 910,-233.5 910,-203.5 1052,-203.5 1052,-233.5"/>
<text text-anchor="start" x="918" y="-221.5" font-family="Helvetica,sans-Serif" font-size="10.00">userver/server/websocket</text>
<text text-anchor="middle" x="981" y="-210.5" font-family="Helvetica,sans-Serif" font-size="10.00">/websocket_handler.hpp</text>
</a>
</g>
</g>
<!-- Node8&#45;&gt;Node25 -->
<g id="edge24_Node000008_Node000025" class="edge">
<title>Node8&#45;&gt;Node25</title>
<g id="a_edge24_Node000008_Node000025"><a xlink:title=" ">
<path fill="none" stroke="#63b8ff" d="M1097.65,-275.94C1070.55,-262.83 1034.77,-245.52 1010.02,-233.54"/>
<polygon fill="#63b8ff" stroke="#63b8ff" points="1096.32,-279.19 1106.85,-280.39 1099.37,-272.89 1096.32,-279.19"/>
</a>
</g>
</g>
<!-- Node13 -->
<g id="Node000013" class="node">
<title>Node13</title>
<g id="a_Node000013"><a xlink:href="../../d5/ded/handler_8hpp_source.html" target="_top" xlink:title=" ">
<polygon fill="white" stroke="#666666" points="1682,-156.5 1538,-156.5 1538,-137.5 1682,-137.5 1682,-156.5"/>
<text text-anchor="middle" x="1610" y="-144.5" font-family="Helvetica,sans-Serif" font-size="10.00">userver/alerts/handler.hpp</text>
</a>
</g>
</g>
<!-- Node12&#45;&gt;Node13 -->
<g id="edge12_Node000012_Node000013" class="edge">
<title>Node12&#45;&gt;Node13</title>
<g id="a_edge12_Node000012_Node000013"><a xlink:title=" ">
<path fill="none" stroke="#63b8ff" d="M1494.82,-199.31C1525.79,-185.52 1566.97,-167.17 1590.77,-156.57"/>
<polygon fill="#63b8ff" stroke="#63b8ff" points="1493.28,-196.17 1485.57,-203.44 1496.13,-202.56 1493.28,-196.17"/>
</a>
</g>
</g>
<!-- Node14 -->
<g id="Node000014" class="node">
<title>Node14</title>
<g id="a_Node000014"><a xlink:href="../../d7/d79/inspect__requests_8hpp.html" target="_top" xlink:title="Handler that returns information about all in&#45;flight requests.">
<polygon fill="white" stroke="#666666" points="1370,-162 1238,-162 1238,-132 1370,-132 1370,-162"/>
<text text-anchor="start" x="1246" y="-150" font-family="Helvetica,sans-Serif" font-size="10.00">userver/server/handlers</text>
<text text-anchor="middle" x="1304" y="-139" font-family="Helvetica,sans-Serif" font-size="10.00">/inspect_requests.hpp</text>
</a>
</g>
</g>
<!-- Node12&#45;&gt;Node14 -->
<g id="edge13_Node000012_Node000014" class="edge">
<title>Node12&#45;&gt;Node14</title>
<g id="a_edge13_Node000012_Node000014"><a xlink:title=" ">
<path fill="none" stroke="#63b8ff" d="M1414.4,-199.15C1389.32,-187.53 1357.37,-172.73 1334.31,-162.04"/>
<polygon fill="#63b8ff" stroke="#63b8ff" points="1413.1,-202.41 1423.65,-203.44 1416.04,-196.06 1413.1,-202.41"/>
</a>
</g>
</g>
<!-- Node15 -->
<g id="Node000015" class="node">
<title>Node15</title>
<g id="a_Node000015"><a xlink:href="../../d6/d43/tests__control_8hpp.html" target="_top" xlink:title="Handler that allows to control the behavior of server from tests, and functional tests with testsuite...">
<polygon fill="white" stroke="#666666" points="1520,-162 1388,-162 1388,-132 1520,-132 1520,-162"/>
<text text-anchor="start" x="1396" y="-150" font-family="Helvetica,sans-Serif" font-size="10.00">userver/server/handlers</text>
<text text-anchor="middle" x="1454" y="-139" font-family="Helvetica,sans-Serif" font-size="10.00">/tests_control.hpp</text>
</a>
</g>
</g>
<!-- Node12&#45;&gt;Node15 -->
<g id="edge14_Node000012_Node000015" class="edge">
<title>Node12&#45;&gt;Node15</title>
<g id="a_edge14_Node000012_Node000015"><a xlink:title=" ">
<path fill="none" stroke="#63b8ff" d="M1454,-193.25C1454,-182.81 1454,-170.99 1454,-162.04"/>
<polygon fill="#63b8ff" stroke="#63b8ff" points="1450.5,-193.44 1454,-203.44 1457.5,-193.44 1450.5,-193.44"/>
</a>
</g>
</g>
<!-- Node24 -->
<g id="Node000024" class="node">
<title>Node24</title>
<g id="a_Node000024"><a xlink:href="../../d3/ddd/core_2include_2userver_2server_2component_8hpp.html" target="_top" xlink:title="Component that listens for incoming requests, manages incoming connections and passes the requests to...">
<polygon fill="white" stroke="#666666" points="904,-156.5 738,-156.5 738,-137.5 904,-137.5 904,-156.5"/>
<text text-anchor="middle" x="821" y="-144.5" font-family="Helvetica,sans-Serif" font-size="10.00">userver/server/component.hpp</text>
</a>
</g>
</g>
<!-- Node23&#45;&gt;Node24 -->
<g id="edge23_Node000023_Node000024" class="edge">
<title>Node23&#45;&gt;Node24</title>
<g id="a_edge23_Node000023_Node000024"><a xlink:title=" ">
<path fill="none" stroke="#63b8ff" d="M821,-198.71C821,-185 821,-167.05 821,-156.59"/>
<polygon fill="#63b8ff" stroke="#63b8ff" points="817.5,-198.98 821,-208.98 824.5,-198.98 817.5,-198.98"/>
</a>
</g>
</g>
<!-- Node28&#45;&gt;Node11 -->
<g id="edge29_Node000028_Node000011" class="edge">
<title>Node28&#45;&gt;Node11</title>
<g id="a_edge29_Node000028_Node000011"><a xlink:title=" ">
<path fill="none" stroke="#63b8ff" d="M1901.66,-270.55C1904.9,-260.44 1908.62,-248.81 1911.69,-239.2"/>
<polygon fill="#63b8ff" stroke="#63b8ff" points="1898.23,-269.8 1898.51,-280.39 1904.9,-271.94 1898.23,-269.8"/>
</a>
</g>
</g>
<!-- Node30 -->
<g id="Node000030" class="node">
<title>Node30</title>
<g id="a_Node000030"><a xlink:href="../../dc/da2/postgresql_2include_2userver_2storages_2postgres_2io_2supported__types_8hpp.html" target="_top" xlink:title="Includes parsers and formatters for all supported data types; prefer using the type specific include ...">
<polygon fill="white" stroke="#666666" points="2367.5,-382 2224.5,-382 2224.5,-352 2367.5,-352 2367.5,-382"/>
<text text-anchor="start" x="2232.5" y="-370" font-family="Helvetica,sans-Serif" font-size="10.00">userver/storages/postgres</text>
<text text-anchor="middle" x="2296" y="-359" font-family="Helvetica,sans-Serif" font-size="10.00">/io/supported_types.hpp</text>
</a>
</g>
</g>
<!-- Node29&#45;&gt;Node30 -->
<g id="edge31_Node000029_Node000030" class="edge">
<title>Node29&#45;&gt;Node30</title>
<g id="a_edge31_Node000029_Node000030"><a xlink:title=" ">
<path fill="none" stroke="#63b8ff" d="M2200.71,-413.51C2221.73,-403.47 2247.3,-391.26 2266.66,-382.01"/>
<polygon fill="#63b8ff" stroke="#63b8ff" points="2198.92,-410.49 2191.41,-417.95 2201.94,-416.8 2198.92,-410.49"/>
</a>
</g>
</g>
<!-- Node31 -->
<g id="Node000031" class="node">
<title>Node31</title>
<g id="a_Node000031"><a xlink:href="../../de/d1d/result__set_8hpp.html" target="_top" xlink:title="Result accessors.">
<polygon fill="white" stroke="#666666" points="2456.5,-310.5 2313.5,-310.5 2313.5,-280.5 2456.5,-280.5 2456.5,-310.5"/>
<text text-anchor="start" x="2321.5" y="-298.5" font-family="Helvetica,sans-Serif" font-size="10.00">userver/storages/postgres</text>
<text text-anchor="middle" x="2385" y="-287.5" font-family="Helvetica,sans-Serif" font-size="10.00">/result_set.hpp</text>
</a>
</g>
</g>
<!-- Node30&#45;&gt;Node31 -->
<g id="edge32_Node000030_Node000031" class="edge">
<title>Node30&#45;&gt;Node31</title>
<g id="a_edge32_Node000030_Node000031"><a xlink:title=" ">
<path fill="none" stroke="#63b8ff" d="M2322.09,-345.63C2336.53,-334.35 2354.11,-320.62 2367.02,-310.54"/>
<polygon fill="#63b8ff" stroke="#63b8ff" points="2319.74,-343.02 2314.01,-351.94 2324.05,-348.54 2319.74,-343.02"/>
</a>
</g>
</g>
<!-- Node32 -->
<g id="Node000032" class="node">
<title>Node32</title>
<g id="a_Node000032"><a xlink:href="../../d2/de3/portal_8hpp_source.html" target="_top" xlink:title=" ">
<polygon fill="white" stroke="#666666" points="2575.5,-233.5 2432.5,-233.5 2432.5,-203.5 2575.5,-203.5 2575.5,-233.5"/>
<text text-anchor="start" x="2440.5" y="-221.5" font-family="Helvetica,sans-Serif" font-size="10.00">userver/storages/postgres</text>
<text text-anchor="middle" x="2504" y="-210.5" font-family="Helvetica,sans-Serif" font-size="10.00">/portal.hpp</text>
</a>
</g>
</g>
<!-- Node31&#45;&gt;Node32 -->
<g id="edge33_Node000031_Node000032" class="edge">
<title>Node31&#45;&gt;Node32</title>
<g id="a_edge33_Node000031_Node000032"><a xlink:title=" ">
<path fill="none" stroke="#63b8ff" d="M2416.09,-274.9C2436.69,-261.93 2463.21,-245.21 2481.72,-233.54"/>
<polygon fill="#63b8ff" stroke="#63b8ff" points="2413.98,-272.1 2407.38,-280.39 2417.71,-278.02 2413.98,-272.1"/>
</a>
</g>
</g>
<!-- Node33 -->
<g id="Node000033" class="node">
<title>Node33</title>
<g id="a_Node000033"><a xlink:href="../../da/deb/postgresql_2include_2userver_2storages_2postgres_2transaction_8hpp.html" target="_top" xlink:title="Transactions.">
<polygon fill="white" stroke="#666666" points="2537.5,-162 2394.5,-162 2394.5,-132 2537.5,-132 2537.5,-162"/>
<text text-anchor="start" x="2402.5" y="-150" font-family="Helvetica,sans-Serif" font-size="10.00">userver/storages/postgres</text>
<text text-anchor="middle" x="2466" y="-139" font-family="Helvetica,sans-Serif" font-size="10.00">/transaction.hpp</text>
</a>
</g>
</g>
<!-- Node31&#45;&gt;Node33 -->
<g id="edge42_Node000031_Node000033" class="edge">
<title>Node31&#45;&gt;Node33</title>
<g id="a_edge42_Node000031_Node000033"><a xlink:title=" ">
<path fill="none" stroke="#63b8ff" d="M2391.88,-270.76C2398.3,-250.57 2408.98,-221.24 2423,-198 2430.92,-184.86 2442.33,-171.78 2451.41,-162.29"/>
<polygon fill="#63b8ff" stroke="#63b8ff" points="2388.51,-269.81 2388.92,-280.4 2395.2,-271.87 2388.51,-269.81"/>
</a>
</g>
</g>
<!-- Node36 -->
<g id="Node000036" class="node">
<title>Node36</title>
<g id="a_Node000036"><a xlink:href="../../df/d02/postgres_8hpp.html" target="_top" xlink:title=" ">
<polygon fill="white" stroke="#666666" points="2456.5,-30 2313.5,-30 2313.5,0 2456.5,0 2456.5,-30"/>
<text text-anchor="start" x="2321.5" y="-18" font-family="Helvetica,sans-Serif" font-size="10.00">userver/storages/postgres</text>
<text text-anchor="middle" x="2385" y="-7" font-family="Helvetica,sans-Serif" font-size="10.00">/postgres.hpp</text>
</a>
</g>
</g>
<!-- Node31&#45;&gt;Node36 -->
<g id="edge39_Node000031_Node000036" class="edge">
<title>Node31&#45;&gt;Node36</title>
<g id="a_edge39_Node000031_Node000036"><a xlink:title=" ">
<path fill="none" stroke="#63b8ff" d="M2385,-270.15C2385,-213.62 2385,-74.91 2385,-30.17"/>
<polygon fill="#63b8ff" stroke="#63b8ff" points="2381.5,-270.31 2385,-280.31 2388.5,-270.31 2381.5,-270.31"/>
</a>
</g>
</g>
<!-- Node37 -->
<g id="Node000037" class="node">
<title>Node37</title>
<g id="a_Node000037"><a xlink:href="../../d8/d63/query__queue_8hpp.html" target="_top" xlink:title="An utility to execute multiple queries in a single network round&#45;trip.">
<polygon fill="white" stroke="#666666" points="2698.5,-162 2555.5,-162 2555.5,-132 2698.5,-132 2698.5,-162"/>
<text text-anchor="start" x="2563.5" y="-150" font-family="Helvetica,sans-Serif" font-size="10.00">userver/storages/postgres</text>
<text text-anchor="middle" x="2627" y="-139" font-family="Helvetica,sans-Serif" font-size="10.00">/query_queue.hpp</text>
</a>
</g>
</g>
<!-- Node31&#45;&gt;Node37 -->
<g id="edge40_Node000031_Node000037" class="edge">
<title>Node31&#45;&gt;Node37</title>
<g id="a_edge40_Node000031_Node000037"><a xlink:title=" ">
<path fill="none" stroke="#63b8ff" d="M2466.62,-287.84C2506.17,-280.92 2552.1,-266.97 2585,-239 2608.73,-218.83 2619.81,-182.37 2624.33,-162.27"/>
<polygon fill="#63b8ff" stroke="#63b8ff" points="2466.03,-284.39 2456.72,-289.45 2467.15,-291.3 2466.03,-284.39"/>
</a>
</g>
</g>
<!-- Node38 -->
<g id="Node000038" class="node">
<title>Node38</title>
<g id="a_Node000038"><a xlink:href="../../d1/dee/typed__result__set_8hpp.html" target="_top" xlink:title="Typed PostgreSQL results.">
<polygon fill="white" stroke="#666666" points="2337.5,-233.5 2194.5,-233.5 2194.5,-203.5 2337.5,-203.5 2337.5,-233.5"/>
<text text-anchor="start" x="2202.5" y="-221.5" font-family="Helvetica,sans-Serif" font-size="10.00">userver/storages/postgres</text>
<text text-anchor="middle" x="2266" y="-210.5" font-family="Helvetica,sans-Serif" font-size="10.00">/typed_result_set.hpp</text>
</a>
</g>
</g>
<!-- Node31&#45;&gt;Node38 -->
<g id="edge43_Node000031_Node000038" class="edge">
<title>Node31&#45;&gt;Node38</title>
<g id="a_edge43_Node000031_Node000038"><a xlink:title=" ">
<path fill="none" stroke="#63b8ff" d="M2348.48,-275.25C2326.62,-262.23 2299.97,-245.31 2282.88,-233.54"/>
<polygon fill="#63b8ff" stroke="#63b8ff" points="2346.81,-278.33 2357.21,-280.39 2350.37,-272.3 2346.81,-278.33"/>
</a>
</g>
</g>
<!-- Node32&#45;&gt;Node33 -->
<g id="edge34_Node000032_Node000033" class="edge">
<title>Node32&#45;&gt;Node33</title>
<g id="a_edge34_Node000032_Node000033"><a xlink:title=" ">
<path fill="none" stroke="#63b8ff" d="M2491.46,-194.56C2485.58,-183.82 2478.78,-171.36 2473.68,-162.04"/>
<polygon fill="#63b8ff" stroke="#63b8ff" points="2488.44,-196.34 2496.31,-203.44 2494.58,-192.98 2488.44,-196.34"/>
</a>
</g>
</g>
<!-- Node34 -->
<g id="Node000034" class="node">
<title>Node34</title>
<g id="a_Node000034"><a xlink:href="../../de/dd3/postgresql_2include_2userver_2storages_2postgres_2cluster_8hpp.html" target="_top" xlink:title="Interface for executing queries on a cluster of PostgreSQL servers.">
<polygon fill="white" stroke="#666666" points="2597.5,-96 2454.5,-96 2454.5,-66 2597.5,-66 2597.5,-96"/>
<text text-anchor="start" x="2462.5" y="-84" font-family="Helvetica,sans-Serif" font-size="10.00">userver/storages/postgres</text>
<text text-anchor="middle" x="2526" y="-73" font-family="Helvetica,sans-Serif" font-size="10.00">/cluster.hpp</text>
</a>
</g>
</g>
<!-- Node33&#45;&gt;Node34 -->
<g id="edge35_Node000033_Node000034" class="edge">
<title>Node33&#45;&gt;Node34</title>
<g id="a_edge35_Node000033_Node000034"><a xlink:title=" ">
<path fill="none" stroke="#63b8ff" d="M2486.28,-124.37C2495.01,-115.06 2504.96,-104.44 2512.72,-96.16"/>
<polygon fill="#63b8ff" stroke="#63b8ff" points="2483.6,-122.11 2479.32,-131.8 2488.71,-126.89 2483.6,-122.11"/>
</a>
</g>
</g>
<!-- Node33&#45;&gt;Node36 -->
<g id="edge38_Node000033_Node000036" class="edge">
<title>Node33&#45;&gt;Node36</title>
<g id="a_edge38_Node000033_Node000036"><a xlink:title=" ">
<path fill="none" stroke="#63b8ff" d="M2451.73,-123.1C2434.99,-96.23 2407.74,-52.5 2393.81,-30.14"/>
<polygon fill="#63b8ff" stroke="#63b8ff" points="2448.92,-125.2 2457.18,-131.84 2454.86,-121.5 2448.92,-125.2"/>
</a>
</g>
</g>
<!-- Node35 -->
<g id="Node000035" class="node">
<title>Node35</title>
<g id="a_Node000035"><a xlink:href="../../dc/df7/base__postgres__cache_8hpp.html" target="_top" xlink:title="Caching component for PostgreSQL. See Caching Component for PostgreSQL.">
<polygon fill="white" stroke="#666666" points="2593.5,-30 2474.5,-30 2474.5,0 2593.5,0 2593.5,-30"/>
<text text-anchor="start" x="2482.5" y="-18" font-family="Helvetica,sans-Serif" font-size="10.00">userver/cache/base</text>
<text text-anchor="middle" x="2534" y="-7" font-family="Helvetica,sans-Serif" font-size="10.00">_postgres_cache.hpp</text>
</a>
</g>
</g>
<!-- Node34&#45;&gt;Node35 -->
<g id="edge36_Node000034_Node000035" class="edge">
<title>Node34&#45;&gt;Node35</title>
<g id="a_edge36_Node000034_Node000035"><a xlink:title=" ">
<path fill="none" stroke="#63b8ff" d="M2529.02,-55.83C2530.1,-47.17 2531.29,-37.7 2532.23,-30.16"/>
<polygon fill="#63b8ff" stroke="#63b8ff" points="2525.54,-55.44 2527.78,-65.8 2532.49,-56.31 2525.54,-55.44"/>
</a>
</g>
</g>
<!-- Node34&#45;&gt;Node36 -->
<g id="edge37_Node000034_Node000036" class="edge">
<title>Node34&#45;&gt;Node36</title>
<g id="a_edge37_Node000034_Node000036"><a xlink:title=" ">
<path fill="none" stroke="#63b8ff" d="M2485.87,-61.78C2463.64,-51.69 2436.43,-39.34 2415.87,-30.01"/>
<polygon fill="#63b8ff" stroke="#63b8ff" points="2484.5,-65.01 2495.06,-65.95 2487.4,-58.63 2484.5,-65.01"/>
</a>
</g>
</g>
<!-- Node37&#45;&gt;Node34 -->
<g id="edge41_Node000037_Node000034" class="edge">
<title>Node37&#45;&gt;Node34</title>
<g id="a_edge41_Node000037_Node000034"><a xlink:title=" ">
<path fill="none" stroke="#63b8ff" d="M2595.91,-126.3C2580.54,-116.56 2562.33,-105.02 2548.35,-96.16"/>
<polygon fill="#63b8ff" stroke="#63b8ff" points="2594.26,-129.4 2604.58,-131.8 2598.01,-123.49 2594.26,-129.4"/>
</a>
</g>
</g>
<!-- Node38&#45;&gt;Node31 -->
<g id="edge44_Node000038_Node000031" class="edge">
<title>Node38&#45;&gt;Node31</title>
<g id="a_edge44_Node000038_Node000031"><a xlink:title=" ">
<path fill="none" stroke="#63b8ff" d="M2302.4,-238.68C2324.25,-251.69 2350.9,-268.61 2368.03,-280.39"/>
<polygon fill="#63b8ff" stroke="#63b8ff" points="2304.08,-235.6 2293.69,-233.54 2300.53,-241.63 2304.08,-235.6"/>
</a>
</g>
</g>
</g>
</svg>
