<?xml version="1.0" encoding="UTF-8" standalone="no"?>
<!DOCTYPE svg PUBLIC "-//W3C//DTD SVG 1.1//EN"
 "http://www.w3.org/Graphics/SVG/1.1/DTD/svg11.dtd">
<!-- Generated by graphviz version 2.43.0 (0)
 -->
<!-- Title: storages::secdist::SecdistProvider Pages: 1 -->
<svg width="286pt" height="104pt"
 viewBox="0.00 0.00 285.50 104.00" xmlns="http://www.w3.org/2000/svg" xmlns:xlink="http://www.w3.org/1999/xlink">
<g id="graph0" class="graph" transform="scale(1 1) rotate(0) translate(4 100)">
<title>storages::secdist::SecdistProvider</title>
<!-- Node1 -->
<g id="Node000001" class="node">
<title>Node1</title>
<g id="a_Node000001"><a xlink:title=" ">
<polygon fill="#999999" stroke="#666666" points="203.5,-96 98.5,-96 98.5,-66 203.5,-66 203.5,-96"/>
<text text-anchor="start" x="106.5" y="-84" font-family="Helvetica,sans-Serif" font-size="10.00">storages::secdist::</text>
<text text-anchor="middle" x="151" y="-73" font-family="Helvetica,sans-Serif" font-size="10.00">SecdistProvider</text>
</a>
</g>
</g>
<!-- Node2 -->
<g id="Node000002" class="node">
<title>Node2</title>
<g id="a_Node000002"><a xlink:href="../../de/d65/classcomponents_1_1DefaultSecdistProvider.html" target="_top" xlink:title="Component that stores security related data (keys, passwords, ...).">
<polygon fill="white" stroke="#666666" points="154,-30 0,-30 0,0 154,0 154,-30"/>
<text text-anchor="start" x="8" y="-18" font-family="Helvetica,sans-Serif" font-size="10.00">components::DefaultSecdist</text>
<text text-anchor="middle" x="77" y="-7" font-family="Helvetica,sans-Serif" font-size="10.00">Provider</text>
</a>
</g>
</g>
<!-- Node1&#45;&gt;Node2 -->
<g id="edge1_Node000001_Node000002" class="edge">
<title>Node1&#45;&gt;Node2</title>
<g id="a_edge1_Node000001_Node000002"><a xlink:title=" ">
<path fill="none" stroke="#63b8ff" d="M126.95,-59.2C115.97,-49.7 103.24,-38.69 93.38,-30.16"/>
<polygon fill="#63b8ff" stroke="#63b8ff" points="124.72,-61.9 134.58,-65.8 129.3,-56.61 124.72,-61.9"/>
</a>
</g>
</g>
<!-- Node3 -->
<g id="Node000003" class="node">
<title>Node3</title>
<g id="a_Node000003"><a xlink:href="../../d6/d12/classstorages_1_1secdist_1_1DefaultLoader.html" target="_top" xlink:title=" ">
<polygon fill="white" stroke="#bfbfbf" points="277.5,-30 172.5,-30 172.5,0 277.5,0 277.5,-30"/>
<text text-anchor="start" x="180.5" y="-18" font-family="Helvetica,sans-Serif" font-size="10.00">storages::secdist::</text>
<text text-anchor="middle" x="225" y="-7" font-family="Helvetica,sans-Serif" font-size="10.00">DefaultLoader</text>
</a>
</g>
</g>
<!-- Node1&#45;&gt;Node3 -->
<g id="edge2_Node000001_Node000003" class="edge">
<title>Node1&#45;&gt;Node3</title>
<g id="a_edge2_Node000001_Node000003"><a xlink:title=" ">
<path fill="none" stroke="#63b8ff" d="M175.05,-59.2C186.03,-49.7 198.76,-38.69 208.62,-30.16"/>
<polygon fill="#63b8ff" stroke="#63b8ff" points="172.7,-56.61 167.42,-65.8 177.28,-61.9 172.7,-56.61"/>
</a>
</g>
</g>
</g>
</svg>
