<?xml version="1.0" encoding="UTF-8" standalone="no"?>
<!DOCTYPE svg PUBLIC "-//W3C//DTD SVG 1.1//EN"
 "http://www.w3.org/Graphics/SVG/1.1/DTD/svg11.dtd">
<!-- Generated by graphviz version 2.43.0 (0)
 -->
<!-- Title: decimal64::DecimalError Pages: 1 -->
<svg width="477pt" height="203pt"
 viewBox="0.00 0.00 477.00 203.00" xmlns="http://www.w3.org/2000/svg" xmlns:xlink="http://www.w3.org/1999/xlink">
<g id="graph0" class="graph" transform="scale(1 1) rotate(0) translate(4 199)">
<title>decimal64::DecimalError</title>
<!-- Node1 -->
<g id="Node000001" class="node">
<title>Node1</title>
<g id="a_Node000001"><a xlink:title="The base class for Decimal&#45;related exceptions.">
<polygon fill="#999999" stroke="#666666" points="316,-85 179,-85 179,-66 316,-66 316,-85"/>
<text text-anchor="middle" x="247.5" y="-73" font-family="Helvetica,sans-Serif" font-size="10.00">decimal64::DecimalError</text>
</a>
</g>
</g>
<!-- Node4 -->
<g id="Node000004" class="node">
<title>Node4</title>
<g id="a_Node000004"><a xlink:href="../../da/da6/classdecimal64_1_1DivisionByZeroError.html" target="_top" xlink:title="Thrown on division by zero in Decimal arithmetic.">
<polygon fill="white" stroke="#666666" points="149,-30 0,-30 0,0 149,0 149,-30"/>
<text text-anchor="start" x="8" y="-18" font-family="Helvetica,sans-Serif" font-size="10.00">decimal64::DivisionByZero</text>
<text text-anchor="middle" x="74.5" y="-7" font-family="Helvetica,sans-Serif" font-size="10.00">Error</text>
</a>
</g>
</g>
<!-- Node1&#45;&gt;Node4 -->
<g id="edge3_Node000001_Node000004" class="edge">
<title>Node1&#45;&gt;Node4</title>
<g id="a_edge3_Node000001_Node000004"><a xlink:title=" ">
<path fill="none" stroke="#63b8ff" d="M212.62,-62.71C184.75,-53.28 145.6,-40.04 116.09,-30.06"/>
<polygon fill="#63b8ff" stroke="#63b8ff" points="211.75,-66.11 222.34,-65.99 213.99,-59.47 211.75,-66.11"/>
</a>
</g>
</g>
<!-- Node5 -->
<g id="Node000005" class="node">
<title>Node5</title>
<g id="a_Node000005"><a xlink:href="../../d2/db9/classdecimal64_1_1OutOfBoundsError.html" target="_top" xlink:title="Thrown on overflow in Decimal arithmetic.">
<polygon fill="white" stroke="#666666" points="328,-24.5 167,-24.5 167,-5.5 328,-5.5 328,-24.5"/>
<text text-anchor="middle" x="247.5" y="-12.5" font-family="Helvetica,sans-Serif" font-size="10.00">decimal64::OutOfBoundsError</text>
</a>
</g>
</g>
<!-- Node1&#45;&gt;Node5 -->
<g id="edge4_Node000001_Node000005" class="edge">
<title>Node1&#45;&gt;Node5</title>
<g id="a_edge4_Node000001_Node000005"><a xlink:title=" ">
<path fill="none" stroke="#63b8ff" d="M247.5,-55.66C247.5,-45.24 247.5,-32.8 247.5,-24.67"/>
<polygon fill="#63b8ff" stroke="#63b8ff" points="244,-55.87 247.5,-65.87 251,-55.87 244,-55.87"/>
</a>
</g>
</g>
<!-- Node6 -->
<g id="Node000006" class="node">
<title>Node6</title>
<g id="a_Node000006"><a xlink:href="../../da/d3e/classdecimal64_1_1ParseError.html" target="_top" xlink:title="Thrown on all errors related to parsing Decimal from string.">
<polygon fill="white" stroke="#666666" points="469,-24.5 346,-24.5 346,-5.5 469,-5.5 469,-24.5"/>
<text text-anchor="middle" x="407.5" y="-12.5" font-family="Helvetica,sans-Serif" font-size="10.00">decimal64::ParseError</text>
</a>
</g>
</g>
<!-- Node1&#45;&gt;Node6 -->
<g id="edge5_Node000001_Node000006" class="edge">
<title>Node1&#45;&gt;Node6</title>
<g id="a_edge5_Node000001_Node000006"><a xlink:title=" ">
<path fill="none" stroke="#63b8ff" d="M280.25,-62.52C311.19,-51.21 356.82,-34.53 384.21,-24.52"/>
<polygon fill="#63b8ff" stroke="#63b8ff" points="278.96,-59.27 270.77,-65.99 281.36,-65.85 278.96,-59.27"/>
</a>
</g>
</g>
<!-- Node2 -->
<g id="Node000002" class="node">
<title>Node2</title>
<g id="a_Node000002"><a xlink:title=" ">
<polygon fill="white" stroke="#666666" points="299.5,-140 195.5,-140 195.5,-121 299.5,-121 299.5,-140"/>
<text text-anchor="middle" x="247.5" y="-128" font-family="Helvetica,sans-Serif" font-size="10.00">std::runtime_error</text>
</a>
</g>
</g>
<!-- Node2&#45;&gt;Node1 -->
<g id="edge1_Node000001_Node000002" class="edge">
<title>Node2&#45;&gt;Node1</title>
<g id="a_edge1_Node000001_Node000002"><a xlink:title=" ">
<path fill="none" stroke="#63b8ff" d="M247.5,-110.66C247.5,-101.93 247.5,-91.99 247.5,-85.09"/>
<polygon fill="#63b8ff" stroke="#63b8ff" points="244,-110.75 247.5,-120.75 251,-110.75 244,-110.75"/>
</a>
</g>
</g>
<!-- Node3 -->
<g id="Node000003" class="node">
<title>Node3</title>
<g id="a_Node000003"><a xlink:title=" ">
<polygon fill="white" stroke="#666666" points="290.5,-195 204.5,-195 204.5,-176 290.5,-176 290.5,-195"/>
<text text-anchor="middle" x="247.5" y="-183" font-family="Helvetica,sans-Serif" font-size="10.00">std::exception</text>
</a>
</g>
</g>
<!-- Node3&#45;&gt;Node2 -->
<g id="edge2_Node000002_Node000003" class="edge">
<title>Node3&#45;&gt;Node2</title>
<g id="a_edge2_Node000002_Node000003"><a xlink:title=" ">
<path fill="none" stroke="#63b8ff" d="M247.5,-165.66C247.5,-156.93 247.5,-146.99 247.5,-140.09"/>
<polygon fill="#63b8ff" stroke="#63b8ff" points="244,-165.75 247.5,-175.75 251,-165.75 244,-165.75"/>
</a>
</g>
</g>
</g>
</svg>
