<?xml version="1.0" encoding="UTF-8" standalone="no"?>
<!DOCTYPE svg PUBLIC "-//W3C//DTD SVG 1.1//EN"
 "http://www.w3.org/Graphics/SVG/1.1/DTD/svg11.dtd">
<!-- Generated by graphviz version 2.43.0 (0)
 -->
<!-- Title: userver/urabbitmq/typedefs.hpp Pages: 1 -->
<svg width="1330pt" height="346pt"
 viewBox="0.00 0.00 1329.50 346.00" xmlns="http://www.w3.org/2000/svg" xmlns:xlink="http://www.w3.org/1999/xlink">
<g id="graph0" class="graph" transform="scale(1 1) rotate(0) translate(4 342)">
<title>userver/urabbitmq/typedefs.hpp</title>
<!-- Node1 -->
<g id="Node000001" class="node">
<title>Node1</title>
<g id="a_Node000001"><a xlink:title="Convenient typedefs for RabbitMQ entities.">
<polygon fill="#999999" stroke="#666666" points="826,-338 653,-338 653,-319 826,-319 826,-338"/>
<text text-anchor="middle" x="739.5" y="-326" font-family="Helvetica,sans-Serif" font-size="10.00">userver/urabbitmq/typedefs.hpp</text>
</a>
</g>
</g>
<!-- Node2 -->
<g id="Node000002" class="node">
<title>Node2</title>
<g id="a_Node000002"><a xlink:href="../../d5/dfe/universal_2include_2userver_2utils_2strong__typedef_8hpp.html" target="_top" xlink:title="Strong typedef for a type T.">
<polygon fill="white" stroke="#666666" points="795,-283 684,-283 684,-253 795,-253 795,-283"/>
<text text-anchor="start" x="692" y="-271" font-family="Helvetica,sans-Serif" font-size="10.00">userver/utils/strong</text>
<text text-anchor="middle" x="739.5" y="-260" font-family="Helvetica,sans-Serif" font-size="10.00">_typedef.hpp</text>
</a>
</g>
</g>
<!-- Node1&#45;&gt;Node2 -->
<g id="edge1_Node000001_Node000002" class="edge">
<title>Node1&#45;&gt;Node2</title>
<g id="a_edge1_Node000001_Node000002"><a xlink:title=" ">
<path fill="none" stroke="#63b8ff" d="M739.5,-318.87C739.5,-312.11 739.5,-302.35 739.5,-293.26"/>
<polygon fill="#63b8ff" stroke="#63b8ff" points="743,-293.11 739.5,-283.11 736,-293.11 743,-293.11"/>
</a>
</g>
</g>
<!-- Node3 -->
<g id="Node000003" class="node">
<title>Node3</title>
<g id="a_Node000003"><a xlink:title=" ">
<polygon fill="#e0e0e0" stroke="#999999" points="65,-211.5 0,-211.5 0,-192.5 65,-192.5 65,-211.5"/>
<text text-anchor="middle" x="32.5" y="-199.5" font-family="Helvetica,sans-Serif" font-size="10.00">functional</text>
</a>
</g>
</g>
<!-- Node2&#45;&gt;Node3 -->
<g id="edge2_Node000002_Node000003" class="edge">
<title>Node2&#45;&gt;Node3</title>
<g id="a_edge2_Node000002_Node000003"><a xlink:title=" ">
<path fill="none" stroke="#63b8ff" d="M683.79,-266.78C569.51,-265.46 300.7,-257.84 79.5,-217 75.56,-216.27 71.49,-215.34 67.45,-214.3"/>
<polygon fill="#63b8ff" stroke="#63b8ff" points="68.2,-210.88 57.63,-211.56 66.32,-217.62 68.2,-210.88"/>
</a>
</g>
</g>
<!-- Node4 -->
<g id="Node000004" class="node">
<title>Node4</title>
<g id="a_Node000004"><a xlink:title=" ">
<polygon fill="#e0e0e0" stroke="#999999" points="671.5,-145.5 623.5,-145.5 623.5,-126.5 671.5,-126.5 671.5,-145.5"/>
<text text-anchor="middle" x="647.5" y="-133.5" font-family="Helvetica,sans-Serif" font-size="10.00">iosfwd</text>
</a>
</g>
</g>
<!-- Node2&#45;&gt;Node4 -->
<g id="edge3_Node000002_Node000004" class="edge">
<title>Node2&#45;&gt;Node4</title>
<g id="a_edge3_Node000002_Node000004"><a xlink:title=" ">
<path fill="none" stroke="#63b8ff" d="M709.16,-252.94C694.18,-244.53 677.11,-232.45 666.5,-217 653.96,-198.74 649.64,-173.22 648.18,-155.95"/>
<polygon fill="#63b8ff" stroke="#63b8ff" points="651.65,-155.28 647.57,-145.51 644.66,-155.7 651.65,-155.28"/>
</a>
</g>
</g>
<!-- Node5 -->
<g id="Node000005" class="node">
<title>Node5</title>
<g id="a_Node000005"><a xlink:title=" ">
<polygon fill="#e0e0e0" stroke="#999999" points="547,-19 478,-19 478,0 547,0 547,-19"/>
<text text-anchor="middle" x="512.5" y="-7" font-family="Helvetica,sans-Serif" font-size="10.00">type_traits</text>
</a>
</g>
</g>
<!-- Node2&#45;&gt;Node5 -->
<g id="edge4_Node000002_Node000005" class="edge">
<title>Node2&#45;&gt;Node5</title>
<g id="a_edge4_Node000002_Node000005"><a xlink:title=" ">
<path fill="none" stroke="#63b8ff" d="M683.81,-266.12C542.73,-262.52 177.84,-244.19 112.5,-151 24.33,-25.24 345.66,-11.15 467.49,-10.24"/>
<polygon fill="#63b8ff" stroke="#63b8ff" points="467.64,-13.74 477.62,-10.19 467.61,-6.74 467.64,-13.74"/>
</a>
</g>
</g>
<!-- Node6 -->
<g id="Node000006" class="node">
<title>Node6</title>
<g id="a_Node000006"><a xlink:title=" ">
<polygon fill="#e0e0e0" stroke="#999999" points="905,-211.5 860,-211.5 860,-192.5 905,-192.5 905,-211.5"/>
<text text-anchor="middle" x="882.5" y="-199.5" font-family="Helvetica,sans-Serif" font-size="10.00">utility</text>
</a>
</g>
</g>
<!-- Node2&#45;&gt;Node6 -->
<g id="edge5_Node000002_Node000006" class="edge">
<title>Node2&#45;&gt;Node6</title>
<g id="a_edge5_Node000002_Node000006"><a xlink:title=" ">
<path fill="none" stroke="#63b8ff" d="M770.88,-252.95C795.74,-241.83 830.16,-226.42 854.18,-215.67"/>
<polygon fill="#63b8ff" stroke="#63b8ff" points="855.77,-218.8 863.47,-211.52 852.91,-212.41 855.77,-218.8"/>
</a>
</g>
</g>
<!-- Node7 -->
<g id="Node000007" class="node">
<title>Node7</title>
<g id="a_Node000007"><a xlink:title=" ">
<polygon fill="#e0e0e0" stroke="#999999" points="1002,-211.5 923,-211.5 923,-192.5 1002,-192.5 1002,-211.5"/>
<text text-anchor="middle" x="962.5" y="-199.5" font-family="Helvetica,sans-Serif" font-size="10.00">fmt/format.h</text>
</a>
</g>
</g>
<!-- Node2&#45;&gt;Node7 -->
<g id="edge6_Node000002_Node000007" class="edge">
<title>Node2&#45;&gt;Node7</title>
<g id="a_edge6_Node000002_Node000007"><a xlink:title=" ">
<path fill="none" stroke="#63b8ff" d="M788.93,-252.96C823.99,-242.97 872.15,-229.23 914.5,-217 917.45,-216.15 920.5,-215.27 923.57,-214.38"/>
<polygon fill="#63b8ff" stroke="#63b8ff" points="924.69,-217.69 933.32,-211.54 922.74,-210.97 924.69,-217.69"/>
</a>
</g>
</g>
<!-- Node8 -->
<g id="Node000008" class="node">
<title>Node8</title>
<g id="a_Node000008"><a xlink:href="../../d3/d6c/fmt__compat_8hpp_source.html" target="_top" xlink:title=" ">
<polygon fill="white" stroke="#666666" points="1181,-211.5 1020,-211.5 1020,-192.5 1181,-192.5 1181,-211.5"/>
<text text-anchor="middle" x="1100.5" y="-199.5" font-family="Helvetica,sans-Serif" font-size="10.00">userver/utils/fmt_compat.hpp</text>
</a>
</g>
</g>
<!-- Node2&#45;&gt;Node8 -->
<g id="edge7_Node000002_Node000008" class="edge">
<title>Node2&#45;&gt;Node8</title>
<g id="a_edge7_Node000002_Node000008"><a xlink:title=" ">
<path fill="none" stroke="#63b8ff" d="M795.12,-257.14C862.09,-245.27 974.05,-225.42 1042.2,-213.34"/>
<polygon fill="#63b8ff" stroke="#63b8ff" points="1043.1,-216.73 1052.33,-211.54 1041.88,-209.84 1043.1,-216.73"/>
</a>
</g>
</g>
<!-- Node10 -->
<g id="Node000010" class="node">
<title>Node10</title>
<g id="a_Node000010"><a xlink:title=" ">
<polygon fill="#e0e0e0" stroke="#999999" points="1321.5,-217 1199.5,-217 1199.5,-187 1321.5,-187 1321.5,-217"/>
<text text-anchor="start" x="1207.5" y="-205" font-family="Helvetica,sans-Serif" font-size="10.00">boost/functional/hash</text>
<text text-anchor="middle" x="1260.5" y="-194" font-family="Helvetica,sans-Serif" font-size="10.00">_fwd.hpp</text>
</a>
</g>
</g>
<!-- Node2&#45;&gt;Node10 -->
<g id="edge9_Node000002_Node000010" class="edge">
<title>Node2&#45;&gt;Node10</title>
<g id="a_edge9_Node000002_Node000010"><a xlink:title=" ">
<path fill="none" stroke="#63b8ff" d="M795.25,-262.39C878.72,-255.14 1041.31,-239.69 1189.3,-217.1"/>
<polygon fill="#63b8ff" stroke="#63b8ff" points="1190.12,-220.51 1199.47,-215.53 1189.06,-213.59 1190.12,-220.51"/>
</a>
</g>
</g>
<!-- Node11 -->
<g id="Node000011" class="node">
<title>Node11</title>
<g id="a_Node000011"><a xlink:href="../../da/d00/universal_2include_2userver_2formats_2common_2meta_8hpp.html" target="_top" xlink:title="Metaprogramming helpers for converters detection.">
<polygon fill="white" stroke="#666666" points="443.5,-217 303.5,-217 303.5,-187 443.5,-187 443.5,-217"/>
<text text-anchor="start" x="311.5" y="-205" font-family="Helvetica,sans-Serif" font-size="10.00">userver/formats/common</text>
<text text-anchor="middle" x="373.5" y="-194" font-family="Helvetica,sans-Serif" font-size="10.00">/meta.hpp</text>
</a>
</g>
</g>
<!-- Node2&#45;&gt;Node11 -->
<g id="edge10_Node000002_Node000011" class="edge">
<title>Node2&#45;&gt;Node11</title>
<g id="a_edge10_Node000002_Node000011"><a xlink:title=" ">
<path fill="none" stroke="#63b8ff" d="M683.91,-257.28C622.63,-246.56 523.52,-229.23 453.8,-217.04"/>
<polygon fill="#63b8ff" stroke="#63b8ff" points="454.19,-213.56 443.74,-215.28 452.99,-220.45 454.19,-213.56"/>
</a>
</g>
</g>
<!-- Node15 -->
<g id="Node000015" class="node">
<title>Node15</title>
<g id="a_Node000015"><a xlink:href="../../d9/dce/void__t_8hpp.html" target="_top" xlink:title="std::void_t implementation with workarounds for compiler bugs">
<polygon fill="white" stroke="#666666" points="524,-85 423,-85 423,-55 524,-55 524,-85"/>
<text text-anchor="start" x="431" y="-73" font-family="Helvetica,sans-Serif" font-size="10.00">userver/utils/void</text>
<text text-anchor="middle" x="473.5" y="-62" font-family="Helvetica,sans-Serif" font-size="10.00">_t.hpp</text>
</a>
</g>
</g>
<!-- Node2&#45;&gt;Node15 -->
<g id="edge27_Node000002_Node000015" class="edge">
<title>Node2&#45;&gt;Node15</title>
<g id="a_edge27_Node000002_Node000015"><a xlink:title=" ">
<path fill="none" stroke="#63b8ff" d="M683.95,-256.28C626.61,-242.22 538.9,-211.83 490.5,-151 478.03,-135.32 474.14,-112.63 473.16,-95.41"/>
<polygon fill="#63b8ff" stroke="#63b8ff" points="476.65,-94.92 472.88,-85.01 469.65,-95.11 476.65,-94.92"/>
</a>
</g>
</g>
<!-- Node16 -->
<g id="Node000016" class="node">
<title>Node16</title>
<g id="a_Node000016"><a xlink:href="../../d0/d03/universal_2include_2userver_2utils_2meta_8hpp.html" target="_top" xlink:title="Metaprogramming, template variables and concepts.">
<polygon fill="white" stroke="#666666" points="803,-211.5 676,-211.5 676,-192.5 803,-192.5 803,-211.5"/>
<text text-anchor="middle" x="739.5" y="-199.5" font-family="Helvetica,sans-Serif" font-size="10.00">userver/utils/meta.hpp</text>
</a>
</g>
</g>
<!-- Node2&#45;&gt;Node16 -->
<g id="edge18_Node000002_Node000016" class="edge">
<title>Node2&#45;&gt;Node16</title>
<g id="a_edge18_Node000002_Node000016"><a xlink:title=" ">
<path fill="none" stroke="#63b8ff" d="M739.5,-252.8C739.5,-243.7 739.5,-231.79 739.5,-221.9"/>
<polygon fill="#63b8ff" stroke="#63b8ff" points="743,-221.84 739.5,-211.84 736,-221.84 743,-221.84"/>
</a>
</g>
</g>
<!-- Node20 -->
<g id="Node000020" class="node">
<title>Node20</title>
<g id="a_Node000020"><a xlink:href="../../db/d12/underlying__value_8hpp.html" target="_top" xlink:title=" ">
<polygon fill="white" stroke="#666666" points="970.5,-85 838.5,-85 838.5,-55 970.5,-55 970.5,-85"/>
<text text-anchor="start" x="846.5" y="-73" font-family="Helvetica,sans-Serif" font-size="10.00">userver/utils/underlying</text>
<text text-anchor="middle" x="904.5" y="-62" font-family="Helvetica,sans-Serif" font-size="10.00">_value.hpp</text>
</a>
</g>
</g>
<!-- Node2&#45;&gt;Node20 -->
<g id="edge25_Node000002_Node000020" class="edge">
<title>Node2&#45;&gt;Node20</title>
<g id="a_edge25_Node000002_Node000020"><a xlink:title=" ">
<path fill="none" stroke="#63b8ff" d="M760.12,-252.97C774.6,-243.06 794.35,-229.38 811.5,-217 829.52,-203.99 832.39,-198.34 851.5,-187 884.68,-167.31 909.63,-183.45 930.5,-151 941.77,-133.49 932.41,-110.66 921.92,-93.88"/>
<polygon fill="#63b8ff" stroke="#63b8ff" points="924.59,-91.58 916.09,-85.25 918.79,-95.49 924.59,-91.58"/>
</a>
</g>
</g>
<!-- Node9 -->
<g id="Node000009" class="node">
<title>Node9</title>
<g id="a_Node000009"><a xlink:title=" ">
<polygon fill="#e0e0e0" stroke="#999999" points="1134,-145.5 1067,-145.5 1067,-126.5 1134,-126.5 1134,-145.5"/>
<text text-anchor="middle" x="1100.5" y="-133.5" font-family="Helvetica,sans-Serif" font-size="10.00">fmt/core.h</text>
</a>
</g>
</g>
<!-- Node8&#45;&gt;Node9 -->
<g id="edge8_Node000008_Node000009" class="edge">
<title>Node8&#45;&gt;Node9</title>
<g id="a_edge8_Node000008_Node000009"><a xlink:title=" ">
<path fill="none" stroke="#63b8ff" d="M1100.5,-192.37C1100.5,-183.16 1100.5,-168.29 1100.5,-156.27"/>
<polygon fill="#63b8ff" stroke="#63b8ff" points="1104,-155.91 1100.5,-145.91 1097,-155.91 1104,-155.91"/>
</a>
</g>
</g>
<!-- Node11&#45;&gt;Node5 -->
<g id="edge11_Node000011_Node000005" class="edge">
<title>Node11&#45;&gt;Node5</title>
<g id="a_edge11_Node000011_Node000005"><a xlink:title=" ">
<path fill="none" stroke="#63b8ff" d="M344.69,-186.84C331.05,-178.47 316.11,-166.45 308.5,-151 302.61,-139.04 302.05,-132.67 308.5,-121 341.12,-61.96 418.36,-32.88 467.88,-19.82"/>
<polygon fill="#63b8ff" stroke="#63b8ff" points="468.86,-23.19 477.7,-17.35 467.15,-16.4 468.86,-23.19"/>
</a>
</g>
</g>
<!-- Node12 -->
<g id="Node000012" class="node">
<title>Node12</title>
<g id="a_Node000012"><a xlink:href="../../d2/dc8/universal_2include_2userver_2formats_2parse_2to_8hpp.html" target="_top" xlink:title="Helper for parsers.">
<polygon fill="white" stroke="#666666" points="443,-151 318,-151 318,-121 443,-121 443,-151"/>
<text text-anchor="start" x="326" y="-139" font-family="Helvetica,sans-Serif" font-size="10.00">userver/formats/parse</text>
<text text-anchor="middle" x="380.5" y="-128" font-family="Helvetica,sans-Serif" font-size="10.00">/to.hpp</text>
</a>
</g>
</g>
<!-- Node11&#45;&gt;Node12 -->
<g id="edge12_Node000011_Node000012" class="edge">
<title>Node11&#45;&gt;Node12</title>
<g id="a_edge12_Node000011_Node000012"><a xlink:title=" ">
<path fill="none" stroke="#63b8ff" d="M375.05,-186.8C375.88,-179.26 376.91,-169.78 377.86,-161.13"/>
<polygon fill="#63b8ff" stroke="#63b8ff" points="381.34,-161.49 378.95,-151.16 374.38,-160.72 381.34,-161.49"/>
</a>
</g>
</g>
<!-- Node13 -->
<g id="Node000013" class="node">
<title>Node13</title>
<g id="a_Node000013"><a xlink:href="../../d6/d8e/universal_2include_2userver_2formats_2serialize_2to_8hpp.html" target="_top" xlink:title="Helper for serializers.">
<polygon fill="white" stroke="#666666" points="261,-151 122,-151 122,-121 261,-121 261,-151"/>
<text text-anchor="start" x="130" y="-139" font-family="Helvetica,sans-Serif" font-size="10.00">userver/formats/serialize</text>
<text text-anchor="middle" x="191.5" y="-128" font-family="Helvetica,sans-Serif" font-size="10.00">/to.hpp</text>
</a>
</g>
</g>
<!-- Node11&#45;&gt;Node13 -->
<g id="edge13_Node000011_Node000013" class="edge">
<title>Node11&#45;&gt;Node13</title>
<g id="a_edge13_Node000011_Node000013"><a xlink:title=" ">
<path fill="none" stroke="#63b8ff" d="M333.56,-186.95C306.3,-177.37 269.99,-164.6 240.91,-154.37"/>
<polygon fill="#63b8ff" stroke="#63b8ff" points="241.94,-151.03 231.35,-151.01 239.62,-157.63 241.94,-151.03"/>
</a>
</g>
</g>
<!-- Node14 -->
<g id="Node000014" class="node">
<title>Node14</title>
<g id="a_Node000014"><a xlink:href="../../d3/da0/meta__light_8hpp.html" target="_top" xlink:title="Lightweight concepts.">
<polygon fill="white" stroke="#666666" points="605.5,-151 499.5,-151 499.5,-121 605.5,-121 605.5,-151"/>
<text text-anchor="start" x="507.5" y="-139" font-family="Helvetica,sans-Serif" font-size="10.00">userver/utils/meta</text>
<text text-anchor="middle" x="552.5" y="-128" font-family="Helvetica,sans-Serif" font-size="10.00">_light.hpp</text>
</a>
</g>
</g>
<!-- Node11&#45;&gt;Node14 -->
<g id="edge14_Node000011_Node000014" class="edge">
<title>Node11&#45;&gt;Node14</title>
<g id="a_edge14_Node000011_Node000014"><a xlink:title=" ">
<path fill="none" stroke="#63b8ff" d="M412.78,-186.95C439.48,-177.41 474.99,-164.71 503.53,-154.51"/>
<polygon fill="#63b8ff" stroke="#63b8ff" points="505.07,-157.67 513.31,-151.01 502.71,-151.08 505.07,-157.67"/>
</a>
</g>
</g>
<!-- Node14&#45;&gt;Node5 -->
<g id="edge15_Node000014_Node000005" class="edge">
<title>Node14&#45;&gt;Node5</title>
<g id="a_edge15_Node000014_Node000005"><a xlink:title=" ">
<path fill="none" stroke="#63b8ff" d="M549.77,-120.91C546.46,-104.75 540.33,-77.59 532.5,-55 529.38,-46 525.14,-36.31 521.37,-28.28"/>
<polygon fill="#63b8ff" stroke="#63b8ff" points="524.46,-26.65 516.96,-19.18 518.16,-29.7 524.46,-26.65"/>
</a>
</g>
</g>
<!-- Node14&#45;&gt;Node15 -->
<g id="edge16_Node000014_Node000015" class="edge">
<title>Node14&#45;&gt;Node15</title>
<g id="a_edge16_Node000014_Node000015"><a xlink:title=" ">
<path fill="none" stroke="#63b8ff" d="M534.97,-120.8C524.33,-112.18 510.58,-101.04 498.78,-91.48"/>
<polygon fill="#63b8ff" stroke="#63b8ff" points="500.96,-88.74 490.98,-85.16 496.55,-94.18 500.96,-88.74"/>
</a>
</g>
</g>
<!-- Node15&#45;&gt;Node5 -->
<g id="edge17_Node000015_Node000005" class="edge">
<title>Node15&#45;&gt;Node5</title>
<g id="a_edge17_Node000015_Node000005"><a xlink:title=" ">
<path fill="none" stroke="#63b8ff" d="M482.94,-54.84C488.37,-46.69 495.23,-36.4 500.98,-27.78"/>
<polygon fill="#63b8ff" stroke="#63b8ff" points="504.02,-29.53 506.66,-19.27 498.2,-25.65 504.02,-29.53"/>
</a>
</g>
</g>
<!-- Node16&#45;&gt;Node4 -->
<g id="edge19_Node000016_Node000004" class="edge">
<title>Node16&#45;&gt;Node4</title>
<g id="a_edge19_Node000016_Node000004"><a xlink:title=" ">
<path fill="none" stroke="#63b8ff" d="M727.09,-192.37C712.14,-181.97 686.78,-164.32 668.7,-151.75"/>
<polygon fill="#63b8ff" stroke="#63b8ff" points="670.21,-148.54 660,-145.7 666.22,-154.28 670.21,-148.54"/>
</a>
</g>
</g>
<!-- Node16&#45;&gt;Node5 -->
<g id="edge22_Node000016_Node000005" class="edge">
<title>Node16&#45;&gt;Node5</title>
<g id="a_edge22_Node000016_Node000005"><a xlink:title=" ">
<path fill="none" stroke="#63b8ff" d="M743.21,-192.49C749.38,-176.95 759.72,-143.48 745.5,-121 704.16,-55.64 612.51,-28.17 557.28,-17.22"/>
<polygon fill="#63b8ff" stroke="#63b8ff" points="557.89,-13.77 547.41,-15.36 556.59,-20.65 557.89,-13.77"/>
</a>
</g>
</g>
<!-- Node16&#45;&gt;Node14 -->
<g id="edge24_Node000016_Node000014" class="edge">
<title>Node16&#45;&gt;Node14</title>
<g id="a_edge24_Node000016_Node000014"><a xlink:title=" ">
<path fill="none" stroke="#63b8ff" d="M714.28,-192.37C686.03,-182.7 639.5,-166.77 603.57,-154.48"/>
<polygon fill="#63b8ff" stroke="#63b8ff" points="604.34,-151.04 593.74,-151.12 602.07,-157.67 604.34,-151.04"/>
</a>
</g>
</g>
<!-- Node17 -->
<g id="Node000017" class="node">
<title>Node17</title>
<g id="a_Node000017"><a xlink:title=" ">
<polygon fill="#e0e0e0" stroke="#999999" points="847,-145.5 794,-145.5 794,-126.5 847,-126.5 847,-145.5"/>
<text text-anchor="middle" x="820.5" y="-133.5" font-family="Helvetica,sans-Serif" font-size="10.00">iterator</text>
</a>
</g>
</g>
<!-- Node16&#45;&gt;Node17 -->
<g id="edge20_Node000016_Node000017" class="edge">
<title>Node16&#45;&gt;Node17</title>
<g id="a_edge20_Node000016_Node000017"><a xlink:title=" ">
<path fill="none" stroke="#63b8ff" d="M750.42,-192.37C763.47,-182.06 785.51,-164.65 801.4,-152.09"/>
<polygon fill="#63b8ff" stroke="#63b8ff" points="803.81,-154.64 809.49,-145.7 799.47,-149.15 803.81,-154.64"/>
</a>
</g>
</g>
<!-- Node18 -->
<g id="Node000018" class="node">
<title>Node18</title>
<g id="a_Node000018"><a xlink:title=" ">
<polygon fill="#e0e0e0" stroke="#999999" points="921.5,-145.5 865.5,-145.5 865.5,-126.5 921.5,-126.5 921.5,-145.5"/>
<text text-anchor="middle" x="893.5" y="-133.5" font-family="Helvetica,sans-Serif" font-size="10.00">optional</text>
</a>
</g>
</g>
<!-- Node16&#45;&gt;Node18 -->
<g id="edge21_Node000016_Node000018" class="edge">
<title>Node16&#45;&gt;Node18</title>
<g id="a_edge21_Node000016_Node000018"><a xlink:title=" ">
<path fill="none" stroke="#63b8ff" d="M760.27,-192.37C786.79,-181.35 832.88,-162.19 863.29,-149.55"/>
<polygon fill="#63b8ff" stroke="#63b8ff" points="864.68,-152.77 872.57,-145.7 861.99,-146.3 864.68,-152.77"/>
</a>
</g>
</g>
<!-- Node19 -->
<g id="Node000019" class="node">
<title>Node19</title>
<g id="a_Node000019"><a xlink:title=" ">
<polygon fill="#e0e0e0" stroke="#999999" points="737,-145.5 690,-145.5 690,-126.5 737,-126.5 737,-145.5"/>
<text text-anchor="middle" x="713.5" y="-133.5" font-family="Helvetica,sans-Serif" font-size="10.00">vector</text>
</a>
</g>
</g>
<!-- Node16&#45;&gt;Node19 -->
<g id="edge23_Node000016_Node000019" class="edge">
<title>Node16&#45;&gt;Node19</title>
<g id="a_edge23_Node000016_Node000019"><a xlink:title=" ">
<path fill="none" stroke="#63b8ff" d="M735.99,-192.37C732.18,-182.97 725.96,-167.67 721.03,-155.53"/>
<polygon fill="#63b8ff" stroke="#63b8ff" points="724.12,-153.85 717.12,-145.91 717.64,-156.49 724.12,-153.85"/>
</a>
</g>
</g>
<!-- Node20&#45;&gt;Node5 -->
<g id="edge26_Node000020_Node000005" class="edge">
<title>Node20&#45;&gt;Node5</title>
<g id="a_edge26_Node000020_Node000005"><a xlink:title=" ">
<path fill="none" stroke="#63b8ff" d="M838.45,-59.14C758.54,-47.22 626.2,-27.47 557.3,-17.19"/>
<polygon fill="#63b8ff" stroke="#63b8ff" points="557.62,-13.69 547.21,-15.68 556.58,-20.62 557.62,-13.69"/>
</a>
</g>
</g>
</g>
</svg>
