<?xml version="1.0" encoding="UTF-8" standalone="no"?>
<!DOCTYPE svg PUBLIC "-//W3C//DTD SVG 1.1//EN"
 "http://www.w3.org/Graphics/SVG/1.1/DTD/svg11.dtd">
<!-- Generated by graphviz version 2.43.0 (0)
 -->
<!-- Title: storages::redis::utest::RedisTest Pages: 1 -->
<svg width="222pt" height="104pt"
 viewBox="0.00 0.00 221.50 104.00" xmlns="http://www.w3.org/2000/svg" xmlns:xlink="http://www.w3.org/1999/xlink">
<g id="graph0" class="graph" transform="scale(1 1) rotate(0) translate(4 100)">
<title>storages::redis::utest::RedisTest</title>
<!-- Node1 -->
<g id="Node000001" class="node">
<title>Node1</title>
<g id="a_Node000001"><a xlink:title="Redis fixture.">
<polygon fill="#999999" stroke="#666666" points="155.5,-30 36.5,-30 36.5,0 155.5,0 155.5,-30"/>
<text text-anchor="start" x="44.5" y="-18" font-family="Helvetica,sans-Serif" font-size="10.00">storages::redis::utest</text>
<text text-anchor="middle" x="96" y="-7" font-family="Helvetica,sans-Serif" font-size="10.00">::RedisTest</text>
</a>
</g>
</g>
<!-- Node2 -->
<g id="Node000002" class="node">
<title>Node2</title>
<g id="a_Node000002"><a xlink:title=" ">
<polygon fill="white" stroke="#bfbfbf" points="76,-90.5 0,-90.5 0,-71.5 76,-71.5 76,-90.5"/>
<text text-anchor="middle" x="38" y="-78.5" font-family="Helvetica,sans-Serif" font-size="10.00">testing::Test</text>
</a>
</g>
</g>
<!-- Node2&#45;&gt;Node1 -->
<g id="edge1_Node000001_Node000002" class="edge">
<title>Node2&#45;&gt;Node1</title>
<g id="a_edge1_Node000001_Node000002"><a xlink:title=" ">
<path fill="none" stroke="#63b8ff" d="M52.64,-63.85C61.98,-53.54 73.98,-40.3 82.99,-30.36"/>
<polygon fill="#63b8ff" stroke="#63b8ff" points="49.94,-61.61 45.82,-71.37 55.13,-66.31 49.94,-61.61"/>
</a>
</g>
</g>
<!-- Node3 -->
<g id="Node000003" class="node">
<title>Node3</title>
<g id="a_Node000003"><a xlink:href="../../df/d18/classstorages_1_1redis_1_1utest_1_1RedisLocal.html" target="_top" xlink:title="Redis local class.">
<polygon fill="white" stroke="#666666" points="213.5,-96 94.5,-96 94.5,-66 213.5,-66 213.5,-96"/>
<text text-anchor="start" x="102.5" y="-84" font-family="Helvetica,sans-Serif" font-size="10.00">storages::redis::utest</text>
<text text-anchor="middle" x="154" y="-73" font-family="Helvetica,sans-Serif" font-size="10.00">::RedisLocal</text>
</a>
</g>
</g>
<!-- Node3&#45;&gt;Node1 -->
<g id="edge2_Node000001_Node000003" class="edge">
<title>Node3&#45;&gt;Node1</title>
<g id="a_edge2_Node000001_Node000003"><a xlink:title=" ">
<path fill="none" stroke="#63b8ff" d="M134.4,-58.37C125.96,-49.06 116.34,-38.44 108.84,-30.16"/>
<polygon fill="#63b8ff" stroke="#63b8ff" points="131.82,-60.74 141.13,-65.8 137.01,-56.04 131.82,-60.74"/>
</a>
</g>
</g>
</g>
</svg>
