<?xml version="1.0" encoding="UTF-8" standalone="no"?>
<!DOCTYPE svg PUBLIC "-//W3C//DTD SVG 1.1//EN"
 "http://www.w3.org/Graphics/SVG/1.1/DTD/svg11.dtd">
<!-- Generated by graphviz version 2.43.0 (0)
 -->
<!-- Title: ydb::BaseError Pages: 1 -->
<svg width="722pt" height="397pt"
 viewBox="0.00 0.00 722.00 397.00" xmlns="http://www.w3.org/2000/svg" xmlns:xlink="http://www.w3.org/1999/xlink">
<g id="graph0" class="graph" transform="scale(1 1) rotate(0) translate(4 393)">
<title>ydb::BaseError</title>
<!-- Node1 -->
<g id="Node000001" class="node">
<title>Node1</title>
<g id="a_Node000001"><a xlink:title=" ">
<polygon fill="#999999" stroke="#666666" points="350,-204 262,-204 262,-185 350,-185 350,-204"/>
<text text-anchor="middle" x="306" y="-192" font-family="Helvetica,sans-Serif" font-size="10.00">ydb::BaseError</text>
</a>
</g>
</g>
<!-- Node4 -->
<g id="Node000004" class="node">
<title>Node4</title>
<g id="a_Node000004"><a xlink:href="../../d2/d6c/classydb_1_1DeadlineExceededError.html" target="_top" xlink:title=" ">
<polygon fill="white" stroke="#bfbfbf" points="545.5,-389 390.5,-389 390.5,-370 545.5,-370 545.5,-389"/>
<text text-anchor="middle" x="468" y="-377" font-family="Helvetica,sans-Serif" font-size="10.00">ydb::DeadlineExceededError</text>
</a>
</g>
</g>
<!-- Node1&#45;&gt;Node4 -->
<g id="edge3_Node000001_Node000004" class="edge">
<title>Node1&#45;&gt;Node4</title>
<g id="a_edge3_Node000001_Node000004"><a xlink:title=" ">
<path fill="none" stroke="#63b8ff" d="M310.58,-214.1C318.06,-249.13 338.69,-322.36 386,-360.5 390.72,-364.31 396.08,-367.38 401.73,-369.85"/>
<polygon fill="#63b8ff" stroke="#63b8ff" points="313.99,-213.29 308.6,-204.17 307.13,-214.66 313.99,-213.29"/>
</a>
</g>
</g>
<!-- Node5 -->
<g id="Node000005" class="node">
<title>Node5</title>
<g id="a_Node000005"><a xlink:href="../../d6/d92/classydb_1_1EmptyResponseError.html" target="_top" xlink:title=" ">
<polygon fill="white" stroke="#bfbfbf" points="539.5,-352 396.5,-352 396.5,-333 539.5,-333 539.5,-352"/>
<text text-anchor="middle" x="468" y="-340" font-family="Helvetica,sans-Serif" font-size="10.00">ydb::EmptyResponseError</text>
</a>
</g>
</g>
<!-- Node1&#45;&gt;Node5 -->
<g id="edge4_Node000001_Node000005" class="edge">
<title>Node1&#45;&gt;Node5</title>
<g id="a_edge4_Node000001_Node000005"><a xlink:title=" ">
<path fill="none" stroke="#63b8ff" d="M313.31,-213.69C323.73,-242.24 347.31,-295.54 386,-323.5 391.38,-327.39 397.45,-330.5 403.78,-332.98"/>
<polygon fill="#63b8ff" stroke="#63b8ff" points="316.56,-212.36 309.96,-204.06 309.95,-214.66 316.56,-212.36"/>
</a>
</g>
</g>
<!-- Node6 -->
<g id="Node000006" class="node">
<title>Node6</title>
<g id="a_Node000006"><a xlink:href="../../dc/dc0/classydb_1_1IgnoreResultsError.html" target="_top" xlink:title=" ">
<polygon fill="white" stroke="#bfbfbf" points="533.5,-315 402.5,-315 402.5,-296 533.5,-296 533.5,-315"/>
<text text-anchor="middle" x="468" y="-303" font-family="Helvetica,sans-Serif" font-size="10.00">ydb::IgnoreResultsError</text>
</a>
</g>
</g>
<!-- Node1&#45;&gt;Node6 -->
<g id="edge5_Node000001_Node000006" class="edge">
<title>Node1&#45;&gt;Node6</title>
<g id="a_edge5_Node000001_Node000006"><a xlink:title=" ">
<path fill="none" stroke="#63b8ff" d="M317.61,-212.72C330.87,-233.81 355.57,-268.02 386,-286.5 392.42,-290.4 399.57,-293.5 406.9,-295.96"/>
<polygon fill="#63b8ff" stroke="#63b8ff" points="320.53,-210.78 312.34,-204.05 314.55,-214.41 320.53,-210.78"/>
</a>
</g>
</g>
<!-- Node7 -->
<g id="Node000007" class="node">
<title>Node7</title>
<g id="a_Node000007"><a xlink:href="../../d0/da7/classydb_1_1InvalidTransactionError.html" target="_top" xlink:title=" ">
<polygon fill="white" stroke="#bfbfbf" points="544,-278 392,-278 392,-259 544,-259 544,-278"/>
<text text-anchor="middle" x="468" y="-266" font-family="Helvetica,sans-Serif" font-size="10.00">ydb::InvalidTransactionError</text>
</a>
</g>
</g>
<!-- Node1&#45;&gt;Node7 -->
<g id="edge6_Node000001_Node000007" class="edge">
<title>Node1&#45;&gt;Node7</title>
<g id="a_edge6_Node000001_Node000007"><a xlink:title=" ">
<path fill="none" stroke="#63b8ff" d="M326.05,-210.87C341.32,-223.2 363.8,-239.6 386,-249.5 394.58,-253.32 404.02,-256.43 413.33,-258.94"/>
<polygon fill="#63b8ff" stroke="#63b8ff" points="327.88,-207.85 317.95,-204.17 323.42,-213.24 327.88,-207.85"/>
</a>
</g>
</g>
<!-- Node8 -->
<g id="Node000008" class="node">
<title>Node8</title>
<g id="a_Node000008"><a xlink:href="../../df/d61/classydb_1_1OperationCancelledError.html" target="_top" xlink:title=" ">
<polygon fill="white" stroke="#bfbfbf" points="548,-241 388,-241 388,-222 548,-222 548,-241"/>
<text text-anchor="middle" x="468" y="-229" font-family="Helvetica,sans-Serif" font-size="10.00">ydb::OperationCancelledError</text>
</a>
</g>
</g>
<!-- Node1&#45;&gt;Node8 -->
<g id="edge7_Node000001_Node000008" class="edge">
<title>Node1&#45;&gt;Node8</title>
<g id="a_edge7_Node000001_Node000008"><a xlink:title=" ">
<path fill="none" stroke="#63b8ff" d="M357.98,-206.29C379.82,-211.34 405,-217.16 425.66,-221.94"/>
<polygon fill="#63b8ff" stroke="#63b8ff" points="358.74,-202.87 348.2,-204.03 357.16,-209.69 358.74,-202.87"/>
</a>
</g>
</g>
<!-- Node9 -->
<g id="Node000009" class="node">
<title>Node9</title>
<g id="a_Node000009"><a xlink:href="../../d4/da4/classydb_1_1ParseError.html" target="_top" xlink:title=" ">
<polygon fill="white" stroke="#bfbfbf" points="513,-204 423,-204 423,-185 513,-185 513,-204"/>
<text text-anchor="middle" x="468" y="-192" font-family="Helvetica,sans-Serif" font-size="10.00">ydb::ParseError</text>
</a>
</g>
</g>
<!-- Node1&#45;&gt;Node9 -->
<g id="edge8_Node000001_Node000009" class="edge">
<title>Node1&#45;&gt;Node9</title>
<g id="a_edge8_Node000001_Node000009"><a xlink:title=" ">
<path fill="none" stroke="#63b8ff" d="M360.33,-194.5C380.62,-194.5 403.49,-194.5 422.83,-194.5"/>
<polygon fill="#63b8ff" stroke="#63b8ff" points="360.3,-191 350.3,-194.5 360.3,-198 360.3,-191"/>
</a>
</g>
</g>
<!-- Node11 -->
<g id="Node000011" class="node">
<title>Node11</title>
<g id="a_Node000011"><a xlink:href="../../db/dcc/classydb_1_1ResponseTruncatedError.html" target="_top" xlink:title=" ">
<polygon fill="white" stroke="#bfbfbf" points="547,-167 389,-167 389,-148 547,-148 547,-167"/>
<text text-anchor="middle" x="468" y="-155" font-family="Helvetica,sans-Serif" font-size="10.00">ydb::ResponseTruncatedError</text>
</a>
</g>
</g>
<!-- Node1&#45;&gt;Node11 -->
<g id="edge10_Node000001_Node000011" class="edge">
<title>Node1&#45;&gt;Node11</title>
<g id="a_edge10_Node000001_Node000011"><a xlink:title=" ">
<path fill="none" stroke="#63b8ff" d="M355.75,-182.64C365.75,-180.24 376.21,-177.77 386,-175.5 398.07,-172.71 411.17,-169.76 423.25,-167.08"/>
<polygon fill="#63b8ff" stroke="#63b8ff" points="354.85,-179.25 345.94,-184.99 356.49,-186.06 354.85,-179.25"/>
</a>
</g>
</g>
<!-- Node12 -->
<g id="Node000012" class="node">
<title>Node12</title>
<g id="a_Node000012"><a xlink:href="../../de/de6/classydb_1_1TransactionForceRollback.html" target="_top" xlink:title=" ">
<polygon fill="white" stroke="#bfbfbf" points="550,-130 386,-130 386,-111 550,-111 550,-130"/>
<text text-anchor="middle" x="468" y="-118" font-family="Helvetica,sans-Serif" font-size="10.00">ydb::TransactionForceRollback</text>
</a>
</g>
</g>
<!-- Node1&#45;&gt;Node12 -->
<g id="edge11_Node000001_Node000012" class="edge">
<title>Node1&#45;&gt;Node12</title>
<g id="a_edge11_Node000001_Node000012"><a xlink:title=" ">
<path fill="none" stroke="#63b8ff" d="M325.28,-178.31C340.51,-165.65 363.31,-148.57 386,-138.5 393.64,-135.11 401.97,-132.33 410.29,-130.06"/>
<polygon fill="#63b8ff" stroke="#63b8ff" points="322.99,-175.66 317.65,-184.81 327.53,-180.99 322.99,-175.66"/>
</a>
</g>
</g>
<!-- Node13 -->
<g id="Node000013" class="node">
<title>Node13</title>
<g id="a_Node000013"><a xlink:href="../../d1/d8d/classydb_1_1TypeMismatchError.html" target="_top" xlink:title=" ">
<polygon fill="white" stroke="#bfbfbf" points="535,-93 401,-93 401,-74 535,-74 535,-93"/>
<text text-anchor="middle" x="468" y="-81" font-family="Helvetica,sans-Serif" font-size="10.00">ydb::TypeMismatchError</text>
</a>
</g>
</g>
<!-- Node1&#45;&gt;Node13 -->
<g id="edge12_Node000001_Node000013" class="edge">
<title>Node1&#45;&gt;Node13</title>
<g id="a_edge12_Node000001_Node000013"><a xlink:title=" ">
<path fill="none" stroke="#63b8ff" d="M317.52,-176.02C330.7,-154.64 355.32,-120 386,-101.5 391.67,-98.08 397.93,-95.3 404.36,-93.06"/>
<polygon fill="#63b8ff" stroke="#63b8ff" points="314.4,-174.43 312.29,-184.81 320.42,-178.01 314.4,-174.43"/>
</a>
</g>
</g>
<!-- Node14 -->
<g id="Node000014" class="node">
<title>Node14</title>
<g id="a_Node000014"><a xlink:href="../../d0/d12/classydb_1_1UndefinedDatabaseError.html" target="_top" xlink:title=" ">
<polygon fill="white" stroke="#bfbfbf" points="548,-56 388,-56 388,-37 548,-37 548,-56"/>
<text text-anchor="middle" x="468" y="-44" font-family="Helvetica,sans-Serif" font-size="10.00">ydb::UndefinedDatabaseError</text>
</a>
</g>
</g>
<!-- Node1&#45;&gt;Node14 -->
<g id="edge13_Node000001_Node000014" class="edge">
<title>Node1&#45;&gt;Node14</title>
<g id="a_edge13_Node000001_Node000014"><a xlink:title=" ">
<path fill="none" stroke="#63b8ff" d="M313.23,-175.1C323.54,-146.26 346.98,-92.46 386,-64.5 390.68,-61.14 395.88,-58.4 401.32,-56.15"/>
<polygon fill="#63b8ff" stroke="#63b8ff" points="309.83,-174.24 309.92,-184.83 316.45,-176.49 309.83,-174.24"/>
</a>
</g>
</g>
<!-- Node15 -->
<g id="Node000015" class="node">
<title>Node15</title>
<g id="a_Node000015"><a xlink:href="../../da/d9c/classydb_1_1YdbResponseError.html" target="_top" xlink:title=" ">
<polygon fill="white" stroke="#bfbfbf" points="532.5,-19 403.5,-19 403.5,0 532.5,0 532.5,-19"/>
<text text-anchor="middle" x="468" y="-7" font-family="Helvetica,sans-Serif" font-size="10.00">ydb::YdbResponseError</text>
</a>
</g>
</g>
<!-- Node1&#45;&gt;Node15 -->
<g id="edge14_Node000001_Node000015" class="edge">
<title>Node1&#45;&gt;Node15</title>
<g id="a_edge14_Node000001_Node000015"><a xlink:title=" ">
<path fill="none" stroke="#63b8ff" d="M310.5,-174.73C317.84,-139.4 338.28,-65.6 386,-27.5 391.18,-23.37 397.11,-20.14 403.36,-17.62"/>
<polygon fill="#63b8ff" stroke="#63b8ff" points="307.03,-174.26 308.56,-184.75 313.9,-175.6 307.03,-174.26"/>
</a>
</g>
</g>
<!-- Node2 -->
<g id="Node000002" class="node">
<title>Node2</title>
<g id="a_Node000002"><a xlink:title=" ">
<polygon fill="white" stroke="#666666" points="226,-204 122,-204 122,-185 226,-185 226,-204"/>
<text text-anchor="middle" x="174" y="-192" font-family="Helvetica,sans-Serif" font-size="10.00">std::runtime_error</text>
</a>
</g>
</g>
<!-- Node2&#45;&gt;Node1 -->
<g id="edge1_Node000001_Node000002" class="edge">
<title>Node2&#45;&gt;Node1</title>
<g id="a_edge1_Node000001_Node000002"><a xlink:title=" ">
<path fill="none" stroke="#63b8ff" d="M236.09,-194.5C244.74,-194.5 253.49,-194.5 261.71,-194.5"/>
<polygon fill="#63b8ff" stroke="#63b8ff" points="236.01,-191 226.01,-194.5 236.01,-198 236.01,-191"/>
</a>
</g>
</g>
<!-- Node3 -->
<g id="Node000003" class="node">
<title>Node3</title>
<g id="a_Node000003"><a xlink:title=" ">
<polygon fill="white" stroke="#666666" points="86,-204 0,-204 0,-185 86,-185 86,-204"/>
<text text-anchor="middle" x="43" y="-192" font-family="Helvetica,sans-Serif" font-size="10.00">std::exception</text>
</a>
</g>
</g>
<!-- Node3&#45;&gt;Node2 -->
<g id="edge2_Node000002_Node000003" class="edge">
<title>Node3&#45;&gt;Node2</title>
<g id="a_edge2_Node000002_Node000003"><a xlink:title=" ">
<path fill="none" stroke="#63b8ff" d="M96.27,-194.5C104.65,-194.5 113.31,-194.5 121.66,-194.5"/>
<polygon fill="#63b8ff" stroke="#63b8ff" points="96.24,-191 86.24,-194.5 96.24,-198 96.24,-191"/>
</a>
</g>
</g>
<!-- Node10 -->
<g id="Node000010" class="node">
<title>Node10</title>
<g id="a_Node000010"><a xlink:href="../../d3/dfe/classydb_1_1ColumnParseError.html" target="_top" xlink:title=" ">
<polygon fill="white" stroke="#bfbfbf" points="714,-204 586,-204 586,-185 714,-185 714,-204"/>
<text text-anchor="middle" x="650" y="-192" font-family="Helvetica,sans-Serif" font-size="10.00">ydb::ColumnParseError</text>
</a>
</g>
</g>
<!-- Node9&#45;&gt;Node10 -->
<g id="edge9_Node000009_Node000010" class="edge">
<title>Node9&#45;&gt;Node10</title>
<g id="a_edge9_Node000009_Node000010"><a xlink:title=" ">
<path fill="none" stroke="#63b8ff" d="M523.07,-194.5C542.78,-194.5 565.25,-194.5 585.7,-194.5"/>
<polygon fill="#63b8ff" stroke="#63b8ff" points="523.03,-191 513.03,-194.5 523.03,-198 523.03,-191"/>
</a>
</g>
</g>
</g>
</svg>
