<?xml version="1.0" encoding="UTF-8" standalone="no"?>
<!DOCTYPE svg PUBLIC "-//W3C//DTD SVG 1.1//EN"
 "http://www.w3.org/Graphics/SVG/1.1/DTD/svg11.dtd">
<!-- Generated by graphviz version 2.43.0 (0)
 -->
<!-- Title: userver/utils/boost_uuid4.hpp Pages: 1 -->
<svg width="339pt" height="148pt"
 viewBox="0.00 0.00 339.00 148.00" xmlns="http://www.w3.org/2000/svg" xmlns:xlink="http://www.w3.org/1999/xlink">
<g id="graph0" class="graph" transform="scale(1 1) rotate(0) translate(4 144)">
<title>userver/utils/boost_uuid4.hpp</title>
<!-- Node1 -->
<g id="Node000001" class="node">
<title>Node1</title>
<g id="a_Node000001"><a xlink:title="Generates UUIDv4.">
<polygon fill="#999999" stroke="#666666" points="195,-140 88,-140 88,-110 195,-110 195,-140"/>
<text text-anchor="start" x="96" y="-128" font-family="Helvetica,sans-Serif" font-size="10.00">userver/utils/boost</text>
<text text-anchor="middle" x="141.5" y="-117" font-family="Helvetica,sans-Serif" font-size="10.00">_uuid4.hpp</text>
</a>
</g>
</g>
<!-- Node2 -->
<g id="Node000002" class="node">
<title>Node2</title>
<g id="a_Node000002"><a xlink:title=" ">
<polygon fill="#e0e0e0" stroke="#999999" points="113,-74 0,-74 0,-55 113,-55 113,-74"/>
<text text-anchor="middle" x="56.5" y="-62" font-family="Helvetica,sans-Serif" font-size="10.00">boost/uuid/uuid.hpp</text>
</a>
</g>
</g>
<!-- Node1&#45;&gt;Node2 -->
<g id="edge1_Node000001_Node000002" class="edge">
<title>Node1&#45;&gt;Node2</title>
<g id="a_edge1_Node000001_Node000002"><a xlink:title=" ">
<path fill="none" stroke="#63b8ff" d="M120.92,-109.84C107.83,-100.83 90.91,-89.18 77.7,-80.09"/>
<polygon fill="#63b8ff" stroke="#63b8ff" points="79.46,-77.05 69.24,-74.27 75.49,-82.82 79.46,-77.05"/>
</a>
</g>
</g>
<!-- Node3 -->
<g id="Node000003" class="node">
<title>Node3</title>
<g id="a_Node000003"><a xlink:title=" ">
<polygon fill="#e0e0e0" stroke="#999999" points="229,-19 162,-19 162,0 229,0 229,-19"/>
<text text-anchor="middle" x="195.5" y="-7" font-family="Helvetica,sans-Serif" font-size="10.00">fmt/core.h</text>
</a>
</g>
</g>
<!-- Node1&#45;&gt;Node3 -->
<g id="edge2_Node000001_Node000003" class="edge">
<title>Node1&#45;&gt;Node3</title>
<g id="a_edge2_Node000001_Node000003"><a xlink:title=" ">
<path fill="none" stroke="#63b8ff" d="M143.98,-109.95C146.88,-95.6 152.45,-72.93 161.5,-55 166.58,-44.93 174.04,-34.84 180.68,-26.83"/>
<polygon fill="#63b8ff" stroke="#63b8ff" points="183.52,-28.9 187.41,-19.04 178.22,-24.32 183.52,-28.9"/>
</a>
</g>
</g>
<!-- Node4 -->
<g id="Node000004" class="node">
<title>Node4</title>
<g id="a_Node000004"><a xlink:href="../../d3/d6c/fmt__compat_8hpp_source.html" target="_top" xlink:title=" ">
<polygon fill="white" stroke="#666666" points="331,-74 170,-74 170,-55 331,-55 331,-74"/>
<text text-anchor="middle" x="250.5" y="-62" font-family="Helvetica,sans-Serif" font-size="10.00">userver/utils/fmt_compat.hpp</text>
</a>
</g>
</g>
<!-- Node1&#45;&gt;Node4 -->
<g id="edge3_Node000001_Node000004" class="edge">
<title>Node1&#45;&gt;Node4</title>
<g id="a_edge3_Node000001_Node000004"><a xlink:title=" ">
<path fill="none" stroke="#63b8ff" d="M167.61,-109.99C185.14,-100.58 208.12,-88.24 225.44,-78.95"/>
<polygon fill="#63b8ff" stroke="#63b8ff" points="227.25,-81.95 234.4,-74.14 223.94,-75.78 227.25,-81.95"/>
</a>
</g>
</g>
<!-- Node4&#45;&gt;Node3 -->
<g id="edge4_Node000004_Node000003" class="edge">
<title>Node4&#45;&gt;Node3</title>
<g id="a_edge4_Node000004_Node000003"><a xlink:title=" ">
<path fill="none" stroke="#63b8ff" d="M241.42,-54.75C233.41,-47.03 221.54,-35.6 211.88,-26.28"/>
<polygon fill="#63b8ff" stroke="#63b8ff" points="214.04,-23.51 204.41,-19.09 209.19,-28.55 214.04,-23.51"/>
</a>
</g>
</g>
</g>
</svg>
