<?xml version="1.0" encoding="UTF-8" standalone="no"?>
<!DOCTYPE svg PUBLIC "-//W3C//DTD SVG 1.1//EN"
 "http://www.w3.org/Graphics/SVG/1.1/DTD/svg11.dtd">
<!-- Generated by graphviz version 2.43.0 (0)
 -->
<!-- Title: storages::mongo::utest::MongoTest Pages: 1 -->
<svg width="232pt" height="104pt"
 viewBox="0.00 0.00 231.50 104.00" xmlns="http://www.w3.org/2000/svg" xmlns:xlink="http://www.w3.org/1999/xlink">
<g id="graph0" class="graph" transform="scale(1 1) rotate(0) translate(4 100)">
<title>storages::mongo::utest::MongoTest</title>
<!-- Node1 -->
<g id="Node000001" class="node">
<title>Node1</title>
<g id="a_Node000001"><a xlink:title="Provides access to storages::mongo::Pool by means storages::mongo::utest::MongoLocal class.">
<polygon fill="#999999" stroke="#666666" points="162.5,-30 33.5,-30 33.5,0 162.5,0 162.5,-30"/>
<text text-anchor="start" x="41.5" y="-18" font-family="Helvetica,sans-Serif" font-size="10.00">storages::mongo::utest</text>
<text text-anchor="middle" x="98" y="-7" font-family="Helvetica,sans-Serif" font-size="10.00">::MongoTest</text>
</a>
</g>
</g>
<!-- Node2 -->
<g id="Node000002" class="node">
<title>Node2</title>
<g id="a_Node000002"><a xlink:title=" ">
<polygon fill="white" stroke="#bfbfbf" points="76,-90.5 0,-90.5 0,-71.5 76,-71.5 76,-90.5"/>
<text text-anchor="middle" x="38" y="-78.5" font-family="Helvetica,sans-Serif" font-size="10.00">testing::Test</text>
</a>
</g>
</g>
<!-- Node2&#45;&gt;Node1 -->
<g id="edge1_Node000001_Node000002" class="edge">
<title>Node2&#45;&gt;Node1</title>
<g id="a_edge1_Node000001_Node000002"><a xlink:title=" ">
<path fill="none" stroke="#63b8ff" d="M53.14,-63.85C62.8,-53.54 75.22,-40.3 84.54,-30.36"/>
<polygon fill="#63b8ff" stroke="#63b8ff" points="50.38,-61.68 46.09,-71.37 55.48,-66.47 50.38,-61.68"/>
</a>
</g>
</g>
<!-- Node3 -->
<g id="Node000003" class="node">
<title>Node3</title>
<g id="a_Node000003"><a xlink:href="../../db/df4/classstorages_1_1mongo_1_1utest_1_1MongoLocal.html" target="_top" xlink:title="Mongo local class.">
<polygon fill="white" stroke="#666666" points="223.5,-96 94.5,-96 94.5,-66 223.5,-66 223.5,-96"/>
<text text-anchor="start" x="102.5" y="-84" font-family="Helvetica,sans-Serif" font-size="10.00">storages::mongo::utest</text>
<text text-anchor="middle" x="159" y="-73" font-family="Helvetica,sans-Serif" font-size="10.00">::MongoLocal</text>
</a>
</g>
</g>
<!-- Node3&#45;&gt;Node1 -->
<g id="edge2_Node000001_Node000003" class="edge">
<title>Node3&#45;&gt;Node1</title>
<g id="a_edge2_Node000001_Node000003"><a xlink:title=" ">
<path fill="none" stroke="#63b8ff" d="M138.38,-58.37C129.51,-49.06 119.39,-38.44 111.5,-30.16"/>
<polygon fill="#63b8ff" stroke="#63b8ff" points="136.03,-60.97 145.46,-65.8 141.1,-56.14 136.03,-60.97"/>
</a>
</g>
</g>
</g>
</svg>
