<?xml version="1.0" encoding="UTF-8" standalone="no"?>
<!DOCTYPE svg PUBLIC "-//W3C//DTD SVG 1.1//EN"
 "http://www.w3.org/Graphics/SVG/1.1/DTD/svg11.dtd">
<!-- Generated by graphviz version 2.43.0 (0)
 -->
<!-- Title: userver/utils/constexpr_indices.hpp Pages: 1 -->
<svg width="451pt" height="170pt"
 viewBox="0.00 0.00 451.00 170.00" xmlns="http://www.w3.org/2000/svg" xmlns:xlink="http://www.w3.org/1999/xlink">
<g id="graph0" class="graph" transform="scale(1 1) rotate(0) translate(4 166)">
<title>userver/utils/constexpr_indices.hpp</title>
<!-- Node1 -->
<g id="Node000001" class="node">
<title>Node1</title>
<g id="a_Node000001"><a xlink:title="Functions for iterating over a constexpr range of integers.">
<polygon fill="#999999" stroke="#666666" points="280.5,-162 152.5,-162 152.5,-132 280.5,-132 280.5,-162"/>
<text text-anchor="start" x="160.5" y="-150" font-family="Helvetica,sans-Serif" font-size="10.00">userver/utils/constexpr</text>
<text text-anchor="middle" x="216.5" y="-139" font-family="Helvetica,sans-Serif" font-size="10.00">_indices.hpp</text>
</a>
</g>
</g>
<!-- Node2 -->
<g id="Node000002" class="node">
<title>Node2</title>
<g id="a_Node000002"><a xlink:href="../../db/d4f/oneof__with__discriminator_8hpp_source.html" target="_top" xlink:title=" ">
<polygon fill="white" stroke="#666666" points="133,-96 0,-96 0,-66 133,-66 133,-96"/>
<text text-anchor="start" x="8" y="-84" font-family="Helvetica,sans-Serif" font-size="10.00">userver/chaotic/oneof</text>
<text text-anchor="middle" x="66.5" y="-73" font-family="Helvetica,sans-Serif" font-size="10.00">_with_discriminator.hpp</text>
</a>
</g>
</g>
<!-- Node1&#45;&gt;Node2 -->
<g id="edge1_Node000001_Node000002" class="edge">
<title>Node1&#45;&gt;Node2</title>
<g id="a_edge1_Node000001_Node000002"><a xlink:title=" ">
<path fill="none" stroke="#63b8ff" d="M174.12,-127.92C150.42,-117.8 121.31,-105.38 99.34,-96.01"/>
<polygon fill="#63b8ff" stroke="#63b8ff" points="173.01,-131.25 183.58,-131.95 175.76,-124.81 173.01,-131.25"/>
</a>
</g>
</g>
<!-- Node3 -->
<g id="Node000003" class="node">
<title>Node3</title>
<g id="a_Node000003"><a xlink:href="../../df/d8a/core_2include_2userver_2dump_2common__containers_8hpp.html" target="_top" xlink:title="Dump support for C++ Standard Library and Boost containers, std::optional, utils::StrongTypedef,...">
<polygon fill="white" stroke="#666666" points="281.5,-96 151.5,-96 151.5,-66 281.5,-66 281.5,-96"/>
<text text-anchor="start" x="159.5" y="-84" font-family="Helvetica,sans-Serif" font-size="10.00">userver/dump/common</text>
<text text-anchor="middle" x="216.5" y="-73" font-family="Helvetica,sans-Serif" font-size="10.00">_containers.hpp</text>
</a>
</g>
</g>
<!-- Node1&#45;&gt;Node3 -->
<g id="edge2_Node000001_Node000003" class="edge">
<title>Node1&#45;&gt;Node3</title>
<g id="a_edge2_Node000001_Node000003"><a xlink:title=" ">
<path fill="none" stroke="#63b8ff" d="M216.5,-121.54C216.5,-112.96 216.5,-103.61 216.5,-96.16"/>
<polygon fill="#63b8ff" stroke="#63b8ff" points="213,-121.8 216.5,-131.8 220,-121.8 213,-121.8"/>
</a>
</g>
</g>
<!-- Node4 -->
<g id="Node000004" class="node">
<title>Node4</title>
<g id="a_Node000004"><a xlink:href="../../d2/dc1/structs_8hpp_source.html" target="_top" xlink:title=" ">
<polygon fill="white" stroke="#666666" points="443,-90.5 300,-90.5 300,-71.5 443,-71.5 443,-90.5"/>
<text text-anchor="middle" x="371.5" y="-78.5" font-family="Helvetica,sans-Serif" font-size="10.00">userver/ydb/io/structs.hpp</text>
</a>
</g>
</g>
<!-- Node1&#45;&gt;Node4 -->
<g id="edge3_Node000001_Node000004" class="edge">
<title>Node1&#45;&gt;Node4</title>
<g id="a_edge3_Node000001_Node000004"><a xlink:title=" ">
<path fill="none" stroke="#63b8ff" d="M259.85,-128.1C289.6,-115.82 327.75,-100.06 350.87,-90.52"/>
<polygon fill="#63b8ff" stroke="#63b8ff" points="258.42,-124.9 250.52,-131.95 261.09,-131.37 258.42,-124.9"/>
</a>
</g>
</g>
<!-- Node5 -->
<g id="Node000005" class="node">
<title>Node5</title>
<g id="a_Node000005"><a xlink:href="../../d3/d9d/ydb_2include_2userver_2ydb_2io_2supported__types_8hpp.html" target="_top" xlink:title=" ">
<polygon fill="white" stroke="#666666" points="440.5,-30 302.5,-30 302.5,0 440.5,0 440.5,-30"/>
<text text-anchor="start" x="310.5" y="-18" font-family="Helvetica,sans-Serif" font-size="10.00">userver/ydb/io/supported</text>
<text text-anchor="middle" x="371.5" y="-7" font-family="Helvetica,sans-Serif" font-size="10.00">_types.hpp</text>
</a>
</g>
</g>
<!-- Node4&#45;&gt;Node5 -->
<g id="edge4_Node000004_Node000005" class="edge">
<title>Node4&#45;&gt;Node5</title>
<g id="a_edge4_Node000004_Node000005"><a xlink:title=" ">
<path fill="none" stroke="#63b8ff" d="M371.5,-61.35C371.5,-51.47 371.5,-39.51 371.5,-30.36"/>
<polygon fill="#63b8ff" stroke="#63b8ff" points="368,-61.37 371.5,-71.37 375,-61.37 368,-61.37"/>
</a>
</g>
</g>
</g>
</svg>
