<?xml version="1.0" encoding="UTF-8" standalone="no"?>
<!DOCTYPE svg PUBLIC "-//W3C//DTD SVG 1.1//EN"
 "http://www.w3.org/Graphics/SVG/1.1/DTD/svg11.dtd">
<!-- Generated by graphviz version 2.43.0 (0)
 -->
<!-- Title: userver/yaml_config/schema.hpp Pages: 1 -->
<svg width="1121pt" height="357pt"
 viewBox="0.00 0.00 1120.50 357.00" xmlns="http://www.w3.org/2000/svg" xmlns:xlink="http://www.w3.org/1999/xlink">
<g id="graph0" class="graph" transform="scale(1 1) rotate(0) translate(4 353)">
<title>userver/yaml_config/schema.hpp</title>
<!-- Node1 -->
<g id="Node000001" class="node">
<title>Node1</title>
<g id="a_Node000001"><a xlink:title="JSON Schema&#45;like type definition.">
<polygon fill="#999999" stroke="#666666" points="389,-349 273,-349 273,-319 389,-319 389,-349"/>
<text text-anchor="start" x="281" y="-337" font-family="Helvetica,sans-Serif" font-size="10.00">userver/yaml_config</text>
<text text-anchor="middle" x="331" y="-326" font-family="Helvetica,sans-Serif" font-size="10.00">/schema.hpp</text>
</a>
</g>
</g>
<!-- Node2 -->
<g id="Node000002" class="node">
<title>Node2</title>
<g id="a_Node000002"><a xlink:title=" ">
<polygon fill="#e0e0e0" stroke="#999999" points="58,-277.5 0,-277.5 0,-258.5 58,-258.5 58,-277.5"/>
<text text-anchor="middle" x="29" y="-265.5" font-family="Helvetica,sans-Serif" font-size="10.00">memory</text>
</a>
</g>
</g>
<!-- Node1&#45;&gt;Node2 -->
<g id="edge1_Node000001_Node000002" class="edge">
<title>Node1&#45;&gt;Node2</title>
<g id="a_edge1_Node000001_Node000002"><a xlink:title=" ">
<path fill="none" stroke="#63b8ff" d="M272.94,-323.91C220.14,-315.15 140.28,-300.63 72,-283 69.05,-282.24 66.02,-281.39 62.98,-280.49"/>
<polygon fill="#63b8ff" stroke="#63b8ff" points="63.99,-277.14 53.4,-277.53 61.92,-283.83 63.99,-277.14"/>
</a>
</g>
</g>
<!-- Node3 -->
<g id="Node000003" class="node">
<title>Node3</title>
<g id="a_Node000003"><a xlink:title=" ">
<polygon fill="#e0e0e0" stroke="#999999" points="370,-145.5 314,-145.5 314,-126.5 370,-126.5 370,-145.5"/>
<text text-anchor="middle" x="342" y="-133.5" font-family="Helvetica,sans-Serif" font-size="10.00">optional</text>
</a>
</g>
</g>
<!-- Node1&#45;&gt;Node3 -->
<g id="edge2_Node000001_Node000003" class="edge">
<title>Node1&#45;&gt;Node3</title>
<g id="a_edge2_Node000001_Node000003"><a xlink:title=" ">
<path fill="none" stroke="#63b8ff" d="M272.95,-328.28C213.11,-322.07 125.69,-308.77 105,-283 44.57,-207.74 222.66,-161.05 303.9,-144.16"/>
<polygon fill="#63b8ff" stroke="#63b8ff" points="304.66,-147.57 313.76,-142.15 303.27,-140.71 304.66,-147.57"/>
</a>
</g>
</g>
<!-- Node4 -->
<g id="Node000004" class="node">
<title>Node4</title>
<g id="a_Node000004"><a xlink:title=" ">
<polygon fill="#e0e0e0" stroke="#999999" points="158,-277.5 114,-277.5 114,-258.5 158,-258.5 158,-277.5"/>
<text text-anchor="middle" x="136" y="-265.5" font-family="Helvetica,sans-Serif" font-size="10.00">string</text>
</a>
</g>
</g>
<!-- Node1&#45;&gt;Node4 -->
<g id="edge3_Node000001_Node000004" class="edge">
<title>Node1&#45;&gt;Node4</title>
<g id="a_edge3_Node000001_Node000004"><a xlink:title=" ">
<path fill="none" stroke="#63b8ff" d="M278.72,-318.92C246.23,-309.7 203.77,-296.84 167,-283 165.79,-282.54 164.56,-282.06 163.32,-281.56"/>
<polygon fill="#63b8ff" stroke="#63b8ff" points="164.44,-278.24 153.87,-277.54 161.7,-284.68 164.44,-278.24"/>
</a>
</g>
</g>
<!-- Node5 -->
<g id="Node000005" class="node">
<title>Node5</title>
<g id="a_Node000005"><a xlink:title=" ">
<polygon fill="#e0e0e0" stroke="#999999" points="269.5,-277.5 176.5,-277.5 176.5,-258.5 269.5,-258.5 269.5,-277.5"/>
<text text-anchor="middle" x="223" y="-265.5" font-family="Helvetica,sans-Serif" font-size="10.00">unordered_map</text>
</a>
</g>
</g>
<!-- Node1&#45;&gt;Node5 -->
<g id="edge4_Node000001_Node000005" class="edge">
<title>Node1&#45;&gt;Node5</title>
<g id="a_edge4_Node000001_Node000005"><a xlink:title=" ">
<path fill="none" stroke="#63b8ff" d="M307.3,-318.95C289.11,-308.18 264.14,-293.38 246.1,-282.69"/>
<polygon fill="#63b8ff" stroke="#63b8ff" points="247.76,-279.6 237.37,-277.52 244.19,-285.63 247.76,-279.6"/>
</a>
</g>
</g>
<!-- Node6 -->
<g id="Node000006" class="node">
<title>Node6</title>
<g id="a_Node000006"><a xlink:title=" ">
<polygon fill="#e0e0e0" stroke="#999999" points="374,-277.5 288,-277.5 288,-258.5 374,-258.5 374,-277.5"/>
<text text-anchor="middle" x="331" y="-265.5" font-family="Helvetica,sans-Serif" font-size="10.00">unordered_set</text>
</a>
</g>
</g>
<!-- Node1&#45;&gt;Node6 -->
<g id="edge5_Node000001_Node000006" class="edge">
<title>Node1&#45;&gt;Node6</title>
<g id="a_edge5_Node000001_Node000006"><a xlink:title=" ">
<path fill="none" stroke="#63b8ff" d="M331,-318.8C331,-309.7 331,-297.79 331,-287.9"/>
<polygon fill="#63b8ff" stroke="#63b8ff" points="334.5,-287.84 331,-277.84 327.5,-287.84 334.5,-287.84"/>
</a>
</g>
</g>
<!-- Node7 -->
<g id="Node000007" class="node">
<title>Node7</title>
<g id="a_Node000007"><a xlink:title=" ">
<polygon fill="#e0e0e0" stroke="#999999" points="443.5,-277.5 392.5,-277.5 392.5,-258.5 443.5,-258.5 443.5,-277.5"/>
<text text-anchor="middle" x="418" y="-265.5" font-family="Helvetica,sans-Serif" font-size="10.00">variant</text>
</a>
</g>
</g>
<!-- Node1&#45;&gt;Node7 -->
<g id="edge6_Node000001_Node000007" class="edge">
<title>Node1&#45;&gt;Node7</title>
<g id="a_edge6_Node000001_Node000007"><a xlink:title=" ">
<path fill="none" stroke="#63b8ff" d="M350.31,-318.8C364.49,-308.37 383.69,-294.24 398.02,-283.69"/>
<polygon fill="#63b8ff" stroke="#63b8ff" points="400.25,-286.4 406.23,-277.66 396.1,-280.76 400.25,-286.4"/>
</a>
</g>
</g>
<!-- Node8 -->
<g id="Node000008" class="node">
<title>Node8</title>
<g id="a_Node000008"><a xlink:title=" ">
<polygon fill="#e0e0e0" stroke="#999999" points="435.5,-145.5 388.5,-145.5 388.5,-126.5 435.5,-126.5 435.5,-145.5"/>
<text text-anchor="middle" x="412" y="-133.5" font-family="Helvetica,sans-Serif" font-size="10.00">vector</text>
</a>
</g>
</g>
<!-- Node1&#45;&gt;Node8 -->
<g id="edge7_Node000001_Node000008" class="edge">
<title>Node1&#45;&gt;Node8</title>
<g id="a_edge7_Node000001_Node000008"><a xlink:title=" ">
<path fill="none" stroke="#63b8ff" d="M389.18,-323.73C413.13,-316.74 438.59,-304.48 453,-283 480.53,-241.97 445.65,-182.62 425.08,-153.87"/>
<polygon fill="#63b8ff" stroke="#63b8ff" points="427.77,-151.62 419,-145.68 422.15,-155.79 427.77,-151.62"/>
</a>
</g>
</g>
<!-- Node9 -->
<g id="Node000009" class="node">
<title>Node9</title>
<g id="a_Node000009"><a xlink:href="../../de/d10/universal_2include_2userver_2formats_2parse_2common__containers_8hpp.html" target="_top" xlink:title="Parsers and converters for Standard Library containers and std::optional.">
<polygon fill="white" stroke="#666666" points="753,-283 613,-283 613,-253 753,-253 753,-283"/>
<text text-anchor="start" x="621" y="-271" font-family="Helvetica,sans-Serif" font-size="10.00">userver/formats/parse</text>
<text text-anchor="middle" x="683" y="-260" font-family="Helvetica,sans-Serif" font-size="10.00">/common_containers.hpp</text>
</a>
</g>
</g>
<!-- Node1&#45;&gt;Node9 -->
<g id="edge8_Node000001_Node000009" class="edge">
<title>Node1&#45;&gt;Node9</title>
<g id="a_edge8_Node000001_Node000009"><a xlink:title=" ">
<path fill="none" stroke="#63b8ff" d="M389.13,-322.43C447.42,-311.83 537.64,-295.43 602.74,-283.59"/>
<polygon fill="#63b8ff" stroke="#63b8ff" points="603.75,-286.97 612.97,-281.73 602.5,-280.08 603.75,-286.97"/>
</a>
</g>
</g>
<!-- Node19 -->
<g id="Node000019" class="node">
<title>Node19</title>
<g id="a_Node000019"><a xlink:href="../../d1/d36/yaml__fwd_8hpp.html" target="_top" xlink:title="Forward declarations of formats::yaml types, formats::parse::To and formats::serialize::To.">
<polygon fill="white" stroke="#666666" points="1110,-217 988,-217 988,-187 1110,-187 1110,-217"/>
<text text-anchor="start" x="996" y="-205" font-family="Helvetica,sans-Serif" font-size="10.00">userver/formats/yaml</text>
<text text-anchor="middle" x="1049" y="-194" font-family="Helvetica,sans-Serif" font-size="10.00">_fwd.hpp</text>
</a>
</g>
</g>
<!-- Node1&#45;&gt;Node19 -->
<g id="edge27_Node000001_Node000019" class="edge">
<title>Node1&#45;&gt;Node19</title>
<g id="a_edge27_Node000001_Node000019"><a xlink:title=" ">
<path fill="none" stroke="#63b8ff" d="M389.31,-329.14C472.57,-322.98 630.05,-308.88 762,-283 845.32,-266.66 939.78,-238.38 996.85,-220.2"/>
<polygon fill="#63b8ff" stroke="#63b8ff" points="998.26,-223.42 1006.71,-217.03 996.12,-216.75 998.26,-223.42"/>
</a>
</g>
</g>
<!-- Node9&#45;&gt;Node3 -->
<g id="edge9_Node000009_Node000003" class="edge">
<title>Node9&#45;&gt;Node3</title>
<g id="a_edge9_Node000009_Node000003"><a xlink:title=" ">
<path fill="none" stroke="#63b8ff" d="M636.44,-252.93C605.94,-243.44 565.32,-230.26 530,-217 472.48,-195.41 406.73,-166.41 370.22,-149.91"/>
<polygon fill="#63b8ff" stroke="#63b8ff" points="371.28,-146.55 360.73,-145.61 368.39,-152.93 371.28,-146.55"/>
</a>
</g>
</g>
<!-- Node10 -->
<g id="Node000010" class="node">
<title>Node10</title>
<g id="a_Node000010"><a xlink:title=" ">
<polygon fill="#e0e0e0" stroke="#999999" points="719.5,-19 650.5,-19 650.5,0 719.5,0 719.5,-19"/>
<text text-anchor="middle" x="685" y="-7" font-family="Helvetica,sans-Serif" font-size="10.00">type_traits</text>
</a>
</g>
</g>
<!-- Node9&#45;&gt;Node10 -->
<g id="edge10_Node000009_Node000010" class="edge">
<title>Node9&#45;&gt;Node10</title>
<g id="a_edge10_Node000009_Node000010"><a xlink:title=" ">
<path fill="none" stroke="#63b8ff" d="M693.51,-252.94C708.42,-232.02 735.01,-190.87 745,-151 755.37,-109.61 764.18,-93.11 745,-55 738.31,-41.71 725.56,-31.39 713.53,-24.05"/>
<polygon fill="#63b8ff" stroke="#63b8ff" points="715.01,-20.87 704.58,-19.02 711.58,-26.97 715.01,-20.87"/>
</a>
</g>
</g>
<!-- Node11 -->
<g id="Node000011" class="node">
<title>Node11</title>
<g id="a_Node000011"><a xlink:href="../../da/d00/universal_2include_2userver_2formats_2common_2meta_8hpp.html" target="_top" xlink:title="Metaprogramming helpers for converters detection.">
<polygon fill="white" stroke="#666666" points="932,-217 792,-217 792,-187 932,-187 932,-217"/>
<text text-anchor="start" x="800" y="-205" font-family="Helvetica,sans-Serif" font-size="10.00">userver/formats/common</text>
<text text-anchor="middle" x="862" y="-194" font-family="Helvetica,sans-Serif" font-size="10.00">/meta.hpp</text>
</a>
</g>
</g>
<!-- Node9&#45;&gt;Node11 -->
<g id="edge11_Node000009_Node000011" class="edge">
<title>Node9&#45;&gt;Node11</title>
<g id="a_edge11_Node000009_Node000011"><a xlink:title=" ">
<path fill="none" stroke="#63b8ff" d="M722.28,-252.95C748.98,-243.41 784.49,-230.71 813.03,-220.51"/>
<polygon fill="#63b8ff" stroke="#63b8ff" points="814.57,-223.67 822.81,-217.01 812.21,-217.08 814.57,-223.67"/>
</a>
</g>
</g>
<!-- Node12 -->
<g id="Node000012" class="node">
<title>Node12</title>
<g id="a_Node000012"><a xlink:href="../../d2/dc8/universal_2include_2userver_2formats_2parse_2to_8hpp.html" target="_top" xlink:title="Helper for parsers.">
<polygon fill="white" stroke="#666666" points="1112.5,-151 987.5,-151 987.5,-121 1112.5,-121 1112.5,-151"/>
<text text-anchor="start" x="995.5" y="-139" font-family="Helvetica,sans-Serif" font-size="10.00">userver/formats/parse</text>
<text text-anchor="middle" x="1050" y="-128" font-family="Helvetica,sans-Serif" font-size="10.00">/to.hpp</text>
</a>
</g>
</g>
<!-- Node9&#45;&gt;Node12 -->
<g id="edge19_Node000009_Node000012" class="edge">
<title>Node9&#45;&gt;Node12</title>
<g id="a_edge19_Node000009_Node000012"><a xlink:title=" ">
<path fill="none" stroke="#63b8ff" d="M753.09,-262.44C806.59,-256.86 881.07,-244.47 941,-217 960.56,-208.03 961.75,-199.87 979,-187 992.55,-176.89 1007.85,-166.05 1020.77,-157.05"/>
<polygon fill="#63b8ff" stroke="#63b8ff" points="1023.06,-159.72 1029.28,-151.15 1019.07,-153.97 1023.06,-159.72"/>
</a>
</g>
</g>
<!-- Node16 -->
<g id="Node000016" class="node">
<title>Node16</title>
<g id="a_Node000016"><a xlink:href="../../d0/d03/universal_2include_2userver_2utils_2meta_8hpp.html" target="_top" xlink:title="Metaprogramming, template variables and concepts.">
<polygon fill="white" stroke="#666666" points="665.5,-211.5 538.5,-211.5 538.5,-192.5 665.5,-192.5 665.5,-211.5"/>
<text text-anchor="middle" x="602" y="-199.5" font-family="Helvetica,sans-Serif" font-size="10.00">userver/utils/meta.hpp</text>
</a>
</g>
</g>
<!-- Node9&#45;&gt;Node16 -->
<g id="edge20_Node000009_Node000016" class="edge">
<title>Node9&#45;&gt;Node16</title>
<g id="a_edge20_Node000009_Node000016"><a xlink:title=" ">
<path fill="none" stroke="#63b8ff" d="M665.02,-252.8C652.02,-242.53 634.49,-228.67 621.21,-218.18"/>
<polygon fill="#63b8ff" stroke="#63b8ff" points="623.21,-215.3 613.19,-211.84 618.87,-220.79 623.21,-215.3"/>
</a>
</g>
</g>
<!-- Node11&#45;&gt;Node10 -->
<g id="edge12_Node000011_Node000010" class="edge">
<title>Node11&#45;&gt;Node10</title>
<g id="a_edge12_Node000011_Node000010"><a xlink:title=" ">
<path fill="none" stroke="#63b8ff" d="M849.1,-186.83C840.72,-177.18 829.93,-163.87 822,-151 797.38,-111.04 810.91,-88.46 778,-55 763.49,-40.25 743.12,-29.75 725.15,-22.66"/>
<polygon fill="#63b8ff" stroke="#63b8ff" points="726.05,-19.27 715.46,-19.07 723.62,-25.83 726.05,-19.27"/>
</a>
</g>
</g>
<!-- Node11&#45;&gt;Node12 -->
<g id="edge13_Node000011_Node000012" class="edge">
<title>Node11&#45;&gt;Node12</title>
<g id="a_edge13_Node000011_Node000012"><a xlink:title=" ">
<path fill="none" stroke="#63b8ff" d="M903.26,-186.95C931.54,-177.33 969.25,-164.49 999.35,-154.24"/>
<polygon fill="#63b8ff" stroke="#63b8ff" points="1000.5,-157.55 1008.84,-151.01 998.24,-150.92 1000.5,-157.55"/>
</a>
</g>
</g>
<!-- Node13 -->
<g id="Node000013" class="node">
<title>Node13</title>
<g id="a_Node000013"><a xlink:href="../../d6/d8e/universal_2include_2userver_2formats_2serialize_2to_8hpp.html" target="_top" xlink:title="Helper for serializers.">
<polygon fill="white" stroke="#666666" points="969.5,-151 830.5,-151 830.5,-121 969.5,-121 969.5,-151"/>
<text text-anchor="start" x="838.5" y="-139" font-family="Helvetica,sans-Serif" font-size="10.00">userver/formats/serialize</text>
<text text-anchor="middle" x="900" y="-128" font-family="Helvetica,sans-Serif" font-size="10.00">/to.hpp</text>
</a>
</g>
</g>
<!-- Node11&#45;&gt;Node13 -->
<g id="edge14_Node000011_Node000013" class="edge">
<title>Node11&#45;&gt;Node13</title>
<g id="a_edge14_Node000011_Node000013"><a xlink:title=" ">
<path fill="none" stroke="#63b8ff" d="M870.43,-186.8C875.11,-178.92 881.03,-168.95 886.35,-159.99"/>
<polygon fill="#63b8ff" stroke="#63b8ff" points="889.49,-161.55 891.59,-151.16 883.48,-157.98 889.49,-161.55"/>
</a>
</g>
</g>
<!-- Node14 -->
<g id="Node000014" class="node">
<title>Node14</title>
<g id="a_Node000014"><a xlink:href="../../d3/da0/meta__light_8hpp.html" target="_top" xlink:title="Lightweight concepts.">
<polygon fill="white" stroke="#666666" points="736,-151 630,-151 630,-121 736,-121 736,-151"/>
<text text-anchor="start" x="638" y="-139" font-family="Helvetica,sans-Serif" font-size="10.00">userver/utils/meta</text>
<text text-anchor="middle" x="683" y="-128" font-family="Helvetica,sans-Serif" font-size="10.00">_light.hpp</text>
</a>
</g>
</g>
<!-- Node11&#45;&gt;Node14 -->
<g id="edge15_Node000011_Node000014" class="edge">
<title>Node11&#45;&gt;Node14</title>
<g id="a_edge15_Node000011_Node000014"><a xlink:title=" ">
<path fill="none" stroke="#63b8ff" d="M822.72,-186.95C796.02,-177.41 760.51,-164.71 731.97,-154.51"/>
<polygon fill="#63b8ff" stroke="#63b8ff" points="732.79,-151.08 722.19,-151.01 730.43,-157.67 732.79,-151.08"/>
</a>
</g>
</g>
<!-- Node14&#45;&gt;Node10 -->
<g id="edge16_Node000014_Node000010" class="edge">
<title>Node14&#45;&gt;Node10</title>
<g id="a_edge16_Node000014_Node000010"><a xlink:title=" ">
<path fill="none" stroke="#63b8ff" d="M658.83,-120.9C646.54,-112.26 632.79,-99.99 626,-85 620.5,-72.85 620.05,-66.93 626,-55 632.57,-41.82 645.1,-31.52 656.93,-24.16"/>
<polygon fill="#63b8ff" stroke="#63b8ff" points="658.8,-27.12 665.73,-19.1 655.32,-21.05 658.8,-27.12"/>
</a>
</g>
</g>
<!-- Node15 -->
<g id="Node000015" class="node">
<title>Node15</title>
<g id="a_Node000015"><a xlink:href="../../d9/dce/void__t_8hpp.html" target="_top" xlink:title="std::void_t implementation with workarounds for compiler bugs">
<polygon fill="white" stroke="#666666" points="735.5,-85 634.5,-85 634.5,-55 735.5,-55 735.5,-85"/>
<text text-anchor="start" x="642.5" y="-73" font-family="Helvetica,sans-Serif" font-size="10.00">userver/utils/void</text>
<text text-anchor="middle" x="685" y="-62" font-family="Helvetica,sans-Serif" font-size="10.00">_t.hpp</text>
</a>
</g>
</g>
<!-- Node14&#45;&gt;Node15 -->
<g id="edge17_Node000014_Node000015" class="edge">
<title>Node14&#45;&gt;Node15</title>
<g id="a_edge17_Node000014_Node000015"><a xlink:title=" ">
<path fill="none" stroke="#63b8ff" d="M683.44,-120.8C683.68,-113.34 683.97,-103.99 684.24,-95.41"/>
<polygon fill="#63b8ff" stroke="#63b8ff" points="687.74,-95.27 684.56,-85.16 680.75,-95.05 687.74,-95.27"/>
</a>
</g>
</g>
<!-- Node15&#45;&gt;Node10 -->
<g id="edge18_Node000015_Node000010" class="edge">
<title>Node15&#45;&gt;Node10</title>
<g id="a_edge18_Node000015_Node000010"><a xlink:title=" ">
<path fill="none" stroke="#63b8ff" d="M685,-54.84C685,-47.21 685,-37.7 685,-29.45"/>
<polygon fill="#63b8ff" stroke="#63b8ff" points="688.5,-29.27 685,-19.27 681.5,-29.27 688.5,-29.27"/>
</a>
</g>
</g>
<!-- Node16&#45;&gt;Node3 -->
<g id="edge23_Node000016_Node000003" class="edge">
<title>Node16&#45;&gt;Node3</title>
<g id="a_edge23_Node000016_Node000003"><a xlink:title=" ">
<path fill="none" stroke="#63b8ff" d="M554.95,-192.46C509.47,-183.73 438.86,-168.94 379,-151 376.86,-150.36 374.67,-149.66 372.47,-148.92"/>
<polygon fill="#63b8ff" stroke="#63b8ff" points="373.55,-145.58 362.96,-145.52 371.2,-152.18 373.55,-145.58"/>
</a>
</g>
</g>
<!-- Node16&#45;&gt;Node8 -->
<g id="edge25_Node000016_Node000008" class="edge">
<title>Node16&#45;&gt;Node8</title>
<g id="a_edge25_Node000016_Node000008"><a xlink:title=" ">
<path fill="none" stroke="#63b8ff" d="M572.5,-192.5C540.73,-183.14 488.86,-167.25 445,-151 443.61,-150.49 442.2,-149.95 440.78,-149.39"/>
<polygon fill="#63b8ff" stroke="#63b8ff" points="442.01,-146.11 431.42,-145.59 439.37,-152.6 442.01,-146.11"/>
</a>
</g>
</g>
<!-- Node16&#45;&gt;Node10 -->
<g id="edge24_Node000016_Node000010" class="edge">
<title>Node16&#45;&gt;Node10</title>
<g id="a_edge24_Node000016_Node000010"><a xlink:title=" ">
<path fill="none" stroke="#63b8ff" d="M600.48,-192.3C596.76,-168.36 589.44,-100.27 617,-55 625.4,-41.19 639.91,-30.83 653.36,-23.6"/>
<polygon fill="#63b8ff" stroke="#63b8ff" points="655.03,-26.68 662.42,-19.09 651.91,-20.41 655.03,-26.68"/>
</a>
</g>
</g>
<!-- Node16&#45;&gt;Node14 -->
<g id="edge26_Node000016_Node000014" class="edge">
<title>Node16&#45;&gt;Node14</title>
<g id="a_edge26_Node000016_Node000014"><a xlink:title=" ">
<path fill="none" stroke="#63b8ff" d="M612.92,-192.37C624.22,-183.44 642.26,-169.19 657.21,-157.38"/>
<polygon fill="#63b8ff" stroke="#63b8ff" points="659.46,-160.06 665.13,-151.12 655.12,-154.57 659.46,-160.06"/>
</a>
</g>
</g>
<!-- Node17 -->
<g id="Node000017" class="node">
<title>Node17</title>
<g id="a_Node000017"><a xlink:title=" ">
<polygon fill="#e0e0e0" stroke="#999999" points="502,-145.5 454,-145.5 454,-126.5 502,-126.5 502,-145.5"/>
<text text-anchor="middle" x="478" y="-133.5" font-family="Helvetica,sans-Serif" font-size="10.00">iosfwd</text>
</a>
</g>
</g>
<!-- Node16&#45;&gt;Node17 -->
<g id="edge21_Node000016_Node000017" class="edge">
<title>Node16&#45;&gt;Node17</title>
<g id="a_edge21_Node000016_Node000017"><a xlink:title=" ">
<path fill="none" stroke="#63b8ff" d="M585.28,-192.37C564.38,-181.59 528.41,-163.02 503.93,-150.38"/>
<polygon fill="#63b8ff" stroke="#63b8ff" points="505.35,-147.18 494.85,-145.7 502.14,-153.4 505.35,-147.18"/>
</a>
</g>
</g>
<!-- Node18 -->
<g id="Node000018" class="node">
<title>Node18</title>
<g id="a_Node000018"><a xlink:title=" ">
<polygon fill="#e0e0e0" stroke="#999999" points="573.5,-145.5 520.5,-145.5 520.5,-126.5 573.5,-126.5 573.5,-145.5"/>
<text text-anchor="middle" x="547" y="-133.5" font-family="Helvetica,sans-Serif" font-size="10.00">iterator</text>
</a>
</g>
</g>
<!-- Node16&#45;&gt;Node18 -->
<g id="edge22_Node000016_Node000018" class="edge">
<title>Node16&#45;&gt;Node18</title>
<g id="a_edge22_Node000016_Node000018"><a xlink:title=" ">
<path fill="none" stroke="#63b8ff" d="M594.58,-192.37C586.1,-182.5 572.02,-166.11 561.37,-153.72"/>
<polygon fill="#63b8ff" stroke="#63b8ff" points="563.83,-151.21 554.65,-145.91 558.52,-155.77 563.83,-151.21"/>
</a>
</g>
</g>
<!-- Node19&#45;&gt;Node12 -->
<g id="edge28_Node000019_Node000012" class="edge">
<title>Node19&#45;&gt;Node12</title>
<g id="a_edge28_Node000019_Node000012"><a xlink:title=" ">
<path fill="none" stroke="#63b8ff" d="M1049.22,-186.8C1049.34,-179.34 1049.48,-169.99 1049.62,-161.41"/>
<polygon fill="#63b8ff" stroke="#63b8ff" points="1053.12,-161.22 1049.78,-151.16 1046.12,-161.11 1053.12,-161.22"/>
</a>
</g>
</g>
<!-- Node19&#45;&gt;Node13 -->
<g id="edge29_Node000019_Node000013" class="edge">
<title>Node19&#45;&gt;Node13</title>
<g id="a_edge29_Node000019_Node000013"><a xlink:title=" ">
<path fill="none" stroke="#63b8ff" d="M1016.3,-186.95C994.47,-177.58 965.55,-165.16 942.01,-155.05"/>
<polygon fill="#63b8ff" stroke="#63b8ff" points="943.19,-151.74 932.62,-151.01 940.43,-158.17 943.19,-151.74"/>
</a>
</g>
</g>
</g>
</svg>
