<?xml version="1.0" encoding="UTF-8" standalone="no"?>
<!DOCTYPE svg PUBLIC "-//W3C//DTD SVG 1.1//EN"
 "http://www.w3.org/Graphics/SVG/1.1/DTD/svg11.dtd">
<!-- Generated by graphviz version 2.43.0 (0)
 -->
<!-- Title: userver/fs/read.hpp Pages: 1 -->
<svg width="176pt" height="225pt"
 viewBox="0.00 0.00 176.00 225.00" xmlns="http://www.w3.org/2000/svg" xmlns:xlink="http://www.w3.org/1999/xlink">
<g id="graph0" class="graph" transform="scale(1 1) rotate(0) translate(4 221)">
<title>userver/fs/read.hpp</title>
<!-- Node1 -->
<g id="Node000001" class="node">
<title>Node1</title>
<g id="a_Node000001"><a xlink:title="functions for asynchronous file read operations">
<polygon fill="#999999" stroke="#666666" points="156.5,-217 45.5,-217 45.5,-198 156.5,-198 156.5,-217"/>
<text text-anchor="middle" x="101" y="-205" font-family="Helvetica,sans-Serif" font-size="10.00">userver/fs/read.hpp</text>
</a>
</g>
</g>
<!-- Node2 -->
<g id="Node000002" class="node">
<title>Node2</title>
<g id="a_Node000002"><a xlink:href="../../d6/dc2/fs__cache__client_8hpp.html" target="_top" xlink:title="@copybref fs::FsCacheClient">
<polygon fill="white" stroke="#666666" points="156.5,-162 45.5,-162 45.5,-132 156.5,-132 156.5,-162"/>
<text text-anchor="start" x="53.5" y="-150" font-family="Helvetica,sans-Serif" font-size="10.00">userver/fs/fs_cache</text>
<text text-anchor="middle" x="101" y="-139" font-family="Helvetica,sans-Serif" font-size="10.00">_client.hpp</text>
</a>
</g>
</g>
<!-- Node1&#45;&gt;Node2 -->
<g id="edge1_Node000001_Node000002" class="edge">
<title>Node1&#45;&gt;Node2</title>
<g id="a_edge1_Node000001_Node000002"><a xlink:title=" ">
<path fill="none" stroke="#63b8ff" d="M101,-187.65C101,-179.36 101,-169.78 101,-162.11"/>
<polygon fill="#63b8ff" stroke="#63b8ff" points="97.5,-187.87 101,-197.87 104.5,-187.87 97.5,-187.87"/>
</a>
</g>
</g>
<!-- Node3 -->
<g id="Node000003" class="node">
<title>Node3</title>
<g id="a_Node000003"><a xlink:href="../../d1/d41/fs__cache_8hpp.html" target="_top" xlink:title="Component for storing files in memory.">
<polygon fill="white" stroke="#666666" points="116,-96 0,-96 0,-66 116,-66 116,-96"/>
<text text-anchor="start" x="8" y="-84" font-family="Helvetica,sans-Serif" font-size="10.00">userver/components</text>
<text text-anchor="middle" x="58" y="-73" font-family="Helvetica,sans-Serif" font-size="10.00">/fs_cache.hpp</text>
</a>
</g>
</g>
<!-- Node2&#45;&gt;Node3 -->
<g id="edge2_Node000002_Node000003" class="edge">
<title>Node2&#45;&gt;Node3</title>
<g id="a_edge2_Node000002_Node000003"><a xlink:title=" ">
<path fill="none" stroke="#63b8ff" d="M85.71,-123.24C79.64,-114.21 72.86,-104.11 67.52,-96.16"/>
<polygon fill="#63b8ff" stroke="#63b8ff" points="82.97,-125.45 91.46,-131.8 88.79,-121.54 82.97,-125.45"/>
</a>
</g>
</g>
<!-- Node4 -->
<g id="Node000004" class="node">
<title>Node4</title>
<g id="a_Node000004"><a xlink:href="../../dd/db6/http__handler__static_8hpp.html" target="_top" xlink:title="Handler that returns HTTP 200 if file exist and returns file data with mapped content/type.">
<polygon fill="white" stroke="#666666" points="168,-30 34,-30 34,0 168,0 168,-30"/>
<text text-anchor="start" x="42" y="-18" font-family="Helvetica,sans-Serif" font-size="10.00">userver/server/handlers</text>
<text text-anchor="middle" x="101" y="-7" font-family="Helvetica,sans-Serif" font-size="10.00">/http_handler_static.hpp</text>
</a>
</g>
</g>
<!-- Node2&#45;&gt;Node4 -->
<g id="edge4_Node000002_Node000004" class="edge">
<title>Node2&#45;&gt;Node4</title>
<g id="a_edge4_Node000002_Node000004"><a xlink:title=" ">
<path fill="none" stroke="#63b8ff" d="M114.78,-122.82C118.92,-114.64 122.91,-105.18 125,-96 127.96,-83 127.96,-79 125,-66 122.09,-53.23 115.5,-39.92 109.96,-30.24"/>
<polygon fill="#63b8ff" stroke="#63b8ff" points="111.63,-121.29 109.96,-131.76 117.79,-124.62 111.63,-121.29"/>
</a>
</g>
</g>
<!-- Node3&#45;&gt;Node4 -->
<g id="edge3_Node000003_Node000004" class="edge">
<title>Node3&#45;&gt;Node4</title>
<g id="a_edge3_Node000003_Node000004"><a xlink:title=" ">
<path fill="none" stroke="#63b8ff" d="M73.29,-57.24C79.36,-48.21 86.14,-38.11 91.48,-30.16"/>
<polygon fill="#63b8ff" stroke="#63b8ff" points="70.21,-55.54 67.54,-65.8 76.03,-59.45 70.21,-55.54"/>
</a>
</g>
</g>
</g>
</svg>
