<?xml version="1.0" encoding="UTF-8" standalone="no"?>
<!DOCTYPE svg PUBLIC "-//W3C//DTD SVG 1.1//EN"
 "http://www.w3.org/Graphics/SVG/1.1/DTD/svg11.dtd">
<!-- Generated by graphviz version 2.43.0 (0)
 -->
<!-- Title: storages::postgres::CompositeMemberTypeMismatch Pages: 1 -->
<svg width="194pt" height="346pt"
 viewBox="0.00 0.00 194.00 346.00" xmlns="http://www.w3.org/2000/svg" xmlns:xlink="http://www.w3.org/1999/xlink">
<g id="graph0" class="graph" transform="scale(1 1) rotate(0) translate(4 342)">
<title>storages::postgres::CompositeMemberTypeMismatch</title>
<!-- Node1 -->
<g id="Node000001" class="node">
<title>Node1</title>
<g id="a_Node000001"><a xlink:title="PostgreSQL composite type has different member type that the C++ mapping suggests.">
<polygon fill="#999999" stroke="#666666" points="186,-30 0,-30 0,0 186,0 186,-30"/>
<text text-anchor="start" x="8" y="-18" font-family="Helvetica,sans-Serif" font-size="10.00">storages::postgres</text>
<text text-anchor="middle" x="93" y="-7" font-family="Helvetica,sans-Serif" font-size="10.00">::CompositeMemberTypeMismatch</text>
</a>
</g>
</g>
<!-- Node2 -->
<g id="Node000002" class="node">
<title>Node2</title>
<g id="a_Node000002"><a xlink:href="../../d8/d1c/classstorages_1_1postgres_1_1UserTypeError.html" target="_top" xlink:title="Base error when working with mapped types.">
<polygon fill="white" stroke="#666666" points="146.5,-96 39.5,-96 39.5,-66 146.5,-66 146.5,-96"/>
<text text-anchor="start" x="47.5" y="-84" font-family="Helvetica,sans-Serif" font-size="10.00">storages::postgres</text>
<text text-anchor="middle" x="93" y="-73" font-family="Helvetica,sans-Serif" font-size="10.00">::UserTypeError</text>
</a>
</g>
</g>
<!-- Node2&#45;&gt;Node1 -->
<g id="edge1_Node000001_Node000002" class="edge">
<title>Node2&#45;&gt;Node1</title>
<g id="a_edge1_Node000001_Node000002"><a xlink:title=" ">
<path fill="none" stroke="#63b8ff" d="M93,-55.54C93,-46.96 93,-37.61 93,-30.16"/>
<polygon fill="#63b8ff" stroke="#63b8ff" points="89.5,-55.8 93,-65.8 96.5,-55.8 89.5,-55.8"/>
</a>
</g>
</g>
<!-- Node3 -->
<g id="Node000003" class="node">
<title>Node3</title>
<g id="a_Node000003"><a xlink:href="../../d4/d74/classstorages_1_1postgres_1_1LogicError.html" target="_top" xlink:title="Base Postgres logic error. Reports errors that are consequences of erroneous driver usage,...">
<polygon fill="white" stroke="#666666" points="146.5,-162 39.5,-162 39.5,-132 146.5,-132 146.5,-162"/>
<text text-anchor="start" x="47.5" y="-150" font-family="Helvetica,sans-Serif" font-size="10.00">storages::postgres</text>
<text text-anchor="middle" x="93" y="-139" font-family="Helvetica,sans-Serif" font-size="10.00">::LogicError</text>
</a>
</g>
</g>
<!-- Node3&#45;&gt;Node2 -->
<g id="edge2_Node000002_Node000003" class="edge">
<title>Node3&#45;&gt;Node2</title>
<g id="a_edge2_Node000002_Node000003"><a xlink:title=" ">
<path fill="none" stroke="#63b8ff" d="M93,-121.54C93,-112.96 93,-103.61 93,-96.16"/>
<polygon fill="#63b8ff" stroke="#63b8ff" points="89.5,-121.8 93,-131.8 96.5,-121.8 89.5,-121.8"/>
</a>
</g>
</g>
<!-- Node4 -->
<g id="Node000004" class="node">
<title>Node4</title>
<g id="a_Node000004"><a xlink:href="../../df/d3d/classstorages_1_1postgres_1_1Error.html" target="_top" xlink:title="Base class for all exceptions that may be thrown by the driver.">
<polygon fill="white" stroke="#666666" points="146.5,-228 39.5,-228 39.5,-198 146.5,-198 146.5,-228"/>
<text text-anchor="start" x="47.5" y="-216" font-family="Helvetica,sans-Serif" font-size="10.00">storages::postgres</text>
<text text-anchor="middle" x="93" y="-205" font-family="Helvetica,sans-Serif" font-size="10.00">::Error</text>
</a>
</g>
</g>
<!-- Node4&#45;&gt;Node3 -->
<g id="edge3_Node000003_Node000004" class="edge">
<title>Node4&#45;&gt;Node3</title>
<g id="a_edge3_Node000003_Node000004"><a xlink:title=" ">
<path fill="none" stroke="#63b8ff" d="M93,-187.54C93,-178.96 93,-169.61 93,-162.16"/>
<polygon fill="#63b8ff" stroke="#63b8ff" points="89.5,-187.8 93,-197.8 96.5,-187.8 89.5,-187.8"/>
</a>
</g>
</g>
<!-- Node5 -->
<g id="Node000005" class="node">
<title>Node5</title>
<g id="a_Node000005"><a xlink:title=" ">
<polygon fill="white" stroke="#666666" points="145,-283 41,-283 41,-264 145,-264 145,-283"/>
<text text-anchor="middle" x="93" y="-271" font-family="Helvetica,sans-Serif" font-size="10.00">std::runtime_error</text>
</a>
</g>
</g>
<!-- Node5&#45;&gt;Node4 -->
<g id="edge4_Node000004_Node000005" class="edge">
<title>Node5&#45;&gt;Node4</title>
<g id="a_edge4_Node000004_Node000005"><a xlink:title=" ">
<path fill="none" stroke="#63b8ff" d="M93,-253.65C93,-245.36 93,-235.78 93,-228.11"/>
<polygon fill="#63b8ff" stroke="#63b8ff" points="89.5,-253.87 93,-263.87 96.5,-253.87 89.5,-253.87"/>
</a>
</g>
</g>
<!-- Node6 -->
<g id="Node000006" class="node">
<title>Node6</title>
<g id="a_Node000006"><a xlink:title=" ">
<polygon fill="white" stroke="#666666" points="136,-338 50,-338 50,-319 136,-319 136,-338"/>
<text text-anchor="middle" x="93" y="-326" font-family="Helvetica,sans-Serif" font-size="10.00">std::exception</text>
</a>
</g>
</g>
<!-- Node6&#45;&gt;Node5 -->
<g id="edge5_Node000005_Node000006" class="edge">
<title>Node6&#45;&gt;Node5</title>
<g id="a_edge5_Node000005_Node000006"><a xlink:title=" ">
<path fill="none" stroke="#63b8ff" d="M93,-308.66C93,-299.93 93,-289.99 93,-283.09"/>
<polygon fill="#63b8ff" stroke="#63b8ff" points="89.5,-308.75 93,-318.75 96.5,-308.75 89.5,-308.75"/>
</a>
</g>
</g>
</g>
</svg>
