<?xml version="1.0" encoding="UTF-8" standalone="no"?>
<!DOCTYPE svg PUBLIC "-//W3C//DTD SVG 1.1//EN"
 "http://www.w3.org/Graphics/SVG/1.1/DTD/svg11.dtd">
<!-- Generated by graphviz version 2.43.0 (0)
 -->
<!-- Title: userver/utils/text.hpp Pages: 1 -->
<svg width="224pt" height="148pt"
 viewBox="0.00 0.00 223.50 148.00" xmlns="http://www.w3.org/2000/svg" xmlns:xlink="http://www.w3.org/1999/xlink">
<g id="graph0" class="graph" transform="scale(1 1) rotate(0) translate(4 144)">
<title>userver/utils/text.hpp</title>
<!-- Node1 -->
<g id="Node000001" class="node">
<title>Node1</title>
<g id="a_Node000001"><a xlink:title="Text utilities.">
<polygon fill="#999999" stroke="#666666" points="128.5,-140 7.5,-140 7.5,-121 128.5,-121 128.5,-140"/>
<text text-anchor="middle" x="68" y="-128" font-family="Helvetica,sans-Serif" font-size="10.00">userver/utils/text.hpp</text>
</a>
</g>
</g>
<!-- Node2 -->
<g id="Node000002" class="node">
<title>Node2</title>
<g id="a_Node000002"><a xlink:title=" ">
<polygon fill="#e0e0e0" stroke="#999999" points="46,-79.5 0,-79.5 0,-60.5 46,-60.5 46,-79.5"/>
<text text-anchor="middle" x="23" y="-67.5" font-family="Helvetica,sans-Serif" font-size="10.00">locale</text>
</a>
</g>
</g>
<!-- Node1&#45;&gt;Node2 -->
<g id="edge1_Node000001_Node000002" class="edge">
<title>Node1&#45;&gt;Node2</title>
<g id="a_edge1_Node000001_Node000002"><a xlink:title=" ">
<path fill="none" stroke="#63b8ff" d="M61.36,-120.87C54.71,-112.23 44.31,-98.7 36.01,-87.92"/>
<polygon fill="#63b8ff" stroke="#63b8ff" points="38.54,-85.46 29.67,-79.67 32.99,-89.73 38.54,-85.46"/>
</a>
</g>
</g>
<!-- Node3 -->
<g id="Node000003" class="node">
<title>Node3</title>
<g id="a_Node000003"><a xlink:href="../../d5/dc9/text__light_8hpp.html" target="_top" xlink:title="Text utilities that do not use locales.">
<polygon fill="white" stroke="#666666" points="164,-85 64,-85 64,-55 164,-55 164,-85"/>
<text text-anchor="start" x="72" y="-73" font-family="Helvetica,sans-Serif" font-size="10.00">userver/utils/text</text>
<text text-anchor="middle" x="114" y="-62" font-family="Helvetica,sans-Serif" font-size="10.00">_light.hpp</text>
</a>
</g>
</g>
<!-- Node1&#45;&gt;Node3 -->
<g id="edge2_Node000001_Node000003" class="edge">
<title>Node1&#45;&gt;Node3</title>
<g id="a_edge2_Node000001_Node000003"><a xlink:title=" ">
<path fill="none" stroke="#63b8ff" d="M74.79,-120.87C80.51,-113.59 88.95,-102.85 96.54,-93.2"/>
<polygon fill="#63b8ff" stroke="#63b8ff" points="99.47,-95.14 102.9,-85.11 93.97,-90.81 99.47,-95.14"/>
</a>
</g>
</g>
<!-- Node4 -->
<g id="Node000004" class="node">
<title>Node4</title>
<g id="a_Node000004"><a xlink:title=" ">
<polygon fill="#e0e0e0" stroke="#999999" points="59,-19 15,-19 15,0 59,0 59,-19"/>
<text text-anchor="middle" x="37" y="-7" font-family="Helvetica,sans-Serif" font-size="10.00">string</text>
</a>
</g>
</g>
<!-- Node3&#45;&gt;Node4 -->
<g id="edge3_Node000003_Node000004" class="edge">
<title>Node3&#45;&gt;Node4</title>
<g id="a_edge3_Node000003_Node000004"><a xlink:title=" ">
<path fill="none" stroke="#63b8ff" d="M95.36,-54.84C83.61,-45.91 68.47,-34.41 56.55,-25.35"/>
<polygon fill="#63b8ff" stroke="#63b8ff" points="58.62,-22.53 48.54,-19.27 54.38,-28.1 58.62,-22.53"/>
</a>
</g>
</g>
<!-- Node5 -->
<g id="Node000005" class="node">
<title>Node5</title>
<g id="a_Node000005"><a xlink:title=" ">
<polygon fill="#e0e0e0" stroke="#999999" points="150.5,-19 77.5,-19 77.5,0 150.5,0 150.5,-19"/>
<text text-anchor="middle" x="114" y="-7" font-family="Helvetica,sans-Serif" font-size="10.00">string_view</text>
</a>
</g>
</g>
<!-- Node3&#45;&gt;Node5 -->
<g id="edge4_Node000003_Node000005" class="edge">
<title>Node3&#45;&gt;Node5</title>
<g id="a_edge4_Node000003_Node000005"><a xlink:title=" ">
<path fill="none" stroke="#63b8ff" d="M114,-54.84C114,-47.21 114,-37.7 114,-29.45"/>
<polygon fill="#63b8ff" stroke="#63b8ff" points="117.5,-29.27 114,-19.27 110.5,-29.27 117.5,-29.27"/>
</a>
</g>
</g>
<!-- Node6 -->
<g id="Node000006" class="node">
<title>Node6</title>
<g id="a_Node000006"><a xlink:title=" ">
<polygon fill="#e0e0e0" stroke="#999999" points="215.5,-19 168.5,-19 168.5,0 215.5,0 215.5,-19"/>
<text text-anchor="middle" x="192" y="-7" font-family="Helvetica,sans-Serif" font-size="10.00">vector</text>
</a>
</g>
</g>
<!-- Node3&#45;&gt;Node6 -->
<g id="edge5_Node000003_Node000006" class="edge">
<title>Node3&#45;&gt;Node6</title>
<g id="a_edge5_Node000003_Node000006"><a xlink:title=" ">
<path fill="none" stroke="#63b8ff" d="M132.88,-54.84C144.78,-45.91 160.12,-34.41 172.2,-25.35"/>
<polygon fill="#63b8ff" stroke="#63b8ff" points="174.41,-28.07 180.31,-19.27 170.21,-22.47 174.41,-28.07"/>
</a>
</g>
</g>
</g>
</svg>
