<?xml version="1.0" encoding="UTF-8" standalone="no"?>
<!DOCTYPE svg PUBLIC "-//W3C//DTD SVG 1.1//EN"
 "http://www.w3.org/Graphics/SVG/1.1/DTD/svg11.dtd">
<!-- Generated by graphviz version 2.43.0 (0)
 -->
<!-- Title: userver/dump/dumper.hpp Pages: 1 -->
<svg width="1316pt" height="346pt"
 viewBox="0.00 0.00 1315.63 346.00" xmlns="http://www.w3.org/2000/svg" xmlns:xlink="http://www.w3.org/1999/xlink">
<g id="graph0" class="graph" transform="scale(1 1) rotate(0) translate(4 342)">
<title>userver/dump/dumper.hpp</title>
<!-- Node1 -->
<g id="Node000001" class="node">
<title>Node1</title>
<g id="a_Node000001"><a xlink:title="Manages dumps of a cache&#45;like component.">
<polygon fill="#999999" stroke="#666666" points="497.63,-338 352.63,-338 352.63,-319 497.63,-319 497.63,-338"/>
<text text-anchor="middle" x="425.13" y="-326" font-family="Helvetica,sans-Serif" font-size="10.00">userver/dump/dumper.hpp</text>
</a>
</g>
</g>
<!-- Node2 -->
<g id="Node000002" class="node">
<title>Node2</title>
<g id="a_Node000002"><a xlink:title=" ">
<polygon fill="#e0e0e0" stroke="#999999" points="138.13,-211.5 88.13,-211.5 88.13,-192.5 138.13,-192.5 138.13,-211.5"/>
<text text-anchor="middle" x="113.13" y="-199.5" font-family="Helvetica,sans-Serif" font-size="10.00">chrono</text>
</a>
</g>
</g>
<!-- Node1&#45;&gt;Node2 -->
<g id="edge1_Node000001_Node000002" class="edge">
<title>Node1&#45;&gt;Node2</title>
<g id="a_edge1_Node000001_Node000002"><a xlink:title=" ">
<path fill="none" stroke="#63b8ff" d="M352.18,-324.94C238.51,-320.19 29.73,-308.13 7.13,-283 -19.5,-253.38 38.08,-227.31 78.35,-213.48"/>
<polygon fill="#63b8ff" stroke="#63b8ff" points="79.51,-216.78 87.9,-210.32 77.31,-210.14 79.51,-216.78"/>
</a>
</g>
</g>
<!-- Node3 -->
<g id="Node000003" class="node">
<title>Node3</title>
<g id="a_Node000003"><a xlink:title=" ">
<polygon fill="#e0e0e0" stroke="#999999" points="74.13,-277.5 16.13,-277.5 16.13,-258.5 74.13,-258.5 74.13,-277.5"/>
<text text-anchor="middle" x="45.13" y="-265.5" font-family="Helvetica,sans-Serif" font-size="10.00">memory</text>
</a>
</g>
</g>
<!-- Node1&#45;&gt;Node3 -->
<g id="edge2_Node000001_Node000003" class="edge">
<title>Node1&#45;&gt;Node3</title>
<g id="a_edge2_Node000001_Node000003"><a xlink:title=" ">
<path fill="none" stroke="#63b8ff" d="M352.54,-322.78C282.71,-317.14 174.56,-305.49 83.13,-283 80.62,-282.38 78.05,-281.65 75.49,-280.86"/>
<polygon fill="#63b8ff" stroke="#63b8ff" points="76.37,-277.46 65.78,-277.56 74.12,-284.09 76.37,-277.46"/>
</a>
</g>
</g>
<!-- Node4 -->
<g id="Node000004" class="node">
<title>Node4</title>
<g id="a_Node000004"><a xlink:title=" ">
<polygon fill="#e0e0e0" stroke="#999999" points="148.13,-277.5 92.13,-277.5 92.13,-258.5 148.13,-258.5 148.13,-277.5"/>
<text text-anchor="middle" x="120.13" y="-265.5" font-family="Helvetica,sans-Serif" font-size="10.00">optional</text>
</a>
</g>
</g>
<!-- Node1&#45;&gt;Node4 -->
<g id="edge3_Node000001_Node000004" class="edge">
<title>Node1&#45;&gt;Node4</title>
<g id="a_edge3_Node000001_Node000004"><a xlink:title=" ">
<path fill="none" stroke="#63b8ff" d="M352.36,-319.36C297.98,-312.33 222.14,-300.51 157.13,-283 154.84,-282.38 152.49,-281.68 150.14,-280.92"/>
<polygon fill="#63b8ff" stroke="#63b8ff" points="151.23,-277.59 140.64,-277.58 148.92,-284.2 151.23,-277.59"/>
</a>
</g>
</g>
<!-- Node5 -->
<g id="Node000005" class="node">
<title>Node5</title>
<g id="a_Node000005"><a xlink:title=" ">
<polygon fill="#e0e0e0" stroke="#999999" points="367.13,-211.5 323.13,-211.5 323.13,-192.5 367.13,-192.5 367.13,-211.5"/>
<text text-anchor="middle" x="345.13" y="-199.5" font-family="Helvetica,sans-Serif" font-size="10.00">string</text>
</a>
</g>
</g>
<!-- Node1&#45;&gt;Node5 -->
<g id="edge4_Node000001_Node000005" class="edge">
<title>Node1&#45;&gt;Node5</title>
<g id="a_edge4_Node000001_Node000005"><a xlink:title=" ">
<path fill="none" stroke="#63b8ff" d="M403.12,-318.92C387.69,-311.71 367.95,-299.87 357.13,-283 345.43,-264.75 343.48,-239.42 343.77,-222.18"/>
<polygon fill="#63b8ff" stroke="#63b8ff" points="347.29,-221.88 344.24,-211.73 340.3,-221.56 347.29,-221.88"/>
</a>
</g>
</g>
<!-- Node6 -->
<g id="Node000006" class="node">
<title>Node6</title>
<g id="a_Node000006"><a xlink:href="../../d7/d47/component__fwd_8hpp.html" target="_top" xlink:title="Forward declarations for components::ComponentContext and components::ComponentConfig; function compo...">
<polygon fill="white" stroke="#666666" points="484.13,-283 366.13,-283 366.13,-253 484.13,-253 484.13,-283"/>
<text text-anchor="start" x="374.13" y="-271" font-family="Helvetica,sans-Serif" font-size="10.00">userver/components</text>
<text text-anchor="middle" x="425.13" y="-260" font-family="Helvetica,sans-Serif" font-size="10.00">/component_fwd.hpp</text>
</a>
</g>
</g>
<!-- Node1&#45;&gt;Node6 -->
<g id="edge5_Node000001_Node000006" class="edge">
<title>Node1&#45;&gt;Node6</title>
<g id="a_edge5_Node000001_Node000006"><a xlink:title=" ">
<path fill="none" stroke="#63b8ff" d="M425.13,-318.87C425.13,-312.11 425.13,-302.35 425.13,-293.26"/>
<polygon fill="#63b8ff" stroke="#63b8ff" points="428.63,-293.11 425.13,-283.11 421.63,-293.11 428.63,-293.11"/>
</a>
</g>
</g>
<!-- Node7 -->
<g id="Node000007" class="node">
<title>Node7</title>
<g id="a_Node000007"><a xlink:href="../../df/da0/dump_2helpers_8hpp.html" target="_top" xlink:title="Dump utils.">
<polygon fill="white" stroke="#666666" points="310.13,-277.5 166.13,-277.5 166.13,-258.5 310.13,-258.5 310.13,-277.5"/>
<text text-anchor="middle" x="238.13" y="-265.5" font-family="Helvetica,sans-Serif" font-size="10.00">userver/dump/helpers.hpp</text>
</a>
</g>
</g>
<!-- Node1&#45;&gt;Node7 -->
<g id="edge7_Node000001_Node000007" class="edge">
<title>Node1&#45;&gt;Node7</title>
<g id="a_edge7_Node000001_Node000007"><a xlink:title=" ">
<path fill="none" stroke="#63b8ff" d="M397.94,-318.99C365.53,-308.86 311.23,-291.87 275.05,-280.55"/>
<polygon fill="#63b8ff" stroke="#63b8ff" points="275.95,-277.16 265.36,-277.52 273.86,-283.84 275.95,-277.16"/>
</a>
</g>
</g>
<!-- Node8 -->
<g id="Node000008" class="node">
<title>Node8</title>
<g id="a_Node000008"><a xlink:href="../../d3/d3c/core_2include_2userver_2dump_2operations_8hpp_source.html" target="_top" xlink:title=" ">
<polygon fill="white" stroke="#666666" points="662.13,-277.5 502.13,-277.5 502.13,-258.5 662.13,-258.5 662.13,-277.5"/>
<text text-anchor="middle" x="582.13" y="-265.5" font-family="Helvetica,sans-Serif" font-size="10.00">userver/dump/operations.hpp</text>
</a>
</g>
</g>
<!-- Node1&#45;&gt;Node8 -->
<g id="edge10_Node000001_Node000008" class="edge">
<title>Node1&#45;&gt;Node8</title>
<g id="a_edge10_Node000001_Node000008"><a xlink:title=" ">
<path fill="none" stroke="#63b8ff" d="M447.96,-318.99C474.71,-309.03 519.21,-292.45 549.57,-281.13"/>
<polygon fill="#63b8ff" stroke="#63b8ff" points="551.13,-284.29 559.28,-277.52 548.68,-277.73 551.13,-284.29"/>
</a>
</g>
</g>
<!-- Node17 -->
<g id="Node000017" class="node">
<title>Node17</title>
<g id="a_Node000017"><a xlink:href="../../df/d7e/core_2include_2userver_2dynamic__config_2fwd_8hpp.html" target="_top" xlink:title="Forward declarations of dynamic_config classes.">
<polygon fill="white" stroke="#666666" points="813.63,-283 680.63,-283 680.63,-253 813.63,-253 813.63,-283"/>
<text text-anchor="start" x="688.63" y="-271" font-family="Helvetica,sans-Serif" font-size="10.00">userver/dynamic_config</text>
<text text-anchor="middle" x="747.13" y="-260" font-family="Helvetica,sans-Serif" font-size="10.00">/fwd.hpp</text>
</a>
</g>
</g>
<!-- Node1&#45;&gt;Node17 -->
<g id="edge25_Node000001_Node000017" class="edge">
<title>Node1&#45;&gt;Node17</title>
<g id="a_edge25_Node000001_Node000017"><a xlink:title=" ">
<path fill="none" stroke="#63b8ff" d="M472.76,-318.93C520.19,-310.39 595.37,-296.82 670.32,-283.15"/>
<polygon fill="#63b8ff" stroke="#63b8ff" points="671.2,-286.54 680.41,-281.3 669.94,-279.66 671.2,-286.54"/>
</a>
</g>
</g>
<!-- Node18 -->
<g id="Node000018" class="node">
<title>Node18</title>
<g id="a_Node000018"><a xlink:href="../../d8/d03/task__processor__fwd_8hpp.html" target="_top" xlink:title=" ">
<polygon fill="white" stroke="#666666" points="968.63,-283 831.63,-283 831.63,-253 968.63,-253 968.63,-283"/>
<text text-anchor="start" x="839.63" y="-271" font-family="Helvetica,sans-Serif" font-size="10.00">userver/engine/task</text>
<text text-anchor="middle" x="900.13" y="-260" font-family="Helvetica,sans-Serif" font-size="10.00">/task_processor_fwd.hpp</text>
</a>
</g>
</g>
<!-- Node1&#45;&gt;Node18 -->
<g id="edge26_Node000001_Node000018" class="edge">
<title>Node1&#45;&gt;Node18</title>
<g id="a_edge26_Node000001_Node000018"><a xlink:title=" ">
<path fill="none" stroke="#63b8ff" d="M497.76,-320.81C575.32,-313.34 702.07,-300.19 821.24,-283.07"/>
<polygon fill="#63b8ff" stroke="#63b8ff" points="821.87,-286.51 831.27,-281.61 820.87,-279.58 821.87,-286.51"/>
</a>
</g>
</g>
<!-- Node20 -->
<g id="Node000020" class="node">
<title>Node20</title>
<g id="a_Node000020"><a xlink:href="../../d5/d02/fast__pimpl_8hpp.html" target="_top" xlink:title="Implements pimpl idiom without dynamic memory allocation.">
<polygon fill="white" stroke="#666666" points="1085.63,-283 986.63,-283 986.63,-253 1085.63,-253 1085.63,-283"/>
<text text-anchor="start" x="994.63" y="-271" font-family="Helvetica,sans-Serif" font-size="10.00">userver/utils/fast</text>
<text text-anchor="middle" x="1036.13" y="-260" font-family="Helvetica,sans-Serif" font-size="10.00">_pimpl.hpp</text>
</a>
</g>
</g>
<!-- Node1&#45;&gt;Node20 -->
<g id="edge28_Node000001_Node000020" class="edge">
<title>Node1&#45;&gt;Node20</title>
<g id="a_edge28_Node000001_Node000020"><a xlink:title=" ">
<path fill="none" stroke="#63b8ff" d="M498.03,-325.27C602.25,-321.27 799.91,-310.7 976.57,-283.09"/>
<polygon fill="#63b8ff" stroke="#63b8ff" points="977.23,-286.53 986.56,-281.51 976.14,-279.61 977.23,-286.53"/>
</a>
</g>
</g>
<!-- Node24 -->
<g id="Node000024" class="node">
<title>Node24</title>
<g id="a_Node000024"><a xlink:href="../../dd/dd7/universal_2include_2userver_2yaml__config_2fwd_8hpp.html" target="_top" xlink:title="Forward declarations of YamlConfig type and formats::parse::To.">
<polygon fill="white" stroke="#666666" points="1262.13,-283 1146.13,-283 1146.13,-253 1262.13,-253 1262.13,-283"/>
<text text-anchor="start" x="1154.13" y="-271" font-family="Helvetica,sans-Serif" font-size="10.00">userver/yaml_config</text>
<text text-anchor="middle" x="1204.13" y="-260" font-family="Helvetica,sans-Serif" font-size="10.00">/fwd.hpp</text>
</a>
</g>
</g>
<!-- Node1&#45;&gt;Node24 -->
<g id="edge33_Node000001_Node000024" class="edge">
<title>Node1&#45;&gt;Node24</title>
<g id="a_edge33_Node000001_Node000024"><a xlink:title=" ">
<path fill="none" stroke="#63b8ff" d="M498.12,-324.12C621.36,-318.09 878.45,-304.09 1095.13,-283 1108.3,-281.72 1122.33,-280.1 1135.79,-278.43"/>
<polygon fill="#63b8ff" stroke="#63b8ff" points="1136.46,-281.87 1145.94,-277.15 1135.58,-274.93 1136.46,-281.87"/>
</a>
</g>
</g>
<!-- Node6&#45;&gt;Node5 -->
<g id="edge6_Node000006_Node000005" class="edge">
<title>Node6&#45;&gt;Node5</title>
<g id="a_edge6_Node000006_Node000005"><a xlink:title=" ">
<path fill="none" stroke="#63b8ff" d="M407.38,-252.8C394.54,-242.53 377.22,-228.67 364.11,-218.18"/>
<polygon fill="#63b8ff" stroke="#63b8ff" points="366.18,-215.36 356.19,-211.84 361.81,-220.82 366.18,-215.36"/>
</a>
</g>
</g>
<!-- Node7&#45;&gt;Node2 -->
<g id="edge8_Node000007_Node000002" class="edge">
<title>Node7&#45;&gt;Node2</title>
<g id="a_edge8_Node000007_Node000002"><a xlink:title=" ">
<path fill="none" stroke="#63b8ff" d="M221.28,-258.37C200.21,-247.59 163.95,-229.02 139.27,-216.38"/>
<polygon fill="#63b8ff" stroke="#63b8ff" points="140.62,-213.14 130.12,-211.7 137.43,-219.37 140.62,-213.14"/>
</a>
</g>
</g>
<!-- Node7&#45;&gt;Node5 -->
<g id="edge9_Node000007_Node000005" class="edge">
<title>Node7&#45;&gt;Node5</title>
<g id="a_edge9_Node000007_Node000005"><a xlink:title=" ">
<path fill="none" stroke="#63b8ff" d="M252.56,-258.37C270.35,-247.73 300.81,-229.51 321.91,-216.89"/>
<polygon fill="#63b8ff" stroke="#63b8ff" points="323.8,-219.84 330.59,-211.7 320.21,-213.83 323.8,-219.84"/>
</a>
</g>
</g>
<!-- Node8&#45;&gt;Node5 -->
<g id="edge12_Node000008_Node000005" class="edge">
<title>Node8&#45;&gt;Node5</title>
<g id="a_edge12_Node000008_Node000005"><a xlink:title=" ">
<path fill="none" stroke="#63b8ff" d="M542.9,-258.45C502.51,-249.34 437.93,-233.93 383.13,-217 381,-216.34 378.82,-215.63 376.63,-214.9"/>
<polygon fill="#63b8ff" stroke="#63b8ff" points="377.69,-211.56 367.1,-211.55 375.37,-218.16 377.69,-211.56"/>
</a>
</g>
</g>
<!-- Node9 -->
<g id="Node000009" class="node">
<title>Node9</title>
<g id="a_Node000009"><a xlink:title=" ">
<polygon fill="#e0e0e0" stroke="#999999" points="457.63,-211.5 392.63,-211.5 392.63,-192.5 457.63,-192.5 457.63,-211.5"/>
<text text-anchor="middle" x="425.13" y="-199.5" font-family="Helvetica,sans-Serif" font-size="10.00">stdexcept</text>
</a>
</g>
</g>
<!-- Node8&#45;&gt;Node9 -->
<g id="edge11_Node000008_Node000009" class="edge">
<title>Node8&#45;&gt;Node9</title>
<g id="a_edge11_Node000008_Node000009"><a xlink:title=" ">
<path fill="none" stroke="#63b8ff" d="M560.96,-258.37C533.85,-247.32 486.67,-228.08 455.67,-215.45"/>
<polygon fill="#63b8ff" stroke="#63b8ff" points="456.8,-212.13 446.22,-211.6 454.16,-218.61 456.8,-212.13"/>
</a>
</g>
</g>
<!-- Node10 -->
<g id="Node000010" class="node">
<title>Node10</title>
<g id="a_Node000010"><a xlink:title=" ">
<polygon fill="#e0e0e0" stroke="#999999" points="548.63,-211.5 475.63,-211.5 475.63,-192.5 548.63,-192.5 548.63,-211.5"/>
<text text-anchor="middle" x="512.13" y="-199.5" font-family="Helvetica,sans-Serif" font-size="10.00">string_view</text>
</a>
</g>
</g>
<!-- Node8&#45;&gt;Node10 -->
<g id="edge13_Node000008_Node000010" class="edge">
<title>Node8&#45;&gt;Node10</title>
<g id="a_edge13_Node000008_Node000010"><a xlink:title=" ">
<path fill="none" stroke="#63b8ff" d="M572.69,-258.37C561.59,-248.21 542.93,-231.16 529.26,-218.65"/>
<polygon fill="#63b8ff" stroke="#63b8ff" points="531.62,-216.07 521.87,-211.91 526.89,-221.24 531.62,-216.07"/>
</a>
</g>
</g>
<!-- Node11 -->
<g id="Node000011" class="node">
<title>Node11</title>
<g id="a_Node000011"><a xlink:title=" ">
<polygon fill="#e0e0e0" stroke="#999999" points="841.63,-19 772.63,-19 772.63,0 841.63,0 841.63,-19"/>
<text text-anchor="middle" x="807.13" y="-7" font-family="Helvetica,sans-Serif" font-size="10.00">type_traits</text>
</a>
</g>
</g>
<!-- Node8&#45;&gt;Node11 -->
<g id="edge14_Node000008_Node000011" class="edge">
<title>Node8&#45;&gt;Node11</title>
<g id="a_edge14_Node000008_Node000011"><a xlink:title=" ">
<path fill="none" stroke="#63b8ff" d="M579.48,-258.39C570.34,-226.77 543.45,-115.75 596.13,-55 617.39,-30.49 706.59,-18.77 761.98,-13.76"/>
<polygon fill="#63b8ff" stroke="#63b8ff" points="762.58,-17.22 772.24,-12.87 761.98,-10.24 762.58,-17.22"/>
</a>
</g>
</g>
<!-- Node12 -->
<g id="Node000012" class="node">
<title>Node12</title>
<g id="a_Node000012"><a xlink:href="../../db/d0c/core_2include_2userver_2dump_2fwd_8hpp.html" target="_top" xlink:title="Forward declarations of dump::Reader, dump::Writer and dump::To.">
<polygon fill="white" stroke="#666666" points="730.63,-145.5 605.63,-145.5 605.63,-126.5 730.63,-126.5 730.63,-145.5"/>
<text text-anchor="middle" x="668.13" y="-133.5" font-family="Helvetica,sans-Serif" font-size="10.00">userver/dump/fwd.hpp</text>
</a>
</g>
</g>
<!-- Node8&#45;&gt;Node12 -->
<g id="edge15_Node000008_Node000012" class="edge">
<title>Node8&#45;&gt;Node12</title>
<g id="a_edge15_Node000008_Node000012"><a xlink:title=" ">
<path fill="none" stroke="#63b8ff" d="M587.78,-258.47C601.74,-237.36 638.14,-182.34 656.78,-154.17"/>
<polygon fill="#63b8ff" stroke="#63b8ff" points="659.76,-156 662.36,-145.73 653.92,-152.14 659.76,-156"/>
</a>
</g>
</g>
<!-- Node14 -->
<g id="Node000014" class="node">
<title>Node14</title>
<g id="a_Node000014"><a xlink:href="../../d9/d0d/core_2include_2userver_2dump_2meta_8hpp.html" target="_top" xlink:title="Provides dump::kIsDumpable and includes userver/dump/fwd.hpp.">
<polygon fill="white" stroke="#666666" points="807.13,-211.5 673.13,-211.5 673.13,-192.5 807.13,-192.5 807.13,-211.5"/>
<text text-anchor="middle" x="740.13" y="-199.5" font-family="Helvetica,sans-Serif" font-size="10.00">userver/dump/meta.hpp</text>
</a>
</g>
</g>
<!-- Node8&#45;&gt;Node14 -->
<g id="edge18_Node000008_Node000014" class="edge">
<title>Node8&#45;&gt;Node14</title>
<g id="a_edge18_Node000008_Node000014"><a xlink:title=" ">
<path fill="none" stroke="#63b8ff" d="M603.44,-258.37C630.73,-247.32 678.21,-228.08 709.4,-215.45"/>
<polygon fill="#63b8ff" stroke="#63b8ff" points="710.96,-218.59 718.91,-211.6 708.33,-212.11 710.96,-218.59"/>
</a>
</g>
</g>
<!-- Node13 -->
<g id="Node000013" class="node">
<title>Node13</title>
<g id="a_Node000013"><a xlink:href="../../d4/d56/core_2include_2userver_2dump_2to_8hpp.html" target="_top" xlink:title="A marker type used in ADL&#45;found Read">
<polygon fill="white" stroke="#666666" points="723.13,-79.5 605.13,-79.5 605.13,-60.5 723.13,-60.5 723.13,-79.5"/>
<text text-anchor="middle" x="664.13" y="-67.5" font-family="Helvetica,sans-Serif" font-size="10.00">userver/dump/to.hpp</text>
</a>
</g>
</g>
<!-- Node12&#45;&gt;Node13 -->
<g id="edge16_Node000012_Node000013" class="edge">
<title>Node12&#45;&gt;Node13</title>
<g id="a_edge16_Node000012_Node000013"><a xlink:title=" ">
<path fill="none" stroke="#63b8ff" d="M667.59,-126.37C667.01,-117.07 666.07,-101.98 665.31,-89.9"/>
<polygon fill="#63b8ff" stroke="#63b8ff" points="668.81,-89.67 664.69,-79.91 661.82,-90.1 668.81,-89.67"/>
</a>
</g>
</g>
<!-- Node13&#45;&gt;Node13 -->
<g id="edge17_Node000013_Node000013" class="edge">
<title>Node13&#45;&gt;Node13</title>
<g id="a_edge17_Node000013_Node000013"><a xlink:title=" ">
<path fill="none" stroke="#63b8ff" d="M692.56,-79.53C716.32,-83.61 741.13,-80.43 741.13,-70 741.13,-61.04 722.8,-57.43 702.58,-59.18"/>
<polygon fill="#63b8ff" stroke="#63b8ff" points="702.04,-55.72 692.56,-60.47 702.93,-62.66 702.04,-55.72"/>
</a>
</g>
</g>
<!-- Node14&#45;&gt;Node11 -->
<g id="edge19_Node000014_Node000011" class="edge">
<title>Node14&#45;&gt;Node11</title>
<g id="a_edge19_Node000014_Node000011"><a xlink:title=" ">
<path fill="none" stroke="#63b8ff" d="M743.19,-192.32C753.41,-163.25 786.59,-68.9 800.7,-28.8"/>
<polygon fill="#63b8ff" stroke="#63b8ff" points="804.05,-29.83 804.06,-19.23 797.44,-27.5 804.05,-29.83"/>
</a>
</g>
</g>
<!-- Node14&#45;&gt;Node12 -->
<g id="edge20_Node000014_Node000012" class="edge">
<title>Node14&#45;&gt;Node12</title>
<g id="a_edge20_Node000014_Node000012"><a xlink:title=" ">
<path fill="none" stroke="#63b8ff" d="M730.42,-192.37C719,-182.21 699.81,-165.16 685.74,-152.65"/>
<polygon fill="#63b8ff" stroke="#63b8ff" points="687.95,-149.93 678.15,-145.91 683.3,-155.16 687.95,-149.93"/>
</a>
</g>
</g>
<!-- Node15 -->
<g id="Node000015" class="node">
<title>Node15</title>
<g id="a_Node000015"><a xlink:href="../../d3/da0/meta__light_8hpp.html" target="_top" xlink:title="Lightweight concepts.">
<polygon fill="white" stroke="#666666" points="903.13,-151 797.13,-151 797.13,-121 903.13,-121 903.13,-151"/>
<text text-anchor="start" x="805.13" y="-139" font-family="Helvetica,sans-Serif" font-size="10.00">userver/utils/meta</text>
<text text-anchor="middle" x="850.13" y="-128" font-family="Helvetica,sans-Serif" font-size="10.00">_light.hpp</text>
</a>
</g>
</g>
<!-- Node14&#45;&gt;Node15 -->
<g id="edge21_Node000014_Node000015" class="edge">
<title>Node14&#45;&gt;Node15</title>
<g id="a_edge21_Node000014_Node000015"><a xlink:title=" ">
<path fill="none" stroke="#63b8ff" d="M754.97,-192.37C770.8,-183.16 796.41,-168.26 817.07,-156.24"/>
<polygon fill="#63b8ff" stroke="#63b8ff" points="818.99,-159.17 825.87,-151.12 815.47,-153.12 818.99,-159.17"/>
</a>
</g>
</g>
<!-- Node15&#45;&gt;Node11 -->
<g id="edge22_Node000015_Node000011" class="edge">
<title>Node15&#45;&gt;Node11</title>
<g id="a_edge22_Node000015_Node000011"><a xlink:title=" ">
<path fill="none" stroke="#63b8ff" d="M842.43,-120.88C837.29,-111.04 830.67,-97.49 826.13,-85 819.45,-66.61 814.19,-44.84 810.91,-29.6"/>
<polygon fill="#63b8ff" stroke="#63b8ff" points="814.25,-28.47 808.81,-19.39 807.4,-29.89 814.25,-28.47"/>
</a>
</g>
</g>
<!-- Node16 -->
<g id="Node000016" class="node">
<title>Node16</title>
<g id="a_Node000016"><a xlink:href="../../d9/dce/void__t_8hpp.html" target="_top" xlink:title="std::void_t implementation with workarounds for compiler bugs">
<polygon fill="white" stroke="#666666" points="936.63,-85 835.63,-85 835.63,-55 936.63,-55 936.63,-85"/>
<text text-anchor="start" x="843.63" y="-73" font-family="Helvetica,sans-Serif" font-size="10.00">userver/utils/void</text>
<text text-anchor="middle" x="886.13" y="-62" font-family="Helvetica,sans-Serif" font-size="10.00">_t.hpp</text>
</a>
</g>
</g>
<!-- Node15&#45;&gt;Node16 -->
<g id="edge23_Node000015_Node000016" class="edge">
<title>Node15&#45;&gt;Node16</title>
<g id="a_edge23_Node000015_Node000016"><a xlink:title=" ">
<path fill="none" stroke="#63b8ff" d="M858.12,-120.8C862.55,-112.92 868.16,-102.95 873.2,-93.99"/>
<polygon fill="#63b8ff" stroke="#63b8ff" points="876.31,-95.6 878.17,-85.16 870.21,-92.16 876.31,-95.6"/>
</a>
</g>
</g>
<!-- Node16&#45;&gt;Node11 -->
<g id="edge24_Node000016_Node000011" class="edge">
<title>Node16&#45;&gt;Node11</title>
<g id="a_edge24_Node000016_Node000011"><a xlink:title=" ">
<path fill="none" stroke="#63b8ff" d="M867.01,-54.84C854.96,-45.91 839.42,-34.41 827.19,-25.35"/>
<polygon fill="#63b8ff" stroke="#63b8ff" points="829.09,-22.4 818.97,-19.27 824.92,-28.03 829.09,-22.4"/>
</a>
</g>
</g>
<!-- Node19 -->
<g id="Node000019" class="node">
<title>Node19</title>
<g id="a_Node000019"><a xlink:title=" ">
<polygon fill="#e0e0e0" stroke="#999999" points="932.63,-211.5 867.63,-211.5 867.63,-192.5 932.63,-192.5 932.63,-211.5"/>
<text text-anchor="middle" x="900.13" y="-199.5" font-family="Helvetica,sans-Serif" font-size="10.00">functional</text>
</a>
</g>
</g>
<!-- Node18&#45;&gt;Node19 -->
<g id="edge27_Node000018_Node000019" class="edge">
<title>Node18&#45;&gt;Node19</title>
<g id="a_edge27_Node000018_Node000019"><a xlink:title=" ">
<path fill="none" stroke="#63b8ff" d="M900.13,-252.8C900.13,-243.7 900.13,-231.79 900.13,-221.9"/>
<polygon fill="#63b8ff" stroke="#63b8ff" points="903.63,-221.84 900.13,-211.84 896.63,-221.84 903.63,-221.84"/>
</a>
</g>
</g>
<!-- Node20&#45;&gt;Node11 -->
<g id="edge31_Node000020_Node000011" class="edge">
<title>Node20&#45;&gt;Node11</title>
<g id="a_edge31_Node000020_Node000011"><a xlink:title=" ">
<path fill="none" stroke="#63b8ff" d="M1017.26,-252.99C1006.31,-243.89 993.14,-231.13 985.13,-217 948.61,-152.58 996.54,-109.26 946.13,-55 921.96,-28.98 882.59,-18.11 851.91,-13.61"/>
<polygon fill="#63b8ff" stroke="#63b8ff" points="852.24,-10.12 841.88,-12.31 851.35,-17.06 852.24,-10.12"/>
</a>
</g>
</g>
<!-- Node21 -->
<g id="Node000021" class="node">
<title>Node21</title>
<g id="a_Node000021"><a xlink:title=" ">
<polygon fill="#e0e0e0" stroke="#999999" points="1046.63,-211.5 993.63,-211.5 993.63,-192.5 1046.63,-192.5 1046.63,-211.5"/>
<text text-anchor="middle" x="1020.13" y="-199.5" font-family="Helvetica,sans-Serif" font-size="10.00">cstddef</text>
</a>
</g>
</g>
<!-- Node20&#45;&gt;Node21 -->
<g id="edge29_Node000020_Node000021" class="edge">
<title>Node20&#45;&gt;Node21</title>
<g id="a_edge29_Node000020_Node000021"><a xlink:title=" ">
<path fill="none" stroke="#63b8ff" d="M1032.58,-252.8C1030.28,-243.6 1027.27,-231.53 1024.78,-221.58"/>
<polygon fill="#63b8ff" stroke="#63b8ff" points="1028.17,-220.7 1022.34,-211.84 1021.37,-222.39 1028.17,-220.7"/>
</a>
</g>
</g>
<!-- Node22 -->
<g id="Node000022" class="node">
<title>Node22</title>
<g id="a_Node000022"><a xlink:title=" ">
<polygon fill="#e0e0e0" stroke="#999999" points="1101.63,-211.5 1064.63,-211.5 1064.63,-192.5 1101.63,-192.5 1101.63,-211.5"/>
<text text-anchor="middle" x="1083.13" y="-199.5" font-family="Helvetica,sans-Serif" font-size="10.00">new</text>
</a>
</g>
</g>
<!-- Node20&#45;&gt;Node22 -->
<g id="edge30_Node000020_Node000022" class="edge">
<title>Node20&#45;&gt;Node22</title>
<g id="a_edge30_Node000020_Node000022"><a xlink:title=" ">
<path fill="none" stroke="#63b8ff" d="M1046.56,-252.8C1053.68,-243.11 1063.13,-230.24 1070.64,-220.01"/>
<polygon fill="#63b8ff" stroke="#63b8ff" points="1073.54,-221.98 1076.64,-211.84 1067.9,-217.83 1073.54,-221.98"/>
</a>
</g>
</g>
<!-- Node23 -->
<g id="Node000023" class="node">
<title>Node23</title>
<g id="a_Node000023"><a xlink:title=" ">
<polygon fill="#e0e0e0" stroke="#999999" points="1164.63,-211.5 1119.63,-211.5 1119.63,-192.5 1164.63,-192.5 1164.63,-211.5"/>
<text text-anchor="middle" x="1142.13" y="-199.5" font-family="Helvetica,sans-Serif" font-size="10.00">utility</text>
</a>
</g>
</g>
<!-- Node20&#45;&gt;Node23 -->
<g id="edge32_Node000020_Node000023" class="edge">
<title>Node20&#45;&gt;Node23</title>
<g id="a_edge32_Node000020_Node000023"><a xlink:title=" ">
<path fill="none" stroke="#63b8ff" d="M1059.4,-252.95C1077.25,-242.18 1101.76,-227.38 1119.46,-216.69"/>
<polygon fill="#63b8ff" stroke="#63b8ff" points="1121.27,-219.68 1128.03,-211.52 1117.66,-213.69 1121.27,-219.68"/>
</a>
</g>
</g>
<!-- Node25 -->
<g id="Node000025" class="node">
<title>Node25</title>
<g id="a_Node000025"><a xlink:href="../../d2/dc8/universal_2include_2userver_2formats_2parse_2to_8hpp.html" target="_top" xlink:title="Helper for parsers.">
<polygon fill="white" stroke="#666666" points="1307.63,-217 1182.63,-217 1182.63,-187 1307.63,-187 1307.63,-217"/>
<text text-anchor="start" x="1190.63" y="-205" font-family="Helvetica,sans-Serif" font-size="10.00">userver/formats/parse</text>
<text text-anchor="middle" x="1245.13" y="-194" font-family="Helvetica,sans-Serif" font-size="10.00">/to.hpp</text>
</a>
</g>
</g>
<!-- Node24&#45;&gt;Node25 -->
<g id="edge34_Node000024_Node000025" class="edge">
<title>Node24&#45;&gt;Node25</title>
<g id="a_edge34_Node000024_Node000025"><a xlink:title=" ">
<path fill="none" stroke="#63b8ff" d="M1213.23,-252.8C1218.33,-244.84 1224.8,-234.74 1230.58,-225.71"/>
<polygon fill="#63b8ff" stroke="#63b8ff" points="1233.61,-227.47 1236.06,-217.16 1227.72,-223.7 1233.61,-227.47"/>
</a>
</g>
</g>
</g>
</svg>
