<?xml version="1.0" encoding="UTF-8" standalone="no"?>
<!DOCTYPE svg PUBLIC "-//W3C//DTD SVG 1.1//EN"
 "http://www.w3.org/Graphics/SVG/1.1/DTD/svg11.dtd">
<!-- Generated by graphviz version 2.43.0 (0)
 -->
<!-- Title: userver/os_signals/processor.hpp Pages: 1 -->
<svg width="286pt" height="159pt"
 viewBox="0.00 0.00 285.50 159.00" xmlns="http://www.w3.org/2000/svg" xmlns:xlink="http://www.w3.org/1999/xlink">
<g id="graph0" class="graph" transform="scale(1 1) rotate(0) translate(4 155)">
<title>userver/os_signals/processor.hpp</title>
<!-- Node1 -->
<g id="Node000001" class="node">
<title>Node1</title>
<g id="a_Node000001"><a xlink:title="A client that allows to subscribe to OS signals SIGUSR1 andSIGUSR2`.">
<polygon fill="#999999" stroke="#666666" points="205,-151 98,-151 98,-121 205,-121 205,-151"/>
<text text-anchor="start" x="106" y="-139" font-family="Helvetica,sans-Serif" font-size="10.00">userver/os_signals</text>
<text text-anchor="middle" x="151.5" y="-128" font-family="Helvetica,sans-Serif" font-size="10.00">/processor.hpp</text>
</a>
</g>
</g>
<!-- Node2 -->
<g id="Node000002" class="node">
<title>Node2</title>
<g id="a_Node000002"><a xlink:href="../../d5/dde/core_2include_2userver_2os__signals_2component_8hpp.html" target="_top" xlink:title="A component for os_signals::Processor.">
<polygon fill="white" stroke="#666666" points="139,-85 32,-85 32,-55 139,-55 139,-85"/>
<text text-anchor="start" x="40" y="-73" font-family="Helvetica,sans-Serif" font-size="10.00">userver/os_signals</text>
<text text-anchor="middle" x="85.5" y="-62" font-family="Helvetica,sans-Serif" font-size="10.00">/component.hpp</text>
</a>
</g>
</g>
<!-- Node1&#45;&gt;Node2 -->
<g id="edge1_Node000001_Node000002" class="edge">
<title>Node1&#45;&gt;Node2</title>
<g id="a_edge1_Node000001_Node000002"><a xlink:title=" ">
<path fill="none" stroke="#63b8ff" d="M129.48,-113.65C119.81,-104.27 108.73,-93.53 100.11,-85.16"/>
<polygon fill="#63b8ff" stroke="#63b8ff" points="127.24,-116.35 136.85,-120.8 132.11,-111.32 127.24,-116.35"/>
</a>
</g>
</g>
<!-- Node4 -->
<g id="Node000004" class="node">
<title>Node4</title>
<g id="a_Node000004"><a xlink:href="../../d7/d5c/processor__mock_8hpp.html" target="_top" xlink:title="Provides Processor for use in tests.">
<polygon fill="white" stroke="#666666" points="277.5,-85 157.5,-85 157.5,-55 277.5,-55 277.5,-85"/>
<text text-anchor="start" x="165.5" y="-73" font-family="Helvetica,sans-Serif" font-size="10.00">userver/os_signals</text>
<text text-anchor="middle" x="217.5" y="-62" font-family="Helvetica,sans-Serif" font-size="10.00">/processor_mock.hpp</text>
</a>
</g>
</g>
<!-- Node1&#45;&gt;Node4 -->
<g id="edge3_Node000001_Node000004" class="edge">
<title>Node1&#45;&gt;Node4</title>
<g id="a_edge3_Node000001_Node000004"><a xlink:title=" ">
<path fill="none" stroke="#63b8ff" d="M173.52,-113.65C183.19,-104.27 194.27,-93.53 202.89,-85.16"/>
<polygon fill="#63b8ff" stroke="#63b8ff" points="170.89,-111.32 166.15,-120.8 175.76,-116.35 170.89,-111.32"/>
</a>
</g>
</g>
<!-- Node3 -->
<g id="Node000003" class="node">
<title>Node3</title>
<g id="a_Node000003"><a xlink:href="../../dc/d2e/core_2include_2userver_2logging_2component_8hpp.html" target="_top" xlink:title="Logging component">
<polygon fill="white" stroke="#666666" points="171,-19 0,-19 0,0 171,0 171,-19"/>
<text text-anchor="middle" x="85.5" y="-7" font-family="Helvetica,sans-Serif" font-size="10.00">userver/logging/component.hpp</text>
</a>
</g>
</g>
<!-- Node2&#45;&gt;Node3 -->
<g id="edge2_Node000002_Node000003" class="edge">
<title>Node2&#45;&gt;Node3</title>
<g id="a_edge2_Node000002_Node000003"><a xlink:title=" ">
<path fill="none" stroke="#63b8ff" d="M85.5,-44.75C85.5,-35.72 85.5,-26.03 85.5,-19.27"/>
<polygon fill="#63b8ff" stroke="#63b8ff" points="82,-44.84 85.5,-54.84 89,-44.84 82,-44.84"/>
</a>
</g>
</g>
</g>
</svg>
