<?xml version="1.0" encoding="UTF-8" standalone="no"?>
<!DOCTYPE svg PUBLIC "-//W3C//DTD SVG 1.1//EN"
 "http://www.w3.org/Graphics/SVG/1.1/DTD/svg11.dtd">
<!-- Generated by graphviz version 2.43.0 (0)
 -->
<!-- Title: userver/utils/statistics/relaxed_counter.hpp Pages: 1 -->
<svg width="202pt" height="159pt"
 viewBox="0.00 0.00 201.50 159.00" xmlns="http://www.w3.org/2000/svg" xmlns:xlink="http://www.w3.org/1999/xlink">
<g id="graph0" class="graph" transform="scale(1 1) rotate(0) translate(4 155)">
<title>userver/utils/statistics/relaxed_counter.hpp</title>
<!-- Node1 -->
<g id="Node000001" class="node">
<title>Node1</title>
<g id="a_Node000001"><a xlink:title="Atomic counter of type T with relaxed memory ordering.">
<polygon fill="#999999" stroke="#666666" points="140.5,-151 15.5,-151 15.5,-121 140.5,-121 140.5,-151"/>
<text text-anchor="start" x="23.5" y="-139" font-family="Helvetica,sans-Serif" font-size="10.00">userver/utils/statistics</text>
<text text-anchor="middle" x="78" y="-128" font-family="Helvetica,sans-Serif" font-size="10.00">/relaxed_counter.hpp</text>
</a>
</g>
</g>
<!-- Node2 -->
<g id="Node000002" class="node">
<title>Node2</title>
<g id="a_Node000002"><a xlink:title=" ">
<polygon fill="#e0e0e0" stroke="#999999" points="50,-79.5 0,-79.5 0,-60.5 50,-60.5 50,-79.5"/>
<text text-anchor="middle" x="25" y="-67.5" font-family="Helvetica,sans-Serif" font-size="10.00">atomic</text>
</a>
</g>
</g>
<!-- Node1&#45;&gt;Node2 -->
<g id="edge1_Node000001_Node000002" class="edge">
<title>Node1&#45;&gt;Node2</title>
<g id="a_edge1_Node000001_Node000002"><a xlink:title=" ">
<path fill="none" stroke="#63b8ff" d="M66.24,-120.8C58.14,-111.01 47.34,-97.98 38.83,-87.7"/>
<polygon fill="#63b8ff" stroke="#63b8ff" points="41.4,-85.31 32.32,-79.84 36.01,-89.78 41.4,-85.31"/>
</a>
</g>
</g>
<!-- Node3 -->
<g id="Node000003" class="node">
<title>Node3</title>
<g id="a_Node000003"><a xlink:href="../../d7/def/core_2include_2userver_2utils_2statistics_2fwd_8hpp.html" target="_top" xlink:title="Forward declarations for statistics entities.">
<polygon fill="white" stroke="#666666" points="193.5,-85 68.5,-85 68.5,-55 193.5,-55 193.5,-85"/>
<text text-anchor="start" x="76.5" y="-73" font-family="Helvetica,sans-Serif" font-size="10.00">userver/utils/statistics</text>
<text text-anchor="middle" x="131" y="-62" font-family="Helvetica,sans-Serif" font-size="10.00">/fwd.hpp</text>
</a>
</g>
</g>
<!-- Node1&#45;&gt;Node3 -->
<g id="edge2_Node000001_Node000003" class="edge">
<title>Node1&#45;&gt;Node3</title>
<g id="a_edge2_Node000001_Node000003"><a xlink:title=" ">
<path fill="none" stroke="#63b8ff" d="M89.76,-120.8C96.56,-112.59 105.24,-102.1 112.89,-92.87"/>
<polygon fill="#63b8ff" stroke="#63b8ff" points="115.59,-95.1 119.27,-85.16 110.2,-90.63 115.59,-95.1"/>
</a>
</g>
</g>
<!-- Node4 -->
<g id="Node000004" class="node">
<title>Node4</title>
<g id="a_Node000004"><a xlink:title=" ">
<polygon fill="#e0e0e0" stroke="#999999" points="160,-19 102,-19 102,0 160,0 160,-19"/>
<text text-anchor="middle" x="131" y="-7" font-family="Helvetica,sans-Serif" font-size="10.00">memory</text>
</a>
</g>
</g>
<!-- Node3&#45;&gt;Node4 -->
<g id="edge3_Node000003_Node000004" class="edge">
<title>Node3&#45;&gt;Node4</title>
<g id="a_edge3_Node000003_Node000004"><a xlink:title=" ">
<path fill="none" stroke="#63b8ff" d="M131,-54.84C131,-47.21 131,-37.7 131,-29.45"/>
<polygon fill="#63b8ff" stroke="#63b8ff" points="134.5,-29.27 131,-19.27 127.5,-29.27 134.5,-29.27"/>
</a>
</g>
</g>
</g>
</svg>
