<?xml version="1.0" encoding="UTF-8" standalone="no"?>
<!DOCTYPE svg PUBLIC "-//W3C//DTD SVG 1.1//EN"
 "http://www.w3.org/Graphics/SVG/1.1/DTD/svg11.dtd">
<!-- Generated by graphviz version 2.43.0 (0)
 -->
<!-- Title: formats::bson::BsonException Pages: 1 -->
<svg width="730pt" height="220pt"
 viewBox="0.00 0.00 730.00 220.00" xmlns="http://www.w3.org/2000/svg" xmlns:xlink="http://www.w3.org/1999/xlink">
<g id="graph0" class="graph" transform="scale(1 1) rotate(0) translate(4 216)">
<title>formats::bson::BsonException</title>
<!-- Node1 -->
<g id="Node000001" class="node">
<title>Node1</title>
<g id="a_Node000001"><a xlink:title="Generic BSON&#45;related exception.">
<polygon fill="#999999" stroke="#666666" points="518,-110.5 356,-110.5 356,-91.5 518,-91.5 518,-110.5"/>
<text text-anchor="middle" x="437" y="-98.5" font-family="Helvetica,sans-Serif" font-size="10.00">formats::bson::BsonException</text>
</a>
</g>
</g>
<!-- Node5 -->
<g id="Node000005" class="node">
<title>Node5</title>
<g id="a_Node000005"><a xlink:href="../../d9/de6/classformats_1_1bson_1_1ConversionException.html" target="_top" xlink:title="Conversion error.">
<polygon fill="white" stroke="#666666" points="710.5,-212 565.5,-212 565.5,-182 710.5,-182 710.5,-212"/>
<text text-anchor="start" x="573.5" y="-200" font-family="Helvetica,sans-Serif" font-size="10.00">formats::bson::Conversion</text>
<text text-anchor="middle" x="638" y="-189" font-family="Helvetica,sans-Serif" font-size="10.00">Exception</text>
</a>
</g>
</g>
<!-- Node1&#45;&gt;Node5 -->
<g id="edge4_Node000001_Node000005" class="edge">
<title>Node1&#45;&gt;Node5</title>
<g id="a_edge4_Node000001_Node000005"><a xlink:title=" ">
<path fill="none" stroke="#63b8ff" d="M459.06,-116.55C481.58,-132.57 518.82,-157.35 554,-173 561.4,-176.29 569.37,-179.26 577.35,-181.9"/>
<polygon fill="#63b8ff" stroke="#63b8ff" points="461.07,-113.68 450.91,-110.68 456.97,-119.36 461.07,-113.68"/>
</a>
</g>
</g>
<!-- Node6 -->
<g id="Node000006" class="node">
<title>Node6</title>
<g id="a_Node000006"><a xlink:href="../../d5/d07/classformats_1_1bson_1_1MemberMissingException.html" target="_top" xlink:title="BSON nonexisting member access error.">
<polygon fill="white" stroke="#666666" points="722,-164 554,-164 554,-134 722,-134 722,-164"/>
<text text-anchor="start" x="562" y="-152" font-family="Helvetica,sans-Serif" font-size="10.00">formats::bson::MemberMissing</text>
<text text-anchor="middle" x="638" y="-141" font-family="Helvetica,sans-Serif" font-size="10.00">Exception</text>
</a>
</g>
</g>
<!-- Node1&#45;&gt;Node6 -->
<g id="edge5_Node000001_Node000006" class="edge">
<title>Node1&#45;&gt;Node6</title>
<g id="a_edge5_Node000001_Node000006"><a xlink:title=" ">
<path fill="none" stroke="#63b8ff" d="M487.55,-112.95C513.88,-119.3 546.51,-127.17 574.55,-133.94"/>
<polygon fill="#63b8ff" stroke="#63b8ff" points="488.33,-109.54 477.79,-110.6 486.69,-116.35 488.33,-109.54"/>
</a>
</g>
</g>
<!-- Node7 -->
<g id="Node000007" class="node">
<title>Node7</title>
<g id="a_Node000007"><a xlink:href="../../dc/dd1/classformats_1_1bson_1_1OutOfBoundsException.html" target="_top" xlink:title="BSON array indexing error.">
<polygon fill="white" stroke="#666666" points="715.5,-116 560.5,-116 560.5,-86 715.5,-86 715.5,-116"/>
<text text-anchor="start" x="568.5" y="-104" font-family="Helvetica,sans-Serif" font-size="10.00">formats::bson::OutOfBounds</text>
<text text-anchor="middle" x="638" y="-93" font-family="Helvetica,sans-Serif" font-size="10.00">Exception</text>
</a>
</g>
</g>
<!-- Node1&#45;&gt;Node7 -->
<g id="edge6_Node000001_Node000007" class="edge">
<title>Node1&#45;&gt;Node7</title>
<g id="a_edge6_Node000001_Node000007"><a xlink:title=" ">
<path fill="none" stroke="#63b8ff" d="M528.28,-101C538.98,-101 549.83,-101 560.31,-101"/>
<polygon fill="#63b8ff" stroke="#63b8ff" points="528.08,-97.5 518.08,-101 528.08,-104.5 528.08,-97.5"/>
</a>
</g>
</g>
<!-- Node8 -->
<g id="Node000008" class="node">
<title>Node8</title>
<g id="a_Node000008"><a xlink:href="../../d8/d86/classformats_1_1bson_1_1ParseException.html" target="_top" xlink:title="BSON parsing error.">
<polygon fill="white" stroke="#666666" points="720,-67.5 556,-67.5 556,-48.5 720,-48.5 720,-67.5"/>
<text text-anchor="middle" x="638" y="-55.5" font-family="Helvetica,sans-Serif" font-size="10.00">formats::bson::ParseException</text>
</a>
</g>
</g>
<!-- Node1&#45;&gt;Node8 -->
<g id="edge7_Node000001_Node000008" class="edge">
<title>Node1&#45;&gt;Node8</title>
<g id="a_edge7_Node000001_Node000008"><a xlink:title=" ">
<path fill="none" stroke="#63b8ff" d="M492.14,-89.3C523.79,-82.46 563.23,-73.94 592.96,-67.52"/>
<polygon fill="#63b8ff" stroke="#63b8ff" points="491.2,-85.92 482.16,-91.46 492.68,-92.77 491.2,-85.92"/>
</a>
</g>
</g>
<!-- Node9 -->
<g id="Node000009" class="node">
<title>Node9</title>
<g id="a_Node000009"><a xlink:href="../../d2/d94/classformats_1_1bson_1_1TypeMismatchException.html" target="_top" xlink:title="BSON types mismatch error.">
<polygon fill="white" stroke="#666666" points="718.5,-30 557.5,-30 557.5,0 718.5,0 718.5,-30"/>
<text text-anchor="start" x="565.5" y="-18" font-family="Helvetica,sans-Serif" font-size="10.00">formats::bson::TypeMismatch</text>
<text text-anchor="middle" x="638" y="-7" font-family="Helvetica,sans-Serif" font-size="10.00">Exception</text>
</a>
</g>
</g>
<!-- Node1&#45;&gt;Node9 -->
<g id="edge8_Node000001_Node000009" class="edge">
<title>Node1&#45;&gt;Node9</title>
<g id="a_edge8_Node000001_Node000009"><a xlink:title=" ">
<path fill="none" stroke="#63b8ff" d="M462.36,-86.04C485.34,-72.39 521.09,-52.38 554,-39 561.92,-35.78 570.43,-32.8 578.87,-30.12"/>
<polygon fill="#63b8ff" stroke="#63b8ff" points="460.4,-83.13 453.63,-91.28 464,-89.13 460.4,-83.13"/>
</a>
</g>
</g>
<!-- Node2 -->
<g id="Node000002" class="node">
<title>Node2</title>
<g id="a_Node000002"><a xlink:href="../../df/dae/classutils_1_1TracefulException.html" target="_top" xlink:title="Exception that remembers the backtrace at the point of its construction.">
<polygon fill="white" stroke="#666666" points="320,-110.5 190,-110.5 190,-91.5 320,-91.5 320,-110.5"/>
<text text-anchor="middle" x="255" y="-98.5" font-family="Helvetica,sans-Serif" font-size="10.00">utils::TracefulException</text>
</a>
</g>
</g>
<!-- Node2&#45;&gt;Node1 -->
<g id="edge1_Node000001_Node000002" class="edge">
<title>Node2&#45;&gt;Node1</title>
<g id="a_edge1_Node000001_Node000002"><a xlink:title=" ">
<path fill="none" stroke="#63b8ff" d="M330.34,-101C338.72,-101 347.29,-101 355.75,-101"/>
<polygon fill="#63b8ff" stroke="#63b8ff" points="330.22,-97.5 320.22,-101 330.22,-104.5 330.22,-97.5"/>
</a>
</g>
</g>
<!-- Node3 -->
<g id="Node000003" class="node">
<title>Node3</title>
<g id="a_Node000003"><a xlink:title=" ">
<polygon fill="white" stroke="#666666" points="120,-129.5 34,-129.5 34,-110.5 120,-110.5 120,-129.5"/>
<text text-anchor="middle" x="77" y="-117.5" font-family="Helvetica,sans-Serif" font-size="10.00">std::exception</text>
</a>
</g>
</g>
<!-- Node3&#45;&gt;Node2 -->
<g id="edge2_Node000002_Node000003" class="edge">
<title>Node3&#45;&gt;Node2</title>
<g id="a_edge2_Node000002_Node000003"><a xlink:title=" ">
<path fill="none" stroke="#63b8ff" d="M130.25,-114.36C148.95,-112.34 170.24,-110.04 189.83,-107.93"/>
<polygon fill="#63b8ff" stroke="#63b8ff" points="129.72,-110.9 120.16,-115.45 130.47,-117.86 129.72,-110.9"/>
</a>
</g>
</g>
<!-- Node4 -->
<g id="Node000004" class="node">
<title>Node4</title>
<g id="a_Node000004"><a xlink:href="../../d9/d28/classutils_1_1TracefulExceptionBase.html" target="_top" xlink:title="Base class implementing backtrace storage and message builder, published only for documentation purpo...">
<polygon fill="white" stroke="#666666" points="154,-92.5 0,-92.5 0,-73.5 154,-73.5 154,-92.5"/>
<text text-anchor="middle" x="77" y="-80.5" font-family="Helvetica,sans-Serif" font-size="10.00">utils::TracefulExceptionBase</text>
</a>
</g>
</g>
<!-- Node4&#45;&gt;Node2 -->
<g id="edge3_Node000002_Node000004" class="edge">
<title>Node4&#45;&gt;Node2</title>
<g id="a_edge3_Node000002_Node000004"><a xlink:title=" ">
<path fill="none" stroke="#63b8ff" d="M164.26,-91.82C172.87,-92.7 181.51,-93.59 189.84,-94.44"/>
<polygon fill="#63b8ff" stroke="#63b8ff" points="164.48,-88.33 154.17,-90.79 163.76,-95.29 164.48,-88.33"/>
</a>
</g>
</g>
</g>
</svg>
