<?xml version="1.0" encoding="UTF-8" standalone="no"?>
<!DOCTYPE svg PUBLIC "-//W3C//DTD SVG 1.1//EN"
 "http://www.w3.org/Graphics/SVG/1.1/DTD/svg11.dtd">
<!-- Generated by graphviz version 2.43.0 (0)
 -->
<!-- Title: formats::bson::BsonException Pages: 1 -->
<svg width="930pt" height="182pt"
 viewBox="0.00 0.00 930.00 182.00" xmlns="http://www.w3.org/2000/svg" xmlns:xlink="http://www.w3.org/1999/xlink">
<g id="graph0" class="graph" transform="scale(1 1) rotate(0) translate(4 178)">
<title>formats::bson::BsonException</title>
<!-- Node1 -->
<g id="Node000001" class="node">
<title>Node1</title>
<g id="a_Node000001"><a xlink:title="Generic BSON&#45;related exception.">
<polygon fill="#999999" stroke="#666666" points="518,-74.5 356,-74.5 356,-55.5 518,-55.5 518,-74.5"/>
<text text-anchor="middle" x="437" y="-62.5" font-family="Helvetica,sans-Serif" font-size="10.00">formats::bson::BsonException</text>
</a>
</g>
</g>
<!-- Node5 -->
<g id="Node000005" class="node">
<title>Node5</title>
<g id="a_Node000005"><a xlink:href="../../d8/d55/classformats_1_1bson_1_1ExceptionWithPath.html" target="_top" xlink:title=" ">
<polygon fill="white" stroke="#bfbfbf" points="705,-102 567,-102 567,-72 705,-72 705,-102"/>
<text text-anchor="start" x="575" y="-90" font-family="Helvetica,sans-Serif" font-size="10.00">formats::bson::Exception</text>
<text text-anchor="middle" x="636" y="-79" font-family="Helvetica,sans-Serif" font-size="10.00">WithPath</text>
</a>
</g>
</g>
<!-- Node1&#45;&gt;Node5 -->
<g id="edge4_Node000001_Node000005" class="edge">
<title>Node1&#45;&gt;Node5</title>
<g id="a_edge4_Node000001_Node000005"><a xlink:title=" ">
<path fill="none" stroke="#63b8ff" d="M528.45,-75.1C541.39,-76.55 554.52,-78.01 566.93,-79.4"/>
<polygon fill="#63b8ff" stroke="#63b8ff" points="528.45,-71.58 518.13,-73.95 527.68,-78.54 528.45,-71.58"/>
</a>
</g>
</g>
<!-- Node10 -->
<g id="Node000010" class="node">
<title>Node10</title>
<g id="a_Node000010"><a xlink:href="../../d8/d86/classformats_1_1bson_1_1ParseException.html" target="_top" xlink:title="BSON parsing error.">
<polygon fill="white" stroke="#666666" points="718,-53.5 554,-53.5 554,-34.5 718,-34.5 718,-53.5"/>
<text text-anchor="middle" x="636" y="-41.5" font-family="Helvetica,sans-Serif" font-size="10.00">formats::bson::ParseException</text>
</a>
</g>
</g>
<!-- Node1&#45;&gt;Node10 -->
<g id="edge9_Node000001_Node000010" class="edge">
<title>Node1&#45;&gt;Node10</title>
<g id="a_edge9_Node000001_Node000010"><a xlink:title=" ">
<path fill="none" stroke="#63b8ff" d="M528.18,-55.39C536.78,-54.47 545.47,-53.54 553.98,-52.64"/>
<polygon fill="#63b8ff" stroke="#63b8ff" points="527.7,-51.92 518.13,-56.46 528.44,-58.88 527.7,-51.92"/>
</a>
</g>
</g>
<!-- Node2 -->
<g id="Node000002" class="node">
<title>Node2</title>
<g id="a_Node000002"><a xlink:href="../../df/dae/classutils_1_1TracefulException.html" target="_top" xlink:title="Exception that remembers the backtrace at the point of its construction.">
<polygon fill="white" stroke="#666666" points="320,-74.5 190,-74.5 190,-55.5 320,-55.5 320,-74.5"/>
<text text-anchor="middle" x="255" y="-62.5" font-family="Helvetica,sans-Serif" font-size="10.00">utils::TracefulException</text>
</a>
</g>
</g>
<!-- Node2&#45;&gt;Node1 -->
<g id="edge1_Node000001_Node000002" class="edge">
<title>Node2&#45;&gt;Node1</title>
<g id="a_edge1_Node000001_Node000002"><a xlink:title=" ">
<path fill="none" stroke="#63b8ff" d="M330.34,-65C338.72,-65 347.29,-65 355.75,-65"/>
<polygon fill="#63b8ff" stroke="#63b8ff" points="330.22,-61.5 320.22,-65 330.22,-68.5 330.22,-61.5"/>
</a>
</g>
</g>
<!-- Node3 -->
<g id="Node000003" class="node">
<title>Node3</title>
<g id="a_Node000003"><a xlink:title=" ">
<polygon fill="white" stroke="#666666" points="120,-93.5 34,-93.5 34,-74.5 120,-74.5 120,-93.5"/>
<text text-anchor="middle" x="77" y="-81.5" font-family="Helvetica,sans-Serif" font-size="10.00">std::exception</text>
</a>
</g>
</g>
<!-- Node3&#45;&gt;Node2 -->
<g id="edge2_Node000002_Node000003" class="edge">
<title>Node3&#45;&gt;Node2</title>
<g id="a_edge2_Node000002_Node000003"><a xlink:title=" ">
<path fill="none" stroke="#63b8ff" d="M130.25,-78.36C148.95,-76.34 170.24,-74.04 189.83,-71.93"/>
<polygon fill="#63b8ff" stroke="#63b8ff" points="129.72,-74.9 120.16,-79.45 130.47,-81.86 129.72,-74.9"/>
</a>
</g>
</g>
<!-- Node4 -->
<g id="Node000004" class="node">
<title>Node4</title>
<g id="a_Node000004"><a xlink:href="../../d9/d28/classutils_1_1TracefulExceptionBase.html" target="_top" xlink:title="Base class implementing backtrace storage and message builder, published only for documentation purpo...">
<polygon fill="white" stroke="#666666" points="154,-56.5 0,-56.5 0,-37.5 154,-37.5 154,-56.5"/>
<text text-anchor="middle" x="77" y="-44.5" font-family="Helvetica,sans-Serif" font-size="10.00">utils::TracefulExceptionBase</text>
</a>
</g>
</g>
<!-- Node4&#45;&gt;Node2 -->
<g id="edge3_Node000002_Node000004" class="edge">
<title>Node4&#45;&gt;Node2</title>
<g id="a_edge3_Node000002_Node000004"><a xlink:title=" ">
<path fill="none" stroke="#63b8ff" d="M164.26,-55.82C172.87,-56.7 181.51,-57.59 189.84,-58.44"/>
<polygon fill="#63b8ff" stroke="#63b8ff" points="164.48,-52.33 154.17,-54.79 163.76,-59.29 164.48,-52.33"/>
</a>
</g>
</g>
<!-- Node6 -->
<g id="Node000006" class="node">
<title>Node6</title>
<g id="a_Node000006"><a xlink:href="../../d9/de6/classformats_1_1bson_1_1ConversionException.html" target="_top" xlink:title="Conversion error.">
<polygon fill="white" stroke="#666666" points="910.5,-174 765.5,-174 765.5,-144 910.5,-144 910.5,-174"/>
<text text-anchor="start" x="773.5" y="-162" font-family="Helvetica,sans-Serif" font-size="10.00">formats::bson::Conversion</text>
<text text-anchor="middle" x="838" y="-151" font-family="Helvetica,sans-Serif" font-size="10.00">Exception</text>
</a>
</g>
</g>
<!-- Node5&#45;&gt;Node6 -->
<g id="edge5_Node000005_Node000006" class="edge">
<title>Node5&#45;&gt;Node6</title>
<g id="a_edge5_Node000005_Node000006"><a xlink:title=" ">
<path fill="none" stroke="#63b8ff" d="M680.28,-106.06C702.16,-115.36 729.26,-126.38 754,-135 762.92,-138.11 772.48,-141.14 781.82,-143.95"/>
<polygon fill="#63b8ff" stroke="#63b8ff" points="681.5,-102.78 670.93,-102.06 678.74,-109.21 681.5,-102.78"/>
</a>
</g>
</g>
<!-- Node7 -->
<g id="Node000007" class="node">
<title>Node7</title>
<g id="a_Node000007"><a xlink:href="../../d5/d07/classformats_1_1bson_1_1MemberMissingException.html" target="_top" xlink:title="BSON nonexisting member access error.">
<polygon fill="white" stroke="#666666" points="922,-126 754,-126 754,-96 922,-96 922,-126"/>
<text text-anchor="start" x="762" y="-114" font-family="Helvetica,sans-Serif" font-size="10.00">formats::bson::MemberMissing</text>
<text text-anchor="middle" x="838" y="-103" font-family="Helvetica,sans-Serif" font-size="10.00">Exception</text>
</a>
</g>
</g>
<!-- Node5&#45;&gt;Node7 -->
<g id="edge6_Node000005_Node000007" class="edge">
<title>Node5&#45;&gt;Node7</title>
<g id="a_edge6_Node000005_Node000007"><a xlink:title=" ">
<path fill="none" stroke="#63b8ff" d="M715.29,-96.39C727.93,-97.91 741.06,-99.49 753.82,-101.02"/>
<polygon fill="#63b8ff" stroke="#63b8ff" points="715.62,-92.91 705.27,-95.19 714.78,-99.86 715.62,-92.91"/>
</a>
</g>
</g>
<!-- Node8 -->
<g id="Node000008" class="node">
<title>Node8</title>
<g id="a_Node000008"><a xlink:href="../../dc/dd1/classformats_1_1bson_1_1OutOfBoundsException.html" target="_top" xlink:title="BSON array indexing error.">
<polygon fill="white" stroke="#666666" points="915.5,-78 760.5,-78 760.5,-48 915.5,-48 915.5,-78"/>
<text text-anchor="start" x="768.5" y="-66" font-family="Helvetica,sans-Serif" font-size="10.00">formats::bson::OutOfBounds</text>
<text text-anchor="middle" x="838" y="-55" font-family="Helvetica,sans-Serif" font-size="10.00">Exception</text>
</a>
</g>
</g>
<!-- Node5&#45;&gt;Node8 -->
<g id="edge7_Node000005_Node000008" class="edge">
<title>Node5&#45;&gt;Node8</title>
<g id="a_edge7_Node000005_Node000008"><a xlink:title=" ">
<path fill="none" stroke="#63b8ff" d="M715.4,-77.59C730.22,-75.81 745.7,-73.96 760.46,-72.19"/>
<polygon fill="#63b8ff" stroke="#63b8ff" points="714.78,-74.14 705.27,-78.81 715.62,-81.09 714.78,-74.14"/>
</a>
</g>
</g>
<!-- Node9 -->
<g id="Node000009" class="node">
<title>Node9</title>
<g id="a_Node000009"><a xlink:href="../../d2/d94/classformats_1_1bson_1_1TypeMismatchException.html" target="_top" xlink:title="BSON types mismatch error.">
<polygon fill="white" stroke="#666666" points="918.5,-30 757.5,-30 757.5,0 918.5,0 918.5,-30"/>
<text text-anchor="start" x="765.5" y="-18" font-family="Helvetica,sans-Serif" font-size="10.00">formats::bson::TypeMismatch</text>
<text text-anchor="middle" x="838" y="-7" font-family="Helvetica,sans-Serif" font-size="10.00">Exception</text>
</a>
</g>
</g>
<!-- Node5&#45;&gt;Node9 -->
<g id="edge8_Node000005_Node000009" class="edge">
<title>Node5&#45;&gt;Node9</title>
<g id="a_edge8_Node000005_Node000009"><a xlink:title=" ">
<path fill="none" stroke="#63b8ff" d="M705.34,-68.38C709.67,-66.7 713.93,-64.91 718,-63 735.41,-54.84 736.56,-47.1 754,-39 761.21,-35.65 768.99,-32.66 776.8,-30.02"/>
<polygon fill="#63b8ff" stroke="#63b8ff" points="703.94,-65.16 695.74,-71.88 706.34,-71.74 703.94,-65.16"/>
</a>
</g>
</g>
</g>
</svg>
