<?xml version="1.0" encoding="UTF-8" standalone="no"?>
<!DOCTYPE svg PUBLIC "-//W3C//DTD SVG 1.1//EN"
 "http://www.w3.org/Graphics/SVG/1.1/DTD/svg11.dtd">
<!-- Generated by graphviz version 2.43.0 (0)
 -->
<!-- Title: userver/crypto/private_key.hpp Pages: 1 -->
<svg width="572pt" height="236pt"
 viewBox="0.00 0.00 571.50 236.00" xmlns="http://www.w3.org/2000/svg" xmlns:xlink="http://www.w3.org/1999/xlink">
<g id="graph0" class="graph" transform="scale(1 1) rotate(0) translate(4 232)">
<title>userver/crypto/private_key.hpp</title>
<!-- Node1 -->
<g id="Node000001" class="node">
<title>Node1</title>
<g id="a_Node000001"><a xlink:title=" ">
<polygon fill="#999999" stroke="#666666" points="368,-228 243,-228 243,-198 368,-198 368,-228"/>
<text text-anchor="start" x="251" y="-216" font-family="Helvetica,sans-Serif" font-size="10.00">userver/crypto/private</text>
<text text-anchor="middle" x="305.5" y="-205" font-family="Helvetica,sans-Serif" font-size="10.00">_key.hpp</text>
</a>
</g>
</g>
<!-- Node2 -->
<g id="Node000002" class="node">
<title>Node2</title>
<g id="a_Node000002"><a xlink:href="../../d1/d57/core_2include_2userver_2clients_2http_2request_8hpp.html" target="_top" xlink:title="Class for creating and performing new http requests.">
<polygon fill="white" stroke="#666666" points="227,-162 116,-162 116,-132 227,-132 227,-162"/>
<text text-anchor="start" x="124" y="-150" font-family="Helvetica,sans-Serif" font-size="10.00">userver/clients/http</text>
<text text-anchor="middle" x="171.5" y="-139" font-family="Helvetica,sans-Serif" font-size="10.00">/request.hpp</text>
</a>
</g>
</g>
<!-- Node1&#45;&gt;Node2 -->
<g id="edge1_Node000001_Node000002" class="edge">
<title>Node1&#45;&gt;Node2</title>
<g id="a_edge1_Node000001_Node000002"><a xlink:title=" ">
<path fill="none" stroke="#63b8ff" d="M266.79,-193.51C245.77,-183.47 220.2,-171.26 200.84,-162.01"/>
<polygon fill="#63b8ff" stroke="#63b8ff" points="265.56,-196.8 276.09,-197.95 268.58,-190.49 265.56,-196.8"/>
</a>
</g>
</g>
<!-- Node6 -->
<g id="Node000006" class="node">
<title>Node6</title>
<g id="a_Node000006"><a xlink:href="../../d2/d62/crypto_8hpp.html" target="_top" xlink:title="Include&#45;all header for crypto routines.">
<polygon fill="white" stroke="#666666" points="416.5,-90.5 274.5,-90.5 274.5,-71.5 416.5,-71.5 416.5,-90.5"/>
<text text-anchor="middle" x="345.5" y="-78.5" font-family="Helvetica,sans-Serif" font-size="10.00">userver/crypto/crypto.hpp</text>
</a>
</g>
</g>
<!-- Node1&#45;&gt;Node6 -->
<g id="edge5_Node000001_Node000006" class="edge">
<title>Node1&#45;&gt;Node6</title>
<g id="a_edge5_Node000001_Node000006"><a xlink:title=" ">
<path fill="none" stroke="#63b8ff" d="M286.47,-189.33C275.2,-172.99 264.83,-150.63 274.5,-132 284.78,-112.19 306.9,-98.58 323.74,-90.61"/>
<polygon fill="#63b8ff" stroke="#63b8ff" points="283.94,-191.78 292.71,-197.72 289.56,-187.61 283.94,-191.78"/>
</a>
</g>
</g>
<!-- Node7 -->
<g id="Node000007" class="node">
<title>Node7</title>
<g id="a_Node000007"><a xlink:href="../../d6/dfb/signers_8hpp.html" target="_top" xlink:title="Digital signature generators.">
<polygon fill="white" stroke="#666666" points="429.5,-156.5 283.5,-156.5 283.5,-137.5 429.5,-137.5 429.5,-156.5"/>
<text text-anchor="middle" x="356.5" y="-144.5" font-family="Helvetica,sans-Serif" font-size="10.00">userver/crypto/signers.hpp</text>
</a>
</g>
</g>
<!-- Node1&#45;&gt;Node7 -->
<g id="edge6_Node000001_Node000007" class="edge">
<title>Node1&#45;&gt;Node7</title>
<g id="a_edge6_Node000001_Node000007"><a xlink:title=" ">
<path fill="none" stroke="#63b8ff" d="M323.08,-189.94C332.13,-178.58 342.67,-165.36 349.45,-156.84"/>
<polygon fill="#63b8ff" stroke="#63b8ff" points="320.31,-187.79 316.82,-197.8 325.79,-192.16 320.31,-187.79"/>
</a>
</g>
</g>
<!-- Node8 -->
<g id="Node000008" class="node">
<title>Node8</title>
<g id="a_Node000008"><a xlink:href="../../d2/d28/tls__wrapper_8hpp.html" target="_top" xlink:title="TLS socket wrappers.">
<polygon fill="white" stroke="#666666" points="563.5,-162 447.5,-162 447.5,-132 563.5,-132 563.5,-162"/>
<text text-anchor="start" x="455.5" y="-150" font-family="Helvetica,sans-Serif" font-size="10.00">userver/engine/io/tls</text>
<text text-anchor="middle" x="505.5" y="-139" font-family="Helvetica,sans-Serif" font-size="10.00">_wrapper.hpp</text>
</a>
</g>
</g>
<!-- Node1&#45;&gt;Node8 -->
<g id="edge8_Node000001_Node000008" class="edge">
<title>Node1&#45;&gt;Node8</title>
<g id="a_edge8_Node000001_Node000008"><a xlink:title=" ">
<path fill="none" stroke="#63b8ff" d="M359.07,-194.86C391.19,-184.58 431.51,-171.68 461.71,-162.01"/>
<polygon fill="#63b8ff" stroke="#63b8ff" points="357.85,-191.57 349.39,-197.95 359.98,-198.24 357.85,-191.57"/>
</a>
</g>
</g>
<!-- Node3 -->
<g id="Node000003" class="node">
<title>Node3</title>
<g id="a_Node000003"><a xlink:href="../../d3/db8/core_2include_2userver_2clients_2http_2client_8hpp.html" target="_top" xlink:title="HTTP client that returns a HTTP request builder from CreateRequest().">
<polygon fill="white" stroke="#666666" points="111,-96 0,-96 0,-66 111,-66 111,-96"/>
<text text-anchor="start" x="8" y="-84" font-family="Helvetica,sans-Serif" font-size="10.00">userver/clients/http</text>
<text text-anchor="middle" x="55.5" y="-73" font-family="Helvetica,sans-Serif" font-size="10.00">/client.hpp</text>
</a>
</g>
</g>
<!-- Node2&#45;&gt;Node3 -->
<g id="edge2_Node000002_Node000003" class="edge">
<title>Node2&#45;&gt;Node3</title>
<g id="a_edge2_Node000002_Node000003"><a xlink:title=" ">
<path fill="none" stroke="#63b8ff" d="M137.01,-126.97C119,-117.03 97.35,-105.09 80.9,-96.01"/>
<polygon fill="#63b8ff" stroke="#63b8ff" points="135.6,-130.19 146.04,-131.95 138.98,-124.06 135.6,-130.19"/>
</a>
</g>
</g>
<!-- Node5 -->
<g id="Node000005" class="node">
<title>Node5</title>
<g id="a_Node000005"><a xlink:href="../../d2/d6c/http__server__mock_8hpp_source.html" target="_top" xlink:title=" ">
<polygon fill="white" stroke="#666666" points="235.5,-96 129.5,-96 129.5,-66 235.5,-66 235.5,-96"/>
<text text-anchor="start" x="137.5" y="-84" font-family="Helvetica,sans-Serif" font-size="10.00">userver/utest/http</text>
<text text-anchor="middle" x="182.5" y="-73" font-family="Helvetica,sans-Serif" font-size="10.00">_server_mock.hpp</text>
</a>
</g>
</g>
<!-- Node2&#45;&gt;Node5 -->
<g id="edge4_Node000002_Node000005" class="edge">
<title>Node2&#45;&gt;Node5</title>
<g id="a_edge4_Node000002_Node000005"><a xlink:title=" ">
<path fill="none" stroke="#63b8ff" d="M175.66,-121.83C177.14,-113.17 178.77,-103.7 180.07,-96.16"/>
<polygon fill="#63b8ff" stroke="#63b8ff" points="172.19,-121.35 173.94,-131.8 179.08,-122.53 172.19,-121.35"/>
</a>
</g>
</g>
<!-- Node4 -->
<g id="Node000004" class="node">
<title>Node4</title>
<g id="a_Node000004"><a xlink:href="../../d7/d98/core_2include_2userver_2clients_2http_2component_8hpp.html" target="_top" xlink:title="Component that manages clients::http::Client.">
<polygon fill="white" stroke="#666666" points="111,-30 0,-30 0,0 111,0 111,-30"/>
<text text-anchor="start" x="8" y="-18" font-family="Helvetica,sans-Serif" font-size="10.00">userver/clients/http</text>
<text text-anchor="middle" x="55.5" y="-7" font-family="Helvetica,sans-Serif" font-size="10.00">/component.hpp</text>
</a>
</g>
</g>
<!-- Node3&#45;&gt;Node4 -->
<g id="edge3_Node000003_Node000004" class="edge">
<title>Node3&#45;&gt;Node4</title>
<g id="a_edge3_Node000003_Node000004"><a xlink:title=" ">
<path fill="none" stroke="#63b8ff" d="M55.5,-55.54C55.5,-46.96 55.5,-37.61 55.5,-30.16"/>
<polygon fill="#63b8ff" stroke="#63b8ff" points="52,-55.8 55.5,-65.8 59,-55.8 52,-55.8"/>
</a>
</g>
</g>
<!-- Node7&#45;&gt;Node6 -->
<g id="edge7_Node000007_Node000006" class="edge">
<title>Node7&#45;&gt;Node6</title>
<g id="a_edge7_Node000007_Node000006"><a xlink:title=" ">
<path fill="none" stroke="#63b8ff" d="M353.31,-127.45C351.25,-115.43 348.65,-100.32 347.03,-90.91"/>
<polygon fill="#63b8ff" stroke="#63b8ff" points="349.87,-128.11 355.02,-137.37 356.77,-126.92 349.87,-128.11"/>
</a>
</g>
</g>
</g>
</svg>
