<?xml version="1.0" encoding="UTF-8" standalone="no"?>
<!DOCTYPE svg PUBLIC "-//W3C//DTD SVG 1.1//EN"
 "http://www.w3.org/Graphics/SVG/1.1/DTD/svg11.dtd">
<!-- Generated by graphviz version 2.43.0 (0)
 -->
<!-- Title: server::handlers::HttpHandlerBase Pages: 1 -->
<svg width="1251pt" height="523pt"
 viewBox="0.00 0.00 1251.00 523.00" xmlns="http://www.w3.org/2000/svg" xmlns:xlink="http://www.w3.org/1999/xlink">
<g id="graph0" class="graph" transform="scale(1 1) rotate(0) translate(4 519)">
<title>server::handlers::HttpHandlerBase</title>
<!-- Node1 -->
<g id="Node000001" class="node">
<title>Node1</title>
<g id="a_Node000001"><a xlink:title="Base class for all the Userver HTTP Handlers.">
<polygon fill="#999999" stroke="#666666" points="804,-247.5 619,-247.5 619,-228.5 804,-228.5 804,-247.5"/>
<text text-anchor="middle" x="711.5" y="-235.5" font-family="Helvetica,sans-Serif" font-size="10.00">server::handlers::HttpHandlerBase</text>
</a>
</g>
</g>
<!-- Node5 -->
<g id="Node000005" class="node">
<title>Node5</title>
<g id="a_Node000005"><a xlink:href="../../d1/d48/classserver_1_1handlers_1_1DnsClientControl.html" target="_top" xlink:title="Handlers that controls the DNS client.">
<polygon fill="white" stroke="#666666" points="1017.5,-515 868.5,-515 868.5,-485 1017.5,-485 1017.5,-515"/>
<text text-anchor="start" x="876.5" y="-503" font-family="Helvetica,sans-Serif" font-size="10.00">server::handlers::DnsClient</text>
<text text-anchor="middle" x="943" y="-492" font-family="Helvetica,sans-Serif" font-size="10.00">Control</text>
</a>
</g>
</g>
<!-- Node1&#45;&gt;Node5 -->
<g id="edge4_Node000001_Node000005" class="edge">
<title>Node1&#45;&gt;Node5</title>
<g id="a_edge4_Node000001_Node000005"><a xlink:title=" ">
<path fill="none" stroke="#63b8ff" d="M717.05,-257.39C728.82,-303.12 764.79,-418.23 840,-476 848.37,-482.43 858.18,-487.17 868.35,-490.67"/>
<polygon fill="#63b8ff" stroke="#63b8ff" points="720.42,-256.43 714.62,-247.56 713.62,-258.11 720.42,-256.43"/>
</a>
</g>
</g>
<!-- Node6 -->
<g id="Node000006" class="node">
<title>Node6</title>
<g id="a_Node000006"><a xlink:href="../../dd/dea/classserver_1_1handlers_1_1DynamicDebugLog.html" target="_top" xlink:title="Handler for forcing specific lines logging. Feature also known as dynamic debug logging.">
<polygon fill="white" stroke="#666666" points="1015.5,-467 870.5,-467 870.5,-437 1015.5,-437 1015.5,-467"/>
<text text-anchor="start" x="878.5" y="-455" font-family="Helvetica,sans-Serif" font-size="10.00">server::handlers::Dynamic</text>
<text text-anchor="middle" x="943" y="-444" font-family="Helvetica,sans-Serif" font-size="10.00">DebugLog</text>
</a>
</g>
</g>
<!-- Node1&#45;&gt;Node6 -->
<g id="edge5_Node000001_Node000006" class="edge">
<title>Node1&#45;&gt;Node6</title>
<g id="a_edge5_Node000001_Node000006"><a xlink:title=" ">
<path fill="none" stroke="#63b8ff" d="M719.77,-257.35C735.41,-296.2 776.11,-383.78 840,-428 849.12,-434.32 859.69,-438.98 870.5,-442.43"/>
<polygon fill="#63b8ff" stroke="#63b8ff" points="722.92,-255.8 716.03,-247.76 716.4,-258.35 722.92,-255.8"/>
</a>
</g>
</g>
<!-- Node7 -->
<g id="Node000007" class="node">
<title>Node7</title>
<g id="a_Node000007"><a xlink:href="../../d8/dfe/classserver_1_1handlers_1_1HttpHandlerFlatbufBase.html" target="_top" xlink:title="Convenient base for handlers that accept requests with body in Flatbuffer format and respond with bod...">
<polygon fill="white" stroke="#666666" points="1046,-419 840,-419 840,-389 1046,-389 1046,-419"/>
<text text-anchor="start" x="848" y="-407" font-family="Helvetica,sans-Serif" font-size="10.00">server::handlers::HttpHandler</text>
<text text-anchor="middle" x="943" y="-396" font-family="Helvetica,sans-Serif" font-size="10.00">FlatbufBase&lt; InputType, ReturnType &gt;</text>
</a>
</g>
</g>
<!-- Node1&#45;&gt;Node7 -->
<g id="edge6_Node000001_Node000007" class="edge">
<title>Node1&#45;&gt;Node7</title>
<g id="a_edge6_Node000001_Node000007"><a xlink:title=" ">
<path fill="none" stroke="#63b8ff" d="M723.75,-256.61C743.34,-287.34 786.77,-348.44 840,-380 845.87,-383.48 852.21,-386.45 858.75,-389"/>
<polygon fill="#63b8ff" stroke="#63b8ff" points="726.5,-254.41 718.24,-247.77 720.56,-258.11 726.5,-254.41"/>
</a>
</g>
</g>
<!-- Node8 -->
<g id="Node000008" class="node">
<title>Node8</title>
<g id="a_Node000008"><a xlink:href="../../da/dbe/classserver_1_1handlers_1_1HttpHandlerJsonBase.html" target="_top" xlink:title="Convenient base for handlers that accept requests with body in JSON format and respond with body in J...">
<polygon fill="white" stroke="#666666" points="1023.5,-371 862.5,-371 862.5,-341 1023.5,-341 1023.5,-371"/>
<text text-anchor="start" x="870.5" y="-359" font-family="Helvetica,sans-Serif" font-size="10.00">server::handlers::HttpHandler</text>
<text text-anchor="middle" x="943" y="-348" font-family="Helvetica,sans-Serif" font-size="10.00">JsonBase</text>
</a>
</g>
</g>
<!-- Node1&#45;&gt;Node8 -->
<g id="edge7_Node000001_Node000008" class="edge">
<title>Node1&#45;&gt;Node8</title>
<g id="a_edge7_Node000001_Node000008"><a xlink:title=" ">
<path fill="none" stroke="#63b8ff" d="M730.13,-254.69C753.44,-275.84 796.65,-311.95 840,-332 847.43,-335.44 855.4,-338.41 863.49,-340.97"/>
<polygon fill="#63b8ff" stroke="#63b8ff" points="732.2,-251.84 722.48,-247.63 727.45,-256.99 732.2,-251.84"/>
</a>
</g>
</g>
<!-- Node12 -->
<g id="Node000012" class="node">
<title>Node12</title>
<g id="a_Node000012"><a xlink:href="../../dd/d88/classserver_1_1handlers_1_1HttpHandlerStatic.html" target="_top" xlink:title="Handler that returns HTTP 200 if file exist and returns file data with mapped content/type.">
<polygon fill="white" stroke="#666666" points="1023.5,-323 862.5,-323 862.5,-293 1023.5,-293 1023.5,-323"/>
<text text-anchor="start" x="870.5" y="-311" font-family="Helvetica,sans-Serif" font-size="10.00">server::handlers::HttpHandler</text>
<text text-anchor="middle" x="943" y="-300" font-family="Helvetica,sans-Serif" font-size="10.00">Static</text>
</a>
</g>
</g>
<!-- Node1&#45;&gt;Node12 -->
<g id="edge11_Node000001_Node000012" class="edge">
<title>Node1&#45;&gt;Node12</title>
<g id="a_edge11_Node000001_Node000012"><a xlink:title=" ">
<path fill="none" stroke="#63b8ff" d="M746.23,-251.37C771.73,-261.19 807.74,-274.42 840,-284 850.64,-287.16 862,-290.18 873.13,-292.94"/>
<polygon fill="#63b8ff" stroke="#63b8ff" points="747.25,-248.02 736.67,-247.66 744.72,-254.54 747.25,-248.02"/>
</a>
</g>
</g>
<!-- Node13 -->
<g id="Node000013" class="node">
<title>Node13</title>
<g id="a_Node000013"><a xlink:href="../../de/d97/classserver_1_1handlers_1_1ImplicitOptions.html" target="_top" xlink:title="A &quot;magical&quot; handler that will respond to OPTIONS HTTP method for any other handler that cannot handle...">
<polygon fill="white" stroke="#666666" points="1012,-275 874,-275 874,-245 1012,-245 1012,-275"/>
<text text-anchor="start" x="882" y="-263" font-family="Helvetica,sans-Serif" font-size="10.00">server::handlers::Implicit</text>
<text text-anchor="middle" x="943" y="-252" font-family="Helvetica,sans-Serif" font-size="10.00">Options</text>
</a>
</g>
</g>
<!-- Node1&#45;&gt;Node13 -->
<g id="edge12_Node000001_Node000013" class="edge">
<title>Node1&#45;&gt;Node13</title>
<g id="a_edge12_Node000001_Node000013"><a xlink:title=" ">
<path fill="none" stroke="#63b8ff" d="M814.33,-247.76C834.45,-249.69 855.11,-251.67 873.78,-253.46"/>
<polygon fill="#63b8ff" stroke="#63b8ff" points="814.48,-244.26 804.19,-246.79 813.81,-251.23 814.48,-244.26"/>
</a>
</g>
</g>
<!-- Node14 -->
<g id="Node000014" class="node">
<title>Node14</title>
<g id="a_Node000014"><a xlink:href="../../d2/d34/classserver_1_1handlers_1_1Jemalloc.html" target="_top" xlink:title="Handler that controls the jemalloc allocator.">
<polygon fill="white" stroke="#666666" points="1014.5,-226.5 871.5,-226.5 871.5,-207.5 1014.5,-207.5 1014.5,-226.5"/>
<text text-anchor="middle" x="943" y="-214.5" font-family="Helvetica,sans-Serif" font-size="10.00">server::handlers::Jemalloc</text>
</a>
</g>
</g>
<!-- Node1&#45;&gt;Node14 -->
<g id="edge13_Node000001_Node000014" class="edge">
<title>Node1&#45;&gt;Node14</title>
<g id="a_edge13_Node000001_Node000014"><a xlink:title=" ">
<path fill="none" stroke="#63b8ff" d="M814.21,-228.69C833.49,-226.93 853.26,-225.12 871.31,-223.47"/>
<polygon fill="#63b8ff" stroke="#63b8ff" points="813.83,-225.21 804.19,-229.61 814.47,-232.18 813.83,-225.21"/>
</a>
</g>
</g>
<!-- Node15 -->
<g id="Node000015" class="node">
<title>Node15</title>
<g id="a_Node000015"><a xlink:href="../../da/da0/classserver_1_1handlers_1_1LogLevel.html" target="_top" xlink:title="Handler that controls logging levels of all the loggers.">
<polygon fill="white" stroke="#666666" points="1015.5,-189.5 870.5,-189.5 870.5,-170.5 1015.5,-170.5 1015.5,-189.5"/>
<text text-anchor="middle" x="943" y="-177.5" font-family="Helvetica,sans-Serif" font-size="10.00">server::handlers::LogLevel</text>
</a>
</g>
</g>
<!-- Node1&#45;&gt;Node15 -->
<g id="edge14_Node000001_Node000015" class="edge">
<title>Node1&#45;&gt;Node15</title>
<g id="a_edge14_Node000001_Node000015"><a xlink:title=" ">
<path fill="none" stroke="#63b8ff" d="M749.13,-225.12C774.42,-216.58 808.96,-205.57 840,-198 853.01,-194.82 867.09,-191.97 880.51,-189.53"/>
<polygon fill="#63b8ff" stroke="#63b8ff" points="747.9,-221.84 739.57,-228.39 750.17,-228.47 747.9,-221.84"/>
</a>
</g>
</g>
<!-- Node16 -->
<g id="Node000016" class="node">
<title>Node16</title>
<g id="a_Node000016"><a xlink:href="../../dc/dde/classserver_1_1handlers_1_1OnLogRotate.html" target="_top" xlink:title="Handler that controls logging levels of all the loggers.">
<polygon fill="white" stroke="#666666" points="1025,-152.5 861,-152.5 861,-133.5 1025,-133.5 1025,-152.5"/>
<text text-anchor="middle" x="943" y="-140.5" font-family="Helvetica,sans-Serif" font-size="10.00">server::handlers::OnLogRotate</text>
</a>
</g>
</g>
<!-- Node1&#45;&gt;Node16 -->
<g id="edge15_Node000001_Node000016" class="edge">
<title>Node1&#45;&gt;Node16</title>
<g id="a_edge15_Node000001_Node000016"><a xlink:title=" ">
<path fill="none" stroke="#63b8ff" d="M732.78,-222.47C756.96,-204.77 799.25,-176.29 840,-161 849.18,-157.56 859.07,-154.76 868.95,-152.5"/>
<polygon fill="#63b8ff" stroke="#63b8ff" points="730.66,-219.69 724.73,-228.47 734.84,-225.3 730.66,-219.69"/>
</a>
</g>
</g>
<!-- Node17 -->
<g id="Node000017" class="node">
<title>Node17</title>
<g id="a_Node000017"><a xlink:href="../../d7/d6d/classserver_1_1handlers_1_1Ping.html" target="_top" xlink:title="Handler that returns HTTP 200 if the service is OK and able to process requests.">
<polygon fill="white" stroke="#666666" points="1004,-115.5 882,-115.5 882,-96.5 1004,-96.5 1004,-115.5"/>
<text text-anchor="middle" x="943" y="-103.5" font-family="Helvetica,sans-Serif" font-size="10.00">server::handlers::Ping</text>
</a>
</g>
</g>
<!-- Node1&#45;&gt;Node17 -->
<g id="edge16_Node000001_Node000017" class="edge">
<title>Node1&#45;&gt;Node17</title>
<g id="a_edge16_Node000001_Node000017"><a xlink:title=" ">
<path fill="none" stroke="#63b8ff" d="M726.3,-220.63C747.7,-195 791.53,-147.54 840,-124 852.86,-117.75 867.57,-113.65 881.74,-110.96"/>
<polygon fill="#63b8ff" stroke="#63b8ff" points="723.55,-218.46 719.92,-228.42 728.97,-222.9 723.55,-218.46"/>
</a>
</g>
</g>
<!-- Node18 -->
<g id="Node000018" class="node">
<title>Node18</title>
<g id="a_Node000018"><a xlink:href="../../dc/d10/classserver_1_1handlers_1_1ServerMonitor.html" target="_top" xlink:title="Handler that returns statistics data.">
<polygon fill="white" stroke="#666666" points="1009.5,-78 876.5,-78 876.5,-48 1009.5,-48 1009.5,-78"/>
<text text-anchor="start" x="884.5" y="-66" font-family="Helvetica,sans-Serif" font-size="10.00">server::handlers::Server</text>
<text text-anchor="middle" x="943" y="-55" font-family="Helvetica,sans-Serif" font-size="10.00">Monitor</text>
</a>
</g>
</g>
<!-- Node1&#45;&gt;Node18 -->
<g id="edge17_Node000001_Node000018" class="edge">
<title>Node1&#45;&gt;Node18</title>
<g id="a_edge17_Node000001_Node000018"><a xlink:title=" ">
<path fill="none" stroke="#63b8ff" d="M722.65,-219.56C741.39,-187.34 784.61,-120.99 840,-87 851.01,-80.25 863.76,-75.39 876.43,-71.9"/>
<polygon fill="#63b8ff" stroke="#63b8ff" points="719.53,-217.97 717.63,-228.39 725.62,-221.43 719.53,-217.97"/>
</a>
</g>
</g>
<!-- Node19 -->
<g id="Node000019" class="node">
<title>Node19</title>
<g id="a_Node000019"><a xlink:href="../../d3/dc5/classserver_1_1websocket_1_1WebsocketHandlerBase.html" target="_top" xlink:title="Base class for WebSocket handler.">
<polygon fill="white" stroke="#666666" points="1008.5,-30 877.5,-30 877.5,0 1008.5,0 1008.5,-30"/>
<text text-anchor="start" x="885.5" y="-18" font-family="Helvetica,sans-Serif" font-size="10.00">server::websocket::</text>
<text text-anchor="middle" x="943" y="-7" font-family="Helvetica,sans-Serif" font-size="10.00">WebsocketHandlerBase</text>
</a>
</g>
</g>
<!-- Node1&#45;&gt;Node19 -->
<g id="edge18_Node000001_Node000019" class="edge">
<title>Node1&#45;&gt;Node19</title>
<g id="a_edge18_Node000001_Node000019"><a xlink:title=" ">
<path fill="none" stroke="#63b8ff" d="M719.1,-218.83C733.94,-178.71 773.91,-85.79 840,-39 850.99,-31.22 864.15,-25.93 877.3,-22.35"/>
<polygon fill="#63b8ff" stroke="#63b8ff" points="715.8,-217.65 715.72,-228.24 722.39,-220.01 715.8,-217.65"/>
</a>
</g>
</g>
<!-- Node2 -->
<g id="Node000002" class="node">
<title>Node2</title>
<g id="a_Node000002"><a xlink:href="../../d1/ddc/classserver_1_1handlers_1_1HandlerBase.html" target="_top" xlink:title="Base class for the request handlers.">
<polygon fill="white" stroke="#666666" points="583,-247.5 419,-247.5 419,-228.5 583,-228.5 583,-247.5"/>
<text text-anchor="middle" x="501" y="-235.5" font-family="Helvetica,sans-Serif" font-size="10.00">server::handlers::HandlerBase</text>
</a>
</g>
</g>
<!-- Node2&#45;&gt;Node1 -->
<g id="edge1_Node000001_Node000002" class="edge">
<title>Node2&#45;&gt;Node1</title>
<g id="a_edge1_Node000001_Node000002"><a xlink:title=" ">
<path fill="none" stroke="#63b8ff" d="M593.41,-238C601.83,-238 610.36,-238 618.79,-238"/>
<polygon fill="#63b8ff" stroke="#63b8ff" points="593.21,-234.5 583.21,-238 593.21,-241.5 593.21,-234.5"/>
</a>
</g>
</g>
<!-- Node3 -->
<g id="Node000003" class="node">
<title>Node3</title>
<g id="a_Node000003"><a xlink:href="../../d7/db4/classcomponents_1_1ComponentBase.html" target="_top" xlink:title="Base class for all application components, it depends on components::Logger and components::Tracer.">
<polygon fill="white" stroke="#666666" points="383,-247.5 220,-247.5 220,-228.5 383,-228.5 383,-247.5"/>
<text text-anchor="middle" x="301.5" y="-235.5" font-family="Helvetica,sans-Serif" font-size="10.00">components::ComponentBase</text>
</a>
</g>
</g>
<!-- Node3&#45;&gt;Node2 -->
<g id="edge2_Node000002_Node000003" class="edge">
<title>Node3&#45;&gt;Node2</title>
<g id="a_edge2_Node000002_Node000003"><a xlink:title=" ">
<path fill="none" stroke="#63b8ff" d="M393.36,-238C401.81,-238 410.33,-238 418.68,-238"/>
<polygon fill="#63b8ff" stroke="#63b8ff" points="393.12,-234.5 383.12,-238 393.12,-241.5 393.12,-234.5"/>
</a>
</g>
</g>
<!-- Node4 -->
<g id="Node000004" class="node">
<title>Node4</title>
<g id="a_Node000004"><a xlink:href="../../d2/d86/classcomponents_1_1RawComponentBase.html" target="_top" xlink:title="The base class for all components. Don&#39;t use it for application components, use ComponentBase instead...">
<polygon fill="white" stroke="#666666" points="184,-247.5 0,-247.5 0,-228.5 184,-228.5 184,-247.5"/>
<text text-anchor="middle" x="92" y="-235.5" font-family="Helvetica,sans-Serif" font-size="10.00">components::RawComponentBase</text>
</a>
</g>
</g>
<!-- Node4&#45;&gt;Node3 -->
<g id="edge3_Node000003_Node000004" class="edge">
<title>Node4&#45;&gt;Node3</title>
<g id="a_edge3_Node000003_Node000004"><a xlink:title=" ">
<path fill="none" stroke="#63b8ff" d="M194.16,-238C202.82,-238 211.51,-238 219.99,-238"/>
<polygon fill="#63b8ff" stroke="#63b8ff" points="194.01,-234.5 184.01,-238 194.01,-241.5 194.01,-234.5"/>
</a>
</g>
</g>
<!-- Node9 -->
<g id="Node000009" class="node">
<title>Node9</title>
<g id="a_Node000009"><a xlink:href="../../d6/d08/classalerts_1_1Handler.html" target="_top" xlink:title="Handler that returns the list of active fired alerts.">
<polygon fill="white" stroke="#666666" points="1207,-408.5 1118,-408.5 1118,-389.5 1207,-389.5 1207,-408.5"/>
<text text-anchor="middle" x="1162.5" y="-396.5" font-family="Helvetica,sans-Serif" font-size="10.00">alerts::Handler</text>
</a>
</g>
</g>
<!-- Node8&#45;&gt;Node9 -->
<g id="edge8_Node000008_Node000009" class="edge">
<title>Node8&#45;&gt;Node9</title>
<g id="a_edge8_Node000008_Node000009"><a xlink:title=" ">
<path fill="none" stroke="#63b8ff" d="M1030.16,-373.03C1060.21,-378.98 1092.68,-385.39 1117.81,-390.36"/>
<polygon fill="#63b8ff" stroke="#63b8ff" points="1030.56,-369.55 1020.07,-371.04 1029.2,-376.41 1030.56,-369.55"/>
</a>
</g>
</g>
<!-- Node10 -->
<g id="Node000010" class="node">
<title>Node10</title>
<g id="a_Node000010"><a xlink:href="../../d8/d67/classserver_1_1handlers_1_1InspectRequests.html" target="_top" xlink:title="Handler that returns information about all in&#45;flight requests.">
<polygon fill="white" stroke="#666666" points="1231,-371 1094,-371 1094,-341 1231,-341 1231,-371"/>
<text text-anchor="start" x="1102" y="-359" font-family="Helvetica,sans-Serif" font-size="10.00">server::handlers::Inspect</text>
<text text-anchor="middle" x="1162.5" y="-348" font-family="Helvetica,sans-Serif" font-size="10.00">Requests</text>
</a>
</g>
</g>
<!-- Node8&#45;&gt;Node10 -->
<g id="edge9_Node000008_Node000010" class="edge">
<title>Node8&#45;&gt;Node10</title>
<g id="a_edge9_Node000008_Node000010"><a xlink:title=" ">
<path fill="none" stroke="#63b8ff" d="M1033.85,-356C1053.93,-356 1074.91,-356 1093.92,-356"/>
<polygon fill="#63b8ff" stroke="#63b8ff" points="1033.75,-352.5 1023.75,-356 1033.75,-359.5 1033.75,-352.5"/>
</a>
</g>
</g>
<!-- Node11 -->
<g id="Node000011" class="node">
<title>Node11</title>
<g id="a_Node000011"><a xlink:href="../../d5/ded/classserver_1_1handlers_1_1TestsControl.html" target="_top" xlink:title="Handler that allows to control the behavior of server from tests, and functional tests with testsuite...">
<polygon fill="white" stroke="#666666" points="1243,-322.5 1082,-322.5 1082,-303.5 1243,-303.5 1243,-322.5"/>
<text text-anchor="middle" x="1162.5" y="-310.5" font-family="Helvetica,sans-Serif" font-size="10.00">server::handlers::TestsControl</text>
</a>
</g>
</g>
<!-- Node8&#45;&gt;Node11 -->
<g id="edge10_Node000008_Node000011" class="edge">
<title>Node8&#45;&gt;Node11</title>
<g id="a_edge10_Node000008_Node000011"><a xlink:title=" ">
<path fill="none" stroke="#63b8ff" d="M1029.99,-339C1058.34,-333.39 1088.85,-327.36 1113.34,-322.52"/>
<polygon fill="#63b8ff" stroke="#63b8ff" points="1029.2,-335.59 1020.07,-340.96 1030.56,-342.45 1029.2,-335.59"/>
</a>
</g>
</g>
</g>
</svg>
