<?xml version="1.0" encoding="UTF-8" standalone="no"?>
<!DOCTYPE svg PUBLIC "-//W3C//DTD SVG 1.1//EN"
 "http://www.w3.org/Graphics/SVG/1.1/DTD/svg11.dtd">
<!-- Generated by graphviz version 2.43.0 (0)
 -->
<!-- Title: engine::io::IoInterrupted Pages: 1 -->
<svg width="289pt" height="247pt"
 viewBox="0.00 0.00 289.00 247.00" xmlns="http://www.w3.org/2000/svg" xmlns:xlink="http://www.w3.org/1999/xlink">
<g id="graph0" class="graph" transform="scale(1 1) rotate(0) translate(4 243)">
<title>engine::io::IoInterrupted</title>
<!-- Node1 -->
<g id="Node000001" class="node">
<title>Node1</title>
<g id="a_Node000001"><a xlink:title="I/O interruption.">
<polygon fill="#999999" stroke="#666666" points="202,-74 68,-74 68,-55 202,-55 202,-74"/>
<text text-anchor="middle" x="135" y="-62" font-family="Helvetica,sans-Serif" font-size="10.00">engine::io::IoInterrupted</text>
</a>
</g>
</g>
<!-- Node6 -->
<g id="Node000006" class="node">
<title>Node6</title>
<g id="a_Node000006"><a xlink:href="../../df/de3/classengine_1_1io_1_1IoCancelled.html" target="_top" xlink:title=" ">
<polygon fill="white" stroke="#666666" points="128,-19 0,-19 0,0 128,0 128,-19"/>
<text text-anchor="middle" x="64" y="-7" font-family="Helvetica,sans-Serif" font-size="10.00">engine::io::IoCancelled</text>
</a>
</g>
</g>
<!-- Node1&#45;&gt;Node6 -->
<g id="edge5_Node000001_Node000006" class="edge">
<title>Node1&#45;&gt;Node6</title>
<g id="a_edge5_Node000001_Node000006"><a xlink:title=" ">
<path fill="none" stroke="#63b8ff" d="M115.41,-48.88C102.63,-39.34 86.39,-27.21 75.61,-19.17"/>
<polygon fill="#63b8ff" stroke="#63b8ff" points="113.49,-51.81 123.59,-54.98 117.67,-46.2 113.49,-51.81"/>
</a>
</g>
</g>
<!-- Node7 -->
<g id="Node000007" class="node">
<title>Node7</title>
<g id="a_Node000007"><a xlink:href="../../de/d2d/classengine_1_1io_1_1IoTimeout.html" target="_top" xlink:title="I/O timeout.">
<polygon fill="white" stroke="#666666" points="266,-19 146,-19 146,0 266,0 266,-19"/>
<text text-anchor="middle" x="206" y="-7" font-family="Helvetica,sans-Serif" font-size="10.00">engine::io::IoTimeout</text>
</a>
</g>
</g>
<!-- Node1&#45;&gt;Node7 -->
<g id="edge6_Node000001_Node000007" class="edge">
<title>Node1&#45;&gt;Node7</title>
<g id="a_edge6_Node000001_Node000007"><a xlink:title=" ">
<path fill="none" stroke="#63b8ff" d="M154.59,-48.88C167.37,-39.34 183.61,-27.21 194.39,-19.17"/>
<polygon fill="#63b8ff" stroke="#63b8ff" points="152.33,-46.2 146.41,-54.98 156.51,-51.81 152.33,-46.2"/>
</a>
</g>
</g>
<!-- Node2 -->
<g id="Node000002" class="node">
<title>Node2</title>
<g id="a_Node000002"><a xlink:href="../../d2/d81/classengine_1_1io_1_1IoException.html" target="_top" xlink:title="Generic I/O error.">
<polygon fill="white" stroke="#666666" points="199,-129 71,-129 71,-110 199,-110 199,-129"/>
<text text-anchor="middle" x="135" y="-117" font-family="Helvetica,sans-Serif" font-size="10.00">engine::io::IoException</text>
</a>
</g>
</g>
<!-- Node2&#45;&gt;Node1 -->
<g id="edge1_Node000001_Node000002" class="edge">
<title>Node2&#45;&gt;Node1</title>
<g id="a_edge1_Node000001_Node000002"><a xlink:title=" ">
<path fill="none" stroke="#63b8ff" d="M135,-99.66C135,-90.93 135,-80.99 135,-74.09"/>
<polygon fill="#63b8ff" stroke="#63b8ff" points="131.5,-99.75 135,-109.75 138.5,-99.75 131.5,-99.75"/>
</a>
</g>
</g>
<!-- Node3 -->
<g id="Node000003" class="node">
<title>Node3</title>
<g id="a_Node000003"><a xlink:href="../../df/dae/classutils_1_1TracefulException.html" target="_top" xlink:title="Exception that remembers the backtrace at the point of its construction.">
<polygon fill="white" stroke="#666666" points="200,-184 70,-184 70,-165 200,-165 200,-184"/>
<text text-anchor="middle" x="135" y="-172" font-family="Helvetica,sans-Serif" font-size="10.00">utils::TracefulException</text>
</a>
</g>
</g>
<!-- Node3&#45;&gt;Node2 -->
<g id="edge2_Node000002_Node000003" class="edge">
<title>Node3&#45;&gt;Node2</title>
<g id="a_edge2_Node000002_Node000003"><a xlink:title=" ">
<path fill="none" stroke="#63b8ff" d="M135,-154.66C135,-145.93 135,-135.99 135,-129.09"/>
<polygon fill="#63b8ff" stroke="#63b8ff" points="131.5,-154.75 135,-164.75 138.5,-154.75 131.5,-154.75"/>
</a>
</g>
</g>
<!-- Node4 -->
<g id="Node000004" class="node">
<title>Node4</title>
<g id="a_Node000004"><a xlink:title=" ">
<polygon fill="white" stroke="#666666" points="109,-239 23,-239 23,-220 109,-220 109,-239"/>
<text text-anchor="middle" x="66" y="-227" font-family="Helvetica,sans-Serif" font-size="10.00">std::exception</text>
</a>
</g>
</g>
<!-- Node4&#45;&gt;Node3 -->
<g id="edge3_Node000003_Node000004" class="edge">
<title>Node4&#45;&gt;Node3</title>
<g id="a_edge3_Node000003_Node000004"><a xlink:title=" ">
<path fill="none" stroke="#63b8ff" d="M85.04,-213.88C97.46,-204.34 113.24,-192.21 123.71,-184.17"/>
<polygon fill="#63b8ff" stroke="#63b8ff" points="82.88,-211.12 77.09,-219.98 87.15,-216.67 82.88,-211.12"/>
</a>
</g>
</g>
<!-- Node5 -->
<g id="Node000005" class="node">
<title>Node5</title>
<g id="a_Node000005"><a xlink:href="../../d9/d28/classutils_1_1TracefulExceptionBase.html" target="_top" xlink:title="Base class implementing backtrace storage and message builder, published only for documentation purpo...">
<polygon fill="white" stroke="#666666" points="281,-239 127,-239 127,-220 281,-220 281,-239"/>
<text text-anchor="middle" x="204" y="-227" font-family="Helvetica,sans-Serif" font-size="10.00">utils::TracefulExceptionBase</text>
</a>
</g>
</g>
<!-- Node5&#45;&gt;Node3 -->
<g id="edge4_Node000003_Node000005" class="edge">
<title>Node5&#45;&gt;Node3</title>
<g id="a_edge4_Node000003_Node000005"><a xlink:title=" ">
<path fill="none" stroke="#63b8ff" d="M184.96,-213.88C172.54,-204.34 156.76,-192.21 146.29,-184.17"/>
<polygon fill="#63b8ff" stroke="#63b8ff" points="182.85,-216.67 192.91,-219.98 187.12,-211.12 182.85,-216.67"/>
</a>
</g>
</g>
</g>
</svg>
