<?xml version="1.0" encoding="UTF-8" standalone="no"?>
<!DOCTYPE svg PUBLIC "-//W3C//DTD SVG 1.1//EN"
 "http://www.w3.org/Graphics/SVG/1.1/DTD/svg11.dtd">
<!-- Generated by graphviz version 2.43.0 (0)
 -->
<!-- Title: Universal Pages: 1 -->
<svg width="335pt" height="1067pt"
 viewBox="0.00 0.00 335.00 1066.99" xmlns="http://www.w3.org/2000/svg" xmlns:xlink="http://www.w3.org/1999/xlink">
<g id="graph0" class="graph" transform="scale(1 1) rotate(0) translate(4 1062.99)">
<title>Universal</title>
<!-- Node8 -->
<g id="Node000008" class="node">
<title>Node8</title>
<g id="a_Node000008"><a xlink:href="../../da/d0c/group__userver__base__classes.html" target="_top" xlink:title="Base classes that simplify implementation of functionality.">
<polygon fill="white" stroke="#666666" points="322,-1044.49 241,-1044.49 241,-1025.49 322,-1025.49 322,-1044.49"/>
<text text-anchor="middle" x="281.5" y="-1032.49" font-family="Helvetica,sans-Serif" font-size="10.00">Base Classes</text>
</a>
</g>
</g>
<!-- Node7 -->
<g id="Node000007" class="node">
<title>Node7</title>
<g id="a_Node000007"><a xlink:href="../../dc/db7/group__userver__concurrency.html" target="_top" xlink:title="Task construction and synchronization primitives for coroutines.">
<polygon fill="white" stroke="#666666" points="320,-1007.49 243,-1007.49 243,-988.49 320,-988.49 320,-1007.49"/>
<text text-anchor="middle" x="281.5" y="-995.49" font-family="Helvetica,sans-Serif" font-size="10.00">Concurrency</text>
</a>
</g>
</g>
<!-- Node2 -->
<g id="Node000002" class="node">
<title>Node2</title>
<g id="a_Node000002"><a xlink:href="../../df/d2e/group__userver__containers.html" target="_top" xlink:title="Utility containers.">
<polygon fill="white" stroke="#666666" points="316,-511.49 247,-511.49 247,-492.49 316,-492.49 316,-511.49"/>
<text text-anchor="middle" x="281.5" y="-499.49" font-family="Helvetica,sans-Serif" font-size="10.00">Containers</text>
</a>
</g>
</g>
<!-- Node3 -->
<g id="Node000003" class="node">
<title>Node3</title>
<g id="a_Node000003"><a xlink:href="../../d3/dcb/group__userver__formats.html" target="_top" xlink:title="Different containers that share the same interface and manipulate tree&#45;like formats.">
<polygon fill="white" stroke="#666666" points="309.5,-422.49 253.5,-422.49 253.5,-403.49 309.5,-403.49 309.5,-422.49"/>
<text text-anchor="middle" x="281.5" y="-410.49" font-family="Helvetica,sans-Serif" font-size="10.00">Formats</text>
</a>
</g>
</g>
<!-- Node5 -->
<g id="Node000005" class="node">
<title>Node5</title>
<g id="a_Node000005"><a xlink:href="../../da/d5d/group__userver__formats__parse.html" target="_top" xlink:title="Files with parsers from formats.">
<polygon fill="white" stroke="#666666" points="307.5,-331.49 255.5,-331.49 255.5,-312.49 307.5,-312.49 307.5,-331.49"/>
<text text-anchor="middle" x="281.5" y="-319.49" font-family="Helvetica,sans-Serif" font-size="10.00">Parsers</text>
</a>
</g>
</g>
<!-- Node6 -->
<g id="Node000006" class="node">
<title>Node6</title>
<g id="a_Node000006"><a xlink:href="../../df/d0f/group__userver__formats__serialize.html" target="_top" xlink:title="Files with serializers into formats.">
<polygon fill="white" stroke="#666666" points="315.5,-171.49 247.5,-171.49 247.5,-152.49 315.5,-152.49 315.5,-171.49"/>
<text text-anchor="middle" x="281.5" y="-159.49" font-family="Helvetica,sans-Serif" font-size="10.00">Serializers</text>
</a>
</g>
</g>
<!-- Node4 -->
<g id="Node000004" class="node">
<title>Node4</title>
<g id="a_Node000004"><a xlink:href="../../dc/d1a/group__userver__formats__serialize__sax.html" target="_top" xlink:title="Files with SAX serializers into formats.">
<polygon fill="white" stroke="#666666" points="327,-48.49 236,-48.49 236,-29.49 327,-29.49 327,-48.49"/>
<text text-anchor="middle" x="281.5" y="-36.49" font-family="Helvetica,sans-Serif" font-size="10.00">SAX Serializers</text>
</a>
</g>
</g>
<!-- Node1 -->
<g id="Node000001" class="node">
<title>Node1</title>
<g id="a_Node000001"><a xlink:title="Functions and classes that could be used with or without coroutine environment.">
<polygon fill="#999999" stroke="#666666" points="63,-332.49 0,-332.49 0,-313.49 63,-313.49 63,-332.49"/>
<text text-anchor="middle" x="31.5" y="-320.49" font-family="Helvetica,sans-Serif" font-size="10.00">Universal</text>
</a>
</g>
</g>
<!-- Node1&#45;&gt;Node8 -->
<g id="edge7" class="edge">
<title>Node1&#45;&gt;Node8</title>
<path fill="none" stroke="orange" stroke-dasharray="5,2" d="M32.45,-332.72C32.11,-412.84 31.64,-961.63 81,-1012.99 121.69,-1055.32 195.24,-1051.46 240.77,-1043.87"/>
<text text-anchor="middle" x="149.5" y="-1050.99" font-family="Helvetica,sans-Serif" font-size="10.00">utils::TracefulException</text>
</g>
<!-- Node1&#45;&gt;Node7 -->
<g id="edge6" class="edge">
<title>Node1&#45;&gt;Node7</title>
<path fill="none" stroke="orange" stroke-dasharray="5,2" d="M32.49,-332.93C32.5,-411.31 34.33,-927.62 81,-975.99 102.59,-998.37 191.07,-1000.23 242.66,-999.31"/>
<text text-anchor="middle" x="149.5" y="-1001.99" font-family="Helvetica,sans-Serif" font-size="10.00">utils::TokenBucket</text>
</g>
<!-- Node1&#45;&gt;Node2 -->
<g id="edge1" class="edge">
<title>Node1&#45;&gt;Node2</title>
<path fill="none" stroke="orange" stroke-dasharray="5,2" d="M32.22,-332.54C32,-360.08 35.47,-440.13 81,-477.99 105.48,-498.34 196.44,-501.87 246.66,-502.22"/>
<text text-anchor="middle" x="149.5" y="-965.99" font-family="Helvetica,sans-Serif" font-size="10.00">cache::LruMap</text>
<text text-anchor="middle" x="149.5" y="-954.99" font-family="Helvetica,sans-Serif" font-size="10.00">cache::LruSet</text>
<text text-anchor="middle" x="149.5" y="-943.99" font-family="Helvetica,sans-Serif" font-size="10.00">crypto::Certificate</text>
<text text-anchor="middle" x="149.5" y="-932.99" font-family="Helvetica,sans-Serif" font-size="10.00">crypto::PrivateKey</text>
<text text-anchor="middle" x="149.5" y="-921.99" font-family="Helvetica,sans-Serif" font-size="10.00">crypto::PublicKey</text>
<text text-anchor="middle" x="149.5" y="-910.99" font-family="Helvetica,sans-Serif" font-size="10.00">decimal64::Decimal</text>
<text text-anchor="middle" x="149.5" y="-899.99" font-family="Helvetica,sans-Serif" font-size="10.00">formats::json::StringBuilder</text>
<text text-anchor="middle" x="149.5" y="-888.99" font-family="Helvetica,sans-Serif" font-size="10.00">formats::json::Value</text>
<text text-anchor="middle" x="149.5" y="-877.99" font-family="Helvetica,sans-Serif" font-size="10.00">formats::json::ValueBuilder</text>
<text text-anchor="middle" x="149.5" y="-866.99" font-family="Helvetica,sans-Serif" font-size="10.00">formats::yaml::Value</text>
<text text-anchor="middle" x="149.5" y="-855.99" font-family="Helvetica,sans-Serif" font-size="10.00">formats::yaml::ValueBuilder</text>
<text text-anchor="middle" x="149.5" y="-844.99" font-family="Helvetica,sans-Serif" font-size="10.00">fs::blocking::CFile</text>
<text text-anchor="middle" x="149.5" y="-833.99" font-family="Helvetica,sans-Serif" font-size="10.00">fs::blocking::FileDescriptor</text>
<text text-anchor="middle" x="149.5" y="-822.99" font-family="Helvetica,sans-Serif" font-size="10.00">fs::blocking::TempDirectory</text>
<text text-anchor="middle" x="149.5" y="-811.99" font-family="Helvetica,sans-Serif" font-size="10.00">fs::blocking::TempFile</text>
<text text-anchor="middle" x="149.5" y="-800.99" font-family="Helvetica,sans-Serif" font-size="10.00">http::ContentType</text>
<text text-anchor="middle" x="149.5" y="-789.99" font-family="Helvetica,sans-Serif" font-size="10.00">http::headers::HeaderMap</text>
<text text-anchor="start" x="81" y="-778.99" font-family="Helvetica,sans-Serif" font-size="10.00">http::headers::Predefined</text>
<text text-anchor="middle" x="149.5" y="-767.99" font-family="Helvetica,sans-Serif" font-size="10.00">Header</text>
<text text-anchor="middle" x="149.5" y="-756.99" font-family="Helvetica,sans-Serif" font-size="10.00">utils::AnyMovable</text>
<text text-anchor="middle" x="149.5" y="-745.99" font-family="Helvetica,sans-Serif" font-size="10.00">utils::AnyStorage</text>
<text text-anchor="middle" x="149.5" y="-734.99" font-family="Helvetica,sans-Serif" font-size="10.00">utils::CheckedPtr</text>
<text text-anchor="middle" x="149.5" y="-723.99" font-family="Helvetica,sans-Serif" font-size="10.00">utils::datetime::Date</text>
<text text-anchor="middle" x="149.5" y="-712.99" font-family="Helvetica,sans-Serif" font-size="10.00">utils::expected</text>
<text text-anchor="middle" x="149.5" y="-701.99" font-family="Helvetica,sans-Serif" font-size="10.00">utils::FastPimpl</text>
<text text-anchor="middle" x="149.5" y="-690.99" font-family="Helvetica,sans-Serif" font-size="10.00">utils::FastScopeGuard</text>
<text text-anchor="middle" x="149.5" y="-679.99" font-family="Helvetica,sans-Serif" font-size="10.00">utils::FixedArray</text>
<text text-anchor="middle" x="149.5" y="-668.99" font-family="Helvetica,sans-Serif" font-size="10.00">utils::Flags</text>
<text text-anchor="middle" x="149.5" y="-657.99" font-family="Helvetica,sans-Serif" font-size="10.00">utils::AtomicFlags</text>
<text text-anchor="middle" x="149.5" y="-646.99" font-family="Helvetica,sans-Serif" font-size="10.00">utils::NotNull</text>
<text text-anchor="middle" x="149.5" y="-635.99" font-family="Helvetica,sans-Serif" font-size="10.00">utils::OptionalRef</text>
<text text-anchor="middle" x="149.5" y="-624.99" font-family="Helvetica,sans-Serif" font-size="10.00">utils::regex</text>
<text text-anchor="middle" x="149.5" y="-613.99" font-family="Helvetica,sans-Serif" font-size="10.00">utils::ResultStore</text>
<text text-anchor="start" x="81" y="-602.99" font-family="Helvetica,sans-Serif" font-size="10.00">utils::ResultStore</text>
<text text-anchor="middle" x="149.5" y="-591.99" font-family="Helvetica,sans-Serif" font-size="10.00">&lt; void &gt;</text>
<text text-anchor="middle" x="149.5" y="-580.99" font-family="Helvetica,sans-Serif" font-size="10.00">utils::ScopeGuard</text>
<text text-anchor="middle" x="149.5" y="-569.99" font-family="Helvetica,sans-Serif" font-size="10.00">utils::SharedReadablePtr</text>
<text text-anchor="middle" x="149.5" y="-558.99" font-family="Helvetica,sans-Serif" font-size="10.00">utils::SlidingInterval</text>
<text text-anchor="middle" x="149.5" y="-547.99" font-family="Helvetica,sans-Serif" font-size="10.00">utils::SmallString</text>
<text text-anchor="middle" x="149.5" y="-536.99" font-family="Helvetica,sans-Serif" font-size="10.00">utils::StrongTypedef</text>
<text text-anchor="middle" x="149.5" y="-525.99" font-family="Helvetica,sans-Serif" font-size="10.00">utils::datetime::TimeOfDay</text>
<text text-anchor="middle" x="149.5" y="-514.99" font-family="Helvetica,sans-Serif" font-size="10.00">utils::TrivialBiMap</text>
<text text-anchor="middle" x="149.5" y="-503.99" font-family="Helvetica,sans-Serif" font-size="10.00">utils::TrivialSet</text>
</g>
<!-- Node1&#45;&gt;Node3 -->
<g id="edge2" class="edge">
<title>Node1&#45;&gt;Node3</title>
<path fill="none" stroke="orange" stroke-dasharray="5,2" d="M37.2,-332.71C44.49,-346.62 59.89,-371.85 81,-383.99 109.83,-400.56 205.76,-408.51 253.3,-411.5"/>
<text text-anchor="middle" x="149.5" y="-465.99" font-family="Helvetica,sans-Serif" font-size="10.00">formats::json::StringBuilder</text>
<text text-anchor="middle" x="149.5" y="-454.99" font-family="Helvetica,sans-Serif" font-size="10.00">formats::json::Value</text>
<text text-anchor="middle" x="149.5" y="-443.99" font-family="Helvetica,sans-Serif" font-size="10.00">formats::json::ValueBuilder</text>
<text text-anchor="middle" x="149.5" y="-432.99" font-family="Helvetica,sans-Serif" font-size="10.00">formats::yaml::Value</text>
<text text-anchor="middle" x="149.5" y="-421.99" font-family="Helvetica,sans-Serif" font-size="10.00">formats::yaml::ValueBuilder</text>
<text text-anchor="middle" x="149.5" y="-410.99" font-family="Helvetica,sans-Serif" font-size="10.00">yaml_config::YamlConfig</text>
</g>
<!-- Node1&#45;&gt;Node5 -->
<g id="edge4" class="edge">
<title>Node1&#45;&gt;Node5</title>
<path fill="none" stroke="orange" stroke-dasharray="5,2" d="M42.27,-332.61C51.41,-340.89 65.9,-352.22 81,-356.99 139.07,-375.31 159.08,-372.36 218,-356.99 236.77,-352.09 255.87,-340.16 267.93,-331.59"/>
<text text-anchor="middle" x="149.5" y="-371.99" font-family="Helvetica,sans-Serif" font-size="10.00">formats::parse::To</text>
</g>
<!-- Node1&#45;&gt;Node5 -->
<g id="edge9" class="edge">
<title>Node1&#45;&gt;Node5</title>
<path fill="none" stroke="darkgreen" stroke-dasharray="5,2" d="M37.13,-313.33C44.31,-299.6 59.6,-274.99 81,-264.99 136.16,-239.21 161.23,-242.99 218,-264.99 242.65,-274.54 263.53,-298.84 273.76,-312.42"/>
<text text-anchor="middle" x="149.5" y="-344.99" font-family="Helvetica,sans-Serif" font-size="10.00">boost_optional.hpp</text>
<text text-anchor="middle" x="149.5" y="-333.99" font-family="Helvetica,sans-Serif" font-size="10.00">boost_uuid.hpp</text>
<text text-anchor="middle" x="149.5" y="-322.99" font-family="Helvetica,sans-Serif" font-size="10.00">boost_variant.hpp</text>
<text text-anchor="middle" x="149.5" y="-311.99" font-family="Helvetica,sans-Serif" font-size="10.00">common.hpp</text>
<text text-anchor="middle" x="149.5" y="-300.99" font-family="Helvetica,sans-Serif" font-size="10.00">common_containers.hpp</text>
<text text-anchor="middle" x="149.5" y="-289.99" font-family="Helvetica,sans-Serif" font-size="10.00">time_of_day.hpp</text>
<text text-anchor="middle" x="149.5" y="-278.99" font-family="Helvetica,sans-Serif" font-size="10.00">to.hpp</text>
<text text-anchor="middle" x="149.5" y="-267.99" font-family="Helvetica,sans-Serif" font-size="10.00">variant.hpp</text>
</g>
<!-- Node1&#45;&gt;Node6 -->
<g id="edge5" class="edge">
<title>Node1&#45;&gt;Node6</title>
<path fill="none" stroke="orange" stroke-dasharray="5,2" d="M34.71,-313.2C39.52,-294.29 52.86,-252.83 81,-232.99 131.34,-197.48 161.59,-236.73 218,-211.99 239.89,-202.39 260.58,-183.11 271.8,-171.5"/>
<text text-anchor="middle" x="149.5" y="-235.99" font-family="Helvetica,sans-Serif" font-size="10.00">formats::serialize::To</text>
</g>
<!-- Node1&#45;&gt;Node6 -->
<g id="edge8" class="edge">
<title>Node1&#45;&gt;Node6</title>
<path fill="none" stroke="darkgreen" stroke-dasharray="5,2" d="M32.92,-313.43C34.92,-272.96 44.94,-116.39 81,-86.99 104.59,-67.75 190.43,-74.07 218,-86.99 247.16,-100.65 267.46,-135.34 275.99,-152.33"/>
<text text-anchor="middle" x="149.5" y="-199.99" font-family="Helvetica,sans-Serif" font-size="10.00">serialize_boost_variant.hpp</text>
<text text-anchor="middle" x="149.5" y="-188.99" font-family="Helvetica,sans-Serif" font-size="10.00">serialize_duration.hpp</text>
<text text-anchor="middle" x="149.5" y="-177.99" font-family="Helvetica,sans-Serif" font-size="10.00">serialize_variant.hpp</text>
<text text-anchor="middle" x="149.5" y="-166.99" font-family="Helvetica,sans-Serif" font-size="10.00">boost_optional.hpp</text>
<text text-anchor="middle" x="149.5" y="-155.99" font-family="Helvetica,sans-Serif" font-size="10.00">boost_uuid.hpp</text>
<text text-anchor="middle" x="149.5" y="-144.99" font-family="Helvetica,sans-Serif" font-size="10.00">common_containers.hpp</text>
<text text-anchor="middle" x="149.5" y="-133.99" font-family="Helvetica,sans-Serif" font-size="10.00">time_of_day.hpp</text>
<text text-anchor="middle" x="149.5" y="-122.99" font-family="Helvetica,sans-Serif" font-size="10.00">to.hpp</text>
<text text-anchor="middle" x="149.5" y="-111.99" font-family="Helvetica,sans-Serif" font-size="10.00">variant.hpp</text>
<text text-anchor="middle" x="149.5" y="-100.99" font-family="Helvetica,sans-Serif" font-size="10.00">serialize_duration.hpp</text>
<text text-anchor="middle" x="149.5" y="-89.99" font-family="Helvetica,sans-Serif" font-size="10.00">...</text>
</g>
<!-- Node1&#45;&gt;Node4 -->
<g id="edge3" class="edge">
<title>Node1&#45;&gt;Node4</title>
<path fill="none" stroke="orange" stroke-dasharray="5,2" d="M32.78,-313.3C34.27,-269.95 42.62,-94.35 81,-58.99 102.82,-38.88 184.07,-36.68 235.91,-37.46"/>
<text text-anchor="middle" x="149.5" y="-61.99" font-family="Helvetica,sans-Serif" font-size="10.00">formats::json::StringBuilder</text>
</g>
<!-- Node1&#45;&gt;Node4 -->
<g id="edge10" class="edge">
<title>Node1&#45;&gt;Node4</title>
<path fill="none" stroke="darkgreen" stroke-dasharray="5,2" d="M32.47,-313.47C32.52,-266.57 35.37,-60.86 81,-21.99 133,22.3 222.71,-11.41 261.61,-29.48"/>
<text text-anchor="middle" x="149.5" y="-24.99" font-family="Helvetica,sans-Serif" font-size="10.00">write_to_stream.hpp</text>
</g>
</g>
</svg>
