<?xml version="1.0" encoding="UTF-8" standalone="no"?>
<!DOCTYPE svg PUBLIC "-//W3C//DTD SVG 1.1//EN"
 "http://www.w3.org/Graphics/SVG/1.1/DTD/svg11.dtd">
<!-- Generated by graphviz version 2.43.0 (0)
 -->
<!-- Title: ugrpc::server::Writer&lt; Response &gt; Pages: 1 -->
<svg width="518pt" height="86pt"
 viewBox="0.00 0.00 518.00 86.00" xmlns="http://www.w3.org/2000/svg" xmlns:xlink="http://www.w3.org/1999/xlink">
<g id="graph0" class="graph" transform="scale(1 1) rotate(0) translate(4 82)">
<title>ugrpc::server::Writer&lt; Response &gt;</title>
<!-- Node1 -->
<g id="Node000001" class="node">
<title>Node1</title>
<g id="a_Node000001"><a xlink:title="Interface to write server&#39;s responses.">
<polygon fill="#999999" stroke="#666666" points="116,-54 0,-54 0,-24 116,-24 116,-54"/>
<text text-anchor="start" x="8" y="-42" font-family="Helvetica,sans-Serif" font-size="10.00">ugrpc::server::Writer</text>
<text text-anchor="middle" x="58" y="-31" font-family="Helvetica,sans-Serif" font-size="10.00">&lt; Response &gt;</text>
</a>
</g>
</g>
<!-- Node2 -->
<g id="Node000002" class="node">
<title>Node2</title>
<g id="a_Node000002"><a xlink:href="../../da/d89/classugrpc_1_1server_1_1OutputStream.html" target="_top" xlink:title="Controls a single request &#45;&gt; response stream RPC.">
<polygon fill="white" stroke="#666666" points="307,-78 152,-78 152,-48 307,-48 307,-78"/>
<text text-anchor="start" x="160" y="-66" font-family="Helvetica,sans-Serif" font-size="10.00">ugrpc::server::OutputStream</text>
<text text-anchor="middle" x="229.5" y="-55" font-family="Helvetica,sans-Serif" font-size="10.00">&lt; Response &gt;</text>
</a>
</g>
</g>
<!-- Node1&#45;&gt;Node2 -->
<g id="edge1_Node000001_Node000002" class="edge">
<title>Node1&#45;&gt;Node2</title>
<g id="a_edge1_Node000001_Node000002"><a xlink:title=" ">
<path fill="none" stroke="#63b8ff" d="M126.46,-48.55C134.83,-49.74 143.44,-50.96 151.94,-52.16"/>
<polygon fill="#63b8ff" stroke="#63b8ff" points="126.78,-45.06 116.38,-47.13 125.8,-51.99 126.78,-45.06"/>
</a>
</g>
</g>
<!-- Node3 -->
<g id="Node000003" class="node">
<title>Node3</title>
<g id="a_Node000003"><a xlink:href="../../dc/db1/classugrpc_1_1server_1_1ReaderWriter.html" target="_top" xlink:title="Interface to both read and write messages.">
<polygon fill="white" stroke="#666666" points="305,-30 154,-30 154,0 305,0 305,-30"/>
<text text-anchor="start" x="162" y="-18" font-family="Helvetica,sans-Serif" font-size="10.00">ugrpc::server::ReaderWriter</text>
<text text-anchor="middle" x="229.5" y="-7" font-family="Helvetica,sans-Serif" font-size="10.00">&lt; Request, Response &gt;</text>
</a>
</g>
</g>
<!-- Node1&#45;&gt;Node3 -->
<g id="edge2_Node000001_Node000003" class="edge">
<title>Node1&#45;&gt;Node3</title>
<g id="a_edge2_Node000001_Node000003"><a xlink:title=" ">
<path fill="none" stroke="#63b8ff" d="M126.39,-29.46C135.38,-28.18 144.64,-26.87 153.75,-25.58"/>
<polygon fill="#63b8ff" stroke="#63b8ff" points="125.8,-26.01 116.38,-30.87 126.78,-32.94 125.8,-26.01"/>
</a>
</g>
</g>
<!-- Node4 -->
<g id="Node000004" class="node">
<title>Node4</title>
<g id="a_Node000004"><a xlink:href="../../d3/d6c/classugrpc_1_1server_1_1BidirectionalStream.html" target="_top" xlink:title="Controls a request stream &#45;&gt; response stream RPC.">
<polygon fill="white" stroke="#666666" points="510,-30 343,-30 343,0 510,0 510,-30"/>
<text text-anchor="start" x="351" y="-18" font-family="Helvetica,sans-Serif" font-size="10.00">ugrpc::server::Bidirectional</text>
<text text-anchor="middle" x="426.5" y="-7" font-family="Helvetica,sans-Serif" font-size="10.00">Stream&lt; Request, Response &gt;</text>
</a>
</g>
</g>
<!-- Node3&#45;&gt;Node4 -->
<g id="edge3_Node000003_Node000004" class="edge">
<title>Node3&#45;&gt;Node4</title>
<g id="a_edge3_Node000003_Node000004"><a xlink:title=" ">
<path fill="none" stroke="#63b8ff" d="M315.3,-15C324.44,-15 333.74,-15 342.86,-15"/>
<polygon fill="#63b8ff" stroke="#63b8ff" points="315.06,-11.5 305.06,-15 315.06,-18.5 315.06,-11.5"/>
</a>
</g>
</g>
</g>
</svg>
