<?xml version="1.0" encoding="UTF-8" standalone="no"?>
<!DOCTYPE svg PUBLIC "-//W3C//DTD SVG 1.1//EN"
 "http://www.w3.org/Graphics/SVG/1.1/DTD/svg11.dtd">
<!-- Generated by graphviz version 2.43.0 (0)
 -->
<!-- Title: storages::postgres::TriggeredDataChangeViolation Pages: 1 -->
<svg width="179pt" height="214pt"
 viewBox="0.00 0.00 179.00 214.00" xmlns="http://www.w3.org/2000/svg" xmlns:xlink="http://www.w3.org/1999/xlink">
<g id="graph0" class="graph" transform="scale(1 1) rotate(0) translate(4 210)">
<title>storages::postgres::TriggeredDataChangeViolation</title>
<!-- Node1 -->
<g id="Node000001" class="node">
<title>Node1</title>
<g id="a_Node000001"><a xlink:title="Class 27 &#45; Triggered Data Change Violation.">
<polygon fill="#999999" stroke="#666666" points="171,-30 0,-30 0,0 171,0 171,-30"/>
<text text-anchor="start" x="8" y="-18" font-family="Helvetica,sans-Serif" font-size="10.00">storages::postgres</text>
<text text-anchor="middle" x="85.5" y="-7" font-family="Helvetica,sans-Serif" font-size="10.00">::TriggeredDataChangeViolation</text>
</a>
</g>
</g>
<!-- Node2 -->
<g id="Node000002" class="node">
<title>Node2</title>
<g id="a_Node000002"><a xlink:href="../../d5/d8f/classstorages_1_1postgres_1_1IntegrityConstraintViolation.html" target="_top" xlink:title="Base class for integrity constraint violation errors. Doc: https://www.postgresql....">
<polygon fill="white" stroke="#666666" points="164.5,-96 6.5,-96 6.5,-66 164.5,-66 164.5,-96"/>
<text text-anchor="start" x="14.5" y="-84" font-family="Helvetica,sans-Serif" font-size="10.00">storages::postgres</text>
<text text-anchor="middle" x="85.5" y="-73" font-family="Helvetica,sans-Serif" font-size="10.00">::IntegrityConstraintViolation</text>
</a>
</g>
</g>
<!-- Node2&#45;&gt;Node1 -->
<g id="edge1_Node000001_Node000002" class="edge">
<title>Node2&#45;&gt;Node1</title>
<g id="a_edge1_Node000001_Node000002"><a xlink:title=" ">
<path fill="none" stroke="#63b8ff" d="M85.5,-55.54C85.5,-46.96 85.5,-37.61 85.5,-30.16"/>
<polygon fill="#63b8ff" stroke="#63b8ff" points="82,-55.8 85.5,-65.8 89,-55.8 82,-55.8"/>
</a>
</g>
</g>
<!-- Node3 -->
<g id="Node000003" class="node">
<title>Node3</title>
<g id="a_Node000003"><a xlink:href="../../da/d34/classstorages_1_1postgres_1_1ServerError.html" target="_top" xlink:title="Error that was reported by PosgtreSQL server Contains the message sent by the server....">
<polygon fill="white" stroke="#666666" points="142,-151 29,-151 29,-132 142,-132 142,-151"/>
<text text-anchor="middle" x="85.5" y="-139" font-family="Helvetica,sans-Serif" font-size="10.00">ServerRuntimeError</text>
</a>
</g>
</g>
<!-- Node3&#45;&gt;Node2 -->
<g id="edge2_Node000002_Node000003" class="edge">
<title>Node3&#45;&gt;Node2</title>
<g id="a_edge2_Node000002_Node000003"><a xlink:title=" ">
<path fill="none" stroke="#63b8ff" d="M85.5,-121.65C85.5,-113.36 85.5,-103.78 85.5,-96.11"/>
<polygon fill="#63b8ff" stroke="#63b8ff" points="82,-121.87 85.5,-131.87 89,-121.87 82,-121.87"/>
</a>
</g>
</g>
<!-- Node4 -->
<g id="Node000004" class="node">
<title>Node4</title>
<g id="a_Node000004"><a xlink:title=" ">
<polygon fill="white" stroke="#bfbfbf" points="106,-206 65,-206 65,-187 106,-187 106,-206"/>
<text text-anchor="middle" x="85.5" y="-194" font-family="Helvetica,sans-Serif" font-size="10.00">Base</text>
</a>
</g>
</g>
<!-- Node4&#45;&gt;Node3 -->
<g id="edge3_Node000003_Node000004" class="edge">
<title>Node4&#45;&gt;Node3</title>
<g id="a_edge3_Node000003_Node000004"><a xlink:title=" ">
<path fill="none" stroke="#63b8ff" d="M85.5,-176.66C85.5,-167.93 85.5,-157.99 85.5,-151.09"/>
<polygon fill="#63b8ff" stroke="#63b8ff" points="82,-176.75 85.5,-186.75 89,-176.75 82,-176.75"/>
</a>
</g>
</g>
</g>
</svg>
