<?xml version="1.0" encoding="UTF-8" standalone="no"?>
<!DOCTYPE svg PUBLIC "-//W3C//DTD SVG 1.1//EN"
 "http://www.w3.org/Graphics/SVG/1.1/DTD/svg11.dtd">
<!-- Generated by graphviz version 2.43.0 (0)
 -->
<!-- Title: components::InMemoryConfig Pages: 1 -->
<svg width="171pt" height="170pt"
 viewBox="0.00 0.00 171.00 170.00" xmlns="http://www.w3.org/2000/svg" xmlns:xlink="http://www.w3.org/1999/xlink">
<g id="graph0" class="graph" transform="scale(1 1) rotate(0) translate(4 166)">
<title>components::InMemoryConfig</title>
<!-- Node1 -->
<g id="Node000001" class="node">
<title>Node1</title>
<g id="a_Node000001"><a xlink:title=" ">
<polygon fill="#999999" stroke="#666666" points="163,-19 0,-19 0,0 163,0 163,-19"/>
<text text-anchor="middle" x="81.5" y="-7" font-family="Helvetica,sans-Serif" font-size="10.00">components::InMemoryConfig</text>
</a>
</g>
</g>
<!-- Node2 -->
<g id="Node000002" class="node">
<title>Node2</title>
<g id="a_Node000002"><a xlink:href="../../d4/d67/classutils_1_1StrongTypedef.html" target="_top" xlink:title=" ">
<polygon fill="white" stroke="#666666" points="146,-96 17,-96 17,-55 146,-55 146,-96"/>
<text text-anchor="start" x="25" y="-84" font-family="Helvetica,sans-Serif" font-size="10.00">utils::StrongTypedef</text>
<text text-anchor="start" x="25" y="-73" font-family="Helvetica,sans-Serif" font-size="10.00">&lt; InMemoryConfig, std</text>
<text text-anchor="middle" x="81.5" y="-62" font-family="Helvetica,sans-Serif" font-size="10.00">::string &gt;</text>
</a>
</g>
</g>
<!-- Node2&#45;&gt;Node1 -->
<g id="edge1_Node000001_Node000002" class="edge">
<title>Node2&#45;&gt;Node1</title>
<g id="a_edge1_Node000001_Node000002"><a xlink:title=" ">
<path fill="none" stroke="#63b8ff" d="M81.5,-44.74C81.5,-35.45 81.5,-25.9 81.5,-19.26"/>
<polygon fill="#63b8ff" stroke="#63b8ff" points="78,-44.95 81.5,-54.95 85,-44.95 78,-44.95"/>
</a>
</g>
</g>
<!-- Node3 -->
<g id="Node000003" class="node">
<title>Node3</title>
<g id="a_Node000003"><a xlink:title=" ">
<polygon fill="white" stroke="#bfbfbf" points="157,-162 6,-162 6,-132 157,-132 157,-162"/>
<text text-anchor="start" x="14" y="-150" font-family="Helvetica,sans-Serif" font-size="10.00">utils::impl::strong</text>
<text text-anchor="middle" x="81.5" y="-139" font-family="Helvetica,sans-Serif" font-size="10.00">_typedef::StrongTypedefTag</text>
</a>
</g>
</g>
<!-- Node3&#45;&gt;Node2 -->
<g id="edge2_Node000002_Node000003" class="edge">
<title>Node3&#45;&gt;Node2</title>
<g id="a_edge2_Node000002_Node000003"><a xlink:title=" ">
<path fill="none" stroke="#63b8ff" d="M81.5,-121.91C81.5,-113.47 81.5,-104.1 81.5,-96.07"/>
<polygon fill="#63b8ff" stroke="#63b8ff" points="78,-121.94 81.5,-131.94 85,-121.94 78,-121.94"/>
</a>
</g>
</g>
</g>
</svg>
