<?xml version="1.0" encoding="UTF-8" standalone="no"?>
<!DOCTYPE svg PUBLIC "-//W3C//DTD SVG 1.1//EN"
 "http://www.w3.org/Graphics/SVG/1.1/DTD/svg11.dtd">
<!-- Generated by graphviz version 2.43.0 (0)
 -->
<!-- Title: redis::ConnectionInfo Pages: 1 -->
<svg width="282pt" height="182pt"
 viewBox="0.00 0.00 281.50 182.00" xmlns="http://www.w3.org/2000/svg" xmlns:xlink="http://www.w3.org/1999/xlink">
<g id="graph0" class="graph" transform="scale(1 1) rotate(0) translate(4 178)">
<title>redis::ConnectionInfo</title>
<!-- Node1 -->
<g id="Node000001" class="node">
<title>Node1</title>
<g id="a_Node000001"><a xlink:title=" ">
<polygon fill="#999999" stroke="#666666" points="176,-19 56,-19 56,0 176,0 176,-19"/>
<text text-anchor="middle" x="116" y="-7" font-family="Helvetica,sans-Serif" font-size="10.00">redis::ConnectionInfo</text>
</a>
</g>
</g>
<!-- Node2 -->
<g id="Node000002" class="node">
<title>Node2</title>
<g id="a_Node000002"><a xlink:title=" ">
<polygon fill="white" stroke="#666666" points="93.5,-96 28.5,-96 28.5,-77 93.5,-77 93.5,-96"/>
<text text-anchor="middle" x="61" y="-84" font-family="Helvetica,sans-Serif" font-size="10.00">std::string</text>
</a>
</g>
</g>
<!-- Node2&#45;&gt;Node1 -->
<g id="edge1_Node000001_Node000002" class="edge">
<title>Node2&#45;&gt;Node1</title>
<g id="a_edge1_Node000001_Node000002"><a xlink:title=" ">
<path fill="none" stroke="#9a32cd" stroke-dasharray="5,2" d="M73.3,-68.73C84.61,-53.3 100.94,-31.04 109.76,-19"/>
<polygon fill="#9a32cd" stroke="#9a32cd" points="70.4,-66.76 67.31,-76.9 76.05,-70.9 70.4,-66.76"/>
</a>
</g>
<text text-anchor="middle" x="108.5" y="-40" font-family="Helvetica,sans-Serif" font-size="10.00" fill="grey"> host</text>
</g>
<!-- Node3 -->
<g id="Node000003" class="node">
<title>Node3</title>
<g id="a_Node000003"><a xlink:title=" ">
<polygon fill="white" stroke="#666666" points="104,-174 0,-174 0,-144 104,-144 104,-174"/>
<text text-anchor="start" x="8" y="-162" font-family="Helvetica,sans-Serif" font-size="10.00">std::basic_string&lt;</text>
<text text-anchor="middle" x="52" y="-151" font-family="Helvetica,sans-Serif" font-size="10.00"> Char &gt;</text>
</a>
</g>
</g>
<!-- Node3&#45;&gt;Node2 -->
<g id="edge2_Node000002_Node000003" class="edge">
<title>Node3&#45;&gt;Node2</title>
<g id="a_edge2_Node000002_Node000003"><a xlink:title=" ">
<path fill="none" stroke="#63b8ff" d="M55.12,-133.59C56.76,-120.71 58.68,-105.7 59.86,-96.39"/>
<polygon fill="#63b8ff" stroke="#63b8ff" points="51.62,-133.37 53.82,-143.73 58.56,-134.26 51.62,-133.37"/>
</a>
</g>
</g>
<!-- Node4 -->
<g id="Node000004" class="node">
<title>Node4</title>
<g id="a_Node000004"><a xlink:href="../../d4/d67/classutils_1_1StrongTypedef.html" target="_top" xlink:title=" ">
<polygon fill="white" stroke="#666666" points="249.5,-107 128.5,-107 128.5,-66 249.5,-66 249.5,-107"/>
<text text-anchor="start" x="136.5" y="-95" font-family="Helvetica,sans-Serif" font-size="10.00">utils::StrongTypedef</text>
<text text-anchor="start" x="136.5" y="-84" font-family="Helvetica,sans-Serif" font-size="10.00">&lt; class PasswordTag,</text>
<text text-anchor="middle" x="189" y="-73" font-family="Helvetica,sans-Serif" font-size="10.00"> std::string &gt;</text>
</a>
</g>
</g>
<!-- Node4&#45;&gt;Node1 -->
<g id="edge3_Node000001_Node000004" class="edge">
<title>Node4&#45;&gt;Node1</title>
<g id="a_edge3_Node000001_Node000004"><a xlink:title=" ">
<path fill="none" stroke="#9a32cd" stroke-dasharray="5,2" d="M162.62,-58.4C149.21,-44.62 133.81,-28.8 124.5,-19.24"/>
<polygon fill="#9a32cd" stroke="#9a32cd" points="160.34,-61.07 169.82,-65.79 165.35,-56.19 160.34,-61.07"/>
</a>
</g>
<text text-anchor="middle" x="178" y="-40" font-family="Helvetica,sans-Serif" font-size="10.00" fill="grey"> password</text>
</g>
<!-- Node5 -->
<g id="Node000005" class="node">
<title>Node5</title>
<g id="a_Node000005"><a xlink:title=" ">
<polygon fill="white" stroke="#bfbfbf" points="273.5,-174 122.5,-174 122.5,-144 273.5,-144 273.5,-174"/>
<text text-anchor="start" x="130.5" y="-162" font-family="Helvetica,sans-Serif" font-size="10.00">utils::impl::strong</text>
<text text-anchor="middle" x="198" y="-151" font-family="Helvetica,sans-Serif" font-size="10.00">_typedef::StrongTypedefTag</text>
</a>
</g>
</g>
<!-- Node5&#45;&gt;Node4 -->
<g id="edge4_Node000004_Node000005" class="edge">
<title>Node5&#45;&gt;Node4</title>
<g id="a_edge4_Node000004_Node000005"><a xlink:title=" ">
<path fill="none" stroke="#63b8ff" d="M194.91,-133.77C193.79,-125.06 192.56,-115.35 191.5,-107.09"/>
<polygon fill="#63b8ff" stroke="#63b8ff" points="191.44,-134.26 196.18,-143.73 198.38,-133.37 191.44,-134.26"/>
</a>
</g>
</g>
</g>
</svg>
