<?xml version="1.0" encoding="UTF-8" standalone="no"?>
<!DOCTYPE svg PUBLIC "-//W3C//DTD SVG 1.1//EN"
 "http://www.w3.org/Graphics/SVG/1.1/DTD/svg11.dtd">
<!-- Generated by graphviz version 2.43.0 (0)
 -->
<!-- Title: userver/dump/aggregates.hpp Pages: 1 -->
<svg width="677pt" height="324pt"
 viewBox="0.00 0.00 676.86 324.00" xmlns="http://www.w3.org/2000/svg" xmlns:xlink="http://www.w3.org/1999/xlink">
<g id="graph0" class="graph" transform="scale(1 1) rotate(0) translate(4 320)">
<title>userver/dump/aggregates.hpp</title>
<!-- Node1 -->
<g id="Node000001" class="node">
<title>Node1</title>
<g id="a_Node000001"><a xlink:title="Dumping support for aggregates.">
<polygon fill="#999999" stroke="#666666" points="231.86,-316 68.86,-316 68.86,-297 231.86,-297 231.86,-316"/>
<text text-anchor="middle" x="150.36" y="-304" font-family="Helvetica,sans-Serif" font-size="10.00">userver/dump/aggregates.hpp</text>
</a>
</g>
</g>
<!-- Node2 -->
<g id="Node000002" class="node">
<title>Node2</title>
<g id="a_Node000002"><a xlink:title=" ">
<polygon fill="#e0e0e0" stroke="#999999" points="535.86,-19 466.86,-19 466.86,0 535.86,0 535.86,-19"/>
<text text-anchor="middle" x="501.36" y="-7" font-family="Helvetica,sans-Serif" font-size="10.00">type_traits</text>
</a>
</g>
</g>
<!-- Node1&#45;&gt;Node2 -->
<g id="edge1_Node000001_Node000002" class="edge">
<title>Node1&#45;&gt;Node2</title>
<g id="a_edge1_Node000001_Node000002"><a xlink:title=" ">
<path fill="none" stroke="#63b8ff" d="M88.36,-296.98C63.98,-290.72 37.53,-279.85 19.36,-261 -1.08,-239.79 0.36,-226.96 0.36,-197.5 0.36,-197.5 0.36,-197.5 0.36,-135 0.36,-41.49 333.23,-17.7 456.32,-12.1"/>
<polygon fill="#63b8ff" stroke="#63b8ff" points="456.69,-15.59 466.53,-11.66 456.39,-8.6 456.69,-15.59"/>
</a>
</g>
</g>
<!-- Node3 -->
<g id="Node000003" class="node">
<title>Node3</title>
<g id="a_Node000003"><a xlink:title=" ">
<polygon fill="#e0e0e0" stroke="#999999" points="133.86,-261 28.86,-261 28.86,-242 133.86,-242 133.86,-261"/>
<text text-anchor="middle" x="81.36" y="-249" font-family="Helvetica,sans-Serif" font-size="10.00">boost/pfr/core.hpp</text>
</a>
</g>
</g>
<!-- Node1&#45;&gt;Node3 -->
<g id="edge2_Node000001_Node000003" class="edge">
<title>Node1&#45;&gt;Node3</title>
<g id="a_edge2_Node000001_Node000003"><a xlink:title=" ">
<path fill="none" stroke="#63b8ff" d="M139.28,-296.98C128.88,-289 113.1,-276.88 100.64,-267.31"/>
<polygon fill="#63b8ff" stroke="#63b8ff" points="102.71,-264.49 92.65,-261.17 98.45,-270.04 102.71,-264.49"/>
</a>
</g>
</g>
<!-- Node4 -->
<g id="Node000004" class="node">
<title>Node4</title>
<g id="a_Node000004"><a xlink:title=" ">
<polygon fill="#e0e0e0" stroke="#999999" points="286.36,-261 152.36,-261 152.36,-242 286.36,-242 286.36,-261"/>
<text text-anchor="middle" x="219.36" y="-249" font-family="Helvetica,sans-Serif" font-size="10.00">boost/pfr/tuple_size.hpp</text>
</a>
</g>
</g>
<!-- Node1&#45;&gt;Node4 -->
<g id="edge3_Node000001_Node000004" class="edge">
<title>Node1&#45;&gt;Node4</title>
<g id="a_edge3_Node000001_Node000004"><a xlink:title=" ">
<path fill="none" stroke="#63b8ff" d="M161.45,-296.98C171.85,-289 187.62,-276.88 200.08,-267.31"/>
<polygon fill="#63b8ff" stroke="#63b8ff" points="202.27,-270.04 208.07,-261.17 198.01,-264.49 202.27,-270.04"/>
</a>
</g>
</g>
<!-- Node5 -->
<g id="Node000005" class="node">
<title>Node5</title>
<g id="a_Node000005"><a xlink:href="../../d3/d3c/core_2include_2userver_2dump_2operations_8hpp_source.html" target="_top" xlink:title=" ">
<polygon fill="white" stroke="#666666" points="464.36,-261 304.36,-261 304.36,-242 464.36,-242 464.36,-261"/>
<text text-anchor="middle" x="384.36" y="-249" font-family="Helvetica,sans-Serif" font-size="10.00">userver/dump/operations.hpp</text>
</a>
</g>
</g>
<!-- Node1&#45;&gt;Node5 -->
<g id="edge4_Node000001_Node000005" class="edge">
<title>Node1&#45;&gt;Node5</title>
<g id="a_edge4_Node000001_Node000005"><a xlink:title=" ">
<path fill="none" stroke="#63b8ff" d="M187.96,-296.98C228.35,-287.84 292.65,-273.27 336.59,-263.32"/>
<polygon fill="#63b8ff" stroke="#63b8ff" points="337.49,-266.7 346.47,-261.08 335.94,-259.88 337.49,-266.7"/>
</a>
</g>
</g>
<!-- Node5&#45;&gt;Node2 -->
<g id="edge8_Node000005_Node000002" class="edge">
<title>Node5&#45;&gt;Node2</title>
<g id="a_edge8_Node000005_Node000002"><a xlink:title=" ">
<path fill="none" stroke="#63b8ff" d="M304.31,-241.97C258.17,-235.21 206.57,-223.88 192.36,-206 187.11,-199.39 189.07,-194.78 192.36,-187 225.18,-109.42 254.89,-96.2 328.36,-55 368.37,-32.56 419.89,-21.2 456.27,-15.6"/>
<polygon fill="#63b8ff" stroke="#63b8ff" points="457.18,-19.01 466.58,-14.11 456.18,-12.08 457.18,-19.01"/>
</a>
</g>
</g>
<!-- Node6 -->
<g id="Node000006" class="node">
<title>Node6</title>
<g id="a_Node000006"><a xlink:title=" ">
<polygon fill="#e0e0e0" stroke="#999999" points="266.86,-206 201.86,-206 201.86,-187 266.86,-187 266.86,-206"/>
<text text-anchor="middle" x="234.36" y="-194" font-family="Helvetica,sans-Serif" font-size="10.00">stdexcept</text>
</a>
</g>
</g>
<!-- Node5&#45;&gt;Node6 -->
<g id="edge5_Node000005_Node000006" class="edge">
<title>Node5&#45;&gt;Node6</title>
<g id="a_edge5_Node000005_Node000006"><a xlink:title=" ">
<path fill="none" stroke="#63b8ff" d="M360.26,-241.98C335.48,-233.23 296.66,-219.51 268.67,-209.62"/>
<polygon fill="#63b8ff" stroke="#63b8ff" points="269.49,-206.2 258.9,-206.17 267.16,-212.8 269.49,-206.2"/>
</a>
</g>
</g>
<!-- Node7 -->
<g id="Node000007" class="node">
<title>Node7</title>
<g id="a_Node000007"><a xlink:title=" ">
<polygon fill="#e0e0e0" stroke="#999999" points="329.36,-206 285.36,-206 285.36,-187 329.36,-187 329.36,-206"/>
<text text-anchor="middle" x="307.36" y="-194" font-family="Helvetica,sans-Serif" font-size="10.00">string</text>
</a>
</g>
</g>
<!-- Node5&#45;&gt;Node7 -->
<g id="edge6_Node000005_Node000007" class="edge">
<title>Node5&#45;&gt;Node7</title>
<g id="a_edge6_Node000005_Node000007"><a xlink:title=" ">
<path fill="none" stroke="#63b8ff" d="M371.99,-241.98C360.27,-233.92 342.44,-221.65 328.47,-212.03"/>
<polygon fill="#63b8ff" stroke="#63b8ff" points="330.18,-208.96 319.96,-206.17 326.21,-214.72 330.18,-208.96"/>
</a>
</g>
</g>
<!-- Node8 -->
<g id="Node000008" class="node">
<title>Node8</title>
<g id="a_Node000008"><a xlink:title=" ">
<polygon fill="#e0e0e0" stroke="#999999" points="420.86,-206 347.86,-206 347.86,-187 420.86,-187 420.86,-206"/>
<text text-anchor="middle" x="384.36" y="-194" font-family="Helvetica,sans-Serif" font-size="10.00">string_view</text>
</a>
</g>
</g>
<!-- Node5&#45;&gt;Node8 -->
<g id="edge7_Node000005_Node000008" class="edge">
<title>Node5&#45;&gt;Node8</title>
<g id="a_edge7_Node000005_Node000008"><a xlink:title=" ">
<path fill="none" stroke="#63b8ff" d="M384.36,-241.75C384.36,-234.8 384.36,-224.85 384.36,-216.13"/>
<polygon fill="#63b8ff" stroke="#63b8ff" points="387.86,-216.09 384.36,-206.09 380.86,-216.09 387.86,-216.09"/>
</a>
</g>
</g>
<!-- Node9 -->
<g id="Node000009" class="node">
<title>Node9</title>
<g id="a_Node000009"><a xlink:href="../../db/d0c/core_2include_2userver_2dump_2fwd_8hpp.html" target="_top" xlink:title="Forward declarations of dump::Reader, dump::Writer and dump::To.">
<polygon fill="white" stroke="#666666" points="472.86,-145.5 347.86,-145.5 347.86,-126.5 472.86,-126.5 472.86,-145.5"/>
<text text-anchor="middle" x="410.36" y="-133.5" font-family="Helvetica,sans-Serif" font-size="10.00">userver/dump/fwd.hpp</text>
</a>
</g>
</g>
<!-- Node5&#45;&gt;Node9 -->
<g id="edge9_Node000005_Node000009" class="edge">
<title>Node5&#45;&gt;Node9</title>
<g id="a_edge9_Node000005_Node000009"><a xlink:title=" ">
<path fill="none" stroke="#63b8ff" d="M397.85,-241.75C408.65,-233.87 423.01,-221.21 429.36,-206 436.44,-189.04 429,-168.65 421.45,-154.46"/>
<polygon fill="#63b8ff" stroke="#63b8ff" points="424.44,-152.62 416.39,-145.73 418.38,-156.14 424.44,-152.62"/>
</a>
</g>
</g>
<!-- Node11 -->
<g id="Node000011" class="node">
<title>Node11</title>
<g id="a_Node000011"><a xlink:href="../../d9/d0d/core_2include_2userver_2dump_2meta_8hpp.html" target="_top" xlink:title="Provides dump::kIsDumpable and includes userver/dump/fwd.hpp.">
<polygon fill="white" stroke="#666666" points="611.36,-206 477.36,-206 477.36,-187 611.36,-187 611.36,-206"/>
<text text-anchor="middle" x="544.36" y="-194" font-family="Helvetica,sans-Serif" font-size="10.00">userver/dump/meta.hpp</text>
</a>
</g>
</g>
<!-- Node5&#45;&gt;Node11 -->
<g id="edge12_Node000005_Node000011" class="edge">
<title>Node5&#45;&gt;Node11</title>
<g id="a_edge12_Node000005_Node000011"><a xlink:title=" ">
<path fill="none" stroke="#63b8ff" d="M410.07,-241.98C436.81,-233.13 478.89,-219.19 508.81,-209.28"/>
<polygon fill="#63b8ff" stroke="#63b8ff" points="510.06,-212.55 518.45,-206.08 507.86,-205.9 510.06,-212.55"/>
</a>
</g>
</g>
<!-- Node10 -->
<g id="Node000010" class="node">
<title>Node10</title>
<g id="a_Node000010"><a xlink:href="../../d4/d56/core_2include_2userver_2dump_2to_8hpp.html" target="_top" xlink:title="A marker type used in ADL&#45;found Read">
<polygon fill="white" stroke="#666666" points="455.36,-79.5 337.36,-79.5 337.36,-60.5 455.36,-60.5 455.36,-79.5"/>
<text text-anchor="middle" x="396.36" y="-67.5" font-family="Helvetica,sans-Serif" font-size="10.00">userver/dump/to.hpp</text>
</a>
</g>
</g>
<!-- Node9&#45;&gt;Node10 -->
<g id="edge10_Node000009_Node000010" class="edge">
<title>Node9&#45;&gt;Node10</title>
<g id="a_edge10_Node000009_Node000010"><a xlink:title=" ">
<path fill="none" stroke="#63b8ff" d="M408.47,-126.37C406.44,-117.07 403.14,-101.98 400.5,-89.9"/>
<polygon fill="#63b8ff" stroke="#63b8ff" points="403.87,-88.93 398.31,-79.91 397.03,-90.42 403.87,-88.93"/>
</a>
</g>
</g>
<!-- Node10&#45;&gt;Node10 -->
<g id="edge11_Node000010_Node000010" class="edge">
<title>Node10&#45;&gt;Node10</title>
<g id="a_edge11_Node000010_Node000010"><a xlink:title=" ">
<path fill="none" stroke="#63b8ff" d="M424.79,-79.53C448.54,-83.61 473.36,-80.43 473.36,-70 473.36,-61.04 455.03,-57.43 434.8,-59.18"/>
<polygon fill="#63b8ff" stroke="#63b8ff" points="434.26,-55.72 424.79,-60.47 435.16,-62.66 434.26,-55.72"/>
</a>
</g>
</g>
<!-- Node11&#45;&gt;Node2 -->
<g id="edge13_Node000011_Node000002" class="edge">
<title>Node11&#45;&gt;Node2</title>
<g id="a_edge13_Node000011_Node000002"><a xlink:title=" ">
<path fill="none" stroke="#63b8ff" d="M538.39,-186.73C532.79,-178.05 524.65,-164.19 520.36,-151 506.7,-109.01 502.86,-56.89 501.78,-29.44"/>
<polygon fill="#63b8ff" stroke="#63b8ff" points="505.27,-29.18 501.46,-19.29 498.27,-29.4 505.27,-29.18"/>
</a>
</g>
</g>
<!-- Node11&#45;&gt;Node9 -->
<g id="edge14_Node000011_Node000009" class="edge">
<title>Node11&#45;&gt;Node9</title>
<g id="a_edge14_Node000011_Node000009"><a xlink:title=" ">
<path fill="none" stroke="#63b8ff" d="M524.88,-186.99C502.35,-177.16 465.06,-160.88 439.18,-149.58"/>
<polygon fill="#63b8ff" stroke="#63b8ff" points="440.43,-146.31 429.87,-145.52 437.63,-152.73 440.43,-146.31"/>
</a>
</g>
</g>
<!-- Node12 -->
<g id="Node000012" class="node">
<title>Node12</title>
<g id="a_Node000012"><a xlink:href="../../d3/da0/meta__light_8hpp.html" target="_top" xlink:title="Lightweight concepts.">
<polygon fill="white" stroke="#666666" points="635.36,-151 529.36,-151 529.36,-121 635.36,-121 635.36,-151"/>
<text text-anchor="start" x="537.36" y="-139" font-family="Helvetica,sans-Serif" font-size="10.00">userver/utils/meta</text>
<text text-anchor="middle" x="582.36" y="-128" font-family="Helvetica,sans-Serif" font-size="10.00">_light.hpp</text>
</a>
</g>
</g>
<!-- Node11&#45;&gt;Node12 -->
<g id="edge15_Node000011_Node000012" class="edge">
<title>Node11&#45;&gt;Node12</title>
<g id="a_edge15_Node000011_Node000012"><a xlink:title=" ">
<path fill="none" stroke="#63b8ff" d="M549.97,-186.87C554.6,-179.74 561.39,-169.28 567.56,-159.79"/>
<polygon fill="#63b8ff" stroke="#63b8ff" points="570.68,-161.41 573.19,-151.11 564.81,-157.59 570.68,-161.41"/>
</a>
</g>
</g>
<!-- Node12&#45;&gt;Node2 -->
<g id="edge16_Node000012_Node000002" class="edge">
<title>Node12&#45;&gt;Node2</title>
<g id="a_edge16_Node000012_Node000002"><a xlink:title=" ">
<path fill="none" stroke="#63b8ff" d="M573.07,-120.72C558.1,-97.71 528.7,-52.53 512.59,-27.76"/>
<polygon fill="#63b8ff" stroke="#63b8ff" points="515.32,-25.54 506.94,-19.07 509.46,-29.36 515.32,-25.54"/>
</a>
</g>
</g>
<!-- Node13 -->
<g id="Node000013" class="node">
<title>Node13</title>
<g id="a_Node000013"><a xlink:href="../../d9/dce/void__t_8hpp.html" target="_top" xlink:title="std::void_t implementation with workarounds for compiler bugs">
<polygon fill="white" stroke="#666666" points="668.86,-85 567.86,-85 567.86,-55 668.86,-55 668.86,-85"/>
<text text-anchor="start" x="575.86" y="-73" font-family="Helvetica,sans-Serif" font-size="10.00">userver/utils/void</text>
<text text-anchor="middle" x="618.36" y="-62" font-family="Helvetica,sans-Serif" font-size="10.00">_t.hpp</text>
</a>
</g>
</g>
<!-- Node12&#45;&gt;Node13 -->
<g id="edge17_Node000012_Node000013" class="edge">
<title>Node12&#45;&gt;Node13</title>
<g id="a_edge17_Node000012_Node000013"><a xlink:title=" ">
<path fill="none" stroke="#63b8ff" d="M590.35,-120.8C594.78,-112.92 600.39,-102.95 605.43,-93.99"/>
<polygon fill="#63b8ff" stroke="#63b8ff" points="608.54,-95.6 610.39,-85.16 602.44,-92.16 608.54,-95.6"/>
</a>
</g>
</g>
<!-- Node13&#45;&gt;Node2 -->
<g id="edge18_Node000013_Node000002" class="edge">
<title>Node13&#45;&gt;Node2</title>
<g id="a_edge18_Node000013_Node000002"><a xlink:title=" ">
<path fill="none" stroke="#63b8ff" d="M590.34,-54.99C571.34,-45.49 546.39,-33.02 527.75,-23.69"/>
<polygon fill="#63b8ff" stroke="#63b8ff" points="529.15,-20.48 518.64,-19.14 526.02,-26.74 529.15,-20.48"/>
</a>
</g>
</g>
</g>
</svg>
