<?xml version="1.0" encoding="UTF-8" standalone="no"?>
<!DOCTYPE svg PUBLIC "-//W3C//DTD SVG 1.1//EN"
 "http://www.w3.org/Graphics/SVG/1.1/DTD/svg11.dtd">
<!-- Generated by graphviz version 2.43.0 (0)
 -->
<!-- Title: decimal64::OutOfBoundsError Pages: 1 -->
<svg width="169pt" height="192pt"
 viewBox="0.00 0.00 169.00 192.00" xmlns="http://www.w3.org/2000/svg" xmlns:xlink="http://www.w3.org/1999/xlink">
<g id="graph0" class="graph" transform="scale(1 1) rotate(0) translate(4 188)">
<title>decimal64::OutOfBoundsError</title>
<!-- Node1 -->
<g id="Node000001" class="node">
<title>Node1</title>
<g id="a_Node000001"><a xlink:title="Thrown on overflow in Decimal arithmetic.">
<polygon fill="#999999" stroke="#666666" points="161,-19 0,-19 0,0 161,0 161,-19"/>
<text text-anchor="middle" x="80.5" y="-7" font-family="Helvetica,sans-Serif" font-size="10.00">decimal64::OutOfBoundsError</text>
</a>
</g>
</g>
<!-- Node2 -->
<g id="Node000002" class="node">
<title>Node2</title>
<g id="a_Node000002"><a xlink:href="../../d7/dfa/classdecimal64_1_1DecimalError.html" target="_top" xlink:title="The base class for Decimal&#45;related exceptions.">
<polygon fill="white" stroke="#666666" points="149,-74 12,-74 12,-55 149,-55 149,-74"/>
<text text-anchor="middle" x="80.5" y="-62" font-family="Helvetica,sans-Serif" font-size="10.00">decimal64::DecimalError</text>
</a>
</g>
</g>
<!-- Node2&#45;&gt;Node1 -->
<g id="edge1_Node000001_Node000002" class="edge">
<title>Node2&#45;&gt;Node1</title>
<g id="a_edge1_Node000001_Node000002"><a xlink:title=" ">
<path fill="none" stroke="#63b8ff" d="M80.5,-44.66C80.5,-35.93 80.5,-25.99 80.5,-19.09"/>
<polygon fill="#63b8ff" stroke="#63b8ff" points="77,-44.75 80.5,-54.75 84,-44.75 77,-44.75"/>
</a>
</g>
</g>
<!-- Node3 -->
<g id="Node000003" class="node">
<title>Node3</title>
<g id="a_Node000003"><a xlink:title=" ">
<polygon fill="white" stroke="#666666" points="132.5,-129 28.5,-129 28.5,-110 132.5,-110 132.5,-129"/>
<text text-anchor="middle" x="80.5" y="-117" font-family="Helvetica,sans-Serif" font-size="10.00">std::runtime_error</text>
</a>
</g>
</g>
<!-- Node3&#45;&gt;Node2 -->
<g id="edge2_Node000002_Node000003" class="edge">
<title>Node3&#45;&gt;Node2</title>
<g id="a_edge2_Node000002_Node000003"><a xlink:title=" ">
<path fill="none" stroke="#63b8ff" d="M80.5,-99.66C80.5,-90.93 80.5,-80.99 80.5,-74.09"/>
<polygon fill="#63b8ff" stroke="#63b8ff" points="77,-99.75 80.5,-109.75 84,-99.75 77,-99.75"/>
</a>
</g>
</g>
<!-- Node4 -->
<g id="Node000004" class="node">
<title>Node4</title>
<g id="a_Node000004"><a xlink:title=" ">
<polygon fill="white" stroke="#666666" points="123.5,-184 37.5,-184 37.5,-165 123.5,-165 123.5,-184"/>
<text text-anchor="middle" x="80.5" y="-172" font-family="Helvetica,sans-Serif" font-size="10.00">std::exception</text>
</a>
</g>
</g>
<!-- Node4&#45;&gt;Node3 -->
<g id="edge3_Node000003_Node000004" class="edge">
<title>Node4&#45;&gt;Node3</title>
<g id="a_edge3_Node000003_Node000004"><a xlink:title=" ">
<path fill="none" stroke="#63b8ff" d="M80.5,-154.66C80.5,-145.93 80.5,-135.99 80.5,-129.09"/>
<polygon fill="#63b8ff" stroke="#63b8ff" points="77,-154.75 80.5,-164.75 84,-154.75 77,-154.75"/>
</a>
</g>
</g>
</g>
</svg>
