<?xml version="1.0" encoding="UTF-8" standalone="no"?>
<!DOCTYPE svg PUBLIC "-//W3C//DTD SVG 1.1//EN"
 "http://www.w3.org/Graphics/SVG/1.1/DTD/svg11.dtd">
<!-- Generated by graphviz version 2.43.0 (0)
 -->
<!-- Title: ugrpc::client::ClientFactorySettings Pages: 1 -->
<svg width="859pt" height="92pt"
 viewBox="0.00 0.00 859.00 91.50" xmlns="http://www.w3.org/2000/svg" xmlns:xlink="http://www.w3.org/1999/xlink">
<g id="graph0" class="graph" transform="scale(1 1) rotate(0) translate(4 87.5)">
<title>ugrpc::client::ClientFactorySettings</title>
<!-- Node1 -->
<g id="Node000001" class="node">
<title>Node1</title>
<g id="a_Node000001"><a xlink:title="Settings relating to the ClientFactory.">
<polygon fill="#999999" stroke="#666666" points="851,-64.5 705,-64.5 705,-34.5 851,-34.5 851,-64.5"/>
<text text-anchor="start" x="713" y="-52.5" font-family="Helvetica,sans-Serif" font-size="10.00">ugrpc::client::ClientFactory</text>
<text text-anchor="middle" x="778" y="-41.5" font-family="Helvetica,sans-Serif" font-size="10.00">Settings</text>
</a>
</g>
</g>
<!-- Node2 -->
<g id="Node000002" class="node">
<title>Node2</title>
<g id="a_Node000002"><a xlink:title=" ">
<polygon fill="white" stroke="#666666" points="270,-83.5 141,-83.5 141,-53.5 270,-53.5 270,-83.5"/>
<text text-anchor="start" x="149" y="-71.5" font-family="Helvetica,sans-Serif" font-size="10.00">std::shared_ptr&lt; grpc</text>
<text text-anchor="middle" x="205.5" y="-60.5" font-family="Helvetica,sans-Serif" font-size="10.00">::ChannelCredentials &gt;</text>
</a>
</g>
</g>
<!-- Node2&#45;&gt;Node1 -->
<g id="edge1_Node000001_Node000002" class="edge">
<title>Node2&#45;&gt;Node1</title>
<g id="a_edge1_Node000001_Node000002"><a xlink:title=" ">
<path fill="none" stroke="#9a32cd" stroke-dasharray="5,2" d="M280.29,-67.86C374.65,-66.77 543.07,-63.89 687,-56.5 692.79,-56.2 698.79,-55.85 704.81,-55.45"/>
<polygon fill="#9a32cd" stroke="#9a32cd" points="280.23,-64.36 270.27,-67.97 280.31,-71.36 280.23,-64.36"/>
</a>
</g>
<text text-anchor="middle" x="467" y="-69.5" font-family="Helvetica,sans-Serif" font-size="10.00" fill="grey"> credentials</text>
</g>
<!-- Node3 -->
<g id="Node000003" class="node">
<title>Node3</title>
<g id="a_Node000003"><a xlink:title=" ">
<polygon fill="white" stroke="#666666" points="579,-41 355,-41 355,0 579,0 579,-41"/>
<text text-anchor="start" x="363" y="-29" font-family="Helvetica,sans-Serif" font-size="10.00">std::unordered_map</text>
<text text-anchor="start" x="363" y="-18" font-family="Helvetica,sans-Serif" font-size="10.00">&lt; std::string, std::</text>
<text text-anchor="middle" x="467" y="-7" font-family="Helvetica,sans-Serif" font-size="10.00">shared_ptr&lt; grpc::ChannelCredentials &gt; &gt;</text>
</a>
</g>
</g>
<!-- Node2&#45;&gt;Node3 -->
<g id="edge5_Node000003_Node000002" class="edge">
<title>Node2&#45;&gt;Node3</title>
<g id="a_edge5_Node000003_Node000002"><a xlink:title=" ">
<path fill="none" stroke="#9a32cd" stroke-dasharray="5,2" d="M279.98,-54.02C282.69,-53.5 285.37,-53 288,-52.5 309.6,-48.44 332.7,-44.21 354.86,-40.2"/>
<polygon fill="#9a32cd" stroke="#9a32cd" points="279.27,-50.59 270.1,-55.91 280.58,-57.47 279.27,-50.59"/>
</a>
</g>
<text text-anchor="middle" x="312.5" y="-55.5" font-family="Helvetica,sans-Serif" font-size="10.00" fill="grey"> elements</text>
</g>
<!-- Node3&#45;&gt;Node1 -->
<g id="edge2_Node000001_Node000003" class="edge">
<title>Node3&#45;&gt;Node1</title>
<g id="a_edge2_Node000001_Node000003"><a xlink:title=" ">
<path fill="none" stroke="#9a32cd" stroke-dasharray="5,2" d="M589.51,-31.9C628.56,-35.57 670.56,-39.51 704.88,-42.73"/>
<polygon fill="#9a32cd" stroke="#9a32cd" points="589.4,-28.38 579.12,-30.93 588.75,-35.35 589.4,-28.38"/>
</a>
</g>
<text text-anchor="middle" x="642" y="-44.5" font-family="Helvetica,sans-Serif" font-size="10.00" fill="grey"> client_credentials</text>
</g>
<!-- Node4 -->
<g id="Node000004" class="node">
<title>Node4</title>
<g id="a_Node000004"><a xlink:title=" ">
<polygon fill="white" stroke="#666666" points="238,-27 173,-27 173,-8 238,-8 238,-27"/>
<text text-anchor="middle" x="205.5" y="-15" font-family="Helvetica,sans-Serif" font-size="10.00">std::string</text>
</a>
</g>
</g>
<!-- Node4&#45;&gt;Node3 -->
<g id="edge3_Node000003_Node000004" class="edge">
<title>Node4&#45;&gt;Node3</title>
<g id="a_edge3_Node000003_Node000004"><a xlink:title=" ">
<path fill="none" stroke="#9a32cd" stroke-dasharray="5,2" d="M248.25,-17.74C273.87,-17.9 307.33,-18.16 337,-18.5 342.82,-18.57 348.79,-18.64 354.82,-18.72"/>
<polygon fill="#9a32cd" stroke="#9a32cd" points="248.17,-14.24 238.14,-17.67 248.12,-21.24 248.17,-14.24"/>
</a>
</g>
<text text-anchor="middle" x="312.5" y="-21.5" font-family="Helvetica,sans-Serif" font-size="10.00" fill="grey"> keys</text>
</g>
<!-- Node5 -->
<g id="Node000005" class="node">
<title>Node5</title>
<g id="a_Node000005"><a xlink:title=" ">
<polygon fill="white" stroke="#666666" points="104,-32.5 0,-32.5 0,-2.5 104,-2.5 104,-32.5"/>
<text text-anchor="start" x="8" y="-20.5" font-family="Helvetica,sans-Serif" font-size="10.00">std::basic_string&lt;</text>
<text text-anchor="middle" x="52" y="-9.5" font-family="Helvetica,sans-Serif" font-size="10.00"> Char &gt;</text>
</a>
</g>
</g>
<!-- Node5&#45;&gt;Node4 -->
<g id="edge4_Node000004_Node000005" class="edge">
<title>Node5&#45;&gt;Node4</title>
<g id="a_edge4_Node000004_Node000005"><a xlink:title=" ">
<path fill="none" stroke="#63b8ff" d="M114.29,-17.5C134.32,-17.5 155.75,-17.5 172.69,-17.5"/>
<polygon fill="#63b8ff" stroke="#63b8ff" points="114.29,-14 104.29,-17.5 114.29,-21 114.29,-14"/>
</a>
</g>
</g>
</g>
</svg>
