<?xml version="1.0" encoding="UTF-8" standalone="no"?>
<!DOCTYPE svg PUBLIC "-//W3C//DTD SVG 1.1//EN"
 "http://www.w3.org/Graphics/SVG/1.1/DTD/svg11.dtd">
<!-- Generated by graphviz version 2.43.0 (0)
 -->
<!-- Title: userver/storages/clickhouse/io/columns/nullable_column.hpp Pages: 1 -->
<svg width="332pt" height="357pt"
 viewBox="0.00 0.00 332.00 357.00" xmlns="http://www.w3.org/2000/svg" xmlns:xlink="http://www.w3.org/1999/xlink">
<g id="graph0" class="graph" transform="scale(1 1) rotate(0) translate(4 353)">
<title>userver/storages/clickhouse/io/columns/nullable_column.hpp</title>
<!-- Node1 -->
<g id="Node000001" class="node">
<title>Node1</title>
<g id="a_Node000001"><a xlink:title="Nullable column support.">
<polygon fill="#999999" stroke="#666666" points="217,-349 40,-349 40,-319 217,-319 217,-349"/>
<text text-anchor="start" x="48" y="-337" font-family="Helvetica,sans-Serif" font-size="10.00">userver/storages/clickhouse</text>
<text text-anchor="middle" x="128.5" y="-326" font-family="Helvetica,sans-Serif" font-size="10.00">/io/columns/nullable_column.hpp</text>
</a>
</g>
</g>
<!-- Node2 -->
<g id="Node000002" class="node">
<title>Node2</title>
<g id="a_Node000002"><a xlink:href="../../dd/d84/insertion__request_8hpp_source.html" target="_top" xlink:title=" ">
<polygon fill="white" stroke="#666666" points="153,-217 0,-217 0,-187 153,-187 153,-217"/>
<text text-anchor="start" x="8" y="-205" font-family="Helvetica,sans-Serif" font-size="10.00">userver/storages/clickhouse</text>
<text text-anchor="middle" x="76.5" y="-194" font-family="Helvetica,sans-Serif" font-size="10.00">/impl/insertion_request.hpp</text>
</a>
</g>
</g>
<!-- Node1&#45;&gt;Node2 -->
<g id="edge1_Node000001_Node000002" class="edge">
<title>Node1&#45;&gt;Node2</title>
<g id="a_edge1_Node000001_Node000002"><a xlink:title=" ">
<path fill="none" stroke="#63b8ff" d="M111.86,-310.44C106.34,-302.14 100.58,-292.45 96.5,-283 86.98,-260.91 81.34,-233.36 78.59,-217.03"/>
<polygon fill="#63b8ff" stroke="#63b8ff" points="109.09,-312.59 117.66,-318.82 114.85,-308.61 109.09,-312.59"/>
</a>
</g>
</g>
<!-- Node5 -->
<g id="Node000005" class="node">
<title>Node5</title>
<g id="a_Node000005"><a xlink:href="../../d4/d7c/clickhouse_2include_2userver_2storages_2clickhouse_2io_2impl_2validate_8hpp_source.html" target="_top" xlink:title=" ">
<polygon fill="white" stroke="#666666" points="258,-283 105,-283 105,-253 258,-253 258,-283"/>
<text text-anchor="start" x="113" y="-271" font-family="Helvetica,sans-Serif" font-size="10.00">userver/storages/clickhouse</text>
<text text-anchor="middle" x="181.5" y="-260" font-family="Helvetica,sans-Serif" font-size="10.00">/io/impl/validate.hpp</text>
</a>
</g>
</g>
<!-- Node1&#45;&gt;Node5 -->
<g id="edge4_Node000001_Node000005" class="edge">
<title>Node1&#45;&gt;Node5</title>
<g id="a_edge4_Node000001_Node000005"><a xlink:title=" ">
<path fill="none" stroke="#63b8ff" d="M146.65,-311.09C154.3,-301.85 162.98,-291.36 169.77,-283.16"/>
<polygon fill="#63b8ff" stroke="#63b8ff" points="143.94,-308.86 140.26,-318.8 149.34,-313.33 143.94,-308.86"/>
</a>
</g>
</g>
<!-- Node3 -->
<g id="Node000003" class="node">
<title>Node3</title>
<g id="a_Node000003"><a xlink:href="../../da/de8/clickhouse_2include_2userver_2storages_2clickhouse_2cluster_8hpp.html" target="_top" xlink:title="Interface for executing queries on a cluster of ClickHouse servers.">
<polygon fill="white" stroke="#666666" points="258,-85 105,-85 105,-55 258,-55 258,-85"/>
<text text-anchor="start" x="113" y="-73" font-family="Helvetica,sans-Serif" font-size="10.00">userver/storages/clickhouse</text>
<text text-anchor="middle" x="181.5" y="-62" font-family="Helvetica,sans-Serif" font-size="10.00">/cluster.hpp</text>
</a>
</g>
</g>
<!-- Node2&#45;&gt;Node3 -->
<g id="edge2_Node000002_Node000003" class="edge">
<title>Node2&#45;&gt;Node3</title>
<g id="a_edge2_Node000002_Node000003"><a xlink:title=" ">
<path fill="none" stroke="#63b8ff" d="M77.69,-176.6C79.62,-159.56 84.47,-137.08 96.5,-121 108.5,-104.96 127.28,-93.13 144.14,-85.03"/>
<polygon fill="#63b8ff" stroke="#63b8ff" points="74.18,-176.62 76.8,-186.88 81.15,-177.22 74.18,-176.62"/>
</a>
</g>
</g>
<!-- Node4 -->
<g id="Node000004" class="node">
<title>Node4</title>
<g id="a_Node000004"><a xlink:href="../../d7/d29/clickhouse_8hpp.html" target="_top" xlink:title=" ">
<polygon fill="white" stroke="#666666" points="320.5,-19 146.5,-19 146.5,0 320.5,0 320.5,-19"/>
<text text-anchor="middle" x="233.5" y="-7" font-family="Helvetica,sans-Serif" font-size="10.00">userver/storages/clickhouse.hpp</text>
</a>
</g>
</g>
<!-- Node3&#45;&gt;Node4 -->
<g id="edge3_Node000003_Node000004" class="edge">
<title>Node3&#45;&gt;Node4</title>
<g id="a_edge3_Node000003_Node000004"><a xlink:title=" ">
<path fill="none" stroke="#63b8ff" d="M200.98,-47.09C209.57,-37.42 219.18,-26.61 225.71,-19.27"/>
<polygon fill="#63b8ff" stroke="#63b8ff" points="198.12,-45.04 194.09,-54.84 203.35,-49.69 198.12,-45.04"/>
</a>
</g>
</g>
<!-- Node5&#45;&gt;Node2 -->
<g id="edge9_Node000005_Node000002" class="edge">
<title>Node5&#45;&gt;Node2</title>
<g id="a_edge9_Node000005_Node000002"><a xlink:title=" ">
<path fill="none" stroke="#63b8ff" d="M149.83,-247.69C133.62,-237.82 114.25,-226.01 99.49,-217.01"/>
<polygon fill="#63b8ff" stroke="#63b8ff" points="148.1,-250.74 158.46,-252.95 151.74,-244.76 148.1,-250.74"/>
</a>
</g>
</g>
<!-- Node6 -->
<g id="Node000006" class="node">
<title>Node6</title>
<g id="a_Node000006"><a xlink:href="../../db/d1b/clickhouse_2include_2userver_2storages_2clickhouse_2execution__result_8hpp.html" target="_top" xlink:title="Result accessor.">
<polygon fill="white" stroke="#666666" points="324,-217 171,-217 171,-187 324,-187 324,-217"/>
<text text-anchor="start" x="179" y="-205" font-family="Helvetica,sans-Serif" font-size="10.00">userver/storages/clickhouse</text>
<text text-anchor="middle" x="247.5" y="-194" font-family="Helvetica,sans-Serif" font-size="10.00">/execution_result.hpp</text>
</a>
</g>
</g>
<!-- Node5&#45;&gt;Node6 -->
<g id="edge5_Node000005_Node000006" class="edge">
<title>Node5&#45;&gt;Node6</title>
<g id="a_edge5_Node000005_Node000006"><a xlink:title=" ">
<path fill="none" stroke="#63b8ff" d="M203.52,-245.65C213.19,-236.27 224.27,-225.53 232.89,-217.16"/>
<polygon fill="#63b8ff" stroke="#63b8ff" points="200.89,-243.32 196.15,-252.8 205.76,-248.35 200.89,-243.32"/>
</a>
</g>
</g>
<!-- Node6&#45;&gt;Node4 -->
<g id="edge6_Node000006_Node000004" class="edge">
<title>Node6&#45;&gt;Node4</title>
<g id="a_edge6_Node000006_Node000004"><a xlink:title=" ">
<path fill="none" stroke="#63b8ff" d="M258.96,-177.68C262.42,-169.45 265.77,-160.01 267.5,-151 275.57,-109.1 281.17,-95.42 267.5,-55 262.7,-40.82 251.37,-27.59 243.11,-19.31"/>
<polygon fill="#63b8ff" stroke="#63b8ff" points="255.68,-176.44 254.78,-187 262.06,-179.31 255.68,-176.44"/>
</a>
</g>
</g>
<!-- Node7 -->
<g id="Node000007" class="node">
<title>Node7</title>
<g id="a_Node000007"><a xlink:href="../../d3/de4/clickhouse_2include_2userver_2storages_2clickhouse_2impl_2pool_8hpp_source.html" target="_top" xlink:title=" ">
<polygon fill="white" stroke="#666666" points="258,-151 105,-151 105,-121 258,-121 258,-151"/>
<text text-anchor="start" x="113" y="-139" font-family="Helvetica,sans-Serif" font-size="10.00">userver/storages/clickhouse</text>
<text text-anchor="middle" x="181.5" y="-128" font-family="Helvetica,sans-Serif" font-size="10.00">/impl/pool.hpp</text>
</a>
</g>
</g>
<!-- Node6&#45;&gt;Node7 -->
<g id="edge7_Node000006_Node000007" class="edge">
<title>Node6&#45;&gt;Node7</title>
<g id="a_edge7_Node000006_Node000007"><a xlink:title=" ">
<path fill="none" stroke="#63b8ff" d="M225.48,-179.65C215.81,-170.27 204.73,-159.53 196.11,-151.16"/>
<polygon fill="#63b8ff" stroke="#63b8ff" points="223.24,-182.35 232.85,-186.8 228.11,-177.32 223.24,-182.35"/>
</a>
</g>
</g>
<!-- Node7&#45;&gt;Node3 -->
<g id="edge8_Node000007_Node000003" class="edge">
<title>Node7&#45;&gt;Node3</title>
<g id="a_edge8_Node000007_Node000003"><a xlink:title=" ">
<path fill="none" stroke="#63b8ff" d="M181.5,-110.54C181.5,-101.96 181.5,-92.61 181.5,-85.16"/>
<polygon fill="#63b8ff" stroke="#63b8ff" points="178,-110.8 181.5,-120.8 185,-110.8 178,-110.8"/>
</a>
</g>
</g>
</g>
</svg>
