<?xml version="1.0" encoding="UTF-8" standalone="no"?>
<!DOCTYPE svg PUBLIC "-//W3C//DTD SVG 1.1//EN"
 "http://www.w3.org/Graphics/SVG/1.1/DTD/svg11.dtd">
<!-- Generated by graphviz version 2.43.0 (0)
 -->
<!-- Title: userver/components/component_list.hpp Pages: 1 -->
<svg width="974pt" height="115pt"
 viewBox="0.00 0.00 974.00 115.00" xmlns="http://www.w3.org/2000/svg" xmlns:xlink="http://www.w3.org/1999/xlink">
<g id="graph0" class="graph" transform="scale(1 1) rotate(0) translate(4 111)">
<title>userver/components/component_list.hpp</title>
<!-- Node1 -->
<g id="Node000001" class="node">
<title>Node1</title>
<g id="a_Node000001"><a xlink:title="A list to keep a unique list of components to start with components::Run(), utils::DaemonMain() or co...">
<polygon fill="#999999" stroke="#666666" points="585,-107 469,-107 469,-77 585,-77 585,-107"/>
<text text-anchor="start" x="477" y="-95" font-family="Helvetica,sans-Serif" font-size="10.00">userver/components</text>
<text text-anchor="middle" x="527" y="-84" font-family="Helvetica,sans-Serif" font-size="10.00">/component_list.hpp</text>
</a>
</g>
</g>
<!-- Node2 -->
<g id="Node000002" class="node">
<title>Node2</title>
<g id="a_Node000002"><a xlink:href="../../d1/d1c/common__component__list_8hpp.html" target="_top" xlink:title="Returns the most common list of components with runtime config updates and HTTP client.">
<polygon fill="white" stroke="#666666" points="164,-35.5 0,-35.5 0,-5.5 164,-5.5 164,-35.5"/>
<text text-anchor="start" x="8" y="-23.5" font-family="Helvetica,sans-Serif" font-size="10.00">userver/components</text>
<text text-anchor="middle" x="82" y="-12.5" font-family="Helvetica,sans-Serif" font-size="10.00">/common_component_list.hpp</text>
</a>
</g>
</g>
<!-- Node1&#45;&gt;Node2 -->
<g id="edge1_Node000001_Node000002" class="edge">
<title>Node1&#45;&gt;Node2</title>
<g id="a_edge1_Node000001_Node000002"><a xlink:title=" ">
<path fill="none" stroke="#63b8ff" d="M458.64,-82.8C387.17,-73.89 271.88,-58.55 173,-41 163.77,-39.36 154.06,-37.47 144.54,-35.51"/>
<polygon fill="#63b8ff" stroke="#63b8ff" points="458.5,-86.31 468.85,-84.07 459.36,-79.36 458.5,-86.31"/>
</a>
</g>
</g>
<!-- Node3 -->
<g id="Node000003" class="node">
<title>Node3</title>
<g id="a_Node000003"><a xlink:href="../../dc/dec/common__server__component__list_8hpp.html" target="_top" xlink:title="Returns the most common list of components to start a fully functional server.">
<polygon fill="white" stroke="#666666" points="340,-41 182,-41 182,0 340,0 340,-41"/>
<text text-anchor="start" x="190" y="-29" font-family="Helvetica,sans-Serif" font-size="10.00">userver/components</text>
<text text-anchor="start" x="190" y="-18" font-family="Helvetica,sans-Serif" font-size="10.00">/common_server_component</text>
<text text-anchor="middle" x="261" y="-7" font-family="Helvetica,sans-Serif" font-size="10.00">_list.hpp</text>
</a>
</g>
</g>
<!-- Node1&#45;&gt;Node3 -->
<g id="edge2_Node000001_Node000003" class="edge">
<title>Node1&#45;&gt;Node3</title>
<g id="a_edge2_Node000001_Node000003"><a xlink:title=" ">
<path fill="none" stroke="#63b8ff" d="M463.16,-74.32C424.8,-64.3 375.81,-51.5 335.66,-41.01"/>
<polygon fill="#63b8ff" stroke="#63b8ff" points="462.61,-77.79 473.17,-76.94 464.38,-71.02 462.61,-77.79"/>
</a>
</g>
</g>
<!-- Node4 -->
<g id="Node000004" class="node">
<title>Node4</title>
<g id="a_Node000004"><a xlink:href="../../d9/d9e/minimal__component__list_8hpp.html" target="_top" xlink:title="Returns a list of components to do basic logging, component initialization and configuration.">
<polygon fill="white" stroke="#666666" points="519.5,-35.5 358.5,-35.5 358.5,-5.5 519.5,-5.5 519.5,-35.5"/>
<text text-anchor="start" x="366.5" y="-23.5" font-family="Helvetica,sans-Serif" font-size="10.00">userver/components</text>
<text text-anchor="middle" x="439" y="-12.5" font-family="Helvetica,sans-Serif" font-size="10.00">/minimal_component_list.hpp</text>
</a>
</g>
</g>
<!-- Node1&#45;&gt;Node4 -->
<g id="edge3_Node000001_Node000004" class="edge">
<title>Node1&#45;&gt;Node4</title>
<g id="a_edge3_Node000001_Node000004"><a xlink:title=" ">
<path fill="none" stroke="#63b8ff" d="M501.2,-70.63C486.92,-59.35 469.54,-45.62 456.78,-35.54"/>
<polygon fill="#63b8ff" stroke="#63b8ff" points="499.17,-73.48 509.19,-76.94 503.51,-67.99 499.17,-73.48"/>
</a>
</g>
</g>
<!-- Node5 -->
<g id="Node000005" class="node">
<title>Node5</title>
<g id="a_Node000005"><a xlink:href="../../db/dbf/minimal__server__component__list_8hpp.html" target="_top" xlink:title="Returns a list of components to start a basic HTTP server.">
<polygon fill="white" stroke="#666666" points="694,-41 538,-41 538,0 694,0 694,-41"/>
<text text-anchor="start" x="546" y="-29" font-family="Helvetica,sans-Serif" font-size="10.00">userver/components</text>
<text text-anchor="start" x="546" y="-18" font-family="Helvetica,sans-Serif" font-size="10.00">/minimal_server_component</text>
<text text-anchor="middle" x="616" y="-7" font-family="Helvetica,sans-Serif" font-size="10.00">_list.hpp</text>
</a>
</g>
</g>
<!-- Node1&#45;&gt;Node5 -->
<g id="edge4_Node000001_Node000005" class="edge">
<title>Node1&#45;&gt;Node5</title>
<g id="a_edge4_Node000001_Node000005"><a xlink:title=" ">
<path fill="none" stroke="#63b8ff" d="M552.9,-70.77C564.88,-61.42 579.06,-50.35 590.93,-41.07"/>
<polygon fill="#63b8ff" stroke="#63b8ff" points="550.74,-68.02 545.01,-76.94 555.05,-73.54 550.74,-68.02"/>
</a>
</g>
</g>
<!-- Node6 -->
<g id="Node000006" class="node">
<title>Node6</title>
<g id="a_Node000006"><a xlink:href="../../da/d51/run_8hpp.html" target="_top" xlink:title="Functions to start a service or tool with the specified config and components::ComponentList.">
<polygon fill="white" stroke="#666666" points="828,-35.5 712,-35.5 712,-5.5 828,-5.5 828,-35.5"/>
<text text-anchor="start" x="720" y="-23.5" font-family="Helvetica,sans-Serif" font-size="10.00">userver/components</text>
<text text-anchor="middle" x="770" y="-12.5" font-family="Helvetica,sans-Serif" font-size="10.00">/run.hpp</text>
</a>
</g>
</g>
<!-- Node1&#45;&gt;Node6 -->
<g id="edge5_Node000001_Node000006" class="edge">
<title>Node1&#45;&gt;Node6</title>
<g id="a_edge5_Node000001_Node000006"><a xlink:title=" ">
<path fill="none" stroke="#63b8ff" d="M586.52,-74.19C620.63,-64.53 664.24,-52.15 703,-41 709.05,-39.26 715.41,-37.42 721.7,-35.6"/>
<polygon fill="#63b8ff" stroke="#63b8ff" points="585.38,-70.88 576.71,-76.97 587.29,-77.61 585.38,-70.88"/>
</a>
</g>
</g>
<!-- Node7 -->
<g id="Node000007" class="node">
<title>Node7</title>
<g id="a_Node000007"><a xlink:href="../../d7/de0/daemon__run_8hpp.html" target="_top" xlink:title="Functions to start a daemon with specified components list.">
<polygon fill="white" stroke="#666666" points="966,-35.5 846,-35.5 846,-5.5 966,-5.5 966,-35.5"/>
<text text-anchor="start" x="854" y="-23.5" font-family="Helvetica,sans-Serif" font-size="10.00">userver/utils/daemon</text>
<text text-anchor="middle" x="906" y="-12.5" font-family="Helvetica,sans-Serif" font-size="10.00">_run.hpp</text>
</a>
</g>
</g>
<!-- Node1&#45;&gt;Node7 -->
<g id="edge6_Node000001_Node000007" class="edge">
<title>Node1&#45;&gt;Node7</title>
<g id="a_edge6_Node000001_Node000007"><a xlink:title=" ">
<path fill="none" stroke="#63b8ff" d="M595.31,-82.29C658.41,-73.71 754.56,-59.23 837,-41 844.17,-39.41 851.7,-37.52 859.05,-35.55"/>
<polygon fill="#63b8ff" stroke="#63b8ff" points="594.53,-78.87 585.08,-83.67 595.46,-85.8 594.53,-78.87"/>
</a>
</g>
</g>
</g>
</svg>
