<?xml version="1.0" encoding="UTF-8" standalone="no"?>
<!DOCTYPE svg PUBLIC "-//W3C//DTD SVG 1.1//EN"
 "http://www.w3.org/Graphics/SVG/1.1/DTD/svg11.dtd">
<!-- Generated by graphviz version 2.43.0 (0)
 -->
<!-- Title: server::handlers::HttpHandlerJsonBase Pages: 1 -->
<svg width="431pt" height="324pt"
 viewBox="0.00 0.00 431.00 324.00" xmlns="http://www.w3.org/2000/svg" xmlns:xlink="http://www.w3.org/1999/xlink">
<g id="graph0" class="graph" transform="scale(1 1) rotate(0) translate(4 320)">
<title>server::handlers::HttpHandlerJsonBase</title>
<!-- Node1 -->
<g id="Node000001" class="node">
<title>Node1</title>
<g id="a_Node000001"><a xlink:title="Convenient base for handlers that accept requests with body in JSON format and respond with body in J...">
<polygon fill="#999999" stroke="#666666" points="256,-96 95,-96 95,-66 256,-66 256,-96"/>
<text text-anchor="start" x="103" y="-84" font-family="Helvetica,sans-Serif" font-size="10.00">server::handlers::HttpHandler</text>
<text text-anchor="middle" x="175.5" y="-73" font-family="Helvetica,sans-Serif" font-size="10.00">JsonBase</text>
</a>
</g>
</g>
<!-- Node6 -->
<g id="Node000006" class="node">
<title>Node6</title>
<g id="a_Node000006"><a xlink:href="../../d6/d08/classalerts_1_1Handler.html" target="_top" xlink:title="Handler that returns the list of active fired alerts.">
<polygon fill="white" stroke="#666666" points="89,-24.5 0,-24.5 0,-5.5 89,-5.5 89,-24.5"/>
<text text-anchor="middle" x="44.5" y="-12.5" font-family="Helvetica,sans-Serif" font-size="10.00">alerts::Handler</text>
</a>
</g>
</g>
<!-- Node1&#45;&gt;Node6 -->
<g id="edge5_Node000001_Node000006" class="edge">
<title>Node1&#45;&gt;Node6</title>
<g id="a_edge5_Node000001_Node000006"><a xlink:title=" ">
<path fill="none" stroke="#63b8ff" d="M137.55,-61.46C112.6,-49.27 81.14,-33.9 61.93,-24.52"/>
<polygon fill="#63b8ff" stroke="#63b8ff" points="136.23,-64.71 146.75,-65.95 139.3,-58.42 136.23,-64.71"/>
</a>
</g>
</g>
<!-- Node7 -->
<g id="Node000007" class="node">
<title>Node7</title>
<g id="a_Node000007"><a xlink:href="../../d8/d67/classserver_1_1handlers_1_1InspectRequests.html" target="_top" xlink:title="Handler that returns information about all in&#45;flight requests.">
<polygon fill="white" stroke="#666666" points="244,-30 107,-30 107,0 244,0 244,-30"/>
<text text-anchor="start" x="115" y="-18" font-family="Helvetica,sans-Serif" font-size="10.00">server::handlers::Inspect</text>
<text text-anchor="middle" x="175.5" y="-7" font-family="Helvetica,sans-Serif" font-size="10.00">Requests</text>
</a>
</g>
</g>
<!-- Node1&#45;&gt;Node7 -->
<g id="edge6_Node000001_Node000007" class="edge">
<title>Node1&#45;&gt;Node7</title>
<g id="a_edge6_Node000001_Node000007"><a xlink:title=" ">
<path fill="none" stroke="#63b8ff" d="M175.5,-55.54C175.5,-46.96 175.5,-37.61 175.5,-30.16"/>
<polygon fill="#63b8ff" stroke="#63b8ff" points="172,-55.8 175.5,-65.8 179,-55.8 172,-55.8"/>
</a>
</g>
</g>
<!-- Node8 -->
<g id="Node000008" class="node">
<title>Node8</title>
<g id="a_Node000008"><a xlink:href="../../d5/ded/classserver_1_1handlers_1_1TestsControl.html" target="_top" xlink:title="Handler that allows to control the behavior of server from tests, and functional tests with testsuite...">
<polygon fill="white" stroke="#666666" points="423,-24.5 262,-24.5 262,-5.5 423,-5.5 423,-24.5"/>
<text text-anchor="middle" x="342.5" y="-12.5" font-family="Helvetica,sans-Serif" font-size="10.00">server::handlers::TestsControl</text>
</a>
</g>
</g>
<!-- Node1&#45;&gt;Node8 -->
<g id="edge7_Node000001_Node000008" class="edge">
<title>Node1&#45;&gt;Node8</title>
<g id="a_edge7_Node000001_Node000008"><a xlink:title=" ">
<path fill="none" stroke="#63b8ff" d="M221.79,-62.26C253.91,-49.95 295.25,-34.11 320.28,-24.52"/>
<polygon fill="#63b8ff" stroke="#63b8ff" points="220.23,-59.11 212.15,-65.95 222.74,-65.64 220.23,-59.11"/>
</a>
</g>
</g>
<!-- Node2 -->
<g id="Node000002" class="node">
<title>Node2</title>
<g id="a_Node000002"><a xlink:href="../../d6/d36/classserver_1_1handlers_1_1HttpHandlerBase.html" target="_top" xlink:title="Base class for all the Userver HTTP Handlers.">
<polygon fill="white" stroke="#666666" points="268,-151 83,-151 83,-132 268,-132 268,-151"/>
<text text-anchor="middle" x="175.5" y="-139" font-family="Helvetica,sans-Serif" font-size="10.00">server::handlers::HttpHandlerBase</text>
</a>
</g>
</g>
<!-- Node2&#45;&gt;Node1 -->
<g id="edge1_Node000001_Node000002" class="edge">
<title>Node2&#45;&gt;Node1</title>
<g id="a_edge1_Node000001_Node000002"><a xlink:title=" ">
<path fill="none" stroke="#63b8ff" d="M175.5,-121.65C175.5,-113.36 175.5,-103.78 175.5,-96.11"/>
<polygon fill="#63b8ff" stroke="#63b8ff" points="172,-121.87 175.5,-131.87 179,-121.87 172,-121.87"/>
</a>
</g>
</g>
<!-- Node3 -->
<g id="Node000003" class="node">
<title>Node3</title>
<g id="a_Node000003"><a xlink:href="../../d1/ddc/classserver_1_1handlers_1_1HandlerBase.html" target="_top" xlink:title="Base class for the request handlers.">
<polygon fill="white" stroke="#666666" points="257.5,-206 93.5,-206 93.5,-187 257.5,-187 257.5,-206"/>
<text text-anchor="middle" x="175.5" y="-194" font-family="Helvetica,sans-Serif" font-size="10.00">server::handlers::HandlerBase</text>
</a>
</g>
</g>
<!-- Node3&#45;&gt;Node2 -->
<g id="edge2_Node000002_Node000003" class="edge">
<title>Node3&#45;&gt;Node2</title>
<g id="a_edge2_Node000002_Node000003"><a xlink:title=" ">
<path fill="none" stroke="#63b8ff" d="M175.5,-176.66C175.5,-167.93 175.5,-157.99 175.5,-151.09"/>
<polygon fill="#63b8ff" stroke="#63b8ff" points="172,-176.75 175.5,-186.75 179,-176.75 172,-176.75"/>
</a>
</g>
</g>
<!-- Node4 -->
<g id="Node000004" class="node">
<title>Node4</title>
<g id="a_Node000004"><a xlink:href="../../d7/db4/classcomponents_1_1ComponentBase.html" target="_top" xlink:title="Base class for all application components, it depends on components::Logger and components::Tracer.">
<polygon fill="white" stroke="#666666" points="257,-261 94,-261 94,-242 257,-242 257,-261"/>
<text text-anchor="middle" x="175.5" y="-249" font-family="Helvetica,sans-Serif" font-size="10.00">components::ComponentBase</text>
</a>
</g>
</g>
<!-- Node4&#45;&gt;Node3 -->
<g id="edge3_Node000003_Node000004" class="edge">
<title>Node4&#45;&gt;Node3</title>
<g id="a_edge3_Node000003_Node000004"><a xlink:title=" ">
<path fill="none" stroke="#63b8ff" d="M175.5,-231.66C175.5,-222.93 175.5,-212.99 175.5,-206.09"/>
<polygon fill="#63b8ff" stroke="#63b8ff" points="172,-231.75 175.5,-241.75 179,-231.75 172,-231.75"/>
</a>
</g>
</g>
<!-- Node5 -->
<g id="Node000005" class="node">
<title>Node5</title>
<g id="a_Node000005"><a xlink:href="../../d2/d86/classcomponents_1_1RawComponentBase.html" target="_top" xlink:title="The base class for all components. Don&#39;t use it for application components, use ComponentBase instead...">
<polygon fill="white" stroke="#666666" points="267.5,-316 83.5,-316 83.5,-297 267.5,-297 267.5,-316"/>
<text text-anchor="middle" x="175.5" y="-304" font-family="Helvetica,sans-Serif" font-size="10.00">components::RawComponentBase</text>
</a>
</g>
</g>
<!-- Node5&#45;&gt;Node4 -->
<g id="edge4_Node000004_Node000005" class="edge">
<title>Node5&#45;&gt;Node4</title>
<g id="a_edge4_Node000004_Node000005"><a xlink:title=" ">
<path fill="none" stroke="#63b8ff" d="M175.5,-286.66C175.5,-277.93 175.5,-267.99 175.5,-261.09"/>
<polygon fill="#63b8ff" stroke="#63b8ff" points="172,-286.75 175.5,-296.75 179,-286.75 172,-286.75"/>
</a>
</g>
</g>
</g>
</svg>
