<?xml version="1.0" encoding="UTF-8" standalone="no"?>
<!DOCTYPE svg PUBLIC "-//W3C//DTD SVG 1.1//EN"
 "http://www.w3.org/Graphics/SVG/1.1/DTD/svg11.dtd">
<!-- Generated by graphviz version 2.43.0 (0)
 -->
<!-- Title: server::handlers::auth::digest::AuthCheckerSettingsComponent Pages: 1 -->
<svg width="215pt" height="236pt"
 viewBox="0.00 0.00 215.00 236.00" xmlns="http://www.w3.org/2000/svg" xmlns:xlink="http://www.w3.org/1999/xlink">
<g id="graph0" class="graph" transform="scale(1 1) rotate(0) translate(4 232)">
<title>server::handlers::auth::digest::AuthCheckerSettingsComponent</title>
<!-- Node1 -->
<g id="Node000001" class="node">
<title>Node1</title>
<g id="a_Node000001"><a xlink:title="Component that loads digest auth configuration settings from a static_config.yaml.">
<polygon fill="#999999" stroke="#666666" points="183.5,-118 23.5,-118 23.5,-77 183.5,-77 183.5,-118"/>
<text text-anchor="start" x="31.5" y="-106" font-family="Helvetica,sans-Serif" font-size="10.00">server::handlers::auth</text>
<text text-anchor="start" x="31.5" y="-95" font-family="Helvetica,sans-Serif" font-size="10.00">::digest::AuthCheckerSettings</text>
<text text-anchor="middle" x="103.5" y="-84" font-family="Helvetica,sans-Serif" font-size="10.00">Component</text>
</a>
</g>
</g>
<!-- Node4 -->
<g id="Node000004" class="node">
<title>Node4</title>
<g id="a_Node000004"><a xlink:href="../../d2/d85/classserver_1_1handlers_1_1auth_1_1digest_1_1NonceCacheSettingsComponent.html" target="_top" xlink:title="Component that loads nonce cache settings from a static_config.yaml.">
<polygon fill="white" stroke="#666666" points="183,-41 24,-41 24,0 183,0 183,-41"/>
<text text-anchor="start" x="32" y="-29" font-family="Helvetica,sans-Serif" font-size="10.00">server::handlers::auth</text>
<text text-anchor="start" x="32" y="-18" font-family="Helvetica,sans-Serif" font-size="10.00">::digest::NonceCacheSettings</text>
<text text-anchor="middle" x="103.5" y="-7" font-family="Helvetica,sans-Serif" font-size="10.00">Component</text>
</a>
</g>
</g>
<!-- Node1&#45;&gt;Node4 -->
<g id="edge3_Node000001_Node000004" class="edge">
<title>Node1&#45;&gt;Node4</title>
<g id="a_edge3_Node000001_Node000004"><a xlink:title=" ">
<path fill="none" stroke="#63b8ff" d="M103.5,-66.69C103.5,-58.08 103.5,-48.9 103.5,-41.07"/>
<polygon fill="#63b8ff" stroke="#63b8ff" points="100,-66.79 103.5,-76.79 107,-66.79 100,-66.79"/>
</a>
</g>
</g>
<!-- Node2 -->
<g id="Node000002" class="node">
<title>Node2</title>
<g id="a_Node000002"><a xlink:href="../../d5/d69/classcomponents_1_1LoggableComponentBase.html" target="_top" xlink:title="Base class for all application components, it depends on components::Logger and components::Tracer.">
<polygon fill="white" stroke="#666666" points="207,-173 0,-173 0,-154 207,-154 207,-173"/>
<text text-anchor="middle" x="103.5" y="-161" font-family="Helvetica,sans-Serif" font-size="10.00">components::LoggableComponentBase</text>
</a>
</g>
</g>
<!-- Node2&#45;&gt;Node1 -->
<g id="edge1_Node000001_Node000002" class="edge">
<title>Node2&#45;&gt;Node1</title>
<g id="a_edge1_Node000001_Node000002"><a xlink:title=" ">
<path fill="none" stroke="#63b8ff" d="M103.5,-143.63C103.5,-135.56 103.5,-126.15 103.5,-118.01"/>
<polygon fill="#63b8ff" stroke="#63b8ff" points="100,-143.87 103.5,-153.87 107,-143.87 100,-143.87"/>
</a>
</g>
</g>
<!-- Node3 -->
<g id="Node000003" class="node">
<title>Node3</title>
<g id="a_Node000003"><a xlink:title=" ">
<polygon fill="white" stroke="#666666" points="199,-228 8,-228 8,-209 199,-209 199,-228"/>
<text text-anchor="middle" x="103.5" y="-216" font-family="Helvetica,sans-Serif" font-size="10.00">components::impl::ComponentBase</text>
</a>
</g>
</g>
<!-- Node3&#45;&gt;Node2 -->
<g id="edge2_Node000002_Node000003" class="edge">
<title>Node3&#45;&gt;Node2</title>
<g id="a_edge2_Node000002_Node000003"><a xlink:title=" ">
<path fill="none" stroke="#63b8ff" d="M103.5,-198.66C103.5,-189.93 103.5,-179.99 103.5,-173.09"/>
<polygon fill="#63b8ff" stroke="#63b8ff" points="100,-198.75 103.5,-208.75 107,-198.75 100,-198.75"/>
</a>
</g>
</g>
</g>
</svg>
