<?xml version="1.0" encoding="UTF-8" standalone="no"?>
<!DOCTYPE svg PUBLIC "-//W3C//DTD SVG 1.1//EN"
 "http://www.w3.org/Graphics/SVG/1.1/DTD/svg11.dtd">
<!-- Generated by graphviz version 2.43.0 (0)
 -->
<!-- Title: userver/utils/span.hpp Pages: 1 -->
<svg width="1383pt" height="709pt"
 viewBox="0.00 0.00 1382.90 709.00" xmlns="http://www.w3.org/2000/svg" xmlns:xlink="http://www.w3.org/1999/xlink">
<g id="graph0" class="graph" transform="scale(1 1) rotate(0) translate(4 705)">
<title>userver/utils/span.hpp</title>
<!-- Node1 -->
<g id="Node000001" class="node">
<title>Node1</title>
<g id="a_Node000001"><a xlink:title=" ">
<polygon fill="#999999" stroke="#666666" points="754.5,-701 629.5,-701 629.5,-682 754.5,-682 754.5,-701"/>
<text text-anchor="middle" x="692" y="-689" font-family="Helvetica,sans-Serif" font-size="10.00">userver/utils/span.hpp</text>
</a>
</g>
</g>
<!-- Node2 -->
<g id="Node000002" class="node">
<title>Node2</title>
<g id="a_Node000002"><a xlink:href="../../d1/df2/random_8hpp.html" target="_top" xlink:title="Cryptographically&#45;secure randomness.">
<polygon fill="white" stroke="#666666" points="266.5,-640.5 117.5,-640.5 117.5,-621.5 266.5,-621.5 266.5,-640.5"/>
<text text-anchor="middle" x="192" y="-628.5" font-family="Helvetica,sans-Serif" font-size="10.00">userver/crypto/random.hpp</text>
</a>
</g>
</g>
<!-- Node1&#45;&gt;Node2 -->
<g id="edge1_Node000001_Node000002" class="edge">
<title>Node1&#45;&gt;Node2</title>
<g id="a_edge1_Node000001_Node000002"><a xlink:title=" ">
<path fill="none" stroke="#63b8ff" d="M619.21,-684.08C535.86,-676.42 395.3,-662.55 275,-646 263.56,-644.43 251.28,-642.49 239.76,-640.57"/>
<polygon fill="#63b8ff" stroke="#63b8ff" points="619.06,-687.58 629.33,-685.01 619.69,-680.61 619.06,-687.58"/>
</a>
</g>
</g>
<!-- Node3 -->
<g id="Node000003" class="node">
<title>Node3</title>
<g id="a_Node000003"><a xlink:href="../../db/d30/wait__all__checked_8hpp.html" target="_top" xlink:title="Provides engine::WaitAllChecked.">
<polygon fill="white" stroke="#666666" points="397.5,-646 284.5,-646 284.5,-616 397.5,-616 397.5,-646"/>
<text text-anchor="start" x="292.5" y="-634" font-family="Helvetica,sans-Serif" font-size="10.00">userver/engine/wait</text>
<text text-anchor="middle" x="341" y="-623" font-family="Helvetica,sans-Serif" font-size="10.00">_all_checked.hpp</text>
</a>
</g>
</g>
<!-- Node1&#45;&gt;Node3 -->
<g id="edge2_Node000001_Node000003" class="edge">
<title>Node1&#45;&gt;Node3</title>
<g id="a_edge2_Node000001_Node000003"><a xlink:title=" ">
<path fill="none" stroke="#63b8ff" d="M620.3,-680.52C562.34,-672.16 478.71,-659.48 406,-646 403.28,-645.5 400.49,-644.96 397.68,-644.41"/>
<polygon fill="#63b8ff" stroke="#63b8ff" points="620.06,-684.02 630.46,-681.97 621.06,-677.09 620.06,-684.02"/>
</a>
</g>
</g>
<!-- Node7 -->
<g id="Node000007" class="node">
<title>Node7</title>
<g id="a_Node000007"><a xlink:href="../../d2/d1c/wait__any_8hpp.html" target="_top" xlink:title="Provides engine::WaitAny, engine::WaitAnyFor and engine::WaitAnyUntil.">
<polygon fill="white" stroke="#666666" points="528.5,-646 415.5,-646 415.5,-616 528.5,-616 528.5,-646"/>
<text text-anchor="start" x="423.5" y="-634" font-family="Helvetica,sans-Serif" font-size="10.00">userver/engine/wait</text>
<text text-anchor="middle" x="472" y="-623" font-family="Helvetica,sans-Serif" font-size="10.00">_any.hpp</text>
</a>
</g>
</g>
<!-- Node1&#45;&gt;Node7 -->
<g id="edge6_Node000001_Node000007" class="edge">
<title>Node1&#45;&gt;Node7</title>
<g id="a_edge6_Node000001_Node000007"><a xlink:title=" ">
<path fill="none" stroke="#63b8ff" d="M649.96,-679.32C614.39,-669.86 563.24,-656.26 524.89,-646.06"/>
<polygon fill="#63b8ff" stroke="#63b8ff" points="649.45,-682.81 660.01,-681.99 651.25,-676.04 649.45,-682.81"/>
</a>
</g>
</g>
<!-- Node8 -->
<g id="Node000008" class="node">
<title>Node8</title>
<g id="a_Node000008"><a xlink:href="../../de/d4e/core_2include_2userver_2server_2websocket_2server_8hpp.html" target="_top" xlink:title=" ">
<polygon fill="white" stroke="#666666" points="689,-646 547,-646 547,-616 689,-616 689,-646"/>
<text text-anchor="start" x="555" y="-634" font-family="Helvetica,sans-Serif" font-size="10.00">userver/server/websocket</text>
<text text-anchor="middle" x="618" y="-623" font-family="Helvetica,sans-Serif" font-size="10.00">/server.hpp</text>
</a>
</g>
</g>
<!-- Node1&#45;&gt;Node8 -->
<g id="edge7_Node000001_Node000008" class="edge">
<title>Node1&#45;&gt;Node8</title>
<g id="a_edge7_Node000001_Node000008"><a xlink:title=" ">
<path fill="none" stroke="#63b8ff" d="M673.03,-675.5C661.58,-666.45 647.09,-655 635.85,-646.11"/>
<polygon fill="#63b8ff" stroke="#63b8ff" points="671.07,-678.41 681.08,-681.87 675.41,-672.92 671.07,-678.41"/>
</a>
</g>
</g>
<!-- Node10 -->
<g id="Node000010" class="node">
<title>Node10</title>
<g id="a_Node000010"><a xlink:href="../../d1/d14/static__metadata_8hpp_source.html" target="_top" xlink:title=" ">
<polygon fill="white" stroke="#666666" points="827,-646 707,-646 707,-616 827,-616 827,-646"/>
<text text-anchor="start" x="715" y="-634" font-family="Helvetica,sans-Serif" font-size="10.00">userver/ugrpc/impl</text>
<text text-anchor="middle" x="767" y="-623" font-family="Helvetica,sans-Serif" font-size="10.00">/static_metadata.hpp</text>
</a>
</g>
</g>
<!-- Node1&#45;&gt;Node10 -->
<g id="edge9_Node000001_Node000010" class="edge">
<title>Node1&#45;&gt;Node10</title>
<g id="a_edge9_Node000001_Node000010"><a xlink:title=" ">
<path fill="none" stroke="#63b8ff" d="M711.23,-675.5C722.83,-666.45 737.51,-655 748.9,-646.11"/>
<polygon fill="#63b8ff" stroke="#63b8ff" points="708.8,-672.96 703.07,-681.87 713.1,-678.48 708.8,-672.96"/>
</a>
</g>
</g>
<!-- Node34 -->
<g id="Node000034" class="node">
<title>Node34</title>
<g id="a_Node000034"><a xlink:href="../../d5/d6e/histogram_8hpp.html" target="_top" xlink:title="A histogram with a dynamically&#45;allocated array of buckets.">
<polygon fill="white" stroke="#666666" points="970.5,-646 845.5,-646 845.5,-616 970.5,-616 970.5,-646"/>
<text text-anchor="start" x="853.5" y="-634" font-family="Helvetica,sans-Serif" font-size="10.00">userver/utils/statistics</text>
<text text-anchor="middle" x="908" y="-623" font-family="Helvetica,sans-Serif" font-size="10.00">/histogram.hpp</text>
</a>
</g>
</g>
<!-- Node1&#45;&gt;Node34 -->
<g id="edge48_Node000001_Node000034" class="edge">
<title>Node1&#45;&gt;Node34</title>
<g id="a_edge48_Node000001_Node000034"><a xlink:title=" ">
<path fill="none" stroke="#63b8ff" d="M733.28,-679.32C768.2,-669.86 818.42,-656.26 856.07,-646.06"/>
<polygon fill="#63b8ff" stroke="#63b8ff" points="732.15,-676 723.41,-681.99 733.98,-682.76 732.15,-676"/>
</a>
</g>
</g>
<!-- Node35 -->
<g id="Node000035" class="node">
<title>Node35</title>
<g id="a_Node000035"><a xlink:href="../../d4/d6f/histogram__aggregator_8hpp.html" target="_top" xlink:title="Used to aggregate multiple utils::statistics::Histogram metrics.">
<polygon fill="white" stroke="#666666" points="1137,-646 989,-646 989,-616 1137,-616 1137,-646"/>
<text text-anchor="start" x="997" y="-634" font-family="Helvetica,sans-Serif" font-size="10.00">userver/utils/statistics</text>
<text text-anchor="middle" x="1063" y="-623" font-family="Helvetica,sans-Serif" font-size="10.00">/histogram_aggregator.hpp</text>
</a>
</g>
</g>
<!-- Node1&#45;&gt;Node35 -->
<g id="edge49_Node000001_Node000035" class="edge">
<title>Node1&#45;&gt;Node35</title>
<g id="a_edge49_Node000001_Node000035"><a xlink:title=" ">
<path fill="none" stroke="#63b8ff" d="M758.29,-680.44C816.48,-671.56 903.39,-658.16 979,-646 982.21,-645.48 985.49,-644.95 988.8,-644.41"/>
<polygon fill="#63b8ff" stroke="#63b8ff" points="757.48,-677.02 748.12,-681.99 758.54,-683.94 757.48,-677.02"/>
</a>
</g>
</g>
<!-- Node36 -->
<g id="Node000036" class="node">
<title>Node36</title>
<g id="a_Node000036"><a xlink:href="../../dd/de6/histogram__bucket_8hpp_source.html" target="_top" xlink:title=" ">
<polygon fill="white" stroke="#666666" points="1307,-646 1155,-646 1155,-616 1307,-616 1307,-646"/>
<text text-anchor="start" x="1163" y="-634" font-family="Helvetica,sans-Serif" font-size="10.00">userver/utils/statistics</text>
<text text-anchor="middle" x="1231" y="-623" font-family="Helvetica,sans-Serif" font-size="10.00">/impl/histogram_bucket.hpp</text>
</a>
</g>
</g>
<!-- Node1&#45;&gt;Node36 -->
<g id="edge50_Node000001_Node000036" class="edge">
<title>Node1&#45;&gt;Node36</title>
<g id="a_edge50_Node000001_Node000036"><a xlink:title=" ">
<path fill="none" stroke="#63b8ff" d="M764.64,-684.86C854.43,-677.54 1011.79,-663.61 1146,-646 1148.82,-645.63 1151.68,-645.24 1154.58,-644.83"/>
<polygon fill="#63b8ff" stroke="#63b8ff" points="764.25,-681.38 754.57,-685.67 764.82,-688.35 764.25,-681.38"/>
</a>
</g>
</g>
<!-- Node4 -->
<g id="Node000004" class="node">
<title>Node4</title>
<g id="a_Node000004"><a xlink:href="../../db/d71/get__all_8hpp.html" target="_top" xlink:title="Provides engine::GetAll.">
<polygon fill="white" stroke="#666666" points="390,-580 282,-580 282,-550 390,-550 390,-580"/>
<text text-anchor="start" x="290" y="-568" font-family="Helvetica,sans-Serif" font-size="10.00">userver/engine/get</text>
<text text-anchor="middle" x="336" y="-557" font-family="Helvetica,sans-Serif" font-size="10.00">_all.hpp</text>
</a>
</g>
</g>
<!-- Node3&#45;&gt;Node4 -->
<g id="edge3_Node000003_Node000004" class="edge">
<title>Node3&#45;&gt;Node4</title>
<g id="a_edge3_Node000003_Node000004"><a xlink:title=" ">
<path fill="none" stroke="#63b8ff" d="M339.11,-605.83C338.44,-597.17 337.7,-587.7 337.11,-580.16"/>
<polygon fill="#63b8ff" stroke="#63b8ff" points="335.62,-606.1 339.89,-615.8 342.6,-605.55 335.62,-606.1"/>
</a>
</g>
</g>
<!-- Node5 -->
<g id="Node000005" class="node">
<title>Node5</title>
<g id="a_Node000005"><a xlink:href="../../d4/d5f/connection__pool__base_8hpp.html" target="_top" xlink:title="Base connection pool implementation to be derived in different drivers. Takes care of synchronization...">
<polygon fill="white" stroke="#666666" points="390.5,-514 241.5,-514 241.5,-484 390.5,-484 390.5,-514"/>
<text text-anchor="start" x="249.5" y="-502" font-family="Helvetica,sans-Serif" font-size="10.00">userver/drivers/impl</text>
<text text-anchor="middle" x="316" y="-491" font-family="Helvetica,sans-Serif" font-size="10.00">/connection_pool_base.hpp</text>
</a>
</g>
</g>
<!-- Node4&#45;&gt;Node5 -->
<g id="edge4_Node000004_Node000005" class="edge">
<title>Node4&#45;&gt;Node5</title>
<g id="a_edge4_Node000004_Node000005"><a xlink:title=" ">
<path fill="none" stroke="#63b8ff" d="M328.53,-540.11C325.81,-531.38 322.81,-521.78 320.43,-514.16"/>
<polygon fill="#63b8ff" stroke="#63b8ff" points="325.24,-541.3 331.56,-549.8 331.92,-539.21 325.24,-541.3"/>
</a>
</g>
</g>
<!-- Node6 -->
<g id="Node000006" class="node">
<title>Node6</title>
<g id="a_Node000006"><a xlink:href="../../d3/dd3/drivers_8hpp.html" target="_top" xlink:title=" ">
<polygon fill="white" stroke="#666666" points="384,-442.5 236,-442.5 236,-423.5 384,-423.5 384,-442.5"/>
<text text-anchor="middle" x="310" y="-430.5" font-family="Helvetica,sans-Serif" font-size="10.00">userver/drivers/drivers.hpp</text>
</a>
</g>
</g>
<!-- Node5&#45;&gt;Node6 -->
<g id="edge5_Node000005_Node000006" class="edge">
<title>Node5&#45;&gt;Node6</title>
<g id="a_edge5_Node000005_Node000006"><a xlink:title=" ">
<path fill="none" stroke="#63b8ff" d="M313.71,-473.6C312.7,-462.8 311.57,-450.78 310.83,-442.84"/>
<polygon fill="#63b8ff" stroke="#63b8ff" points="310.25,-474.17 314.67,-483.8 317.22,-473.51 310.25,-474.17"/>
</a>
</g>
</g>
<!-- Node9 -->
<g id="Node000009" class="node">
<title>Node9</title>
<g id="a_Node000009"><a xlink:href="../../d4/d64/websocket__handler_8hpp.html" target="_top" xlink:title=" ">
<polygon fill="white" stroke="#666666" points="689,-580 547,-580 547,-550 689,-550 689,-580"/>
<text text-anchor="start" x="555" y="-568" font-family="Helvetica,sans-Serif" font-size="10.00">userver/server/websocket</text>
<text text-anchor="middle" x="618" y="-557" font-family="Helvetica,sans-Serif" font-size="10.00">/websocket_handler.hpp</text>
</a>
</g>
</g>
<!-- Node8&#45;&gt;Node9 -->
<g id="edge8_Node000008_Node000009" class="edge">
<title>Node8&#45;&gt;Node9</title>
<g id="a_edge8_Node000008_Node000009"><a xlink:title=" ">
<path fill="none" stroke="#63b8ff" d="M618,-605.54C618,-596.96 618,-587.61 618,-580.16"/>
<polygon fill="#63b8ff" stroke="#63b8ff" points="614.5,-605.8 618,-615.8 621.5,-605.8 614.5,-605.8"/>
</a>
</g>
</g>
<!-- Node11 -->
<g id="Node000011" class="node">
<title>Node11</title>
<g id="a_Node000011"><a xlink:href="../../d9/d5b/client__data_8hpp_source.html" target="_top" xlink:title=" ">
<polygon fill="white" stroke="#666666" points="694.5,-514 575.5,-514 575.5,-484 694.5,-484 694.5,-514"/>
<text text-anchor="start" x="583.5" y="-502" font-family="Helvetica,sans-Serif" font-size="10.00">userver/ugrpc/client</text>
<text text-anchor="middle" x="635" y="-491" font-family="Helvetica,sans-Serif" font-size="10.00">/impl/client_data.hpp</text>
</a>
</g>
</g>
<!-- Node10&#45;&gt;Node11 -->
<g id="edge10_Node000010_Node000011" class="edge">
<title>Node10&#45;&gt;Node11</title>
<g id="a_edge10_Node000010_Node000011"><a xlink:title=" ">
<path fill="none" stroke="#63b8ff" d="M749.85,-607.93C736.48,-591.29 717.04,-568.28 698,-550 684.4,-536.95 667.62,-523.75 654.8,-514.2"/>
<polygon fill="#63b8ff" stroke="#63b8ff" points="747.3,-610.34 756.26,-616 752.78,-605.99 747.3,-610.34"/>
</a>
</g>
</g>
<!-- Node19 -->
<g id="Node000019" class="node">
<title>Node19</title>
<g id="a_Node000019"><a xlink:href="../../d8/d5f/client_2impl_2codegen__declarations_8hpp_source.html" target="_top" xlink:title=" ">
<polygon fill="white" stroke="#666666" points="766,-239 594,-239 594,-209 766,-209 766,-239"/>
<text text-anchor="start" x="602" y="-227" font-family="Helvetica,sans-Serif" font-size="10.00">userver/ugrpc/client</text>
<text text-anchor="middle" x="680" y="-216" font-family="Helvetica,sans-Serif" font-size="10.00">/impl/codegen_declarations.hpp</text>
</a>
</g>
</g>
<!-- Node10&#45;&gt;Node19 -->
<g id="edge26_Node000010_Node000019" class="edge">
<title>Node10&#45;&gt;Node19</title>
<g id="a_edge26_Node000010_Node000019"><a xlink:title=" ">
<path fill="none" stroke="#63b8ff" d="M766.11,-605.86C765.23,-579.77 764,-536.94 764,-500 764,-500 764,-500 764,-366 764,-313.29 720.13,-263.13 695.8,-239.36"/>
<polygon fill="#63b8ff" stroke="#63b8ff" points="762.62,-606.09 766.46,-615.96 769.61,-605.84 762.62,-606.09"/>
</a>
</g>
</g>
<!-- Node24 -->
<g id="Node000024" class="node">
<title>Node24</title>
<g id="a_Node000024"><a xlink:href="../../d6/d93/grpc_2include_2userver_2ugrpc_2impl_2statistics_8hpp_source.html" target="_top" xlink:title=" ">
<polygon fill="white" stroke="#666666" points="900,-580 792,-580 792,-550 900,-550 900,-580"/>
<text text-anchor="start" x="800" y="-568" font-family="Helvetica,sans-Serif" font-size="10.00">userver/ugrpc/impl</text>
<text text-anchor="middle" x="846" y="-557" font-family="Helvetica,sans-Serif" font-size="10.00">/statistics.hpp</text>
</a>
</g>
</g>
<!-- Node10&#45;&gt;Node24 -->
<g id="edge27_Node000010_Node000024" class="edge">
<title>Node10&#45;&gt;Node24</title>
<g id="a_edge27_Node000010_Node000024"><a xlink:title=" ">
<path fill="none" stroke="#63b8ff" d="M792.33,-609.48C804.14,-599.91 817.89,-588.77 828.52,-580.16"/>
<polygon fill="#63b8ff" stroke="#63b8ff" points="790.1,-606.78 784.53,-615.8 794.51,-612.22 790.1,-606.78"/>
</a>
</g>
</g>
<!-- Node26 -->
<g id="Node000026" class="node">
<title>Node26</title>
<g id="a_Node000026"><a xlink:href="../../d9/dfa/service__worker_8hpp_source.html" target="_top" xlink:title=" ">
<polygon fill="white" stroke="#666666" points="1228,-448 1090,-448 1090,-418 1228,-418 1228,-448"/>
<text text-anchor="start" x="1098" y="-436" font-family="Helvetica,sans-Serif" font-size="10.00">userver/ugrpc/server</text>
<text text-anchor="middle" x="1159" y="-425" font-family="Helvetica,sans-Serif" font-size="10.00">/impl/service_worker.hpp</text>
</a>
</g>
</g>
<!-- Node10&#45;&gt;Node26 -->
<g id="edge46_Node000010_Node000026" class="edge">
<title>Node10&#45;&gt;Node26</title>
<g id="a_edge46_Node000010_Node000026"><a xlink:title=" ">
<path fill="none" stroke="#63b8ff" d="M837.11,-615.98C944.89,-599.74 989.67,-639.24 1076,-580 1123.6,-547.34 1147.22,-477.86 1155.48,-448.06"/>
<polygon fill="#63b8ff" stroke="#63b8ff" points="836.48,-612.53 827.18,-617.6 837.61,-619.44 836.48,-612.53"/>
</a>
</g>
</g>
<!-- Node28 -->
<g id="Node000028" class="node">
<title>Node28</title>
<g id="a_Node000028"><a xlink:href="../../db/d93/service__worker__impl_8hpp_source.html" target="_top" xlink:title=" ">
<polygon fill="white" stroke="#666666" points="1139,-316 1021,-316 1021,-275 1139,-275 1139,-316"/>
<text text-anchor="start" x="1029" y="-304" font-family="Helvetica,sans-Serif" font-size="10.00">userver/ugrpc/server</text>
<text text-anchor="start" x="1029" y="-293" font-family="Helvetica,sans-Serif" font-size="10.00">/impl/service_worker</text>
<text text-anchor="middle" x="1080" y="-282" font-family="Helvetica,sans-Serif" font-size="10.00">_impl.hpp</text>
</a>
</g>
</g>
<!-- Node10&#45;&gt;Node28 -->
<g id="edge47_Node000010_Node000028" class="edge">
<title>Node10&#45;&gt;Node28</title>
<g id="a_edge47_Node000010_Node000028"><a xlink:title=" ">
<path fill="none" stroke="#63b8ff" d="M836.9,-613.9C924.14,-591.74 1062,-548.97 1062,-500 1062,-500 1062,-500 1062,-432 1062,-390.47 1070.41,-342.4 1075.73,-316.14"/>
<polygon fill="#63b8ff" stroke="#63b8ff" points="835.9,-610.54 827.05,-616.37 837.6,-617.33 835.9,-610.54"/>
</a>
</g>
</g>
<!-- Node12 -->
<g id="Node000012" class="node">
<title>Node12</title>
<g id="a_Node000012"><a xlink:href="../../d5/d0c/channels_8hpp.html" target="_top" xlink:title="Utilities for managing gRPC connections.">
<polygon fill="white" stroke="#666666" points="735.5,-448 622.5,-448 622.5,-418 735.5,-418 735.5,-448"/>
<text text-anchor="start" x="630.5" y="-436" font-family="Helvetica,sans-Serif" font-size="10.00">userver/ugrpc/client</text>
<text text-anchor="middle" x="679" y="-425" font-family="Helvetica,sans-Serif" font-size="10.00">/channels.hpp</text>
</a>
</g>
</g>
<!-- Node11&#45;&gt;Node12 -->
<g id="edge11_Node000011_Node000012" class="edge">
<title>Node11&#45;&gt;Node12</title>
<g id="a_edge11_Node000011_Node000012"><a xlink:title=" ">
<path fill="none" stroke="#63b8ff" d="M650.45,-475.53C656.71,-466.43 663.74,-456.19 669.26,-448.16"/>
<polygon fill="#63b8ff" stroke="#63b8ff" points="647.55,-473.57 644.77,-483.8 653.31,-477.54 647.55,-473.57"/>
</a>
</g>
</g>
<!-- Node13 -->
<g id="Node000013" class="node">
<title>Node13</title>
<g id="a_Node000013"><a xlink:href="../../d0/d98/client__factory_8hpp.html" target="_top" xlink:title="Creates generated gRPC clients. Has a minimal built&#45;in channel cache: as long as a channel to the sam...">
<polygon fill="white" stroke="#666666" points="633.5,-167.5 520.5,-167.5 520.5,-137.5 633.5,-137.5 633.5,-167.5"/>
<text text-anchor="start" x="528.5" y="-155.5" font-family="Helvetica,sans-Serif" font-size="10.00">userver/ugrpc/client</text>
<text text-anchor="middle" x="577" y="-144.5" font-family="Helvetica,sans-Serif" font-size="10.00">/client_factory.hpp</text>
</a>
</g>
</g>
<!-- Node11&#45;&gt;Node13 -->
<g id="edge12_Node000011_Node000013" class="edge">
<title>Node11&#45;&gt;Node13</title>
<g id="a_edge12_Node000011_Node000013"><a xlink:title=" ">
<path fill="none" stroke="#63b8ff" d="M565.27,-488.78C513.89,-480.59 449.82,-466.95 431,-448 405.25,-422.07 412,-404.54 412,-368 412,-368 412,-368 412,-294.5 412,-229.12 487.79,-187.6 536.64,-167.62"/>
<polygon fill="#63b8ff" stroke="#63b8ff" points="564.94,-492.27 575.36,-490.35 566.02,-485.36 564.94,-492.27"/>
</a>
</g>
</g>
<!-- Node16 -->
<g id="Node000016" class="node">
<title>Node16</title>
<g id="a_Node000016"><a xlink:href="../../d2/d7b/client_2impl_2call__params_8hpp_source.html" target="_top" xlink:title=" ">
<polygon fill="white" stroke="#666666" points="565.5,-448 440.5,-448 440.5,-418 565.5,-418 565.5,-448"/>
<text text-anchor="start" x="448.5" y="-436" font-family="Helvetica,sans-Serif" font-size="10.00">userver/ugrpc/client</text>
<text text-anchor="middle" x="503" y="-425" font-family="Helvetica,sans-Serif" font-size="10.00">/impl/call_params.hpp</text>
</a>
</g>
</g>
<!-- Node11&#45;&gt;Node16 -->
<g id="edge15_Node000011_Node000016" class="edge">
<title>Node11&#45;&gt;Node16</title>
<g id="a_edge15_Node000011_Node000016"><a xlink:title=" ">
<path fill="none" stroke="#63b8ff" d="M596.87,-479.51C576.16,-469.47 550.97,-457.26 531.9,-448.01"/>
<polygon fill="#63b8ff" stroke="#63b8ff" points="595.51,-482.74 606.03,-483.95 598.56,-476.44 595.51,-482.74"/>
</a>
</g>
</g>
<!-- Node11&#45;&gt;Node19 -->
<g id="edge25_Node000011_Node000019" class="edge">
<title>Node11&#45;&gt;Node19</title>
<g id="a_edge25_Node000011_Node000019"><a xlink:title=" ">
<path fill="none" stroke="#63b8ff" d="M622.24,-474.43C618.49,-466.3 614.89,-456.97 613,-448 610.26,-434.95 610.23,-431.04 613,-418 616.63,-400.87 622.73,-398.35 629,-382 648.91,-330.09 667.93,-266.69 675.98,-239.03"/>
<polygon fill="#63b8ff" stroke="#63b8ff" points="619.22,-476.24 626.78,-483.66 625.5,-473.14 619.22,-476.24"/>
</a>
</g>
</g>
<!-- Node14 -->
<g id="Node000014" class="node">
<title>Node14</title>
<g id="a_Node000014"><a xlink:href="../../da/dd3/client__factory__component_8hpp.html" target="_top" xlink:title="Provides a ClientFactory in the component system.">
<polygon fill="white" stroke="#666666" points="660.5,-96 493.5,-96 493.5,-66 660.5,-66 660.5,-96"/>
<text text-anchor="start" x="501.5" y="-84" font-family="Helvetica,sans-Serif" font-size="10.00">userver/ugrpc/client</text>
<text text-anchor="middle" x="577" y="-73" font-family="Helvetica,sans-Serif" font-size="10.00">/client_factory_component.hpp</text>
</a>
</g>
</g>
<!-- Node13&#45;&gt;Node14 -->
<g id="edge13_Node000013_Node000014" class="edge">
<title>Node13&#45;&gt;Node14</title>
<g id="a_edge13_Node000013_Node000014"><a xlink:title=" ">
<path fill="none" stroke="#63b8ff" d="M577,-127.25C577,-116.81 577,-104.99 577,-96.04"/>
<polygon fill="#63b8ff" stroke="#63b8ff" points="573.5,-127.44 577,-137.44 580.5,-127.44 573.5,-127.44"/>
</a>
</g>
</g>
<!-- Node15 -->
<g id="Node000015" class="node">
<title>Node15</title>
<g id="a_Node000015"><a xlink:href="../../d8/d98/simple__client__component_8hpp.html" target="_top" xlink:title="Template class for a simple gRPC client.">
<polygon fill="white" stroke="#666666" points="660,-30 494,-30 494,0 660,0 660,-30"/>
<text text-anchor="start" x="502" y="-18" font-family="Helvetica,sans-Serif" font-size="10.00">userver/ugrpc/client</text>
<text text-anchor="middle" x="577" y="-7" font-family="Helvetica,sans-Serif" font-size="10.00">/simple_client_component.hpp</text>
</a>
</g>
</g>
<!-- Node14&#45;&gt;Node15 -->
<g id="edge14_Node000014_Node000015" class="edge">
<title>Node14&#45;&gt;Node15</title>
<g id="a_edge14_Node000014_Node000015"><a xlink:title=" ">
<path fill="none" stroke="#63b8ff" d="M577,-55.54C577,-46.96 577,-37.61 577,-30.16"/>
<polygon fill="#63b8ff" stroke="#63b8ff" points="573.5,-55.8 577,-65.8 580.5,-55.8 573.5,-55.8"/>
</a>
</g>
</g>
<!-- Node17 -->
<g id="Node000017" class="node">
<title>Node17</title>
<g id="a_Node000017"><a xlink:href="../../d7/d8b/client_2impl_2async__methods_8hpp_source.html" target="_top" xlink:title=" ">
<polygon fill="white" stroke="#666666" points="620,-382 478,-382 478,-352 620,-352 620,-382"/>
<text text-anchor="start" x="486" y="-370" font-family="Helvetica,sans-Serif" font-size="10.00">userver/ugrpc/client</text>
<text text-anchor="middle" x="549" y="-359" font-family="Helvetica,sans-Serif" font-size="10.00">/impl/async_methods.hpp</text>
</a>
</g>
</g>
<!-- Node16&#45;&gt;Node17 -->
<g id="edge16_Node000016_Node000017" class="edge">
<title>Node16&#45;&gt;Node17</title>
<g id="a_edge16_Node000016_Node000017"><a xlink:title=" ">
<path fill="none" stroke="#63b8ff" d="M519.15,-409.53C525.69,-400.43 533.05,-390.19 538.82,-382.16"/>
<polygon fill="#63b8ff" stroke="#63b8ff" points="516.2,-407.63 513.21,-417.8 521.89,-411.72 516.2,-407.63"/>
</a>
</g>
</g>
<!-- Node18 -->
<g id="Node000018" class="node">
<title>Node18</title>
<g id="a_Node000018"><a xlink:href="../../db/df8/client_2rpc_8hpp.html" target="_top" xlink:title="Classes representing an outgoing RPC.">
<polygon fill="white" stroke="#666666" points="579.5,-310.5 466.5,-310.5 466.5,-280.5 579.5,-280.5 579.5,-310.5"/>
<text text-anchor="start" x="474.5" y="-298.5" font-family="Helvetica,sans-Serif" font-size="10.00">userver/ugrpc/client</text>
<text text-anchor="middle" x="523" y="-287.5" font-family="Helvetica,sans-Serif" font-size="10.00">/rpc.hpp</text>
</a>
</g>
</g>
<!-- Node16&#45;&gt;Node18 -->
<g id="edge24_Node000016_Node000018" class="edge">
<title>Node16&#45;&gt;Node18</title>
<g id="a_edge24_Node000016_Node000018"><a xlink:title=" ">
<path fill="none" stroke="#63b8ff" d="M483.5,-409.69C471.97,-393.68 461.05,-371.58 469,-352 475.83,-335.19 490.47,-320.67 502.79,-310.71"/>
<polygon fill="#63b8ff" stroke="#63b8ff" points="480.96,-412.13 489.85,-417.9 486.5,-407.84 480.96,-412.13"/>
</a>
</g>
</g>
<!-- Node17&#45;&gt;Node18 -->
<g id="edge17_Node000017_Node000018" class="edge">
<title>Node17&#45;&gt;Node18</title>
<g id="a_edge17_Node000017_Node000018"><a xlink:title=" ">
<path fill="none" stroke="#63b8ff" d="M540.17,-342.4C536.21,-331.81 531.67,-319.68 528.25,-310.54"/>
<polygon fill="#63b8ff" stroke="#63b8ff" points="536.96,-343.8 543.74,-351.94 543.51,-341.34 536.96,-343.8"/>
</a>
</g>
</g>
<!-- Node18&#45;&gt;Node19 -->
<g id="edge18_Node000018_Node000019" class="edge">
<title>Node18&#45;&gt;Node19</title>
<g id="a_edge18_Node000018_Node000019"><a xlink:title=" ">
<path fill="none" stroke="#63b8ff" d="M564.1,-276.31C590.41,-264.66 624.03,-249.78 648.28,-239.04"/>
<polygon fill="#63b8ff" stroke="#63b8ff" points="562.5,-273.19 554.77,-280.44 565.33,-279.59 562.5,-273.19"/>
</a>
</g>
</g>
<!-- Node20 -->
<g id="Node000020" class="node">
<title>Node20</title>
<g id="a_Node000020"><a xlink:href="../../d3/d3e/grpc_2include_2userver_2ugrpc_2client_2middlewares_2base_8hpp_source.html" target="_top" xlink:title=" ">
<polygon fill="white" stroke="#666666" points="384,-239 254,-239 254,-209 384,-209 384,-239"/>
<text text-anchor="start" x="262" y="-227" font-family="Helvetica,sans-Serif" font-size="10.00">userver/ugrpc/client</text>
<text text-anchor="middle" x="319" y="-216" font-family="Helvetica,sans-Serif" font-size="10.00">/middlewares/base.hpp</text>
</a>
</g>
</g>
<!-- Node18&#45;&gt;Node20 -->
<g id="edge19_Node000018_Node000020" class="edge">
<title>Node18&#45;&gt;Node20</title>
<g id="a_edge19_Node000018_Node000020"><a xlink:title=" ">
<path fill="none" stroke="#63b8ff" d="M471.83,-277.07C437.33,-265.31 392.42,-250.01 360.22,-239.04"/>
<polygon fill="#63b8ff" stroke="#63b8ff" points="471.12,-280.52 481.72,-280.44 473.38,-273.9 471.12,-280.52"/>
</a>
</g>
</g>
<!-- Node20&#45;&gt;Node13 -->
<g id="edge20_Node000020_Node000013" class="edge">
<title>Node20&#45;&gt;Node13</title>
<g id="a_edge20_Node000020_Node000013"><a xlink:title=" ">
<path fill="none" stroke="#63b8ff" d="M384.7,-206.45C421.85,-196.96 469.11,-184.64 511,-173 517.22,-171.27 523.75,-169.41 530.18,-167.54"/>
<polygon fill="#63b8ff" stroke="#63b8ff" points="383.82,-203.07 375,-208.93 385.55,-209.85 383.82,-203.07"/>
</a>
</g>
</g>
<!-- Node21 -->
<g id="Node000021" class="node">
<title>Node21</title>
<g id="a_Node000021"><a xlink:href="../../d4/d96/grpc_2include_2userver_2ugrpc_2client_2middlewares_2baggage_2component_8hpp_source.html" target="_top" xlink:title=" ">
<polygon fill="white" stroke="#666666" points="128,-173 0,-173 0,-132 128,-132 128,-173"/>
<text text-anchor="start" x="8" y="-161" font-family="Helvetica,sans-Serif" font-size="10.00">userver/ugrpc/client</text>
<text text-anchor="start" x="8" y="-150" font-family="Helvetica,sans-Serif" font-size="10.00">/middlewares/baggage</text>
<text text-anchor="middle" x="64" y="-139" font-family="Helvetica,sans-Serif" font-size="10.00">/component.hpp</text>
</a>
</g>
</g>
<!-- Node20&#45;&gt;Node21 -->
<g id="edge21_Node000020_Node000021" class="edge">
<title>Node20&#45;&gt;Node21</title>
<g id="a_edge21_Node000020_Node000021"><a xlink:title=" ">
<path fill="none" stroke="#63b8ff" d="M257.71,-206.29C218.56,-195.63 167.9,-181.82 128.2,-171"/>
<polygon fill="#63b8ff" stroke="#63b8ff" points="256.83,-209.68 267.4,-208.94 258.67,-202.93 256.83,-209.68"/>
</a>
</g>
</g>
<!-- Node22 -->
<g id="Node000022" class="node">
<title>Node22</title>
<g id="a_Node000022"><a xlink:href="../../d6/d04/grpc_2include_2userver_2ugrpc_2client_2middlewares_2deadline__propagation_2component_8hpp.html" target="_top" xlink:title="ugrpc::client::middlewares::deadline_propagation::Component">
<polygon fill="white" stroke="#666666" points="305.5,-173 146.5,-173 146.5,-132 305.5,-132 305.5,-173"/>
<text text-anchor="start" x="154.5" y="-161" font-family="Helvetica,sans-Serif" font-size="10.00">userver/ugrpc/client</text>
<text text-anchor="start" x="154.5" y="-150" font-family="Helvetica,sans-Serif" font-size="10.00">/middlewares/deadline</text>
<text text-anchor="middle" x="226" y="-139" font-family="Helvetica,sans-Serif" font-size="10.00">_propagation/component.hpp</text>
</a>
</g>
</g>
<!-- Node20&#45;&gt;Node22 -->
<g id="edge22_Node000020_Node000022" class="edge">
<title>Node20&#45;&gt;Node22</title>
<g id="a_edge22_Node000020_Node000022"><a xlink:title=" ">
<path fill="none" stroke="#63b8ff" d="M291.94,-202.77C279.42,-193.42 264.6,-182.35 252.19,-173.07"/>
<polygon fill="#63b8ff" stroke="#63b8ff" points="290.07,-205.75 300.18,-208.94 294.26,-200.15 290.07,-205.75"/>
</a>
</g>
</g>
<!-- Node23 -->
<g id="Node000023" class="node">
<title>Node23</title>
<g id="a_Node000023"><a xlink:href="../../d1/de5/grpc_2include_2userver_2ugrpc_2client_2middlewares_2log_2component_8hpp_source.html" target="_top" xlink:title=" ">
<polygon fill="white" stroke="#666666" points="502.5,-167.5 323.5,-167.5 323.5,-137.5 502.5,-137.5 502.5,-167.5"/>
<text text-anchor="start" x="331.5" y="-155.5" font-family="Helvetica,sans-Serif" font-size="10.00">userver/ugrpc/client</text>
<text text-anchor="middle" x="413" y="-144.5" font-family="Helvetica,sans-Serif" font-size="10.00">/middlewares/log/component.hpp</text>
</a>
</g>
</g>
<!-- Node20&#45;&gt;Node23 -->
<g id="edge23_Node000020_Node000023" class="edge">
<title>Node20&#45;&gt;Node23</title>
<g id="a_edge23_Node000020_Node000023"><a xlink:title=" ">
<path fill="none" stroke="#63b8ff" d="M346.13,-202.94C361.46,-191.6 380.25,-177.71 394.01,-167.54"/>
<polygon fill="#63b8ff" stroke="#63b8ff" points="343.98,-200.18 338.02,-208.94 348.14,-205.8 343.98,-200.18"/>
</a>
</g>
</g>
<!-- Node24&#45;&gt;Node11 -->
<g id="edge29_Node000024_Node000011" class="edge">
<title>Node24&#45;&gt;Node11</title>
<g id="a_edge29_Node000024_Node000011"><a xlink:title=" ">
<path fill="none" stroke="#63b8ff" d="M789.92,-546.99C755.97,-536.69 713.19,-523.72 681.2,-514.01"/>
<polygon fill="#63b8ff" stroke="#63b8ff" points="789.11,-550.4 799.7,-549.95 791.14,-543.7 789.11,-550.4"/>
</a>
</g>
</g>
<!-- Node24&#45;&gt;Node16 -->
<g id="edge28_Node000024_Node000016" class="edge">
<title>Node24&#45;&gt;Node16</title>
<g id="a_edge28_Node000024_Node000016"><a xlink:title=" ">
<path fill="none" stroke="#63b8ff" d="M781.78,-557.87C710.72,-550.16 601.52,-535.3 566,-514 539.47,-498.09 519.77,-466.55 509.96,-448.18"/>
<polygon fill="#63b8ff" stroke="#63b8ff" points="781.66,-561.37 791.98,-558.95 782.4,-554.41 781.66,-561.37"/>
</a>
</g>
</g>
<!-- Node24&#45;&gt;Node19 -->
<g id="edge30_Node000024_Node000019" class="edge">
<title>Node24&#45;&gt;Node19</title>
<g id="a_edge30_Node000024_Node000019"><a xlink:title=" ">
<path fill="none" stroke="#63b8ff" d="M833.05,-540.86C820.07,-515.46 802,-473.09 802,-434 802,-434 802,-434 802,-366 802,-324.17 804.25,-307.56 778,-275 764.69,-258.49 744.5,-246.9 725.9,-239.06"/>
<polygon fill="#63b8ff" stroke="#63b8ff" points="829.96,-542.51 837.72,-549.72 836.15,-539.24 829.96,-542.51"/>
</a>
</g>
</g>
<!-- Node25 -->
<g id="Node000025" class="node">
<title>Node25</title>
<g id="a_Node000025"><a xlink:href="../../d8/dc6/grpc_2include_2userver_2ugrpc_2impl_2statistics__storage_8hpp_source.html" target="_top" xlink:title=" ">
<polygon fill="white" stroke="#666666" points="1033.5,-514 906.5,-514 906.5,-484 1033.5,-484 1033.5,-514"/>
<text text-anchor="start" x="914.5" y="-502" font-family="Helvetica,sans-Serif" font-size="10.00">userver/ugrpc/impl</text>
<text text-anchor="middle" x="970" y="-491" font-family="Helvetica,sans-Serif" font-size="10.00">/statistics_storage.hpp</text>
</a>
</g>
</g>
<!-- Node24&#45;&gt;Node25 -->
<g id="edge31_Node000024_Node000025" class="edge">
<title>Node24&#45;&gt;Node25</title>
<g id="a_edge31_Node000024_Node000025"><a xlink:title=" ">
<path fill="none" stroke="#63b8ff" d="M882.34,-545.24C901.7,-535.25 925.1,-523.18 942.85,-514.01"/>
<polygon fill="#63b8ff" stroke="#63b8ff" points="880.49,-542.26 873.21,-549.95 883.7,-548.48 880.49,-542.26"/>
</a>
</g>
</g>
<!-- Node24&#45;&gt;Node28 -->
<g id="edge44_Node000024_Node000028" class="edge">
<title>Node24&#45;&gt;Node28</title>
<g id="a_edge44_Node000024_Node000028"><a xlink:title=" ">
<path fill="none" stroke="#63b8ff" d="M859.01,-540.89C868.68,-524.44 882.63,-502.13 897,-484 949.56,-417.71 1022.35,-348.77 1058.23,-316.02"/>
<polygon fill="#63b8ff" stroke="#63b8ff" points="855.82,-539.42 853.84,-549.83 861.88,-542.92 855.82,-539.42"/>
</a>
</g>
</g>
<!-- Node31 -->
<g id="Node000031" class="node">
<title>Node31</title>
<g id="a_Node000031"><a xlink:href="../../d4/d79/grpc_2include_2userver_2ugrpc_2server_2server_8hpp.html" target="_top" xlink:title="Manages the gRPC server.">
<polygon fill="white" stroke="#666666" points="947.5,-310.5 830.5,-310.5 830.5,-280.5 947.5,-280.5 947.5,-310.5"/>
<text text-anchor="start" x="838.5" y="-298.5" font-family="Helvetica,sans-Serif" font-size="10.00">userver/ugrpc/server</text>
<text text-anchor="middle" x="889" y="-287.5" font-family="Helvetica,sans-Serif" font-size="10.00">/server.hpp</text>
</a>
</g>
</g>
<!-- Node24&#45;&gt;Node31 -->
<g id="edge45_Node000024_Node000031" class="edge">
<title>Node24&#45;&gt;Node31</title>
<g id="a_edge45_Node000024_Node000031"><a xlink:title=" ">
<path fill="none" stroke="#63b8ff" d="M845.43,-539.75C845.07,-499.89 846.78,-418.34 864,-352 867.82,-337.27 875.26,-321.55 881.03,-310.62"/>
<polygon fill="#63b8ff" stroke="#63b8ff" points="841.93,-539.89 845.57,-549.83 848.93,-539.79 841.93,-539.89"/>
</a>
</g>
</g>
<!-- Node25&#45;&gt;Node13 -->
<g id="edge32_Node000025_Node000013" class="edge">
<title>Node25&#45;&gt;Node13</title>
<g id="a_edge32_Node000025_Node000013"><a xlink:title=" ">
<path fill="none" stroke="#63b8ff" d="M971.78,-473.88C973.55,-447.79 976,-404.97 976,-368 976,-368 976,-368 976,-294.5 976,-255.47 984.73,-235.41 956,-209 910.03,-166.76 727.64,-156.62 633.65,-154.22"/>
<polygon fill="#63b8ff" stroke="#63b8ff" points="968.28,-473.75 971.07,-483.97 975.26,-474.24 968.28,-473.75"/>
</a>
</g>
</g>
<!-- Node25&#45;&gt;Node26 -->
<g id="edge33_Node000025_Node000026" class="edge">
<title>Node25&#45;&gt;Node26</title>
<g id="a_edge33_Node000025_Node000026"><a xlink:title=" ">
<path fill="none" stroke="#63b8ff" d="M1021.02,-480.72C1051.3,-470.47 1089.21,-457.63 1117.62,-448.01"/>
<polygon fill="#63b8ff" stroke="#63b8ff" points="1019.83,-477.43 1011.48,-483.95 1022.07,-484.06 1019.83,-477.43"/>
</a>
</g>
</g>
<!-- Node27 -->
<g id="Node000027" class="node">
<title>Node27</title>
<g id="a_Node000027"><a xlink:href="../../df/d2b/server_2impl_2codegen__declarations_8hpp_source.html" target="_top" xlink:title=" ">
<polygon fill="white" stroke="#666666" points="1363,-239 1191,-239 1191,-209 1363,-209 1363,-239"/>
<text text-anchor="start" x="1199" y="-227" font-family="Helvetica,sans-Serif" font-size="10.00">userver/ugrpc/server</text>
<text text-anchor="middle" x="1277" y="-216" font-family="Helvetica,sans-Serif" font-size="10.00">/impl/codegen_declarations.hpp</text>
</a>
</g>
</g>
<!-- Node26&#45;&gt;Node27 -->
<g id="edge34_Node000026_Node000027" class="edge">
<title>Node26&#45;&gt;Node27</title>
<g id="a_edge34_Node000026_Node000027"><a xlink:title=" ">
<path fill="none" stroke="#63b8ff" d="M1226.01,-414.84C1275.02,-398.36 1337.98,-368.07 1368,-316 1377.1,-300.21 1377.28,-290.68 1368,-275 1358.09,-258.24 1340.34,-246.73 1323.14,-239.01"/>
<polygon fill="#63b8ff" stroke="#63b8ff" points="1224.84,-411.54 1216.41,-417.95 1227,-418.19 1224.84,-411.54"/>
</a>
</g>
</g>
<!-- Node26&#45;&gt;Node28 -->
<g id="edge35_Node000026_Node000028" class="edge">
<title>Node26&#45;&gt;Node28</title>
<g id="a_edge35_Node000026_Node000028"><a xlink:title=" ">
<path fill="none" stroke="#63b8ff" d="M1139.44,-409.97C1132.5,-401.56 1124.94,-391.66 1119,-382 1105.84,-360.6 1094.4,-334 1087.37,-316.21"/>
<polygon fill="#63b8ff" stroke="#63b8ff" points="1136.96,-412.46 1146.09,-417.83 1142.3,-407.94 1136.96,-412.46"/>
</a>
</g>
</g>
<!-- Node30 -->
<g id="Node000030" class="node">
<title>Node30</title>
<g id="a_Node000030"><a xlink:href="../../df/da9/service__base_8hpp.html" target="_top" xlink:title="The type&#45;erased base class for all gRPC service implementations.">
<polygon fill="white" stroke="#666666" points="1245.5,-382 1128.5,-382 1128.5,-352 1245.5,-352 1245.5,-382"/>
<text text-anchor="start" x="1136.5" y="-370" font-family="Helvetica,sans-Serif" font-size="10.00">userver/ugrpc/server</text>
<text text-anchor="middle" x="1187" y="-359" font-family="Helvetica,sans-Serif" font-size="10.00">/service_base.hpp</text>
</a>
</g>
</g>
<!-- Node26&#45;&gt;Node30 -->
<g id="edge37_Node000026_Node000030" class="edge">
<title>Node26&#45;&gt;Node30</title>
<g id="a_edge37_Node000026_Node000030"><a xlink:title=" ">
<path fill="none" stroke="#63b8ff" d="M1169.33,-408.39C1173.18,-399.59 1177.43,-389.86 1180.8,-382.16"/>
<polygon fill="#63b8ff" stroke="#63b8ff" points="1166.02,-407.23 1165.21,-417.8 1172.43,-410.04 1166.02,-407.23"/>
</a>
</g>
</g>
<!-- Node29 -->
<g id="Node000029" class="node">
<title>Node29</title>
<g id="a_Node000029"><a xlink:href="../../d1/dac/server_2impl_2codegen__definitions_8hpp_source.html" target="_top" xlink:title=" ">
<polygon fill="white" stroke="#666666" points="1167.5,-239 1004.5,-239 1004.5,-209 1167.5,-209 1167.5,-239"/>
<text text-anchor="start" x="1012.5" y="-227" font-family="Helvetica,sans-Serif" font-size="10.00">userver/ugrpc/server</text>
<text text-anchor="middle" x="1086" y="-216" font-family="Helvetica,sans-Serif" font-size="10.00">/impl/codegen_definitions.hpp</text>
</a>
</g>
</g>
<!-- Node28&#45;&gt;Node29 -->
<g id="edge36_Node000028_Node000029" class="edge">
<title>Node28&#45;&gt;Node29</title>
<g id="a_edge36_Node000028_Node000029"><a xlink:title=" ">
<path fill="none" stroke="#63b8ff" d="M1082.58,-264.66C1083.34,-255.76 1084.15,-246.42 1084.79,-239.04"/>
<polygon fill="#63b8ff" stroke="#63b8ff" points="1079.08,-264.51 1081.7,-274.77 1086.05,-265.11 1079.08,-264.51"/>
</a>
</g>
</g>
<!-- Node30&#45;&gt;Node27 -->
<g id="edge38_Node000030_Node000027" class="edge">
<title>Node30&#45;&gt;Node27</title>
<g id="a_edge38_Node000030_Node000027"><a xlink:title=" ">
<path fill="none" stroke="#63b8ff" d="M1180.3,-342.02C1176.3,-322.58 1174.05,-295.19 1186,-275 1195.91,-258.24 1213.66,-246.73 1230.86,-239.01"/>
<polygon fill="#63b8ff" stroke="#63b8ff" points="1176.93,-342.97 1182.62,-351.91 1183.74,-341.37 1176.93,-342.97"/>
</a>
</g>
</g>
<!-- Node30&#45;&gt;Node28 -->
<g id="edge39_Node000030_Node000028" class="edge">
<title>Node30&#45;&gt;Node28</title>
<g id="a_edge39_Node000030_Node000028"><a xlink:title=" ">
<path fill="none" stroke="#63b8ff" d="M1156.69,-346.31C1142.11,-336.84 1124.69,-325.53 1110.13,-316.07"/>
<polygon fill="#63b8ff" stroke="#63b8ff" points="1155.05,-349.42 1165.35,-351.94 1158.87,-343.55 1155.05,-349.42"/>
</a>
</g>
</g>
<!-- Node30&#45;&gt;Node31 -->
<g id="edge40_Node000030_Node000031" class="edge">
<title>Node30&#45;&gt;Node31</title>
<g id="a_edge40_Node000030_Node000031"><a xlink:title=" ">
<path fill="none" stroke="#63b8ff" d="M1118.73,-350.08C1067.05,-338.02 996.8,-321.64 947.64,-310.18"/>
<polygon fill="#63b8ff" stroke="#63b8ff" points="1117.95,-353.49 1128.48,-352.35 1119.54,-346.67 1117.95,-353.49"/>
</a>
</g>
</g>
<!-- Node33 -->
<g id="Node000033" class="node">
<title>Node33</title>
<g id="a_Node000033"><a xlink:href="../../d1/d68/service__component__base_8hpp.html" target="_top" xlink:title="Base class for all the gRPC service components.">
<polygon fill="white" stroke="#666666" points="1359,-310.5 1195,-310.5 1195,-280.5 1359,-280.5 1359,-310.5"/>
<text text-anchor="start" x="1203" y="-298.5" font-family="Helvetica,sans-Serif" font-size="10.00">userver/ugrpc/server</text>
<text text-anchor="middle" x="1277" y="-287.5" font-family="Helvetica,sans-Serif" font-size="10.00">/service_component_base.hpp</text>
</a>
</g>
</g>
<!-- Node30&#45;&gt;Node33 -->
<g id="edge42_Node000030_Node000033" class="edge">
<title>Node30&#45;&gt;Node33</title>
<g id="a_edge42_Node000030_Node000033"><a xlink:title=" ">
<path fill="none" stroke="#63b8ff" d="M1213.38,-345.63C1227.99,-334.35 1245.77,-320.62 1258.81,-310.54"/>
<polygon fill="#63b8ff" stroke="#63b8ff" points="1210.99,-343.05 1205.21,-351.94 1215.27,-348.59 1210.99,-343.05"/>
</a>
</g>
</g>
<!-- Node32 -->
<g id="Node000032" class="node">
<title>Node32</title>
<g id="a_Node000032"><a xlink:href="../../db/d7e/server__component_8hpp.html" target="_top" xlink:title="Component that configures and manages the gRPC server.">
<polygon fill="white" stroke="#666666" points="947.5,-239 816.5,-239 816.5,-209 947.5,-209 947.5,-239"/>
<text text-anchor="start" x="824.5" y="-227" font-family="Helvetica,sans-Serif" font-size="10.00">userver/ugrpc/server</text>
<text text-anchor="middle" x="882" y="-216" font-family="Helvetica,sans-Serif" font-size="10.00">/server_component.hpp</text>
</a>
</g>
</g>
<!-- Node31&#45;&gt;Node32 -->
<g id="edge41_Node000031_Node000032" class="edge">
<title>Node31&#45;&gt;Node32</title>
<g id="a_edge41_Node000031_Node000032"><a xlink:title=" ">
<path fill="none" stroke="#63b8ff" d="M886.56,-270.25C885.51,-259.81 884.32,-247.99 883.41,-239.04"/>
<polygon fill="#63b8ff" stroke="#63b8ff" points="883.1,-270.84 887.58,-280.44 890.06,-270.14 883.1,-270.84"/>
</a>
</g>
</g>
<!-- Node33&#45;&gt;Node27 -->
<g id="edge43_Node000033_Node000027" class="edge">
<title>Node33&#45;&gt;Node27</title>
<g id="a_edge43_Node000033_Node000027"><a xlink:title=" ">
<path fill="none" stroke="#63b8ff" d="M1277,-270.25C1277,-259.81 1277,-247.99 1277,-239.04"/>
<polygon fill="#63b8ff" stroke="#63b8ff" points="1273.5,-270.44 1277,-280.44 1280.5,-270.44 1273.5,-270.44"/>
</a>
</g>
</g>
</g>
</svg>
