<?xml version="1.0" encoding="UTF-8" standalone="no"?>
<!DOCTYPE svg PUBLIC "-//W3C//DTD SVG 1.1//EN"
 "http://www.w3.org/Graphics/SVG/1.1/DTD/svg11.dtd">
<!-- Generated by graphviz version 2.43.0 (0)
 -->
<!-- Title: userver/utils/span.hpp Pages: 1 -->
<svg width="1492pt" height="225pt"
 viewBox="0.00 0.00 1491.50 225.00" xmlns="http://www.w3.org/2000/svg" xmlns:xlink="http://www.w3.org/1999/xlink">
<g id="graph0" class="graph" transform="scale(1 1) rotate(0) translate(4 221)">
<title>userver/utils/span.hpp</title>
<!-- Node1 -->
<g id="Node000001" class="node">
<title>Node1</title>
<g id="a_Node000001"><a xlink:title="A polyfill for std::span from C++20.">
<polygon fill="#999999" stroke="#666666" points="788,-217 663,-217 663,-198 788,-198 788,-217"/>
<text text-anchor="middle" x="725.5" y="-205" font-family="Helvetica,sans-Serif" font-size="10.00">userver/utils/span.hpp</text>
</a>
</g>
</g>
<!-- Node2 -->
<g id="Node000002" class="node">
<title>Node2</title>
<g id="a_Node000002"><a xlink:href="../../d1/df2/random_8hpp.html" target="_top" xlink:title="Cryptographically&#45;secure randomness.">
<polygon fill="white" stroke="#666666" points="149,-156.5 0,-156.5 0,-137.5 149,-137.5 149,-156.5"/>
<text text-anchor="middle" x="74.5" y="-144.5" font-family="Helvetica,sans-Serif" font-size="10.00">userver/crypto/random.hpp</text>
</a>
</g>
</g>
<!-- Node1&#45;&gt;Node2 -->
<g id="edge1_Node000001_Node000002" class="edge">
<title>Node1&#45;&gt;Node2</title>
<g id="a_edge1_Node000001_Node000002"><a xlink:title=" ">
<path fill="none" stroke="#63b8ff" d="M652.54,-202.86C544.23,-197 334.63,-183.83 157.5,-162 145.46,-160.52 132.51,-158.52 120.49,-156.51"/>
<polygon fill="#63b8ff" stroke="#63b8ff" points="652.53,-206.37 662.7,-203.41 652.9,-199.38 652.53,-206.37"/>
</a>
</g>
</g>
<!-- Node3 -->
<g id="Node000003" class="node">
<title>Node3</title>
<g id="a_Node000003"><a xlink:href="../../db/d30/wait__all__checked_8hpp.html" target="_top" xlink:title="Provides engine::WaitAllChecked.">
<polygon fill="white" stroke="#666666" points="280,-162 167,-162 167,-132 280,-132 280,-162"/>
<text text-anchor="start" x="175" y="-150" font-family="Helvetica,sans-Serif" font-size="10.00">userver/engine/wait</text>
<text text-anchor="middle" x="223.5" y="-139" font-family="Helvetica,sans-Serif" font-size="10.00">_all_checked.hpp</text>
</a>
</g>
</g>
<!-- Node1&#45;&gt;Node3 -->
<g id="edge2_Node000001_Node000003" class="edge">
<title>Node1&#45;&gt;Node3</title>
<g id="a_edge2_Node000001_Node000003"><a xlink:title=" ">
<path fill="none" stroke="#63b8ff" d="M652.96,-201.58C566,-195.12 416.02,-182.16 288.5,-162 285.76,-161.57 282.97,-161.09 280.15,-160.59"/>
<polygon fill="#63b8ff" stroke="#63b8ff" points="652.75,-205.08 662.98,-202.32 653.27,-198.1 652.75,-205.08"/>
</a>
</g>
</g>
<!-- Node5 -->
<g id="Node000005" class="node">
<title>Node5</title>
<g id="a_Node000005"><a xlink:href="../../d2/d1c/wait__any_8hpp.html" target="_top" xlink:title="Provides engine::WaitAny, engine::WaitAnyFor and engine::WaitAnyUntil.">
<polygon fill="white" stroke="#666666" points="411,-162 298,-162 298,-132 411,-132 411,-162"/>
<text text-anchor="start" x="306" y="-150" font-family="Helvetica,sans-Serif" font-size="10.00">userver/engine/wait</text>
<text text-anchor="middle" x="354.5" y="-139" font-family="Helvetica,sans-Serif" font-size="10.00">_any.hpp</text>
</a>
</g>
</g>
<!-- Node1&#45;&gt;Node5 -->
<g id="edge4_Node000001_Node000005" class="edge">
<title>Node1&#45;&gt;Node5</title>
<g id="a_edge4_Node000001_Node000005"><a xlink:title=" ">
<path fill="none" stroke="#63b8ff" d="M652.79,-197.34C590.65,-189.17 498.95,-176.32 419.5,-162 416.77,-161.51 413.99,-160.99 411.18,-160.44"/>
<polygon fill="#63b8ff" stroke="#63b8ff" points="652.51,-200.83 662.88,-198.66 653.42,-193.89 652.51,-200.83"/>
</a>
</g>
</g>
<!-- Node8 -->
<g id="Node000008" class="node">
<title>Node8</title>
<g id="a_Node000008"><a xlink:href="../../db/d4a/kafka_2include_2userver_2kafka_2message_8hpp_source.html" target="_top" xlink:title=" ">
<polygon fill="white" stroke="#666666" points="580,-156.5 429,-156.5 429,-137.5 580,-137.5 580,-156.5"/>
<text text-anchor="middle" x="504.5" y="-144.5" font-family="Helvetica,sans-Serif" font-size="10.00">userver/kafka/message.hpp</text>
</a>
</g>
</g>
<!-- Node1&#45;&gt;Node8 -->
<g id="edge7_Node000001_Node000008" class="edge">
<title>Node1&#45;&gt;Node8</title>
<g id="a_edge7_Node000001_Node000008"><a xlink:title=" ">
<path fill="none" stroke="#63b8ff" d="M683.55,-195.4C640.82,-184.08 575.48,-166.79 536.67,-156.52"/>
<polygon fill="#63b8ff" stroke="#63b8ff" points="682.8,-198.82 693.36,-197.99 684.59,-192.05 682.8,-198.82"/>
</a>
</g>
</g>
<!-- Node11 -->
<g id="Node000011" class="node">
<title>Node11</title>
<g id="a_Node000011"><a xlink:href="../../dc/d7e/kafka__fixture_8hpp_source.html" target="_top" xlink:title=" ">
<polygon fill="white" stroke="#666666" points="708.5,-162 598.5,-162 598.5,-132 708.5,-132 708.5,-162"/>
<text text-anchor="start" x="606.5" y="-150" font-family="Helvetica,sans-Serif" font-size="10.00">userver/kafka/utest</text>
<text text-anchor="middle" x="653.5" y="-139" font-family="Helvetica,sans-Serif" font-size="10.00">/kafka_fixture.hpp</text>
</a>
</g>
</g>
<!-- Node1&#45;&gt;Node11 -->
<g id="edge10_Node000001_Node000011" class="edge">
<title>Node1&#45;&gt;Node11</title>
<g id="a_edge10_Node000001_Node000011"><a xlink:title=" ">
<path fill="none" stroke="#63b8ff" d="M707.04,-191.5C695.9,-182.45 681.81,-171 670.87,-162.11"/>
<polygon fill="#63b8ff" stroke="#63b8ff" points="704.91,-194.28 714.88,-197.87 709.32,-188.85 704.91,-194.28"/>
</a>
</g>
</g>
<!-- Node12 -->
<g id="Node000012" class="node">
<title>Node12</title>
<g id="a_Node000012"><a xlink:href="../../de/d4e/core_2include_2userver_2server_2websocket_2server_8hpp.html" target="_top" xlink:title=" ">
<polygon fill="white" stroke="#666666" points="868.5,-162 726.5,-162 726.5,-132 868.5,-132 868.5,-162"/>
<text text-anchor="start" x="734.5" y="-150" font-family="Helvetica,sans-Serif" font-size="10.00">userver/server/websocket</text>
<text text-anchor="middle" x="797.5" y="-139" font-family="Helvetica,sans-Serif" font-size="10.00">/server.hpp</text>
</a>
</g>
</g>
<!-- Node1&#45;&gt;Node12 -->
<g id="edge11_Node000001_Node000012" class="edge">
<title>Node1&#45;&gt;Node12</title>
<g id="a_edge11_Node000001_Node000012"><a xlink:title=" ">
<path fill="none" stroke="#63b8ff" d="M743.96,-191.5C755.1,-182.45 769.19,-171 780.13,-162.11"/>
<polygon fill="#63b8ff" stroke="#63b8ff" points="741.68,-188.85 736.12,-197.87 746.09,-194.28 741.68,-188.85"/>
</a>
</g>
</g>
<!-- Node14 -->
<g id="Node000014" class="node">
<title>Node14</title>
<g id="a_Node000014"><a xlink:href="../../d5/d78/protobuf__visit_8hpp.html" target="_top" xlink:title="Utilities for visiting the fields of protobufs.">
<polygon fill="white" stroke="#666666" points="1014.5,-162 886.5,-162 886.5,-132 1014.5,-132 1014.5,-162"/>
<text text-anchor="start" x="894.5" y="-150" font-family="Helvetica,sans-Serif" font-size="10.00">userver/ugrpc/protobuf</text>
<text text-anchor="middle" x="950.5" y="-139" font-family="Helvetica,sans-Serif" font-size="10.00">_visit.hpp</text>
</a>
</g>
</g>
<!-- Node1&#45;&gt;Node14 -->
<g id="edge13_Node000001_Node000014" class="edge">
<title>Node1&#45;&gt;Node14</title>
<g id="a_edge13_Node000001_Node000014"><a xlink:title=" ">
<path fill="none" stroke="#63b8ff" d="M768.03,-195.44C804.42,-185.98 857.02,-172.3 896.41,-162.06"/>
<polygon fill="#63b8ff" stroke="#63b8ff" points="767.01,-192.09 758.22,-197.99 768.78,-198.86 767.01,-192.09"/>
</a>
</g>
</g>
<!-- Node15 -->
<g id="Node000015" class="node">
<title>Node15</title>
<g id="a_Node000015"><a xlink:href="../../dd/d0e/log__capture__fixture_8hpp.html" target="_top" xlink:title="Fixture that allows to capture and extract log written into the default logger.">
<polygon fill="white" stroke="#666666" points="1174,-162 1033,-162 1033,-132 1174,-132 1174,-162"/>
<text text-anchor="start" x="1041" y="-150" font-family="Helvetica,sans-Serif" font-size="10.00">userver/utest/log_capture</text>
<text text-anchor="middle" x="1103.5" y="-139" font-family="Helvetica,sans-Serif" font-size="10.00">_fixture.hpp</text>
</a>
</g>
</g>
<!-- Node1&#45;&gt;Node15 -->
<g id="edge14_Node000001_Node000015" class="edge">
<title>Node1&#45;&gt;Node15</title>
<g id="a_edge14_Node000001_Node000015"><a xlink:title=" ">
<path fill="none" stroke="#63b8ff" d="M795.69,-196.52C856.13,-187.81 945.65,-174.62 1023.5,-162 1026.56,-161.5 1029.69,-160.99 1032.85,-160.46"/>
<polygon fill="#63b8ff" stroke="#63b8ff" points="794.9,-193.1 785.5,-197.99 795.9,-200.03 794.9,-193.1"/>
</a>
</g>
</g>
<!-- Node16 -->
<g id="Node000016" class="node">
<title>Node16</title>
<g id="a_Node000016"><a xlink:href="../../d5/d6e/histogram_8hpp.html" target="_top" xlink:title="A histogram with a dynamically&#45;allocated array of buckets.">
<polygon fill="white" stroke="#666666" points="1317,-162 1192,-162 1192,-132 1317,-132 1317,-162"/>
<text text-anchor="start" x="1200" y="-150" font-family="Helvetica,sans-Serif" font-size="10.00">userver/utils/statistics</text>
<text text-anchor="middle" x="1254.5" y="-139" font-family="Helvetica,sans-Serif" font-size="10.00">/histogram.hpp</text>
</a>
</g>
</g>
<!-- Node1&#45;&gt;Node16 -->
<g id="edge15_Node000001_Node000016" class="edge">
<title>Node1&#45;&gt;Node16</title>
<g id="a_edge15_Node000001_Node000016"><a xlink:title=" ">
<path fill="none" stroke="#63b8ff" d="M798.5,-201.62C889.11,-195.06 1048.22,-181.86 1183.5,-162 1186.23,-161.6 1189.02,-161.16 1191.84,-160.7"/>
<polygon fill="#63b8ff" stroke="#63b8ff" points="798.06,-198.14 788.33,-202.35 798.56,-205.13 798.06,-198.14"/>
</a>
</g>
</g>
<!-- Node17 -->
<g id="Node000017" class="node">
<title>Node17</title>
<g id="a_Node000017"><a xlink:href="../../d4/d6f/histogram__aggregator_8hpp.html" target="_top" xlink:title="Used to aggregate multiple utils::statistics::Histogram metrics.">
<polygon fill="white" stroke="#666666" points="1483.5,-162 1335.5,-162 1335.5,-132 1483.5,-132 1483.5,-162"/>
<text text-anchor="start" x="1343.5" y="-150" font-family="Helvetica,sans-Serif" font-size="10.00">userver/utils/statistics</text>
<text text-anchor="middle" x="1409.5" y="-139" font-family="Helvetica,sans-Serif" font-size="10.00">/histogram_aggregator.hpp</text>
</a>
</g>
</g>
<!-- Node1&#45;&gt;Node17 -->
<g id="edge16_Node000001_Node000017" class="edge">
<title>Node1&#45;&gt;Node17</title>
<g id="a_edge16_Node000001_Node000017"><a xlink:title=" ">
<path fill="none" stroke="#63b8ff" d="M798.71,-203.28C912.09,-197.8 1136.89,-184.96 1326.5,-162 1329.4,-161.65 1332.36,-161.27 1335.34,-160.86"/>
<polygon fill="#63b8ff" stroke="#63b8ff" points="798.24,-199.8 788.42,-203.77 798.57,-206.79 798.24,-199.8"/>
</a>
</g>
</g>
<!-- Node4 -->
<g id="Node000004" class="node">
<title>Node4</title>
<g id="a_Node000004"><a xlink:href="../../db/d71/get__all_8hpp.html" target="_top" xlink:title="Provides engine::GetAll.">
<polygon fill="white" stroke="#666666" points="277.5,-96 169.5,-96 169.5,-66 277.5,-66 277.5,-96"/>
<text text-anchor="start" x="177.5" y="-84" font-family="Helvetica,sans-Serif" font-size="10.00">userver/engine/get</text>
<text text-anchor="middle" x="223.5" y="-73" font-family="Helvetica,sans-Serif" font-size="10.00">_all.hpp</text>
</a>
</g>
</g>
<!-- Node3&#45;&gt;Node4 -->
<g id="edge3_Node000003_Node000004" class="edge">
<title>Node3&#45;&gt;Node4</title>
<g id="a_edge3_Node000003_Node000004"><a xlink:title=" ">
<path fill="none" stroke="#63b8ff" d="M223.5,-121.54C223.5,-112.96 223.5,-103.61 223.5,-96.16"/>
<polygon fill="#63b8ff" stroke="#63b8ff" points="220,-121.8 223.5,-131.8 227,-121.8 220,-121.8"/>
</a>
</g>
</g>
<!-- Node6 -->
<g id="Node000006" class="node">
<title>Node6</title>
<g id="a_Node000006"><a xlink:href="../../d7/daa/core_2include_2userver_2utils_2hedged__request_8hpp.html" target="_top" xlink:title="Classes and functions for performing hedged requests.">
<polygon fill="white" stroke="#666666" points="412.5,-96 296.5,-96 296.5,-66 412.5,-66 412.5,-96"/>
<text text-anchor="start" x="304.5" y="-84" font-family="Helvetica,sans-Serif" font-size="10.00">userver/utils/hedged</text>
<text text-anchor="middle" x="354.5" y="-73" font-family="Helvetica,sans-Serif" font-size="10.00">_request.hpp</text>
</a>
</g>
</g>
<!-- Node5&#45;&gt;Node6 -->
<g id="edge5_Node000005_Node000006" class="edge">
<title>Node5&#45;&gt;Node6</title>
<g id="a_edge5_Node000005_Node000006"><a xlink:title=" ">
<path fill="none" stroke="#63b8ff" d="M354.5,-121.54C354.5,-112.96 354.5,-103.61 354.5,-96.16"/>
<polygon fill="#63b8ff" stroke="#63b8ff" points="351,-121.8 354.5,-131.8 358,-121.8 351,-121.8"/>
</a>
</g>
</g>
<!-- Node7 -->
<g id="Node000007" class="node">
<title>Node7</title>
<g id="a_Node000007"><a xlink:href="../../df/d70/redis_2include_2userver_2storages_2redis_2hedged__request_8hpp.html" target="_top" xlink:title="Classes and functions for performing hedged requests.">
<polygon fill="white" stroke="#666666" points="417,-30 292,-30 292,0 417,0 417,-30"/>
<text text-anchor="start" x="300" y="-18" font-family="Helvetica,sans-Serif" font-size="10.00">userver/storages/redis</text>
<text text-anchor="middle" x="354.5" y="-7" font-family="Helvetica,sans-Serif" font-size="10.00">/hedged_request.hpp</text>
</a>
</g>
</g>
<!-- Node6&#45;&gt;Node7 -->
<g id="edge6_Node000006_Node000007" class="edge">
<title>Node6&#45;&gt;Node7</title>
<g id="a_edge6_Node000006_Node000007"><a xlink:title=" ">
<path fill="none" stroke="#63b8ff" d="M354.5,-55.54C354.5,-46.96 354.5,-37.61 354.5,-30.16"/>
<polygon fill="#63b8ff" stroke="#63b8ff" points="351,-55.8 354.5,-65.8 358,-55.8 351,-55.8"/>
</a>
</g>
</g>
<!-- Node9 -->
<g id="Node000009" class="node">
<title>Node9</title>
<g id="a_Node000009"><a xlink:href="../../de/d7b/consumer__scope_8hpp_source.html" target="_top" xlink:title=" ">
<polygon fill="white" stroke="#666666" points="571.5,-96 437.5,-96 437.5,-66 571.5,-66 571.5,-96"/>
<text text-anchor="start" x="445.5" y="-84" font-family="Helvetica,sans-Serif" font-size="10.00">userver/kafka/consumer</text>
<text text-anchor="middle" x="504.5" y="-73" font-family="Helvetica,sans-Serif" font-size="10.00">_scope.hpp</text>
</a>
</g>
</g>
<!-- Node8&#45;&gt;Node9 -->
<g id="edge8_Node000008_Node000009" class="edge">
<title>Node8&#45;&gt;Node9</title>
<g id="a_edge8_Node000008_Node000009"><a xlink:title=" ">
<path fill="none" stroke="#63b8ff" d="M504.5,-127.35C504.5,-117.47 504.5,-105.51 504.5,-96.36"/>
<polygon fill="#63b8ff" stroke="#63b8ff" points="501,-127.37 504.5,-137.37 508,-127.37 501,-127.37"/>
</a>
</g>
</g>
<!-- Node10 -->
<g id="Node000010" class="node">
<title>Node10</title>
<g id="a_Node000010"><a xlink:href="../../d6/d08/consumer__component_8hpp_source.html" target="_top" xlink:title=" ">
<polygon fill="white" stroke="#666666" points="571.5,-30 437.5,-30 437.5,0 571.5,0 571.5,-30"/>
<text text-anchor="start" x="445.5" y="-18" font-family="Helvetica,sans-Serif" font-size="10.00">userver/kafka/consumer</text>
<text text-anchor="middle" x="504.5" y="-7" font-family="Helvetica,sans-Serif" font-size="10.00">_component.hpp</text>
</a>
</g>
</g>
<!-- Node9&#45;&gt;Node10 -->
<g id="edge9_Node000009_Node000010" class="edge">
<title>Node9&#45;&gt;Node10</title>
<g id="a_edge9_Node000009_Node000010"><a xlink:title=" ">
<path fill="none" stroke="#63b8ff" d="M504.5,-55.54C504.5,-46.96 504.5,-37.61 504.5,-30.16"/>
<polygon fill="#63b8ff" stroke="#63b8ff" points="501,-55.8 504.5,-65.8 508,-55.8 501,-55.8"/>
</a>
</g>
</g>
<!-- Node13 -->
<g id="Node000013" class="node">
<title>Node13</title>
<g id="a_Node000013"><a xlink:href="../../d4/d64/websocket__handler_8hpp.html" target="_top" xlink:title=" ">
<polygon fill="white" stroke="#666666" points="868.5,-96 726.5,-96 726.5,-66 868.5,-66 868.5,-96"/>
<text text-anchor="start" x="734.5" y="-84" font-family="Helvetica,sans-Serif" font-size="10.00">userver/server/websocket</text>
<text text-anchor="middle" x="797.5" y="-73" font-family="Helvetica,sans-Serif" font-size="10.00">/websocket_handler.hpp</text>
</a>
</g>
</g>
<!-- Node12&#45;&gt;Node13 -->
<g id="edge12_Node000012_Node000013" class="edge">
<title>Node12&#45;&gt;Node13</title>
<g id="a_edge12_Node000012_Node000013"><a xlink:title=" ">
<path fill="none" stroke="#63b8ff" d="M797.5,-121.54C797.5,-112.96 797.5,-103.61 797.5,-96.16"/>
<polygon fill="#63b8ff" stroke="#63b8ff" points="794,-121.8 797.5,-131.8 801,-121.8 794,-121.8"/>
</a>
</g>
</g>
</g>
</svg>
