<?xml version="1.0" encoding="UTF-8" standalone="no"?>
<!DOCTYPE svg PUBLIC "-//W3C//DTD SVG 1.1//EN"
 "http://www.w3.org/Graphics/SVG/1.1/DTD/svg11.dtd">
<!-- Generated by graphviz version 2.43.0 (0)
 -->
<!-- Title: userver/formats/bson/iterator.hpp Pages: 1 -->
<svg width="1217pt" height="632pt"
 viewBox="0.00 0.00 1217.00 632.00" xmlns="http://www.w3.org/2000/svg" xmlns:xlink="http://www.w3.org/1999/xlink">
<g id="graph0" class="graph" transform="scale(1 1) rotate(0) translate(4 628)">
<title>userver/formats/bson/iterator.hpp</title>
<!-- Node1 -->
<g id="Node000001" class="node">
<title>Node1</title>
<g id="a_Node000001"><a xlink:title="Iterator for BSON values.">
<polygon fill="#999999" stroke="#666666" points="191,-624 70,-624 70,-594 191,-594 191,-624"/>
<text text-anchor="start" x="78" y="-612" font-family="Helvetica,sans-Serif" font-size="10.00">userver/formats/bson</text>
<text text-anchor="middle" x="130.5" y="-601" font-family="Helvetica,sans-Serif" font-size="10.00">/iterator.hpp</text>
</a>
</g>
</g>
<!-- Node2 -->
<g id="Node000002" class="node">
<title>Node2</title>
<g id="a_Node000002"><a xlink:href="../../d3/d9f/bson_8hpp.html" target="_top" xlink:title="Include&#45;all header for BSON support.">
<polygon fill="white" stroke="#666666" points="347.5,-354.5 205.5,-354.5 205.5,-335.5 347.5,-335.5 347.5,-354.5"/>
<text text-anchor="middle" x="276.5" y="-342.5" font-family="Helvetica,sans-Serif" font-size="10.00">userver/formats/bson.hpp</text>
</a>
</g>
</g>
<!-- Node1&#45;&gt;Node2 -->
<g id="edge1_Node000001_Node000002" class="edge">
<title>Node1&#45;&gt;Node2</title>
<g id="a_edge1_Node000001_Node000002"><a xlink:title=" ">
<path fill="none" stroke="#63b8ff" d="M132.41,-583.63C136.85,-541.36 151.11,-453.48 195.5,-396 210.65,-376.38 235.86,-362.59 254.13,-354.53"/>
<polygon fill="#63b8ff" stroke="#63b8ff" points="128.91,-583.53 131.45,-593.81 135.88,-584.19 128.91,-583.53"/>
</a>
</g>
</g>
<!-- Node3 -->
<g id="Node000003" class="node">
<title>Node3</title>
<g id="a_Node000003"><a xlink:href="../../d5/d70/mongo_2include_2userver_2formats_2bson_2value_8hpp.html" target="_top" xlink:title="Non&#45;mutable BSON value representation.">
<polygon fill="white" stroke="#666666" points="483,-558 362,-558 362,-528 483,-528 483,-558"/>
<text text-anchor="start" x="370" y="-546" font-family="Helvetica,sans-Serif" font-size="10.00">userver/formats/bson</text>
<text text-anchor="middle" x="422.5" y="-535" font-family="Helvetica,sans-Serif" font-size="10.00">/value.hpp</text>
</a>
</g>
</g>
<!-- Node1&#45;&gt;Node3 -->
<g id="edge2_Node000001_Node000003" class="edge">
<title>Node1&#45;&gt;Node3</title>
<g id="a_edge2_Node000001_Node000003"><a xlink:title=" ">
<path fill="none" stroke="#63b8ff" d="M200.92,-592.56C250.06,-581.79 314.97,-567.57 361.82,-557.3"/>
<polygon fill="#63b8ff" stroke="#63b8ff" points="200.02,-589.18 191,-594.74 201.52,-596.02 200.02,-589.18"/>
</a>
</g>
</g>
<!-- Node23 -->
<g id="Node000023" class="node">
<title>Node23</title>
<g id="a_Node000023"><a xlink:href="../../dc/d8c/mongo_2include_2userver_2formats_2bson_2value__builder_8hpp.html" target="_top" xlink:title="Builder for BSON.">
<polygon fill="white" stroke="#666666" points="121,-426 0,-426 0,-396 121,-396 121,-426"/>
<text text-anchor="start" x="8" y="-414" font-family="Helvetica,sans-Serif" font-size="10.00">userver/formats/bson</text>
<text text-anchor="middle" x="60.5" y="-403" font-family="Helvetica,sans-Serif" font-size="10.00">/value_builder.hpp</text>
</a>
</g>
</g>
<!-- Node1&#45;&gt;Node23 -->
<g id="edge59_Node000001_Node000023" class="edge">
<title>Node1&#45;&gt;Node23</title>
<g id="a_edge59_Node000001_Node000023"><a xlink:title=" ">
<path fill="none" stroke="#63b8ff" d="M122.08,-584.42C107.39,-543.29 77.51,-459.63 65.58,-426.23"/>
<polygon fill="#63b8ff" stroke="#63b8ff" points="118.81,-585.66 125.47,-593.9 125.4,-583.31 118.81,-585.66"/>
</a>
</g>
</g>
<!-- Node3&#45;&gt;Node2 -->
<g id="edge3_Node000003_Node000002" class="edge">
<title>Node3&#45;&gt;Node2</title>
<g id="a_edge3_Node000003_Node000002"><a xlink:title=" ">
<path fill="none" stroke="#63b8ff" d="M352.07,-531.99C319.8,-524.82 282.39,-512.62 253.5,-492 214.83,-464.4 184.76,-438.24 206.5,-396 216.68,-376.21 238.73,-362.52 255.37,-354.53"/>
<polygon fill="#63b8ff" stroke="#63b8ff" points="351.4,-535.43 361.91,-534.06 352.84,-528.58 351.4,-535.43"/>
</a>
</g>
</g>
<!-- Node4 -->
<g id="Node000004" class="node">
<title>Node4</title>
<g id="a_Node000004"><a xlink:href="../../d9/d03/bson__builder_8hpp.html" target="_top" xlink:title="Internal helpers for inline document build.">
<polygon fill="white" stroke="#666666" points="394,-492 273,-492 273,-462 394,-462 394,-492"/>
<text text-anchor="start" x="281" y="-480" font-family="Helvetica,sans-Serif" font-size="10.00">userver/formats/bson</text>
<text text-anchor="middle" x="333.5" y="-469" font-family="Helvetica,sans-Serif" font-size="10.00">/bson_builder.hpp</text>
</a>
</g>
</g>
<!-- Node3&#45;&gt;Node4 -->
<g id="edge4_Node000003_Node000004" class="edge">
<title>Node3&#45;&gt;Node4</title>
<g id="a_edge4_Node000003_Node000004"><a xlink:title=" ">
<path fill="none" stroke="#63b8ff" d="M394.34,-521.75C380.96,-512.13 365.28,-500.86 353.2,-492.16"/>
<polygon fill="#63b8ff" stroke="#63b8ff" points="392.59,-524.8 402.75,-527.8 396.67,-519.12 392.59,-524.8"/>
</a>
</g>
</g>
<!-- Node5 -->
<g id="Node000005" class="node">
<title>Node5</title>
<g id="a_Node000005"><a xlink:href="../../d1/d71/mongo_2include_2userver_2formats_2bson_2inline_8hpp.html" target="_top" xlink:title="Inline value builders.">
<polygon fill="white" stroke="#666666" points="337,-426 216,-426 216,-396 337,-396 337,-426"/>
<text text-anchor="start" x="224" y="-414" font-family="Helvetica,sans-Serif" font-size="10.00">userver/formats/bson</text>
<text text-anchor="middle" x="276.5" y="-403" font-family="Helvetica,sans-Serif" font-size="10.00">/inline.hpp</text>
</a>
</g>
</g>
<!-- Node3&#45;&gt;Node5 -->
<g id="edge52_Node000003_Node000005" class="edge">
<title>Node3&#45;&gt;Node5</title>
<g id="a_edge52_Node000003_Node000005"><a xlink:title=" ">
<path fill="none" stroke="#63b8ff" d="M351.9,-538.18C319.49,-532.46 283.82,-519.7 263.5,-492 249.26,-472.6 259.85,-443.42 268.44,-426.19"/>
<polygon fill="#63b8ff" stroke="#63b8ff" points="351.41,-541.65 361.84,-539.74 352.5,-534.73 351.41,-541.65"/>
</a>
</g>
</g>
<!-- Node7 -->
<g id="Node000007" class="node">
<title>Node7</title>
<g id="a_Node000007"><a xlink:href="../../d2/d54/mongo_2include_2userver_2storages_2mongo_2options_8hpp.html" target="_top" xlink:title="Query options.">
<polygon fill="white" stroke="#666666" points="859,-426 724,-426 724,-396 859,-396 859,-426"/>
<text text-anchor="start" x="732" y="-414" font-family="Helvetica,sans-Serif" font-size="10.00">userver/storages/mongo</text>
<text text-anchor="middle" x="791.5" y="-403" font-family="Helvetica,sans-Serif" font-size="10.00">/options.hpp</text>
</a>
</g>
</g>
<!-- Node3&#45;&gt;Node7 -->
<g id="edge57_Node000003_Node000007" class="edge">
<title>Node3&#45;&gt;Node7</title>
<g id="a_edge57_Node000003_Node000007"><a xlink:title=" ">
<path fill="none" stroke="#63b8ff" d="M493.11,-537.98C548.59,-532.69 626.71,-520.43 689.5,-492 725.38,-475.76 759.87,-444.34 778.1,-426.08"/>
<polygon fill="#63b8ff" stroke="#63b8ff" points="492.67,-534.51 483.02,-538.89 493.29,-541.48 492.67,-534.51"/>
</a>
</g>
</g>
<!-- Node10 -->
<g id="Node000010" class="node">
<title>Node10</title>
<g id="a_Node000010"><a xlink:href="../../d4/db6/collection_8hpp.html" target="_top" xlink:title="MongoDB collection handle, the main way to operate with MongoDB.">
<polygon fill="white" stroke="#666666" points="822,-228 687,-228 687,-198 822,-198 822,-228"/>
<text text-anchor="start" x="695" y="-216" font-family="Helvetica,sans-Serif" font-size="10.00">userver/storages/mongo</text>
<text text-anchor="middle" x="754.5" y="-205" font-family="Helvetica,sans-Serif" font-size="10.00">/collection.hpp</text>
</a>
</g>
</g>
<!-- Node3&#45;&gt;Node10 -->
<g id="edge55_Node000003_Node000010" class="edge">
<title>Node3&#45;&gt;Node10</title>
<g id="a_edge55_Node000003_Node000010"><a xlink:title=" ">
<path fill="none" stroke="#63b8ff" d="M493.47,-540.88C649.02,-536.74 1011.93,-517.3 1084.5,-426 1135.49,-361.85 1123.25,-352.85 983.5,-264 934.99,-233.16 870.3,-221.13 822.05,-216.54"/>
<polygon fill="#63b8ff" stroke="#63b8ff" points="492.99,-537.39 483.08,-541.14 493.17,-544.39 492.99,-537.39"/>
</a>
</g>
</g>
<!-- Node19 -->
<g id="Node000019" class="node">
<title>Node19</title>
<g id="a_Node000019"><a xlink:href="../../de/d6b/mongo_2include_2userver_2storages_2mongo_2operations_8hpp.html" target="_top" xlink:title="Collection operation models.">
<polygon fill="white" stroke="#666666" points="629,-360 494,-360 494,-330 629,-330 629,-360"/>
<text text-anchor="start" x="502" y="-348" font-family="Helvetica,sans-Serif" font-size="10.00">userver/storages/mongo</text>
<text text-anchor="middle" x="561.5" y="-337" font-family="Helvetica,sans-Serif" font-size="10.00">/operations.hpp</text>
</a>
</g>
</g>
<!-- Node3&#45;&gt;Node19 -->
<g id="edge56_Node000003_Node000019" class="edge">
<title>Node3&#45;&gt;Node19</title>
<g id="a_edge56_Node000003_Node000019"><a xlink:title=" ">
<path fill="none" stroke="#63b8ff" d="M414.76,-518C406.3,-486.83 397.07,-432.17 422.5,-396 438.87,-372.71 467.18,-360.22 493.99,-353.54"/>
<polygon fill="#63b8ff" stroke="#63b8ff" points="411.5,-519.35 417.66,-527.97 418.22,-517.39 411.5,-519.35"/>
</a>
</g>
</g>
<!-- Node20 -->
<g id="Node000020" class="node">
<title>Node20</title>
<g id="a_Node000020"><a xlink:href="../../dd/d39/document_8hpp.html" target="_top" xlink:title="BSON document.">
<polygon fill="white" stroke="#666666" points="680,-492 559,-492 559,-462 680,-462 680,-492"/>
<text text-anchor="start" x="567" y="-480" font-family="Helvetica,sans-Serif" font-size="10.00">userver/formats/bson</text>
<text text-anchor="middle" x="619.5" y="-469" font-family="Helvetica,sans-Serif" font-size="10.00">/document.hpp</text>
</a>
</g>
</g>
<!-- Node3&#45;&gt;Node20 -->
<g id="edge31_Node000003_Node000020" class="edge">
<title>Node3&#45;&gt;Node20</title>
<g id="a_edge31_Node000003_Node000020"><a xlink:title=" ">
<path fill="none" stroke="#63b8ff" d="M475.27,-524.86C506.9,-514.58 546.62,-501.68 576.37,-492.01"/>
<polygon fill="#63b8ff" stroke="#63b8ff" points="474.16,-521.54 465.73,-527.95 476.32,-528.19 474.16,-521.54"/>
</a>
</g>
</g>
<!-- Node22 -->
<g id="Node000022" class="node">
<title>Node22</title>
<g id="a_Node000022"><a xlink:href="../../d6/de5/mongo_2include_2userver_2formats_2bson_2serialize_8hpp.html" target="_top" xlink:title="Textual serialization helpers.">
<polygon fill="white" stroke="#666666" points="1075,-426 954,-426 954,-396 1075,-396 1075,-426"/>
<text text-anchor="start" x="962" y="-414" font-family="Helvetica,sans-Serif" font-size="10.00">userver/formats/bson</text>
<text text-anchor="middle" x="1014.5" y="-403" font-family="Helvetica,sans-Serif" font-size="10.00">/serialize.hpp</text>
</a>
</g>
</g>
<!-- Node3&#45;&gt;Node22 -->
<g id="edge53_Node000003_Node000022" class="edge">
<title>Node3&#45;&gt;Node22</title>
<g id="a_edge53_Node000003_Node000022"><a xlink:title=" ">
<path fill="none" stroke="#63b8ff" d="M493.19,-532.58C555.06,-523.81 647.21,-509.48 726.5,-492 813.41,-472.84 913.13,-443.45 969.49,-426.13"/>
<polygon fill="#63b8ff" stroke="#63b8ff" points="492.56,-529.13 483.14,-533.99 493.53,-536.07 492.56,-529.13"/>
</a>
</g>
</g>
<!-- Node3&#45;&gt;Node23 -->
<g id="edge54_Node000003_Node000023" class="edge">
<title>Node3&#45;&gt;Node23</title>
<g id="a_edge54_Node000003_Node000023"><a xlink:title=" ">
<path fill="none" stroke="#63b8ff" d="M351.84,-532.84C305.4,-525.33 243.95,-512.52 192.5,-492 149.19,-474.73 103.77,-443.98 79.12,-426.05"/>
<polygon fill="#63b8ff" stroke="#63b8ff" points="351.38,-536.31 361.81,-534.4 352.47,-529.39 351.38,-536.31"/>
</a>
</g>
</g>
<!-- Node26 -->
<g id="Node000026" class="node">
<title>Node26</title>
<g id="a_Node000026"><a xlink:href="../../d7/d6e/write__result_8hpp_source.html" target="_top" xlink:title=" ">
<polygon fill="white" stroke="#666666" points="1209,-294 1074,-294 1074,-264 1209,-264 1209,-294"/>
<text text-anchor="start" x="1082" y="-282" font-family="Helvetica,sans-Serif" font-size="10.00">userver/storages/mongo</text>
<text text-anchor="middle" x="1141.5" y="-271" font-family="Helvetica,sans-Serif" font-size="10.00">/write_result.hpp</text>
</a>
</g>
</g>
<!-- Node3&#45;&gt;Node26 -->
<g id="edge58_Node000003_Node000026" class="edge">
<title>Node3&#45;&gt;Node26</title>
<g id="a_edge58_Node000003_Node000026"><a xlink:title=" ">
<path fill="none" stroke="#63b8ff" d="M493.23,-541.93C661.15,-541.06 1073.16,-534.57 1117.5,-492 1172.95,-438.78 1154.28,-332.55 1145.21,-294.21"/>
<polygon fill="#63b8ff" stroke="#63b8ff" points="492.99,-538.43 483.01,-541.98 493.03,-545.43 492.99,-538.43"/>
</a>
</g>
</g>
<!-- Node4&#45;&gt;Node5 -->
<g id="edge5_Node000004_Node000005" class="edge">
<title>Node4&#45;&gt;Node5</title>
<g id="a_edge5_Node000004_Node000005"><a xlink:title=" ">
<path fill="none" stroke="#63b8ff" d="M313.98,-454.09C305.76,-444.85 296.41,-434.36 289.11,-426.16"/>
<polygon fill="#63b8ff" stroke="#63b8ff" points="311.59,-456.66 320.85,-461.8 316.81,-452 311.59,-456.66"/>
</a>
</g>
</g>
<!-- Node4&#45;&gt;Node7 -->
<g id="edge8_Node000004_Node000007" class="edge">
<title>Node4&#45;&gt;Node7</title>
<g id="a_edge8_Node000004_Node000007"><a xlink:title=" ">
<path fill="none" stroke="#63b8ff" d="M404.37,-466.1C491.44,-453.93 638.09,-433.44 723.71,-421.47"/>
<polygon fill="#63b8ff" stroke="#63b8ff" points="403.74,-462.65 394.32,-467.5 404.71,-469.58 403.74,-462.65"/>
</a>
</g>
</g>
<!-- Node5&#45;&gt;Node2 -->
<g id="edge7_Node000005_Node000002" class="edge">
<title>Node5&#45;&gt;Node2</title>
<g id="a_edge7_Node000005_Node000002"><a xlink:title=" ">
<path fill="none" stroke="#63b8ff" d="M276.5,-385.6C276.5,-374.8 276.5,-362.78 276.5,-354.84"/>
<polygon fill="#63b8ff" stroke="#63b8ff" points="273,-385.8 276.5,-395.8 280,-385.8 273,-385.8"/>
</a>
</g>
</g>
<!-- Node6 -->
<g id="Node000006" class="node">
<title>Node6</title>
<g id="a_Node000006"><a xlink:href="../../dd/d6c/base__mongo__cache_8hpp.html" target="_top" xlink:title="Base class for all caches polling mongo collection">
<polygon fill="white" stroke="#666666" points="516,-162 405,-162 405,-132 516,-132 516,-162"/>
<text text-anchor="start" x="413" y="-150" font-family="Helvetica,sans-Serif" font-size="10.00">userver/cache/base</text>
<text text-anchor="middle" x="460.5" y="-139" font-family="Helvetica,sans-Serif" font-size="10.00">_mongo_cache.hpp</text>
</a>
</g>
</g>
<!-- Node5&#45;&gt;Node6 -->
<g id="edge6_Node000005_Node000006" class="edge">
<title>Node5&#45;&gt;Node6</title>
<g id="a_edge6_Node000005_Node000006"><a xlink:title=" ">
<path fill="none" stroke="#63b8ff" d="M316.48,-390.89C330.42,-382.8 345.34,-372.37 356.5,-360 412.94,-297.45 445.78,-198.71 456.54,-162.19"/>
<polygon fill="#63b8ff" stroke="#63b8ff" points="314.57,-387.94 307.52,-395.85 317.96,-394.07 314.57,-387.94"/>
</a>
</g>
</g>
<!-- Node7&#45;&gt;Node6 -->
<g id="edge9_Node000007_Node000006" class="edge">
<title>Node7&#45;&gt;Node6</title>
<g id="a_edge9_Node000007_Node000006"><a xlink:title=" ">
<path fill="none" stroke="#63b8ff" d="M765.63,-389.53C700.97,-338.34 533.51,-205.79 478.38,-162.16"/>
<polygon fill="#63b8ff" stroke="#63b8ff" points="763.69,-392.45 773.7,-395.91 768.04,-386.96 763.69,-392.45"/>
</a>
</g>
</g>
<!-- Node8 -->
<g id="Node000008" class="node">
<title>Node8</title>
<g id="a_Node000008"><a xlink:href="../../d2/d86/mongo_8hpp.html" target="_top" xlink:title="Include&#45;all header for MongoDB client.">
<polygon fill="white" stroke="#666666" points="1042.5,-90.5 886.5,-90.5 886.5,-71.5 1042.5,-71.5 1042.5,-90.5"/>
<text text-anchor="middle" x="964.5" y="-78.5" font-family="Helvetica,sans-Serif" font-size="10.00">userver/storages/mongo.hpp</text>
</a>
</g>
</g>
<!-- Node7&#45;&gt;Node8 -->
<g id="edge10_Node000007_Node000008" class="edge">
<title>Node7&#45;&gt;Node8</title>
<g id="a_edge10_Node000007_Node000008"><a xlink:title=" ">
<path fill="none" stroke="#63b8ff" d="M868.98,-395.26C908.25,-386.32 950.55,-373.97 964.5,-360 1040.74,-283.68 983.86,-128.73 968.19,-90.61"/>
<polygon fill="#63b8ff" stroke="#63b8ff" points="868.09,-391.87 859.08,-397.45 869.6,-398.7 868.09,-391.87"/>
</a>
</g>
</g>
<!-- Node9 -->
<g id="Node000009" class="node">
<title>Node9</title>
<g id="a_Node000009"><a xlink:href="../../d5/d0f/bulk_8hpp.html" target="_top" xlink:title="Bulk collection operation model.">
<polygon fill="white" stroke="#666666" points="974,-294 839,-294 839,-264 974,-264 974,-294"/>
<text text-anchor="start" x="847" y="-282" font-family="Helvetica,sans-Serif" font-size="10.00">userver/storages/mongo</text>
<text text-anchor="middle" x="906.5" y="-271" font-family="Helvetica,sans-Serif" font-size="10.00">/bulk.hpp</text>
</a>
</g>
</g>
<!-- Node7&#45;&gt;Node9 -->
<g id="edge11_Node000007_Node000009" class="edge">
<title>Node7&#45;&gt;Node9</title>
<g id="a_edge11_Node000007_Node000009"><a xlink:title=" ">
<path fill="none" stroke="#63b8ff" d="M792.46,-385.42C794.28,-368.3 799.1,-345.79 811.5,-330 824.39,-313.58 844.19,-301.96 862.38,-294.08"/>
<polygon fill="#63b8ff" stroke="#63b8ff" points="788.94,-385.52 791.65,-395.77 795.92,-386.07 788.94,-385.52"/>
</a>
</g>
</g>
<!-- Node18 -->
<g id="Node000018" class="node">
<title>Node18</title>
<g id="a_Node000018"><a xlink:href="../../d3/df1/bulk__ops_8hpp.html" target="_top" xlink:title="Bulk sub&#45;operation models.">
<polygon fill="white" stroke="#666666" points="955,-360 820,-360 820,-330 955,-330 955,-360"/>
<text text-anchor="start" x="828" y="-348" font-family="Helvetica,sans-Serif" font-size="10.00">userver/storages/mongo</text>
<text text-anchor="middle" x="887.5" y="-337" font-family="Helvetica,sans-Serif" font-size="10.00">/bulk_ops.hpp</text>
</a>
</g>
</g>
<!-- Node7&#45;&gt;Node18 -->
<g id="edge26_Node000007_Node000018" class="edge">
<title>Node7&#45;&gt;Node18</title>
<g id="a_edge26_Node000007_Node000018"><a xlink:title=" ">
<path fill="none" stroke="#63b8ff" d="M821.46,-390.03C835.99,-380.34 853.09,-368.94 866.25,-360.16"/>
<polygon fill="#63b8ff" stroke="#63b8ff" points="819.18,-387.34 812.81,-395.8 823.07,-393.16 819.18,-387.34"/>
</a>
</g>
</g>
<!-- Node7&#45;&gt;Node19 -->
<g id="edge28_Node000007_Node000019" class="edge">
<title>Node7&#45;&gt;Node19</title>
<g id="a_edge28_Node000007_Node000019"><a xlink:title=" ">
<path fill="none" stroke="#63b8ff" d="M731.32,-393.25C694.16,-382.91 647.03,-369.8 611.86,-360.01"/>
<polygon fill="#63b8ff" stroke="#63b8ff" points="730.45,-396.65 741.03,-395.95 732.33,-389.9 730.45,-396.65"/>
</a>
</g>
</g>
<!-- Node9&#45;&gt;Node8 -->
<g id="edge12_Node000009_Node000008" class="edge">
<title>Node9&#45;&gt;Node8</title>
<g id="a_edge12_Node000009_Node000008"><a xlink:title=" ">
<path fill="none" stroke="#63b8ff" d="M924.75,-255.65C930.63,-247.4 936.63,-237.7 940.5,-228 960.23,-178.62 963.74,-113.64 964.37,-90.57"/>
<polygon fill="#63b8ff" stroke="#63b8ff" points="921.95,-253.56 918.75,-263.66 927.55,-257.75 921.95,-253.56"/>
</a>
</g>
</g>
<!-- Node9&#45;&gt;Node10 -->
<g id="edge13_Node000009_Node000010" class="edge">
<title>Node9&#45;&gt;Node10</title>
<g id="a_edge13_Node000009_Node000010"><a xlink:title=" ">
<path fill="none" stroke="#63b8ff" d="M863.88,-260.05C839.8,-249.91 810.14,-237.43 787.78,-228.01"/>
<polygon fill="#63b8ff" stroke="#63b8ff" points="862.57,-263.3 873.14,-263.95 865.28,-256.85 862.57,-263.3"/>
</a>
</g>
</g>
<!-- Node10&#45;&gt;Node6 -->
<g id="edge14_Node000010_Node000006" class="edge">
<title>Node10&#45;&gt;Node6</title>
<g id="a_edge14_Node000010_Node000006"><a xlink:title=" ">
<path fill="none" stroke="#63b8ff" d="M679.59,-195.74C634.62,-185.97 576.28,-173.29 524.5,-162 521.72,-161.39 518.88,-160.77 516,-160.15"/>
<polygon fill="#63b8ff" stroke="#63b8ff" points="679.04,-199.2 689.56,-197.91 680.53,-192.36 679.04,-199.2"/>
</a>
</g>
</g>
<!-- Node10&#45;&gt;Node8 -->
<g id="edge15_Node000010_Node000008" class="edge">
<title>Node10&#45;&gt;Node8</title>
<g id="a_edge15_Node000010_Node000008"><a xlink:title=" ">
<path fill="none" stroke="#63b8ff" d="M791.78,-193.12C808.98,-184.11 829.53,-172.93 847.5,-162 887.23,-137.83 932.07,-105.74 952.82,-90.6"/>
<polygon fill="#63b8ff" stroke="#63b8ff" points="789.87,-190.17 782.61,-197.88 793.09,-196.38 789.87,-190.17"/>
</a>
</g>
</g>
<!-- Node11 -->
<g id="Node000011" class="node">
<title>Node11</title>
<g id="a_Node000011"><a xlink:href="../../d5/d93/mongo_2include_2userver_2storages_2mongo_2dist__lock__component__base_8hpp.html" target="_top" xlink:title="Base class for mongo&#45;based distlock worker components.">
<polygon fill="white" stroke="#666666" points="868,-96 695,-96 695,-66 868,-66 868,-96"/>
<text text-anchor="start" x="703" y="-84" font-family="Helvetica,sans-Serif" font-size="10.00">userver/storages/mongo</text>
<text text-anchor="middle" x="781.5" y="-73" font-family="Helvetica,sans-Serif" font-size="10.00">/dist_lock_component_base.hpp</text>
</a>
</g>
</g>
<!-- Node10&#45;&gt;Node11 -->
<g id="edge16_Node000010_Node000011" class="edge">
<title>Node10&#45;&gt;Node11</title>
<g id="a_edge16_Node000010_Node000011"><a xlink:title=" ">
<path fill="none" stroke="#63b8ff" d="M799.62,-192.95C812.22,-185.28 824.39,-175.09 831.5,-162 837.86,-150.28 836.6,-144.32 831.5,-132 825.49,-117.48 812.99,-104.98 801.99,-96.11"/>
<polygon fill="#63b8ff" stroke="#63b8ff" points="797.89,-189.91 790.88,-197.86 801.32,-196.01 797.89,-189.91"/>
</a>
</g>
</g>
<!-- Node12 -->
<g id="Node000012" class="node">
<title>Node12</title>
<g id="a_Node000012"><a xlink:href="../../d6/d83/mongo_2include_2userver_2storages_2mongo_2dist__lock__strategy_8hpp_source.html" target="_top" xlink:title=" ">
<polygon fill="white" stroke="#666666" points="822,-162 687,-162 687,-132 822,-132 822,-162"/>
<text text-anchor="start" x="695" y="-150" font-family="Helvetica,sans-Serif" font-size="10.00">userver/storages/mongo</text>
<text text-anchor="middle" x="754.5" y="-139" font-family="Helvetica,sans-Serif" font-size="10.00">/dist_lock_strategy.hpp</text>
</a>
</g>
</g>
<!-- Node10&#45;&gt;Node12 -->
<g id="edge17_Node000010_Node000012" class="edge">
<title>Node10&#45;&gt;Node12</title>
<g id="a_edge17_Node000010_Node000012"><a xlink:title=" ">
<path fill="none" stroke="#63b8ff" d="M754.5,-187.54C754.5,-178.96 754.5,-169.61 754.5,-162.16"/>
<polygon fill="#63b8ff" stroke="#63b8ff" points="751,-187.8 754.5,-197.8 758,-187.8 751,-187.8"/>
</a>
</g>
</g>
<!-- Node13 -->
<g id="Node000013" class="node">
<title>Node13</title>
<g id="a_Node000013"><a xlink:href="../../d3/dc1/pool_8hpp.html" target="_top" xlink:title="MongoDB client pool.">
<polygon fill="white" stroke="#666666" points="669,-162 534,-162 534,-132 669,-132 669,-162"/>
<text text-anchor="start" x="542" y="-150" font-family="Helvetica,sans-Serif" font-size="10.00">userver/storages/mongo</text>
<text text-anchor="middle" x="601.5" y="-139" font-family="Helvetica,sans-Serif" font-size="10.00">/pool.hpp</text>
</a>
</g>
</g>
<!-- Node10&#45;&gt;Node13 -->
<g id="edge19_Node000010_Node000013" class="edge">
<title>Node10&#45;&gt;Node13</title>
<g id="a_edge19_Node000010_Node000013"><a xlink:title=" ">
<path fill="none" stroke="#63b8ff" d="M711.6,-194.05C687.36,-183.91 657.5,-171.43 635,-162.01"/>
<polygon fill="#63b8ff" stroke="#63b8ff" points="710.35,-197.32 720.92,-197.95 713.05,-190.87 710.35,-197.32"/>
</a>
</g>
</g>
<!-- Node12&#45;&gt;Node11 -->
<g id="edge18_Node000012_Node000011" class="edge">
<title>Node12&#45;&gt;Node11</title>
<g id="a_edge18_Node000012_Node000011"><a xlink:title=" ">
<path fill="none" stroke="#63b8ff" d="M764.46,-122.39C768.17,-113.59 772.28,-103.86 775.52,-96.16"/>
<polygon fill="#63b8ff" stroke="#63b8ff" points="761.15,-121.22 760.49,-131.8 767.6,-123.94 761.15,-121.22"/>
</a>
</g>
</g>
<!-- Node13&#45;&gt;Node8 -->
<g id="edge20_Node000013_Node000008" class="edge">
<title>Node13&#45;&gt;Node8</title>
<g id="a_edge20_Node000013_Node000008"><a xlink:title=" ">
<path fill="none" stroke="#63b8ff" d="M679.13,-131.89C768.43,-116 860.18,-100.04 915.14,-90.53"/>
<polygon fill="#63b8ff" stroke="#63b8ff" points="678.33,-128.48 669.1,-133.68 679.56,-135.37 678.33,-128.48"/>
</a>
</g>
</g>
<!-- Node14 -->
<g id="Node000014" class="node">
<title>Node14</title>
<g id="a_Node000014"><a xlink:href="../../d1/dd7/mongo_2include_2userver_2storages_2mongo_2component_8hpp.html" target="_top" xlink:title="MongoDB client component.">
<polygon fill="white" stroke="#666666" points="504,-30 369,-30 369,0 504,0 504,-30"/>
<text text-anchor="start" x="377" y="-18" font-family="Helvetica,sans-Serif" font-size="10.00">userver/storages/mongo</text>
<text text-anchor="middle" x="436.5" y="-7" font-family="Helvetica,sans-Serif" font-size="10.00">/component.hpp</text>
</a>
</g>
</g>
<!-- Node13&#45;&gt;Node14 -->
<g id="edge21_Node000013_Node000014" class="edge">
<title>Node13&#45;&gt;Node14</title>
<g id="a_edge21_Node000013_Node000014"><a xlink:title=" ">
<path fill="none" stroke="#63b8ff" d="M573.02,-126.02C560.46,-117.04 545.59,-106.18 532.5,-96 503.9,-73.76 471.76,-46.49 452.87,-30.22"/>
<polygon fill="#63b8ff" stroke="#63b8ff" points="571.13,-128.97 581.31,-131.91 575.19,-123.26 571.13,-128.97"/>
</a>
</g>
</g>
<!-- Node15 -->
<g id="Node000015" class="node">
<title>Node15</title>
<g id="a_Node000015"><a xlink:href="../../d2/de5/multi__mongo_8hpp_source.html" target="_top" xlink:title=" ">
<polygon fill="white" stroke="#666666" points="485,-96 350,-96 350,-66 485,-66 485,-96"/>
<text text-anchor="start" x="358" y="-84" font-family="Helvetica,sans-Serif" font-size="10.00">userver/storages/mongo</text>
<text text-anchor="middle" x="417.5" y="-73" font-family="Helvetica,sans-Serif" font-size="10.00">/multi_mongo.hpp</text>
</a>
</g>
</g>
<!-- Node13&#45;&gt;Node15 -->
<g id="edge22_Node000013_Node000015" class="edge">
<title>Node13&#45;&gt;Node15</title>
<g id="a_edge22_Node000013_Node000015"><a xlink:title=" ">
<path fill="none" stroke="#63b8ff" d="M551.45,-128.59C522.03,-118.36 485.33,-105.59 457.79,-96.01"/>
<polygon fill="#63b8ff" stroke="#63b8ff" points="550.53,-131.98 561.12,-131.95 552.83,-125.36 550.53,-131.98"/>
</a>
</g>
</g>
<!-- Node16 -->
<g id="Node000016" class="node">
<title>Node16</title>
<g id="a_Node000016"><a xlink:href="../../d7/d49/mongo__local_8hpp.html" target="_top" xlink:title=" ">
<polygon fill="white" stroke="#666666" points="677,-96 542,-96 542,-66 677,-66 677,-96"/>
<text text-anchor="start" x="550" y="-84" font-family="Helvetica,sans-Serif" font-size="10.00">userver/storages/mongo</text>
<text text-anchor="middle" x="609.5" y="-73" font-family="Helvetica,sans-Serif" font-size="10.00">/utest/mongo_local.hpp</text>
</a>
</g>
</g>
<!-- Node13&#45;&gt;Node16 -->
<g id="edge24_Node000013_Node000016" class="edge">
<title>Node13&#45;&gt;Node16</title>
<g id="a_edge24_Node000013_Node000016"><a xlink:title=" ">
<path fill="none" stroke="#63b8ff" d="M604.52,-121.83C605.6,-113.17 606.79,-103.7 607.73,-96.16"/>
<polygon fill="#63b8ff" stroke="#63b8ff" points="601.04,-121.44 603.28,-131.8 607.99,-122.31 601.04,-121.44"/>
</a>
</g>
</g>
<!-- Node15&#45;&gt;Node14 -->
<g id="edge23_Node000015_Node000014" class="edge">
<title>Node15&#45;&gt;Node14</title>
<g id="a_edge23_Node000015_Node000014"><a xlink:title=" ">
<path fill="none" stroke="#63b8ff" d="M424.59,-56.11C427.19,-47.38 430.03,-37.78 432.3,-30.16"/>
<polygon fill="#63b8ff" stroke="#63b8ff" points="421.21,-55.21 421.72,-65.8 427.92,-57.21 421.21,-55.21"/>
</a>
</g>
</g>
<!-- Node17 -->
<g id="Node000017" class="node">
<title>Node17</title>
<g id="a_Node000017"><a xlink:href="../../d0/d79/mongo__fixture_8hpp.html" target="_top" xlink:title=" ">
<polygon fill="white" stroke="#666666" points="679,-30 540,-30 540,0 679,0 679,-30"/>
<text text-anchor="start" x="548" y="-18" font-family="Helvetica,sans-Serif" font-size="10.00">userver/storages/mongo</text>
<text text-anchor="middle" x="609.5" y="-7" font-family="Helvetica,sans-Serif" font-size="10.00">/utest/mongo_fixture.hpp</text>
</a>
</g>
</g>
<!-- Node16&#45;&gt;Node17 -->
<g id="edge25_Node000016_Node000017" class="edge">
<title>Node16&#45;&gt;Node17</title>
<g id="a_edge25_Node000016_Node000017"><a xlink:title=" ">
<path fill="none" stroke="#63b8ff" d="M609.5,-55.54C609.5,-46.96 609.5,-37.61 609.5,-30.16"/>
<polygon fill="#63b8ff" stroke="#63b8ff" points="606,-55.8 609.5,-65.8 613,-55.8 606,-55.8"/>
</a>
</g>
</g>
<!-- Node18&#45;&gt;Node9 -->
<g id="edge27_Node000018_Node000009" class="edge">
<title>Node18&#45;&gt;Node9</title>
<g id="a_edge27_Node000018_Node000009"><a xlink:title=" ">
<path fill="none" stroke="#63b8ff" d="M894.59,-320.11C897.19,-311.38 900.03,-301.78 902.3,-294.16"/>
<polygon fill="#63b8ff" stroke="#63b8ff" points="891.21,-319.21 891.72,-329.8 897.92,-321.21 891.21,-319.21"/>
</a>
</g>
</g>
<!-- Node19&#45;&gt;Node6 -->
<g id="edge29_Node000019_Node000006" class="edge">
<title>Node19&#45;&gt;Node6</title>
<g id="a_edge29_Node000019_Node000006"><a xlink:title=" ">
<path fill="none" stroke="#63b8ff" d="M549.62,-320.94C528.52,-280 485.11,-195.77 467.83,-162.23"/>
<polygon fill="#63b8ff" stroke="#63b8ff" points="546.54,-322.62 554.24,-329.9 552.77,-319.41 546.54,-322.62"/>
</a>
</g>
</g>
<!-- Node19&#45;&gt;Node10 -->
<g id="edge30_Node000019_Node000010" class="edge">
<title>Node19&#45;&gt;Node10</title>
<g id="a_edge30_Node000019_Node000010"><a xlink:title=" ">
<path fill="none" stroke="#63b8ff" d="M580.31,-321.78C595.9,-304.38 619.35,-280.46 643.5,-264 665.42,-249.06 692.52,-236.76 714.46,-228.09"/>
<polygon fill="#63b8ff" stroke="#63b8ff" points="577.29,-319.91 573.32,-329.73 582.55,-324.53 577.29,-319.91"/>
</a>
</g>
</g>
<!-- Node20&#45;&gt;Node2 -->
<g id="edge33_Node000020_Node000002" class="edge">
<title>Node20&#45;&gt;Node2</title>
<g id="a_edge33_Node000020_Node000002"><a xlink:title=" ">
<path fill="none" stroke="#63b8ff" d="M548.79,-462.59C510.65,-454.24 463.19,-442.01 422.5,-426 370.86,-405.68 314.56,-370.84 289.63,-354.69"/>
<polygon fill="#63b8ff" stroke="#63b8ff" points="548.27,-466.06 558.78,-464.74 549.74,-459.22 548.27,-466.06"/>
</a>
</g>
</g>
<!-- Node20&#45;&gt;Node5 -->
<g id="edge36_Node000020_Node000005" class="edge">
<title>Node20&#45;&gt;Node5</title>
<g id="a_edge36_Node000020_Node000005"><a xlink:title=" ">
<path fill="none" stroke="#63b8ff" d="M548.8,-462.81C486.33,-451.15 396.2,-434.33 337,-423.29"/>
<polygon fill="#63b8ff" stroke="#63b8ff" points="548.5,-466.31 558.97,-464.71 549.78,-459.43 548.5,-466.31"/>
</a>
</g>
</g>
<!-- Node20&#45;&gt;Node6 -->
<g id="edge32_Node000020_Node000006" class="edge">
<title>Node20&#45;&gt;Node6</title>
<g id="a_edge32_Node000020_Node000006"><a xlink:title=" ">
<path fill="none" stroke="#63b8ff" d="M607.09,-452.9C596.77,-435.44 580.69,-411.86 561.5,-396 532.37,-371.94 506.55,-390.68 484.5,-360 439.97,-298.04 451.57,-198.52 457.79,-162.01"/>
<polygon fill="#63b8ff" stroke="#63b8ff" points="604.22,-454.93 612.21,-461.88 610.29,-451.46 604.22,-454.93"/>
</a>
</g>
</g>
<!-- Node20&#45;&gt;Node7 -->
<g id="edge48_Node000020_Node000007" class="edge">
<title>Node20&#45;&gt;Node7</title>
<g id="a_edge48_Node000020_Node000007"><a xlink:title=" ">
<path fill="none" stroke="#63b8ff" d="M666.65,-458.46C694.09,-448.25 728.21,-435.55 753.84,-426.01"/>
<polygon fill="#63b8ff" stroke="#63b8ff" points="665.4,-455.19 657.25,-461.95 667.84,-461.75 665.4,-455.19"/>
</a>
</g>
</g>
<!-- Node20&#45;&gt;Node10 -->
<g id="edge43_Node000020_Node000010" class="edge">
<title>Node20&#45;&gt;Node10</title>
<g id="a_edge43_Node000020_Node000010"><a xlink:title=" ">
<path fill="none" stroke="#63b8ff" d="M623.84,-451.97C633.02,-403.12 655.37,-294.29 677.5,-264 688.88,-248.43 706.7,-236.41 722.34,-228.06"/>
<polygon fill="#63b8ff" stroke="#63b8ff" points="620.37,-451.49 621.99,-461.96 627.25,-452.77 620.37,-451.49"/>
</a>
</g>
</g>
<!-- Node20&#45;&gt;Node18 -->
<g id="edge42_Node000020_Node000018" class="edge">
<title>Node20&#45;&gt;Node18</title>
<g id="a_edge42_Node000020_Node000018"><a xlink:title=" ">
<path fill="none" stroke="#63b8ff" d="M690.25,-470.24C754.68,-463.54 843.47,-450.17 868.5,-426 886.37,-408.75 888.72,-377.99 888.4,-360.06"/>
<polygon fill="#63b8ff" stroke="#63b8ff" points="689.73,-466.78 680.13,-471.26 690.43,-473.74 689.73,-466.78"/>
</a>
</g>
</g>
<!-- Node20&#45;&gt;Node19 -->
<g id="edge47_Node000020_Node000019" class="edge">
<title>Node20&#45;&gt;Node19</title>
<g id="a_edge47_Node000020_Node000019"><a xlink:title=" ">
<path fill="none" stroke="#63b8ff" d="M614.37,-452.13C610.39,-435.84 604.09,-414.04 595.5,-396 589.36,-383.11 580.15,-369.8 572.86,-360.16"/>
<polygon fill="#63b8ff" stroke="#63b8ff" points="610.98,-452.99 616.65,-461.94 617.79,-451.4 610.98,-452.99"/>
</a>
</g>
</g>
<!-- Node21 -->
<g id="Node000021" class="node">
<title>Node21</title>
<g id="a_Node000021"><a xlink:href="../../db/d2e/binary_8hpp.html" target="_top" xlink:title="Binary representation helpers.">
<polygon fill="white" stroke="#666666" points="553,-426 432,-426 432,-396 553,-396 553,-426"/>
<text text-anchor="start" x="440" y="-414" font-family="Helvetica,sans-Serif" font-size="10.00">userver/formats/bson</text>
<text text-anchor="middle" x="492.5" y="-403" font-family="Helvetica,sans-Serif" font-size="10.00">/binary.hpp</text>
</a>
</g>
</g>
<!-- Node20&#45;&gt;Node21 -->
<g id="edge34_Node000020_Node000021" class="edge">
<title>Node20&#45;&gt;Node21</title>
<g id="a_edge34_Node000020_Node000021"><a xlink:title=" ">
<path fill="none" stroke="#63b8ff" d="M582.55,-457.38C562.67,-447.36 538.57,-435.22 520.31,-426.01"/>
<polygon fill="#63b8ff" stroke="#63b8ff" points="581.12,-460.58 591.63,-461.95 584.27,-454.33 581.12,-460.58"/>
</a>
</g>
</g>
<!-- Node20&#45;&gt;Node22 -->
<g id="edge37_Node000020_Node000022" class="edge">
<title>Node20&#45;&gt;Node22</title>
<g id="a_edge37_Node000020_Node000022"><a xlink:title=" ">
<path fill="none" stroke="#63b8ff" d="M690.16,-465.57C755.07,-455.85 853.88,-440.68 939.5,-426 944.2,-425.19 949.06,-424.34 953.95,-423.46"/>
<polygon fill="#63b8ff" stroke="#63b8ff" points="689.41,-462.14 680.04,-467.09 690.45,-469.07 689.41,-462.14"/>
</a>
</g>
</g>
<!-- Node20&#45;&gt;Node23 -->
<g id="edge38_Node000020_Node000023" class="edge">
<title>Node20&#45;&gt;Node23</title>
<g id="a_edge38_Node000020_Node000023"><a xlink:title=" ">
<path fill="none" stroke="#63b8ff" d="M548.82,-467.91C438.11,-455.23 225.71,-430.92 121.38,-418.97"/>
<polygon fill="#63b8ff" stroke="#63b8ff" points="548.55,-471.4 558.88,-469.06 549.34,-464.44 548.55,-471.4"/>
</a>
</g>
</g>
<!-- Node25 -->
<g id="Node000025" class="node">
<title>Node25</title>
<g id="a_Node000025"><a xlink:href="../../d7/dfb/cursor_8hpp.html" target="_top" xlink:title="Interface for MongoDB query cursors.">
<polygon fill="white" stroke="#666666" points="821,-294 686,-294 686,-264 821,-264 821,-294"/>
<text text-anchor="start" x="694" y="-282" font-family="Helvetica,sans-Serif" font-size="10.00">userver/storages/mongo</text>
<text text-anchor="middle" x="753.5" y="-271" font-family="Helvetica,sans-Serif" font-size="10.00">/cursor.hpp</text>
</a>
</g>
</g>
<!-- Node20&#45;&gt;Node25 -->
<g id="edge44_Node000020_Node000025" class="edge">
<title>Node20&#45;&gt;Node25</title>
<g id="a_edge44_Node000020_Node000025"><a xlink:title=" ">
<path fill="none" stroke="#63b8ff" d="M644.12,-455.12C653.32,-446.62 663.48,-436.37 671.5,-426 705.83,-381.62 735,-321.17 747.28,-294.11"/>
<polygon fill="#63b8ff" stroke="#63b8ff" points="641.78,-452.51 636.68,-461.8 646.45,-457.72 641.78,-452.51"/>
</a>
</g>
</g>
<!-- Node20&#45;&gt;Node26 -->
<g id="edge49_Node000020_Node000026" class="edge">
<title>Node20&#45;&gt;Node26</title>
<g id="a_edge49_Node000020_Node000026"><a xlink:title=" ">
<path fill="none" stroke="#63b8ff" d="M690.35,-465.56C757.66,-455.16 853.73,-438.92 889.5,-426 903.63,-420.9 994.49,-367.52 1007.5,-360 1046.67,-337.36 1091.76,-310.21 1118.38,-294.07"/>
<polygon fill="#63b8ff" stroke="#63b8ff" points="689.58,-462.14 680.23,-467.11 690.64,-469.05 689.58,-462.14"/>
</a>
</g>
</g>
<!-- Node21&#45;&gt;Node2 -->
<g id="edge35_Node000021_Node000002" class="edge">
<title>Node21&#45;&gt;Node2</title>
<g id="a_edge35_Node000021_Node000002"><a xlink:title=" ">
<path fill="none" stroke="#63b8ff" d="M435.3,-393.05C393.4,-380.64 338.3,-364.31 305.25,-354.52"/>
<polygon fill="#63b8ff" stroke="#63b8ff" points="434.52,-396.47 445.1,-395.95 436.5,-389.76 434.52,-396.47"/>
</a>
</g>
</g>
<!-- Node23&#45;&gt;Node2 -->
<g id="edge40_Node000023_Node000002" class="edge">
<title>Node23&#45;&gt;Node2</title>
<g id="a_edge40_Node000023_Node000002"><a xlink:title=" ">
<path fill="none" stroke="#63b8ff" d="M117.7,-393.05C159.6,-380.64 214.7,-364.31 247.75,-354.52"/>
<polygon fill="#63b8ff" stroke="#63b8ff" points="116.5,-389.76 107.9,-395.95 118.48,-396.47 116.5,-389.76"/>
</a>
</g>
</g>
<!-- Node23&#45;&gt;Node6 -->
<g id="edge39_Node000023_Node000006" class="edge">
<title>Node23&#45;&gt;Node6</title>
<g id="a_edge39_Node000023_Node000006"><a xlink:title=" ">
<path fill="none" stroke="#63b8ff" d="M49.72,-386.01C43.86,-369.06 39.76,-346.52 50.5,-330 129.99,-207.74 312.55,-166.96 404.87,-153.88"/>
<polygon fill="#63b8ff" stroke="#63b8ff" points="46.61,-387.67 53.48,-395.73 53.14,-385.15 46.61,-387.67"/>
</a>
</g>
</g>
<!-- Node24 -->
<g id="Node000024" class="node">
<title>Node24</title>
<g id="a_Node000024"><a xlink:href="../../d9/d86/mongo_2include_2userver_2formats_2bson_2serialize__duration_8hpp.html" target="_top" xlink:title="Serializers for std::chrono::duration types.">
<polygon fill="white" stroke="#666666" points="187.5,-360 59.5,-360 59.5,-330 187.5,-330 187.5,-360"/>
<text text-anchor="start" x="67.5" y="-348" font-family="Helvetica,sans-Serif" font-size="10.00">userver/formats/bson</text>
<text text-anchor="middle" x="123.5" y="-337" font-family="Helvetica,sans-Serif" font-size="10.00">/serialize_duration.hpp</text>
</a>
</g>
</g>
<!-- Node23&#45;&gt;Node24 -->
<g id="edge41_Node000023_Node000024" class="edge">
<title>Node23&#45;&gt;Node24</title>
<g id="a_edge41_Node000023_Node000024"><a xlink:title=" ">
<path fill="none" stroke="#63b8ff" d="M81.52,-388.65C90.75,-379.27 101.33,-368.53 109.56,-360.16"/>
<polygon fill="#63b8ff" stroke="#63b8ff" points="79,-386.21 74.48,-395.8 83.99,-391.13 79,-386.21"/>
</a>
</g>
</g>
<!-- Node25&#45;&gt;Node8 -->
<g id="edge45_Node000025_Node000008" class="edge">
<title>Node25&#45;&gt;Node8</title>
<g id="a_edge45_Node000025_Node000008"><a xlink:title=" ">
<path fill="none" stroke="#63b8ff" d="M788.15,-258.49C802.18,-249.91 818.19,-239.23 831.5,-228 886,-182 939.74,-114.37 957.97,-90.62"/>
<polygon fill="#63b8ff" stroke="#63b8ff" points="786.04,-255.67 779.25,-263.81 789.63,-261.68 786.04,-255.67"/>
</a>
</g>
</g>
<!-- Node25&#45;&gt;Node10 -->
<g id="edge46_Node000025_Node000010" class="edge">
<title>Node25&#45;&gt;Node10</title>
<g id="a_edge46_Node000025_Node000010"><a xlink:title=" ">
<path fill="none" stroke="#63b8ff" d="M753.88,-253.54C754.02,-244.96 754.16,-235.61 754.28,-228.16"/>
<polygon fill="#63b8ff" stroke="#63b8ff" points="750.38,-253.74 753.72,-263.8 757.38,-253.85 750.38,-253.74"/>
</a>
</g>
</g>
<!-- Node26&#45;&gt;Node8 -->
<g id="edge50_Node000026_Node000008" class="edge">
<title>Node26&#45;&gt;Node8</title>
<g id="a_edge50_Node000026_Node000008"><a xlink:title=" ">
<path fill="none" stroke="#63b8ff" d="M1123.81,-256.03C1100.15,-226.95 1056.52,-174.4 1016.5,-132 1002.23,-116.88 984.6,-100.35 973.97,-90.59"/>
<polygon fill="#63b8ff" stroke="#63b8ff" points="1121.2,-258.36 1130.21,-263.92 1126.63,-253.95 1121.2,-258.36"/>
</a>
</g>
</g>
<!-- Node26&#45;&gt;Node10 -->
<g id="edge51_Node000026_Node000010" class="edge">
<title>Node26&#45;&gt;Node10</title>
<g id="a_edge51_Node000026_Node000010"><a xlink:title=" ">
<path fill="none" stroke="#63b8ff" d="M1063.95,-264.75C1062.45,-264.49 1060.97,-264.25 1059.5,-264 977.87,-250.34 883.88,-234.99 822.06,-224.94"/>
<polygon fill="#63b8ff" stroke="#63b8ff" points="1063.49,-268.22 1073.94,-266.43 1064.66,-261.32 1063.49,-268.22"/>
</a>
</g>
</g>
</g>
</svg>
