<?xml version="1.0" encoding="UTF-8" standalone="no"?>
<!DOCTYPE svg PUBLIC "-//W3C//DTD SVG 1.1//EN"
 "http://www.w3.org/Graphics/SVG/1.1/DTD/svg11.dtd">
<!-- Generated by graphviz version 2.43.0 (0)
 -->
<!-- Title: formats::json::parser::TypedParser&lt; T &gt; Pages: 1 -->
<svg width="126pt" height="181pt"
 viewBox="0.00 0.00 126.00 181.00" xmlns="http://www.w3.org/2000/svg" xmlns:xlink="http://www.w3.org/1999/xlink">
<g id="graph0" class="graph" transform="scale(1 1) rotate(0) translate(4 177)">
<title>formats::json::parser::TypedParser&lt; T &gt;</title>
<!-- Node1 -->
<g id="Node000001" class="node">
<title>Node1</title>
<g id="a_Node000001"><a xlink:title="Main base class for SAX parsers.">
<polygon fill="#999999" stroke="#666666" points="118,-107 0,-107 0,-77 118,-77 118,-107"/>
<text text-anchor="start" x="8" y="-95" font-family="Helvetica,sans-Serif" font-size="10.00">formats::json::parser</text>
<text text-anchor="middle" x="59" y="-84" font-family="Helvetica,sans-Serif" font-size="10.00">::TypedParser&lt; T &gt;</text>
</a>
</g>
</g>
<!-- Node3 -->
<g id="Node000003" class="node">
<title>Node3</title>
<g id="a_Node000003"><a xlink:href="../../d4/d6a/classformats_1_1json_1_1parser_1_1ArrayParser.html" target="_top" xlink:title=" ">
<polygon fill="white" stroke="#bfbfbf" points="118,-41 0,-41 0,0 118,0 118,-41"/>
<text text-anchor="start" x="8" y="-29" font-family="Helvetica,sans-Serif" font-size="10.00">formats::json::parser</text>
<text text-anchor="start" x="8" y="-18" font-family="Helvetica,sans-Serif" font-size="10.00">::ArrayParser&lt; Item,</text>
<text text-anchor="middle" x="59" y="-7" font-family="Helvetica,sans-Serif" font-size="10.00"> ItemParser, Array &gt;</text>
</a>
</g>
</g>
<!-- Node1&#45;&gt;Node3 -->
<g id="edge2_Node000001_Node000003" class="edge">
<title>Node1&#45;&gt;Node3</title>
<g id="a_edge2_Node000001_Node000003"><a xlink:title=" ">
<path fill="none" stroke="#63b8ff" d="M59,-66.91C59,-58.47 59,-49.1 59,-41.07"/>
<polygon fill="#63b8ff" stroke="#63b8ff" points="55.5,-66.94 59,-76.94 62.5,-66.94 55.5,-66.94"/>
</a>
</g>
</g>
<!-- Node2 -->
<g id="Node000002" class="node">
<title>Node2</title>
<g id="a_Node000002"><a xlink:href="../../dd/d76/classformats_1_1json_1_1parser_1_1BaseParser.html" target="_top" xlink:title="Base class for SAX parser.">
<polygon fill="white" stroke="#666666" points="118,-173 0,-173 0,-143 118,-143 118,-173"/>
<text text-anchor="start" x="8" y="-161" font-family="Helvetica,sans-Serif" font-size="10.00">formats::json::parser</text>
<text text-anchor="middle" x="59" y="-150" font-family="Helvetica,sans-Serif" font-size="10.00">::BaseParser</text>
</a>
</g>
</g>
<!-- Node2&#45;&gt;Node1 -->
<g id="edge1_Node000001_Node000002" class="edge">
<title>Node2&#45;&gt;Node1</title>
<g id="a_edge1_Node000001_Node000002"><a xlink:title=" ">
<path fill="none" stroke="#63b8ff" d="M59,-132.54C59,-123.96 59,-114.61 59,-107.16"/>
<polygon fill="#63b8ff" stroke="#63b8ff" points="55.5,-132.8 59,-142.8 62.5,-132.8 55.5,-132.8"/>
</a>
</g>
</g>
</g>
</svg>
