<?xml version="1.0" encoding="UTF-8" standalone="no"?>
<!DOCTYPE svg PUBLIC "-//W3C//DTD SVG 1.1//EN"
 "http://www.w3.org/Graphics/SVG/1.1/DTD/svg11.dtd">
<!-- Generated by graphviz version 2.43.0 (0)
 -->
<!-- Title: components::DynamicConfigClientUpdater Pages: 1 -->
<svg width="370pt" height="214pt"
 viewBox="0.00 0.00 370.00 214.00" xmlns="http://www.w3.org/2000/svg" xmlns:xlink="http://www.w3.org/1999/xlink">
<g id="graph0" class="graph" transform="scale(1 1) rotate(0) translate(4 210)">
<title>components::DynamicConfigClientUpdater</title>
<!-- Node1 -->
<g id="Node000001" class="node">
<title>Node1</title>
<g id="a_Node000001"><a xlink:title="Component that does a periodic update of runtime configs.">
<polygon fill="#999999" stroke="#666666" points="277,-30 120,-30 120,0 277,0 277,-30"/>
<text text-anchor="start" x="128" y="-18" font-family="Helvetica,sans-Serif" font-size="10.00">components::DynamicConfig</text>
<text text-anchor="middle" x="198.5" y="-7" font-family="Helvetica,sans-Serif" font-size="10.00">ClientUpdater</text>
</a>
</g>
</g>
<!-- Node2 -->
<g id="Node000002" class="node">
<title>Node2</title>
<g id="a_Node000002"><a xlink:href="../../df/dd1/classcomponents_1_1CachingComponentBase.html" target="_top" xlink:title=" ">
<polygon fill="white" stroke="#666666" points="294,-96 103,-96 103,-66 294,-66 294,-96"/>
<text text-anchor="start" x="111" y="-84" font-family="Helvetica,sans-Serif" font-size="10.00">components::CachingComponent</text>
<text text-anchor="middle" x="198.5" y="-73" font-family="Helvetica,sans-Serif" font-size="10.00">Base&lt; dynamic_config::DocsMap &gt;</text>
</a>
</g>
</g>
<!-- Node2&#45;&gt;Node1 -->
<g id="edge1_Node000001_Node000002" class="edge">
<title>Node2&#45;&gt;Node1</title>
<g id="a_edge1_Node000001_Node000002"><a xlink:title=" ">
<path fill="none" stroke="#63b8ff" d="M198.5,-55.54C198.5,-46.96 198.5,-37.61 198.5,-30.16"/>
<polygon fill="#63b8ff" stroke="#63b8ff" points="195,-55.8 198.5,-65.8 202,-55.8 195,-55.8"/>
</a>
</g>
</g>
<!-- Node3 -->
<g id="Node000003" class="node">
<title>Node3</title>
<g id="a_Node000003"><a xlink:href="../../d5/d69/classcomponents_1_1LoggableComponentBase.html" target="_top" xlink:title="Base class for all application components, it depends on components::Logger and components::Tracer.">
<polygon fill="white" stroke="#666666" points="207,-151 0,-151 0,-132 207,-132 207,-151"/>
<text text-anchor="middle" x="103.5" y="-139" font-family="Helvetica,sans-Serif" font-size="10.00">components::LoggableComponentBase</text>
</a>
</g>
</g>
<!-- Node3&#45;&gt;Node2 -->
<g id="edge2_Node000002_Node000003" class="edge">
<title>Node3&#45;&gt;Node2</title>
<g id="a_edge2_Node000002_Node000003"><a xlink:title=" ">
<path fill="none" stroke="#63b8ff" d="M126.15,-126.55C141.08,-117.36 160.59,-105.35 175.58,-96.11"/>
<polygon fill="#63b8ff" stroke="#63b8ff" points="124.2,-123.64 117.52,-131.87 127.87,-129.6 124.2,-123.64"/>
</a>
</g>
</g>
<!-- Node4 -->
<g id="Node000004" class="node">
<title>Node4</title>
<g id="a_Node000004"><a xlink:title=" ">
<polygon fill="white" stroke="#666666" points="199,-206 8,-206 8,-187 199,-187 199,-206"/>
<text text-anchor="middle" x="103.5" y="-194" font-family="Helvetica,sans-Serif" font-size="10.00">components::impl::ComponentBase</text>
</a>
</g>
</g>
<!-- Node4&#45;&gt;Node3 -->
<g id="edge3_Node000003_Node000004" class="edge">
<title>Node4&#45;&gt;Node3</title>
<g id="a_edge3_Node000003_Node000004"><a xlink:title=" ">
<path fill="none" stroke="#63b8ff" d="M103.5,-176.66C103.5,-167.93 103.5,-157.99 103.5,-151.09"/>
<polygon fill="#63b8ff" stroke="#63b8ff" points="100,-176.75 103.5,-186.75 107,-176.75 100,-176.75"/>
</a>
</g>
</g>
<!-- Node5 -->
<g id="Node000005" class="node">
<title>Node5</title>
<g id="a_Node000005"><a xlink:href="../../da/df8/classcache_1_1CacheUpdateTrait.html" target="_top" xlink:title="Base class for periodically updated caches.">
<polygon fill="white" stroke="#666666" points="362,-151 225,-151 225,-132 362,-132 362,-151"/>
<text text-anchor="middle" x="293.5" y="-139" font-family="Helvetica,sans-Serif" font-size="10.00">cache::CacheUpdateTrait</text>
</a>
</g>
</g>
<!-- Node5&#45;&gt;Node2 -->
<g id="edge4_Node000002_Node000005" class="edge">
<title>Node5&#45;&gt;Node2</title>
<g id="a_edge4_Node000002_Node000005"><a xlink:title=" ">
<path fill="none" stroke="darkgreen" d="M270.85,-126.55C255.92,-117.36 236.41,-105.35 221.42,-96.11"/>
<polygon fill="darkgreen" stroke="darkgreen" points="269.13,-129.6 279.48,-131.87 272.8,-123.64 269.13,-129.6"/>
</a>
</g>
</g>
</g>
</svg>
