<?xml version="1.0" encoding="UTF-8" standalone="no"?>
<!DOCTYPE svg PUBLIC "-//W3C//DTD SVG 1.1//EN"
 "http://www.w3.org/Graphics/SVG/1.1/DTD/svg11.dtd">
<!-- Generated by graphviz version 2.43.0 (0)
 -->
<!-- Title: userver/formats/bson/exception.hpp Pages: 1 -->
<svg width="1195pt" height="632pt"
 viewBox="0.00 0.00 1194.50 632.00" xmlns="http://www.w3.org/2000/svg" xmlns:xlink="http://www.w3.org/1999/xlink">
<g id="graph0" class="graph" transform="scale(1 1) rotate(0) translate(4 628)">
<title>userver/formats/bson/exception.hpp</title>
<!-- Node1 -->
<g id="Node000001" class="node">
<title>Node1</title>
<g id="a_Node000001"><a xlink:title="BSON&#45;specific exceptions.">
<polygon fill="#999999" stroke="#666666" points="1052.5,-624 931.5,-624 931.5,-594 1052.5,-594 1052.5,-624"/>
<text text-anchor="start" x="939.5" y="-612" font-family="Helvetica,sans-Serif" font-size="10.00">userver/formats/bson</text>
<text text-anchor="middle" x="992" y="-601" font-family="Helvetica,sans-Serif" font-size="10.00">/exception.hpp</text>
</a>
</g>
</g>
<!-- Node2 -->
<g id="Node000002" class="node">
<title>Node2</title>
<g id="a_Node000002"><a xlink:href="../../d3/d9f/bson_8hpp.html" target="_top" xlink:title="Include&#45;all header for BSON support.">
<polygon fill="white" stroke="#666666" points="706,-354.5 564,-354.5 564,-335.5 706,-335.5 706,-354.5"/>
<text text-anchor="middle" x="635" y="-342.5" font-family="Helvetica,sans-Serif" font-size="10.00">userver/formats/bson.hpp</text>
</a>
</g>
</g>
<!-- Node1&#45;&gt;Node2 -->
<g id="edge1_Node000001_Node000002" class="edge">
<title>Node1&#45;&gt;Node2</title>
<g id="a_edge1_Node000001_Node000002"><a xlink:title=" ">
<path fill="none" stroke="#63b8ff" d="M1012.7,-586.4C1050.1,-544.79 1120.55,-452.61 1070,-396 1022.78,-343.12 823.42,-368.18 753,-360 737.84,-358.24 721.58,-356.33 706.13,-354.5"/>
<polygon fill="#63b8ff" stroke="#63b8ff" points="1010.1,-584.06 1005.92,-593.79 1015.26,-588.79 1010.1,-584.06"/>
</a>
</g>
</g>
<!-- Node3 -->
<g id="Node000003" class="node">
<title>Node3</title>
<g id="a_Node000003"><a xlink:href="../../d5/d70/mongo_2include_2userver_2formats_2bson_2value_8hpp.html" target="_top" xlink:title="Non&#45;mutable BSON value representation.">
<polygon fill="white" stroke="#666666" points="862.5,-558 741.5,-558 741.5,-528 862.5,-528 862.5,-558"/>
<text text-anchor="start" x="749.5" y="-546" font-family="Helvetica,sans-Serif" font-size="10.00">userver/formats/bson</text>
<text text-anchor="middle" x="802" y="-535" font-family="Helvetica,sans-Serif" font-size="10.00">/value.hpp</text>
</a>
</g>
</g>
<!-- Node1&#45;&gt;Node3 -->
<g id="edge2_Node000001_Node000003" class="edge">
<title>Node1&#45;&gt;Node3</title>
<g id="a_edge2_Node000001_Node000003"><a xlink:title=" ">
<path fill="none" stroke="#63b8ff" d="M940.71,-590.72C910.27,-580.47 872.16,-567.63 843.6,-558.01"/>
<polygon fill="#63b8ff" stroke="#63b8ff" points="939.71,-594.08 950.3,-593.95 941.94,-587.45 939.71,-594.08"/>
</a>
</g>
</g>
<!-- Node3&#45;&gt;Node2 -->
<g id="edge3_Node000003_Node000002" class="edge">
<title>Node3&#45;&gt;Node2</title>
<g id="a_edge3_Node000003_Node000002"><a xlink:title=" ">
<path fill="none" stroke="#63b8ff" d="M872.7,-528.3C965.26,-507.38 1109.17,-462.73 1050,-396 1049.65,-395.6 824.81,-368.68 706.27,-354.51"/>
<polygon fill="#63b8ff" stroke="#63b8ff" points="871.8,-524.92 862.8,-530.5 873.32,-531.75 871.8,-524.92"/>
</a>
</g>
</g>
<!-- Node4 -->
<g id="Node000004" class="node">
<title>Node4</title>
<g id="a_Node000004"><a xlink:href="../../d9/d03/bson__builder_8hpp.html" target="_top" xlink:title="Internal helpers for inline document build.">
<polygon fill="white" stroke="#666666" points="317.5,-492 196.5,-492 196.5,-462 317.5,-462 317.5,-492"/>
<text text-anchor="start" x="204.5" y="-480" font-family="Helvetica,sans-Serif" font-size="10.00">userver/formats/bson</text>
<text text-anchor="middle" x="257" y="-469" font-family="Helvetica,sans-Serif" font-size="10.00">/bson_builder.hpp</text>
</a>
</g>
</g>
<!-- Node3&#45;&gt;Node4 -->
<g id="edge4_Node000003_Node000004" class="edge">
<title>Node3&#45;&gt;Node4</title>
<g id="a_edge4_Node000003_Node000004"><a xlink:title=" ">
<path fill="none" stroke="#63b8ff" d="M731.4,-535C642.54,-526 485.27,-509.44 351,-492 340.2,-490.6 328.72,-488.99 317.63,-487.37"/>
<polygon fill="#63b8ff" stroke="#63b8ff" points="731.07,-538.48 741.37,-536.01 731.77,-531.52 731.07,-538.48"/>
</a>
</g>
</g>
<!-- Node5 -->
<g id="Node000005" class="node">
<title>Node5</title>
<g id="a_Node000005"><a xlink:href="../../d1/d71/mongo_2include_2userver_2formats_2bson_2inline_8hpp.html" target="_top" xlink:title="Inline value builders.">
<polygon fill="white" stroke="#666666" points="317.5,-426 196.5,-426 196.5,-396 317.5,-396 317.5,-426"/>
<text text-anchor="start" x="204.5" y="-414" font-family="Helvetica,sans-Serif" font-size="10.00">userver/formats/bson</text>
<text text-anchor="middle" x="257" y="-403" font-family="Helvetica,sans-Serif" font-size="10.00">/inline.hpp</text>
</a>
</g>
</g>
<!-- Node3&#45;&gt;Node5 -->
<g id="edge50_Node000003_Node000005" class="edge">
<title>Node3&#45;&gt;Node5</title>
<g id="a_edge50_Node000003_Node000005"><a xlink:title=" ">
<path fill="none" stroke="#63b8ff" d="M731.02,-540.64C650.85,-537.36 517.3,-526.62 408,-492 358.51,-476.32 306.12,-444.7 277.92,-426.25"/>
<polygon fill="#63b8ff" stroke="#63b8ff" points="731.36,-544.15 741.49,-541.03 731.63,-537.16 731.36,-544.15"/>
</a>
</g>
</g>
<!-- Node7 -->
<g id="Node000007" class="node">
<title>Node7</title>
<g id="a_Node000007"><a xlink:href="../../d2/d54/mongo_2include_2userver_2storages_2mongo_2options_8hpp.html" target="_top" xlink:title="Query options.">
<polygon fill="white" stroke="#666666" points="178.5,-426 43.5,-426 43.5,-396 178.5,-396 178.5,-426"/>
<text text-anchor="start" x="51.5" y="-414" font-family="Helvetica,sans-Serif" font-size="10.00">userver/storages/mongo</text>
<text text-anchor="middle" x="111" y="-403" font-family="Helvetica,sans-Serif" font-size="10.00">/options.hpp</text>
</a>
</g>
</g>
<!-- Node3&#45;&gt;Node7 -->
<g id="edge55_Node000003_Node000007" class="edge">
<title>Node3&#45;&gt;Node7</title>
<g id="a_edge55_Node000003_Node000007"><a xlink:title=" ">
<path fill="none" stroke="#63b8ff" d="M731.12,-542.45C590.67,-542.33 282.45,-536.8 188,-492 157.35,-477.46 132.45,-445.1 119.88,-426.3"/>
<polygon fill="#63b8ff" stroke="#63b8ff" points="731.34,-545.95 741.34,-542.45 731.34,-538.95 731.34,-545.95"/>
</a>
</g>
</g>
<!-- Node10 -->
<g id="Node000010" class="node">
<title>Node10</title>
<g id="a_Node000010"><a xlink:href="../../d4/db6/collection_8hpp.html" target="_top" xlink:title="MongoDB collection handle, the main way to operate with MongoDB.">
<polygon fill="white" stroke="#666666" points="889.5,-228 754.5,-228 754.5,-198 889.5,-198 889.5,-228"/>
<text text-anchor="start" x="762.5" y="-216" font-family="Helvetica,sans-Serif" font-size="10.00">userver/storages/mongo</text>
<text text-anchor="middle" x="822" y="-205" font-family="Helvetica,sans-Serif" font-size="10.00">/collection.hpp</text>
</a>
</g>
</g>
<!-- Node3&#45;&gt;Node10 -->
<g id="edge53_Node000003_Node000010" class="edge">
<title>Node3&#45;&gt;Node10</title>
<g id="a_edge53_Node000003_Node000010"><a xlink:title=" ">
<path fill="none" stroke="#63b8ff" d="M872.86,-538.9C926.74,-534.1 1001.34,-522.04 1060,-492 1106.18,-468.35 1145,-463.88 1145,-412 1145,-412 1145,-412 1145,-344 1145,-301.1 1126.87,-287.52 1091,-264 1058.58,-242.74 958.12,-228.26 889.58,-220.56"/>
<polygon fill="#63b8ff" stroke="#63b8ff" points="872.39,-535.43 862.72,-539.74 872.97,-542.41 872.39,-535.43"/>
</a>
</g>
</g>
<!-- Node17 -->
<g id="Node000017" class="node">
<title>Node17</title>
<g id="a_Node000017"><a xlink:href="../../de/d6b/mongo_2include_2userver_2storages_2mongo_2operations_8hpp.html" target="_top" xlink:title="Collection operation models.">
<polygon fill="white" stroke="#666666" points="469.5,-360 334.5,-360 334.5,-330 469.5,-330 469.5,-360"/>
<text text-anchor="start" x="342.5" y="-348" font-family="Helvetica,sans-Serif" font-size="10.00">userver/storages/mongo</text>
<text text-anchor="middle" x="402" y="-337" font-family="Helvetica,sans-Serif" font-size="10.00">/operations.hpp</text>
</a>
</g>
</g>
<!-- Node3&#45;&gt;Node17 -->
<g id="edge54_Node000003_Node000017" class="edge">
<title>Node3&#45;&gt;Node17</title>
<g id="a_edge54_Node000003_Node000017"><a xlink:title=" ">
<path fill="none" stroke="#63b8ff" d="M731.2,-539.31C645.42,-534.72 507.37,-522.69 467,-492 423.49,-458.92 408.45,-390.29 403.83,-360.42"/>
<polygon fill="#63b8ff" stroke="#63b8ff" points="731.22,-542.81 741.39,-539.83 731.58,-535.82 731.22,-542.81"/>
</a>
</g>
</g>
<!-- Node18 -->
<g id="Node000018" class="node">
<title>Node18</title>
<g id="a_Node000018"><a xlink:href="../../dd/d39/document_8hpp.html" target="_top" xlink:title="BSON document.">
<polygon fill="white" stroke="#666666" points="596.5,-492 475.5,-492 475.5,-462 596.5,-462 596.5,-492"/>
<text text-anchor="start" x="483.5" y="-480" font-family="Helvetica,sans-Serif" font-size="10.00">userver/formats/bson</text>
<text text-anchor="middle" x="536" y="-469" font-family="Helvetica,sans-Serif" font-size="10.00">/document.hpp</text>
</a>
</g>
</g>
<!-- Node3&#45;&gt;Node18 -->
<g id="edge29_Node000003_Node000018" class="edge">
<title>Node3&#45;&gt;Node18</title>
<g id="a_edge29_Node000003_Node000018"><a xlink:title=" ">
<path fill="none" stroke="#63b8ff" d="M733.77,-525.58C690.58,-515.19 635.35,-501.9 594.24,-492.01"/>
<polygon fill="#63b8ff" stroke="#63b8ff" points="733.08,-529.02 743.63,-527.95 734.72,-522.21 733.08,-529.02"/>
</a>
</g>
</g>
<!-- Node20 -->
<g id="Node000020" class="node">
<title>Node20</title>
<g id="a_Node000020"><a xlink:href="../../d6/de5/mongo_2include_2userver_2formats_2bson_2serialize_8hpp.html" target="_top" xlink:title="Textual serialization helpers.">
<polygon fill="white" stroke="#666666" points="1040.5,-426 919.5,-426 919.5,-396 1040.5,-396 1040.5,-426"/>
<text text-anchor="start" x="927.5" y="-414" font-family="Helvetica,sans-Serif" font-size="10.00">userver/formats/bson</text>
<text text-anchor="middle" x="980" y="-403" font-family="Helvetica,sans-Serif" font-size="10.00">/serialize.hpp</text>
</a>
</g>
</g>
<!-- Node3&#45;&gt;Node20 -->
<g id="edge51_Node000003_Node000020" class="edge">
<title>Node3&#45;&gt;Node20</title>
<g id="a_edge51_Node000003_Node000020"><a xlink:title=" ">
<path fill="none" stroke="#63b8ff" d="M829.59,-521.85C865.93,-495.31 928.95,-449.28 960.64,-426.14"/>
<polygon fill="#63b8ff" stroke="#63b8ff" points="827.4,-519.12 821.39,-527.84 831.53,-524.77 827.4,-519.12"/>
</a>
</g>
</g>
<!-- Node21 -->
<g id="Node000021" class="node">
<title>Node21</title>
<g id="a_Node000021"><a xlink:href="../../dc/d8c/mongo_2include_2userver_2formats_2bson_2value__builder_8hpp.html" target="_top" xlink:title="Builder for BSON.">
<polygon fill="white" stroke="#666666" points="862.5,-426 741.5,-426 741.5,-396 862.5,-396 862.5,-426"/>
<text text-anchor="start" x="749.5" y="-414" font-family="Helvetica,sans-Serif" font-size="10.00">userver/formats/bson</text>
<text text-anchor="middle" x="802" y="-403" font-family="Helvetica,sans-Serif" font-size="10.00">/value_builder.hpp</text>
</a>
</g>
</g>
<!-- Node3&#45;&gt;Node21 -->
<g id="edge52_Node000003_Node000021" class="edge">
<title>Node3&#45;&gt;Node21</title>
<g id="a_edge52_Node000003_Node000021"><a xlink:title=" ">
<path fill="none" stroke="#63b8ff" d="M802,-517.68C802,-490.7 802,-448.11 802,-426.14"/>
<polygon fill="#63b8ff" stroke="#63b8ff" points="798.5,-517.84 802,-527.84 805.5,-517.84 798.5,-517.84"/>
</a>
</g>
</g>
<!-- Node24 -->
<g id="Node000024" class="node">
<title>Node24</title>
<g id="a_Node000024"><a xlink:href="../../d7/d6e/write__result_8hpp_source.html" target="_top" xlink:title=" ">
<polygon fill="white" stroke="#666666" points="1081.5,-294 946.5,-294 946.5,-264 1081.5,-264 1081.5,-294"/>
<text text-anchor="start" x="954.5" y="-282" font-family="Helvetica,sans-Serif" font-size="10.00">userver/storages/mongo</text>
<text text-anchor="middle" x="1014" y="-271" font-family="Helvetica,sans-Serif" font-size="10.00">/write_result.hpp</text>
</a>
</g>
</g>
<!-- Node3&#45;&gt;Node24 -->
<g id="edge56_Node000003_Node000024" class="edge">
<title>Node3&#45;&gt;Node24</title>
<g id="a_edge56_Node000003_Node000024"><a xlink:title=" ">
<path fill="none" stroke="#63b8ff" d="M872.94,-540.99C921.49,-537.05 985.13,-525.17 1031,-492 1068.32,-465.02 1080.27,-440.89 1070,-396 1061.02,-356.76 1036.98,-315.35 1023.5,-294.23"/>
<polygon fill="#63b8ff" stroke="#63b8ff" points="872.55,-537.51 862.82,-541.72 873.05,-544.49 872.55,-537.51"/>
</a>
</g>
</g>
<!-- Node4&#45;&gt;Node5 -->
<g id="edge5_Node000004_Node000005" class="edge">
<title>Node4&#45;&gt;Node5</title>
<g id="a_edge5_Node000004_Node000005"><a xlink:title=" ">
<path fill="none" stroke="#63b8ff" d="M257,-451.54C257,-442.96 257,-433.61 257,-426.16"/>
<polygon fill="#63b8ff" stroke="#63b8ff" points="253.5,-451.8 257,-461.8 260.5,-451.8 253.5,-451.8"/>
</a>
</g>
</g>
<!-- Node4&#45;&gt;Node7 -->
<g id="edge8_Node000004_Node000007" class="edge">
<title>Node4&#45;&gt;Node7</title>
<g id="a_edge8_Node000004_Node000007"><a xlink:title=" ">
<path fill="none" stroke="#63b8ff" d="M215.75,-457.92C192.68,-447.8 164.34,-435.38 142.97,-426.01"/>
<polygon fill="#63b8ff" stroke="#63b8ff" points="214.4,-461.15 224.96,-461.95 217.21,-454.73 214.4,-461.15"/>
</a>
</g>
</g>
<!-- Node5&#45;&gt;Node2 -->
<g id="edge7_Node000005_Node000002" class="edge">
<title>Node5&#45;&gt;Node2</title>
<g id="a_edge7_Node000005_Node000002"><a xlink:title=" ">
<path fill="none" stroke="#63b8ff" d="M328.01,-397.98C402.84,-385.31 518.79,-365.68 584.7,-354.52"/>
<polygon fill="#63b8ff" stroke="#63b8ff" points="327.01,-394.6 317.73,-399.72 328.18,-401.5 327.01,-394.6"/>
</a>
</g>
</g>
<!-- Node6 -->
<g id="Node000006" class="node">
<title>Node6</title>
<g id="a_Node000006"><a xlink:href="../../dd/d6c/base__mongo__cache_8hpp.html" target="_top" xlink:title="Base class for all caches polling mongo collection">
<polygon fill="white" stroke="#666666" points="409.5,-162 298.5,-162 298.5,-132 409.5,-132 409.5,-162"/>
<text text-anchor="start" x="306.5" y="-150" font-family="Helvetica,sans-Serif" font-size="10.00">userver/cache/base</text>
<text text-anchor="middle" x="354" y="-139" font-family="Helvetica,sans-Serif" font-size="10.00">_mongo_cache.hpp</text>
</a>
</g>
</g>
<!-- Node5&#45;&gt;Node6 -->
<g id="edge6_Node000005_Node000006" class="edge">
<title>Node5&#45;&gt;Node6</title>
<g id="a_edge6_Node000005_Node000006"><a xlink:title=" ">
<path fill="none" stroke="#63b8ff" d="M255.61,-385.75C254.36,-344.32 256.72,-258.51 292,-198 300.71,-183.07 315.69,-170.8 328.75,-162.15"/>
<polygon fill="#63b8ff" stroke="#63b8ff" points="252.13,-386.13 256.03,-395.98 259.12,-385.84 252.13,-386.13"/>
</a>
</g>
</g>
<!-- Node7&#45;&gt;Node6 -->
<g id="edge9_Node000007_Node000006" class="edge">
<title>Node7&#45;&gt;Node6</title>
<g id="a_edge9_Node000007_Node000006"><a xlink:title=" ">
<path fill="none" stroke="#63b8ff" d="M97.67,-386.73C82.06,-356.06 61.29,-301.63 86,-264 133.04,-192.38 234.77,-164.77 298.48,-154.27"/>
<polygon fill="#63b8ff" stroke="#63b8ff" points="94.71,-388.61 102.49,-395.79 100.89,-385.32 94.71,-388.61"/>
</a>
</g>
</g>
<!-- Node8 -->
<g id="Node000008" class="node">
<title>Node8</title>
<g id="a_Node000008"><a xlink:href="../../d2/d86/mongo_8hpp.html" target="_top" xlink:title="Include&#45;all header for MongoDB client.">
<polygon fill="white" stroke="#666666" points="804,-90.5 648,-90.5 648,-71.5 804,-71.5 804,-90.5"/>
<text text-anchor="middle" x="726" y="-78.5" font-family="Helvetica,sans-Serif" font-size="10.00">userver/storages/mongo.hpp</text>
</a>
</g>
</g>
<!-- Node7&#45;&gt;Node8 -->
<g id="edge10_Node000007_Node000008" class="edge">
<title>Node7&#45;&gt;Node8</title>
<g id="a_edge10_Node000007_Node000008"><a xlink:title=" ">
<path fill="none" stroke="#63b8ff" d="M77.94,-390.31C45.22,-368.04 0,-328.49 0,-280 0,-280 0,-280 0,-212 0,-97.03 133.53,-155.87 246,-132 385.74,-102.35 552.26,-90.01 647.9,-85.08"/>
<polygon fill="#63b8ff" stroke="#63b8ff" points="76.09,-393.29 86.37,-395.86 79.94,-387.44 76.09,-393.29"/>
</a>
</g>
</g>
<!-- Node9 -->
<g id="Node000009" class="node">
<title>Node9</title>
<g id="a_Node000009"><a xlink:href="../../d5/d0f/bulk_8hpp.html" target="_top" xlink:title="Bulk collection operation model.">
<polygon fill="white" stroke="#666666" points="230.5,-294 95.5,-294 95.5,-264 230.5,-264 230.5,-294"/>
<text text-anchor="start" x="103.5" y="-282" font-family="Helvetica,sans-Serif" font-size="10.00">userver/storages/mongo</text>
<text text-anchor="middle" x="163" y="-271" font-family="Helvetica,sans-Serif" font-size="10.00">/bulk.hpp</text>
</a>
</g>
</g>
<!-- Node7&#45;&gt;Node9 -->
<g id="edge11_Node000007_Node000009" class="edge">
<title>Node7&#45;&gt;Node9</title>
<g id="a_edge11_Node000007_Node000009"><a xlink:title=" ">
<path fill="none" stroke="#63b8ff" d="M98.6,-386.49C91.67,-369.95 86.05,-347.69 95,-330 102.94,-314.31 118.38,-302.34 132.54,-294.06"/>
<polygon fill="#63b8ff" stroke="#63b8ff" points="95.6,-388.35 102.97,-395.96 101.96,-385.42 95.6,-388.35"/>
</a>
</g>
</g>
<!-- Node16 -->
<g id="Node000016" class="node">
<title>Node16</title>
<g id="a_Node000016"><a xlink:href="../../d3/df1/bulk__ops_8hpp.html" target="_top" xlink:title="Bulk sub&#45;operation models.">
<polygon fill="white" stroke="#666666" points="239.5,-360 104.5,-360 104.5,-330 239.5,-330 239.5,-360"/>
<text text-anchor="start" x="112.5" y="-348" font-family="Helvetica,sans-Serif" font-size="10.00">userver/storages/mongo</text>
<text text-anchor="middle" x="172" y="-337" font-family="Helvetica,sans-Serif" font-size="10.00">/bulk_ops.hpp</text>
</a>
</g>
</g>
<!-- Node7&#45;&gt;Node16 -->
<g id="edge24_Node000007_Node000016" class="edge">
<title>Node7&#45;&gt;Node16</title>
<g id="a_edge24_Node000007_Node000016"><a xlink:title=" ">
<path fill="none" stroke="#63b8ff" d="M131.62,-388.37C140.49,-379.06 150.61,-368.44 158.5,-360.16"/>
<polygon fill="#63b8ff" stroke="#63b8ff" points="128.9,-386.14 124.54,-395.8 133.97,-390.97 128.9,-386.14"/>
</a>
</g>
</g>
<!-- Node7&#45;&gt;Node17 -->
<g id="edge26_Node000007_Node000017" class="edge">
<title>Node7&#45;&gt;Node17</title>
<g id="a_edge26_Node000007_Node000017"><a xlink:title=" ">
<path fill="none" stroke="#63b8ff" d="M184.75,-393.78C232.12,-383.36 293.03,-369.97 338.29,-360.01"/>
<polygon fill="#63b8ff" stroke="#63b8ff" points="183.88,-390.39 174.86,-395.95 185.38,-397.23 183.88,-390.39"/>
</a>
</g>
</g>
<!-- Node9&#45;&gt;Node8 -->
<g id="edge12_Node000009_Node000008" class="edge">
<title>Node9&#45;&gt;Node8</title>
<g id="a_edge12_Node000009_Node000008"><a xlink:title=" ">
<path fill="none" stroke="#63b8ff" d="M175.72,-254.6C195.35,-221.05 236.43,-160.2 290,-132 350.34,-100.24 539.46,-88.45 647.77,-84.23"/>
<polygon fill="#63b8ff" stroke="#63b8ff" points="172.45,-253.26 170.54,-263.68 178.53,-256.73 172.45,-253.26"/>
</a>
</g>
</g>
<!-- Node9&#45;&gt;Node10 -->
<g id="edge13_Node000009_Node000010" class="edge">
<title>Node9&#45;&gt;Node10</title>
<g id="a_edge13_Node000009_Node000010"><a xlink:title=" ">
<path fill="none" stroke="#63b8ff" d="M241.03,-270.42C371.36,-257.77 631.12,-232.54 754.25,-220.58"/>
<polygon fill="#63b8ff" stroke="#63b8ff" points="240.35,-266.97 230.73,-271.42 241.03,-273.94 240.35,-266.97"/>
</a>
</g>
</g>
<!-- Node10&#45;&gt;Node6 -->
<g id="edge14_Node000010_Node000006" class="edge">
<title>Node10&#45;&gt;Node6</title>
<g id="a_edge14_Node000010_Node000006"><a xlink:title=" ">
<path fill="none" stroke="#63b8ff" d="M744.39,-201.39C650.01,-188.48 493.05,-167.02 409.81,-155.63"/>
<polygon fill="#63b8ff" stroke="#63b8ff" points="744.07,-204.87 754.45,-202.76 745.02,-197.94 744.07,-204.87"/>
</a>
</g>
</g>
<!-- Node10&#45;&gt;Node8 -->
<g id="edge15_Node000010_Node000008" class="edge">
<title>Node10&#45;&gt;Node8</title>
<g id="a_edge15_Node000010_Node000008"><a xlink:title=" ">
<path fill="none" stroke="#63b8ff" d="M805.38,-189.49C783.81,-160.29 747.22,-110.74 732.46,-90.75"/>
<polygon fill="#63b8ff" stroke="#63b8ff" points="802.79,-191.88 811.54,-197.84 808.42,-187.72 802.79,-191.88"/>
</a>
</g>
</g>
<!-- Node11 -->
<g id="Node000011" class="node">
<title>Node11</title>
<g id="a_Node000011"><a xlink:href="../../d5/d93/mongo_2include_2userver_2storages_2mongo_2dist__lock__component__base_8hpp.html" target="_top" xlink:title="Base class for mongo&#45;based distlock worker components.">
<polygon fill="white" stroke="#666666" points="1186.5,-96 1013.5,-96 1013.5,-66 1186.5,-66 1186.5,-96"/>
<text text-anchor="start" x="1021.5" y="-84" font-family="Helvetica,sans-Serif" font-size="10.00">userver/storages/mongo</text>
<text text-anchor="middle" x="1100" y="-73" font-family="Helvetica,sans-Serif" font-size="10.00">/dist_lock_component_base.hpp</text>
</a>
</g>
</g>
<!-- Node10&#45;&gt;Node11 -->
<g id="edge16_Node000010_Node000011" class="edge">
<title>Node10&#45;&gt;Node11</title>
<g id="a_edge16_Node000010_Node000011"><a xlink:title=" ">
<path fill="none" stroke="#63b8ff" d="M896.32,-195.24C924.93,-187.26 957.36,-176.27 985,-162 1004.43,-151.97 1006.19,-144.68 1024,-132 1041.75,-119.36 1062.45,-105.82 1077.76,-96.02"/>
<polygon fill="#63b8ff" stroke="#63b8ff" points="895.1,-191.95 886.37,-197.94 896.94,-198.7 895.1,-191.95"/>
</a>
</g>
</g>
<!-- Node12 -->
<g id="Node000012" class="node">
<title>Node12</title>
<g id="a_Node000012"><a xlink:href="../../d6/d83/mongo_2include_2userver_2storages_2mongo_2dist__lock__strategy_8hpp_source.html" target="_top" xlink:title=" ">
<polygon fill="white" stroke="#666666" points="1167.5,-162 1032.5,-162 1032.5,-132 1167.5,-132 1167.5,-162"/>
<text text-anchor="start" x="1040.5" y="-150" font-family="Helvetica,sans-Serif" font-size="10.00">userver/storages/mongo</text>
<text text-anchor="middle" x="1100" y="-139" font-family="Helvetica,sans-Serif" font-size="10.00">/dist_lock_strategy.hpp</text>
</a>
</g>
</g>
<!-- Node10&#45;&gt;Node12 -->
<g id="edge17_Node000010_Node000012" class="edge">
<title>Node10&#45;&gt;Node12</title>
<g id="a_edge17_Node000010_Node000012"><a xlink:title=" ">
<path fill="none" stroke="#63b8ff" d="M893.03,-195.65C938.2,-185.25 996.07,-171.93 1039.13,-162.01"/>
<polygon fill="#63b8ff" stroke="#63b8ff" points="891.97,-192.3 883.01,-197.95 893.54,-199.12 891.97,-192.3"/>
</a>
</g>
</g>
<!-- Node13 -->
<g id="Node000013" class="node">
<title>Node13</title>
<g id="a_Node000013"><a xlink:href="../../d8/d62/mongo_2include_2userver_2storages_2mongo_2pool_8hpp.html" target="_top" xlink:title="MongoDB client pool.">
<polygon fill="white" stroke="#666666" points="975.5,-162 840.5,-162 840.5,-132 975.5,-132 975.5,-162"/>
<text text-anchor="start" x="848.5" y="-150" font-family="Helvetica,sans-Serif" font-size="10.00">userver/storages/mongo</text>
<text text-anchor="middle" x="908" y="-139" font-family="Helvetica,sans-Serif" font-size="10.00">/pool.hpp</text>
</a>
</g>
</g>
<!-- Node10&#45;&gt;Node13 -->
<g id="edge19_Node000010_Node000013" class="edge">
<title>Node10&#45;&gt;Node13</title>
<g id="a_edge19_Node000010_Node000013"><a xlink:title=" ">
<path fill="none" stroke="#63b8ff" d="M849.21,-191.75C862.14,-182.13 877.29,-170.86 888.97,-162.16"/>
<polygon fill="#63b8ff" stroke="#63b8ff" points="847.02,-189.02 841.09,-197.8 851.2,-194.63 847.02,-189.02"/>
</a>
</g>
</g>
<!-- Node12&#45;&gt;Node11 -->
<g id="edge18_Node000012_Node000011" class="edge">
<title>Node12&#45;&gt;Node11</title>
<g id="a_edge18_Node000012_Node000011"><a xlink:title=" ">
<path fill="none" stroke="#63b8ff" d="M1100,-121.54C1100,-112.96 1100,-103.61 1100,-96.16"/>
<polygon fill="#63b8ff" stroke="#63b8ff" points="1096.5,-121.8 1100,-131.8 1103.5,-121.8 1096.5,-121.8"/>
</a>
</g>
</g>
<!-- Node13&#45;&gt;Node8 -->
<g id="edge20_Node000013_Node000008" class="edge">
<title>Node13&#45;&gt;Node8</title>
<g id="a_edge20_Node000013_Node000008"><a xlink:title=" ">
<path fill="none" stroke="#63b8ff" d="M858.45,-128.58C823.33,-116.23 777.72,-100.19 750.22,-90.52"/>
<polygon fill="#63b8ff" stroke="#63b8ff" points="857.46,-131.94 868.06,-131.95 859.79,-125.34 857.46,-131.94"/>
</a>
</g>
</g>
<!-- Node14 -->
<g id="Node000014" class="node">
<title>Node14</title>
<g id="a_Node000014"><a xlink:href="../../d1/dd7/mongo_2include_2userver_2storages_2mongo_2component_8hpp.html" target="_top" xlink:title="MongoDB client component.">
<polygon fill="white" stroke="#666666" points="947.5,-30 812.5,-30 812.5,0 947.5,0 947.5,-30"/>
<text text-anchor="start" x="820.5" y="-18" font-family="Helvetica,sans-Serif" font-size="10.00">userver/storages/mongo</text>
<text text-anchor="middle" x="880" y="-7" font-family="Helvetica,sans-Serif" font-size="10.00">/component.hpp</text>
</a>
</g>
</g>
<!-- Node13&#45;&gt;Node14 -->
<g id="edge21_Node000013_Node000014" class="edge">
<title>Node13&#45;&gt;Node14</title>
<g id="a_edge21_Node000013_Node000014"><a xlink:title=" ">
<path fill="none" stroke="#63b8ff" d="M876.2,-125.61C866.58,-117.65 857.2,-107.62 852,-96 841.96,-73.57 856.93,-46.36 868.56,-30.15"/>
<polygon fill="#63b8ff" stroke="#63b8ff" points="874.19,-128.48 884.25,-131.8 878.46,-122.93 874.19,-128.48"/>
</a>
</g>
</g>
<!-- Node15 -->
<g id="Node000015" class="node">
<title>Node15</title>
<g id="a_Node000015"><a xlink:href="../../d2/de5/multi__mongo_8hpp_source.html" target="_top" xlink:title=" ">
<polygon fill="white" stroke="#666666" points="995.5,-96 860.5,-96 860.5,-66 995.5,-66 995.5,-96"/>
<text text-anchor="start" x="868.5" y="-84" font-family="Helvetica,sans-Serif" font-size="10.00">userver/storages/mongo</text>
<text text-anchor="middle" x="928" y="-73" font-family="Helvetica,sans-Serif" font-size="10.00">/multi_mongo.hpp</text>
</a>
</g>
</g>
<!-- Node13&#45;&gt;Node15 -->
<g id="edge22_Node000013_Node000015" class="edge">
<title>Node13&#45;&gt;Node15</title>
<g id="a_edge22_Node000013_Node000015"><a xlink:title=" ">
<path fill="none" stroke="#63b8ff" d="M915.47,-122.11C918.19,-113.38 921.19,-103.78 923.57,-96.16"/>
<polygon fill="#63b8ff" stroke="#63b8ff" points="912.08,-121.21 912.44,-131.8 918.76,-123.3 912.08,-121.21"/>
</a>
</g>
</g>
<!-- Node15&#45;&gt;Node14 -->
<g id="edge23_Node000015_Node000014" class="edge">
<title>Node15&#45;&gt;Node14</title>
<g id="a_edge23_Node000015_Node000014"><a xlink:title=" ">
<path fill="none" stroke="#63b8ff" d="M911.14,-57.53C904.32,-48.43 896.65,-38.19 890.62,-30.16"/>
<polygon fill="#63b8ff" stroke="#63b8ff" points="908.55,-59.9 917.35,-65.8 914.15,-55.7 908.55,-59.9"/>
</a>
</g>
</g>
<!-- Node16&#45;&gt;Node9 -->
<g id="edge25_Node000016_Node000009" class="edge">
<title>Node16&#45;&gt;Node9</title>
<g id="a_edge25_Node000016_Node000009"><a xlink:title=" ">
<path fill="none" stroke="#63b8ff" d="M168.6,-319.83C167.38,-311.17 166.05,-301.7 164.99,-294.16"/>
<polygon fill="#63b8ff" stroke="#63b8ff" points="165.14,-320.38 170,-329.8 172.08,-319.41 165.14,-320.38"/>
</a>
</g>
</g>
<!-- Node17&#45;&gt;Node6 -->
<g id="edge27_Node000017_Node000006" class="edge">
<title>Node17&#45;&gt;Node6</title>
<g id="a_edge27_Node000017_Node000006"><a xlink:title=" ">
<path fill="none" stroke="#63b8ff" d="M396.16,-320.16C386.07,-278.93 365.65,-195.55 357.49,-162.23"/>
<polygon fill="#63b8ff" stroke="#63b8ff" points="392.77,-321.02 398.55,-329.9 399.57,-319.36 392.77,-321.02"/>
</a>
</g>
</g>
<!-- Node17&#45;&gt;Node10 -->
<g id="edge28_Node000017_Node000010" class="edge">
<title>Node17&#45;&gt;Node10</title>
<g id="a_edge28_Node000017_Node000010"><a xlink:title=" ">
<path fill="none" stroke="#63b8ff" d="M456.94,-327C540.7,-301.07 698.8,-252.13 776.53,-228.08"/>
<polygon fill="#63b8ff" stroke="#63b8ff" points="455.86,-323.66 447.35,-329.96 457.93,-330.35 455.86,-323.66"/>
</a>
</g>
</g>
<!-- Node18&#45;&gt;Node2 -->
<g id="edge31_Node000018_Node000002" class="edge">
<title>Node18&#45;&gt;Node2</title>
<g id="a_edge31_Node000018_Node000002"><a xlink:title=" ">
<path fill="none" stroke="#63b8ff" d="M551.68,-453.64C563.15,-437.45 579.24,-415.14 594,-396 605.38,-381.25 619.24,-364.6 627.58,-354.72"/>
<polygon fill="#63b8ff" stroke="#63b8ff" points="548.72,-451.75 545.81,-461.94 554.44,-455.79 548.72,-451.75"/>
</a>
</g>
</g>
<!-- Node18&#45;&gt;Node5 -->
<g id="edge34_Node000018_Node000005" class="edge">
<title>Node18&#45;&gt;Node5</title>
<g id="a_edge34_Node000018_Node000005"><a xlink:title=" ">
<path fill="none" stroke="#63b8ff" d="M465.66,-459.87C420.13,-449.42 361.44,-435.96 317.9,-425.97"/>
<polygon fill="#63b8ff" stroke="#63b8ff" points="464.93,-463.29 475.46,-462.11 466.5,-456.47 464.93,-463.29"/>
</a>
</g>
</g>
<!-- Node18&#45;&gt;Node6 -->
<g id="edge30_Node000018_Node000006" class="edge">
<title>Node18&#45;&gt;Node6</title>
<g id="a_edge30_Node000018_Node000006"><a xlink:title=" ">
<path fill="none" stroke="#63b8ff" d="M491.68,-457.89C435.73,-434.01 344.51,-391.37 326,-360 287.32,-294.45 328.55,-197.94 346.5,-162.08"/>
<polygon fill="#63b8ff" stroke="#63b8ff" points="490.45,-461.17 501.02,-461.84 493.17,-454.72 490.45,-461.17"/>
</a>
</g>
</g>
<!-- Node18&#45;&gt;Node7 -->
<g id="edge46_Node000018_Node000007" class="edge">
<title>Node18&#45;&gt;Node7</title>
<g id="a_edge46_Node000018_Node000007"><a xlink:title=" ">
<path fill="none" stroke="#63b8ff" d="M465.14,-466.6C394.74,-457.08 283.75,-441.58 188,-426 184.92,-425.5 181.76,-424.97 178.58,-424.43"/>
<polygon fill="#63b8ff" stroke="#63b8ff" points="464.85,-470.1 475.23,-467.97 465.79,-463.16 464.85,-470.1"/>
</a>
</g>
</g>
<!-- Node18&#45;&gt;Node10 -->
<g id="edge41_Node000018_Node000010" class="edge">
<title>Node18&#45;&gt;Node10</title>
<g id="a_edge41_Node000018_Node000010"><a xlink:title=" ">
<path fill="none" stroke="#63b8ff" d="M606.8,-473.55C692.96,-469.21 831.92,-457.43 872,-426 929.43,-380.95 933.83,-328.15 899,-264 890.25,-247.89 873.83,-236.17 858.38,-228.14"/>
<polygon fill="#63b8ff" stroke="#63b8ff" points="606.39,-470.06 596.57,-474.04 606.72,-477.06 606.39,-470.06"/>
</a>
</g>
</g>
<!-- Node18&#45;&gt;Node16 -->
<g id="edge40_Node000018_Node000016" class="edge">
<title>Node18&#45;&gt;Node16</title>
<g id="a_edge40_Node000018_Node000016"><a xlink:title=" ">
<path fill="none" stroke="#63b8ff" d="M465.1,-459.95C434.96,-451.79 399.94,-440.49 370,-426 349.03,-415.85 347.87,-406.36 327,-396 295.97,-380.6 259.15,-368.49 229.18,-360.05"/>
<polygon fill="#63b8ff" stroke="#63b8ff" points="464.56,-463.43 475.12,-462.6 466.35,-456.66 464.56,-463.43"/>
</a>
</g>
</g>
<!-- Node18&#45;&gt;Node17 -->
<g id="edge45_Node000018_Node000017" class="edge">
<title>Node18&#45;&gt;Node17</title>
<g id="a_edge45_Node000018_Node000017"><a xlink:title=" ">
<path fill="none" stroke="#63b8ff" d="M513.65,-454.58C504.45,-445.74 493.7,-435.39 484,-426 460.28,-403.03 432.85,-376.21 416.49,-360.19"/>
<polygon fill="#63b8ff" stroke="#63b8ff" points="511.32,-457.19 520.95,-461.59 516.16,-452.14 511.32,-457.19"/>
</a>
</g>
</g>
<!-- Node19 -->
<g id="Node000019" class="node">
<title>Node19</title>
<g id="a_Node000019"><a xlink:href="../../db/d2e/binary_8hpp.html" target="_top" xlink:title="Binary representation helpers.">
<polygon fill="white" stroke="#666666" points="723.5,-426 602.5,-426 602.5,-396 723.5,-396 723.5,-426"/>
<text text-anchor="start" x="610.5" y="-414" font-family="Helvetica,sans-Serif" font-size="10.00">userver/formats/bson</text>
<text text-anchor="middle" x="663" y="-403" font-family="Helvetica,sans-Serif" font-size="10.00">/binary.hpp</text>
</a>
</g>
</g>
<!-- Node18&#45;&gt;Node19 -->
<g id="edge32_Node000018_Node000019" class="edge">
<title>Node18&#45;&gt;Node19</title>
<g id="a_edge32_Node000018_Node000019"><a xlink:title=" ">
<path fill="none" stroke="#63b8ff" d="M572.95,-457.38C592.83,-447.36 616.93,-435.22 635.19,-426.01"/>
<polygon fill="#63b8ff" stroke="#63b8ff" points="571.23,-454.33 563.87,-461.95 574.38,-460.58 571.23,-454.33"/>
</a>
</g>
</g>
<!-- Node18&#45;&gt;Node20 -->
<g id="edge35_Node000018_Node000020" class="edge">
<title>Node18&#45;&gt;Node20</title>
<g id="a_edge35_Node000018_Node000020"><a xlink:title=" ">
<path fill="none" stroke="#63b8ff" d="M606.72,-467.48C681.12,-458.27 801.52,-442.66 905,-426 909.71,-425.24 914.57,-424.42 919.46,-423.57"/>
<polygon fill="#63b8ff" stroke="#63b8ff" points="606.03,-464.04 596.54,-468.74 606.89,-470.99 606.03,-464.04"/>
</a>
</g>
</g>
<!-- Node18&#45;&gt;Node21 -->
<g id="edge36_Node000018_Node000021" class="edge">
<title>Node18&#45;&gt;Node21</title>
<g id="a_edge36_Node000018_Node000021"><a xlink:title=" ">
<path fill="none" stroke="#63b8ff" d="M604.23,-459.58C647.42,-449.19 702.65,-435.9 743.76,-426.01"/>
<polygon fill="#63b8ff" stroke="#63b8ff" points="603.28,-456.21 594.37,-461.95 604.92,-463.02 603.28,-456.21"/>
</a>
</g>
</g>
<!-- Node23 -->
<g id="Node000023" class="node">
<title>Node23</title>
<g id="a_Node000023"><a xlink:href="../../d7/dfb/cursor_8hpp.html" target="_top" xlink:title="Interface for MongoDB query cursors.">
<polygon fill="white" stroke="#666666" points="889.5,-294 754.5,-294 754.5,-264 889.5,-264 889.5,-294"/>
<text text-anchor="start" x="762.5" y="-282" font-family="Helvetica,sans-Serif" font-size="10.00">userver/storages/mongo</text>
<text text-anchor="middle" x="822" y="-271" font-family="Helvetica,sans-Serif" font-size="10.00">/cursor.hpp</text>
</a>
</g>
</g>
<!-- Node18&#45;&gt;Node23 -->
<g id="edge42_Node000018_Node000023" class="edge">
<title>Node18&#45;&gt;Node23</title>
<g id="a_edge42_Node000018_Node000023"><a xlink:title=" ">
<path fill="none" stroke="#63b8ff" d="M524.47,-452.62C510.68,-420.93 492.89,-364.36 522,-330 536.87,-312.45 670.49,-295.63 754.31,-286.67"/>
<polygon fill="#63b8ff" stroke="#63b8ff" points="521.4,-454.33 528.74,-461.97 527.77,-451.42 521.4,-454.33"/>
</a>
</g>
</g>
<!-- Node18&#45;&gt;Node24 -->
<g id="edge47_Node000018_Node000024" class="edge">
<title>Node18&#45;&gt;Node24</title>
<g id="a_edge47_Node000018_Node000024"><a xlink:title=" ">
<path fill="none" stroke="#63b8ff" d="M531.06,-451.89C525.93,-419.28 522.61,-361.59 555,-330 610.03,-276.34 822.63,-302.64 899,-294 914.29,-292.27 930.71,-290.32 946.22,-288.44"/>
<polygon fill="#63b8ff" stroke="#63b8ff" points="527.64,-452.67 532.82,-461.91 534.53,-451.46 527.64,-452.67"/>
</a>
</g>
</g>
<!-- Node19&#45;&gt;Node2 -->
<g id="edge33_Node000019_Node000002" class="edge">
<title>Node19&#45;&gt;Node2</title>
<g id="a_edge33_Node000019_Node000002"><a xlink:title=" ">
<path fill="none" stroke="#63b8ff" d="M652.77,-386.61C647.93,-375.56 642.45,-363.03 638.87,-354.84"/>
<polygon fill="#63b8ff" stroke="#63b8ff" points="649.57,-388.04 656.79,-395.8 655.98,-385.23 649.57,-388.04"/>
</a>
</g>
</g>
<!-- Node21&#45;&gt;Node2 -->
<g id="edge38_Node000021_Node000002" class="edge">
<title>Node21&#45;&gt;Node2</title>
<g id="a_edge38_Node000021_Node000002"><a xlink:title=" ">
<path fill="none" stroke="#63b8ff" d="M755.71,-392.26C723.59,-379.95 682.25,-364.11 657.22,-354.52"/>
<polygon fill="#63b8ff" stroke="#63b8ff" points="754.76,-395.64 765.35,-395.95 757.27,-389.11 754.76,-395.64"/>
</a>
</g>
</g>
<!-- Node21&#45;&gt;Node6 -->
<g id="edge37_Node000021_Node000006" class="edge">
<title>Node21&#45;&gt;Node6</title>
<g id="a_edge37_Node000021_Node000006"><a xlink:title=" ">
<path fill="none" stroke="#63b8ff" d="M781.75,-388.32C764.95,-371.13 739.88,-347.21 715,-330 604.18,-253.33 456.53,-189.29 389.63,-162.06"/>
<polygon fill="#63b8ff" stroke="#63b8ff" points="779.4,-390.92 788.85,-395.7 784.44,-386.07 779.4,-390.92"/>
</a>
</g>
</g>
<!-- Node22 -->
<g id="Node000022" class="node">
<title>Node22</title>
<g id="a_Node000022"><a xlink:href="../../d9/d86/mongo_2include_2userver_2formats_2bson_2serialize__duration_8hpp.html" target="_top" xlink:title="Serializers for std::chrono::duration types.">
<polygon fill="white" stroke="#666666" points="890,-360 762,-360 762,-330 890,-330 890,-360"/>
<text text-anchor="start" x="770" y="-348" font-family="Helvetica,sans-Serif" font-size="10.00">userver/formats/bson</text>
<text text-anchor="middle" x="826" y="-337" font-family="Helvetica,sans-Serif" font-size="10.00">/serialize_duration.hpp</text>
</a>
</g>
</g>
<!-- Node21&#45;&gt;Node22 -->
<g id="edge39_Node000021_Node000022" class="edge">
<title>Node21&#45;&gt;Node22</title>
<g id="a_edge39_Node000021_Node000022"><a xlink:title=" ">
<path fill="none" stroke="#63b8ff" d="M810.85,-386.39C814.16,-377.59 817.8,-367.86 820.69,-360.16"/>
<polygon fill="#63b8ff" stroke="#63b8ff" points="807.56,-385.2 807.33,-395.8 814.11,-387.66 807.56,-385.2"/>
</a>
</g>
</g>
<!-- Node23&#45;&gt;Node8 -->
<g id="edge43_Node000023_Node000008" class="edge">
<title>Node23&#45;&gt;Node8</title>
<g id="a_edge43_Node000023_Node000008"><a xlink:title=" ">
<path fill="none" stroke="#63b8ff" d="M779.47,-258.82C766.76,-251.04 754.08,-240.81 746,-228 717.62,-182.98 722.15,-114.74 724.85,-90.73"/>
<polygon fill="#63b8ff" stroke="#63b8ff" points="777.8,-261.9 788.22,-263.82 781.28,-255.82 777.8,-261.9"/>
</a>
</g>
</g>
<!-- Node23&#45;&gt;Node10 -->
<g id="edge44_Node000023_Node000010" class="edge">
<title>Node23&#45;&gt;Node10</title>
<g id="a_edge44_Node000023_Node000010"><a xlink:title=" ">
<path fill="none" stroke="#63b8ff" d="M822,-253.54C822,-244.96 822,-235.61 822,-228.16"/>
<polygon fill="#63b8ff" stroke="#63b8ff" points="818.5,-253.8 822,-263.8 825.5,-253.8 818.5,-253.8"/>
</a>
</g>
</g>
<!-- Node24&#45;&gt;Node8 -->
<g id="edge48_Node000024_Node000008" class="edge">
<title>Node24&#45;&gt;Node8</title>
<g id="a_edge48_Node000024_Node000008"><a xlink:title=" ">
<path fill="none" stroke="#63b8ff" d="M986.7,-257.68C963.76,-240.94 929.88,-216.95 899,-198 870.19,-180.32 860.46,-180.24 832,-162 795.31,-138.49 755.02,-106.09 736.44,-90.74"/>
<polygon fill="#63b8ff" stroke="#63b8ff" points="984.79,-260.62 994.92,-263.72 988.93,-254.98 984.79,-260.62"/>
</a>
</g>
</g>
<!-- Node24&#45;&gt;Node10 -->
<g id="edge49_Node000024_Node000010" class="edge">
<title>Node24&#45;&gt;Node10</title>
<g id="a_edge49_Node000024_Node000010"><a xlink:title=" ">
<path fill="none" stroke="#63b8ff" d="M962.17,-260.72C931.41,-250.47 892.9,-237.63 864.04,-228.01"/>
<polygon fill="#63b8ff" stroke="#63b8ff" points="961.27,-264.11 971.86,-263.95 963.48,-257.47 961.27,-264.11"/>
</a>
</g>
</g>
</g>
</svg>
