<?xml version="1.0" encoding="UTF-8" standalone="no"?>
<!DOCTYPE svg PUBLIC "-//W3C//DTD SVG 1.1//EN"
 "http://www.w3.org/Graphics/SVG/1.1/DTD/svg11.dtd">
<!-- Generated by graphviz version 2.43.0 (0)
 -->
<!-- Title: userver/storages/postgres/io/pg_types.hpp Pages: 1 -->
<svg width="346pt" height="159pt"
 viewBox="0.00 0.00 346.00 159.00" xmlns="http://www.w3.org/2000/svg" xmlns:xlink="http://www.w3.org/1999/xlink">
<g id="graph0" class="graph" transform="scale(1 1) rotate(0) translate(4 155)">
<title>userver/storages/postgres/io/pg_types.hpp</title>
<!-- Node1 -->
<g id="Node000001" class="node">
<title>Node1</title>
<g id="a_Node000001"><a xlink:title="Postgres&#45;specific types I/O support.">
<polygon fill="#999999" stroke="#666666" points="186.5,-151 43.5,-151 43.5,-121 186.5,-121 186.5,-151"/>
<text text-anchor="start" x="51.5" y="-139" font-family="Helvetica,sans-Serif" font-size="10.00">userver/storages/postgres</text>
<text text-anchor="middle" x="115" y="-128" font-family="Helvetica,sans-Serif" font-size="10.00">/io/pg_types.hpp</text>
</a>
</g>
</g>
<!-- Node2 -->
<g id="Node000002" class="node">
<title>Node2</title>
<g id="a_Node000002"><a xlink:title=" ">
<polygon fill="#e0e0e0" stroke="#999999" points="50,-79.5 0,-79.5 0,-60.5 50,-60.5 50,-79.5"/>
<text text-anchor="middle" x="25" y="-67.5" font-family="Helvetica,sans-Serif" font-size="10.00">cstdint</text>
</a>
</g>
</g>
<!-- Node1&#45;&gt;Node2 -->
<g id="edge1_Node000001_Node000002" class="edge">
<title>Node1&#45;&gt;Node2</title>
<g id="a_edge1_Node000001_Node000002"><a xlink:title=" ">
<path fill="none" stroke="#63b8ff" d="M95.03,-120.8C80.36,-110.37 60.49,-96.24 45.66,-85.69"/>
<polygon fill="#63b8ff" stroke="#63b8ff" points="47.35,-82.6 37.18,-79.66 43.3,-88.31 47.35,-82.6"/>
</a>
</g>
</g>
<!-- Node3 -->
<g id="Node000003" class="node">
<title>Node3</title>
<g id="a_Node000003"><a xlink:title=" ">
<polygon fill="#e0e0e0" stroke="#999999" points="112,-79.5 68,-79.5 68,-60.5 112,-60.5 112,-79.5"/>
<text text-anchor="middle" x="90" y="-67.5" font-family="Helvetica,sans-Serif" font-size="10.00">string</text>
</a>
</g>
</g>
<!-- Node1&#45;&gt;Node3 -->
<g id="edge2_Node000001_Node000003" class="edge">
<title>Node1&#45;&gt;Node3</title>
<g id="a_edge2_Node000001_Node000003"><a xlink:title=" ">
<path fill="none" stroke="#63b8ff" d="M109.45,-120.8C105.82,-111.5 101.04,-99.27 97.13,-89.26"/>
<polygon fill="#63b8ff" stroke="#63b8ff" points="100.35,-87.89 93.45,-79.84 93.83,-90.43 100.35,-87.89"/>
</a>
</g>
</g>
<!-- Node4 -->
<g id="Node000004" class="node">
<title>Node4</title>
<g id="a_Node000004"><a xlink:title=" ">
<polygon fill="#e0e0e0" stroke="#999999" points="194.5,-19 121.5,-19 121.5,0 194.5,0 194.5,-19"/>
<text text-anchor="middle" x="158" y="-7" font-family="Helvetica,sans-Serif" font-size="10.00">string_view</text>
</a>
</g>
</g>
<!-- Node1&#45;&gt;Node4 -->
<g id="edge3_Node000001_Node000004" class="edge">
<title>Node1&#45;&gt;Node4</title>
<g id="a_edge3_Node000001_Node000004"><a xlink:title=" ">
<path fill="none" stroke="#63b8ff" d="M119.93,-120.72C127.77,-98.02 143.07,-53.72 151.7,-28.75"/>
<polygon fill="#63b8ff" stroke="#63b8ff" points="155.08,-29.66 155.04,-19.07 148.47,-27.38 155.08,-29.66"/>
</a>
</g>
</g>
<!-- Node5 -->
<g id="Node000005" class="node">
<title>Node5</title>
<g id="a_Node000005"><a xlink:href="../../d4/d42/db__data__type__name_8hpp_source.html" target="_top" xlink:title=" ">
<polygon fill="white" stroke="#666666" points="338,-85 168,-85 168,-55 338,-55 338,-85"/>
<text text-anchor="start" x="176" y="-73" font-family="Helvetica,sans-Serif" font-size="10.00">userver/storages/postgres</text>
<text text-anchor="middle" x="253" y="-62" font-family="Helvetica,sans-Serif" font-size="10.00">/detail/db_data_type_name.hpp</text>
</a>
</g>
</g>
<!-- Node1&#45;&gt;Node5 -->
<g id="edge4_Node000001_Node000005" class="edge">
<title>Node1&#45;&gt;Node5</title>
<g id="a_edge4_Node000001_Node000005"><a xlink:title=" ">
<path fill="none" stroke="#63b8ff" d="M145.28,-120.95C165.33,-111.66 191.81,-99.38 213.51,-89.32"/>
<polygon fill="#63b8ff" stroke="#63b8ff" points="215.19,-92.39 222.79,-85.01 212.24,-86.04 215.19,-92.39"/>
</a>
</g>
</g>
<!-- Node5&#45;&gt;Node4 -->
<g id="edge5_Node000005_Node000004" class="edge">
<title>Node5&#45;&gt;Node4</title>
<g id="a_edge5_Node000005_Node000004"><a xlink:title=" ">
<path fill="none" stroke="#63b8ff" d="M230,-54.84C215,-45.6 195.5,-33.59 180.57,-24.4"/>
<polygon fill="#63b8ff" stroke="#63b8ff" points="182.31,-21.36 171.96,-19.09 178.64,-27.32 182.31,-21.36"/>
</a>
</g>
</g>
<!-- Node6 -->
<g id="Node000006" class="node">
<title>Node6</title>
<g id="a_Node000006"><a xlink:title=" ">
<polygon fill="#e0e0e0" stroke="#999999" points="275.5,-19 230.5,-19 230.5,0 275.5,0 275.5,-19"/>
<text text-anchor="middle" x="253" y="-7" font-family="Helvetica,sans-Serif" font-size="10.00">utility</text>
</a>
</g>
</g>
<!-- Node5&#45;&gt;Node6 -->
<g id="edge6_Node000005_Node000006" class="edge">
<title>Node5&#45;&gt;Node6</title>
<g id="a_edge6_Node000005_Node000006"><a xlink:title=" ">
<path fill="none" stroke="#63b8ff" d="M253,-54.84C253,-47.21 253,-37.7 253,-29.45"/>
<polygon fill="#63b8ff" stroke="#63b8ff" points="256.5,-29.27 253,-19.27 249.5,-29.27 256.5,-29.27"/>
</a>
</g>
</g>
</g>
</svg>
