<?xml version="1.0" encoding="UTF-8" standalone="no"?>
<!DOCTYPE svg PUBLIC "-//W3C//DTD SVG 1.1//EN"
 "http://www.w3.org/Graphics/SVG/1.1/DTD/svg11.dtd">
<!-- Generated by graphviz version 2.43.0 (0)
 -->
<!-- Title: formats::json::parser::MapParser&lt; Map, ValueParser &gt; Pages: 1 -->
<svg width="530pt" height="98pt"
 viewBox="0.00 0.00 530.00 97.50" xmlns="http://www.w3.org/2000/svg" xmlns:xlink="http://www.w3.org/1999/xlink">
<g id="graph0" class="graph" transform="scale(1 1) rotate(0) translate(4 93.5)">
<title>formats::json::parser::MapParser&lt; Map, ValueParser &gt;</title>
<!-- Node1 -->
<g id="Node000001" class="node">
<title>Node1</title>
<g id="a_Node000001"><a xlink:title=" ">
<polygon fill="#999999" stroke="#666666" points="522,-62.5 342,-62.5 342,-32.5 522,-32.5 522,-62.5"/>
<text text-anchor="start" x="350" y="-50.5" font-family="Helvetica,sans-Serif" font-size="10.00">formats::json::parser</text>
<text text-anchor="middle" x="432" y="-39.5" font-family="Helvetica,sans-Serif" font-size="10.00">::MapParser&lt; Map, ValueParser &gt;</text>
</a>
</g>
</g>
<!-- Node2 -->
<g id="Node000002" class="node">
<title>Node2</title>
<g id="a_Node000002"><a xlink:href="../../d6/da9/classformats_1_1json_1_1parser_1_1TypedParser.html" target="_top" xlink:title=" ">
<polygon fill="white" stroke="#666666" points="292.5,-89.5 167.5,-89.5 167.5,-59.5 292.5,-59.5 292.5,-89.5"/>
<text text-anchor="start" x="175.5" y="-77.5" font-family="Helvetica,sans-Serif" font-size="10.00">formats::json::parser</text>
<text text-anchor="middle" x="230" y="-66.5" font-family="Helvetica,sans-Serif" font-size="10.00">::TypedParser&lt; Map &gt;</text>
</a>
</g>
</g>
<!-- Node2&#45;&gt;Node1 -->
<g id="edge1_Node000001_Node000002" class="edge">
<title>Node2&#45;&gt;Node1</title>
<g id="a_edge1_Node000001_Node000002"><a xlink:title=" ">
<path fill="none" stroke="#63b8ff" d="M302.69,-64.82C315.43,-63.1 328.84,-61.29 341.99,-59.52"/>
<polygon fill="#63b8ff" stroke="#63b8ff" points="302.08,-61.37 292.64,-66.18 303.02,-68.31 302.08,-61.37"/>
</a>
</g>
</g>
<!-- Node3 -->
<g id="Node000003" class="node">
<title>Node3</title>
<g id="a_Node000003"><a xlink:href="../../dd/d76/classformats_1_1json_1_1parser_1_1BaseParser.html" target="_top" xlink:title="Base class for SAX parser.">
<polygon fill="white" stroke="#666666" points="118,-89.5 0,-89.5 0,-59.5 118,-59.5 118,-89.5"/>
<text text-anchor="start" x="8" y="-77.5" font-family="Helvetica,sans-Serif" font-size="10.00">formats::json::parser</text>
<text text-anchor="middle" x="59" y="-66.5" font-family="Helvetica,sans-Serif" font-size="10.00">::BaseParser</text>
</a>
</g>
</g>
<!-- Node3&#45;&gt;Node2 -->
<g id="edge2_Node000002_Node000003" class="edge">
<title>Node3&#45;&gt;Node2</title>
<g id="a_edge2_Node000002_Node000003"><a xlink:title=" ">
<path fill="none" stroke="#63b8ff" d="M128.35,-74.5C141.22,-74.5 154.62,-74.5 167.27,-74.5"/>
<polygon fill="#63b8ff" stroke="#63b8ff" points="128.16,-71 118.16,-74.5 128.16,-78 128.16,-71"/>
</a>
</g>
</g>
<!-- Node4 -->
<g id="Node000004" class="node">
<title>Node4</title>
<g id="a_Node000004"><a xlink:href="../../d7/da2/classformats_1_1json_1_1parser_1_1Subscriber.html" target="_top" xlink:title=" ">
<polygon fill="white" stroke="#bfbfbf" points="306,-41 154,-41 154,0 306,0 306,-41"/>
<text text-anchor="start" x="162" y="-29" font-family="Helvetica,sans-Serif" font-size="10.00">formats::json::parser</text>
<text text-anchor="start" x="162" y="-18" font-family="Helvetica,sans-Serif" font-size="10.00">::Subscriber&lt; Map::mapped</text>
<text text-anchor="middle" x="230" y="-7" font-family="Helvetica,sans-Serif" font-size="10.00">_type &gt;</text>
</a>
</g>
</g>
<!-- Node4&#45;&gt;Node1 -->
<g id="edge3_Node000001_Node000004" class="edge">
<title>Node4&#45;&gt;Node1</title>
<g id="a_edge3_Node000001_Node000004"><a xlink:title=" ">
<path fill="none" stroke="#63b8ff" d="M315.96,-31.97C324.48,-33.12 333.15,-34.29 341.72,-35.45"/>
<polygon fill="#63b8ff" stroke="#63b8ff" points="316.42,-28.5 306.04,-30.63 315.48,-35.44 316.42,-28.5"/>
</a>
</g>
</g>
</g>
</svg>
