<?xml version="1.0" encoding="UTF-8" standalone="no"?>
<!DOCTYPE svg PUBLIC "-//W3C//DTD SVG 1.1//EN"
 "http://www.w3.org/Graphics/SVG/1.1/DTD/svg11.dtd">
<!-- Generated by graphviz version 2.43.0 (0)
 -->
<!-- Title: userver/utest/utest.hpp Pages: 1 -->
<svg width="336pt" height="93pt"
 viewBox="0.00 0.00 335.50 93.00" xmlns="http://www.w3.org/2000/svg" xmlns:xlink="http://www.w3.org/1999/xlink">
<g id="graph0" class="graph" transform="scale(1 1) rotate(0) translate(4 89)">
<title>userver/utest/utest.hpp</title>
<!-- Node1 -->
<g id="Node000001" class="node">
<title>Node1</title>
<g id="a_Node000001"><a xlink:title="Versions of gtest macros that run tests in a coroutine environment.">
<polygon fill="#999999" stroke="#666666" points="235,-85 105,-85 105,-66 235,-66 235,-85"/>
<text text-anchor="middle" x="170" y="-73" font-family="Helvetica,sans-Serif" font-size="10.00">userver/utest/utest.hpp</text>
</a>
</g>
</g>
<!-- Node2 -->
<g id="Node000002" class="node">
<title>Node2</title>
<g id="a_Node000002"><a xlink:href="../../d7/d7c/testing_2include_2userver_2dump_2test__helpers_8hpp_source.html" target="_top" xlink:title=" ">
<polygon fill="white" stroke="#666666" points="168,-24.5 0,-24.5 0,-5.5 168,-5.5 168,-24.5"/>
<text text-anchor="middle" x="84" y="-12.5" font-family="Helvetica,sans-Serif" font-size="10.00">userver/dump/test_helpers.hpp</text>
</a>
</g>
</g>
<!-- Node1&#45;&gt;Node2 -->
<g id="edge1_Node000001_Node000002" class="edge">
<title>Node1&#45;&gt;Node2</title>
<g id="a_edge1_Node000001_Node000002"><a xlink:title=" ">
<path fill="none" stroke="#63b8ff" d="M148.92,-60.16C132.58,-49.05 110.48,-34.01 96.74,-24.67"/>
<polygon fill="#63b8ff" stroke="#63b8ff" points="147.07,-63.14 157.31,-65.87 151.01,-57.35 147.07,-63.14"/>
</a>
</g>
</g>
<!-- Node3 -->
<g id="Node000003" class="node">
<title>Node3</title>
<g id="a_Node000003"><a xlink:href="../../dd/d0e/log__capture__fixture_8hpp.html" target="_top" xlink:title="Fixture that allows to capture and extract log.">
<polygon fill="white" stroke="#666666" points="327.5,-30 186.5,-30 186.5,0 327.5,0 327.5,-30"/>
<text text-anchor="start" x="194.5" y="-18" font-family="Helvetica,sans-Serif" font-size="10.00">userver/utest/log_capture</text>
<text text-anchor="middle" x="257" y="-7" font-family="Helvetica,sans-Serif" font-size="10.00">_fixture.hpp</text>
</a>
</g>
</g>
<!-- Node1&#45;&gt;Node3 -->
<g id="edge2_Node000001_Node000003" class="edge">
<title>Node1&#45;&gt;Node3</title>
<g id="a_edge2_Node000001_Node000003"><a xlink:title=" ">
<path fill="none" stroke="#63b8ff" d="M191.52,-60.03C205.09,-50.9 222.54,-39.17 236.01,-30.11"/>
<polygon fill="#63b8ff" stroke="#63b8ff" points="189.18,-57.38 182.84,-65.87 193.09,-63.19 189.18,-57.38"/>
</a>
</g>
</g>
</g>
</svg>
