<?xml version="1.0" encoding="UTF-8" standalone="no"?>
<!DOCTYPE svg PUBLIC "-//W3C//DTD SVG 1.1//EN"
 "http://www.w3.org/Graphics/SVG/1.1/DTD/svg11.dtd">
<!-- Generated by graphviz version 2.43.0 (0)
 -->
<!-- Title: userver/urabbitmq/broker_interface.hpp Pages: 1 -->
<svg width="528pt" height="159pt"
 viewBox="0.00 0.00 527.78 159.00" xmlns="http://www.w3.org/2000/svg" xmlns:xlink="http://www.w3.org/1999/xlink">
<g id="graph0" class="graph" transform="scale(1 1) rotate(0) translate(4 155)">
<title>userver/urabbitmq/broker_interface.hpp</title>
<!-- Node1 -->
<g id="Node000001" class="node">
<title>Node1</title>
<g id="a_Node000001"><a xlink:title="A bunch of interface classes.">
<polygon fill="#999999" stroke="#666666" points="242.78,-151 102.78,-151 102.78,-121 242.78,-121 242.78,-151"/>
<text text-anchor="start" x="110.78" y="-139" font-family="Helvetica,sans-Serif" font-size="10.00">userver/urabbitmq/broker</text>
<text text-anchor="middle" x="172.78" y="-128" font-family="Helvetica,sans-Serif" font-size="10.00">_interface.hpp</text>
</a>
</g>
</g>
<!-- Node2 -->
<g id="Node000002" class="node">
<title>Node2</title>
<g id="a_Node000002"><a xlink:href="../../d7/de4/rabbitmq_8hpp.html" target="_top" xlink:title=" ">
<polygon fill="white" stroke="#666666" points="233.78,-19 111.78,-19 111.78,0 233.78,0 233.78,-19"/>
<text text-anchor="middle" x="172.78" y="-7" font-family="Helvetica,sans-Serif" font-size="10.00">userver/rabbitmq.hpp</text>
</a>
</g>
</g>
<!-- Node1&#45;&gt;Node2 -->
<g id="edge1_Node000001_Node000002" class="edge">
<title>Node1&#45;&gt;Node2</title>
<g id="a_edge1_Node000001_Node000002"><a xlink:title=" ">
<path fill="none" stroke="#63b8ff" d="M92.69,-123.98C37.7,-112.93 -20.62,-92.07 7.78,-55 20.68,-38.16 70.65,-26.25 112.25,-19.01"/>
<polygon fill="#63b8ff" stroke="#63b8ff" points="92.06,-127.42 102.54,-125.86 93.37,-120.54 92.06,-127.42"/>
</a>
</g>
</g>
<!-- Node3 -->
<g id="Node000003" class="node">
<title>Node3</title>
<g id="a_Node000003"><a xlink:href="../../d5/d95/admin__channel_8hpp.html" target="_top" xlink:title="Administrative interface for the broker.">
<polygon fill="white" stroke="#666666" points="156.78,-85 16.78,-85 16.78,-55 156.78,-55 156.78,-85"/>
<text text-anchor="start" x="24.78" y="-73" font-family="Helvetica,sans-Serif" font-size="10.00">userver/urabbitmq/admin</text>
<text text-anchor="middle" x="86.78" y="-62" font-family="Helvetica,sans-Serif" font-size="10.00">_channel.hpp</text>
</a>
</g>
</g>
<!-- Node1&#45;&gt;Node3 -->
<g id="edge2_Node000001_Node000003" class="edge">
<title>Node1&#45;&gt;Node3</title>
<g id="a_edge2_Node000001_Node000003"><a xlink:title=" ">
<path fill="none" stroke="#63b8ff" d="M145.57,-114.75C132.64,-105.13 117.49,-93.86 105.81,-85.16"/>
<polygon fill="#63b8ff" stroke="#63b8ff" points="143.58,-117.63 153.69,-120.8 147.76,-112.02 143.58,-117.63"/>
</a>
</g>
</g>
<!-- Node4 -->
<g id="Node000004" class="node">
<title>Node4</title>
<g id="a_Node000004"><a xlink:href="../../db/d20/channel_8hpp.html" target="_top" xlink:title="Publisher interface for the broker.">
<polygon fill="white" stroke="#666666" points="344.28,-79.5 175.28,-79.5 175.28,-60.5 344.28,-60.5 344.28,-79.5"/>
<text text-anchor="middle" x="259.78" y="-67.5" font-family="Helvetica,sans-Serif" font-size="10.00">userver/urabbitmq/channel.hpp</text>
</a>
</g>
</g>
<!-- Node1&#45;&gt;Node4 -->
<g id="edge4_Node000001_Node000004" class="edge">
<title>Node1&#45;&gt;Node4</title>
<g id="a_edge4_Node000001_Node000004"><a xlink:title=" ">
<path fill="none" stroke="#63b8ff" d="M200.58,-114.55C216.6,-102.76 235.9,-88.57 248.01,-79.66"/>
<polygon fill="#63b8ff" stroke="#63b8ff" points="198.07,-112.05 192.08,-120.8 202.21,-117.69 198.07,-112.05"/>
</a>
</g>
</g>
<!-- Node5 -->
<g id="Node000005" class="node">
<title>Node5</title>
<g id="a_Node000005"><a xlink:href="../../d7/dec/rabbitmq_2include_2userver_2urabbitmq_2client_8hpp.html" target="_top" xlink:title="Interface for communicating with a RabbitMQ cluster.">
<polygon fill="white" stroke="#666666" points="519.78,-79.5 361.78,-79.5 361.78,-60.5 519.78,-60.5 519.78,-79.5"/>
<text text-anchor="middle" x="440.78" y="-67.5" font-family="Helvetica,sans-Serif" font-size="10.00">userver/urabbitmq/client.hpp</text>
</a>
</g>
</g>
<!-- Node1&#45;&gt;Node5 -->
<g id="edge6_Node000001_Node000005" class="edge">
<title>Node1&#45;&gt;Node5</title>
<g id="a_edge6_Node000001_Node000005"><a xlink:title=" ">
<path fill="none" stroke="#63b8ff" d="M241.46,-118.6C293.71,-106.12 363.49,-89.46 405.11,-79.52"/>
<polygon fill="#63b8ff" stroke="#63b8ff" points="240.5,-115.23 231.59,-120.95 242.13,-122.04 240.5,-115.23"/>
</a>
</g>
</g>
<!-- Node3&#45;&gt;Node2 -->
<g id="edge3_Node000003_Node000002" class="edge">
<title>Node3&#45;&gt;Node2</title>
<g id="a_edge3_Node000003_Node000002"><a xlink:title=" ">
<path fill="none" stroke="#63b8ff" d="M116.08,-49.06C131.1,-38.85 148.6,-26.95 160.14,-19.09"/>
<polygon fill="#63b8ff" stroke="#63b8ff" points="113.89,-46.32 107.59,-54.84 117.83,-52.11 113.89,-46.32"/>
</a>
</g>
</g>
<!-- Node4&#45;&gt;Node2 -->
<g id="edge5_Node000004_Node000002" class="edge">
<title>Node4&#45;&gt;Node2</title>
<g id="a_edge5_Node000004_Node000002"><a xlink:title=" ">
<path fill="none" stroke="#63b8ff" d="M238.45,-54.66C221.92,-43.55 199.57,-28.51 185.67,-19.17"/>
<polygon fill="#63b8ff" stroke="#63b8ff" points="236.69,-57.69 246.94,-60.37 240.59,-51.88 236.69,-57.69"/>
</a>
</g>
</g>
<!-- Node5&#45;&gt;Node2 -->
<g id="edge7_Node000005_Node000002" class="edge">
<title>Node5&#45;&gt;Node2</title>
<g id="a_edge7_Node000005_Node000002"><a xlink:title=" ">
<path fill="none" stroke="#63b8ff" d="M391.86,-58.32C340.1,-47.02 259.45,-29.42 211.79,-19.02"/>
<polygon fill="#63b8ff" stroke="#63b8ff" points="391.29,-61.78 401.81,-60.49 392.78,-54.94 391.29,-61.78"/>
</a>
</g>
</g>
</g>
</svg>
