<?xml version="1.0" encoding="UTF-8" standalone="no"?>
<!DOCTYPE svg PUBLIC "-//W3C//DTD SVG 1.1//EN"
 "http://www.w3.org/Graphics/SVG/1.1/DTD/svg11.dtd">
<!-- Generated by graphviz version 2.43.0 (0)
 -->
<!-- Title: userver/ydb/dist_lock/settings.hpp Pages: 1 -->
<svg width="132pt" height="170pt"
 viewBox="0.00 0.00 132.00 170.00" xmlns="http://www.w3.org/2000/svg" xmlns:xlink="http://www.w3.org/1999/xlink">
<g id="graph0" class="graph" transform="scale(1 1) rotate(0) translate(4 166)">
<title>userver/ydb/dist_lock/settings.hpp</title>
<!-- Node1 -->
<g id="Node000001" class="node">
<title>Node1</title>
<g id="a_Node000001"><a xlink:title="A set of tweak&#45;able settings for ydb::DistLockWorker.">
<polygon fill="#999999" stroke="#666666" points="122.5,-162 1.5,-162 1.5,-132 122.5,-132 122.5,-162"/>
<text text-anchor="start" x="9.5" y="-150" font-family="Helvetica,sans-Serif" font-size="10.00">userver/ydb/dist_lock</text>
<text text-anchor="middle" x="62" y="-139" font-family="Helvetica,sans-Serif" font-size="10.00">/settings.hpp</text>
</a>
</g>
</g>
<!-- Node2 -->
<g id="Node000002" class="node">
<title>Node2</title>
<g id="a_Node000002"><a xlink:href="../../d9/d9b/worker_8hpp.html" target="_top" xlink:title=" ">
<polygon fill="white" stroke="#666666" points="122.5,-96 1.5,-96 1.5,-66 122.5,-66 122.5,-96"/>
<text text-anchor="start" x="9.5" y="-84" font-family="Helvetica,sans-Serif" font-size="10.00">userver/ydb/dist_lock</text>
<text text-anchor="middle" x="62" y="-73" font-family="Helvetica,sans-Serif" font-size="10.00">/worker.hpp</text>
</a>
</g>
</g>
<!-- Node1&#45;&gt;Node2 -->
<g id="edge1_Node000001_Node000002" class="edge">
<title>Node1&#45;&gt;Node2</title>
<g id="a_edge1_Node000001_Node000002"><a xlink:title=" ">
<path fill="none" stroke="#63b8ff" d="M62,-121.54C62,-112.96 62,-103.61 62,-96.16"/>
<polygon fill="#63b8ff" stroke="#63b8ff" points="58.5,-121.8 62,-131.8 65.5,-121.8 58.5,-121.8"/>
</a>
</g>
</g>
<!-- Node3 -->
<g id="Node000003" class="node">
<title>Node3</title>
<g id="a_Node000003"><a xlink:href="../../d5/dcf/ydb_2include_2userver_2ydb_2dist__lock_2component__base_8hpp.html" target="_top" xlink:title="Base class for YDB&#45;based distlock worker components.">
<polygon fill="white" stroke="#666666" points="124,-30 0,-30 0,0 124,0 124,-30"/>
<text text-anchor="start" x="8" y="-18" font-family="Helvetica,sans-Serif" font-size="10.00">userver/ydb/dist_lock</text>
<text text-anchor="middle" x="62" y="-7" font-family="Helvetica,sans-Serif" font-size="10.00">/component_base.hpp</text>
</a>
</g>
</g>
<!-- Node2&#45;&gt;Node3 -->
<g id="edge2_Node000002_Node000003" class="edge">
<title>Node2&#45;&gt;Node3</title>
<g id="a_edge2_Node000002_Node000003"><a xlink:title=" ">
<path fill="none" stroke="#63b8ff" d="M62,-55.54C62,-46.96 62,-37.61 62,-30.16"/>
<polygon fill="#63b8ff" stroke="#63b8ff" points="58.5,-55.8 62,-65.8 65.5,-55.8 58.5,-55.8"/>
</a>
</g>
</g>
</g>
</svg>
