<?xml version="1.0" encoding="UTF-8" standalone="no"?>
<!DOCTYPE svg PUBLIC "-//W3C//DTD SVG 1.1//EN"
 "http://www.w3.org/Graphics/SVG/1.1/DTD/svg11.dtd">
<!-- Generated by graphviz version 2.43.0 (0)
 -->
<!-- Title: formats::json::parser::ArrayParser&lt; Item, ItemParser, Array &gt; Pages: 1 -->
<svg width="264pt" height="260pt"
 viewBox="0.00 0.00 263.50 260.00" xmlns="http://www.w3.org/2000/svg" xmlns:xlink="http://www.w3.org/1999/xlink">
<g id="graph0" class="graph" transform="scale(1 1) rotate(0) translate(4 256)">
<title>formats::json::parser::ArrayParser&lt; Item, ItemParser, Array &gt;</title>
<!-- Node1 -->
<g id="Node000001" class="node">
<title>Node1</title>
<g id="a_Node000001"><a xlink:title=" ">
<polygon fill="#999999" stroke="#666666" points="186,-41 68,-41 68,0 186,0 186,-41"/>
<text text-anchor="start" x="76" y="-29" font-family="Helvetica,sans-Serif" font-size="10.00">formats::json::parser</text>
<text text-anchor="start" x="76" y="-18" font-family="Helvetica,sans-Serif" font-size="10.00">::ArrayParser&lt; Item,</text>
<text text-anchor="middle" x="127" y="-7" font-family="Helvetica,sans-Serif" font-size="10.00"> ItemParser, Array &gt;</text>
</a>
</g>
</g>
<!-- Node2 -->
<g id="Node000002" class="node">
<title>Node2</title>
<g id="a_Node000002"><a xlink:href="../../d6/da9/classformats_1_1json_1_1parser_1_1TypedParser.html" target="_top" xlink:title="Main base class for SAX parsers.">
<polygon fill="white" stroke="#666666" points="118,-108 0,-108 0,-78 118,-78 118,-108"/>
<text text-anchor="start" x="8" y="-96" font-family="Helvetica,sans-Serif" font-size="10.00">formats::json::parser</text>
<text text-anchor="middle" x="59" y="-85" font-family="Helvetica,sans-Serif" font-size="10.00">::TypedParser&lt; T &gt;</text>
</a>
</g>
</g>
<!-- Node2&#45;&gt;Node1 -->
<g id="edge1_Node000001_Node000002" class="edge">
<title>Node2&#45;&gt;Node1</title>
<g id="a_edge1_Node000001_Node000002"><a xlink:title=" ">
<path fill="none" stroke="#63b8ff" d="M79.91,-70.32C88.91,-60.99 99.35,-50.17 108.11,-41.09"/>
<polygon fill="#63b8ff" stroke="#63b8ff" points="77.18,-68.11 72.76,-77.73 82.22,-72.97 77.18,-68.11"/>
</a>
</g>
</g>
<!-- Node3 -->
<g id="Node000003" class="node">
<title>Node3</title>
<g id="a_Node000003"><a xlink:href="../../dd/d76/classformats_1_1json_1_1parser_1_1BaseParser.html" target="_top" xlink:title="Base class for SAX parser.">
<polygon fill="white" stroke="#666666" points="118,-175 0,-175 0,-145 118,-145 118,-175"/>
<text text-anchor="start" x="8" y="-163" font-family="Helvetica,sans-Serif" font-size="10.00">formats::json::parser</text>
<text text-anchor="middle" x="59" y="-152" font-family="Helvetica,sans-Serif" font-size="10.00">::BaseParser</text>
</a>
</g>
</g>
<!-- Node3&#45;&gt;Node2 -->
<g id="edge2_Node000002_Node000003" class="edge">
<title>Node3&#45;&gt;Node2</title>
<g id="a_edge2_Node000002_Node000003"><a xlink:title=" ">
<path fill="none" stroke="#63b8ff" d="M59,-134.61C59,-125.65 59,-115.82 59,-108.08"/>
<polygon fill="#63b8ff" stroke="#63b8ff" points="55.5,-134.9 59,-144.9 62.5,-134.9 55.5,-134.9"/>
</a>
</g>
</g>
<!-- Node4 -->
<g id="Node000004" class="node">
<title>Node4</title>
<g id="a_Node000004"><a xlink:href="../../d9/d49/classformats_1_1json_1_1parser_1_1ParserState.html" target="_top" xlink:title=" ">
<polygon fill="white" stroke="#bfbfbf" points="118,-252 0,-252 0,-222 118,-222 118,-252"/>
<text text-anchor="start" x="8" y="-240" font-family="Helvetica,sans-Serif" font-size="10.00">formats::json::parser</text>
<text text-anchor="middle" x="59" y="-229" font-family="Helvetica,sans-Serif" font-size="10.00">::ParserState</text>
</a>
</g>
</g>
<!-- Node4&#45;&gt;Node3 -->
<g id="edge3_Node000003_Node000004" class="edge">
<title>Node4&#45;&gt;Node3</title>
<g id="a_edge3_Node000003_Node000004"><a xlink:title=" ">
<path fill="none" stroke="#9a32cd" stroke-dasharray="5,2" d="M59,-211.54C59,-199.45 59,-185.29 59,-175.04"/>
<polygon fill="#9a32cd" stroke="#9a32cd" points="55.5,-211.89 59,-221.89 62.5,-211.89 55.5,-211.89"/>
</a>
</g>
<text text-anchor="middle" x="94" y="-196" font-family="Helvetica,sans-Serif" font-size="10.00" fill="grey"> parser_state_</text>
</g>
<!-- Node5 -->
<g id="Node000005" class="node">
<title>Node5</title>
<g id="a_Node000005"><a xlink:href="../../d7/da2/classformats_1_1json_1_1parser_1_1Subscriber.html" target="_top" xlink:title=" ">
<polygon fill="white" stroke="#bfbfbf" points="255.5,-108 136.5,-108 136.5,-78 255.5,-78 255.5,-108"/>
<text text-anchor="start" x="144.5" y="-96" font-family="Helvetica,sans-Serif" font-size="10.00">formats::json::parser</text>
<text text-anchor="middle" x="196" y="-85" font-family="Helvetica,sans-Serif" font-size="10.00">::Subscriber&lt; Item &gt;</text>
</a>
</g>
</g>
<!-- Node5&#45;&gt;Node1 -->
<g id="edge4_Node000001_Node000005" class="edge">
<title>Node5&#45;&gt;Node1</title>
<g id="a_edge4_Node000001_Node000005"><a xlink:title=" ">
<path fill="none" stroke="#63b8ff" d="M174.78,-70.32C165.65,-60.99 155.06,-50.17 146.17,-41.09"/>
<polygon fill="#63b8ff" stroke="#63b8ff" points="172.54,-73.03 182.04,-77.73 177.54,-68.14 172.54,-73.03"/>
</a>
</g>
</g>
</g>
</svg>
