<?xml version="1.0" encoding="UTF-8" standalone="no"?>
<!DOCTYPE svg PUBLIC "-//W3C//DTD SVG 1.1//EN"
 "http://www.w3.org/Graphics/SVG/1.1/DTD/svg11.dtd">
<!-- Generated by graphviz version 2.43.0 (0)
 -->
<!-- Title: userver/storages/secdist/secdist.hpp Pages: 1 -->
<svg width="1267pt" height="258pt"
 viewBox="0.00 0.00 1266.50 258.00" xmlns="http://www.w3.org/2000/svg" xmlns:xlink="http://www.w3.org/1999/xlink">
<g id="graph0" class="graph" transform="scale(1 1) rotate(0) translate(4 254)">
<title>userver/storages/secdist/secdist.hpp</title>
<!-- Node1 -->
<g id="Node000001" class="node">
<title>Node1</title>
<g id="a_Node000001"><a xlink:title="Client to retrieve credentials from the components::Secdist.">
<polygon fill="#999999" stroke="#666666" points="538,-250 402,-250 402,-220 538,-220 538,-250"/>
<text text-anchor="start" x="410" y="-238" font-family="Helvetica,sans-Serif" font-size="10.00">userver/storages/secdist</text>
<text text-anchor="middle" x="470" y="-227" font-family="Helvetica,sans-Serif" font-size="10.00">/secdist.hpp</text>
</a>
</g>
</g>
<!-- Node2 -->
<g id="Node000002" class="node">
<title>Node2</title>
<g id="a_Node000002"><a xlink:href="../../de/d82/digest_2auth__checker__base_8hpp.html" target="_top" xlink:title="Base class for digest authentication checkers. Implements a digest&#45;authentication logic.">
<polygon fill="white" stroke="#666666" points="222,-184 80,-184 80,-143 222,-143 222,-184"/>
<text text-anchor="start" x="88" y="-172" font-family="Helvetica,sans-Serif" font-size="10.00">userver/server/handlers</text>
<text text-anchor="start" x="88" y="-161" font-family="Helvetica,sans-Serif" font-size="10.00">/auth/digest/auth_checker</text>
<text text-anchor="middle" x="151" y="-150" font-family="Helvetica,sans-Serif" font-size="10.00">_base.hpp</text>
</a>
</g>
</g>
<!-- Node1&#45;&gt;Node2 -->
<g id="edge1_Node000001_Node000002" class="edge">
<title>Node1&#45;&gt;Node2</title>
<g id="a_edge1_Node000001_Node000002"><a xlink:title=" ">
<path fill="none" stroke="#63b8ff" d="M395.56,-217.78C343.24,-206.38 273.68,-191.23 222.12,-179.99"/>
<polygon fill="#63b8ff" stroke="#63b8ff" points="394.93,-221.23 405.45,-219.94 396.42,-214.39 394.93,-221.23"/>
</a>
</g>
</g>
<!-- Node4 -->
<g id="Node000004" class="node">
<title>Node4</title>
<g id="a_Node000004"><a xlink:href="../../dd/d60/core_2include_2userver_2storages_2secdist_2component_8hpp.html" target="_top" xlink:title="Component that stores security related data (keys, passwords, ...).">
<polygon fill="white" stroke="#666666" points="460,-178.5 324,-178.5 324,-148.5 460,-148.5 460,-178.5"/>
<text text-anchor="start" x="332" y="-166.5" font-family="Helvetica,sans-Serif" font-size="10.00">userver/storages/secdist</text>
<text text-anchor="middle" x="392" y="-155.5" font-family="Helvetica,sans-Serif" font-size="10.00">/component.hpp</text>
</a>
</g>
</g>
<!-- Node1&#45;&gt;Node4 -->
<g id="edge3_Node000001_Node000004" class="edge">
<title>Node1&#45;&gt;Node4</title>
<g id="a_edge3_Node000001_Node000004"><a xlink:title=" ">
<path fill="none" stroke="#63b8ff" d="M446.42,-212.99C433.9,-201.84 418.86,-188.43 407.76,-178.54"/>
<polygon fill="#63b8ff" stroke="#63b8ff" points="444.42,-215.9 454.22,-219.94 449.08,-210.67 444.42,-215.9"/>
</a>
</g>
</g>
<!-- Node9 -->
<g id="Node000009" class="node">
<title>Node9</title>
<g id="a_Node000009"><a xlink:href="../../dd/d8c/provider__component_8hpp_source.html" target="_top" xlink:title=" ">
<polygon fill="white" stroke="#666666" points="619.5,-178.5 478.5,-178.5 478.5,-148.5 619.5,-148.5 619.5,-178.5"/>
<text text-anchor="start" x="486.5" y="-166.5" font-family="Helvetica,sans-Serif" font-size="10.00">userver/storages/secdist</text>
<text text-anchor="middle" x="549" y="-155.5" font-family="Helvetica,sans-Serif" font-size="10.00">/provider_component.hpp</text>
</a>
</g>
</g>
<!-- Node1&#45;&gt;Node9 -->
<g id="edge8_Node000001_Node000009" class="edge">
<title>Node1&#45;&gt;Node9</title>
<g id="a_edge8_Node000001_Node000009"><a xlink:title=" ">
<path fill="none" stroke="#63b8ff" d="M493.52,-213.31C506.27,-202.09 521.69,-188.52 533.04,-178.54"/>
<polygon fill="#63b8ff" stroke="#63b8ff" points="491.18,-210.7 485.99,-219.94 495.81,-215.96 491.18,-210.7"/>
</a>
</g>
</g>
<!-- Node10 -->
<g id="Node000010" class="node">
<title>Node10</title>
<g id="a_Node000010"><a xlink:href="../../d0/d98/client__factory_8hpp.html" target="_top" xlink:title="Creates gRPC clients.">
<polygon fill="white" stroke="#666666" points="958.5,-178.5 845.5,-178.5 845.5,-148.5 958.5,-148.5 958.5,-178.5"/>
<text text-anchor="start" x="853.5" y="-166.5" font-family="Helvetica,sans-Serif" font-size="10.00">userver/ugrpc/client</text>
<text text-anchor="middle" x="902" y="-155.5" font-family="Helvetica,sans-Serif" font-size="10.00">/client_factory.hpp</text>
</a>
</g>
</g>
<!-- Node1&#45;&gt;Node10 -->
<g id="edge9_Node000001_Node000010" class="edge">
<title>Node1&#45;&gt;Node10</title>
<g id="a_edge9_Node000001_Node000010"><a xlink:title=" ">
<path fill="none" stroke="#63b8ff" d="M548.39,-221.39C634.06,-207.61 769.24,-185.86 845.24,-173.63"/>
<polygon fill="#63b8ff" stroke="#63b8ff" points="547.77,-217.94 538.45,-222.99 548.88,-224.85 547.77,-217.94"/>
</a>
</g>
</g>
<!-- Node3 -->
<g id="Node000003" class="node">
<title>Node3</title>
<g id="a_Node000003"><a xlink:href="../../db/df0/standalone__checker_8hpp.html" target="_top" xlink:title="Class for digest authentication checker. Implements a stand&#45;alone digest&#45;authentication logic.">
<polygon fill="white" stroke="#666666" points="132,-107 0,-107 0,-66 132,-66 132,-107"/>
<text text-anchor="start" x="8" y="-95" font-family="Helvetica,sans-Serif" font-size="10.00">userver/server/handlers</text>
<text text-anchor="start" x="8" y="-84" font-family="Helvetica,sans-Serif" font-size="10.00">/auth/digest/standalone</text>
<text text-anchor="middle" x="66" y="-73" font-family="Helvetica,sans-Serif" font-size="10.00">_checker.hpp</text>
</a>
</g>
</g>
<!-- Node2&#45;&gt;Node3 -->
<g id="edge2_Node000002_Node000003" class="edge">
<title>Node2&#45;&gt;Node3</title>
<g id="a_edge2_Node000002_Node000003"><a xlink:title=" ">
<path fill="none" stroke="#63b8ff" d="M121.05,-136.07C110.23,-126.52 98.22,-115.93 88.18,-107.07"/>
<polygon fill="#63b8ff" stroke="#63b8ff" points="118.85,-138.8 128.67,-142.79 123.48,-133.55 118.85,-138.8"/>
</a>
</g>
</g>
<!-- Node5 -->
<g id="Node000005" class="node">
<title>Node5</title>
<g id="a_Node000005"><a xlink:href="../../da/db3/auth__checker__settings__component_8hpp.html" target="_top" xlink:title="Component that loads auth configuration settings from a components::Secdist component if the latter w...">
<polygon fill="white" stroke="#666666" points="303.5,-107 150.5,-107 150.5,-66 303.5,-66 303.5,-107"/>
<text text-anchor="start" x="158.5" y="-95" font-family="Helvetica,sans-Serif" font-size="10.00">userver/server/handlers</text>
<text text-anchor="start" x="158.5" y="-84" font-family="Helvetica,sans-Serif" font-size="10.00">/auth/auth_checker_settings</text>
<text text-anchor="middle" x="227" y="-73" font-family="Helvetica,sans-Serif" font-size="10.00">_component.hpp</text>
</a>
</g>
</g>
<!-- Node4&#45;&gt;Node5 -->
<g id="edge4_Node000004_Node000005" class="edge">
<title>Node4&#45;&gt;Node5</title>
<g id="a_edge4_Node000004_Node000005"><a xlink:title=" ">
<path fill="none" stroke="#63b8ff" d="M351.84,-144.25C327.07,-132.99 295.32,-118.56 270.04,-107.06"/>
<polygon fill="#63b8ff" stroke="#63b8ff" points="350.41,-147.44 360.96,-148.39 353.31,-141.07 350.41,-147.44"/>
</a>
</g>
</g>
<!-- Node6 -->
<g id="Node000006" class="node">
<title>Node6</title>
<g id="a_Node000006"><a xlink:href="../../d8/d82/core_2include_2userver_2server_2server_8hpp_source.html" target="_top" xlink:title=" ">
<polygon fill="white" stroke="#666666" points="462.5,-96 321.5,-96 321.5,-77 462.5,-77 462.5,-96"/>
<text text-anchor="middle" x="392" y="-84" font-family="Helvetica,sans-Serif" font-size="10.00">userver/server/server.hpp</text>
</a>
</g>
</g>
<!-- Node4&#45;&gt;Node6 -->
<g id="edge5_Node000004_Node000006" class="edge">
<title>Node4&#45;&gt;Node6</title>
<g id="a_edge5_Node000004_Node000006"><a xlink:title=" ">
<path fill="none" stroke="#63b8ff" d="M392,-138.18C392,-123.86 392,-106.61 392,-96.37"/>
<polygon fill="#63b8ff" stroke="#63b8ff" points="388.5,-138.39 392,-148.39 395.5,-138.39 388.5,-138.39"/>
</a>
</g>
</g>
<!-- Node8 -->
<g id="Node000008" class="node">
<title>Node8</title>
<g id="a_Node000008"><a xlink:href="../../d1/dd7/mongo_2include_2userver_2storages_2mongo_2component_8hpp.html" target="_top" xlink:title="MongoDB client component.">
<polygon fill="white" stroke="#666666" points="615.5,-101.5 480.5,-101.5 480.5,-71.5 615.5,-71.5 615.5,-101.5"/>
<text text-anchor="start" x="488.5" y="-89.5" font-family="Helvetica,sans-Serif" font-size="10.00">userver/storages/mongo</text>
<text text-anchor="middle" x="548" y="-78.5" font-family="Helvetica,sans-Serif" font-size="10.00">/component.hpp</text>
</a>
</g>
</g>
<!-- Node4&#45;&gt;Node8 -->
<g id="edge7_Node000004_Node000008" class="edge">
<title>Node4&#45;&gt;Node8</title>
<g id="a_edge7_Node000004_Node000008"><a xlink:title=" ">
<path fill="none" stroke="#63b8ff" d="M430.6,-143.94C457.88,-130.83 493.88,-113.52 518.79,-101.54"/>
<polygon fill="#63b8ff" stroke="#63b8ff" points="428.84,-140.91 421.34,-148.39 431.87,-147.21 428.84,-140.91"/>
</a>
</g>
</g>
<!-- Node7 -->
<g id="Node000007" class="node">
<title>Node7</title>
<g id="a_Node000007"><a xlink:href="../../d3/ddd/core_2include_2userver_2server_2component_8hpp.html" target="_top" xlink:title="Component that listens for incoming requests, manages incoming connections and passes the requests to...">
<polygon fill="white" stroke="#666666" points="475,-24.5 309,-24.5 309,-5.5 475,-5.5 475,-24.5"/>
<text text-anchor="middle" x="392" y="-12.5" font-family="Helvetica,sans-Serif" font-size="10.00">userver/server/component.hpp</text>
</a>
</g>
</g>
<!-- Node6&#45;&gt;Node7 -->
<g id="edge6_Node000006_Node000007" class="edge">
<title>Node6&#45;&gt;Node7</title>
<g id="a_edge6_Node000006_Node000007"><a xlink:title=" ">
<path fill="none" stroke="#63b8ff" d="M392,-66.71C392,-53 392,-35.05 392,-24.59"/>
<polygon fill="#63b8ff" stroke="#63b8ff" points="388.5,-66.98 392,-76.98 395.5,-66.98 388.5,-66.98"/>
</a>
</g>
</g>
<!-- Node11 -->
<g id="Node000011" class="node">
<title>Node11</title>
<g id="a_Node000011"><a xlink:href="../../da/dd3/client__factory__component_8hpp.html" target="_top" xlink:title="Provides a ClientFactory in the component system.">
<polygon fill="white" stroke="#666666" points="800.5,-101.5 633.5,-101.5 633.5,-71.5 800.5,-71.5 800.5,-101.5"/>
<text text-anchor="start" x="641.5" y="-89.5" font-family="Helvetica,sans-Serif" font-size="10.00">userver/ugrpc/client</text>
<text text-anchor="middle" x="717" y="-78.5" font-family="Helvetica,sans-Serif" font-size="10.00">/client_factory_component.hpp</text>
</a>
</g>
</g>
<!-- Node10&#45;&gt;Node11 -->
<g id="edge10_Node000010_Node000011" class="edge">
<title>Node10&#45;&gt;Node11</title>
<g id="a_edge10_Node000010_Node000011"><a xlink:title=" ">
<path fill="none" stroke="#63b8ff" d="M857.92,-144.63C825.37,-131.43 781.7,-113.73 751.64,-101.54"/>
<polygon fill="#63b8ff" stroke="#63b8ff" points="856.62,-147.88 867.2,-148.39 859.25,-141.39 856.62,-147.88"/>
</a>
</g>
</g>
<!-- Node12 -->
<g id="Node000012" class="node">
<title>Node12</title>
<g id="a_Node000012"><a xlink:href="../../d8/d98/simple__client__component_8hpp.html" target="_top" xlink:title="Template class for a simple gRPC client.">
<polygon fill="white" stroke="#666666" points="985,-101.5 819,-101.5 819,-71.5 985,-71.5 985,-101.5"/>
<text text-anchor="start" x="827" y="-89.5" font-family="Helvetica,sans-Serif" font-size="10.00">userver/ugrpc/client</text>
<text text-anchor="middle" x="902" y="-78.5" font-family="Helvetica,sans-Serif" font-size="10.00">/simple_client_component.hpp</text>
</a>
</g>
</g>
<!-- Node10&#45;&gt;Node12 -->
<g id="edge11_Node000010_Node000012" class="edge">
<title>Node10&#45;&gt;Node12</title>
<g id="a_edge11_Node000010_Node000012"><a xlink:title=" ">
<path fill="none" stroke="#63b8ff" d="M902,-138.04C902,-125.95 902,-111.79 902,-101.54"/>
<polygon fill="#63b8ff" stroke="#63b8ff" points="898.5,-138.39 902,-148.39 905.5,-138.39 898.5,-138.39"/>
</a>
</g>
</g>
<!-- Node13 -->
<g id="Node000013" class="node">
<title>Node13</title>
<g id="a_Node000013"><a xlink:href="../../d3/d31/service_8hpp.html" target="_top" xlink:title="Base classes for testing and benchmarking ugrpc service implementations in a simplified gRPC environm...">
<polygon fill="white" stroke="#666666" points="1113,-101.5 1003,-101.5 1003,-71.5 1113,-71.5 1113,-101.5"/>
<text text-anchor="start" x="1011" y="-89.5" font-family="Helvetica,sans-Serif" font-size="10.00">userver/ugrpc/tests</text>
<text text-anchor="middle" x="1058" y="-78.5" font-family="Helvetica,sans-Serif" font-size="10.00">/service.hpp</text>
</a>
</g>
</g>
<!-- Node10&#45;&gt;Node13 -->
<g id="edge12_Node000010_Node000013" class="edge">
<title>Node10&#45;&gt;Node13</title>
<g id="a_edge12_Node000010_Node000013"><a xlink:title=" ">
<path fill="none" stroke="#63b8ff" d="M940.6,-143.94C967.88,-130.83 1003.88,-113.52 1028.79,-101.54"/>
<polygon fill="#63b8ff" stroke="#63b8ff" points="938.84,-140.91 931.34,-148.39 941.87,-147.21 938.84,-140.91"/>
</a>
</g>
</g>
<!-- Node15 -->
<g id="Node000015" class="node">
<title>Node15</title>
<g id="a_Node000015"><a xlink:href="../../d5/d64/standalone__client_8hpp.html" target="_top" xlink:title="Sets up a mini gRPC client that is not directly associated with any userver gRPC server.">
<polygon fill="white" stroke="#666666" points="1258.5,-101.5 1131.5,-101.5 1131.5,-71.5 1258.5,-71.5 1258.5,-101.5"/>
<text text-anchor="start" x="1139.5" y="-89.5" font-family="Helvetica,sans-Serif" font-size="10.00">userver/ugrpc/tests</text>
<text text-anchor="middle" x="1195" y="-78.5" font-family="Helvetica,sans-Serif" font-size="10.00">/standalone_client.hpp</text>
</a>
</g>
</g>
<!-- Node10&#45;&gt;Node15 -->
<g id="edge14_Node000010_Node000015" class="edge">
<title>Node10&#45;&gt;Node15</title>
<g id="a_edge14_Node000010_Node000015"><a xlink:title=" ">
<path fill="none" stroke="#63b8ff" d="M968.5,-145.98C1012.18,-135.07 1070.53,-120.36 1122,-107 1128.73,-105.25 1135.8,-103.39 1142.79,-101.54"/>
<polygon fill="#63b8ff" stroke="#63b8ff" points="967.43,-142.64 958.58,-148.46 969.13,-149.43 967.43,-142.64"/>
</a>
</g>
</g>
<!-- Node14 -->
<g id="Node000014" class="node">
<title>Node14</title>
<g id="a_Node000014"><a xlink:href="../../d1/d31/service__fixtures_8hpp.html" target="_top" xlink:title="gtest fixtures for testing ugrpc service implementations. Requires linking to userver::grpc&#45;utest.">
<polygon fill="white" stroke="#666666" points="1117,-30 999,-30 999,0 1117,0 1117,-30"/>
<text text-anchor="start" x="1007" y="-18" font-family="Helvetica,sans-Serif" font-size="10.00">userver/ugrpc/tests</text>
<text text-anchor="middle" x="1058" y="-7" font-family="Helvetica,sans-Serif" font-size="10.00">/service_fixtures.hpp</text>
</a>
</g>
</g>
<!-- Node13&#45;&gt;Node14 -->
<g id="edge13_Node000013_Node000014" class="edge">
<title>Node13&#45;&gt;Node14</title>
<g id="a_edge13_Node000013_Node000014"><a xlink:title=" ">
<path fill="none" stroke="#63b8ff" d="M1058,-61.25C1058,-50.81 1058,-38.99 1058,-30.04"/>
<polygon fill="#63b8ff" stroke="#63b8ff" points="1054.5,-61.44 1058,-71.44 1061.5,-61.44 1054.5,-61.44"/>
</a>
</g>
</g>
</g>
</svg>
