<?xml version="1.0" encoding="UTF-8" standalone="no"?>
<!DOCTYPE svg PUBLIC "-//W3C//DTD SVG 1.1//EN"
 "http://www.w3.org/Graphics/SVG/1.1/DTD/svg11.dtd">
<!-- Generated by graphviz version 2.43.0 (0)
 -->
<!-- Title: components::MongoCache&lt; MongoCacheTraits &gt; Pages: 1 -->
<svg width="879pt" height="115pt"
 viewBox="0.00 0.00 879.00 114.50" xmlns="http://www.w3.org/2000/svg" xmlns:xlink="http://www.w3.org/1999/xlink">
<g id="graph0" class="graph" transform="scale(1 1) rotate(0) translate(4 110.5)">
<title>components::MongoCache&lt; MongoCacheTraits &gt;</title>
<!-- Node1 -->
<g id="Node000001" class="node">
<title>Node1</title>
<g id="a_Node000001"><a xlink:title="Base class for all caches polling mongo collection">
<polygon fill="#999999" stroke="#666666" points="871,-54 725,-54 725,-24 871,-24 871,-54"/>
<text text-anchor="start" x="733" y="-42" font-family="Helvetica,sans-Serif" font-size="10.00">components::MongoCache</text>
<text text-anchor="middle" x="798" y="-31" font-family="Helvetica,sans-Serif" font-size="10.00">&lt; MongoCacheTraits &gt;</text>
</a>
</g>
</g>
<!-- Node2 -->
<g id="Node000002" class="node">
<title>Node2</title>
<g id="a_Node000002"><a xlink:href="../../df/dd1/classcomponents_1_1CachingComponentBase.html" target="_top" xlink:title=" ">
<polygon fill="white" stroke="#666666" points="650,-83.5 472,-83.5 472,-42.5 650,-42.5 650,-83.5"/>
<text text-anchor="start" x="480" y="-71.5" font-family="Helvetica,sans-Serif" font-size="10.00">components::CachingComponent</text>
<text text-anchor="start" x="480" y="-60.5" font-family="Helvetica,sans-Serif" font-size="10.00">Base&lt; MongoCacheTraits::</text>
<text text-anchor="middle" x="561" y="-49.5" font-family="Helvetica,sans-Serif" font-size="10.00">DataType &gt;</text>
</a>
</g>
</g>
<!-- Node2&#45;&gt;Node1 -->
<g id="edge1_Node000001_Node000002" class="edge">
<title>Node2&#45;&gt;Node1</title>
<g id="a_edge1_Node000001_Node000002"><a xlink:title=" ">
<path fill="none" stroke="#63b8ff" d="M660.36,-52.95C681.97,-50.75 704.46,-48.45 724.81,-46.37"/>
<polygon fill="#63b8ff" stroke="#63b8ff" points="659.77,-49.5 650.17,-54 660.48,-56.46 659.77,-49.5"/>
</a>
</g>
</g>
<!-- Node3 -->
<g id="Node000003" class="node">
<title>Node3</title>
<g id="a_Node000003"><a xlink:href="../../d5/d69/classcomponents_1_1LoggableComponentBase.html" target="_top" xlink:title="Base class for all application components, it depends on components::Logger and components::Tracer.">
<polygon fill="white" stroke="#666666" points="435,-106.5 228,-106.5 228,-87.5 435,-87.5 435,-106.5"/>
<text text-anchor="middle" x="331.5" y="-94.5" font-family="Helvetica,sans-Serif" font-size="10.00">components::LoggableComponentBase</text>
</a>
</g>
</g>
<!-- Node3&#45;&gt;Node2 -->
<g id="edge2_Node000002_Node000003" class="edge">
<title>Node3&#45;&gt;Node2</title>
<g id="a_edge2_Node000002_Node000003"><a xlink:title=" ">
<path fill="none" stroke="#63b8ff" d="M406.24,-85.98C427.11,-82.86 450.04,-79.43 471.68,-76.2"/>
<polygon fill="#63b8ff" stroke="#63b8ff" points="405.55,-82.54 396.17,-87.48 406.58,-89.47 405.55,-82.54"/>
</a>
</g>
</g>
<!-- Node4 -->
<g id="Node000004" class="node">
<title>Node4</title>
<g id="a_Node000004"><a xlink:title=" ">
<polygon fill="white" stroke="#666666" points="191,-106.5 0,-106.5 0,-87.5 191,-87.5 191,-106.5"/>
<text text-anchor="middle" x="95.5" y="-94.5" font-family="Helvetica,sans-Serif" font-size="10.00">components::impl::ComponentBase</text>
</a>
</g>
</g>
<!-- Node4&#45;&gt;Node3 -->
<g id="edge3_Node000003_Node000004" class="edge">
<title>Node4&#45;&gt;Node3</title>
<g id="a_edge3_Node000003_Node000004"><a xlink:title=" ">
<path fill="none" stroke="#63b8ff" d="M201.06,-97C210.01,-97 219.06,-97 227.99,-97"/>
<polygon fill="#63b8ff" stroke="#63b8ff" points="201,-93.5 191,-97 201,-100.5 201,-93.5"/>
</a>
</g>
</g>
<!-- Node5 -->
<g id="Node000005" class="node">
<title>Node5</title>
<g id="a_Node000005"><a xlink:href="../../da/df8/classcache_1_1CacheUpdateTrait.html" target="_top" xlink:title="Base class for periodically updated caches.">
<polygon fill="white" stroke="#666666" points="400,-69.5 263,-69.5 263,-50.5 400,-50.5 400,-69.5"/>
<text text-anchor="middle" x="331.5" y="-57.5" font-family="Helvetica,sans-Serif" font-size="10.00">cache::CacheUpdateTrait</text>
</a>
</g>
</g>
<!-- Node5&#45;&gt;Node2 -->
<g id="edge4_Node000002_Node000005" class="edge">
<title>Node5&#45;&gt;Node2</title>
<g id="a_edge4_Node000002_Node000005"><a xlink:title=" ">
<path fill="none" stroke="darkgreen" d="M410.35,-61.03C430.19,-61.29 451.64,-61.57 471.95,-61.84"/>
<polygon fill="darkgreen" stroke="darkgreen" points="410.19,-57.52 400.14,-60.89 410.09,-64.52 410.19,-57.52"/>
</a>
</g>
</g>
<!-- Node6 -->
<g id="Node000006" class="node">
<title>Node6</title>
<g id="a_Node000006"><a xlink:title=" ">
<polygon fill="white" stroke="#666666" points="608,-24.5 514,-24.5 514,-5.5 608,-5.5 608,-24.5"/>
<text text-anchor="middle" x="561" y="-12.5" font-family="Helvetica,sans-Serif" font-size="10.00">std::string_view</text>
</a>
</g>
</g>
<!-- Node6&#45;&gt;Node1 -->
<g id="edge5_Node000001_Node000006" class="edge">
<title>Node6&#45;&gt;Node1</title>
<g id="a_edge5_Node000001_Node000006"><a xlink:title=" ">
<path fill="none" stroke="#9a32cd" stroke-dasharray="5,2" d="M618.19,-20.74C650.08,-24 690.35,-28.11 724.59,-31.6"/>
<polygon fill="#9a32cd" stroke="#9a32cd" points="618.45,-17.25 608.15,-19.71 617.74,-24.21 618.45,-17.25"/>
</a>
</g>
<text text-anchor="middle" x="687.5" y="-33" font-family="Helvetica,sans-Serif" font-size="10.00" fill="grey"> kName</text>
</g>
<!-- Node7 -->
<g id="Node000007" class="node">
<title>Node7</title>
<g id="a_Node000007"><a xlink:title=" ">
<polygon fill="white" stroke="#666666" points="394,-30 269,-30 269,0 394,0 394,-30"/>
<text text-anchor="start" x="277" y="-18" font-family="Helvetica,sans-Serif" font-size="10.00">std::basic_string_view</text>
<text text-anchor="middle" x="331.5" y="-7" font-family="Helvetica,sans-Serif" font-size="10.00">&lt; Char &gt;</text>
</a>
</g>
</g>
<!-- Node7&#45;&gt;Node6 -->
<g id="edge6_Node000006_Node000007" class="edge">
<title>Node7&#45;&gt;Node6</title>
<g id="a_edge6_Node000006_Node000007"><a xlink:title=" ">
<path fill="none" stroke="#63b8ff" d="M404.46,-15C440.27,-15 482.5,-15 513.91,-15"/>
<polygon fill="#63b8ff" stroke="#63b8ff" points="404.06,-11.5 394.06,-15 404.06,-18.5 404.06,-11.5"/>
</a>
</g>
</g>
</g>
</svg>
