<?xml version="1.0" encoding="UTF-8" standalone="no"?>
<!DOCTYPE svg PUBLIC "-//W3C//DTD SVG 1.1//EN"
 "http://www.w3.org/Graphics/SVG/1.1/DTD/svg11.dtd">
<!-- Generated by graphviz version 2.43.0 (0)
 -->
<!-- Title: userver/engine/task/inherited_variable.hpp Pages: 1 -->
<svg width="455pt" height="225pt"
 viewBox="0.00 0.00 454.74 225.00" xmlns="http://www.w3.org/2000/svg" xmlns:xlink="http://www.w3.org/1999/xlink">
<g id="graph0" class="graph" transform="scale(1 1) rotate(0) translate(4 221)">
<title>userver/engine/task/inherited_variable.hpp</title>
<!-- Node1 -->
<g id="Node000001" class="node">
<title>Node1</title>
<g id="a_Node000001"><a xlink:title="TaskInheritedVariable is a per&#45;coroutine variable of arbitrary type.">
<polygon fill="#999999" stroke="#666666" points="274,-217 145,-217 145,-187 274,-187 274,-217"/>
<text text-anchor="start" x="153" y="-205" font-family="Helvetica,sans-Serif" font-size="10.00">userver/engine/task</text>
<text text-anchor="middle" x="209.5" y="-194" font-family="Helvetica,sans-Serif" font-size="10.00">/inherited_variable.hpp</text>
</a>
</g>
</g>
<!-- Node2 -->
<g id="Node000002" class="node">
<title>Node2</title>
<g id="a_Node000002"><a xlink:title=" ">
<polygon fill="#e0e0e0" stroke="#999999" points="69,-19 0,-19 0,0 69,0 69,-19"/>
<text text-anchor="middle" x="34.5" y="-7" font-family="Helvetica,sans-Serif" font-size="10.00">type_traits</text>
</a>
</g>
</g>
<!-- Node1&#45;&gt;Node2 -->
<g id="edge1_Node000001_Node000002" class="edge">
<title>Node1&#45;&gt;Node2</title>
<g id="a_edge1_Node000001_Node000002"><a xlink:title=" ">
<path fill="none" stroke="#63b8ff" d="M182.56,-186.95C149.19,-168.16 92.91,-131.74 61.5,-85 50.01,-67.91 42.73,-45.34 38.66,-29.54"/>
<polygon fill="#63b8ff" stroke="#63b8ff" points="41.97,-28.32 36.25,-19.4 35.16,-29.94 41.97,-28.32"/>
</a>
</g>
</g>
<!-- Node3 -->
<g id="Node000003" class="node">
<title>Node3</title>
<g id="a_Node000003"><a xlink:title=" ">
<polygon fill="#e0e0e0" stroke="#999999" points="377,-19 332,-19 332,0 377,0 377,-19"/>
<text text-anchor="middle" x="354.5" y="-7" font-family="Helvetica,sans-Serif" font-size="10.00">utility</text>
</a>
</g>
</g>
<!-- Node1&#45;&gt;Node3 -->
<g id="edge2_Node000001_Node000003" class="edge">
<title>Node1&#45;&gt;Node3</title>
<g id="a_edge2_Node000001_Node000003"><a xlink:title=" ">
<path fill="none" stroke="#63b8ff" d="M274.09,-188.31C329.24,-173.69 405.22,-143.7 441.5,-85 448.51,-73.66 448.46,-66.37 441.5,-55 429.66,-35.65 406.46,-24.38 386.99,-18.02"/>
<polygon fill="#63b8ff" stroke="#63b8ff" points="387.82,-14.61 377.23,-15.12 385.83,-21.32 387.82,-14.61"/>
</a>
</g>
</g>
<!-- Node4 -->
<g id="Node000004" class="node">
<title>Node4</title>
<g id="a_Node000004"><a xlink:href="../../df/ddb/task__local__storage_8hpp_source.html" target="_top" xlink:title=" ">
<polygon fill="white" stroke="#666666" points="275.5,-151 143.5,-151 143.5,-121 275.5,-121 275.5,-151"/>
<text text-anchor="start" x="151.5" y="-139" font-family="Helvetica,sans-Serif" font-size="10.00">userver/engine/impl</text>
<text text-anchor="middle" x="209.5" y="-128" font-family="Helvetica,sans-Serif" font-size="10.00">/task_local_storage.hpp</text>
</a>
</g>
</g>
<!-- Node1&#45;&gt;Node4 -->
<g id="edge3_Node000001_Node000004" class="edge">
<title>Node1&#45;&gt;Node4</title>
<g id="a_edge3_Node000001_Node000004"><a xlink:title=" ">
<path fill="none" stroke="#63b8ff" d="M209.5,-186.8C209.5,-179.34 209.5,-169.99 209.5,-161.41"/>
<polygon fill="#63b8ff" stroke="#63b8ff" points="213,-161.16 209.5,-151.16 206,-161.16 213,-161.16"/>
</a>
</g>
</g>
<!-- Node4&#45;&gt;Node2 -->
<g id="edge7_Node000004_Node000002" class="edge">
<title>Node4&#45;&gt;Node2</title>
<g id="a_edge7_Node000004_Node000002"><a xlink:title=" ">
<path fill="none" stroke="#63b8ff" d="M163.93,-120.97C141.62,-112.72 115.19,-100.77 94.5,-85 73.75,-69.17 55.86,-44.7 45.15,-28.17"/>
<polygon fill="#63b8ff" stroke="#63b8ff" points="47.97,-26.08 39.7,-19.47 42.04,-29.8 47.97,-26.08"/>
</a>
</g>
</g>
<!-- Node5 -->
<g id="Node000005" class="node">
<title>Node5</title>
<g id="a_Node000005"><a xlink:title=" ">
<polygon fill="#e0e0e0" stroke="#999999" points="281.5,-79.5 231.5,-79.5 231.5,-60.5 281.5,-60.5 281.5,-79.5"/>
<text text-anchor="middle" x="256.5" y="-67.5" font-family="Helvetica,sans-Serif" font-size="10.00">atomic</text>
</a>
</g>
</g>
<!-- Node4&#45;&gt;Node5 -->
<g id="edge4_Node000004_Node000005" class="edge">
<title>Node4&#45;&gt;Node5</title>
<g id="a_edge4_Node000004_Node000005"><a xlink:title=" ">
<path fill="none" stroke="#63b8ff" d="M219.93,-120.8C227.04,-111.11 236.5,-98.24 244.01,-88.01"/>
<polygon fill="#63b8ff" stroke="#63b8ff" points="246.91,-89.98 250,-79.84 241.26,-85.83 246.91,-89.98"/>
</a>
</g>
</g>
<!-- Node6 -->
<g id="Node000006" class="node">
<title>Node6</title>
<g id="a_Node000006"><a xlink:title=" ">
<polygon fill="#e0e0e0" stroke="#999999" points="140,-19 87,-19 87,0 140,0 140,-19"/>
<text text-anchor="middle" x="113.5" y="-7" font-family="Helvetica,sans-Serif" font-size="10.00">cstddef</text>
</a>
</g>
</g>
<!-- Node4&#45;&gt;Node6 -->
<g id="edge5_Node000004_Node000006" class="edge">
<title>Node4&#45;&gt;Node6</title>
<g id="a_edge5_Node000004_Node000006"><a xlink:title=" ">
<path fill="none" stroke="#63b8ff" d="M152.06,-120.95C133.66,-113.44 115.28,-102.07 104.5,-85 93.77,-68.01 99.24,-44.45 105.28,-28.41"/>
<polygon fill="#63b8ff" stroke="#63b8ff" points="108.54,-29.67 109.16,-19.09 102.08,-26.97 108.54,-29.67"/>
</a>
</g>
</g>
<!-- Node7 -->
<g id="Node000007" class="node">
<title>Node7</title>
<g id="a_Node000007"><a xlink:title=" ">
<polygon fill="#e0e0e0" stroke="#999999" points="357.5,-79.5 299.5,-79.5 299.5,-60.5 357.5,-60.5 357.5,-79.5"/>
<text text-anchor="middle" x="328.5" y="-67.5" font-family="Helvetica,sans-Serif" font-size="10.00">memory</text>
</a>
</g>
</g>
<!-- Node4&#45;&gt;Node7 -->
<g id="edge6_Node000004_Node000007" class="edge">
<title>Node4&#45;&gt;Node7</title>
<g id="a_edge6_Node000004_Node000007"><a xlink:title=" ">
<path fill="none" stroke="#63b8ff" d="M235.62,-120.95C255.84,-110.08 283.68,-95.11 303.59,-84.4"/>
<polygon fill="#63b8ff" stroke="#63b8ff" points="305.51,-87.34 312.66,-79.52 302.2,-81.17 305.51,-87.34"/>
</a>
</g>
</g>
<!-- Node8 -->
<g id="Node000008" class="node">
<title>Node8</title>
<g id="a_Node000008"><a xlink:title=" ">
<polygon fill="#e0e0e0" stroke="#999999" points="433,-79.5 376,-79.5 376,-60.5 433,-60.5 433,-79.5"/>
<text text-anchor="middle" x="404.5" y="-67.5" font-family="Helvetica,sans-Serif" font-size="10.00">typeinfo</text>
</a>
</g>
</g>
<!-- Node4&#45;&gt;Node8 -->
<g id="edge8_Node000004_Node000008" class="edge">
<title>Node4&#45;&gt;Node8</title>
<g id="a_edge8_Node000004_Node000008"><a xlink:title=" ">
<path fill="none" stroke="#63b8ff" d="M255.36,-120.99C286.77,-111.25 329.3,-97.77 366.5,-85 368.35,-84.37 370.24,-83.71 372.14,-83.03"/>
<polygon fill="#63b8ff" stroke="#63b8ff" points="373.43,-86.29 381.65,-79.61 371.06,-79.7 373.43,-86.29"/>
</a>
</g>
</g>
<!-- Node9 -->
<g id="Node000009" class="node">
<title>Node9</title>
<g id="a_Node000009"><a xlink:href="../../d5/d02/fast__pimpl_8hpp.html" target="_top" xlink:title="Implements pimpl idiom without dynamic memory allocation.">
<polygon fill="white" stroke="#666666" points="213,-85 114,-85 114,-55 213,-55 213,-85"/>
<text text-anchor="start" x="122" y="-73" font-family="Helvetica,sans-Serif" font-size="10.00">userver/utils/fast</text>
<text text-anchor="middle" x="163.5" y="-62" font-family="Helvetica,sans-Serif" font-size="10.00">_pimpl.hpp</text>
</a>
</g>
</g>
<!-- Node4&#45;&gt;Node9 -->
<g id="edge9_Node000004_Node000009" class="edge">
<title>Node4&#45;&gt;Node9</title>
<g id="a_edge9_Node000004_Node000009"><a xlink:title=" ">
<path fill="none" stroke="#63b8ff" d="M199.29,-120.8C193.51,-112.76 186.16,-102.53 179.62,-93.43"/>
<polygon fill="#63b8ff" stroke="#63b8ff" points="182.36,-91.24 173.68,-85.16 176.67,-95.33 182.36,-91.24"/>
</a>
</g>
</g>
<!-- Node9&#45;&gt;Node2 -->
<g id="edge12_Node000009_Node000002" class="edge">
<title>Node9&#45;&gt;Node2</title>
<g id="a_edge12_Node000009_Node000002"><a xlink:title=" ">
<path fill="none" stroke="#63b8ff" d="M132.6,-54.99C111.37,-45.36 83.39,-32.67 62.75,-23.31"/>
<polygon fill="#63b8ff" stroke="#63b8ff" points="64.1,-20.08 53.55,-19.14 61.21,-26.46 64.1,-20.08"/>
</a>
</g>
</g>
<!-- Node9&#45;&gt;Node3 -->
<g id="edge13_Node000009_Node000003" class="edge">
<title>Node9&#45;&gt;Node3</title>
<g id="a_edge13_Node000009_Node000003"><a xlink:title=" ">
<path fill="none" stroke="#63b8ff" d="M209.25,-54.99C244.05,-44.33 291.09,-29.92 322.08,-20.43"/>
<polygon fill="#63b8ff" stroke="#63b8ff" points="323.4,-23.69 331.94,-17.41 321.35,-16.99 323.4,-23.69"/>
</a>
</g>
</g>
<!-- Node9&#45;&gt;Node6 -->
<g id="edge10_Node000009_Node000006" class="edge">
<title>Node9&#45;&gt;Node6</title>
<g id="a_edge10_Node000009_Node000006"><a xlink:title=" ">
<path fill="none" stroke="#63b8ff" d="M151.4,-54.84C144.21,-46.43 135.07,-35.74 127.57,-26.96"/>
<polygon fill="#63b8ff" stroke="#63b8ff" points="130.15,-24.59 120.99,-19.27 124.83,-29.14 130.15,-24.59"/>
</a>
</g>
</g>
<!-- Node10 -->
<g id="Node000010" class="node">
<title>Node10</title>
<g id="a_Node000010"><a xlink:title=" ">
<polygon fill="#e0e0e0" stroke="#999999" points="195,-19 158,-19 158,0 195,0 195,-19"/>
<text text-anchor="middle" x="176.5" y="-7" font-family="Helvetica,sans-Serif" font-size="10.00">new</text>
</a>
</g>
</g>
<!-- Node9&#45;&gt;Node10 -->
<g id="edge11_Node000009_Node000010" class="edge">
<title>Node9&#45;&gt;Node10</title>
<g id="a_edge11_Node000009_Node000010"><a xlink:title=" ">
<path fill="none" stroke="#63b8ff" d="M166.65,-54.84C168.36,-47.13 170.5,-37.49 172.35,-29.17"/>
<polygon fill="#63b8ff" stroke="#63b8ff" points="175.8,-29.79 174.55,-19.27 168.97,-28.27 175.8,-29.79"/>
</a>
</g>
</g>
</g>
</svg>
