<?xml version="1.0" encoding="UTF-8" standalone="no"?>
<!DOCTYPE svg PUBLIC "-//W3C//DTD SVG 1.1//EN"
 "http://www.w3.org/Graphics/SVG/1.1/DTD/svg11.dtd">
<!-- Generated by graphviz version 2.43.0 (0)
 -->
<!-- Title: userver/storages/postgres/io/integral_types.hpp Pages: 1 -->
<svg width="1100pt" height="632pt"
 viewBox="0.00 0.00 1100.00 632.00" xmlns="http://www.w3.org/2000/svg" xmlns:xlink="http://www.w3.org/1999/xlink">
<g id="graph0" class="graph" transform="scale(1 1) rotate(0) translate(4 628)">
<title>userver/storages/postgres/io/integral_types.hpp</title>
<!-- Node1 -->
<g id="Node000001" class="node">
<title>Node1</title>
<g id="a_Node000001"><a xlink:title="Integral types I/O support.">
<polygon fill="#999999" stroke="#666666" points="658,-624 515,-624 515,-594 658,-594 658,-624"/>
<text text-anchor="start" x="523" y="-612" font-family="Helvetica,sans-Serif" font-size="10.00">userver/storages/postgres</text>
<text text-anchor="middle" x="586.5" y="-601" font-family="Helvetica,sans-Serif" font-size="10.00">/io/integral_types.hpp</text>
</a>
</g>
</g>
<!-- Node2 -->
<g id="Node000002" class="node">
<title>Node2</title>
<g id="a_Node000002"><a xlink:href="../../d5/d3a/postgresql_2include_2userver_2storages_2postgres_2io_2date_8hpp.html" target="_top" xlink:title="utils::datetime::Date I/O support">
<polygon fill="white" stroke="#666666" points="145,-558 2,-558 2,-528 145,-528 145,-558"/>
<text text-anchor="start" x="10" y="-546" font-family="Helvetica,sans-Serif" font-size="10.00">userver/storages/postgres</text>
<text text-anchor="middle" x="73.5" y="-535" font-family="Helvetica,sans-Serif" font-size="10.00">/io/date.hpp</text>
</a>
</g>
</g>
<!-- Node1&#45;&gt;Node2 -->
<g id="edge1_Node000001_Node000002" class="edge">
<title>Node1&#45;&gt;Node2</title>
<g id="a_edge1_Node000001_Node000002"><a xlink:title=" ">
<path fill="none" stroke="#63b8ff" d="M505.02,-599.56C418.99,-590.39 279.49,-574.78 159.5,-558 154.86,-557.35 150.08,-556.65 145.26,-555.93"/>
<polygon fill="#63b8ff" stroke="#63b8ff" points="504.66,-603.04 514.98,-600.62 505.4,-596.08 504.66,-603.04"/>
</a>
</g>
</g>
<!-- Node3 -->
<g id="Node000003" class="node">
<title>Node3</title>
<g id="a_Node000003"><a xlink:href="../../da/d98/field__buffer_8hpp_source.html" target="_top" xlink:title=" ">
<polygon fill="white" stroke="#666666" points="552,-558 409,-558 409,-528 552,-528 552,-558"/>
<text text-anchor="start" x="417" y="-546" font-family="Helvetica,sans-Serif" font-size="10.00">userver/storages/postgres</text>
<text text-anchor="middle" x="480.5" y="-535" font-family="Helvetica,sans-Serif" font-size="10.00">/io/field_buffer.hpp</text>
</a>
</g>
</g>
<!-- Node1&#45;&gt;Node3 -->
<g id="edge2_Node000001_Node000003" class="edge">
<title>Node1&#45;&gt;Node3</title>
<g id="a_edge2_Node000001_Node000003"><a xlink:title=" ">
<path fill="none" stroke="#63b8ff" d="M554.53,-588.69C538.16,-578.82 518.61,-567.01 503.71,-558.01"/>
<polygon fill="#63b8ff" stroke="#63b8ff" points="552.87,-591.78 563.24,-593.95 556.49,-585.79 552.87,-591.78"/>
</a>
</g>
</g>
<!-- Node5 -->
<g id="Node000005" class="node">
<title>Node5</title>
<g id="a_Node000005"><a xlink:href="../../de/d7f/supported__types_8hpp_source.html" target="_top" xlink:title=" ">
<polygon fill="white" stroke="#666666" points="545,-360 402,-360 402,-330 545,-330 545,-360"/>
<text text-anchor="start" x="410" y="-348" font-family="Helvetica,sans-Serif" font-size="10.00">userver/storages/postgres</text>
<text text-anchor="middle" x="473.5" y="-337" font-family="Helvetica,sans-Serif" font-size="10.00">/io/supported_types.hpp</text>
</a>
</g>
</g>
<!-- Node1&#45;&gt;Node5 -->
<g id="edge47_Node000001_Node000005" class="edge">
<title>Node1&#45;&gt;Node5</title>
<g id="a_edge47_Node000001_Node000005"><a xlink:title=" ">
<path fill="none" stroke="#63b8ff" d="M504.55,-601.6C403.27,-588.46 238.62,-548.35 192.5,-426 187.8,-413.52 183.94,-406.22 192.5,-396 218.71,-364.71 327.57,-352.99 401.84,-348.6"/>
<polygon fill="#63b8ff" stroke="#63b8ff" points="504.4,-605.11 514.76,-602.86 505.26,-598.16 504.4,-605.11"/>
</a>
</g>
</g>
<!-- Node24 -->
<g id="Node000024" class="node">
<title>Node24</title>
<g id="a_Node000024"><a xlink:href="../../d8/ddf/floating__point__types_8hpp.html" target="_top" xlink:title="Floating point I/O support.">
<polygon fill="white" stroke="#666666" points="769.5,-558 617.5,-558 617.5,-528 769.5,-528 769.5,-558"/>
<text text-anchor="start" x="625.5" y="-546" font-family="Helvetica,sans-Serif" font-size="10.00">userver/storages/postgres</text>
<text text-anchor="middle" x="693.5" y="-535" font-family="Helvetica,sans-Serif" font-size="10.00">/io/floating_point_types.hpp</text>
</a>
</g>
</g>
<!-- Node1&#45;&gt;Node24 -->
<g id="edge41_Node000001_Node000024" class="edge">
<title>Node1&#45;&gt;Node24</title>
<g id="a_edge41_Node000001_Node000024"><a xlink:title=" ">
<path fill="none" stroke="#63b8ff" d="M618.78,-588.69C635.29,-578.82 655.03,-567.01 670.07,-558.01"/>
<polygon fill="#63b8ff" stroke="#63b8ff" points="616.77,-585.82 609.98,-593.95 620.36,-591.83 616.77,-585.82"/>
</a>
</g>
</g>
<!-- Node25 -->
<g id="Node000025" class="node">
<title>Node25</title>
<g id="a_Node000025"><a xlink:href="../../dc/de2/interval_8hpp.html" target="_top" xlink:title="Time intervals I/O support.">
<polygon fill="white" stroke="#666666" points="931,-558 788,-558 788,-528 931,-528 931,-558"/>
<text text-anchor="start" x="796" y="-546" font-family="Helvetica,sans-Serif" font-size="10.00">userver/storages/postgres</text>
<text text-anchor="middle" x="859.5" y="-535" font-family="Helvetica,sans-Serif" font-size="10.00">/io/interval.hpp</text>
</a>
</g>
</g>
<!-- Node1&#45;&gt;Node25 -->
<g id="edge44_Node000001_Node000025" class="edge">
<title>Node1&#45;&gt;Node25</title>
<g id="a_edge44_Node000001_Node000025"><a xlink:title=" ">
<path fill="none" stroke="#63b8ff" d="M656.25,-591.65C700.61,-581.25 757.44,-567.93 799.73,-558.01"/>
<polygon fill="#63b8ff" stroke="#63b8ff" points="655.35,-588.26 646.41,-593.95 656.95,-595.08 655.35,-588.26"/>
</a>
</g>
</g>
<!-- Node26 -->
<g id="Node000026" class="node">
<title>Node26</title>
<g id="a_Node000026"><a xlink:href="../../d1/dd2/postgresql_2include_2userver_2storages_2postgres_2io_2ip_8hpp_source.html" target="_top" xlink:title=" ">
<polygon fill="white" stroke="#666666" points="1092,-558 949,-558 949,-528 1092,-528 1092,-558"/>
<text text-anchor="start" x="957" y="-546" font-family="Helvetica,sans-Serif" font-size="10.00">userver/storages/postgres</text>
<text text-anchor="middle" x="1020.5" y="-535" font-family="Helvetica,sans-Serif" font-size="10.00">/io/ip.hpp</text>
</a>
</g>
</g>
<!-- Node1&#45;&gt;Node26 -->
<g id="edge46_Node000001_Node000026" class="edge">
<title>Node1&#45;&gt;Node26</title>
<g id="a_edge46_Node000001_Node000026"><a xlink:title=" ">
<path fill="none" stroke="#63b8ff" d="M668.47,-597.2C740.29,-587.55 847.44,-572.71 940.5,-558 943.29,-557.56 946.12,-557.1 948.99,-556.63"/>
<polygon fill="#63b8ff" stroke="#63b8ff" points="667.58,-593.79 658.13,-598.59 668.51,-600.73 667.58,-593.79"/>
</a>
</g>
</g>
<!-- Node4 -->
<g id="Node000004" class="node">
<title>Node4</title>
<g id="a_Node000004"><a xlink:href="../../d4/d90/array__types_8hpp.html" target="_top" xlink:title="I/O support for arrays (std::array, std::set, std::unordered_set, std::vector)">
<polygon fill="white" stroke="#666666" points="545,-426 402,-426 402,-396 545,-396 545,-426"/>
<text text-anchor="start" x="410" y="-414" font-family="Helvetica,sans-Serif" font-size="10.00">userver/storages/postgres</text>
<text text-anchor="middle" x="473.5" y="-403" font-family="Helvetica,sans-Serif" font-size="10.00">/io/array_types.hpp</text>
</a>
</g>
</g>
<!-- Node3&#45;&gt;Node4 -->
<g id="edge3_Node000003_Node000004" class="edge">
<title>Node3&#45;&gt;Node4</title>
<g id="a_edge3_Node000003_Node000004"><a xlink:title=" ">
<path fill="none" stroke="#63b8ff" d="M472.39,-518.13C469.99,-509.95 467.69,-500.67 466.5,-492 463.35,-469.07 467.23,-442.24 470.35,-426.21"/>
<polygon fill="#63b8ff" stroke="#63b8ff" points="469.08,-519.28 475.4,-527.78 475.76,-517.19 469.08,-519.28"/>
</a>
</g>
</g>
<!-- Node18 -->
<g id="Node000018" class="node">
<title>Node18</title>
<g id="a_Node000018"><a xlink:href="../../d4/dda/composite__types_8hpp.html" target="_top" xlink:title="Composite types I/O support.">
<polygon fill="white" stroke="#666666" points="706,-426 563,-426 563,-396 706,-396 706,-426"/>
<text text-anchor="start" x="571" y="-414" font-family="Helvetica,sans-Serif" font-size="10.00">userver/storages/postgres</text>
<text text-anchor="middle" x="634.5" y="-403" font-family="Helvetica,sans-Serif" font-size="10.00">/io/composite_types.hpp</text>
</a>
</g>
</g>
<!-- Node3&#45;&gt;Node18 -->
<g id="edge30_Node000003_Node000018" class="edge">
<title>Node3&#45;&gt;Node18</title>
<g id="a_edge30_Node000003_Node000018"><a xlink:title=" ">
<path fill="none" stroke="#63b8ff" d="M480.44,-517.73C481.66,-500.27 486.02,-477.22 499.5,-462 515.9,-443.47 539.81,-431.8 562.96,-424.45"/>
<polygon fill="#63b8ff" stroke="#63b8ff" points="476.94,-517.62 480.04,-527.75 483.94,-517.9 476.94,-517.62"/>
</a>
</g>
</g>
<!-- Node19 -->
<g id="Node000019" class="node">
<title>Node19</title>
<g id="a_Node000019"><a xlink:href="../../da/d26/geometry__types_8hpp.html" target="_top" xlink:title="Geometry I/O support.">
<polygon fill="white" stroke="#666666" points="813,-492 670,-492 670,-462 813,-462 813,-492"/>
<text text-anchor="start" x="678" y="-480" font-family="Helvetica,sans-Serif" font-size="10.00">userver/storages/postgres</text>
<text text-anchor="middle" x="741.5" y="-469" font-family="Helvetica,sans-Serif" font-size="10.00">/io/geometry_types.hpp</text>
</a>
</g>
</g>
<!-- Node3&#45;&gt;Node19 -->
<g id="edge32_Node000003_Node000019" class="edge">
<title>Node3&#45;&gt;Node19</title>
<g id="a_edge32_Node000003_Node000019"><a xlink:title=" ">
<path fill="none" stroke="#63b8ff" d="M547.72,-525.52C590.05,-515.14 644.1,-501.88 684.36,-492.01"/>
<polygon fill="#63b8ff" stroke="#63b8ff" points="546.66,-522.17 537.78,-527.95 548.32,-528.97 546.66,-522.17"/>
</a>
</g>
</g>
<!-- Node20 -->
<g id="Node000020" class="node">
<title>Node20</title>
<g id="a_Node000020"><a xlink:href="../../dd/d50/json__types_8hpp.html" target="_top" xlink:title="JSON I/O support.">
<polygon fill="white" stroke="#666666" points="345,-426 202,-426 202,-396 345,-396 345,-426"/>
<text text-anchor="start" x="210" y="-414" font-family="Helvetica,sans-Serif" font-size="10.00">userver/storages/postgres</text>
<text text-anchor="middle" x="273.5" y="-403" font-family="Helvetica,sans-Serif" font-size="10.00">/io/json_types.hpp</text>
</a>
</g>
</g>
<!-- Node3&#45;&gt;Node20 -->
<g id="edge33_Node000003_Node000020" class="edge">
<title>Node3&#45;&gt;Node20</title>
<g id="a_edge33_Node000003_Node000020"><a xlink:title=" ">
<path fill="none" stroke="#63b8ff" d="M398.79,-533.92C343.96,-526.61 278.72,-513.6 261.5,-492 246.44,-473.11 257.03,-443.49 265.61,-426.09"/>
<polygon fill="#63b8ff" stroke="#63b8ff" points="398.53,-537.41 408.9,-535.21 399.43,-530.47 398.53,-537.41"/>
</a>
</g>
</g>
<!-- Node21 -->
<g id="Node000021" class="node">
<title>Node21</title>
<g id="a_Node000021"><a xlink:href="../../d5/d60/range__types_8hpp.html" target="_top" xlink:title="Ranges I/O support.">
<polygon fill="white" stroke="#666666" points="414,-492 271,-492 271,-462 414,-462 414,-492"/>
<text text-anchor="start" x="279" y="-480" font-family="Helvetica,sans-Serif" font-size="10.00">userver/storages/postgres</text>
<text text-anchor="middle" x="342.5" y="-469" font-family="Helvetica,sans-Serif" font-size="10.00">/io/range_types.hpp</text>
</a>
</g>
</g>
<!-- Node3&#45;&gt;Node21 -->
<g id="edge35_Node000003_Node000021" class="edge">
<title>Node3&#45;&gt;Node21</title>
<g id="a_edge35_Node000003_Node000021"><a xlink:title=" ">
<path fill="none" stroke="#63b8ff" d="M440.93,-523.65C419.23,-513.58 392.74,-501.3 372.71,-492.01"/>
<polygon fill="#63b8ff" stroke="#63b8ff" points="439.67,-526.92 450.22,-527.95 442.62,-520.57 439.67,-526.92"/>
</a>
</g>
</g>
<!-- Node22 -->
<g id="Node000022" class="node">
<title>Node22</title>
<g id="a_Node000022"><a xlink:href="../../d9/d6e/transform__io_8hpp_source.html" target="_top" xlink:title=" ">
<polygon fill="white" stroke="#666666" points="652,-492 509,-492 509,-462 652,-462 652,-492"/>
<text text-anchor="start" x="517" y="-480" font-family="Helvetica,sans-Serif" font-size="10.00">userver/storages/postgres</text>
<text text-anchor="middle" x="580.5" y="-469" font-family="Helvetica,sans-Serif" font-size="10.00">/io/transform_io.hpp</text>
</a>
</g>
</g>
<!-- Node3&#45;&gt;Node22 -->
<g id="edge37_Node000003_Node000022" class="edge">
<title>Node3&#45;&gt;Node22</title>
<g id="a_edge37_Node000003_Node000022"><a xlink:title=" ">
<path fill="none" stroke="#63b8ff" d="M511.28,-522.3C526.5,-512.56 544.53,-501.02 558.37,-492.16"/>
<polygon fill="#63b8ff" stroke="#63b8ff" points="509.23,-519.46 502.69,-527.8 513,-525.35 509.23,-519.46"/>
</a>
</g>
</g>
<!-- Node4&#45;&gt;Node5 -->
<g id="edge4_Node000004_Node000005" class="edge">
<title>Node4&#45;&gt;Node5</title>
<g id="a_edge4_Node000004_Node000005"><a xlink:title=" ">
<path fill="none" stroke="#63b8ff" d="M473.5,-385.54C473.5,-376.96 473.5,-367.61 473.5,-360.16"/>
<polygon fill="#63b8ff" stroke="#63b8ff" points="470,-385.8 473.5,-395.8 477,-385.8 470,-385.8"/>
</a>
</g>
</g>
<!-- Node6 -->
<g id="Node000006" class="node">
<title>Node6</title>
<g id="a_Node000006"><a xlink:href="../../d2/d3f/query__parameters_8hpp_source.html" target="_top" xlink:title=" ">
<polygon fill="white" stroke="#666666" points="569,-294 408,-294 408,-264 569,-264 569,-294"/>
<text text-anchor="start" x="416" y="-282" font-family="Helvetica,sans-Serif" font-size="10.00">userver/storages/postgres</text>
<text text-anchor="middle" x="488.5" y="-271" font-family="Helvetica,sans-Serif" font-size="10.00">/detail/query_parameters.hpp</text>
</a>
</g>
</g>
<!-- Node5&#45;&gt;Node6 -->
<g id="edge5_Node000005_Node000006" class="edge">
<title>Node5&#45;&gt;Node6</title>
<g id="a_edge5_Node000005_Node000006"><a xlink:title=" ">
<path fill="none" stroke="#63b8ff" d="M479.17,-319.83C481.19,-311.17 483.41,-301.7 485.18,-294.16"/>
<polygon fill="#63b8ff" stroke="#63b8ff" points="475.7,-319.26 476.83,-329.8 482.52,-320.86 475.7,-319.26"/>
</a>
</g>
</g>
<!-- Node15 -->
<g id="Node000015" class="node">
<title>Node15</title>
<g id="a_Node000015"><a xlink:href="../../de/d1d/result__set_8hpp.html" target="_top" xlink:title="Result accessors.">
<polygon fill="white" stroke="#666666" points="337,-294 194,-294 194,-264 337,-264 337,-294"/>
<text text-anchor="start" x="202" y="-282" font-family="Helvetica,sans-Serif" font-size="10.00">userver/storages/postgres</text>
<text text-anchor="middle" x="265.5" y="-271" font-family="Helvetica,sans-Serif" font-size="10.00">/result_set.hpp</text>
</a>
</g>
</g>
<!-- Node5&#45;&gt;Node15 -->
<g id="edge20_Node000005_Node000015" class="edge">
<title>Node5&#45;&gt;Node15</title>
<g id="a_edge20_Node000005_Node000015"><a xlink:title=" ">
<path fill="none" stroke="#63b8ff" d="M418.21,-326.99C384.75,-316.69 342.58,-303.72 311.04,-294.01"/>
<polygon fill="#63b8ff" stroke="#63b8ff" points="417.27,-330.36 427.85,-329.95 419.33,-323.67 417.27,-330.36"/>
</a>
</g>
</g>
<!-- Node7 -->
<g id="Node000007" class="node">
<title>Node7</title>
<g id="a_Node000007"><a xlink:href="../../d4/dd3/non__transaction_8hpp_source.html" target="_top" xlink:title=" ">
<polygon fill="white" stroke="#666666" points="810,-162 661,-162 661,-132 810,-132 810,-162"/>
<text text-anchor="start" x="669" y="-150" font-family="Helvetica,sans-Serif" font-size="10.00">userver/storages/postgres</text>
<text text-anchor="middle" x="735.5" y="-139" font-family="Helvetica,sans-Serif" font-size="10.00">/detail/non_transaction.hpp</text>
</a>
</g>
</g>
<!-- Node6&#45;&gt;Node7 -->
<g id="edge6_Node000006_Node000007" class="edge">
<title>Node6&#45;&gt;Node7</title>
<g id="a_edge6_Node000006_Node000007"><a xlink:title=" ">
<path fill="none" stroke="#63b8ff" d="M579.35,-278.3C673.53,-276.44 811.67,-266.9 845.5,-228 869.83,-200.03 822.94,-176.27 783.04,-162.09"/>
<polygon fill="#63b8ff" stroke="#63b8ff" points="579.17,-274.8 569.24,-278.47 579.29,-281.8 579.17,-274.8"/>
</a>
</g>
</g>
<!-- Node11 -->
<g id="Node000011" class="node">
<title>Node11</title>
<g id="a_Node000011"><a xlink:href="../../db/d6e/parameter__store_8hpp.html" target="_top" xlink:title="Class for dynamic PostgreSQL parameter list construction.">
<polygon fill="white" stroke="#666666" points="836,-228 693,-228 693,-198 836,-198 836,-228"/>
<text text-anchor="start" x="701" y="-216" font-family="Helvetica,sans-Serif" font-size="10.00">userver/storages/postgres</text>
<text text-anchor="middle" x="764.5" y="-205" font-family="Helvetica,sans-Serif" font-size="10.00">/parameter_store.hpp</text>
</a>
</g>
</g>
<!-- Node6&#45;&gt;Node11 -->
<g id="edge10_Node000006_Node000011" class="edge">
<title>Node6&#45;&gt;Node11</title>
<g id="a_edge10_Node000006_Node000011"><a xlink:title=" ">
<path fill="none" stroke="#63b8ff" d="M559.02,-261.65C603.86,-251.25 661.32,-237.93 704.07,-228.01"/>
<polygon fill="#63b8ff" stroke="#63b8ff" points="558.02,-258.29 549.07,-263.95 559.6,-265.11 558.02,-258.29"/>
</a>
</g>
</g>
<!-- Node12 -->
<g id="Node000012" class="node">
<title>Node12</title>
<g id="a_Node000012"><a xlink:href="../../da/deb/postgresql_2include_2userver_2storages_2postgres_2transaction_8hpp.html" target="_top" xlink:title="Transactions.">
<polygon fill="white" stroke="#666666" points="537,-162 394,-162 394,-132 537,-132 537,-162"/>
<text text-anchor="start" x="402" y="-150" font-family="Helvetica,sans-Serif" font-size="10.00">userver/storages/postgres</text>
<text text-anchor="middle" x="465.5" y="-139" font-family="Helvetica,sans-Serif" font-size="10.00">/transaction.hpp</text>
</a>
</g>
</g>
<!-- Node6&#45;&gt;Node12 -->
<g id="edge19_Node000006_Node000012" class="edge">
<title>Node6&#45;&gt;Node12</title>
<g id="a_edge19_Node000006_Node000012"><a xlink:title=" ">
<path fill="none" stroke="#63b8ff" d="M484.2,-253.68C479.42,-226.7 471.89,-184.11 468,-162.14"/>
<polygon fill="#63b8ff" stroke="#63b8ff" points="480.81,-254.6 485.99,-263.84 487.7,-253.38 480.81,-254.6"/>
</a>
</g>
</g>
<!-- Node13 -->
<g id="Node000013" class="node">
<title>Node13</title>
<g id="a_Node000013"><a xlink:href="../../d2/de3/portal_8hpp_source.html" target="_top" xlink:title=" ">
<polygon fill="white" stroke="#666666" points="437,-228 294,-228 294,-198 437,-198 437,-228"/>
<text text-anchor="start" x="302" y="-216" font-family="Helvetica,sans-Serif" font-size="10.00">userver/storages/postgres</text>
<text text-anchor="middle" x="365.5" y="-205" font-family="Helvetica,sans-Serif" font-size="10.00">/portal.hpp</text>
</a>
</g>
</g>
<!-- Node6&#45;&gt;Node13 -->
<g id="edge15_Node000006_Node000013" class="edge">
<title>Node6&#45;&gt;Node13</title>
<g id="a_edge15_Node000006_Node000013"><a xlink:title=" ">
<path fill="none" stroke="#63b8ff" d="M452.45,-259.24C433.25,-249.25 410.04,-237.18 392.43,-228.01"/>
<polygon fill="#63b8ff" stroke="#63b8ff" points="451.02,-262.44 461.51,-263.95 454.25,-256.23 451.02,-262.44"/>
</a>
</g>
</g>
<!-- Node14 -->
<g id="Node000014" class="node">
<title>Node14</title>
<g id="a_Node000014"><a xlink:href="../../d8/d63/query__queue_8hpp.html" target="_top" xlink:title="An utility to execute multiple queries in a single network round&#45;trip.">
<polygon fill="white" stroke="#666666" points="675,-228 532,-228 532,-198 675,-198 675,-228"/>
<text text-anchor="start" x="540" y="-216" font-family="Helvetica,sans-Serif" font-size="10.00">userver/storages/postgres</text>
<text text-anchor="middle" x="603.5" y="-205" font-family="Helvetica,sans-Serif" font-size="10.00">/query_queue.hpp</text>
</a>
</g>
</g>
<!-- Node6&#45;&gt;Node14 -->
<g id="edge17_Node000006_Node000014" class="edge">
<title>Node6&#45;&gt;Node14</title>
<g id="a_edge17_Node000006_Node000014"><a xlink:title=" ">
<path fill="none" stroke="#63b8ff" d="M522.7,-258.97C540.55,-249.03 562.01,-237.09 578.32,-228.01"/>
<polygon fill="#63b8ff" stroke="#63b8ff" points="520.77,-256.03 513.74,-263.95 524.18,-262.15 520.77,-256.03"/>
</a>
</g>
</g>
<!-- Node8 -->
<g id="Node000008" class="node">
<title>Node8</title>
<g id="a_Node000008"><a xlink:href="../../de/dd3/postgresql_2include_2userver_2storages_2postgres_2cluster_8hpp.html" target="_top" xlink:title="Interface for executing queries on a cluster of PostgreSQL servers.">
<polygon fill="white" stroke="#666666" points="675,-96 532,-96 532,-66 675,-66 675,-96"/>
<text text-anchor="start" x="540" y="-84" font-family="Helvetica,sans-Serif" font-size="10.00">userver/storages/postgres</text>
<text text-anchor="middle" x="603.5" y="-73" font-family="Helvetica,sans-Serif" font-size="10.00">/cluster.hpp</text>
</a>
</g>
</g>
<!-- Node7&#45;&gt;Node8 -->
<g id="edge7_Node000007_Node000008" class="edge">
<title>Node7&#45;&gt;Node8</title>
<g id="a_edge7_Node000007_Node000008"><a xlink:title=" ">
<path fill="none" stroke="#63b8ff" d="M697.37,-127.51C676.66,-117.47 651.47,-105.26 632.4,-96.01"/>
<polygon fill="#63b8ff" stroke="#63b8ff" points="696.01,-130.74 706.53,-131.95 699.06,-124.44 696.01,-130.74"/>
</a>
</g>
</g>
<!-- Node9 -->
<g id="Node000009" class="node">
<title>Node9</title>
<g id="a_Node000009"><a xlink:href="../../dc/df7/base__postgres__cache_8hpp.html" target="_top" xlink:title="Caching component for PostgreSQL. See Caching Component for PostgreSQL.">
<polygon fill="white" stroke="#666666" points="818,-30 699,-30 699,0 818,0 818,-30"/>
<text text-anchor="start" x="707" y="-18" font-family="Helvetica,sans-Serif" font-size="10.00">userver/cache/base</text>
<text text-anchor="middle" x="758.5" y="-7" font-family="Helvetica,sans-Serif" font-size="10.00">_postgres_cache.hpp</text>
</a>
</g>
</g>
<!-- Node8&#45;&gt;Node9 -->
<g id="edge8_Node000008_Node000009" class="edge">
<title>Node8&#45;&gt;Node9</title>
<g id="a_edge8_Node000008_Node000009"><a xlink:title=" ">
<path fill="none" stroke="#63b8ff" d="M646.96,-62.05C671.52,-51.91 701.77,-39.43 724.56,-30.01"/>
<polygon fill="#63b8ff" stroke="#63b8ff" points="645.42,-58.9 637.52,-65.95 648.09,-65.37 645.42,-58.9"/>
</a>
</g>
</g>
<!-- Node10 -->
<g id="Node000010" class="node">
<title>Node10</title>
<g id="a_Node000010"><a xlink:href="../../df/d02/postgres_8hpp.html" target="_top" xlink:title=" ">
<polygon fill="white" stroke="#666666" points="537,-30 394,-30 394,0 537,0 537,-30"/>
<text text-anchor="start" x="402" y="-18" font-family="Helvetica,sans-Serif" font-size="10.00">userver/storages/postgres</text>
<text text-anchor="middle" x="465.5" y="-7" font-family="Helvetica,sans-Serif" font-size="10.00">/postgres.hpp</text>
</a>
</g>
</g>
<!-- Node8&#45;&gt;Node10 -->
<g id="edge9_Node000008_Node000010" class="edge">
<title>Node8&#45;&gt;Node10</title>
<g id="a_edge9_Node000008_Node000010"><a xlink:title=" ">
<path fill="none" stroke="#63b8ff" d="M563.93,-61.65C542.23,-51.58 515.74,-39.3 495.71,-30.01"/>
<polygon fill="#63b8ff" stroke="#63b8ff" points="562.67,-64.92 573.22,-65.95 565.62,-58.57 562.67,-64.92"/>
</a>
</g>
</g>
<!-- Node11&#45;&gt;Node7 -->
<g id="edge11_Node000011_Node000007" class="edge">
<title>Node11&#45;&gt;Node7</title>
<g id="a_edge11_Node000011_Node000007"><a xlink:title=" ">
<path fill="none" stroke="#63b8ff" d="M753.93,-188.68C749.91,-179.79 745.44,-169.95 741.92,-162.16"/>
<polygon fill="#63b8ff" stroke="#63b8ff" points="750.75,-190.13 758.06,-197.8 757.12,-187.24 750.75,-190.13"/>
</a>
</g>
</g>
<!-- Node11&#45;&gt;Node12 -->
<g id="edge12_Node000011_Node000012" class="edge">
<title>Node11&#45;&gt;Node12</title>
<g id="a_edge12_Node000011_Node000012"><a xlink:title=" ">
<path fill="none" stroke="#63b8ff" d="M689.02,-195.84C640.31,-185.42 577.57,-171.99 530.96,-162.01"/>
<polygon fill="#63b8ff" stroke="#63b8ff" points="688.37,-199.28 698.88,-197.95 689.84,-192.44 688.37,-199.28"/>
</a>
</g>
</g>
<!-- Node12&#45;&gt;Node8 -->
<g id="edge13_Node000012_Node000008" class="edge">
<title>Node12&#45;&gt;Node8</title>
<g id="a_edge13_Node000012_Node000008"><a xlink:title=" ">
<path fill="none" stroke="#63b8ff" d="M505.07,-127.65C526.77,-117.58 553.26,-105.3 573.29,-96.01"/>
<polygon fill="#63b8ff" stroke="#63b8ff" points="503.38,-124.57 495.78,-131.95 506.33,-130.92 503.38,-124.57"/>
</a>
</g>
</g>
<!-- Node12&#45;&gt;Node10 -->
<g id="edge14_Node000012_Node000010" class="edge">
<title>Node12&#45;&gt;Node10</title>
<g id="a_edge14_Node000012_Node000010"><a xlink:title=" ">
<path fill="none" stroke="#63b8ff" d="M465.5,-121.68C465.5,-94.7 465.5,-52.11 465.5,-30.14"/>
<polygon fill="#63b8ff" stroke="#63b8ff" points="462,-121.84 465.5,-131.84 469,-121.84 462,-121.84"/>
</a>
</g>
</g>
<!-- Node13&#45;&gt;Node12 -->
<g id="edge16_Node000013_Node000012" class="edge">
<title>Node13&#45;&gt;Node12</title>
<g id="a_edge16_Node000013_Node000012"><a xlink:title=" ">
<path fill="none" stroke="#63b8ff" d="M396.28,-192.3C411.5,-182.56 429.53,-171.02 443.37,-162.16"/>
<polygon fill="#63b8ff" stroke="#63b8ff" points="394.23,-189.46 387.69,-197.8 398,-195.35 394.23,-189.46"/>
</a>
</g>
</g>
<!-- Node14&#45;&gt;Node8 -->
<g id="edge18_Node000014_Node000008" class="edge">
<title>Node14&#45;&gt;Node8</title>
<g id="a_edge18_Node000014_Node000008"><a xlink:title=" ">
<path fill="none" stroke="#63b8ff" d="M603.5,-187.68C603.5,-160.7 603.5,-118.11 603.5,-96.14"/>
<polygon fill="#63b8ff" stroke="#63b8ff" points="600,-187.84 603.5,-197.84 607,-187.84 600,-187.84"/>
</a>
</g>
</g>
<!-- Node15&#45;&gt;Node7 -->
<g id="edge21_Node000015_Node000007" class="edge">
<title>Node15&#45;&gt;Node7</title>
<g id="a_edge21_Node000015_Node000007"><a xlink:title=" ">
<path fill="none" stroke="#63b8ff" d="M331.77,-261.3C365.98,-252.25 408.25,-240.4 445.5,-228 480.35,-216.4 487.42,-208.89 522.5,-198 569.11,-183.53 622.6,-170.99 664.31,-162.08"/>
<polygon fill="#63b8ff" stroke="#63b8ff" points="330.67,-257.97 321.88,-263.9 332.44,-264.74 330.67,-257.97"/>
</a>
</g>
</g>
<!-- Node15&#45;&gt;Node10 -->
<g id="edge26_Node000015_Node000010" class="edge">
<title>Node15&#45;&gt;Node10</title>
<g id="a_edge26_Node000015_Node000010"><a xlink:title=" ">
<path fill="none" stroke="#63b8ff" d="M260.59,-254.08C258.36,-237.61 257.71,-215.61 265.5,-198 301.38,-116.85 393.29,-56.32 438.94,-30.2"/>
<polygon fill="#63b8ff" stroke="#63b8ff" points="257.15,-254.69 262.21,-264 264.05,-253.57 257.15,-254.69"/>
</a>
</g>
</g>
<!-- Node15&#45;&gt;Node12 -->
<g id="edge28_Node000015_Node000012" class="edge">
<title>Node15&#45;&gt;Node12</title>
<g id="a_edge28_Node000015_Node000012"><a xlink:title=" ">
<path fill="none" stroke="#63b8ff" d="M265.05,-253.69C266.05,-236.02 270.3,-212.72 284.5,-198 312.67,-168.78 356.25,-156.16 393.59,-150.9"/>
<polygon fill="#63b8ff" stroke="#63b8ff" points="261.55,-253.74 264.79,-263.83 268.54,-253.92 261.55,-253.74"/>
</a>
</g>
</g>
<!-- Node15&#45;&gt;Node13 -->
<g id="edge25_Node000015_Node000013" class="edge">
<title>Node15&#45;&gt;Node13</title>
<g id="a_edge25_Node000015_Node000013"><a xlink:title=" ">
<path fill="none" stroke="#63b8ff" d="M296.28,-258.3C311.5,-248.56 329.53,-237.02 343.37,-228.16"/>
<polygon fill="#63b8ff" stroke="#63b8ff" points="294.23,-255.46 287.69,-263.8 298,-261.35 294.23,-255.46"/>
</a>
</g>
</g>
<!-- Node15&#45;&gt;Node14 -->
<g id="edge27_Node000015_Node000014" class="edge">
<title>Node15&#45;&gt;Node14</title>
<g id="a_edge27_Node000015_Node000014"><a xlink:title=" ">
<path fill="none" stroke="#63b8ff" d="M347.14,-262.54C403.54,-251.86 477.84,-237.79 531.92,-227.55"/>
<polygon fill="#63b8ff" stroke="#63b8ff" points="346.36,-259.13 337.18,-264.43 347.66,-266.01 346.36,-259.13"/>
</a>
</g>
</g>
<!-- Node16 -->
<g id="Node000016" class="node">
<title>Node16</title>
<g id="a_Node000016"><a xlink:href="../../d7/d52/typed__rows_8hpp_source.html" target="_top" xlink:title=" ">
<polygon fill="white" stroke="#666666" points="143,-228 0,-228 0,-198 143,-198 143,-228"/>
<text text-anchor="start" x="8" y="-216" font-family="Helvetica,sans-Serif" font-size="10.00">userver/storages/postgres</text>
<text text-anchor="middle" x="71.5" y="-205" font-family="Helvetica,sans-Serif" font-size="10.00">/detail/typed_rows.hpp</text>
</a>
</g>
</g>
<!-- Node15&#45;&gt;Node16 -->
<g id="edge22_Node000015_Node000016" class="edge">
<title>Node15&#45;&gt;Node16</title>
<g id="a_edge22_Node000015_Node000016"><a xlink:title=" ">
<path fill="none" stroke="#63b8ff" d="M213.13,-260.72C182.04,-250.47 143.14,-237.63 113.97,-228.01"/>
<polygon fill="#63b8ff" stroke="#63b8ff" points="212.33,-264.15 222.93,-263.95 214.53,-257.5 212.33,-264.15"/>
</a>
</g>
</g>
<!-- Node17 -->
<g id="Node000017" class="node">
<title>Node17</title>
<g id="a_Node000017"><a xlink:href="../../d1/dee/typed__result__set_8hpp.html" target="_top" xlink:title="Typed PostgreSQL results.">
<polygon fill="white" stroke="#666666" points="199,-162 56,-162 56,-132 199,-132 199,-162"/>
<text text-anchor="start" x="64" y="-150" font-family="Helvetica,sans-Serif" font-size="10.00">userver/storages/postgres</text>
<text text-anchor="middle" x="127.5" y="-139" font-family="Helvetica,sans-Serif" font-size="10.00">/typed_result_set.hpp</text>
</a>
</g>
</g>
<!-- Node15&#45;&gt;Node17 -->
<g id="edge29_Node000015_Node000017" class="edge">
<title>Node15&#45;&gt;Node17</title>
<g id="a_edge29_Node000015_Node000017"><a xlink:title=" ">
<path fill="none" stroke="#63b8ff" d="M238.29,-257.18C207.6,-230.53 159.59,-185.09 138.11,-162.14"/>
<polygon fill="#63b8ff" stroke="#63b8ff" points="236.2,-259.99 246.07,-263.84 240.75,-254.68 236.2,-259.99"/>
</a>
</g>
</g>
<!-- Node16&#45;&gt;Node17 -->
<g id="edge23_Node000016_Node000017" class="edge">
<title>Node16&#45;&gt;Node17</title>
<g id="a_edge23_Node000016_Node000017"><a xlink:title=" ">
<path fill="none" stroke="#63b8ff" d="M90.67,-190.09C98.76,-180.85 107.94,-170.36 115.11,-162.16"/>
<polygon fill="#63b8ff" stroke="#63b8ff" points="87.88,-187.97 83.93,-197.8 93.15,-192.58 87.88,-187.97"/>
</a>
</g>
</g>
<!-- Node17&#45;&gt;Node15 -->
<g id="edge24_Node000017_Node000015" class="edge">
<title>Node17&#45;&gt;Node15</title>
<g id="a_edge24_Node000017_Node000015"><a xlink:title=" ">
<path fill="none" stroke="#63b8ff" d="M154.69,-168.8C185.37,-195.44 233.38,-240.88 254.87,-263.84"/>
<polygon fill="#63b8ff" stroke="#63b8ff" points="156.78,-165.99 146.91,-162.14 152.23,-171.31 156.78,-165.99"/>
</a>
</g>
</g>
<!-- Node18&#45;&gt;Node5 -->
<g id="edge31_Node000018_Node000005" class="edge">
<title>Node18&#45;&gt;Node5</title>
<g id="a_edge31_Node000018_Node000005"><a xlink:title=" ">
<path fill="none" stroke="#63b8ff" d="M589.69,-392.19C564.13,-382.02 532.53,-369.47 508.75,-360.01"/>
<polygon fill="#63b8ff" stroke="#63b8ff" points="588.58,-395.51 599.17,-395.95 591.17,-389.01 588.58,-395.51"/>
</a>
</g>
</g>
<!-- Node20&#45;&gt;Node5 -->
<g id="edge34_Node000020_Node000005" class="edge">
<title>Node20&#45;&gt;Node5</title>
<g id="a_edge34_Node000020_Node000005"><a xlink:title=" ">
<path fill="none" stroke="#63b8ff" d="M327.07,-392.86C359.19,-382.58 399.51,-369.68 429.71,-360.01"/>
<polygon fill="#63b8ff" stroke="#63b8ff" points="325.85,-389.57 317.39,-395.95 327.98,-396.24 325.85,-389.57"/>
</a>
</g>
</g>
<!-- Node21&#45;&gt;Node5 -->
<g id="edge36_Node000021_Node000005" class="edge">
<title>Node21&#45;&gt;Node5</title>
<g id="a_edge36_Node000021_Node000005"><a xlink:title=" ">
<path fill="none" stroke="#63b8ff" d="M353.43,-452.63C362.25,-435.52 375.9,-412.51 392.5,-396 407.38,-381.2 427.43,-368.78 443.86,-360.02"/>
<polygon fill="#63b8ff" stroke="#63b8ff" points="350.12,-451.42 348.81,-461.93 356.39,-454.53 350.12,-451.42"/>
</a>
</g>
</g>
<!-- Node23 -->
<g id="Node000023" class="node">
<title>Node23</title>
<g id="a_Node000023"><a xlink:href="../../d6/db8/chrono_8hpp.html" target="_top" xlink:title="Timestamp (std::chrono::*) I/O support.">
<polygon fill="white" stroke="#666666" points="974,-426 831,-426 831,-396 974,-396 974,-426"/>
<text text-anchor="start" x="839" y="-414" font-family="Helvetica,sans-Serif" font-size="10.00">userver/storages/postgres</text>
<text text-anchor="middle" x="902.5" y="-403" font-family="Helvetica,sans-Serif" font-size="10.00">/io/chrono.hpp</text>
</a>
</g>
</g>
<!-- Node22&#45;&gt;Node23 -->
<g id="edge38_Node000022_Node000023" class="edge">
<title>Node22&#45;&gt;Node23</title>
<g id="a_edge38_Node000022_Node000023"><a xlink:title=" ">
<path fill="none" stroke="#63b8ff" d="M661.13,-459.98C713.68,-449.53 781.6,-436.03 832,-426.01"/>
<polygon fill="#63b8ff" stroke="#63b8ff" points="660.29,-456.57 651.16,-461.95 661.65,-463.44 660.29,-456.57"/>
</a>
</g>
</g>
<!-- Node23&#45;&gt;Node5 -->
<g id="edge40_Node000023_Node000005" class="edge">
<title>Node23&#45;&gt;Node5</title>
<g id="a_edge40_Node000023_Node000005"><a xlink:title=" ">
<path fill="none" stroke="#63b8ff" d="M820.44,-396.61C819.12,-396.4 817.8,-396.2 816.5,-396 722.83,-381.55 614.59,-365.95 545.16,-356.09"/>
<polygon fill="#63b8ff" stroke="#63b8ff" points="820.3,-400.13 830.72,-398.22 821.38,-393.22 820.3,-400.13"/>
</a>
</g>
</g>
<!-- Node23&#45;&gt;Node9 -->
<g id="edge39_Node000023_Node000009" class="edge">
<title>Node23&#45;&gt;Node9</title>
<g id="a_edge39_Node000023_Node000009"><a xlink:title=" ">
<path fill="none" stroke="#63b8ff" d="M902.5,-385.86C902.5,-359.76 902.5,-316.93 902.5,-280 902.5,-280 902.5,-280 902.5,-146 902.5,-88.07 837.5,-49.3 794.84,-30.09"/>
<polygon fill="#63b8ff" stroke="#63b8ff" points="899,-385.96 902.5,-395.96 906,-385.96 899,-385.96"/>
</a>
</g>
</g>
<!-- Node24&#45;&gt;Node5 -->
<g id="edge43_Node000024_Node000005" class="edge">
<title>Node24&#45;&gt;Node5</title>
<g id="a_edge43_Node000024_Node000005"><a xlink:title=" ">
<path fill="none" stroke="#63b8ff" d="M779.33,-525.17C796.3,-517.8 812.08,-507.22 822.5,-492 830.03,-481 829,-473.64 822.5,-462 795.27,-413.21 767.43,-416.63 715.5,-396 660.38,-374.1 594.22,-361.27 545.01,-354.1"/>
<polygon fill="#63b8ff" stroke="#63b8ff" points="777.81,-522 769.8,-528.94 780.38,-528.51 777.81,-522"/>
</a>
</g>
</g>
<!-- Node24&#45;&gt;Node19 -->
<g id="edge42_Node000024_Node000019" class="edge">
<title>Node24&#45;&gt;Node19</title>
<g id="a_edge42_Node000024_Node000019"><a xlink:title=" ">
<path fill="none" stroke="#63b8ff" d="M710.36,-519.53C717.18,-510.43 724.85,-500.19 730.88,-492.16"/>
<polygon fill="#63b8ff" stroke="#63b8ff" points="707.35,-517.7 704.15,-527.8 712.95,-521.9 707.35,-517.7"/>
</a>
</g>
</g>
<!-- Node25&#45;&gt;Node23 -->
<g id="edge45_Node000025_Node000023" class="edge">
<title>Node25&#45;&gt;Node23</title>
<g id="a_edge45_Node000025_Node000023"><a xlink:title=" ">
<path fill="none" stroke="#63b8ff" d="M867.43,-518.04C876.34,-491.08 890.52,-448.21 897.82,-426.14"/>
<polygon fill="#63b8ff" stroke="#63b8ff" points="864,-517.25 864.18,-527.84 870.65,-519.45 864,-517.25"/>
</a>
</g>
</g>
</g>
</svg>
