<?xml version="1.0" encoding="UTF-8" standalone="no"?>
<!DOCTYPE svg PUBLIC "-//W3C//DTD SVG 1.1//EN"
 "http://www.w3.org/Graphics/SVG/1.1/DTD/svg11.dtd">
<!-- Generated by graphviz version 2.43.0 (0)
 -->
<!-- Title: userver/storages/postgres/io/integral_types.hpp Pages: 1 -->
<svg width="1075pt" height="632pt"
 viewBox="0.00 0.00 1075.00 632.00" xmlns="http://www.w3.org/2000/svg" xmlns:xlink="http://www.w3.org/1999/xlink">
<g id="graph0" class="graph" transform="scale(1 1) rotate(0) translate(4 628)">
<title>userver/storages/postgres/io/integral_types.hpp</title>
<!-- Node1 -->
<g id="Node000001" class="node">
<title>Node1</title>
<g id="a_Node000001"><a xlink:title="Integral types I/O support.">
<polygon fill="#999999" stroke="#666666" points="638,-624 495,-624 495,-594 638,-594 638,-624"/>
<text text-anchor="start" x="503" y="-612" font-family="Helvetica,sans-Serif" font-size="10.00">userver/storages/postgres</text>
<text text-anchor="middle" x="566.5" y="-601" font-family="Helvetica,sans-Serif" font-size="10.00">/io/integral_types.hpp</text>
</a>
</g>
</g>
<!-- Node2 -->
<g id="Node000002" class="node">
<title>Node2</title>
<g id="a_Node000002"><a xlink:href="../../d5/d3a/postgresql_2include_2userver_2storages_2postgres_2io_2date_8hpp.html" target="_top" xlink:title="utils::datetime::Date I/O support">
<polygon fill="white" stroke="#666666" points="143,-558 0,-558 0,-528 143,-528 143,-558"/>
<text text-anchor="start" x="8" y="-546" font-family="Helvetica,sans-Serif" font-size="10.00">userver/storages/postgres</text>
<text text-anchor="middle" x="71.5" y="-535" font-family="Helvetica,sans-Serif" font-size="10.00">/io/date.hpp</text>
</a>
</g>
</g>
<!-- Node1&#45;&gt;Node2 -->
<g id="edge1_Node000001_Node000002" class="edge">
<title>Node1&#45;&gt;Node2</title>
<g id="a_edge1_Node000001_Node000002"><a xlink:title=" ">
<path fill="none" stroke="#63b8ff" d="M484.64,-598.96C401.98,-589.61 270.69,-574.13 157.5,-558 152.86,-557.34 148.08,-556.63 143.26,-555.9"/>
<polygon fill="#63b8ff" stroke="#63b8ff" points="484.39,-602.46 494.72,-600.1 485.18,-595.5 484.39,-602.46"/>
</a>
</g>
</g>
<!-- Node3 -->
<g id="Node000003" class="node">
<title>Node3</title>
<g id="a_Node000003"><a xlink:href="../../da/d98/field__buffer_8hpp_source.html" target="_top" xlink:title=" ">
<polygon fill="white" stroke="#666666" points="536,-558 393,-558 393,-528 536,-528 536,-558"/>
<text text-anchor="start" x="401" y="-546" font-family="Helvetica,sans-Serif" font-size="10.00">userver/storages/postgres</text>
<text text-anchor="middle" x="464.5" y="-535" font-family="Helvetica,sans-Serif" font-size="10.00">/io/field_buffer.hpp</text>
</a>
</g>
</g>
<!-- Node1&#45;&gt;Node3 -->
<g id="edge2_Node000001_Node000003" class="edge">
<title>Node1&#45;&gt;Node3</title>
<g id="a_edge2_Node000001_Node000003"><a xlink:title=" ">
<path fill="none" stroke="#63b8ff" d="M535.29,-588.42C519.64,-578.6 501.04,-566.93 486.83,-558.01"/>
<polygon fill="#63b8ff" stroke="#63b8ff" points="533.78,-591.6 544.12,-593.95 537.51,-585.68 533.78,-591.6"/>
</a>
</g>
</g>
<!-- Node5 -->
<g id="Node000005" class="node">
<title>Node5</title>
<g id="a_Node000005"><a xlink:href="../../dc/da2/postgresql_2include_2userver_2storages_2postgres_2io_2supported__types_8hpp.html" target="_top" xlink:title="Includes parsers and formatters for all supported data types; prefer using the type specific include ...">
<polygon fill="white" stroke="#666666" points="543,-360 400,-360 400,-330 543,-330 543,-360"/>
<text text-anchor="start" x="408" y="-348" font-family="Helvetica,sans-Serif" font-size="10.00">userver/storages/postgres</text>
<text text-anchor="middle" x="471.5" y="-337" font-family="Helvetica,sans-Serif" font-size="10.00">/io/supported_types.hpp</text>
</a>
</g>
</g>
<!-- Node1&#45;&gt;Node5 -->
<g id="edge35_Node000001_Node000005" class="edge">
<title>Node1&#45;&gt;Node5</title>
<g id="a_edge35_Node000001_Node000005"><a xlink:title=" ">
<path fill="none" stroke="#63b8ff" d="M484.9,-600.77C385.85,-586.77 227.44,-545.76 190.5,-426 186.57,-413.26 181.94,-406.22 190.5,-396 216.71,-364.71 325.57,-352.99 399.84,-348.6"/>
<polygon fill="#63b8ff" stroke="#63b8ff" points="484.51,-604.25 494.89,-602.12 485.45,-597.32 484.51,-604.25"/>
</a>
</g>
</g>
<!-- Node20 -->
<g id="Node000020" class="node">
<title>Node20</title>
<g id="a_Node000020"><a xlink:href="../../d8/ddf/floating__point__types_8hpp.html" target="_top" xlink:title="Floating point I/O support.">
<polygon fill="white" stroke="#666666" points="744.5,-558 592.5,-558 592.5,-528 744.5,-528 744.5,-558"/>
<text text-anchor="start" x="600.5" y="-546" font-family="Helvetica,sans-Serif" font-size="10.00">userver/storages/postgres</text>
<text text-anchor="middle" x="668.5" y="-535" font-family="Helvetica,sans-Serif" font-size="10.00">/io/floating_point_types.hpp</text>
</a>
</g>
</g>
<!-- Node1&#45;&gt;Node20 -->
<g id="edge29_Node000001_Node000020" class="edge">
<title>Node1&#45;&gt;Node20</title>
<g id="a_edge29_Node000001_Node000020"><a xlink:title=" ">
<path fill="none" stroke="#63b8ff" d="M597.71,-588.42C613.36,-578.6 631.96,-566.93 646.17,-558.01"/>
<polygon fill="#63b8ff" stroke="#63b8ff" points="595.49,-585.68 588.88,-593.95 599.22,-591.6 595.49,-585.68"/>
</a>
</g>
</g>
<!-- Node21 -->
<g id="Node000021" class="node">
<title>Node21</title>
<g id="a_Node000021"><a xlink:href="../../dc/de2/interval_8hpp.html" target="_top" xlink:title="Time intervals I/O support.">
<polygon fill="white" stroke="#666666" points="906,-558 763,-558 763,-528 906,-528 906,-558"/>
<text text-anchor="start" x="771" y="-546" font-family="Helvetica,sans-Serif" font-size="10.00">userver/storages/postgres</text>
<text text-anchor="middle" x="834.5" y="-535" font-family="Helvetica,sans-Serif" font-size="10.00">/io/interval.hpp</text>
</a>
</g>
</g>
<!-- Node1&#45;&gt;Node21 -->
<g id="edge32_Node000001_Node000021" class="edge">
<title>Node1&#45;&gt;Node21</title>
<g id="a_edge32_Node000001_Node000021"><a xlink:title=" ">
<path fill="none" stroke="#63b8ff" d="M635.25,-591.58C678.75,-581.19 734.4,-567.9 775.82,-558.01"/>
<polygon fill="#63b8ff" stroke="#63b8ff" points="634.23,-588.23 625.31,-593.95 635.85,-595.04 634.23,-588.23"/>
</a>
</g>
</g>
<!-- Node22 -->
<g id="Node000022" class="node">
<title>Node22</title>
<g id="a_Node000022"><a xlink:href="../../d1/dd2/postgresql_2include_2userver_2storages_2postgres_2io_2ip_8hpp_source.html" target="_top" xlink:title=" ">
<polygon fill="white" stroke="#666666" points="1067,-558 924,-558 924,-528 1067,-528 1067,-558"/>
<text text-anchor="start" x="932" y="-546" font-family="Helvetica,sans-Serif" font-size="10.00">userver/storages/postgres</text>
<text text-anchor="middle" x="995.5" y="-535" font-family="Helvetica,sans-Serif" font-size="10.00">/io/ip.hpp</text>
</a>
</g>
</g>
<!-- Node1&#45;&gt;Node22 -->
<g id="edge34_Node000001_Node000022" class="edge">
<title>Node1&#45;&gt;Node22</title>
<g id="a_edge34_Node000001_Node000022"><a xlink:title=" ">
<path fill="none" stroke="#63b8ff" d="M648.31,-597.01C719.1,-587.32 824.18,-572.53 915.5,-558 918.28,-557.56 921.12,-557.1 923.99,-556.63"/>
<polygon fill="#63b8ff" stroke="#63b8ff" points="647.55,-593.58 638.12,-598.4 648.5,-600.51 647.55,-593.58"/>
</a>
</g>
</g>
<!-- Node4 -->
<g id="Node000004" class="node">
<title>Node4</title>
<g id="a_Node000004"><a xlink:href="../../d4/d90/array__types_8hpp.html" target="_top" xlink:title="I/O support for arrays (std::array, std::set, std::unordered_set, std::vector)">
<polygon fill="white" stroke="#666666" points="543,-426 400,-426 400,-396 543,-396 543,-426"/>
<text text-anchor="start" x="408" y="-414" font-family="Helvetica,sans-Serif" font-size="10.00">userver/storages/postgres</text>
<text text-anchor="middle" x="471.5" y="-403" font-family="Helvetica,sans-Serif" font-size="10.00">/io/array_types.hpp</text>
</a>
</g>
</g>
<!-- Node3&#45;&gt;Node4 -->
<g id="edge3_Node000003_Node000004" class="edge">
<title>Node3&#45;&gt;Node4</title>
<g id="a_edge3_Node000003_Node000004"><a xlink:title=" ">
<path fill="none" stroke="#63b8ff" d="M455.68,-518.2C450.91,-502.26 446.71,-480.82 450.5,-462 453.03,-449.45 458.8,-436.12 463.65,-426.39"/>
<polygon fill="#63b8ff" stroke="#63b8ff" points="452.38,-519.38 458.81,-527.8 459.03,-517.2 452.38,-519.38"/>
</a>
</g>
</g>
<!-- Node14 -->
<g id="Node000014" class="node">
<title>Node14</title>
<g id="a_Node000014"><a xlink:href="../../d4/dda/composite__types_8hpp.html" target="_top" xlink:title="Composite types I/O support.">
<polygon fill="white" stroke="#666666" points="704,-426 561,-426 561,-396 704,-396 704,-426"/>
<text text-anchor="start" x="569" y="-414" font-family="Helvetica,sans-Serif" font-size="10.00">userver/storages/postgres</text>
<text text-anchor="middle" x="632.5" y="-403" font-family="Helvetica,sans-Serif" font-size="10.00">/io/composite_types.hpp</text>
</a>
</g>
</g>
<!-- Node3&#45;&gt;Node14 -->
<g id="edge18_Node000003_Node000014" class="edge">
<title>Node3&#45;&gt;Node14</title>
<g id="a_edge18_Node000003_Node000014"><a xlink:title=" ">
<path fill="none" stroke="#63b8ff" d="M464.28,-517.91C465.4,-500.36 469.71,-477.1 483.5,-462 495.83,-448.5 536.07,-435.43 571.63,-426.05"/>
<polygon fill="#63b8ff" stroke="#63b8ff" points="460.78,-517.86 463.94,-527.98 467.78,-518.1 460.78,-517.86"/>
</a>
</g>
</g>
<!-- Node15 -->
<g id="Node000015" class="node">
<title>Node15</title>
<g id="a_Node000015"><a xlink:href="../../da/d26/geometry__types_8hpp.html" target="_top" xlink:title="Geometry I/O support.">
<polygon fill="white" stroke="#666666" points="797,-492 654,-492 654,-462 797,-462 797,-492"/>
<text text-anchor="start" x="662" y="-480" font-family="Helvetica,sans-Serif" font-size="10.00">userver/storages/postgres</text>
<text text-anchor="middle" x="725.5" y="-469" font-family="Helvetica,sans-Serif" font-size="10.00">/io/geometry_types.hpp</text>
</a>
</g>
</g>
<!-- Node3&#45;&gt;Node15 -->
<g id="edge20_Node000003_Node000015" class="edge">
<title>Node3&#45;&gt;Node15</title>
<g id="a_edge20_Node000003_Node000015"><a xlink:title=" ">
<path fill="none" stroke="#63b8ff" d="M531.72,-525.52C574.05,-515.14 628.1,-501.88 668.36,-492.01"/>
<polygon fill="#63b8ff" stroke="#63b8ff" points="530.66,-522.17 521.78,-527.95 532.32,-528.97 530.66,-522.17"/>
</a>
</g>
</g>
<!-- Node16 -->
<g id="Node000016" class="node">
<title>Node16</title>
<g id="a_Node000016"><a xlink:href="../../dd/d50/json__types_8hpp.html" target="_top" xlink:title="JSON I/O support.">
<polygon fill="white" stroke="#666666" points="343,-426 200,-426 200,-396 343,-396 343,-426"/>
<text text-anchor="start" x="208" y="-414" font-family="Helvetica,sans-Serif" font-size="10.00">userver/storages/postgres</text>
<text text-anchor="middle" x="271.5" y="-403" font-family="Helvetica,sans-Serif" font-size="10.00">/io/json_types.hpp</text>
</a>
</g>
</g>
<!-- Node3&#45;&gt;Node16 -->
<g id="edge21_Node000003_Node000016" class="edge">
<title>Node3&#45;&gt;Node16</title>
<g id="a_edge21_Node000003_Node000016"><a xlink:title=" ">
<path fill="none" stroke="#63b8ff" d="M382.79,-533.92C327.96,-526.61 262.72,-513.6 245.5,-492 229.93,-472.47 246.76,-443.34 259.65,-426.14"/>
<polygon fill="#63b8ff" stroke="#63b8ff" points="382.53,-537.41 392.9,-535.21 383.43,-530.47 382.53,-537.41"/>
</a>
</g>
</g>
<!-- Node17 -->
<g id="Node000017" class="node">
<title>Node17</title>
<g id="a_Node000017"><a xlink:href="../../d5/d60/range__types_8hpp.html" target="_top" xlink:title="Ranges I/O support.">
<polygon fill="white" stroke="#666666" points="398,-492 255,-492 255,-462 398,-462 398,-492"/>
<text text-anchor="start" x="263" y="-480" font-family="Helvetica,sans-Serif" font-size="10.00">userver/storages/postgres</text>
<text text-anchor="middle" x="326.5" y="-469" font-family="Helvetica,sans-Serif" font-size="10.00">/io/range_types.hpp</text>
</a>
</g>
</g>
<!-- Node3&#45;&gt;Node17 -->
<g id="edge23_Node000003_Node000017" class="edge">
<title>Node3&#45;&gt;Node17</title>
<g id="a_edge23_Node000003_Node000017"><a xlink:title=" ">
<path fill="none" stroke="#63b8ff" d="M424.93,-523.65C403.23,-513.58 376.74,-501.3 356.71,-492.01"/>
<polygon fill="#63b8ff" stroke="#63b8ff" points="423.67,-526.92 434.22,-527.95 426.62,-520.57 423.67,-526.92"/>
</a>
</g>
</g>
<!-- Node18 -->
<g id="Node000018" class="node">
<title>Node18</title>
<g id="a_Node000018"><a xlink:href="../../d9/d6e/transform__io_8hpp_source.html" target="_top" xlink:title=" ">
<polygon fill="white" stroke="#666666" points="636,-492 493,-492 493,-462 636,-462 636,-492"/>
<text text-anchor="start" x="501" y="-480" font-family="Helvetica,sans-Serif" font-size="10.00">userver/storages/postgres</text>
<text text-anchor="middle" x="564.5" y="-469" font-family="Helvetica,sans-Serif" font-size="10.00">/io/transform_io.hpp</text>
</a>
</g>
</g>
<!-- Node3&#45;&gt;Node18 -->
<g id="edge25_Node000003_Node000018" class="edge">
<title>Node3&#45;&gt;Node18</title>
<g id="a_edge25_Node000003_Node000018"><a xlink:title=" ">
<path fill="none" stroke="#63b8ff" d="M495.28,-522.3C510.5,-512.56 528.53,-501.02 542.37,-492.16"/>
<polygon fill="#63b8ff" stroke="#63b8ff" points="493.23,-519.46 486.69,-527.8 497,-525.35 493.23,-519.46"/>
</a>
</g>
</g>
<!-- Node4&#45;&gt;Node5 -->
<g id="edge4_Node000004_Node000005" class="edge">
<title>Node4&#45;&gt;Node5</title>
<g id="a_edge4_Node000004_Node000005"><a xlink:title=" ">
<path fill="none" stroke="#63b8ff" d="M471.5,-385.54C471.5,-376.96 471.5,-367.61 471.5,-360.16"/>
<polygon fill="#63b8ff" stroke="#63b8ff" points="468,-385.8 471.5,-395.8 475,-385.8 468,-385.8"/>
</a>
</g>
</g>
<!-- Node6 -->
<g id="Node000006" class="node">
<title>Node6</title>
<g id="a_Node000006"><a xlink:href="../../de/d1d/result__set_8hpp.html" target="_top" xlink:title="Result accessors.">
<polygon fill="white" stroke="#666666" points="543,-294 400,-294 400,-264 543,-264 543,-294"/>
<text text-anchor="start" x="408" y="-282" font-family="Helvetica,sans-Serif" font-size="10.00">userver/storages/postgres</text>
<text text-anchor="middle" x="471.5" y="-271" font-family="Helvetica,sans-Serif" font-size="10.00">/result_set.hpp</text>
</a>
</g>
</g>
<!-- Node5&#45;&gt;Node6 -->
<g id="edge5_Node000005_Node000006" class="edge">
<title>Node5&#45;&gt;Node6</title>
<g id="a_edge5_Node000005_Node000006"><a xlink:title=" ">
<path fill="none" stroke="#63b8ff" d="M471.5,-319.54C471.5,-310.96 471.5,-301.61 471.5,-294.16"/>
<polygon fill="#63b8ff" stroke="#63b8ff" points="468,-319.8 471.5,-329.8 475,-319.8 468,-319.8"/>
</a>
</g>
</g>
<!-- Node7 -->
<g id="Node000007" class="node">
<title>Node7</title>
<g id="a_Node000007"><a xlink:href="../../d2/de3/portal_8hpp_source.html" target="_top" xlink:title=" ">
<polygon fill="white" stroke="#666666" points="693,-228 550,-228 550,-198 693,-198 693,-228"/>
<text text-anchor="start" x="558" y="-216" font-family="Helvetica,sans-Serif" font-size="10.00">userver/storages/postgres</text>
<text text-anchor="middle" x="621.5" y="-205" font-family="Helvetica,sans-Serif" font-size="10.00">/portal.hpp</text>
</a>
</g>
</g>
<!-- Node6&#45;&gt;Node7 -->
<g id="edge6_Node000006_Node000007" class="edge">
<title>Node6&#45;&gt;Node7</title>
<g id="a_edge6_Node000006_Node000007"><a xlink:title=" ">
<path fill="none" stroke="#63b8ff" d="M513.88,-259.92C537.58,-249.8 566.69,-237.38 588.66,-228.01"/>
<polygon fill="#63b8ff" stroke="#63b8ff" points="512.24,-256.81 504.42,-263.95 514.99,-263.25 512.24,-256.81"/>
</a>
</g>
</g>
<!-- Node8 -->
<g id="Node000008" class="node">
<title>Node8</title>
<g id="a_Node000008"><a xlink:href="../../da/deb/postgresql_2include_2userver_2storages_2postgres_2transaction_8hpp.html" target="_top" xlink:title="Transactions.">
<polygon fill="white" stroke="#666666" points="687,-162 544,-162 544,-132 687,-132 687,-162"/>
<text text-anchor="start" x="552" y="-150" font-family="Helvetica,sans-Serif" font-size="10.00">userver/storages/postgres</text>
<text text-anchor="middle" x="615.5" y="-139" font-family="Helvetica,sans-Serif" font-size="10.00">/transaction.hpp</text>
</a>
</g>
</g>
<!-- Node6&#45;&gt;Node8 -->
<g id="edge15_Node000006_Node000008" class="edge">
<title>Node6&#45;&gt;Node8</title>
<g id="a_edge15_Node000006_Node000008"><a xlink:title=" ">
<path fill="none" stroke="#63b8ff" d="M553.18,-271.06C611.86,-264.18 683.78,-251.21 702.5,-228 723.31,-202.21 683.24,-177.12 650.82,-162.11"/>
<polygon fill="#63b8ff" stroke="#63b8ff" points="552.68,-267.59 543.14,-272.19 553.47,-274.55 552.68,-267.59"/>
</a>
</g>
</g>
<!-- Node11 -->
<g id="Node000011" class="node">
<title>Node11</title>
<g id="a_Node000011"><a xlink:href="../../df/d02/postgres_8hpp.html" target="_top" xlink:title=" ">
<polygon fill="white" stroke="#666666" points="687,-30 544,-30 544,0 687,0 687,-30"/>
<text text-anchor="start" x="552" y="-18" font-family="Helvetica,sans-Serif" font-size="10.00">userver/storages/postgres</text>
<text text-anchor="middle" x="615.5" y="-7" font-family="Helvetica,sans-Serif" font-size="10.00">/postgres.hpp</text>
</a>
</g>
</g>
<!-- Node6&#45;&gt;Node11 -->
<g id="edge12_Node000006_Node000011" class="edge">
<title>Node6&#45;&gt;Node11</title>
<g id="a_edge12_Node000006_Node000011"><a xlink:title=" ">
<path fill="none" stroke="#63b8ff" d="M415.09,-259.37C401.03,-251.9 387.66,-241.71 379.5,-228 372.69,-216.54 373.62,-209.97 379.5,-198 421.96,-111.64 527.3,-54.69 581.74,-30.01"/>
<polygon fill="#63b8ff" stroke="#63b8ff" points="413.86,-262.66 424.38,-263.89 416.93,-256.37 413.86,-262.66"/>
</a>
</g>
</g>
<!-- Node12 -->
<g id="Node000012" class="node">
<title>Node12</title>
<g id="a_Node000012"><a xlink:href="../../d8/d63/query__queue_8hpp.html" target="_top" xlink:title="An utility to execute multiple queries in a single network round&#45;trip.">
<polygon fill="white" stroke="#666666" points="848,-162 705,-162 705,-132 848,-132 848,-162"/>
<text text-anchor="start" x="713" y="-150" font-family="Helvetica,sans-Serif" font-size="10.00">userver/storages/postgres</text>
<text text-anchor="middle" x="776.5" y="-139" font-family="Helvetica,sans-Serif" font-size="10.00">/query_queue.hpp</text>
</a>
</g>
</g>
<!-- Node6&#45;&gt;Node12 -->
<g id="edge13_Node000006_Node000012" class="edge">
<title>Node6&#45;&gt;Node12</title>
<g id="a_edge13_Node000006_Node000012"><a xlink:title=" ">
<path fill="none" stroke="#63b8ff" d="M553.19,-276.33C604.23,-271.85 669.34,-259.62 718.5,-228 743.75,-211.76 761.58,-180.34 770.34,-162.08"/>
<polygon fill="#63b8ff" stroke="#63b8ff" points="552.88,-272.84 543.18,-277.12 553.43,-279.82 552.88,-272.84"/>
</a>
</g>
</g>
<!-- Node13 -->
<g id="Node000013" class="node">
<title>Node13</title>
<g id="a_Node000013"><a xlink:href="../../d1/dee/typed__result__set_8hpp.html" target="_top" xlink:title="Typed PostgreSQL results.">
<polygon fill="white" stroke="#666666" points="532,-228 389,-228 389,-198 532,-198 532,-228"/>
<text text-anchor="start" x="397" y="-216" font-family="Helvetica,sans-Serif" font-size="10.00">userver/storages/postgres</text>
<text text-anchor="middle" x="460.5" y="-205" font-family="Helvetica,sans-Serif" font-size="10.00">/typed_result_set.hpp</text>
</a>
</g>
</g>
<!-- Node6&#45;&gt;Node13 -->
<g id="edge16_Node000006_Node000013" class="edge">
<title>Node6&#45;&gt;Node13</title>
<g id="a_edge16_Node000006_Node000013"><a xlink:title=" ">
<path fill="none" stroke="#63b8ff" d="M460.84,-254.11C458.91,-245.38 457.54,-235.78 457.22,-228.16"/>
<polygon fill="#63b8ff" stroke="#63b8ff" points="457.45,-254.99 463.34,-263.8 464.23,-253.24 457.45,-254.99"/>
</a>
</g>
</g>
<!-- Node7&#45;&gt;Node8 -->
<g id="edge7_Node000007_Node000008" class="edge">
<title>Node7&#45;&gt;Node8</title>
<g id="a_edge7_Node000007_Node000008"><a xlink:title=" ">
<path fill="none" stroke="#63b8ff" d="M619.23,-187.83C618.42,-179.17 617.53,-169.7 616.83,-162.16"/>
<polygon fill="#63b8ff" stroke="#63b8ff" points="615.75,-188.17 620.17,-197.8 622.72,-187.51 615.75,-188.17"/>
</a>
</g>
</g>
<!-- Node9 -->
<g id="Node000009" class="node">
<title>Node9</title>
<g id="a_Node000009"><a xlink:href="../../de/dd3/postgresql_2include_2userver_2storages_2postgres_2cluster_8hpp.html" target="_top" xlink:title="Interface for executing queries on a cluster of PostgreSQL servers.">
<polygon fill="white" stroke="#666666" points="818,-96 675,-96 675,-66 818,-66 818,-96"/>
<text text-anchor="start" x="683" y="-84" font-family="Helvetica,sans-Serif" font-size="10.00">userver/storages/postgres</text>
<text text-anchor="middle" x="746.5" y="-73" font-family="Helvetica,sans-Serif" font-size="10.00">/cluster.hpp</text>
</a>
</g>
</g>
<!-- Node8&#45;&gt;Node9 -->
<g id="edge8_Node000008_Node000009" class="edge">
<title>Node8&#45;&gt;Node9</title>
<g id="a_edge8_Node000008_Node000009"><a xlink:title=" ">
<path fill="none" stroke="#63b8ff" d="M653.34,-127.51C673.89,-117.47 698.89,-105.26 717.82,-96.01"/>
<polygon fill="#63b8ff" stroke="#63b8ff" points="651.7,-124.42 644.25,-131.95 654.77,-130.71 651.7,-124.42"/>
</a>
</g>
</g>
<!-- Node8&#45;&gt;Node11 -->
<g id="edge11_Node000008_Node000011" class="edge">
<title>Node8&#45;&gt;Node11</title>
<g id="a_edge11_Node000008_Node000011"><a xlink:title=" ">
<path fill="none" stroke="#63b8ff" d="M615.5,-121.68C615.5,-94.7 615.5,-52.11 615.5,-30.14"/>
<polygon fill="#63b8ff" stroke="#63b8ff" points="612,-121.84 615.5,-131.84 619,-121.84 612,-121.84"/>
</a>
</g>
</g>
<!-- Node10 -->
<g id="Node000010" class="node">
<title>Node10</title>
<g id="a_Node000010"><a xlink:href="../../dc/df7/base__postgres__cache_8hpp.html" target="_top" xlink:title="Caching component for PostgreSQL. See Caching Component for PostgreSQL.">
<polygon fill="white" stroke="#666666" points="856,-30 737,-30 737,0 856,0 856,-30"/>
<text text-anchor="start" x="745" y="-18" font-family="Helvetica,sans-Serif" font-size="10.00">userver/cache/base</text>
<text text-anchor="middle" x="796.5" y="-7" font-family="Helvetica,sans-Serif" font-size="10.00">_postgres_cache.hpp</text>
</a>
</g>
</g>
<!-- Node9&#45;&gt;Node10 -->
<g id="edge9_Node000009_Node000010" class="edge">
<title>Node9&#45;&gt;Node10</title>
<g id="a_edge9_Node000009_Node000010"><a xlink:title=" ">
<path fill="none" stroke="#63b8ff" d="M763.84,-57.81C771,-48.64 779.1,-38.28 785.43,-30.16"/>
<polygon fill="#63b8ff" stroke="#63b8ff" points="761,-55.76 757.6,-65.8 766.51,-60.07 761,-55.76"/>
</a>
</g>
</g>
<!-- Node9&#45;&gt;Node11 -->
<g id="edge10_Node000009_Node000011" class="edge">
<title>Node9&#45;&gt;Node11</title>
<g id="a_edge10_Node000009_Node000011"><a xlink:title=" ">
<path fill="none" stroke="#63b8ff" d="M708.66,-61.51C688.11,-51.47 663.11,-39.26 644.18,-30.01"/>
<polygon fill="#63b8ff" stroke="#63b8ff" points="707.23,-64.71 717.75,-65.95 710.3,-58.42 707.23,-64.71"/>
</a>
</g>
</g>
<!-- Node12&#45;&gt;Node9 -->
<g id="edge14_Node000012_Node000009" class="edge">
<title>Node12&#45;&gt;Node9</title>
<g id="a_edge14_Node000012_Node000009"><a xlink:title=" ">
<path fill="none" stroke="#63b8ff" d="M765.57,-122.68C761.4,-113.79 756.79,-103.95 753.14,-96.16"/>
<polygon fill="#63b8ff" stroke="#63b8ff" points="762.43,-124.23 769.84,-131.8 768.77,-121.26 762.43,-124.23"/>
</a>
</g>
</g>
<!-- Node13&#45;&gt;Node6 -->
<g id="edge17_Node000013_Node000006" class="edge">
<title>Node13&#45;&gt;Node6</title>
<g id="a_edge17_Node000013_Node000006"><a xlink:title=" ">
<path fill="none" stroke="#63b8ff" d="M471.21,-238.13C473.11,-246.78 474.46,-256.26 474.78,-263.8"/>
<polygon fill="#63b8ff" stroke="#63b8ff" points="474.53,-236.98 468.65,-228.16 467.75,-238.72 474.53,-236.98"/>
</a>
</g>
</g>
<!-- Node14&#45;&gt;Node5 -->
<g id="edge19_Node000014_Node000005" class="edge">
<title>Node14&#45;&gt;Node5</title>
<g id="a_edge19_Node000014_Node000005"><a xlink:title=" ">
<path fill="none" stroke="#63b8ff" d="M587.69,-392.19C562.13,-382.02 530.53,-369.47 506.75,-360.01"/>
<polygon fill="#63b8ff" stroke="#63b8ff" points="586.58,-395.51 597.17,-395.95 589.17,-389.01 586.58,-395.51"/>
</a>
</g>
</g>
<!-- Node16&#45;&gt;Node5 -->
<g id="edge22_Node000016_Node000005" class="edge">
<title>Node16&#45;&gt;Node5</title>
<g id="a_edge22_Node000016_Node000005"><a xlink:title=" ">
<path fill="none" stroke="#63b8ff" d="M325.07,-392.86C357.19,-382.58 397.51,-369.68 427.71,-360.01"/>
<polygon fill="#63b8ff" stroke="#63b8ff" points="323.85,-389.57 315.39,-395.95 325.98,-396.24 323.85,-389.57"/>
</a>
</g>
</g>
<!-- Node17&#45;&gt;Node5 -->
<g id="edge24_Node000017_Node000005" class="edge">
<title>Node17&#45;&gt;Node5</title>
<g id="a_edge24_Node000017_Node000005"><a xlink:title=" ">
<path fill="none" stroke="#63b8ff" d="M341.33,-453.48C353.28,-436.41 371.22,-413.07 390.5,-396 406.59,-381.76 427.22,-369.09 443.64,-360.07"/>
<polygon fill="#63b8ff" stroke="#63b8ff" points="338.42,-451.54 335.65,-461.77 344.19,-455.5 338.42,-451.54"/>
</a>
</g>
</g>
<!-- Node19 -->
<g id="Node000019" class="node">
<title>Node19</title>
<g id="a_Node000019"><a xlink:href="../../d6/db8/chrono_8hpp.html" target="_top" xlink:title="Timestamp (std::chrono::*) I/O support.">
<polygon fill="white" stroke="#666666" points="948,-426 805,-426 805,-396 948,-396 948,-426"/>
<text text-anchor="start" x="813" y="-414" font-family="Helvetica,sans-Serif" font-size="10.00">userver/storages/postgres</text>
<text text-anchor="middle" x="876.5" y="-403" font-family="Helvetica,sans-Serif" font-size="10.00">/io/chrono.hpp</text>
</a>
</g>
</g>
<!-- Node18&#45;&gt;Node19 -->
<g id="edge26_Node000018_Node000019" class="edge">
<title>Node18&#45;&gt;Node19</title>
<g id="a_edge26_Node000018_Node000019"><a xlink:title=" ">
<path fill="none" stroke="#63b8ff" d="M642.94,-459.91C693.82,-449.47 759.46,-436.01 808.19,-426.01"/>
<polygon fill="#63b8ff" stroke="#63b8ff" points="642.06,-456.52 632.97,-461.95 643.47,-463.37 642.06,-456.52"/>
</a>
</g>
</g>
<!-- Node19&#45;&gt;Node5 -->
<g id="edge28_Node000019_Node000005" class="edge">
<title>Node19&#45;&gt;Node5</title>
<g id="a_edge28_Node000019_Node000005"><a xlink:title=" ">
<path fill="none" stroke="#63b8ff" d="M794.44,-396.63C793.12,-396.42 791.8,-396.21 790.5,-396 705.53,-382.42 607.77,-367.15 543.1,-357.1"/>
<polygon fill="#63b8ff" stroke="#63b8ff" points="794.28,-400.15 804.71,-398.28 795.39,-393.24 794.28,-400.15"/>
</a>
</g>
</g>
<!-- Node19&#45;&gt;Node10 -->
<g id="edge27_Node000019_Node000010" class="edge">
<title>Node19&#45;&gt;Node10</title>
<g id="a_edge27_Node000019_Node000010"><a xlink:title=" ">
<path fill="none" stroke="#63b8ff" d="M876.5,-385.86C876.5,-359.76 876.5,-316.93 876.5,-280 876.5,-280 876.5,-280 876.5,-146 876.5,-97.77 836.07,-52.41 812.69,-30.22"/>
<polygon fill="#63b8ff" stroke="#63b8ff" points="873,-385.96 876.5,-395.96 880,-385.96 873,-385.96"/>
</a>
</g>
</g>
<!-- Node20&#45;&gt;Node5 -->
<g id="edge31_Node000020_Node000005" class="edge">
<title>Node20&#45;&gt;Node5</title>
<g id="a_edge31_Node000020_Node000005"><a xlink:title=" ">
<path fill="none" stroke="#63b8ff" d="M736.86,-525.16C767.08,-516.2 797.75,-504.47 806.5,-492 814.16,-481.08 812.62,-473.85 806.5,-462 783.24,-416.97 759.97,-416.22 713.5,-396 659.02,-372.29 592.65,-359.6 543.21,-352.95"/>
<polygon fill="#63b8ff" stroke="#63b8ff" points="735.74,-521.84 727.1,-527.97 737.67,-528.57 735.74,-521.84"/>
</a>
</g>
</g>
<!-- Node20&#45;&gt;Node15 -->
<g id="edge30_Node000020_Node000015" class="edge">
<title>Node20&#45;&gt;Node15</title>
<g id="a_edge30_Node000020_Node000015"><a xlink:title=" ">
<path fill="none" stroke="#63b8ff" d="M688.02,-520.09C696.24,-510.85 705.59,-500.36 712.89,-492.16"/>
<polygon fill="#63b8ff" stroke="#63b8ff" points="685.19,-518 681.15,-527.8 690.41,-522.66 685.19,-518"/>
</a>
</g>
</g>
<!-- Node21&#45;&gt;Node19 -->
<g id="edge33_Node000021_Node000019" class="edge">
<title>Node21&#45;&gt;Node19</title>
<g id="a_edge33_Node000021_Node000019"><a xlink:title=" ">
<path fill="none" stroke="#63b8ff" d="M842.24,-518.04C850.95,-491.08 864.8,-448.21 871.93,-426.14"/>
<polygon fill="#63b8ff" stroke="#63b8ff" points="838.82,-517.25 839.07,-527.84 845.48,-519.4 838.82,-517.25"/>
</a>
</g>
</g>
</g>
</svg>
