<?xml version="1.0" encoding="UTF-8" standalone="no"?>
<!DOCTYPE svg PUBLIC "-//W3C//DTD SVG 1.1//EN"
 "http://www.w3.org/Graphics/SVG/1.1/DTD/svg11.dtd">
<!-- Generated by graphviz version 2.43.0 (0)
 -->
<!-- Title: userver/dump/common.hpp Pages: 1 -->
<svg width="553pt" height="170pt"
 viewBox="0.00 0.00 553.00 170.00" xmlns="http://www.w3.org/2000/svg" xmlns:xlink="http://www.w3.org/1999/xlink">
<g id="graph0" class="graph" transform="scale(1 1) rotate(0) translate(4 166)">
<title>userver/dump/common.hpp</title>
<!-- Node1 -->
<g id="Node000001" class="node">
<title>Node1</title>
<g id="a_Node000001"><a xlink:title="Serialization and deserialization of integral, floating point, string, std::chrono,...">
<polygon fill="#999999" stroke="#666666" points="367.5,-162 216.5,-162 216.5,-143 367.5,-143 367.5,-162"/>
<text text-anchor="middle" x="292" y="-150" font-family="Helvetica,sans-Serif" font-size="10.00">userver/dump/common.hpp</text>
</a>
</g>
</g>
<!-- Node2 -->
<g id="Node000002" class="node">
<title>Node2</title>
<g id="a_Node000002"><a xlink:href="../../d8/de1/expirable__lru__cache_8hpp.html" target="_top" xlink:title="Class for expirable LRU cache. Use cache::LruMap for not expirable LRU Cache.">
<polygon fill="white" stroke="#666666" points="209,-107 75,-107 75,-77 209,-77 209,-107"/>
<text text-anchor="start" x="83" y="-95" font-family="Helvetica,sans-Serif" font-size="10.00">userver/cache/expirable</text>
<text text-anchor="middle" x="142" y="-84" font-family="Helvetica,sans-Serif" font-size="10.00">_lru_cache.hpp</text>
</a>
</g>
</g>
<!-- Node1&#45;&gt;Node2 -->
<g id="edge1_Node000001_Node000002" class="edge">
<title>Node1&#45;&gt;Node2</title>
<g id="a_edge1_Node000001_Node000002"><a xlink:title=" ">
<path fill="none" stroke="#63b8ff" d="M260.8,-139.33C236.7,-129.93 203.31,-116.91 178.06,-107.06"/>
<polygon fill="#63b8ff" stroke="#63b8ff" points="259.6,-142.62 270.19,-142.99 262.14,-136.1 259.6,-142.62"/>
</a>
</g>
</g>
<!-- Node5 -->
<g id="Node000005" class="node">
<title>Node5</title>
<g id="a_Node000005"><a xlink:href="../../df/d8a/core_2include_2userver_2dump_2common__containers_8hpp.html" target="_top" xlink:title="Dump support for C++ Standard Library and Boost containers, std::optional, utils::StrongTypedef,...">
<polygon fill="white" stroke="#666666" points="357,-107 227,-107 227,-77 357,-77 357,-107"/>
<text text-anchor="start" x="235" y="-95" font-family="Helvetica,sans-Serif" font-size="10.00">userver/dump/common</text>
<text text-anchor="middle" x="292" y="-84" font-family="Helvetica,sans-Serif" font-size="10.00">_containers.hpp</text>
</a>
</g>
</g>
<!-- Node1&#45;&gt;Node5 -->
<g id="edge4_Node000001_Node000005" class="edge">
<title>Node1&#45;&gt;Node5</title>
<g id="a_edge4_Node000001_Node000005"><a xlink:title=" ">
<path fill="none" stroke="#63b8ff" d="M292,-132.65C292,-124.36 292,-114.78 292,-107.11"/>
<polygon fill="#63b8ff" stroke="#63b8ff" points="288.5,-132.87 292,-142.87 295.5,-132.87 288.5,-132.87"/>
</a>
</g>
</g>
<!-- Node6 -->
<g id="Node000006" class="node">
<title>Node6</title>
<g id="a_Node000006"><a xlink:href="../../df/db4/json__helpers_8hpp.html" target="_top" xlink:title="Convenience functions to load and dump as JSON in classes derived from components::CachingComponentBa...">
<polygon fill="white" stroke="#666666" points="545,-101.5 375,-101.5 375,-82.5 545,-82.5 545,-101.5"/>
<text text-anchor="middle" x="460" y="-89.5" font-family="Helvetica,sans-Serif" font-size="10.00">userver/dump/json_helpers.hpp</text>
</a>
</g>
</g>
<!-- Node1&#45;&gt;Node6 -->
<g id="edge5_Node000001_Node000006" class="edge">
<title>Node1&#45;&gt;Node6</title>
<g id="a_edge5_Node000001_Node000006"><a xlink:title=" ">
<path fill="none" stroke="#63b8ff" d="M325.97,-139.67C358.46,-128.36 406.66,-111.57 435.54,-101.52"/>
<polygon fill="#63b8ff" stroke="#63b8ff" points="324.72,-136.4 316.43,-142.99 327.02,-143.01 324.72,-136.4"/>
</a>
</g>
</g>
<!-- Node3 -->
<g id="Node000003" class="node">
<title>Node3</title>
<g id="a_Node000003"><a xlink:href="../../d9/daf/lru__cache__component__base_8hpp.html" target="_top" xlink:title="Base class for LRU&#45;cache components.">
<polygon fill="white" stroke="#666666" points="134,-35.5 0,-35.5 0,-5.5 134,-5.5 134,-35.5"/>
<text text-anchor="start" x="8" y="-23.5" font-family="Helvetica,sans-Serif" font-size="10.00">userver/cache/lru_cache</text>
<text text-anchor="middle" x="67" y="-12.5" font-family="Helvetica,sans-Serif" font-size="10.00">_component_base.hpp</text>
</a>
</g>
</g>
<!-- Node2&#45;&gt;Node3 -->
<g id="edge2_Node000002_Node000003" class="edge">
<title>Node2&#45;&gt;Node3</title>
<g id="a_edge2_Node000002_Node000003"><a xlink:title=" ">
<path fill="none" stroke="#63b8ff" d="M119.33,-69.99C107.29,-58.84 92.82,-45.43 82.15,-35.54"/>
<polygon fill="#63b8ff" stroke="#63b8ff" points="117.11,-72.71 126.82,-76.94 121.87,-67.57 117.11,-72.71"/>
</a>
</g>
</g>
<!-- Node4 -->
<g id="Node000004" class="node">
<title>Node4</title>
<g id="a_Node000004"><a xlink:href="../../db/df0/standalone__checker_8hpp.html" target="_top" xlink:title="Class for digest authentication checker. Implements a stand&#45;alone digest&#45;authentication logic.">
<polygon fill="white" stroke="#666666" points="284,-41 152,-41 152,0 284,0 284,-41"/>
<text text-anchor="start" x="160" y="-29" font-family="Helvetica,sans-Serif" font-size="10.00">userver/server/handlers</text>
<text text-anchor="start" x="160" y="-18" font-family="Helvetica,sans-Serif" font-size="10.00">/auth/digest/standalone</text>
<text text-anchor="middle" x="218" y="-7" font-family="Helvetica,sans-Serif" font-size="10.00">_checker.hpp</text>
</a>
</g>
</g>
<!-- Node2&#45;&gt;Node4 -->
<g id="edge3_Node000002_Node000004" class="edge">
<title>Node2&#45;&gt;Node4</title>
<g id="a_edge3_Node000002_Node000004"><a xlink:title=" ">
<path fill="none" stroke="#63b8ff" d="M165.01,-69.96C175.05,-60.78 186.75,-50.08 196.6,-41.07"/>
<polygon fill="#63b8ff" stroke="#63b8ff" points="162.4,-67.6 157.38,-76.94 167.12,-72.77 162.4,-67.6"/>
</a>
</g>
</g>
</g>
</svg>
