<?xml version="1.0" encoding="UTF-8" standalone="no"?>
<!DOCTYPE svg PUBLIC "-//W3C//DTD SVG 1.1//EN"
 "http://www.w3.org/Graphics/SVG/1.1/DTD/svg11.dtd">
<!-- Generated by graphviz version 2.43.0 (0)
 -->
<!-- Title: userver/formats/bson/value_builder.hpp Pages: 1 -->
<svg width="426pt" height="104pt"
 viewBox="0.00 0.00 425.50 104.00" xmlns="http://www.w3.org/2000/svg" xmlns:xlink="http://www.w3.org/1999/xlink">
<g id="graph0" class="graph" transform="scale(1 1) rotate(0) translate(4 100)">
<title>userver/formats/bson/value_builder.hpp</title>
<!-- Node1 -->
<g id="Node000001" class="node">
<title>Node1</title>
<g id="a_Node000001"><a xlink:title="Builder for BSON.">
<polygon fill="#999999" stroke="#666666" points="261,-96 140,-96 140,-66 261,-66 261,-96"/>
<text text-anchor="start" x="148" y="-84" font-family="Helvetica,sans-Serif" font-size="10.00">userver/formats/bson</text>
<text text-anchor="middle" x="200.5" y="-73" font-family="Helvetica,sans-Serif" font-size="10.00">/value_builder.hpp</text>
</a>
</g>
</g>
<!-- Node2 -->
<g id="Node000002" class="node">
<title>Node2</title>
<g id="a_Node000002"><a xlink:href="../../dd/d6c/base__mongo__cache_8hpp.html" target="_top" xlink:title="Base class for all caches polling mongo collection">
<polygon fill="white" stroke="#666666" points="111,-30 0,-30 0,0 111,0 111,-30"/>
<text text-anchor="start" x="8" y="-18" font-family="Helvetica,sans-Serif" font-size="10.00">userver/cache/base</text>
<text text-anchor="middle" x="55.5" y="-7" font-family="Helvetica,sans-Serif" font-size="10.00">_mongo_cache.hpp</text>
</a>
</g>
</g>
<!-- Node1&#45;&gt;Node2 -->
<g id="edge1_Node000001_Node000002" class="edge">
<title>Node1&#45;&gt;Node2</title>
<g id="a_edge1_Node000001_Node000002"><a xlink:title=" ">
<path fill="none" stroke="#63b8ff" d="M159.23,-61.78C136.37,-51.69 108.38,-39.34 87.25,-30.01"/>
<polygon fill="#63b8ff" stroke="#63b8ff" points="158.12,-65.12 168.68,-65.95 160.94,-58.71 158.12,-65.12"/>
</a>
</g>
</g>
<!-- Node3 -->
<g id="Node000003" class="node">
<title>Node3</title>
<g id="a_Node000003"><a xlink:href="../../d3/d9f/bson_8hpp.html" target="_top" xlink:title="Include&#45;all header for BSON support.">
<polygon fill="white" stroke="#666666" points="271.5,-24.5 129.5,-24.5 129.5,-5.5 271.5,-5.5 271.5,-24.5"/>
<text text-anchor="middle" x="200.5" y="-12.5" font-family="Helvetica,sans-Serif" font-size="10.00">userver/formats/bson.hpp</text>
</a>
</g>
</g>
<!-- Node1&#45;&gt;Node3 -->
<g id="edge2_Node000001_Node000003" class="edge">
<title>Node1&#45;&gt;Node3</title>
<g id="a_edge2_Node000001_Node000003"><a xlink:title=" ">
<path fill="none" stroke="#63b8ff" d="M200.5,-55.6C200.5,-44.8 200.5,-32.78 200.5,-24.84"/>
<polygon fill="#63b8ff" stroke="#63b8ff" points="197,-55.8 200.5,-65.8 204,-55.8 197,-55.8"/>
</a>
</g>
</g>
<!-- Node4 -->
<g id="Node000004" class="node">
<title>Node4</title>
<g id="a_Node000004"><a xlink:href="../../d9/d86/mongo_2include_2userver_2formats_2bson_2serialize__duration_8hpp.html" target="_top" xlink:title="Serializers for std::chrono::duration types.">
<polygon fill="white" stroke="#666666" points="417.5,-30 289.5,-30 289.5,0 417.5,0 417.5,-30"/>
<text text-anchor="start" x="297.5" y="-18" font-family="Helvetica,sans-Serif" font-size="10.00">userver/formats/bson</text>
<text text-anchor="middle" x="353.5" y="-7" font-family="Helvetica,sans-Serif" font-size="10.00">/serialize_duration.hpp</text>
</a>
</g>
</g>
<!-- Node1&#45;&gt;Node4 -->
<g id="edge3_Node000001_Node000004" class="edge">
<title>Node1&#45;&gt;Node4</title>
<g id="a_edge3_Node000001_Node000004"><a xlink:title=" ">
<path fill="none" stroke="#63b8ff" d="M243.4,-62.05C267.64,-51.91 297.5,-39.43 320,-30.01"/>
<polygon fill="#63b8ff" stroke="#63b8ff" points="241.95,-58.87 234.08,-65.95 244.65,-65.32 241.95,-58.87"/>
</a>
</g>
</g>
</g>
</svg>
