<?xml version="1.0" encoding="UTF-8" standalone="no"?>
<!DOCTYPE svg PUBLIC "-//W3C//DTD SVG 1.1//EN"
 "http://www.w3.org/Graphics/SVG/1.1/DTD/svg11.dtd">
<!-- Generated by graphviz version 2.43.0 (0)
 -->
<!-- Title: userver/engine/future.hpp Pages: 1 -->
<svg width="995pt" height="280pt"
 viewBox="0.00 0.00 994.50 280.00" xmlns="http://www.w3.org/2000/svg" xmlns:xlink="http://www.w3.org/1999/xlink">
<g id="graph0" class="graph" transform="scale(1 1) rotate(0) translate(4 276)">
<title>userver/engine/future.hpp</title>
<!-- Node1 -->
<g id="Node000001" class="node">
<title>Node1</title>
<g id="a_Node000001"><a xlink:title="std::future replacement for asynchronous tasks that works in pair with engine::Promise">
<polygon fill="#999999" stroke="#666666" points="273.5,-272 130.5,-272 130.5,-253 273.5,-253 273.5,-272"/>
<text text-anchor="middle" x="202" y="-260" font-family="Helvetica,sans-Serif" font-size="10.00">userver/engine/future.hpp</text>
</a>
</g>
</g>
<!-- Node2 -->
<g id="Node000002" class="node">
<title>Node2</title>
<g id="a_Node000002"><a xlink:title=" ">
<polygon fill="#e0e0e0" stroke="#999999" points="50,-79.5 0,-79.5 0,-60.5 50,-60.5 50,-79.5"/>
<text text-anchor="middle" x="25" y="-67.5" font-family="Helvetica,sans-Serif" font-size="10.00">chrono</text>
</a>
</g>
</g>
<!-- Node1&#45;&gt;Node2 -->
<g id="edge1_Node000001_Node000002" class="edge">
<title>Node1&#45;&gt;Node2</title>
<g id="a_edge1_Node000001_Node000002"><a xlink:title=" ">
<path fill="none" stroke="#63b8ff" d="M130.33,-253.12C105.69,-246.84 79.84,-235.93 62,-217 28.61,-181.56 24.22,-120.43 24.31,-89.73"/>
<polygon fill="#63b8ff" stroke="#63b8ff" points="27.81,-89.64 24.51,-79.58 20.81,-89.51 27.81,-89.64"/>
</a>
</g>
</g>
<!-- Node3 -->
<g id="Node000003" class="node">
<title>Node3</title>
<g id="a_Node000003"><a xlink:title=" ">
<polygon fill="#e0e0e0" stroke="#999999" points="479.5,-79.5 414.5,-79.5 414.5,-60.5 479.5,-60.5 479.5,-79.5"/>
<text text-anchor="middle" x="447" y="-67.5" font-family="Helvetica,sans-Serif" font-size="10.00">exception</text>
</a>
</g>
</g>
<!-- Node1&#45;&gt;Node3 -->
<g id="edge2_Node000001_Node000003" class="edge">
<title>Node1&#45;&gt;Node3</title>
<g id="a_edge2_Node000001_Node000003"><a xlink:title=" ">
<path fill="none" stroke="#63b8ff" d="M206.75,-252.98C222.97,-223.99 275.83,-130.51 288,-121 321.79,-94.61 369.73,-82.02 404.12,-76.09"/>
<polygon fill="#63b8ff" stroke="#63b8ff" points="405.01,-79.49 414.33,-74.46 403.9,-72.58 405.01,-79.49"/>
</a>
</g>
</g>
<!-- Node4 -->
<g id="Node000004" class="node">
<title>Node4</title>
<g id="a_Node000004"><a xlink:title=" ">
<polygon fill="#e0e0e0" stroke="#999999" points="127,-211.5 81,-211.5 81,-192.5 127,-192.5 127,-211.5"/>
<text text-anchor="middle" x="104" y="-199.5" font-family="Helvetica,sans-Serif" font-size="10.00">future</text>
</a>
</g>
</g>
<!-- Node1&#45;&gt;Node4 -->
<g id="edge3_Node000001_Node000004" class="edge">
<title>Node1&#45;&gt;Node4</title>
<g id="a_edge3_Node000001_Node000004"><a xlink:title=" ">
<path fill="none" stroke="#63b8ff" d="M187.54,-252.87C171.69,-243.41 146.03,-228.09 127.32,-216.92"/>
<polygon fill="#63b8ff" stroke="#63b8ff" points="128.9,-213.79 118.52,-211.67 125.31,-219.8 128.9,-213.79"/>
</a>
</g>
</g>
<!-- Node5 -->
<g id="Node000005" class="node">
<title>Node5</title>
<g id="a_Node000005"><a xlink:title=" ">
<polygon fill="#e0e0e0" stroke="#999999" points="203,-211.5 145,-211.5 145,-192.5 203,-192.5 203,-211.5"/>
<text text-anchor="middle" x="174" y="-199.5" font-family="Helvetica,sans-Serif" font-size="10.00">memory</text>
</a>
</g>
</g>
<!-- Node1&#45;&gt;Node5 -->
<g id="edge4_Node000001_Node000005" class="edge">
<title>Node1&#45;&gt;Node5</title>
<g id="a_edge4_Node000001_Node000005"><a xlink:title=" ">
<path fill="none" stroke="#63b8ff" d="M197.87,-252.87C193.86,-244.49 187.65,-231.51 182.56,-220.89"/>
<polygon fill="#63b8ff" stroke="#63b8ff" points="185.62,-219.18 178.15,-211.67 179.31,-222.2 185.62,-219.18"/>
</a>
</g>
</g>
<!-- Node6 -->
<g id="Node000006" class="node">
<title>Node6</title>
<g id="a_Node000006"><a xlink:href="../../d2/d22/deadline_8hpp.html" target="_top" xlink:title="Internal representation of a deadline time point.">
<polygon fill="white" stroke="#666666" points="240.5,-145.5 85.5,-145.5 85.5,-126.5 240.5,-126.5 240.5,-145.5"/>
<text text-anchor="middle" x="163" y="-133.5" font-family="Helvetica,sans-Serif" font-size="10.00">userver/engine/deadline.hpp</text>
</a>
</g>
</g>
<!-- Node1&#45;&gt;Node6 -->
<g id="edge5_Node000001_Node000006" class="edge">
<title>Node1&#45;&gt;Node6</title>
<g id="a_edge5_Node000001_Node000006"><a xlink:title=" ">
<path fill="none" stroke="#63b8ff" d="M205.89,-252.88C211.74,-238.62 221.18,-209.47 212,-187 206.27,-172.97 194.5,-160.75 183.93,-151.9"/>
<polygon fill="#63b8ff" stroke="#63b8ff" points="185.88,-148.98 175.85,-145.56 181.56,-154.48 185.88,-148.98"/>
</a>
</g>
</g>
<!-- Node8 -->
<g id="Node000008" class="node">
<title>Node8</title>
<g id="a_Node000008"><a xlink:href="../../d2/d54/assert_8hpp.html" target="_top" xlink:title="Assertion macros UASSERT, UASSERT_MSG, UINVARIANT.">
<polygon fill="white" stroke="#666666" points="209.5,-79.5 78.5,-79.5 78.5,-60.5 209.5,-60.5 209.5,-79.5"/>
<text text-anchor="middle" x="144" y="-67.5" font-family="Helvetica,sans-Serif" font-size="10.00">userver/utils/assert.hpp</text>
</a>
</g>
</g>
<!-- Node1&#45;&gt;Node8 -->
<g id="edge30_Node000001_Node000008" class="edge">
<title>Node1&#45;&gt;Node8</title>
<g id="a_edge30_Node000001_Node000008"><a xlink:title=" ">
<path fill="none" stroke="#63b8ff" d="M130.44,-253.4C108.06,-247.11 85.66,-236.12 72,-217 62.73,-204.03 64.22,-144.24 77,-121 85.66,-105.25 101.63,-93.03 115.8,-84.62"/>
<polygon fill="#63b8ff" stroke="#63b8ff" points="117.72,-87.56 124.76,-79.64 114.32,-81.44 117.72,-87.56"/>
</a>
</g>
</g>
<!-- Node10 -->
<g id="Node000010" class="node">
<title>Node10</title>
<g id="a_Node000010"><a xlink:href="../../d0/dd6/future__status_8hpp.html" target="_top" xlink:title="std::future state extended with &quot;cancelled&quot; state">
<polygon fill="white" stroke="#666666" points="419,-151 297,-151 297,-121 419,-121 419,-151"/>
<text text-anchor="start" x="305" y="-139" font-family="Helvetica,sans-Serif" font-size="10.00">userver/engine/future</text>
<text text-anchor="middle" x="358" y="-128" font-family="Helvetica,sans-Serif" font-size="10.00">_status.hpp</text>
</a>
</g>
</g>
<!-- Node1&#45;&gt;Node10 -->
<g id="edge10_Node000001_Node000010" class="edge">
<title>Node1&#45;&gt;Node10</title>
<g id="a_edge10_Node000001_Node000010"><a xlink:title=" ">
<path fill="none" stroke="#63b8ff" d="M221.37,-253C238.46,-245.01 263.61,-232.05 283,-217 305.1,-199.85 326.54,-176.03 340.8,-158.84"/>
<polygon fill="#63b8ff" stroke="#63b8ff" points="343.59,-160.96 347.19,-151 338.16,-156.54 343.59,-160.96"/>
</a>
</g>
</g>
<!-- Node11 -->
<g id="Node000011" class="node">
<title>Node11</title>
<g id="a_Node000011"><a xlink:href="../../de/d5c/future__state_8hpp_source.html" target="_top" xlink:title=" ">
<polygon fill="white" stroke="#666666" points="530,-217 416,-217 416,-187 530,-187 530,-217"/>
<text text-anchor="start" x="424" y="-205" font-family="Helvetica,sans-Serif" font-size="10.00">userver/engine/impl</text>
<text text-anchor="middle" x="473" y="-194" font-family="Helvetica,sans-Serif" font-size="10.00">/future_state.hpp</text>
</a>
</g>
</g>
<!-- Node1&#45;&gt;Node11 -->
<g id="edge11_Node000001_Node000011" class="edge">
<title>Node1&#45;&gt;Node11</title>
<g id="a_edge11_Node000001_Node000011"><a xlink:title=" ">
<path fill="none" stroke="#63b8ff" d="M241.41,-252.99C284.41,-243.71 354.03,-228.68 405.72,-217.52"/>
<polygon fill="#63b8ff" stroke="#63b8ff" points="406.77,-220.88 415.81,-215.35 405.3,-214.03 406.77,-220.88"/>
</a>
</g>
</g>
<!-- Node6&#45;&gt;Node2 -->
<g id="edge6_Node000006_Node000002" class="edge">
<title>Node6&#45;&gt;Node2</title>
<g id="a_edge6_Node000006_Node000002"><a xlink:title=" ">
<path fill="none" stroke="#63b8ff" d="M144.39,-126.37C120.93,-115.49 80.39,-96.69 53.14,-84.05"/>
<polygon fill="#63b8ff" stroke="#63b8ff" points="54.3,-80.73 43.76,-79.7 51.36,-87.08 54.3,-80.73"/>
</a>
</g>
</g>
<!-- Node7 -->
<g id="Node000007" class="node">
<title>Node7</title>
<g id="a_Node000007"><a xlink:title=" ">
<polygon fill="#e0e0e0" stroke="#999999" points="448.5,-19 379.5,-19 379.5,0 448.5,0 448.5,-19"/>
<text text-anchor="middle" x="414" y="-7" font-family="Helvetica,sans-Serif" font-size="10.00">type_traits</text>
</a>
</g>
</g>
<!-- Node6&#45;&gt;Node7 -->
<g id="edge7_Node000006_Node000007" class="edge">
<title>Node6&#45;&gt;Node7</title>
<g id="a_edge7_Node000006_Node000007"><a xlink:title=" ">
<path fill="none" stroke="#63b8ff" d="M180.25,-126.44C223.33,-105.08 335.84,-49.27 387.44,-23.67"/>
<polygon fill="#63b8ff" stroke="#63b8ff" points="389.22,-26.7 396.63,-19.12 386.11,-20.43 389.22,-26.7"/>
</a>
</g>
</g>
<!-- Node6&#45;&gt;Node8 -->
<g id="edge8_Node000006_Node000008" class="edge">
<title>Node6&#45;&gt;Node8</title>
<g id="a_edge8_Node000006_Node000008"><a xlink:title=" ">
<path fill="none" stroke="#63b8ff" d="M160.44,-126.37C157.65,-116.97 153.11,-101.67 149.5,-89.53"/>
<polygon fill="#63b8ff" stroke="#63b8ff" points="152.85,-88.5 146.64,-79.91 146.13,-90.49 152.85,-88.5"/>
</a>
</g>
</g>
<!-- Node9 -->
<g id="Node000009" class="node">
<title>Node9</title>
<g id="a_Node000009"><a xlink:title=" ">
<polygon fill="#e0e0e0" stroke="#999999" points="180.5,-19 107.5,-19 107.5,0 180.5,0 180.5,-19"/>
<text text-anchor="middle" x="144" y="-7" font-family="Helvetica,sans-Serif" font-size="10.00">string_view</text>
</a>
</g>
</g>
<!-- Node8&#45;&gt;Node9 -->
<g id="edge9_Node000008_Node000009" class="edge">
<title>Node8&#45;&gt;Node9</title>
<g id="a_edge9_Node000008_Node000009"><a xlink:title=" ">
<path fill="none" stroke="#63b8ff" d="M144,-60.37C144,-52.25 144,-39.81 144,-29.39"/>
<polygon fill="#63b8ff" stroke="#63b8ff" points="147.5,-29.17 144,-19.17 140.5,-29.17 147.5,-29.17"/>
</a>
</g>
</g>
<!-- Node11&#45;&gt;Node3 -->
<g id="edge13_Node000011_Node000003" class="edge">
<title>Node11&#45;&gt;Node3</title>
<g id="a_edge13_Node000011_Node000003"><a xlink:title=" ">
<path fill="none" stroke="#63b8ff" d="M470.17,-186.84C465.45,-163.23 455.97,-115.83 450.72,-89.58"/>
<polygon fill="#63b8ff" stroke="#63b8ff" points="454.14,-88.87 448.75,-79.75 447.28,-90.24 454.14,-88.87"/>
</a>
</g>
</g>
<!-- Node11&#45;&gt;Node6 -->
<g id="edge14_Node000011_Node000006" class="edge">
<title>Node11&#45;&gt;Node6</title>
<g id="a_edge14_Node000011_Node000006"><a xlink:title=" ">
<path fill="none" stroke="#63b8ff" d="M415.78,-189.19C358.14,-177.29 270,-159.09 214.49,-147.63"/>
<polygon fill="#63b8ff" stroke="#63b8ff" points="215.02,-144.17 204.52,-145.57 213.6,-151.02 215.02,-144.17"/>
</a>
</g>
</g>
<!-- Node11&#45;&gt;Node10 -->
<g id="edge15_Node000011_Node000010" class="edge">
<title>Node11&#45;&gt;Node10</title>
<g id="a_edge15_Node000011_Node000010"><a xlink:title=" ">
<path fill="none" stroke="#63b8ff" d="M447.76,-186.95C431.43,-177.87 409.98,-165.93 392.13,-156"/>
<polygon fill="#63b8ff" stroke="#63b8ff" points="393.62,-152.82 383.18,-151.01 390.21,-158.93 393.62,-152.82"/>
</a>
</g>
</g>
<!-- Node12 -->
<g id="Node000012" class="node">
<title>Node12</title>
<g id="a_Node000012"><a xlink:title=" ">
<polygon fill="#e0e0e0" stroke="#999999" points="525,-145.5 475,-145.5 475,-126.5 525,-126.5 525,-145.5"/>
<text text-anchor="middle" x="500" y="-133.5" font-family="Helvetica,sans-Serif" font-size="10.00">atomic</text>
</a>
</g>
</g>
<!-- Node11&#45;&gt;Node12 -->
<g id="edge12_Node000011_Node000012" class="edge">
<title>Node11&#45;&gt;Node12</title>
<g id="a_edge12_Node000011_Node000012"><a xlink:title=" ">
<path fill="none" stroke="#63b8ff" d="M478.99,-186.8C482.91,-177.5 488.07,-165.27 492.3,-155.26"/>
<polygon fill="#63b8ff" stroke="#63b8ff" points="495.61,-156.42 496.27,-145.84 489.16,-153.7 495.61,-156.42"/>
</a>
</g>
</g>
<!-- Node13 -->
<g id="Node000013" class="node">
<title>Node13</title>
<g id="a_Node000013"><a xlink:href="../../dc/db0/context__accessor_8hpp_source.html" target="_top" xlink:title=" ">
<polygon fill="white" stroke="#666666" points="668.5,-151 543.5,-151 543.5,-121 668.5,-121 668.5,-151"/>
<text text-anchor="start" x="551.5" y="-139" font-family="Helvetica,sans-Serif" font-size="10.00">userver/engine/impl</text>
<text text-anchor="middle" x="606" y="-128" font-family="Helvetica,sans-Serif" font-size="10.00">/context_accessor.hpp</text>
</a>
</g>
</g>
<!-- Node11&#45;&gt;Node13 -->
<g id="edge16_Node000011_Node000013" class="edge">
<title>Node11&#45;&gt;Node13</title>
<g id="a_edge16_Node000011_Node000013"><a xlink:title=" ">
<path fill="none" stroke="#63b8ff" d="M502.19,-186.95C521.42,-177.7 546.8,-165.49 567.66,-155.45"/>
<polygon fill="#63b8ff" stroke="#63b8ff" points="569.39,-158.5 576.88,-151.01 566.35,-152.19 569.39,-158.5"/>
</a>
</g>
</g>
<!-- Node14 -->
<g id="Node000014" class="node">
<title>Node14</title>
<g id="a_Node000014"><a xlink:href="../../d9/db5/wait__list__fwd_8hpp_source.html" target="_top" xlink:title=" ">
<polygon fill="white" stroke="#666666" points="801,-151 687,-151 687,-121 801,-121 801,-151"/>
<text text-anchor="start" x="695" y="-139" font-family="Helvetica,sans-Serif" font-size="10.00">userver/engine/impl</text>
<text text-anchor="middle" x="744" y="-128" font-family="Helvetica,sans-Serif" font-size="10.00">/wait_list_fwd.hpp</text>
</a>
</g>
</g>
<!-- Node11&#45;&gt;Node14 -->
<g id="edge17_Node000011_Node000014" class="edge">
<title>Node11&#45;&gt;Node14</title>
<g id="a_edge17_Node000011_Node000014"><a xlink:title=" ">
<path fill="none" stroke="#63b8ff" d="M530.14,-187.51C573.02,-177.38 631.85,-163.49 676.95,-152.83"/>
<polygon fill="#63b8ff" stroke="#63b8ff" points="678.01,-156.18 686.94,-150.48 676.4,-149.37 678.01,-156.18"/>
</a>
</g>
</g>
<!-- Node20 -->
<g id="Node000020" class="node">
<title>Node20</title>
<g id="a_Node000020"><a xlink:href="../../d8/df1/result__store_8hpp.html" target="_top" xlink:title=" ">
<polygon fill="white" stroke="#666666" points="927,-151 819,-151 819,-121 927,-121 927,-151"/>
<text text-anchor="start" x="827" y="-139" font-family="Helvetica,sans-Serif" font-size="10.00">userver/utils/result</text>
<text text-anchor="middle" x="873" y="-128" font-family="Helvetica,sans-Serif" font-size="10.00">_store.hpp</text>
</a>
</g>
</g>
<!-- Node11&#45;&gt;Node20 -->
<g id="edge25_Node000011_Node000020" class="edge">
<title>Node11&#45;&gt;Node20</title>
<g id="a_edge25_Node000011_Node000020"><a xlink:title=" ">
<path fill="none" stroke="#63b8ff" d="M530.15,-193.79C595.25,-185.29 705.02,-170.1 808.74,-151.16"/>
<polygon fill="#63b8ff" stroke="#63b8ff" points="809.55,-154.57 818.75,-149.31 808.29,-147.68 809.55,-154.57"/>
</a>
</g>
</g>
<!-- Node15 -->
<g id="Node000015" class="node">
<title>Node15</title>
<g id="a_Node000015"><a xlink:href="../../d2/d84/select_8hpp.html" target="_top" xlink:title="Utilities for selection of platform specific values.">
<polygon fill="white" stroke="#666666" points="673,-79.5 521,-79.5 521,-60.5 673,-60.5 673,-79.5"/>
<text text-anchor="middle" x="597" y="-67.5" font-family="Helvetica,sans-Serif" font-size="10.00">userver/compiler/select.hpp</text>
</a>
</g>
</g>
<!-- Node14&#45;&gt;Node15 -->
<g id="edge18_Node000014_Node000015" class="edge">
<title>Node14&#45;&gt;Node15</title>
<g id="a_edge18_Node000014_Node000015"><a xlink:title=" ">
<path fill="none" stroke="#63b8ff" d="M711.74,-120.95C686.07,-109.78 650.49,-94.29 625.78,-83.53"/>
<polygon fill="#63b8ff" stroke="#63b8ff" points="627.13,-80.3 616.56,-79.52 624.33,-86.72 627.13,-80.3"/>
</a>
</g>
</g>
<!-- Node17 -->
<g id="Node000017" class="node">
<title>Node17</title>
<g id="a_Node000017"><a xlink:href="../../d5/d02/fast__pimpl_8hpp.html" target="_top" xlink:title="Implements pimpl idiom without dynamic memory allocation.">
<polygon fill="white" stroke="#666666" points="790.5,-85 691.5,-85 691.5,-55 790.5,-55 790.5,-85"/>
<text text-anchor="start" x="699.5" y="-73" font-family="Helvetica,sans-Serif" font-size="10.00">userver/utils/fast</text>
<text text-anchor="middle" x="741" y="-62" font-family="Helvetica,sans-Serif" font-size="10.00">_pimpl.hpp</text>
</a>
</g>
</g>
<!-- Node14&#45;&gt;Node17 -->
<g id="edge20_Node000014_Node000017" class="edge">
<title>Node14&#45;&gt;Node17</title>
<g id="a_edge20_Node000014_Node000017"><a xlink:title=" ">
<path fill="none" stroke="#63b8ff" d="M743.33,-120.8C742.98,-113.34 742.55,-103.99 742.14,-95.41"/>
<polygon fill="#63b8ff" stroke="#63b8ff" points="745.63,-94.99 741.66,-85.16 738.64,-95.32 745.63,-94.99"/>
</a>
</g>
</g>
<!-- Node16 -->
<g id="Node000016" class="node">
<title>Node16</title>
<g id="a_Node000016"><a xlink:title=" ">
<polygon fill="#e0e0e0" stroke="#999999" points="663.5,-19 610.5,-19 610.5,0 663.5,0 663.5,-19"/>
<text text-anchor="middle" x="637" y="-7" font-family="Helvetica,sans-Serif" font-size="10.00">cstddef</text>
</a>
</g>
</g>
<!-- Node15&#45;&gt;Node16 -->
<g id="edge19_Node000015_Node000016" class="edge">
<title>Node15&#45;&gt;Node16</title>
<g id="a_edge19_Node000015_Node000016"><a xlink:title=" ">
<path fill="none" stroke="#63b8ff" d="M602.9,-60.37C608.75,-51.81 617.87,-38.47 625.21,-27.74"/>
<polygon fill="#63b8ff" stroke="#63b8ff" points="628.32,-29.4 631.07,-19.17 622.54,-25.45 628.32,-29.4"/>
</a>
</g>
</g>
<!-- Node17&#45;&gt;Node7 -->
<g id="edge23_Node000017_Node000007" class="edge">
<title>Node17&#45;&gt;Node7</title>
<g id="a_edge23_Node000017_Node000007"><a xlink:title=" ">
<path fill="none" stroke="#63b8ff" d="M691.48,-56.99C688.28,-56.29 685.1,-55.62 682,-55 603.98,-39.28 512.37,-24.95 458.98,-17.01"/>
<polygon fill="#63b8ff" stroke="#63b8ff" points="459.24,-13.51 448.83,-15.51 458.21,-20.43 459.24,-13.51"/>
</a>
</g>
</g>
<!-- Node17&#45;&gt;Node16 -->
<g id="edge21_Node000017_Node000016" class="edge">
<title>Node17&#45;&gt;Node16</title>
<g id="a_edge21_Node000017_Node000016"><a xlink:title=" ">
<path fill="none" stroke="#63b8ff" d="M716.09,-54.99C699.51,-45.66 677.84,-33.47 661.37,-24.21"/>
<polygon fill="#63b8ff" stroke="#63b8ff" points="662.79,-20.99 652.36,-19.14 659.36,-27.09 662.79,-20.99"/>
</a>
</g>
</g>
<!-- Node18 -->
<g id="Node000018" class="node">
<title>Node18</title>
<g id="a_Node000018"><a xlink:title=" ">
<polygon fill="#e0e0e0" stroke="#999999" points="759.5,-19 722.5,-19 722.5,0 759.5,0 759.5,-19"/>
<text text-anchor="middle" x="741" y="-7" font-family="Helvetica,sans-Serif" font-size="10.00">new</text>
</a>
</g>
</g>
<!-- Node17&#45;&gt;Node18 -->
<g id="edge22_Node000017_Node000018" class="edge">
<title>Node17&#45;&gt;Node18</title>
<g id="a_edge22_Node000017_Node000018"><a xlink:title=" ">
<path fill="none" stroke="#63b8ff" d="M741,-54.84C741,-47.21 741,-37.7 741,-29.45"/>
<polygon fill="#63b8ff" stroke="#63b8ff" points="744.5,-29.27 741,-19.27 737.5,-29.27 744.5,-29.27"/>
</a>
</g>
</g>
<!-- Node19 -->
<g id="Node000019" class="node">
<title>Node19</title>
<g id="a_Node000019"><a xlink:title=" ">
<polygon fill="#e0e0e0" stroke="#999999" points="831.5,-19 786.5,-19 786.5,0 831.5,0 831.5,-19"/>
<text text-anchor="middle" x="809" y="-7" font-family="Helvetica,sans-Serif" font-size="10.00">utility</text>
</a>
</g>
</g>
<!-- Node17&#45;&gt;Node19 -->
<g id="edge24_Node000017_Node000019" class="edge">
<title>Node17&#45;&gt;Node19</title>
<g id="a_edge24_Node000017_Node000019"><a xlink:title=" ">
<path fill="none" stroke="#63b8ff" d="M757.46,-54.84C767.63,-46.09 780.69,-34.85 791.12,-25.88"/>
<polygon fill="#63b8ff" stroke="#63b8ff" points="793.51,-28.44 798.81,-19.27 788.95,-23.13 793.51,-28.44"/>
</a>
</g>
</g>
<!-- Node20&#45;&gt;Node3 -->
<g id="edge26_Node000020_Node000003" class="edge">
<title>Node20&#45;&gt;Node3</title>
<g id="a_edge26_Node000020_Node000003"><a xlink:title=" ">
<path fill="none" stroke="#63b8ff" d="M818.77,-122.59C815.81,-122.03 812.87,-121.49 810,-121 678.5,-98.5 643.57,-107.07 512,-85 504.72,-83.78 497.02,-82.29 489.57,-80.75"/>
<polygon fill="#63b8ff" stroke="#63b8ff" points="490.13,-77.3 479.62,-78.64 488.67,-84.14 490.13,-77.3"/>
</a>
</g>
</g>
<!-- Node20&#45;&gt;Node19 -->
<g id="edge29_Node000020_Node000019" class="edge">
<title>Node20&#45;&gt;Node19</title>
<g id="a_edge29_Node000020_Node000019"><a xlink:title=" ">
<path fill="none" stroke="#63b8ff" d="M861.62,-120.72C854.25,-111.03 844.79,-97.71 838,-85 828.21,-66.68 819.95,-44.32 814.78,-28.9"/>
<polygon fill="#63b8ff" stroke="#63b8ff" points="818.01,-27.49 811.59,-19.06 811.35,-29.65 818.01,-27.49"/>
</a>
</g>
</g>
<!-- Node21 -->
<g id="Node000021" class="node">
<title>Node21</title>
<g id="a_Node000021"><a xlink:title=" ">
<polygon fill="#e0e0e0" stroke="#999999" points="903,-79.5 847,-79.5 847,-60.5 903,-60.5 903,-79.5"/>
<text text-anchor="middle" x="875" y="-67.5" font-family="Helvetica,sans-Serif" font-size="10.00">optional</text>
</a>
</g>
</g>
<!-- Node20&#45;&gt;Node21 -->
<g id="edge27_Node000020_Node000021" class="edge">
<title>Node20&#45;&gt;Node21</title>
<g id="a_edge27_Node000020_Node000021"><a xlink:title=" ">
<path fill="none" stroke="#63b8ff" d="M873.44,-120.8C873.73,-111.7 874.1,-99.79 874.41,-89.9"/>
<polygon fill="#63b8ff" stroke="#63b8ff" points="877.91,-89.95 874.72,-79.84 870.91,-89.73 877.91,-89.95"/>
</a>
</g>
</g>
<!-- Node22 -->
<g id="Node000022" class="node">
<title>Node22</title>
<g id="a_Node000022"><a xlink:title=" ">
<polygon fill="#e0e0e0" stroke="#999999" points="986.5,-79.5 921.5,-79.5 921.5,-60.5 986.5,-60.5 986.5,-79.5"/>
<text text-anchor="middle" x="954" y="-67.5" font-family="Helvetica,sans-Serif" font-size="10.00">stdexcept</text>
</a>
</g>
</g>
<!-- Node20&#45;&gt;Node22 -->
<g id="edge28_Node000020_Node000022" class="edge">
<title>Node20&#45;&gt;Node22</title>
<g id="a_edge28_Node000020_Node000022"><a xlink:title=" ">
<path fill="none" stroke="#63b8ff" d="M890.98,-120.8C903.98,-110.53 921.51,-96.67 934.79,-86.18"/>
<polygon fill="#63b8ff" stroke="#63b8ff" points="937.13,-88.79 942.81,-79.84 932.79,-83.3 937.13,-88.79"/>
</a>
</g>
</g>
</g>
</svg>
