<?xml version="1.0" encoding="UTF-8" standalone="no"?>
<!DOCTYPE svg PUBLIC "-//W3C//DTD SVG 1.1//EN"
 "http://www.w3.org/Graphics/SVG/1.1/DTD/svg11.dtd">
<!-- Generated by graphviz version 2.43.0 (0)
 -->
<!-- Title: userver/engine/shared_mutex.hpp Pages: 1 -->
<svg width="1363pt" height="621pt"
 viewBox="0.00 0.00 1362.92 621.00" xmlns="http://www.w3.org/2000/svg" xmlns:xlink="http://www.w3.org/1999/xlink">
<g id="graph0" class="graph" transform="scale(1 1) rotate(0) translate(4 617)">
<title>userver/engine/shared_mutex.hpp</title>
<!-- Node1 -->
<g id="Node000001" class="node">
<title>Node1</title>
<g id="a_Node000001"><a xlink:title="std::shared_mutex replacement for asynchronous tasks.">
<polygon fill="#999999" stroke="#666666" points="945.5,-613 820.5,-613 820.5,-583 945.5,-583 945.5,-613"/>
<text text-anchor="start" x="828.5" y="-601" font-family="Helvetica,sans-Serif" font-size="10.00">userver/engine/shared</text>
<text text-anchor="middle" x="883" y="-590" font-family="Helvetica,sans-Serif" font-size="10.00">_mutex.hpp</text>
</a>
</g>
</g>
<!-- Node2 -->
<g id="Node000002" class="node">
<title>Node2</title>
<g id="a_Node000002"><a xlink:href="../../db/d39/condition__variable_8hpp.html" target="_top" xlink:title="std::condition_variable replacement for asynchronous tasks">
<polygon fill="white" stroke="#666666" points="837.5,-547 700.5,-547 700.5,-517 837.5,-517 837.5,-547"/>
<text text-anchor="start" x="708.5" y="-535" font-family="Helvetica,sans-Serif" font-size="10.00">userver/engine/condition</text>
<text text-anchor="middle" x="769" y="-524" font-family="Helvetica,sans-Serif" font-size="10.00">_variable.hpp</text>
</a>
</g>
</g>
<!-- Node1&#45;&gt;Node2 -->
<g id="edge1_Node000001_Node000002" class="edge">
<title>Node1&#45;&gt;Node2</title>
<g id="a_edge1_Node000001_Node000002"><a xlink:title=" ">
<path fill="none" stroke="#63b8ff" d="M857.98,-582.95C841.8,-573.87 820.52,-561.93 802.84,-552"/>
<polygon fill="#63b8ff" stroke="#63b8ff" points="804.39,-548.86 793.96,-547.01 800.97,-554.96 804.39,-548.86"/>
</a>
</g>
</g>
<!-- Node27 -->
<g id="Node000027" class="node">
<title>Node27</title>
<g id="a_Node000027"><a xlink:href="../../d8/da6/mutex_8hpp.html" target="_top" xlink:title="std::mutex replacement for asynchronous tasks.">
<polygon fill="white" stroke="#666666" points="936.5,-332.5 791.5,-332.5 791.5,-313.5 936.5,-313.5 936.5,-332.5"/>
<text text-anchor="middle" x="864" y="-320.5" font-family="Helvetica,sans-Serif" font-size="10.00">userver/engine/mutex.hpp</text>
</a>
</g>
</g>
<!-- Node1&#45;&gt;Node27 -->
<g id="edge44_Node000001_Node000027" class="edge">
<title>Node1&#45;&gt;Node27</title>
<g id="a_edge44_Node000001_Node000027"><a xlink:title=" ">
<path fill="none" stroke="#63b8ff" d="M882.3,-582.9C880.5,-547.65 875.42,-452.87 869,-374 868.17,-363.74 867.04,-352.31 866.06,-342.98"/>
<polygon fill="#63b8ff" stroke="#63b8ff" points="869.52,-342.41 864.98,-332.84 862.56,-343.16 869.52,-342.41"/>
</a>
</g>
</g>
<!-- Node29 -->
<g id="Node000029" class="node">
<title>Node29</title>
<g id="a_Node000029"><a xlink:href="../../d1/d5a/semaphore_8hpp.html" target="_top" xlink:title="Class that allows up to max_simultaneous_locks concurrent accesses to the critical section....">
<polygon fill="white" stroke="#666666" points="1142,-332.5 974,-332.5 974,-313.5 1142,-313.5 1142,-332.5"/>
<text text-anchor="middle" x="1058" y="-320.5" font-family="Helvetica,sans-Serif" font-size="10.00">userver/engine/semaphore.hpp</text>
</a>
</g>
</g>
<!-- Node1&#45;&gt;Node29 -->
<g id="edge45_Node000001_Node000029" class="edge">
<title>Node1&#45;&gt;Node29</title>
<g id="a_edge45_Node000001_Node000029"><a xlink:title=" ">
<path fill="none" stroke="#63b8ff" d="M892.16,-582.71C921.77,-536.53 1014.79,-391.41 1046.94,-341.26"/>
<polygon fill="#63b8ff" stroke="#63b8ff" points="1050.07,-342.86 1052.52,-332.55 1044.18,-339.08 1050.07,-342.86"/>
</a>
</g>
</g>
<!-- Node3 -->
<g id="Node000003" class="node">
<title>Node3</title>
<g id="a_Node000003"><a xlink:title=" ">
<polygon fill="#e0e0e0" stroke="#999999" points="739,-74 689,-74 689,-55 739,-55 739,-74"/>
<text text-anchor="middle" x="714" y="-62" font-family="Helvetica,sans-Serif" font-size="10.00">chrono</text>
</a>
</g>
</g>
<!-- Node2&#45;&gt;Node3 -->
<g id="edge2_Node000002_Node000003" class="edge">
<title>Node2&#45;&gt;Node3</title>
<g id="a_edge2_Node000002_Node000003"><a xlink:title=" ">
<path fill="none" stroke="#63b8ff" d="M700.42,-525.63C511.94,-509.96 0,-460.88 0,-390 0,-390 0,-390 0,-190 0,-140.03 33.6,-130.87 79,-110 133.58,-84.91 553.45,-70.34 678.79,-66.52"/>
<polygon fill="#63b8ff" stroke="#63b8ff" points="679.09,-70.01 688.98,-66.21 678.88,-63.01 679.09,-70.01"/>
</a>
</g>
</g>
<!-- Node4 -->
<g id="Node000004" class="node">
<title>Node4</title>
<g id="a_Node000004"><a xlink:title=" ">
<polygon fill="#e0e0e0" stroke="#999999" points="716,-266.5 658,-266.5 658,-247.5 716,-247.5 716,-266.5"/>
<text text-anchor="middle" x="687" y="-254.5" font-family="Helvetica,sans-Serif" font-size="10.00">memory</text>
</a>
</g>
</g>
<!-- Node2&#45;&gt;Node4 -->
<g id="edge3_Node000002_Node000004" class="edge">
<title>Node2&#45;&gt;Node4</title>
<g id="a_edge3_Node000002_Node000004"><a xlink:title=" ">
<path fill="none" stroke="#63b8ff" d="M768.9,-516.77C768.33,-488.76 765.2,-424.78 749,-374 737.03,-336.48 713.05,-296.86 698.67,-275"/>
<polygon fill="#63b8ff" stroke="#63b8ff" points="701.47,-272.89 692.99,-266.53 695.65,-276.79 701.47,-272.89"/>
</a>
</g>
</g>
<!-- Node5 -->
<g id="Node000005" class="node">
<title>Node5</title>
<g id="a_Node000005"><a xlink:href="../../df/de5/condition__variable__status_8hpp.html" target="_top" xlink:title="std::condition_variable state extended with &quot;cancelled&quot; state">
<polygon fill="white" stroke="#666666" points="740.5,-404 603.5,-404 603.5,-374 740.5,-374 740.5,-404"/>
<text text-anchor="start" x="611.5" y="-392" font-family="Helvetica,sans-Serif" font-size="10.00">userver/engine/condition</text>
<text text-anchor="middle" x="672" y="-381" font-family="Helvetica,sans-Serif" font-size="10.00">_variable_status.hpp</text>
</a>
</g>
</g>
<!-- Node2&#45;&gt;Node5 -->
<g id="edge4_Node000002_Node000005" class="edge">
<title>Node2&#45;&gt;Node5</title>
<g id="a_edge4_Node000002_Node000005"><a xlink:title=" ">
<path fill="none" stroke="#63b8ff" d="M759.34,-516.96C742.58,-492.6 707.95,-442.26 687.69,-412.81"/>
<polygon fill="#63b8ff" stroke="#63b8ff" points="690.46,-410.65 681.91,-404.4 684.69,-414.62 690.46,-410.65"/>
</a>
</g>
</g>
<!-- Node6 -->
<g id="Node000006" class="node">
<title>Node6</title>
<g id="a_Node000006"><a xlink:href="../../d2/d22/deadline_8hpp.html" target="_top" xlink:title="Internal representation of a deadline time point.">
<polygon fill="white" stroke="#666666" points="791.5,-134.5 636.5,-134.5 636.5,-115.5 791.5,-115.5 791.5,-134.5"/>
<text text-anchor="middle" x="714" y="-122.5" font-family="Helvetica,sans-Serif" font-size="10.00">userver/engine/deadline.hpp</text>
</a>
</g>
</g>
<!-- Node2&#45;&gt;Node6 -->
<g id="edge5_Node000002_Node000006" class="edge">
<title>Node2&#45;&gt;Node6</title>
<g id="a_edge5_Node000002_Node000006"><a xlink:title=" ">
<path fill="none" stroke="#63b8ff" d="M773.01,-516.7C775.58,-506.77 778.67,-493.19 780,-481 781.97,-462.88 781.77,-458.14 780,-440 768.88,-326.05 733.08,-192.68 719.39,-144.52"/>
<polygon fill="#63b8ff" stroke="#63b8ff" points="722.67,-143.28 716.55,-134.63 715.95,-145.21 722.67,-143.28"/>
</a>
</g>
</g>
<!-- Node10 -->
<g id="Node000010" class="node">
<title>Node10</title>
<g id="a_Node000010"><a xlink:href="../../d6/d54/condition__variable__any_8hpp_source.html" target="_top" xlink:title=" ">
<polygon fill="white" stroke="#666666" points="613,-481 499,-481 499,-440 613,-440 613,-481"/>
<text text-anchor="start" x="507" y="-469" font-family="Helvetica,sans-Serif" font-size="10.00">userver/engine/impl</text>
<text text-anchor="start" x="507" y="-458" font-family="Helvetica,sans-Serif" font-size="10.00">/condition_variable</text>
<text text-anchor="middle" x="556" y="-447" font-family="Helvetica,sans-Serif" font-size="10.00">_any.hpp</text>
</a>
</g>
</g>
<!-- Node2&#45;&gt;Node10 -->
<g id="edge10_Node000002_Node000010" class="edge">
<title>Node2&#45;&gt;Node10</title>
<g id="a_edge10_Node000002_Node000010"><a xlink:title=" ">
<path fill="none" stroke="#63b8ff" d="M725.9,-516.94C696.36,-507.3 656.58,-494.32 622.95,-483.34"/>
<polygon fill="#63b8ff" stroke="#63b8ff" points="623.77,-479.93 613.18,-480.16 621.6,-486.59 623.77,-479.93"/>
</a>
</g>
</g>
<!-- Node2&#45;&gt;Node27 -->
<g id="edge38_Node000002_Node000027" class="edge">
<title>Node2&#45;&gt;Node27</title>
<g id="a_edge38_Node000002_Node000027"><a xlink:title=" ">
<path fill="none" stroke="#63b8ff" d="M788.09,-516.97C799.2,-507.87 812.62,-495.1 821,-481 847.75,-435.98 858.31,-373.86 862.1,-343"/>
<polygon fill="#63b8ff" stroke="#63b8ff" points="865.6,-343.13 863.24,-332.8 858.65,-342.35 865.6,-343.13"/>
</a>
</g>
</g>
<!-- Node6&#45;&gt;Node3 -->
<g id="edge6_Node000006_Node000003" class="edge">
<title>Node6&#45;&gt;Node3</title>
<g id="a_edge6_Node000006_Node000003"><a xlink:title=" ">
<path fill="none" stroke="#63b8ff" d="M714,-115.37C714,-107.25 714,-94.81 714,-84.39"/>
<polygon fill="#63b8ff" stroke="#63b8ff" points="717.5,-84.17 714,-74.17 710.5,-84.17 717.5,-84.17"/>
</a>
</g>
</g>
<!-- Node7 -->
<g id="Node000007" class="node">
<title>Node7</title>
<g id="a_Node000007"><a xlink:title=" ">
<polygon fill="#e0e0e0" stroke="#999999" points="1042.5,-74 973.5,-74 973.5,-55 1042.5,-55 1042.5,-74"/>
<text text-anchor="middle" x="1008" y="-62" font-family="Helvetica,sans-Serif" font-size="10.00">type_traits</text>
</a>
</g>
</g>
<!-- Node6&#45;&gt;Node7 -->
<g id="edge7_Node000006_Node000007" class="edge">
<title>Node6&#45;&gt;Node7</title>
<g id="a_edge7_Node000006_Node000007"><a xlink:title=" ">
<path fill="none" stroke="#63b8ff" d="M756.75,-115.49C811.92,-104.52 907.46,-85.5 963.48,-74.36"/>
<polygon fill="#63b8ff" stroke="#63b8ff" points="964.34,-77.76 973.46,-72.37 962.97,-70.89 964.34,-77.76"/>
</a>
</g>
</g>
<!-- Node8 -->
<g id="Node000008" class="node">
<title>Node8</title>
<g id="a_Node000008"><a xlink:href="../../d2/d54/assert_8hpp.html" target="_top" xlink:title="Assertion macros UASSERT, UASSERT_MSG, UINVARIANT.">
<polygon fill="white" stroke="#666666" points="1307.5,-74 1176.5,-74 1176.5,-55 1307.5,-55 1307.5,-74"/>
<text text-anchor="middle" x="1242" y="-62" font-family="Helvetica,sans-Serif" font-size="10.00">userver/utils/assert.hpp</text>
</a>
</g>
</g>
<!-- Node6&#45;&gt;Node8 -->
<g id="edge8_Node000006_Node000008" class="edge">
<title>Node6&#45;&gt;Node8</title>
<g id="a_edge8_Node000006_Node000008"><a xlink:title=" ">
<path fill="none" stroke="#63b8ff" d="M790.78,-115.49C891.29,-104.36 1066.41,-84.96 1166.36,-73.88"/>
<polygon fill="#63b8ff" stroke="#63b8ff" points="1166.83,-77.35 1176.38,-72.77 1166.06,-70.39 1166.83,-77.35"/>
</a>
</g>
</g>
<!-- Node9 -->
<g id="Node000009" class="node">
<title>Node9</title>
<g id="a_Node000009"><a xlink:title=" ">
<polygon fill="#e0e0e0" stroke="#999999" points="1278.5,-19 1205.5,-19 1205.5,0 1278.5,0 1278.5,-19"/>
<text text-anchor="middle" x="1242" y="-7" font-family="Helvetica,sans-Serif" font-size="10.00">string_view</text>
</a>
</g>
</g>
<!-- Node8&#45;&gt;Node9 -->
<g id="edge9_Node000008_Node000009" class="edge">
<title>Node8&#45;&gt;Node9</title>
<g id="a_edge9_Node000008_Node000009"><a xlink:title=" ">
<path fill="none" stroke="#63b8ff" d="M1242,-54.75C1242,-47.8 1242,-37.85 1242,-29.13"/>
<polygon fill="#63b8ff" stroke="#63b8ff" points="1245.5,-29.09 1242,-19.09 1238.5,-29.09 1245.5,-29.09"/>
</a>
</g>
</g>
<!-- Node10&#45;&gt;Node5 -->
<g id="edge12_Node000010_Node000005" class="edge">
<title>Node10&#45;&gt;Node5</title>
<g id="a_edge12_Node000010_Node000005"><a xlink:title=" ">
<path fill="none" stroke="#63b8ff" d="M588.62,-439.96C604.53,-430.42 623.61,-418.99 639.5,-409.47"/>
<polygon fill="#63b8ff" stroke="#63b8ff" points="641.67,-412.25 648.44,-404.11 638.07,-406.25 641.67,-412.25"/>
</a>
</g>
</g>
<!-- Node10&#45;&gt;Node6 -->
<g id="edge13_Node000010_Node000006" class="edge">
<title>Node10&#45;&gt;Node6</title>
<g id="a_edge13_Node000010_Node000006"><a xlink:title=" ">
<path fill="none" stroke="#63b8ff" d="M553.49,-439.83C549.36,-399.57 544.99,-306.17 583,-242 609.94,-196.52 660.78,-159.28 690.58,-140.08"/>
<polygon fill="#63b8ff" stroke="#63b8ff" points="692.51,-143.01 699.1,-134.72 688.78,-137.08 692.51,-143.01"/>
</a>
</g>
</g>
<!-- Node11 -->
<g id="Node000011" class="node">
<title>Node11</title>
<g id="a_Node000011"><a xlink:title=" ">
<polygon fill="#e0e0e0" stroke="#999999" points="640,-266.5 592,-266.5 592,-247.5 640,-247.5 640,-266.5"/>
<text text-anchor="middle" x="616" y="-254.5" font-family="Helvetica,sans-Serif" font-size="10.00">mutex</text>
</a>
</g>
</g>
<!-- Node10&#45;&gt;Node11 -->
<g id="edge11_Node000010_Node000011" class="edge">
<title>Node10&#45;&gt;Node11</title>
<g id="a_edge11_Node000010_Node000011"><a xlink:title=" ">
<path fill="none" stroke="#63b8ff" d="M555.04,-439.82C554.67,-422.27 555.36,-396.04 561,-374 570.49,-336.93 591.99,-297.4 605.12,-275.39"/>
<polygon fill="#63b8ff" stroke="#63b8ff" points="608.28,-276.94 610.49,-266.58 602.3,-273.3 608.28,-276.94"/>
</a>
</g>
</g>
<!-- Node12 -->
<g id="Node000012" class="node">
<title>Node12</title>
<g id="a_Node000012"><a xlink:href="../../d9/db5/wait__list__fwd_8hpp_source.html" target="_top" xlink:title=" ">
<polygon fill="white" stroke="#666666" points="962,-272 848,-272 848,-242 962,-242 962,-272"/>
<text text-anchor="start" x="856" y="-260" font-family="Helvetica,sans-Serif" font-size="10.00">userver/engine/impl</text>
<text text-anchor="middle" x="905" y="-249" font-family="Helvetica,sans-Serif" font-size="10.00">/wait_list_fwd.hpp</text>
</a>
</g>
</g>
<!-- Node10&#45;&gt;Node12 -->
<g id="edge14_Node000010_Node000012" class="edge">
<title>Node10&#45;&gt;Node12</title>
<g id="a_edge14_Node000010_Node000012"><a xlink:title=" ">
<path fill="none" stroke="#63b8ff" d="M560.04,-439.96C564.96,-420.75 575.07,-391.81 594,-374 662.11,-309.93 768.83,-280.48 837.85,-267.5"/>
<polygon fill="#63b8ff" stroke="#63b8ff" points="838.54,-270.93 847.75,-265.7 837.28,-264.04 838.54,-270.93"/>
</a>
</g>
</g>
<!-- Node18 -->
<g id="Node000018" class="node">
<title>Node18</title>
<g id="a_Node000018"><a xlink:href="../../d8/da1/task_8hpp.html" target="_top" xlink:title="Asynchronous task that has a unique ownership of the payload.">
<polygon fill="white" stroke="#666666" points="443.5,-404 330.5,-404 330.5,-374 443.5,-374 443.5,-404"/>
<text text-anchor="start" x="338.5" y="-392" font-family="Helvetica,sans-Serif" font-size="10.00">userver/engine/task</text>
<text text-anchor="middle" x="387" y="-381" font-family="Helvetica,sans-Serif" font-size="10.00">/task.hpp</text>
</a>
</g>
</g>
<!-- Node10&#45;&gt;Node18 -->
<g id="edge22_Node000010_Node000018" class="edge">
<title>Node10&#45;&gt;Node18</title>
<g id="a_edge22_Node000010_Node000018"><a xlink:title=" ">
<path fill="none" stroke="#63b8ff" d="M508.47,-439.96C484.02,-429.9 454.42,-417.73 430.56,-407.91"/>
<polygon fill="#63b8ff" stroke="#63b8ff" points="431.63,-404.57 421.05,-404 428.97,-411.04 431.63,-404.57"/>
</a>
</g>
</g>
<!-- Node13 -->
<g id="Node000013" class="node">
<title>Node13</title>
<g id="a_Node000013"><a xlink:href="../../d2/d84/select_8hpp.html" target="_top" xlink:title="Utilities for selection of platform specific values.">
<polygon fill="white" stroke="#666666" points="1122,-200.5 970,-200.5 970,-181.5 1122,-181.5 1122,-200.5"/>
<text text-anchor="middle" x="1046" y="-188.5" font-family="Helvetica,sans-Serif" font-size="10.00">userver/compiler/select.hpp</text>
</a>
</g>
</g>
<!-- Node12&#45;&gt;Node13 -->
<g id="edge15_Node000012_Node000013" class="edge">
<title>Node12&#45;&gt;Node13</title>
<g id="a_edge15_Node000012_Node000013"><a xlink:title=" ">
<path fill="none" stroke="#63b8ff" d="M935.94,-241.95C960.45,-230.83 994.39,-215.42 1018.08,-204.67"/>
<polygon fill="#63b8ff" stroke="#63b8ff" points="1019.58,-207.84 1027.24,-200.52 1016.68,-201.46 1019.58,-207.84"/>
</a>
</g>
</g>
<!-- Node15 -->
<g id="Node000015" class="node">
<title>Node15</title>
<g id="a_Node000015"><a xlink:href="../../d5/d02/fast__pimpl_8hpp.html" target="_top" xlink:title="Implements pimpl idiom without dynamic memory allocation.">
<polygon fill="white" stroke="#666666" points="1239.5,-206 1140.5,-206 1140.5,-176 1239.5,-176 1239.5,-206"/>
<text text-anchor="start" x="1148.5" y="-194" font-family="Helvetica,sans-Serif" font-size="10.00">userver/utils/fast</text>
<text text-anchor="middle" x="1190" y="-183" font-family="Helvetica,sans-Serif" font-size="10.00">_pimpl.hpp</text>
</a>
</g>
</g>
<!-- Node12&#45;&gt;Node15 -->
<g id="edge17_Node000012_Node000015" class="edge">
<title>Node12&#45;&gt;Node15</title>
<g id="a_edge17_Node000012_Node000015"><a xlink:title=" ">
<path fill="none" stroke="#63b8ff" d="M962.18,-243.6C1005.67,-234.12 1067.25,-220.56 1130.66,-206.06"/>
<polygon fill="#63b8ff" stroke="#63b8ff" points="1131.47,-209.46 1140.44,-203.82 1129.91,-202.64 1131.47,-209.46"/>
</a>
</g>
</g>
<!-- Node14 -->
<g id="Node000014" class="node">
<title>Node14</title>
<g id="a_Node000014"><a xlink:title=" ">
<polygon fill="#e0e0e0" stroke="#999999" points="1075.5,-134.5 1022.5,-134.5 1022.5,-115.5 1075.5,-115.5 1075.5,-134.5"/>
<text text-anchor="middle" x="1049" y="-122.5" font-family="Helvetica,sans-Serif" font-size="10.00">cstddef</text>
</a>
</g>
</g>
<!-- Node13&#45;&gt;Node14 -->
<g id="edge16_Node000013_Node000014" class="edge">
<title>Node13&#45;&gt;Node14</title>
<g id="a_edge16_Node000013_Node000014"><a xlink:title=" ">
<path fill="none" stroke="#63b8ff" d="M1046.4,-181.37C1046.84,-172.07 1047.55,-156.98 1048.11,-144.9"/>
<polygon fill="#63b8ff" stroke="#63b8ff" points="1051.61,-145.06 1048.58,-134.91 1044.62,-144.73 1051.61,-145.06"/>
</a>
</g>
</g>
<!-- Node15&#45;&gt;Node7 -->
<g id="edge20_Node000015_Node000007" class="edge">
<title>Node15&#45;&gt;Node7</title>
<g id="a_edge20_Node000015_Node000007"><a xlink:title=" ">
<path fill="none" stroke="#63b8ff" d="M1198.95,-175.96C1208.77,-158.6 1221.22,-129.02 1206,-110 1187.17,-86.47 1105.07,-74.51 1052.68,-69.17"/>
<polygon fill="#63b8ff" stroke="#63b8ff" points="1052.92,-65.68 1042.63,-68.19 1052.24,-72.65 1052.92,-65.68"/>
</a>
</g>
</g>
<!-- Node15&#45;&gt;Node14 -->
<g id="edge18_Node000015_Node000014" class="edge">
<title>Node15&#45;&gt;Node14</title>
<g id="a_edge18_Node000015_Node000014"><a xlink:title=" ">
<path fill="none" stroke="#63b8ff" d="M1159.06,-175.95C1134.55,-164.83 1100.61,-149.42 1076.92,-138.67"/>
<polygon fill="#63b8ff" stroke="#63b8ff" points="1078.32,-135.46 1067.76,-134.52 1075.42,-141.84 1078.32,-135.46"/>
</a>
</g>
</g>
<!-- Node16 -->
<g id="Node000016" class="node">
<title>Node16</title>
<g id="a_Node000016"><a xlink:title=" ">
<polygon fill="#e0e0e0" stroke="#999999" points="1196.5,-134.5 1159.5,-134.5 1159.5,-115.5 1196.5,-115.5 1196.5,-134.5"/>
<text text-anchor="middle" x="1178" y="-122.5" font-family="Helvetica,sans-Serif" font-size="10.00">new</text>
</a>
</g>
</g>
<!-- Node15&#45;&gt;Node16 -->
<g id="edge19_Node000015_Node000016" class="edge">
<title>Node15&#45;&gt;Node16</title>
<g id="a_edge19_Node000015_Node000016"><a xlink:title=" ">
<path fill="none" stroke="#63b8ff" d="M1187.34,-175.8C1185.63,-166.7 1183.4,-154.79 1181.54,-144.9"/>
<polygon fill="#63b8ff" stroke="#63b8ff" points="1184.94,-144.03 1179.66,-134.84 1178.06,-145.32 1184.94,-144.03"/>
</a>
</g>
</g>
<!-- Node17 -->
<g id="Node000017" class="node">
<title>Node17</title>
<g id="a_Node000017"><a xlink:title=" ">
<polygon fill="#e0e0e0" stroke="#999999" points="1141.5,-134.5 1096.5,-134.5 1096.5,-115.5 1141.5,-115.5 1141.5,-134.5"/>
<text text-anchor="middle" x="1119" y="-122.5" font-family="Helvetica,sans-Serif" font-size="10.00">utility</text>
</a>
</g>
</g>
<!-- Node15&#45;&gt;Node17 -->
<g id="edge21_Node000015_Node000017" class="edge">
<title>Node15&#45;&gt;Node17</title>
<g id="a_edge21_Node000015_Node000017"><a xlink:title=" ">
<path fill="none" stroke="#63b8ff" d="M1174.24,-175.8C1163.07,-165.72 1148.06,-152.19 1136.51,-141.78"/>
<polygon fill="#63b8ff" stroke="#63b8ff" points="1138.58,-138.94 1128.81,-134.84 1133.9,-144.14 1138.58,-138.94"/>
</a>
</g>
</g>
<!-- Node19 -->
<g id="Node000019" class="node">
<title>Node19</title>
<g id="a_Node000019"><a xlink:href="../../d9/d72/task__base_8hpp.html" target="_top" xlink:title="Base class for all the asynchronous tasks (engine::Task, engine::SharedTask, engine::SharedTaskWithRe...">
<polygon fill="white" stroke="#666666" points="435.5,-338 322.5,-338 322.5,-308 435.5,-308 435.5,-338"/>
<text text-anchor="start" x="330.5" y="-326" font-family="Helvetica,sans-Serif" font-size="10.00">userver/engine/task</text>
<text text-anchor="middle" x="379" y="-315" font-family="Helvetica,sans-Serif" font-size="10.00">/task_base.hpp</text>
</a>
</g>
</g>
<!-- Node18&#45;&gt;Node19 -->
<g id="edge23_Node000018_Node000019" class="edge">
<title>Node18&#45;&gt;Node19</title>
<g id="a_edge23_Node000018_Node000019"><a xlink:title=" ">
<path fill="none" stroke="#63b8ff" d="M385.22,-373.8C384.28,-366.26 383.1,-356.78 382.02,-348.13"/>
<polygon fill="#63b8ff" stroke="#63b8ff" points="385.48,-347.65 380.77,-338.16 378.54,-348.52 385.48,-347.65"/>
</a>
</g>
</g>
<!-- Node19&#45;&gt;Node3 -->
<g id="edge24_Node000019_Node000003" class="edge">
<title>Node19&#45;&gt;Node3</title>
<g id="a_edge24_Node000019_Node000003"><a xlink:title=" ">
<path fill="none" stroke="#63b8ff" d="M413.43,-307.82C431.19,-299.3 452.34,-287.17 468,-272 503.8,-237.31 491.38,-211.87 526,-176 563.24,-137.42 580.62,-136.91 627,-110 646.56,-98.65 669.34,-87.05 686.69,-78.54"/>
<polygon fill="#63b8ff" stroke="#63b8ff" points="688.24,-81.68 695.71,-74.16 685.18,-75.38 688.24,-81.68"/>
</a>
</g>
</g>
<!-- Node19&#45;&gt;Node4 -->
<g id="edge25_Node000019_Node000004" class="edge">
<title>Node19&#45;&gt;Node4</title>
<g id="a_edge25_Node000019_Node000004"><a xlink:title=" ">
<path fill="none" stroke="#63b8ff" d="M435.74,-314.36C490.81,-306.27 576.48,-291.92 649,-272 651.29,-271.37 653.63,-270.67 655.98,-269.91"/>
<polygon fill="#63b8ff" stroke="#63b8ff" points="657.18,-273.2 665.5,-266.64 654.91,-266.58 657.18,-273.2"/>
</a>
</g>
</g>
<!-- Node19&#45;&gt;Node6 -->
<g id="edge28_Node000019_Node000006" class="edge">
<title>Node19&#45;&gt;Node6</title>
<g id="a_edge28_Node000019_Node000006"><a xlink:title=" ">
<path fill="none" stroke="#63b8ff" d="M435.54,-308.46C458.29,-300.77 483.47,-289.14 502,-272 537.01,-239.6 513.56,-206.79 550,-176 573.7,-155.98 605.28,-143.97 634.4,-136.77"/>
<polygon fill="#63b8ff" stroke="#63b8ff" points="635.21,-140.18 644.17,-134.51 633.63,-133.36 635.21,-140.18"/>
</a>
</g>
</g>
<!-- Node20 -->
<g id="Node000020" class="node">
<title>Node20</title>
<g id="a_Node000020"><a xlink:title=" ">
<polygon fill="#e0e0e0" stroke="#999999" points="132,-134.5 88,-134.5 88,-115.5 132,-115.5 132,-134.5"/>
<text text-anchor="middle" x="110" y="-122.5" font-family="Helvetica,sans-Serif" font-size="10.00">string</text>
</a>
</g>
</g>
<!-- Node19&#45;&gt;Node20 -->
<g id="edge26_Node000019_Node000020" class="edge">
<title>Node19&#45;&gt;Node20</title>
<g id="a_edge26_Node000019_Node000020"><a xlink:title=" ">
<path fill="none" stroke="#63b8ff" d="M322.35,-320.72C245.62,-317.66 114.77,-307.26 85,-272 53.85,-235.1 81.85,-173.78 98.98,-143.72"/>
<polygon fill="#63b8ff" stroke="#63b8ff" points="102.18,-145.19 104.28,-134.8 96.16,-141.62 102.18,-145.19"/>
</a>
</g>
</g>
<!-- Node21 -->
<g id="Node000021" class="node">
<title>Node21</title>
<g id="a_Node000021"><a xlink:title=" ">
<polygon fill="#e0e0e0" stroke="#999999" points="320,-140 180,-140 180,-110 320,-110 320,-140"/>
<text text-anchor="start" x="188" y="-128" font-family="Helvetica,sans-Serif" font-size="10.00">boost/smart_ptr/intrusive</text>
<text text-anchor="middle" x="250" y="-117" font-family="Helvetica,sans-Serif" font-size="10.00">_ptr.hpp</text>
</a>
</g>
</g>
<!-- Node19&#45;&gt;Node21 -->
<g id="edge27_Node000019_Node000021" class="edge">
<title>Node19&#45;&gt;Node21</title>
<g id="a_edge27_Node000019_Node000021"><a xlink:title=" ">
<path fill="none" stroke="#63b8ff" d="M322.38,-320.33C247.99,-316.82 123.44,-305.89 95,-272 71.83,-244.39 116.68,-184.82 126,-176 141.29,-161.54 161.3,-151.05 180.78,-143.53"/>
<polygon fill="#63b8ff" stroke="#63b8ff" points="182.07,-146.79 190.27,-140.08 179.67,-140.21 182.07,-146.79"/>
</a>
</g>
</g>
<!-- Node22 -->
<g id="Node000022" class="node">
<title>Node22</title>
<g id="a_Node000022"><a xlink:href="../../d9/d27/core_2include_2userver_2engine_2exception_8hpp.html" target="_top" xlink:title="Coroutine engine exceptions.">
<polygon fill="white" stroke="#666666" points="459.5,-266.5 298.5,-266.5 298.5,-247.5 459.5,-247.5 459.5,-266.5"/>
<text text-anchor="middle" x="379" y="-254.5" font-family="Helvetica,sans-Serif" font-size="10.00">userver/engine/exception.hpp</text>
</a>
</g>
</g>
<!-- Node19&#45;&gt;Node22 -->
<g id="edge29_Node000019_Node000022" class="edge">
<title>Node19&#45;&gt;Node22</title>
<g id="a_edge29_Node000019_Node000022"><a xlink:title=" ">
<path fill="none" stroke="#63b8ff" d="M379,-307.8C379,-298.7 379,-286.79 379,-276.9"/>
<polygon fill="#63b8ff" stroke="#63b8ff" points="382.5,-276.84 379,-266.84 375.5,-276.84 382.5,-276.84"/>
</a>
</g>
</g>
<!-- Node24 -->
<g id="Node000024" class="node">
<title>Node24</title>
<g id="a_Node000024"><a xlink:href="../../db/df2/cancel_8hpp.html" target="_top" xlink:title="Task cancellation helpers.">
<polygon fill="white" stroke="#666666" points="331.5,-206 218.5,-206 218.5,-176 331.5,-176 331.5,-206"/>
<text text-anchor="start" x="226.5" y="-194" font-family="Helvetica,sans-Serif" font-size="10.00">userver/engine/task</text>
<text text-anchor="middle" x="275" y="-183" font-family="Helvetica,sans-Serif" font-size="10.00">/cancel.hpp</text>
</a>
</g>
</g>
<!-- Node19&#45;&gt;Node24 -->
<g id="edge35_Node000019_Node000024" class="edge">
<title>Node19&#45;&gt;Node24</title>
<g id="a_edge35_Node000019_Node000024"><a xlink:title=" ">
<path fill="none" stroke="#63b8ff" d="M336.62,-307.82C319.28,-299.92 300.61,-288.31 289,-272 277.53,-255.89 274.43,-233.41 273.97,-216.38"/>
<polygon fill="#63b8ff" stroke="#63b8ff" points="277.47,-216.11 273.98,-206.1 270.47,-216.1 277.47,-216.11"/>
</a>
</g>
</g>
<!-- Node25 -->
<g id="Node000025" class="node">
<title>Node25</title>
<g id="a_Node000025"><a xlink:href="../../d8/d03/task__processor__fwd_8hpp.html" target="_top" xlink:title=" ">
<polygon fill="white" stroke="#666666" points="241.5,-272 104.5,-272 104.5,-242 241.5,-242 241.5,-272"/>
<text text-anchor="start" x="112.5" y="-260" font-family="Helvetica,sans-Serif" font-size="10.00">userver/engine/task</text>
<text text-anchor="middle" x="173" y="-249" font-family="Helvetica,sans-Serif" font-size="10.00">/task_processor_fwd.hpp</text>
</a>
</g>
</g>
<!-- Node19&#45;&gt;Node25 -->
<g id="edge36_Node000019_Node000025" class="edge">
<title>Node19&#45;&gt;Node25</title>
<g id="a_edge36_Node000019_Node000025"><a xlink:title=" ">
<path fill="none" stroke="#63b8ff" d="M333.79,-307.95C302.67,-298.28 261.13,-285.38 228.07,-275.11"/>
<polygon fill="#63b8ff" stroke="#63b8ff" points="228.69,-271.64 218.1,-272.01 226.61,-278.32 228.69,-271.64"/>
</a>
</g>
</g>
<!-- Node23 -->
<g id="Node000023" class="node">
<title>Node23</title>
<g id="a_Node000023"><a xlink:title=" ">
<polygon fill="#e0e0e0" stroke="#999999" points="913.5,-200.5 848.5,-200.5 848.5,-181.5 913.5,-181.5 913.5,-200.5"/>
<text text-anchor="middle" x="881" y="-188.5" font-family="Helvetica,sans-Serif" font-size="10.00">stdexcept</text>
</a>
</g>
</g>
<!-- Node22&#45;&gt;Node23 -->
<g id="edge30_Node000022_Node000023" class="edge">
<title>Node22&#45;&gt;Node23</title>
<g id="a_edge30_Node000022_Node000023"><a xlink:title=" ">
<path fill="none" stroke="#63b8ff" d="M445.92,-247.47C550.71,-234.11 750.56,-208.63 838.11,-197.47"/>
<polygon fill="#63b8ff" stroke="#63b8ff" points="838.74,-200.92 848.22,-196.18 837.86,-193.97 838.74,-200.92"/>
</a>
</g>
</g>
<!-- Node22&#45;&gt;Node24 -->
<g id="edge31_Node000022_Node000024" class="edge">
<title>Node22&#45;&gt;Node24</title>
<g id="a_edge31_Node000022_Node000024"><a xlink:title=" ">
<path fill="none" stroke="#63b8ff" d="M364.97,-247.37C350.07,-238.2 326.01,-223.39 306.52,-211.4"/>
<polygon fill="#63b8ff" stroke="#63b8ff" points="308.29,-208.38 297.94,-206.12 304.62,-214.34 308.29,-208.38"/>
</a>
</g>
</g>
<!-- Node24&#45;&gt;Node6 -->
<g id="edge34_Node000024_Node000006" class="edge">
<title>Node24&#45;&gt;Node6</title>
<g id="a_edge34_Node000024_Node000006"><a xlink:title=" ">
<path fill="none" stroke="#63b8ff" d="M331.94,-181.7C412.39,-169.97 559.12,-148.58 645.45,-135.99"/>
<polygon fill="#63b8ff" stroke="#63b8ff" points="646.02,-139.45 655.41,-134.54 645.01,-132.52 646.02,-139.45"/>
</a>
</g>
</g>
<!-- Node24&#45;&gt;Node20 -->
<g id="edge32_Node000024_Node000020" class="edge">
<title>Node24&#45;&gt;Node20</title>
<g id="a_edge32_Node000024_Node000020"><a xlink:title=" ">
<path fill="none" stroke="#63b8ff" d="M238.79,-175.95C209.73,-164.68 169.33,-149.01 141.57,-138.25"/>
<polygon fill="#63b8ff" stroke="#63b8ff" points="142.55,-134.87 131.96,-134.52 140.02,-141.4 142.55,-134.87"/>
</a>
</g>
</g>
<!-- Node24&#45;&gt;Node21 -->
<g id="edge33_Node000024_Node000021" class="edge">
<title>Node24&#45;&gt;Node21</title>
<g id="a_edge33_Node000024_Node000021"><a xlink:title=" ">
<path fill="none" stroke="#63b8ff" d="M269.45,-175.8C266.44,-168.09 262.64,-158.37 259.2,-149.56"/>
<polygon fill="#63b8ff" stroke="#63b8ff" points="262.43,-148.21 255.53,-140.16 255.91,-150.75 262.43,-148.21"/>
</a>
</g>
</g>
<!-- Node26 -->
<g id="Node000026" class="node">
<title>Node26</title>
<g id="a_Node000026"><a xlink:title=" ">
<polygon fill="#e0e0e0" stroke="#999999" points="200.5,-200.5 135.5,-200.5 135.5,-181.5 200.5,-181.5 200.5,-200.5"/>
<text text-anchor="middle" x="168" y="-188.5" font-family="Helvetica,sans-Serif" font-size="10.00">functional</text>
</a>
</g>
</g>
<!-- Node25&#45;&gt;Node26 -->
<g id="edge37_Node000025_Node000026" class="edge">
<title>Node25&#45;&gt;Node26</title>
<g id="a_edge37_Node000025_Node000026"><a xlink:title=" ">
<path fill="none" stroke="#63b8ff" d="M171.89,-241.8C171.18,-232.7 170.25,-220.79 169.48,-210.9"/>
<polygon fill="#63b8ff" stroke="#63b8ff" points="172.96,-210.54 168.69,-200.84 165.98,-211.09 172.96,-210.54"/>
</a>
</g>
</g>
<!-- Node27&#45;&gt;Node3 -->
<g id="edge40_Node000027_Node000003" class="edge">
<title>Node27&#45;&gt;Node3</title>
<g id="a_edge40_Node000027_Node000003"><a xlink:title=" ">
<path fill="none" stroke="#63b8ff" d="M858.95,-313.42C853.4,-303.66 844.52,-287.13 839,-272 813.61,-202.43 845.68,-168.29 800,-110 787.14,-93.59 766.55,-82.63 748.74,-75.7"/>
<polygon fill="#63b8ff" stroke="#63b8ff" points="749.8,-72.36 739.21,-72.25 747.42,-78.94 749.8,-72.36"/>
</a>
</g>
</g>
<!-- Node27&#45;&gt;Node6 -->
<g id="edge42_Node000027_Node000006" class="edge">
<title>Node27&#45;&gt;Node6</title>
<g id="a_edge42_Node000027_Node000006"><a xlink:title=" ">
<path fill="none" stroke="#63b8ff" d="M851.16,-313.26C838.46,-304.12 819.07,-288.78 806,-272 776.7,-234.36 784.64,-215.57 758,-176 749.81,-163.83 738.93,-151.45 730.04,-142.05"/>
<polygon fill="#63b8ff" stroke="#63b8ff" points="732.33,-139.38 722.86,-134.64 727.31,-144.25 732.33,-139.38"/>
</a>
</g>
</g>
<!-- Node27&#45;&gt;Node11 -->
<g id="edge41_Node000027_Node000011" class="edge">
<title>Node27&#45;&gt;Node11</title>
<g id="a_edge41_Node000027_Node000011"><a xlink:title=" ">
<path fill="none" stroke="#63b8ff" d="M816.81,-313.47C772.82,-304.94 705.66,-290.45 649,-272 647.37,-271.47 645.71,-270.89 644.05,-270.28"/>
<polygon fill="#63b8ff" stroke="#63b8ff" points="645.22,-266.98 634.63,-266.57 642.65,-273.49 645.22,-266.98"/>
</a>
</g>
</g>
<!-- Node27&#45;&gt;Node12 -->
<g id="edge43_Node000027_Node000012" class="edge">
<title>Node27&#45;&gt;Node12</title>
<g id="a_edge43_Node000027_Node000012"><a xlink:title=" ">
<path fill="none" stroke="#63b8ff" d="M869.53,-313.37C874.84,-305.08 883.1,-292.18 890.32,-280.92"/>
<polygon fill="#63b8ff" stroke="#63b8ff" points="893.35,-282.67 895.8,-272.36 887.46,-278.89 893.35,-282.67"/>
</a>
</g>
</g>
<!-- Node28 -->
<g id="Node000028" class="node">
<title>Node28</title>
<g id="a_Node000028"><a xlink:title=" ">
<polygon fill="#e0e0e0" stroke="#999999" points="1030,-266.5 980,-266.5 980,-247.5 1030,-247.5 1030,-266.5"/>
<text text-anchor="middle" x="1005" y="-254.5" font-family="Helvetica,sans-Serif" font-size="10.00">atomic</text>
</a>
</g>
</g>
<!-- Node27&#45;&gt;Node28 -->
<g id="edge39_Node000027_Node000028" class="edge">
<title>Node27&#45;&gt;Node28</title>
<g id="a_edge39_Node000027_Node000028"><a xlink:title=" ">
<path fill="none" stroke="#63b8ff" d="M883.02,-313.37C907.09,-302.44 948.77,-283.52 976.61,-270.88"/>
<polygon fill="#63b8ff" stroke="#63b8ff" points="978.18,-274.02 985.84,-266.7 975.28,-267.65 978.18,-274.02"/>
</a>
</g>
</g>
<!-- Node29&#45;&gt;Node3 -->
<g id="edge47_Node000029_Node000003" class="edge">
<title>Node29&#45;&gt;Node3</title>
<g id="a_edge47_Node000029_Node000003"><a xlink:title=" ">
<path fill="none" stroke="#63b8ff" d="M1089.45,-313.49C1134.24,-299.48 1214.76,-266.86 1249,-206 1271.92,-165.26 1246.06,-134.11 1206,-110 1167.06,-86.56 855.29,-71.43 749.2,-66.92"/>
<polygon fill="#63b8ff" stroke="#63b8ff" points="749.15,-63.41 739.02,-66.49 748.86,-70.41 749.15,-63.41"/>
</a>
</g>
</g>
<!-- Node29&#45;&gt;Node4 -->
<g id="edge52_Node000029_Node000004" class="edge">
<title>Node29&#45;&gt;Node4</title>
<g id="a_edge52_Node000029_Node000004"><a xlink:title=" ">
<path fill="none" stroke="#63b8ff" d="M1008.35,-313.44C933.6,-300.54 793.71,-276.41 725.87,-264.71"/>
<polygon fill="#63b8ff" stroke="#63b8ff" points="726.46,-261.26 716.01,-263 725.27,-268.15 726.46,-261.26"/>
</a>
</g>
</g>
<!-- Node29&#45;&gt;Node6 -->
<g id="edge50_Node000029_Node000006" class="edge">
<title>Node29&#45;&gt;Node6</title>
<g id="a_edge50_Node000029_Node000006"><a xlink:title=" ">
<path fill="none" stroke="#63b8ff" d="M1061.27,-313.35C1066.62,-297.57 1075.22,-263.73 1060,-242 1033.14,-203.65 1001.89,-228.8 961,-206 942.21,-195.52 942.36,-185.39 923,-176 881.75,-156 831.96,-143.68 791.32,-136.27"/>
<polygon fill="#63b8ff" stroke="#63b8ff" points="791.91,-132.82 781.46,-134.54 790.7,-139.72 791.91,-132.82"/>
</a>
</g>
</g>
<!-- Node29&#45;&gt;Node8 -->
<g id="edge53_Node000029_Node000008" class="edge">
<title>Node29&#45;&gt;Node8</title>
<g id="a_edge53_Node000029_Node000008"><a xlink:title=" ">
<path fill="none" stroke="#63b8ff" d="M1142.13,-318.61C1215.58,-313.67 1314.22,-301.58 1339,-272 1390.4,-210.64 1300.21,-117.48 1259.94,-80.96"/>
<polygon fill="#63b8ff" stroke="#63b8ff" points="1262.19,-78.27 1252.39,-74.25 1257.54,-83.51 1262.19,-78.27"/>
</a>
</g>
</g>
<!-- Node29&#45;&gt;Node12 -->
<g id="edge51_Node000029_Node000012" class="edge">
<title>Node29&#45;&gt;Node12</title>
<g id="a_edge51_Node000029_Node000012"><a xlink:title=" ">
<path fill="none" stroke="#63b8ff" d="M1037.37,-313.37C1014.65,-303.87 977.48,-288.32 948.3,-276.11"/>
<polygon fill="#63b8ff" stroke="#63b8ff" points="949.32,-272.75 938.75,-272.12 946.62,-279.2 949.32,-272.75"/>
</a>
</g>
</g>
<!-- Node29&#45;&gt;Node23 -->
<g id="edge49_Node000029_Node000023" class="edge">
<title>Node29&#45;&gt;Node23</title>
<g id="a_edge49_Node000029_Node000023"><a xlink:title=" ">
<path fill="none" stroke="#63b8ff" d="M1058.53,-313.26C1059.02,-297.04 1057.66,-262.08 1039,-242 1036.87,-239.71 964.85,-217.5 918.79,-203.46"/>
<polygon fill="#63b8ff" stroke="#63b8ff" points="919.69,-200.08 909.11,-200.51 917.66,-206.77 919.69,-200.08"/>
</a>
</g>
</g>
<!-- Node29&#45;&gt;Node28 -->
<g id="edge46_Node000029_Node000028" class="edge">
<title>Node29&#45;&gt;Node28</title>
<g id="a_edge46_Node000029_Node000028"><a xlink:title=" ">
<path fill="none" stroke="#63b8ff" d="M1050.85,-313.37C1042.68,-303.5 1029.11,-287.11 1018.84,-274.72"/>
<polygon fill="#63b8ff" stroke="#63b8ff" points="1021.45,-272.37 1012.37,-266.91 1016.06,-276.84 1021.45,-272.37"/>
</a>
</g>
</g>
<!-- Node30 -->
<g id="Node000030" class="node">
<title>Node30</title>
<g id="a_Node000030"><a xlink:title=" ">
<polygon fill="#e0e0e0" stroke="#999999" points="1330,-266.5 1244,-266.5 1244,-247.5 1330,-247.5 1330,-266.5"/>
<text text-anchor="middle" x="1287" y="-254.5" font-family="Helvetica,sans-Serif" font-size="10.00">shared_mutex</text>
</a>
</g>
</g>
<!-- Node29&#45;&gt;Node30 -->
<g id="edge48_Node000029_Node000030" class="edge">
<title>Node29&#45;&gt;Node30</title>
<g id="a_edge48_Node000029_Node000030"><a xlink:title=" ">
<path fill="none" stroke="#63b8ff" d="M1088.88,-313.37C1129.63,-301.98 1201.44,-281.91 1246.5,-269.32"/>
<polygon fill="#63b8ff" stroke="#63b8ff" points="1247.55,-272.66 1256.24,-266.6 1245.67,-265.92 1247.55,-272.66"/>
</a>
</g>
</g>
</g>
</svg>
