<?xml version="1.0" encoding="UTF-8" standalone="no"?>
<!DOCTYPE svg PUBLIC "-//W3C//DTD SVG 1.1//EN"
 "http://www.w3.org/Graphics/SVG/1.1/DTD/svg11.dtd">
<!-- Generated by graphviz version 2.43.0 (0)
 -->
<!-- Title: engine::io::Socket Pages: 1 -->
<svg width="302pt" height="137pt"
 viewBox="0.00 0.00 302.00 137.00" xmlns="http://www.w3.org/2000/svg" xmlns:xlink="http://www.w3.org/1999/xlink">
<g id="graph0" class="graph" transform="scale(1 1) rotate(0) translate(4 133)">
<title>engine::io::Socket</title>
<!-- Node1 -->
<g id="Node000001" class="node">
<title>Node1</title>
<g id="a_Node000001"><a xlink:title="Socket representation.">
<polygon fill="#999999" stroke="#666666" points="199.5,-19 96.5,-19 96.5,0 199.5,0 199.5,-19"/>
<text text-anchor="middle" x="148" y="-7" font-family="Helvetica,sans-Serif" font-size="10.00">engine::io::Socket</text>
</a>
</g>
</g>
<!-- Node2 -->
<g id="Node000002" class="node">
<title>Node2</title>
<g id="a_Node000002"><a xlink:href="../../d3/d1e/classengine_1_1io_1_1RwBase.html" target="_top" xlink:title=" ">
<polygon fill="white" stroke="#666666" points="203,-74 93,-74 93,-55 203,-55 203,-74"/>
<text text-anchor="middle" x="148" y="-62" font-family="Helvetica,sans-Serif" font-size="10.00">engine::io::RwBase</text>
</a>
</g>
</g>
<!-- Node2&#45;&gt;Node1 -->
<g id="edge1_Node000001_Node000002" class="edge">
<title>Node2&#45;&gt;Node1</title>
<g id="a_edge1_Node000001_Node000002"><a xlink:title=" ">
<path fill="none" stroke="#63b8ff" d="M148,-44.66C148,-35.93 148,-25.99 148,-19.09"/>
<polygon fill="#63b8ff" stroke="#63b8ff" points="144.5,-44.75 148,-54.75 151.5,-44.75 144.5,-44.75"/>
</a>
</g>
</g>
<!-- Node3 -->
<g id="Node000003" class="node">
<title>Node3</title>
<g id="a_Node000003"><a xlink:href="../../da/d1b/classengine_1_1io_1_1ReadableBase.html" target="_top" xlink:title=" ">
<polygon fill="white" stroke="#666666" points="140,-129 0,-129 0,-110 140,-110 140,-129"/>
<text text-anchor="middle" x="70" y="-117" font-family="Helvetica,sans-Serif" font-size="10.00">engine::io::ReadableBase</text>
</a>
</g>
</g>
<!-- Node3&#45;&gt;Node2 -->
<g id="edge2_Node000002_Node000003" class="edge">
<title>Node3&#45;&gt;Node2</title>
<g id="a_edge2_Node000002_Node000003"><a xlink:title=" ">
<path fill="none" stroke="#63b8ff" d="M91.12,-104.15C105.21,-94.57 123.29,-82.29 135.24,-74.17"/>
<polygon fill="#63b8ff" stroke="#63b8ff" points="88.84,-101.47 82.53,-109.98 92.77,-107.26 88.84,-101.47"/>
</a>
</g>
</g>
<!-- Node4 -->
<g id="Node000004" class="node">
<title>Node4</title>
<g id="a_Node000004"><a xlink:href="../../d7/d42/classengine_1_1io_1_1WritableBase.html" target="_top" xlink:title=" ">
<polygon fill="white" stroke="#666666" points="294,-129 158,-129 158,-110 294,-110 294,-129"/>
<text text-anchor="middle" x="226" y="-117" font-family="Helvetica,sans-Serif" font-size="10.00">engine::io::WritableBase</text>
</a>
</g>
</g>
<!-- Node4&#45;&gt;Node2 -->
<g id="edge3_Node000002_Node000004" class="edge">
<title>Node4&#45;&gt;Node2</title>
<g id="a_edge3_Node000002_Node000004"><a xlink:title=" ">
<path fill="none" stroke="#63b8ff" d="M204.88,-104.15C190.79,-94.57 172.71,-82.29 160.76,-74.17"/>
<polygon fill="#63b8ff" stroke="#63b8ff" points="203.23,-107.26 213.47,-109.98 207.16,-101.47 203.23,-107.26"/>
</a>
</g>
</g>
</g>
</svg>
