<?xml version="1.0" encoding="UTF-8" standalone="no"?>
<!DOCTYPE svg PUBLIC "-//W3C//DTD SVG 1.1//EN"
 "http://www.w3.org/Graphics/SVG/1.1/DTD/svg11.dtd">
<!-- Generated by graphviz version 2.43.0 (0)
 -->
<!-- Title: storages::postgres::io::BufferFormatter&lt; AddressV6 &gt; Pages: 1 -->
<svg width="166pt" height="280pt"
 viewBox="0.00 0.00 166.00 280.00" xmlns="http://www.w3.org/2000/svg" xmlns:xlink="http://www.w3.org/1999/xlink">
<g id="graph0" class="graph" transform="scale(1 1) rotate(0) translate(4 276)">
<title>storages::postgres::io::BufferFormatter&lt; AddressV6 &gt;</title>
<!-- Node1 -->
<g id="Node000001" class="node">
<title>Node1</title>
<g id="a_Node000001"><a xlink:title="Binary formatter for utils::ip::AddressV6.">
<polygon fill="#999999" stroke="#666666" points="136.5,-41 21.5,-41 21.5,0 136.5,0 136.5,-41"/>
<text text-anchor="start" x="29.5" y="-29" font-family="Helvetica,sans-Serif" font-size="10.00">storages::postgres</text>
<text text-anchor="start" x="29.5" y="-18" font-family="Helvetica,sans-Serif" font-size="10.00">::io::BufferFormatter</text>
<text text-anchor="middle" x="79" y="-7" font-family="Helvetica,sans-Serif" font-size="10.00">&lt; AddressV6 &gt;</text>
</a>
</g>
</g>
<!-- Node2 -->
<g id="Node000002" class="node">
<title>Node2</title>
<g id="a_Node000002"><a xlink:title=" ">
<polygon fill="white" stroke="#bfbfbf" points="155,-118 3,-118 3,-77 155,-77 155,-118"/>
<text text-anchor="start" x="11" y="-106" font-family="Helvetica,sans-Serif" font-size="10.00">storages::postgres</text>
<text text-anchor="start" x="11" y="-95" font-family="Helvetica,sans-Serif" font-size="10.00">::io::detail::AddressNetwork</text>
<text text-anchor="middle" x="79" y="-84" font-family="Helvetica,sans-Serif" font-size="10.00">Buffer&lt; AddressV6 &gt;</text>
</a>
</g>
</g>
<!-- Node2&#45;&gt;Node1 -->
<g id="edge1_Node000001_Node000002" class="edge">
<title>Node2&#45;&gt;Node1</title>
<g id="a_edge1_Node000001_Node000002"><a xlink:title=" ">
<path fill="none" stroke="#63b8ff" d="M79,-66.69C79,-58.08 79,-48.9 79,-41.07"/>
<polygon fill="#63b8ff" stroke="#63b8ff" points="75.5,-66.79 79,-76.79 82.5,-66.79 75.5,-66.79"/>
</a>
</g>
</g>
<!-- Node3 -->
<g id="Node000003" class="node">
<title>Node3</title>
<g id="a_Node000003"><a xlink:title=" ">
<polygon fill="white" stroke="#bfbfbf" points="158,-195 0,-195 0,-154 158,-154 158,-195"/>
<text text-anchor="start" x="8" y="-183" font-family="Helvetica,sans-Serif" font-size="10.00">storages::postgres</text>
<text text-anchor="start" x="8" y="-172" font-family="Helvetica,sans-Serif" font-size="10.00">::io::detail::IpBufferFormatter</text>
<text text-anchor="middle" x="79" y="-161" font-family="Helvetica,sans-Serif" font-size="10.00">Base&lt; T &gt;</text>
</a>
</g>
</g>
<!-- Node3&#45;&gt;Node2 -->
<g id="edge2_Node000002_Node000003" class="edge">
<title>Node3&#45;&gt;Node2</title>
<g id="a_edge2_Node000002_Node000003"><a xlink:title=" ">
<path fill="none" stroke="#63b8ff" d="M79,-143.69C79,-135.08 79,-125.9 79,-118.07"/>
<polygon fill="#63b8ff" stroke="#63b8ff" points="75.5,-143.79 79,-153.79 82.5,-143.79 75.5,-143.79"/>
</a>
</g>
</g>
<!-- Node4 -->
<g id="Node000004" class="node">
<title>Node4</title>
<g id="a_Node000004"><a xlink:title=" ">
<polygon fill="white" stroke="#bfbfbf" points="153.5,-272 4.5,-272 4.5,-231 153.5,-231 153.5,-272"/>
<text text-anchor="start" x="12.5" y="-260" font-family="Helvetica,sans-Serif" font-size="10.00">storages::postgres</text>
<text text-anchor="start" x="12.5" y="-249" font-family="Helvetica,sans-Serif" font-size="10.00">::io::detail::BufferFormatter</text>
<text text-anchor="middle" x="79" y="-238" font-family="Helvetica,sans-Serif" font-size="10.00">Base&lt; T &gt;</text>
</a>
</g>
</g>
<!-- Node4&#45;&gt;Node3 -->
<g id="edge3_Node000003_Node000004" class="edge">
<title>Node4&#45;&gt;Node3</title>
<g id="a_edge3_Node000003_Node000004"><a xlink:title=" ">
<path fill="none" stroke="#63b8ff" d="M79,-220.69C79,-212.08 79,-202.9 79,-195.07"/>
<polygon fill="#63b8ff" stroke="#63b8ff" points="75.5,-220.79 79,-230.79 82.5,-220.79 75.5,-220.79"/>
</a>
</g>
</g>
</g>
</svg>
