<?xml version="1.0" encoding="UTF-8" standalone="no"?>
<!DOCTYPE svg PUBLIC "-//W3C//DTD SVG 1.1//EN"
 "http://www.w3.org/Graphics/SVG/1.1/DTD/svg11.dtd">
<!-- Generated by graphviz version 2.43.0 (0)
 -->
<!-- Title: ugrpc::client::DataLossError Pages: 1 -->
<svg width="159pt" height="258pt"
 viewBox="0.00 0.00 159.00 258.00" xmlns="http://www.w3.org/2000/svg" xmlns:xlink="http://www.w3.org/1999/xlink">
<g id="graph0" class="graph" transform="scale(1 1) rotate(0) translate(4 254)">
<title>ugrpc::client::DataLossError</title>
<!-- Node1 -->
<g id="Node000001" class="node">
<title>Node1</title>
<g id="a_Node000001"><a xlink:title=" ">
<polygon fill="#999999" stroke="#666666" points="151,-19 0,-19 0,0 151,0 151,-19"/>
<text text-anchor="middle" x="75.5" y="-7" font-family="Helvetica,sans-Serif" font-size="10.00">ugrpc::client::DataLossError</text>
</a>
</g>
</g>
<!-- Node2 -->
<g id="Node000002" class="node">
<title>Node2</title>
<g id="a_Node000002"><a xlink:href="../../d4/d7d/classugrpc_1_1client_1_1ErrorWithStatus.html" target="_top" xlink:title="Error with grpc::Status details.">
<polygon fill="white" stroke="#666666" points="139.5,-85 11.5,-85 11.5,-55 139.5,-55 139.5,-85"/>
<text text-anchor="start" x="19.5" y="-73" font-family="Helvetica,sans-Serif" font-size="10.00">ugrpc::client::ErrorWith</text>
<text text-anchor="middle" x="75.5" y="-62" font-family="Helvetica,sans-Serif" font-size="10.00">Status</text>
</a>
</g>
</g>
<!-- Node2&#45;&gt;Node1 -->
<g id="edge1_Node000001_Node000002" class="edge">
<title>Node2&#45;&gt;Node1</title>
<g id="a_edge1_Node000001_Node000002"><a xlink:title=" ">
<path fill="none" stroke="#63b8ff" d="M75.5,-44.75C75.5,-35.72 75.5,-26.03 75.5,-19.27"/>
<polygon fill="#63b8ff" stroke="#63b8ff" points="72,-44.84 75.5,-54.84 79,-44.84 72,-44.84"/>
</a>
</g>
</g>
<!-- Node3 -->
<g id="Node000003" class="node">
<title>Node3</title>
<g id="a_Node000003"><a xlink:href="../../d3/d28/classugrpc_1_1client_1_1RpcError.html" target="_top" xlink:title="Error during an RPC.">
<polygon fill="white" stroke="#666666" points="137.5,-140 13.5,-140 13.5,-121 137.5,-121 137.5,-140"/>
<text text-anchor="middle" x="75.5" y="-128" font-family="Helvetica,sans-Serif" font-size="10.00">ugrpc::client::RpcError</text>
</a>
</g>
</g>
<!-- Node3&#45;&gt;Node2 -->
<g id="edge2_Node000002_Node000003" class="edge">
<title>Node3&#45;&gt;Node2</title>
<g id="a_edge2_Node000002_Node000003"><a xlink:title=" ">
<path fill="none" stroke="#63b8ff" d="M75.5,-110.65C75.5,-102.36 75.5,-92.78 75.5,-85.11"/>
<polygon fill="#63b8ff" stroke="#63b8ff" points="72,-110.87 75.5,-120.87 79,-110.87 72,-110.87"/>
</a>
</g>
</g>
<!-- Node4 -->
<g id="Node000004" class="node">
<title>Node4</title>
<g id="a_Node000004"><a xlink:href="../../d3/d25/classugrpc_1_1client_1_1BaseError.html" target="_top" xlink:title="Base exception for all the client errors.">
<polygon fill="white" stroke="#666666" points="140.5,-195 10.5,-195 10.5,-176 140.5,-176 140.5,-195"/>
<text text-anchor="middle" x="75.5" y="-183" font-family="Helvetica,sans-Serif" font-size="10.00">ugrpc::client::BaseError</text>
</a>
</g>
</g>
<!-- Node4&#45;&gt;Node3 -->
<g id="edge3_Node000003_Node000004" class="edge">
<title>Node4&#45;&gt;Node3</title>
<g id="a_edge3_Node000003_Node000004"><a xlink:title=" ">
<path fill="none" stroke="#63b8ff" d="M75.5,-165.66C75.5,-156.93 75.5,-146.99 75.5,-140.09"/>
<polygon fill="#63b8ff" stroke="#63b8ff" points="72,-165.75 75.5,-175.75 79,-165.75 72,-165.75"/>
</a>
</g>
</g>
<!-- Node5 -->
<g id="Node000005" class="node">
<title>Node5</title>
<g id="a_Node000005"><a xlink:title=" ">
<polygon fill="white" stroke="#666666" points="118.5,-250 32.5,-250 32.5,-231 118.5,-231 118.5,-250"/>
<text text-anchor="middle" x="75.5" y="-238" font-family="Helvetica,sans-Serif" font-size="10.00">std::exception</text>
</a>
</g>
</g>
<!-- Node5&#45;&gt;Node4 -->
<g id="edge4_Node000004_Node000005" class="edge">
<title>Node5&#45;&gt;Node4</title>
<g id="a_edge4_Node000004_Node000005"><a xlink:title=" ">
<path fill="none" stroke="#63b8ff" d="M75.5,-220.66C75.5,-211.93 75.5,-201.99 75.5,-195.09"/>
<polygon fill="#63b8ff" stroke="#63b8ff" points="72,-220.75 75.5,-230.75 79,-220.75 72,-220.75"/>
</a>
</g>
</g>
</g>
</svg>
