<?xml version="1.0" encoding="UTF-8" standalone="no"?>
<!DOCTYPE svg PUBLIC "-//W3C//DTD SVG 1.1//EN"
 "http://www.w3.org/Graphics/SVG/1.1/DTD/svg11.dtd">
<!-- Generated by graphviz version 2.43.0 (0)
 -->
<!-- Title: dist_lock::DistLockStrategyBase Pages: 1 -->
<svg width="280pt" height="93pt"
 viewBox="0.00 0.00 279.50 93.00" xmlns="http://www.w3.org/2000/svg" xmlns:xlink="http://www.w3.org/1999/xlink">
<g id="graph0" class="graph" transform="scale(1 1) rotate(0) translate(4 89)">
<title>dist_lock::DistLockStrategyBase</title>
<!-- Node1 -->
<g id="Node000001" class="node">
<title>Node1</title>
<g id="a_Node000001"><a xlink:title="Interface for distributed lock strategies.">
<polygon fill="#999999" stroke="#666666" points="231.5,-85 58.5,-85 58.5,-66 231.5,-66 231.5,-85"/>
<text text-anchor="middle" x="145" y="-73" font-family="Helvetica,sans-Serif" font-size="10.00">dist_lock::DistLockStrategyBase</text>
</a>
</g>
</g>
<!-- Node2 -->
<g id="Node000002" class="node">
<title>Node2</title>
<g id="a_Node000002"><a xlink:href="../../d1/d22/classstorages_1_1mongo_1_1DistLockStrategy.html" target="_top" xlink:title="Strategy for mongodb&#45;based distributed locking.">
<polygon fill="white" stroke="#666666" points="146,-30 0,-30 0,0 146,0 146,-30"/>
<text text-anchor="start" x="8" y="-18" font-family="Helvetica,sans-Serif" font-size="10.00">storages::mongo::DistLock</text>
<text text-anchor="middle" x="73" y="-7" font-family="Helvetica,sans-Serif" font-size="10.00">Strategy</text>
</a>
</g>
</g>
<!-- Node1&#45;&gt;Node2 -->
<g id="edge1_Node000001_Node000002" class="edge">
<title>Node1&#45;&gt;Node2</title>
<g id="a_edge1_Node000001_Node000002"><a xlink:title=" ">
<path fill="none" stroke="#63b8ff" d="M126.54,-59.5C115.4,-50.45 101.31,-39 90.37,-30.11"/>
<polygon fill="#63b8ff" stroke="#63b8ff" points="124.41,-62.28 134.38,-65.87 128.82,-56.85 124.41,-62.28"/>
</a>
</g>
</g>
<!-- Node3 -->
<g id="Node000003" class="node">
<title>Node3</title>
<g id="a_Node000003"><a xlink:href="../../d8/d02/classstorages_1_1postgres_1_1DistLockStrategy.html" target="_top" xlink:title="Postgres distributed locking strategy.">
<polygon fill="white" stroke="#666666" points="271.5,-30 164.5,-30 164.5,0 271.5,0 271.5,-30"/>
<text text-anchor="start" x="172.5" y="-18" font-family="Helvetica,sans-Serif" font-size="10.00">storages::postgres</text>
<text text-anchor="middle" x="218" y="-7" font-family="Helvetica,sans-Serif" font-size="10.00">::DistLockStrategy</text>
</a>
</g>
</g>
<!-- Node1&#45;&gt;Node3 -->
<g id="edge2_Node000001_Node000003" class="edge">
<title>Node1&#45;&gt;Node3</title>
<g id="a_edge2_Node000001_Node000003"><a xlink:title=" ">
<path fill="none" stroke="#63b8ff" d="M163.72,-59.5C175.01,-50.45 189.3,-39 200.39,-30.11"/>
<polygon fill="#63b8ff" stroke="#63b8ff" points="161.39,-56.88 155.77,-65.87 165.76,-62.35 161.39,-56.88"/>
</a>
</g>
</g>
</g>
</svg>
