<?xml version="1.0" encoding="UTF-8" standalone="no"?>
<!DOCTYPE svg PUBLIC "-//W3C//DTD SVG 1.1//EN"
 "http://www.w3.org/Graphics/SVG/1.1/DTD/svg11.dtd">
<!-- Generated by graphviz version 2.43.0 (0)
 -->
<!-- Title: ugrpc::server::MiddlewareComponentBase Pages: 1 -->
<svg width="834pt" height="194pt"
 viewBox="0.00 0.00 834.00 194.00" xmlns="http://www.w3.org/2000/svg" xmlns:xlink="http://www.w3.org/1999/xlink">
<g id="graph0" class="graph" transform="scale(1 1) rotate(0) translate(4 190)">
<title>ugrpc::server::MiddlewareComponentBase</title>
<!-- Node1 -->
<g id="Node000001" class="node">
<title>Node1</title>
<g id="a_Node000001"><a xlink:title="Base class for middleware component.">
<polygon fill="#999999" stroke="#666666" points="613,-111 470,-111 470,-81 613,-81 613,-111"/>
<text text-anchor="start" x="478" y="-99" font-family="Helvetica,sans-Serif" font-size="10.00">ugrpc::server::Middleware</text>
<text text-anchor="middle" x="541.5" y="-88" font-family="Helvetica,sans-Serif" font-size="10.00">ComponentBase</text>
</a>
</g>
</g>
<!-- Node4 -->
<g id="Node000004" class="node">
<title>Node4</title>
<g id="a_Node000004"><a xlink:href="../../d1/d3f/classugrpc_1_1server_1_1middlewares_1_1baggage_1_1Component.html" target="_top" xlink:title="Component for gRPC server baggage.">
<polygon fill="white" stroke="#666666" points="812,-186 663,-186 663,-156 812,-156 812,-186"/>
<text text-anchor="start" x="671" y="-174" font-family="Helvetica,sans-Serif" font-size="10.00">ugrpc::server::middlewares</text>
<text text-anchor="middle" x="737.5" y="-163" font-family="Helvetica,sans-Serif" font-size="10.00">::baggage::Component</text>
</a>
</g>
</g>
<!-- Node1&#45;&gt;Node4 -->
<g id="edge3_Node000001_Node000004" class="edge">
<title>Node1&#45;&gt;Node4</title>
<g id="a_edge3_Node000001_Node000004"><a xlink:title=" ">
<path fill="none" stroke="#63b8ff" d="M579.52,-115.74C599.68,-125.98 625.29,-138.15 649,-147 657.56,-150.19 666.73,-153.17 675.8,-155.87"/>
<polygon fill="#63b8ff" stroke="#63b8ff" points="580.87,-112.5 570.38,-111.05 577.67,-118.73 580.87,-112.5"/>
</a>
</g>
</g>
<!-- Node5 -->
<g id="Node000005" class="node">
<title>Node5</title>
<g id="a_Node000005"><a xlink:href="../../d4/dae/classugrpc_1_1server_1_1middlewares_1_1congestion__control_1_1Component.html" target="_top" xlink:title="Component for gRPC server logging.">
<polygon fill="white" stroke="#666666" points="826,-138 649,-138 649,-108 826,-108 826,-138"/>
<text text-anchor="start" x="657" y="-126" font-family="Helvetica,sans-Serif" font-size="10.00">ugrpc::server::middlewares</text>
<text text-anchor="middle" x="737.5" y="-115" font-family="Helvetica,sans-Serif" font-size="10.00">::congestion_control::Component</text>
</a>
</g>
</g>
<!-- Node1&#45;&gt;Node5 -->
<g id="edge4_Node000001_Node000005" class="edge">
<title>Node1&#45;&gt;Node5</title>
<g id="a_edge4_Node000001_Node000005"><a xlink:title=" ">
<path fill="none" stroke="#63b8ff" d="M623.26,-107.24C631.68,-108.41 640.27,-109.61 648.76,-110.79"/>
<polygon fill="#63b8ff" stroke="#63b8ff" points="623.47,-103.74 613.09,-105.82 622.51,-110.67 623.47,-103.74"/>
</a>
</g>
</g>
<!-- Node6 -->
<g id="Node000006" class="node">
<title>Node6</title>
<g id="a_Node000006"><a xlink:href="../../d1/de3/classugrpc_1_1server_1_1middlewares_1_1deadline__propagation_1_1Component.html" target="_top" xlink:title="Component for gRPC server deadline propagation.">
<polygon fill="white" stroke="#666666" points="812,-89.5 663,-89.5 663,-48.5 812,-48.5 812,-89.5"/>
<text text-anchor="start" x="671" y="-77.5" font-family="Helvetica,sans-Serif" font-size="10.00">ugrpc::server::middlewares</text>
<text text-anchor="start" x="671" y="-66.5" font-family="Helvetica,sans-Serif" font-size="10.00">::deadline_propagation::</text>
<text text-anchor="middle" x="737.5" y="-55.5" font-family="Helvetica,sans-Serif" font-size="10.00">Component</text>
</a>
</g>
</g>
<!-- Node1&#45;&gt;Node6 -->
<g id="edge5_Node000001_Node000006" class="edge">
<title>Node1&#45;&gt;Node6</title>
<g id="a_edge5_Node000001_Node000006"><a xlink:title=" ">
<path fill="none" stroke="#63b8ff" d="M623.04,-84.79C636.18,-82.96 649.73,-81.08 662.7,-79.27"/>
<polygon fill="#63b8ff" stroke="#63b8ff" points="622.51,-81.33 613.09,-86.18 623.47,-88.26 622.51,-81.33"/>
</a>
</g>
</g>
<!-- Node7 -->
<g id="Node000007" class="node">
<title>Node7</title>
<g id="a_Node000007"><a xlink:href="../../d8/db0/classugrpc_1_1server_1_1middlewares_1_1log_1_1Component.html" target="_top" xlink:title="Component for gRPC server logging.">
<polygon fill="white" stroke="#666666" points="812,-30 663,-30 663,0 812,0 812,-30"/>
<text text-anchor="start" x="671" y="-18" font-family="Helvetica,sans-Serif" font-size="10.00">ugrpc::server::middlewares</text>
<text text-anchor="middle" x="737.5" y="-7" font-family="Helvetica,sans-Serif" font-size="10.00">::log::Component</text>
</a>
</g>
</g>
<!-- Node1&#45;&gt;Node7 -->
<g id="edge6_Node000001_Node000007" class="edge">
<title>Node1&#45;&gt;Node7</title>
<g id="a_edge6_Node000001_Node000007"><a xlink:title=" ">
<path fill="none" stroke="#63b8ff" d="M575.79,-75.69C596.33,-63.79 623.55,-49.15 649,-39 657.19,-35.73 665.99,-32.74 674.73,-30.07"/>
<polygon fill="#63b8ff" stroke="#63b8ff" points="573.98,-72.69 567.13,-80.77 577.52,-78.73 573.98,-72.69"/>
</a>
</g>
</g>
<!-- Node2 -->
<g id="Node000002" class="node">
<title>Node2</title>
<g id="a_Node000002"><a xlink:href="../../d5/d69/classcomponents_1_1LoggableComponentBase.html" target="_top" xlink:title="Base class for all application components, it depends on components::Logger and components::Tracer.">
<polygon fill="white" stroke="#666666" points="434,-105.5 227,-105.5 227,-86.5 434,-86.5 434,-105.5"/>
<text text-anchor="middle" x="330.5" y="-93.5" font-family="Helvetica,sans-Serif" font-size="10.00">components::LoggableComponentBase</text>
</a>
</g>
</g>
<!-- Node2&#45;&gt;Node1 -->
<g id="edge1_Node000001_Node000002" class="edge">
<title>Node2&#45;&gt;Node1</title>
<g id="a_edge1_Node000001_Node000002"><a xlink:title=" ">
<path fill="none" stroke="#63b8ff" d="M444.35,-96C453.01,-96 461.59,-96 469.85,-96"/>
<polygon fill="#63b8ff" stroke="#63b8ff" points="444.16,-92.5 434.16,-96 444.16,-99.5 444.16,-92.5"/>
</a>
</g>
</g>
<!-- Node3 -->
<g id="Node000003" class="node">
<title>Node3</title>
<g id="a_Node000003"><a xlink:title=" ">
<polygon fill="white" stroke="#666666" points="191,-105.5 0,-105.5 0,-86.5 191,-86.5 191,-105.5"/>
<text text-anchor="middle" x="95.5" y="-93.5" font-family="Helvetica,sans-Serif" font-size="10.00">components::impl::ComponentBase</text>
</a>
</g>
</g>
<!-- Node3&#45;&gt;Node2 -->
<g id="edge2_Node000002_Node000003" class="edge">
<title>Node3&#45;&gt;Node2</title>
<g id="a_edge2_Node000002_Node000003"><a xlink:title=" ">
<path fill="none" stroke="#63b8ff" d="M201.5,-96C209.92,-96 218.43,-96 226.84,-96"/>
<polygon fill="#63b8ff" stroke="#63b8ff" points="201.27,-92.5 191.27,-96 201.27,-99.5 201.27,-92.5"/>
</a>
</g>
</g>
</g>
</svg>
