<?xml version="1.0" encoding="UTF-8" standalone="no"?>
<!DOCTYPE svg PUBLIC "-//W3C//DTD SVG 1.1//EN"
 "http://www.w3.org/Graphics/SVG/1.1/DTD/svg11.dtd">
<!-- Generated by graphviz version 2.43.0 (0)
 -->
<!-- Title: ugrpc::server::MiddlewareComponentBase Pages: 1 -->
<svg width="788pt" height="242pt"
 viewBox="0.00 0.00 788.00 242.00" xmlns="http://www.w3.org/2000/svg" xmlns:xlink="http://www.w3.org/1999/xlink">
<g id="graph0" class="graph" transform="scale(1 1) rotate(0) translate(4 238)">
<title>ugrpc::server::MiddlewareComponentBase</title>
<!-- Node1 -->
<g id="Node000001" class="node">
<title>Node1</title>
<g id="a_Node000001"><a xlink:title="Base class for middleware component.">
<polygon fill="#999999" stroke="#666666" points="562,-132 419,-132 419,-102 562,-102 562,-132"/>
<text text-anchor="start" x="427" y="-120" font-family="Helvetica,sans-Serif" font-size="10.00">ugrpc::server::Middleware</text>
<text text-anchor="middle" x="490.5" y="-109" font-family="Helvetica,sans-Serif" font-size="10.00">ComponentBase</text>
</a>
</g>
</g>
<!-- Node4 -->
<g id="Node000004" class="node">
<title>Node4</title>
<g id="a_Node000004"><a xlink:href="../../d1/d3f/classugrpc_1_1server_1_1middlewares_1_1baggage_1_1Component.html" target="_top" xlink:title="Component for gRPC server baggage.">
<polygon fill="white" stroke="#666666" points="763.5,-234 614.5,-234 614.5,-204 763.5,-204 763.5,-234"/>
<text text-anchor="start" x="622.5" y="-222" font-family="Helvetica,sans-Serif" font-size="10.00">ugrpc::server::middlewares</text>
<text text-anchor="middle" x="689" y="-211" font-family="Helvetica,sans-Serif" font-size="10.00">::baggage::Component</text>
</a>
</g>
</g>
<!-- Node1&#45;&gt;Node4 -->
<g id="edge3_Node000001_Node000004" class="edge">
<title>Node1&#45;&gt;Node4</title>
<g id="a_edge3_Node000001_Node000004"><a xlink:title=" ">
<path fill="none" stroke="#63b8ff" d="M515.54,-138.69C536.09,-156.19 567.16,-180.24 598,-195 605,-198.35 612.54,-201.29 620.17,-203.85"/>
<polygon fill="#63b8ff" stroke="#63b8ff" points="517.79,-136.01 507.94,-132.11 513.2,-141.3 517.79,-136.01"/>
</a>
</g>
</g>
<!-- Node5 -->
<g id="Node000005" class="node">
<title>Node5</title>
<g id="a_Node000005"><a xlink:href="../../d4/dae/classugrpc_1_1server_1_1middlewares_1_1congestion__control_1_1Component.html" target="_top" xlink:title="Component for gRPC server logging.">
<polygon fill="white" stroke="#666666" points="777.5,-186 600.5,-186 600.5,-156 777.5,-156 777.5,-186"/>
<text text-anchor="start" x="608.5" y="-174" font-family="Helvetica,sans-Serif" font-size="10.00">ugrpc::server::middlewares</text>
<text text-anchor="middle" x="689" y="-163" font-family="Helvetica,sans-Serif" font-size="10.00">::congestion_control::Component</text>
</a>
</g>
</g>
<!-- Node1&#45;&gt;Node5 -->
<g id="edge4_Node000001_Node000005" class="edge">
<title>Node1&#45;&gt;Node5</title>
<g id="a_edge4_Node000001_Node000005"><a xlink:title=" ">
<path fill="none" stroke="#63b8ff" d="M554.09,-134.79C568.5,-138.84 583.78,-143.1 598,-147 608.6,-149.91 619.93,-152.96 630.83,-155.88"/>
<polygon fill="#63b8ff" stroke="#63b8ff" points="554.85,-131.37 544.28,-132.02 552.95,-138.1 554.85,-131.37"/>
</a>
</g>
</g>
<!-- Node6 -->
<g id="Node000006" class="node">
<title>Node6</title>
<g id="a_Node000006"><a xlink:href="../../d1/de3/classugrpc_1_1server_1_1middlewares_1_1deadline__propagation_1_1Component.html" target="_top" xlink:title="Component for gRPC server deadline propagation.">
<polygon fill="white" stroke="#666666" points="763.5,-137.5 614.5,-137.5 614.5,-96.5 763.5,-96.5 763.5,-137.5"/>
<text text-anchor="start" x="622.5" y="-125.5" font-family="Helvetica,sans-Serif" font-size="10.00">ugrpc::server::middlewares</text>
<text text-anchor="start" x="622.5" y="-114.5" font-family="Helvetica,sans-Serif" font-size="10.00">::deadline_propagation::</text>
<text text-anchor="middle" x="689" y="-103.5" font-family="Helvetica,sans-Serif" font-size="10.00">Component</text>
</a>
</g>
</g>
<!-- Node1&#45;&gt;Node6 -->
<g id="edge5_Node000001_Node000006" class="edge">
<title>Node1&#45;&gt;Node6</title>
<g id="a_edge5_Node000001_Node000006"><a xlink:title=" ">
<path fill="none" stroke="#63b8ff" d="M572.21,-117C586.15,-117 600.58,-117 614.32,-117"/>
<polygon fill="#63b8ff" stroke="#63b8ff" points="572.16,-113.5 562.16,-117 572.16,-120.5 572.16,-113.5"/>
</a>
</g>
</g>
<!-- Node7 -->
<g id="Node000007" class="node">
<title>Node7</title>
<g id="a_Node000007"><a xlink:href="../../d6/dee/classugrpc_1_1server_1_1middlewares_1_1headers__propagator_1_1Component.html" target="_top" xlink:title="Component for gRPC server headers_propagator.">
<polygon fill="white" stroke="#666666" points="780,-78 598,-78 598,-48 780,-48 780,-78"/>
<text text-anchor="start" x="606" y="-66" font-family="Helvetica,sans-Serif" font-size="10.00">ugrpc::server::middlewares</text>
<text text-anchor="middle" x="689" y="-55" font-family="Helvetica,sans-Serif" font-size="10.00">::headers_propagator::Component</text>
</a>
</g>
</g>
<!-- Node1&#45;&gt;Node7 -->
<g id="edge6_Node000001_Node000007" class="edge">
<title>Node1&#45;&gt;Node7</title>
<g id="a_edge6_Node000001_Node000007"><a xlink:title=" ">
<path fill="none" stroke="#63b8ff" d="M554.09,-99.21C568.5,-95.16 583.78,-90.9 598,-87 608.6,-84.09 619.93,-81.04 630.83,-78.12"/>
<polygon fill="#63b8ff" stroke="#63b8ff" points="552.95,-95.9 544.28,-101.98 554.85,-102.63 552.95,-95.9"/>
</a>
</g>
</g>
<!-- Node8 -->
<g id="Node000008" class="node">
<title>Node8</title>
<g id="a_Node000008"><a xlink:href="../../d8/db0/classugrpc_1_1server_1_1middlewares_1_1log_1_1Component.html" target="_top" xlink:title="Component for gRPC server logging.">
<polygon fill="white" stroke="#666666" points="763.5,-30 614.5,-30 614.5,0 763.5,0 763.5,-30"/>
<text text-anchor="start" x="622.5" y="-18" font-family="Helvetica,sans-Serif" font-size="10.00">ugrpc::server::middlewares</text>
<text text-anchor="middle" x="689" y="-7" font-family="Helvetica,sans-Serif" font-size="10.00">::log::Component</text>
</a>
</g>
</g>
<!-- Node1&#45;&gt;Node8 -->
<g id="edge7_Node000001_Node000008" class="edge">
<title>Node1&#45;&gt;Node8</title>
<g id="a_edge7_Node000001_Node000008"><a xlink:title=" ">
<path fill="none" stroke="#63b8ff" d="M515.54,-95.31C536.09,-77.81 567.16,-53.76 598,-39 605,-35.65 612.54,-32.71 620.17,-30.15"/>
<polygon fill="#63b8ff" stroke="#63b8ff" points="513.2,-92.7 507.94,-101.89 517.79,-97.99 513.2,-92.7"/>
</a>
</g>
</g>
<!-- Node2 -->
<g id="Node000002" class="node">
<title>Node2</title>
<g id="a_Node000002"><a xlink:href="../../d7/db4/classcomponents_1_1ComponentBase.html" target="_top" xlink:title="Base class for all application components, it depends on components::Logger and components::Tracer.">
<polygon fill="white" stroke="#666666" points="383,-126.5 220,-126.5 220,-107.5 383,-107.5 383,-126.5"/>
<text text-anchor="middle" x="301.5" y="-114.5" font-family="Helvetica,sans-Serif" font-size="10.00">components::ComponentBase</text>
</a>
</g>
</g>
<!-- Node2&#45;&gt;Node1 -->
<g id="edge1_Node000001_Node000002" class="edge">
<title>Node2&#45;&gt;Node1</title>
<g id="a_edge1_Node000001_Node000002"><a xlink:title=" ">
<path fill="none" stroke="#63b8ff" d="M393.22,-117C401.81,-117 410.44,-117 418.81,-117"/>
<polygon fill="#63b8ff" stroke="#63b8ff" points="393.16,-113.5 383.16,-117 393.16,-120.5 393.16,-113.5"/>
</a>
</g>
</g>
<!-- Node3 -->
<g id="Node000003" class="node">
<title>Node3</title>
<g id="a_Node000003"><a xlink:href="../../d2/d86/classcomponents_1_1RawComponentBase.html" target="_top" xlink:title="The base class for all components. Don&#39;t use it for application components, use ComponentBase instead...">
<polygon fill="white" stroke="#666666" points="184,-126.5 0,-126.5 0,-107.5 184,-107.5 184,-126.5"/>
<text text-anchor="middle" x="92" y="-114.5" font-family="Helvetica,sans-Serif" font-size="10.00">components::RawComponentBase</text>
</a>
</g>
</g>
<!-- Node3&#45;&gt;Node2 -->
<g id="edge2_Node000002_Node000003" class="edge">
<title>Node3&#45;&gt;Node2</title>
<g id="a_edge2_Node000002_Node000003"><a xlink:title=" ">
<path fill="none" stroke="#63b8ff" d="M194.16,-117C202.82,-117 211.51,-117 219.99,-117"/>
<polygon fill="#63b8ff" stroke="#63b8ff" points="194.01,-113.5 184.01,-117 194.01,-120.5 194.01,-113.5"/>
</a>
</g>
</g>
</g>
</svg>
