<?xml version="1.0" encoding="UTF-8" standalone="no"?>
<!DOCTYPE svg PUBLIC "-//W3C//DTD SVG 1.1//EN"
 "http://www.w3.org/Graphics/SVG/1.1/DTD/svg11.dtd">
<!-- Generated by graphviz version 2.43.0 (0)
 -->
<!-- Title: clients::http::TechnicalError Pages: 1 -->
<svg width="185pt" height="203pt"
 viewBox="0.00 0.00 185.00 203.00" xmlns="http://www.w3.org/2000/svg" xmlns:xlink="http://www.w3.org/1999/xlink">
<g id="graph0" class="graph" transform="scale(1 1) rotate(0) translate(4 199)">
<title>clients::http::TechnicalError</title>
<!-- Node1 -->
<g id="Node000001" class="node">
<title>Node1</title>
<g id="a_Node000001"><a xlink:title=" ">
<polygon fill="#999999" stroke="#666666" points="151,-30 26,-30 26,0 151,0 151,-30"/>
<text text-anchor="start" x="34" y="-18" font-family="Helvetica,sans-Serif" font-size="10.00">clients::http::Technical</text>
<text text-anchor="middle" x="88.5" y="-7" font-family="Helvetica,sans-Serif" font-size="10.00">Error</text>
</a>
</g>
</g>
<!-- Node2 -->
<g id="Node000002" class="node">
<title>Node2</title>
<g id="a_Node000002"><a xlink:href="../../d1/de2/classclients_1_1http_1_1BaseCodeException.html" target="_top" xlink:title="Exception with string and error_code.">
<polygon fill="white" stroke="#666666" points="177,-85 0,-85 0,-66 177,-66 177,-85"/>
<text text-anchor="middle" x="88.5" y="-73" font-family="Helvetica,sans-Serif" font-size="10.00">clients::http::BaseCodeException</text>
</a>
</g>
</g>
<!-- Node2&#45;&gt;Node1 -->
<g id="edge1_Node000001_Node000002" class="edge">
<title>Node2&#45;&gt;Node1</title>
<g id="a_edge1_Node000001_Node000002"><a xlink:title=" ">
<path fill="none" stroke="#63b8ff" d="M88.5,-55.65C88.5,-47.36 88.5,-37.78 88.5,-30.11"/>
<polygon fill="#63b8ff" stroke="#63b8ff" points="85,-55.87 88.5,-65.87 92,-55.87 85,-55.87"/>
</a>
</g>
</g>
<!-- Node3 -->
<g id="Node000003" class="node">
<title>Node3</title>
<g id="a_Node000003"><a xlink:href="../../da/d17/classclients_1_1http_1_1BaseException.html" target="_top" xlink:title="Exception with string.">
<polygon fill="white" stroke="#666666" points="164.5,-140 12.5,-140 12.5,-121 164.5,-121 164.5,-140"/>
<text text-anchor="middle" x="88.5" y="-128" font-family="Helvetica,sans-Serif" font-size="10.00">clients::http::BaseException</text>
</a>
</g>
</g>
<!-- Node3&#45;&gt;Node2 -->
<g id="edge2_Node000002_Node000003" class="edge">
<title>Node3&#45;&gt;Node2</title>
<g id="a_edge2_Node000002_Node000003"><a xlink:title=" ">
<path fill="none" stroke="#63b8ff" d="M88.5,-110.66C88.5,-101.93 88.5,-91.99 88.5,-85.09"/>
<polygon fill="#63b8ff" stroke="#63b8ff" points="85,-110.75 88.5,-120.75 92,-110.75 85,-110.75"/>
</a>
</g>
</g>
<!-- Node4 -->
<g id="Node000004" class="node">
<title>Node4</title>
<g id="a_Node000004"><a xlink:title=" ">
<polygon fill="white" stroke="#666666" points="131.5,-195 45.5,-195 45.5,-176 131.5,-176 131.5,-195"/>
<text text-anchor="middle" x="88.5" y="-183" font-family="Helvetica,sans-Serif" font-size="10.00">std::exception</text>
</a>
</g>
</g>
<!-- Node4&#45;&gt;Node3 -->
<g id="edge3_Node000003_Node000004" class="edge">
<title>Node4&#45;&gt;Node3</title>
<g id="a_edge3_Node000003_Node000004"><a xlink:title=" ">
<path fill="none" stroke="#63b8ff" d="M88.5,-165.66C88.5,-156.93 88.5,-146.99 88.5,-140.09"/>
<polygon fill="#63b8ff" stroke="#63b8ff" points="85,-165.75 88.5,-175.75 92,-165.75 85,-165.75"/>
</a>
</g>
</g>
</g>
</svg>
