<?xml version="1.0" encoding="UTF-8" standalone="no"?>
<!DOCTYPE svg PUBLIC "-//W3C//DTD SVG 1.1//EN"
 "http://www.w3.org/Graphics/SVG/1.1/DTD/svg11.dtd">
<!-- Generated by graphviz version 2.43.0 (0)
 -->
<!-- Title: congestion_control::Stats Pages: 1 -->
<svg width="334pt" height="181pt"
 viewBox="0.00 0.00 334.00 181.00" xmlns="http://www.w3.org/2000/svg" xmlns:xlink="http://www.w3.org/1999/xlink">
<g id="graph0" class="graph" transform="scale(1 1) rotate(0) translate(4 177)">
<title>congestion_control::Stats</title>
<!-- Node1 -->
<g id="Node000001" class="node">
<title>Node1</title>
<g id="a_Node000001"><a xlink:title=" ">
<polygon fill="#999999" stroke="#666666" points="189.5,-30 80.5,-30 80.5,0 189.5,0 189.5,-30"/>
<text text-anchor="start" x="88.5" y="-18" font-family="Helvetica,sans-Serif" font-size="10.00">congestion_control</text>
<text text-anchor="middle" x="135" y="-7" font-family="Helvetica,sans-Serif" font-size="10.00">::Stats</text>
</a>
</g>
</g>
<!-- Node2 -->
<g id="Node000002" class="node">
<title>Node2</title>
<g id="a_Node000002"><a xlink:title=" ">
<polygon fill="white" stroke="#666666" points="122,-167.5 0,-167.5 0,-148.5 122,-148.5 122,-167.5"/>
<text text-anchor="middle" x="61" y="-155.5" font-family="Helvetica,sans-Serif" font-size="10.00">std::atomic&lt; size_t &gt;</text>
</a>
</g>
</g>
<!-- Node2&#45;&gt;Node1 -->
<g id="edge1_Node000001_Node000002" class="edge">
<title>Node2&#45;&gt;Node1</title>
<g id="a_edge1_Node000001_Node000002"><a xlink:title=" ">
<path fill="none" stroke="#9a32cd" stroke-dasharray="5,2" d="M58.51,-138.2C56.44,-114.9 56.36,-75 75,-48 80.16,-40.52 87.65,-34.64 95.59,-30.08"/>
<polygon fill="#9a32cd" stroke="#9a32cd" points="55.06,-138.88 59.64,-148.44 62.02,-138.11 55.06,-138.88"/>
</a>
</g>
<text text-anchor="middle" x="131" y="-117" font-family="Helvetica,sans-Serif" font-size="10.00" fill="grey"> current_state</text>
<text text-anchor="middle" x="131" y="-106" font-family="Helvetica,sans-Serif" font-size="10.00" fill="grey">no_limit</text>
<text text-anchor="start" x="75" y="-95" font-family="Helvetica,sans-Serif" font-size="10.00" fill="grey">not_overload_no</text>
<text text-anchor="middle" x="131" y="-84" font-family="Helvetica,sans-Serif" font-size="10.00" fill="grey">_pressure</text>
<text text-anchor="middle" x="131" y="-73" font-family="Helvetica,sans-Serif" font-size="10.00" fill="grey">not_overload_pressure</text>
<text text-anchor="middle" x="131" y="-62" font-family="Helvetica,sans-Serif" font-size="10.00" fill="grey">overload_no_pressure</text>
<text text-anchor="middle" x="131" y="-51" font-family="Helvetica,sans-Serif" font-size="10.00" fill="grey">overload_pressure</text>
</g>
<!-- Node3 -->
<g id="Node000003" class="node">
<title>Node3</title>
<g id="a_Node000003"><a xlink:title=" ">
<polygon fill="white" stroke="#666666" points="277.5,-173 140.5,-173 140.5,-143 277.5,-143 277.5,-173"/>
<text text-anchor="start" x="148.5" y="-161" font-family="Helvetica,sans-Serif" font-size="10.00">std::atomic&lt; std::chrono</text>
<text text-anchor="middle" x="209" y="-150" font-family="Helvetica,sans-Serif" font-size="10.00">::seconds &gt;</text>
</a>
</g>
</g>
<!-- Node3&#45;&gt;Node1 -->
<g id="edge2_Node000001_Node000003" class="edge">
<title>Node3&#45;&gt;Node1</title>
<g id="a_edge2_Node000001_Node000003"><a xlink:title=" ">
<path fill="none" stroke="#9a32cd" stroke-dasharray="5,2" d="M209.48,-132.68C208.79,-109.05 204.55,-73.15 187,-48 181.91,-40.7 174.56,-34.74 166.98,-30.04"/>
<polygon fill="#9a32cd" stroke="#9a32cd" points="205.98,-132.93 209.58,-142.9 212.98,-132.86 205.98,-132.93"/>
</a>
</g>
<text text-anchor="middle" x="267.5" y="-84" font-family="Helvetica,sans-Serif" font-size="10.00" fill="grey"> last_overload_pressure</text>
</g>
</g>
</svg>
