<?xml version="1.0" encoding="UTF-8" standalone="no"?>
<!DOCTYPE svg PUBLIC "-//W3C//DTD SVG 1.1//EN"
 "http://www.w3.org/Graphics/SVG/1.1/DTD/svg11.dtd">
<!-- Generated by graphviz version 2.43.0 (0)
 -->
<!-- Title: server::request::TaskInheritedData Pages: 1 -->
<svg width="394pt" height="182pt"
 viewBox="0.00 0.00 393.50 182.00" xmlns="http://www.w3.org/2000/svg" xmlns:xlink="http://www.w3.org/1999/xlink">
<g id="graph0" class="graph" transform="scale(1 1) rotate(0) translate(4 178)">
<title>server::request::TaskInheritedData</title>
<!-- Node1 -->
<g id="Node000001" class="node">
<title>Node1</title>
<g id="a_Node000001"><a xlink:title="Per&#45;request data that should be available inside handlers.">
<polygon fill="#999999" stroke="#666666" points="270,-19 85,-19 85,0 270,0 270,-19"/>
<text text-anchor="middle" x="177.5" y="-7" font-family="Helvetica,sans-Serif" font-size="10.00">server::request::TaskInheritedData</text>
</a>
</g>
</g>
<!-- Node2 -->
<g id="Node000002" class="node">
<title>Node2</title>
<g id="a_Node000002"><a xlink:title=" ">
<polygon fill="white" stroke="#666666" points="109.5,-101.5 15.5,-101.5 15.5,-82.5 109.5,-82.5 109.5,-101.5"/>
<text text-anchor="middle" x="62.5" y="-89.5" font-family="Helvetica,sans-Serif" font-size="10.00">std::string_view</text>
</a>
</g>
</g>
<!-- Node2&#45;&gt;Node1 -->
<g id="edge1_Node000001_Node000002" class="edge">
<title>Node2&#45;&gt;Node1</title>
<g id="a_edge1_Node000001_Node000002"><a xlink:title=" ">
<path fill="none" stroke="#9a32cd" stroke-dasharray="5,2" d="M80.91,-75.78C94.76,-64.58 114.39,-49.25 132.5,-37 141.96,-30.6 153.01,-24.08 161.79,-19.11"/>
<polygon fill="#9a32cd" stroke="#9a32cd" points="78.64,-73.12 73.1,-82.15 83.06,-78.54 78.64,-73.12"/>
</a>
</g>
<text text-anchor="middle" x="153" y="-51" font-family="Helvetica,sans-Serif" font-size="10.00" fill="grey"> method</text>
<text text-anchor="middle" x="153" y="-40" font-family="Helvetica,sans-Serif" font-size="10.00" fill="grey">path</text>
</g>
<!-- Node3 -->
<g id="Node000003" class="node">
<title>Node3</title>
<g id="a_Node000003"><a xlink:title=" ">
<polygon fill="white" stroke="#666666" points="125,-174 0,-174 0,-144 125,-144 125,-174"/>
<text text-anchor="start" x="8" y="-162" font-family="Helvetica,sans-Serif" font-size="10.00">std::basic_string_view</text>
<text text-anchor="middle" x="62.5" y="-151" font-family="Helvetica,sans-Serif" font-size="10.00">&lt; Char &gt;</text>
</a>
</g>
</g>
<!-- Node3&#45;&gt;Node2 -->
<g id="edge2_Node000002_Node000003" class="edge">
<title>Node3&#45;&gt;Node2</title>
<g id="a_edge2_Node000002_Node000003"><a xlink:title=" ">
<path fill="none" stroke="#63b8ff" d="M62.5,-133.75C62.5,-122.52 62.5,-109.88 62.5,-101.69"/>
<polygon fill="#63b8ff" stroke="#63b8ff" points="59,-133.9 62.5,-143.9 66,-133.9 59,-133.9"/>
</a>
</g>
</g>
<!-- Node4 -->
<g id="Node000004" class="node">
<title>Node4</title>
<g id="a_Node000004"><a xlink:href="../../de/d6a/classengine_1_1Deadline.html" target="_top" xlink:title="Internal representation of a deadline time point.">
<polygon fill="white" stroke="#666666" points="227,-101.5 128,-101.5 128,-82.5 227,-82.5 227,-101.5"/>
<text text-anchor="middle" x="177.5" y="-89.5" font-family="Helvetica,sans-Serif" font-size="10.00">engine::Deadline</text>
</a>
</g>
</g>
<!-- Node4&#45;&gt;Node1 -->
<g id="edge3_Node000001_Node000004" class="edge">
<title>Node4&#45;&gt;Node1</title>
<g id="a_edge3_Node000001_Node000004"><a xlink:title=" ">
<path fill="none" stroke="#9a32cd" stroke-dasharray="5,2" d="M177.5,-72.17C177.5,-55.51 177.5,-31.93 177.5,-19.3"/>
<polygon fill="#9a32cd" stroke="#9a32cd" points="174,-72.39 177.5,-82.39 181,-72.39 174,-72.39"/>
</a>
</g>
<text text-anchor="middle" x="200.5" y="-45.5" font-family="Helvetica,sans-Serif" font-size="10.00" fill="grey"> deadline</text>
</g>
<!-- Node5 -->
<g id="Node000005" class="node">
<title>Node5</title>
<g id="a_Node000005"><a xlink:href="../../da/d84/classserver_1_1request_1_1DeadlineSignal.html" target="_top" xlink:title="Signals when an operation has detected deadline expiration.">
<polygon fill="white" stroke="#666666" points="385.5,-107 245.5,-107 245.5,-77 385.5,-77 385.5,-107"/>
<text text-anchor="start" x="253.5" y="-95" font-family="Helvetica,sans-Serif" font-size="10.00">server::request::Deadline</text>
<text text-anchor="middle" x="315.5" y="-84" font-family="Helvetica,sans-Serif" font-size="10.00">Signal</text>
</a>
</g>
</g>
<!-- Node5&#45;&gt;Node1 -->
<g id="edge4_Node000001_Node000005" class="edge">
<title>Node5&#45;&gt;Node1</title>
<g id="a_edge4_Node000001_Node000005"><a xlink:title=" ">
<path fill="none" stroke="#9a32cd" stroke-dasharray="5,2" d="M284.5,-71.32C267.77,-60.87 246.67,-47.95 227.5,-37 216.58,-30.76 204.08,-24.14 194.31,-19.07"/>
<polygon fill="#9a32cd" stroke="#9a32cd" points="282.98,-74.49 293.31,-76.85 286.7,-68.57 282.98,-74.49"/>
</a>
</g>
<text text-anchor="middle" x="303.5" y="-45.5" font-family="Helvetica,sans-Serif" font-size="10.00" fill="grey"> deadline_signal</text>
</g>
</g>
</svg>
