<?xml version="1.0" encoding="UTF-8" standalone="no"?>
<!DOCTYPE svg PUBLIC "-//W3C//DTD SVG 1.1//EN"
 "http://www.w3.org/Graphics/SVG/1.1/DTD/svg11.dtd">
<!-- Generated by graphviz version 2.43.0 (0)
 -->
<!-- Title: components::DynamicConfig Pages: 1 -->
<svg width="192pt" height="203pt"
 viewBox="0.00 0.00 192.00 203.00" xmlns="http://www.w3.org/2000/svg" xmlns:xlink="http://www.w3.org/1999/xlink">
<g id="graph0" class="graph" transform="scale(1 1) rotate(0) translate(4 199)">
<title>components::DynamicConfig</title>
<!-- Node1 -->
<g id="Node000001" class="node">
<title>Node1</title>
<g id="a_Node000001"><a xlink:title="Component that stores the dynamic config.">
<polygon fill="#999999" stroke="#666666" points="170.5,-19 13.5,-19 13.5,0 170.5,0 170.5,-19"/>
<text text-anchor="middle" x="92" y="-7" font-family="Helvetica,sans-Serif" font-size="10.00">components::DynamicConfig</text>
</a>
</g>
</g>
<!-- Node2 -->
<g id="Node000002" class="node">
<title>Node2</title>
<g id="a_Node000002"><a xlink:href="../../d9/d43/classcomponents_1_1DynamicConfigUpdatesSinkBase.html" target="_top" xlink:title="Base class for components acting as dynamic config updates sinks.">
<polygon fill="white" stroke="#666666" points="170.5,-85 13.5,-85 13.5,-55 170.5,-55 170.5,-85"/>
<text text-anchor="start" x="21.5" y="-73" font-family="Helvetica,sans-Serif" font-size="10.00">components::DynamicConfig</text>
<text text-anchor="middle" x="92" y="-62" font-family="Helvetica,sans-Serif" font-size="10.00">UpdatesSinkBase</text>
</a>
</g>
</g>
<!-- Node2&#45;&gt;Node1 -->
<g id="edge1_Node000001_Node000002" class="edge">
<title>Node2&#45;&gt;Node1</title>
<g id="a_edge1_Node000001_Node000002"><a xlink:title=" ">
<path fill="none" stroke="#63b8ff" d="M92,-44.75C92,-35.72 92,-26.03 92,-19.27"/>
<polygon fill="#63b8ff" stroke="#63b8ff" points="88.5,-44.84 92,-54.84 95.5,-44.84 88.5,-44.84"/>
</a>
</g>
</g>
<!-- Node3 -->
<g id="Node000003" class="node">
<title>Node3</title>
<g id="a_Node000003"><a xlink:href="../../d7/db4/classcomponents_1_1ComponentBase.html" target="_top" xlink:title="Base class for all application components, it depends on components::Logger and components::Tracer.">
<polygon fill="white" stroke="#666666" points="173.5,-140 10.5,-140 10.5,-121 173.5,-121 173.5,-140"/>
<text text-anchor="middle" x="92" y="-128" font-family="Helvetica,sans-Serif" font-size="10.00">components::ComponentBase</text>
</a>
</g>
</g>
<!-- Node3&#45;&gt;Node2 -->
<g id="edge2_Node000002_Node000003" class="edge">
<title>Node3&#45;&gt;Node2</title>
<g id="a_edge2_Node000002_Node000003"><a xlink:title=" ">
<path fill="none" stroke="#63b8ff" d="M92,-110.65C92,-102.36 92,-92.78 92,-85.11"/>
<polygon fill="#63b8ff" stroke="#63b8ff" points="88.5,-110.87 92,-120.87 95.5,-110.87 88.5,-110.87"/>
</a>
</g>
</g>
<!-- Node4 -->
<g id="Node000004" class="node">
<title>Node4</title>
<g id="a_Node000004"><a xlink:href="../../d2/d86/classcomponents_1_1RawComponentBase.html" target="_top" xlink:title="The base class for all components. Don&#39;t use it for application components, use ComponentBase instead...">
<polygon fill="white" stroke="#666666" points="184,-195 0,-195 0,-176 184,-176 184,-195"/>
<text text-anchor="middle" x="92" y="-183" font-family="Helvetica,sans-Serif" font-size="10.00">components::RawComponentBase</text>
</a>
</g>
</g>
<!-- Node4&#45;&gt;Node3 -->
<g id="edge3_Node000003_Node000004" class="edge">
<title>Node4&#45;&gt;Node3</title>
<g id="a_edge3_Node000003_Node000004"><a xlink:title=" ">
<path fill="none" stroke="#63b8ff" d="M92,-165.66C92,-156.93 92,-146.99 92,-140.09"/>
<polygon fill="#63b8ff" stroke="#63b8ff" points="88.5,-165.75 92,-175.75 95.5,-165.75 88.5,-165.75"/>
</a>
</g>
</g>
</g>
</svg>
