<?xml version="1.0" encoding="UTF-8" standalone="no"?>
<!DOCTYPE svg PUBLIC "-//W3C//DTD SVG 1.1//EN"
 "http://www.w3.org/Graphics/SVG/1.1/DTD/svg11.dtd">
<!-- Generated by graphviz version 2.43.0 (0)
 -->
<!-- Title: userver/dump/fwd.hpp Pages: 1 -->
<svg width="2066pt" height="500pt"
 viewBox="0.00 0.00 2065.91 500.00" xmlns="http://www.w3.org/2000/svg" xmlns:xlink="http://www.w3.org/1999/xlink">
<g id="graph0" class="graph" transform="scale(1 1) rotate(0) translate(4 496)">
<title>userver/dump/fwd.hpp</title>
<!-- Node1 -->
<g id="Node000001" class="node">
<title>Node1</title>
<g id="a_Node000001"><a xlink:title="Forward declarations of dump::Reader, dump::Writer and dump::To.">
<polygon fill="#999999" stroke="#666666" points="1065.51,-492 940.51,-492 940.51,-473 1065.51,-473 1065.51,-492"/>
<text text-anchor="middle" x="1003.01" y="-480" font-family="Helvetica,sans-Serif" font-size="10.00">userver/dump/fwd.hpp</text>
</a>
</g>
</g>
<!-- Node2 -->
<g id="Node000002" class="node">
<title>Node2</title>
<g id="a_Node000002"><a xlink:href="../../d1/d20/cache__update__trait_8hpp.html" target="_top" xlink:title="Base class for periodically updated caches.">
<polygon fill="white" stroke="#666666" points="869.01,-437 753.01,-437 753.01,-407 869.01,-407 869.01,-437"/>
<text text-anchor="start" x="761.01" y="-425" font-family="Helvetica,sans-Serif" font-size="10.00">userver/cache/cache</text>
<text text-anchor="middle" x="811.01" y="-414" font-family="Helvetica,sans-Serif" font-size="10.00">_update_trait.hpp</text>
</a>
</g>
</g>
<!-- Node1&#45;&gt;Node2 -->
<g id="edge1_Node000001_Node000002" class="edge">
<title>Node1&#45;&gt;Node2</title>
<g id="a_edge1_Node000001_Node000002"><a xlink:title=" ">
<path fill="none" stroke="#63b8ff" d="M965.52,-470.08C934.52,-460.63 890.35,-447.17 857.17,-437.06"/>
<polygon fill="#63b8ff" stroke="#63b8ff" points="964.51,-473.43 975.1,-472.99 966.55,-466.73 964.51,-473.43"/>
</a>
</g>
</g>
<!-- Node7 -->
<g id="Node000007" class="node">
<title>Node7</title>
<g id="a_Node000007"><a xlink:href="../../d9/d0d/core_2include_2userver_2dump_2meta_8hpp.html" target="_top" xlink:title="Provides dump::kIsDumpable and includes userver/dump/fwd.hpp.">
<polygon fill="white" stroke="#666666" points="1331.01,-431.5 1197.01,-431.5 1197.01,-412.5 1331.01,-412.5 1331.01,-431.5"/>
<text text-anchor="middle" x="1264.01" y="-419.5" font-family="Helvetica,sans-Serif" font-size="10.00">userver/dump/meta.hpp</text>
</a>
</g>
</g>
<!-- Node1&#45;&gt;Node7 -->
<g id="edge6_Node000001_Node000007" class="edge">
<title>Node1&#45;&gt;Node7</title>
<g id="a_edge6_Node000001_Node000007"><a xlink:title=" ">
<path fill="none" stroke="#63b8ff" d="M1050.97,-470.75C1101.39,-459.45 1179.7,-441.9 1226.02,-431.52"/>
<polygon fill="#63b8ff" stroke="#63b8ff" points="1049.96,-467.39 1040.97,-472.99 1051.49,-474.22 1049.96,-467.39"/>
</a>
</g>
</g>
<!-- Node11 -->
<g id="Node000011" class="node">
<title>Node11</title>
<g id="a_Node000011"><a xlink:href="../../d3/d3c/core_2include_2userver_2dump_2operations_8hpp_source.html" target="_top" xlink:title=" ">
<polygon fill="white" stroke="#666666" points="1249.01,-365.5 1089.01,-365.5 1089.01,-346.5 1249.01,-346.5 1249.01,-365.5"/>
<text text-anchor="middle" x="1169.01" y="-353.5" font-family="Helvetica,sans-Serif" font-size="10.00">userver/dump/operations.hpp</text>
</a>
</g>
</g>
<!-- Node1&#45;&gt;Node11 -->
<g id="edge42_Node000001_Node000011" class="edge">
<title>Node1&#45;&gt;Node11</title>
<g id="a_edge42_Node000001_Node000011"><a xlink:title=" ">
<path fill="none" stroke="#63b8ff" d="M1022.43,-466.93C1057.3,-440.78 1129.48,-386.65 1157.52,-365.62"/>
<polygon fill="#63b8ff" stroke="#63b8ff" points="1020.32,-464.14 1014.42,-472.94 1024.52,-469.74 1020.32,-464.14"/>
</a>
</g>
</g>
<!-- Node27 -->
<g id="Node000027" class="node">
<title>Node27</title>
<g id="a_Node000027"><a xlink:href="../../d6/db8/chrono_8hpp.html" target="_top" xlink:title="Timestamp (std::chrono::*) I/O support.">
<polygon fill="white" stroke="#666666" points="496.51,-437 353.51,-437 353.51,-407 496.51,-407 496.51,-437"/>
<text text-anchor="start" x="361.51" y="-425" font-family="Helvetica,sans-Serif" font-size="10.00">userver/storages/postgres</text>
<text text-anchor="middle" x="425.01" y="-414" font-family="Helvetica,sans-Serif" font-size="10.00">/io/chrono.hpp</text>
</a>
</g>
</g>
<!-- Node1&#45;&gt;Node27 -->
<g id="edge43_Node000001_Node000027" class="edge">
<title>Node1&#45;&gt;Node27</title>
<g id="a_edge43_Node000001_Node000027"><a xlink:title=" ">
<path fill="none" stroke="#63b8ff" d="M930.19,-474.13C818.75,-462.85 607.19,-441.44 496.53,-430.24"/>
<polygon fill="#63b8ff" stroke="#63b8ff" points="930.03,-477.63 940.33,-475.16 930.74,-470.67 930.03,-477.63"/>
</a>
</g>
</g>
<!-- Node3 -->
<g id="Node000003" class="node">
<title>Node3</title>
<g id="a_Node000003"><a xlink:href="../../df/d56/caching__component__base_8hpp.html" target="_top" xlink:title="Base class for caching components.">
<polygon fill="white" stroke="#666666" points="754.01,-305 628.01,-305 628.01,-275 754.01,-275 754.01,-305"/>
<text text-anchor="start" x="636.01" y="-293" font-family="Helvetica,sans-Serif" font-size="10.00">userver/cache/caching</text>
<text text-anchor="middle" x="691.01" y="-282" font-family="Helvetica,sans-Serif" font-size="10.00">_component_base.hpp</text>
</a>
</g>
</g>
<!-- Node2&#45;&gt;Node3 -->
<g id="edge2_Node000002_Node000003" class="edge">
<title>Node2&#45;&gt;Node3</title>
<g id="a_edge2_Node000002_Node000003"><a xlink:title=" ">
<path fill="none" stroke="#63b8ff" d="M790.84,-399.15C766.13,-372.38 724.98,-327.79 704.07,-305.14"/>
<polygon fill="#63b8ff" stroke="#63b8ff" points="788.59,-401.87 797.94,-406.84 793.73,-397.12 788.59,-401.87"/>
</a>
</g>
</g>
<!-- Node4 -->
<g id="Node000004" class="node">
<title>Node4</title>
<g id="a_Node000004"><a xlink:href="../../dd/d6c/base__mongo__cache_8hpp.html" target="_top" xlink:title="Base class for all caches polling mongo collection">
<polygon fill="white" stroke="#666666" points="602.51,-239 491.51,-239 491.51,-209 602.51,-209 602.51,-239"/>
<text text-anchor="start" x="499.51" y="-227" font-family="Helvetica,sans-Serif" font-size="10.00">userver/cache/base</text>
<text text-anchor="middle" x="547.01" y="-216" font-family="Helvetica,sans-Serif" font-size="10.00">_mongo_cache.hpp</text>
</a>
</g>
</g>
<!-- Node3&#45;&gt;Node4 -->
<g id="edge3_Node000003_Node000004" class="edge">
<title>Node3&#45;&gt;Node4</title>
<g id="a_edge3_Node000003_Node000004"><a xlink:title=" ">
<path fill="none" stroke="#63b8ff" d="M650.03,-270.78C627.32,-260.69 599.53,-248.34 578.54,-239.01"/>
<polygon fill="#63b8ff" stroke="#63b8ff" points="648.85,-274.09 659.41,-274.95 651.7,-267.7 648.85,-274.09"/>
</a>
</g>
</g>
<!-- Node5 -->
<g id="Node000005" class="node">
<title>Node5</title>
<g id="a_Node000005"><a xlink:href="../../dc/df7/base__postgres__cache_8hpp.html" target="_top" xlink:title="Caching component for PostgreSQL. See Caching Component for PostgreSQL.">
<polygon fill="white" stroke="#666666" points="484.51,-30 365.51,-30 365.51,0 484.51,0 484.51,-30"/>
<text text-anchor="start" x="373.51" y="-18" font-family="Helvetica,sans-Serif" font-size="10.00">userver/cache/base</text>
<text text-anchor="middle" x="425.01" y="-7" font-family="Helvetica,sans-Serif" font-size="10.00">_postgres_cache.hpp</text>
</a>
</g>
</g>
<!-- Node3&#45;&gt;Node5 -->
<g id="edge4_Node000003_Node000005" class="edge">
<title>Node3&#45;&gt;Node5</title>
<g id="a_edge4_Node000003_Node000005"><a xlink:title=" ">
<path fill="none" stroke="#63b8ff" d="M617.95,-279.68C565.64,-271.54 501.21,-258.03 482.01,-239 425.75,-183.22 459.25,-142.6 439.01,-66 435.84,-53.97 432.02,-40.38 429.17,-30.41"/>
<polygon fill="#63b8ff" stroke="#63b8ff" points="617.48,-283.15 627.89,-281.18 618.53,-276.22 617.48,-283.15"/>
</a>
</g>
</g>
<!-- Node6 -->
<g id="Node000006" class="node">
<title>Node6</title>
<g id="a_Node000006"><a xlink:href="../../db/df3/core_2include_2userver_2dynamic__config_2updater_2component_8hpp.html" target="_top" xlink:title="Component that does a periodic update of runtime configs.">
<polygon fill="white" stroke="#666666" points="757.01,-239 621.01,-239 621.01,-209 757.01,-209 757.01,-239"/>
<text text-anchor="start" x="629.01" y="-227" font-family="Helvetica,sans-Serif" font-size="10.00">userver/dynamic_config</text>
<text text-anchor="middle" x="689.01" y="-216" font-family="Helvetica,sans-Serif" font-size="10.00">/updater/component.hpp</text>
</a>
</g>
</g>
<!-- Node3&#45;&gt;Node6 -->
<g id="edge5_Node000003_Node000006" class="edge">
<title>Node3&#45;&gt;Node6</title>
<g id="a_edge5_Node000003_Node000006"><a xlink:title=" ">
<path fill="none" stroke="#63b8ff" d="M690.25,-264.54C689.98,-255.96 689.69,-246.61 689.46,-239.16"/>
<polygon fill="#63b8ff" stroke="#63b8ff" points="686.76,-264.91 690.57,-274.8 693.76,-264.69 686.76,-264.91"/>
</a>
</g>
</g>
<!-- Node7&#45;&gt;Node3 -->
<g id="edge7_Node000007_Node000003" class="edge">
<title>Node7&#45;&gt;Node3</title>
<g id="a_edge7_Node000007_Node000003"><a xlink:title=" ">
<path fill="none" stroke="#63b8ff" d="M1216.59,-410.24C1113.35,-386.82 868.31,-331.23 753.02,-305.07"/>
<polygon fill="#63b8ff" stroke="#63b8ff" points="1215.89,-413.67 1226.42,-412.47 1217.44,-406.84 1215.89,-413.67"/>
</a>
</g>
</g>
<!-- Node8 -->
<g id="Node000008" class="node">
<title>Node8</title>
<g id="a_Node000008"><a xlink:href="../../d9/daf/lru__cache__component__base_8hpp.html" target="_top" xlink:title="Base class for LRU&#45;cache components.">
<polygon fill="white" stroke="#666666" points="1787.01,-101.5 1653.01,-101.5 1653.01,-71.5 1787.01,-71.5 1787.01,-101.5"/>
<text text-anchor="start" x="1661.01" y="-89.5" font-family="Helvetica,sans-Serif" font-size="10.00">userver/cache/lru_cache</text>
<text text-anchor="middle" x="1720.01" y="-78.5" font-family="Helvetica,sans-Serif" font-size="10.00">_component_base.hpp</text>
</a>
</g>
</g>
<!-- Node7&#45;&gt;Node8 -->
<g id="edge8_Node000007_Node000008" class="edge">
<title>Node7&#45;&gt;Node8</title>
<g id="a_edge8_Node000007_Node000008"><a xlink:title=" ">
<path fill="none" stroke="#63b8ff" d="M1341.32,-417.64C1480.87,-411.08 1769.44,-395.04 1867.01,-371 1955.58,-349.18 2056.01,-382.22 2056.01,-291 2056.01,-291 2056.01,-291 2056.01,-223 2056.01,-186.46 2063.62,-168.06 2037.01,-143 2001.83,-109.86 1869.43,-96.17 1787.28,-90.77"/>
<polygon fill="#63b8ff" stroke="#63b8ff" points="1340.95,-414.16 1331.13,-418.12 1341.28,-421.15 1340.95,-414.16"/>
</a>
</g>
</g>
<!-- Node9 -->
<g id="Node000009" class="node">
<title>Node9</title>
<g id="a_Node000009"><a xlink:href="../../df/d8a/core_2include_2userver_2dump_2common__containers_8hpp.html" target="_top" xlink:title="Dump support for C++ Standard Library and Boost containers, std::optional, utils::StrongTypedef,...">
<polygon fill="white" stroke="#666666" points="2028.01,-173 1898.01,-173 1898.01,-143 2028.01,-143 2028.01,-173"/>
<text text-anchor="start" x="1906.01" y="-161" font-family="Helvetica,sans-Serif" font-size="10.00">userver/dump/common</text>
<text text-anchor="middle" x="1963.01" y="-150" font-family="Helvetica,sans-Serif" font-size="10.00">_containers.hpp</text>
</a>
</g>
</g>
<!-- Node7&#45;&gt;Node9 -->
<g id="edge9_Node000007_Node000009" class="edge">
<title>Node7&#45;&gt;Node9</title>
<g id="a_edge9_Node000007_Node000009"><a xlink:title=" ">
<path fill="none" stroke="#63b8ff" d="M1341.69,-419.04C1505.08,-413.23 1876.37,-390.71 1963.01,-305 1993.94,-274.41 1989.87,-251.78 1982.01,-209 1979.7,-196.4 1974.36,-182.85 1969.93,-173.04"/>
<polygon fill="#63b8ff" stroke="#63b8ff" points="1341.11,-415.55 1331.24,-419.4 1341.35,-422.55 1341.11,-415.55"/>
</a>
</g>
</g>
<!-- Node10 -->
<g id="Node000010" class="node">
<title>Node10</title>
<g id="a_Node000010"><a xlink:href="../../d4/d5a/meta__containers_8hpp_source.html" target="_top" xlink:title=" ">
<polygon fill="white" stroke="#666666" points="1715.01,-365.5 1525.01,-365.5 1525.01,-346.5 1715.01,-346.5 1715.01,-365.5"/>
<text text-anchor="middle" x="1620.01" y="-353.5" font-family="Helvetica,sans-Serif" font-size="10.00">userver/dump/meta_containers.hpp</text>
</a>
</g>
</g>
<!-- Node7&#45;&gt;Node10 -->
<g id="edge10_Node000007_Node000010" class="edge">
<title>Node7&#45;&gt;Node10</title>
<g id="a_edge10_Node000007_Node000010"><a xlink:title=" ">
<path fill="none" stroke="#63b8ff" d="M1321.61,-410.65C1391.43,-398.09 1507.79,-377.17 1572.65,-365.51"/>
<polygon fill="#63b8ff" stroke="#63b8ff" points="1320.88,-407.22 1311.66,-412.44 1322.12,-414.11 1320.88,-407.22"/>
</a>
</g>
</g>
<!-- Node7&#45;&gt;Node11 -->
<g id="edge12_Node000007_Node000011" class="edge">
<title>Node7&#45;&gt;Node11</title>
<g id="a_edge12_Node000007_Node000011"><a xlink:title=" ">
<path fill="none" stroke="#63b8ff" d="M1242.76,-406.68C1224.09,-394.11 1197.56,-376.23 1181.93,-365.7"/>
<polygon fill="#63b8ff" stroke="#63b8ff" points="1240.95,-409.68 1251.2,-412.37 1244.86,-403.88 1240.95,-409.68"/>
</a>
</g>
</g>
<!-- Node10&#45;&gt;Node9 -->
<g id="edge11_Node000010_Node000009" class="edge">
<title>Node10&#45;&gt;Node9</title>
<g id="a_edge11_Node000010_Node000009"><a xlink:title=" ">
<path fill="none" stroke="#63b8ff" d="M1725.66,-351.48C1806.67,-346.47 1909.44,-334.35 1939.01,-305 1974.93,-269.35 1969.78,-202.11 1965.5,-173.01"/>
<polygon fill="#63b8ff" stroke="#63b8ff" points="1725.17,-348 1715.4,-352.08 1725.59,-354.99 1725.17,-348"/>
</a>
</g>
</g>
<!-- Node11&#45;&gt;Node3 -->
<g id="edge13_Node000011_Node000003" class="edge">
<title>Node11&#45;&gt;Node3</title>
<g id="a_edge13_Node000011_Node000003"><a xlink:title=" ">
<path fill="none" stroke="#63b8ff" d="M1082.07,-345.3C1001.33,-336.01 877.84,-321.05 771.01,-305 765.58,-304.18 759.94,-303.29 754.29,-302.36"/>
<polygon fill="#63b8ff" stroke="#63b8ff" points="1081.86,-348.8 1092.19,-346.46 1082.66,-341.85 1081.86,-348.8"/>
</a>
</g>
</g>
<!-- Node11&#45;&gt;Node8 -->
<g id="edge14_Node000011_Node000008" class="edge">
<title>Node11&#45;&gt;Node8</title>
<g id="a_edge14_Node000011_Node000008"><a xlink:title=" ">
<path fill="none" stroke="#63b8ff" d="M1259.46,-351.97C1425.67,-345.82 1767.12,-330.29 1815.01,-305 1858.11,-282.25 1888.85,-253.06 1868.01,-209 1843.64,-157.46 1785.5,-120.45 1749.78,-101.63"/>
<polygon fill="#63b8ff" stroke="#63b8ff" points="1259.12,-348.48 1249.25,-352.34 1259.38,-355.48 1259.12,-348.48"/>
</a>
</g>
</g>
<!-- Node11&#45;&gt;Node9 -->
<g id="edge24_Node000011_Node000009" class="edge">
<title>Node11&#45;&gt;Node9</title>
<g id="a_edge24_Node000011_Node000009"><a xlink:title=" ">
<path fill="none" stroke="#63b8ff" d="M1259.39,-351.34C1449.46,-343.29 1875.27,-323.33 1901.01,-305 1945.43,-273.38 1958.23,-203.33 1961.75,-173.22"/>
<polygon fill="#63b8ff" stroke="#63b8ff" points="1258.99,-347.85 1249.14,-351.77 1259.28,-354.84 1258.99,-347.85"/>
</a>
</g>
</g>
<!-- Node12 -->
<g id="Node000012" class="node">
<title>Node12</title>
<g id="a_Node000012"><a xlink:href="../../db/d6e/nway__lru__cache_8hpp_source.html" target="_top" xlink:title=" ">
<polygon fill="white" stroke="#666666" points="1449.01,-239 1335.01,-239 1335.01,-209 1449.01,-209 1449.01,-239"/>
<text text-anchor="start" x="1343.01" y="-227" font-family="Helvetica,sans-Serif" font-size="10.00">userver/cache/nway</text>
<text text-anchor="middle" x="1392.01" y="-216" font-family="Helvetica,sans-Serif" font-size="10.00">_lru_cache.hpp</text>
</a>
</g>
</g>
<!-- Node11&#45;&gt;Node12 -->
<g id="edge15_Node000011_Node000012" class="edge">
<title>Node11&#45;&gt;Node12</title>
<g id="a_edge15_Node000011_Node000012"><a xlink:title=" ">
<path fill="none" stroke="#63b8ff" d="M1135.79,-342.54C1101.16,-327.75 1054.93,-301.69 1078.01,-275 1114.3,-233.04 1270.4,-248.68 1325.01,-239 1328.17,-238.44 1331.41,-237.84 1334.68,-237.22"/>
<polygon fill="#63b8ff" stroke="#63b8ff" points="1134.6,-345.84 1145.18,-346.41 1137.26,-339.37 1134.6,-345.84"/>
</a>
</g>
</g>
<!-- Node15 -->
<g id="Node000015" class="node">
<title>Node15</title>
<g id="a_Node000015"><a xlink:href="../../d8/deb/aggregates_8hpp.html" target="_top" xlink:title="Dumping support for aggregates.">
<polygon fill="white" stroke="#666666" points="1250.51,-299.5 1087.51,-299.5 1087.51,-280.5 1250.51,-280.5 1250.51,-299.5"/>
<text text-anchor="middle" x="1169.01" y="-287.5" font-family="Helvetica,sans-Serif" font-size="10.00">userver/dump/aggregates.hpp</text>
</a>
</g>
</g>
<!-- Node11&#45;&gt;Node15 -->
<g id="edge19_Node000011_Node000015" class="edge">
<title>Node11&#45;&gt;Node15</title>
<g id="a_edge19_Node000011_Node000015"><a xlink:title=" ">
<path fill="none" stroke="#63b8ff" d="M1169.01,-336.08C1169.01,-324.13 1169.01,-309.22 1169.01,-299.91"/>
<polygon fill="#63b8ff" stroke="#63b8ff" points="1165.51,-336.37 1169.01,-346.37 1172.51,-336.37 1165.51,-336.37"/>
</a>
</g>
</g>
<!-- Node16 -->
<g id="Node000016" class="node">
<title>Node16</title>
<g id="a_Node000016"><a xlink:href="../../d8/d6b/core_2include_2userver_2dump_2common_8hpp.html" target="_top" xlink:title="Serialization and deserialization of integral, floating point, string, std::chrono,...">
<polygon fill="white" stroke="#666666" points="1002.51,-233.5 851.51,-233.5 851.51,-214.5 1002.51,-214.5 1002.51,-233.5"/>
<text text-anchor="middle" x="927.01" y="-221.5" font-family="Helvetica,sans-Serif" font-size="10.00">userver/dump/common.hpp</text>
</a>
</g>
</g>
<!-- Node11&#45;&gt;Node16 -->
<g id="edge20_Node000011_Node000016" class="edge">
<title>Node11&#45;&gt;Node16</title>
<g id="a_edge20_Node000011_Node000016"><a xlink:title=" ">
<path fill="none" stroke="#63b8ff" d="M1130.15,-343.32C1103.2,-334.5 1066.93,-321.17 1037.01,-305 997.34,-283.56 955.63,-249.58 937.01,-233.71"/>
<polygon fill="#63b8ff" stroke="#63b8ff" points="1129.39,-346.75 1139.98,-346.47 1131.53,-340.09 1129.39,-346.75"/>
</a>
</g>
</g>
<!-- Node17 -->
<g id="Node000017" class="node">
<title>Node17</title>
<g id="a_Node000017"><a xlink:href="../../df/db4/json__helpers_8hpp.html" target="_top" xlink:title="Convenience functions to load and dump as JSON in classes derived from components::CachingComponentBa...">
<polygon fill="white" stroke="#666666" points="908.01,-167.5 738.01,-167.5 738.01,-148.5 908.01,-148.5 908.01,-167.5"/>
<text text-anchor="middle" x="823.01" y="-155.5" font-family="Helvetica,sans-Serif" font-size="10.00">userver/dump/json_helpers.hpp</text>
</a>
</g>
</g>
<!-- Node11&#45;&gt;Node17 -->
<g id="edge34_Node000011_Node000017" class="edge">
<title>Node11&#45;&gt;Node17</title>
<g id="a_edge34_Node000011_Node000017"><a xlink:title=" ">
<path fill="none" stroke="#63b8ff" d="M1078.85,-345.62C973.72,-334.25 813.03,-315.33 804.01,-305 768.73,-264.55 804.12,-192.22 817.98,-167.53"/>
<polygon fill="#63b8ff" stroke="#63b8ff" points="1078.53,-349.11 1088.85,-346.7 1079.28,-342.15 1078.53,-349.11"/>
</a>
</g>
</g>
<!-- Node18 -->
<g id="Node000018" class="node">
<title>Node18</title>
<g id="a_Node000018"><a xlink:href="../../d5/dd9/dumper_8hpp.html" target="_top" xlink:title="Manages dumps of a cache&#45;like component.">
<polygon fill="white" stroke="#666666" points="1611.51,-299.5 1466.51,-299.5 1466.51,-280.5 1611.51,-280.5 1611.51,-299.5"/>
<text text-anchor="middle" x="1539.01" y="-287.5" font-family="Helvetica,sans-Serif" font-size="10.00">userver/dump/dumper.hpp</text>
</a>
</g>
</g>
<!-- Node11&#45;&gt;Node18 -->
<g id="edge25_Node000011_Node000018" class="edge">
<title>Node11&#45;&gt;Node18</title>
<g id="a_edge25_Node000011_Node000018"><a xlink:title=" ">
<path fill="none" stroke="#63b8ff" d="M1228.43,-344.72C1300.95,-332.18 1422.24,-311.2 1489.79,-299.51"/>
<polygon fill="#63b8ff" stroke="#63b8ff" points="1227.79,-341.28 1218.53,-346.44 1228.98,-348.18 1227.79,-341.28"/>
</a>
</g>
</g>
<!-- Node21 -->
<g id="Node000021" class="node">
<title>Node21</title>
<g id="a_Node000021"><a xlink:href="../../dc/d2d/factory_8hpp_source.html" target="_top" xlink:title=" ">
<polygon fill="white" stroke="#666666" points="1409.51,-299.5 1268.51,-299.5 1268.51,-280.5 1409.51,-280.5 1409.51,-299.5"/>
<text text-anchor="middle" x="1339.01" y="-287.5" font-family="Helvetica,sans-Serif" font-size="10.00">userver/dump/factory.hpp</text>
</a>
</g>
</g>
<!-- Node11&#45;&gt;Node21 -->
<g id="edge31_Node000011_Node000021" class="edge">
<title>Node11&#45;&gt;Node21</title>
<g id="a_edge31_Node000011_Node000021"><a xlink:title=" ">
<path fill="none" stroke="#63b8ff" d="M1201.32,-342.84C1234.9,-330.2 1286.61,-310.73 1316.18,-299.6"/>
<polygon fill="#63b8ff" stroke="#63b8ff" points="1200.07,-339.57 1191.94,-346.37 1202.53,-346.12 1200.07,-339.57"/>
</a>
</g>
</g>
<!-- Node22 -->
<g id="Node000022" class="node">
<title>Node22</title>
<g id="a_Node000022"><a xlink:href="../../d9/de9/operations__encrypted_8hpp_source.html" target="_top" xlink:title=" ">
<polygon fill="white" stroke="#666666" points="1159.51,-239 1020.51,-239 1020.51,-209 1159.51,-209 1159.51,-239"/>
<text text-anchor="start" x="1028.51" y="-227" font-family="Helvetica,sans-Serif" font-size="10.00">userver/dump/operations</text>
<text text-anchor="middle" x="1090.01" y="-216" font-family="Helvetica,sans-Serif" font-size="10.00">_encrypted.hpp</text>
</a>
</g>
</g>
<!-- Node11&#45;&gt;Node22 -->
<g id="edge35_Node000011_Node000022" class="edge">
<title>Node11&#45;&gt;Node22</title>
<g id="a_edge35_Node000011_Node000022"><a xlink:title=" ">
<path fill="none" stroke="#63b8ff" d="M1101.86,-343.49C1080.03,-336.22 1058.08,-324.36 1045.01,-305 1030.13,-282.94 1053.81,-255.62 1072.08,-239.29"/>
<polygon fill="#63b8ff" stroke="#63b8ff" points="1100.93,-346.87 1111.52,-346.43 1102.97,-340.17 1100.93,-346.87"/>
</a>
</g>
</g>
<!-- Node23 -->
<g id="Node000023" class="node">
<title>Node23</title>
<g id="a_Node000023"><a xlink:href="../../d3/d85/operations__file_8hpp_source.html" target="_top" xlink:title=" ">
<polygon fill="white" stroke="#666666" points="1316.51,-239 1177.51,-239 1177.51,-209 1316.51,-209 1316.51,-239"/>
<text text-anchor="start" x="1185.51" y="-227" font-family="Helvetica,sans-Serif" font-size="10.00">userver/dump/operations</text>
<text text-anchor="middle" x="1247.01" y="-216" font-family="Helvetica,sans-Serif" font-size="10.00">_file.hpp</text>
</a>
</g>
</g>
<!-- Node11&#45;&gt;Node23 -->
<g id="edge36_Node000011_Node000023" class="edge">
<title>Node11&#45;&gt;Node23</title>
<g id="a_edge36_Node000011_Node000023"><a xlink:title=" ">
<path fill="none" stroke="#63b8ff" d="M1258.99,-348.74C1321.83,-342.27 1397.92,-329.53 1418.01,-305 1426.46,-294.69 1426.01,-285.67 1418.01,-275 1411.1,-265.78 1354.31,-250.35 1308.04,-239.07"/>
<polygon fill="#63b8ff" stroke="#63b8ff" points="1258.64,-345.26 1249.03,-349.72 1259.33,-352.22 1258.64,-345.26"/>
</a>
</g>
</g>
<!-- Node24 -->
<g id="Node000024" class="node">
<title>Node24</title>
<g id="a_Node000024"><a xlink:href="../../d8/d92/operations__mock_8hpp_source.html" target="_top" xlink:title=" ">
<polygon fill="white" stroke="#666666" points="1806.51,-305 1667.51,-305 1667.51,-275 1806.51,-275 1806.51,-305"/>
<text text-anchor="start" x="1675.51" y="-293" font-family="Helvetica,sans-Serif" font-size="10.00">userver/dump/operations</text>
<text text-anchor="middle" x="1737.01" y="-282" font-family="Helvetica,sans-Serif" font-size="10.00">_mock.hpp</text>
</a>
</g>
</g>
<!-- Node11&#45;&gt;Node24 -->
<g id="edge37_Node000011_Node000024" class="edge">
<title>Node11&#45;&gt;Node24</title>
<g id="a_edge37_Node000011_Node000024"><a xlink:title=" ">
<path fill="none" stroke="#63b8ff" d="M1257.65,-345.4C1348.62,-335.5 1494.23,-319.5 1620.01,-305 1635.36,-303.23 1651.83,-301.29 1667.42,-299.43"/>
<polygon fill="#63b8ff" stroke="#63b8ff" points="1257.22,-341.93 1247.66,-346.49 1257.98,-348.89 1257.22,-341.93"/>
</a>
</g>
</g>
<!-- Node26 -->
<g id="Node000026" class="node">
<title>Node26</title>
<g id="a_Node000026"><a xlink:href="../../dd/d0b/unsafe_8hpp_source.html" target="_top" xlink:title=" ">
<polygon fill="white" stroke="#666666" points="954.51,-299.5 813.51,-299.5 813.51,-280.5 954.51,-280.5 954.51,-299.5"/>
<text text-anchor="middle" x="884.01" y="-287.5" font-family="Helvetica,sans-Serif" font-size="10.00">userver/dump/unsafe.hpp</text>
</a>
</g>
</g>
<!-- Node11&#45;&gt;Node26 -->
<g id="edge39_Node000011_Node000026" class="edge">
<title>Node11&#45;&gt;Node26</title>
<g id="a_edge39_Node000011_Node000026"><a xlink:title=" ">
<path fill="none" stroke="#63b8ff" d="M1120.83,-344.18C1064.72,-331.58 973.22,-311.03 921.93,-299.51"/>
<polygon fill="#63b8ff" stroke="#63b8ff" points="1120.35,-347.66 1130.87,-346.44 1121.88,-340.83 1120.35,-347.66"/>
</a>
</g>
</g>
<!-- Node13 -->
<g id="Node000013" class="node">
<title>Node13</title>
<g id="a_Node000013"><a xlink:href="../../d8/de1/expirable__lru__cache_8hpp.html" target="_top" xlink:title="Class for expirable LRU cache. Use cache::LruMap for not expirable LRU Cache.">
<polygon fill="white" stroke="#666666" points="1473.01,-173 1339.01,-173 1339.01,-143 1473.01,-143 1473.01,-173"/>
<text text-anchor="start" x="1347.01" y="-161" font-family="Helvetica,sans-Serif" font-size="10.00">userver/cache/expirable</text>
<text text-anchor="middle" x="1406.01" y="-150" font-family="Helvetica,sans-Serif" font-size="10.00">_lru_cache.hpp</text>
</a>
</g>
</g>
<!-- Node12&#45;&gt;Node13 -->
<g id="edge16_Node000012_Node000013" class="edge">
<title>Node12&#45;&gt;Node13</title>
<g id="a_edge16_Node000012_Node000013"><a xlink:title=" ">
<path fill="none" stroke="#63b8ff" d="M1397.3,-198.83C1399.2,-190.17 1401.27,-180.7 1402.92,-173.16"/>
<polygon fill="#63b8ff" stroke="#63b8ff" points="1393.84,-198.28 1395.12,-208.8 1400.68,-199.78 1393.84,-198.28"/>
</a>
</g>
</g>
<!-- Node13&#45;&gt;Node8 -->
<g id="edge17_Node000013_Node000008" class="edge">
<title>Node13&#45;&gt;Node8</title>
<g id="a_edge17_Node000013_Node000008"><a xlink:title=" ">
<path fill="none" stroke="#63b8ff" d="M1479.37,-140.76C1533.1,-128.87 1605.31,-112.89 1656.57,-101.54"/>
<polygon fill="#63b8ff" stroke="#63b8ff" points="1478.56,-137.36 1469.56,-142.94 1480.08,-144.19 1478.56,-137.36"/>
</a>
</g>
</g>
<!-- Node14 -->
<g id="Node000014" class="node">
<title>Node14</title>
<g id="a_Node000014"><a xlink:href="../../db/df0/standalone__checker_8hpp.html" target="_top" xlink:title="Class for digest authentication checker. Implements a stand&#45;alone digest&#45;authentication logic.">
<polygon fill="white" stroke="#666666" points="1472.01,-107 1340.01,-107 1340.01,-66 1472.01,-66 1472.01,-107"/>
<text text-anchor="start" x="1348.01" y="-95" font-family="Helvetica,sans-Serif" font-size="10.00">userver/server/handlers</text>
<text text-anchor="start" x="1348.01" y="-84" font-family="Helvetica,sans-Serif" font-size="10.00">/auth/digest/standalone</text>
<text text-anchor="middle" x="1406.01" y="-73" font-family="Helvetica,sans-Serif" font-size="10.00">_checker.hpp</text>
</a>
</g>
</g>
<!-- Node13&#45;&gt;Node14 -->
<g id="edge18_Node000013_Node000014" class="edge">
<title>Node13&#45;&gt;Node14</title>
<g id="a_edge18_Node000013_Node000014"><a xlink:title=" ">
<path fill="none" stroke="#63b8ff" d="M1406.01,-132.91C1406.01,-124.47 1406.01,-115.1 1406.01,-107.07"/>
<polygon fill="#63b8ff" stroke="#63b8ff" points="1402.51,-132.94 1406.01,-142.94 1409.51,-132.94 1402.51,-132.94"/>
</a>
</g>
</g>
<!-- Node16&#45;&gt;Node9 -->
<g id="edge22_Node000016_Node000009" class="edge">
<title>Node16&#45;&gt;Node9</title>
<g id="a_edge22_Node000016_Node000009"><a xlink:title=" ">
<path fill="none" stroke="#63b8ff" d="M982.73,-212.81C992.15,-211.35 1001.84,-210 1011.01,-209 1314.52,-175.85 1392.13,-189.02 1697.01,-173 1765.59,-169.4 1844.12,-165.26 1897.97,-162.43"/>
<polygon fill="#63b8ff" stroke="#63b8ff" points="981.98,-209.39 972.66,-214.43 983.09,-216.3 981.98,-209.39"/>
</a>
</g>
</g>
<!-- Node16&#45;&gt;Node13 -->
<g id="edge21_Node000016_Node000013" class="edge">
<title>Node16&#45;&gt;Node13</title>
<g id="a_edge21_Node000016_Node000013"><a xlink:title=" ">
<path fill="none" stroke="#63b8ff" d="M986.29,-212.82C994.58,-211.49 1003.01,-210.17 1011.01,-209 1125.91,-192.16 1260.12,-175.89 1338.81,-166.69"/>
<polygon fill="#63b8ff" stroke="#63b8ff" points="985.57,-209.39 976.27,-214.46 986.7,-216.3 985.57,-209.39"/>
</a>
</g>
</g>
<!-- Node16&#45;&gt;Node17 -->
<g id="edge23_Node000016_Node000017" class="edge">
<title>Node16&#45;&gt;Node17</title>
<g id="a_edge23_Node000016_Node000017"><a xlink:title=" ">
<path fill="none" stroke="#63b8ff" d="M904.3,-209.02C883.84,-196.43 854.41,-178.32 837.15,-167.7"/>
<polygon fill="#63b8ff" stroke="#63b8ff" points="902.64,-212.11 912.99,-214.37 906.31,-206.15 902.64,-212.11"/>
</a>
</g>
</g>
<!-- Node18&#45;&gt;Node8 -->
<g id="edge27_Node000018_Node000008" class="edge">
<title>Node18&#45;&gt;Node8</title>
<g id="a_edge27_Node000018_Node000008"><a xlink:title=" ">
<path fill="none" stroke="#63b8ff" d="M1531.8,-270.77C1521.26,-240.85 1505.81,-180.85 1534.01,-143 1548.51,-123.54 1605.55,-108.42 1652.69,-98.9"/>
<polygon fill="#63b8ff" stroke="#63b8ff" points="1528.59,-272.2 1535.37,-280.34 1535.15,-269.75 1528.59,-272.2"/>
</a>
</g>
</g>
<!-- Node18&#45;&gt;Node12 -->
<g id="edge28_Node000018_Node000012" class="edge">
<title>Node18&#45;&gt;Node12</title>
<g id="a_edge28_Node000018_Node000012"><a xlink:title=" ">
<path fill="none" stroke="#63b8ff" d="M1509.99,-276.36C1485.34,-265.63 1450,-250.25 1424.44,-239.12"/>
<polygon fill="#63b8ff" stroke="#63b8ff" points="1508.62,-279.59 1519.19,-280.37 1511.42,-273.17 1508.62,-279.59"/>
</a>
</g>
</g>
<!-- Node18&#45;&gt;Node13 -->
<g id="edge26_Node000018_Node000013" class="edge">
<title>Node18&#45;&gt;Node13</title>
<g id="a_edge26_Node000018_Node000013"><a xlink:title=" ">
<path fill="none" stroke="#63b8ff" d="M1522.89,-272.95C1506.59,-256.75 1480.64,-231.05 1458.01,-209 1445.64,-196.94 1431.49,-183.35 1421.08,-173.39"/>
<polygon fill="#63b8ff" stroke="#63b8ff" points="1520.5,-275.51 1530.06,-280.08 1525.44,-270.55 1520.5,-275.51"/>
</a>
</g>
</g>
<!-- Node19 -->
<g id="Node000019" class="node">
<title>Node19</title>
<g id="a_Node000019"><a xlink:href="../../d2/d2b/dump__control_8hpp.html" target="_top" xlink:title="Dumper control interface for testsuite.">
<polygon fill="white" stroke="#666666" points="1673.01,-239 1543.01,-239 1543.01,-209 1673.01,-209 1673.01,-239"/>
<text text-anchor="start" x="1551.01" y="-227" font-family="Helvetica,sans-Serif" font-size="10.00">userver/testsuite/dump</text>
<text text-anchor="middle" x="1608.01" y="-216" font-family="Helvetica,sans-Serif" font-size="10.00">_control.hpp</text>
</a>
</g>
</g>
<!-- Node18&#45;&gt;Node19 -->
<g id="edge29_Node000018_Node000019" class="edge">
<title>Node18&#45;&gt;Node19</title>
<g id="a_edge29_Node000018_Node000019"><a xlink:title=" ">
<path fill="none" stroke="#63b8ff" d="M1555.82,-273.41C1567.11,-262.94 1581.86,-249.26 1592.8,-239.12"/>
<polygon fill="#63b8ff" stroke="#63b8ff" points="1553.27,-271 1548.32,-280.37 1558.03,-276.13 1553.27,-271"/>
</a>
</g>
</g>
<!-- Node20 -->
<g id="Node000020" class="node">
<title>Node20</title>
<g id="a_Node000020"><a xlink:href="../../d3/d37/testsuite__support_8hpp.html" target="_top" xlink:title="Testsuite support component.">
<polygon fill="white" stroke="#666666" points="1688.51,-173 1543.51,-173 1543.51,-143 1688.51,-143 1688.51,-173"/>
<text text-anchor="start" x="1551.51" y="-161" font-family="Helvetica,sans-Serif" font-size="10.00">userver/testsuite/testsuite</text>
<text text-anchor="middle" x="1616.01" y="-150" font-family="Helvetica,sans-Serif" font-size="10.00">_support.hpp</text>
</a>
</g>
</g>
<!-- Node19&#45;&gt;Node20 -->
<g id="edge30_Node000019_Node000020" class="edge">
<title>Node19&#45;&gt;Node20</title>
<g id="a_edge30_Node000019_Node000020"><a xlink:title=" ">
<path fill="none" stroke="#63b8ff" d="M1611.04,-198.83C1612.12,-190.17 1613.3,-180.7 1614.24,-173.16"/>
<polygon fill="#63b8ff" stroke="#63b8ff" points="1607.56,-198.44 1609.79,-208.8 1614.5,-199.31 1607.56,-198.44"/>
</a>
</g>
</g>
<!-- Node21&#45;&gt;Node22 -->
<g id="edge32_Node000021_Node000022" class="edge">
<title>Node21&#45;&gt;Node22</title>
<g id="a_edge32_Node000021_Node000022"><a xlink:title=" ">
<path fill="none" stroke="#63b8ff" d="M1295.78,-277.89C1253.83,-267.1 1190.01,-250.7 1144.58,-239.02"/>
<polygon fill="#63b8ff" stroke="#63b8ff" points="1295.13,-281.34 1305.69,-280.44 1296.88,-274.56 1295.13,-281.34"/>
</a>
</g>
</g>
<!-- Node21&#45;&gt;Node23 -->
<g id="edge33_Node000021_Node000023" class="edge">
<title>Node21&#45;&gt;Node23</title>
<g id="a_edge33_Node000021_Node000023"><a xlink:title=" ">
<path fill="none" stroke="#63b8ff" d="M1318.34,-274.62C1303.09,-264.01 1282.46,-249.66 1267.31,-239.12"/>
<polygon fill="#63b8ff" stroke="#63b8ff" points="1316.4,-277.53 1326.61,-280.37 1320.4,-271.78 1316.4,-277.53"/>
</a>
</g>
</g>
<!-- Node25 -->
<g id="Node000025" class="node">
<title>Node25</title>
<g id="a_Node000025"><a xlink:href="../../d5/d46/utest_2include_2userver_2dump_2test__helpers_8hpp_source.html" target="_top" xlink:title=" ">
<polygon fill="white" stroke="#666666" points="1859.01,-233.5 1691.01,-233.5 1691.01,-214.5 1859.01,-214.5 1859.01,-233.5"/>
<text text-anchor="middle" x="1775.01" y="-221.5" font-family="Helvetica,sans-Serif" font-size="10.00">userver/dump/test_helpers.hpp</text>
</a>
</g>
</g>
<!-- Node24&#45;&gt;Node25 -->
<g id="edge38_Node000024_Node000025" class="edge">
<title>Node24&#45;&gt;Node25</title>
<g id="a_edge38_Node000024_Node000025"><a xlink:title=" ">
<path fill="none" stroke="#63b8ff" d="M1750.7,-265.95C1757.31,-254.81 1764.85,-242.11 1769.76,-233.84"/>
<polygon fill="#63b8ff" stroke="#63b8ff" points="1747.54,-264.41 1745.45,-274.8 1753.56,-267.98 1747.54,-264.41"/>
</a>
</g>
</g>
<!-- Node26&#45;&gt;Node16 -->
<g id="edge40_Node000026_Node000016" class="edge">
<title>Node26&#45;&gt;Node16</title>
<g id="a_edge40_Node000026_Node000016"><a xlink:title=" ">
<path fill="none" stroke="#63b8ff" d="M895.5,-271.91C903.72,-259.68 914.45,-243.7 921.03,-233.91"/>
<polygon fill="#63b8ff" stroke="#63b8ff" points="892.49,-270.12 889.81,-280.37 898.3,-274.02 892.49,-270.12"/>
</a>
</g>
</g>
<!-- Node26&#45;&gt;Node17 -->
<g id="edge41_Node000026_Node000017" class="edge">
<title>Node26&#45;&gt;Node17</title>
<g id="a_edge41_Node000026_Node000017"><a xlink:title=" ">
<path fill="none" stroke="#63b8ff" d="M867.34,-273.13C858.59,-263.94 848.4,-251.69 842.01,-239 829.96,-215.02 825.36,-183.12 823.77,-167.86"/>
<polygon fill="#63b8ff" stroke="#63b8ff" points="864.99,-275.73 874.52,-280.36 869.96,-270.8 864.99,-275.73"/>
</a>
</g>
</g>
<!-- Node27&#45;&gt;Node5 -->
<g id="edge44_Node000027_Node000005" class="edge">
<title>Node27&#45;&gt;Node5</title>
<g id="a_edge44_Node000027_Node000005"><a xlink:title=" ">
<path fill="none" stroke="#63b8ff" d="M425.01,-396.86C425.01,-370.76 425.01,-327.93 425.01,-291 425.01,-291 425.01,-291 425.01,-157 425.01,-110.49 425.01,-55.35 425.01,-30.01"/>
<polygon fill="#63b8ff" stroke="#63b8ff" points="421.51,-396.96 425.01,-406.96 428.51,-396.96 421.51,-396.96"/>
</a>
</g>
</g>
<!-- Node28 -->
<g id="Node000028" class="node">
<title>Node28</title>
<g id="a_Node000028"><a xlink:href="../../dc/da2/postgresql_2include_2userver_2storages_2postgres_2io_2supported__types_8hpp.html" target="_top" xlink:title="Includes parsers and formatters for all supported data types; prefer using the type specific include ...">
<polygon fill="white" stroke="#666666" points="346.51,-371 203.51,-371 203.51,-341 346.51,-341 346.51,-371"/>
<text text-anchor="start" x="211.51" y="-359" font-family="Helvetica,sans-Serif" font-size="10.00">userver/storages/postgres</text>
<text text-anchor="middle" x="275.01" y="-348" font-family="Helvetica,sans-Serif" font-size="10.00">/io/supported_types.hpp</text>
</a>
</g>
</g>
<!-- Node27&#45;&gt;Node28 -->
<g id="edge45_Node000027_Node000028" class="edge">
<title>Node27&#45;&gt;Node28</title>
<g id="a_edge45_Node000027_Node000028"><a xlink:title=" ">
<path fill="none" stroke="#63b8ff" d="M382.64,-402.92C358.93,-392.8 329.82,-380.38 307.86,-371.01"/>
<polygon fill="#63b8ff" stroke="#63b8ff" points="381.52,-406.25 392.1,-406.95 384.27,-399.81 381.52,-406.25"/>
</a>
</g>
</g>
<!-- Node29 -->
<g id="Node000029" class="node">
<title>Node29</title>
<g id="a_Node000029"><a xlink:href="../../de/d1d/result__set_8hpp.html" target="_top" xlink:title="Result accessors.">
<polygon fill="white" stroke="#666666" points="296.51,-305 153.51,-305 153.51,-275 296.51,-275 296.51,-305"/>
<text text-anchor="start" x="161.51" y="-293" font-family="Helvetica,sans-Serif" font-size="10.00">userver/storages/postgres</text>
<text text-anchor="middle" x="225.01" y="-282" font-family="Helvetica,sans-Serif" font-size="10.00">/result_set.hpp</text>
</a>
</g>
</g>
<!-- Node28&#45;&gt;Node29 -->
<g id="edge46_Node000028_Node000029" class="edge">
<title>Node28&#45;&gt;Node29</title>
<g id="a_edge46_Node000028_Node000029"><a xlink:title=" ">
<path fill="none" stroke="#63b8ff" d="M257.68,-332.81C250.51,-323.64 242.42,-313.28 236.08,-305.16"/>
<polygon fill="#63b8ff" stroke="#63b8ff" points="255,-335.07 263.92,-340.8 260.52,-330.76 255,-335.07"/>
</a>
</g>
</g>
<!-- Node30 -->
<g id="Node000030" class="node">
<title>Node30</title>
<g id="a_Node000030"><a xlink:href="../../d2/de3/portal_8hpp_source.html" target="_top" xlink:title=" ">
<polygon fill="white" stroke="#666666" points="196.51,-239 53.51,-239 53.51,-209 196.51,-209 196.51,-239"/>
<text text-anchor="start" x="61.51" y="-227" font-family="Helvetica,sans-Serif" font-size="10.00">userver/storages/postgres</text>
<text text-anchor="middle" x="125.01" y="-216" font-family="Helvetica,sans-Serif" font-size="10.00">/portal.hpp</text>
</a>
</g>
</g>
<!-- Node29&#45;&gt;Node30 -->
<g id="edge47_Node000029_Node000030" class="edge">
<title>Node29&#45;&gt;Node30</title>
<g id="a_edge47_Node000029_Node000030"><a xlink:title=" ">
<path fill="none" stroke="#63b8ff" d="M194.23,-269.3C179.01,-259.56 160.99,-248.02 147.15,-239.16"/>
<polygon fill="#63b8ff" stroke="#63b8ff" points="192.51,-272.35 202.82,-274.8 196.28,-266.46 192.51,-272.35"/>
</a>
</g>
</g>
<!-- Node31 -->
<g id="Node000031" class="node">
<title>Node31</title>
<g id="a_Node000031"><a xlink:href="../../da/deb/postgresql_2include_2userver_2storages_2postgres_2transaction_8hpp.html" target="_top" xlink:title="Transactions.">
<polygon fill="white" stroke="#666666" points="158.51,-173 15.51,-173 15.51,-143 158.51,-143 158.51,-173"/>
<text text-anchor="start" x="23.51" y="-161" font-family="Helvetica,sans-Serif" font-size="10.00">userver/storages/postgres</text>
<text text-anchor="middle" x="87.01" y="-150" font-family="Helvetica,sans-Serif" font-size="10.00">/transaction.hpp</text>
</a>
</g>
</g>
<!-- Node29&#45;&gt;Node31 -->
<g id="edge56_Node000029_Node000031" class="edge">
<title>Node29&#45;&gt;Node31</title>
<g id="a_edge56_Node000029_Node000031"><a xlink:title=" ">
<path fill="none" stroke="#63b8ff" d="M143.3,-276.31C101.4,-267.96 56.58,-255.51 44.01,-239 27.87,-217.8 51.78,-189.72 69.9,-173.09"/>
<polygon fill="#63b8ff" stroke="#63b8ff" points="142.82,-279.78 153.3,-278.24 144.14,-272.91 142.82,-279.78"/>
</a>
</g>
</g>
<!-- Node33 -->
<g id="Node000033" class="node">
<title>Node33</title>
<g id="a_Node000033"><a xlink:href="../../df/d02/postgres_8hpp.html" target="_top" xlink:title=" ">
<polygon fill="white" stroke="#666666" points="158.51,-30 15.51,-30 15.51,0 158.51,0 158.51,-30"/>
<text text-anchor="start" x="23.51" y="-18" font-family="Helvetica,sans-Serif" font-size="10.00">userver/storages/postgres</text>
<text text-anchor="middle" x="87.01" y="-7" font-family="Helvetica,sans-Serif" font-size="10.00">/postgres.hpp</text>
</a>
</g>
</g>
<!-- Node29&#45;&gt;Node33 -->
<g id="edge53_Node000029_Node000033" class="edge">
<title>Node29&#45;&gt;Node33</title>
<g id="a_edge53_Node000029_Node000033"><a xlink:title=" ">
<path fill="none" stroke="#63b8ff" d="M142.9,-283.42C106.33,-277.2 64.88,-264.52 35.01,-239 1.13,-210.05 -6.47,-185.79 6.01,-143 19.34,-97.31 54.66,-52.4 73.96,-30.25"/>
<polygon fill="#63b8ff" stroke="#63b8ff" points="142.64,-286.93 153.07,-285.01 143.73,-280.01 142.64,-286.93"/>
</a>
</g>
</g>
<!-- Node34 -->
<g id="Node000034" class="node">
<title>Node34</title>
<g id="a_Node000034"><a xlink:href="../../d8/d63/query__queue_8hpp.html" target="_top" xlink:title="An utility to execute multiple queries in a single network round&#45;trip.">
<polygon fill="white" stroke="#666666" points="319.51,-173 176.51,-173 176.51,-143 319.51,-143 319.51,-173"/>
<text text-anchor="start" x="184.51" y="-161" font-family="Helvetica,sans-Serif" font-size="10.00">userver/storages/postgres</text>
<text text-anchor="middle" x="248.01" y="-150" font-family="Helvetica,sans-Serif" font-size="10.00">/query_queue.hpp</text>
</a>
</g>
</g>
<!-- Node29&#45;&gt;Node34 -->
<g id="edge54_Node000029_Node000034" class="edge">
<title>Node29&#45;&gt;Node34</title>
<g id="a_edge54_Node000029_Node000034"><a xlink:title=" ">
<path fill="none" stroke="#63b8ff" d="M229.32,-264.68C234.09,-237.7 241.63,-195.11 245.51,-173.14"/>
<polygon fill="#63b8ff" stroke="#63b8ff" points="225.82,-264.38 227.52,-274.84 232.71,-265.6 225.82,-264.38"/>
</a>
</g>
</g>
<!-- Node35 -->
<g id="Node000035" class="node">
<title>Node35</title>
<g id="a_Node000035"><a xlink:href="../../d1/dee/typed__result__set_8hpp.html" target="_top" xlink:title="Typed PostgreSQL results.">
<polygon fill="white" stroke="#666666" points="396.51,-239 253.51,-239 253.51,-209 396.51,-209 396.51,-239"/>
<text text-anchor="start" x="261.51" y="-227" font-family="Helvetica,sans-Serif" font-size="10.00">userver/storages/postgres</text>
<text text-anchor="middle" x="325.01" y="-216" font-family="Helvetica,sans-Serif" font-size="10.00">/typed_result_set.hpp</text>
</a>
</g>
</g>
<!-- Node29&#45;&gt;Node35 -->
<g id="edge57_Node000029_Node000035" class="edge">
<title>Node29&#45;&gt;Node35</title>
<g id="a_edge57_Node000029_Node000035"><a xlink:title=" ">
<path fill="none" stroke="#63b8ff" d="M249.91,-269.03C264.3,-259.34 282.32,-247.94 297.17,-239.16"/>
<polygon fill="#63b8ff" stroke="#63b8ff" points="247.76,-266.26 241.49,-274.8 251.72,-272.04 247.76,-266.26"/>
</a>
</g>
</g>
<!-- Node30&#45;&gt;Node31 -->
<g id="edge48_Node000030_Node000031" class="edge">
<title>Node30&#45;&gt;Node31</title>
<g id="a_edge48_Node000030_Node000031"><a xlink:title=" ">
<path fill="none" stroke="#63b8ff" d="M111.34,-199.96C106.02,-191 100.09,-181.03 95.42,-173.16"/>
<polygon fill="#63b8ff" stroke="#63b8ff" points="108.47,-201.98 116.58,-208.8 114.48,-198.41 108.47,-201.98"/>
</a>
</g>
</g>
<!-- Node32 -->
<g id="Node000032" class="node">
<title>Node32</title>
<g id="a_Node000032"><a xlink:href="../../de/dd3/postgresql_2include_2userver_2storages_2postgres_2cluster_8hpp.html" target="_top" xlink:title="Interface for executing queries on a cluster of PostgreSQL servers.">
<polygon fill="white" stroke="#666666" points="289.51,-101.5 146.51,-101.5 146.51,-71.5 289.51,-71.5 289.51,-101.5"/>
<text text-anchor="start" x="154.51" y="-89.5" font-family="Helvetica,sans-Serif" font-size="10.00">userver/storages/postgres</text>
<text text-anchor="middle" x="218.01" y="-78.5" font-family="Helvetica,sans-Serif" font-size="10.00">/cluster.hpp</text>
</a>
</g>
</g>
<!-- Node31&#45;&gt;Node32 -->
<g id="edge49_Node000031_Node000032" class="edge">
<title>Node31&#45;&gt;Node32</title>
<g id="a_edge49_Node000031_Node000032"><a xlink:title=" ">
<path fill="none" stroke="#63b8ff" d="M122.47,-138.19C144.24,-126.64 171.67,-112.09 191.54,-101.54"/>
<polygon fill="#63b8ff" stroke="#63b8ff" points="120.72,-135.16 113.52,-142.94 124,-141.34 120.72,-135.16"/>
</a>
</g>
</g>
<!-- Node31&#45;&gt;Node33 -->
<g id="edge52_Node000031_Node000033" class="edge">
<title>Node31&#45;&gt;Node33</title>
<g id="a_edge52_Node000031_Node000033"><a xlink:title=" ">
<path fill="none" stroke="#63b8ff" d="M87.01,-132.7C87.01,-103.22 87.01,-54.49 87.01,-30.4"/>
<polygon fill="#63b8ff" stroke="#63b8ff" points="83.51,-132.96 87.01,-142.96 90.51,-132.96 83.51,-132.96"/>
</a>
</g>
</g>
<!-- Node32&#45;&gt;Node5 -->
<g id="edge50_Node000032_Node000005" class="edge">
<title>Node32&#45;&gt;Node5</title>
<g id="a_edge50_Node000032_Node000005"><a xlink:title=" ">
<path fill="none" stroke="#63b8ff" d="M269.49,-68.22C304.55,-56.45 350.38,-41.06 383.19,-30.04"/>
<polygon fill="#63b8ff" stroke="#63b8ff" points="268.27,-64.93 259.9,-71.44 270.5,-71.57 268.27,-64.93"/>
</a>
</g>
</g>
<!-- Node32&#45;&gt;Node33 -->
<g id="edge51_Node000032_Node000033" class="edge">
<title>Node32&#45;&gt;Node33</title>
<g id="a_edge51_Node000032_Node000033"><a xlink:title=" ">
<path fill="none" stroke="#63b8ff" d="M182.56,-66.69C160.79,-55.14 133.36,-40.59 113.48,-30.04"/>
<polygon fill="#63b8ff" stroke="#63b8ff" points="181.03,-69.84 191.5,-71.44 184.31,-63.66 181.03,-69.84"/>
</a>
</g>
</g>
<!-- Node34&#45;&gt;Node32 -->
<g id="edge55_Node000034_Node000032" class="edge">
<title>Node34&#45;&gt;Node32</title>
<g id="a_edge55_Node000034_Node000032"><a xlink:title=" ">
<path fill="none" stroke="#63b8ff" d="M237.97,-133.73C233.37,-123.06 228.06,-110.77 224.08,-101.54"/>
<polygon fill="#63b8ff" stroke="#63b8ff" points="234.77,-135.14 241.94,-142.94 241.19,-132.37 234.77,-135.14"/>
</a>
</g>
</g>
<!-- Node35&#45;&gt;Node29 -->
<g id="edge58_Node000035_Node000029" class="edge">
<title>Node35&#45;&gt;Node29</title>
<g id="a_edge58_Node000035_Node000029"><a xlink:title=" ">
<path fill="none" stroke="#63b8ff" d="M300.34,-244.82C285.85,-254.58 267.63,-266.12 252.66,-274.95"/>
<polygon fill="#63b8ff" stroke="#63b8ff" points="302.54,-247.55 308.81,-239.01 298.59,-241.78 302.54,-247.55"/>
</a>
</g>
</g>
</g>
</svg>
