<?xml version="1.0" encoding="UTF-8" standalone="no"?>
<!DOCTYPE svg PUBLIC "-//W3C//DTD SVG 1.1//EN"
 "http://www.w3.org/Graphics/SVG/1.1/DTD/svg11.dtd">
<!-- Generated by graphviz version 14.1.2 (0)
 -->
<!-- Title: userver/server/handlers/auth/digest/auth_checker_settings_component.hpp Pages: 1 -->
<svg width="238pt" height="301pt"
 viewBox="0.00 0.00 238.00 301.00" xmlns="http://www.w3.org/2000/svg" xmlns:xlink="http://www.w3.org/1999/xlink">
<g id="graph0" class="graph" transform="scale(1 1) rotate(0) translate(4 297)">
<title>userver/server/handlers/auth/digest/auth_checker_settings_component.hpp</title>
<!-- Node1 -->
<g id="Node000001" class="node">
<title>Node1</title>
<g id="a_Node000001"><a xlink:title="Component that loads digest auth configuration settings from a static_config.yaml.">
<polygon fill="#999999" stroke="#666666" points="152.25,-293 11,-293 11,-246.75 152.25,-246.75 152.25,-293"/>
<text xml:space="preserve" text-anchor="start" x="19" y="-279.5" font-family="Helvetica,sans-Serif" font-size="10.00">userver/server/handlers</text>
<text xml:space="preserve" text-anchor="start" x="19" y="-266.75" font-family="Helvetica,sans-Serif" font-size="10.00">/auth/digest/auth_checker</text>
<text xml:space="preserve" text-anchor="middle" x="81.62" y="-254" font-family="Helvetica,sans-Serif" font-size="10.00">_settings_component.hpp</text>
</a>
</g>
</g>
<!-- Node2 -->
<g id="Node000002" class="node">
<title>Node2</title>
<g id="a_Node000002"><a xlink:href="../../dd/d80/digest_2auth__checker__factory_8hpp.html" target="_top" xlink:title="Reusable factories for server&#45;side HTTP Digest authentication.">
<polygon fill="white" stroke="#666666" points="141.25,-46.25 0,-46.25 0,0 141.25,0 141.25,-46.25"/>
<text xml:space="preserve" text-anchor="start" x="8" y="-32.75" font-family="Helvetica,sans-Serif" font-size="10.00">userver/server/handlers</text>
<text xml:space="preserve" text-anchor="start" x="8" y="-20" font-family="Helvetica,sans-Serif" font-size="10.00">/auth/digest/auth_checker</text>
<text xml:space="preserve" text-anchor="middle" x="70.62" y="-7.25" font-family="Helvetica,sans-Serif" font-size="10.00">_factory.hpp</text>
</a>
</g>
</g>
<!-- Node1&#45;&gt;Node2 -->
<g id="edge1_Node000001_Node000002" class="edge">
<title>Node1&#45;&gt;Node2</title>
<g id="a_edge1_Node000001_Node000002"><a xlink:title=" ">
<path fill="none" stroke="#63b8ff" d="M61.4,-236.31C57.37,-228.24 53.73,-219.42 51.62,-210.75 37.52,-152.68 53.4,-81.97 63.52,-46.58"/>
<polygon fill="#63b8ff" stroke="#63b8ff" points="58.3,-237.92 66.12,-245.07 64.46,-234.6 58.3,-237.92"/>
</a>
</g>
</g>
<!-- Node3 -->
<g id="Node000003" class="node">
<title>Node3</title>
<g id="a_Node000003"><a xlink:href="../../dc/d7f/nonce__cache__settings__component_8hpp.html" target="_top" xlink:title="Component that loads nonce cache settings from a static_config.yaml.">
<polygon fill="white" stroke="#666666" points="202.25,-210.75 61,-210.75 61,-164.5 202.25,-164.5 202.25,-210.75"/>
<text xml:space="preserve" text-anchor="start" x="69" y="-197.25" font-family="Helvetica,sans-Serif" font-size="10.00">userver/server/handlers</text>
<text xml:space="preserve" text-anchor="start" x="69" y="-184.5" font-family="Helvetica,sans-Serif" font-size="10.00">/auth/digest/nonce_cache</text>
<text xml:space="preserve" text-anchor="middle" x="131.62" y="-171.75" font-family="Helvetica,sans-Serif" font-size="10.00">_settings_component.hpp</text>
</a>
</g>
</g>
<!-- Node1&#45;&gt;Node3 -->
<g id="edge2_Node000001_Node000003" class="edge">
<title>Node1&#45;&gt;Node3</title>
<g id="a_edge2_Node000001_Node000003"><a xlink:title=" ">
<path fill="none" stroke="#63b8ff" d="M101.63,-236.77C106.98,-228.19 112.65,-219.09 117.6,-211.14"/>
<polygon fill="#63b8ff" stroke="#63b8ff" points="98.67,-234.9 96.35,-245.24 104.61,-238.6 98.67,-234.9"/>
</a>
</g>
</g>
<!-- Node3&#45;&gt;Node2 -->
<g id="edge3_Node000003_Node000002" class="edge">
<title>Node3&#45;&gt;Node2</title>
<g id="a_edge3_Node000003_Node000002"><a xlink:title=" ">
<path fill="none" stroke="#63b8ff" d="M104.86,-154.91C99.07,-146.72 93.52,-137.64 89.62,-128.5 78.22,-101.73 73.65,-68.24 71.83,-46.53"/>
<polygon fill="#63b8ff" stroke="#63b8ff" points="101.99,-156.91 110.78,-162.83 107.59,-152.72 101.99,-156.91"/>
</a>
</g>
</g>
<!-- Node4 -->
<g id="Node000004" class="node">
<title>Node4</title>
<g id="a_Node000004"><a xlink:href="../../db/df0/standalone__checker_8hpp.html" target="_top" xlink:title="Class for digest authentication checker. Implements a stand&#45;alone digest&#45;authentication logic.">
<polygon fill="white" stroke="#666666" points="230.38,-128.5 98.88,-128.5 98.88,-82.25 230.38,-82.25 230.38,-128.5"/>
<text xml:space="preserve" text-anchor="start" x="106.88" y="-115" font-family="Helvetica,sans-Serif" font-size="10.00">userver/server/handlers</text>
<text xml:space="preserve" text-anchor="start" x="106.88" y="-102.25" font-family="Helvetica,sans-Serif" font-size="10.00">/auth/digest/standalone</text>
<text xml:space="preserve" text-anchor="middle" x="164.62" y="-89.5" font-family="Helvetica,sans-Serif" font-size="10.00">_checker.hpp</text>
</a>
</g>
</g>
<!-- Node3&#45;&gt;Node4 -->
<g id="edge4_Node000003_Node000004" class="edge">
<title>Node3&#45;&gt;Node4</title>
<g id="a_edge4_Node000003_Node000004"><a xlink:title=" ">
<path fill="none" stroke="#63b8ff" d="M145.17,-153.68C148.6,-145.34 152.21,-136.58 155.37,-128.89"/>
<polygon fill="#63b8ff" stroke="#63b8ff" points="141.96,-152.29 141.39,-162.87 148.43,-154.95 141.96,-152.29"/>
</a>
</g>
</g>
<!-- Node4&#45;&gt;Node2 -->
<g id="edge5_Node000004_Node000002" class="edge">
<title>Node4&#45;&gt;Node2</title>
<g id="a_edge5_Node000004_Node000002"><a xlink:title=" ">
<path fill="none" stroke="#63b8ff" d="M129.72,-74.57C118.84,-65.29 107.04,-55.21 96.86,-46.52"/>
<polygon fill="#63b8ff" stroke="#63b8ff" points="127.16,-76.99 137.04,-80.82 131.71,-71.67 127.16,-76.99"/>
</a>
</g>
</g>
</g>
</svg>
