<?xml version="1.0" encoding="UTF-8" standalone="no"?>
<!DOCTYPE svg PUBLIC "-//W3C//DTD SVG 1.1//EN"
 "http://www.w3.org/Graphics/SVG/1.1/DTD/svg11.dtd">
<!-- Generated by graphviz version 2.43.0 (0)
 -->
<!-- Title: userver/dump/common.hpp Pages: 1 -->
<svg width="789pt" height="390pt"
 viewBox="0.00 0.00 788.50 390.00" xmlns="http://www.w3.org/2000/svg" xmlns:xlink="http://www.w3.org/1999/xlink">
<g id="graph0" class="graph" transform="scale(1 1) rotate(0) translate(4 386)">
<title>userver/dump/common.hpp</title>
<!-- Node1 -->
<g id="Node000001" class="node">
<title>Node1</title>
<g id="a_Node000001"><a xlink:title="Serialization and deserialization of integral, floating point, string, std::chrono,...">
<polygon fill="#999999" stroke="#666666" points="402.5,-382 251.5,-382 251.5,-363 402.5,-363 402.5,-382"/>
<text text-anchor="middle" x="327" y="-370" font-family="Helvetica,sans-Serif" font-size="10.00">userver/dump/common.hpp</text>
</a>
</g>
</g>
<!-- Node2 -->
<g id="Node000002" class="node">
<title>Node2</title>
<g id="a_Node000002"><a xlink:title=" ">
<polygon fill="#e0e0e0" stroke="#999999" points="50,-321.5 0,-321.5 0,-302.5 50,-302.5 50,-321.5"/>
<text text-anchor="middle" x="25" y="-309.5" font-family="Helvetica,sans-Serif" font-size="10.00">chrono</text>
</a>
</g>
</g>
<!-- Node1&#45;&gt;Node2 -->
<g id="edge1_Node000001_Node000002" class="edge">
<title>Node1&#45;&gt;Node2</title>
<g id="a_edge1_Node000001_Node000002"><a xlink:title=" ">
<path fill="none" stroke="#63b8ff" d="M251.48,-363.59C197.23,-356.79 122.73,-345.16 59,-327 57.11,-326.46 55.19,-325.85 53.26,-325.19"/>
<polygon fill="#63b8ff" stroke="#63b8ff" points="54.38,-321.88 43.79,-321.62 51.91,-328.43 54.38,-321.88"/>
</a>
</g>
</g>
<!-- Node3 -->
<g id="Node000003" class="node">
<title>Node3</title>
<g id="a_Node000003"><a xlink:title=" ">
<polygon fill="#e0e0e0" stroke="#999999" points="118,-321.5 68,-321.5 68,-302.5 118,-302.5 118,-321.5"/>
<text text-anchor="middle" x="93" y="-309.5" font-family="Helvetica,sans-Serif" font-size="10.00">cstdint</text>
</a>
</g>
</g>
<!-- Node1&#45;&gt;Node3 -->
<g id="edge2_Node000001_Node000003" class="edge">
<title>Node1&#45;&gt;Node3</title>
<g id="a_edge2_Node000001_Node000003"><a xlink:title=" ">
<path fill="none" stroke="#63b8ff" d="M282.47,-362.93C242.69,-354.89 182.99,-341.91 132,-327 129.73,-326.34 127.4,-325.61 125.06,-324.85"/>
<polygon fill="#63b8ff" stroke="#63b8ff" points="126.13,-321.52 115.53,-321.61 123.87,-328.15 126.13,-321.52"/>
</a>
</g>
</g>
<!-- Node4 -->
<g id="Node000004" class="node">
<title>Node4</title>
<g id="a_Node000004"><a xlink:title=" ">
<polygon fill="#e0e0e0" stroke="#999999" points="130.5,-206 65.5,-206 65.5,-187 130.5,-187 130.5,-206"/>
<text text-anchor="middle" x="98" y="-194" font-family="Helvetica,sans-Serif" font-size="10.00">stdexcept</text>
</a>
</g>
</g>
<!-- Node1&#45;&gt;Node4 -->
<g id="edge3_Node000001_Node000004" class="edge">
<title>Node1&#45;&gt;Node4</title>
<g id="a_edge3_Node000001_Node000004"><a xlink:title=" ">
<path fill="none" stroke="#63b8ff" d="M303.2,-362.9C283.25,-355.11 254.5,-342.5 232,-327 182.69,-293.03 134.64,-240.49 111.8,-213.99"/>
<polygon fill="#63b8ff" stroke="#63b8ff" points="114.2,-211.41 105.06,-206.06 108.87,-215.95 114.2,-211.41"/>
</a>
</g>
</g>
<!-- Node5 -->
<g id="Node000005" class="node">
<title>Node5</title>
<g id="a_Node000005"><a xlink:title=" ">
<polygon fill="#e0e0e0" stroke="#999999" points="193,-206 149,-206 149,-187 193,-187 193,-206"/>
<text text-anchor="middle" x="171" y="-194" font-family="Helvetica,sans-Serif" font-size="10.00">string</text>
</a>
</g>
</g>
<!-- Node1&#45;&gt;Node5 -->
<g id="edge4_Node000001_Node000005" class="edge">
<title>Node1&#45;&gt;Node5</title>
<g id="a_edge4_Node000001_Node000005"><a xlink:title=" ">
<path fill="none" stroke="#63b8ff" d="M314.33,-362.74C290.16,-345.53 236.89,-305.14 203,-261 192.32,-247.09 183.64,-229.07 178.03,-215.78"/>
<polygon fill="#63b8ff" stroke="#63b8ff" points="181.2,-214.27 174.21,-206.31 174.7,-216.89 181.2,-214.27"/>
</a>
</g>
</g>
<!-- Node6 -->
<g id="Node000006" class="node">
<title>Node6</title>
<g id="a_Node000006"><a xlink:title=" ">
<polygon fill="#e0e0e0" stroke="#999999" points="512.5,-206 439.5,-206 439.5,-187 512.5,-187 512.5,-206"/>
<text text-anchor="middle" x="476" y="-194" font-family="Helvetica,sans-Serif" font-size="10.00">string_view</text>
</a>
</g>
</g>
<!-- Node1&#45;&gt;Node6 -->
<g id="edge5_Node000001_Node000006" class="edge">
<title>Node1&#45;&gt;Node6</title>
<g id="a_edge5_Node000001_Node000006"><a xlink:title=" ">
<path fill="none" stroke="#63b8ff" d="M393.06,-362.97C416.19,-356.69 440.28,-345.82 456,-327 482.29,-295.53 481.47,-244.18 478.69,-216.54"/>
<polygon fill="#63b8ff" stroke="#63b8ff" points="482.12,-215.78 477.45,-206.27 475.17,-216.62 482.12,-215.78"/>
</a>
</g>
</g>
<!-- Node7 -->
<g id="Node000007" class="node">
<title>Node7</title>
<g id="a_Node000007"><a xlink:title=" ">
<polygon fill="#e0e0e0" stroke="#999999" points="526.5,-19 457.5,-19 457.5,0 526.5,0 526.5,-19"/>
<text text-anchor="middle" x="492" y="-7" font-family="Helvetica,sans-Serif" font-size="10.00">type_traits</text>
</a>
</g>
</g>
<!-- Node1&#45;&gt;Node7 -->
<g id="edge6_Node000001_Node000007" class="edge">
<title>Node1&#45;&gt;Node7</title>
<g id="a_edge6_Node000001_Node000007"><a xlink:title=" ">
<path fill="none" stroke="#63b8ff" d="M402.57,-370.73C486.1,-365.4 609,-342.3 609,-252.5 609,-252.5 609,-252.5 609,-135 609,-94.84 594.65,-84.13 567,-55 554.43,-41.76 537.06,-31.12 522.2,-23.57"/>
<polygon fill="#63b8ff" stroke="#63b8ff" points="523.4,-20.26 512.88,-19.05 520.35,-26.56 523.4,-20.26"/>
</a>
</g>
</g>
<!-- Node8 -->
<g id="Node000008" class="node">
<title>Node8</title>
<g id="a_Node000008"><a xlink:title=" ">
<polygon fill="#e0e0e0" stroke="#999999" points="780.5,-327 637.5,-327 637.5,-297 780.5,-297 780.5,-327"/>
<text text-anchor="start" x="645.5" y="-315" font-family="Helvetica,sans-Serif" font-size="10.00">boost/numeric/conversion</text>
<text text-anchor="middle" x="709" y="-304" font-family="Helvetica,sans-Serif" font-size="10.00">/cast.hpp</text>
</a>
</g>
</g>
<!-- Node1&#45;&gt;Node8 -->
<g id="edge7_Node000001_Node000008" class="edge">
<title>Node1&#45;&gt;Node8</title>
<g id="a_edge7_Node000001_Node000008"><a xlink:title=" ">
<path fill="none" stroke="#63b8ff" d="M385.16,-362.97C444.87,-354.16 540.47,-339.92 623,-327 624.3,-326.8 625.62,-326.59 626.94,-326.38"/>
<polygon fill="#63b8ff" stroke="#63b8ff" points="627.89,-329.78 637.21,-324.75 626.79,-322.86 627.89,-329.78"/>
</a>
</g>
</g>
<!-- Node9 -->
<g id="Node000009" class="node">
<title>Node9</title>
<g id="a_Node000009"><a xlink:href="../../d3/d3c/core_2include_2userver_2dump_2operations_8hpp_source.html" target="_top" xlink:title=" ">
<polygon fill="white" stroke="#666666" points="372,-261 212,-261 212,-242 372,-242 372,-261"/>
<text text-anchor="middle" x="292" y="-249" font-family="Helvetica,sans-Serif" font-size="10.00">userver/dump/operations.hpp</text>
</a>
</g>
</g>
<!-- Node1&#45;&gt;Node9 -->
<g id="edge8_Node000001_Node000009" class="edge">
<title>Node1&#45;&gt;Node9</title>
<g id="a_edge8_Node000001_Node000009"><a xlink:title=" ">
<path fill="none" stroke="#63b8ff" d="M319,-362.73C311.82,-354.27 301.71,-340.75 297,-327 290.77,-308.82 290.08,-286.72 290.6,-271.33"/>
<polygon fill="#63b8ff" stroke="#63b8ff" points="294.11,-271.22 291.16,-261.05 287.12,-270.84 294.11,-271.22"/>
</a>
</g>
</g>
<!-- Node13 -->
<g id="Node000013" class="node">
<title>Node13</title>
<g id="a_Node000013"><a xlink:href="../../d3/da0/meta__light_8hpp.html" target="_top" xlink:title="Lightweight concepts.">
<polygon fill="white" stroke="#666666" points="564,-151 458,-151 458,-121 564,-121 564,-151"/>
<text text-anchor="start" x="466" y="-139" font-family="Helvetica,sans-Serif" font-size="10.00">userver/utils/meta</text>
<text text-anchor="middle" x="511" y="-128" font-family="Helvetica,sans-Serif" font-size="10.00">_light.hpp</text>
</a>
</g>
</g>
<!-- Node1&#45;&gt;Node13 -->
<g id="edge26_Node000001_Node000013" class="edge">
<title>Node1&#45;&gt;Node13</title>
<g id="a_edge26_Node000001_Node000013"><a xlink:title=" ">
<path fill="none" stroke="#63b8ff" d="M402.56,-363.1C428.83,-356.82 456.76,-345.92 477,-327 524.75,-282.37 529.06,-251.97 522,-187 521.08,-178.52 519.3,-169.37 517.44,-161.25"/>
<polygon fill="#63b8ff" stroke="#63b8ff" points="520.79,-160.19 515.01,-151.3 513.98,-161.85 520.79,-160.19"/>
</a>
</g>
</g>
<!-- Node15 -->
<g id="Node000015" class="node">
<title>Node15</title>
<g id="a_Node000015"><a xlink:href="../../dd/d0b/unsafe_8hpp_source.html" target="_top" xlink:title=" ">
<polygon fill="white" stroke="#666666" points="447.5,-321.5 306.5,-321.5 306.5,-302.5 447.5,-302.5 447.5,-321.5"/>
<text text-anchor="middle" x="377" y="-309.5" font-family="Helvetica,sans-Serif" font-size="10.00">userver/dump/unsafe.hpp</text>
</a>
</g>
</g>
<!-- Node1&#45;&gt;Node15 -->
<g id="edge23_Node000001_Node000015" class="edge">
<title>Node1&#45;&gt;Node15</title>
<g id="a_edge23_Node000001_Node000015"><a xlink:title=" ">
<path fill="none" stroke="#63b8ff" d="M334.38,-362.87C341.91,-354.05 353.79,-340.16 363.09,-329.27"/>
<polygon fill="#63b8ff" stroke="#63b8ff" points="365.76,-331.54 369.59,-321.67 360.43,-327 365.76,-331.54"/>
</a>
</g>
</g>
<!-- Node9&#45;&gt;Node4 -->
<g id="edge9_Node000009_Node000004" class="edge">
<title>Node9&#45;&gt;Node4</title>
<g id="a_edge9_Node000009_Node000004"><a xlink:title=" ">
<path fill="none" stroke="#63b8ff" d="M260.83,-241.98C227.84,-232.97 175.6,-218.7 139.23,-208.76"/>
<polygon fill="#63b8ff" stroke="#63b8ff" points="139.98,-205.34 129.41,-206.08 138.14,-212.09 139.98,-205.34"/>
</a>
</g>
</g>
<!-- Node9&#45;&gt;Node5 -->
<g id="edge10_Node000009_Node000005" class="edge">
<title>Node9&#45;&gt;Node5</title>
<g id="a_edge10_Node000009_Node000005"><a xlink:title=" ">
<path fill="none" stroke="#63b8ff" d="M272.56,-241.98C253.01,-233.42 222.62,-220.11 200.18,-210.28"/>
<polygon fill="#63b8ff" stroke="#63b8ff" points="201.36,-206.98 190.79,-206.17 198.55,-213.39 201.36,-206.98"/>
</a>
</g>
</g>
<!-- Node9&#45;&gt;Node6 -->
<g id="edge11_Node000009_Node000006" class="edge">
<title>Node9&#45;&gt;Node6</title>
<g id="a_edge11_Node000009_Node000006"><a xlink:title=" ">
<path fill="none" stroke="#63b8ff" d="M321.56,-241.98C352.72,-233.01 401.97,-218.82 436.46,-208.89"/>
<polygon fill="#63b8ff" stroke="#63b8ff" points="437.57,-212.21 446.21,-206.08 435.63,-205.49 437.57,-212.21"/>
</a>
</g>
</g>
<!-- Node9&#45;&gt;Node7 -->
<g id="edge12_Node000009_Node000007" class="edge">
<title>Node9&#45;&gt;Node7</title>
<g id="a_edge12_Node000009_Node000007"><a xlink:title=" ">
<path fill="none" stroke="#63b8ff" d="M285.02,-241.93C261.78,-212.34 191.24,-113.12 240,-55 265.95,-24.06 382.1,-14.63 447.28,-11.75"/>
<polygon fill="#63b8ff" stroke="#63b8ff" points="447.43,-15.25 457.28,-11.34 447.14,-8.25 447.43,-15.25"/>
</a>
</g>
</g>
<!-- Node10 -->
<g id="Node000010" class="node">
<title>Node10</title>
<g id="a_Node000010"><a xlink:href="../../db/d0c/core_2include_2userver_2dump_2fwd_8hpp.html" target="_top" xlink:title="Forward declarations of dump::Reader, dump::Writer and dump::To.">
<polygon fill="white" stroke="#666666" points="374.5,-145.5 249.5,-145.5 249.5,-126.5 374.5,-126.5 374.5,-145.5"/>
<text text-anchor="middle" x="312" y="-133.5" font-family="Helvetica,sans-Serif" font-size="10.00">userver/dump/fwd.hpp</text>
</a>
</g>
</g>
<!-- Node9&#45;&gt;Node10 -->
<g id="edge13_Node000009_Node000010" class="edge">
<title>Node9&#45;&gt;Node10</title>
<g id="a_edge13_Node000009_Node000010"><a xlink:title=" ">
<path fill="none" stroke="#63b8ff" d="M287.25,-241.76C281.17,-229.4 272.09,-206.21 278,-187 281.79,-174.68 289.77,-162.68 297.04,-153.52"/>
<polygon fill="#63b8ff" stroke="#63b8ff" points="299.87,-155.6 303.64,-145.7 294.51,-151.09 299.87,-155.6"/>
</a>
</g>
</g>
<!-- Node12 -->
<g id="Node000012" class="node">
<title>Node12</title>
<g id="a_Node000012"><a xlink:href="../../d9/d0d/core_2include_2userver_2dump_2meta_8hpp.html" target="_top" xlink:title="Provides dump::kIsDumpable and includes userver/dump/fwd.hpp.">
<polygon fill="white" stroke="#666666" points="421,-206 287,-206 287,-187 421,-187 421,-206"/>
<text text-anchor="middle" x="354" y="-194" font-family="Helvetica,sans-Serif" font-size="10.00">userver/dump/meta.hpp</text>
</a>
</g>
</g>
<!-- Node9&#45;&gt;Node12 -->
<g id="edge16_Node000009_Node000012" class="edge">
<title>Node9&#45;&gt;Node12</title>
<g id="a_edge16_Node000009_Node000012"><a xlink:title=" ">
<path fill="none" stroke="#63b8ff" d="M301.96,-241.98C311.13,-234.15 324.94,-222.34 336.03,-212.86"/>
<polygon fill="#63b8ff" stroke="#63b8ff" points="338.53,-215.33 343.86,-206.17 333.98,-210.01 338.53,-215.33"/>
</a>
</g>
</g>
<!-- Node11 -->
<g id="Node000011" class="node">
<title>Node11</title>
<g id="a_Node000011"><a xlink:href="../../d4/d56/core_2include_2userver_2dump_2to_8hpp.html" target="_top" xlink:title="A marker type used in ADL&#45;found Read">
<polygon fill="white" stroke="#666666" points="367,-79.5 249,-79.5 249,-60.5 367,-60.5 367,-79.5"/>
<text text-anchor="middle" x="308" y="-67.5" font-family="Helvetica,sans-Serif" font-size="10.00">userver/dump/to.hpp</text>
</a>
</g>
</g>
<!-- Node10&#45;&gt;Node11 -->
<g id="edge14_Node000010_Node000011" class="edge">
<title>Node10&#45;&gt;Node11</title>
<g id="a_edge14_Node000010_Node000011"><a xlink:title=" ">
<path fill="none" stroke="#63b8ff" d="M311.46,-126.37C310.88,-117.07 309.94,-101.98 309.18,-89.9"/>
<polygon fill="#63b8ff" stroke="#63b8ff" points="312.67,-89.67 308.56,-79.91 305.69,-90.1 312.67,-89.67"/>
</a>
</g>
</g>
<!-- Node11&#45;&gt;Node11 -->
<g id="edge15_Node000011_Node000011" class="edge">
<title>Node11&#45;&gt;Node11</title>
<g id="a_edge15_Node000011_Node000011"><a xlink:title=" ">
<path fill="none" stroke="#63b8ff" d="M336.43,-79.53C360.18,-83.61 385,-80.43 385,-70 385,-61.04 366.67,-57.43 346.44,-59.18"/>
<polygon fill="#63b8ff" stroke="#63b8ff" points="345.9,-55.72 336.43,-60.47 346.8,-62.66 345.9,-55.72"/>
</a>
</g>
</g>
<!-- Node12&#45;&gt;Node7 -->
<g id="edge17_Node000012_Node000007" class="edge">
<title>Node12&#45;&gt;Node7</title>
<g id="a_edge17_Node000012_Node000007"><a xlink:title=" ">
<path fill="none" stroke="#63b8ff" d="M360.06,-186.81C366.13,-177.96 375.61,-163.77 383,-151 407,-109.54 401.06,-91.57 432,-55 442.15,-43.01 456.12,-32.4 468.04,-24.56"/>
<polygon fill="#63b8ff" stroke="#63b8ff" points="470.06,-27.42 476.64,-19.12 466.32,-21.5 470.06,-27.42"/>
</a>
</g>
</g>
<!-- Node12&#45;&gt;Node10 -->
<g id="edge18_Node000012_Node000010" class="edge">
<title>Node12&#45;&gt;Node10</title>
<g id="a_edge18_Node000012_Node000010"><a xlink:title=" ">
<path fill="none" stroke="#63b8ff" d="M347.8,-186.87C341.6,-178.23 331.89,-164.7 324.14,-153.92"/>
<polygon fill="#63b8ff" stroke="#63b8ff" points="326.9,-151.75 318.22,-145.67 321.21,-155.83 326.9,-151.75"/>
</a>
</g>
</g>
<!-- Node12&#45;&gt;Node13 -->
<g id="edge19_Node000012_Node000013" class="edge">
<title>Node12&#45;&gt;Node13</title>
<g id="a_edge19_Node000012_Node000013"><a xlink:title=" ">
<path fill="none" stroke="#63b8ff" d="M376.83,-186.99C399.52,-178.54 435,-165.32 463.78,-154.59"/>
<polygon fill="#63b8ff" stroke="#63b8ff" points="465.11,-157.84 473.25,-151.06 462.66,-151.28 465.11,-157.84"/>
</a>
</g>
</g>
<!-- Node13&#45;&gt;Node7 -->
<g id="edge20_Node000013_Node000007" class="edge">
<title>Node13&#45;&gt;Node7</title>
<g id="a_edge20_Node000013_Node000007"><a xlink:title=" ">
<path fill="none" stroke="#63b8ff" d="M526.96,-120.87C542.95,-104.91 563.65,-78.14 552,-55 545.31,-41.71 532.56,-31.39 520.53,-24.05"/>
<polygon fill="#63b8ff" stroke="#63b8ff" points="522.01,-20.87 511.58,-19.02 518.58,-26.97 522.01,-20.87"/>
</a>
</g>
</g>
<!-- Node14 -->
<g id="Node000014" class="node">
<title>Node14</title>
<g id="a_Node000014"><a xlink:href="../../d9/dce/void__t_8hpp.html" target="_top" xlink:title="std::void_t implementation with workarounds for compiler bugs">
<polygon fill="white" stroke="#666666" points="542.5,-85 441.5,-85 441.5,-55 542.5,-55 542.5,-85"/>
<text text-anchor="start" x="449.5" y="-73" font-family="Helvetica,sans-Serif" font-size="10.00">userver/utils/void</text>
<text text-anchor="middle" x="492" y="-62" font-family="Helvetica,sans-Serif" font-size="10.00">_t.hpp</text>
</a>
</g>
</g>
<!-- Node13&#45;&gt;Node14 -->
<g id="edge21_Node000013_Node000014" class="edge">
<title>Node13&#45;&gt;Node14</title>
<g id="a_edge21_Node000013_Node000014"><a xlink:title=" ">
<path fill="none" stroke="#63b8ff" d="M506.78,-120.8C504.52,-113.17 501.67,-103.57 499.08,-94.84"/>
<polygon fill="#63b8ff" stroke="#63b8ff" points="502.41,-93.75 496.2,-85.16 495.7,-95.75 502.41,-93.75"/>
</a>
</g>
</g>
<!-- Node14&#45;&gt;Node7 -->
<g id="edge22_Node000014_Node000007" class="edge">
<title>Node14&#45;&gt;Node7</title>
<g id="a_edge22_Node000014_Node000007"><a xlink:title=" ">
<path fill="none" stroke="#63b8ff" d="M492,-54.84C492,-47.21 492,-37.7 492,-29.45"/>
<polygon fill="#63b8ff" stroke="#63b8ff" points="495.5,-29.27 492,-19.27 488.5,-29.27 495.5,-29.27"/>
</a>
</g>
</g>
<!-- Node15&#45;&gt;Node6 -->
<g id="edge24_Node000015_Node000006" class="edge">
<title>Node15&#45;&gt;Node6</title>
<g id="a_edge24_Node000015_Node000006"><a xlink:title=" ">
<path fill="none" stroke="#63b8ff" d="M384.44,-302.47C400.85,-283.65 440.39,-238.32 461.75,-213.84"/>
<polygon fill="#63b8ff" stroke="#63b8ff" points="464.54,-215.97 468.47,-206.13 459.26,-211.37 464.54,-215.97"/>
</a>
</g>
</g>
<!-- Node15&#45;&gt;Node9 -->
<g id="edge25_Node000015_Node000009" class="edge">
<title>Node15&#45;&gt;Node9</title>
<g id="a_edge25_Node000015_Node000009"><a xlink:title=" ">
<path fill="none" stroke="#63b8ff" d="M364.46,-302.37C350.9,-293.04 329.06,-278.01 312.9,-266.88"/>
<polygon fill="#63b8ff" stroke="#63b8ff" points="314.82,-263.95 304.59,-261.17 310.85,-269.72 314.82,-263.95"/>
</a>
</g>
</g>
</g>
</svg>
