<?xml version="1.0" encoding="UTF-8" standalone="no"?>
<!DOCTYPE svg PUBLIC "-//W3C//DTD SVG 1.1//EN"
 "http://www.w3.org/Graphics/SVG/1.1/DTD/svg11.dtd">
<!-- Generated by graphviz version 2.43.0 (0)
 -->
<!-- Title: userver/formats/yaml_fwd.hpp Pages: 1 -->
<svg width="987pt" height="390pt"
 viewBox="0.00 0.00 986.50 390.00" xmlns="http://www.w3.org/2000/svg" xmlns:xlink="http://www.w3.org/1999/xlink">
<g id="graph0" class="graph" transform="scale(1 1) rotate(0) translate(4 386)">
<title>userver/formats/yaml_fwd.hpp</title>
<!-- Node1 -->
<g id="Node000001" class="node">
<title>Node1</title>
<g id="a_Node000001"><a xlink:title="Forward declarations of formats::yaml types, formats::parse::To and formats::serialize::To.">
<polygon fill="#999999" stroke="#666666" points="554.5,-382 432.5,-382 432.5,-352 554.5,-352 554.5,-382"/>
<text text-anchor="start" x="440.5" y="-370" font-family="Helvetica,sans-Serif" font-size="10.00">userver/formats/yaml</text>
<text text-anchor="middle" x="493.5" y="-359" font-family="Helvetica,sans-Serif" font-size="10.00">_fwd.hpp</text>
</a>
</g>
</g>
<!-- Node2 -->
<g id="Node000002" class="node">
<title>Node2</title>
<g id="a_Node000002"><a xlink:href="../../d2/d67/schema_8hpp.html" target="_top" xlink:title="JSON Schema&#45;like type definition.">
<polygon fill="white" stroke="#666666" points="551.5,-316 435.5,-316 435.5,-286 551.5,-286 551.5,-316"/>
<text text-anchor="start" x="443.5" y="-304" font-family="Helvetica,sans-Serif" font-size="10.00">userver/yaml_config</text>
<text text-anchor="middle" x="493.5" y="-293" font-family="Helvetica,sans-Serif" font-size="10.00">/schema.hpp</text>
</a>
</g>
</g>
<!-- Node1&#45;&gt;Node2 -->
<g id="edge1_Node000001_Node000002" class="edge">
<title>Node1&#45;&gt;Node2</title>
<g id="a_edge1_Node000001_Node000002"><a xlink:title=" ">
<path fill="none" stroke="#63b8ff" d="M493.5,-341.54C493.5,-332.96 493.5,-323.61 493.5,-316.16"/>
<polygon fill="#63b8ff" stroke="#63b8ff" points="490,-341.8 493.5,-351.8 497,-341.8 490,-341.8"/>
</a>
</g>
</g>
<!-- Node3 -->
<g id="Node000003" class="node">
<title>Node3</title>
<g id="a_Node000003"><a xlink:href="../../df/d56/caching__component__base_8hpp.html" target="_top" xlink:title="Base class for caching components.">
<polygon fill="white" stroke="#666666" points="265.5,-244.5 139.5,-244.5 139.5,-214.5 265.5,-214.5 265.5,-244.5"/>
<text text-anchor="start" x="147.5" y="-232.5" font-family="Helvetica,sans-Serif" font-size="10.00">userver/cache/caching</text>
<text text-anchor="middle" x="202.5" y="-221.5" font-family="Helvetica,sans-Serif" font-size="10.00">_component_base.hpp</text>
</a>
</g>
</g>
<!-- Node2&#45;&gt;Node3 -->
<g id="edge2_Node000002_Node000003" class="edge">
<title>Node2&#45;&gt;Node3</title>
<g id="a_edge2_Node000002_Node000003"><a xlink:title=" ">
<path fill="none" stroke="#63b8ff" d="M425.39,-285.19C382.08,-275.59 324.88,-262.57 274.5,-250 267.71,-248.31 260.59,-246.46 253.57,-244.6"/>
<polygon fill="#63b8ff" stroke="#63b8ff" points="424.73,-288.63 435.25,-287.37 426.24,-281.79 424.73,-288.63"/>
</a>
</g>
</g>
<!-- Node7 -->
<g id="Node000007" class="node">
<title>Node7</title>
<g id="a_Node000007"><a xlink:href="../../d9/daf/lru__cache__component__base_8hpp.html" target="_top" xlink:title="Base class for LRU&#45;cache components.">
<polygon fill="white" stroke="#666666" points="417.5,-244.5 283.5,-244.5 283.5,-214.5 417.5,-214.5 417.5,-244.5"/>
<text text-anchor="start" x="291.5" y="-232.5" font-family="Helvetica,sans-Serif" font-size="10.00">userver/cache/lru_cache</text>
<text text-anchor="middle" x="350.5" y="-221.5" font-family="Helvetica,sans-Serif" font-size="10.00">_component_base.hpp</text>
</a>
</g>
</g>
<!-- Node2&#45;&gt;Node7 -->
<g id="edge6_Node000002_Node000007" class="edge">
<title>Node2&#45;&gt;Node7</title>
<g id="a_edge6_Node000002_Node000007"><a xlink:title=" ">
<path fill="none" stroke="#63b8ff" d="M455.43,-281.5C431.57,-269.9 401.29,-255.18 379.4,-244.54"/>
<polygon fill="#63b8ff" stroke="#63b8ff" points="454.04,-284.71 464.56,-285.94 457.1,-278.42 454.04,-284.71"/>
</a>
</g>
</g>
<!-- Node8 -->
<g id="Node000008" class="node">
<title>Node8</title>
<g id="a_Node000008"><a xlink:href="../../df/d88/static__config__validator_8hpp_source.html" target="_top" xlink:title=" ">
<polygon fill="white" stroke="#666666" points="614.5,-173 464.5,-173 464.5,-143 614.5,-143 614.5,-173"/>
<text text-anchor="start" x="472.5" y="-161" font-family="Helvetica,sans-Serif" font-size="10.00">userver/components</text>
<text text-anchor="middle" x="539.5" y="-150" font-family="Helvetica,sans-Serif" font-size="10.00">/static_config_validator.hpp</text>
</a>
</g>
</g>
<!-- Node2&#45;&gt;Node8 -->
<g id="edge7_Node000002_Node000008" class="edge">
<title>Node2&#45;&gt;Node8</title>
<g id="a_edge7_Node000002_Node000008"><a xlink:title=" ">
<path fill="none" stroke="#63b8ff" d="M532.11,-280.32C543.36,-272.52 554.28,-262.41 560.5,-250 573.15,-224.78 558.9,-191.8 548.48,-173.27"/>
<polygon fill="#63b8ff" stroke="#63b8ff" points="530.05,-277.49 523.53,-285.84 533.83,-283.38 530.05,-277.49"/>
</a>
</g>
</g>
<!-- Node16 -->
<g id="Node000016" class="node">
<title>Node16</title>
<g id="a_Node000016"><a xlink:href="../../d5/d4d/http__handler__flatbuf__base_8hpp.html" target="_top" xlink:title="Convenient base for handlers that accept requests with body in Flatbuffer format and respond with bod...">
<polygon fill="white" stroke="#666666" points="739.5,-250 607.5,-250 607.5,-209 739.5,-209 739.5,-250"/>
<text text-anchor="start" x="615.5" y="-238" font-family="Helvetica,sans-Serif" font-size="10.00">userver/server/handlers</text>
<text text-anchor="start" x="615.5" y="-227" font-family="Helvetica,sans-Serif" font-size="10.00">/http_handler_flatbuf</text>
<text text-anchor="middle" x="673.5" y="-216" font-family="Helvetica,sans-Serif" font-size="10.00">_base.hpp</text>
</a>
</g>
</g>
<!-- Node2&#45;&gt;Node16 -->
<g id="edge15_Node000002_Node000016" class="edge">
<title>Node2&#45;&gt;Node16</title>
<g id="a_edge15_Node000002_Node000016"><a xlink:title=" ">
<path fill="none" stroke="#63b8ff" d="M539.36,-282.29C564.84,-272.46 596.59,-260.2 622.81,-250.07"/>
<polygon fill="#63b8ff" stroke="#63b8ff" points="537.99,-279.07 529.93,-285.94 540.52,-285.6 537.99,-279.07"/>
</a>
</g>
</g>
<!-- Node17 -->
<g id="Node000017" class="node">
<title>Node17</title>
<g id="a_Node000017"><a xlink:href="../../de/db2/http__middleware__base_8hpp.html" target="_top" xlink:title="Base classes for implementing custom middlewares.">
<polygon fill="white" stroke="#666666" points="911,-244.5 758,-244.5 758,-214.5 911,-214.5 911,-244.5"/>
<text text-anchor="start" x="766" y="-232.5" font-family="Helvetica,sans-Serif" font-size="10.00">userver/server/middlewares</text>
<text text-anchor="middle" x="834.5" y="-221.5" font-family="Helvetica,sans-Serif" font-size="10.00">/http_middleware_base.hpp</text>
</a>
</g>
</g>
<!-- Node2&#45;&gt;Node17 -->
<g id="edge16_Node000002_Node000017" class="edge">
<title>Node2&#45;&gt;Node17</title>
<g id="a_edge16_Node000002_Node000017"><a xlink:title=" ">
<path fill="none" stroke="#63b8ff" d="M561.58,-287.21C613.01,-277.42 685.29,-263.36 748.5,-250 756.59,-248.29 765.09,-246.43 773.47,-244.57"/>
<polygon fill="#63b8ff" stroke="#63b8ff" points="560.75,-283.81 551.58,-289.11 562.06,-290.69 560.75,-283.81"/>
</a>
</g>
</g>
<!-- Node18 -->
<g id="Node000018" class="node">
<title>Node18</title>
<g id="a_Node000018"><a xlink:href="../../d2/d80/validate__static__config_8hpp_source.html" target="_top" xlink:title=" ">
<polygon fill="white" stroke="#666666" points="551.5,-250 435.5,-250 435.5,-209 551.5,-209 551.5,-250"/>
<text text-anchor="start" x="443.5" y="-238" font-family="Helvetica,sans-Serif" font-size="10.00">userver/yaml_config</text>
<text text-anchor="start" x="443.5" y="-227" font-family="Helvetica,sans-Serif" font-size="10.00">/impl/validate_static</text>
<text text-anchor="middle" x="493.5" y="-216" font-family="Helvetica,sans-Serif" font-size="10.00">_config.hpp</text>
</a>
</g>
</g>
<!-- Node2&#45;&gt;Node18 -->
<g id="edge17_Node000002_Node000018" class="edge">
<title>Node2&#45;&gt;Node18</title>
<g id="a_edge17_Node000002_Node000018"><a xlink:title=" ">
<path fill="none" stroke="#63b8ff" d="M493.5,-275.91C493.5,-267.47 493.5,-258.1 493.5,-250.07"/>
<polygon fill="#63b8ff" stroke="#63b8ff" points="490,-275.94 493.5,-285.94 497,-275.94 490,-275.94"/>
</a>
</g>
</g>
<!-- Node19 -->
<g id="Node000019" class="node">
<title>Node19</title>
<g id="a_Node000019"><a xlink:href="../../dc/d5f/merge__schemas_8hpp.html" target="_top" xlink:title="Merge parent and child components schemas of static configs.">
<polygon fill="white" stroke="#666666" points="121,-244.5 0,-244.5 0,-214.5 121,-214.5 121,-244.5"/>
<text text-anchor="start" x="8" y="-232.5" font-family="Helvetica,sans-Serif" font-size="10.00">userver/yaml_config</text>
<text text-anchor="middle" x="60.5" y="-221.5" font-family="Helvetica,sans-Serif" font-size="10.00">/merge_schemas.hpp</text>
</a>
</g>
</g>
<!-- Node2&#45;&gt;Node19 -->
<g id="edge19_Node000002_Node000019" class="edge">
<title>Node2&#45;&gt;Node19</title>
<g id="a_edge19_Node000002_Node000019"><a xlink:title=" ">
<path fill="none" stroke="#63b8ff" d="M425.22,-293.37C351.9,-285.61 232.24,-271.08 130.5,-250 123.09,-248.46 115.31,-246.58 107.73,-244.59"/>
<polygon fill="#63b8ff" stroke="#63b8ff" points="424.94,-296.86 435.25,-294.42 425.67,-289.9 424.94,-296.86"/>
</a>
</g>
</g>
<!-- Node4 -->
<g id="Node000004" class="node">
<title>Node4</title>
<g id="a_Node000004"><a xlink:href="../../dd/d6c/base__mongo__cache_8hpp.html" target="_top" xlink:title="Base class for all caches polling mongo collection">
<polygon fill="white" stroke="#666666" points="116,-173 5,-173 5,-143 116,-143 116,-173"/>
<text text-anchor="start" x="13" y="-161" font-family="Helvetica,sans-Serif" font-size="10.00">userver/cache/base</text>
<text text-anchor="middle" x="60.5" y="-150" font-family="Helvetica,sans-Serif" font-size="10.00">_mongo_cache.hpp</text>
</a>
</g>
</g>
<!-- Node3&#45;&gt;Node4 -->
<g id="edge3_Node000003_Node000004" class="edge">
<title>Node3&#45;&gt;Node4</title>
<g id="a_edge3_Node000003_Node000004"><a xlink:title=" ">
<path fill="none" stroke="#63b8ff" d="M164.7,-210C141,-198.4 110.93,-183.68 89.19,-173.04"/>
<polygon fill="#63b8ff" stroke="#63b8ff" points="163.24,-213.18 173.76,-214.44 166.32,-206.9 163.24,-213.18"/>
</a>
</g>
</g>
<!-- Node5 -->
<g id="Node000005" class="node">
<title>Node5</title>
<g id="a_Node000005"><a xlink:href="../../dc/df7/base__postgres__cache_8hpp.html" target="_top" xlink:title="Caching component for PostgreSQL. See Caching Component for PostgreSQL.">
<polygon fill="white" stroke="#666666" points="253,-173 134,-173 134,-143 253,-143 253,-173"/>
<text text-anchor="start" x="142" y="-161" font-family="Helvetica,sans-Serif" font-size="10.00">userver/cache/base</text>
<text text-anchor="middle" x="193.5" y="-150" font-family="Helvetica,sans-Serif" font-size="10.00">_postgres_cache.hpp</text>
</a>
</g>
</g>
<!-- Node3&#45;&gt;Node5 -->
<g id="edge4_Node000003_Node000005" class="edge">
<title>Node3&#45;&gt;Node5</title>
<g id="a_edge4_Node000003_Node000005"><a xlink:title=" ">
<path fill="none" stroke="#63b8ff" d="M199.36,-204.25C198.01,-193.81 196.48,-181.99 195.32,-173.04"/>
<polygon fill="#63b8ff" stroke="#63b8ff" points="195.92,-204.97 200.68,-214.44 202.87,-204.07 195.92,-204.97"/>
</a>
</g>
</g>
<!-- Node6 -->
<g id="Node000006" class="node">
<title>Node6</title>
<g id="a_Node000006"><a xlink:href="../../db/df3/core_2include_2userver_2dynamic__config_2updater_2component_8hpp.html" target="_top" xlink:title="Component that does a periodic update of runtime configs.">
<polygon fill="white" stroke="#666666" points="407.5,-173 271.5,-173 271.5,-143 407.5,-143 407.5,-173"/>
<text text-anchor="start" x="279.5" y="-161" font-family="Helvetica,sans-Serif" font-size="10.00">userver/dynamic_config</text>
<text text-anchor="middle" x="339.5" y="-150" font-family="Helvetica,sans-Serif" font-size="10.00">/updater/component.hpp</text>
</a>
</g>
</g>
<!-- Node3&#45;&gt;Node6 -->
<g id="edge5_Node000003_Node000006" class="edge">
<title>Node3&#45;&gt;Node6</title>
<g id="a_edge5_Node000003_Node000006"><a xlink:title=" ">
<path fill="none" stroke="#63b8ff" d="M239.28,-209.84C262.09,-198.27 290.94,-183.64 311.82,-173.04"/>
<polygon fill="#63b8ff" stroke="#63b8ff" points="237.56,-206.79 230.22,-214.44 240.73,-213.03 237.56,-206.79"/>
</a>
</g>
</g>
<!-- Node9 -->
<g id="Node000009" class="node">
<title>Node9</title>
<g id="a_Node000009"><a xlink:href="../../d9/d32/component__list_8hpp.html" target="_top" xlink:title="A list to keep a unique list of components to start with components::Run(), utils::DaemonMain() or co...">
<polygon fill="white" stroke="#666666" points="597.5,-107 481.5,-107 481.5,-77 597.5,-77 597.5,-107"/>
<text text-anchor="start" x="489.5" y="-95" font-family="Helvetica,sans-Serif" font-size="10.00">userver/components</text>
<text text-anchor="middle" x="539.5" y="-84" font-family="Helvetica,sans-Serif" font-size="10.00">/component_list.hpp</text>
</a>
</g>
</g>
<!-- Node8&#45;&gt;Node9 -->
<g id="edge8_Node000008_Node000009" class="edge">
<title>Node8&#45;&gt;Node9</title>
<g id="a_edge8_Node000008_Node000009"><a xlink:title=" ">
<path fill="none" stroke="#63b8ff" d="M539.5,-132.54C539.5,-123.96 539.5,-114.61 539.5,-107.16"/>
<polygon fill="#63b8ff" stroke="#63b8ff" points="536,-132.8 539.5,-142.8 543,-132.8 536,-132.8"/>
</a>
</g>
</g>
<!-- Node10 -->
<g id="Node000010" class="node">
<title>Node10</title>
<g id="a_Node000010"><a xlink:href="../../d1/d1c/common__component__list_8hpp.html" target="_top" xlink:title="Returns the most common list of components with runtime config updates and HTTP client.">
<polygon fill="white" stroke="#666666" points="176.5,-35.5 12.5,-35.5 12.5,-5.5 176.5,-5.5 176.5,-35.5"/>
<text text-anchor="start" x="20.5" y="-23.5" font-family="Helvetica,sans-Serif" font-size="10.00">userver/components</text>
<text text-anchor="middle" x="94.5" y="-12.5" font-family="Helvetica,sans-Serif" font-size="10.00">/common_component_list.hpp</text>
</a>
</g>
</g>
<!-- Node9&#45;&gt;Node10 -->
<g id="edge9_Node000009_Node000010" class="edge">
<title>Node9&#45;&gt;Node10</title>
<g id="a_edge9_Node000009_Node000010"><a xlink:title=" ">
<path fill="none" stroke="#63b8ff" d="M471.14,-82.8C399.67,-73.89 284.38,-58.55 185.5,-41 176.27,-39.36 166.56,-37.47 157.04,-35.51"/>
<polygon fill="#63b8ff" stroke="#63b8ff" points="471,-86.31 481.35,-84.07 471.86,-79.36 471,-86.31"/>
</a>
</g>
</g>
<!-- Node11 -->
<g id="Node000011" class="node">
<title>Node11</title>
<g id="a_Node000011"><a xlink:href="../../dc/dec/common__server__component__list_8hpp.html" target="_top" xlink:title="Returns the most common list of components to start a fully functional server.">
<polygon fill="white" stroke="#666666" points="352.5,-41 194.5,-41 194.5,0 352.5,0 352.5,-41"/>
<text text-anchor="start" x="202.5" y="-29" font-family="Helvetica,sans-Serif" font-size="10.00">userver/components</text>
<text text-anchor="start" x="202.5" y="-18" font-family="Helvetica,sans-Serif" font-size="10.00">/common_server_component</text>
<text text-anchor="middle" x="273.5" y="-7" font-family="Helvetica,sans-Serif" font-size="10.00">_list.hpp</text>
</a>
</g>
</g>
<!-- Node9&#45;&gt;Node11 -->
<g id="edge10_Node000009_Node000011" class="edge">
<title>Node9&#45;&gt;Node11</title>
<g id="a_edge10_Node000009_Node000011"><a xlink:title=" ">
<path fill="none" stroke="#63b8ff" d="M475.66,-74.32C437.3,-64.3 388.31,-51.5 348.16,-41.01"/>
<polygon fill="#63b8ff" stroke="#63b8ff" points="475.11,-77.79 485.67,-76.94 476.88,-71.02 475.11,-77.79"/>
</a>
</g>
</g>
<!-- Node12 -->
<g id="Node000012" class="node">
<title>Node12</title>
<g id="a_Node000012"><a xlink:href="../../d9/d9e/minimal__component__list_8hpp.html" target="_top" xlink:title="Returns a list of components to do basic logging, component initialization and configuration.">
<polygon fill="white" stroke="#666666" points="532,-35.5 371,-35.5 371,-5.5 532,-5.5 532,-35.5"/>
<text text-anchor="start" x="379" y="-23.5" font-family="Helvetica,sans-Serif" font-size="10.00">userver/components</text>
<text text-anchor="middle" x="451.5" y="-12.5" font-family="Helvetica,sans-Serif" font-size="10.00">/minimal_component_list.hpp</text>
</a>
</g>
</g>
<!-- Node9&#45;&gt;Node12 -->
<g id="edge11_Node000009_Node000012" class="edge">
<title>Node9&#45;&gt;Node12</title>
<g id="a_edge11_Node000009_Node000012"><a xlink:title=" ">
<path fill="none" stroke="#63b8ff" d="M513.7,-70.63C499.42,-59.35 482.04,-45.62 469.28,-35.54"/>
<polygon fill="#63b8ff" stroke="#63b8ff" points="511.67,-73.48 521.69,-76.94 516.01,-67.99 511.67,-73.48"/>
</a>
</g>
</g>
<!-- Node13 -->
<g id="Node000013" class="node">
<title>Node13</title>
<g id="a_Node000013"><a xlink:href="../../db/dbf/minimal__server__component__list_8hpp.html" target="_top" xlink:title="Returns a list of components to start a basic HTTP server.">
<polygon fill="white" stroke="#666666" points="706.5,-41 550.5,-41 550.5,0 706.5,0 706.5,-41"/>
<text text-anchor="start" x="558.5" y="-29" font-family="Helvetica,sans-Serif" font-size="10.00">userver/components</text>
<text text-anchor="start" x="558.5" y="-18" font-family="Helvetica,sans-Serif" font-size="10.00">/minimal_server_component</text>
<text text-anchor="middle" x="628.5" y="-7" font-family="Helvetica,sans-Serif" font-size="10.00">_list.hpp</text>
</a>
</g>
</g>
<!-- Node9&#45;&gt;Node13 -->
<g id="edge12_Node000009_Node000013" class="edge">
<title>Node9&#45;&gt;Node13</title>
<g id="a_edge12_Node000009_Node000013"><a xlink:title=" ">
<path fill="none" stroke="#63b8ff" d="M565.4,-70.77C577.38,-61.42 591.56,-50.35 603.43,-41.07"/>
<polygon fill="#63b8ff" stroke="#63b8ff" points="563.24,-68.02 557.51,-76.94 567.55,-73.54 563.24,-68.02"/>
</a>
</g>
</g>
<!-- Node14 -->
<g id="Node000014" class="node">
<title>Node14</title>
<g id="a_Node000014"><a xlink:href="../../da/d51/run_8hpp.html" target="_top" xlink:title="Functions to start a service or tool with the specified config and components::ComponentList.">
<polygon fill="white" stroke="#666666" points="840.5,-35.5 724.5,-35.5 724.5,-5.5 840.5,-5.5 840.5,-35.5"/>
<text text-anchor="start" x="732.5" y="-23.5" font-family="Helvetica,sans-Serif" font-size="10.00">userver/components</text>
<text text-anchor="middle" x="782.5" y="-12.5" font-family="Helvetica,sans-Serif" font-size="10.00">/run.hpp</text>
</a>
</g>
</g>
<!-- Node9&#45;&gt;Node14 -->
<g id="edge13_Node000009_Node000014" class="edge">
<title>Node9&#45;&gt;Node14</title>
<g id="a_edge13_Node000009_Node000014"><a xlink:title=" ">
<path fill="none" stroke="#63b8ff" d="M599.02,-74.19C633.13,-64.53 676.74,-52.15 715.5,-41 721.55,-39.26 727.91,-37.42 734.2,-35.6"/>
<polygon fill="#63b8ff" stroke="#63b8ff" points="597.88,-70.88 589.21,-76.97 599.79,-77.61 597.88,-70.88"/>
</a>
</g>
</g>
<!-- Node15 -->
<g id="Node000015" class="node">
<title>Node15</title>
<g id="a_Node000015"><a xlink:href="../../d7/de0/daemon__run_8hpp.html" target="_top" xlink:title="Functions to start a daemon with specified components list.">
<polygon fill="white" stroke="#666666" points="978.5,-35.5 858.5,-35.5 858.5,-5.5 978.5,-5.5 978.5,-35.5"/>
<text text-anchor="start" x="866.5" y="-23.5" font-family="Helvetica,sans-Serif" font-size="10.00">userver/utils/daemon</text>
<text text-anchor="middle" x="918.5" y="-12.5" font-family="Helvetica,sans-Serif" font-size="10.00">_run.hpp</text>
</a>
</g>
</g>
<!-- Node9&#45;&gt;Node15 -->
<g id="edge14_Node000009_Node000015" class="edge">
<title>Node9&#45;&gt;Node15</title>
<g id="a_edge14_Node000009_Node000015"><a xlink:title=" ">
<path fill="none" stroke="#63b8ff" d="M607.81,-82.29C670.91,-73.71 767.06,-59.23 849.5,-41 856.67,-39.41 864.2,-37.52 871.55,-35.55"/>
<polygon fill="#63b8ff" stroke="#63b8ff" points="607.03,-78.87 597.58,-83.67 607.96,-85.8 607.03,-78.87"/>
</a>
</g>
</g>
<!-- Node18&#45;&gt;Node8 -->
<g id="edge18_Node000018_Node000008" class="edge">
<title>Node18&#45;&gt;Node8</title>
<g id="a_edge18_Node000018_Node000008"><a xlink:title=" ">
<path fill="none" stroke="#63b8ff" d="M512.1,-200.4C518.33,-190.99 525.01,-180.9 530.21,-173.04"/>
<polygon fill="#63b8ff" stroke="#63b8ff" points="509.16,-198.5 506.56,-208.77 515,-202.36 509.16,-198.5"/>
</a>
</g>
</g>
<!-- Node19&#45;&gt;Node4 -->
<g id="edge20_Node000019_Node000004" class="edge">
<title>Node19&#45;&gt;Node4</title>
<g id="a_edge20_Node000019_Node000004"><a xlink:title=" ">
<path fill="none" stroke="#63b8ff" d="M60.5,-204.25C60.5,-193.81 60.5,-181.99 60.5,-173.04"/>
<polygon fill="#63b8ff" stroke="#63b8ff" points="57,-204.44 60.5,-214.44 64,-204.44 57,-204.44"/>
</a>
</g>
</g>
<!-- Node19&#45;&gt;Node5 -->
<g id="edge21_Node000019_Node000005" class="edge">
<title>Node19&#45;&gt;Node5</title>
<g id="a_edge21_Node000019_Node000005"><a xlink:title=" ">
<path fill="none" stroke="#63b8ff" d="M96.5,-209.69C118.6,-198.14 146.45,-183.59 166.63,-173.04"/>
<polygon fill="#63b8ff" stroke="#63b8ff" points="94.66,-206.7 87.41,-214.44 97.9,-212.91 94.66,-206.7"/>
</a>
</g>
</g>
</g>
</svg>
