<?xml version="1.0" encoding="UTF-8" standalone="no"?>
<!DOCTYPE svg PUBLIC "-//W3C//DTD SVG 1.1//EN"
 "http://www.w3.org/Graphics/SVG/1.1/DTD/svg11.dtd">
<!-- Generated by graphviz version 2.43.0 (0)
 -->
<!-- Title: utils::statistics::Request Pages: 1 -->
<svg width="645pt" height="130pt"
 viewBox="0.00 0.00 645.00 130.00" xmlns="http://www.w3.org/2000/svg" xmlns:xlink="http://www.w3.org/1999/xlink">
<g id="graph0" class="graph" transform="scale(1 1) rotate(0) translate(4 126)">
<title>utils::statistics::Request</title>
<!-- Node1 -->
<g id="Node000001" class="node">
<title>Node1</title>
<g id="a_Node000001"><a xlink:title="Class describing the request for metrics data.">
<polygon fill="#999999" stroke="#666666" points="637,-84 543,-84 543,-54 637,-54 637,-84"/>
<text text-anchor="start" x="551" y="-72" font-family="Helvetica,sans-Serif" font-size="10.00">utils::statistics::</text>
<text text-anchor="middle" x="590" y="-61" font-family="Helvetica,sans-Serif" font-size="10.00">Request</text>
</a>
</g>
</g>
<!-- Node2 -->
<g id="Node000002" class="node">
<title>Node2</title>
<g id="a_Node000002"><a xlink:title=" ">
<polygon fill="white" stroke="#666666" points="220.5,-116.5 155.5,-116.5 155.5,-97.5 220.5,-97.5 220.5,-116.5"/>
<text text-anchor="middle" x="188" y="-104.5" font-family="Helvetica,sans-Serif" font-size="10.00">std::string</text>
</a>
</g>
</g>
<!-- Node2&#45;&gt;Node1 -->
<g id="edge1_Node000001_Node000002" class="edge">
<title>Node2&#45;&gt;Node1</title>
<g id="a_edge1_Node000001_Node000002"><a xlink:title=" ">
<path fill="none" stroke="#9a32cd" stroke-dasharray="5,2" d="M230.52,-110.72C238,-111.25 245.73,-111.72 253,-112 274.76,-112.85 280.25,-113.07 302,-112 401.77,-107.1 427.04,-103.53 525,-84 530.82,-82.84 536.92,-81.53 542.94,-80.18"/>
<polygon fill="#9a32cd" stroke="#9a32cd" points="230.78,-107.23 220.55,-109.96 230.25,-114.21 230.78,-107.23"/>
</a>
</g>
<text text-anchor="middle" x="377" y="-114" font-family="Helvetica,sans-Serif" font-size="10.00" fill="grey"> prefix</text>
</g>
<!-- Node6 -->
<g id="Node000006" class="node">
<title>Node6</title>
<g id="a_Node000006"><a xlink:title=" ">
<polygon fill="white" stroke="#666666" points="434,-89.5 320,-89.5 320,-48.5 434,-48.5 434,-89.5"/>
<text text-anchor="start" x="328" y="-77.5" font-family="Helvetica,sans-Serif" font-size="10.00">std::unordered_map</text>
<text text-anchor="start" x="328" y="-66.5" font-family="Helvetica,sans-Serif" font-size="10.00">&lt; std::string, std::</text>
<text text-anchor="middle" x="377" y="-55.5" font-family="Helvetica,sans-Serif" font-size="10.00">string &gt;</text>
</a>
</g>
</g>
<!-- Node2&#45;&gt;Node6 -->
<g id="edge6_Node000006_Node000002" class="edge">
<title>Node2&#45;&gt;Node6</title>
<g id="a_edge6_Node000006_Node000002"><a xlink:title=" ">
<path fill="none" stroke="#9a32cd" stroke-dasharray="5,2" d="M230.65,-95.35C238.07,-93.45 245.74,-91.58 253,-90 274.7,-85.28 298.74,-80.97 319.77,-77.5"/>
<polygon fill="#9a32cd" stroke="#9a32cd" points="229.54,-92.03 220.76,-97.95 231.33,-98.79 229.54,-92.03"/>
</a>
</g>
<text text-anchor="middle" x="277.5" y="-104" font-family="Helvetica,sans-Serif" font-size="10.00" fill="grey"> elements</text>
<text text-anchor="middle" x="277.5" y="-93" font-family="Helvetica,sans-Serif" font-size="10.00" fill="grey">keys</text>
</g>
<!-- Node3 -->
<g id="Node000003" class="node">
<title>Node3</title>
<g id="a_Node000003"><a xlink:title=" ">
<polygon fill="white" stroke="#666666" points="104,-122 0,-122 0,-92 104,-92 104,-122"/>
<text text-anchor="start" x="8" y="-110" font-family="Helvetica,sans-Serif" font-size="10.00">std::basic_string&lt;</text>
<text text-anchor="middle" x="52" y="-99" font-family="Helvetica,sans-Serif" font-size="10.00"> Char &gt;</text>
</a>
</g>
</g>
<!-- Node3&#45;&gt;Node2 -->
<g id="edge2_Node000002_Node000003" class="edge">
<title>Node3&#45;&gt;Node2</title>
<g id="a_edge2_Node000002_Node000003"><a xlink:title=" ">
<path fill="none" stroke="#63b8ff" d="M114.32,-107C128.57,-107 143.16,-107 155.49,-107"/>
<polygon fill="#63b8ff" stroke="#63b8ff" points="114.04,-103.5 104.04,-107 114.04,-110.5 114.04,-103.5"/>
</a>
</g>
</g>
<!-- Node4 -->
<g id="Node000004" class="node">
<title>Node4</title>
<g id="a_Node000004"><a xlink:title=" ">
<polygon fill="white" stroke="#666666" points="432,-30 322,-30 322,0 432,0 432,-30"/>
<text text-anchor="start" x="330" y="-18" font-family="Helvetica,sans-Serif" font-size="10.00">std::vector&lt; utils</text>
<text text-anchor="middle" x="377" y="-7" font-family="Helvetica,sans-Serif" font-size="10.00">::statistics::Label &gt;</text>
</a>
</g>
</g>
<!-- Node4&#45;&gt;Node1 -->
<g id="edge3_Node000001_Node000004" class="edge">
<title>Node4&#45;&gt;Node1</title>
<g id="a_edge3_Node000001_Node000004"><a xlink:title=" ">
<path fill="none" stroke="#9a32cd" stroke-dasharray="5,2" d="M441.95,-31.37C474.51,-39.7 513.36,-49.64 542.94,-57.21"/>
<polygon fill="#9a32cd" stroke="#9a32cd" points="442.62,-27.92 432.06,-28.84 440.88,-34.71 442.62,-27.92"/>
</a>
</g>
<text text-anchor="middle" x="488.5" y="-55" font-family="Helvetica,sans-Serif" font-size="10.00" fill="grey"> require_labels</text>
</g>
<!-- Node5 -->
<g id="Node000005" class="node">
<title>Node5</title>
<g id="a_Node000005"><a xlink:href="../../d0/d15/classutils_1_1statistics_1_1Label.html" target="_top" xlink:title="Label name+value storage.">
<polygon fill="white" stroke="#666666" points="235,-30 141,-30 141,0 235,0 235,-30"/>
<text text-anchor="start" x="149" y="-18" font-family="Helvetica,sans-Serif" font-size="10.00">utils::statistics::</text>
<text text-anchor="middle" x="188" y="-7" font-family="Helvetica,sans-Serif" font-size="10.00">Label</text>
</a>
</g>
</g>
<!-- Node5&#45;&gt;Node4 -->
<g id="edge4_Node000004_Node000005" class="edge">
<title>Node5&#45;&gt;Node4</title>
<g id="a_edge4_Node000004_Node000005"><a xlink:title=" ">
<path fill="none" stroke="#9a32cd" stroke-dasharray="5,2" d="M245.33,-15C269.53,-15 297.7,-15 321.68,-15"/>
<polygon fill="#9a32cd" stroke="#9a32cd" points="245.22,-11.5 235.22,-15 245.22,-18.5 245.22,-11.5"/>
</a>
</g>
<text text-anchor="middle" x="277.5" y="-18" font-family="Helvetica,sans-Serif" font-size="10.00" fill="grey"> elements</text>
</g>
<!-- Node6&#45;&gt;Node1 -->
<g id="edge5_Node000001_Node000006" class="edge">
<title>Node6&#45;&gt;Node1</title>
<g id="a_edge5_Node000001_Node000006"><a xlink:title=" ">
<path fill="none" stroke="#9a32cd" stroke-dasharray="5,2" d="M444.44,-69C476.44,-69 514.03,-69 542.85,-69"/>
<polygon fill="#9a32cd" stroke="#9a32cd" points="444.27,-65.5 434.27,-69 444.27,-72.5 444.27,-65.5"/>
</a>
</g>
<text text-anchor="middle" x="488.5" y="-72" font-family="Helvetica,sans-Serif" font-size="10.00" fill="grey"> add_labels</text>
</g>
</g>
</svg>
