<?xml version="1.0" encoding="UTF-8" standalone="no"?>
<!DOCTYPE svg PUBLIC "-//W3C//DTD SVG 1.1//EN"
 "http://www.w3.org/Graphics/SVG/1.1/DTD/svg11.dtd">
<!-- Generated by graphviz version 14.1.2 (0)
 -->
<!-- Title: testsuite.daemons.service_client.BaseAiohttpClient Pages: 1 -->
<svg width="515pt" height="94pt"
 viewBox="0.00 0.00 515.00 94.00" xmlns="http://www.w3.org/2000/svg" xmlns:xlink="http://www.w3.org/1999/xlink">
<g id="graph0" class="graph" transform="scale(1 1) rotate(0) translate(4 89.5)">
<title>testsuite.daemons.service_client.BaseAiohttpClient</title>
<!-- Node1 -->
<g id="Node000001" class="node">
<title>Node1</title>
<g id="a_Node000001"><a xlink:title=" ">
<polygon fill="#999999" stroke="#666666" points="145,-59.5 0,-59.5 0,-26 145,-26 145,-59.5"/>
<text xml:space="preserve" text-anchor="start" x="8" y="-46" font-family="Helvetica,sans-Serif" font-size="10.00">testsuite.daemons.service</text>
<text xml:space="preserve" text-anchor="middle" x="72.5" y="-33.25" font-family="Helvetica,sans-Serif" font-size="10.00">_client.BaseAiohttpClient</text>
</a>
</g>
</g>
<!-- Node2 -->
<g id="Node000002" class="node">
<title>Node2</title>
<g id="a_Node000002"><a xlink:href="../../df/dc0/classtestsuite_1_1daemons_1_1service__client_1_1GenericClient.html" target="_top" xlink:title="Basic asyncio HTTP service client.">
<polygon fill="white" stroke="#666666" points="326,-59.5 181,-59.5 181,-26 326,-26 326,-59.5"/>
<text xml:space="preserve" text-anchor="start" x="189" y="-46" font-family="Helvetica,sans-Serif" font-size="10.00">testsuite.daemons.service</text>
<text xml:space="preserve" text-anchor="middle" x="253.5" y="-33.25" font-family="Helvetica,sans-Serif" font-size="10.00">_client.GenericClient</text>
</a>
</g>
</g>
<!-- Node1&#45;&gt;Node2 -->
<g id="edge1_Node000001_Node000002" class="edge">
<title>Node1&#45;&gt;Node2</title>
<g id="a_edge1_Node000001_Node000002"><a xlink:title=" ">
<path fill="none" stroke="#63b8ff" d="M156.59,-42.75C164.65,-42.75 172.78,-42.75 180.71,-42.75"/>
<polygon fill="#63b8ff" stroke="#63b8ff" points="156.79,-39.25 146.79,-42.75 156.79,-46.25 156.79,-39.25"/>
</a>
</g>
</g>
<!-- Node3 -->
<g id="Node000003" class="node">
<title>Node3</title>
<g id="a_Node000003"><a xlink:href="../../d0/d80/classtestsuite_1_1daemons_1_1service__client_1_1AiohttpClient.html" target="_top" xlink:title=" ">
<polygon fill="white" stroke="#bfbfbf" points="507,-85.5 362,-85.5 362,-52 507,-52 507,-85.5"/>
<text xml:space="preserve" text-anchor="start" x="370" y="-72" font-family="Helvetica,sans-Serif" font-size="10.00">testsuite.daemons.service</text>
<text xml:space="preserve" text-anchor="middle" x="434.5" y="-59.25" font-family="Helvetica,sans-Serif" font-size="10.00">_client.AiohttpClient</text>
</a>
</g>
</g>
<!-- Node2&#45;&gt;Node3 -->
<g id="edge2_Node000002_Node000003" class="edge">
<title>Node2&#45;&gt;Node3</title>
<g id="a_edge2_Node000002_Node000003"><a xlink:title=" ">
<path fill="none" stroke="#63b8ff" d="M337.59,-54.82C345.65,-55.99 353.78,-57.17 361.71,-58.32"/>
<polygon fill="#63b8ff" stroke="#63b8ff" points="338.17,-51.37 327.77,-53.39 337.17,-58.29 338.17,-51.37"/>
</a>
</g>
</g>
<!-- Node4 -->
<g id="Node000004" class="node">
<title>Node4</title>
<g id="a_Node000004"><a xlink:href="../../d3/d54/classtestsuite_1_1daemons_1_1service__client_1_1Client.html" target="_top" xlink:title=" ">
<polygon fill="white" stroke="#bfbfbf" points="507,-33.5 362,-33.5 362,0 507,0 507,-33.5"/>
<text xml:space="preserve" text-anchor="start" x="370" y="-20" font-family="Helvetica,sans-Serif" font-size="10.00">testsuite.daemons.service</text>
<text xml:space="preserve" text-anchor="middle" x="434.5" y="-7.25" font-family="Helvetica,sans-Serif" font-size="10.00">_client.Client</text>
</a>
</g>
</g>
<!-- Node2&#45;&gt;Node4 -->
<g id="edge3_Node000002_Node000004" class="edge">
<title>Node2&#45;&gt;Node4</title>
<g id="a_edge3_Node000002_Node000004"><a xlink:title=" ">
<path fill="none" stroke="#63b8ff" d="M337.59,-30.68C345.65,-29.51 353.78,-28.33 361.71,-27.18"/>
<polygon fill="#63b8ff" stroke="#63b8ff" points="337.17,-27.21 327.77,-32.11 338.17,-34.13 337.17,-27.21"/>
</a>
</g>
</g>
</g>
</svg>
