<?xml version="1.0" encoding="UTF-8" standalone="no"?>
<!DOCTYPE svg PUBLIC "-//W3C//DTD SVG 1.1//EN"
 "http://www.w3.org/Graphics/SVG/1.1/DTD/svg11.dtd">
<!-- Generated by graphviz version 2.43.0 (0)
 -->
<!-- Title: userver/server/middlewares/http_middleware_base.hpp Pages: 1 -->
<svg width="366pt" height="104pt"
 viewBox="0.00 0.00 365.50 104.00" xmlns="http://www.w3.org/2000/svg" xmlns:xlink="http://www.w3.org/1999/xlink">
<g id="graph0" class="graph" transform="scale(1 1) rotate(0) translate(4 100)">
<title>userver/server/middlewares/http_middleware_base.hpp</title>
<!-- Node1 -->
<g id="Node000001" class="node">
<title>Node1</title>
<g id="a_Node000001"><a xlink:title="Base classes for implementing custom middlewares.">
<polygon fill="#999999" stroke="#666666" points="247,-96 94,-96 94,-66 247,-66 247,-96"/>
<text text-anchor="start" x="102" y="-84" font-family="Helvetica,sans-Serif" font-size="10.00">userver/server/middlewares</text>
<text text-anchor="middle" x="170.5" y="-73" font-family="Helvetica,sans-Serif" font-size="10.00">/http_middleware_base.hpp</text>
</a>
</g>
</g>
<!-- Node2 -->
<g id="Node000002" class="node">
<title>Node2</title>
<g id="a_Node000002"><a xlink:href="../../d8/d9b/headers__propagator_8hpp_source.html" target="_top" xlink:title=" ">
<polygon fill="white" stroke="#666666" points="153,-30 0,-30 0,0 153,0 153,-30"/>
<text text-anchor="start" x="8" y="-18" font-family="Helvetica,sans-Serif" font-size="10.00">userver/server/middlewares</text>
<text text-anchor="middle" x="76.5" y="-7" font-family="Helvetica,sans-Serif" font-size="10.00">/headers_propagator.hpp</text>
</a>
</g>
</g>
<!-- Node1&#45;&gt;Node2 -->
<g id="edge1_Node000001_Node000002" class="edge">
<title>Node1&#45;&gt;Node2</title>
<g id="a_edge1_Node000001_Node000002"><a xlink:title=" ">
<path fill="none" stroke="#63b8ff" d="M141.17,-60.03C126.94,-50.34 110.19,-38.94 97.3,-30.16"/>
<polygon fill="#63b8ff" stroke="#63b8ff" points="139.4,-63.06 149.64,-65.8 143.34,-57.28 139.4,-63.06"/>
</a>
</g>
</g>
<!-- Node3 -->
<g id="Node000003" class="node">
<title>Node3</title>
<g id="a_Node000003"><a xlink:href="../../df/dd5/middlewares_8hpp_source.html" target="_top" xlink:title=" ">
<polygon fill="white" stroke="#666666" points="357.5,-24.5 171.5,-24.5 171.5,-5.5 357.5,-5.5 357.5,-24.5"/>
<text text-anchor="middle" x="264.5" y="-12.5" font-family="Helvetica,sans-Serif" font-size="10.00">userver/testsuite/middlewares.hpp</text>
</a>
</g>
</g>
<!-- Node1&#45;&gt;Node3 -->
<g id="edge2_Node000001_Node000003" class="edge">
<title>Node1&#45;&gt;Node3</title>
<g id="a_edge2_Node000001_Node000003"><a xlink:title=" ">
<path fill="none" stroke="#63b8ff" d="M200.06,-59.87C217.46,-48.03 238.58,-33.65 251.78,-24.66"/>
<polygon fill="#63b8ff" stroke="#63b8ff" points="197.66,-57.28 191.36,-65.8 201.6,-63.06 197.66,-57.28"/>
</a>
</g>
</g>
</g>
</svg>
