<?xml version="1.0" encoding="UTF-8" standalone="no"?>
<!DOCTYPE svg PUBLIC "-//W3C//DTD SVG 1.1//EN"
 "http://www.w3.org/Graphics/SVG/1.1/DTD/svg11.dtd">
<!-- Generated by graphviz version 2.43.0 (0)
 -->
<!-- Title: userver/crypto/basic_types.hpp Pages: 1 -->
<svg width="739pt" height="302pt"
 viewBox="0.00 0.00 738.54 302.00" xmlns="http://www.w3.org/2000/svg" xmlns:xlink="http://www.w3.org/1999/xlink">
<g id="graph0" class="graph" transform="scale(1 1) rotate(0) translate(4 298)">
<title>userver/crypto/basic_types.hpp</title>
<!-- Node1 -->
<g id="Node000001" class="node">
<title>Node1</title>
<g id="a_Node000001"><a xlink:title="Common types for crypto module.">
<polygon fill="#999999" stroke="#666666" points="508,-294 392,-294 392,-264 508,-264 508,-294"/>
<text text-anchor="start" x="400" y="-282" font-family="Helvetica,sans-Serif" font-size="10.00">userver/crypto/basic</text>
<text text-anchor="middle" x="450" y="-271" font-family="Helvetica,sans-Serif" font-size="10.00">_types.hpp</text>
</a>
</g>
</g>
<!-- Node2 -->
<g id="Node000002" class="node">
<title>Node2</title>
<g id="a_Node000002"><a xlink:href="../../d1/dab/certificate_8hpp.html" target="_top" xlink:title=" ">
<polygon fill="white" stroke="#666666" points="530,-222.5 370,-222.5 370,-203.5 530,-203.5 530,-222.5"/>
<text text-anchor="middle" x="450" y="-210.5" font-family="Helvetica,sans-Serif" font-size="10.00">userver/crypto/certificate.hpp</text>
</a>
</g>
</g>
<!-- Node1&#45;&gt;Node2 -->
<g id="edge1_Node000001_Node000002" class="edge">
<title>Node1&#45;&gt;Node2</title>
<g id="a_edge1_Node000001_Node000002"><a xlink:title=" ">
<path fill="none" stroke="#63b8ff" d="M450,-253.6C450,-242.8 450,-230.78 450,-222.84"/>
<polygon fill="#63b8ff" stroke="#63b8ff" points="446.5,-253.8 450,-263.8 453.5,-253.8 446.5,-253.8"/>
</a>
</g>
</g>
<!-- Node8 -->
<g id="Node000008" class="node">
<title>Node8</title>
<g id="a_Node000008"><a xlink:href="../../d6/dfb/signers_8hpp.html" target="_top" xlink:title="Digital signature generators.">
<polygon fill="white" stroke="#666666" points="374,-156.5 228,-156.5 228,-137.5 374,-137.5 374,-156.5"/>
<text text-anchor="middle" x="301" y="-144.5" font-family="Helvetica,sans-Serif" font-size="10.00">userver/crypto/signers.hpp</text>
</a>
</g>
</g>
<!-- Node1&#45;&gt;Node8 -->
<g id="edge20_Node000001_Node000008" class="edge">
<title>Node1&#45;&gt;Node8</title>
<g id="a_edge20_Node000001_Node000008"><a xlink:title=" ">
<path fill="none" stroke="#63b8ff" d="M408.39,-259.21C392.59,-250.95 375.04,-240.3 361,-228 336.06,-206.15 314.94,-172.37 305.82,-156.63"/>
<polygon fill="#63b8ff" stroke="#63b8ff" points="406.95,-262.4 417.45,-263.8 410.11,-256.16 406.95,-262.4"/>
</a>
</g>
</g>
<!-- Node9 -->
<g id="Node000009" class="node">
<title>Node9</title>
<g id="a_Node000009"><a xlink:href="../../de/d3f/verifiers_8hpp.html" target="_top" xlink:title="Digital signature verifiers.">
<polygon fill="white" stroke="#666666" points="715.5,-156.5 564.5,-156.5 564.5,-137.5 715.5,-137.5 715.5,-156.5"/>
<text text-anchor="middle" x="640" y="-144.5" font-family="Helvetica,sans-Serif" font-size="10.00">userver/crypto/verifiers.hpp</text>
</a>
</g>
</g>
<!-- Node1&#45;&gt;Node9 -->
<g id="edge21_Node000001_Node000009" class="edge">
<title>Node1&#45;&gt;Node9</title>
<g id="a_edge21_Node000001_Node000009"><a xlink:title=" ">
<path fill="none" stroke="#63b8ff" d="M486.78,-259.03C503.13,-250.18 522.39,-239.14 539,-228 540.18,-227.21 603,-177.37 628.96,-156.77"/>
<polygon fill="#63b8ff" stroke="#63b8ff" points="484.7,-256.18 477.54,-263.98 488.01,-262.35 484.7,-256.18"/>
</a>
</g>
</g>
<!-- Node11 -->
<g id="Node000011" class="node">
<title>Node11</title>
<g id="a_Node000011"><a xlink:href="../../d4/d2b/private__key_8hpp.html" target="_top" xlink:title=" ">
<polygon fill="white" stroke="#666666" points="313.5,-228 188.5,-228 188.5,-198 313.5,-198 313.5,-228"/>
<text text-anchor="start" x="196.5" y="-216" font-family="Helvetica,sans-Serif" font-size="10.00">userver/crypto/private</text>
<text text-anchor="middle" x="251" y="-205" font-family="Helvetica,sans-Serif" font-size="10.00">_key.hpp</text>
</a>
</g>
</g>
<!-- Node1&#45;&gt;Node11 -->
<g id="edge12_Node000001_Node000011" class="edge">
<title>Node1&#45;&gt;Node11</title>
<g id="a_edge12_Node000001_Node000011"><a xlink:title=" ">
<path fill="none" stroke="#63b8ff" d="M396.69,-260.86C364.74,-250.58 324.62,-237.68 294.57,-228.01"/>
<polygon fill="#63b8ff" stroke="#63b8ff" points="395.74,-264.23 406.33,-263.95 397.88,-257.56 395.74,-264.23"/>
</a>
</g>
</g>
<!-- Node12 -->
<g id="Node000012" class="node">
<title>Node12</title>
<g id="a_Node000012"><a xlink:href="../../dc/d0a/public__key_8hpp.html" target="_top" xlink:title=" ">
<polygon fill="white" stroke="#666666" points="705.5,-228 586.5,-228 586.5,-198 705.5,-198 705.5,-228"/>
<text text-anchor="start" x="594.5" y="-216" font-family="Helvetica,sans-Serif" font-size="10.00">userver/crypto/public</text>
<text text-anchor="middle" x="646" y="-205" font-family="Helvetica,sans-Serif" font-size="10.00">_key.hpp</text>
</a>
</g>
</g>
<!-- Node1&#45;&gt;Node12 -->
<g id="edge17_Node000001_Node000012" class="edge">
<title>Node1&#45;&gt;Node12</title>
<g id="a_edge17_Node000001_Node000012"><a xlink:title=" ">
<path fill="none" stroke="#63b8ff" d="M502.91,-260.72C534.32,-250.47 573.62,-237.63 603.09,-228.01"/>
<polygon fill="#63b8ff" stroke="#63b8ff" points="501.43,-257.52 493.01,-263.95 503.61,-264.18 501.43,-257.52"/>
</a>
</g>
</g>
<!-- Node3 -->
<g id="Node000003" class="node">
<title>Node3</title>
<g id="a_Node000003"><a xlink:href="../../d1/d57/core_2include_2userver_2clients_2http_2request_8hpp.html" target="_top" xlink:title="Class for creating and performing new http requests.">
<polygon fill="white" stroke="#666666" points="171.5,-162 60.5,-162 60.5,-132 171.5,-132 171.5,-162"/>
<text text-anchor="start" x="68.5" y="-150" font-family="Helvetica,sans-Serif" font-size="10.00">userver/clients/http</text>
<text text-anchor="middle" x="116" y="-139" font-family="Helvetica,sans-Serif" font-size="10.00">/request.hpp</text>
</a>
</g>
</g>
<!-- Node2&#45;&gt;Node3 -->
<g id="edge2_Node000002_Node000003" class="edge">
<title>Node2&#45;&gt;Node3</title>
<g id="a_edge2_Node000002_Node000003"><a xlink:title=" ">
<path fill="none" stroke="#63b8ff" d="M395.36,-201.53C333.62,-189.7 233.66,-170.55 171.55,-158.64"/>
<polygon fill="#63b8ff" stroke="#63b8ff" points="394.82,-204.99 405.3,-203.44 396.14,-198.12 394.82,-204.99"/>
</a>
</g>
</g>
<!-- Node7 -->
<g id="Node000007" class="node">
<title>Node7</title>
<g id="a_Node000007"><a xlink:href="../../d2/d62/crypto_8hpp.html" target="_top" xlink:title="Include&#45;all header for crypto routines.">
<polygon fill="white" stroke="#666666" points="607,-90.5 465,-90.5 465,-71.5 607,-71.5 607,-90.5"/>
<text text-anchor="middle" x="536" y="-78.5" font-family="Helvetica,sans-Serif" font-size="10.00">userver/crypto/crypto.hpp</text>
</a>
</g>
</g>
<!-- Node2&#45;&gt;Node7 -->
<g id="edge6_Node000002_Node000007" class="edge">
<title>Node2&#45;&gt;Node7</title>
<g id="a_edge6_Node000002_Node000007"><a xlink:title=" ">
<path fill="none" stroke="#63b8ff" d="M476.41,-198.3C490.48,-189.7 506.93,-177.32 517,-162 531.9,-139.33 535.15,-106.25 535.83,-90.69"/>
<polygon fill="#63b8ff" stroke="#63b8ff" points="474.49,-195.37 467.59,-203.41 477.99,-201.43 474.49,-195.37"/>
</a>
</g>
</g>
<!-- Node2&#45;&gt;Node8 -->
<g id="edge7_Node000002_Node000008" class="edge">
<title>Node2&#45;&gt;Node8</title>
<g id="a_edge7_Node000002_Node000008"><a xlink:title=" ">
<path fill="none" stroke="#63b8ff" d="M420.57,-199.36C391.21,-186.75 346.88,-167.71 321.25,-156.7"/>
<polygon fill="#63b8ff" stroke="#63b8ff" points="419.34,-202.64 429.91,-203.37 422.1,-196.21 419.34,-202.64"/>
</a>
</g>
</g>
<!-- Node2&#45;&gt;Node9 -->
<g id="edge9_Node000002_Node000009" class="edge">
<title>Node2&#45;&gt;Node9</title>
<g id="a_edge9_Node000002_Node000009"><a xlink:title=" ">
<path fill="none" stroke="#63b8ff" d="M485.14,-200.16C522.65,-187.53 581.15,-167.82 614.48,-156.6"/>
<polygon fill="#63b8ff" stroke="#63b8ff" points="483.98,-196.86 475.62,-203.37 486.22,-203.49 483.98,-196.86"/>
</a>
</g>
</g>
<!-- Node10 -->
<g id="Node000010" class="node">
<title>Node10</title>
<g id="a_Node000010"><a xlink:href="../../d2/d28/tls__wrapper_8hpp.html" target="_top" xlink:title="TLS socket wrappers.">
<polygon fill="white" stroke="#666666" points="508,-162 392,-162 392,-132 508,-132 508,-162"/>
<text text-anchor="start" x="400" y="-150" font-family="Helvetica,sans-Serif" font-size="10.00">userver/engine/io/tls</text>
<text text-anchor="middle" x="450" y="-139" font-family="Helvetica,sans-Serif" font-size="10.00">_wrapper.hpp</text>
</a>
</g>
</g>
<!-- Node2&#45;&gt;Node10 -->
<g id="edge11_Node000002_Node000010" class="edge">
<title>Node2&#45;&gt;Node10</title>
<g id="a_edge11_Node000002_Node000010"><a xlink:title=" ">
<path fill="none" stroke="#63b8ff" d="M450,-193.35C450,-183.47 450,-171.51 450,-162.36"/>
<polygon fill="#63b8ff" stroke="#63b8ff" points="446.5,-193.37 450,-203.37 453.5,-193.37 446.5,-193.37"/>
</a>
</g>
</g>
<!-- Node4 -->
<g id="Node000004" class="node">
<title>Node4</title>
<g id="a_Node000004"><a xlink:href="../../d3/db8/core_2include_2userver_2clients_2http_2client_8hpp.html" target="_top" xlink:title="HTTP client that returns a HTTP request builder from CreateRequest().">
<polygon fill="white" stroke="#666666" points="235.5,-96 124.5,-96 124.5,-66 235.5,-66 235.5,-96"/>
<text text-anchor="start" x="132.5" y="-84" font-family="Helvetica,sans-Serif" font-size="10.00">userver/clients/http</text>
<text text-anchor="middle" x="180" y="-73" font-family="Helvetica,sans-Serif" font-size="10.00">/client.hpp</text>
</a>
</g>
</g>
<!-- Node3&#45;&gt;Node4 -->
<g id="edge3_Node000003_Node000004" class="edge">
<title>Node3&#45;&gt;Node4</title>
<g id="a_edge3_Node000003_Node000004"><a xlink:title=" ">
<path fill="none" stroke="#63b8ff" d="M137.35,-124.65C146.73,-115.27 157.47,-104.53 165.84,-96.16"/>
<polygon fill="#63b8ff" stroke="#63b8ff" points="134.8,-122.25 130.2,-131.8 139.75,-127.2 134.8,-122.25"/>
</a>
</g>
</g>
<!-- Node6 -->
<g id="Node000006" class="node">
<title>Node6</title>
<g id="a_Node000006"><a xlink:href="../../d2/d6c/http__server__mock_8hpp_source.html" target="_top" xlink:title=" ">
<polygon fill="white" stroke="#666666" points="106,-96 0,-96 0,-66 106,-66 106,-96"/>
<text text-anchor="start" x="8" y="-84" font-family="Helvetica,sans-Serif" font-size="10.00">userver/utest/http</text>
<text text-anchor="middle" x="53" y="-73" font-family="Helvetica,sans-Serif" font-size="10.00">_server_mock.hpp</text>
</a>
</g>
</g>
<!-- Node3&#45;&gt;Node6 -->
<g id="edge5_Node000003_Node000006" class="edge">
<title>Node3&#45;&gt;Node6</title>
<g id="a_edge5_Node000003_Node000006"><a xlink:title=" ">
<path fill="none" stroke="#63b8ff" d="M94.98,-124.65C85.75,-115.27 75.17,-104.53 66.94,-96.16"/>
<polygon fill="#63b8ff" stroke="#63b8ff" points="92.51,-127.13 102.02,-131.8 97.5,-122.21 92.51,-127.13"/>
</a>
</g>
</g>
<!-- Node5 -->
<g id="Node000005" class="node">
<title>Node5</title>
<g id="a_Node000005"><a xlink:href="../../d7/d98/core_2include_2userver_2clients_2http_2component_8hpp.html" target="_top" xlink:title="Component that manages clients::http::Client.">
<polygon fill="white" stroke="#666666" points="235.5,-30 124.5,-30 124.5,0 235.5,0 235.5,-30"/>
<text text-anchor="start" x="132.5" y="-18" font-family="Helvetica,sans-Serif" font-size="10.00">userver/clients/http</text>
<text text-anchor="middle" x="180" y="-7" font-family="Helvetica,sans-Serif" font-size="10.00">/component.hpp</text>
</a>
</g>
</g>
<!-- Node4&#45;&gt;Node5 -->
<g id="edge4_Node000004_Node000005" class="edge">
<title>Node4&#45;&gt;Node5</title>
<g id="a_edge4_Node000004_Node000005"><a xlink:title=" ">
<path fill="none" stroke="#63b8ff" d="M180,-55.54C180,-46.96 180,-37.61 180,-30.16"/>
<polygon fill="#63b8ff" stroke="#63b8ff" points="176.5,-55.8 180,-65.8 183.5,-55.8 176.5,-55.8"/>
</a>
</g>
</g>
<!-- Node8&#45;&gt;Node7 -->
<g id="edge8_Node000008_Node000007" class="edge">
<title>Node8&#45;&gt;Node7</title>
<g id="a_edge8_Node000008_Node000007"><a xlink:title=" ">
<path fill="none" stroke="#63b8ff" d="M342.41,-134.72C388.69,-122.12 462.6,-101.99 504.43,-90.6"/>
<polygon fill="#63b8ff" stroke="#63b8ff" points="341.42,-131.36 332.69,-137.37 343.26,-138.12 341.42,-131.36"/>
</a>
</g>
</g>
<!-- Node9&#45;&gt;Node7 -->
<g id="edge10_Node000009_Node000007" class="edge">
<title>Node9&#45;&gt;Node7</title>
<g id="a_edge10_Node000009_Node000007"><a xlink:title=" ">
<path fill="none" stroke="#63b8ff" d="M617.28,-132.02C596.83,-119.43 567.4,-101.32 550.14,-90.7"/>
<polygon fill="#63b8ff" stroke="#63b8ff" points="615.62,-135.11 625.97,-137.37 619.29,-129.15 615.62,-135.11"/>
</a>
</g>
</g>
<!-- Node11&#45;&gt;Node3 -->
<g id="edge13_Node000011_Node000003" class="edge">
<title>Node11&#45;&gt;Node3</title>
<g id="a_edge13_Node000011_Node000003"><a xlink:title=" ">
<path fill="none" stroke="#63b8ff" d="M212.29,-193.65C191.06,-183.58 165.15,-171.3 145.56,-162.01"/>
<polygon fill="#63b8ff" stroke="#63b8ff" points="210.84,-196.83 221.37,-197.95 213.84,-190.51 210.84,-196.83"/>
</a>
</g>
</g>
<!-- Node11&#45;&gt;Node7 -->
<g id="edge14_Node000011_Node000007" class="edge">
<title>Node11&#45;&gt;Node7</title>
<g id="a_edge14_Node000011_Node000007"><a xlink:title=" ">
<path fill="none" stroke="#63b8ff" d="M230.75,-189.92C217.38,-172.6 204.72,-148.71 219,-132 249.99,-95.73 381.38,-85.61 464.97,-82.89"/>
<polygon fill="#63b8ff" stroke="#63b8ff" points="228.21,-192.33 237.26,-197.83 233.61,-187.88 228.21,-192.33"/>
</a>
</g>
</g>
<!-- Node11&#45;&gt;Node8 -->
<g id="edge15_Node000011_Node000008" class="edge">
<title>Node11&#45;&gt;Node8</title>
<g id="a_edge15_Node000011_Node000008"><a xlink:title=" ">
<path fill="none" stroke="#63b8ff" d="M268.49,-189.61C277.31,-178.32 287.5,-165.28 294.09,-156.84"/>
<polygon fill="#63b8ff" stroke="#63b8ff" points="265.5,-187.76 262.1,-197.8 271.01,-192.07 265.5,-187.76"/>
</a>
</g>
</g>
<!-- Node11&#45;&gt;Node10 -->
<g id="edge16_Node000011_Node000010" class="edge">
<title>Node11&#45;&gt;Node10</title>
<g id="a_edge16_Node000011_Node000010"><a xlink:title=" ">
<path fill="none" stroke="#63b8ff" d="M304.31,-194.86C336.26,-184.58 376.38,-171.68 406.43,-162.01"/>
<polygon fill="#63b8ff" stroke="#63b8ff" points="303.12,-191.56 294.67,-197.95 305.26,-198.23 303.12,-191.56"/>
</a>
</g>
</g>
<!-- Node12&#45;&gt;Node7 -->
<g id="edge18_Node000012_Node000007" class="edge">
<title>Node12&#45;&gt;Node7</title>
<g id="a_edge18_Node000012_Node000007"><a xlink:title=" ">
<path fill="none" stroke="#63b8ff" d="M686.24,-193.23C713.83,-177.77 742.51,-154.75 725,-132 709.68,-112.1 648.9,-98.5 600.35,-90.56"/>
<polygon fill="#63b8ff" stroke="#63b8ff" points="684.55,-190.17 677.39,-197.98 687.85,-196.34 684.55,-190.17"/>
</a>
</g>
</g>
<!-- Node12&#45;&gt;Node9 -->
<g id="edge19_Node000012_Node000009" class="edge">
<title>Node12&#45;&gt;Node9</title>
<g id="a_edge19_Node000012_Node000009"><a xlink:title=" ">
<path fill="none" stroke="#63b8ff" d="M643.71,-187.6C642.7,-176.8 641.57,-164.78 640.83,-156.84"/>
<polygon fill="#63b8ff" stroke="#63b8ff" points="640.25,-188.17 644.67,-197.8 647.22,-187.51 640.25,-188.17"/>
</a>
</g>
</g>
</g>
</svg>
