<?xml version="1.0" encoding="UTF-8" standalone="no"?>
<!DOCTYPE svg PUBLIC "-//W3C//DTD SVG 1.1//EN"
 "http://www.w3.org/Graphics/SVG/1.1/DTD/svg11.dtd">
<!-- Generated by graphviz version 2.43.0 (0)
 -->
<!-- Title: userver/crypto/basic_types.hpp Pages: 1 -->
<svg width="887pt" height="302pt"
 viewBox="0.00 0.00 887.00 302.00" xmlns="http://www.w3.org/2000/svg" xmlns:xlink="http://www.w3.org/1999/xlink">
<g id="graph0" class="graph" transform="scale(1 1) rotate(0) translate(4 298)">
<title>userver/crypto/basic_types.hpp</title>
<!-- Node1 -->
<g id="Node000001" class="node">
<title>Node1</title>
<g id="a_Node000001"><a xlink:title="Common types for crypto module.">
<polygon fill="#999999" stroke="#666666" points="312,-294 196,-294 196,-264 312,-264 312,-294"/>
<text text-anchor="start" x="204" y="-282" font-family="Helvetica,sans-Serif" font-size="10.00">userver/crypto/basic</text>
<text text-anchor="middle" x="254" y="-271" font-family="Helvetica,sans-Serif" font-size="10.00">_types.hpp</text>
</a>
</g>
</g>
<!-- Node2 -->
<g id="Node000002" class="node">
<title>Node2</title>
<g id="a_Node000002"><a xlink:href="../../d1/dab/certificate_8hpp.html" target="_top" xlink:title=" ">
<polygon fill="white" stroke="#666666" points="442,-222.5 282,-222.5 282,-203.5 442,-203.5 442,-222.5"/>
<text text-anchor="middle" x="362" y="-210.5" font-family="Helvetica,sans-Serif" font-size="10.00">userver/crypto/certificate.hpp</text>
</a>
</g>
</g>
<!-- Node1&#45;&gt;Node2 -->
<g id="edge1_Node000001_Node000002" class="edge">
<title>Node1&#45;&gt;Node2</title>
<g id="a_edge1_Node000001_Node000002"><a xlink:title=" ">
<path fill="none" stroke="#63b8ff" d="M286.38,-258.81C306.76,-246.73 332.07,-231.73 347.62,-222.52"/>
<polygon fill="#63b8ff" stroke="#63b8ff" points="284.52,-255.85 277.7,-263.95 288.08,-261.87 284.52,-255.85"/>
</a>
</g>
</g>
<!-- Node8 -->
<g id="Node000008" class="node">
<title>Node8</title>
<g id="a_Node000008"><a xlink:href="../../d6/dfb/signers_8hpp.html" target="_top" xlink:title="Digital signature generators.">
<polygon fill="white" stroke="#666666" points="331,-156.5 185,-156.5 185,-137.5 331,-137.5 331,-156.5"/>
<text text-anchor="middle" x="258" y="-144.5" font-family="Helvetica,sans-Serif" font-size="10.00">userver/crypto/signers.hpp</text>
</a>
</g>
</g>
<!-- Node1&#45;&gt;Node8 -->
<g id="edge25_Node000001_Node000008" class="edge">
<title>Node1&#45;&gt;Node8</title>
<g id="a_edge25_Node000001_Node000008"><a xlink:title=" ">
<path fill="none" stroke="#63b8ff" d="M254.75,-253.57C255.65,-224.17 257.13,-176.31 257.73,-156.75"/>
<polygon fill="#63b8ff" stroke="#63b8ff" points="251.24,-253.74 254.43,-263.84 258.24,-253.95 251.24,-253.74"/>
</a>
</g>
</g>
<!-- Node9 -->
<g id="Node000009" class="node">
<title>Node9</title>
<g id="a_Node000009"><a xlink:href="../../de/d3f/verifiers_8hpp.html" target="_top" xlink:title="Digital signature verifiers.">
<polygon fill="white" stroke="#666666" points="166.5,-156.5 15.5,-156.5 15.5,-137.5 166.5,-137.5 166.5,-156.5"/>
<text text-anchor="middle" x="91" y="-144.5" font-family="Helvetica,sans-Serif" font-size="10.00">userver/crypto/verifiers.hpp</text>
</a>
</g>
</g>
<!-- Node1&#45;&gt;Node9 -->
<g id="edge26_Node000001_Node000009" class="edge">
<title>Node1&#45;&gt;Node9</title>
<g id="a_edge26_Node000001_Node000009"><a xlink:title=" ">
<path fill="none" stroke="#63b8ff" d="M230.2,-257.21C211.2,-240.8 183.75,-217.49 159,-198 139.88,-182.95 116.97,-166.4 103.21,-156.61"/>
<polygon fill="#63b8ff" stroke="#63b8ff" points="227.94,-259.89 237.79,-263.79 232.53,-254.6 227.94,-259.89"/>
</a>
</g>
</g>
<!-- Node14 -->
<g id="Node000014" class="node">
<title>Node14</title>
<g id="a_Node000014"><a xlink:href="../../d4/d2b/private__key_8hpp.html" target="_top" xlink:title=" ">
<polygon fill="white" stroke="#666666" points="590.5,-228 465.5,-228 465.5,-198 590.5,-198 590.5,-228"/>
<text text-anchor="start" x="473.5" y="-216" font-family="Helvetica,sans-Serif" font-size="10.00">userver/crypto/private</text>
<text text-anchor="middle" x="528" y="-205" font-family="Helvetica,sans-Serif" font-size="10.00">_key.hpp</text>
</a>
</g>
</g>
<!-- Node1&#45;&gt;Node14 -->
<g id="edge16_Node000001_Node000014" class="edge">
<title>Node1&#45;&gt;Node14</title>
<g id="a_edge16_Node000001_Node000014"><a xlink:title=" ">
<path fill="none" stroke="#63b8ff" d="M322,-262.12C366.66,-251.68 424.56,-238.16 467.6,-228.11"/>
<polygon fill="#63b8ff" stroke="#63b8ff" points="321.05,-258.74 312.1,-264.43 322.64,-265.56 321.05,-258.74"/>
</a>
</g>
</g>
<!-- Node15 -->
<g id="Node000015" class="node">
<title>Node15</title>
<g id="a_Node000015"><a xlink:href="../../dc/d0a/public__key_8hpp.html" target="_top" xlink:title=" ">
<polygon fill="white" stroke="#666666" points="150.5,-228 31.5,-228 31.5,-198 150.5,-198 150.5,-228"/>
<text text-anchor="start" x="39.5" y="-216" font-family="Helvetica,sans-Serif" font-size="10.00">userver/crypto/public</text>
<text text-anchor="middle" x="91" y="-205" font-family="Helvetica,sans-Serif" font-size="10.00">_key.hpp</text>
</a>
</g>
</g>
<!-- Node1&#45;&gt;Node15 -->
<g id="edge22_Node000001_Node000015" class="edge">
<title>Node1&#45;&gt;Node15</title>
<g id="a_edge22_Node000001_Node000015"><a xlink:title=" ">
<path fill="none" stroke="#63b8ff" d="M208.63,-260.19C182.75,-250.02 150.76,-237.47 126.68,-228.01"/>
<polygon fill="#63b8ff" stroke="#63b8ff" points="207.64,-263.56 218.23,-263.95 210.2,-257.04 207.64,-263.56"/>
</a>
</g>
</g>
<!-- Node3 -->
<g id="Node000003" class="node">
<title>Node3</title>
<g id="a_Node000003"><a xlink:href="../../d1/d57/core_2include_2userver_2clients_2http_2request_8hpp.html" target="_top" xlink:title="Class for creating and performing new http requests.">
<polygon fill="white" stroke="#666666" points="670.5,-162 559.5,-162 559.5,-132 670.5,-132 670.5,-162"/>
<text text-anchor="start" x="567.5" y="-150" font-family="Helvetica,sans-Serif" font-size="10.00">userver/clients/http</text>
<text text-anchor="middle" x="615" y="-139" font-family="Helvetica,sans-Serif" font-size="10.00">/request.hpp</text>
</a>
</g>
</g>
<!-- Node2&#45;&gt;Node3 -->
<g id="edge2_Node000002_Node000003" class="edge">
<title>Node2&#45;&gt;Node3</title>
<g id="a_edge2_Node000002_Node000003"><a xlink:title=" ">
<path fill="none" stroke="#63b8ff" d="M405.65,-200.96C448.28,-190.17 513.3,-173.73 559.55,-162.02"/>
<polygon fill="#63b8ff" stroke="#63b8ff" points="404.69,-197.59 395.85,-203.44 406.41,-204.38 404.69,-197.59"/>
</a>
</g>
</g>
<!-- Node7 -->
<g id="Node000007" class="node">
<title>Node7</title>
<g id="a_Node000007"><a xlink:href="../../d2/d62/crypto_8hpp.html" target="_top" xlink:title="Include&#45;all header for crypto routines.">
<polygon fill="white" stroke="#666666" points="329,-90.5 187,-90.5 187,-71.5 329,-71.5 329,-90.5"/>
<text text-anchor="middle" x="258" y="-78.5" font-family="Helvetica,sans-Serif" font-size="10.00">userver/crypto/crypto.hpp</text>
</a>
</g>
</g>
<!-- Node2&#45;&gt;Node7 -->
<g id="edge6_Node000002_Node000007" class="edge">
<title>Node2&#45;&gt;Node7</title>
<g id="a_edge6_Node000002_Node000007"><a xlink:title=" ">
<path fill="none" stroke="#63b8ff" d="M360.76,-193.36C358.78,-175.95 353.58,-150.02 340,-132 325.04,-112.16 299.72,-98.48 281.16,-90.5"/>
<polygon fill="#63b8ff" stroke="#63b8ff" points="357.29,-193.75 361.66,-203.4 364.26,-193.12 357.29,-193.75"/>
</a>
</g>
</g>
<!-- Node2&#45;&gt;Node8 -->
<g id="edge7_Node000002_Node000008" class="edge">
<title>Node2&#45;&gt;Node8</title>
<g id="a_edge7_Node000002_Node000008"><a xlink:title=" ">
<path fill="none" stroke="#63b8ff" d="M339.28,-198.02C318.82,-185.43 289.4,-167.32 272.13,-156.7"/>
<polygon fill="#63b8ff" stroke="#63b8ff" points="337.62,-201.11 347.97,-203.37 341.29,-195.15 337.62,-201.11"/>
</a>
</g>
</g>
<!-- Node2&#45;&gt;Node9 -->
<g id="edge9_Node000002_Node000009" class="edge">
<title>Node2&#45;&gt;Node9</title>
<g id="a_edge9_Node000002_Node000009"><a xlink:title=" ">
<path fill="none" stroke="#63b8ff" d="M315.84,-201.1C262.47,-188.49 175.72,-168.01 127.05,-156.51"/>
<polygon fill="#63b8ff" stroke="#63b8ff" points="315.19,-204.54 325.73,-203.44 316.8,-197.73 315.19,-204.54"/>
</a>
</g>
</g>
<!-- Node10 -->
<g id="Node000010" class="node">
<title>Node10</title>
<g id="a_Node000010"><a xlink:href="../../d2/d28/tls__wrapper_8hpp.html" target="_top" xlink:title="TLS socket wrappers.">
<polygon fill="white" stroke="#666666" points="503,-162 387,-162 387,-132 503,-132 503,-162"/>
<text text-anchor="start" x="395" y="-150" font-family="Helvetica,sans-Serif" font-size="10.00">userver/engine/io/tls</text>
<text text-anchor="middle" x="445" y="-139" font-family="Helvetica,sans-Serif" font-size="10.00">_wrapper.hpp</text>
</a>
</g>
</g>
<!-- Node2&#45;&gt;Node10 -->
<g id="edge11_Node000002_Node000010" class="edge">
<title>Node2&#45;&gt;Node10</title>
<g id="a_edge11_Node000002_Node000010"><a xlink:title=" ">
<path fill="none" stroke="#63b8ff" d="M381.43,-197.02C395.1,-186.48 413.28,-172.46 426.69,-162.12"/>
<polygon fill="#63b8ff" stroke="#63b8ff" points="378.97,-194.49 373.19,-203.37 383.25,-200.03 378.97,-194.49"/>
</a>
</g>
</g>
<!-- Node11 -->
<g id="Node000011" class="node">
<title>Node11</title>
<g id="a_Node000011"><a xlink:href="../../dc/dac/client__settings_8hpp_source.html" target="_top" xlink:title=" ">
<polygon fill="white" stroke="#666666" points="830.5,-162 693.5,-162 693.5,-132 830.5,-132 830.5,-162"/>
<text text-anchor="start" x="701.5" y="-150" font-family="Helvetica,sans-Serif" font-size="10.00">userver/urabbitmq/client</text>
<text text-anchor="middle" x="762" y="-139" font-family="Helvetica,sans-Serif" font-size="10.00">_settings.hpp</text>
</a>
</g>
</g>
<!-- Node2&#45;&gt;Node11 -->
<g id="edge12_Node000002_Node000011" class="edge">
<title>Node2&#45;&gt;Node11</title>
<g id="a_edge12_Node000002_Node000011"><a xlink:title=" ">
<path fill="none" stroke="#63b8ff" d="M427.25,-201.91C491.37,-191.96 591.96,-176.2 679,-162 683.61,-161.25 688.37,-160.46 693.16,-159.67"/>
<polygon fill="#63b8ff" stroke="#63b8ff" points="426.63,-198.47 417.29,-203.46 427.7,-205.39 426.63,-198.47"/>
</a>
</g>
</g>
<!-- Node4 -->
<g id="Node000004" class="node">
<title>Node4</title>
<g id="a_Node000004"><a xlink:href="../../d3/db8/core_2include_2userver_2clients_2http_2client_8hpp.html" target="_top" xlink:title="HTTP client that returns a HTTP request builder from CreateRequest().">
<polygon fill="white" stroke="#666666" points="667.5,-96 556.5,-96 556.5,-66 667.5,-66 667.5,-96"/>
<text text-anchor="start" x="564.5" y="-84" font-family="Helvetica,sans-Serif" font-size="10.00">userver/clients/http</text>
<text text-anchor="middle" x="612" y="-73" font-family="Helvetica,sans-Serif" font-size="10.00">/client.hpp</text>
</a>
</g>
</g>
<!-- Node3&#45;&gt;Node4 -->
<g id="edge3_Node000003_Node000004" class="edge">
<title>Node3&#45;&gt;Node4</title>
<g id="a_edge3_Node000003_Node000004"><a xlink:title=" ">
<path fill="none" stroke="#63b8ff" d="M613.85,-121.54C613.45,-112.96 613.01,-103.61 612.66,-96.16"/>
<polygon fill="#63b8ff" stroke="#63b8ff" points="610.37,-121.97 614.33,-131.8 617.36,-121.64 610.37,-121.97"/>
</a>
</g>
</g>
<!-- Node6 -->
<g id="Node000006" class="node">
<title>Node6</title>
<g id="a_Node000006"><a xlink:href="../../d2/d6c/http__server__mock_8hpp_source.html" target="_top" xlink:title=" ">
<polygon fill="white" stroke="#666666" points="538,-96 432,-96 432,-66 538,-66 538,-96"/>
<text text-anchor="start" x="440" y="-84" font-family="Helvetica,sans-Serif" font-size="10.00">userver/utest/http</text>
<text text-anchor="middle" x="485" y="-73" font-family="Helvetica,sans-Serif" font-size="10.00">_server_mock.hpp</text>
</a>
</g>
</g>
<!-- Node3&#45;&gt;Node6 -->
<g id="edge5_Node000003_Node000006" class="edge">
<title>Node3&#45;&gt;Node6</title>
<g id="a_edge5_Node000003_Node000006"><a xlink:title=" ">
<path fill="none" stroke="#63b8ff" d="M577.45,-127.51C557.05,-117.47 532.24,-105.26 513.46,-96.01"/>
<polygon fill="#63b8ff" stroke="#63b8ff" points="575.95,-130.68 586.47,-131.95 579.04,-124.4 575.95,-130.68"/>
</a>
</g>
</g>
<!-- Node5 -->
<g id="Node000005" class="node">
<title>Node5</title>
<g id="a_Node000005"><a xlink:href="../../d7/d98/core_2include_2userver_2clients_2http_2component_8hpp.html" target="_top" xlink:title="Component that manages clients::http::Client.">
<polygon fill="white" stroke="#666666" points="667.5,-30 556.5,-30 556.5,0 667.5,0 667.5,-30"/>
<text text-anchor="start" x="564.5" y="-18" font-family="Helvetica,sans-Serif" font-size="10.00">userver/clients/http</text>
<text text-anchor="middle" x="612" y="-7" font-family="Helvetica,sans-Serif" font-size="10.00">/component.hpp</text>
</a>
</g>
</g>
<!-- Node4&#45;&gt;Node5 -->
<g id="edge4_Node000004_Node000005" class="edge">
<title>Node4&#45;&gt;Node5</title>
<g id="a_edge4_Node000004_Node000005"><a xlink:title=" ">
<path fill="none" stroke="#63b8ff" d="M612,-55.54C612,-46.96 612,-37.61 612,-30.16"/>
<polygon fill="#63b8ff" stroke="#63b8ff" points="608.5,-55.8 612,-65.8 615.5,-55.8 608.5,-55.8"/>
</a>
</g>
</g>
<!-- Node8&#45;&gt;Node7 -->
<g id="edge8_Node000008_Node000007" class="edge">
<title>Node8&#45;&gt;Node7</title>
<g id="a_edge8_Node000008_Node000007"><a xlink:title=" ">
<path fill="none" stroke="#63b8ff" d="M258,-127.08C258,-115.13 258,-100.22 258,-90.91"/>
<polygon fill="#63b8ff" stroke="#63b8ff" points="254.5,-127.37 258,-137.37 261.5,-127.37 254.5,-127.37"/>
</a>
</g>
</g>
<!-- Node9&#45;&gt;Node7 -->
<g id="edge10_Node000009_Node000007" class="edge">
<title>Node9&#45;&gt;Node7</title>
<g id="a_edge10_Node000009_Node000007"><a xlink:title=" ">
<path fill="none" stroke="#63b8ff" d="M123.16,-133.68C156.16,-121.03 206.64,-101.68 235.56,-90.6"/>
<polygon fill="#63b8ff" stroke="#63b8ff" points="121.6,-130.52 113.52,-137.37 124.11,-137.06 121.6,-130.52"/>
</a>
</g>
</g>
<!-- Node12 -->
<g id="Node000012" class="node">
<title>Node12</title>
<g id="a_Node000012"><a xlink:href="../../d7/de4/rabbitmq_8hpp.html" target="_top" xlink:title=" ">
<polygon fill="white" stroke="#666666" points="879,-24.5 757,-24.5 757,-5.5 879,-5.5 879,-24.5"/>
<text text-anchor="middle" x="818" y="-12.5" font-family="Helvetica,sans-Serif" font-size="10.00">userver/rabbitmq.hpp</text>
</a>
</g>
</g>
<!-- Node11&#45;&gt;Node12 -->
<g id="edge13_Node000011_Node000012" class="edge">
<title>Node11&#45;&gt;Node12</title>
<g id="a_edge13_Node000011_Node000012"><a xlink:title=" ">
<path fill="none" stroke="#63b8ff" d="M817.41,-127.45C831.46,-119.97 844.87,-109.75 853,-96 867.51,-71.47 841.83,-39.82 827.16,-24.74"/>
<polygon fill="#63b8ff" stroke="#63b8ff" points="815.58,-124.45 808.13,-131.99 818.66,-130.74 815.58,-124.45"/>
</a>
</g>
</g>
<!-- Node13 -->
<g id="Node000013" class="node">
<title>Node13</title>
<g id="a_Node000013"><a xlink:href="../../d7/dec/rabbitmq_2include_2userver_2urabbitmq_2client_8hpp.html" target="_top" xlink:title="Interface for communicating with a RabbitMQ cluster.">
<polygon fill="white" stroke="#666666" points="844,-90.5 686,-90.5 686,-71.5 844,-71.5 844,-90.5"/>
<text text-anchor="middle" x="765" y="-78.5" font-family="Helvetica,sans-Serif" font-size="10.00">userver/urabbitmq/client.hpp</text>
</a>
</g>
</g>
<!-- Node11&#45;&gt;Node13 -->
<g id="edge14_Node000011_Node000013" class="edge">
<title>Node11&#45;&gt;Node13</title>
<g id="a_edge14_Node000011_Node000013"><a xlink:title=" ">
<path fill="none" stroke="#63b8ff" d="M763.14,-121.6C763.65,-110.8 764.21,-98.78 764.58,-90.84"/>
<polygon fill="#63b8ff" stroke="#63b8ff" points="759.63,-121.64 762.66,-131.8 766.63,-121.97 759.63,-121.64"/>
</a>
</g>
</g>
<!-- Node13&#45;&gt;Node12 -->
<g id="edge15_Node000013_Node000012" class="edge">
<title>Node13&#45;&gt;Node12</title>
<g id="a_edge15_Node000013_Node000012"><a xlink:title=" ">
<path fill="none" stroke="#63b8ff" d="M778.56,-63.62C788.76,-51.31 802.35,-34.89 810.62,-24.91"/>
<polygon fill="#63b8ff" stroke="#63b8ff" points="775.83,-61.43 772.14,-71.37 781.22,-65.9 775.83,-61.43"/>
</a>
</g>
</g>
<!-- Node14&#45;&gt;Node3 -->
<g id="edge17_Node000014_Node000003" class="edge">
<title>Node14&#45;&gt;Node3</title>
<g id="a_edge17_Node000014_Node000003"><a xlink:title=" ">
<path fill="none" stroke="#63b8ff" d="M555.52,-191.75C568.6,-182.13 583.93,-170.86 595.74,-162.16"/>
<polygon fill="#63b8ff" stroke="#63b8ff" points="553.29,-189.05 547.3,-197.8 557.43,-194.69 553.29,-189.05"/>
</a>
</g>
</g>
<!-- Node14&#45;&gt;Node7 -->
<g id="edge18_Node000014_Node000007" class="edge">
<title>Node14&#45;&gt;Node7</title>
<g id="a_edge18_Node000014_Node000007"><a xlink:title=" ">
<path fill="none" stroke="#63b8ff" d="M529.78,-187.76C529.7,-169.94 526.45,-146.41 512,-132 486.73,-106.81 395.13,-93.64 329.17,-87.26"/>
<polygon fill="#63b8ff" stroke="#63b8ff" points="526.28,-187.9 529.5,-197.99 533.28,-188.09 526.28,-187.9"/>
</a>
</g>
</g>
<!-- Node14&#45;&gt;Node8 -->
<g id="edge19_Node000014_Node000008" class="edge">
<title>Node14&#45;&gt;Node8</title>
<g id="a_edge19_Node000014_Node000008"><a xlink:title=" ">
<path fill="none" stroke="#63b8ff" d="M458.8,-195.6C406.16,-183.12 335.86,-166.46 293.93,-156.52"/>
<polygon fill="#63b8ff" stroke="#63b8ff" points="458.21,-199.05 468.74,-197.95 459.82,-192.24 458.21,-199.05"/>
</a>
</g>
</g>
<!-- Node14&#45;&gt;Node10 -->
<g id="edge20_Node000014_Node000010" class="edge">
<title>Node14&#45;&gt;Node10</title>
<g id="a_edge20_Node000014_Node000010"><a xlink:title=" ">
<path fill="none" stroke="#63b8ff" d="M501.38,-191.48C488.98,-181.91 474.53,-170.77 463.37,-162.16"/>
<polygon fill="#63b8ff" stroke="#63b8ff" points="499.52,-194.46 509.58,-197.8 503.79,-188.92 499.52,-194.46"/>
</a>
</g>
</g>
<!-- Node14&#45;&gt;Node11 -->
<g id="edge21_Node000014_Node000011" class="edge">
<title>Node14&#45;&gt;Node11</title>
<g id="a_edge21_Node000014_Node000011"><a xlink:title=" ">
<path fill="none" stroke="#63b8ff" d="M589.22,-195.25C627.03,-184.91 674.98,-171.8 710.76,-162.01"/>
<polygon fill="#63b8ff" stroke="#63b8ff" points="588.07,-191.94 579.35,-197.95 589.92,-198.69 588.07,-191.94"/>
</a>
</g>
</g>
<!-- Node15&#45;&gt;Node7 -->
<g id="edge23_Node000015_Node000007" class="edge">
<title>Node15&#45;&gt;Node7</title>
<g id="a_edge23_Node000015_Node000007"><a xlink:title=" ">
<path fill="none" stroke="#63b8ff" d="M47.77,-193.45C18.04,-178.07 -12.94,-155.06 6,-132 28.53,-104.55 120.55,-91.9 186.88,-86.27"/>
<polygon fill="#63b8ff" stroke="#63b8ff" points="46.39,-196.67 56.9,-197.97 49.49,-190.39 46.39,-196.67"/>
</a>
</g>
</g>
<!-- Node15&#45;&gt;Node9 -->
<g id="edge24_Node000015_Node000009" class="edge">
<title>Node15&#45;&gt;Node9</title>
<g id="a_edge24_Node000015_Node000009"><a xlink:title=" ">
<path fill="none" stroke="#63b8ff" d="M91,-187.6C91,-176.8 91,-164.78 91,-156.84"/>
<polygon fill="#63b8ff" stroke="#63b8ff" points="87.5,-187.8 91,-197.8 94.5,-187.8 87.5,-187.8"/>
</a>
</g>
</g>
</g>
</svg>
