<?xml version="1.0" encoding="UTF-8" standalone="no"?>
<!DOCTYPE svg PUBLIC "-//W3C//DTD SVG 1.1//EN"
 "http://www.w3.org/Graphics/SVG/1.1/DTD/svg11.dtd">
<!-- Generated by graphviz version 2.43.0 (0)
 -->
<!-- Title: formats::json::parser::TypedParser&lt; T &gt; Pages: 1 -->
<svg width="137pt" height="182pt"
 viewBox="0.00 0.00 137.00 182.00" xmlns="http://www.w3.org/2000/svg" xmlns:xlink="http://www.w3.org/1999/xlink">
<g id="graph0" class="graph" transform="scale(1 1) rotate(0) translate(4 178)">
<title>formats::json::parser::TypedParser&lt; T &gt;</title>
<!-- Node1 -->
<g id="Node000001" class="node">
<title>Node1</title>
<g id="a_Node000001"><a xlink:title="Main base class for SAX parsers.">
<polygon fill="#999999" stroke="#666666" points="118,-30 0,-30 0,0 118,0 118,-30"/>
<text text-anchor="start" x="8" y="-18" font-family="Helvetica,sans-Serif" font-size="10.00">formats::json::parser</text>
<text text-anchor="middle" x="59" y="-7" font-family="Helvetica,sans-Serif" font-size="10.00">::TypedParser&lt; T &gt;</text>
</a>
</g>
</g>
<!-- Node2 -->
<g id="Node000002" class="node">
<title>Node2</title>
<g id="a_Node000002"><a xlink:href="../../dd/d76/classformats_1_1json_1_1parser_1_1BaseParser.html" target="_top" xlink:title="Base class for SAX parser.">
<polygon fill="white" stroke="#666666" points="118,-97 0,-97 0,-67 118,-67 118,-97"/>
<text text-anchor="start" x="8" y="-85" font-family="Helvetica,sans-Serif" font-size="10.00">formats::json::parser</text>
<text text-anchor="middle" x="59" y="-74" font-family="Helvetica,sans-Serif" font-size="10.00">::BaseParser</text>
</a>
</g>
</g>
<!-- Node2&#45;&gt;Node1 -->
<g id="edge1_Node000001_Node000002" class="edge">
<title>Node2&#45;&gt;Node1</title>
<g id="a_edge1_Node000001_Node000002"><a xlink:title=" ">
<path fill="none" stroke="#63b8ff" d="M59,-56.61C59,-47.65 59,-37.82 59,-30.08"/>
<polygon fill="#63b8ff" stroke="#63b8ff" points="55.5,-56.9 59,-66.9 62.5,-56.9 55.5,-56.9"/>
</a>
</g>
</g>
<!-- Node3 -->
<g id="Node000003" class="node">
<title>Node3</title>
<g id="a_Node000003"><a xlink:href="../../d9/d49/classformats_1_1json_1_1parser_1_1ParserState.html" target="_top" xlink:title=" ">
<polygon fill="white" stroke="#bfbfbf" points="118,-174 0,-174 0,-144 118,-144 118,-174"/>
<text text-anchor="start" x="8" y="-162" font-family="Helvetica,sans-Serif" font-size="10.00">formats::json::parser</text>
<text text-anchor="middle" x="59" y="-151" font-family="Helvetica,sans-Serif" font-size="10.00">::ParserState</text>
</a>
</g>
</g>
<!-- Node3&#45;&gt;Node2 -->
<g id="edge2_Node000002_Node000003" class="edge">
<title>Node3&#45;&gt;Node2</title>
<g id="a_edge2_Node000002_Node000003"><a xlink:title=" ">
<path fill="none" stroke="#9a32cd" stroke-dasharray="5,2" d="M59,-133.54C59,-121.45 59,-107.29 59,-97.04"/>
<polygon fill="#9a32cd" stroke="#9a32cd" points="55.5,-133.89 59,-143.89 62.5,-133.89 55.5,-133.89"/>
</a>
</g>
<text text-anchor="middle" x="94" y="-118" font-family="Helvetica,sans-Serif" font-size="10.00" fill="grey"> parser_state_</text>
</g>
</g>
</svg>
