<?xml version="1.0" encoding="UTF-8" standalone="no"?>
<!DOCTYPE svg PUBLIC "-//W3C//DTD SVG 1.1//EN"
 "http://www.w3.org/Graphics/SVG/1.1/DTD/svg11.dtd">
<!-- Generated by graphviz version 2.43.0 (0)
 -->
<!-- Title: userver/formats/json/exception.hpp Pages: 1 -->
<svg width="294pt" height="93pt"
 viewBox="0.00 0.00 293.50 93.00" xmlns="http://www.w3.org/2000/svg" xmlns:xlink="http://www.w3.org/1999/xlink">
<g id="graph0" class="graph" transform="scale(1 1) rotate(0) translate(4 89)">
<title>userver/formats/json/exception.hpp</title>
<!-- Node1 -->
<g id="Node000001" class="node">
<title>Node1</title>
<g id="a_Node000001"><a xlink:title="Exception classes for JSON module.">
<polygon fill="#999999" stroke="#666666" points="194,-85 76,-85 76,-55 194,-55 194,-85"/>
<text text-anchor="start" x="84" y="-73" font-family="Helvetica,sans-Serif" font-size="10.00">userver/formats/json</text>
<text text-anchor="middle" x="135" y="-62" font-family="Helvetica,sans-Serif" font-size="10.00">/exception.hpp</text>
</a>
</g>
</g>
<!-- Node2 -->
<g id="Node000002" class="node">
<title>Node2</title>
<g id="a_Node000002"><a xlink:title=" ">
<polygon fill="#e0e0e0" stroke="#999999" points="48,-19 0,-19 0,0 48,0 48,-19"/>
<text text-anchor="middle" x="24" y="-7" font-family="Helvetica,sans-Serif" font-size="10.00">iosfwd</text>
</a>
</g>
</g>
<!-- Node1&#45;&gt;Node2 -->
<g id="edge1_Node000001_Node000002" class="edge">
<title>Node1&#45;&gt;Node2</title>
<g id="a_edge1_Node000001_Node000002"><a xlink:title=" ">
<path fill="none" stroke="#63b8ff" d="M108.41,-54.99C90.55,-45.58 67.16,-33.24 49.52,-23.95"/>
<polygon fill="#63b8ff" stroke="#63b8ff" points="50.87,-20.71 40.39,-19.14 47.61,-26.9 50.87,-20.71"/>
</a>
</g>
</g>
<!-- Node3 -->
<g id="Node000003" class="node">
<title>Node3</title>
<g id="a_Node000003"><a xlink:title=" ">
<polygon fill="#e0e0e0" stroke="#999999" points="131.5,-19 66.5,-19 66.5,0 131.5,0 131.5,-19"/>
<text text-anchor="middle" x="99" y="-7" font-family="Helvetica,sans-Serif" font-size="10.00">stdexcept</text>
</a>
</g>
</g>
<!-- Node1&#45;&gt;Node3 -->
<g id="edge2_Node000001_Node000003" class="edge">
<title>Node1&#45;&gt;Node3</title>
<g id="a_edge2_Node000001_Node000003"><a xlink:title=" ">
<path fill="none" stroke="#63b8ff" d="M126.29,-54.84C121.33,-46.78 115.07,-36.62 109.8,-28.06"/>
<polygon fill="#63b8ff" stroke="#63b8ff" points="112.62,-25.95 104.39,-19.27 106.65,-29.62 112.62,-25.95"/>
</a>
</g>
</g>
<!-- Node4 -->
<g id="Node000004" class="node">
<title>Node4</title>
<g id="a_Node000004"><a xlink:title=" ">
<polygon fill="#e0e0e0" stroke="#999999" points="194,-19 150,-19 150,0 194,0 194,-19"/>
<text text-anchor="middle" x="172" y="-7" font-family="Helvetica,sans-Serif" font-size="10.00">string</text>
</a>
</g>
</g>
<!-- Node1&#45;&gt;Node4 -->
<g id="edge3_Node000001_Node000004" class="edge">
<title>Node1&#45;&gt;Node4</title>
<g id="a_edge3_Node000001_Node000004"><a xlink:title=" ">
<path fill="none" stroke="#63b8ff" d="M143.96,-54.84C149.11,-46.69 155.62,-36.4 161.07,-27.78"/>
<polygon fill="#63b8ff" stroke="#63b8ff" points="164.07,-29.59 166.46,-19.27 158.15,-25.85 164.07,-29.59"/>
</a>
</g>
</g>
<!-- Node5 -->
<g id="Node000005" class="node">
<title>Node5</title>
<g id="a_Node000005"><a xlink:title=" ">
<polygon fill="#e0e0e0" stroke="#999999" points="285.5,-19 212.5,-19 212.5,0 285.5,0 285.5,-19"/>
<text text-anchor="middle" x="249" y="-7" font-family="Helvetica,sans-Serif" font-size="10.00">string_view</text>
</a>
</g>
</g>
<!-- Node1&#45;&gt;Node5 -->
<g id="edge4_Node000001_Node000005" class="edge">
<title>Node1&#45;&gt;Node5</title>
<g id="a_edge4_Node000001_Node000005"><a xlink:title=" ">
<path fill="none" stroke="#63b8ff" d="M162.31,-54.99C180.65,-45.58 204.68,-33.24 222.79,-23.95"/>
<polygon fill="#63b8ff" stroke="#63b8ff" points="224.87,-26.82 232.16,-19.14 221.67,-20.59 224.87,-26.82"/>
</a>
</g>
</g>
</g>
</svg>
