<?xml version="1.0" encoding="UTF-8" standalone="no"?>
<!DOCTYPE svg PUBLIC "-//W3C//DTD SVG 1.1//EN"
 "http://www.w3.org/Graphics/SVG/1.1/DTD/svg11.dtd">
<!-- Generated by graphviz version 2.43.0 (0)
 -->
<!-- Title: storages::postgres::io::traits::IsSuitableRowType&lt; T &gt; Pages: 1 -->
<svg width="517pt" height="60pt"
 viewBox="0.00 0.00 517.00 60.00" xmlns="http://www.w3.org/2000/svg" xmlns:xlink="http://www.w3.org/1999/xlink">
<g id="graph0" class="graph" transform="scale(1 1) rotate(0) translate(4 56)">
<title>storages::postgres::io::traits::IsSuitableRowType&lt; T &gt;</title>
<!-- Node1 -->
<g id="Node000001" class="node">
<title>Node1</title>
<g id="a_Node000001"><a xlink:title=" ">
<polygon fill="#999999" stroke="#666666" points="320,-46.5 182,-46.5 182,-5.5 320,-5.5 320,-46.5"/>
<text text-anchor="start" x="190" y="-34.5" font-family="Helvetica,sans-Serif" font-size="10.00">storages::postgres</text>
<text text-anchor="start" x="190" y="-23.5" font-family="Helvetica,sans-Serif" font-size="10.00">::io::traits::IsSuitableRow</text>
<text text-anchor="middle" x="251" y="-12.5" font-family="Helvetica,sans-Serif" font-size="10.00">Type&lt; T &gt;</text>
</a>
</g>
</g>
<!-- Node3 -->
<g id="Node000003" class="node">
<title>Node3</title>
<g id="a_Node000003"><a xlink:href="../../de/d87/structstorages_1_1postgres_1_1io_1_1traits_1_1IsSuitableRowType_3_01_1_1utils_1_1StrongTypedef_3bc5a79dd338b2ed437a5c63dffa4c73a.html" target="_top" xlink:title=" ">
<polygon fill="white" stroke="#bfbfbf" points="509,-52 356,-52 356,0 509,0 509,-52"/>
<text text-anchor="start" x="364" y="-40" font-family="Helvetica,sans-Serif" font-size="10.00">storages::postgres</text>
<text text-anchor="start" x="364" y="-29" font-family="Helvetica,sans-Serif" font-size="10.00">::io::traits::IsSuitableRow</text>
<text text-anchor="start" x="364" y="-18" font-family="Helvetica,sans-Serif" font-size="10.00">Type&lt; ::utils::StrongTypedef</text>
<text text-anchor="middle" x="432.5" y="-7" font-family="Helvetica,sans-Serif" font-size="10.00">&lt; Tag, T, Ops, Enable &gt; &gt;</text>
</a>
</g>
</g>
<!-- Node1&#45;&gt;Node3 -->
<g id="edge2_Node000001_Node000003" class="edge">
<title>Node1&#45;&gt;Node3</title>
<g id="a_edge2_Node000001_Node000003"><a xlink:title=" ">
<path fill="none" stroke="#63b8ff" d="M330.38,-26C338.86,-26 347.48,-26 355.93,-26"/>
<polygon fill="#63b8ff" stroke="#63b8ff" points="330.12,-22.5 320.12,-26 330.12,-29.5 330.12,-22.5"/>
</a>
</g>
</g>
<!-- Node2 -->
<g id="Node000002" class="node">
<title>Node2</title>
<g id="a_Node000002"><a xlink:title=" ">
<polygon fill="white" stroke="#bfbfbf" points="146,-46.5 0,-46.5 0,-5.5 146,-5.5 146,-46.5"/>
<text text-anchor="start" x="8" y="-34.5" font-family="Helvetica,sans-Serif" font-size="10.00">BoolConstant&lt; detail</text>
<text text-anchor="start" x="8" y="-23.5" font-family="Helvetica,sans-Serif" font-size="10.00">::DetectIsSuitableRowType</text>
<text text-anchor="middle" x="73" y="-12.5" font-family="Helvetica,sans-Serif" font-size="10.00">&lt; T &gt;()&gt;</text>
</a>
</g>
</g>
<!-- Node2&#45;&gt;Node1 -->
<g id="edge1_Node000001_Node000002" class="edge">
<title>Node2&#45;&gt;Node1</title>
<g id="a_edge1_Node000001_Node000002"><a xlink:title=" ">
<path fill="none" stroke="#63b8ff" d="M156.18,-26C164.82,-26 173.53,-26 181.99,-26"/>
<polygon fill="#63b8ff" stroke="#63b8ff" points="156.09,-22.5 146.09,-26 156.09,-29.5 156.09,-22.5"/>
</a>
</g>
</g>
</g>
</svg>
