<?xml version="1.0" encoding="UTF-8" standalone="no"?>
<!DOCTYPE svg PUBLIC "-//W3C//DTD SVG 1.1//EN"
 "http://www.w3.org/Graphics/SVG/1.1/DTD/svg11.dtd">
<!-- Generated by graphviz version 2.43.0 (0)
 -->
<!-- Title: engine::Task Pages: 1 -->
<svg width="431pt" height="184pt"
 viewBox="0.00 0.00 431.00 183.50" xmlns="http://www.w3.org/2000/svg" xmlns:xlink="http://www.w3.org/1999/xlink">
<g id="graph0" class="graph" transform="scale(1 1) rotate(0) translate(4 179.5)">
<title>engine::Task</title>
<!-- Node1 -->
<g id="Node000001" class="node">
<title>Node1</title>
<g id="a_Node000001"><a xlink:title="Asynchronous task that has a unique ownership of the payload.">
<polygon fill="#999999" stroke="#666666" points="214,-89 137,-89 137,-70 214,-70 214,-89"/>
<text text-anchor="middle" x="175.5" y="-77" font-family="Helvetica,sans-Serif" font-size="10.00">engine::Task</text>
</a>
</g>
</g>
<!-- Node3 -->
<g id="Node000003" class="node">
<title>Node3</title>
<g id="a_Node000003"><a xlink:href="../../db/d80/classengine_1_1TaskWithResult.html" target="_top" xlink:title=" ">
<polygon fill="white" stroke="#666666" points="402,-175.5 271,-175.5 271,-145.5 402,-145.5 402,-175.5"/>
<text text-anchor="start" x="279" y="-163.5" font-family="Helvetica,sans-Serif" font-size="10.00">engine::TaskWithResult</text>
<text text-anchor="middle" x="336.5" y="-152.5" font-family="Helvetica,sans-Serif" font-size="10.00">&lt; void &gt;</text>
</a>
</g>
</g>
<!-- Node1&#45;&gt;Node3 -->
<g id="edge2_Node000001_Node000003" class="edge">
<title>Node1&#45;&gt;Node3</title>
<g id="a_edge2_Node000001_Node000003"><a xlink:title=" ">
<path fill="none" stroke="#63b8ff" d="M194.05,-96.3C208.16,-108.97 229.02,-125.93 250,-136.5 256.75,-139.9 264.04,-142.88 271.43,-145.47"/>
<polygon fill="#63b8ff" stroke="#63b8ff" points="196.29,-93.61 186.57,-89.41 191.55,-98.76 196.29,-93.61"/>
</a>
</g>
</g>
<!-- Node4 -->
<g id="Node000004" class="node">
<title>Node4</title>
<g id="a_Node000004"><a xlink:href="../../db/d80/classengine_1_1TaskWithResult.html" target="_top" xlink:title=" ">
<polygon fill="white" stroke="#666666" points="412.5,-127 260.5,-127 260.5,-86 412.5,-86 412.5,-127"/>
<text text-anchor="start" x="268.5" y="-115" font-family="Helvetica,sans-Serif" font-size="10.00">engine::TaskWithResult</text>
<text text-anchor="start" x="268.5" y="-104" font-family="Helvetica,sans-Serif" font-size="10.00">&lt; std::vector&lt; std::optional</text>
<text text-anchor="middle" x="336.5" y="-93" font-family="Helvetica,sans-Serif" font-size="10.00">&lt; ReplyType &gt; &gt; &gt;</text>
</a>
</g>
</g>
<!-- Node1&#45;&gt;Node4 -->
<g id="edge3_Node000001_Node000004" class="edge">
<title>Node1&#45;&gt;Node4</title>
<g id="a_edge3_Node000001_Node000004"><a xlink:title=" ">
<path fill="none" stroke="#63b8ff" d="M224.29,-87.62C235.65,-89.54 248.04,-91.65 260.29,-93.73"/>
<polygon fill="#63b8ff" stroke="#63b8ff" points="224.63,-84.12 214.18,-85.9 223.45,-91.02 224.63,-84.12"/>
</a>
</g>
</g>
<!-- Node5 -->
<g id="Node000005" class="node">
<title>Node5</title>
<g id="a_Node000005"><a xlink:href="../../db/d80/classengine_1_1TaskWithResult.html" target="_top" xlink:title=" ">
<polygon fill="white" stroke="#666666" points="423,-67.5 250,-67.5 250,-37.5 423,-37.5 423,-67.5"/>
<text text-anchor="start" x="258" y="-55.5" font-family="Helvetica,sans-Serif" font-size="10.00">engine::TaskWithResult</text>
<text text-anchor="middle" x="336.5" y="-44.5" font-family="Helvetica,sans-Serif" font-size="10.00">&lt; std::optional&lt; ReplyType &gt; &gt;</text>
</a>
</g>
</g>
<!-- Node1&#45;&gt;Node5 -->
<g id="edge4_Node000001_Node000005" class="edge">
<title>Node1&#45;&gt;Node5</title>
<g id="a_edge4_Node000001_Node000005"><a xlink:title=" ">
<path fill="none" stroke="#63b8ff" d="M224.18,-71.4C232.33,-70.02 241.01,-68.55 249.79,-67.05"/>
<polygon fill="#63b8ff" stroke="#63b8ff" points="223.45,-67.98 214.18,-73.1 224.63,-74.88 223.45,-67.98"/>
</a>
</g>
</g>
<!-- Node6 -->
<g id="Node000006" class="node">
<title>Node6</title>
<g id="a_Node000006"><a xlink:href="../../db/d80/classengine_1_1TaskWithResult.html" target="_top" xlink:title=" ">
<polygon fill="white" stroke="#666666" points="416,-19 257,-19 257,0 416,0 416,-19"/>
<text text-anchor="middle" x="336.5" y="-7" font-family="Helvetica,sans-Serif" font-size="10.00">engine::TaskWithResult&lt; T &gt;</text>
</a>
</g>
</g>
<!-- Node1&#45;&gt;Node6 -->
<g id="edge5_Node000001_Node000006" class="edge">
<title>Node1&#45;&gt;Node6</title>
<g id="a_edge5_Node000001_Node000006"><a xlink:title=" ">
<path fill="none" stroke="#63b8ff" d="M195.59,-63.14C209.74,-51.82 229.97,-37.27 250,-28.5 258.78,-24.66 268.41,-21.56 277.95,-19.06"/>
<polygon fill="#63b8ff" stroke="#63b8ff" points="193.13,-60.63 187.62,-69.69 197.57,-66.04 193.13,-60.63"/>
</a>
</g>
</g>
<!-- Node2 -->
<g id="Node000002" class="node">
<title>Node2</title>
<g id="a_Node000002"><a xlink:href="../../d5/d4b/classengine_1_1TaskBase.html" target="_top" xlink:title="Base class for all the asynchronous tasks (engine::Task, engine::SharedTask, engine::SharedTaskWithRe...">
<polygon fill="white" stroke="#666666" points="101,-89 0,-89 0,-70 101,-70 101,-89"/>
<text text-anchor="middle" x="50.5" y="-77" font-family="Helvetica,sans-Serif" font-size="10.00">engine::TaskBase</text>
</a>
</g>
</g>
<!-- Node2&#45;&gt;Node1 -->
<g id="edge1_Node000001_Node000002" class="edge">
<title>Node2&#45;&gt;Node1</title>
<g id="a_edge1_Node000001_Node000002"><a xlink:title=" ">
<path fill="none" stroke="#63b8ff" d="M111.29,-79.5C119.96,-79.5 128.68,-79.5 136.75,-79.5"/>
<polygon fill="#63b8ff" stroke="#63b8ff" points="111.17,-76 101.17,-79.5 111.17,-83 111.17,-76"/>
</a>
</g>
</g>
</g>
</svg>
