<?xml version="1.0" encoding="UTF-8" standalone="no"?>
<!DOCTYPE svg PUBLIC "-//W3C//DTD SVG 1.1//EN"
 "http://www.w3.org/Graphics/SVG/1.1/DTD/svg11.dtd">
<!-- Generated by graphviz version 2.43.0 (0)
 -->
<!-- Title: storages::postgres::ClusterUnavailable Pages: 1 -->
<svg width="124pt" height="346pt"
 viewBox="0.00 0.00 124.00 346.00" xmlns="http://www.w3.org/2000/svg" xmlns:xlink="http://www.w3.org/1999/xlink">
<g id="graph0" class="graph" transform="scale(1 1) rotate(0) translate(4 342)">
<title>storages::postgres::ClusterUnavailable</title>
<!-- Node1 -->
<g id="Node000001" class="node">
<title>Node1</title>
<g id="a_Node000001"><a xlink:title=" ">
<polygon fill="#999999" stroke="#666666" points="116,-30 0,-30 0,0 116,0 116,-30"/>
<text text-anchor="start" x="8" y="-18" font-family="Helvetica,sans-Serif" font-size="10.00">storages::postgres</text>
<text text-anchor="middle" x="58" y="-7" font-family="Helvetica,sans-Serif" font-size="10.00">::ClusterUnavailable</text>
</a>
</g>
</g>
<!-- Node2 -->
<g id="Node000002" class="node">
<title>Node2</title>
<g id="a_Node000002"><a xlink:href="../../d1/dea/classstorages_1_1postgres_1_1ConnectionError.html" target="_top" xlink:title=" ">
<polygon fill="white" stroke="#bfbfbf" points="111.5,-96 4.5,-96 4.5,-66 111.5,-66 111.5,-96"/>
<text text-anchor="start" x="12.5" y="-84" font-family="Helvetica,sans-Serif" font-size="10.00">storages::postgres</text>
<text text-anchor="middle" x="58" y="-73" font-family="Helvetica,sans-Serif" font-size="10.00">::ConnectionError</text>
</a>
</g>
</g>
<!-- Node2&#45;&gt;Node1 -->
<g id="edge1_Node000001_Node000002" class="edge">
<title>Node2&#45;&gt;Node1</title>
<g id="a_edge1_Node000001_Node000002"><a xlink:title=" ">
<path fill="none" stroke="#63b8ff" d="M58,-55.54C58,-46.96 58,-37.61 58,-30.16"/>
<polygon fill="#63b8ff" stroke="#63b8ff" points="54.5,-55.8 58,-65.8 61.5,-55.8 54.5,-55.8"/>
</a>
</g>
</g>
<!-- Node3 -->
<g id="Node000003" class="node">
<title>Node3</title>
<g id="a_Node000003"><a xlink:href="../../d6/d97/classstorages_1_1postgres_1_1RuntimeError.html" target="_top" xlink:title="Base Postgres runtime error. Reports errors that are consequences of erroneous data,...">
<polygon fill="white" stroke="#666666" points="111.5,-162 4.5,-162 4.5,-132 111.5,-132 111.5,-162"/>
<text text-anchor="start" x="12.5" y="-150" font-family="Helvetica,sans-Serif" font-size="10.00">storages::postgres</text>
<text text-anchor="middle" x="58" y="-139" font-family="Helvetica,sans-Serif" font-size="10.00">::RuntimeError</text>
</a>
</g>
</g>
<!-- Node3&#45;&gt;Node2 -->
<g id="edge2_Node000002_Node000003" class="edge">
<title>Node3&#45;&gt;Node2</title>
<g id="a_edge2_Node000002_Node000003"><a xlink:title=" ">
<path fill="none" stroke="#63b8ff" d="M58,-121.54C58,-112.96 58,-103.61 58,-96.16"/>
<polygon fill="#63b8ff" stroke="#63b8ff" points="54.5,-121.8 58,-131.8 61.5,-121.8 54.5,-121.8"/>
</a>
</g>
</g>
<!-- Node4 -->
<g id="Node000004" class="node">
<title>Node4</title>
<g id="a_Node000004"><a xlink:href="../../df/d3d/classstorages_1_1postgres_1_1Error.html" target="_top" xlink:title="Base class for all exceptions that may be thrown by the driver.">
<polygon fill="white" stroke="#666666" points="111.5,-228 4.5,-228 4.5,-198 111.5,-198 111.5,-228"/>
<text text-anchor="start" x="12.5" y="-216" font-family="Helvetica,sans-Serif" font-size="10.00">storages::postgres</text>
<text text-anchor="middle" x="58" y="-205" font-family="Helvetica,sans-Serif" font-size="10.00">::Error</text>
</a>
</g>
</g>
<!-- Node4&#45;&gt;Node3 -->
<g id="edge3_Node000003_Node000004" class="edge">
<title>Node4&#45;&gt;Node3</title>
<g id="a_edge3_Node000003_Node000004"><a xlink:title=" ">
<path fill="none" stroke="#63b8ff" d="M58,-187.54C58,-178.96 58,-169.61 58,-162.16"/>
<polygon fill="#63b8ff" stroke="#63b8ff" points="54.5,-187.8 58,-197.8 61.5,-187.8 54.5,-187.8"/>
</a>
</g>
</g>
<!-- Node5 -->
<g id="Node000005" class="node">
<title>Node5</title>
<g id="a_Node000005"><a xlink:title=" ">
<polygon fill="white" stroke="#666666" points="110,-283 6,-283 6,-264 110,-264 110,-283"/>
<text text-anchor="middle" x="58" y="-271" font-family="Helvetica,sans-Serif" font-size="10.00">std::runtime_error</text>
</a>
</g>
</g>
<!-- Node5&#45;&gt;Node4 -->
<g id="edge4_Node000004_Node000005" class="edge">
<title>Node5&#45;&gt;Node4</title>
<g id="a_edge4_Node000004_Node000005"><a xlink:title=" ">
<path fill="none" stroke="#63b8ff" d="M58,-253.65C58,-245.36 58,-235.78 58,-228.11"/>
<polygon fill="#63b8ff" stroke="#63b8ff" points="54.5,-253.87 58,-263.87 61.5,-253.87 54.5,-253.87"/>
</a>
</g>
</g>
<!-- Node6 -->
<g id="Node000006" class="node">
<title>Node6</title>
<g id="a_Node000006"><a xlink:title=" ">
<polygon fill="white" stroke="#666666" points="101,-338 15,-338 15,-319 101,-319 101,-338"/>
<text text-anchor="middle" x="58" y="-326" font-family="Helvetica,sans-Serif" font-size="10.00">std::exception</text>
</a>
</g>
</g>
<!-- Node6&#45;&gt;Node5 -->
<g id="edge5_Node000005_Node000006" class="edge">
<title>Node6&#45;&gt;Node5</title>
<g id="a_edge5_Node000005_Node000006"><a xlink:title=" ">
<path fill="none" stroke="#63b8ff" d="M58,-308.66C58,-299.93 58,-289.99 58,-283.09"/>
<polygon fill="#63b8ff" stroke="#63b8ff" points="54.5,-308.75 58,-318.75 61.5,-308.75 54.5,-308.75"/>
</a>
</g>
</g>
</g>
</svg>
