<?xml version="1.0" encoding="UTF-8" standalone="no"?>
<!DOCTYPE svg PUBLIC "-//W3C//DTD SVG 1.1//EN"
 "http://www.w3.org/Graphics/SVG/1.1/DTD/svg11.dtd">
<!-- Generated by graphviz version 2.43.0 (0)
 -->
<!-- Title: userver/server/handlers/http_handler_json_base.hpp Pages: 1 -->
<svg width="452pt" height="104pt"
 viewBox="0.00 0.00 452.00 104.00" xmlns="http://www.w3.org/2000/svg" xmlns:xlink="http://www.w3.org/1999/xlink">
<g id="graph0" class="graph" transform="scale(1 1) rotate(0) translate(4 100)">
<title>userver/server/handlers/http_handler_json_base.hpp</title>
<!-- Node1 -->
<g id="Node000001" class="node">
<title>Node1</title>
<g id="a_Node000001"><a xlink:title="Convenient base for handlers that accept requests with body in JSON format and respond with body in J...">
<polygon fill="#999999" stroke="#666666" points="306,-96 150,-96 150,-66 306,-66 306,-96"/>
<text text-anchor="start" x="158" y="-84" font-family="Helvetica,sans-Serif" font-size="10.00">userver/server/handlers</text>
<text text-anchor="middle" x="228" y="-73" font-family="Helvetica,sans-Serif" font-size="10.00">/http_handler_json_base.hpp</text>
</a>
</g>
</g>
<!-- Node2 -->
<g id="Node000002" class="node">
<title>Node2</title>
<g id="a_Node000002"><a xlink:href="../../d5/ded/handler_8hpp_source.html" target="_top" xlink:title=" ">
<polygon fill="white" stroke="#666666" points="144,-24.5 0,-24.5 0,-5.5 144,-5.5 144,-24.5"/>
<text text-anchor="middle" x="72" y="-12.5" font-family="Helvetica,sans-Serif" font-size="10.00">userver/alerts/handler.hpp</text>
</a>
</g>
</g>
<!-- Node1&#45;&gt;Node2 -->
<g id="edge1_Node000001_Node000002" class="edge">
<title>Node1&#45;&gt;Node2</title>
<g id="a_edge1_Node000001_Node000002"><a xlink:title=" ">
<path fill="none" stroke="#63b8ff" d="M184.37,-62.1C154.42,-49.82 116.03,-34.06 92.76,-24.52"/>
<polygon fill="#63b8ff" stroke="#63b8ff" points="183.18,-65.4 193.77,-65.95 185.84,-58.92 183.18,-65.4"/>
</a>
</g>
</g>
<!-- Node3 -->
<g id="Node000003" class="node">
<title>Node3</title>
<g id="a_Node000003"><a xlink:href="../../d7/d79/inspect__requests_8hpp.html" target="_top" xlink:title="Handler that returns information about all in&#45;flight requests.">
<polygon fill="white" stroke="#666666" points="294,-30 162,-30 162,0 294,0 294,-30"/>
<text text-anchor="start" x="170" y="-18" font-family="Helvetica,sans-Serif" font-size="10.00">userver/server/handlers</text>
<text text-anchor="middle" x="228" y="-7" font-family="Helvetica,sans-Serif" font-size="10.00">/inspect_requests.hpp</text>
</a>
</g>
</g>
<!-- Node1&#45;&gt;Node3 -->
<g id="edge2_Node000001_Node000003" class="edge">
<title>Node1&#45;&gt;Node3</title>
<g id="a_edge2_Node000001_Node000003"><a xlink:title=" ">
<path fill="none" stroke="#63b8ff" d="M228,-55.54C228,-46.96 228,-37.61 228,-30.16"/>
<polygon fill="#63b8ff" stroke="#63b8ff" points="224.5,-55.8 228,-65.8 231.5,-55.8 224.5,-55.8"/>
</a>
</g>
</g>
<!-- Node4 -->
<g id="Node000004" class="node">
<title>Node4</title>
<g id="a_Node000004"><a xlink:href="../../d6/d43/tests__control_8hpp.html" target="_top" xlink:title="Handler that allows to control the behavior of server from tests, and functional tests with testsuite...">
<polygon fill="white" stroke="#666666" points="444,-30 312,-30 312,0 444,0 444,-30"/>
<text text-anchor="start" x="320" y="-18" font-family="Helvetica,sans-Serif" font-size="10.00">userver/server/handlers</text>
<text text-anchor="middle" x="378" y="-7" font-family="Helvetica,sans-Serif" font-size="10.00">/tests_control.hpp</text>
</a>
</g>
</g>
<!-- Node1&#45;&gt;Node4 -->
<g id="edge3_Node000001_Node000004" class="edge">
<title>Node1&#45;&gt;Node4</title>
<g id="a_edge3_Node000001_Node000004"><a xlink:title=" ">
<path fill="none" stroke="#63b8ff" d="M270.38,-61.92C294.08,-51.8 323.19,-39.38 345.16,-30.01"/>
<polygon fill="#63b8ff" stroke="#63b8ff" points="268.74,-58.81 260.92,-65.95 271.49,-65.25 268.74,-58.81"/>
</a>
</g>
</g>
</g>
</svg>
