<?xml version="1.0" encoding="UTF-8" standalone="no"?>
<!DOCTYPE svg PUBLIC "-//W3C//DTD SVG 1.1//EN"
 "http://www.w3.org/Graphics/SVG/1.1/DTD/svg11.dtd">
<!-- Generated by graphviz version 2.43.0 (0)
 -->
<!-- Title: components::DynamicConfigClientUpdater Pages: 1 -->
<svg width="903pt" height="113pt"
 viewBox="0.00 0.00 903.00 112.50" xmlns="http://www.w3.org/2000/svg" xmlns:xlink="http://www.w3.org/1999/xlink">
<g id="graph0" class="graph" transform="scale(1 1) rotate(0) translate(4 108.5)">
<title>components::DynamicConfigClientUpdater</title>
<!-- Node1 -->
<g id="Node000001" class="node">
<title>Node1</title>
<g id="a_Node000001"><a xlink:title="Component that does a periodic update of runtime configs.">
<polygon fill="#999999" stroke="#666666" points="895,-51 738,-51 738,-21 895,-21 895,-51"/>
<text text-anchor="start" x="746" y="-39" font-family="Helvetica,sans-Serif" font-size="10.00">components::DynamicConfig</text>
<text text-anchor="middle" x="816.5" y="-28" font-family="Helvetica,sans-Serif" font-size="10.00">ClientUpdater</text>
</a>
</g>
</g>
<!-- Node2 -->
<g id="Node000002" class="node">
<title>Node2</title>
<g id="a_Node000002"><a xlink:href="../../df/dd1/classcomponents_1_1CachingComponentBase.html" target="_top" xlink:title=" ">
<polygon fill="white" stroke="#666666" points="663,-73 472,-73 472,-43 663,-43 663,-73"/>
<text text-anchor="start" x="480" y="-61" font-family="Helvetica,sans-Serif" font-size="10.00">components::CachingComponent</text>
<text text-anchor="middle" x="567.5" y="-50" font-family="Helvetica,sans-Serif" font-size="10.00">Base&lt; dynamic_config::DocsMap &gt;</text>
</a>
</g>
</g>
<!-- Node2&#45;&gt;Node1 -->
<g id="edge1_Node000001_Node000002" class="edge">
<title>Node2&#45;&gt;Node1</title>
<g id="a_edge1_Node000001_Node000002"><a xlink:title=" ">
<path fill="none" stroke="#63b8ff" d="M673.47,-48.65C695.04,-46.73 717.38,-44.74 737.78,-42.92"/>
<polygon fill="#63b8ff" stroke="#63b8ff" points="672.94,-45.18 663.29,-49.56 673.56,-52.16 672.94,-45.18"/>
</a>
</g>
</g>
<!-- Node3 -->
<g id="Node000003" class="node">
<title>Node3</title>
<g id="a_Node000003"><a xlink:href="../../d5/d69/classcomponents_1_1LoggableComponentBase.html" target="_top" xlink:title="Base class for all application components, it depends on components::Logger and components::Tracer.">
<polygon fill="white" stroke="#666666" points="435,-104.5 228,-104.5 228,-85.5 435,-85.5 435,-104.5"/>
<text text-anchor="middle" x="331.5" y="-92.5" font-family="Helvetica,sans-Serif" font-size="10.00">components::LoggableComponentBase</text>
</a>
</g>
</g>
<!-- Node3&#45;&gt;Node2 -->
<g id="edge2_Node000002_Node000003" class="edge">
<title>Node3&#45;&gt;Node2</title>
<g id="a_edge2_Node000002_Node000003"><a xlink:title=" ">
<path fill="none" stroke="#63b8ff" d="M402.87,-83.87C424.58,-80.44 448.86,-76.6 471.93,-72.95"/>
<polygon fill="#63b8ff" stroke="#63b8ff" points="402.09,-80.45 392.76,-85.47 403.18,-87.37 402.09,-80.45"/>
</a>
</g>
</g>
<!-- Node4 -->
<g id="Node000004" class="node">
<title>Node4</title>
<g id="a_Node000004"><a xlink:title=" ">
<polygon fill="white" stroke="#666666" points="191,-104.5 0,-104.5 0,-85.5 191,-85.5 191,-104.5"/>
<text text-anchor="middle" x="95.5" y="-92.5" font-family="Helvetica,sans-Serif" font-size="10.00">components::impl::ComponentBase</text>
</a>
</g>
</g>
<!-- Node4&#45;&gt;Node3 -->
<g id="edge3_Node000003_Node000004" class="edge">
<title>Node4&#45;&gt;Node3</title>
<g id="a_edge3_Node000003_Node000004"><a xlink:title=" ">
<path fill="none" stroke="#63b8ff" d="M201.06,-95C210.01,-95 219.06,-95 227.99,-95"/>
<polygon fill="#63b8ff" stroke="#63b8ff" points="201,-91.5 191,-95 201,-98.5 201,-91.5"/>
</a>
</g>
</g>
<!-- Node5 -->
<g id="Node000005" class="node">
<title>Node5</title>
<g id="a_Node000005"><a xlink:href="../../da/df8/classcache_1_1CacheUpdateTrait.html" target="_top" xlink:title="Base class for periodically updated caches.">
<polygon fill="white" stroke="#666666" points="400,-67.5 263,-67.5 263,-48.5 400,-48.5 400,-67.5"/>
<text text-anchor="middle" x="331.5" y="-55.5" font-family="Helvetica,sans-Serif" font-size="10.00">cache::CacheUpdateTrait</text>
</a>
</g>
</g>
<!-- Node5&#45;&gt;Node2 -->
<g id="edge4_Node000002_Node000005" class="edge">
<title>Node5&#45;&gt;Node2</title>
<g id="a_edge4_Node000002_Node000005"><a xlink:title=" ">
<path fill="none" stroke="darkgreen" d="M410.34,-58C430.09,-58 451.52,-58 471.99,-58"/>
<polygon fill="darkgreen" stroke="darkgreen" points="410.18,-54.5 400.18,-58 410.18,-61.5 410.18,-54.5"/>
</a>
</g>
</g>
<!-- Node6 -->
<g id="Node000006" class="node">
<title>Node6</title>
<g id="a_Node000006"><a xlink:title=" ">
<polygon fill="white" stroke="#666666" points="614.5,-24.5 520.5,-24.5 520.5,-5.5 614.5,-5.5 614.5,-24.5"/>
<text text-anchor="middle" x="567.5" y="-12.5" font-family="Helvetica,sans-Serif" font-size="10.00">std::string_view</text>
</a>
</g>
</g>
<!-- Node6&#45;&gt;Node1 -->
<g id="edge5_Node000001_Node000006" class="edge">
<title>Node6&#45;&gt;Node1</title>
<g id="a_edge5_Node000001_Node000006"><a xlink:title=" ">
<path fill="none" stroke="#9a32cd" stroke-dasharray="5,2" d="M624.75,-19.78C658.27,-22.63 701.3,-26.29 738,-29.41"/>
<polygon fill="#9a32cd" stroke="#9a32cd" points="624.93,-16.29 614.67,-18.93 624.34,-23.26 624.93,-16.29"/>
</a>
</g>
<text text-anchor="middle" x="700.5" y="-31" font-family="Helvetica,sans-Serif" font-size="10.00" fill="grey"> kName</text>
</g>
<!-- Node7 -->
<g id="Node000007" class="node">
<title>Node7</title>
<g id="a_Node000007"><a xlink:title=" ">
<polygon fill="white" stroke="#666666" points="394,-30 269,-30 269,0 394,0 394,-30"/>
<text text-anchor="start" x="277" y="-18" font-family="Helvetica,sans-Serif" font-size="10.00">std::basic_string_view</text>
<text text-anchor="middle" x="331.5" y="-7" font-family="Helvetica,sans-Serif" font-size="10.00">&lt; Char &gt;</text>
</a>
</g>
</g>
<!-- Node7&#45;&gt;Node6 -->
<g id="edge6_Node000006_Node000007" class="edge">
<title>Node7&#45;&gt;Node6</title>
<g id="a_edge6_Node000006_Node000007"><a xlink:title=" ">
<path fill="none" stroke="#63b8ff" d="M404.71,-15C442.39,-15 487.38,-15 520.34,-15"/>
<polygon fill="#63b8ff" stroke="#63b8ff" points="404.29,-11.5 394.29,-15 404.29,-18.5 404.29,-11.5"/>
</a>
</g>
</g>
</g>
</svg>
