<?xml version="1.0" encoding="UTF-8" standalone="no"?>
<!DOCTYPE svg PUBLIC "-//W3C//DTD SVG 1.1//EN"
 "http://www.w3.org/Graphics/SVG/1.1/DTD/svg11.dtd">
<!-- Generated by graphviz version 2.43.0 (0)
 -->
<!-- Title: userver/utils/datetime/date.hpp Pages: 1 -->
<svg width="627pt" height="291pt"
 viewBox="0.00 0.00 627.00 291.00" xmlns="http://www.w3.org/2000/svg" xmlns:xlink="http://www.w3.org/1999/xlink">
<g id="graph0" class="graph" transform="scale(1 1) rotate(0) translate(4 287)">
<title>userver/utils/datetime/date.hpp</title>
<!-- Node1 -->
<g id="Node000001" class="node">
<title>Node1</title>
<g id="a_Node000001"><a xlink:title="Date in format YYYY&#45;MM&#45;DD, std::chrono::year_month_day like type.">
<polygon fill="#999999" stroke="#666666" points="229.5,-283 104.5,-283 104.5,-253 229.5,-253 229.5,-283"/>
<text text-anchor="start" x="112.5" y="-271" font-family="Helvetica,sans-Serif" font-size="10.00">userver/utils/datetime</text>
<text text-anchor="middle" x="167" y="-260" font-family="Helvetica,sans-Serif" font-size="10.00">/date.hpp</text>
</a>
</g>
</g>
<!-- Node2 -->
<g id="Node000002" class="node">
<title>Node2</title>
<g id="a_Node000002"><a xlink:title=" ">
<polygon fill="#e0e0e0" stroke="#999999" points="50,-211.5 0,-211.5 0,-192.5 50,-192.5 50,-211.5"/>
<text text-anchor="middle" x="25" y="-199.5" font-family="Helvetica,sans-Serif" font-size="10.00">chrono</text>
</a>
</g>
</g>
<!-- Node1&#45;&gt;Node2 -->
<g id="edge1_Node000001_Node000002" class="edge">
<title>Node1&#45;&gt;Node2</title>
<g id="a_edge1_Node000001_Node000002"><a xlink:title=" ">
<path fill="none" stroke="#63b8ff" d="M135.84,-252.95C111.15,-241.83 76.97,-226.42 53.12,-215.67"/>
<polygon fill="#63b8ff" stroke="#63b8ff" points="54.45,-212.44 43.9,-211.52 51.58,-218.82 54.45,-212.44"/>
</a>
</g>
</g>
<!-- Node3 -->
<g id="Node000003" class="node">
<title>Node3</title>
<g id="a_Node000003"><a xlink:title=" ">
<polygon fill="#e0e0e0" stroke="#999999" points="116,-211.5 68,-211.5 68,-192.5 116,-192.5 116,-211.5"/>
<text text-anchor="middle" x="92" y="-199.5" font-family="Helvetica,sans-Serif" font-size="10.00">iosfwd</text>
</a>
</g>
</g>
<!-- Node1&#45;&gt;Node3 -->
<g id="edge2_Node000001_Node000003" class="edge">
<title>Node1&#45;&gt;Node3</title>
<g id="a_edge2_Node000001_Node000003"><a xlink:title=" ">
<path fill="none" stroke="#63b8ff" d="M150.36,-252.8C138.43,-242.62 122.39,-228.93 110.14,-218.48"/>
<polygon fill="#63b8ff" stroke="#63b8ff" points="112.24,-215.67 102.36,-211.84 107.7,-221 112.24,-215.67"/>
</a>
</g>
</g>
<!-- Node4 -->
<g id="Node000004" class="node">
<title>Node4</title>
<g id="a_Node000004"><a xlink:title=" ">
<polygon fill="#e0e0e0" stroke="#999999" points="199.5,-211.5 134.5,-211.5 134.5,-192.5 199.5,-192.5 199.5,-211.5"/>
<text text-anchor="middle" x="167" y="-199.5" font-family="Helvetica,sans-Serif" font-size="10.00">stdexcept</text>
</a>
</g>
</g>
<!-- Node1&#45;&gt;Node4 -->
<g id="edge3_Node000001_Node000004" class="edge">
<title>Node1&#45;&gt;Node4</title>
<g id="a_edge3_Node000001_Node000004"><a xlink:title=" ">
<path fill="none" stroke="#63b8ff" d="M167,-252.8C167,-243.7 167,-231.79 167,-221.9"/>
<polygon fill="#63b8ff" stroke="#63b8ff" points="170.5,-221.84 167,-211.84 163.5,-221.84 170.5,-221.84"/>
</a>
</g>
</g>
<!-- Node5 -->
<g id="Node000005" class="node">
<title>Node5</title>
<g id="a_Node000005"><a xlink:title=" ">
<polygon fill="#e0e0e0" stroke="#999999" points="262,-211.5 218,-211.5 218,-192.5 262,-192.5 262,-211.5"/>
<text text-anchor="middle" x="240" y="-199.5" font-family="Helvetica,sans-Serif" font-size="10.00">string</text>
</a>
</g>
</g>
<!-- Node1&#45;&gt;Node5 -->
<g id="edge4_Node000001_Node000005" class="edge">
<title>Node1&#45;&gt;Node5</title>
<g id="a_edge4_Node000001_Node000005"><a xlink:title=" ">
<path fill="none" stroke="#63b8ff" d="M183.2,-252.8C194.8,-242.62 210.42,-228.93 222.34,-218.48"/>
<polygon fill="#63b8ff" stroke="#63b8ff" points="224.7,-221.07 229.91,-211.84 220.09,-215.8 224.7,-221.07"/>
</a>
</g>
</g>
<!-- Node6 -->
<g id="Node000006" class="node">
<title>Node6</title>
<g id="a_Node000006"><a xlink:href="../../da/d00/universal_2include_2userver_2formats_2common_2meta_8hpp.html" target="_top" xlink:title="Metaprogramming helpers for converters detection.">
<polygon fill="white" stroke="#666666" points="420,-217 280,-217 280,-187 420,-187 420,-217"/>
<text text-anchor="start" x="288" y="-205" font-family="Helvetica,sans-Serif" font-size="10.00">userver/formats/common</text>
<text text-anchor="middle" x="350" y="-194" font-family="Helvetica,sans-Serif" font-size="10.00">/meta.hpp</text>
</a>
</g>
</g>
<!-- Node1&#45;&gt;Node6 -->
<g id="edge5_Node000001_Node000006" class="edge">
<title>Node1&#45;&gt;Node6</title>
<g id="a_edge5_Node000001_Node000006"><a xlink:title=" ">
<path fill="none" stroke="#63b8ff" d="M207.16,-252.95C234.57,-243.37 271.08,-230.6 300.32,-220.37"/>
<polygon fill="#63b8ff" stroke="#63b8ff" points="301.65,-223.62 309.93,-217.01 299.34,-217.01 301.65,-223.62"/>
</a>
</g>
</g>
<!-- Node7 -->
<g id="Node000007" class="node">
<title>Node7</title>
<g id="a_Node000007"><a xlink:title=" ">
<polygon fill="#e0e0e0" stroke="#999999" points="521.5,-19 452.5,-19 452.5,0 521.5,0 521.5,-19"/>
<text text-anchor="middle" x="487" y="-7" font-family="Helvetica,sans-Serif" font-size="10.00">type_traits</text>
</a>
</g>
</g>
<!-- Node6&#45;&gt;Node7 -->
<g id="edge6_Node000006_Node000007" class="edge">
<title>Node6&#45;&gt;Node7</title>
<g id="a_edge6_Node000006_Node000007"><a xlink:title=" ">
<path fill="none" stroke="#63b8ff" d="M279.63,-189.01C230.94,-177.4 178.89,-156.25 203,-121 257.15,-41.83 377.04,-19.37 442.4,-13.01"/>
<polygon fill="#63b8ff" stroke="#63b8ff" points="442.75,-16.49 452.4,-12.12 442.13,-9.52 442.75,-16.49"/>
</a>
</g>
</g>
<!-- Node8 -->
<g id="Node000008" class="node">
<title>Node8</title>
<g id="a_Node000008"><a xlink:href="../../d2/dc8/universal_2include_2userver_2formats_2parse_2to_8hpp.html" target="_top" xlink:title="Helper for parsers.">
<polygon fill="white" stroke="#666666" points="337.5,-151 212.5,-151 212.5,-121 337.5,-121 337.5,-151"/>
<text text-anchor="start" x="220.5" y="-139" font-family="Helvetica,sans-Serif" font-size="10.00">userver/formats/parse</text>
<text text-anchor="middle" x="275" y="-128" font-family="Helvetica,sans-Serif" font-size="10.00">/to.hpp</text>
</a>
</g>
</g>
<!-- Node6&#45;&gt;Node8 -->
<g id="edge7_Node000006_Node000008" class="edge">
<title>Node6&#45;&gt;Node8</title>
<g id="a_edge7_Node000006_Node000008"><a xlink:title=" ">
<path fill="none" stroke="#63b8ff" d="M333.36,-186.8C323.35,-178.26 310.45,-167.25 299.32,-157.75"/>
<polygon fill="#63b8ff" stroke="#63b8ff" points="301.48,-154.99 291.6,-151.16 296.93,-160.32 301.48,-154.99"/>
</a>
</g>
</g>
<!-- Node9 -->
<g id="Node000009" class="node">
<title>Node9</title>
<g id="a_Node000009"><a xlink:href="../../d6/d8e/universal_2include_2userver_2formats_2serialize_2to_8hpp.html" target="_top" xlink:title="Helper for serializers.">
<polygon fill="white" stroke="#666666" points="494.5,-151 355.5,-151 355.5,-121 494.5,-121 494.5,-151"/>
<text text-anchor="start" x="363.5" y="-139" font-family="Helvetica,sans-Serif" font-size="10.00">userver/formats/serialize</text>
<text text-anchor="middle" x="425" y="-128" font-family="Helvetica,sans-Serif" font-size="10.00">/to.hpp</text>
</a>
</g>
</g>
<!-- Node6&#45;&gt;Node9 -->
<g id="edge8_Node000006_Node000009" class="edge">
<title>Node6&#45;&gt;Node9</title>
<g id="a_edge8_Node000006_Node000009"><a xlink:title=" ">
<path fill="none" stroke="#63b8ff" d="M366.64,-186.8C376.65,-178.26 389.55,-167.25 400.68,-157.75"/>
<polygon fill="#63b8ff" stroke="#63b8ff" points="403.07,-160.32 408.4,-151.16 398.52,-154.99 403.07,-160.32"/>
</a>
</g>
</g>
<!-- Node10 -->
<g id="Node000010" class="node">
<title>Node10</title>
<g id="a_Node000010"><a xlink:href="../../d3/da0/meta__light_8hpp.html" target="_top" xlink:title="Lightweight concepts.">
<polygon fill="white" stroke="#666666" points="619,-151 513,-151 513,-121 619,-121 619,-151"/>
<text text-anchor="start" x="521" y="-139" font-family="Helvetica,sans-Serif" font-size="10.00">userver/utils/meta</text>
<text text-anchor="middle" x="566" y="-128" font-family="Helvetica,sans-Serif" font-size="10.00">_light.hpp</text>
</a>
</g>
</g>
<!-- Node6&#45;&gt;Node10 -->
<g id="edge9_Node000006_Node000010" class="edge">
<title>Node6&#45;&gt;Node10</title>
<g id="a_edge9_Node000006_Node000010"><a xlink:title=" ">
<path fill="none" stroke="#63b8ff" d="M397.4,-186.95C430.18,-177.24 473.97,-164.27 508.71,-153.98"/>
<polygon fill="#63b8ff" stroke="#63b8ff" points="510.11,-157.21 518.71,-151.01 508.13,-150.5 510.11,-157.21"/>
</a>
</g>
</g>
<!-- Node10&#45;&gt;Node7 -->
<g id="edge10_Node000010_Node000007" class="edge">
<title>Node10&#45;&gt;Node7</title>
<g id="a_edge10_Node000010_Node000007"><a xlink:title=" ">
<path fill="none" stroke="#63b8ff" d="M542.65,-120.8C530.03,-111.98 515.19,-99.56 506,-85 495.34,-68.1 490.65,-45.5 488.59,-29.64"/>
<polygon fill="#63b8ff" stroke="#63b8ff" points="492.05,-29.03 487.51,-19.45 485.09,-29.77 492.05,-29.03"/>
</a>
</g>
</g>
<!-- Node11 -->
<g id="Node000011" class="node">
<title>Node11</title>
<g id="a_Node000011"><a xlink:href="../../d9/dce/void__t_8hpp.html" target="_top" xlink:title="std::void_t implementation with workarounds for compiler bugs">
<polygon fill="white" stroke="#666666" points="616.5,-85 515.5,-85 515.5,-55 616.5,-55 616.5,-85"/>
<text text-anchor="start" x="523.5" y="-73" font-family="Helvetica,sans-Serif" font-size="10.00">userver/utils/void</text>
<text text-anchor="middle" x="566" y="-62" font-family="Helvetica,sans-Serif" font-size="10.00">_t.hpp</text>
</a>
</g>
</g>
<!-- Node10&#45;&gt;Node11 -->
<g id="edge11_Node000010_Node000011" class="edge">
<title>Node10&#45;&gt;Node11</title>
<g id="a_edge11_Node000010_Node000011"><a xlink:title=" ">
<path fill="none" stroke="#63b8ff" d="M566,-120.8C566,-113.34 566,-103.99 566,-95.41"/>
<polygon fill="#63b8ff" stroke="#63b8ff" points="569.5,-95.16 566,-85.16 562.5,-95.16 569.5,-95.16"/>
</a>
</g>
</g>
<!-- Node11&#45;&gt;Node7 -->
<g id="edge12_Node000011_Node000007" class="edge">
<title>Node11&#45;&gt;Node7</title>
<g id="a_edge12_Node000011_Node000007"><a xlink:title=" ">
<path fill="none" stroke="#63b8ff" d="M546.88,-54.84C534.82,-45.91 519.29,-34.41 507.06,-25.35"/>
<polygon fill="#63b8ff" stroke="#63b8ff" points="508.96,-22.4 498.84,-19.27 504.79,-28.03 508.96,-22.4"/>
</a>
</g>
</g>
</g>
</svg>
