<?xml version="1.0" encoding="UTF-8" standalone="no"?>
<!DOCTYPE svg PUBLIC "-//W3C//DTD SVG 1.1//EN"
 "http://www.w3.org/Graphics/SVG/1.1/DTD/svg11.dtd">
<!-- Generated by graphviz version 2.43.0 (0)
 -->
<!-- Title: storages::postgres::ConnectionError Pages: 1 -->
<svg width="1045pt" height="230pt"
 viewBox="0.00 0.00 1045.00 230.00" xmlns="http://www.w3.org/2000/svg" xmlns:xlink="http://www.w3.org/1999/xlink">
<g id="graph0" class="graph" transform="scale(1 1) rotate(0) translate(4 226)">
<title>storages::postgres::ConnectionError</title>
<!-- Node1 -->
<g id="Node000001" class="node">
<title>Node1</title>
<g id="a_Node000001"><a xlink:title=" ">
<polygon fill="#999999" stroke="#666666" points="655,-126 548,-126 548,-96 655,-96 655,-126"/>
<text text-anchor="start" x="556" y="-114" font-family="Helvetica,sans-Serif" font-size="10.00">storages::postgres</text>
<text text-anchor="middle" x="601.5" y="-103" font-family="Helvetica,sans-Serif" font-size="10.00">::ConnectionError</text>
</a>
</g>
</g>
<!-- Node6 -->
<g id="Node000006" class="node">
<title>Node6</title>
<g id="a_Node000006"><a xlink:href="../../da/d34/classstorages_1_1postgres_1_1ServerError.html" target="_top" xlink:title=" ">
<polygon fill="white" stroke="#666666" points="869,-222 691,-222 691,-192 869,-192 869,-222"/>
<text text-anchor="start" x="699" y="-210" font-family="Helvetica,sans-Serif" font-size="10.00">storages::postgres</text>
<text text-anchor="middle" x="780" y="-199" font-family="Helvetica,sans-Serif" font-size="10.00">::ServerError&lt; ConnectionError &gt;</text>
</a>
</g>
</g>
<!-- Node1&#45;&gt;Node6 -->
<g id="edge5_Node000001_Node000006" class="edge">
<title>Node1&#45;&gt;Node6</title>
<g id="a_edge5_Node000001_Node000006"><a xlink:title=" ">
<path fill="none" stroke="#63b8ff" d="M624.71,-133.54C641.56,-149.46 666.02,-170.17 691,-183 697.62,-186.4 704.78,-189.36 712.05,-191.93"/>
<polygon fill="#63b8ff" stroke="#63b8ff" points="626.7,-130.6 617.08,-126.16 621.84,-135.63 626.7,-130.6"/>
</a>
</g>
</g>
<!-- Node8 -->
<g id="Node000008" class="node">
<title>Node8</title>
<g id="a_Node000008"><a xlink:href="../../d1/d0d/classstorages_1_1postgres_1_1ClusterUnavailable.html" target="_top" xlink:title=" ">
<polygon fill="white" stroke="#bfbfbf" points="838,-174 722,-174 722,-144 838,-144 838,-174"/>
<text text-anchor="start" x="730" y="-162" font-family="Helvetica,sans-Serif" font-size="10.00">storages::postgres</text>
<text text-anchor="middle" x="780" y="-151" font-family="Helvetica,sans-Serif" font-size="10.00">::ClusterUnavailable</text>
</a>
</g>
</g>
<!-- Node1&#45;&gt;Node8 -->
<g id="edge7_Node000001_Node000008" class="edge">
<title>Node1&#45;&gt;Node8</title>
<g id="a_edge7_Node000001_Node000008"><a xlink:title=" ">
<path fill="none" stroke="#63b8ff" d="M665.24,-128.06C684.3,-133.25 705.09,-138.9 723.63,-143.94"/>
<polygon fill="#63b8ff" stroke="#63b8ff" points="666.02,-124.65 655.46,-125.4 664.19,-131.4 666.02,-124.65"/>
</a>
</g>
</g>
<!-- Node9 -->
<g id="Node000009" class="node">
<title>Node9</title>
<g id="a_Node000009"><a xlink:href="../../dc/d36/classstorages_1_1postgres_1_1CommandError.html" target="_top" xlink:title="Error when invoking a libpq function.">
<polygon fill="white" stroke="#666666" points="833.5,-126 726.5,-126 726.5,-96 833.5,-96 833.5,-126"/>
<text text-anchor="start" x="734.5" y="-114" font-family="Helvetica,sans-Serif" font-size="10.00">storages::postgres</text>
<text text-anchor="middle" x="780" y="-103" font-family="Helvetica,sans-Serif" font-size="10.00">::CommandError</text>
</a>
</g>
</g>
<!-- Node1&#45;&gt;Node9 -->
<g id="edge8_Node000001_Node000009" class="edge">
<title>Node1&#45;&gt;Node9</title>
<g id="a_edge8_Node000001_Node000009"><a xlink:title=" ">
<path fill="none" stroke="#63b8ff" d="M665.67,-111C685.56,-111 707.31,-111 726.39,-111"/>
<polygon fill="#63b8ff" stroke="#63b8ff" points="665.46,-107.5 655.46,-111 665.46,-114.5 665.46,-107.5"/>
</a>
</g>
</g>
<!-- Node10 -->
<g id="Node000010" class="node">
<title>Node10</title>
<g id="a_Node000010"><a xlink:href="../../d9/d90/classstorages_1_1postgres_1_1ConnectionFailed.html" target="_top" xlink:title="Exception is thrown when a single connection fails to connect.">
<polygon fill="white" stroke="#666666" points="833.5,-78 726.5,-78 726.5,-48 833.5,-48 833.5,-78"/>
<text text-anchor="start" x="734.5" y="-66" font-family="Helvetica,sans-Serif" font-size="10.00">storages::postgres</text>
<text text-anchor="middle" x="780" y="-55" font-family="Helvetica,sans-Serif" font-size="10.00">::ConnectionFailed</text>
</a>
</g>
</g>
<!-- Node1&#45;&gt;Node10 -->
<g id="edge9_Node000001_Node000010" class="edge">
<title>Node1&#45;&gt;Node10</title>
<g id="a_edge9_Node000001_Node000010"><a xlink:title=" ">
<path fill="none" stroke="#63b8ff" d="M665.12,-93.97C685.16,-88.52 707.13,-82.54 726.39,-77.31"/>
<polygon fill="#63b8ff" stroke="#63b8ff" points="664.19,-90.6 655.46,-96.6 666.02,-97.35 664.19,-90.6"/>
</a>
</g>
</g>
<!-- Node11 -->
<g id="Node000011" class="node">
<title>Node11</title>
<g id="a_Node000011"><a xlink:href="../../d4/db0/classstorages_1_1postgres_1_1ConnectionTimeoutError.html" target="_top" xlink:title="A network operation on a connection has timed out.">
<polygon fill="white" stroke="#666666" points="850.5,-30 709.5,-30 709.5,0 850.5,0 850.5,-30"/>
<text text-anchor="start" x="717.5" y="-18" font-family="Helvetica,sans-Serif" font-size="10.00">storages::postgres</text>
<text text-anchor="middle" x="780" y="-7" font-family="Helvetica,sans-Serif" font-size="10.00">::ConnectionTimeoutError</text>
</a>
</g>
</g>
<!-- Node1&#45;&gt;Node11 -->
<g id="edge10_Node000001_Node000011" class="edge">
<title>Node1&#45;&gt;Node11</title>
<g id="a_edge10_Node000001_Node000011"><a xlink:title=" ">
<path fill="none" stroke="#63b8ff" d="M624.71,-88.46C641.56,-72.54 666.02,-51.83 691,-39 697.62,-35.6 704.78,-32.64 712.05,-30.07"/>
<polygon fill="#63b8ff" stroke="#63b8ff" points="621.84,-86.37 617.08,-95.84 626.7,-91.4 621.84,-86.37"/>
</a>
</g>
</g>
<!-- Node2 -->
<g id="Node000002" class="node">
<title>Node2</title>
<g id="a_Node000002"><a xlink:href="../../d6/d97/classstorages_1_1postgres_1_1RuntimeError.html" target="_top" xlink:title="Base Postgres runtime error. Reports errors that are consequences of erroneous data,...">
<polygon fill="white" stroke="#666666" points="512,-126 405,-126 405,-96 512,-96 512,-126"/>
<text text-anchor="start" x="413" y="-114" font-family="Helvetica,sans-Serif" font-size="10.00">storages::postgres</text>
<text text-anchor="middle" x="458.5" y="-103" font-family="Helvetica,sans-Serif" font-size="10.00">::RuntimeError</text>
</a>
</g>
</g>
<!-- Node2&#45;&gt;Node1 -->
<g id="edge1_Node000001_Node000002" class="edge">
<title>Node2&#45;&gt;Node1</title>
<g id="a_edge1_Node000001_Node000002"><a xlink:title=" ">
<path fill="none" stroke="#63b8ff" d="M522.05,-111C530.7,-111 539.51,-111 547.95,-111"/>
<polygon fill="#63b8ff" stroke="#63b8ff" points="522,-107.5 512,-111 522,-114.5 522,-107.5"/>
</a>
</g>
</g>
<!-- Node3 -->
<g id="Node000003" class="node">
<title>Node3</title>
<g id="a_Node000003"><a xlink:href="../../df/d3d/classstorages_1_1postgres_1_1Error.html" target="_top" xlink:title="Base class for all exceptions that may be thrown by the driver.">
<polygon fill="white" stroke="#666666" points="369,-126 262,-126 262,-96 369,-96 369,-126"/>
<text text-anchor="start" x="270" y="-114" font-family="Helvetica,sans-Serif" font-size="10.00">storages::postgres</text>
<text text-anchor="middle" x="315.5" y="-103" font-family="Helvetica,sans-Serif" font-size="10.00">::Error</text>
</a>
</g>
</g>
<!-- Node3&#45;&gt;Node2 -->
<g id="edge2_Node000002_Node000003" class="edge">
<title>Node3&#45;&gt;Node2</title>
<g id="a_edge2_Node000002_Node000003"><a xlink:title=" ">
<path fill="none" stroke="#63b8ff" d="M379.05,-111C387.7,-111 396.51,-111 404.95,-111"/>
<polygon fill="#63b8ff" stroke="#63b8ff" points="379,-107.5 369,-111 379,-114.5 379,-107.5"/>
</a>
</g>
</g>
<!-- Node4 -->
<g id="Node000004" class="node">
<title>Node4</title>
<g id="a_Node000004"><a xlink:title=" ">
<polygon fill="white" stroke="#666666" points="226,-120.5 122,-120.5 122,-101.5 226,-101.5 226,-120.5"/>
<text text-anchor="middle" x="174" y="-108.5" font-family="Helvetica,sans-Serif" font-size="10.00">std::runtime_error</text>
</a>
</g>
</g>
<!-- Node4&#45;&gt;Node3 -->
<g id="edge3_Node000003_Node000004" class="edge">
<title>Node4&#45;&gt;Node3</title>
<g id="a_edge3_Node000003_Node000004"><a xlink:title=" ">
<path fill="none" stroke="#63b8ff" d="M236.42,-111C244.93,-111 253.62,-111 261.95,-111"/>
<polygon fill="#63b8ff" stroke="#63b8ff" points="236.15,-107.5 226.15,-111 236.15,-114.5 236.15,-107.5"/>
</a>
</g>
</g>
<!-- Node5 -->
<g id="Node000005" class="node">
<title>Node5</title>
<g id="a_Node000005"><a xlink:title=" ">
<polygon fill="white" stroke="#666666" points="86,-120.5 0,-120.5 0,-101.5 86,-101.5 86,-120.5"/>
<text text-anchor="middle" x="43" y="-108.5" font-family="Helvetica,sans-Serif" font-size="10.00">std::exception</text>
</a>
</g>
</g>
<!-- Node5&#45;&gt;Node4 -->
<g id="edge4_Node000004_Node000005" class="edge">
<title>Node5&#45;&gt;Node4</title>
<g id="a_edge4_Node000004_Node000005"><a xlink:title=" ">
<path fill="none" stroke="#63b8ff" d="M96.27,-111C104.65,-111 113.31,-111 121.66,-111"/>
<polygon fill="#63b8ff" stroke="#63b8ff" points="96.24,-107.5 86.24,-111 96.24,-114.5 96.24,-107.5"/>
</a>
</g>
</g>
<!-- Node7 -->
<g id="Node000007" class="node">
<title>Node7</title>
<g id="a_Node000007"><a xlink:href="../../dd/d4f/classstorages_1_1postgres_1_1ServerConnectionError.html" target="_top" xlink:title="Connection error reported by PostgreSQL server. Doc: https://www.postgresql.org/docs/12/static/errcod...">
<polygon fill="white" stroke="#666666" points="1037,-222 905,-222 905,-192 1037,-192 1037,-222"/>
<text text-anchor="start" x="913" y="-210" font-family="Helvetica,sans-Serif" font-size="10.00">storages::postgres</text>
<text text-anchor="middle" x="971" y="-199" font-family="Helvetica,sans-Serif" font-size="10.00">::ServerConnectionError</text>
</a>
</g>
</g>
<!-- Node6&#45;&gt;Node7 -->
<g id="edge6_Node000006_Node000007" class="edge">
<title>Node6&#45;&gt;Node7</title>
<g id="a_edge6_Node000006_Node000007"><a xlink:title=" ">
<path fill="none" stroke="#63b8ff" d="M879.3,-207C887.96,-207 896.57,-207 904.86,-207"/>
<polygon fill="#63b8ff" stroke="#63b8ff" points="879.14,-203.5 869.14,-207 879.14,-210.5 879.14,-203.5"/>
</a>
</g>
</g>
</g>
</svg>
