<?xml version="1.0" encoding="UTF-8" standalone="no"?>
<!DOCTYPE svg PUBLIC "-//W3C//DTD SVG 1.1//EN"
 "http://www.w3.org/Graphics/SVG/1.1/DTD/svg11.dtd">
<!-- Generated by graphviz version 2.43.0 (0)
 -->
<!-- Title: userver/logging/null_logger.hpp Pages: 1 -->
<svg width="272pt" height="236pt"
 viewBox="0.00 0.00 271.50 236.00" xmlns="http://www.w3.org/2000/svg" xmlns:xlink="http://www.w3.org/1999/xlink">
<g id="graph0" class="graph" transform="scale(1 1) rotate(0) translate(4 232)">
<title>userver/logging/null_logger.hpp</title>
<!-- Node1 -->
<g id="Node000001" class="node">
<title>Node1</title>
<g id="a_Node000001"><a xlink:title="Creates a logger that drops all incoming messages.">
<polygon fill="#999999" stroke="#666666" points="191,-228 78,-228 78,-198 191,-198 191,-228"/>
<text text-anchor="start" x="86" y="-216" font-family="Helvetica,sans-Serif" font-size="10.00">userver/logging/null</text>
<text text-anchor="middle" x="134.5" y="-205" font-family="Helvetica,sans-Serif" font-size="10.00">_logger.hpp</text>
</a>
</g>
</g>
<!-- Node2 -->
<g id="Node000002" class="node">
<title>Node2</title>
<g id="a_Node000002"><a xlink:href="../../d4/d79/grpc_2include_2userver_2ugrpc_2server_2server_8hpp.html" target="_top" xlink:title="Manages the gRPC server.">
<polygon fill="white" stroke="#666666" points="193,-162 76,-162 76,-132 193,-132 193,-162"/>
<text text-anchor="start" x="84" y="-150" font-family="Helvetica,sans-Serif" font-size="10.00">userver/ugrpc/server</text>
<text text-anchor="middle" x="134.5" y="-139" font-family="Helvetica,sans-Serif" font-size="10.00">/server.hpp</text>
</a>
</g>
</g>
<!-- Node1&#45;&gt;Node2 -->
<g id="edge1_Node000001_Node000002" class="edge">
<title>Node1&#45;&gt;Node2</title>
<g id="a_edge1_Node000001_Node000002"><a xlink:title=" ">
<path fill="none" stroke="#63b8ff" d="M134.5,-187.54C134.5,-178.96 134.5,-169.61 134.5,-162.16"/>
<polygon fill="#63b8ff" stroke="#63b8ff" points="131,-187.8 134.5,-197.8 138,-187.8 131,-187.8"/>
</a>
</g>
</g>
<!-- Node3 -->
<g id="Node000003" class="node">
<title>Node3</title>
<g id="a_Node000003"><a xlink:href="../../db/d7e/server__component_8hpp.html" target="_top" xlink:title="Component that configures and manages the gRPC server.">
<polygon fill="white" stroke="#666666" points="131,-96 0,-96 0,-66 131,-66 131,-96"/>
<text text-anchor="start" x="8" y="-84" font-family="Helvetica,sans-Serif" font-size="10.00">userver/ugrpc/server</text>
<text text-anchor="middle" x="65.5" y="-73" font-family="Helvetica,sans-Serif" font-size="10.00">/server_component.hpp</text>
</a>
</g>
</g>
<!-- Node2&#45;&gt;Node3 -->
<g id="edge2_Node000002_Node000003" class="edge">
<title>Node2&#45;&gt;Node3</title>
<g id="a_edge2_Node000002_Node000003"><a xlink:title=" ">
<path fill="none" stroke="#63b8ff" d="M111.78,-124.92C101.6,-115.49 89.87,-104.61 80.77,-96.16"/>
<polygon fill="#63b8ff" stroke="#63b8ff" points="109.47,-127.56 119.19,-131.8 114.24,-122.43 109.47,-127.56"/>
</a>
</g>
</g>
<!-- Node4 -->
<g id="Node000004" class="node">
<title>Node4</title>
<g id="a_Node000004"><a xlink:href="../../d3/d31/service_8hpp.html" target="_top" xlink:title="Base classes for testing and benchmarking ugrpc service implementations in a simplified gRPC environm...">
<polygon fill="white" stroke="#666666" points="259.5,-96 149.5,-96 149.5,-66 259.5,-66 259.5,-96"/>
<text text-anchor="start" x="157.5" y="-84" font-family="Helvetica,sans-Serif" font-size="10.00">userver/ugrpc/tests</text>
<text text-anchor="middle" x="204.5" y="-73" font-family="Helvetica,sans-Serif" font-size="10.00">/service.hpp</text>
</a>
</g>
</g>
<!-- Node2&#45;&gt;Node4 -->
<g id="edge3_Node000002_Node000004" class="edge">
<title>Node2&#45;&gt;Node4</title>
<g id="a_edge3_Node000002_Node000004"><a xlink:title=" ">
<path fill="none" stroke="#63b8ff" d="M157.55,-124.92C167.87,-115.49 179.77,-104.61 189.01,-96.16"/>
<polygon fill="#63b8ff" stroke="#63b8ff" points="155.05,-122.47 150.04,-131.8 159.78,-127.63 155.05,-122.47"/>
</a>
</g>
</g>
<!-- Node5 -->
<g id="Node000005" class="node">
<title>Node5</title>
<g id="a_Node000005"><a xlink:href="../../d1/d31/service__fixtures_8hpp.html" target="_top" xlink:title="gtest fixtures for testing ugrpc service implementations. Requires linking to userver::grpc&#45;utest.">
<polygon fill="white" stroke="#666666" points="263.5,-30 145.5,-30 145.5,0 263.5,0 263.5,-30"/>
<text text-anchor="start" x="153.5" y="-18" font-family="Helvetica,sans-Serif" font-size="10.00">userver/ugrpc/tests</text>
<text text-anchor="middle" x="204.5" y="-7" font-family="Helvetica,sans-Serif" font-size="10.00">/service_fixtures.hpp</text>
</a>
</g>
</g>
<!-- Node4&#45;&gt;Node5 -->
<g id="edge4_Node000004_Node000005" class="edge">
<title>Node4&#45;&gt;Node5</title>
<g id="a_edge4_Node000004_Node000005"><a xlink:title=" ">
<path fill="none" stroke="#63b8ff" d="M204.5,-55.54C204.5,-46.96 204.5,-37.61 204.5,-30.16"/>
<polygon fill="#63b8ff" stroke="#63b8ff" points="201,-55.8 204.5,-65.8 208,-55.8 201,-55.8"/>
</a>
</g>
</g>
</g>
</svg>
