<?xml version="1.0" encoding="UTF-8" standalone="no"?>
<!DOCTYPE svg PUBLIC "-//W3C//DTD SVG 1.1//EN"
 "http://www.w3.org/Graphics/SVG/1.1/DTD/svg11.dtd">
<!-- Generated by graphviz version 2.43.0 (0)
 -->
<!-- Title: userver/engine/io/exception.hpp Pages: 1 -->
<svg width="802pt" height="214pt"
 viewBox="0.00 0.00 801.50 214.00" xmlns="http://www.w3.org/2000/svg" xmlns:xlink="http://www.w3.org/1999/xlink">
<g id="graph0" class="graph" transform="scale(1 1) rotate(0) translate(4 210)">
<title>userver/engine/io/exception.hpp</title>
<!-- Node1 -->
<g id="Node000001" class="node">
<title>Node1</title>
<g id="a_Node000001"><a xlink:title="I/O exceptions.">
<polygon fill="#999999" stroke="#666666" points="253,-206 80,-206 80,-187 253,-187 253,-206"/>
<text text-anchor="middle" x="166.5" y="-194" font-family="Helvetica,sans-Serif" font-size="10.00">userver/engine/io/exception.hpp</text>
</a>
</g>
</g>
<!-- Node2 -->
<g id="Node000002" class="node">
<title>Node2</title>
<g id="a_Node000002"><a xlink:title=" ">
<polygon fill="#e0e0e0" stroke="#999999" points="65,-145.5 0,-145.5 0,-126.5 65,-126.5 65,-145.5"/>
<text text-anchor="middle" x="32.5" y="-133.5" font-family="Helvetica,sans-Serif" font-size="10.00">stdexcept</text>
</a>
</g>
</g>
<!-- Node1&#45;&gt;Node2 -->
<g id="edge1_Node000001_Node000002" class="edge">
<title>Node1&#45;&gt;Node2</title>
<g id="a_edge1_Node000001_Node000002"><a xlink:title=" ">
<path fill="none" stroke="#63b8ff" d="M147.02,-186.99C124.49,-177.16 87.19,-160.88 61.31,-149.58"/>
<polygon fill="#63b8ff" stroke="#63b8ff" points="62.57,-146.31 52.01,-145.52 59.77,-152.73 62.57,-146.31"/>
</a>
</g>
</g>
<!-- Node3 -->
<g id="Node000003" class="node">
<title>Node3</title>
<g id="a_Node000003"><a xlink:title=" ">
<polygon fill="#e0e0e0" stroke="#999999" points="156,-145.5 83,-145.5 83,-126.5 156,-126.5 156,-145.5"/>
<text text-anchor="middle" x="119.5" y="-133.5" font-family="Helvetica,sans-Serif" font-size="10.00">string_view</text>
</a>
</g>
</g>
<!-- Node1&#45;&gt;Node3 -->
<g id="edge2_Node000001_Node000003" class="edge">
<title>Node1&#45;&gt;Node3</title>
<g id="a_edge2_Node000001_Node000003"><a xlink:title=" ">
<path fill="none" stroke="#63b8ff" d="M159.56,-186.87C152.55,-178.14 141.54,-164.43 132.83,-153.59"/>
<polygon fill="#63b8ff" stroke="#63b8ff" points="135.46,-151.27 126.46,-145.67 130,-155.66 135.46,-151.27"/>
</a>
</g>
</g>
<!-- Node4 -->
<g id="Node000004" class="node">
<title>Node4</title>
<g id="a_Node000004"><a xlink:title=" ">
<polygon fill="#e0e0e0" stroke="#999999" points="255,-145.5 174,-145.5 174,-126.5 255,-126.5 255,-145.5"/>
<text text-anchor="middle" x="214.5" y="-133.5" font-family="Helvetica,sans-Serif" font-size="10.00">system_error</text>
</a>
</g>
</g>
<!-- Node1&#45;&gt;Node4 -->
<g id="edge3_Node000001_Node000004" class="edge">
<title>Node1&#45;&gt;Node4</title>
<g id="a_edge3_Node000001_Node000004"><a xlink:title=" ">
<path fill="none" stroke="#63b8ff" d="M173.58,-186.87C180.74,-178.14 191.99,-164.43 200.89,-153.59"/>
<polygon fill="#63b8ff" stroke="#63b8ff" points="203.75,-155.62 207.39,-145.67 198.34,-151.18 203.75,-155.62"/>
</a>
</g>
</g>
<!-- Node5 -->
<g id="Node000005" class="node">
<title>Node5</title>
<g id="a_Node000005"><a xlink:href="../../da/de0/traceful__exception_8hpp.html" target="_top" xlink:title="Exception that remembers the backtrace at the point of its construction.">
<polygon fill="white" stroke="#666666" points="391.5,-151 273.5,-151 273.5,-121 391.5,-121 391.5,-151"/>
<text text-anchor="start" x="281.5" y="-139" font-family="Helvetica,sans-Serif" font-size="10.00">userver/utils/traceful</text>
<text text-anchor="middle" x="332.5" y="-128" font-family="Helvetica,sans-Serif" font-size="10.00">_exception.hpp</text>
</a>
</g>
</g>
<!-- Node1&#45;&gt;Node5 -->
<g id="edge4_Node000001_Node000005" class="edge">
<title>Node1&#45;&gt;Node5</title>
<g id="a_edge4_Node000001_Node000005"><a xlink:title=" ">
<path fill="none" stroke="#63b8ff" d="M190.64,-186.99C214.74,-178.5 252.47,-165.2 282.97,-154.45"/>
<polygon fill="#63b8ff" stroke="#63b8ff" points="284.32,-157.69 292.59,-151.06 282,-151.09 284.32,-157.69"/>
</a>
</g>
</g>
<!-- Node6 -->
<g id="Node000006" class="node">
<title>Node6</title>
<g id="a_Node000006"><a xlink:title=" ">
<polygon fill="#e0e0e0" stroke="#999999" points="138,-79.5 73,-79.5 73,-60.5 138,-60.5 138,-79.5"/>
<text text-anchor="middle" x="105.5" y="-67.5" font-family="Helvetica,sans-Serif" font-size="10.00">exception</text>
</a>
</g>
</g>
<!-- Node5&#45;&gt;Node6 -->
<g id="edge5_Node000005_Node000006" class="edge">
<title>Node5&#45;&gt;Node6</title>
<g id="a_edge5_Node000005_Node000006"><a xlink:title=" ">
<path fill="none" stroke="#63b8ff" d="M277.22,-120.95C240.33,-111.36 190.82,-98.06 147.5,-85 145.05,-84.26 142.53,-83.48 140,-82.68"/>
<polygon fill="#63b8ff" stroke="#63b8ff" points="140.89,-79.29 130.3,-79.53 138.73,-85.94 140.89,-79.29"/>
</a>
</g>
</g>
<!-- Node7 -->
<g id="Node000007" class="node">
<title>Node7</title>
<g id="a_Node000007"><a xlink:title=" ">
<polygon fill="#e0e0e0" stroke="#999999" points="200.5,-79.5 156.5,-79.5 156.5,-60.5 200.5,-60.5 200.5,-79.5"/>
<text text-anchor="middle" x="178.5" y="-67.5" font-family="Helvetica,sans-Serif" font-size="10.00">string</text>
</a>
</g>
</g>
<!-- Node5&#45;&gt;Node7 -->
<g id="edge6_Node000005_Node000007" class="edge">
<title>Node5&#45;&gt;Node7</title>
<g id="a_edge6_Node000005_Node000007"><a xlink:title=" ">
<path fill="none" stroke="#63b8ff" d="M298.7,-120.95C271.7,-109.73 234.2,-94.15 208.31,-83.39"/>
<polygon fill="#63b8ff" stroke="#63b8ff" points="209.57,-80.12 198.99,-79.52 206.89,-86.59 209.57,-80.12"/>
</a>
</g>
</g>
<!-- Node8 -->
<g id="Node000008" class="node">
<title>Node8</title>
<g id="a_Node000008"><a xlink:title=" ">
<polygon fill="#e0e0e0" stroke="#999999" points="287,-19 218,-19 218,0 287,0 287,-19"/>
<text text-anchor="middle" x="252.5" y="-7" font-family="Helvetica,sans-Serif" font-size="10.00">type_traits</text>
</a>
</g>
</g>
<!-- Node5&#45;&gt;Node8 -->
<g id="edge7_Node000005_Node000008" class="edge">
<title>Node5&#45;&gt;Node8</title>
<g id="a_edge7_Node000005_Node000008"><a xlink:title=" ">
<path fill="none" stroke="#63b8ff" d="M290.66,-120.93C274.17,-113.09 256.94,-101.5 247.5,-85 237.77,-67.99 241.27,-45.1 245.77,-29.2"/>
<polygon fill="#63b8ff" stroke="#63b8ff" points="249.17,-30.06 248.9,-19.47 242.51,-27.92 249.17,-30.06"/>
</a>
</g>
</g>
<!-- Node9 -->
<g id="Node000009" class="node">
<title>Node9</title>
<g id="a_Node000009"><a xlink:title=" ">
<polygon fill="#e0e0e0" stroke="#999999" points="623,-79.5 544,-79.5 544,-60.5 623,-60.5 623,-79.5"/>
<text text-anchor="middle" x="583.5" y="-67.5" font-family="Helvetica,sans-Serif" font-size="10.00">fmt/format.h</text>
</a>
</g>
</g>
<!-- Node5&#45;&gt;Node9 -->
<g id="edge8_Node000005_Node000009" class="edge">
<title>Node5&#45;&gt;Node9</title>
<g id="a_edge8_Node000005_Node000009"><a xlink:title=" ">
<path fill="none" stroke="#63b8ff" d="M391.74,-121.11C432.32,-111.42 487.3,-97.96 535.5,-85 538.64,-84.15 541.9,-83.26 545.16,-82.34"/>
<polygon fill="#63b8ff" stroke="#63b8ff" points="546.22,-85.68 554.87,-79.56 544.3,-78.95 546.22,-85.68"/>
</a>
</g>
</g>
<!-- Node10 -->
<g id="Node000010" class="node">
<title>Node10</title>
<g id="a_Node000010"><a xlink:title=" ">
<polygon fill="#e0e0e0" stroke="#999999" points="793.5,-85 641.5,-85 641.5,-55 793.5,-55 793.5,-85"/>
<text text-anchor="start" x="649.5" y="-73" font-family="Helvetica,sans-Serif" font-size="10.00">boost/stacktrace/stacktrace</text>
<text text-anchor="middle" x="717.5" y="-62" font-family="Helvetica,sans-Serif" font-size="10.00">_fwd.hpp</text>
</a>
</g>
</g>
<!-- Node5&#45;&gt;Node10 -->
<g id="edge9_Node000005_Node000010" class="edge">
<title>Node5&#45;&gt;Node10</title>
<g id="a_edge9_Node000005_Node000010"><a xlink:title=" ">
<path fill="none" stroke="#63b8ff" d="M391.81,-125.14C455.77,-114.51 558.21,-97.48 631.12,-85.36"/>
<polygon fill="#63b8ff" stroke="#63b8ff" points="631.91,-88.78 641.2,-83.68 630.76,-81.87 631.91,-88.78"/>
</a>
</g>
</g>
<!-- Node11 -->
<g id="Node000011" class="node">
<title>Node11</title>
<g id="a_Node000011"><a xlink:href="../../d2/d84/select_8hpp.html" target="_top" xlink:title="Utilities for selection of platform specific values.">
<polygon fill="white" stroke="#666666" points="408.5,-79.5 256.5,-79.5 256.5,-60.5 408.5,-60.5 408.5,-79.5"/>
<text text-anchor="middle" x="332.5" y="-67.5" font-family="Helvetica,sans-Serif" font-size="10.00">userver/compiler/select.hpp</text>
</a>
</g>
</g>
<!-- Node5&#45;&gt;Node11 -->
<g id="edge10_Node000005_Node000011" class="edge">
<title>Node5&#45;&gt;Node11</title>
<g id="a_edge10_Node000005_Node000011"><a xlink:title=" ">
<path fill="none" stroke="#63b8ff" d="M332.5,-120.8C332.5,-111.7 332.5,-99.79 332.5,-89.9"/>
<polygon fill="#63b8ff" stroke="#63b8ff" points="336,-89.84 332.5,-79.84 329,-89.84 336,-89.84"/>
</a>
</g>
</g>
<!-- Node13 -->
<g id="Node000013" class="node">
<title>Node13</title>
<g id="a_Node000013"><a xlink:href="../../d5/d02/fast__pimpl_8hpp.html" target="_top" xlink:title="Implements pimpl idiom without dynamic memory allocation.">
<polygon fill="white" stroke="#666666" points="526,-85 427,-85 427,-55 526,-55 526,-85"/>
<text text-anchor="start" x="435" y="-73" font-family="Helvetica,sans-Serif" font-size="10.00">userver/utils/fast</text>
<text text-anchor="middle" x="476.5" y="-62" font-family="Helvetica,sans-Serif" font-size="10.00">_pimpl.hpp</text>
</a>
</g>
</g>
<!-- Node5&#45;&gt;Node13 -->
<g id="edge12_Node000005_Node000013" class="edge">
<title>Node5&#45;&gt;Node13</title>
<g id="a_edge12_Node000005_Node000013"><a xlink:title=" ">
<path fill="none" stroke="#63b8ff" d="M364.1,-120.95C385.11,-111.62 412.9,-99.27 435.59,-89.18"/>
<polygon fill="#63b8ff" stroke="#63b8ff" points="437.26,-92.27 444.97,-85.01 434.41,-85.88 437.26,-92.27"/>
</a>
</g>
</g>
<!-- Node12 -->
<g id="Node000012" class="node">
<title>Node12</title>
<g id="a_Node000012"><a xlink:title=" ">
<polygon fill="#e0e0e0" stroke="#999999" points="370,-19 317,-19 317,0 370,0 370,-19"/>
<text text-anchor="middle" x="343.5" y="-7" font-family="Helvetica,sans-Serif" font-size="10.00">cstddef</text>
</a>
</g>
</g>
<!-- Node11&#45;&gt;Node12 -->
<g id="edge11_Node000011_Node000012" class="edge">
<title>Node11&#45;&gt;Node12</title>
<g id="a_edge11_Node000011_Node000012"><a xlink:title=" ">
<path fill="none" stroke="#63b8ff" d="M334.12,-60.37C335.67,-52.16 338.04,-39.54 340.01,-29.05"/>
<polygon fill="#63b8ff" stroke="#63b8ff" points="343.46,-29.64 341.87,-19.17 336.58,-28.35 343.46,-29.64"/>
</a>
</g>
</g>
<!-- Node13&#45;&gt;Node8 -->
<g id="edge15_Node000013_Node000008" class="edge">
<title>Node13&#45;&gt;Node8</title>
<g id="a_edge15_Node000013_Node000008"><a xlink:title=" ">
<path fill="none" stroke="#63b8ff" d="M426.79,-56.02C387.32,-45.71 332.72,-31.45 295.21,-21.65"/>
<polygon fill="#63b8ff" stroke="#63b8ff" points="295.67,-18.16 285.11,-19.02 293.9,-24.93 295.67,-18.16"/>
</a>
</g>
</g>
<!-- Node13&#45;&gt;Node12 -->
<g id="edge13_Node000013_Node000012" class="edge">
<title>Node13&#45;&gt;Node12</title>
<g id="a_edge13_Node000013_Node000012"><a xlink:title=" ">
<path fill="none" stroke="#63b8ff" d="M444.64,-54.99C422.65,-45.31 393.65,-32.56 372.34,-23.18"/>
<polygon fill="#63b8ff" stroke="#63b8ff" points="373.7,-19.96 363.14,-19.14 370.89,-26.37 373.7,-19.96"/>
</a>
</g>
</g>
<!-- Node14 -->
<g id="Node000014" class="node">
<title>Node14</title>
<g id="a_Node000014"><a xlink:title=" ">
<polygon fill="#e0e0e0" stroke="#999999" points="465,-19 428,-19 428,0 465,0 465,-19"/>
<text text-anchor="middle" x="446.5" y="-7" font-family="Helvetica,sans-Serif" font-size="10.00">new</text>
</a>
</g>
</g>
<!-- Node13&#45;&gt;Node14 -->
<g id="edge14_Node000013_Node000014" class="edge">
<title>Node13&#45;&gt;Node14</title>
<g id="a_edge14_Node000013_Node000014"><a xlink:title=" ">
<path fill="none" stroke="#63b8ff" d="M469.24,-54.84C465.15,-46.87 460.01,-36.84 455.64,-28.33"/>
<polygon fill="#63b8ff" stroke="#63b8ff" points="458.67,-26.57 451,-19.27 452.44,-29.76 458.67,-26.57"/>
</a>
</g>
</g>
<!-- Node15 -->
<g id="Node000015" class="node">
<title>Node15</title>
<g id="a_Node000015"><a xlink:title=" ">
<polygon fill="#e0e0e0" stroke="#999999" points="528,-19 483,-19 483,0 528,0 528,-19"/>
<text text-anchor="middle" x="505.5" y="-7" font-family="Helvetica,sans-Serif" font-size="10.00">utility</text>
</a>
</g>
</g>
<!-- Node13&#45;&gt;Node15 -->
<g id="edge16_Node000013_Node000015" class="edge">
<title>Node13&#45;&gt;Node15</title>
<g id="a_edge16_Node000013_Node000015"><a xlink:title=" ">
<path fill="none" stroke="#63b8ff" d="M483.52,-54.84C487.47,-46.87 492.44,-36.84 496.66,-28.33"/>
<polygon fill="#63b8ff" stroke="#63b8ff" points="499.85,-29.78 501.15,-19.27 493.58,-26.67 499.85,-29.78"/>
</a>
</g>
</g>
</g>
</svg>
