<?xml version="1.0" encoding="UTF-8" standalone="no"?>
<!DOCTYPE svg PUBLIC "-//W3C//DTD SVG 1.1//EN"
 "http://www.w3.org/Graphics/SVG/1.1/DTD/svg11.dtd">
<!-- Generated by graphviz version 2.43.0 (0)
 -->
<!-- Title: userver/decimal64/decimal64.hpp Pages: 1 -->
<svg width="492pt" height="489pt"
 viewBox="0.00 0.00 492.00 489.00" xmlns="http://www.w3.org/2000/svg" xmlns:xlink="http://www.w3.org/1999/xlink">
<g id="graph0" class="graph" transform="scale(1 1) rotate(0) translate(4 485)">
<title>userver/decimal64/decimal64.hpp</title>
<!-- Node1 -->
<g id="Node000001" class="node">
<title>Node1</title>
<g id="a_Node000001"><a xlink:title="Decimal data type for fixed&#45;point arithmetic.">
<polygon fill="#999999" stroke="#666666" points="265.5,-481 83.5,-481 83.5,-462 265.5,-462 265.5,-481"/>
<text text-anchor="middle" x="174.5" y="-469" font-family="Helvetica,sans-Serif" font-size="10.00">userver/decimal64/decimal64.hpp</text>
</a>
</g>
</g>
<!-- Node2 -->
<g id="Node000002" class="node">
<title>Node2</title>
<g id="a_Node000002"><a xlink:href="../../d8/d6d/userver_2decimal64_2decimal_8hpp_source.html" target="_top" xlink:title=" ">
<polygon fill="white" stroke="#666666" points="173,-426 0,-426 0,-396 173,-396 173,-426"/>
<text text-anchor="start" x="8" y="-414" font-family="Helvetica,sans-Serif" font-size="10.00">userver/chaotic/io</text>
<text text-anchor="middle" x="86.5" y="-403" font-family="Helvetica,sans-Serif" font-size="10.00">/userver/decimal64/decimal.hpp</text>
</a>
</g>
</g>
<!-- Node1&#45;&gt;Node2 -->
<g id="edge1_Node000001_Node000002" class="edge">
<title>Node1&#45;&gt;Node2</title>
<g id="a_edge1_Node000001_Node000002"><a xlink:title=" ">
<path fill="none" stroke="#63b8ff" d="M153.13,-456.29C139.34,-447.13 121.49,-435.26 107.73,-426.11"/>
<polygon fill="#63b8ff" stroke="#63b8ff" points="151.25,-459.25 161.52,-461.87 155.13,-453.42 151.25,-459.25"/>
</a>
</g>
</g>
<!-- Node4 -->
<g id="Node000004" class="node">
<title>Node4</title>
<g id="a_Node000004"><a xlink:href="../../df/dbe/postgresql_2include_2userver_2storages_2postgres_2io_2decimal64_8hpp.html" target="_top" xlink:title="decimal64::Decimal I/O support">
<polygon fill="white" stroke="#666666" points="334,-426 191,-426 191,-396 334,-396 334,-426"/>
<text text-anchor="start" x="199" y="-414" font-family="Helvetica,sans-Serif" font-size="10.00">userver/storages/postgres</text>
<text text-anchor="middle" x="262.5" y="-403" font-family="Helvetica,sans-Serif" font-size="10.00">/io/decimal64.hpp</text>
</a>
</g>
</g>
<!-- Node1&#45;&gt;Node4 -->
<g id="edge3_Node000001_Node000004" class="edge">
<title>Node1&#45;&gt;Node4</title>
<g id="a_edge3_Node000001_Node000004"><a xlink:title=" ">
<path fill="none" stroke="#63b8ff" d="M195.87,-456.29C209.66,-447.13 227.51,-435.26 241.27,-426.11"/>
<polygon fill="#63b8ff" stroke="#63b8ff" points="193.87,-453.42 187.48,-461.87 197.75,-459.25 193.87,-453.42"/>
</a>
</g>
</g>
<!-- Node3 -->
<g id="Node000003" class="node">
<title>Node3</title>
<g id="a_Node000003"><a xlink:href="../../da/da3/decimal64_2decimal_8hpp_source.html" target="_top" xlink:title=" ">
<polygon fill="white" stroke="#666666" points="153.5,-360 19.5,-360 19.5,-330 153.5,-330 153.5,-360"/>
<text text-anchor="start" x="27.5" y="-348" font-family="Helvetica,sans-Serif" font-size="10.00">userver/chaotic/io</text>
<text text-anchor="middle" x="86.5" y="-337" font-family="Helvetica,sans-Serif" font-size="10.00">/decimal64/decimal.hpp</text>
</a>
</g>
</g>
<!-- Node2&#45;&gt;Node3 -->
<g id="edge2_Node000002_Node000003" class="edge">
<title>Node2&#45;&gt;Node3</title>
<g id="a_edge2_Node000002_Node000003"><a xlink:title=" ">
<path fill="none" stroke="#63b8ff" d="M86.5,-385.54C86.5,-376.96 86.5,-367.61 86.5,-360.16"/>
<polygon fill="#63b8ff" stroke="#63b8ff" points="83,-385.8 86.5,-395.8 90,-385.8 83,-385.8"/>
</a>
</g>
</g>
<!-- Node5 -->
<g id="Node000005" class="node">
<title>Node5</title>
<g id="a_Node000005"><a xlink:href="../../dc/da2/postgresql_2include_2userver_2storages_2postgres_2io_2supported__types_8hpp.html" target="_top" xlink:title="Includes parsers and formatters for all supported data types; prefer using the type specific include ...">
<polygon fill="white" stroke="#666666" points="334,-360 191,-360 191,-330 334,-330 334,-360"/>
<text text-anchor="start" x="199" y="-348" font-family="Helvetica,sans-Serif" font-size="10.00">userver/storages/postgres</text>
<text text-anchor="middle" x="262.5" y="-337" font-family="Helvetica,sans-Serif" font-size="10.00">/io/supported_types.hpp</text>
</a>
</g>
</g>
<!-- Node4&#45;&gt;Node5 -->
<g id="edge4_Node000004_Node000005" class="edge">
<title>Node4&#45;&gt;Node5</title>
<g id="a_edge4_Node000004_Node000005"><a xlink:title=" ">
<path fill="none" stroke="#63b8ff" d="M262.5,-385.54C262.5,-376.96 262.5,-367.61 262.5,-360.16"/>
<polygon fill="#63b8ff" stroke="#63b8ff" points="259,-385.8 262.5,-395.8 266,-385.8 259,-385.8"/>
</a>
</g>
</g>
<!-- Node6 -->
<g id="Node000006" class="node">
<title>Node6</title>
<g id="a_Node000006"><a xlink:href="../../de/d1d/result__set_8hpp.html" target="_top" xlink:title="Result accessors.">
<polygon fill="white" stroke="#666666" points="334,-294 191,-294 191,-264 334,-264 334,-294"/>
<text text-anchor="start" x="199" y="-282" font-family="Helvetica,sans-Serif" font-size="10.00">userver/storages/postgres</text>
<text text-anchor="middle" x="262.5" y="-271" font-family="Helvetica,sans-Serif" font-size="10.00">/result_set.hpp</text>
</a>
</g>
</g>
<!-- Node5&#45;&gt;Node6 -->
<g id="edge5_Node000005_Node000006" class="edge">
<title>Node5&#45;&gt;Node6</title>
<g id="a_edge5_Node000005_Node000006"><a xlink:title=" ">
<path fill="none" stroke="#63b8ff" d="M262.5,-319.54C262.5,-310.96 262.5,-301.61 262.5,-294.16"/>
<polygon fill="#63b8ff" stroke="#63b8ff" points="259,-319.8 262.5,-329.8 266,-319.8 259,-319.8"/>
</a>
</g>
</g>
<!-- Node7 -->
<g id="Node000007" class="node">
<title>Node7</title>
<g id="a_Node000007"><a xlink:href="../../d2/de3/portal_8hpp_source.html" target="_top" xlink:title=" ">
<polygon fill="white" stroke="#666666" points="284,-228 141,-228 141,-198 284,-198 284,-228"/>
<text text-anchor="start" x="149" y="-216" font-family="Helvetica,sans-Serif" font-size="10.00">userver/storages/postgres</text>
<text text-anchor="middle" x="212.5" y="-205" font-family="Helvetica,sans-Serif" font-size="10.00">/portal.hpp</text>
</a>
</g>
</g>
<!-- Node6&#45;&gt;Node7 -->
<g id="edge6_Node000006_Node000007" class="edge">
<title>Node6&#45;&gt;Node7</title>
<g id="a_edge6_Node000006_Node000007"><a xlink:title=" ">
<path fill="none" stroke="#63b8ff" d="M245.16,-255.81C238,-246.64 229.9,-236.28 223.57,-228.16"/>
<polygon fill="#63b8ff" stroke="#63b8ff" points="242.49,-258.07 251.4,-263.8 248,-253.76 242.49,-258.07"/>
</a>
</g>
</g>
<!-- Node8 -->
<g id="Node000008" class="node">
<title>Node8</title>
<g id="a_Node000008"><a xlink:href="../../da/deb/postgresql_2include_2userver_2storages_2postgres_2transaction_8hpp.html" target="_top" xlink:title="Transactions.">
<polygon fill="white" stroke="#666666" points="235,-162 92,-162 92,-132 235,-132 235,-162"/>
<text text-anchor="start" x="100" y="-150" font-family="Helvetica,sans-Serif" font-size="10.00">userver/storages/postgres</text>
<text text-anchor="middle" x="163.5" y="-139" font-family="Helvetica,sans-Serif" font-size="10.00">/transaction.hpp</text>
</a>
</g>
</g>
<!-- Node6&#45;&gt;Node8 -->
<g id="edge15_Node000006_Node000008" class="edge">
<title>Node6&#45;&gt;Node8</title>
<g id="a_edge15_Node000006_Node000008"><a xlink:title=" ">
<path fill="none" stroke="#63b8ff" d="M181.29,-263.82C161.84,-256.41 143.31,-245.14 131.5,-228 117.16,-207.18 135.7,-178.98 149.96,-162.22"/>
<polygon fill="#63b8ff" stroke="#63b8ff" points="180.29,-267.18 190.89,-267.15 182.59,-260.57 180.29,-267.18"/>
</a>
</g>
</g>
<!-- Node11 -->
<g id="Node000011" class="node">
<title>Node11</title>
<g id="a_Node000011"><a xlink:href="../../df/d02/postgres_8hpp.html" target="_top" xlink:title=" ">
<polygon fill="white" stroke="#666666" points="154,-30 11,-30 11,0 154,0 154,-30"/>
<text text-anchor="start" x="19" y="-18" font-family="Helvetica,sans-Serif" font-size="10.00">userver/storages/postgres</text>
<text text-anchor="middle" x="82.5" y="-7" font-family="Helvetica,sans-Serif" font-size="10.00">/postgres.hpp</text>
</a>
</g>
</g>
<!-- Node6&#45;&gt;Node11 -->
<g id="edge12_Node000006_Node000011" class="edge">
<title>Node6&#45;&gt;Node11</title>
<g id="a_edge12_Node000006_Node000011"><a xlink:title=" ">
<path fill="none" stroke="#63b8ff" d="M185.06,-260.76C163.22,-253.26 140.53,-242.71 122.5,-228 95.93,-206.31 91.73,-195.04 82.5,-162 69.41,-115.13 75.95,-56.44 80.04,-30.02"/>
<polygon fill="#63b8ff" stroke="#63b8ff" points="184.09,-264.12 194.68,-263.89 186.25,-257.47 184.09,-264.12"/>
</a>
</g>
</g>
<!-- Node12 -->
<g id="Node000012" class="node">
<title>Node12</title>
<g id="a_Node000012"><a xlink:href="../../d8/d63/query__queue_8hpp.html" target="_top" xlink:title="An utility to execute multiple queries in a single network round&#45;trip.">
<polygon fill="white" stroke="#666666" points="396,-162 253,-162 253,-132 396,-132 396,-162"/>
<text text-anchor="start" x="261" y="-150" font-family="Helvetica,sans-Serif" font-size="10.00">userver/storages/postgres</text>
<text text-anchor="middle" x="324.5" y="-139" font-family="Helvetica,sans-Serif" font-size="10.00">/query_queue.hpp</text>
</a>
</g>
</g>
<!-- Node6&#45;&gt;Node12 -->
<g id="edge13_Node000006_Node000012" class="edge">
<title>Node6&#45;&gt;Node12</title>
<g id="a_edge13_Node000006_Node000012"><a xlink:title=" ">
<path fill="none" stroke="#63b8ff" d="M277.13,-255.37C282.29,-246.94 287.94,-237.19 292.5,-228 303.6,-205.62 313.84,-178.4 319.61,-162.17"/>
<polygon fill="#63b8ff" stroke="#63b8ff" points="274.12,-253.57 271.79,-263.9 280.06,-257.28 274.12,-253.57"/>
</a>
</g>
</g>
<!-- Node13 -->
<g id="Node000013" class="node">
<title>Node13</title>
<g id="a_Node000013"><a xlink:href="../../d1/dee/typed__result__set_8hpp.html" target="_top" xlink:title="Typed PostgreSQL results.">
<polygon fill="white" stroke="#666666" points="484,-228 341,-228 341,-198 484,-198 484,-228"/>
<text text-anchor="start" x="349" y="-216" font-family="Helvetica,sans-Serif" font-size="10.00">userver/storages/postgres</text>
<text text-anchor="middle" x="412.5" y="-205" font-family="Helvetica,sans-Serif" font-size="10.00">/typed_result_set.hpp</text>
</a>
</g>
</g>
<!-- Node6&#45;&gt;Node13 -->
<g id="edge16_Node000006_Node000013" class="edge">
<title>Node6&#45;&gt;Node13</title>
<g id="a_edge16_Node000006_Node000013"><a xlink:title=" ">
<path fill="none" stroke="#63b8ff" d="M299.03,-259.78C321.76,-249.69 350.87,-237.34 373.96,-228.01"/>
<polygon fill="#63b8ff" stroke="#63b8ff" points="297.42,-256.67 289.72,-263.95 300.28,-263.06 297.42,-256.67"/>
</a>
</g>
</g>
<!-- Node7&#45;&gt;Node8 -->
<g id="edge7_Node000007_Node000008" class="edge">
<title>Node7&#45;&gt;Node8</title>
<g id="a_edge7_Node000007_Node000008"><a xlink:title=" ">
<path fill="none" stroke="#63b8ff" d="M195.51,-189.81C188.49,-180.64 180.56,-170.28 174.34,-162.16"/>
<polygon fill="#63b8ff" stroke="#63b8ff" points="192.77,-191.98 201.63,-197.8 198.33,-187.73 192.77,-191.98"/>
</a>
</g>
</g>
<!-- Node9 -->
<g id="Node000009" class="node">
<title>Node9</title>
<g id="a_Node000009"><a xlink:href="../../de/dd3/postgresql_2include_2userver_2storages_2postgres_2cluster_8hpp.html" target="_top" xlink:title="Interface for executing queries on a cluster of PostgreSQL servers.">
<polygon fill="white" stroke="#666666" points="295,-96 152,-96 152,-66 295,-66 295,-96"/>
<text text-anchor="start" x="160" y="-84" font-family="Helvetica,sans-Serif" font-size="10.00">userver/storages/postgres</text>
<text text-anchor="middle" x="223.5" y="-73" font-family="Helvetica,sans-Serif" font-size="10.00">/cluster.hpp</text>
</a>
</g>
</g>
<!-- Node8&#45;&gt;Node9 -->
<g id="edge8_Node000008_Node000009" class="edge">
<title>Node8&#45;&gt;Node9</title>
<g id="a_edge8_Node000008_Node000009"><a xlink:title=" ">
<path fill="none" stroke="#63b8ff" d="M183.78,-124.37C192.51,-115.06 202.46,-104.44 210.22,-96.16"/>
<polygon fill="#63b8ff" stroke="#63b8ff" points="181.1,-122.11 176.82,-131.8 186.21,-126.89 181.1,-122.11"/>
</a>
</g>
</g>
<!-- Node8&#45;&gt;Node11 -->
<g id="edge11_Node000008_Node000011" class="edge">
<title>Node8&#45;&gt;Node11</title>
<g id="a_edge11_Node000008_Node000011"><a xlink:title=" ">
<path fill="none" stroke="#63b8ff" d="M149.23,-123.1C132.49,-96.23 105.24,-52.5 91.31,-30.14"/>
<polygon fill="#63b8ff" stroke="#63b8ff" points="146.42,-125.2 154.68,-131.84 152.36,-121.5 146.42,-125.2"/>
</a>
</g>
</g>
<!-- Node10 -->
<g id="Node000010" class="node">
<title>Node10</title>
<g id="a_Node000010"><a xlink:href="../../dc/df7/base__postgres__cache_8hpp.html" target="_top" xlink:title="Caching component for PostgreSQL. See Caching Component for PostgreSQL.">
<polygon fill="white" stroke="#666666" points="291,-30 172,-30 172,0 291,0 291,-30"/>
<text text-anchor="start" x="180" y="-18" font-family="Helvetica,sans-Serif" font-size="10.00">userver/cache/base</text>
<text text-anchor="middle" x="231.5" y="-7" font-family="Helvetica,sans-Serif" font-size="10.00">_postgres_cache.hpp</text>
</a>
</g>
</g>
<!-- Node9&#45;&gt;Node10 -->
<g id="edge9_Node000009_Node000010" class="edge">
<title>Node9&#45;&gt;Node10</title>
<g id="a_edge9_Node000009_Node000010"><a xlink:title=" ">
<path fill="none" stroke="#63b8ff" d="M226.52,-55.83C227.6,-47.17 228.79,-37.7 229.73,-30.16"/>
<polygon fill="#63b8ff" stroke="#63b8ff" points="223.04,-55.44 225.28,-65.8 229.99,-56.31 223.04,-55.44"/>
</a>
</g>
</g>
<!-- Node9&#45;&gt;Node11 -->
<g id="edge10_Node000009_Node000011" class="edge">
<title>Node9&#45;&gt;Node11</title>
<g id="a_edge10_Node000009_Node000011"><a xlink:title=" ">
<path fill="none" stroke="#63b8ff" d="M183.37,-61.78C161.14,-51.69 133.93,-39.34 113.37,-30.01"/>
<polygon fill="#63b8ff" stroke="#63b8ff" points="182,-65.01 192.56,-65.95 184.9,-58.63 182,-65.01"/>
</a>
</g>
</g>
<!-- Node12&#45;&gt;Node9 -->
<g id="edge14_Node000012_Node000009" class="edge">
<title>Node12&#45;&gt;Node9</title>
<g id="a_edge14_Node000012_Node000009"><a xlink:title=" ">
<path fill="none" stroke="#63b8ff" d="M293.41,-126.3C278.04,-116.56 259.83,-105.02 245.85,-96.16"/>
<polygon fill="#63b8ff" stroke="#63b8ff" points="291.76,-129.4 302.08,-131.8 295.51,-123.49 291.76,-129.4"/>
</a>
</g>
</g>
<!-- Node13&#45;&gt;Node6 -->
<g id="edge17_Node000013_Node000006" class="edge">
<title>Node13&#45;&gt;Node6</title>
<g id="a_edge17_Node000013_Node000006"><a xlink:title=" ">
<path fill="none" stroke="#63b8ff" d="M376.05,-232.18C353.33,-242.27 324.23,-254.62 301.12,-263.95"/>
<polygon fill="#63b8ff" stroke="#63b8ff" points="377.66,-235.29 385.35,-228.01 374.8,-228.91 377.66,-235.29"/>
</a>
</g>
</g>
</g>
</svg>
