<?xml version="1.0" encoding="UTF-8" standalone="no"?>
<!DOCTYPE svg PUBLIC "-//W3C//DTD SVG 1.1//EN"
 "http://www.w3.org/Graphics/SVG/1.1/DTD/svg11.dtd">
<!-- Generated by graphviz version 2.43.0 (0)
 -->
<!-- Title: userver/storages/postgres/options.hpp Pages: 1 -->
<svg width="826pt" height="302pt"
 viewBox="0.00 0.00 826.00 302.00" xmlns="http://www.w3.org/2000/svg" xmlns:xlink="http://www.w3.org/1999/xlink">
<g id="graph0" class="graph" transform="scale(1 1) rotate(0) translate(4 298)">
<title>userver/storages/postgres/options.hpp</title>
<!-- Node1 -->
<g id="Node000001" class="node">
<title>Node1</title>
<g id="a_Node000001"><a xlink:title="Options.">
<polygon fill="#999999" stroke="#666666" points="442,-294 299,-294 299,-264 442,-264 442,-294"/>
<text text-anchor="start" x="307" y="-282" font-family="Helvetica,sans-Serif" font-size="10.00">userver/storages/postgres</text>
<text text-anchor="middle" x="370.5" y="-271" font-family="Helvetica,sans-Serif" font-size="10.00">/options.hpp</text>
</a>
</g>
</g>
<!-- Node2 -->
<g id="Node000002" class="node">
<title>Node2</title>
<g id="a_Node000002"><a xlink:href="../../de/dd3/postgresql_2include_2userver_2storages_2postgres_2cluster_8hpp.html" target="_top" xlink:title="Interface for executing queries on a cluster of PostgreSQL servers.">
<polygon fill="white" stroke="#666666" points="404,-96 261,-96 261,-66 404,-66 404,-96"/>
<text text-anchor="start" x="269" y="-84" font-family="Helvetica,sans-Serif" font-size="10.00">userver/storages/postgres</text>
<text text-anchor="middle" x="332.5" y="-73" font-family="Helvetica,sans-Serif" font-size="10.00">/cluster.hpp</text>
</a>
</g>
</g>
<!-- Node1&#45;&gt;Node2 -->
<g id="edge1_Node000001_Node000002" class="edge">
<title>Node1&#45;&gt;Node2</title>
<g id="a_edge1_Node000001_Node000002"><a xlink:title=" ">
<path fill="none" stroke="#63b8ff" d="M322.4,-259.03C309.4,-251.43 296.89,-241.25 289.5,-228 283,-216.36 285.76,-210.8 289.5,-198 294.82,-179.78 304.99,-179.44 312.5,-162 322.02,-139.91 327.66,-112.36 330.41,-96.03"/>
<polygon fill="#63b8ff" stroke="#63b8ff" points="320.97,-262.23 331.43,-263.89 324.28,-256.07 320.97,-262.23"/>
</a>
</g>
</g>
<!-- Node5 -->
<g id="Node000005" class="node">
<title>Node5</title>
<g id="a_Node000005"><a xlink:href="../../df/da2/database_8hpp.html" target="_top" xlink:title="Object for accessing PostgreSQL database instance (sharded or not)">
<polygon fill="white" stroke="#666666" points="143,-162 0,-162 0,-132 143,-132 143,-162"/>
<text text-anchor="start" x="8" y="-150" font-family="Helvetica,sans-Serif" font-size="10.00">userver/storages/postgres</text>
<text text-anchor="middle" x="71.5" y="-139" font-family="Helvetica,sans-Serif" font-size="10.00">/database.hpp</text>
</a>
</g>
</g>
<!-- Node1&#45;&gt;Node5 -->
<g id="edge4_Node000001_Node000005" class="edge">
<title>Node1&#45;&gt;Node5</title>
<g id="a_edge4_Node000001_Node000005"><a xlink:title=" ">
<path fill="none" stroke="#63b8ff" d="M320.52,-260.62C295.13,-251.47 263.93,-239.74 236.5,-228 187.04,-206.84 130.97,-178.75 98.58,-162.11"/>
<polygon fill="#63b8ff" stroke="#63b8ff" points="319.35,-263.92 329.94,-263.99 321.71,-257.33 319.35,-263.92"/>
</a>
</g>
</g>
<!-- Node7 -->
<g id="Node000007" class="node">
<title>Node7</title>
<g id="a_Node000007"><a xlink:href="../../d9/d02/postgresql_2include_2userver_2storages_2postgres_2dist__lock__strategy_8hpp.html" target="_top" xlink:title="Postgres distributed locking strategy.">
<polygon fill="white" stroke="#666666" points="803,-228 660,-228 660,-198 803,-198 803,-228"/>
<text text-anchor="start" x="668" y="-216" font-family="Helvetica,sans-Serif" font-size="10.00">userver/storages/postgres</text>
<text text-anchor="middle" x="731.5" y="-205" font-family="Helvetica,sans-Serif" font-size="10.00">/dist_lock_strategy.hpp</text>
</a>
</g>
</g>
<!-- Node1&#45;&gt;Node7 -->
<g id="edge9_Node000001_Node000007" class="edge">
<title>Node1&#45;&gt;Node7</title>
<g id="a_edge9_Node000001_Node000007"><a xlink:title=" ">
<path fill="none" stroke="#63b8ff" d="M452.47,-263.47C514.94,-252.39 600.12,-237.29 659.88,-226.7"/>
<polygon fill="#63b8ff" stroke="#63b8ff" points="451.49,-260.09 442.25,-265.28 452.71,-266.98 451.49,-260.09"/>
</a>
</g>
</g>
<!-- Node9 -->
<g id="Node000009" class="node">
<title>Node9</title>
<g id="a_Node000009"><a xlink:href="../../d3/db6/notify_8hpp.html" target="_top" xlink:title="Asynchronous notifications.">
<polygon fill="white" stroke="#666666" points="304,-162 161,-162 161,-132 304,-132 304,-162"/>
<text text-anchor="start" x="169" y="-150" font-family="Helvetica,sans-Serif" font-size="10.00">userver/storages/postgres</text>
<text text-anchor="middle" x="232.5" y="-139" font-family="Helvetica,sans-Serif" font-size="10.00">/notify.hpp</text>
</a>
</g>
</g>
<!-- Node1&#45;&gt;Node9 -->
<g id="edge11_Node000001_Node000009" class="edge">
<title>Node1&#45;&gt;Node9</title>
<g id="a_edge11_Node000001_Node000009"><a xlink:title=" ">
<path fill="none" stroke="#63b8ff" d="M304.04,-260.11C286.58,-252.64 269.13,-242.27 256.5,-228 239.97,-209.32 234.82,-179.63 233.22,-162.15"/>
<polygon fill="#63b8ff" stroke="#63b8ff" points="303.12,-263.51 313.7,-263.96 305.71,-257.01 303.12,-263.51"/>
</a>
</g>
</g>
<!-- Node10 -->
<g id="Node000010" class="node">
<title>Node10</title>
<g id="a_Node000010"><a xlink:href="../../d2/de3/portal_8hpp_source.html" target="_top" xlink:title=" ">
<polygon fill="white" stroke="#666666" points="642,-228 499,-228 499,-198 642,-198 642,-228"/>
<text text-anchor="start" x="507" y="-216" font-family="Helvetica,sans-Serif" font-size="10.00">userver/storages/postgres</text>
<text text-anchor="middle" x="570.5" y="-205" font-family="Helvetica,sans-Serif" font-size="10.00">/portal.hpp</text>
</a>
</g>
</g>
<!-- Node1&#45;&gt;Node10 -->
<g id="edge13_Node000001_Node000010" class="edge">
<title>Node1&#45;&gt;Node10</title>
<g id="a_edge13_Node000001_Node000010"><a xlink:title=" ">
<path fill="none" stroke="#63b8ff" d="M424.07,-260.86C456.19,-250.58 496.51,-237.68 526.71,-228.01"/>
<polygon fill="#63b8ff" stroke="#63b8ff" points="422.85,-257.57 414.39,-263.95 424.98,-264.24 422.85,-257.57"/>
</a>
</g>
</g>
<!-- Node11 -->
<g id="Node000011" class="node">
<title>Node11</title>
<g id="a_Node000011"><a xlink:href="../../da/deb/postgresql_2include_2userver_2storages_2postgres_2transaction_8hpp.html" target="_top" xlink:title="Transactions.">
<polygon fill="white" stroke="#666666" points="542,-162 399,-162 399,-132 542,-132 542,-162"/>
<text text-anchor="start" x="407" y="-150" font-family="Helvetica,sans-Serif" font-size="10.00">userver/storages/postgres</text>
<text text-anchor="middle" x="470.5" y="-139" font-family="Helvetica,sans-Serif" font-size="10.00">/transaction.hpp</text>
</a>
</g>
</g>
<!-- Node1&#45;&gt;Node11 -->
<g id="edge19_Node000001_Node000011" class="edge">
<title>Node1&#45;&gt;Node11</title>
<g id="a_edge19_Node000001_Node000011"><a xlink:title=" ">
<path fill="none" stroke="#63b8ff" d="M414.65,-259.09C428.27,-251.28 442.13,-240.97 451.5,-228 465.79,-208.21 469.47,-179.16 470.33,-162.06"/>
<polygon fill="#63b8ff" stroke="#63b8ff" points="412.93,-256.04 405.78,-263.86 416.25,-262.2 412.93,-256.04"/>
</a>
</g>
</g>
<!-- Node12 -->
<g id="Node000012" class="node">
<title>Node12</title>
<g id="a_Node000012"><a xlink:href="../../d8/d63/query__queue_8hpp.html" target="_top" xlink:title="An utility to execute multiple queries in a single network round&#45;trip.">
<polygon fill="white" stroke="#666666" points="442,-228 299,-228 299,-198 442,-198 442,-228"/>
<text text-anchor="start" x="307" y="-216" font-family="Helvetica,sans-Serif" font-size="10.00">userver/storages/postgres</text>
<text text-anchor="middle" x="370.5" y="-205" font-family="Helvetica,sans-Serif" font-size="10.00">/query_queue.hpp</text>
</a>
</g>
</g>
<!-- Node1&#45;&gt;Node12 -->
<g id="edge17_Node000001_Node000012" class="edge">
<title>Node1&#45;&gt;Node12</title>
<g id="a_edge17_Node000001_Node000012"><a xlink:title=" ">
<path fill="none" stroke="#63b8ff" d="M370.5,-253.54C370.5,-244.96 370.5,-235.61 370.5,-228.16"/>
<polygon fill="#63b8ff" stroke="#63b8ff" points="367,-253.8 370.5,-263.8 374,-253.8 367,-253.8"/>
</a>
</g>
</g>
<!-- Node3 -->
<g id="Node000003" class="node">
<title>Node3</title>
<g id="a_Node000003"><a xlink:href="../../dc/df7/base__postgres__cache_8hpp.html" target="_top" xlink:title="Caching component for PostgreSQL. See Caching Component for PostgreSQL.">
<polygon fill="white" stroke="#666666" points="237,-30 118,-30 118,0 237,0 237,-30"/>
<text text-anchor="start" x="126" y="-18" font-family="Helvetica,sans-Serif" font-size="10.00">userver/cache/base</text>
<text text-anchor="middle" x="177.5" y="-7" font-family="Helvetica,sans-Serif" font-size="10.00">_postgres_cache.hpp</text>
</a>
</g>
</g>
<!-- Node2&#45;&gt;Node3 -->
<g id="edge2_Node000002_Node000003" class="edge">
<title>Node2&#45;&gt;Node3</title>
<g id="a_edge2_Node000002_Node000003"><a xlink:title=" ">
<path fill="none" stroke="#63b8ff" d="M289.04,-62.05C264.48,-51.91 234.23,-39.43 211.44,-30.01"/>
<polygon fill="#63b8ff" stroke="#63b8ff" points="287.91,-65.37 298.48,-65.95 290.58,-58.9 287.91,-65.37"/>
</a>
</g>
</g>
<!-- Node4 -->
<g id="Node000004" class="node">
<title>Node4</title>
<g id="a_Node000004"><a xlink:href="../../df/d02/postgres_8hpp.html" target="_top" xlink:title=" ">
<polygon fill="white" stroke="#666666" points="404,-30 261,-30 261,0 404,0 404,-30"/>
<text text-anchor="start" x="269" y="-18" font-family="Helvetica,sans-Serif" font-size="10.00">userver/storages/postgres</text>
<text text-anchor="middle" x="332.5" y="-7" font-family="Helvetica,sans-Serif" font-size="10.00">/postgres.hpp</text>
</a>
</g>
</g>
<!-- Node2&#45;&gt;Node4 -->
<g id="edge3_Node000002_Node000004" class="edge">
<title>Node2&#45;&gt;Node4</title>
<g id="a_edge3_Node000002_Node000004"><a xlink:title=" ">
<path fill="none" stroke="#63b8ff" d="M332.5,-55.54C332.5,-46.96 332.5,-37.61 332.5,-30.16"/>
<polygon fill="#63b8ff" stroke="#63b8ff" points="329,-55.8 332.5,-65.8 336,-55.8 329,-55.8"/>
</a>
</g>
</g>
<!-- Node5&#45;&gt;Node2 -->
<g id="edge5_Node000005_Node000002" class="edge">
<title>Node5&#45;&gt;Node2</title>
<g id="a_edge5_Node000005_Node000002"><a xlink:title=" ">
<path fill="none" stroke="#63b8ff" d="M138.72,-129.52C181.05,-119.14 235.1,-105.88 275.36,-96.01"/>
<polygon fill="#63b8ff" stroke="#63b8ff" points="137.66,-126.17 128.78,-131.95 139.32,-132.97 137.66,-126.17"/>
</a>
</g>
</g>
<!-- Node6 -->
<g id="Node000006" class="node">
<title>Node6</title>
<g id="a_Node000006"><a xlink:href="../../df/d08/postgresql_2include_2userver_2storages_2postgres_2component_8hpp.html" target="_top" xlink:title="PosgreSQL client component.">
<polygon fill="white" stroke="#666666" points="243,-96 100,-96 100,-66 243,-66 243,-96"/>
<text text-anchor="start" x="108" y="-84" font-family="Helvetica,sans-Serif" font-size="10.00">userver/storages/postgres</text>
<text text-anchor="middle" x="171.5" y="-73" font-family="Helvetica,sans-Serif" font-size="10.00">/component.hpp</text>
</a>
</g>
</g>
<!-- Node5&#45;&gt;Node6 -->
<g id="edge6_Node000005_Node000006" class="edge">
<title>Node5&#45;&gt;Node6</title>
<g id="a_edge6_Node000005_Node000006"><a xlink:title=" ">
<path fill="none" stroke="#63b8ff" d="M102.28,-126.3C117.5,-116.56 135.53,-105.02 149.37,-96.16"/>
<polygon fill="#63b8ff" stroke="#63b8ff" points="100.23,-123.46 93.69,-131.8 104,-129.35 100.23,-123.46"/>
</a>
</g>
</g>
<!-- Node6&#45;&gt;Node3 -->
<g id="edge7_Node000006_Node000003" class="edge">
<title>Node6&#45;&gt;Node3</title>
<g id="a_edge7_Node000006_Node000003"><a xlink:title=" ">
<path fill="none" stroke="#63b8ff" d="M173.77,-55.83C174.58,-47.17 175.47,-37.7 176.17,-30.16"/>
<polygon fill="#63b8ff" stroke="#63b8ff" points="170.28,-55.51 172.83,-65.8 177.25,-56.17 170.28,-55.51"/>
</a>
</g>
</g>
<!-- Node6&#45;&gt;Node4 -->
<g id="edge8_Node000006_Node000004" class="edge">
<title>Node6&#45;&gt;Node4</title>
<g id="a_edge8_Node000006_Node000004"><a xlink:title=" ">
<path fill="none" stroke="#63b8ff" d="M216.31,-62.19C241.87,-52.02 273.47,-39.47 297.25,-30.01"/>
<polygon fill="#63b8ff" stroke="#63b8ff" points="214.83,-59.01 206.83,-65.95 217.42,-65.51 214.83,-59.01"/>
</a>
</g>
</g>
<!-- Node8 -->
<g id="Node000008" class="node">
<title>Node8</title>
<g id="a_Node000008"><a xlink:href="../../dc/d89/postgresql_2include_2userver_2storages_2postgres_2dist__lock__component__base_8hpp.html" target="_top" xlink:title="Base class for postgres&#45;based distlock worker components.">
<polygon fill="white" stroke="#666666" points="818,-162 645,-162 645,-132 818,-132 818,-162"/>
<text text-anchor="start" x="653" y="-150" font-family="Helvetica,sans-Serif" font-size="10.00">userver/storages/postgres</text>
<text text-anchor="middle" x="731.5" y="-139" font-family="Helvetica,sans-Serif" font-size="10.00">/dist_lock_component_base.hpp</text>
</a>
</g>
</g>
<!-- Node7&#45;&gt;Node8 -->
<g id="edge10_Node000007_Node000008" class="edge">
<title>Node7&#45;&gt;Node8</title>
<g id="a_edge10_Node000007_Node000008"><a xlink:title=" ">
<path fill="none" stroke="#63b8ff" d="M731.5,-187.54C731.5,-178.96 731.5,-169.61 731.5,-162.16"/>
<polygon fill="#63b8ff" stroke="#63b8ff" points="728,-187.8 731.5,-197.8 735,-187.8 728,-187.8"/>
</a>
</g>
</g>
<!-- Node9&#45;&gt;Node2 -->
<g id="edge12_Node000009_Node000002" class="edge">
<title>Node9&#45;&gt;Node2</title>
<g id="a_edge12_Node000009_Node000002"><a xlink:title=" ">
<path fill="none" stroke="#63b8ff" d="M263.28,-126.3C278.5,-116.56 296.53,-105.02 310.37,-96.16"/>
<polygon fill="#63b8ff" stroke="#63b8ff" points="261.23,-123.46 254.69,-131.8 265,-129.35 261.23,-123.46"/>
</a>
</g>
</g>
<!-- Node10&#45;&gt;Node11 -->
<g id="edge14_Node000010_Node000011" class="edge">
<title>Node10&#45;&gt;Node11</title>
<g id="a_edge14_Node000010_Node000011"><a xlink:title=" ">
<path fill="none" stroke="#63b8ff" d="M539.72,-192.3C524.5,-182.56 506.47,-171.02 492.63,-162.16"/>
<polygon fill="#63b8ff" stroke="#63b8ff" points="538,-195.35 548.31,-197.8 541.77,-189.46 538,-195.35"/>
</a>
</g>
</g>
<!-- Node11&#45;&gt;Node2 -->
<g id="edge15_Node000011_Node000002" class="edge">
<title>Node11&#45;&gt;Node2</title>
<g id="a_edge15_Node000011_Node000002"><a xlink:title=" ">
<path fill="none" stroke="#63b8ff" d="M430.93,-127.65C409.23,-117.58 382.74,-105.3 362.71,-96.01"/>
<polygon fill="#63b8ff" stroke="#63b8ff" points="429.67,-130.92 440.22,-131.95 432.62,-124.57 429.67,-130.92"/>
</a>
</g>
</g>
<!-- Node11&#45;&gt;Node4 -->
<g id="edge16_Node000011_Node000004" class="edge">
<title>Node11&#45;&gt;Node4</title>
<g id="a_edge16_Node000011_Node000004"><a xlink:title=" ">
<path fill="none" stroke="#63b8ff" d="M457.67,-123.2C447.28,-106.09 431.46,-82.81 413.5,-66 398.06,-51.54 377.81,-39.04 361.42,-30.16"/>
<polygon fill="#63b8ff" stroke="#63b8ff" points="454.76,-125.16 462.86,-131.99 460.79,-121.6 454.76,-125.16"/>
</a>
</g>
</g>
<!-- Node12&#45;&gt;Node2 -->
<g id="edge18_Node000012_Node000002" class="edge">
<title>Node12&#45;&gt;Node2</title>
<g id="a_edge18_Node000012_Node000002"><a xlink:title=" ">
<path fill="none" stroke="#63b8ff" d="M363.49,-188.04C355.62,-161.08 343.08,-118.21 336.63,-96.14"/>
<polygon fill="#63b8ff" stroke="#63b8ff" points="360.2,-189.22 366.36,-197.84 366.91,-187.26 360.2,-189.22"/>
</a>
</g>
</g>
</g>
</svg>
