<?xml version="1.0" encoding="UTF-8" standalone="no"?>
<!DOCTYPE svg PUBLIC "-//W3C//DTD SVG 1.1//EN"
 "http://www.w3.org/Graphics/SVG/1.1/DTD/svg11.dtd">
<!-- Generated by graphviz version 2.43.0 (0)
 -->
<!-- Title: userver/urabbitmq/admin_channel.hpp Pages: 1 -->
<svg width="1692pt" height="478pt"
 viewBox="0.00 0.00 1692.42 478.00" xmlns="http://www.w3.org/2000/svg" xmlns:xlink="http://www.w3.org/1999/xlink">
<g id="graph0" class="graph" transform="scale(1 1) rotate(0) translate(4 474)">
<title>userver/urabbitmq/admin_channel.hpp</title>
<!-- Node1 -->
<g id="Node000001" class="node">
<title>Node1</title>
<g id="a_Node000001"><a xlink:title="Administrative interface for the broker.">
<polygon fill="#999999" stroke="#666666" points="428.42,-470 288.42,-470 288.42,-440 428.42,-440 428.42,-470"/>
<text text-anchor="start" x="296.42" y="-458" font-family="Helvetica,sans-Serif" font-size="10.00">userver/urabbitmq/admin</text>
<text text-anchor="middle" x="358.42" y="-447" font-family="Helvetica,sans-Serif" font-size="10.00">_channel.hpp</text>
</a>
</g>
</g>
<!-- Node2 -->
<g id="Node000002" class="node">
<title>Node2</title>
<g id="a_Node000002"><a xlink:title=" ">
<polygon fill="#e0e0e0" stroke="#999999" points="330.42,-398.5 272.42,-398.5 272.42,-379.5 330.42,-379.5 330.42,-398.5"/>
<text text-anchor="middle" x="301.42" y="-386.5" font-family="Helvetica,sans-Serif" font-size="10.00">memory</text>
</a>
</g>
</g>
<!-- Node1&#45;&gt;Node2 -->
<g id="edge1_Node000001_Node000002" class="edge">
<title>Node1&#45;&gt;Node2</title>
<g id="a_edge1_Node000001_Node000002"><a xlink:title=" ">
<path fill="none" stroke="#63b8ff" d="M345.77,-439.8C336.97,-429.92 325.21,-416.72 316.02,-406.39"/>
<polygon fill="#63b8ff" stroke="#63b8ff" points="318.56,-403.98 309.29,-398.84 313.33,-408.64 318.56,-403.98"/>
</a>
</g>
</g>
<!-- Node3 -->
<g id="Node000003" class="node">
<title>Node3</title>
<g id="a_Node000003"><a xlink:href="../../d5/d02/fast__pimpl_8hpp.html" target="_top" xlink:title="Implements pimpl idiom without dynamic memory allocation.">
<polygon fill="white" stroke="#666666" points="153.92,-283 54.92,-283 54.92,-253 153.92,-253 153.92,-283"/>
<text text-anchor="start" x="62.92" y="-271" font-family="Helvetica,sans-Serif" font-size="10.00">userver/utils/fast</text>
<text text-anchor="middle" x="104.42" y="-260" font-family="Helvetica,sans-Serif" font-size="10.00">_pimpl.hpp</text>
</a>
</g>
</g>
<!-- Node1&#45;&gt;Node3 -->
<g id="edge2_Node000001_Node000003" class="edge">
<title>Node1&#45;&gt;Node3</title>
<g id="a_edge2_Node000001_Node000003"><a xlink:title=" ">
<path fill="none" stroke="#63b8ff" d="M358.68,-439.92C358.27,-422.52 355.08,-392.91 339.42,-374 295,-320.39 217.6,-293.14 163.82,-280.03"/>
<polygon fill="#63b8ff" stroke="#63b8ff" points="164.6,-276.61 154.07,-277.74 163,-283.43 164.6,-276.61"/>
</a>
</g>
</g>
<!-- Node8 -->
<g id="Node000008" class="node">
<title>Node8</title>
<g id="a_Node000008"><a xlink:href="../../d4/d61/broker__interface_8hpp.html" target="_top" xlink:title="A bunch of interface classes.">
<polygon fill="white" stroke="#666666" points="1388.42,-404 1248.42,-404 1248.42,-374 1388.42,-374 1388.42,-404"/>
<text text-anchor="start" x="1256.42" y="-392" font-family="Helvetica,sans-Serif" font-size="10.00">userver/urabbitmq/broker</text>
<text text-anchor="middle" x="1318.42" y="-381" font-family="Helvetica,sans-Serif" font-size="10.00">_interface.hpp</text>
</a>
</g>
</g>
<!-- Node1&#45;&gt;Node8 -->
<g id="edge7_Node000001_Node000008" class="edge">
<title>Node1&#45;&gt;Node8</title>
<g id="a_edge7_Node000001_Node000008"><a xlink:title=" ">
<path fill="none" stroke="#63b8ff" d="M428.62,-449.32C602.76,-437.71 1053.79,-407.64 1238.13,-395.35"/>
<polygon fill="#63b8ff" stroke="#63b8ff" points="1238.55,-398.83 1248.29,-394.67 1238.08,-391.85 1238.55,-398.83"/>
</a>
</g>
</g>
<!-- Node4 -->
<g id="Node000004" class="node">
<title>Node4</title>
<g id="a_Node000004"><a xlink:title=" ">
<polygon fill="#e0e0e0" stroke="#999999" points="67.92,-211.5 14.92,-211.5 14.92,-192.5 67.92,-192.5 67.92,-211.5"/>
<text text-anchor="middle" x="41.42" y="-199.5" font-family="Helvetica,sans-Serif" font-size="10.00">cstddef</text>
</a>
</g>
</g>
<!-- Node3&#45;&gt;Node4 -->
<g id="edge3_Node000003_Node000004" class="edge">
<title>Node3&#45;&gt;Node4</title>
<g id="a_edge3_Node000003_Node000004"><a xlink:title=" ">
<path fill="none" stroke="#63b8ff" d="M90.43,-252.8C80.61,-242.82 67.46,-229.46 57.25,-219.09"/>
<polygon fill="#63b8ff" stroke="#63b8ff" points="59.63,-216.52 50.12,-211.84 54.64,-221.43 59.63,-216.52"/>
</a>
</g>
</g>
<!-- Node5 -->
<g id="Node000005" class="node">
<title>Node5</title>
<g id="a_Node000005"><a xlink:title=" ">
<polygon fill="#e0e0e0" stroke="#999999" points="122.92,-211.5 85.92,-211.5 85.92,-192.5 122.92,-192.5 122.92,-211.5"/>
<text text-anchor="middle" x="104.42" y="-199.5" font-family="Helvetica,sans-Serif" font-size="10.00">new</text>
</a>
</g>
</g>
<!-- Node3&#45;&gt;Node5 -->
<g id="edge4_Node000003_Node000005" class="edge">
<title>Node3&#45;&gt;Node5</title>
<g id="a_edge4_Node000003_Node000005"><a xlink:title=" ">
<path fill="none" stroke="#63b8ff" d="M104.42,-252.8C104.42,-243.7 104.42,-231.79 104.42,-221.9"/>
<polygon fill="#63b8ff" stroke="#63b8ff" points="107.92,-221.84 104.42,-211.84 100.92,-221.84 107.92,-221.84"/>
</a>
</g>
</g>
<!-- Node6 -->
<g id="Node000006" class="node">
<title>Node6</title>
<g id="a_Node000006"><a xlink:title=" ">
<polygon fill="#e0e0e0" stroke="#999999" points="969.92,-19 900.92,-19 900.92,0 969.92,0 969.92,-19"/>
<text text-anchor="middle" x="935.42" y="-7" font-family="Helvetica,sans-Serif" font-size="10.00">type_traits</text>
</a>
</g>
</g>
<!-- Node3&#45;&gt;Node6 -->
<g id="edge5_Node000003_Node000006" class="edge">
<title>Node3&#45;&gt;Node6</title>
<g id="a_edge5_Node000003_Node000006"><a xlink:title=" ">
<path fill="none" stroke="#63b8ff" d="M54.86,-254.16C35.99,-246.59 16.41,-234.88 5.42,-217 -1.57,-205.64 -1.92,-198.13 5.42,-187 88.75,-60.62 172.08,-89.76 319.42,-55 428.04,-29.37 767.37,-16 890.34,-11.9"/>
<polygon fill="#63b8ff" stroke="#63b8ff" points="890.65,-15.39 900.53,-11.56 890.42,-8.39 890.65,-15.39"/>
</a>
</g>
</g>
<!-- Node7 -->
<g id="Node000007" class="node">
<title>Node7</title>
<g id="a_Node000007"><a xlink:title=" ">
<polygon fill="#e0e0e0" stroke="#999999" points="185.92,-211.5 140.92,-211.5 140.92,-192.5 185.92,-192.5 185.92,-211.5"/>
<text text-anchor="middle" x="163.42" y="-199.5" font-family="Helvetica,sans-Serif" font-size="10.00">utility</text>
</a>
</g>
</g>
<!-- Node3&#45;&gt;Node7 -->
<g id="edge6_Node000003_Node000007" class="edge">
<title>Node3&#45;&gt;Node7</title>
<g id="a_edge6_Node000003_Node000007"><a xlink:title=" ">
<path fill="none" stroke="#63b8ff" d="M117.51,-252.8C126.62,-242.92 138.79,-229.72 148.31,-219.39"/>
<polygon fill="#63b8ff" stroke="#63b8ff" points="151.06,-221.57 155.26,-211.84 145.91,-216.82 151.06,-221.57"/>
</a>
</g>
</g>
<!-- Node9 -->
<g id="Node000009" class="node">
<title>Node9</title>
<g id="a_Node000009"><a xlink:title=" ">
<polygon fill="#e0e0e0" stroke="#999999" points="1443.42,-338 1399.42,-338 1399.42,-319 1443.42,-319 1443.42,-338"/>
<text text-anchor="middle" x="1421.42" y="-326" font-family="Helvetica,sans-Serif" font-size="10.00">string</text>
</a>
</g>
</g>
<!-- Node8&#45;&gt;Node9 -->
<g id="edge8_Node000008_Node000009" class="edge">
<title>Node8&#45;&gt;Node9</title>
<g id="a_edge8_Node000008_Node000009"><a xlink:title=" ">
<path fill="none" stroke="#63b8ff" d="M1343.09,-373.99C1359.51,-364.66 1380.97,-352.47 1397.28,-343.21"/>
<polygon fill="#63b8ff" stroke="#63b8ff" points="1399.24,-346.12 1406.21,-338.14 1395.78,-340.03 1399.24,-346.12"/>
</a>
</g>
</g>
<!-- Node10 -->
<g id="Node000010" class="node">
<title>Node10</title>
<g id="a_Node000010"><a xlink:href="../../d2/d22/deadline_8hpp.html" target="_top" xlink:title="Internal representation of a deadline time point.">
<polygon fill="white" stroke="#666666" points="1621.92,-338 1466.92,-338 1466.92,-319 1621.92,-319 1621.92,-338"/>
<text text-anchor="middle" x="1544.42" y="-326" font-family="Helvetica,sans-Serif" font-size="10.00">userver/engine/deadline.hpp</text>
</a>
</g>
</g>
<!-- Node8&#45;&gt;Node10 -->
<g id="edge9_Node000008_Node000010" class="edge">
<title>Node8&#45;&gt;Node10</title>
<g id="a_edge9_Node000008_Node000010"><a xlink:title=" ">
<path fill="none" stroke="#63b8ff" d="M1372.55,-373.99C1412.06,-363.76 1464.89,-350.09 1501.5,-340.61"/>
<polygon fill="#63b8ff" stroke="#63b8ff" points="1502.57,-343.95 1511.37,-338.05 1500.81,-337.17 1502.57,-343.95"/>
</a>
</g>
</g>
<!-- Node14 -->
<g id="Node000014" class="node">
<title>Node14</title>
<g id="a_Node000014"><a xlink:href="../../db/db5/flags_8hpp.html" target="_top" xlink:title="Types that provide flags interface to enums.">
<polygon fill="white" stroke="#666666" points="1380.92,-338 1255.92,-338 1255.92,-319 1380.92,-319 1380.92,-338"/>
<text text-anchor="middle" x="1318.42" y="-326" font-family="Helvetica,sans-Serif" font-size="10.00">userver/utils/flags.hpp</text>
</a>
</g>
</g>
<!-- Node8&#45;&gt;Node14 -->
<g id="edge14_Node000008_Node000014" class="edge">
<title>Node8&#45;&gt;Node14</title>
<g id="a_edge14_Node000008_Node000014"><a xlink:title=" ">
<path fill="none" stroke="#63b8ff" d="M1318.42,-373.84C1318.42,-366.21 1318.42,-356.7 1318.42,-348.45"/>
<polygon fill="#63b8ff" stroke="#63b8ff" points="1321.92,-348.27 1318.42,-338.27 1314.92,-348.27 1321.92,-348.27"/>
</a>
</g>
</g>
<!-- Node17 -->
<g id="Node000017" class="node">
<title>Node17</title>
<g id="a_Node000017"><a xlink:href="../../d9/d0c/rabbitmq_2include_2userver_2urabbitmq_2typedefs_8hpp.html" target="_top" xlink:title="Convenient typedefs for RabbitMQ entities.">
<polygon fill="white" stroke="#666666" points="1011.92,-338 838.92,-338 838.92,-319 1011.92,-319 1011.92,-338"/>
<text text-anchor="middle" x="925.42" y="-326" font-family="Helvetica,sans-Serif" font-size="10.00">userver/urabbitmq/typedefs.hpp</text>
</a>
</g>
</g>
<!-- Node8&#45;&gt;Node17 -->
<g id="edge18_Node000008_Node000017" class="edge">
<title>Node8&#45;&gt;Node17</title>
<g id="a_edge18_Node000008_Node000017"><a xlink:title=" ">
<path fill="none" stroke="#63b8ff" d="M1248.16,-377.54C1175.87,-366.78 1064.07,-350.14 992.84,-339.54"/>
<polygon fill="#63b8ff" stroke="#63b8ff" points="993.04,-336.03 982.63,-338.02 992.01,-342.95 993.04,-336.03"/>
</a>
</g>
</g>
<!-- Node10&#45;&gt;Node6 -->
<g id="edge11_Node000010_Node000006" class="edge">
<title>Node10&#45;&gt;Node6</title>
<g id="a_edge11_Node000010_Node000006"><a xlink:title=" ">
<path fill="none" stroke="#63b8ff" d="M1555.67,-318.85C1565.53,-310.67 1579.47,-297.51 1587.42,-283 1604.96,-250.94 1606.42,-239.54 1606.42,-203 1606.42,-203 1606.42,-203 1606.42,-135 1606.42,-17.49 1469.43,-79.11 1354.42,-55 1220.05,-26.84 1057.51,-16.05 980.31,-12.3"/>
<polygon fill="#63b8ff" stroke="#63b8ff" points="980.15,-8.79 970,-11.82 979.82,-15.78 980.15,-8.79"/>
</a>
</g>
</g>
<!-- Node11 -->
<g id="Node000011" class="node">
<title>Node11</title>
<g id="a_Node000011"><a xlink:title=" ">
<polygon fill="#e0e0e0" stroke="#999999" points="1684.42,-277.5 1634.42,-277.5 1634.42,-258.5 1684.42,-258.5 1684.42,-277.5"/>
<text text-anchor="middle" x="1659.42" y="-265.5" font-family="Helvetica,sans-Serif" font-size="10.00">chrono</text>
</a>
</g>
</g>
<!-- Node10&#45;&gt;Node11 -->
<g id="edge10_Node000010_Node000011" class="edge">
<title>Node10&#45;&gt;Node11</title>
<g id="a_edge10_Node000010_Node000011"><a xlink:title=" ">
<path fill="none" stroke="#63b8ff" d="M1561.39,-318.87C1580.33,-309.23 1611.2,-293.53 1633.24,-282.31"/>
<polygon fill="#63b8ff" stroke="#63b8ff" points="1635.05,-285.32 1642.38,-277.67 1631.88,-279.08 1635.05,-285.32"/>
</a>
</g>
</g>
<!-- Node12 -->
<g id="Node000012" class="node">
<title>Node12</title>
<g id="a_Node000012"><a xlink:href="../../d2/d54/assert_8hpp.html" target="_top" xlink:title="Assertion macros UASSERT, UASSERT_MSG, UINVARIANT.">
<polygon fill="white" stroke="#666666" points="1577.92,-277.5 1446.92,-277.5 1446.92,-258.5 1577.92,-258.5 1577.92,-277.5"/>
<text text-anchor="middle" x="1512.42" y="-265.5" font-family="Helvetica,sans-Serif" font-size="10.00">userver/utils/assert.hpp</text>
</a>
</g>
</g>
<!-- Node10&#45;&gt;Node12 -->
<g id="edge12_Node000010_Node000012" class="edge">
<title>Node10&#45;&gt;Node12</title>
<g id="a_edge12_Node000010_Node000012"><a xlink:title=" ">
<path fill="none" stroke="#63b8ff" d="M1539.69,-318.87C1535.06,-310.4 1527.86,-297.24 1522.03,-286.57"/>
<polygon fill="#63b8ff" stroke="#63b8ff" points="1525.03,-284.76 1517.16,-277.67 1518.89,-288.12 1525.03,-284.76"/>
</a>
</g>
</g>
<!-- Node13 -->
<g id="Node000013" class="node">
<title>Node13</title>
<g id="a_Node000013"><a xlink:title=" ">
<polygon fill="#e0e0e0" stroke="#999999" points="1548.92,-211.5 1475.92,-211.5 1475.92,-192.5 1548.92,-192.5 1548.92,-211.5"/>
<text text-anchor="middle" x="1512.42" y="-199.5" font-family="Helvetica,sans-Serif" font-size="10.00">string_view</text>
</a>
</g>
</g>
<!-- Node12&#45;&gt;Node13 -->
<g id="edge13_Node000012_Node000013" class="edge">
<title>Node12&#45;&gt;Node13</title>
<g id="a_edge13_Node000012_Node000013"><a xlink:title=" ">
<path fill="none" stroke="#63b8ff" d="M1512.42,-258.37C1512.42,-249.16 1512.42,-234.29 1512.42,-222.27"/>
<polygon fill="#63b8ff" stroke="#63b8ff" points="1515.92,-221.91 1512.42,-211.91 1508.92,-221.91 1515.92,-221.91"/>
</a>
</g>
</g>
<!-- Node14&#45;&gt;Node6 -->
<g id="edge17_Node000014_Node000006" class="edge">
<title>Node14&#45;&gt;Node6</title>
<g id="a_edge17_Node000014_Node000006"><a xlink:title=" ">
<path fill="none" stroke="#63b8ff" d="M1322.21,-318.94C1330.69,-299.03 1350.42,-247.86 1350.42,-203 1350.42,-203 1350.42,-203 1350.42,-135 1350.42,-98.46 1358.78,-79.23 1331.42,-55 1305.52,-32.07 1078.47,-17.81 980.31,-12.67"/>
<polygon fill="#63b8ff" stroke="#63b8ff" points="980.28,-9.16 970.11,-12.14 979.92,-16.15 980.28,-9.16"/>
</a>
</g>
</g>
<!-- Node15 -->
<g id="Node000015" class="node">
<title>Node15</title>
<g id="a_Node000015"><a xlink:title=" ">
<polygon fill="#e0e0e0" stroke="#999999" points="1428.42,-277.5 1378.42,-277.5 1378.42,-258.5 1428.42,-258.5 1428.42,-277.5"/>
<text text-anchor="middle" x="1403.42" y="-265.5" font-family="Helvetica,sans-Serif" font-size="10.00">atomic</text>
</a>
</g>
</g>
<!-- Node14&#45;&gt;Node15 -->
<g id="edge15_Node000014_Node000015" class="edge">
<title>Node14&#45;&gt;Node15</title>
<g id="a_edge15_Node000014_Node000015"><a xlink:title=" ">
<path fill="none" stroke="#63b8ff" d="M1330.96,-318.87C1344.52,-309.54 1366.36,-294.51 1382.52,-283.38"/>
<polygon fill="#63b8ff" stroke="#63b8ff" points="1384.57,-286.22 1390.82,-277.67 1380.6,-280.45 1384.57,-286.22"/>
</a>
</g>
</g>
<!-- Node16 -->
<g id="Node000016" class="node">
<title>Node16</title>
<g id="a_Node000016"><a xlink:title=" ">
<polygon fill="#e0e0e0" stroke="#999999" points="1321.92,-277.5 1238.92,-277.5 1238.92,-258.5 1321.92,-258.5 1321.92,-277.5"/>
<text text-anchor="middle" x="1280.42" y="-265.5" font-family="Helvetica,sans-Serif" font-size="10.00">initializer_list</text>
</a>
</g>
</g>
<!-- Node14&#45;&gt;Node16 -->
<g id="edge16_Node000014_Node000016" class="edge">
<title>Node14&#45;&gt;Node16</title>
<g id="a_edge16_Node000014_Node000016"><a xlink:title=" ">
<path fill="none" stroke="#63b8ff" d="M1312.81,-318.87C1307.25,-310.31 1298.59,-296.97 1291.62,-286.24"/>
<polygon fill="#63b8ff" stroke="#63b8ff" points="1294.43,-284.15 1286.05,-277.67 1288.56,-287.96 1294.43,-284.15"/>
</a>
</g>
</g>
<!-- Node18 -->
<g id="Node000018" class="node">
<title>Node18</title>
<g id="a_Node000018"><a xlink:href="../../d5/dfe/universal_2include_2userver_2utils_2strong__typedef_8hpp.html" target="_top" xlink:title="Strong typedef for a type T.">
<polygon fill="white" stroke="#666666" points="783.92,-283 672.92,-283 672.92,-253 783.92,-253 783.92,-283"/>
<text text-anchor="start" x="680.92" y="-271" font-family="Helvetica,sans-Serif" font-size="10.00">userver/utils/strong</text>
<text text-anchor="middle" x="728.42" y="-260" font-family="Helvetica,sans-Serif" font-size="10.00">_typedef.hpp</text>
</a>
</g>
</g>
<!-- Node17&#45;&gt;Node18 -->
<g id="edge19_Node000017_Node000018" class="edge">
<title>Node17&#45;&gt;Node18</title>
<g id="a_edge19_Node000017_Node000018"><a xlink:title=" ">
<path fill="none" stroke="#63b8ff" d="M896.77,-318.99C867.8,-310.39 822.22,-296.86 785.79,-286.04"/>
<polygon fill="#63b8ff" stroke="#63b8ff" points="786.36,-282.56 775.78,-283.06 784.37,-289.27 786.36,-282.56"/>
</a>
</g>
</g>
<!-- Node18&#45;&gt;Node6 -->
<g id="edge22_Node000018_Node000006" class="edge">
<title>Node18&#45;&gt;Node6</title>
<g id="a_edge22_Node000018_Node000006"><a xlink:title=" ">
<path fill="none" stroke="#63b8ff" d="M784.19,-265.21C821.86,-260.93 869.76,-248.95 898.42,-217 946.55,-163.33 942.37,-69.21 938,-29.27"/>
<polygon fill="#63b8ff" stroke="#63b8ff" points="941.47,-28.82 936.78,-19.32 934.52,-29.67 941.47,-28.82"/>
</a>
</g>
</g>
<!-- Node18&#45;&gt;Node7 -->
<g id="edge23_Node000018_Node000007" class="edge">
<title>Node18&#45;&gt;Node7</title>
<g id="a_edge23_Node000018_Node000007"><a xlink:title=" ">
<path fill="none" stroke="#63b8ff" d="M672.79,-267.77C574.53,-267.83 364.54,-262.03 194.42,-217 192.73,-216.55 191.02,-216.02 189.31,-215.43"/>
<polygon fill="#63b8ff" stroke="#63b8ff" points="190.36,-212.08 179.78,-211.6 187.75,-218.58 190.36,-212.08"/>
</a>
</g>
</g>
<!-- Node19 -->
<g id="Node000019" class="node">
<title>Node19</title>
<g id="a_Node000019"><a xlink:title=" ">
<polygon fill="#e0e0e0" stroke="#999999" points="413.92,-211.5 348.92,-211.5 348.92,-192.5 413.92,-192.5 413.92,-211.5"/>
<text text-anchor="middle" x="381.42" y="-199.5" font-family="Helvetica,sans-Serif" font-size="10.00">functional</text>
</a>
</g>
</g>
<!-- Node18&#45;&gt;Node19 -->
<g id="edge20_Node000018_Node000019" class="edge">
<title>Node18&#45;&gt;Node19</title>
<g id="a_edge20_Node000018_Node000019"><a xlink:title=" ">
<path fill="none" stroke="#63b8ff" d="M672.72,-259.83C612.18,-251.55 512.78,-236.52 428.42,-217 424.99,-216.21 421.46,-215.31 417.93,-214.36"/>
<polygon fill="#63b8ff" stroke="#63b8ff" points="418.68,-210.93 408.11,-211.58 416.77,-217.67 418.68,-210.93"/>
</a>
</g>
</g>
<!-- Node20 -->
<g id="Node000020" class="node">
<title>Node20</title>
<g id="a_Node000020"><a xlink:title=" ">
<polygon fill="#e0e0e0" stroke="#999999" points="466.42,-145.5 418.42,-145.5 418.42,-126.5 466.42,-126.5 466.42,-145.5"/>
<text text-anchor="middle" x="442.42" y="-133.5" font-family="Helvetica,sans-Serif" font-size="10.00">iosfwd</text>
</a>
</g>
</g>
<!-- Node18&#45;&gt;Node20 -->
<g id="edge21_Node000018_Node000020" class="edge">
<title>Node18&#45;&gt;Node20</title>
<g id="a_edge21_Node000018_Node000020"><a xlink:title=" ">
<path fill="none" stroke="#63b8ff" d="M672.63,-263.59C603.47,-258.2 491.07,-245.27 461.42,-217 444.99,-201.34 441.64,-174.27 441.46,-156.01"/>
<polygon fill="#63b8ff" stroke="#63b8ff" points="444.96,-156.03 441.67,-145.95 437.96,-155.88 444.96,-156.03"/>
</a>
</g>
</g>
<!-- Node21 -->
<g id="Node000021" class="node">
<title>Node21</title>
<g id="a_Node000021"><a xlink:title=" ">
<polygon fill="#e0e0e0" stroke="#999999" points="549.92,-211.5 470.92,-211.5 470.92,-192.5 549.92,-192.5 549.92,-211.5"/>
<text text-anchor="middle" x="510.42" y="-199.5" font-family="Helvetica,sans-Serif" font-size="10.00">fmt/format.h</text>
</a>
</g>
</g>
<!-- Node18&#45;&gt;Node21 -->
<g id="edge24_Node000018_Node000021" class="edge">
<title>Node18&#45;&gt;Node21</title>
<g id="a_edge24_Node000018_Node000021"><a xlink:title=" ">
<path fill="none" stroke="#63b8ff" d="M680.58,-252.95C641.17,-241.38 585.98,-225.18 549.27,-214.41"/>
<polygon fill="#63b8ff" stroke="#63b8ff" points="550.01,-210.98 539.43,-211.52 548.04,-217.69 550.01,-210.98"/>
</a>
</g>
</g>
<!-- Node22 -->
<g id="Node000022" class="node">
<title>Node22</title>
<g id="a_Node000022"><a xlink:href="../../d3/d6c/fmt__compat_8hpp_source.html" target="_top" xlink:title=" ">
<polygon fill="white" stroke="#666666" points="728.92,-211.5 567.92,-211.5 567.92,-192.5 728.92,-192.5 728.92,-211.5"/>
<text text-anchor="middle" x="648.42" y="-199.5" font-family="Helvetica,sans-Serif" font-size="10.00">userver/utils/fmt_compat.hpp</text>
</a>
</g>
</g>
<!-- Node18&#45;&gt;Node22 -->
<g id="edge25_Node000018_Node000022" class="edge">
<title>Node18&#45;&gt;Node22</title>
<g id="a_edge25_Node000018_Node000022"><a xlink:title=" ">
<path fill="none" stroke="#63b8ff" d="M710.66,-252.8C697.82,-242.53 680.5,-228.67 667.39,-218.18"/>
<polygon fill="#63b8ff" stroke="#63b8ff" points="669.47,-215.36 659.47,-211.84 665.09,-220.82 669.47,-215.36"/>
</a>
</g>
</g>
<!-- Node24 -->
<g id="Node000024" class="node">
<title>Node24</title>
<g id="a_Node000024"><a xlink:title=" ">
<polygon fill="#e0e0e0" stroke="#999999" points="869.42,-217 747.42,-217 747.42,-187 869.42,-187 869.42,-217"/>
<text text-anchor="start" x="755.42" y="-205" font-family="Helvetica,sans-Serif" font-size="10.00">boost/functional/hash</text>
<text text-anchor="middle" x="808.42" y="-194" font-family="Helvetica,sans-Serif" font-size="10.00">_fwd.hpp</text>
</a>
</g>
</g>
<!-- Node18&#45;&gt;Node24 -->
<g id="edge27_Node000018_Node000024" class="edge">
<title>Node18&#45;&gt;Node24</title>
<g id="a_edge27_Node000018_Node000024"><a xlink:title=" ">
<path fill="none" stroke="#63b8ff" d="M746.17,-252.8C756.94,-244.18 770.87,-233.04 782.82,-223.48"/>
<polygon fill="#63b8ff" stroke="#63b8ff" points="785.09,-226.14 790.71,-217.16 780.72,-220.68 785.09,-226.14"/>
</a>
</g>
</g>
<!-- Node25 -->
<g id="Node000025" class="node">
<title>Node25</title>
<g id="a_Node000025"><a xlink:href="../../da/d00/universal_2include_2userver_2formats_2common_2meta_8hpp.html" target="_top" xlink:title="Metaprogramming helpers for converters detection.">
<polygon fill="white" stroke="#666666" points="1103.42,-217 963.42,-217 963.42,-187 1103.42,-187 1103.42,-217"/>
<text text-anchor="start" x="971.42" y="-205" font-family="Helvetica,sans-Serif" font-size="10.00">userver/formats/common</text>
<text text-anchor="middle" x="1033.42" y="-194" font-family="Helvetica,sans-Serif" font-size="10.00">/meta.hpp</text>
</a>
</g>
</g>
<!-- Node18&#45;&gt;Node25 -->
<g id="edge28_Node000018_Node000025" class="edge">
<title>Node18&#45;&gt;Node25</title>
<g id="a_edge28_Node000018_Node000025"><a xlink:title=" ">
<path fill="none" stroke="#63b8ff" d="M784,-255.34C832.37,-245.19 902.94,-230.38 956.68,-219.1"/>
<polygon fill="#63b8ff" stroke="#63b8ff" points="957.44,-222.52 966.51,-217.04 956,-215.67 957.44,-222.52"/>
</a>
</g>
</g>
<!-- Node29 -->
<g id="Node000029" class="node">
<title>Node29</title>
<g id="a_Node000029"><a xlink:href="../../d9/dce/void__t_8hpp.html" target="_top" xlink:title="std::void_t implementation with workarounds for compiler bugs">
<polygon fill="white" stroke="#666666" points="906.92,-85 805.92,-85 805.92,-55 906.92,-55 906.92,-85"/>
<text text-anchor="start" x="813.92" y="-73" font-family="Helvetica,sans-Serif" font-size="10.00">userver/utils/void</text>
<text text-anchor="middle" x="856.42" y="-62" font-family="Helvetica,sans-Serif" font-size="10.00">_t.hpp</text>
</a>
</g>
</g>
<!-- Node18&#45;&gt;Node29 -->
<g id="edge45_Node000018_Node000029" class="edge">
<title>Node18&#45;&gt;Node29</title>
<g id="a_edge45_Node000018_Node000029"><a xlink:title=" ">
<path fill="none" stroke="#63b8ff" d="M784.24,-263.98C817.42,-258.96 857.07,-246.62 878.42,-217 904.79,-180.41 884.52,-125.14 869.26,-94.16"/>
<polygon fill="#63b8ff" stroke="#63b8ff" points="872.24,-92.3 864.55,-85.01 866.01,-95.5 872.24,-92.3"/>
</a>
</g>
</g>
<!-- Node30 -->
<g id="Node000030" class="node">
<title>Node30</title>
<g id="a_Node000030"><a xlink:href="../../d0/d03/universal_2include_2userver_2utils_2meta_8hpp.html" target="_top" xlink:title="Metaprogramming, template variables and concepts.">
<polygon fill="white" stroke="#666666" points="330.92,-211.5 203.92,-211.5 203.92,-192.5 330.92,-192.5 330.92,-211.5"/>
<text text-anchor="middle" x="267.42" y="-199.5" font-family="Helvetica,sans-Serif" font-size="10.00">userver/utils/meta.hpp</text>
</a>
</g>
</g>
<!-- Node18&#45;&gt;Node30 -->
<g id="edge36_Node000018_Node000030" class="edge">
<title>Node18&#45;&gt;Node30</title>
<g id="a_edge36_Node000018_Node000030"><a xlink:title=" ">
<path fill="none" stroke="#63b8ff" d="M672.86,-260.99C597.22,-252.56 457.73,-236.09 339.42,-217 332.74,-215.92 325.74,-214.69 318.84,-213.42"/>
<polygon fill="#63b8ff" stroke="#63b8ff" points="319.31,-209.94 308.84,-211.53 318.01,-216.82 319.31,-209.94"/>
</a>
</g>
</g>
<!-- Node34 -->
<g id="Node000034" class="node">
<title>Node34</title>
<g id="a_Node000034"><a xlink:href="../../db/d12/underlying__value_8hpp.html" target="_top" xlink:title=" ">
<polygon fill="white" stroke="#666666" points="1322.42,-85 1190.42,-85 1190.42,-55 1322.42,-55 1322.42,-85"/>
<text text-anchor="start" x="1198.42" y="-73" font-family="Helvetica,sans-Serif" font-size="10.00">userver/utils/underlying</text>
<text text-anchor="middle" x="1256.42" y="-62" font-family="Helvetica,sans-Serif" font-size="10.00">_value.hpp</text>
</a>
</g>
</g>
<!-- Node18&#45;&gt;Node34 -->
<g id="edge43_Node000018_Node000034" class="edge">
<title>Node18&#45;&gt;Node34</title>
<g id="a_edge43_Node000018_Node000034"><a xlink:title=" ">
<path fill="none" stroke="#63b8ff" d="M783.97,-264.29C859.44,-259.59 998.05,-247.33 1112.42,-217 1187.17,-197.17 1230.33,-215.22 1273.42,-151 1284.66,-134.24 1278.18,-111.44 1270.19,-94.46"/>
<polygon fill="#63b8ff" stroke="#63b8ff" points="1273.13,-92.52 1265.44,-85.23 1266.9,-95.72 1273.13,-92.52"/>
</a>
</g>
</g>
<!-- Node23 -->
<g id="Node000023" class="node">
<title>Node23</title>
<g id="a_Node000023"><a xlink:title=" ">
<polygon fill="#e0e0e0" stroke="#999999" points="868.92,-145.5 801.92,-145.5 801.92,-126.5 868.92,-126.5 868.92,-145.5"/>
<text text-anchor="middle" x="835.42" y="-133.5" font-family="Helvetica,sans-Serif" font-size="10.00">fmt/core.h</text>
</a>
</g>
</g>
<!-- Node22&#45;&gt;Node23 -->
<g id="edge26_Node000022_Node000023" class="edge">
<title>Node22&#45;&gt;Node23</title>
<g id="a_edge26_Node000022_Node000023"><a xlink:title=" ">
<path fill="none" stroke="#63b8ff" d="M673.64,-192.37C706.35,-181.17 763.59,-161.58 800.47,-148.96"/>
<polygon fill="#63b8ff" stroke="#63b8ff" points="801.97,-152.15 810.3,-145.6 799.7,-145.52 801.97,-152.15"/>
</a>
</g>
</g>
<!-- Node25&#45;&gt;Node6 -->
<g id="edge29_Node000025_Node000006" class="edge">
<title>Node25&#45;&gt;Node6</title>
<g id="a_edge29_Node000025_Node000006"><a xlink:title=" ">
<path fill="none" stroke="#63b8ff" d="M1103.71,-199.2C1182.68,-194.44 1294.88,-177.84 1254.42,-121 1237.71,-97.54 1058.61,-44.96 976.33,-21.81"/>
<polygon fill="#63b8ff" stroke="#63b8ff" points="977.13,-18.4 966.56,-19.07 975.24,-25.14 977.13,-18.4"/>
</a>
</g>
</g>
<!-- Node26 -->
<g id="Node000026" class="node">
<title>Node26</title>
<g id="a_Node000026"><a xlink:href="../../d2/dc8/universal_2include_2userver_2formats_2parse_2to_8hpp.html" target="_top" xlink:title="Helper for parsers.">
<polygon fill="white" stroke="#666666" points="1245.92,-151 1120.92,-151 1120.92,-121 1245.92,-121 1245.92,-151"/>
<text text-anchor="start" x="1128.92" y="-139" font-family="Helvetica,sans-Serif" font-size="10.00">userver/formats/parse</text>
<text text-anchor="middle" x="1183.42" y="-128" font-family="Helvetica,sans-Serif" font-size="10.00">/to.hpp</text>
</a>
</g>
</g>
<!-- Node25&#45;&gt;Node26 -->
<g id="edge30_Node000025_Node000026" class="edge">
<title>Node25&#45;&gt;Node26</title>
<g id="a_edge30_Node000025_Node000026"><a xlink:title=" ">
<path fill="none" stroke="#63b8ff" d="M1066.33,-186.95C1088.32,-177.58 1117.43,-165.16 1141.12,-155.05"/>
<polygon fill="#63b8ff" stroke="#63b8ff" points="1142.75,-158.16 1150.58,-151.01 1140,-151.72 1142.75,-158.16"/>
</a>
</g>
</g>
<!-- Node27 -->
<g id="Node000027" class="node">
<title>Node27</title>
<g id="a_Node000027"><a xlink:href="../../d6/d8e/universal_2include_2userver_2formats_2serialize_2to_8hpp.html" target="_top" xlink:title="Helper for serializers.">
<polygon fill="white" stroke="#666666" points="1102.92,-151 963.92,-151 963.92,-121 1102.92,-121 1102.92,-151"/>
<text text-anchor="start" x="971.92" y="-139" font-family="Helvetica,sans-Serif" font-size="10.00">userver/formats/serialize</text>
<text text-anchor="middle" x="1033.42" y="-128" font-family="Helvetica,sans-Serif" font-size="10.00">/to.hpp</text>
</a>
</g>
</g>
<!-- Node25&#45;&gt;Node27 -->
<g id="edge31_Node000025_Node000027" class="edge">
<title>Node25&#45;&gt;Node27</title>
<g id="a_edge31_Node000025_Node000027"><a xlink:title=" ">
<path fill="none" stroke="#63b8ff" d="M1033.42,-186.8C1033.42,-179.34 1033.42,-169.99 1033.42,-161.41"/>
<polygon fill="#63b8ff" stroke="#63b8ff" points="1036.92,-161.16 1033.42,-151.16 1029.92,-161.16 1036.92,-161.16"/>
</a>
</g>
</g>
<!-- Node28 -->
<g id="Node000028" class="node">
<title>Node28</title>
<g id="a_Node000028"><a xlink:href="../../d3/da0/meta__light_8hpp.html" target="_top" xlink:title="Lightweight concepts.">
<polygon fill="white" stroke="#666666" points="783.42,-151 677.42,-151 677.42,-121 783.42,-121 783.42,-151"/>
<text text-anchor="start" x="685.42" y="-139" font-family="Helvetica,sans-Serif" font-size="10.00">userver/utils/meta</text>
<text text-anchor="middle" x="730.42" y="-128" font-family="Helvetica,sans-Serif" font-size="10.00">_light.hpp</text>
</a>
</g>
</g>
<!-- Node25&#45;&gt;Node28 -->
<g id="edge32_Node000025_Node000028" class="edge">
<title>Node25&#45;&gt;Node28</title>
<g id="a_edge32_Node000025_Node000028"><a xlink:title=" ">
<path fill="none" stroke="#63b8ff" d="M964.27,-186.99C918.5,-177.64 856.89,-164.9 793.66,-151.25"/>
<polygon fill="#63b8ff" stroke="#63b8ff" points="794.02,-147.75 783.5,-149.05 792.54,-154.59 794.02,-147.75"/>
</a>
</g>
</g>
<!-- Node28&#45;&gt;Node6 -->
<g id="edge33_Node000028_Node000006" class="edge">
<title>Node28&#45;&gt;Node6</title>
<g id="a_edge33_Node000028_Node000006"><a xlink:title=" ">
<path fill="none" stroke="#63b8ff" d="M738.6,-120.73C749.55,-102.86 770.63,-72.47 796.42,-55 824.85,-35.74 862.13,-24.4 890.93,-17.99"/>
<polygon fill="#63b8ff" stroke="#63b8ff" points="891.67,-21.42 900.73,-15.93 890.22,-14.57 891.67,-21.42"/>
</a>
</g>
</g>
<!-- Node28&#45;&gt;Node29 -->
<g id="edge34_Node000028_Node000029" class="edge">
<title>Node28&#45;&gt;Node29</title>
<g id="a_edge34_Node000028_Node000029"><a xlink:title=" ">
<path fill="none" stroke="#63b8ff" d="M758.07,-120.95C776.2,-111.74 800.12,-99.6 819.82,-89.59"/>
<polygon fill="#63b8ff" stroke="#63b8ff" points="821.5,-92.66 828.83,-85.01 818.33,-86.42 821.5,-92.66"/>
</a>
</g>
</g>
<!-- Node29&#45;&gt;Node6 -->
<g id="edge35_Node000029_Node000006" class="edge">
<title>Node29&#45;&gt;Node6</title>
<g id="a_edge35_Node000029_Node000006"><a xlink:title=" ">
<path fill="none" stroke="#63b8ff" d="M875.54,-54.84C887.59,-45.91 903.13,-34.41 915.36,-25.35"/>
<polygon fill="#63b8ff" stroke="#63b8ff" points="917.63,-28.03 923.58,-19.27 913.46,-22.4 917.63,-28.03"/>
</a>
</g>
</g>
<!-- Node30&#45;&gt;Node6 -->
<g id="edge40_Node000030_Node000006" class="edge">
<title>Node30&#45;&gt;Node6</title>
<g id="a_edge40_Node000030_Node000006"><a xlink:title=" ">
<path fill="none" stroke="#63b8ff" d="M263.55,-192.32C257.03,-176.18 246.14,-141.35 263.42,-121 344.71,-25.25 753.94,-12.32 890.78,-10.69"/>
<polygon fill="#63b8ff" stroke="#63b8ff" points="890.94,-14.19 900.91,-10.59 890.87,-7.19 890.94,-14.19"/>
</a>
</g>
</g>
<!-- Node30&#45;&gt;Node20 -->
<g id="edge37_Node000030_Node000020" class="edge">
<title>Node30&#45;&gt;Node20</title>
<g id="a_edge37_Node000030_Node000020"><a xlink:title=" ">
<path fill="none" stroke="#63b8ff" d="M293.25,-192.45C321.84,-182.85 369.21,-166.59 409.42,-151 410.62,-150.53 411.85,-150.05 413.09,-149.55"/>
<polygon fill="#63b8ff" stroke="#63b8ff" points="414.69,-152.68 422.61,-145.64 412.03,-146.21 414.69,-152.68"/>
</a>
</g>
</g>
<!-- Node30&#45;&gt;Node28 -->
<g id="edge42_Node000030_Node000028" class="edge">
<title>Node30&#45;&gt;Node28</title>
<g id="a_edge42_Node000030_Node000028"><a xlink:title=" ">
<path fill="none" stroke="#63b8ff" d="M308.83,-192.47C318.83,-190.54 329.48,-188.6 339.42,-187 454.51,-168.47 589.57,-152.46 667.05,-143.82"/>
<polygon fill="#63b8ff" stroke="#63b8ff" points="667.58,-147.29 677.14,-142.7 666.81,-140.33 667.58,-147.29"/>
</a>
</g>
</g>
<!-- Node31 -->
<g id="Node000031" class="node">
<title>Node31</title>
<g id="a_Node000031"><a xlink:title=" ">
<polygon fill="#e0e0e0" stroke="#999999" points="325.92,-145.5 272.92,-145.5 272.92,-126.5 325.92,-126.5 325.92,-145.5"/>
<text text-anchor="middle" x="299.42" y="-133.5" font-family="Helvetica,sans-Serif" font-size="10.00">iterator</text>
</a>
</g>
</g>
<!-- Node30&#45;&gt;Node31 -->
<g id="edge38_Node000030_Node000031" class="edge">
<title>Node30&#45;&gt;Node31</title>
<g id="a_edge38_Node000030_Node000031"><a xlink:title=" ">
<path fill="none" stroke="#63b8ff" d="M271.73,-192.37C276.48,-182.88 284.24,-167.36 290.33,-155.16"/>
<polygon fill="#63b8ff" stroke="#63b8ff" points="293.62,-156.41 294.96,-145.91 287.36,-153.28 293.62,-156.41"/>
</a>
</g>
</g>
<!-- Node32 -->
<g id="Node000032" class="node">
<title>Node32</title>
<g id="a_Node000032"><a xlink:title=" ">
<polygon fill="#e0e0e0" stroke="#999999" points="400.42,-145.5 344.42,-145.5 344.42,-126.5 400.42,-126.5 400.42,-145.5"/>
<text text-anchor="middle" x="372.42" y="-133.5" font-family="Helvetica,sans-Serif" font-size="10.00">optional</text>
</a>
</g>
</g>
<!-- Node30&#45;&gt;Node32 -->
<g id="edge39_Node000030_Node000032" class="edge">
<title>Node30&#45;&gt;Node32</title>
<g id="a_edge39_Node000030_Node000032"><a xlink:title=" ">
<path fill="none" stroke="#63b8ff" d="M281.58,-192.37C298.96,-181.78 328.66,-163.67 349.35,-151.06"/>
<polygon fill="#63b8ff" stroke="#63b8ff" points="351.43,-153.89 358.14,-145.7 347.78,-147.92 351.43,-153.89"/>
</a>
</g>
</g>
<!-- Node33 -->
<g id="Node000033" class="node">
<title>Node33</title>
<g id="a_Node000033"><a xlink:title=" ">
<polygon fill="#e0e0e0" stroke="#999999" points="215.92,-145.5 168.92,-145.5 168.92,-126.5 215.92,-126.5 215.92,-145.5"/>
<text text-anchor="middle" x="192.42" y="-133.5" font-family="Helvetica,sans-Serif" font-size="10.00">vector</text>
</a>
</g>
</g>
<!-- Node30&#45;&gt;Node33 -->
<g id="edge41_Node000030_Node000033" class="edge">
<title>Node30&#45;&gt;Node33</title>
<g id="a_edge41_Node000030_Node000033"><a xlink:title=" ">
<path fill="none" stroke="#63b8ff" d="M257.3,-192.37C245.4,-182.21 225.42,-165.16 210.76,-152.65"/>
<polygon fill="#63b8ff" stroke="#63b8ff" points="212.73,-149.73 202.85,-145.91 208.19,-155.06 212.73,-149.73"/>
</a>
</g>
</g>
<!-- Node34&#45;&gt;Node6 -->
<g id="edge44_Node000034_Node000006" class="edge">
<title>Node34&#45;&gt;Node6</title>
<g id="a_edge44_Node000034_Node000006"><a xlink:title=" ">
<path fill="none" stroke="#63b8ff" d="M1190.29,-56.95C1127.53,-45.51 1034.91,-28.63 980.31,-18.68"/>
<polygon fill="#63b8ff" stroke="#63b8ff" points="980.71,-15.2 970.25,-16.85 979.46,-22.08 980.71,-15.2"/>
</a>
</g>
</g>
</g>
</svg>
