<?xml version="1.0" encoding="UTF-8" standalone="no"?>
<!DOCTYPE svg PUBLIC "-//W3C//DTD SVG 1.1//EN"
 "http://www.w3.org/Graphics/SVG/1.1/DTD/svg11.dtd">
<!-- Generated by graphviz version 2.43.0 (0)
 -->
<!-- Title: utest::HttpServerMock::HttpRequest Pages: 1 -->
<svg width="647pt" height="130pt"
 viewBox="0.00 0.00 647.00 129.50" xmlns="http://www.w3.org/2000/svg" xmlns:xlink="http://www.w3.org/1999/xlink">
<g id="graph0" class="graph" transform="scale(1 1) rotate(0) translate(4 125.5)">
<title>utest::HttpServerMock::HttpRequest</title>
<!-- Node1 -->
<g id="Node000001" class="node">
<title>Node1</title>
<g id="a_Node000001"><a xlink:title=" ">
<polygon fill="#999999" stroke="#666666" points="639,-72.5 513,-72.5 513,-42.5 639,-42.5 639,-72.5"/>
<text text-anchor="start" x="521" y="-60.5" font-family="Helvetica,sans-Serif" font-size="10.00">utest::HttpServerMock</text>
<text text-anchor="middle" x="576" y="-49.5" font-family="Helvetica,sans-Serif" font-size="10.00">::HttpRequest</text>
</a>
</g>
</g>
<!-- Node2 -->
<g id="Node000002" class="node">
<title>Node2</title>
<g id="a_Node000002"><a xlink:title=" ">
<polygon fill="white" stroke="#666666" points="206,-95 141,-95 141,-76 206,-76 206,-95"/>
<text text-anchor="middle" x="173.5" y="-83" font-family="Helvetica,sans-Serif" font-size="10.00">std::string</text>
</a>
</g>
</g>
<!-- Node2&#45;&gt;Node1 -->
<g id="edge1_Node000001_Node000002" class="edge">
<title>Node2&#45;&gt;Node1</title>
<g id="a_edge1_Node000001_Node000002"><a xlink:title=" ">
<path fill="none" stroke="#9a32cd" stroke-dasharray="5,2" d="M210.52,-97.75C215.02,-98.88 219.58,-99.85 224,-100.5 245.54,-103.69 251.24,-101.38 273,-100.5 344.73,-97.61 362.97,-97.88 434,-87.5 460,-83.7 488.39,-77.97 512.84,-72.53"/>
<polygon fill="#9a32cd" stroke="#9a32cd" points="211.46,-94.38 200.89,-95.06 209.58,-101.12 211.46,-94.38"/>
</a>
</g>
<text text-anchor="middle" x="362.5" y="-113.5" font-family="Helvetica,sans-Serif" font-size="10.00" fill="grey"> body</text>
<text text-anchor="middle" x="362.5" y="-102.5" font-family="Helvetica,sans-Serif" font-size="10.00" fill="grey">path</text>
</g>
<!-- Node4 -->
<g id="Node000004" class="node">
<title>Node4</title>
<g id="a_Node000004"><a xlink:title=" ">
<polygon fill="white" stroke="#666666" points="419.5,-78 305.5,-78 305.5,-37 419.5,-37 419.5,-78"/>
<text text-anchor="start" x="313.5" y="-66" font-family="Helvetica,sans-Serif" font-size="10.00">std::unordered_map</text>
<text text-anchor="start" x="313.5" y="-55" font-family="Helvetica,sans-Serif" font-size="10.00">&lt; std::string, std::</text>
<text text-anchor="middle" x="362.5" y="-44" font-family="Helvetica,sans-Serif" font-size="10.00">string &gt;</text>
</a>
</g>
</g>
<!-- Node2&#45;&gt;Node4 -->
<g id="edge4_Node000004_Node000002" class="edge">
<title>Node2&#45;&gt;Node4</title>
<g id="a_edge4_Node000004_Node000002"><a xlink:title=" ">
<path fill="none" stroke="#9a32cd" stroke-dasharray="5,2" d="M216.23,-79.25C242.5,-75.32 276.73,-70.19 305.37,-65.9"/>
<polygon fill="#9a32cd" stroke="#9a32cd" points="215.59,-75.81 206.22,-80.75 216.63,-82.73 215.59,-75.81"/>
</a>
</g>
<text text-anchor="middle" x="248.5" y="-91.5" font-family="Helvetica,sans-Serif" font-size="10.00" fill="grey"> elements</text>
<text text-anchor="middle" x="248.5" y="-80.5" font-family="Helvetica,sans-Serif" font-size="10.00" fill="grey">keys</text>
</g>
<!-- Node3 -->
<g id="Node000003" class="node">
<title>Node3</title>
<g id="a_Node000003"><a xlink:title=" ">
<polygon fill="white" stroke="#666666" points="104,-100.5 0,-100.5 0,-70.5 104,-70.5 104,-100.5"/>
<text text-anchor="start" x="8" y="-88.5" font-family="Helvetica,sans-Serif" font-size="10.00">std::basic_string&lt;</text>
<text text-anchor="middle" x="52" y="-77.5" font-family="Helvetica,sans-Serif" font-size="10.00"> Char &gt;</text>
</a>
</g>
</g>
<!-- Node3&#45;&gt;Node2 -->
<g id="edge2_Node000002_Node000003" class="edge">
<title>Node3&#45;&gt;Node2</title>
<g id="a_edge2_Node000002_Node000003"><a xlink:title=" ">
<path fill="none" stroke="#63b8ff" d="M114.1,-85.5C123.41,-85.5 132.68,-85.5 141,-85.5"/>
<polygon fill="#63b8ff" stroke="#63b8ff" points="114.03,-82 104.03,-85.5 114.03,-89 114.03,-82"/>
</a>
</g>
</g>
<!-- Node4&#45;&gt;Node1 -->
<g id="edge3_Node000001_Node000004" class="edge">
<title>Node4&#45;&gt;Node1</title>
<g id="a_edge3_Node000001_Node000004"><a xlink:title=" ">
<path fill="none" stroke="#9a32cd" stroke-dasharray="5,2" d="M429.93,-57.5C456.37,-57.5 486.63,-57.5 512.65,-57.5"/>
<polygon fill="#9a32cd" stroke="#9a32cd" points="429.62,-54 419.62,-57.5 429.62,-61 429.62,-54"/>
</a>
</g>
<text text-anchor="middle" x="473.5" y="-60.5" font-family="Helvetica,sans-Serif" font-size="10.00" fill="grey"> query</text>
</g>
<!-- Node5 -->
<g id="Node000005" class="node">
<title>Node5</title>
<g id="a_Node000005"><a xlink:href="../../dc/d2f/classhttp_1_1headers_1_1HeaderMap.html" target="_top" xlink:title="Container that maps case&#45;insensitive header name into header value.">
<polygon fill="white" stroke="#666666" points="434,-19 291,-19 291,0 434,0 434,-19"/>
<text text-anchor="middle" x="362.5" y="-7" font-family="Helvetica,sans-Serif" font-size="10.00">http::headers::HeaderMap</text>
</a>
</g>
</g>
<!-- Node5&#45;&gt;Node1 -->
<g id="edge5_Node000001_Node000005" class="edge">
<title>Node5&#45;&gt;Node1</title>
<g id="a_edge5_Node000001_Node000005"><a xlink:title=" ">
<path fill="none" stroke="#9a32cd" stroke-dasharray="5,2" d="M415.62,-21.33C445.07,-28.01 482.06,-36.41 512.99,-43.43"/>
<polygon fill="#9a32cd" stroke="#9a32cd" points="416.07,-17.84 405.54,-19.04 414.52,-24.67 416.07,-17.84"/>
</a>
</g>
<text text-anchor="middle" x="473.5" y="-42.5" font-family="Helvetica,sans-Serif" font-size="10.00" fill="grey"> headers</text>
</g>
</g>
</svg>
