<?xml version="1.0" encoding="UTF-8" standalone="no"?>
<!DOCTYPE svg PUBLIC "-//W3C//DTD SVG 1.1//EN"
 "http://www.w3.org/Graphics/SVG/1.1/DTD/svg11.dtd">
<!-- Generated by graphviz version 2.43.0 (0)
 -->
<!-- Title: userver/http/common_headers.hpp Pages: 1 -->
<svg width="965pt" height="280pt"
 viewBox="0.00 0.00 964.76 280.00" xmlns="http://www.w3.org/2000/svg" xmlns:xlink="http://www.w3.org/1999/xlink">
<g id="graph0" class="graph" transform="scale(1 1) rotate(0) translate(4 276)">
<title>userver/http/common_headers.hpp</title>
<!-- Node1 -->
<g id="Node000001" class="node">
<title>Node1</title>
<g id="a_Node000001"><a xlink:title="Common HTTP header names.">
<polygon fill="#999999" stroke="#666666" points="385.28,-272 263.28,-272 263.28,-242 385.28,-242 385.28,-272"/>
<text text-anchor="start" x="271.28" y="-260" font-family="Helvetica,sans-Serif" font-size="10.00">userver/http/common</text>
<text text-anchor="middle" x="324.28" y="-249" font-family="Helvetica,sans-Serif" font-size="10.00">_headers.hpp</text>
</a>
</g>
</g>
<!-- Node2 -->
<g id="Node000002" class="node">
<title>Node2</title>
<g id="a_Node000002"><a xlink:href="../../de/dd5/predefined__header_8hpp_source.html" target="_top" xlink:title=" ">
<polygon fill="white" stroke="#666666" points="389.78,-206 258.78,-206 258.78,-176 389.78,-176 389.78,-206"/>
<text text-anchor="start" x="266.78" y="-194" font-family="Helvetica,sans-Serif" font-size="10.00">userver/http/predefined</text>
<text text-anchor="middle" x="324.28" y="-183" font-family="Helvetica,sans-Serif" font-size="10.00">_header.hpp</text>
</a>
</g>
</g>
<!-- Node1&#45;&gt;Node2 -->
<g id="edge1_Node000001_Node000002" class="edge">
<title>Node1&#45;&gt;Node2</title>
<g id="a_edge1_Node000001_Node000002"><a xlink:title=" ">
<path fill="none" stroke="#63b8ff" d="M324.28,-241.8C324.28,-234.34 324.28,-224.99 324.28,-216.41"/>
<polygon fill="#63b8ff" stroke="#63b8ff" points="327.78,-216.16 324.28,-206.16 320.78,-216.16 327.78,-216.16"/>
</a>
</g>
</g>
<!-- Node3 -->
<g id="Node000003" class="node">
<title>Node3</title>
<g id="a_Node000003"><a xlink:title=" ">
<polygon fill="#e0e0e0" stroke="#999999" points="882.28,-19 838.28,-19 838.28,0 882.28,0 882.28,-19"/>
<text text-anchor="middle" x="860.28" y="-7" font-family="Helvetica,sans-Serif" font-size="10.00">string</text>
</a>
</g>
</g>
<!-- Node2&#45;&gt;Node3 -->
<g id="edge2_Node000002_Node000003" class="edge">
<title>Node2&#45;&gt;Node3</title>
<g id="a_edge2_Node000002_Node000003"><a xlink:title=" ">
<path fill="none" stroke="#63b8ff" d="M389.9,-188.04C535.9,-182.15 880.3,-159.31 951.28,-74 972.08,-49 925.87,-29.35 891.98,-18.88"/>
<polygon fill="#63b8ff" stroke="#63b8ff" points="892.97,-15.52 882.39,-16.04 890.99,-22.23 892.97,-15.52"/>
</a>
</g>
</g>
<!-- Node4 -->
<g id="Node000004" class="node">
<title>Node4</title>
<g id="a_Node000004"><a xlink:title=" ">
<polygon fill="#e0e0e0" stroke="#999999" points="183.78,-19 110.78,-19 110.78,0 183.78,0 183.78,-19"/>
<text text-anchor="middle" x="147.28" y="-7" font-family="Helvetica,sans-Serif" font-size="10.00">string_view</text>
</a>
</g>
</g>
<!-- Node2&#45;&gt;Node4 -->
<g id="edge3_Node000002_Node000004" class="edge">
<title>Node2&#45;&gt;Node4</title>
<g id="a_edge3_Node000002_Node000004"><a xlink:title=" ">
<path fill="none" stroke="#63b8ff" d="M258.53,-189.53C179.87,-184.83 52.71,-163.02 4.28,-74 -17.53,-33.9 50.91,-19.08 100.52,-13.64"/>
<polygon fill="#63b8ff" stroke="#63b8ff" points="101.18,-17.09 110.78,-12.61 100.48,-10.12 101.18,-17.09"/>
</a>
</g>
</g>
<!-- Node5 -->
<g id="Node000005" class="node">
<title>Node5</title>
<g id="a_Node000005"><a xlink:title=" ">
<polygon fill="#e0e0e0" stroke="#999999" points="357.78,-134.5 290.78,-134.5 290.78,-115.5 357.78,-115.5 357.78,-134.5"/>
<text text-anchor="middle" x="324.28" y="-122.5" font-family="Helvetica,sans-Serif" font-size="10.00">fmt/core.h</text>
</a>
</g>
</g>
<!-- Node2&#45;&gt;Node5 -->
<g id="edge4_Node000002_Node000005" class="edge">
<title>Node2&#45;&gt;Node5</title>
<g id="a_edge4_Node000002_Node000005"><a xlink:title=" ">
<path fill="none" stroke="#63b8ff" d="M324.28,-175.8C324.28,-166.7 324.28,-154.79 324.28,-144.9"/>
<polygon fill="#63b8ff" stroke="#63b8ff" points="327.78,-144.84 324.28,-134.84 320.78,-144.84 327.78,-144.84"/>
</a>
</g>
</g>
<!-- Node6 -->
<g id="Node000006" class="node">
<title>Node6</title>
<g id="a_Node000006"><a xlink:href="../../d6/da7/small__string__fwd_8hpp_source.html" target="_top" xlink:title=" ">
<polygon fill="white" stroke="#666666" points="221.78,-140 114.78,-140 114.78,-110 221.78,-110 221.78,-140"/>
<text text-anchor="start" x="122.78" y="-128" font-family="Helvetica,sans-Serif" font-size="10.00">userver/utils/small</text>
<text text-anchor="middle" x="168.28" y="-117" font-family="Helvetica,sans-Serif" font-size="10.00">_string_fwd.hpp</text>
</a>
</g>
</g>
<!-- Node2&#45;&gt;Node6 -->
<g id="edge5_Node000002_Node000006" class="edge">
<title>Node2&#45;&gt;Node6</title>
<g id="a_edge5_Node000002_Node000006"><a xlink:title=" ">
<path fill="none" stroke="#63b8ff" d="M290.05,-175.95C267.09,-166.53 236.64,-154.04 211.94,-143.91"/>
<polygon fill="#63b8ff" stroke="#63b8ff" points="213.02,-140.57 202.44,-140.01 210.36,-147.05 213.02,-140.57"/>
</a>
</g>
</g>
<!-- Node8 -->
<g id="Node000008" class="node">
<title>Node8</title>
<g id="a_Node000008"><a xlink:href="../../d7/d32/trivial__map_8hpp.html" target="_top" xlink:title="Bidirectional map|sets over string literals or other trivial types.">
<polygon fill="white" stroke="#666666" points="535.78,-140 426.78,-140 426.78,-110 535.78,-110 535.78,-140"/>
<text text-anchor="start" x="434.78" y="-128" font-family="Helvetica,sans-Serif" font-size="10.00">userver/utils/trivial</text>
<text text-anchor="middle" x="481.28" y="-117" font-family="Helvetica,sans-Serif" font-size="10.00">_map.hpp</text>
</a>
</g>
</g>
<!-- Node2&#45;&gt;Node8 -->
<g id="edge7_Node000002_Node000008" class="edge">
<title>Node2&#45;&gt;Node8</title>
<g id="a_edge7_Node000002_Node000008"><a xlink:title=" ">
<path fill="none" stroke="#63b8ff" d="M358.74,-175.95C381.85,-166.53 412.48,-154.04 437.34,-143.91"/>
<polygon fill="#63b8ff" stroke="#63b8ff" points="438.97,-147.03 446.91,-140.01 436.33,-140.55 438.97,-147.03"/>
</a>
</g>
</g>
<!-- Node7 -->
<g id="Node000007" class="node">
<title>Node7</title>
<g id="a_Node000007"><a xlink:title=" ">
<polygon fill="#e0e0e0" stroke="#999999" points="63.28,-74 13.28,-74 13.28,-55 63.28,-55 63.28,-74"/>
<text text-anchor="middle" x="38.28" y="-62" font-family="Helvetica,sans-Serif" font-size="10.00">cstdint</text>
</a>
</g>
</g>
<!-- Node6&#45;&gt;Node7 -->
<g id="edge6_Node000006_Node000007" class="edge">
<title>Node6&#45;&gt;Node7</title>
<g id="a_edge6_Node000006_Node000007"><a xlink:title=" ">
<path fill="none" stroke="#63b8ff" d="M137.14,-109.99C115.74,-100.36 87.55,-87.67 66.75,-78.31"/>
<polygon fill="#63b8ff" stroke="#63b8ff" points="68.04,-75.05 57.48,-74.14 65.16,-81.43 68.04,-75.05"/>
</a>
</g>
</g>
<!-- Node8&#45;&gt;Node3 -->
<g id="edge10_Node000008_Node000003" class="edge">
<title>Node8&#45;&gt;Node3</title>
<g id="a_edge10_Node000008_Node000003"><a xlink:title=" ">
<path fill="none" stroke="#63b8ff" d="M535.88,-123.43C625.05,-121.39 796.5,-112.41 841.28,-74 854.1,-63 858.47,-43.74 859.86,-29.31"/>
<polygon fill="#63b8ff" stroke="#63b8ff" points="863.37,-29.2 860.44,-19.02 856.38,-28.81 863.37,-29.2"/>
</a>
</g>
</g>
<!-- Node8&#45;&gt;Node4 -->
<g id="edge11_Node000008_Node000004" class="edge">
<title>Node8&#45;&gt;Node4</title>
<g id="a_edge11_Node000008_Node000004"><a xlink:title=" ">
<path fill="none" stroke="#63b8ff" d="M536.14,-114.8C583.68,-104.55 640.85,-85.33 613.28,-55 585.42,-24.35 306.36,-14.29 193.89,-11.47"/>
<polygon fill="#63b8ff" stroke="#63b8ff" points="193.94,-7.97 183.86,-11.23 193.77,-14.97 193.94,-7.97"/>
</a>
</g>
</g>
<!-- Node9 -->
<g id="Node000009" class="node">
<title>Node9</title>
<g id="a_Node000009"><a xlink:title=" ">
<polygon fill="#e0e0e0" stroke="#999999" points="941.78,-74 888.78,-74 888.78,-55 941.78,-55 941.78,-74"/>
<text text-anchor="middle" x="915.28" y="-62" font-family="Helvetica,sans-Serif" font-size="10.00">cstddef</text>
</a>
</g>
</g>
<!-- Node8&#45;&gt;Node9 -->
<g id="edge8_Node000008_Node000009" class="edge">
<title>Node8&#45;&gt;Node9</title>
<g id="a_edge8_Node000008_Node000009"><a xlink:title=" ">
<path fill="none" stroke="#63b8ff" d="M535.83,-118.42C611.9,-110.33 754.04,-94.08 874.28,-74 875.57,-73.78 876.88,-73.56 878.21,-73.32"/>
<polygon fill="#63b8ff" stroke="#63b8ff" points="879.26,-76.68 888.43,-71.38 877.95,-69.81 879.26,-76.68"/>
</a>
</g>
</g>
<!-- Node10 -->
<g id="Node000010" class="node">
<title>Node10</title>
<g id="a_Node000010"><a xlink:title=" ">
<polygon fill="#e0e0e0" stroke="#999999" points="287.28,-74 231.28,-74 231.28,-55 287.28,-55 287.28,-74"/>
<text text-anchor="middle" x="259.28" y="-62" font-family="Helvetica,sans-Serif" font-size="10.00">optional</text>
</a>
</g>
</g>
<!-- Node8&#45;&gt;Node10 -->
<g id="edge9_Node000008_Node000010" class="edge">
<title>Node8&#45;&gt;Node10</title>
<g id="a_edge9_Node000008_Node000010"><a xlink:title=" ">
<path fill="none" stroke="#63b8ff" d="M428.11,-109.99C387.83,-99.37 333.46,-85.05 297.43,-75.55"/>
<polygon fill="#63b8ff" stroke="#63b8ff" points="297.89,-72.05 287.32,-72.89 296.1,-78.82 297.89,-72.05"/>
</a>
</g>
</g>
<!-- Node11 -->
<g id="Node000011" class="node">
<title>Node11</title>
<g id="a_Node000011"><a xlink:title=" ">
<polygon fill="#e0e0e0" stroke="#999999" points="374.78,-74 305.78,-74 305.78,-55 374.78,-55 374.78,-74"/>
<text text-anchor="middle" x="340.28" y="-62" font-family="Helvetica,sans-Serif" font-size="10.00">type_traits</text>
</a>
</g>
</g>
<!-- Node8&#45;&gt;Node11 -->
<g id="edge12_Node000008_Node000011" class="edge">
<title>Node8&#45;&gt;Node11</title>
<g id="a_edge12_Node000008_Node000011"><a xlink:title=" ">
<path fill="none" stroke="#63b8ff" d="M447.51,-109.99C424.09,-100.27 393.17,-87.44 370.55,-78.06"/>
<polygon fill="#63b8ff" stroke="#63b8ff" points="371.68,-74.74 361.1,-74.14 369,-81.2 371.68,-74.74"/>
</a>
</g>
</g>
<!-- Node12 -->
<g id="Node000012" class="node">
<title>Node12</title>
<g id="a_Node000012"><a xlink:title=" ">
<polygon fill="#e0e0e0" stroke="#999999" points="437.78,-74 392.78,-74 392.78,-55 437.78,-55 437.78,-74"/>
<text text-anchor="middle" x="415.28" y="-62" font-family="Helvetica,sans-Serif" font-size="10.00">utility</text>
</a>
</g>
</g>
<!-- Node8&#45;&gt;Node12 -->
<g id="edge13_Node000008_Node000012" class="edge">
<title>Node8&#45;&gt;Node12</title>
<g id="a_edge13_Node000008_Node000012"><a xlink:title=" ">
<path fill="none" stroke="#63b8ff" d="M465.31,-109.84C455.53,-101.17 443.01,-90.08 432.94,-81.15"/>
<polygon fill="#63b8ff" stroke="#63b8ff" points="434.98,-78.28 425.17,-74.27 430.33,-83.52 434.98,-78.28"/>
</a>
</g>
</g>
<!-- Node13 -->
<g id="Node000013" class="node">
<title>Node13</title>
<g id="a_Node000013"><a xlink:title=" ">
<polygon fill="#e0e0e0" stroke="#999999" points="506.78,-74 455.78,-74 455.78,-55 506.78,-55 506.78,-74"/>
<text text-anchor="middle" x="481.28" y="-62" font-family="Helvetica,sans-Serif" font-size="10.00">variant</text>
</a>
</g>
</g>
<!-- Node8&#45;&gt;Node13 -->
<g id="edge14_Node000008_Node000013" class="edge">
<title>Node8&#45;&gt;Node13</title>
<g id="a_edge14_Node000008_Node000013"><a xlink:title=" ">
<path fill="none" stroke="#63b8ff" d="M481.28,-109.84C481.28,-102.21 481.28,-92.7 481.28,-84.45"/>
<polygon fill="#63b8ff" stroke="#63b8ff" points="484.78,-84.27 481.28,-74.27 477.78,-84.27 484.78,-84.27"/>
</a>
</g>
</g>
<!-- Node14 -->
<g id="Node000014" class="node">
<title>Node14</title>
<g id="a_Node000014"><a xlink:title=" ">
<polygon fill="#e0e0e0" stroke="#999999" points="603.78,-74 524.78,-74 524.78,-55 603.78,-55 603.78,-74"/>
<text text-anchor="middle" x="564.28" y="-62" font-family="Helvetica,sans-Serif" font-size="10.00">fmt/format.h</text>
</a>
</g>
</g>
<!-- Node8&#45;&gt;Node14 -->
<g id="edge15_Node000008_Node000014" class="edge">
<title>Node8&#45;&gt;Node14</title>
<g id="a_edge15_Node000008_Node000014"><a xlink:title=" ">
<path fill="none" stroke="#63b8ff" d="M501.37,-109.84C514.16,-100.83 530.68,-89.18 543.58,-80.09"/>
<polygon fill="#63b8ff" stroke="#63b8ff" points="545.69,-82.89 551.84,-74.27 541.65,-77.17 545.69,-82.89"/>
</a>
</g>
</g>
<!-- Node15 -->
<g id="Node000015" class="node">
<title>Node15</title>
<g id="a_Node000015"><a xlink:href="../../d1/d37/demangle_8hpp.html" target="_top" xlink:title="Returns a human&#45;readable representation of provided type name.">
<polygon fill="white" stroke="#666666" points="832.28,-74 660.28,-74 660.28,-55 832.28,-55 832.28,-74"/>
<text text-anchor="middle" x="746.28" y="-62" font-family="Helvetica,sans-Serif" font-size="10.00">userver/compiler/demangle.hpp</text>
</a>
</g>
</g>
<!-- Node8&#45;&gt;Node15 -->
<g id="edge16_Node000008_Node000015" class="edge">
<title>Node8&#45;&gt;Node15</title>
<g id="a_edge16_Node000008_Node000015"><a xlink:title=" ">
<path fill="none" stroke="#63b8ff" d="M535.87,-111.95C583.48,-101.44 651.91,-86.33 697.66,-76.23"/>
<polygon fill="#63b8ff" stroke="#63b8ff" points="698.63,-79.6 707.64,-74.03 697.12,-72.77 698.63,-79.6"/>
</a>
</g>
</g>
<!-- Node18 -->
<g id="Node000018" class="node">
<title>Node18</title>
<g id="a_Node000018"><a xlink:href="../../d2/d54/assert_8hpp.html" target="_top" xlink:title="Assertion macros UASSERT, UASSERT_MSG, UINVARIANT.">
<polygon fill="white" stroke="#666666" points="212.78,-74 81.78,-74 81.78,-55 212.78,-55 212.78,-74"/>
<text text-anchor="middle" x="147.28" y="-62" font-family="Helvetica,sans-Serif" font-size="10.00">userver/utils/assert.hpp</text>
</a>
</g>
</g>
<!-- Node8&#45;&gt;Node18 -->
<g id="edge20_Node000008_Node000018" class="edge">
<title>Node8&#45;&gt;Node18</title>
<g id="a_edge20_Node000008_Node000018"><a xlink:title=" ">
<path fill="none" stroke="#63b8ff" d="M426.5,-114.41C365.76,-103.77 268.15,-86.67 205.9,-75.77"/>
<polygon fill="#63b8ff" stroke="#63b8ff" points="206.3,-72.28 195.84,-74.01 205.09,-79.18 206.3,-72.28"/>
</a>
</g>
</g>
<!-- Node15&#45;&gt;Node3 -->
<g id="edge18_Node000015_Node000003" class="edge">
<title>Node15&#45;&gt;Node3</title>
<g id="a_edge18_Node000015_Node000003"><a xlink:title=" ">
<path fill="none" stroke="#63b8ff" d="M764.6,-54.98C782.94,-46.46 811.39,-33.23 832.51,-23.41"/>
<polygon fill="#63b8ff" stroke="#63b8ff" points="834.04,-26.56 841.63,-19.17 831.09,-20.21 834.04,-26.56"/>
</a>
</g>
</g>
<!-- Node16 -->
<g id="Node000016" class="node">
<title>Node16</title>
<g id="a_Node000016"><a xlink:title=" ">
<polygon fill="#e0e0e0" stroke="#999999" points="715.28,-19 665.28,-19 665.28,0 715.28,0 715.28,-19"/>
<text text-anchor="middle" x="690.28" y="-7" font-family="Helvetica,sans-Serif" font-size="10.00">chrono</text>
</a>
</g>
</g>
<!-- Node15&#45;&gt;Node16 -->
<g id="edge17_Node000015_Node000016" class="edge">
<title>Node15&#45;&gt;Node16</title>
<g id="a_edge17_Node000015_Node000016"><a xlink:title=" ">
<path fill="none" stroke="#63b8ff" d="M737.28,-54.98C729.09,-47.23 716.78,-35.58 706.81,-26.14"/>
<polygon fill="#63b8ff" stroke="#63b8ff" points="709.11,-23.5 699.44,-19.17 704.3,-28.59 709.11,-23.5"/>
</a>
</g>
</g>
<!-- Node17 -->
<g id="Node000017" class="node">
<title>Node17</title>
<g id="a_Node000017"><a xlink:title=" ">
<polygon fill="#e0e0e0" stroke="#999999" points="798.78,-19 733.78,-19 733.78,0 798.78,0 798.78,-19"/>
<text text-anchor="middle" x="766.28" y="-7" font-family="Helvetica,sans-Serif" font-size="10.00">typeindex</text>
</a>
</g>
</g>
<!-- Node15&#45;&gt;Node17 -->
<g id="edge19_Node000015_Node000017" class="edge">
<title>Node15&#45;&gt;Node17</title>
<g id="a_edge19_Node000015_Node000017"><a xlink:title=" ">
<path fill="none" stroke="#63b8ff" d="M749.58,-54.75C752.26,-47.65 756.13,-37.4 759.47,-28.56"/>
<polygon fill="#63b8ff" stroke="#63b8ff" points="762.78,-29.68 763.04,-19.09 756.24,-27.21 762.78,-29.68"/>
</a>
</g>
</g>
<!-- Node18&#45;&gt;Node4 -->
<g id="edge21_Node000018_Node000004" class="edge">
<title>Node18&#45;&gt;Node4</title>
<g id="a_edge21_Node000018_Node000004"><a xlink:title=" ">
<path fill="none" stroke="#63b8ff" d="M147.28,-54.75C147.28,-47.8 147.28,-37.85 147.28,-29.13"/>
<polygon fill="#63b8ff" stroke="#63b8ff" points="150.78,-29.09 147.28,-19.09 143.78,-29.09 150.78,-29.09"/>
</a>
</g>
</g>
</g>
</svg>
