<?xml version="1.0" encoding="UTF-8" standalone="no"?>
<!DOCTYPE svg PUBLIC "-//W3C//DTD SVG 1.1//EN"
 "http://www.w3.org/Graphics/SVG/1.1/DTD/svg11.dtd">
<!-- Generated by graphviz version 2.43.0 (0)
 -->
<!-- Title: server::middlewares::SimpleHttpMiddlewareFactory&lt; Middleware &gt; Pages: 1 -->
<svg width="358pt" height="249pt"
 viewBox="0.00 0.00 358.00 249.00" xmlns="http://www.w3.org/2000/svg" xmlns:xlink="http://www.w3.org/1999/xlink">
<g id="graph0" class="graph" transform="scale(1 1) rotate(0) translate(4 245)">
<title>server::middlewares::SimpleHttpMiddlewareFactory&lt; Middleware &gt;</title>
<!-- Node1 -->
<g id="Node000001" class="node">
<title>Node1</title>
<g id="a_Node000001"><a xlink:title=" ">
<polygon fill="#999999" stroke="#666666" points="275.5,-41 105.5,-41 105.5,0 275.5,0 275.5,-41"/>
<text text-anchor="start" x="113.5" y="-29" font-family="Helvetica,sans-Serif" font-size="10.00">server::middlewares</text>
<text text-anchor="start" x="113.5" y="-18" font-family="Helvetica,sans-Serif" font-size="10.00">::SimpleHttpMiddlewareFactory</text>
<text text-anchor="middle" x="190.5" y="-7" font-family="Helvetica,sans-Serif" font-size="10.00">&lt; Middleware &gt;</text>
</a>
</g>
</g>
<!-- Node2 -->
<g id="Node000002" class="node">
<title>Node2</title>
<g id="a_Node000002"><a xlink:href="../../dd/d90/classserver_1_1middlewares_1_1HttpMiddlewareFactoryBase.html" target="_top" xlink:title=" ">
<polygon fill="white" stroke="#bfbfbf" points="198.5,-118 38.5,-118 38.5,-88 198.5,-88 198.5,-118"/>
<text text-anchor="start" x="46.5" y="-106" font-family="Helvetica,sans-Serif" font-size="10.00">server::middlewares</text>
<text text-anchor="middle" x="118.5" y="-95" font-family="Helvetica,sans-Serif" font-size="10.00">::HttpMiddlewareFactoryBase</text>
</a>
</g>
</g>
<!-- Node2&#45;&gt;Node1 -->
<g id="edge1_Node000001_Node000002" class="edge">
<title>Node2&#45;&gt;Node1</title>
<g id="a_edge1_Node000001_Node000002"><a xlink:title=" ">
<path fill="none" stroke="#63b8ff" d="M137.8,-80.43C148.74,-68.19 162.34,-52.99 172.98,-41.09"/>
<polygon fill="#63b8ff" stroke="#63b8ff" points="135.1,-78.19 131.04,-87.98 140.32,-82.86 135.1,-78.19"/>
</a>
</g>
</g>
<!-- Node3 -->
<g id="Node000003" class="node">
<title>Node3</title>
<g id="a_Node000003"><a xlink:href="../../d5/d69/classcomponents_1_1LoggableComponentBase.html" target="_top" xlink:title="Base class for all application components, it depends on components::Logger and components::Tracer.">
<polygon fill="white" stroke="#666666" points="207,-179.5 0,-179.5 0,-160.5 207,-160.5 207,-179.5"/>
<text text-anchor="middle" x="103.5" y="-167.5" font-family="Helvetica,sans-Serif" font-size="10.00">components::LoggableComponentBase</text>
</a>
</g>
</g>
<!-- Node3&#45;&gt;Node2 -->
<g id="edge2_Node000002_Node000003" class="edge">
<title>Node3&#45;&gt;Node2</title>
<g id="a_edge2_Node000002_Node000003"><a xlink:title=" ">
<path fill="none" stroke="#63b8ff" d="M107.83,-150.24C110.2,-139.99 113.08,-127.5 115.25,-118.09"/>
<polygon fill="#63b8ff" stroke="#63b8ff" points="104.36,-149.7 105.52,-160.23 111.18,-151.28 104.36,-149.7"/>
</a>
</g>
</g>
<!-- Node4 -->
<g id="Node000004" class="node">
<title>Node4</title>
<g id="a_Node000004"><a xlink:title=" ">
<polygon fill="white" stroke="#666666" points="199,-241 8,-241 8,-222 199,-222 199,-241"/>
<text text-anchor="middle" x="103.5" y="-229" font-family="Helvetica,sans-Serif" font-size="10.00">components::impl::ComponentBase</text>
</a>
</g>
</g>
<!-- Node4&#45;&gt;Node3 -->
<g id="edge3_Node000003_Node000004" class="edge">
<title>Node4&#45;&gt;Node3</title>
<g id="a_edge3_Node000003_Node000004"><a xlink:title=" ">
<path fill="none" stroke="#63b8ff" d="M103.5,-211.82C103.5,-201 103.5,-187.9 103.5,-179.51"/>
<polygon fill="#63b8ff" stroke="#63b8ff" points="100,-211.98 103.5,-221.98 107,-211.98 100,-211.98"/>
</a>
</g>
</g>
<!-- Node5 -->
<g id="Node000005" class="node">
<title>Node5</title>
<g id="a_Node000005"><a xlink:title=" ">
<polygon fill="white" stroke="#666666" points="329.5,-112.5 235.5,-112.5 235.5,-93.5 329.5,-93.5 329.5,-112.5"/>
<text text-anchor="middle" x="282.5" y="-100.5" font-family="Helvetica,sans-Serif" font-size="10.00">std::string_view</text>
</a>
</g>
</g>
<!-- Node5&#45;&gt;Node1 -->
<g id="edge4_Node000001_Node000005" class="edge">
<title>Node5&#45;&gt;Node1</title>
<g id="a_edge4_Node000001_Node000005"><a xlink:title=" ">
<path fill="none" stroke="#9a32cd" stroke-dasharray="5,2" d="M264.76,-86.48C249.95,-73.52 228.76,-54.98 212.81,-41.02"/>
<polygon fill="#9a32cd" stroke="#9a32cd" points="262.82,-89.43 272.65,-93.39 267.43,-84.17 262.82,-89.43"/>
</a>
</g>
<text text-anchor="middle" x="265" y="-62" font-family="Helvetica,sans-Serif" font-size="10.00" fill="grey"> kName</text>
</g>
<!-- Node6 -->
<g id="Node000006" class="node">
<title>Node6</title>
<g id="a_Node000006"><a xlink:title=" ">
<polygon fill="white" stroke="#666666" points="350,-185 225,-185 225,-155 350,-155 350,-185"/>
<text text-anchor="start" x="233" y="-173" font-family="Helvetica,sans-Serif" font-size="10.00">std::basic_string_view</text>
<text text-anchor="middle" x="287.5" y="-162" font-family="Helvetica,sans-Serif" font-size="10.00">&lt; Char &gt;</text>
</a>
</g>
</g>
<!-- Node6&#45;&gt;Node5 -->
<g id="edge5_Node000005_Node000006" class="edge">
<title>Node6&#45;&gt;Node5</title>
<g id="a_edge5_Node000005_Node000006"><a xlink:title=" ">
<path fill="none" stroke="#63b8ff" d="M285.63,-144.75C284.77,-133.52 283.8,-120.88 283.17,-112.69"/>
<polygon fill="#63b8ff" stroke="#63b8ff" points="282.16,-145.19 286.42,-154.9 289.14,-144.66 282.16,-145.19"/>
</a>
</g>
</g>
</g>
</svg>
