<?xml version="1.0" encoding="UTF-8" standalone="no"?>
<!DOCTYPE svg PUBLIC "-//W3C//DTD SVG 1.1//EN"
 "http://www.w3.org/Graphics/SVG/1.1/DTD/svg11.dtd">
<!-- Generated by graphviz version 2.43.0 (0)
 -->
<!-- Title: userver/engine/io/socket.hpp Pages: 1 -->
<svg width="1942pt" height="280pt"
 viewBox="0.00 0.00 1941.50 280.00" xmlns="http://www.w3.org/2000/svg" xmlns:xlink="http://www.w3.org/1999/xlink">
<g id="graph0" class="graph" transform="scale(1 1) rotate(0) translate(4 276)">
<title>userver/engine/io/socket.hpp</title>
<!-- Node1 -->
<g id="Node000001" class="node">
<title>Node1</title>
<g id="a_Node000001"><a xlink:title="Socket representation.">
<polygon fill="#999999" stroke="#666666" points="1021.5,-272 864.5,-272 864.5,-253 1021.5,-253 1021.5,-272"/>
<text text-anchor="middle" x="943" y="-260" font-family="Helvetica,sans-Serif" font-size="10.00">userver/engine/io/socket.hpp</text>
</a>
</g>
</g>
<!-- Node2 -->
<g id="Node000002" class="node">
<title>Node2</title>
<g id="a_Node000002"><a xlink:title=" ">
<polygon fill="#e0e0e0" stroke="#999999" points="1225.5,-145.5 1148.5,-145.5 1148.5,-126.5 1225.5,-126.5 1225.5,-145.5"/>
<text text-anchor="middle" x="1187" y="-133.5" font-family="Helvetica,sans-Serif" font-size="10.00">sys/socket.h</text>
</a>
</g>
</g>
<!-- Node1&#45;&gt;Node2 -->
<g id="edge1_Node000001_Node000002" class="edge">
<title>Node1&#45;&gt;Node2</title>
<g id="a_edge1_Node000001_Node000002"><a xlink:title=" ">
<path fill="none" stroke="#63b8ff" d="M1021.78,-254.92C1078.02,-248.6 1147.24,-236.99 1168,-217 1184.35,-201.26 1187.72,-174.21 1187.93,-155.97"/>
<polygon fill="#63b8ff" stroke="#63b8ff" points="1191.42,-155.87 1187.73,-145.94 1184.43,-156 1191.42,-155.87"/>
</a>
</g>
</g>
<!-- Node3 -->
<g id="Node000003" class="node">
<title>Node3</title>
<g id="a_Node000003"><a xlink:title=" ">
<polygon fill="#e0e0e0" stroke="#999999" points="603.5,-211.5 520.5,-211.5 520.5,-192.5 603.5,-192.5 603.5,-211.5"/>
<text text-anchor="middle" x="562" y="-199.5" font-family="Helvetica,sans-Serif" font-size="10.00">initializer_list</text>
</a>
</g>
</g>
<!-- Node1&#45;&gt;Node3 -->
<g id="edge2_Node000001_Node000003" class="edge">
<title>Node1&#45;&gt;Node3</title>
<g id="a_edge2_Node000001_Node000003"><a xlink:title=" ">
<path fill="none" stroke="#63b8ff" d="M864.23,-254.03C796.84,-246.9 697.47,-234.62 612,-217 608.04,-216.18 603.93,-215.22 599.85,-214.2"/>
<polygon fill="#63b8ff" stroke="#63b8ff" points="600.43,-210.73 589.86,-211.54 598.63,-217.49 600.43,-210.73"/>
</a>
</g>
</g>
<!-- Node4 -->
<g id="Node000004" class="node">
<title>Node4</title>
<g id="a_Node000004"><a xlink:href="../../d2/d22/deadline_8hpp.html" target="_top" xlink:title="Internal representation of a deadline time point.">
<polygon fill="white" stroke="#666666" points="237.5,-145.5 82.5,-145.5 82.5,-126.5 237.5,-126.5 237.5,-145.5"/>
<text text-anchor="middle" x="160" y="-133.5" font-family="Helvetica,sans-Serif" font-size="10.00">userver/engine/deadline.hpp</text>
</a>
</g>
</g>
<!-- Node1&#45;&gt;Node4 -->
<g id="edge3_Node000001_Node000004" class="edge">
<title>Node1&#45;&gt;Node4</title>
<g id="a_edge3_Node000001_Node000004"><a xlink:title=" ">
<path fill="none" stroke="#63b8ff" d="M864.18,-256.27C777.29,-249.83 633.56,-237.2 511,-217 398.02,-198.38 266.99,-165.44 201.6,-148.21"/>
<polygon fill="#63b8ff" stroke="#63b8ff" points="202.25,-144.76 191.69,-145.59 200.46,-151.53 202.25,-144.76"/>
</a>
</g>
</g>
<!-- Node9 -->
<g id="Node000009" class="node">
<title>Node9</title>
<g id="a_Node000009"><a xlink:href="../../da/d29/core_2include_2userver_2engine_2io_2common_8hpp.html" target="_top" xlink:title="Common definitions and base classes for stream like objects.">
<polygon fill="white" stroke="#666666" points="1027,-211.5 859,-211.5 859,-192.5 1027,-192.5 1027,-211.5"/>
<text text-anchor="middle" x="943" y="-199.5" font-family="Helvetica,sans-Serif" font-size="10.00">userver/engine/io/common.hpp</text>
</a>
</g>
</g>
<!-- Node1&#45;&gt;Node9 -->
<g id="edge8_Node000001_Node000009" class="edge">
<title>Node1&#45;&gt;Node9</title>
<g id="a_edge8_Node000001_Node000009"><a xlink:title=" ">
<path fill="none" stroke="#63b8ff" d="M943,-252.87C943,-244.75 943,-232.31 943,-221.89"/>
<polygon fill="#63b8ff" stroke="#63b8ff" points="946.5,-221.67 943,-211.67 939.5,-221.67 946.5,-221.67"/>
</a>
</g>
</g>
<!-- Node12 -->
<g id="Node000012" class="node">
<title>Node12</title>
<g id="a_Node000012"><a xlink:href="../../d1/d76/core_2include_2userver_2engine_2io_2exception_8hpp.html" target="_top" xlink:title="I/O exceptions.">
<polygon fill="white" stroke="#666666" points="794.5,-211.5 621.5,-211.5 621.5,-192.5 794.5,-192.5 794.5,-211.5"/>
<text text-anchor="middle" x="708" y="-199.5" font-family="Helvetica,sans-Serif" font-size="10.00">userver/engine/io/exception.hpp</text>
</a>
</g>
</g>
<!-- Node1&#45;&gt;Node12 -->
<g id="edge12_Node000001_Node000012" class="edge">
<title>Node1&#45;&gt;Node12</title>
<g id="a_edge12_Node000001_Node000012"><a xlink:title=" ">
<path fill="none" stroke="#63b8ff" d="M908.83,-252.99C867.41,-242.68 797.52,-225.28 752.08,-213.97"/>
<polygon fill="#63b8ff" stroke="#63b8ff" points="752.76,-210.54 742.21,-211.52 751.07,-217.33 752.76,-210.54"/>
</a>
</g>
</g>
<!-- Node24 -->
<g id="Node000024" class="node">
<title>Node24</title>
<g id="a_Node000024"><a xlink:href="../../db/d29/fd__control__holder_8hpp_source.html" target="_top" xlink:title=" ">
<polygon fill="white" stroke="#666666" points="1159,-217 1045,-217 1045,-187 1159,-187 1159,-217"/>
<text text-anchor="start" x="1053" y="-205" font-family="Helvetica,sans-Serif" font-size="10.00">userver/engine/io/fd</text>
<text text-anchor="middle" x="1102" y="-194" font-family="Helvetica,sans-Serif" font-size="10.00">_control_holder.hpp</text>
</a>
</g>
</g>
<!-- Node1&#45;&gt;Node24 -->
<g id="edge29_Node000001_Node000024" class="edge">
<title>Node1&#45;&gt;Node24</title>
<g id="a_edge29_Node000001_Node000024"><a xlink:title=" ">
<path fill="none" stroke="#63b8ff" d="M966.12,-252.99C989.1,-244.54 1025.04,-231.32 1054.18,-220.59"/>
<polygon fill="#63b8ff" stroke="#63b8ff" points="1055.6,-223.8 1063.77,-217.06 1053.18,-217.23 1055.6,-223.8"/>
</a>
</g>
</g>
<!-- Node25 -->
<g id="Node000025" class="node">
<title>Node25</title>
<g id="a_Node000025"><a xlink:href="../../d7/d1b/sockaddr_8hpp.html" target="_top" xlink:title="Native socket address wrapper.">
<polygon fill="white" stroke="#666666" points="1485,-211.5 1317,-211.5 1317,-192.5 1485,-192.5 1485,-211.5"/>
<text text-anchor="middle" x="1401" y="-199.5" font-family="Helvetica,sans-Serif" font-size="10.00">userver/engine/io/sockaddr.hpp</text>
</a>
</g>
</g>
<!-- Node1&#45;&gt;Node25 -->
<g id="edge31_Node000001_Node000025" class="edge">
<title>Node1&#45;&gt;Node25</title>
<g id="a_edge31_Node000001_Node000025"><a xlink:title=" ">
<path fill="none" stroke="#63b8ff" d="M1009.6,-252.99C1093.21,-242.31 1236.33,-224.03 1324.39,-212.79"/>
<polygon fill="#63b8ff" stroke="#63b8ff" points="1324.85,-216.26 1334.32,-211.52 1323.96,-209.31 1324.85,-216.26"/>
</a>
</g>
</g>
<!-- Node5 -->
<g id="Node000005" class="node">
<title>Node5</title>
<g id="a_Node000005"><a xlink:title=" ">
<polygon fill="#e0e0e0" stroke="#999999" points="50,-79.5 0,-79.5 0,-60.5 50,-60.5 50,-79.5"/>
<text text-anchor="middle" x="25" y="-67.5" font-family="Helvetica,sans-Serif" font-size="10.00">chrono</text>
</a>
</g>
</g>
<!-- Node4&#45;&gt;Node5 -->
<g id="edge4_Node000004_Node000005" class="edge">
<title>Node4&#45;&gt;Node5</title>
<g id="a_edge4_Node000004_Node000005"><a xlink:title=" ">
<path fill="none" stroke="#63b8ff" d="M141.79,-126.37C118.85,-115.49 79.19,-96.69 52.53,-84.05"/>
<polygon fill="#63b8ff" stroke="#63b8ff" points="53.88,-80.82 43.35,-79.7 50.89,-87.15 53.88,-80.82"/>
</a>
</g>
</g>
<!-- Node6 -->
<g id="Node000006" class="node">
<title>Node6</title>
<g id="a_Node000006"><a xlink:title=" ">
<polygon fill="#e0e0e0" stroke="#999999" points="338.5,-19 269.5,-19 269.5,0 338.5,0 338.5,-19"/>
<text text-anchor="middle" x="304" y="-7" font-family="Helvetica,sans-Serif" font-size="10.00">type_traits</text>
</a>
</g>
</g>
<!-- Node4&#45;&gt;Node6 -->
<g id="edge5_Node000004_Node000006" class="edge">
<title>Node4&#45;&gt;Node6</title>
<g id="a_edge5_Node000004_Node000006"><a xlink:title=" ">
<path fill="none" stroke="#63b8ff" d="M169.9,-126.44C193.94,-105.65 255.7,-52.26 286.29,-25.81"/>
<polygon fill="#63b8ff" stroke="#63b8ff" points="288.76,-28.31 294.03,-19.12 284.18,-23.01 288.76,-28.31"/>
</a>
</g>
</g>
<!-- Node7 -->
<g id="Node000007" class="node">
<title>Node7</title>
<g id="a_Node000007"><a xlink:href="../../d2/d54/assert_8hpp.html" target="_top" xlink:title="Assertion macros UASSERT, UASSERT_MSG, UINVARIANT.">
<polygon fill="white" stroke="#666666" points="199.5,-79.5 68.5,-79.5 68.5,-60.5 199.5,-60.5 199.5,-79.5"/>
<text text-anchor="middle" x="134" y="-67.5" font-family="Helvetica,sans-Serif" font-size="10.00">userver/utils/assert.hpp</text>
</a>
</g>
</g>
<!-- Node4&#45;&gt;Node7 -->
<g id="edge6_Node000004_Node000007" class="edge">
<title>Node4&#45;&gt;Node7</title>
<g id="a_edge6_Node000004_Node000007"><a xlink:title=" ">
<path fill="none" stroke="#63b8ff" d="M156.49,-126.37C152.68,-116.97 146.46,-101.67 141.53,-89.53"/>
<polygon fill="#63b8ff" stroke="#63b8ff" points="144.62,-87.85 137.62,-79.91 138.14,-90.49 144.62,-87.85"/>
</a>
</g>
</g>
<!-- Node8 -->
<g id="Node000008" class="node">
<title>Node8</title>
<g id="a_Node000008"><a xlink:title=" ">
<polygon fill="#e0e0e0" stroke="#999999" points="211.5,-19 138.5,-19 138.5,0 211.5,0 211.5,-19"/>
<text text-anchor="middle" x="175" y="-7" font-family="Helvetica,sans-Serif" font-size="10.00">string_view</text>
</a>
</g>
</g>
<!-- Node7&#45;&gt;Node8 -->
<g id="edge7_Node000007_Node000008" class="edge">
<title>Node7&#45;&gt;Node8</title>
<g id="a_edge7_Node000007_Node000008"><a xlink:title=" ">
<path fill="none" stroke="#63b8ff" d="M140.05,-60.37C146.11,-51.73 155.59,-38.2 163.14,-27.42"/>
<polygon fill="#63b8ff" stroke="#63b8ff" points="166.05,-29.37 168.93,-19.17 160.32,-25.35 166.05,-29.37"/>
</a>
</g>
</g>
<!-- Node9&#45;&gt;Node4 -->
<g id="edge11_Node000009_Node000004" class="edge">
<title>Node9&#45;&gt;Node4</title>
<g id="a_edge11_Node000009_Node000004"><a xlink:title=" ">
<path fill="none" stroke="#63b8ff" d="M860.86,-192.48C841.87,-190.59 821.73,-188.66 803,-187 604.75,-169.38 371.81,-152.12 247.93,-143.22"/>
<polygon fill="#63b8ff" stroke="#63b8ff" points="247.97,-139.71 237.74,-142.49 247.47,-146.7 247.97,-139.71"/>
</a>
</g>
</g>
<!-- Node10 -->
<g id="Node000010" class="node">
<title>Node10</title>
<g id="a_Node000010"><a xlink:title=" ">
<polygon fill="#e0e0e0" stroke="#999999" points="806.5,-19 753.5,-19 753.5,0 806.5,0 806.5,-19"/>
<text text-anchor="middle" x="780" y="-7" font-family="Helvetica,sans-Serif" font-size="10.00">cstddef</text>
</a>
</g>
</g>
<!-- Node9&#45;&gt;Node10 -->
<g id="edge9_Node000009_Node000010" class="edge">
<title>Node9&#45;&gt;Node10</title>
<g id="a_edge9_Node000009_Node000010"><a xlink:title=" ">
<path fill="none" stroke="#63b8ff" d="M945.02,-192.19C950.17,-167.37 961.05,-96 927,-55 900.22,-22.75 850.88,-13.32 816.8,-10.86"/>
<polygon fill="#63b8ff" stroke="#63b8ff" points="816.93,-7.36 806.75,-10.3 816.54,-14.35 816.93,-7.36"/>
</a>
</g>
</g>
<!-- Node11 -->
<g id="Node000011" class="node">
<title>Node11</title>
<g id="a_Node000011"><a xlink:title=" ">
<polygon fill="#e0e0e0" stroke="#999999" points="1149,-19 1091,-19 1091,0 1149,0 1149,-19"/>
<text text-anchor="middle" x="1120" y="-7" font-family="Helvetica,sans-Serif" font-size="10.00">memory</text>
</a>
</g>
</g>
<!-- Node9&#45;&gt;Node11 -->
<g id="edge10_Node000009_Node000011" class="edge">
<title>Node9&#45;&gt;Node11</title>
<g id="a_edge10_Node000009_Node000011"><a xlink:title=" ">
<path fill="none" stroke="#63b8ff" d="M952.69,-192.39C973.55,-173.68 1023.91,-127.57 1062,-85 1078.83,-66.18 1096.41,-43.04 1107.74,-27.59"/>
<polygon fill="#63b8ff" stroke="#63b8ff" points="1110.88,-29.22 1113.92,-19.07 1105.21,-25.1 1110.88,-29.22"/>
</a>
</g>
</g>
<!-- Node12&#45;&gt;Node8 -->
<g id="edge14_Node000012_Node000008" class="edge">
<title>Node12&#45;&gt;Node8</title>
<g id="a_edge14_Node000012_Node000008"><a xlink:title=" ">
<path fill="none" stroke="#63b8ff" d="M661.44,-192.46C584.4,-177.3 426.62,-141.8 303,-85 264.05,-67.1 221.55,-40.92 196.64,-24.84"/>
<polygon fill="#63b8ff" stroke="#63b8ff" points="198.29,-21.73 188,-19.2 194.46,-27.6 198.29,-21.73"/>
</a>
</g>
</g>
<!-- Node13 -->
<g id="Node000013" class="node">
<title>Node13</title>
<g id="a_Node000013"><a xlink:title=" ">
<polygon fill="#e0e0e0" stroke="#999999" points="567.5,-145.5 502.5,-145.5 502.5,-126.5 567.5,-126.5 567.5,-145.5"/>
<text text-anchor="middle" x="535" y="-133.5" font-family="Helvetica,sans-Serif" font-size="10.00">stdexcept</text>
</a>
</g>
</g>
<!-- Node12&#45;&gt;Node13 -->
<g id="edge13_Node000012_Node000013" class="edge">
<title>Node12&#45;&gt;Node13</title>
<g id="a_edge13_Node000012_Node000013"><a xlink:title=" ">
<path fill="none" stroke="#63b8ff" d="M684.67,-192.37C654.53,-181.22 601.91,-161.75 567.77,-149.12"/>
<polygon fill="#63b8ff" stroke="#63b8ff" points="568.83,-145.78 558.24,-145.6 566.4,-152.35 568.83,-145.78"/>
</a>
</g>
</g>
<!-- Node14 -->
<g id="Node000014" class="node">
<title>Node14</title>
<g id="a_Node000014"><a xlink:title=" ">
<polygon fill="#e0e0e0" stroke="#999999" points="666.5,-145.5 585.5,-145.5 585.5,-126.5 666.5,-126.5 666.5,-145.5"/>
<text text-anchor="middle" x="626" y="-133.5" font-family="Helvetica,sans-Serif" font-size="10.00">system_error</text>
</a>
</g>
</g>
<!-- Node12&#45;&gt;Node14 -->
<g id="edge15_Node000012_Node000014" class="edge">
<title>Node12&#45;&gt;Node14</title>
<g id="a_edge15_Node000012_Node000014"><a xlink:title=" ">
<path fill="none" stroke="#63b8ff" d="M696.94,-192.37C683.74,-182.06 661.42,-164.65 645.34,-152.09"/>
<polygon fill="#63b8ff" stroke="#63b8ff" points="647.18,-149.09 637.15,-145.7 642.88,-154.61 647.18,-149.09"/>
</a>
</g>
</g>
<!-- Node15 -->
<g id="Node000015" class="node">
<title>Node15</title>
<g id="a_Node000015"><a xlink:href="../../da/de0/traceful__exception_8hpp.html" target="_top" xlink:title="Exception that remembers the backtrace at the point of its construction.">
<polygon fill="white" stroke="#666666" points="803,-151 685,-151 685,-121 803,-121 803,-151"/>
<text text-anchor="start" x="693" y="-139" font-family="Helvetica,sans-Serif" font-size="10.00">userver/utils/traceful</text>
<text text-anchor="middle" x="744" y="-128" font-family="Helvetica,sans-Serif" font-size="10.00">_exception.hpp</text>
</a>
</g>
</g>
<!-- Node12&#45;&gt;Node15 -->
<g id="edge16_Node000012_Node000015" class="edge">
<title>Node12&#45;&gt;Node15</title>
<g id="a_edge16_Node000012_Node000015"><a xlink:title=" ">
<path fill="none" stroke="#63b8ff" d="M712.86,-192.37C717.47,-184.16 724.63,-171.44 730.92,-160.26"/>
<polygon fill="#63b8ff" stroke="#63b8ff" points="734.07,-161.79 735.92,-151.36 727.97,-158.36 734.07,-161.79"/>
</a>
</g>
</g>
<!-- Node15&#45;&gt;Node6 -->
<g id="edge19_Node000015_Node000006" class="edge">
<title>Node15&#45;&gt;Node6</title>
<g id="a_edge19_Node000015_Node000006"><a xlink:title=" ">
<path fill="none" stroke="#63b8ff" d="M684.97,-122.63C681.6,-122.04 678.26,-121.5 675,-121 597.27,-109.17 382.55,-136.34 323,-85 307.08,-71.27 303.56,-46.24 303.2,-29"/>
<polygon fill="#63b8ff" stroke="#63b8ff" points="306.7,-29.05 303.33,-19 299.7,-28.96 306.7,-29.05"/>
</a>
</g>
</g>
<!-- Node16 -->
<g id="Node000016" class="node">
<title>Node16</title>
<g id="a_Node000016"><a xlink:title=" ">
<polygon fill="#e0e0e0" stroke="#999999" points="397.5,-79.5 332.5,-79.5 332.5,-60.5 397.5,-60.5 397.5,-79.5"/>
<text text-anchor="middle" x="365" y="-67.5" font-family="Helvetica,sans-Serif" font-size="10.00">exception</text>
</a>
</g>
</g>
<!-- Node15&#45;&gt;Node16 -->
<g id="edge17_Node000015_Node000016" class="edge">
<title>Node15&#45;&gt;Node16</title>
<g id="a_edge17_Node000015_Node000016"><a xlink:title=" ">
<path fill="none" stroke="#63b8ff" d="M684.95,-122.75C681.59,-122.14 678.25,-121.55 675,-121 556.49,-101.04 524.08,-112.12 407,-85 404.03,-84.31 400.96,-83.5 397.91,-82.62"/>
<polygon fill="#63b8ff" stroke="#63b8ff" points="398.91,-79.26 388.32,-79.64 396.83,-85.95 398.91,-79.26"/>
</a>
</g>
</g>
<!-- Node17 -->
<g id="Node000017" class="node">
<title>Node17</title>
<g id="a_Node000017"><a xlink:title=" ">
<polygon fill="#e0e0e0" stroke="#999999" points="918,-79.5 874,-79.5 874,-60.5 918,-60.5 918,-79.5"/>
<text text-anchor="middle" x="896" y="-67.5" font-family="Helvetica,sans-Serif" font-size="10.00">string</text>
</a>
</g>
</g>
<!-- Node15&#45;&gt;Node17 -->
<g id="edge18_Node000015_Node000017" class="edge">
<title>Node15&#45;&gt;Node17</title>
<g id="a_edge18_Node000015_Node000017"><a xlink:title=" ">
<path fill="none" stroke="#63b8ff" d="M778.81,-120.96C803.06,-111.1 836.1,-97.49 865,-85 866,-84.57 867.02,-84.12 868.05,-83.67"/>
<polygon fill="#63b8ff" stroke="#63b8ff" points="869.64,-86.8 877.36,-79.54 866.8,-80.4 869.64,-86.8"/>
</a>
</g>
</g>
<!-- Node18 -->
<g id="Node000018" class="node">
<title>Node18</title>
<g id="a_Node000018"><a xlink:title=" ">
<polygon fill="#e0e0e0" stroke="#999999" points="1053.5,-79.5 974.5,-79.5 974.5,-60.5 1053.5,-60.5 1053.5,-79.5"/>
<text text-anchor="middle" x="1014" y="-67.5" font-family="Helvetica,sans-Serif" font-size="10.00">fmt/format.h</text>
</a>
</g>
</g>
<!-- Node15&#45;&gt;Node18 -->
<g id="edge20_Node000015_Node000018" class="edge">
<title>Node15&#45;&gt;Node18</title>
<g id="a_edge20_Node000015_Node000018"><a xlink:title=" ">
<path fill="none" stroke="#63b8ff" d="M803.25,-120.95C852.9,-109.19 922.75,-92.63 968.19,-81.86"/>
<polygon fill="#63b8ff" stroke="#63b8ff" points="969.14,-85.23 978.07,-79.52 967.53,-78.42 969.14,-85.23"/>
</a>
</g>
</g>
<!-- Node19 -->
<g id="Node000019" class="node">
<title>Node19</title>
<g id="a_Node000019"><a xlink:title=" ">
<polygon fill="#e0e0e0" stroke="#999999" points="568,-85 416,-85 416,-55 568,-55 568,-85"/>
<text text-anchor="start" x="424" y="-73" font-family="Helvetica,sans-Serif" font-size="10.00">boost/stacktrace/stacktrace</text>
<text text-anchor="middle" x="492" y="-62" font-family="Helvetica,sans-Serif" font-size="10.00">_fwd.hpp</text>
</a>
</g>
</g>
<!-- Node15&#45;&gt;Node19 -->
<g id="edge21_Node000015_Node000019" class="edge">
<title>Node15&#45;&gt;Node19</title>
<g id="a_edge21_Node000015_Node000019"><a xlink:title=" ">
<path fill="none" stroke="#63b8ff" d="M688.7,-120.95C649.88,-111.1 597.83,-97.88 557.02,-87.51"/>
<polygon fill="#63b8ff" stroke="#63b8ff" points="557.73,-84.08 547.17,-85.01 556,-90.87 557.73,-84.08"/>
</a>
</g>
</g>
<!-- Node20 -->
<g id="Node000020" class="node">
<title>Node20</title>
<g id="a_Node000020"><a xlink:href="../../d2/d84/select_8hpp.html" target="_top" xlink:title="Utilities for selection of platform specific values.">
<polygon fill="white" stroke="#666666" points="856,-79.5 704,-79.5 704,-60.5 856,-60.5 856,-79.5"/>
<text text-anchor="middle" x="780" y="-67.5" font-family="Helvetica,sans-Serif" font-size="10.00">userver/compiler/select.hpp</text>
</a>
</g>
</g>
<!-- Node15&#45;&gt;Node20 -->
<g id="edge22_Node000015_Node000020" class="edge">
<title>Node15&#45;&gt;Node20</title>
<g id="a_edge22_Node000015_Node000020"><a xlink:title=" ">
<path fill="none" stroke="#63b8ff" d="M751.99,-120.8C757.33,-111.31 764.39,-98.76 770.08,-88.63"/>
<polygon fill="#63b8ff" stroke="#63b8ff" points="773.17,-90.28 775.03,-79.84 767.07,-86.84 773.17,-90.28"/>
</a>
</g>
</g>
<!-- Node21 -->
<g id="Node000021" class="node">
<title>Node21</title>
<g id="a_Node000021"><a xlink:href="../../d5/d02/fast__pimpl_8hpp.html" target="_top" xlink:title="Implements pimpl idiom without dynamic memory allocation.">
<polygon fill="white" stroke="#666666" points="685.5,-85 586.5,-85 586.5,-55 685.5,-55 685.5,-85"/>
<text text-anchor="start" x="594.5" y="-73" font-family="Helvetica,sans-Serif" font-size="10.00">userver/utils/fast</text>
<text text-anchor="middle" x="636" y="-62" font-family="Helvetica,sans-Serif" font-size="10.00">_pimpl.hpp</text>
</a>
</g>
</g>
<!-- Node15&#45;&gt;Node21 -->
<g id="edge24_Node000015_Node000021" class="edge">
<title>Node15&#45;&gt;Node21</title>
<g id="a_edge24_Node000015_Node000021"><a xlink:title=" ">
<path fill="none" stroke="#63b8ff" d="M720.3,-120.95C705.11,-111.95 685.18,-100.14 668.52,-90.27"/>
<polygon fill="#63b8ff" stroke="#63b8ff" points="670.03,-87.1 659.65,-85.01 666.46,-93.12 670.03,-87.1"/>
</a>
</g>
</g>
<!-- Node20&#45;&gt;Node10 -->
<g id="edge23_Node000020_Node000010" class="edge">
<title>Node20&#45;&gt;Node10</title>
<g id="a_edge23_Node000020_Node000010"><a xlink:title=" ">
<path fill="none" stroke="#63b8ff" d="M780,-60.37C780,-52.25 780,-39.81 780,-29.39"/>
<polygon fill="#63b8ff" stroke="#63b8ff" points="783.5,-29.17 780,-19.17 776.5,-29.17 783.5,-29.17"/>
</a>
</g>
</g>
<!-- Node21&#45;&gt;Node6 -->
<g id="edge27_Node000021_Node000006" class="edge">
<title>Node21&#45;&gt;Node6</title>
<g id="a_edge27_Node000021_Node000006"><a xlink:title=" ">
<path fill="none" stroke="#63b8ff" d="M586.48,-56.98C583.28,-56.29 580.1,-55.62 577,-55 496.93,-39 402.78,-24.62 348.59,-16.77"/>
<polygon fill="#63b8ff" stroke="#63b8ff" points="349.02,-13.29 338.62,-15.33 348.02,-20.22 349.02,-13.29"/>
</a>
</g>
</g>
<!-- Node21&#45;&gt;Node10 -->
<g id="edge25_Node000021_Node000010" class="edge">
<title>Node21&#45;&gt;Node10</title>
<g id="a_edge25_Node000021_Node000010"><a xlink:title=" ">
<path fill="none" stroke="#63b8ff" d="M670.49,-54.99C694.52,-45.23 726.27,-32.33 749.4,-22.93"/>
<polygon fill="#63b8ff" stroke="#63b8ff" points="750.79,-26.15 758.73,-19.14 748.15,-19.66 750.79,-26.15"/>
</a>
</g>
</g>
<!-- Node22 -->
<g id="Node000022" class="node">
<title>Node22</title>
<g id="a_Node000022"><a xlink:title=" ">
<polygon fill="#e0e0e0" stroke="#999999" points="624.5,-19 587.5,-19 587.5,0 624.5,0 624.5,-19"/>
<text text-anchor="middle" x="606" y="-7" font-family="Helvetica,sans-Serif" font-size="10.00">new</text>
</a>
</g>
</g>
<!-- Node21&#45;&gt;Node22 -->
<g id="edge26_Node000021_Node000022" class="edge">
<title>Node21&#45;&gt;Node22</title>
<g id="a_edge26_Node000021_Node000022"><a xlink:title=" ">
<path fill="none" stroke="#63b8ff" d="M628.74,-54.84C624.65,-46.87 619.51,-36.84 615.14,-28.33"/>
<polygon fill="#63b8ff" stroke="#63b8ff" points="618.17,-26.57 610.5,-19.27 611.94,-29.76 618.17,-26.57"/>
</a>
</g>
</g>
<!-- Node23 -->
<g id="Node000023" class="node">
<title>Node23</title>
<g id="a_Node000023"><a xlink:title=" ">
<polygon fill="#e0e0e0" stroke="#999999" points="687.5,-19 642.5,-19 642.5,0 687.5,0 687.5,-19"/>
<text text-anchor="middle" x="665" y="-7" font-family="Helvetica,sans-Serif" font-size="10.00">utility</text>
</a>
</g>
</g>
<!-- Node21&#45;&gt;Node23 -->
<g id="edge28_Node000021_Node000023" class="edge">
<title>Node21&#45;&gt;Node23</title>
<g id="a_edge28_Node000021_Node000023"><a xlink:title=" ">
<path fill="none" stroke="#63b8ff" d="M643.02,-54.84C646.97,-46.87 651.94,-36.84 656.16,-28.33"/>
<polygon fill="#63b8ff" stroke="#63b8ff" points="659.35,-29.78 660.65,-19.27 653.08,-26.67 659.35,-29.78"/>
</a>
</g>
</g>
<!-- Node24&#45;&gt;Node11 -->
<g id="edge30_Node000024_Node000011" class="edge">
<title>Node24&#45;&gt;Node11</title>
<g id="a_edge30_Node000024_Node000011"><a xlink:title=" ">
<path fill="none" stroke="#63b8ff" d="M1103.32,-186.99C1106.5,-153.35 1114.57,-67.97 1118.19,-29.64"/>
<polygon fill="#63b8ff" stroke="#63b8ff" points="1121.71,-29.65 1119.16,-19.36 1114.74,-28.99 1121.71,-29.65"/>
</a>
</g>
</g>
<!-- Node25&#45;&gt;Node2 -->
<g id="edge33_Node000025_Node000002" class="edge">
<title>Node25&#45;&gt;Node2</title>
<g id="a_edge33_Node000025_Node000002"><a xlink:title=" ">
<path fill="none" stroke="#63b8ff" d="M1372.14,-192.37C1334.22,-181.03 1267.52,-161.08 1225.38,-148.48"/>
<polygon fill="#63b8ff" stroke="#63b8ff" points="1226.33,-145.11 1215.74,-145.6 1224.32,-151.82 1226.33,-145.11"/>
</a>
</g>
</g>
<!-- Node25&#45;&gt;Node17 -->
<g id="edge37_Node000025_Node000017" class="edge">
<title>Node25&#45;&gt;Node17</title>
<g id="a_edge37_Node000025_Node000017"><a xlink:title=" ">
<path fill="none" stroke="#63b8ff" d="M1368.62,-192.43C1340.73,-184.23 1300.03,-170.26 1268,-151 1250.73,-140.62 1252.33,-129.36 1234,-121 1124.26,-70.93 1083.95,-105 965,-85 953,-82.98 939.9,-80.42 928.37,-78.04"/>
<polygon fill="#63b8ff" stroke="#63b8ff" points="928.81,-74.55 918.3,-75.92 927.37,-81.4 928.81,-74.55"/>
</a>
</g>
</g>
<!-- Node25&#45;&gt;Node18 -->
<g id="edge38_Node000025_Node000018" class="edge">
<title>Node25&#45;&gt;Node18</title>
<g id="a_edge38_Node000025_Node000018"><a xlink:title=" ">
<path fill="none" stroke="#63b8ff" d="M1384.45,-192.46C1366.17,-182.88 1336.02,-166.62 1311,-151 1291.23,-138.66 1289.45,-130.11 1268,-121 1200.72,-92.41 1116.39,-79.97 1063.85,-74.69"/>
<polygon fill="#63b8ff" stroke="#63b8ff" points="1064.06,-71.2 1053.78,-73.73 1063.4,-78.17 1064.06,-71.2"/>
</a>
</g>
</g>
<!-- Node26 -->
<g id="Node000026" class="node">
<title>Node26</title>
<g id="a_Node000026"><a xlink:title=" ">
<polygon fill="#e0e0e0" stroke="#999999" points="1392,-145.5 1320,-145.5 1320,-126.5 1392,-126.5 1392,-145.5"/>
<text text-anchor="middle" x="1356" y="-133.5" font-family="Helvetica,sans-Serif" font-size="10.00">netinet/in.h</text>
</a>
</g>
</g>
<!-- Node25&#45;&gt;Node26 -->
<g id="edge32_Node000025_Node000026" class="edge">
<title>Node25&#45;&gt;Node26</title>
<g id="a_edge32_Node000025_Node000026"><a xlink:title=" ">
<path fill="none" stroke="#63b8ff" d="M1394.93,-192.37C1388.13,-182.69 1376.91,-166.74 1368.26,-154.44"/>
<polygon fill="#63b8ff" stroke="#63b8ff" points="1370.88,-152.07 1362.26,-145.91 1365.15,-156.1 1370.88,-152.07"/>
</a>
</g>
</g>
<!-- Node27 -->
<g id="Node000027" class="node">
<title>Node27</title>
<g id="a_Node000027"><a xlink:title=" ">
<polygon fill="#e0e0e0" stroke="#999999" points="1482,-145.5 1410,-145.5 1410,-126.5 1482,-126.5 1482,-145.5"/>
<text text-anchor="middle" x="1446" y="-133.5" font-family="Helvetica,sans-Serif" font-size="10.00">sys/types.h</text>
</a>
</g>
</g>
<!-- Node25&#45;&gt;Node27 -->
<g id="edge34_Node000025_Node000027" class="edge">
<title>Node25&#45;&gt;Node27</title>
<g id="a_edge34_Node000025_Node000027"><a xlink:title=" ">
<path fill="none" stroke="#63b8ff" d="M1407.07,-192.37C1413.87,-182.69 1425.09,-166.74 1433.74,-154.44"/>
<polygon fill="#63b8ff" stroke="#63b8ff" points="1436.85,-156.1 1439.74,-145.91 1431.12,-152.07 1436.85,-156.1"/>
</a>
</g>
</g>
<!-- Node28 -->
<g id="Node000028" class="node">
<title>Node28</title>
<g id="a_Node000028"><a xlink:title=" ">
<polygon fill="#e0e0e0" stroke="#999999" points="1557.5,-145.5 1500.5,-145.5 1500.5,-126.5 1557.5,-126.5 1557.5,-145.5"/>
<text text-anchor="middle" x="1529" y="-133.5" font-family="Helvetica,sans-Serif" font-size="10.00">sys/un.h</text>
</a>
</g>
</g>
<!-- Node25&#45;&gt;Node28 -->
<g id="edge35_Node000025_Node000028" class="edge">
<title>Node25&#45;&gt;Node28</title>
<g id="a_edge35_Node000025_Node000028"><a xlink:title=" ">
<path fill="none" stroke="#63b8ff" d="M1418.26,-192.37C1439.92,-181.54 1477.29,-162.85 1502.57,-150.22"/>
<polygon fill="#63b8ff" stroke="#63b8ff" points="1504.22,-153.3 1511.6,-145.7 1501.09,-147.04 1504.22,-153.3"/>
</a>
</g>
</g>
<!-- Node29 -->
<g id="Node000029" class="node">
<title>Node29</title>
<g id="a_Node000029"><a xlink:title=" ">
<polygon fill="#e0e0e0" stroke="#999999" points="1626,-145.5 1576,-145.5 1576,-126.5 1626,-126.5 1626,-145.5"/>
<text text-anchor="middle" x="1601" y="-133.5" font-family="Helvetica,sans-Serif" font-size="10.00">cstring</text>
</a>
</g>
</g>
<!-- Node25&#45;&gt;Node29 -->
<g id="edge36_Node000025_Node000029" class="edge">
<title>Node25&#45;&gt;Node29</title>
<g id="a_edge36_Node000025_Node000029"><a xlink:title=" ">
<path fill="none" stroke="#63b8ff" d="M1432.81,-192.42C1466.45,-183.11 1520.92,-167.38 1567,-151 1568.43,-150.49 1569.88,-149.96 1571.35,-149.41"/>
<polygon fill="#63b8ff" stroke="#63b8ff" points="1572.96,-152.53 1580.99,-145.62 1570.4,-146.02 1572.96,-152.53"/>
</a>
</g>
</g>
<!-- Node30 -->
<g id="Node000030" class="node">
<title>Node30</title>
<g id="a_Node000030"><a xlink:href="../../d3/d6c/fmt__compat_8hpp_source.html" target="_top" xlink:title=" ">
<polygon fill="white" stroke="#666666" points="1933.5,-145.5 1772.5,-145.5 1772.5,-126.5 1933.5,-126.5 1933.5,-145.5"/>
<text text-anchor="middle" x="1853" y="-133.5" font-family="Helvetica,sans-Serif" font-size="10.00">userver/utils/fmt_compat.hpp</text>
</a>
</g>
</g>
<!-- Node25&#45;&gt;Node30 -->
<g id="edge39_Node000025_Node000030" class="edge">
<title>Node25&#45;&gt;Node30</title>
<g id="a_edge39_Node000025_Node000030"><a xlink:title=" ">
<path fill="none" stroke="#63b8ff" d="M1465.13,-192.48C1537.52,-182.78 1658.8,-166.3 1763,-151 1771.53,-149.75 1780.5,-148.4 1789.34,-147.04"/>
<polygon fill="#63b8ff" stroke="#63b8ff" points="1789.89,-150.5 1799.25,-145.52 1788.83,-143.58 1789.89,-150.5"/>
</a>
</g>
</g>
<!-- Node32 -->
<g id="Node000032" class="node">
<title>Node32</title>
<g id="a_Node000032"><a xlink:href="../../d0/d14/log__helper__fwd_8hpp.html" target="_top" xlink:title=" ">
<polygon fill="white" stroke="#666666" points="1754,-151 1644,-151 1644,-121 1754,-121 1754,-151"/>
<text text-anchor="start" x="1652" y="-139" font-family="Helvetica,sans-Serif" font-size="10.00">userver/logging/log</text>
<text text-anchor="middle" x="1699" y="-128" font-family="Helvetica,sans-Serif" font-size="10.00">_helper_fwd.hpp</text>
</a>
</g>
</g>
<!-- Node25&#45;&gt;Node32 -->
<g id="edge41_Node000025_Node000032" class="edge">
<title>Node25&#45;&gt;Node32</title>
<g id="a_edge41_Node000025_Node000032"><a xlink:title=" ">
<path fill="none" stroke="#63b8ff" d="M1441.18,-192.48C1485.8,-183 1560.24,-167.14 1633.93,-151.23"/>
<polygon fill="#63b8ff" stroke="#63b8ff" points="1634.81,-154.62 1643.85,-149.08 1633.33,-147.77 1634.81,-154.62"/>
</a>
</g>
</g>
<!-- Node31 -->
<g id="Node000031" class="node">
<title>Node31</title>
<g id="a_Node000031"><a xlink:title=" ">
<polygon fill="#e0e0e0" stroke="#999999" points="1886.5,-79.5 1819.5,-79.5 1819.5,-60.5 1886.5,-60.5 1886.5,-79.5"/>
<text text-anchor="middle" x="1853" y="-67.5" font-family="Helvetica,sans-Serif" font-size="10.00">fmt/core.h</text>
</a>
</g>
</g>
<!-- Node30&#45;&gt;Node31 -->
<g id="edge40_Node000030_Node000031" class="edge">
<title>Node30&#45;&gt;Node31</title>
<g id="a_edge40_Node000030_Node000031"><a xlink:title=" ">
<path fill="none" stroke="#63b8ff" d="M1853,-126.37C1853,-117.16 1853,-102.29 1853,-90.27"/>
<polygon fill="#63b8ff" stroke="#63b8ff" points="1856.5,-89.91 1853,-79.91 1849.5,-89.91 1856.5,-89.91"/>
</a>
</g>
</g>
<!-- Node33 -->
<g id="Node000033" class="node">
<title>Node33</title>
<g id="a_Node000033"><a xlink:href="../../db/dfb/universal_2include_2userver_2logging_2fwd_8hpp.html" target="_top" xlink:title="Forward declarations for logging types.">
<polygon fill="white" stroke="#666666" points="1524,-79.5 1390,-79.5 1390,-60.5 1524,-60.5 1524,-79.5"/>
<text text-anchor="middle" x="1457" y="-67.5" font-family="Helvetica,sans-Serif" font-size="10.00">userver/logging/fwd.hpp</text>
</a>
</g>
</g>
<!-- Node32&#45;&gt;Node33 -->
<g id="edge42_Node000032_Node000033" class="edge">
<title>Node32&#45;&gt;Node33</title>
<g id="a_edge42_Node000032_Node000033"><a xlink:title=" ">
<path fill="none" stroke="#63b8ff" d="M1645.89,-120.95C1601.77,-109.29 1539.84,-92.91 1499.09,-82.13"/>
<polygon fill="#63b8ff" stroke="#63b8ff" points="1499.77,-78.69 1489.21,-79.52 1497.98,-85.46 1499.77,-78.69"/>
</a>
</g>
</g>
<!-- Node33&#45;&gt;Node11 -->
<g id="edge43_Node000033_Node000011" class="edge">
<title>Node33&#45;&gt;Node11</title>
<g id="a_edge43_Node000033_Node000011"><a xlink:title=" ">
<path fill="none" stroke="#63b8ff" d="M1408,-60.49C1340.7,-48.81 1220.99,-28.03 1159.25,-17.31"/>
<polygon fill="#63b8ff" stroke="#63b8ff" points="1159.59,-13.82 1149.14,-15.56 1158.39,-20.72 1159.59,-13.82"/>
</a>
</g>
</g>
</g>
</svg>
