<?xml version="1.0" encoding="UTF-8" standalone="no"?>
<!DOCTYPE svg PUBLIC "-//W3C//DTD SVG 1.1//EN"
 "http://www.w3.org/Graphics/SVG/1.1/DTD/svg11.dtd">
<!-- Generated by graphviz version 2.43.0 (0)
 -->
<!-- Title: server::handlers::InspectRequests Pages: 1 -->
<svg width="193pt" height="324pt"
 viewBox="0.00 0.00 193.00 324.00" xmlns="http://www.w3.org/2000/svg" xmlns:xlink="http://www.w3.org/1999/xlink">
<g id="graph0" class="graph" transform="scale(1 1) rotate(0) translate(4 320)">
<title>server::handlers::InspectRequests</title>
<!-- Node1 -->
<g id="Node000001" class="node">
<title>Node1</title>
<g id="a_Node000001"><a xlink:title="Handler that returns information about all in&#45;flight requests.">
<polygon fill="#999999" stroke="#666666" points="161,-30 24,-30 24,0 161,0 161,-30"/>
<text text-anchor="start" x="32" y="-18" font-family="Helvetica,sans-Serif" font-size="10.00">server::handlers::Inspect</text>
<text text-anchor="middle" x="92.5" y="-7" font-family="Helvetica,sans-Serif" font-size="10.00">Requests</text>
</a>
</g>
</g>
<!-- Node2 -->
<g id="Node000002" class="node">
<title>Node2</title>
<g id="a_Node000002"><a xlink:href="../../da/dbe/classserver_1_1handlers_1_1HttpHandlerJsonBase.html" target="_top" xlink:title="Convenient base for handlers that accept requests with body in JSON format and respond with body in J...">
<polygon fill="white" stroke="#666666" points="173,-96 12,-96 12,-66 173,-66 173,-96"/>
<text text-anchor="start" x="20" y="-84" font-family="Helvetica,sans-Serif" font-size="10.00">server::handlers::HttpHandler</text>
<text text-anchor="middle" x="92.5" y="-73" font-family="Helvetica,sans-Serif" font-size="10.00">JsonBase</text>
</a>
</g>
</g>
<!-- Node2&#45;&gt;Node1 -->
<g id="edge1_Node000001_Node000002" class="edge">
<title>Node2&#45;&gt;Node1</title>
<g id="a_edge1_Node000001_Node000002"><a xlink:title=" ">
<path fill="none" stroke="#63b8ff" d="M92.5,-55.54C92.5,-46.96 92.5,-37.61 92.5,-30.16"/>
<polygon fill="#63b8ff" stroke="#63b8ff" points="89,-55.8 92.5,-65.8 96,-55.8 89,-55.8"/>
</a>
</g>
</g>
<!-- Node3 -->
<g id="Node000003" class="node">
<title>Node3</title>
<g id="a_Node000003"><a xlink:href="../../d6/d36/classserver_1_1handlers_1_1HttpHandlerBase.html" target="_top" xlink:title="Base class for all the Userver HTTP Handlers.">
<polygon fill="white" stroke="#666666" points="185,-151 0,-151 0,-132 185,-132 185,-151"/>
<text text-anchor="middle" x="92.5" y="-139" font-family="Helvetica,sans-Serif" font-size="10.00">server::handlers::HttpHandlerBase</text>
</a>
</g>
</g>
<!-- Node3&#45;&gt;Node2 -->
<g id="edge2_Node000002_Node000003" class="edge">
<title>Node3&#45;&gt;Node2</title>
<g id="a_edge2_Node000002_Node000003"><a xlink:title=" ">
<path fill="none" stroke="#63b8ff" d="M92.5,-121.65C92.5,-113.36 92.5,-103.78 92.5,-96.11"/>
<polygon fill="#63b8ff" stroke="#63b8ff" points="89,-121.87 92.5,-131.87 96,-121.87 89,-121.87"/>
</a>
</g>
</g>
<!-- Node4 -->
<g id="Node000004" class="node">
<title>Node4</title>
<g id="a_Node000004"><a xlink:href="../../d1/ddc/classserver_1_1handlers_1_1HandlerBase.html" target="_top" xlink:title="Base class for the request handlers.">
<polygon fill="white" stroke="#666666" points="174.5,-206 10.5,-206 10.5,-187 174.5,-187 174.5,-206"/>
<text text-anchor="middle" x="92.5" y="-194" font-family="Helvetica,sans-Serif" font-size="10.00">server::handlers::HandlerBase</text>
</a>
</g>
</g>
<!-- Node4&#45;&gt;Node3 -->
<g id="edge3_Node000003_Node000004" class="edge">
<title>Node4&#45;&gt;Node3</title>
<g id="a_edge3_Node000003_Node000004"><a xlink:title=" ">
<path fill="none" stroke="#63b8ff" d="M92.5,-176.66C92.5,-167.93 92.5,-157.99 92.5,-151.09"/>
<polygon fill="#63b8ff" stroke="#63b8ff" points="89,-176.75 92.5,-186.75 96,-176.75 89,-176.75"/>
</a>
</g>
</g>
<!-- Node5 -->
<g id="Node000005" class="node">
<title>Node5</title>
<g id="a_Node000005"><a xlink:href="../../d7/db4/classcomponents_1_1ComponentBase.html" target="_top" xlink:title="Base class for all application components, it depends on components::Logger and components::Tracer.">
<polygon fill="white" stroke="#666666" points="174,-261 11,-261 11,-242 174,-242 174,-261"/>
<text text-anchor="middle" x="92.5" y="-249" font-family="Helvetica,sans-Serif" font-size="10.00">components::ComponentBase</text>
</a>
</g>
</g>
<!-- Node5&#45;&gt;Node4 -->
<g id="edge4_Node000004_Node000005" class="edge">
<title>Node5&#45;&gt;Node4</title>
<g id="a_edge4_Node000004_Node000005"><a xlink:title=" ">
<path fill="none" stroke="#63b8ff" d="M92.5,-231.66C92.5,-222.93 92.5,-212.99 92.5,-206.09"/>
<polygon fill="#63b8ff" stroke="#63b8ff" points="89,-231.75 92.5,-241.75 96,-231.75 89,-231.75"/>
</a>
</g>
</g>
<!-- Node6 -->
<g id="Node000006" class="node">
<title>Node6</title>
<g id="a_Node000006"><a xlink:href="../../d2/d86/classcomponents_1_1RawComponentBase.html" target="_top" xlink:title="The base class for all components. Don&#39;t use it for application components, use ComponentBase instead...">
<polygon fill="white" stroke="#666666" points="184.5,-316 0.5,-316 0.5,-297 184.5,-297 184.5,-316"/>
<text text-anchor="middle" x="92.5" y="-304" font-family="Helvetica,sans-Serif" font-size="10.00">components::RawComponentBase</text>
</a>
</g>
</g>
<!-- Node6&#45;&gt;Node5 -->
<g id="edge5_Node000005_Node000006" class="edge">
<title>Node6&#45;&gt;Node5</title>
<g id="a_edge5_Node000005_Node000006"><a xlink:title=" ">
<path fill="none" stroke="#63b8ff" d="M92.5,-286.66C92.5,-277.93 92.5,-267.99 92.5,-261.09"/>
<polygon fill="#63b8ff" stroke="#63b8ff" points="89,-286.75 92.5,-296.75 96,-286.75 89,-286.75"/>
</a>
</g>
</g>
</g>
</svg>
