<?xml version="1.0" encoding="UTF-8" standalone="no"?>
<!DOCTYPE svg PUBLIC "-//W3C//DTD SVG 1.1//EN"
 "http://www.w3.org/Graphics/SVG/1.1/DTD/svg11.dtd">
<!-- Generated by graphviz version 2.43.0 (0)
 -->
<!-- Title: cache::LruCacheComponent&lt; Key, Value, Hash, Equal &gt; Pages: 1 -->
<svg width="329pt" height="148pt"
 viewBox="0.00 0.00 328.50 148.00" xmlns="http://www.w3.org/2000/svg" xmlns:xlink="http://www.w3.org/1999/xlink">
<g id="graph0" class="graph" transform="scale(1 1) rotate(0) translate(4 144)">
<title>cache::LruCacheComponent&lt; Key, Value, Hash, Equal &gt;</title>
<!-- Node1 -->
<g id="Node000001" class="node">
<title>Node1</title>
<g id="a_Node000001"><a xlink:title="Base class for LRU&#45;cache components.">
<polygon fill="#999999" stroke="#666666" points="251,-30 97,-30 97,0 251,0 251,-30"/>
<text text-anchor="start" x="105" y="-18" font-family="Helvetica,sans-Serif" font-size="10.00">cache::LruCacheComponent</text>
<text text-anchor="middle" x="174" y="-7" font-family="Helvetica,sans-Serif" font-size="10.00">&lt; Key, Value, Hash, Equal &gt;</text>
</a>
</g>
</g>
<!-- Node2 -->
<g id="Node000002" class="node">
<title>Node2</title>
<g id="a_Node000002"><a xlink:href="../../d7/db4/classcomponents_1_1ComponentBase.html" target="_top" xlink:title="Base class for all application components, it depends on components::Logger and components::Tracer.">
<polygon fill="white" stroke="#666666" points="173.5,-85 10.5,-85 10.5,-66 173.5,-66 173.5,-85"/>
<text text-anchor="middle" x="92" y="-73" font-family="Helvetica,sans-Serif" font-size="10.00">components::ComponentBase</text>
</a>
</g>
</g>
<!-- Node2&#45;&gt;Node1 -->
<g id="edge1_Node000001_Node000002" class="edge">
<title>Node2&#45;&gt;Node1</title>
<g id="a_edge1_Node000001_Node000002"><a xlink:title=" ">
<path fill="none" stroke="#63b8ff" d="M112.28,-60.03C125.08,-50.9 141.52,-39.17 154.22,-30.11"/>
<polygon fill="#63b8ff" stroke="#63b8ff" points="110.21,-57.21 104.1,-65.87 114.27,-62.91 110.21,-57.21"/>
</a>
</g>
</g>
<!-- Node3 -->
<g id="Node000003" class="node">
<title>Node3</title>
<g id="a_Node000003"><a xlink:href="../../d2/d86/classcomponents_1_1RawComponentBase.html" target="_top" xlink:title="The base class for all components. Don&#39;t use it for application components, use ComponentBase instead...">
<polygon fill="white" stroke="#666666" points="184,-140 0,-140 0,-121 184,-121 184,-140"/>
<text text-anchor="middle" x="92" y="-128" font-family="Helvetica,sans-Serif" font-size="10.00">components::RawComponentBase</text>
</a>
</g>
</g>
<!-- Node3&#45;&gt;Node2 -->
<g id="edge2_Node000002_Node000003" class="edge">
<title>Node3&#45;&gt;Node2</title>
<g id="a_edge2_Node000002_Node000003"><a xlink:title=" ">
<path fill="none" stroke="#63b8ff" d="M92,-110.66C92,-101.93 92,-91.99 92,-85.09"/>
<polygon fill="#63b8ff" stroke="#63b8ff" points="88.5,-110.75 92,-120.75 95.5,-110.75 88.5,-110.75"/>
</a>
</g>
</g>
<!-- Node4 -->
<g id="Node000004" class="node">
<title>Node4</title>
<g id="a_Node000004"><a xlink:href="../../dc/d3a/classdump_1_1DumpableEntity.html" target="_top" xlink:title=" ">
<polygon fill="white" stroke="#666666" points="320.5,-85 191.5,-85 191.5,-66 320.5,-66 320.5,-85"/>
<text text-anchor="middle" x="256" y="-73" font-family="Helvetica,sans-Serif" font-size="10.00">dump::DumpableEntity</text>
</a>
</g>
</g>
<!-- Node4&#45;&gt;Node1 -->
<g id="edge3_Node000001_Node000004" class="edge">
<title>Node4&#45;&gt;Node1</title>
<g id="a_edge3_Node000001_Node000004"><a xlink:title=" ">
<path fill="none" stroke="#8b1a1a" d="M235.72,-60.03C222.92,-50.9 206.48,-39.17 193.78,-30.11"/>
<polygon fill="#8b1a1a" stroke="#8b1a1a" points="233.73,-62.91 243.9,-65.87 237.79,-57.21 233.73,-62.91"/>
</a>
</g>
</g>
</g>
</svg>
