<?xml version="1.0" encoding="UTF-8" standalone="no"?>
<!DOCTYPE svg PUBLIC "-//W3C//DTD SVG 1.1//EN"
 "http://www.w3.org/Graphics/SVG/1.1/DTD/svg11.dtd">
<!-- Generated by graphviz version 2.43.0 (0)
 -->
<!-- Title: userver/engine/task/inherited_variable.hpp Pages: 1 -->
<svg width="341pt" height="247pt"
 viewBox="0.00 0.00 340.50 247.00" xmlns="http://www.w3.org/2000/svg" xmlns:xlink="http://www.w3.org/1999/xlink">
<g id="graph0" class="graph" transform="scale(1 1) rotate(0) translate(4 243)">
<title>userver/engine/task/inherited_variable.hpp</title>
<!-- Node1 -->
<g id="Node000001" class="node">
<title>Node1</title>
<g id="a_Node000001"><a xlink:title="TaskInheritedVariable is a per&#45;coroutine variable of arbitrary type.">
<polygon fill="#999999" stroke="#666666" points="230.5,-239 101.5,-239 101.5,-209 230.5,-209 230.5,-239"/>
<text text-anchor="start" x="109.5" y="-227" font-family="Helvetica,sans-Serif" font-size="10.00">userver/engine/task</text>
<text text-anchor="middle" x="166" y="-216" font-family="Helvetica,sans-Serif" font-size="10.00">/inherited_variable.hpp</text>
</a>
</g>
</g>
<!-- Node2 -->
<g id="Node000002" class="node">
<title>Node2</title>
<g id="a_Node000002"><a xlink:href="../../dd/d9b/baggage_8hpp.html" target="_top" xlink:title="Baggage header. Contains entries (key, value, optional&lt;properties&gt;).">
<polygon fill="white" stroke="#666666" points="164,-167.5 0,-167.5 0,-148.5 164,-148.5 164,-167.5"/>
<text text-anchor="middle" x="82" y="-155.5" font-family="Helvetica,sans-Serif" font-size="10.00">userver/baggage/baggage.hpp</text>
</a>
</g>
</g>
<!-- Node1&#45;&gt;Node2 -->
<g id="edge1_Node000001_Node000002" class="edge">
<title>Node1&#45;&gt;Node2</title>
<g id="a_edge1_Node000001_Node000002"><a xlink:title=" ">
<path fill="none" stroke="#63b8ff" d="M139.21,-202.58C123.84,-190.87 105.33,-176.77 93.61,-167.84"/>
<polygon fill="#63b8ff" stroke="#63b8ff" points="137.28,-205.52 147.36,-208.8 141.52,-199.95 137.28,-205.52"/>
</a>
</g>
</g>
<!-- Node4 -->
<g id="Node000004" class="node">
<title>Node4</title>
<g id="a_Node000004"><a xlink:href="../../d8/ddb/task__inherited__data_8hpp.html" target="_top" xlink:title="Per&#45;request data that should be available inside handlers.">
<polygon fill="white" stroke="#666666" points="319.5,-173 182.5,-173 182.5,-143 319.5,-143 319.5,-173"/>
<text text-anchor="start" x="190.5" y="-161" font-family="Helvetica,sans-Serif" font-size="10.00">userver/server/request</text>
<text text-anchor="middle" x="251" y="-150" font-family="Helvetica,sans-Serif" font-size="10.00">/task_inherited_data.hpp</text>
</a>
</g>
</g>
<!-- Node1&#45;&gt;Node4 -->
<g id="edge3_Node000001_Node000004" class="edge">
<title>Node1&#45;&gt;Node4</title>
<g id="a_edge3_Node000001_Node000004"><a xlink:title=" ">
<path fill="none" stroke="#63b8ff" d="M192.89,-202.75C205.67,-193.13 220.64,-181.86 232.19,-173.16"/>
<polygon fill="#63b8ff" stroke="#63b8ff" points="190.75,-199.99 184.86,-208.8 194.96,-205.58 190.75,-199.99"/>
</a>
</g>
</g>
<!-- Node3 -->
<g id="Node000003" class="node">
<title>Node3</title>
<g id="a_Node000003"><a xlink:href="../../d4/d44/baggage__manager_8hpp.html" target="_top" xlink:title="Baggage manipulation client and component.">
<polygon fill="white" stroke="#666666" points="153.5,-101.5 10.5,-101.5 10.5,-71.5 153.5,-71.5 153.5,-101.5"/>
<text text-anchor="start" x="18.5" y="-89.5" font-family="Helvetica,sans-Serif" font-size="10.00">userver/baggage/baggage</text>
<text text-anchor="middle" x="82" y="-78.5" font-family="Helvetica,sans-Serif" font-size="10.00">_manager.hpp</text>
</a>
</g>
</g>
<!-- Node2&#45;&gt;Node3 -->
<g id="edge2_Node000002_Node000003" class="edge">
<title>Node2&#45;&gt;Node3</title>
<g id="a_edge2_Node000002_Node000003"><a xlink:title=" ">
<path fill="none" stroke="#63b8ff" d="M82,-138.21C82,-126.69 82,-112.18 82,-101.64"/>
<polygon fill="#63b8ff" stroke="#63b8ff" points="78.5,-138.48 82,-148.48 85.5,-138.48 78.5,-138.48"/>
</a>
</g>
</g>
<!-- Node5 -->
<g id="Node000005" class="node">
<title>Node5</title>
<g id="a_Node000005"><a xlink:href="../../db/d93/service__worker__impl_8hpp_source.html" target="_top" xlink:title=" ">
<polygon fill="white" stroke="#666666" points="310,-107 192,-107 192,-66 310,-66 310,-107"/>
<text text-anchor="start" x="200" y="-95" font-family="Helvetica,sans-Serif" font-size="10.00">userver/ugrpc/server</text>
<text text-anchor="start" x="200" y="-84" font-family="Helvetica,sans-Serif" font-size="10.00">/impl/service_worker</text>
<text text-anchor="middle" x="251" y="-73" font-family="Helvetica,sans-Serif" font-size="10.00">_impl.hpp</text>
</a>
</g>
</g>
<!-- Node4&#45;&gt;Node5 -->
<g id="edge4_Node000004_Node000005" class="edge">
<title>Node4&#45;&gt;Node5</title>
<g id="a_edge4_Node000004_Node000005"><a xlink:title=" ">
<path fill="none" stroke="#63b8ff" d="M251,-132.91C251,-124.47 251,-115.1 251,-107.07"/>
<polygon fill="#63b8ff" stroke="#63b8ff" points="247.5,-132.94 251,-142.94 254.5,-132.94 247.5,-132.94"/>
</a>
</g>
</g>
<!-- Node6 -->
<g id="Node000006" class="node">
<title>Node6</title>
<g id="a_Node000006"><a xlink:href="../../d1/dac/server_2impl_2codegen__definitions_8hpp_source.html" target="_top" xlink:title=" ">
<polygon fill="white" stroke="#666666" points="332.5,-30 169.5,-30 169.5,0 332.5,0 332.5,-30"/>
<text text-anchor="start" x="177.5" y="-18" font-family="Helvetica,sans-Serif" font-size="10.00">userver/ugrpc/server</text>
<text text-anchor="middle" x="251" y="-7" font-family="Helvetica,sans-Serif" font-size="10.00">/impl/codegen_definitions.hpp</text>
</a>
</g>
</g>
<!-- Node5&#45;&gt;Node6 -->
<g id="edge5_Node000005_Node000006" class="edge">
<title>Node5&#45;&gt;Node6</title>
<g id="a_edge5_Node000005_Node000006"><a xlink:title=" ">
<path fill="none" stroke="#63b8ff" d="M251,-55.66C251,-46.76 251,-37.42 251,-30.04"/>
<polygon fill="#63b8ff" stroke="#63b8ff" points="247.5,-55.77 251,-65.77 254.5,-55.77 247.5,-55.77"/>
</a>
</g>
</g>
</g>
</svg>
