<?xml version="1.0" encoding="UTF-8" standalone="no"?>
<!DOCTYPE svg PUBLIC "-//W3C//DTD SVG 1.1//EN"
 "http://www.w3.org/Graphics/SVG/1.1/DTD/svg11.dtd">
<!-- Generated by graphviz version 2.43.0 (0)
 -->
<!-- Title: userver/engine/task/inherited_variable.hpp Pages: 1 -->
<svg width="328pt" height="170pt"
 viewBox="0.00 0.00 327.50 170.00" xmlns="http://www.w3.org/2000/svg" xmlns:xlink="http://www.w3.org/1999/xlink">
<g id="graph0" class="graph" transform="scale(1 1) rotate(0) translate(4 166)">
<title>userver/engine/task/inherited_variable.hpp</title>
<!-- Node1 -->
<g id="Node000001" class="node">
<title>Node1</title>
<g id="a_Node000001"><a xlink:title="TaskInheritedVariable is a per&#45;coroutine variable of arbitrary type.">
<polygon fill="#999999" stroke="#666666" points="230.5,-162 101.5,-162 101.5,-132 230.5,-132 230.5,-162"/>
<text text-anchor="start" x="109.5" y="-150" font-family="Helvetica,sans-Serif" font-size="10.00">userver/engine/task</text>
<text text-anchor="middle" x="166" y="-139" font-family="Helvetica,sans-Serif" font-size="10.00">/inherited_variable.hpp</text>
</a>
</g>
</g>
<!-- Node2 -->
<g id="Node000002" class="node">
<title>Node2</title>
<g id="a_Node000002"><a xlink:href="../../dd/d9b/baggage_8hpp.html" target="_top" xlink:title="Baggage header. Contains entries (key, value, optional&lt;properties&gt;).">
<polygon fill="white" stroke="#666666" points="164,-90.5 0,-90.5 0,-71.5 164,-71.5 164,-90.5"/>
<text text-anchor="middle" x="82" y="-78.5" font-family="Helvetica,sans-Serif" font-size="10.00">userver/baggage/baggage.hpp</text>
</a>
</g>
</g>
<!-- Node1&#45;&gt;Node2 -->
<g id="edge1_Node000001_Node000002" class="edge">
<title>Node1&#45;&gt;Node2</title>
<g id="a_edge1_Node000001_Node000002"><a xlink:title=" ">
<path fill="none" stroke="#63b8ff" d="M139.21,-125.58C123.84,-113.87 105.33,-99.77 93.61,-90.84"/>
<polygon fill="#63b8ff" stroke="#63b8ff" points="137.28,-128.52 147.36,-131.8 141.52,-122.95 137.28,-128.52"/>
</a>
</g>
</g>
<!-- Node4 -->
<g id="Node000004" class="node">
<title>Node4</title>
<g id="a_Node000004"><a xlink:href="../../d8/ddb/task__inherited__data_8hpp.html" target="_top" xlink:title="Per&#45;request data that should be available inside handlers.">
<polygon fill="white" stroke="#666666" points="319.5,-96 182.5,-96 182.5,-66 319.5,-66 319.5,-96"/>
<text text-anchor="start" x="190.5" y="-84" font-family="Helvetica,sans-Serif" font-size="10.00">userver/server/request</text>
<text text-anchor="middle" x="251" y="-73" font-family="Helvetica,sans-Serif" font-size="10.00">/task_inherited_data.hpp</text>
</a>
</g>
</g>
<!-- Node1&#45;&gt;Node4 -->
<g id="edge3_Node000001_Node000004" class="edge">
<title>Node1&#45;&gt;Node4</title>
<g id="a_edge3_Node000001_Node000004"><a xlink:title=" ">
<path fill="none" stroke="#63b8ff" d="M192.89,-125.75C205.67,-116.13 220.64,-104.86 232.19,-96.16"/>
<polygon fill="#63b8ff" stroke="#63b8ff" points="190.75,-122.99 184.86,-131.8 194.96,-128.58 190.75,-122.99"/>
</a>
</g>
</g>
<!-- Node3 -->
<g id="Node000003" class="node">
<title>Node3</title>
<g id="a_Node000003"><a xlink:href="../../d4/d44/baggage__manager_8hpp.html" target="_top" xlink:title="Baggage manipulation client and component.">
<polygon fill="white" stroke="#666666" points="153.5,-30 10.5,-30 10.5,0 153.5,0 153.5,-30"/>
<text text-anchor="start" x="18.5" y="-18" font-family="Helvetica,sans-Serif" font-size="10.00">userver/baggage/baggage</text>
<text text-anchor="middle" x="82" y="-7" font-family="Helvetica,sans-Serif" font-size="10.00">_manager.hpp</text>
</a>
</g>
</g>
<!-- Node2&#45;&gt;Node3 -->
<g id="edge2_Node000002_Node000003" class="edge">
<title>Node2&#45;&gt;Node3</title>
<g id="a_edge2_Node000002_Node000003"><a xlink:title=" ">
<path fill="none" stroke="#63b8ff" d="M82,-61.35C82,-51.47 82,-39.51 82,-30.36"/>
<polygon fill="#63b8ff" stroke="#63b8ff" points="78.5,-61.37 82,-71.37 85.5,-61.37 78.5,-61.37"/>
</a>
</g>
</g>
</g>
</svg>
