<?xml version="1.0" encoding="UTF-8" standalone="no"?>
<!DOCTYPE svg PUBLIC "-//W3C//DTD SVG 1.1//EN"
 "http://www.w3.org/Graphics/SVG/1.1/DTD/svg11.dtd">
<!-- Generated by graphviz version 2.43.0 (0)
 -->
<!-- Title: userver/utils/time_of_day.hpp Pages: 1 -->
<svg width="720pt" height="148pt"
 viewBox="0.00 0.00 719.50 148.00" xmlns="http://www.w3.org/2000/svg" xmlns:xlink="http://www.w3.org/1999/xlink">
<g id="graph0" class="graph" transform="scale(1 1) rotate(0) translate(4 144)">
<title>userver/utils/time_of_day.hpp</title>
<!-- Node1 -->
<g id="Node000001" class="node">
<title>Node1</title>
<g id="a_Node000001"><a xlink:title="A simple implementation of a &quot;time since midnight&quot; datatype.">
<polygon fill="#999999" stroke="#666666" points="342.5,-140 239.5,-140 239.5,-110 342.5,-110 342.5,-140"/>
<text text-anchor="start" x="247.5" y="-128" font-family="Helvetica,sans-Serif" font-size="10.00">userver/utils/time</text>
<text text-anchor="middle" x="291" y="-117" font-family="Helvetica,sans-Serif" font-size="10.00">_of_day.hpp</text>
</a>
</g>
</g>
<!-- Node2 -->
<g id="Node000002" class="node">
<title>Node2</title>
<g id="a_Node000002"><a xlink:title=" ">
<polygon fill="#e0e0e0" stroke="#999999" points="64,-74 0,-74 0,-55 64,-55 64,-74"/>
<text text-anchor="middle" x="32" y="-62" font-family="Helvetica,sans-Serif" font-size="10.00">algorithm</text>
</a>
</g>
</g>
<!-- Node1&#45;&gt;Node2 -->
<g id="edge1_Node000001_Node000002" class="edge">
<title>Node1&#45;&gt;Node2</title>
<g id="a_edge1_Node000001_Node000002"><a xlink:title=" ">
<path fill="none" stroke="#63b8ff" d="M239.21,-112.3C190.73,-101.35 119.19,-85.19 74.12,-75.01"/>
<polygon fill="#63b8ff" stroke="#63b8ff" points="74.61,-71.54 64.09,-72.75 73.07,-78.37 74.61,-71.54"/>
</a>
</g>
</g>
<!-- Node3 -->
<g id="Node000003" class="node">
<title>Node3</title>
<g id="a_Node000003"><a xlink:title=" ">
<polygon fill="#e0e0e0" stroke="#999999" points="124,-74 82,-74 82,-55 124,-55 124,-74"/>
<text text-anchor="middle" x="103" y="-62" font-family="Helvetica,sans-Serif" font-size="10.00">array</text>
</a>
</g>
</g>
<!-- Node1&#45;&gt;Node3 -->
<g id="edge2_Node000001_Node000003" class="edge">
<title>Node1&#45;&gt;Node3</title>
<g id="a_edge2_Node000001_Node000003"><a xlink:title=" ">
<path fill="none" stroke="#63b8ff" d="M245.97,-109.99C211.42,-99.24 164.63,-84.68 134.13,-75.19"/>
<polygon fill="#63b8ff" stroke="#63b8ff" points="135.04,-71.81 124.46,-72.18 132.96,-78.49 135.04,-71.81"/>
</a>
</g>
</g>
<!-- Node4 -->
<g id="Node000004" class="node">
<title>Node4</title>
<g id="a_Node000004"><a xlink:title=" ">
<polygon fill="#e0e0e0" stroke="#999999" points="192,-74 142,-74 142,-55 192,-55 192,-74"/>
<text text-anchor="middle" x="167" y="-62" font-family="Helvetica,sans-Serif" font-size="10.00">chrono</text>
</a>
</g>
</g>
<!-- Node1&#45;&gt;Node4 -->
<g id="edge3_Node000001_Node000004" class="edge">
<title>Node1&#45;&gt;Node4</title>
<g id="a_edge3_Node000001_Node000004"><a xlink:title=" ">
<path fill="none" stroke="#63b8ff" d="M261.3,-109.99C240.98,-100.4 214.24,-87.79 194.42,-78.44"/>
<polygon fill="#63b8ff" stroke="#63b8ff" points="195.85,-75.24 185.31,-74.14 192.86,-81.57 195.85,-75.24"/>
</a>
</g>
</g>
<!-- Node5 -->
<g id="Node000005" class="node">
<title>Node5</title>
<g id="a_Node000005"><a xlink:title=" ">
<polygon fill="#e0e0e0" stroke="#999999" points="283.5,-74 210.5,-74 210.5,-55 283.5,-55 283.5,-74"/>
<text text-anchor="middle" x="247" y="-62" font-family="Helvetica,sans-Serif" font-size="10.00">string_view</text>
</a>
</g>
</g>
<!-- Node1&#45;&gt;Node5 -->
<g id="edge4_Node000001_Node000005" class="edge">
<title>Node1&#45;&gt;Node5</title>
<g id="a_edge4_Node000001_Node000005"><a xlink:title=" ">
<path fill="none" stroke="#63b8ff" d="M280.35,-109.84C274.16,-101.61 266.31,-91.18 259.79,-82.51"/>
<polygon fill="#63b8ff" stroke="#63b8ff" points="262.4,-80.15 253.59,-74.27 256.81,-84.36 262.4,-80.15"/>
</a>
</g>
</g>
<!-- Node6 -->
<g id="Node000006" class="node">
<title>Node6</title>
<g id="a_Node000006"><a xlink:title=" ">
<polygon fill="#e0e0e0" stroke="#999999" points="370.5,-74 301.5,-74 301.5,-55 370.5,-55 370.5,-74"/>
<text text-anchor="middle" x="336" y="-62" font-family="Helvetica,sans-Serif" font-size="10.00">type_traits</text>
</a>
</g>
</g>
<!-- Node1&#45;&gt;Node6 -->
<g id="edge5_Node000001_Node000006" class="edge">
<title>Node1&#45;&gt;Node6</title>
<g id="a_edge5_Node000001_Node000006"><a xlink:title=" ">
<path fill="none" stroke="#63b8ff" d="M301.89,-109.84C308.29,-101.52 316.42,-90.96 323.13,-82.23"/>
<polygon fill="#63b8ff" stroke="#63b8ff" points="325.93,-84.33 329.26,-74.27 320.39,-80.06 325.93,-84.33"/>
</a>
</g>
</g>
<!-- Node7 -->
<g id="Node000007" class="node">
<title>Node7</title>
<g id="a_Node000007"><a xlink:title=" ">
<polygon fill="#e0e0e0" stroke="#999999" points="435.5,-74 388.5,-74 388.5,-55 435.5,-55 435.5,-74"/>
<text text-anchor="middle" x="412" y="-62" font-family="Helvetica,sans-Serif" font-size="10.00">vector</text>
</a>
</g>
</g>
<!-- Node1&#45;&gt;Node7 -->
<g id="edge6_Node000001_Node000007" class="edge">
<title>Node1&#45;&gt;Node7</title>
<g id="a_edge6_Node000001_Node000007"><a xlink:title=" ">
<path fill="none" stroke="#63b8ff" d="M319.98,-109.99C339.72,-100.45 365.67,-87.9 384.97,-78.57"/>
<polygon fill="#63b8ff" stroke="#63b8ff" points="386.65,-81.64 394.13,-74.14 383.6,-75.34 386.65,-81.64"/>
</a>
</g>
</g>
<!-- Node8 -->
<g id="Node000008" class="node">
<title>Node8</title>
<g id="a_Node000008"><a xlink:title=" ">
<polygon fill="#e0e0e0" stroke="#999999" points="532.5,-74 453.5,-74 453.5,-55 532.5,-55 532.5,-74"/>
<text text-anchor="middle" x="493" y="-62" font-family="Helvetica,sans-Serif" font-size="10.00">fmt/format.h</text>
</a>
</g>
</g>
<!-- Node1&#45;&gt;Node8 -->
<g id="edge7_Node000001_Node000008" class="edge">
<title>Node1&#45;&gt;Node8</title>
<g id="a_edge7_Node000001_Node000008"><a xlink:title=" ">
<path fill="none" stroke="#63b8ff" d="M339.38,-109.99C374.4,-99.85 421.11,-86.32 453.8,-76.85"/>
<polygon fill="#63b8ff" stroke="#63b8ff" points="454.83,-80.2 463.46,-74.05 452.89,-73.47 454.83,-80.2"/>
</a>
</g>
</g>
<!-- Node9 -->
<g id="Node000009" class="node">
<title>Node9</title>
<g id="a_Node000009"><a xlink:href="../../d3/d6c/fmt__compat_8hpp_source.html" target="_top" xlink:title=" ">
<polygon fill="white" stroke="#666666" points="711.5,-74 550.5,-74 550.5,-55 711.5,-55 711.5,-74"/>
<text text-anchor="middle" x="631" y="-62" font-family="Helvetica,sans-Serif" font-size="10.00">userver/utils/fmt_compat.hpp</text>
</a>
</g>
</g>
<!-- Node1&#45;&gt;Node9 -->
<g id="edge8_Node000001_Node000009" class="edge">
<title>Node1&#45;&gt;Node9</title>
<g id="a_edge8_Node000001_Node000009"><a xlink:title=" ">
<path fill="none" stroke="#63b8ff" d="M342.64,-115.12C404.09,-104.54 506.51,-86.92 571.31,-75.77"/>
<polygon fill="#63b8ff" stroke="#63b8ff" points="572.11,-79.18 581.37,-74.04 570.92,-72.29 572.11,-79.18"/>
</a>
</g>
</g>
<!-- Node10 -->
<g id="Node000010" class="node">
<title>Node10</title>
<g id="a_Node000010"><a xlink:title=" ">
<polygon fill="#e0e0e0" stroke="#999999" points="664.5,-19 597.5,-19 597.5,0 664.5,0 664.5,-19"/>
<text text-anchor="middle" x="631" y="-7" font-family="Helvetica,sans-Serif" font-size="10.00">fmt/core.h</text>
</a>
</g>
</g>
<!-- Node9&#45;&gt;Node10 -->
<g id="edge9_Node000009_Node000010" class="edge">
<title>Node9&#45;&gt;Node10</title>
<g id="a_edge9_Node000009_Node000010"><a xlink:title=" ">
<path fill="none" stroke="#63b8ff" d="M631,-54.75C631,-47.8 631,-37.85 631,-29.13"/>
<polygon fill="#63b8ff" stroke="#63b8ff" points="634.5,-29.09 631,-19.09 627.5,-29.09 634.5,-29.09"/>
</a>
</g>
</g>
</g>
</svg>
