<?xml version="1.0" encoding="UTF-8" standalone="no"?>
<!DOCTYPE svg PUBLIC "-//W3C//DTD SVG 1.1//EN"
 "http://www.w3.org/Graphics/SVG/1.1/DTD/svg11.dtd">
<!-- Generated by graphviz version 2.43.0 (0)
 -->
<!-- Title: server::handlers::HttpHandlerFlatbufBase&lt; InputType, ReturnType &gt; Pages: 1 -->
<svg width="214pt" height="258pt"
 viewBox="0.00 0.00 214.00 258.00" xmlns="http://www.w3.org/2000/svg" xmlns:xlink="http://www.w3.org/1999/xlink">
<g id="graph0" class="graph" transform="scale(1 1) rotate(0) translate(4 254)">
<title>server::handlers::HttpHandlerFlatbufBase&lt; InputType, ReturnType &gt;</title>
<!-- Node1 -->
<g id="Node000001" class="node">
<title>Node1</title>
<g id="a_Node000001"><a xlink:title="Convenient base for handlers that accept requests with body in Flatbuffer format and respond with bod...">
<polygon fill="#999999" stroke="#666666" points="206,-30 0,-30 0,0 206,0 206,-30"/>
<text text-anchor="start" x="8" y="-18" font-family="Helvetica,sans-Serif" font-size="10.00">server::handlers::HttpHandler</text>
<text text-anchor="middle" x="103" y="-7" font-family="Helvetica,sans-Serif" font-size="10.00">FlatbufBase&lt; InputType, ReturnType &gt;</text>
</a>
</g>
</g>
<!-- Node2 -->
<g id="Node000002" class="node">
<title>Node2</title>
<g id="a_Node000002"><a xlink:href="../../d6/d36/classserver_1_1handlers_1_1HttpHandlerBase.html" target="_top" xlink:title="Base class for all the Userver HTTP Handlers.">
<polygon fill="white" stroke="#666666" points="195.5,-85 10.5,-85 10.5,-66 195.5,-66 195.5,-85"/>
<text text-anchor="middle" x="103" y="-73" font-family="Helvetica,sans-Serif" font-size="10.00">server::handlers::HttpHandlerBase</text>
</a>
</g>
</g>
<!-- Node2&#45;&gt;Node1 -->
<g id="edge1_Node000001_Node000002" class="edge">
<title>Node2&#45;&gt;Node1</title>
<g id="a_edge1_Node000001_Node000002"><a xlink:title=" ">
<path fill="none" stroke="#63b8ff" d="M103,-55.65C103,-47.36 103,-37.78 103,-30.11"/>
<polygon fill="#63b8ff" stroke="#63b8ff" points="99.5,-55.87 103,-65.87 106.5,-55.87 99.5,-55.87"/>
</a>
</g>
</g>
<!-- Node3 -->
<g id="Node000003" class="node">
<title>Node3</title>
<g id="a_Node000003"><a xlink:href="../../d1/ddc/classserver_1_1handlers_1_1HandlerBase.html" target="_top" xlink:title="Base class for the request handlers.">
<polygon fill="white" stroke="#666666" points="185,-140 21,-140 21,-121 185,-121 185,-140"/>
<text text-anchor="middle" x="103" y="-128" font-family="Helvetica,sans-Serif" font-size="10.00">server::handlers::HandlerBase</text>
</a>
</g>
</g>
<!-- Node3&#45;&gt;Node2 -->
<g id="edge2_Node000002_Node000003" class="edge">
<title>Node3&#45;&gt;Node2</title>
<g id="a_edge2_Node000002_Node000003"><a xlink:title=" ">
<path fill="none" stroke="#63b8ff" d="M103,-110.66C103,-101.93 103,-91.99 103,-85.09"/>
<polygon fill="#63b8ff" stroke="#63b8ff" points="99.5,-110.75 103,-120.75 106.5,-110.75 99.5,-110.75"/>
</a>
</g>
</g>
<!-- Node4 -->
<g id="Node000004" class="node">
<title>Node4</title>
<g id="a_Node000004"><a xlink:href="../../d7/db4/classcomponents_1_1ComponentBase.html" target="_top" xlink:title="Base class for all application components, it depends on components::Logger and components::Tracer.">
<polygon fill="white" stroke="#666666" points="184.5,-195 21.5,-195 21.5,-176 184.5,-176 184.5,-195"/>
<text text-anchor="middle" x="103" y="-183" font-family="Helvetica,sans-Serif" font-size="10.00">components::ComponentBase</text>
</a>
</g>
</g>
<!-- Node4&#45;&gt;Node3 -->
<g id="edge3_Node000003_Node000004" class="edge">
<title>Node4&#45;&gt;Node3</title>
<g id="a_edge3_Node000003_Node000004"><a xlink:title=" ">
<path fill="none" stroke="#63b8ff" d="M103,-165.66C103,-156.93 103,-146.99 103,-140.09"/>
<polygon fill="#63b8ff" stroke="#63b8ff" points="99.5,-165.75 103,-175.75 106.5,-165.75 99.5,-165.75"/>
</a>
</g>
</g>
<!-- Node5 -->
<g id="Node000005" class="node">
<title>Node5</title>
<g id="a_Node000005"><a xlink:href="../../d2/d86/classcomponents_1_1RawComponentBase.html" target="_top" xlink:title="The base class for all components. Don&#39;t use it for application components, use ComponentBase instead...">
<polygon fill="white" stroke="#666666" points="195,-250 11,-250 11,-231 195,-231 195,-250"/>
<text text-anchor="middle" x="103" y="-238" font-family="Helvetica,sans-Serif" font-size="10.00">components::RawComponentBase</text>
</a>
</g>
</g>
<!-- Node5&#45;&gt;Node4 -->
<g id="edge4_Node000004_Node000005" class="edge">
<title>Node5&#45;&gt;Node4</title>
<g id="a_edge4_Node000004_Node000005"><a xlink:title=" ">
<path fill="none" stroke="#63b8ff" d="M103,-220.66C103,-211.93 103,-201.99 103,-195.09"/>
<polygon fill="#63b8ff" stroke="#63b8ff" points="99.5,-220.75 103,-230.75 106.5,-220.75 99.5,-220.75"/>
</a>
</g>
</g>
</g>
</svg>
