<?xml version="1.0" encoding="UTF-8" standalone="no"?>
<!DOCTYPE svg PUBLIC "-//W3C//DTD SVG 1.1//EN"
 "http://www.w3.org/Graphics/SVG/1.1/DTD/svg11.dtd">
<!-- Generated by graphviz version 2.43.0 (0)
 -->
<!-- Title: userver/storages/mysql/statement_result_set.hpp Pages: 1 -->
<svg width="250pt" height="291pt"
 viewBox="0.00 0.00 250.44 291.00" xmlns="http://www.w3.org/2000/svg" xmlns:xlink="http://www.w3.org/1999/xlink">
<g id="graph0" class="graph" transform="scale(1 1) rotate(0) translate(4 287)">
<title>userver/storages/mysql/statement_result_set.hpp</title>
<!-- Node1 -->
<g id="Node000001" class="node">
<title>Node1</title>
<g id="a_Node000001"><a xlink:title=" ">
<polygon fill="#999999" stroke="#666666" points="154.94,-283 10.94,-283 10.94,-253 154.94,-253 154.94,-283"/>
<text text-anchor="start" x="18.94" y="-271" font-family="Helvetica,sans-Serif" font-size="10.00">userver/storages/mysql</text>
<text text-anchor="middle" x="82.94" y="-260" font-family="Helvetica,sans-Serif" font-size="10.00">/statement_result_set.hpp</text>
</a>
</g>
</g>
<!-- Node2 -->
<g id="Node000002" class="node">
<title>Node2</title>
<g id="a_Node000002"><a xlink:href="../../d0/d3d/mysql_2include_2userver_2storages_2mysql_2cluster_8hpp.html" target="_top" xlink:title="Client interface for a cluster of MySQL servers. Usually retrieved from components::MySQL.">
<polygon fill="white" stroke="#666666" points="167.44,-85 36.44,-85 36.44,-55 167.44,-55 167.44,-85"/>
<text text-anchor="start" x="44.44" y="-73" font-family="Helvetica,sans-Serif" font-size="10.00">userver/storages/mysql</text>
<text text-anchor="middle" x="101.94" y="-62" font-family="Helvetica,sans-Serif" font-size="10.00">/cluster.hpp</text>
</a>
</g>
</g>
<!-- Node1&#45;&gt;Node2 -->
<g id="edge1_Node000001_Node000002" class="edge">
<title>Node1&#45;&gt;Node2</title>
<g id="a_edge1_Node000001_Node000002"><a xlink:title=" ">
<path fill="none" stroke="#63b8ff" d="M58.5,-246.22C27.76,-217.48 -18.03,-164.24 7.94,-121 18.03,-104.2 35.88,-92.75 53.34,-85.08"/>
<polygon fill="#63b8ff" stroke="#63b8ff" points="56.18,-248.85 65.94,-252.98 60.89,-243.67 56.18,-248.85"/>
</a>
</g>
</g>
<!-- Node4 -->
<g id="Node000004" class="node">
<title>Node4</title>
<g id="a_Node000004"><a xlink:href="../../d6/dc8/cursor__result__set_8hpp.html" target="_top" xlink:title=" ">
<polygon fill="white" stroke="#666666" points="242.44,-217 111.44,-217 111.44,-187 242.44,-187 242.44,-217"/>
<text text-anchor="start" x="119.44" y="-205" font-family="Helvetica,sans-Serif" font-size="10.00">userver/storages/mysql</text>
<text text-anchor="middle" x="176.94" y="-194" font-family="Helvetica,sans-Serif" font-size="10.00">/cursor_result_set.hpp</text>
</a>
</g>
</g>
<!-- Node1&#45;&gt;Node4 -->
<g id="edge3_Node000001_Node000004" class="edge">
<title>Node1&#45;&gt;Node4</title>
<g id="a_edge3_Node000001_Node000004"><a xlink:title=" ">
<path fill="none" stroke="#63b8ff" d="M112.28,-247.03C126.5,-237.34 143.25,-225.94 156.14,-217.16"/>
<polygon fill="#63b8ff" stroke="#63b8ff" points="110.1,-244.28 103.8,-252.8 114.04,-250.06 110.1,-244.28"/>
</a>
</g>
</g>
<!-- Node5 -->
<g id="Node000005" class="node">
<title>Node5</title>
<g id="a_Node000005"><a xlink:href="../../de/d48/mysql_2include_2userver_2storages_2mysql_2transaction_8hpp.html" target="_top" xlink:title=" ">
<polygon fill="white" stroke="#666666" points="148.44,-151 17.44,-151 17.44,-121 148.44,-121 148.44,-151"/>
<text text-anchor="start" x="25.44" y="-139" font-family="Helvetica,sans-Serif" font-size="10.00">userver/storages/mysql</text>
<text text-anchor="middle" x="82.94" y="-128" font-family="Helvetica,sans-Serif" font-size="10.00">/transaction.hpp</text>
</a>
</g>
</g>
<!-- Node1&#45;&gt;Node5 -->
<g id="edge8_Node000001_Node000005" class="edge">
<title>Node1&#45;&gt;Node5</title>
<g id="a_edge8_Node000001_Node000005"><a xlink:title=" ">
<path fill="none" stroke="#63b8ff" d="M82.94,-242.68C82.94,-215.7 82.94,-173.11 82.94,-151.14"/>
<polygon fill="#63b8ff" stroke="#63b8ff" points="79.44,-242.84 82.94,-252.84 86.44,-242.84 79.44,-242.84"/>
</a>
</g>
</g>
<!-- Node3 -->
<g id="Node000003" class="node">
<title>Node3</title>
<g id="a_Node000003"><a xlink:href="../../dd/db6/mysql_8hpp.html" target="_top" xlink:title=" ">
<polygon fill="white" stroke="#666666" points="224.94,-19 72.94,-19 72.94,0 224.94,0 224.94,-19"/>
<text text-anchor="middle" x="148.94" y="-7" font-family="Helvetica,sans-Serif" font-size="10.00">userver/storages/mysql.hpp</text>
</a>
</g>
</g>
<!-- Node2&#45;&gt;Node3 -->
<g id="edge2_Node000002_Node000003" class="edge">
<title>Node2&#45;&gt;Node3</title>
<g id="a_edge2_Node000002_Node000003"><a xlink:title=" ">
<path fill="none" stroke="#63b8ff" d="M119.78,-46.8C127.48,-37.21 136.05,-26.54 141.9,-19.27"/>
<polygon fill="#63b8ff" stroke="#63b8ff" points="116.85,-44.85 113.32,-54.84 122.31,-49.24 116.85,-44.85"/>
</a>
</g>
</g>
<!-- Node4&#45;&gt;Node2 -->
<g id="edge5_Node000004_Node000002" class="edge">
<title>Node4&#45;&gt;Node2</title>
<g id="a_edge5_Node000004_Node000002"><a xlink:title=" ">
<path fill="none" stroke="#63b8ff" d="M175.01,-176.69C172.8,-160.05 168.07,-138 157.94,-121 149.33,-106.56 135.18,-93.97 123.26,-85.04"/>
<polygon fill="#63b8ff" stroke="#63b8ff" points="171.55,-177.19 176.13,-186.74 178.5,-176.42 171.55,-177.19"/>
</a>
</g>
</g>
<!-- Node4&#45;&gt;Node3 -->
<g id="edge4_Node000004_Node000003" class="edge">
<title>Node4&#45;&gt;Node3</title>
<g id="a_edge4_Node000004_Node000003"><a xlink:title=" ">
<path fill="none" stroke="#63b8ff" d="M180.97,-176.79C184.95,-147.35 188.9,-96.46 176.94,-55 172.99,-41.32 163.46,-27.79 156.61,-19.3"/>
<polygon fill="#63b8ff" stroke="#63b8ff" points="177.46,-176.55 179.47,-186.96 184.39,-177.57 177.46,-176.55"/>
</a>
</g>
</g>
<!-- Node4&#45;&gt;Node5 -->
<g id="edge6_Node000004_Node000005" class="edge">
<title>Node4&#45;&gt;Node5</title>
<g id="a_edge6_Node000004_Node000005"><a xlink:title=" ">
<path fill="none" stroke="#63b8ff" d="M147.61,-181.03C133.38,-171.34 116.63,-159.94 103.74,-151.16"/>
<polygon fill="#63b8ff" stroke="#63b8ff" points="145.84,-184.06 156.08,-186.8 149.78,-178.28 145.84,-184.06"/>
</a>
</g>
</g>
<!-- Node5&#45;&gt;Node2 -->
<g id="edge7_Node000005_Node000002" class="edge">
<title>Node5&#45;&gt;Node2</title>
<g id="a_edge7_Node000005_Node000002"><a xlink:title=" ">
<path fill="none" stroke="#63b8ff" d="M90.03,-111.11C92.63,-102.38 95.47,-92.78 97.74,-85.16"/>
<polygon fill="#63b8ff" stroke="#63b8ff" points="86.65,-110.21 87.16,-120.8 93.36,-112.21 86.65,-110.21"/>
</a>
</g>
</g>
</g>
</svg>
