<?xml version="1.0" encoding="UTF-8" standalone="no"?>
<!DOCTYPE svg PUBLIC "-//W3C//DTD SVG 1.1//EN"
 "http://www.w3.org/Graphics/SVG/1.1/DTD/svg11.dtd">
<!-- Generated by graphviz version 2.43.0 (0)
 -->
<!-- Title: userver/storages/mysql/cluster_host_type.hpp Pages: 1 -->
<svg width="197pt" height="225pt"
 viewBox="0.00 0.00 196.50 225.00" xmlns="http://www.w3.org/2000/svg" xmlns:xlink="http://www.w3.org/1999/xlink">
<g id="graph0" class="graph" transform="scale(1 1) rotate(0) translate(4 221)">
<title>userver/storages/mysql/cluster_host_type.hpp</title>
<!-- Node1 -->
<g id="Node000001" class="node">
<title>Node1</title>
<g id="a_Node000001"><a xlink:title=" ">
<polygon fill="#999999" stroke="#666666" points="141.5,-217 10.5,-217 10.5,-187 141.5,-187 141.5,-217"/>
<text text-anchor="start" x="18.5" y="-205" font-family="Helvetica,sans-Serif" font-size="10.00">userver/storages/mysql</text>
<text text-anchor="middle" x="76" y="-194" font-family="Helvetica,sans-Serif" font-size="10.00">/cluster_host_type.hpp</text>
</a>
</g>
</g>
<!-- Node2 -->
<g id="Node000002" class="node">
<title>Node2</title>
<g id="a_Node000002"><a xlink:href="../../d0/d3d/mysql_2include_2userver_2storages_2mysql_2cluster_8hpp.html" target="_top" xlink:title="Client interface for a cluster of MySQL servers. Usually retrieved from components::MySQL.">
<polygon fill="white" stroke="#666666" points="141.5,-85 10.5,-85 10.5,-55 141.5,-55 141.5,-85"/>
<text text-anchor="start" x="18.5" y="-73" font-family="Helvetica,sans-Serif" font-size="10.00">userver/storages/mysql</text>
<text text-anchor="middle" x="76" y="-62" font-family="Helvetica,sans-Serif" font-size="10.00">/cluster.hpp</text>
</a>
</g>
</g>
<!-- Node1&#45;&gt;Node2 -->
<g id="edge1_Node000001_Node000002" class="edge">
<title>Node1&#45;&gt;Node2</title>
<g id="a_edge1_Node000001_Node000002"><a xlink:title=" ">
<path fill="none" stroke="#63b8ff" d="M60.1,-178.36C55.22,-170.13 50.48,-160.51 48,-151 44.63,-138.1 44.63,-133.9 48,-121 51.42,-107.91 59.11,-94.61 65.56,-85.03"/>
<polygon fill="#63b8ff" stroke="#63b8ff" points="57.25,-180.4 65.56,-186.97 63.16,-176.65 57.25,-180.4"/>
</a>
</g>
</g>
<!-- Node4 -->
<g id="Node000004" class="node">
<title>Node4</title>
<g id="a_Node000004"><a xlink:href="../../de/d48/mysql_2include_2userver_2storages_2mysql_2transaction_8hpp.html" target="_top" xlink:title=" ">
<polygon fill="white" stroke="#666666" points="188.5,-151 57.5,-151 57.5,-121 188.5,-121 188.5,-151"/>
<text text-anchor="start" x="65.5" y="-139" font-family="Helvetica,sans-Serif" font-size="10.00">userver/storages/mysql</text>
<text text-anchor="middle" x="123" y="-128" font-family="Helvetica,sans-Serif" font-size="10.00">/transaction.hpp</text>
</a>
</g>
</g>
<!-- Node1&#45;&gt;Node4 -->
<g id="edge3_Node000001_Node000004" class="edge">
<title>Node1&#45;&gt;Node4</title>
<g id="a_edge3_Node000001_Node000004"><a xlink:title=" ">
<path fill="none" stroke="#63b8ff" d="M92.5,-178.53C99.19,-169.43 106.7,-159.19 112.6,-151.16"/>
<polygon fill="#63b8ff" stroke="#63b8ff" points="89.53,-176.66 86.43,-186.8 95.17,-180.81 89.53,-176.66"/>
</a>
</g>
</g>
<!-- Node3 -->
<g id="Node000003" class="node">
<title>Node3</title>
<g id="a_Node000003"><a xlink:href="../../dd/db6/mysql_8hpp.html" target="_top" xlink:title=" ">
<polygon fill="white" stroke="#666666" points="152,-19 0,-19 0,0 152,0 152,-19"/>
<text text-anchor="middle" x="76" y="-7" font-family="Helvetica,sans-Serif" font-size="10.00">userver/storages/mysql.hpp</text>
</a>
</g>
</g>
<!-- Node2&#45;&gt;Node3 -->
<g id="edge2_Node000002_Node000003" class="edge">
<title>Node2&#45;&gt;Node3</title>
<g id="a_edge2_Node000002_Node000003"><a xlink:title=" ">
<path fill="none" stroke="#63b8ff" d="M76,-44.75C76,-35.72 76,-26.03 76,-19.27"/>
<polygon fill="#63b8ff" stroke="#63b8ff" points="72.5,-44.84 76,-54.84 79.5,-44.84 72.5,-44.84"/>
</a>
</g>
</g>
<!-- Node4&#45;&gt;Node2 -->
<g id="edge4_Node000004_Node000002" class="edge">
<title>Node4&#45;&gt;Node2</title>
<g id="a_edge4_Node000004_Node000002"><a xlink:title=" ">
<path fill="none" stroke="#63b8ff" d="M106.5,-112.53C99.81,-103.43 92.3,-93.19 86.4,-85.16"/>
<polygon fill="#63b8ff" stroke="#63b8ff" points="103.83,-114.81 112.57,-120.8 109.47,-110.66 103.83,-114.81"/>
</a>
</g>
</g>
</g>
</svg>
