<?xml version="1.0" encoding="UTF-8" standalone="no"?>
<!DOCTYPE svg PUBLIC "-//W3C//DTD SVG 1.1//EN"
 "http://www.w3.org/Graphics/SVG/1.1/DTD/svg11.dtd">
<!-- Generated by graphviz version 2.43.0 (0)
 -->
<!-- Title: ugrpc::client::ResourceExhaustedError Pages: 1 -->
<svg width="187pt" height="269pt"
 viewBox="0.00 0.00 187.00 269.00" xmlns="http://www.w3.org/2000/svg" xmlns:xlink="http://www.w3.org/1999/xlink">
<g id="graph0" class="graph" transform="scale(1 1) rotate(0) translate(4 265)">
<title>ugrpc::client::ResourceExhaustedError</title>
<!-- Node1 -->
<g id="Node000001" class="node">
<title>Node1</title>
<g id="a_Node000001"><a xlink:title=" ">
<polygon fill="#999999" stroke="#666666" points="179,-30 0,-30 0,0 179,0 179,-30"/>
<text text-anchor="start" x="8" y="-18" font-family="Helvetica,sans-Serif" font-size="10.00">ugrpc::client::ResourceExhausted</text>
<text text-anchor="middle" x="89.5" y="-7" font-family="Helvetica,sans-Serif" font-size="10.00">Error</text>
</a>
</g>
</g>
<!-- Node2 -->
<g id="Node000002" class="node">
<title>Node2</title>
<g id="a_Node000002"><a xlink:href="../../d4/d7d/classugrpc_1_1client_1_1ErrorWithStatus.html" target="_top" xlink:title="Error with grpc::Status details.">
<polygon fill="white" stroke="#666666" points="153.5,-96 25.5,-96 25.5,-66 153.5,-66 153.5,-96"/>
<text text-anchor="start" x="33.5" y="-84" font-family="Helvetica,sans-Serif" font-size="10.00">ugrpc::client::ErrorWith</text>
<text text-anchor="middle" x="89.5" y="-73" font-family="Helvetica,sans-Serif" font-size="10.00">Status</text>
</a>
</g>
</g>
<!-- Node2&#45;&gt;Node1 -->
<g id="edge1_Node000001_Node000002" class="edge">
<title>Node2&#45;&gt;Node1</title>
<g id="a_edge1_Node000001_Node000002"><a xlink:title=" ">
<path fill="none" stroke="#63b8ff" d="M89.5,-55.54C89.5,-46.96 89.5,-37.61 89.5,-30.16"/>
<polygon fill="#63b8ff" stroke="#63b8ff" points="86,-55.8 89.5,-65.8 93,-55.8 86,-55.8"/>
</a>
</g>
</g>
<!-- Node3 -->
<g id="Node000003" class="node">
<title>Node3</title>
<g id="a_Node000003"><a xlink:href="../../d3/d28/classugrpc_1_1client_1_1RpcError.html" target="_top" xlink:title="Error during an RPC.">
<polygon fill="white" stroke="#666666" points="151.5,-151 27.5,-151 27.5,-132 151.5,-132 151.5,-151"/>
<text text-anchor="middle" x="89.5" y="-139" font-family="Helvetica,sans-Serif" font-size="10.00">ugrpc::client::RpcError</text>
</a>
</g>
</g>
<!-- Node3&#45;&gt;Node2 -->
<g id="edge2_Node000002_Node000003" class="edge">
<title>Node3&#45;&gt;Node2</title>
<g id="a_edge2_Node000002_Node000003"><a xlink:title=" ">
<path fill="none" stroke="#63b8ff" d="M89.5,-121.65C89.5,-113.36 89.5,-103.78 89.5,-96.11"/>
<polygon fill="#63b8ff" stroke="#63b8ff" points="86,-121.87 89.5,-131.87 93,-121.87 86,-121.87"/>
</a>
</g>
</g>
<!-- Node4 -->
<g id="Node000004" class="node">
<title>Node4</title>
<g id="a_Node000004"><a xlink:href="../../d3/d25/classugrpc_1_1client_1_1BaseError.html" target="_top" xlink:title="Base exception for all the client errors.">
<polygon fill="white" stroke="#666666" points="154.5,-206 24.5,-206 24.5,-187 154.5,-187 154.5,-206"/>
<text text-anchor="middle" x="89.5" y="-194" font-family="Helvetica,sans-Serif" font-size="10.00">ugrpc::client::BaseError</text>
</a>
</g>
</g>
<!-- Node4&#45;&gt;Node3 -->
<g id="edge3_Node000003_Node000004" class="edge">
<title>Node4&#45;&gt;Node3</title>
<g id="a_edge3_Node000003_Node000004"><a xlink:title=" ">
<path fill="none" stroke="#63b8ff" d="M89.5,-176.66C89.5,-167.93 89.5,-157.99 89.5,-151.09"/>
<polygon fill="#63b8ff" stroke="#63b8ff" points="86,-176.75 89.5,-186.75 93,-176.75 86,-176.75"/>
</a>
</g>
</g>
<!-- Node5 -->
<g id="Node000005" class="node">
<title>Node5</title>
<g id="a_Node000005"><a xlink:title=" ">
<polygon fill="white" stroke="#666666" points="132.5,-261 46.5,-261 46.5,-242 132.5,-242 132.5,-261"/>
<text text-anchor="middle" x="89.5" y="-249" font-family="Helvetica,sans-Serif" font-size="10.00">std::exception</text>
</a>
</g>
</g>
<!-- Node5&#45;&gt;Node4 -->
<g id="edge4_Node000004_Node000005" class="edge">
<title>Node5&#45;&gt;Node4</title>
<g id="a_edge4_Node000004_Node000005"><a xlink:title=" ">
<path fill="none" stroke="#63b8ff" d="M89.5,-231.66C89.5,-222.93 89.5,-212.99 89.5,-206.09"/>
<polygon fill="#63b8ff" stroke="#63b8ff" points="86,-231.75 89.5,-241.75 93,-231.75 86,-231.75"/>
</a>
</g>
</g>
</g>
</svg>
