<?xml version="1.0" encoding="UTF-8" standalone="no"?>
<!DOCTYPE svg PUBLIC "-//W3C//DTD SVG 1.1//EN"
 "http://www.w3.org/Graphics/SVG/1.1/DTD/svg11.dtd">
<!-- Generated by graphviz version 2.43.0 (0)
 -->
<!-- Title: userver/http/parser/http_request_parse_args.hpp Pages: 1 -->
<svg width="455pt" height="159pt"
 viewBox="0.00 0.00 455.00 159.00" xmlns="http://www.w3.org/2000/svg" xmlns:xlink="http://www.w3.org/1999/xlink">
<g id="graph0" class="graph" transform="scale(1 1) rotate(0) translate(4 155)">
<title>userver/http/parser/http_request_parse_args.hpp</title>
<!-- Node1 -->
<g id="Node000001" class="node">
<title>Node1</title>
<g id="a_Node000001"><a xlink:title="Strict URL arguments parsing.">
<polygon fill="#999999" stroke="#666666" points="225,-151 112,-151 112,-110 225,-110 225,-151"/>
<text text-anchor="start" x="120" y="-139" font-family="Helvetica,sans-Serif" font-size="10.00">userver/http/parser</text>
<text text-anchor="start" x="120" y="-128" font-family="Helvetica,sans-Serif" font-size="10.00">/http_request_parse</text>
<text text-anchor="middle" x="168.5" y="-117" font-family="Helvetica,sans-Serif" font-size="10.00">_args.hpp</text>
</a>
</g>
</g>
<!-- Node2 -->
<g id="Node000002" class="node">
<title>Node2</title>
<g id="a_Node000002"><a xlink:title=" ">
<polygon fill="#e0e0e0" stroke="#999999" points="65,-74 0,-74 0,-55 65,-55 65,-74"/>
<text text-anchor="middle" x="32.5" y="-62" font-family="Helvetica,sans-Serif" font-size="10.00">functional</text>
</a>
</g>
</g>
<!-- Node1&#45;&gt;Node2 -->
<g id="edge1_Node000001_Node000002" class="edge">
<title>Node1&#45;&gt;Node2</title>
<g id="a_edge1_Node000001_Node000002"><a xlink:title=" ">
<path fill="none" stroke="#63b8ff" d="M126.96,-109.95C105.17,-99.7 79.09,-87.43 59.86,-78.38"/>
<polygon fill="#63b8ff" stroke="#63b8ff" points="61.3,-75.18 50.76,-74.09 58.32,-81.52 61.3,-75.18"/>
</a>
</g>
</g>
<!-- Node3 -->
<g id="Node000003" class="node">
<title>Node3</title>
<g id="a_Node000003"><a xlink:title=" ">
<polygon fill="#e0e0e0" stroke="#999999" points="221.5,-19 177.5,-19 177.5,0 221.5,0 221.5,-19"/>
<text text-anchor="middle" x="199.5" y="-7" font-family="Helvetica,sans-Serif" font-size="10.00">string</text>
</a>
</g>
</g>
<!-- Node1&#45;&gt;Node3 -->
<g id="edge2_Node000001_Node000003" class="edge">
<title>Node1&#45;&gt;Node3</title>
<g id="a_edge2_Node000001_Node000003"><a xlink:title=" ">
<path fill="none" stroke="#63b8ff" d="M137.94,-110C119.05,-95.38 100.51,-74.6 112.5,-55 124.41,-35.53 147.83,-24.23 167.38,-17.9"/>
<polygon fill="#63b8ff" stroke="#63b8ff" points="168.56,-21.2 177.16,-15.02 166.58,-14.48 168.56,-21.2"/>
</a>
</g>
</g>
<!-- Node4 -->
<g id="Node000004" class="node">
<title>Node4</title>
<g id="a_Node000004"><a xlink:title=" ">
<polygon fill="#e0e0e0" stroke="#999999" points="215,-74 122,-74 122,-55 215,-55 215,-74"/>
<text text-anchor="middle" x="168.5" y="-62" font-family="Helvetica,sans-Serif" font-size="10.00">unordered_map</text>
</a>
</g>
</g>
<!-- Node1&#45;&gt;Node4 -->
<g id="edge3_Node000001_Node000004" class="edge">
<title>Node1&#45;&gt;Node4</title>
<g id="a_edge3_Node000001_Node000004"><a xlink:title=" ">
<path fill="none" stroke="#63b8ff" d="M168.5,-109.95C168.5,-101.85 168.5,-92.5 168.5,-84.47"/>
<polygon fill="#63b8ff" stroke="#63b8ff" points="172,-84.26 168.5,-74.26 165,-84.26 172,-84.26"/>
</a>
</g>
</g>
<!-- Node5 -->
<g id="Node000005" class="node">
<title>Node5</title>
<g id="a_Node000005"><a xlink:title=" ">
<polygon fill="#e0e0e0" stroke="#999999" points="280,-74 233,-74 233,-55 280,-55 280,-74"/>
<text text-anchor="middle" x="256.5" y="-62" font-family="Helvetica,sans-Serif" font-size="10.00">vector</text>
</a>
</g>
</g>
<!-- Node1&#45;&gt;Node5 -->
<g id="edge4_Node000001_Node000005" class="edge">
<title>Node1&#45;&gt;Node5</title>
<g id="a_edge4_Node000001_Node000005"><a xlink:title=" ">
<path fill="none" stroke="#63b8ff" d="M195.38,-109.95C208.56,-100.37 224.16,-89.02 236.31,-80.19"/>
<polygon fill="#63b8ff" stroke="#63b8ff" points="238.43,-82.97 244.45,-74.26 234.31,-77.31 238.43,-82.97"/>
</a>
</g>
</g>
<!-- Node6 -->
<g id="Node000006" class="node">
<title>Node6</title>
<g id="a_Node000006"><a xlink:href="../../d1/d46/str__icase_8hpp.html" target="_top" xlink:title="Case insensitive ASCII comparators and hashers.">
<polygon fill="white" stroke="#666666" points="443,-74 298,-74 298,-55 443,-55 443,-74"/>
<text text-anchor="middle" x="370.5" y="-62" font-family="Helvetica,sans-Serif" font-size="10.00">userver/utils/str_icase.hpp</text>
</a>
</g>
</g>
<!-- Node1&#45;&gt;Node6 -->
<g id="edge5_Node000001_Node000006" class="edge">
<title>Node1&#45;&gt;Node6</title>
<g id="a_edge5_Node000001_Node000006"><a xlink:title=" ">
<path fill="none" stroke="#63b8ff" d="M225.04,-111.59C259.85,-100.56 303.47,-86.74 333.82,-77.12"/>
<polygon fill="#63b8ff" stroke="#63b8ff" points="335.1,-80.39 343.57,-74.03 332.98,-73.72 335.1,-80.39"/>
</a>
</g>
</g>
<!-- Node6&#45;&gt;Node3 -->
<g id="edge7_Node000006_Node000003" class="edge">
<title>Node6&#45;&gt;Node3</title>
<g id="a_edge7_Node000006_Node000003"><a xlink:title=" ">
<path fill="none" stroke="#63b8ff" d="M343.03,-54.98C312.61,-45.56 263.65,-30.38 231.53,-20.43"/>
<polygon fill="#63b8ff" stroke="#63b8ff" points="232.32,-17.01 221.73,-17.39 230.25,-23.69 232.32,-17.01"/>
</a>
</g>
</g>
<!-- Node7 -->
<g id="Node000007" class="node">
<title>Node7</title>
<g id="a_Node000007"><a xlink:title=" ">
<polygon fill="#e0e0e0" stroke="#999999" points="355.5,-19 305.5,-19 305.5,0 355.5,0 355.5,-19"/>
<text text-anchor="middle" x="330.5" y="-7" font-family="Helvetica,sans-Serif" font-size="10.00">cstdint</text>
</a>
</g>
</g>
<!-- Node6&#45;&gt;Node7 -->
<g id="edge6_Node000006_Node000007" class="edge">
<title>Node6&#45;&gt;Node7</title>
<g id="a_edge6_Node000006_Node000007"><a xlink:title=" ">
<path fill="none" stroke="#63b8ff" d="M363.89,-54.75C358.24,-47.26 349.96,-36.28 343.05,-27.13"/>
<polygon fill="#63b8ff" stroke="#63b8ff" points="345.8,-24.96 336.98,-19.09 340.21,-29.18 345.8,-24.96"/>
</a>
</g>
</g>
<!-- Node8 -->
<g id="Node000008" class="node">
<title>Node8</title>
<g id="a_Node000008"><a xlink:title=" ">
<polygon fill="#e0e0e0" stroke="#999999" points="447,-19 374,-19 374,0 447,0 447,-19"/>
<text text-anchor="middle" x="410.5" y="-7" font-family="Helvetica,sans-Serif" font-size="10.00">string_view</text>
</a>
</g>
</g>
<!-- Node6&#45;&gt;Node8 -->
<g id="edge8_Node000006_Node000008" class="edge">
<title>Node6&#45;&gt;Node8</title>
<g id="a_edge8_Node000006_Node000008"><a xlink:title=" ">
<path fill="none" stroke="#63b8ff" d="M377.11,-54.75C382.76,-47.26 391.04,-36.28 397.95,-27.13"/>
<polygon fill="#63b8ff" stroke="#63b8ff" points="400.79,-29.18 404.02,-19.09 395.2,-24.96 400.79,-29.18"/>
</a>
</g>
</g>
</g>
</svg>
