<?xml version="1.0" encoding="UTF-8" standalone="no"?>
<!DOCTYPE svg PUBLIC "-//W3C//DTD SVG 1.1//EN"
 "http://www.w3.org/Graphics/SVG/1.1/DTD/svg11.dtd">
<!-- Generated by graphviz version 2.43.0 (0)
 -->
<!-- Title: components::CachingComponentBase&lt; T &gt; Pages: 1 -->
<svg width="370pt" height="148pt"
 viewBox="0.00 0.00 370.00 148.00" xmlns="http://www.w3.org/2000/svg" xmlns:xlink="http://www.w3.org/1999/xlink">
<g id="graph0" class="graph" transform="scale(1 1) rotate(0) translate(4 144)">
<title>components::CachingComponentBase&lt; T &gt;</title>
<!-- Node1 -->
<g id="Node000001" class="node">
<title>Node1</title>
<g id="a_Node000001"><a xlink:title="Base class for caching components.">
<polygon fill="#999999" stroke="#666666" points="287.5,-30 109.5,-30 109.5,0 287.5,0 287.5,-30"/>
<text text-anchor="start" x="117.5" y="-18" font-family="Helvetica,sans-Serif" font-size="10.00">components::CachingComponent</text>
<text text-anchor="middle" x="198.5" y="-7" font-family="Helvetica,sans-Serif" font-size="10.00">Base&lt; T &gt;</text>
</a>
</g>
</g>
<!-- Node2 -->
<g id="Node000002" class="node">
<title>Node2</title>
<g id="a_Node000002"><a xlink:href="../../d5/d69/classcomponents_1_1LoggableComponentBase.html" target="_top" xlink:title="Base class for all application components, it depends on components::Logger and components::Tracer.">
<polygon fill="white" stroke="#666666" points="207,-85 0,-85 0,-66 207,-66 207,-85"/>
<text text-anchor="middle" x="103.5" y="-73" font-family="Helvetica,sans-Serif" font-size="10.00">components::LoggableComponentBase</text>
</a>
</g>
</g>
<!-- Node2&#45;&gt;Node1 -->
<g id="edge1_Node000001_Node000002" class="edge">
<title>Node2&#45;&gt;Node1</title>
<g id="a_edge1_Node000001_Node000002"><a xlink:title=" ">
<path fill="none" stroke="#63b8ff" d="M126.15,-60.55C141.08,-51.36 160.59,-39.35 175.58,-30.11"/>
<polygon fill="#63b8ff" stroke="#63b8ff" points="124.2,-57.64 117.52,-65.87 127.87,-63.6 124.2,-57.64"/>
</a>
</g>
</g>
<!-- Node3 -->
<g id="Node000003" class="node">
<title>Node3</title>
<g id="a_Node000003"><a xlink:title=" ">
<polygon fill="white" stroke="#666666" points="199,-140 8,-140 8,-121 199,-121 199,-140"/>
<text text-anchor="middle" x="103.5" y="-128" font-family="Helvetica,sans-Serif" font-size="10.00">components::impl::ComponentBase</text>
</a>
</g>
</g>
<!-- Node3&#45;&gt;Node2 -->
<g id="edge2_Node000002_Node000003" class="edge">
<title>Node3&#45;&gt;Node2</title>
<g id="a_edge2_Node000002_Node000003"><a xlink:title=" ">
<path fill="none" stroke="#63b8ff" d="M103.5,-110.66C103.5,-101.93 103.5,-91.99 103.5,-85.09"/>
<polygon fill="#63b8ff" stroke="#63b8ff" points="100,-110.75 103.5,-120.75 107,-110.75 100,-110.75"/>
</a>
</g>
</g>
<!-- Node4 -->
<g id="Node000004" class="node">
<title>Node4</title>
<g id="a_Node000004"><a xlink:href="../../da/df8/classcache_1_1CacheUpdateTrait.html" target="_top" xlink:title="Base class for periodically updated caches.">
<polygon fill="white" stroke="#666666" points="362,-85 225,-85 225,-66 362,-66 362,-85"/>
<text text-anchor="middle" x="293.5" y="-73" font-family="Helvetica,sans-Serif" font-size="10.00">cache::CacheUpdateTrait</text>
</a>
</g>
</g>
<!-- Node4&#45;&gt;Node1 -->
<g id="edge3_Node000001_Node000004" class="edge">
<title>Node4&#45;&gt;Node1</title>
<g id="a_edge3_Node000001_Node000004"><a xlink:title=" ">
<path fill="none" stroke="darkgreen" d="M270.85,-60.55C255.92,-51.36 236.41,-39.35 221.42,-30.11"/>
<polygon fill="darkgreen" stroke="darkgreen" points="269.13,-63.6 279.48,-65.87 272.8,-57.64 269.13,-63.6"/>
</a>
</g>
</g>
</g>
</svg>
