<?xml version="1.0" encoding="UTF-8" standalone="no"?>
<!DOCTYPE svg PUBLIC "-//W3C//DTD SVG 1.1//EN"
 "http://www.w3.org/Graphics/SVG/1.1/DTD/svg11.dtd">
<!-- Generated by graphviz version 2.43.0 (0)
 -->
<!-- Title: userver/storages/redis/command_control.hpp Pages: 1 -->
<svg width="474pt" height="159pt"
 viewBox="0.00 0.00 473.50 159.00" xmlns="http://www.w3.org/2000/svg" xmlns:xlink="http://www.w3.org/1999/xlink">
<g id="graph0" class="graph" transform="scale(1 1) rotate(0) translate(4 155)">
<title>userver/storages/redis/command_control.hpp</title>
<!-- Node1 -->
<g id="Node000001" class="node">
<title>Node1</title>
<g id="a_Node000001"><a xlink:title="Redis command execution options.">
<polygon fill="#999999" stroke="#666666" points="260,-151 132,-151 132,-121 260,-121 260,-151"/>
<text text-anchor="start" x="140" y="-139" font-family="Helvetica,sans-Serif" font-size="10.00">userver/storages/redis</text>
<text text-anchor="middle" x="196" y="-128" font-family="Helvetica,sans-Serif" font-size="10.00">/command_control.hpp</text>
</a>
</g>
</g>
<!-- Node2 -->
<g id="Node000002" class="node">
<title>Node2</title>
<g id="a_Node000002"><a xlink:title=" ">
<polygon fill="#e0e0e0" stroke="#999999" points="50,-79.5 0,-79.5 0,-60.5 50,-60.5 50,-79.5"/>
<text text-anchor="middle" x="25" y="-67.5" font-family="Helvetica,sans-Serif" font-size="10.00">atomic</text>
</a>
</g>
</g>
<!-- Node1&#45;&gt;Node2 -->
<g id="edge1_Node000001_Node000002" class="edge">
<title>Node1&#45;&gt;Node2</title>
<g id="a_edge1_Node000001_Node000002"><a xlink:title=" ">
<path fill="none" stroke="#63b8ff" d="M156.27,-120.98C128.84,-111.19 91.57,-97.64 59,-85 57.62,-84.47 56.22,-83.91 54.8,-83.35"/>
<polygon fill="#63b8ff" stroke="#63b8ff" points="56.03,-80.07 45.44,-79.57 53.41,-86.56 56.03,-80.07"/>
</a>
</g>
</g>
<!-- Node3 -->
<g id="Node000003" class="node">
<title>Node3</title>
<g id="a_Node000003"><a xlink:title=" ">
<polygon fill="#e0e0e0" stroke="#999999" points="118,-79.5 68,-79.5 68,-60.5 118,-60.5 118,-79.5"/>
<text text-anchor="middle" x="93" y="-67.5" font-family="Helvetica,sans-Serif" font-size="10.00">chrono</text>
</a>
</g>
</g>
<!-- Node1&#45;&gt;Node3 -->
<g id="edge2_Node000001_Node000003" class="edge">
<title>Node1&#45;&gt;Node3</title>
<g id="a_edge2_Node000001_Node000003"><a xlink:title=" ">
<path fill="none" stroke="#63b8ff" d="M173.4,-120.95C156.21,-110.27 132.67,-95.65 115.51,-84.98"/>
<polygon fill="#63b8ff" stroke="#63b8ff" points="117.05,-81.82 106.71,-79.52 113.35,-87.77 117.05,-81.82"/>
</a>
</g>
</g>
<!-- Node4 -->
<g id="Node000004" class="node">
<title>Node4</title>
<g id="a_Node000004"><a xlink:title=" ">
<polygon fill="#e0e0e0" stroke="#999999" points="186,-79.5 136,-79.5 136,-60.5 186,-60.5 186,-79.5"/>
<text text-anchor="middle" x="161" y="-67.5" font-family="Helvetica,sans-Serif" font-size="10.00">cstdint</text>
</a>
</g>
</g>
<!-- Node1&#45;&gt;Node4 -->
<g id="edge3_Node000001_Node000004" class="edge">
<title>Node1&#45;&gt;Node4</title>
<g id="a_edge3_Node000001_Node000004"><a xlink:title=" ">
<path fill="none" stroke="#63b8ff" d="M188.23,-120.8C183.04,-111.31 176.18,-98.76 170.64,-88.63"/>
<polygon fill="#63b8ff" stroke="#63b8ff" points="173.71,-86.94 165.84,-79.84 167.56,-90.3 173.71,-86.94"/>
</a>
</g>
</g>
<!-- Node5 -->
<g id="Node000005" class="node">
<title>Node5</title>
<g id="a_Node000005"><a xlink:title=" ">
<polygon fill="#e0e0e0" stroke="#999999" points="260,-79.5 204,-79.5 204,-60.5 260,-60.5 260,-79.5"/>
<text text-anchor="middle" x="232" y="-67.5" font-family="Helvetica,sans-Serif" font-size="10.00">optional</text>
</a>
</g>
</g>
<!-- Node1&#45;&gt;Node5 -->
<g id="edge4_Node000001_Node000005" class="edge">
<title>Node1&#45;&gt;Node5</title>
<g id="a_edge4_Node000001_Node000005"><a xlink:title=" ">
<path fill="none" stroke="#63b8ff" d="M203.99,-120.8C209.33,-111.31 216.39,-98.76 222.08,-88.63"/>
<polygon fill="#63b8ff" stroke="#63b8ff" points="225.17,-90.28 227.03,-79.84 219.07,-86.84 225.17,-90.28"/>
</a>
</g>
</g>
<!-- Node6 -->
<g id="Node000006" class="node">
<title>Node6</title>
<g id="a_Node000006"><a xlink:title=" ">
<polygon fill="#e0e0e0" stroke="#999999" points="322,-79.5 278,-79.5 278,-60.5 322,-60.5 322,-79.5"/>
<text text-anchor="middle" x="300" y="-67.5" font-family="Helvetica,sans-Serif" font-size="10.00">string</text>
</a>
</g>
</g>
<!-- Node1&#45;&gt;Node6 -->
<g id="edge5_Node000001_Node000006" class="edge">
<title>Node1&#45;&gt;Node6</title>
<g id="a_edge5_Node000001_Node000006"><a xlink:title=" ">
<path fill="none" stroke="#63b8ff" d="M218.82,-120.95C236.18,-110.27 259.94,-95.65 277.27,-84.98"/>
<polygon fill="#63b8ff" stroke="#63b8ff" points="279.48,-87.74 286.16,-79.52 275.81,-81.78 279.48,-87.74"/>
</a>
</g>
</g>
<!-- Node7 -->
<g id="Node000007" class="node">
<title>Node7</title>
<g id="a_Node000007"><a xlink:href="../../d0/d28/redis_2include_2userver_2storages_2redis_2impl_2types_8hpp_source.html" target="_top" xlink:title=" ">
<polygon fill="white" stroke="#666666" points="465.5,-85 340.5,-85 340.5,-55 465.5,-55 465.5,-85"/>
<text text-anchor="start" x="348.5" y="-73" font-family="Helvetica,sans-Serif" font-size="10.00">userver/storages/redis</text>
<text text-anchor="middle" x="403" y="-62" font-family="Helvetica,sans-Serif" font-size="10.00">/impl/types.hpp</text>
</a>
</g>
</g>
<!-- Node1&#45;&gt;Node7 -->
<g id="edge6_Node000001_Node000007" class="edge">
<title>Node1&#45;&gt;Node7</title>
<g id="a_edge6_Node000001_Node000007"><a xlink:title=" ">
<path fill="none" stroke="#63b8ff" d="M241.43,-120.95C272.84,-111.24 314.8,-98.27 348.09,-87.98"/>
<polygon fill="#63b8ff" stroke="#63b8ff" points="349.16,-91.31 357.68,-85.01 347.09,-84.62 349.16,-91.31"/>
</a>
</g>
</g>
<!-- Node8 -->
<g id="Node000008" class="node">
<title>Node8</title>
<g id="a_Node000008"><a xlink:title=" ">
<polygon fill="#e0e0e0" stroke="#999999" points="432,-19 374,-19 374,0 432,0 432,-19"/>
<text text-anchor="middle" x="403" y="-7" font-family="Helvetica,sans-Serif" font-size="10.00">memory</text>
</a>
</g>
</g>
<!-- Node7&#45;&gt;Node8 -->
<g id="edge7_Node000007_Node000008" class="edge">
<title>Node7&#45;&gt;Node8</title>
<g id="a_edge7_Node000007_Node000008"><a xlink:title=" ">
<path fill="none" stroke="#63b8ff" d="M403,-54.84C403,-47.21 403,-37.7 403,-29.45"/>
<polygon fill="#63b8ff" stroke="#63b8ff" points="406.5,-29.27 403,-19.27 399.5,-29.27 406.5,-29.27"/>
</a>
</g>
</g>
</g>
</svg>
