<?xml version="1.0" encoding="UTF-8" standalone="no"?>
<!DOCTYPE svg PUBLIC "-//W3C//DTD SVG 1.1//EN"
 "http://www.w3.org/Graphics/SVG/1.1/DTD/svg11.dtd">
<!-- Generated by graphviz version 2.43.0 (0)
 -->
<!-- Title: ugrpc::server::ServiceComponentBase Pages: 1 -->
<svg width="211pt" height="214pt"
 viewBox="0.00 0.00 211.00 214.00" xmlns="http://www.w3.org/2000/svg" xmlns:xlink="http://www.w3.org/1999/xlink">
<g id="graph0" class="graph" transform="scale(1 1) rotate(0) translate(4 210)">
<title>ugrpc::server::ServiceComponentBase</title>
<!-- Node1 -->
<g id="Node000001" class="node">
<title>Node1</title>
<g id="a_Node000001"><a xlink:title="Base class for all the gRPC service components.">
<polygon fill="#999999" stroke="#666666" points="203,-96 0,-96 0,-77 203,-77 203,-96"/>
<text text-anchor="middle" x="101.5" y="-84" font-family="Helvetica,sans-Serif" font-size="10.00">ugrpc::server::ServiceComponentBase</text>
</a>
</g>
</g>
<!-- Node4 -->
<g id="Node000004" class="node">
<title>Node4</title>
<g id="a_Node000004"><a xlink:title=" ">
<polygon fill="white" stroke="#bfbfbf" points="171,-41 32,-41 32,0 171,0 171,-41"/>
<text text-anchor="start" x="40" y="-29" font-family="Helvetica,sans-Serif" font-size="10.00">ugrpc::server::impl</text>
<text text-anchor="start" x="40" y="-18" font-family="Helvetica,sans-Serif" font-size="10.00">::ServiceComponentBase</text>
<text text-anchor="middle" x="101.5" y="-7" font-family="Helvetica,sans-Serif" font-size="10.00">&lt; ServiceInterface &gt;</text>
</a>
</g>
</g>
<!-- Node1&#45;&gt;Node4 -->
<g id="edge3_Node000001_Node000004" class="edge">
<title>Node1&#45;&gt;Node4</title>
<g id="a_edge3_Node000001_Node000004"><a xlink:title=" ">
<path fill="none" stroke="#63b8ff" d="M101.5,-66.63C101.5,-58.56 101.5,-49.15 101.5,-41.01"/>
<polygon fill="#63b8ff" stroke="#63b8ff" points="98,-66.87 101.5,-76.87 105,-66.87 98,-66.87"/>
</a>
</g>
</g>
<!-- Node2 -->
<g id="Node000002" class="node">
<title>Node2</title>
<g id="a_Node000002"><a xlink:href="../../d7/db4/classcomponents_1_1ComponentBase.html" target="_top" xlink:title="Base class for all application components, it depends on components::Logger and components::Tracer.">
<polygon fill="white" stroke="#666666" points="183,-151 20,-151 20,-132 183,-132 183,-151"/>
<text text-anchor="middle" x="101.5" y="-139" font-family="Helvetica,sans-Serif" font-size="10.00">components::ComponentBase</text>
</a>
</g>
</g>
<!-- Node2&#45;&gt;Node1 -->
<g id="edge1_Node000001_Node000002" class="edge">
<title>Node2&#45;&gt;Node1</title>
<g id="a_edge1_Node000001_Node000002"><a xlink:title=" ">
<path fill="none" stroke="#63b8ff" d="M101.5,-121.66C101.5,-112.93 101.5,-102.99 101.5,-96.09"/>
<polygon fill="#63b8ff" stroke="#63b8ff" points="98,-121.75 101.5,-131.75 105,-121.75 98,-121.75"/>
</a>
</g>
</g>
<!-- Node3 -->
<g id="Node000003" class="node">
<title>Node3</title>
<g id="a_Node000003"><a xlink:href="../../d2/d86/classcomponents_1_1RawComponentBase.html" target="_top" xlink:title="The base class for all components. Don&#39;t use it for application components, use ComponentBase instead...">
<polygon fill="white" stroke="#666666" points="193.5,-206 9.5,-206 9.5,-187 193.5,-187 193.5,-206"/>
<text text-anchor="middle" x="101.5" y="-194" font-family="Helvetica,sans-Serif" font-size="10.00">components::RawComponentBase</text>
</a>
</g>
</g>
<!-- Node3&#45;&gt;Node2 -->
<g id="edge2_Node000002_Node000003" class="edge">
<title>Node3&#45;&gt;Node2</title>
<g id="a_edge2_Node000002_Node000003"><a xlink:title=" ">
<path fill="none" stroke="#63b8ff" d="M101.5,-176.66C101.5,-167.93 101.5,-157.99 101.5,-151.09"/>
<polygon fill="#63b8ff" stroke="#63b8ff" points="98,-176.75 101.5,-186.75 105,-176.75 98,-176.75"/>
</a>
</g>
</g>
</g>
</svg>
