<?xml version="1.0" encoding="UTF-8" standalone="no"?>
<!DOCTYPE svg PUBLIC "-//W3C//DTD SVG 1.1//EN"
 "http://www.w3.org/Graphics/SVG/1.1/DTD/svg11.dtd">
<!-- Generated by graphviz version 2.43.0 (0)
 -->
<!-- Title: storages::postgres::io::traits::IsSuitableRowType&lt; ::utils::StrongTypedef&lt; Tag, T, Ops, Enable &gt; &gt; Pages: 1 -->
<svg width="161pt" height="214pt"
 viewBox="0.00 0.00 161.00 214.00" xmlns="http://www.w3.org/2000/svg" xmlns:xlink="http://www.w3.org/1999/xlink">
<g id="graph0" class="graph" transform="scale(1 1) rotate(0) translate(4 210)">
<title>storages::postgres::io::traits::IsSuitableRowType&lt; ::utils::StrongTypedef&lt; Tag, T, Ops, Enable &gt; &gt;</title>
<!-- Node1 -->
<g id="Node000001" class="node">
<title>Node1</title>
<g id="a_Node000001"><a xlink:title=" ">
<polygon fill="#999999" stroke="#666666" points="153,-52 0,-52 0,0 153,0 153,-52"/>
<text text-anchor="start" x="8" y="-40" font-family="Helvetica,sans-Serif" font-size="10.00">storages::postgres</text>
<text text-anchor="start" x="8" y="-29" font-family="Helvetica,sans-Serif" font-size="10.00">::io::traits::IsSuitableRow</text>
<text text-anchor="start" x="8" y="-18" font-family="Helvetica,sans-Serif" font-size="10.00">Type&lt; ::utils::StrongTypedef</text>
<text text-anchor="middle" x="76.5" y="-7" font-family="Helvetica,sans-Serif" font-size="10.00">&lt; Tag, T, Ops, Enable &gt; &gt;</text>
</a>
</g>
</g>
<!-- Node2 -->
<g id="Node000002" class="node">
<title>Node2</title>
<g id="a_Node000002"><a xlink:href="../../d0/d22/structstorages_1_1postgres_1_1io_1_1traits_1_1IsSuitableRowType.html" target="_top" xlink:title=" ">
<polygon fill="white" stroke="#bfbfbf" points="145.5,-129 7.5,-129 7.5,-88 145.5,-88 145.5,-129"/>
<text text-anchor="start" x="15.5" y="-117" font-family="Helvetica,sans-Serif" font-size="10.00">storages::postgres</text>
<text text-anchor="start" x="15.5" y="-106" font-family="Helvetica,sans-Serif" font-size="10.00">::io::traits::IsSuitableRow</text>
<text text-anchor="middle" x="76.5" y="-95" font-family="Helvetica,sans-Serif" font-size="10.00">Type&lt; T &gt;</text>
</a>
</g>
</g>
<!-- Node2&#45;&gt;Node1 -->
<g id="edge1_Node000001_Node000002" class="edge">
<title>Node2&#45;&gt;Node1</title>
<g id="a_edge1_Node000001_Node000002"><a xlink:title=" ">
<path fill="none" stroke="#63b8ff" d="M76.5,-77.49C76.5,-69.15 76.5,-60.19 76.5,-52.16"/>
<polygon fill="#63b8ff" stroke="#63b8ff" points="73,-77.6 76.5,-87.6 80,-77.6 73,-77.6"/>
</a>
</g>
</g>
<!-- Node3 -->
<g id="Node000003" class="node">
<title>Node3</title>
<g id="a_Node000003"><a xlink:title=" ">
<polygon fill="white" stroke="#bfbfbf" points="149.5,-206 3.5,-206 3.5,-165 149.5,-165 149.5,-206"/>
<text text-anchor="start" x="11.5" y="-194" font-family="Helvetica,sans-Serif" font-size="10.00">BoolConstant&lt; detail</text>
<text text-anchor="start" x="11.5" y="-183" font-family="Helvetica,sans-Serif" font-size="10.00">::DetectIsSuitableRowType</text>
<text text-anchor="middle" x="76.5" y="-172" font-family="Helvetica,sans-Serif" font-size="10.00">&lt; T &gt;()&gt;</text>
</a>
</g>
</g>
<!-- Node3&#45;&gt;Node2 -->
<g id="edge2_Node000002_Node000003" class="edge">
<title>Node3&#45;&gt;Node2</title>
<g id="a_edge2_Node000002_Node000003"><a xlink:title=" ">
<path fill="none" stroke="#63b8ff" d="M76.5,-154.69C76.5,-146.08 76.5,-136.9 76.5,-129.07"/>
<polygon fill="#63b8ff" stroke="#63b8ff" points="73,-154.79 76.5,-164.79 80,-154.79 73,-154.79"/>
</a>
</g>
</g>
</g>
</svg>
