<?xml version="1.0" encoding="UTF-8" standalone="no"?>
<!DOCTYPE svg PUBLIC "-//W3C//DTD SVG 1.1//EN"
 "http://www.w3.org/Graphics/SVG/1.1/DTD/svg11.dtd">
<!-- Generated by graphviz version 2.43.0 (0)
 -->
<!-- Title: userver/formats/serialize/time_of_day.hpp Pages: 1 -->
<svg width="720pt" height="214pt"
 viewBox="0.00 0.00 720.00 214.00" xmlns="http://www.w3.org/2000/svg" xmlns:xlink="http://www.w3.org/1999/xlink">
<g id="graph0" class="graph" transform="scale(1 1) rotate(0) translate(4 210)">
<title>userver/formats/serialize/time_of_day.hpp</title>
<!-- Node1 -->
<g id="Node000001" class="node">
<title>Node1</title>
<g id="a_Node000001"><a xlink:title="utils::datetime::TimeOfDay to any format">
<polygon fill="#999999" stroke="#666666" points="334,-206 195,-206 195,-176 334,-176 334,-206"/>
<text text-anchor="start" x="203" y="-194" font-family="Helvetica,sans-Serif" font-size="10.00">userver/formats/serialize</text>
<text text-anchor="middle" x="264.5" y="-183" font-family="Helvetica,sans-Serif" font-size="10.00">/time_of_day.hpp</text>
</a>
</g>
</g>
<!-- Node2 -->
<g id="Node000002" class="node">
<title>Node2</title>
<g id="a_Node000002"><a xlink:title=" ">
<polygon fill="#e0e0e0" stroke="#999999" points="79,-74 0,-74 0,-55 79,-55 79,-74"/>
<text text-anchor="middle" x="39.5" y="-62" font-family="Helvetica,sans-Serif" font-size="10.00">fmt/format.h</text>
</a>
</g>
</g>
<!-- Node1&#45;&gt;Node2 -->
<g id="edge1_Node000001_Node000002" class="edge">
<title>Node1&#45;&gt;Node2</title>
<g id="a_edge1_Node000001_Node000002"><a xlink:title=" ">
<path fill="none" stroke="#63b8ff" d="M239.13,-175.96C195.53,-151.84 106.97,-102.83 63.99,-79.05"/>
<polygon fill="#63b8ff" stroke="#63b8ff" points="65.5,-75.89 55.06,-74.11 62.11,-82.01 65.5,-75.89"/>
</a>
</g>
</g>
<!-- Node3 -->
<g id="Node000003" class="node">
<title>Node3</title>
<g id="a_Node000003"><a xlink:href="../../d1/d65/universal_2include_2userver_2utils_2time__of__day_8hpp.html" target="_top" xlink:title="A simple implementation of a &quot;time since midnight&quot; datatype.">
<polygon fill="white" stroke="#666666" points="316,-140 213,-140 213,-110 316,-110 316,-140"/>
<text text-anchor="start" x="221" y="-128" font-family="Helvetica,sans-Serif" font-size="10.00">userver/utils/time</text>
<text text-anchor="middle" x="264.5" y="-117" font-family="Helvetica,sans-Serif" font-size="10.00">_of_day.hpp</text>
</a>
</g>
</g>
<!-- Node1&#45;&gt;Node3 -->
<g id="edge2_Node000001_Node000003" class="edge">
<title>Node1&#45;&gt;Node3</title>
<g id="a_edge2_Node000001_Node000003"><a xlink:title=" ">
<path fill="none" stroke="#63b8ff" d="M264.5,-175.8C264.5,-168.34 264.5,-158.99 264.5,-150.41"/>
<polygon fill="#63b8ff" stroke="#63b8ff" points="268,-150.16 264.5,-140.16 261,-150.16 268,-150.16"/>
</a>
</g>
</g>
<!-- Node12 -->
<g id="Node000012" class="node">
<title>Node12</title>
<g id="a_Node000012"><a xlink:href="../../d6/d8e/universal_2include_2userver_2formats_2serialize_2to_8hpp.html" target="_top" xlink:title="Helper for serializers.">
<polygon fill="white" stroke="#666666" points="473,-140 334,-140 334,-110 473,-110 473,-140"/>
<text text-anchor="start" x="342" y="-128" font-family="Helvetica,sans-Serif" font-size="10.00">userver/formats/serialize</text>
<text text-anchor="middle" x="403.5" y="-117" font-family="Helvetica,sans-Serif" font-size="10.00">/to.hpp</text>
</a>
</g>
</g>
<!-- Node1&#45;&gt;Node12 -->
<g id="edge12_Node000001_Node000012" class="edge">
<title>Node1&#45;&gt;Node12</title>
<g id="a_edge12_Node000001_Node000012"><a xlink:title=" ">
<path fill="none" stroke="#63b8ff" d="M295,-175.95C315.19,-166.66 341.87,-154.38 363.72,-144.32"/>
<polygon fill="#63b8ff" stroke="#63b8ff" points="365.45,-147.37 373.07,-140.01 362.52,-141.02 365.45,-147.37"/>
</a>
</g>
</g>
<!-- Node3&#45;&gt;Node2 -->
<g id="edge9_Node000003_Node000002" class="edge">
<title>Node3&#45;&gt;Node2</title>
<g id="a_edge9_Node000003_Node000002"><a xlink:title=" ">
<path fill="none" stroke="#63b8ff" d="M212.88,-110.58C173.39,-100.31 119.58,-86.32 82.43,-76.66"/>
<polygon fill="#63b8ff" stroke="#63b8ff" points="82.97,-73.19 72.42,-74.06 81.21,-79.96 82.97,-73.19"/>
</a>
</g>
</g>
<!-- Node4 -->
<g id="Node000004" class="node">
<title>Node4</title>
<g id="a_Node000004"><a xlink:title=" ">
<polygon fill="#e0e0e0" stroke="#999999" points="161.5,-74 97.5,-74 97.5,-55 161.5,-55 161.5,-74"/>
<text text-anchor="middle" x="129.5" y="-62" font-family="Helvetica,sans-Serif" font-size="10.00">algorithm</text>
</a>
</g>
</g>
<!-- Node3&#45;&gt;Node4 -->
<g id="edge3_Node000003_Node000004" class="edge">
<title>Node3&#45;&gt;Node4</title>
<g id="a_edge3_Node000003_Node000004"><a xlink:title=" ">
<path fill="none" stroke="#63b8ff" d="M232.16,-109.99C209.84,-100.31 180.4,-87.56 158.77,-78.18"/>
<polygon fill="#63b8ff" stroke="#63b8ff" points="160,-74.9 149.44,-74.14 157.22,-81.33 160,-74.9"/>
</a>
</g>
</g>
<!-- Node5 -->
<g id="Node000005" class="node">
<title>Node5</title>
<g id="a_Node000005"><a xlink:title=" ">
<polygon fill="#e0e0e0" stroke="#999999" points="221.5,-74 179.5,-74 179.5,-55 221.5,-55 221.5,-74"/>
<text text-anchor="middle" x="200.5" y="-62" font-family="Helvetica,sans-Serif" font-size="10.00">array</text>
</a>
</g>
</g>
<!-- Node3&#45;&gt;Node5 -->
<g id="edge4_Node000003_Node000005" class="edge">
<title>Node3&#45;&gt;Node5</title>
<g id="a_edge4_Node000003_Node000005"><a xlink:title=" ">
<path fill="none" stroke="#63b8ff" d="M249.01,-109.84C239.53,-101.17 227.39,-90.08 217.62,-81.15"/>
<polygon fill="#63b8ff" stroke="#63b8ff" points="219.83,-78.43 210.09,-74.27 215.11,-83.6 219.83,-78.43"/>
</a>
</g>
</g>
<!-- Node6 -->
<g id="Node000006" class="node">
<title>Node6</title>
<g id="a_Node000006"><a xlink:title=" ">
<polygon fill="#e0e0e0" stroke="#999999" points="289.5,-74 239.5,-74 239.5,-55 289.5,-55 289.5,-74"/>
<text text-anchor="middle" x="264.5" y="-62" font-family="Helvetica,sans-Serif" font-size="10.00">chrono</text>
</a>
</g>
</g>
<!-- Node3&#45;&gt;Node6 -->
<g id="edge5_Node000003_Node000006" class="edge">
<title>Node3&#45;&gt;Node6</title>
<g id="a_edge5_Node000003_Node000006"><a xlink:title=" ">
<path fill="none" stroke="#63b8ff" d="M264.5,-109.84C264.5,-102.21 264.5,-92.7 264.5,-84.45"/>
<polygon fill="#63b8ff" stroke="#63b8ff" points="268,-84.27 264.5,-74.27 261,-84.27 268,-84.27"/>
</a>
</g>
</g>
<!-- Node7 -->
<g id="Node000007" class="node">
<title>Node7</title>
<g id="a_Node000007"><a xlink:title=" ">
<polygon fill="#e0e0e0" stroke="#999999" points="381,-74 308,-74 308,-55 381,-55 381,-74"/>
<text text-anchor="middle" x="344.5" y="-62" font-family="Helvetica,sans-Serif" font-size="10.00">string_view</text>
</a>
</g>
</g>
<!-- Node3&#45;&gt;Node7 -->
<g id="edge6_Node000003_Node000007" class="edge">
<title>Node3&#45;&gt;Node7</title>
<g id="a_edge6_Node000003_Node000007"><a xlink:title=" ">
<path fill="none" stroke="#63b8ff" d="M283.87,-109.84C296.07,-100.91 311.81,-89.41 324.19,-80.35"/>
<polygon fill="#63b8ff" stroke="#63b8ff" points="326.51,-82.99 332.51,-74.27 322.37,-77.34 326.51,-82.99"/>
</a>
</g>
</g>
<!-- Node8 -->
<g id="Node000008" class="node">
<title>Node8</title>
<g id="a_Node000008"><a xlink:title=" ">
<polygon fill="#e0e0e0" stroke="#999999" points="468,-74 399,-74 399,-55 468,-55 468,-74"/>
<text text-anchor="middle" x="433.5" y="-62" font-family="Helvetica,sans-Serif" font-size="10.00">type_traits</text>
</a>
</g>
</g>
<!-- Node3&#45;&gt;Node8 -->
<g id="edge7_Node000003_Node000008" class="edge">
<title>Node3&#45;&gt;Node8</title>
<g id="a_edge7_Node000003_Node000008"><a xlink:title=" ">
<path fill="none" stroke="#63b8ff" d="M304.98,-109.99C333.68,-100.05 371.78,-86.86 399.03,-77.43"/>
<polygon fill="#63b8ff" stroke="#63b8ff" points="400.24,-80.72 408.54,-74.14 397.95,-74.1 400.24,-80.72"/>
</a>
</g>
</g>
<!-- Node9 -->
<g id="Node000009" class="node">
<title>Node9</title>
<g id="a_Node000009"><a xlink:title=" ">
<polygon fill="#e0e0e0" stroke="#999999" points="533,-74 486,-74 486,-55 533,-55 533,-74"/>
<text text-anchor="middle" x="509.5" y="-62" font-family="Helvetica,sans-Serif" font-size="10.00">vector</text>
</a>
</g>
</g>
<!-- Node3&#45;&gt;Node9 -->
<g id="edge8_Node000003_Node000009" class="edge">
<title>Node3&#45;&gt;Node9</title>
<g id="a_edge8_Node000003_Node000009"><a xlink:title=" ">
<path fill="none" stroke="#63b8ff" d="M316.03,-112.08C364.62,-100.82 434.96,-84.43 475.8,-74.37"/>
<polygon fill="#63b8ff" stroke="#63b8ff" points="476.89,-77.7 485.75,-71.89 475.21,-70.91 476.89,-77.7"/>
</a>
</g>
</g>
<!-- Node10 -->
<g id="Node000010" class="node">
<title>Node10</title>
<g id="a_Node000010"><a xlink:href="../../d3/d6c/fmt__compat_8hpp_source.html" target="_top" xlink:title=" ">
<polygon fill="white" stroke="#666666" points="712,-74 551,-74 551,-55 712,-55 712,-74"/>
<text text-anchor="middle" x="631.5" y="-62" font-family="Helvetica,sans-Serif" font-size="10.00">userver/utils/fmt_compat.hpp</text>
</a>
</g>
</g>
<!-- Node3&#45;&gt;Node10 -->
<g id="edge10_Node000003_Node000010" class="edge">
<title>Node3&#45;&gt;Node10</title>
<g id="a_edge10_Node000003_Node000010"><a xlink:title=" ">
<path fill="none" stroke="#63b8ff" d="M316.02,-111.87C319.22,-111.21 322.4,-110.58 325.5,-110 401.85,-95.71 489.65,-83.36 551.56,-75.32"/>
<polygon fill="#63b8ff" stroke="#63b8ff" points="552.19,-78.77 561.66,-74.02 551.29,-71.82 552.19,-78.77"/>
</a>
</g>
</g>
<!-- Node11 -->
<g id="Node000011" class="node">
<title>Node11</title>
<g id="a_Node000011"><a xlink:title=" ">
<polygon fill="#e0e0e0" stroke="#999999" points="665,-19 598,-19 598,0 665,0 665,-19"/>
<text text-anchor="middle" x="631.5" y="-7" font-family="Helvetica,sans-Serif" font-size="10.00">fmt/core.h</text>
</a>
</g>
</g>
<!-- Node10&#45;&gt;Node11 -->
<g id="edge11_Node000010_Node000011" class="edge">
<title>Node10&#45;&gt;Node11</title>
<g id="a_edge11_Node000010_Node000011"><a xlink:title=" ">
<path fill="none" stroke="#63b8ff" d="M631.5,-54.75C631.5,-47.8 631.5,-37.85 631.5,-29.13"/>
<polygon fill="#63b8ff" stroke="#63b8ff" points="635,-29.09 631.5,-19.09 628,-29.09 635,-29.09"/>
</a>
</g>
</g>
</g>
</svg>
