<?xml version="1.0" encoding="UTF-8" standalone="no"?>
<!DOCTYPE svg PUBLIC "-//W3C//DTD SVG 1.1//EN"
 "http://www.w3.org/Graphics/SVG/1.1/DTD/svg11.dtd">
<!-- Generated by graphviz version 2.43.0 (0)
 -->
<!-- Title: userver/storages/mongo/pool.hpp Pages: 1 -->
<svg width="356pt" height="170pt"
 viewBox="0.00 0.00 355.50 170.00" xmlns="http://www.w3.org/2000/svg" xmlns:xlink="http://www.w3.org/1999/xlink">
<g id="graph0" class="graph" transform="scale(1 1) rotate(0) translate(4 166)">
<title>userver/storages/mongo/pool.hpp</title>
<!-- Node1 -->
<g id="Node000001" class="node">
<title>Node1</title>
<g id="a_Node000001"><a xlink:title="MongoDB client pool.">
<polygon fill="#999999" stroke="#666666" points="251.5,-162 116.5,-162 116.5,-132 251.5,-132 251.5,-162"/>
<text text-anchor="start" x="124.5" y="-150" font-family="Helvetica,sans-Serif" font-size="10.00">userver/storages/mongo</text>
<text text-anchor="middle" x="184" y="-139" font-family="Helvetica,sans-Serif" font-size="10.00">/pool.hpp</text>
</a>
</g>
</g>
<!-- Node2 -->
<g id="Node000002" class="node">
<title>Node2</title>
<g id="a_Node000002"><a xlink:href="../../d2/d86/mongo_8hpp.html" target="_top" xlink:title="Include&#45;all header for MongoDB client.">
<polygon fill="white" stroke="#666666" points="156,-90.5 0,-90.5 0,-71.5 156,-71.5 156,-90.5"/>
<text text-anchor="middle" x="78" y="-78.5" font-family="Helvetica,sans-Serif" font-size="10.00">userver/storages/mongo.hpp</text>
</a>
</g>
</g>
<!-- Node1&#45;&gt;Node2 -->
<g id="edge1_Node000001_Node000002" class="edge">
<title>Node1&#45;&gt;Node2</title>
<g id="a_edge1_Node000001_Node000002"><a xlink:title=" ">
<path fill="none" stroke="#63b8ff" d="M151.95,-126.65C131.99,-114.6 107.3,-99.69 92.11,-90.52"/>
<polygon fill="#63b8ff" stroke="#63b8ff" points="150.37,-129.78 160.74,-131.95 153.99,-123.79 150.37,-129.78"/>
</a>
</g>
</g>
<!-- Node3 -->
<g id="Node000003" class="node">
<title>Node3</title>
<g id="a_Node000003"><a xlink:href="../../d1/dd7/mongo_2include_2userver_2storages_2mongo_2component_8hpp.html" target="_top" xlink:title="MongoDB client component.">
<polygon fill="white" stroke="#666666" points="299.5,-30 164.5,-30 164.5,0 299.5,0 299.5,-30"/>
<text text-anchor="start" x="172.5" y="-18" font-family="Helvetica,sans-Serif" font-size="10.00">userver/storages/mongo</text>
<text text-anchor="middle" x="232" y="-7" font-family="Helvetica,sans-Serif" font-size="10.00">/component.hpp</text>
</a>
</g>
</g>
<!-- Node1&#45;&gt;Node3 -->
<g id="edge2_Node000001_Node000003" class="edge">
<title>Node1&#45;&gt;Node3</title>
<g id="a_edge2_Node000001_Node000003"><a xlink:title=" ">
<path fill="none" stroke="#63b8ff" d="M188.35,-121.56C191.65,-105.45 196.84,-84.06 204,-66 208.99,-53.42 216.58,-40.1 222.6,-30.37"/>
<polygon fill="#63b8ff" stroke="#63b8ff" points="184.84,-121.29 186.37,-131.77 191.71,-122.62 184.84,-121.29"/>
</a>
</g>
</g>
<!-- Node4 -->
<g id="Node000004" class="node">
<title>Node4</title>
<g id="a_Node000004"><a xlink:href="../../d2/de5/multi__mongo_8hpp_source.html" target="_top" xlink:title=" ">
<polygon fill="white" stroke="#666666" points="347.5,-96 212.5,-96 212.5,-66 347.5,-66 347.5,-96"/>
<text text-anchor="start" x="220.5" y="-84" font-family="Helvetica,sans-Serif" font-size="10.00">userver/storages/mongo</text>
<text text-anchor="middle" x="280" y="-73" font-family="Helvetica,sans-Serif" font-size="10.00">/multi_mongo.hpp</text>
</a>
</g>
</g>
<!-- Node1&#45;&gt;Node4 -->
<g id="edge3_Node000001_Node000004" class="edge">
<title>Node1&#45;&gt;Node4</title>
<g id="a_edge3_Node000001_Node000004"><a xlink:title=" ">
<path fill="none" stroke="#63b8ff" d="M213.96,-126.03C228.49,-116.34 245.59,-104.94 258.75,-96.16"/>
<polygon fill="#63b8ff" stroke="#63b8ff" points="211.68,-123.34 205.31,-131.8 215.57,-129.16 211.68,-123.34"/>
</a>
</g>
</g>
<!-- Node4&#45;&gt;Node3 -->
<g id="edge4_Node000004_Node000003" class="edge">
<title>Node4&#45;&gt;Node3</title>
<g id="a_edge4_Node000004_Node000003"><a xlink:title=" ">
<path fill="none" stroke="#63b8ff" d="M263.14,-57.53C256.32,-48.43 248.65,-38.19 242.62,-30.16"/>
<polygon fill="#63b8ff" stroke="#63b8ff" points="260.55,-59.9 269.35,-65.8 266.15,-55.7 260.55,-59.9"/>
</a>
</g>
</g>
</g>
</svg>
