<?xml version="1.0" encoding="UTF-8" standalone="no"?>
<!DOCTYPE svg PUBLIC "-//W3C//DTD SVG 1.1//EN"
 "http://www.w3.org/Graphics/SVG/1.1/DTD/svg11.dtd">
<!-- Generated by graphviz version 2.43.0 (0)
 -->
<!-- Title: storages::postgres::OperatorIntervention Pages: 1 -->
<svg width="514pt" height="230pt"
 viewBox="0.00 0.00 514.00 230.00" xmlns="http://www.w3.org/2000/svg" xmlns:xlink="http://www.w3.org/1999/xlink">
<g id="graph0" class="graph" transform="scale(1 1) rotate(0) translate(4 226)">
<title>storages::postgres::OperatorIntervention</title>
<!-- Node1 -->
<g id="Node000001" class="node">
<title>Node1</title>
<g id="a_Node000001"><a xlink:title=" ">
<polygon fill="#999999" stroke="#666666" points="351,-126 226,-126 226,-96 351,-96 351,-126"/>
<text text-anchor="start" x="234" y="-114" font-family="Helvetica,sans-Serif" font-size="10.00">storages::postgres</text>
<text text-anchor="middle" x="288.5" y="-103" font-family="Helvetica,sans-Serif" font-size="10.00">::OperatorIntervention</text>
</a>
</g>
</g>
<!-- Node4 -->
<g id="Node000004" class="node">
<title>Node4</title>
<g id="a_Node000004"><a xlink:href="../../d8/d0c/classstorages_1_1postgres_1_1AdminShutdown.html" target="_top" xlink:title=" ">
<polygon fill="white" stroke="#bfbfbf" points="500,-222 393,-222 393,-192 500,-192 500,-222"/>
<text text-anchor="start" x="401" y="-210" font-family="Helvetica,sans-Serif" font-size="10.00">storages::postgres</text>
<text text-anchor="middle" x="446.5" y="-199" font-family="Helvetica,sans-Serif" font-size="10.00">::AdminShutdown</text>
</a>
</g>
</g>
<!-- Node1&#45;&gt;Node4 -->
<g id="edge3_Node000001_Node000004" class="edge">
<title>Node1&#45;&gt;Node4</title>
<g id="a_edge3_Node000001_Node000004"><a xlink:title=" ">
<path fill="none" stroke="#63b8ff" d="M315.15,-132.69C334.15,-148.05 361.12,-168.43 387,-183 392.64,-186.18 398.79,-189.16 404.92,-191.88"/>
<polygon fill="#63b8ff" stroke="#63b8ff" points="317.22,-129.86 307.27,-126.23 312.79,-135.27 317.22,-129.86"/>
</a>
</g>
</g>
<!-- Node5 -->
<g id="Node000005" class="node">
<title>Node5</title>
<g id="a_Node000005"><a xlink:href="../../dd/d7a/classstorages_1_1postgres_1_1CannotConnectNow.html" target="_top" xlink:title=" ">
<polygon fill="white" stroke="#bfbfbf" points="506,-174 387,-174 387,-144 506,-144 506,-174"/>
<text text-anchor="start" x="395" y="-162" font-family="Helvetica,sans-Serif" font-size="10.00">storages::postgres</text>
<text text-anchor="middle" x="446.5" y="-151" font-family="Helvetica,sans-Serif" font-size="10.00">::CannotConnectNow</text>
</a>
</g>
</g>
<!-- Node1&#45;&gt;Node5 -->
<g id="edge4_Node000001_Node000005" class="edge">
<title>Node1&#45;&gt;Node5</title>
<g id="a_edge4_Node000001_Node000005"><a xlink:title=" ">
<path fill="none" stroke="#63b8ff" d="M348.22,-129.07C364.21,-133.99 381.36,-139.27 396.74,-144"/>
<polygon fill="#63b8ff" stroke="#63b8ff" points="349.02,-125.65 338.43,-126.06 346.96,-132.34 349.02,-125.65"/>
</a>
</g>
</g>
<!-- Node6 -->
<g id="Node000006" class="node">
<title>Node6</title>
<g id="a_Node000006"><a xlink:href="../../db/d47/classstorages_1_1postgres_1_1CrashShutdown.html" target="_top" xlink:title=" ">
<polygon fill="white" stroke="#bfbfbf" points="500,-126 393,-126 393,-96 500,-96 500,-126"/>
<text text-anchor="start" x="401" y="-114" font-family="Helvetica,sans-Serif" font-size="10.00">storages::postgres</text>
<text text-anchor="middle" x="446.5" y="-103" font-family="Helvetica,sans-Serif" font-size="10.00">::CrashShutdown</text>
</a>
</g>
</g>
<!-- Node1&#45;&gt;Node6 -->
<g id="edge5_Node000001_Node000006" class="edge">
<title>Node1&#45;&gt;Node6</title>
<g id="a_edge5_Node000001_Node000006"><a xlink:title=" ">
<path fill="none" stroke="#63b8ff" d="M361.28,-111C371.92,-111 382.71,-111 392.86,-111"/>
<polygon fill="#63b8ff" stroke="#63b8ff" points="361.16,-107.5 351.16,-111 361.16,-114.5 361.16,-107.5"/>
</a>
</g>
</g>
<!-- Node7 -->
<g id="Node000007" class="node">
<title>Node7</title>
<g id="a_Node000007"><a xlink:href="../../d4/d00/classstorages_1_1postgres_1_1DatabaseDropped.html" target="_top" xlink:title=" ">
<polygon fill="white" stroke="#bfbfbf" points="501.5,-78 391.5,-78 391.5,-48 501.5,-48 501.5,-78"/>
<text text-anchor="start" x="399.5" y="-66" font-family="Helvetica,sans-Serif" font-size="10.00">storages::postgres</text>
<text text-anchor="middle" x="446.5" y="-55" font-family="Helvetica,sans-Serif" font-size="10.00">::DatabaseDropped</text>
</a>
</g>
</g>
<!-- Node1&#45;&gt;Node7 -->
<g id="edge6_Node000001_Node000007" class="edge">
<title>Node1&#45;&gt;Node7</title>
<g id="a_edge6_Node000001_Node000007"><a xlink:title=" ">
<path fill="none" stroke="#63b8ff" d="M348.22,-92.93C364.21,-88.01 381.36,-82.73 396.74,-78"/>
<polygon fill="#63b8ff" stroke="#63b8ff" points="346.96,-89.66 338.43,-95.94 349.02,-96.35 346.96,-89.66"/>
</a>
</g>
</g>
<!-- Node8 -->
<g id="Node000008" class="node">
<title>Node8</title>
<g id="a_Node000008"><a xlink:href="../../d7/d42/classstorages_1_1postgres_1_1QueryCancelled.html" target="_top" xlink:title=" ">
<polygon fill="white" stroke="#bfbfbf" points="500,-30 393,-30 393,0 500,0 500,-30"/>
<text text-anchor="start" x="401" y="-18" font-family="Helvetica,sans-Serif" font-size="10.00">storages::postgres</text>
<text text-anchor="middle" x="446.5" y="-7" font-family="Helvetica,sans-Serif" font-size="10.00">::QueryCancelled</text>
</a>
</g>
</g>
<!-- Node1&#45;&gt;Node8 -->
<g id="edge7_Node000001_Node000008" class="edge">
<title>Node1&#45;&gt;Node8</title>
<g id="a_edge7_Node000001_Node000008"><a xlink:title=" ">
<path fill="none" stroke="#63b8ff" d="M315.15,-89.31C334.15,-73.95 361.12,-53.57 387,-39 392.64,-35.82 398.79,-32.84 404.92,-30.12"/>
<polygon fill="#63b8ff" stroke="#63b8ff" points="312.79,-86.73 307.27,-95.77 317.22,-92.14 312.79,-86.73"/>
</a>
</g>
</g>
<!-- Node2 -->
<g id="Node000002" class="node">
<title>Node2</title>
<g id="a_Node000002"><a xlink:href="../../da/d34/classstorages_1_1postgres_1_1ServerError.html" target="_top" xlink:title="Error that was reported by PosgtreSQL server Contains the message sent by the server....">
<polygon fill="white" stroke="#666666" points="190,-120.5 77,-120.5 77,-101.5 190,-101.5 190,-120.5"/>
<text text-anchor="middle" x="133.5" y="-108.5" font-family="Helvetica,sans-Serif" font-size="10.00">ServerRuntimeError</text>
</a>
</g>
</g>
<!-- Node2&#45;&gt;Node1 -->
<g id="edge1_Node000001_Node000002" class="edge">
<title>Node2&#45;&gt;Node1</title>
<g id="a_edge1_Node000001_Node000002"><a xlink:title=" ">
<path fill="none" stroke="#63b8ff" d="M200.39,-111C208.87,-111 217.52,-111 225.92,-111"/>
<polygon fill="#63b8ff" stroke="#63b8ff" points="200.17,-107.5 190.17,-111 200.17,-114.5 200.17,-107.5"/>
</a>
</g>
</g>
<!-- Node3 -->
<g id="Node000003" class="node">
<title>Node3</title>
<g id="a_Node000003"><a xlink:title=" ">
<polygon fill="white" stroke="#bfbfbf" points="41,-120.5 0,-120.5 0,-101.5 41,-101.5 41,-120.5"/>
<text text-anchor="middle" x="20.5" y="-108.5" font-family="Helvetica,sans-Serif" font-size="10.00">Base</text>
</a>
</g>
</g>
<!-- Node3&#45;&gt;Node2 -->
<g id="edge2_Node000002_Node000003" class="edge">
<title>Node3&#45;&gt;Node2</title>
<g id="a_edge2_Node000002_Node000003"><a xlink:title=" ">
<path fill="none" stroke="#63b8ff" d="M51.27,-111C59.21,-111 68.04,-111 76.89,-111"/>
<polygon fill="#63b8ff" stroke="#63b8ff" points="51.09,-107.5 41.09,-111 51.09,-114.5 51.09,-107.5"/>
</a>
</g>
</g>
</g>
</svg>
