<?xml version="1.0" encoding="UTF-8" standalone="no"?>
<!DOCTYPE svg PUBLIC "-//W3C//DTD SVG 1.1//EN"
 "http://www.w3.org/Graphics/SVG/1.1/DTD/svg11.dtd">
<!-- Generated by graphviz version 2.43.0 (0)
 -->
<!-- Title: ugrpc::client::ErrorWithStatus Pages: 1 -->
<svg width="799pt" height="707pt"
 viewBox="0.00 0.00 799.00 707.00" xmlns="http://www.w3.org/2000/svg" xmlns:xlink="http://www.w3.org/1999/xlink">
<g id="graph0" class="graph" transform="scale(1 1) rotate(0) translate(4 703)">
<title>ugrpc::client::ErrorWithStatus</title>
<!-- Node1 -->
<g id="Node000001" class="node">
<title>Node1</title>
<g id="a_Node000001"><a xlink:title="Error with grpc::Status details.">
<polygon fill="#999999" stroke="#666666" points="576,-371.5 448,-371.5 448,-341.5 576,-341.5 576,-371.5"/>
<text text-anchor="start" x="456" y="-359.5" font-family="Helvetica,sans-Serif" font-size="10.00">ugrpc::client::ErrorWith</text>
<text text-anchor="middle" x="512" y="-348.5" font-family="Helvetica,sans-Serif" font-size="10.00">Status</text>
</a>
</g>
</g>
<!-- Node5 -->
<g id="Node000005" class="node">
<title>Node5</title>
<g id="a_Node000005"><a xlink:href="../../d3/d0b/classugrpc_1_1client_1_1AbortedError.html" target="_top" xlink:title=" ">
<polygon fill="white" stroke="#bfbfbf" points="773.5,-699 629.5,-699 629.5,-680 773.5,-680 773.5,-699"/>
<text text-anchor="middle" x="701.5" y="-687" font-family="Helvetica,sans-Serif" font-size="10.00">ugrpc::client::AbortedError</text>
</a>
</g>
</g>
<!-- Node1&#45;&gt;Node5 -->
<g id="edge4_Node000001_Node000005" class="edge">
<title>Node1&#45;&gt;Node5</title>
<g id="a_edge4_Node000001_Node000005"><a xlink:title=" ">
<path fill="none" stroke="#63b8ff" d="M512.95,-381.79C514.29,-441.61 526.44,-592.63 612,-670.5 617.11,-675.15 623.08,-678.77 629.46,-681.57"/>
<polygon fill="#63b8ff" stroke="#63b8ff" points="516.45,-381.67 512.81,-371.72 509.45,-381.76 516.45,-381.67"/>
</a>
</g>
</g>
<!-- Node6 -->
<g id="Node000006" class="node">
<title>Node6</title>
<g id="a_Node000006"><a xlink:href="../../dc/d5f/classugrpc_1_1client_1_1AlreadyExistsError.html" target="_top" xlink:title=" ">
<polygon fill="white" stroke="#bfbfbf" points="776,-661.5 627,-661.5 627,-631.5 776,-631.5 776,-661.5"/>
<text text-anchor="start" x="635" y="-649.5" font-family="Helvetica,sans-Serif" font-size="10.00">ugrpc::client::AlreadyExists</text>
<text text-anchor="middle" x="701.5" y="-638.5" font-family="Helvetica,sans-Serif" font-size="10.00">Error</text>
</a>
</g>
</g>
<!-- Node1&#45;&gt;Node6 -->
<g id="edge5_Node000001_Node000006" class="edge">
<title>Node1&#45;&gt;Node6</title>
<g id="a_edge5_Node000001_Node000006"><a xlink:title=" ">
<path fill="none" stroke="#63b8ff" d="M514.93,-381.96C520.32,-434.84 540.3,-557.07 612,-622.5 616.47,-626.58 621.56,-629.97 626.99,-632.8"/>
<polygon fill="#63b8ff" stroke="#63b8ff" points="518.39,-381.41 513.98,-371.77 511.42,-382.05 518.39,-381.41"/>
</a>
</g>
</g>
<!-- Node7 -->
<g id="Node000007" class="node">
<title>Node7</title>
<g id="a_Node000007"><a xlink:href="../../d3/dc0/classugrpc_1_1client_1_1CancelledError.html" target="_top" xlink:title="Concrete errors for all the error codes.">
<polygon fill="white" stroke="#666666" points="767,-613.5 636,-613.5 636,-583.5 767,-583.5 767,-613.5"/>
<text text-anchor="start" x="644" y="-601.5" font-family="Helvetica,sans-Serif" font-size="10.00">ugrpc::client::Cancelled</text>
<text text-anchor="middle" x="701.5" y="-590.5" font-family="Helvetica,sans-Serif" font-size="10.00">Error</text>
</a>
</g>
</g>
<!-- Node1&#45;&gt;Node7 -->
<g id="edge6_Node000001_Node000007" class="edge">
<title>Node1&#45;&gt;Node7</title>
<g id="a_edge6_Node000001_Node000007"><a xlink:title=" ">
<path fill="none" stroke="#63b8ff" d="M517.18,-381.45C526.13,-426.86 551.46,-523.02 612,-574.5 618.91,-580.38 627.13,-584.83 635.74,-588.2"/>
<polygon fill="#63b8ff" stroke="#63b8ff" points="520.61,-380.75 515.34,-371.56 513.73,-382.04 520.61,-380.75"/>
</a>
</g>
</g>
<!-- Node8 -->
<g id="Node000008" class="node">
<title>Node8</title>
<g id="a_Node000008"><a xlink:href="../../d6/d3e/classugrpc_1_1client_1_1DataLossError.html" target="_top" xlink:title=" ">
<polygon fill="white" stroke="#bfbfbf" points="777,-565 626,-565 626,-546 777,-546 777,-565"/>
<text text-anchor="middle" x="701.5" y="-553" font-family="Helvetica,sans-Serif" font-size="10.00">ugrpc::client::DataLossError</text>
</a>
</g>
</g>
<!-- Node1&#45;&gt;Node8 -->
<g id="edge7_Node000001_Node000008" class="edge">
<title>Node1&#45;&gt;Node8</title>
<g id="a_edge7_Node000001_Node000008"><a xlink:title=" ">
<path fill="none" stroke="#63b8ff" d="M519.49,-381.54C531.07,-421 559.19,-497.2 612,-536.5 617.17,-540.35 622.95,-543.45 629.02,-545.94"/>
<polygon fill="#63b8ff" stroke="#63b8ff" points="522.79,-380.35 516.71,-371.67 516.05,-382.24 522.79,-380.35"/>
</a>
</g>
</g>
<!-- Node9 -->
<g id="Node000009" class="node">
<title>Node9</title>
<g id="a_Node000009"><a xlink:href="../../d2/dc6/classugrpc_1_1client_1_1DeadlineExceededError.html" target="_top" xlink:title=" ">
<polygon fill="white" stroke="#bfbfbf" points="788,-527.5 615,-527.5 615,-497.5 788,-497.5 788,-527.5"/>
<text text-anchor="start" x="623" y="-515.5" font-family="Helvetica,sans-Serif" font-size="10.00">ugrpc::client::DeadlineExceeded</text>
<text text-anchor="middle" x="701.5" y="-504.5" font-family="Helvetica,sans-Serif" font-size="10.00">Error</text>
</a>
</g>
</g>
<!-- Node1&#45;&gt;Node9 -->
<g id="edge8_Node000001_Node000009" class="edge">
<title>Node1&#45;&gt;Node9</title>
<g id="a_edge8_Node000001_Node000009"><a xlink:title=" ">
<path fill="none" stroke="#63b8ff" d="M524.72,-380.69C540.43,-410.56 571.14,-460.78 612,-488.5 617.01,-491.9 622.48,-494.81 628.16,-497.32"/>
<polygon fill="#63b8ff" stroke="#63b8ff" points="527.82,-379.08 520.15,-371.77 521.59,-382.26 527.82,-379.08"/>
</a>
</g>
</g>
<!-- Node10 -->
<g id="Node000010" class="node">
<title>Node10</title>
<g id="a_Node000010"><a xlink:href="../../d3/d87/classugrpc_1_1client_1_1FailedPreconditionError.html" target="_top" xlink:title=" ">
<polygon fill="white" stroke="#bfbfbf" points="787.5,-479.5 615.5,-479.5 615.5,-449.5 787.5,-449.5 787.5,-479.5"/>
<text text-anchor="start" x="623.5" y="-467.5" font-family="Helvetica,sans-Serif" font-size="10.00">ugrpc::client::FailedPrecondition</text>
<text text-anchor="middle" x="701.5" y="-456.5" font-family="Helvetica,sans-Serif" font-size="10.00">Error</text>
</a>
</g>
</g>
<!-- Node1&#45;&gt;Node10 -->
<g id="edge9_Node000001_Node000010" class="edge">
<title>Node1&#45;&gt;Node10</title>
<g id="a_edge9_Node000001_Node000010"><a xlink:title=" ">
<path fill="none" stroke="#63b8ff" d="M533.71,-378.91C552.44,-397.91 581.67,-424.55 612,-440.5 618.48,-443.91 625.49,-446.87 632.63,-449.43"/>
<polygon fill="#63b8ff" stroke="#63b8ff" points="536.05,-376.3 526.59,-371.54 531.02,-381.16 536.05,-376.3"/>
</a>
</g>
</g>
<!-- Node11 -->
<g id="Node000011" class="node">
<title>Node11</title>
<g id="a_Node000011"><a xlink:href="../../d9/d4d/classugrpc_1_1client_1_1InternalError.html" target="_top" xlink:title=" ">
<polygon fill="white" stroke="#bfbfbf" points="773,-431 630,-431 630,-412 773,-412 773,-431"/>
<text text-anchor="middle" x="701.5" y="-419" font-family="Helvetica,sans-Serif" font-size="10.00">ugrpc::client::InternalError</text>
</a>
</g>
</g>
<!-- Node1&#45;&gt;Node11 -->
<g id="edge10_Node000001_Node000011" class="edge">
<title>Node1&#45;&gt;Node11</title>
<g id="a_edge10_Node000001_Node000011"><a xlink:title=" ">
<path fill="none" stroke="#63b8ff" d="M550.03,-376.11C568.29,-385.15 590.88,-395.43 612,-402.5 623.03,-406.19 635.07,-409.34 646.63,-411.95"/>
<polygon fill="#63b8ff" stroke="#63b8ff" points="551.41,-372.89 540.9,-371.52 548.26,-379.14 551.41,-372.89"/>
</a>
</g>
</g>
<!-- Node12 -->
<g id="Node000012" class="node">
<title>Node12</title>
<g id="a_Node000012"><a xlink:href="../../d4/dc9/classugrpc_1_1client_1_1InvalidArgumentError.html" target="_top" xlink:title=" ">
<polygon fill="white" stroke="#bfbfbf" points="783.5,-393.5 619.5,-393.5 619.5,-363.5 783.5,-363.5 783.5,-393.5"/>
<text text-anchor="start" x="627.5" y="-381.5" font-family="Helvetica,sans-Serif" font-size="10.00">ugrpc::client::InvalidArgument</text>
<text text-anchor="middle" x="701.5" y="-370.5" font-family="Helvetica,sans-Serif" font-size="10.00">Error</text>
</a>
</g>
</g>
<!-- Node1&#45;&gt;Node12 -->
<g id="edge11_Node000001_Node000012" class="edge">
<title>Node1&#45;&gt;Node12</title>
<g id="a_edge11_Node000001_Node000012"><a xlink:title=" ">
<path fill="none" stroke="#63b8ff" d="M586.41,-365.11C597.19,-366.38 608.34,-367.69 619.27,-368.97"/>
<polygon fill="#63b8ff" stroke="#63b8ff" points="586.56,-361.61 576.22,-363.92 585.74,-368.56 586.56,-361.61"/>
</a>
</g>
</g>
<!-- Node13 -->
<g id="Node000013" class="node">
<title>Node13</title>
<g id="a_Node000013"><a xlink:href="../../d9/dc2/classugrpc_1_1client_1_1NotFoundError.html" target="_top" xlink:title=" ">
<polygon fill="white" stroke="#bfbfbf" points="777.5,-345 625.5,-345 625.5,-326 777.5,-326 777.5,-345"/>
<text text-anchor="middle" x="701.5" y="-333" font-family="Helvetica,sans-Serif" font-size="10.00">ugrpc::client::NotFoundError</text>
</a>
</g>
</g>
<!-- Node1&#45;&gt;Node13 -->
<g id="edge12_Node000001_Node000013" class="edge">
<title>Node1&#45;&gt;Node13</title>
<g id="a_edge12_Node000001_Node000013"><a xlink:title=" ">
<path fill="none" stroke="#63b8ff" d="M586.33,-348.29C599.1,-346.86 612.4,-345.37 625.23,-343.93"/>
<polygon fill="#63b8ff" stroke="#63b8ff" points="585.77,-344.83 576.22,-349.42 586.55,-351.78 585.77,-344.83"/>
</a>
</g>
</g>
<!-- Node14 -->
<g id="Node000014" class="node">
<title>Node14</title>
<g id="a_Node000014"><a xlink:href="../../dd/d53/classugrpc_1_1client_1_1OutOfRangeError.html" target="_top" xlink:title=" ">
<polygon fill="white" stroke="#bfbfbf" points="772.5,-307.5 630.5,-307.5 630.5,-277.5 772.5,-277.5 772.5,-307.5"/>
<text text-anchor="start" x="638.5" y="-295.5" font-family="Helvetica,sans-Serif" font-size="10.00">ugrpc::client::OutOfRange</text>
<text text-anchor="middle" x="701.5" y="-284.5" font-family="Helvetica,sans-Serif" font-size="10.00">Error</text>
</a>
</g>
</g>
<!-- Node1&#45;&gt;Node14 -->
<g id="edge13_Node000001_Node000014" class="edge">
<title>Node1&#45;&gt;Node14</title>
<g id="a_edge13_Node000001_Node000014"><a xlink:title=" ">
<path fill="none" stroke="#63b8ff" d="M557.1,-337.37C574.09,-330.35 593.79,-322.62 612,-316.5 621.36,-313.35 631.37,-310.32 641.18,-307.54"/>
<polygon fill="#63b8ff" stroke="#63b8ff" points="555.32,-334.32 547.44,-341.41 558.02,-340.78 555.32,-334.32"/>
</a>
</g>
</g>
<!-- Node15 -->
<g id="Node000015" class="node">
<title>Node15</title>
<g id="a_Node000015"><a xlink:href="../../d1/d8a/classugrpc_1_1client_1_1PermissionDeniedError.html" target="_top" xlink:title=" ">
<polygon fill="white" stroke="#bfbfbf" points="770,-259.5 633,-259.5 633,-229.5 770,-229.5 770,-259.5"/>
<text text-anchor="start" x="641" y="-247.5" font-family="Helvetica,sans-Serif" font-size="10.00">ugrpc::client::Permission</text>
<text text-anchor="middle" x="701.5" y="-236.5" font-family="Helvetica,sans-Serif" font-size="10.00">DeniedError</text>
</a>
</g>
</g>
<!-- Node1&#45;&gt;Node15 -->
<g id="edge14_Node000001_Node000015" class="edge">
<title>Node1&#45;&gt;Node15</title>
<g id="a_edge14_Node000001_Node000015"><a xlink:title=" ">
<path fill="none" stroke="#63b8ff" d="M532.61,-333.94C551.16,-313.95 580.75,-285.4 612,-268.5 618.44,-265.02 625.43,-262.01 632.55,-259.42"/>
<polygon fill="#63b8ff" stroke="#63b8ff" points="529.97,-331.64 525.83,-341.39 535.15,-336.35 529.97,-331.64"/>
</a>
</g>
</g>
<!-- Node16 -->
<g id="Node000016" class="node">
<title>Node16</title>
<g id="a_Node000016"><a xlink:href="../../d8/db2/classugrpc_1_1client_1_1ResourceExhaustedError.html" target="_top" xlink:title=" ">
<polygon fill="white" stroke="#bfbfbf" points="791,-211.5 612,-211.5 612,-181.5 791,-181.5 791,-211.5"/>
<text text-anchor="start" x="620" y="-199.5" font-family="Helvetica,sans-Serif" font-size="10.00">ugrpc::client::ResourceExhausted</text>
<text text-anchor="middle" x="701.5" y="-188.5" font-family="Helvetica,sans-Serif" font-size="10.00">Error</text>
</a>
</g>
</g>
<!-- Node1&#45;&gt;Node16 -->
<g id="edge15_Node000001_Node000016" class="edge">
<title>Node1&#45;&gt;Node16</title>
<g id="a_edge15_Node000001_Node000016"><a xlink:title=" ">
<path fill="none" stroke="#63b8ff" d="M524.28,-332.05C539.72,-301.34 570.33,-249.2 612,-220.5 616.98,-217.07 622.43,-214.13 628.11,-211.61"/>
<polygon fill="#63b8ff" stroke="#63b8ff" points="521.05,-330.69 519.81,-341.21 527.34,-333.76 521.05,-330.69"/>
</a>
</g>
</g>
<!-- Node17 -->
<g id="Node000017" class="node">
<title>Node17</title>
<g id="a_Node000017"><a xlink:href="../../d4/da1/classugrpc_1_1client_1_1UnauthenticatedError.html" target="_top" xlink:title=" ">
<polygon fill="white" stroke="#bfbfbf" points="783.5,-163.5 619.5,-163.5 619.5,-133.5 783.5,-133.5 783.5,-163.5"/>
<text text-anchor="start" x="627.5" y="-151.5" font-family="Helvetica,sans-Serif" font-size="10.00">ugrpc::client::Unauthenticated</text>
<text text-anchor="middle" x="701.5" y="-140.5" font-family="Helvetica,sans-Serif" font-size="10.00">Error</text>
</a>
</g>
</g>
<!-- Node1&#45;&gt;Node17 -->
<g id="edge16_Node000001_Node000017" class="edge">
<title>Node1&#45;&gt;Node17</title>
<g id="a_edge16_Node000001_Node000017"><a xlink:title=" ">
<path fill="none" stroke="#63b8ff" d="M519.41,-331.8C531.01,-292.1 559.32,-214.32 612,-172.5 616.36,-169.04 621.19,-166.07 626.27,-163.53"/>
<polygon fill="#63b8ff" stroke="#63b8ff" points="516.03,-330.9 516.7,-341.47 522.77,-332.79 516.03,-330.9"/>
</a>
</g>
</g>
<!-- Node18 -->
<g id="Node000018" class="node">
<title>Node18</title>
<g id="a_Node000018"><a xlink:href="../../de/df2/classugrpc_1_1client_1_1UnavailableError.html" target="_top" xlink:title=" ">
<polygon fill="white" stroke="#bfbfbf" points="772,-115.5 631,-115.5 631,-85.5 772,-85.5 772,-115.5"/>
<text text-anchor="start" x="639" y="-103.5" font-family="Helvetica,sans-Serif" font-size="10.00">ugrpc::client::Unavailable</text>
<text text-anchor="middle" x="701.5" y="-92.5" font-family="Helvetica,sans-Serif" font-size="10.00">Error</text>
</a>
</g>
</g>
<!-- Node1&#45;&gt;Node18 -->
<g id="edge17_Node000001_Node000018" class="edge">
<title>Node1&#45;&gt;Node18</title>
<g id="a_edge17_Node000001_Node000018"><a xlink:title=" ">
<path fill="none" stroke="#63b8ff" d="M516.46,-331.32C524.36,-283.64 548.25,-179.98 612,-124.5 617.52,-119.69 623.92,-115.84 630.7,-112.75"/>
<polygon fill="#63b8ff" stroke="#63b8ff" points="512.97,-330.98 514.89,-341.4 519.88,-332.05 512.97,-330.98"/>
</a>
</g>
</g>
<!-- Node19 -->
<g id="Node000019" class="node">
<title>Node19</title>
<g id="a_Node000019"><a xlink:href="../../da/dc4/classugrpc_1_1client_1_1UnimplementedError.html" target="_top" xlink:title=" ">
<polygon fill="white" stroke="#bfbfbf" points="782,-67.5 621,-67.5 621,-37.5 782,-37.5 782,-67.5"/>
<text text-anchor="start" x="629" y="-55.5" font-family="Helvetica,sans-Serif" font-size="10.00">ugrpc::client::Unimplemented</text>
<text text-anchor="middle" x="701.5" y="-44.5" font-family="Helvetica,sans-Serif" font-size="10.00">Error</text>
</a>
</g>
</g>
<!-- Node1&#45;&gt;Node19 -->
<g id="edge18_Node000001_Node000019" class="edge">
<title>Node1&#45;&gt;Node19</title>
<g id="a_edge18_Node000001_Node000019"><a xlink:title=" ">
<path fill="none" stroke="#63b8ff" d="M514.36,-331.25C518.72,-276.51 536.85,-146.21 612,-76.5 615.73,-73.04 619.92,-70.06 624.38,-67.51"/>
<polygon fill="#63b8ff" stroke="#63b8ff" points="510.86,-331.23 513.65,-341.45 517.84,-331.72 510.86,-331.23"/>
</a>
</g>
</g>
<!-- Node20 -->
<g id="Node000020" class="node">
<title>Node20</title>
<g id="a_Node000020"><a xlink:href="../../dc/d6c/classugrpc_1_1client_1_1UnknownError.html" target="_top" xlink:title=" ">
<polygon fill="white" stroke="#bfbfbf" points="777.5,-19 625.5,-19 625.5,0 777.5,0 777.5,-19"/>
<text text-anchor="middle" x="701.5" y="-7" font-family="Helvetica,sans-Serif" font-size="10.00">ugrpc::client::UnknownError</text>
</a>
</g>
</g>
<!-- Node1&#45;&gt;Node20 -->
<g id="edge19_Node000001_Node000020" class="edge">
<title>Node1&#45;&gt;Node20</title>
<g id="a_edge19_Node000001_Node000020"><a xlink:title=" ">
<path fill="none" stroke="#63b8ff" d="M512.55,-330.98C512.95,-269.16 523.05,-110.46 612,-28.5 616.04,-24.77 620.64,-21.71 625.55,-19.2"/>
<polygon fill="#63b8ff" stroke="#63b8ff" points="509.05,-331.36 512.58,-341.36 516.05,-331.35 509.05,-331.36"/>
</a>
</g>
</g>
<!-- Node2 -->
<g id="Node000002" class="node">
<title>Node2</title>
<g id="a_Node000002"><a xlink:href="../../d3/d28/classugrpc_1_1client_1_1RpcError.html" target="_top" xlink:title="Error during an RPC.">
<polygon fill="white" stroke="#666666" points="412,-366 288,-366 288,-347 412,-347 412,-366"/>
<text text-anchor="middle" x="350" y="-354" font-family="Helvetica,sans-Serif" font-size="10.00">ugrpc::client::RpcError</text>
</a>
</g>
</g>
<!-- Node2&#45;&gt;Node1 -->
<g id="edge1_Node000001_Node000002" class="edge">
<title>Node2&#45;&gt;Node1</title>
<g id="a_edge1_Node000001_Node000002"><a xlink:title=" ">
<path fill="none" stroke="#63b8ff" d="M422.6,-356.5C431.04,-356.5 439.6,-356.5 447.91,-356.5"/>
<polygon fill="#63b8ff" stroke="#63b8ff" points="422.4,-353 412.4,-356.5 422.4,-360 422.4,-353"/>
</a>
</g>
</g>
<!-- Node3 -->
<g id="Node000003" class="node">
<title>Node3</title>
<g id="a_Node000003"><a xlink:href="../../d3/d25/classugrpc_1_1client_1_1BaseError.html" target="_top" xlink:title="Base exception for all the client errors.">
<polygon fill="white" stroke="#666666" points="252,-366 122,-366 122,-347 252,-347 252,-366"/>
<text text-anchor="middle" x="187" y="-354" font-family="Helvetica,sans-Serif" font-size="10.00">ugrpc::client::BaseError</text>
</a>
</g>
</g>
<!-- Node3&#45;&gt;Node2 -->
<g id="edge2_Node000002_Node000003" class="edge">
<title>Node3&#45;&gt;Node2</title>
<g id="a_edge2_Node000002_Node000003"><a xlink:title=" ">
<path fill="none" stroke="#63b8ff" d="M262.1,-356.5C270.68,-356.5 279.36,-356.5 287.75,-356.5"/>
<polygon fill="#63b8ff" stroke="#63b8ff" points="262.09,-353 252.09,-356.5 262.09,-360 262.09,-353"/>
</a>
</g>
</g>
<!-- Node4 -->
<g id="Node000004" class="node">
<title>Node4</title>
<g id="a_Node000004"><a xlink:title=" ">
<polygon fill="white" stroke="#666666" points="86,-366 0,-366 0,-347 86,-347 86,-366"/>
<text text-anchor="middle" x="43" y="-354" font-family="Helvetica,sans-Serif" font-size="10.00">std::exception</text>
</a>
</g>
</g>
<!-- Node4&#45;&gt;Node3 -->
<g id="edge3_Node000003_Node000004" class="edge">
<title>Node4&#45;&gt;Node3</title>
<g id="a_edge3_Node000003_Node000004"><a xlink:title=" ">
<path fill="none" stroke="#63b8ff" d="M96.46,-356.5C104.73,-356.5 113.36,-356.5 121.85,-356.5"/>
<polygon fill="#63b8ff" stroke="#63b8ff" points="96.22,-353 86.22,-356.5 96.22,-360 96.22,-353"/>
</a>
</g>
</g>
</g>
</svg>
