<?xml version="1.0" encoding="UTF-8" standalone="no"?>
<!DOCTYPE svg PUBLIC "-//W3C//DTD SVG 1.1//EN"
 "http://www.w3.org/Graphics/SVG/1.1/DTD/svg11.dtd">
<!-- Generated by graphviz version 2.43.0 (0)
 -->
<!-- Title: ugrpc::server::InputStream&lt; Request, Response &gt; Pages: 1 -->
<svg width="296pt" height="104pt"
 viewBox="0.00 0.00 295.50 104.00" xmlns="http://www.w3.org/2000/svg" xmlns:xlink="http://www.w3.org/1999/xlink">
<g id="graph0" class="graph" transform="scale(1 1) rotate(0) translate(4 100)">
<title>ugrpc::server::InputStream&lt; Request, Response &gt;</title>
<!-- Node1 -->
<g id="Node000001" class="node">
<title>Node1</title>
<g id="a_Node000001"><a xlink:title="Controls a request stream &#45;&gt; single response RPC.">
<polygon fill="#999999" stroke="#666666" points="223,-30 77,-30 77,0 223,0 223,-30"/>
<text text-anchor="start" x="85" y="-18" font-family="Helvetica,sans-Serif" font-size="10.00">ugrpc::server::InputStream</text>
<text text-anchor="middle" x="150" y="-7" font-family="Helvetica,sans-Serif" font-size="10.00">&lt; Request, Response &gt;</text>
</a>
</g>
</g>
<!-- Node2 -->
<g id="Node000002" class="node">
<title>Node2</title>
<g id="a_Node000002"><a xlink:href="../../da/dd9/classugrpc_1_1server_1_1CallAnyBase.html" target="_top" xlink:title="A non&#45;typed base class for any gRPC call.">
<polygon fill="white" stroke="#666666" points="148,-90.5 0,-90.5 0,-71.5 148,-71.5 148,-90.5"/>
<text text-anchor="middle" x="74" y="-78.5" font-family="Helvetica,sans-Serif" font-size="10.00">ugrpc::server::CallAnyBase</text>
</a>
</g>
</g>
<!-- Node2&#45;&gt;Node1 -->
<g id="edge1_Node000001_Node000002" class="edge">
<title>Node2&#45;&gt;Node1</title>
<g id="a_edge1_Node000001_Node000002"><a xlink:title=" ">
<path fill="none" stroke="#63b8ff" d="M92.15,-64.71C104.63,-54.21 121.07,-40.36 133.24,-30.12"/>
<polygon fill="#63b8ff" stroke="#63b8ff" points="89.64,-62.25 84.25,-71.37 94.15,-67.6 89.64,-62.25"/>
</a>
</g>
</g>
<!-- Node3 -->
<g id="Node000003" class="node">
<title>Node3</title>
<g id="a_Node000003"><a xlink:href="../../db/dd8/classugrpc_1_1server_1_1Reader.html" target="_top" xlink:title="Interface to read client&#39;s requests.">
<polygon fill="white" stroke="#666666" points="287.5,-96 166.5,-96 166.5,-66 287.5,-66 287.5,-96"/>
<text text-anchor="start" x="174.5" y="-84" font-family="Helvetica,sans-Serif" font-size="10.00">ugrpc::server::Reader</text>
<text text-anchor="middle" x="227" y="-73" font-family="Helvetica,sans-Serif" font-size="10.00">&lt; Request &gt;</text>
</a>
</g>
</g>
<!-- Node3&#45;&gt;Node1 -->
<g id="edge2_Node000001_Node000003" class="edge">
<title>Node3&#45;&gt;Node1</title>
<g id="a_edge2_Node000001_Node000003"><a xlink:title=" ">
<path fill="none" stroke="#63b8ff" d="M201.98,-59.2C190.55,-49.7 177.3,-38.69 167.04,-30.16"/>
<polygon fill="#63b8ff" stroke="#63b8ff" points="199.98,-62.1 209.91,-65.8 204.46,-56.71 199.98,-62.1"/>
</a>
</g>
</g>
</g>
</svg>
