<?xml version="1.0" encoding="UTF-8" standalone="no"?>
<!DOCTYPE svg PUBLIC "-//W3C//DTD SVG 1.1//EN"
 "http://www.w3.org/Graphics/SVG/1.1/DTD/svg11.dtd">
<!-- Generated by graphviz version 2.43.0 (0)
 -->
<!-- Title: storages::redis::ScanRequest&lt; scan_tag &gt;::GetAfterEofException Pages: 1 -->
<svg width="201pt" height="203pt"
 viewBox="0.00 0.00 201.00 203.00" xmlns="http://www.w3.org/2000/svg" xmlns:xlink="http://www.w3.org/1999/xlink">
<g id="graph0" class="graph" transform="scale(1 1) rotate(0) translate(4 199)">
<title>storages::redis::ScanRequest&lt; scan_tag &gt;::GetAfterEofException</title>
<!-- Node1 -->
<g id="Node000001" class="node">
<title>Node1</title>
<g id="a_Node000001"><a xlink:title=" ">
<polygon fill="#999999" stroke="#666666" points="193,-30 0,-30 0,0 193,0 193,-30"/>
<text text-anchor="start" x="8" y="-18" font-family="Helvetica,sans-Serif" font-size="10.00">storages::redis::ScanRequest</text>
<text text-anchor="middle" x="96.5" y="-7" font-family="Helvetica,sans-Serif" font-size="10.00">&lt; scan_tag &gt;::GetAfterEofException</text>
</a>
</g>
</g>
<!-- Node2 -->
<g id="Node000002" class="node">
<title>Node2</title>
<g id="a_Node000002"><a xlink:href="../../d1/dff/classredis_1_1Exception.html" target="_top" xlink:title="Generic redis&#45;related exception.">
<polygon fill="white" stroke="#666666" points="144,-85 49,-85 49,-66 144,-66 144,-85"/>
<text text-anchor="middle" x="96.5" y="-73" font-family="Helvetica,sans-Serif" font-size="10.00">redis::Exception</text>
</a>
</g>
</g>
<!-- Node2&#45;&gt;Node1 -->
<g id="edge1_Node000001_Node000002" class="edge">
<title>Node2&#45;&gt;Node1</title>
<g id="a_edge1_Node000001_Node000002"><a xlink:title=" ">
<path fill="none" stroke="#63b8ff" d="M96.5,-55.65C96.5,-47.36 96.5,-37.78 96.5,-30.11"/>
<polygon fill="#63b8ff" stroke="#63b8ff" points="93,-55.87 96.5,-65.87 100,-55.87 93,-55.87"/>
</a>
</g>
</g>
<!-- Node3 -->
<g id="Node000003" class="node">
<title>Node3</title>
<g id="a_Node000003"><a xlink:title=" ">
<polygon fill="white" stroke="#666666" points="148.5,-140 44.5,-140 44.5,-121 148.5,-121 148.5,-140"/>
<text text-anchor="middle" x="96.5" y="-128" font-family="Helvetica,sans-Serif" font-size="10.00">std::runtime_error</text>
</a>
</g>
</g>
<!-- Node3&#45;&gt;Node2 -->
<g id="edge2_Node000002_Node000003" class="edge">
<title>Node3&#45;&gt;Node2</title>
<g id="a_edge2_Node000002_Node000003"><a xlink:title=" ">
<path fill="none" stroke="#63b8ff" d="M96.5,-110.66C96.5,-101.93 96.5,-91.99 96.5,-85.09"/>
<polygon fill="#63b8ff" stroke="#63b8ff" points="93,-110.75 96.5,-120.75 100,-110.75 93,-110.75"/>
</a>
</g>
</g>
<!-- Node4 -->
<g id="Node000004" class="node">
<title>Node4</title>
<g id="a_Node000004"><a xlink:title=" ">
<polygon fill="white" stroke="#666666" points="139.5,-195 53.5,-195 53.5,-176 139.5,-176 139.5,-195"/>
<text text-anchor="middle" x="96.5" y="-183" font-family="Helvetica,sans-Serif" font-size="10.00">std::exception</text>
</a>
</g>
</g>
<!-- Node4&#45;&gt;Node3 -->
<g id="edge3_Node000003_Node000004" class="edge">
<title>Node4&#45;&gt;Node3</title>
<g id="a_edge3_Node000003_Node000004"><a xlink:title=" ">
<path fill="none" stroke="#63b8ff" d="M96.5,-165.66C96.5,-156.93 96.5,-146.99 96.5,-140.09"/>
<polygon fill="#63b8ff" stroke="#63b8ff" points="93,-165.75 96.5,-175.75 100,-165.75 93,-165.75"/>
</a>
</g>
</g>
</g>
</svg>
