<?xml version="1.0" encoding="UTF-8" standalone="no"?>
<!DOCTYPE svg PUBLIC "-//W3C//DTD SVG 1.1//EN"
 "http://www.w3.org/Graphics/SVG/1.1/DTD/svg11.dtd">
<!-- Generated by graphviz version 2.43.0 (0)
 -->
<!-- Title: userver/storages/clickhouse/io/columns/column_iterator.hpp Pages: 1 -->
<svg width="2462pt" height="368pt"
 viewBox="0.00 0.00 2462.33 368.00" xmlns="http://www.w3.org/2000/svg" xmlns:xlink="http://www.w3.org/1999/xlink">
<g id="graph0" class="graph" transform="scale(1 1) rotate(0) translate(4 364)">
<title>userver/storages/clickhouse/io/columns/column_iterator.hpp</title>
<!-- Node1 -->
<g id="Node000001" class="node">
<title>Node1</title>
<g id="a_Node000001"><a xlink:title=" ">
<polygon fill="#999999" stroke="#666666" points="1336.63,-360 1163.63,-360 1163.63,-330 1336.63,-330 1336.63,-360"/>
<text text-anchor="start" x="1171.63" y="-348" font-family="Helvetica,sans-Serif" font-size="10.00">userver/storages/clickhouse</text>
<text text-anchor="middle" x="1250.13" y="-337" font-family="Helvetica,sans-Serif" font-size="10.00">/io/columns/column_iterator.hpp</text>
</a>
</g>
</g>
<!-- Node2 -->
<g id="Node000002" class="node">
<title>Node2</title>
<g id="a_Node000002"><a xlink:href="../../d0/da9/base__column_8hpp.html" target="_top" xlink:title="Base class for every typed ClickHouse column. To add new columns one should derive from this class,...">
<polygon fill="white" stroke="#666666" points="1330.63,-294 1169.63,-294 1169.63,-264 1330.63,-264 1330.63,-294"/>
<text text-anchor="start" x="1177.63" y="-282" font-family="Helvetica,sans-Serif" font-size="10.00">userver/storages/clickhouse</text>
<text text-anchor="middle" x="1250.13" y="-271" font-family="Helvetica,sans-Serif" font-size="10.00">/io/columns/base_column.hpp</text>
</a>
</g>
</g>
<!-- Node1&#45;&gt;Node2 -->
<g id="edge1_Node000001_Node000002" class="edge">
<title>Node1&#45;&gt;Node2</title>
<g id="a_edge1_Node000001_Node000002"><a xlink:title=" ">
<path fill="none" stroke="#63b8ff" d="M1250.13,-319.54C1250.13,-310.96 1250.13,-301.61 1250.13,-294.16"/>
<polygon fill="#63b8ff" stroke="#63b8ff" points="1246.63,-319.8 1250.13,-329.8 1253.63,-319.8 1246.63,-319.8"/>
</a>
</g>
</g>
<!-- Node3 -->
<g id="Node000003" class="node">
<title>Node3</title>
<g id="a_Node000003"><a xlink:href="../../df/d5f/column__includes_8hpp.html" target="_top" xlink:title=" ">
<polygon fill="white" stroke="#666666" points="1339.63,-228 1160.63,-228 1160.63,-198 1339.63,-198 1339.63,-228"/>
<text text-anchor="start" x="1168.63" y="-216" font-family="Helvetica,sans-Serif" font-size="10.00">userver/storages/clickhouse</text>
<text text-anchor="middle" x="1250.13" y="-205" font-family="Helvetica,sans-Serif" font-size="10.00">/io/columns/column_includes.hpp</text>
</a>
</g>
</g>
<!-- Node2&#45;&gt;Node3 -->
<g id="edge2_Node000002_Node000003" class="edge">
<title>Node2&#45;&gt;Node3</title>
<g id="a_edge2_Node000002_Node000003"><a xlink:title=" ">
<path fill="none" stroke="#63b8ff" d="M1250.13,-253.54C1250.13,-244.96 1250.13,-235.61 1250.13,-228.16"/>
<polygon fill="#63b8ff" stroke="#63b8ff" points="1246.63,-253.8 1250.13,-263.8 1253.63,-253.8 1246.63,-253.8"/>
</a>
</g>
</g>
<!-- Node4 -->
<g id="Node000004" class="node">
<title>Node4</title>
<g id="a_Node000004"><a xlink:href="../../dd/d45/array__column_8hpp.html" target="_top" xlink:title="Array column support.">
<polygon fill="white" stroke="#666666" points="969.13,-30 805.13,-30 805.13,0 969.13,0 969.13,-30"/>
<text text-anchor="start" x="813.13" y="-18" font-family="Helvetica,sans-Serif" font-size="10.00">userver/storages/clickhouse</text>
<text text-anchor="middle" x="887.13" y="-7" font-family="Helvetica,sans-Serif" font-size="10.00">/io/columns/array_column.hpp</text>
</a>
</g>
</g>
<!-- Node3&#45;&gt;Node4 -->
<g id="edge3_Node000003_Node000004" class="edge">
<title>Node3&#45;&gt;Node4</title>
<g id="a_edge3_Node000003_Node000004"><a xlink:title=" ">
<path fill="none" stroke="#63b8ff" d="M1150.11,-211.7C861.88,-210.36 47.46,-202.95 8.13,-162 -12.26,-140.78 11.8,-78.87 28.13,-66 88.19,-18.67 601.67,-15.07 804.85,-15.52"/>
<polygon fill="#63b8ff" stroke="#63b8ff" points="1150.13,-215.2 1160.14,-211.75 1150.16,-208.2 1150.13,-215.2"/>
</a>
</g>
</g>
<!-- Node5 -->
<g id="Node000005" class="node">
<title>Node5</title>
<g id="a_Node000005"><a xlink:href="../../d0/dbe/datetime64__column_8hpp.html" target="_top" xlink:title="DateTime64 columns support.">
<polygon fill="white" stroke="#666666" points="211.13,-162 17.13,-162 17.13,-132 211.13,-132 211.13,-162"/>
<text text-anchor="start" x="25.13" y="-150" font-family="Helvetica,sans-Serif" font-size="10.00">userver/storages/clickhouse</text>
<text text-anchor="middle" x="114.13" y="-139" font-family="Helvetica,sans-Serif" font-size="10.00">/io/columns/datetime64_column.hpp</text>
</a>
</g>
</g>
<!-- Node3&#45;&gt;Node5 -->
<g id="edge4_Node000003_Node000005" class="edge">
<title>Node3&#45;&gt;Node5</title>
<g id="a_edge4_Node000003_Node000005"><a xlink:title=" ">
<path fill="none" stroke="#63b8ff" d="M1150.19,-209.9C965.96,-205.41 560.5,-192.69 220.13,-162 217.17,-161.73 214.17,-161.45 211.14,-161.14"/>
<polygon fill="#63b8ff" stroke="#63b8ff" points="1150.32,-213.4 1160.4,-210.14 1150.49,-206.4 1150.32,-213.4"/>
</a>
</g>
</g>
<!-- Node7 -->
<g id="Node000007" class="node">
<title>Node7</title>
<g id="a_Node000007"><a xlink:href="../../d3/d11/nullable__column_8hpp.html" target="_top" xlink:title="Nullable column support.">
<polygon fill="white" stroke="#666666" points="1700.63,-30 1523.63,-30 1523.63,0 1700.63,0 1700.63,-30"/>
<text text-anchor="start" x="1531.63" y="-18" font-family="Helvetica,sans-Serif" font-size="10.00">userver/storages/clickhouse</text>
<text text-anchor="middle" x="1612.13" y="-7" font-family="Helvetica,sans-Serif" font-size="10.00">/io/columns/nullable_column.hpp</text>
</a>
</g>
</g>
<!-- Node3&#45;&gt;Node7 -->
<g id="edge21_Node000003_Node000007" class="edge">
<title>Node3&#45;&gt;Node7</title>
<g id="a_edge21_Node000003_Node000007"><a xlink:title=" ">
<path fill="none" stroke="#63b8ff" d="M1349.97,-211.53C1629.93,-209.71 2404.58,-201.16 2442.13,-162 2547.32,-52.31 1935.17,-24.5 1700.68,-17.91"/>
<polygon fill="#63b8ff" stroke="#63b8ff" points="1349.79,-208.03 1339.82,-211.59 1349.84,-215.03 1349.79,-208.03"/>
</a>
</g>
</g>
<!-- Node9 -->
<g id="Node000009" class="node">
<title>Node9</title>
<g id="a_Node000009"><a xlink:href="../../dd/d64/datetime__column_8hpp.html" target="_top" xlink:title="DateTime column support.">
<polygon fill="white" stroke="#666666" points="411.13,-162 229.13,-162 229.13,-132 411.13,-132 411.13,-162"/>
<text text-anchor="start" x="237.13" y="-150" font-family="Helvetica,sans-Serif" font-size="10.00">userver/storages/clickhouse</text>
<text text-anchor="middle" x="320.13" y="-139" font-family="Helvetica,sans-Serif" font-size="10.00">/io/columns/datetime_column.hpp</text>
</a>
</g>
</g>
<!-- Node3&#45;&gt;Node9 -->
<g id="edge9_Node000003_Node000009" class="edge">
<title>Node3&#45;&gt;Node9</title>
<g id="a_edge9_Node000003_Node000009"><a xlink:title=" ">
<path fill="none" stroke="#63b8ff" d="M1150.54,-208.54C994.53,-202.55 683.14,-188.29 420.13,-162 417.25,-161.71 414.33,-161.4 411.38,-161.08"/>
<polygon fill="#63b8ff" stroke="#63b8ff" points="1150.46,-212.04 1160.59,-208.92 1150.73,-205.05 1150.46,-212.04"/>
</a>
</g>
</g>
<!-- Node10 -->
<g id="Node000010" class="node">
<title>Node10</title>
<g id="a_Node000010"><a xlink:href="../../d5/d0f/float32__column_8hpp.html" target="_top" xlink:title="Float32 column support.">
<polygon fill="white" stroke="#666666" points="601.13,-162 429.13,-162 429.13,-132 601.13,-132 601.13,-162"/>
<text text-anchor="start" x="437.13" y="-150" font-family="Helvetica,sans-Serif" font-size="10.00">userver/storages/clickhouse</text>
<text text-anchor="middle" x="515.13" y="-139" font-family="Helvetica,sans-Serif" font-size="10.00">/io/columns/float32_column.hpp</text>
</a>
</g>
</g>
<!-- Node3&#45;&gt;Node10 -->
<g id="edge11_Node000003_Node000010" class="edge">
<title>Node3&#45;&gt;Node10</title>
<g id="a_edge11_Node000003_Node000010"><a xlink:title=" ">
<path fill="none" stroke="#63b8ff" d="M1150.35,-206.32C1024.27,-198.66 800.72,-183.46 610.13,-162 607.23,-161.67 604.28,-161.33 601.31,-160.96"/>
<polygon fill="#63b8ff" stroke="#63b8ff" points="1150.19,-209.82 1160.38,-206.93 1150.61,-202.83 1150.19,-209.82"/>
</a>
</g>
</g>
<!-- Node11 -->
<g id="Node000011" class="node">
<title>Node11</title>
<g id="a_Node000011"><a xlink:href="../../d5/d1e/float64__column_8hpp.html" target="_top" xlink:title="Float64 column support.">
<polygon fill="white" stroke="#666666" points="791.13,-162 619.13,-162 619.13,-132 791.13,-132 791.13,-162"/>
<text text-anchor="start" x="627.13" y="-150" font-family="Helvetica,sans-Serif" font-size="10.00">userver/storages/clickhouse</text>
<text text-anchor="middle" x="705.13" y="-139" font-family="Helvetica,sans-Serif" font-size="10.00">/io/columns/float64_column.hpp</text>
</a>
</g>
</g>
<!-- Node3&#45;&gt;Node11 -->
<g id="edge13_Node000003_Node000011" class="edge">
<title>Node3&#45;&gt;Node11</title>
<g id="a_edge13_Node000003_Node000011"><a xlink:title=" ">
<path fill="none" stroke="#63b8ff" d="M1150.3,-201.94C1059.03,-192.5 920.35,-177.53 800.13,-162 797.23,-161.63 794.29,-161.24 791.32,-160.84"/>
<polygon fill="#63b8ff" stroke="#63b8ff" points="1150.06,-205.43 1160.37,-202.98 1150.78,-198.47 1150.06,-205.43"/>
</a>
</g>
</g>
<!-- Node12 -->
<g id="Node000012" class="node">
<title>Node12</title>
<g id="a_Node000012"><a xlink:href="../../d6/d6e/int32__column_8hpp.html" target="_top" xlink:title="Int32 column support.">
<polygon fill="white" stroke="#666666" points="972.63,-162 809.63,-162 809.63,-132 972.63,-132 972.63,-162"/>
<text text-anchor="start" x="817.63" y="-150" font-family="Helvetica,sans-Serif" font-size="10.00">userver/storages/clickhouse</text>
<text text-anchor="middle" x="891.13" y="-139" font-family="Helvetica,sans-Serif" font-size="10.00">/io/columns/int32_column.hpp</text>
</a>
</g>
</g>
<!-- Node3&#45;&gt;Node12 -->
<g id="edge15_Node000003_Node000012" class="edge">
<title>Node3&#45;&gt;Node12</title>
<g id="a_edge15_Node000003_Node000012"><a xlink:title=" ">
<path fill="none" stroke="#63b8ff" d="M1161.33,-196.17C1102.59,-185.7 1026.27,-172.09 969.73,-162.01"/>
<polygon fill="#63b8ff" stroke="#63b8ff" points="1160.88,-199.65 1171.34,-197.95 1162.11,-192.75 1160.88,-199.65"/>
</a>
</g>
</g>
<!-- Node13 -->
<g id="Node000013" class="node">
<title>Node13</title>
<g id="a_Node000013"><a xlink:href="../../d5/d88/int64__column_8hpp.html" target="_top" xlink:title="Int64 column support.">
<polygon fill="white" stroke="#666666" points="1153.63,-162 990.63,-162 990.63,-132 1153.63,-132 1153.63,-162"/>
<text text-anchor="start" x="998.63" y="-150" font-family="Helvetica,sans-Serif" font-size="10.00">userver/storages/clickhouse</text>
<text text-anchor="middle" x="1072.13" y="-139" font-family="Helvetica,sans-Serif" font-size="10.00">/io/columns/int64_column.hpp</text>
</a>
</g>
</g>
<!-- Node3&#45;&gt;Node13 -->
<g id="edge17_Node000003_Node000013" class="edge">
<title>Node3&#45;&gt;Node13</title>
<g id="a_edge17_Node000003_Node000013"><a xlink:title=" ">
<path fill="none" stroke="#63b8ff" d="M1201.33,-194.46C1172.94,-184.25 1137.63,-171.55 1111.1,-162.01"/>
<polygon fill="#63b8ff" stroke="#63b8ff" points="1200.47,-197.86 1211.06,-197.95 1202.84,-191.28 1200.47,-197.86"/>
</a>
</g>
</g>
<!-- Node14 -->
<g id="Node000014" class="node">
<title>Node14</title>
<g id="a_Node000014"><a xlink:href="../../de/dff/int8__column_8hpp.html" target="_top" xlink:title="Int8 column support.">
<polygon fill="white" stroke="#666666" points="1328.63,-162 1171.63,-162 1171.63,-132 1328.63,-132 1328.63,-162"/>
<text text-anchor="start" x="1179.63" y="-150" font-family="Helvetica,sans-Serif" font-size="10.00">userver/storages/clickhouse</text>
<text text-anchor="middle" x="1250.13" y="-139" font-family="Helvetica,sans-Serif" font-size="10.00">/io/columns/int8_column.hpp</text>
</a>
</g>
</g>
<!-- Node3&#45;&gt;Node14 -->
<g id="edge19_Node000003_Node000014" class="edge">
<title>Node3&#45;&gt;Node14</title>
<g id="a_edge19_Node000003_Node000014"><a xlink:title=" ">
<path fill="none" stroke="#63b8ff" d="M1250.13,-187.54C1250.13,-178.96 1250.13,-169.61 1250.13,-162.16"/>
<polygon fill="#63b8ff" stroke="#63b8ff" points="1246.63,-187.8 1250.13,-197.8 1253.63,-187.8 1246.63,-187.8"/>
</a>
</g>
</g>
<!-- Node15 -->
<g id="Node000015" class="node">
<title>Node15</title>
<g id="a_Node000015"><a xlink:href="../../d2/d33/string__column_8hpp.html" target="_top" xlink:title="String column support.">
<polygon fill="white" stroke="#666666" points="1513.13,-162 1347.13,-162 1347.13,-132 1513.13,-132 1513.13,-162"/>
<text text-anchor="start" x="1355.13" y="-150" font-family="Helvetica,sans-Serif" font-size="10.00">userver/storages/clickhouse</text>
<text text-anchor="middle" x="1430.13" y="-139" font-family="Helvetica,sans-Serif" font-size="10.00">/io/columns/string_column.hpp</text>
</a>
</g>
</g>
<!-- Node3&#45;&gt;Node15 -->
<g id="edge22_Node000003_Node000015" class="edge">
<title>Node3&#45;&gt;Node15</title>
<g id="a_edge22_Node000003_Node000015"><a xlink:title=" ">
<path fill="none" stroke="#63b8ff" d="M1299.09,-194.59C1327.87,-184.36 1363.77,-171.59 1390.72,-162.01"/>
<polygon fill="#63b8ff" stroke="#63b8ff" points="1297.88,-191.31 1289.63,-197.95 1300.22,-197.9 1297.88,-191.31"/>
</a>
</g>
</g>
<!-- Node16 -->
<g id="Node000016" class="node">
<title>Node16</title>
<g id="a_Node000016"><a xlink:href="../../d3/d31/uint16__column_8hpp.html" target="_top" xlink:title="UInt16 column support.">
<polygon fill="white" stroke="#666666" points="1700.63,-162 1531.63,-162 1531.63,-132 1700.63,-132 1700.63,-162"/>
<text text-anchor="start" x="1539.63" y="-150" font-family="Helvetica,sans-Serif" font-size="10.00">userver/storages/clickhouse</text>
<text text-anchor="middle" x="1616.13" y="-139" font-family="Helvetica,sans-Serif" font-size="10.00">/io/columns/uint16_column.hpp</text>
</a>
</g>
</g>
<!-- Node3&#45;&gt;Node16 -->
<g id="edge24_Node000003_Node000016" class="edge">
<title>Node3&#45;&gt;Node16</title>
<g id="a_edge24_Node000003_Node000016"><a xlink:title=" ">
<path fill="none" stroke="#63b8ff" d="M1340.65,-196.17C1400.54,-185.7 1478.35,-172.09 1535.99,-162.01"/>
<polygon fill="#63b8ff" stroke="#63b8ff" points="1339.69,-192.78 1330.45,-197.95 1340.9,-199.68 1339.69,-192.78"/>
</a>
</g>
</g>
<!-- Node17 -->
<g id="Node000017" class="node">
<title>Node17</title>
<g id="a_Node000017"><a xlink:href="../../d8/d18/uint32__column_8hpp.html" target="_top" xlink:title="UInt32 column support.">
<polygon fill="white" stroke="#666666" points="1887.63,-162 1718.63,-162 1718.63,-132 1887.63,-132 1887.63,-162"/>
<text text-anchor="start" x="1726.63" y="-150" font-family="Helvetica,sans-Serif" font-size="10.00">userver/storages/clickhouse</text>
<text text-anchor="middle" x="1803.13" y="-139" font-family="Helvetica,sans-Serif" font-size="10.00">/io/columns/uint32_column.hpp</text>
</a>
</g>
</g>
<!-- Node3&#45;&gt;Node17 -->
<g id="edge26_Node000003_Node000017" class="edge">
<title>Node3&#45;&gt;Node17</title>
<g id="a_edge26_Node000003_Node000017"><a xlink:title=" ">
<path fill="none" stroke="#63b8ff" d="M1349.72,-202.37C1442.99,-193.07 1586.18,-178.06 1710.13,-162 1712.88,-161.64 1715.68,-161.27 1718.5,-160.89"/>
<polygon fill="#63b8ff" stroke="#63b8ff" points="1349.34,-198.89 1339.73,-203.36 1350.03,-205.85 1349.34,-198.89"/>
</a>
</g>
</g>
<!-- Node18 -->
<g id="Node000018" class="node">
<title>Node18</title>
<g id="a_Node000018"><a xlink:href="../../d8/d6c/uint64__column_8hpp.html" target="_top" xlink:title="UInt64 column support.">
<polygon fill="white" stroke="#666666" points="2074.63,-162 1905.63,-162 1905.63,-132 2074.63,-132 2074.63,-162"/>
<text text-anchor="start" x="1913.63" y="-150" font-family="Helvetica,sans-Serif" font-size="10.00">userver/storages/clickhouse</text>
<text text-anchor="middle" x="1990.13" y="-139" font-family="Helvetica,sans-Serif" font-size="10.00">/io/columns/uint64_column.hpp</text>
</a>
</g>
</g>
<!-- Node3&#45;&gt;Node18 -->
<g id="edge28_Node000003_Node000018" class="edge">
<title>Node3&#45;&gt;Node18</title>
<g id="a_edge28_Node000003_Node000018"><a xlink:title=" ">
<path fill="none" stroke="#63b8ff" d="M1349.93,-206.53C1477.2,-199.05 1703.95,-183.98 1897.13,-162 1899.89,-161.69 1902.69,-161.35 1905.51,-161"/>
<polygon fill="#63b8ff" stroke="#63b8ff" points="1349.59,-203.05 1339.81,-207.12 1349.99,-210.03 1349.59,-203.05"/>
</a>
</g>
</g>
<!-- Node19 -->
<g id="Node000019" class="node">
<title>Node19</title>
<g id="a_Node000019"><a xlink:href="../../d3/d2d/uint8__column_8hpp.html" target="_top" xlink:title="UInt8 column support.">
<polygon fill="white" stroke="#666666" points="2255.63,-162 2092.63,-162 2092.63,-132 2255.63,-132 2255.63,-162"/>
<text text-anchor="start" x="2100.63" y="-150" font-family="Helvetica,sans-Serif" font-size="10.00">userver/storages/clickhouse</text>
<text text-anchor="middle" x="2174.13" y="-139" font-family="Helvetica,sans-Serif" font-size="10.00">/io/columns/uint8_column.hpp</text>
</a>
</g>
</g>
<!-- Node3&#45;&gt;Node19 -->
<g id="edge30_Node000003_Node000019" class="edge">
<title>Node3&#45;&gt;Node19</title>
<g id="a_edge30_Node000003_Node000019"><a xlink:title=" ">
<path fill="none" stroke="#63b8ff" d="M1349.93,-209.06C1506.66,-203.77 1819.88,-190.41 2084.13,-162 2086.8,-161.71 2089.51,-161.4 2092.25,-161.07"/>
<polygon fill="#63b8ff" stroke="#63b8ff" points="1349.72,-205.57 1339.84,-209.4 1349.95,-212.56 1349.72,-205.57"/>
</a>
</g>
</g>
<!-- Node20 -->
<g id="Node000020" class="node">
<title>Node20</title>
<g id="a_Node000020"><a xlink:href="../../d6/dca/uuid__column_8hpp.html" target="_top" xlink:title="UUID column support.">
<polygon fill="white" stroke="#666666" points="2432.63,-162 2273.63,-162 2273.63,-132 2432.63,-132 2432.63,-162"/>
<text text-anchor="start" x="2281.63" y="-150" font-family="Helvetica,sans-Serif" font-size="10.00">userver/storages/clickhouse</text>
<text text-anchor="middle" x="2353.13" y="-139" font-family="Helvetica,sans-Serif" font-size="10.00">/io/columns/uuid_column.hpp</text>
</a>
</g>
</g>
<!-- Node3&#45;&gt;Node20 -->
<g id="edge32_Node000003_Node000020" class="edge">
<title>Node3&#45;&gt;Node20</title>
<g id="a_edge32_Node000003_Node000020"><a xlink:title=" ">
<path fill="none" stroke="#63b8ff" d="M1349.74,-210.68C1531.91,-207.46 1930.79,-196.73 2265.13,-162 2267.9,-161.71 2270.71,-161.4 2273.55,-161.06"/>
<polygon fill="#63b8ff" stroke="#63b8ff" points="1349.58,-207.18 1339.65,-210.85 1349.7,-214.18 1349.58,-207.18"/>
</a>
</g>
</g>
<!-- Node6 -->
<g id="Node000006" class="node">
<title>Node6</title>
<g id="a_Node000006"><a xlink:href="../../d3/d25/common__columns_8hpp.html" target="_top" xlink:title=" ">
<polygon fill="white" stroke="#666666" points="1343.13,-96 1157.13,-96 1157.13,-66 1343.13,-66 1343.13,-96"/>
<text text-anchor="start" x="1165.13" y="-84" font-family="Helvetica,sans-Serif" font-size="10.00">userver/storages/clickhouse</text>
<text text-anchor="middle" x="1250.13" y="-73" font-family="Helvetica,sans-Serif" font-size="10.00">/io/columns/common_columns.hpp</text>
</a>
</g>
</g>
<!-- Node5&#45;&gt;Node6 -->
<g id="edge5_Node000005_Node000006" class="edge">
<title>Node5&#45;&gt;Node6</title>
<g id="a_edge5_Node000005_Node000006"><a xlink:title=" ">
<path fill="none" stroke="#63b8ff" d="M221.25,-131.95C572.52,-100.69 977.72,-88.24 1156.92,-83.94"/>
<polygon fill="#63b8ff" stroke="#63b8ff" points="220.78,-128.48 211.14,-132.86 221.41,-135.45 220.78,-128.48"/>
</a>
</g>
</g>
<!-- Node8 -->
<g id="Node000008" class="node">
<title>Node8</title>
<g id="a_Node000008"><a xlink:href="../../de/dab/clickhouse_2include_2userver_2storages_2clickhouse_2io_2typedefs_8hpp.html" target="_top" xlink:title=" ">
<polygon fill="white" stroke="#666666" points="190.63,-96 37.63,-96 37.63,-66 190.63,-66 190.63,-96"/>
<text text-anchor="start" x="45.63" y="-84" font-family="Helvetica,sans-Serif" font-size="10.00">userver/storages/clickhouse</text>
<text text-anchor="middle" x="114.13" y="-73" font-family="Helvetica,sans-Serif" font-size="10.00">/io/typedefs.hpp</text>
</a>
</g>
</g>
<!-- Node5&#45;&gt;Node8 -->
<g id="edge8_Node000005_Node000008" class="edge">
<title>Node5&#45;&gt;Node8</title>
<g id="a_edge8_Node000005_Node000008"><a xlink:title=" ">
<path fill="none" stroke="#63b8ff" d="M114.13,-121.54C114.13,-112.96 114.13,-103.61 114.13,-96.16"/>
<polygon fill="#63b8ff" stroke="#63b8ff" points="110.63,-121.8 114.13,-131.8 117.63,-121.8 110.63,-121.8"/>
</a>
</g>
</g>
<!-- Node6&#45;&gt;Node4 -->
<g id="edge6_Node000006_Node000004" class="edge">
<title>Node6&#45;&gt;Node4</title>
<g id="a_edge6_Node000006_Node000004"><a xlink:title=" ">
<path fill="none" stroke="#63b8ff" d="M1160.34,-64.17C1100.95,-53.7 1023.77,-40.09 966.6,-30.01"/>
<polygon fill="#63b8ff" stroke="#63b8ff" points="1160.01,-67.67 1170.47,-65.95 1161.22,-60.77 1160.01,-67.67"/>
</a>
</g>
</g>
<!-- Node6&#45;&gt;Node7 -->
<g id="edge7_Node000006_Node000007" class="edge">
<title>Node6&#45;&gt;Node7</title>
<g id="a_edge7_Node000006_Node000007"><a xlink:title=" ">
<path fill="none" stroke="#63b8ff" d="M1339.66,-64.17C1398.9,-53.7 1475.86,-40.09 1532.87,-30.01"/>
<polygon fill="#63b8ff" stroke="#63b8ff" points="1338.81,-60.77 1329.57,-65.95 1340.03,-67.66 1338.81,-60.77"/>
</a>
</g>
</g>
<!-- Node9&#45;&gt;Node6 -->
<g id="edge10_Node000009_Node000006" class="edge">
<title>Node9&#45;&gt;Node6</title>
<g id="a_edge10_Node000009_Node000006"><a xlink:title=" ">
<path fill="none" stroke="#63b8ff" d="M421.48,-131.92C694.46,-105 1004.99,-90.99 1156.89,-85.22"/>
<polygon fill="#63b8ff" stroke="#63b8ff" points="420.98,-128.45 411.38,-132.92 421.67,-135.42 420.98,-128.45"/>
</a>
</g>
</g>
<!-- Node10&#45;&gt;Node6 -->
<g id="edge12_Node000010_Node000006" class="edge">
<title>Node10&#45;&gt;Node6</title>
<g id="a_edge12_Node000010_Node000006"><a xlink:title=" ">
<path fill="none" stroke="#63b8ff" d="M611.43,-131.9C811.62,-109.65 1034.24,-94.68 1156.93,-87.28"/>
<polygon fill="#63b8ff" stroke="#63b8ff" points="610.86,-128.45 601.31,-133.04 611.63,-135.4 610.86,-128.45"/>
</a>
</g>
</g>
<!-- Node11&#45;&gt;Node6 -->
<g id="edge14_Node000011_Node000006" class="edge">
<title>Node11&#45;&gt;Node6</title>
<g id="a_edge14_Node000011_Node000006"><a xlink:title=" ">
<path fill="none" stroke="#63b8ff" d="M801.39,-131.86C930.51,-115.31 1068.16,-100.53 1156.93,-91.38"/>
<polygon fill="#63b8ff" stroke="#63b8ff" points="800.79,-128.41 791.32,-133.16 801.69,-135.35 800.79,-128.41"/>
</a>
</g>
</g>
<!-- Node12&#45;&gt;Node6 -->
<g id="edge16_Node000012_Node000006" class="edge">
<title>Node12&#45;&gt;Node6</title>
<g id="a_edge16_Node000012_Node000006"><a xlink:title=" ">
<path fill="none" stroke="#63b8ff" d="M979.92,-130.17C1038.66,-119.7 1114.99,-106.09 1171.53,-96.01"/>
<polygon fill="#63b8ff" stroke="#63b8ff" points="979.14,-126.75 969.91,-131.95 980.37,-133.65 979.14,-126.75"/>
</a>
</g>
</g>
<!-- Node13&#45;&gt;Node6 -->
<g id="edge18_Node000013_Node000006" class="edge">
<title>Node13&#45;&gt;Node6</title>
<g id="a_edge18_Node000013_Node000006"><a xlink:title=" ">
<path fill="none" stroke="#63b8ff" d="M1120.92,-128.46C1149.32,-118.25 1184.63,-105.55 1211.16,-96.01"/>
<polygon fill="#63b8ff" stroke="#63b8ff" points="1119.42,-125.28 1111.19,-131.95 1121.78,-131.86 1119.42,-125.28"/>
</a>
</g>
</g>
<!-- Node14&#45;&gt;Node6 -->
<g id="edge20_Node000014_Node000006" class="edge">
<title>Node14&#45;&gt;Node6</title>
<g id="a_edge20_Node000014_Node000006"><a xlink:title=" ">
<path fill="none" stroke="#63b8ff" d="M1250.13,-121.54C1250.13,-112.96 1250.13,-103.61 1250.13,-96.16"/>
<polygon fill="#63b8ff" stroke="#63b8ff" points="1246.63,-121.8 1250.13,-131.8 1253.63,-121.8 1246.63,-121.8"/>
</a>
</g>
</g>
<!-- Node15&#45;&gt;Node6 -->
<g id="edge23_Node000015_Node000006" class="edge">
<title>Node15&#45;&gt;Node6</title>
<g id="a_edge23_Node000015_Node000006"><a xlink:title=" ">
<path fill="none" stroke="#63b8ff" d="M1381.16,-128.59C1352.38,-118.36 1316.48,-105.59 1289.54,-96.01"/>
<polygon fill="#63b8ff" stroke="#63b8ff" points="1380.03,-131.9 1390.63,-131.95 1382.38,-125.31 1380.03,-131.9"/>
</a>
</g>
</g>
<!-- Node16&#45;&gt;Node6 -->
<g id="edge25_Node000016_Node000006" class="edge">
<title>Node16&#45;&gt;Node6</title>
<g id="a_edge25_Node000016_Node000006"><a xlink:title=" ">
<path fill="none" stroke="#63b8ff" d="M1525.6,-130.17C1465.71,-119.7 1387.9,-106.09 1330.26,-96.01"/>
<polygon fill="#63b8ff" stroke="#63b8ff" points="1525.35,-133.68 1535.81,-131.95 1526.56,-126.78 1525.35,-133.68"/>
</a>
</g>
</g>
<!-- Node17&#45;&gt;Node6 -->
<g id="edge27_Node000017_Node000006" class="edge">
<title>Node17&#45;&gt;Node6</title>
<g id="a_edge27_Node000017_Node000006"><a xlink:title=" ">
<path fill="none" stroke="#63b8ff" d="M1708.58,-131.83C1576.11,-114.82 1433.96,-100 1343.21,-90.98"/>
<polygon fill="#63b8ff" stroke="#63b8ff" points="1708.13,-135.3 1718.5,-133.11 1709.03,-128.36 1708.13,-135.3"/>
</a>
</g>
</g>
<!-- Node18&#45;&gt;Node6 -->
<g id="edge29_Node000018_Node000006" class="edge">
<title>Node18&#45;&gt;Node6</title>
<g id="a_edge29_Node000018_Node000006"><a xlink:title=" ">
<path fill="none" stroke="#63b8ff" d="M1895.28,-131.84C1692.88,-109.13 1467.08,-94.3 1343.27,-87.08"/>
<polygon fill="#63b8ff" stroke="#63b8ff" points="1895.18,-135.35 1905.51,-133 1895.97,-128.4 1895.18,-135.35"/>
</a>
</g>
</g>
<!-- Node19&#45;&gt;Node6 -->
<g id="edge31_Node000019_Node000006" class="edge">
<title>Node19&#45;&gt;Node6</title>
<g id="a_edge31_Node000019_Node000006"><a xlink:title=" ">
<path fill="none" stroke="#63b8ff" d="M2082.12,-131.85C1808.31,-102.86 1495.71,-89.79 1343.24,-84.71"/>
<polygon fill="#63b8ff" stroke="#63b8ff" points="2081.94,-135.35 2092.25,-132.93 2082.68,-128.39 2081.94,-135.35"/>
</a>
</g>
</g>
<!-- Node20&#45;&gt;Node6 -->
<g id="edge33_Node000020_Node000006" class="edge">
<title>Node20&#45;&gt;Node6</title>
<g id="a_edge33_Node000020_Node000006"><a xlink:title=" ">
<path fill="none" stroke="#63b8ff" d="M2263.38,-131.89C1919,-96.66 1520.83,-86.26 1343.45,-83.21"/>
<polygon fill="#63b8ff" stroke="#63b8ff" points="2263.25,-135.4 2273.55,-132.94 2263.96,-128.44 2263.25,-135.4"/>
</a>
</g>
</g>
</g>
</svg>
