<?xml version="1.0" encoding="UTF-8" standalone="no"?>
<!DOCTYPE svg PUBLIC "-//W3C//DTD SVG 1.1//EN"
 "http://www.w3.org/Graphics/SVG/1.1/DTD/svg11.dtd">
<!-- Generated by graphviz version 2.43.0 (0)
 -->
<!-- Title: storages::postgres::TypeCannotBeNull Pages: 1 -->
<svg width="120pt" height="346pt"
 viewBox="0.00 0.00 120.00 346.00" xmlns="http://www.w3.org/2000/svg" xmlns:xlink="http://www.w3.org/1999/xlink">
<g id="graph0" class="graph" transform="scale(1 1) rotate(0) translate(4 342)">
<title>storages::postgres::TypeCannotBeNull</title>
<!-- Node1 -->
<g id="Node000001" class="node">
<title>Node1</title>
<g id="a_Node000001"><a xlink:title="A value of a non&#45;nullable type requested to be set null. Can occur if io::traits::IsNullable for the ...">
<polygon fill="#999999" stroke="#666666" points="112,-30 0,-30 0,0 112,0 112,-30"/>
<text text-anchor="start" x="8" y="-18" font-family="Helvetica,sans-Serif" font-size="10.00">storages::postgres</text>
<text text-anchor="middle" x="56" y="-7" font-family="Helvetica,sans-Serif" font-size="10.00">::TypeCannotBeNull</text>
</a>
</g>
</g>
<!-- Node2 -->
<g id="Node000002" class="node">
<title>Node2</title>
<g id="a_Node000002"><a xlink:href="../../d5/d9d/classstorages_1_1postgres_1_1ResultSetError.html" target="_top" xlink:title=" ">
<polygon fill="white" stroke="#bfbfbf" points="109.5,-96 2.5,-96 2.5,-66 109.5,-66 109.5,-96"/>
<text text-anchor="start" x="10.5" y="-84" font-family="Helvetica,sans-Serif" font-size="10.00">storages::postgres</text>
<text text-anchor="middle" x="56" y="-73" font-family="Helvetica,sans-Serif" font-size="10.00">::ResultSetError</text>
</a>
</g>
</g>
<!-- Node2&#45;&gt;Node1 -->
<g id="edge1_Node000001_Node000002" class="edge">
<title>Node2&#45;&gt;Node1</title>
<g id="a_edge1_Node000001_Node000002"><a xlink:title=" ">
<path fill="none" stroke="#63b8ff" d="M56,-55.54C56,-46.96 56,-37.61 56,-30.16"/>
<polygon fill="#63b8ff" stroke="#63b8ff" points="52.5,-55.8 56,-65.8 59.5,-55.8 52.5,-55.8"/>
</a>
</g>
</g>
<!-- Node3 -->
<g id="Node000003" class="node">
<title>Node3</title>
<g id="a_Node000003"><a xlink:href="../../d4/d74/classstorages_1_1postgres_1_1LogicError.html" target="_top" xlink:title="Base Postgres logic error. Reports errors that are consequences of erroneous driver usage,...">
<polygon fill="white" stroke="#666666" points="109.5,-162 2.5,-162 2.5,-132 109.5,-132 109.5,-162"/>
<text text-anchor="start" x="10.5" y="-150" font-family="Helvetica,sans-Serif" font-size="10.00">storages::postgres</text>
<text text-anchor="middle" x="56" y="-139" font-family="Helvetica,sans-Serif" font-size="10.00">::LogicError</text>
</a>
</g>
</g>
<!-- Node3&#45;&gt;Node2 -->
<g id="edge2_Node000002_Node000003" class="edge">
<title>Node3&#45;&gt;Node2</title>
<g id="a_edge2_Node000002_Node000003"><a xlink:title=" ">
<path fill="none" stroke="#63b8ff" d="M56,-121.54C56,-112.96 56,-103.61 56,-96.16"/>
<polygon fill="#63b8ff" stroke="#63b8ff" points="52.5,-121.8 56,-131.8 59.5,-121.8 52.5,-121.8"/>
</a>
</g>
</g>
<!-- Node4 -->
<g id="Node000004" class="node">
<title>Node4</title>
<g id="a_Node000004"><a xlink:href="../../df/d3d/classstorages_1_1postgres_1_1Error.html" target="_top" xlink:title="Base class for all exceptions that may be thrown by the driver.">
<polygon fill="white" stroke="#666666" points="109.5,-228 2.5,-228 2.5,-198 109.5,-198 109.5,-228"/>
<text text-anchor="start" x="10.5" y="-216" font-family="Helvetica,sans-Serif" font-size="10.00">storages::postgres</text>
<text text-anchor="middle" x="56" y="-205" font-family="Helvetica,sans-Serif" font-size="10.00">::Error</text>
</a>
</g>
</g>
<!-- Node4&#45;&gt;Node3 -->
<g id="edge3_Node000003_Node000004" class="edge">
<title>Node4&#45;&gt;Node3</title>
<g id="a_edge3_Node000003_Node000004"><a xlink:title=" ">
<path fill="none" stroke="#63b8ff" d="M56,-187.54C56,-178.96 56,-169.61 56,-162.16"/>
<polygon fill="#63b8ff" stroke="#63b8ff" points="52.5,-187.8 56,-197.8 59.5,-187.8 52.5,-187.8"/>
</a>
</g>
</g>
<!-- Node5 -->
<g id="Node000005" class="node">
<title>Node5</title>
<g id="a_Node000005"><a xlink:title=" ">
<polygon fill="white" stroke="#666666" points="108,-283 4,-283 4,-264 108,-264 108,-283"/>
<text text-anchor="middle" x="56" y="-271" font-family="Helvetica,sans-Serif" font-size="10.00">std::runtime_error</text>
</a>
</g>
</g>
<!-- Node5&#45;&gt;Node4 -->
<g id="edge4_Node000004_Node000005" class="edge">
<title>Node5&#45;&gt;Node4</title>
<g id="a_edge4_Node000004_Node000005"><a xlink:title=" ">
<path fill="none" stroke="#63b8ff" d="M56,-253.65C56,-245.36 56,-235.78 56,-228.11"/>
<polygon fill="#63b8ff" stroke="#63b8ff" points="52.5,-253.87 56,-263.87 59.5,-253.87 52.5,-253.87"/>
</a>
</g>
</g>
<!-- Node6 -->
<g id="Node000006" class="node">
<title>Node6</title>
<g id="a_Node000006"><a xlink:title=" ">
<polygon fill="white" stroke="#666666" points="99,-338 13,-338 13,-319 99,-319 99,-338"/>
<text text-anchor="middle" x="56" y="-326" font-family="Helvetica,sans-Serif" font-size="10.00">std::exception</text>
</a>
</g>
</g>
<!-- Node6&#45;&gt;Node5 -->
<g id="edge5_Node000005_Node000006" class="edge">
<title>Node6&#45;&gt;Node5</title>
<g id="a_edge5_Node000005_Node000006"><a xlink:title=" ">
<path fill="none" stroke="#63b8ff" d="M56,-308.66C56,-299.93 56,-289.99 56,-283.09"/>
<polygon fill="#63b8ff" stroke="#63b8ff" points="52.5,-308.75 56,-318.75 59.5,-308.75 52.5,-308.75"/>
</a>
</g>
</g>
</g>
</svg>
