<?xml version="1.0" encoding="UTF-8" standalone="no"?>
<!DOCTYPE svg PUBLIC "-//W3C//DTD SVG 1.1//EN"
 "http://www.w3.org/Graphics/SVG/1.1/DTD/svg11.dtd">
<!-- Generated by graphviz version 2.43.0 (0)
 -->
<!-- Title: userver/formats/common/utils.hpp Pages: 1 -->
<svg width="1187pt" height="291pt"
 viewBox="0.00 0.00 1186.50 291.00" xmlns="http://www.w3.org/2000/svg" xmlns:xlink="http://www.w3.org/1999/xlink">
<g id="graph0" class="graph" transform="scale(1 1) rotate(0) translate(4 287)">
<title>userver/formats/common/utils.hpp</title>
<!-- Node1 -->
<g id="Node000001" class="node">
<title>Node1</title>
<g id="a_Node000001"><a xlink:title="formats::common::GetAtPath and formats::common::RemoveAtPath utils for Value and ValueBuilder">
<polygon fill="#999999" stroke="#666666" points="481.5,-283 341.5,-283 341.5,-253 481.5,-253 481.5,-283"/>
<text text-anchor="start" x="349.5" y="-271" font-family="Helvetica,sans-Serif" font-size="10.00">userver/formats/common</text>
<text text-anchor="middle" x="411.5" y="-260" font-family="Helvetica,sans-Serif" font-size="10.00">/utils.hpp</text>
</a>
</g>
</g>
<!-- Node2 -->
<g id="Node000002" class="node">
<title>Node2</title>
<g id="a_Node000002"><a xlink:title=" ">
<polygon fill="#e0e0e0" stroke="#999999" points="53,-211.5 0,-211.5 0,-192.5 53,-192.5 53,-211.5"/>
<text text-anchor="middle" x="26.5" y="-199.5" font-family="Helvetica,sans-Serif" font-size="10.00">cstddef</text>
</a>
</g>
</g>
<!-- Node1&#45;&gt;Node2 -->
<g id="edge1_Node000001_Node000002" class="edge">
<title>Node1&#45;&gt;Node2</title>
<g id="a_edge1_Node000001_Node000002"><a xlink:title=" ">
<path fill="none" stroke="#63b8ff" d="M341.37,-261.7C270.23,-255.21 157.38,-241.89 62.5,-217 60.2,-216.4 57.85,-215.69 55.5,-214.93"/>
<polygon fill="#63b8ff" stroke="#63b8ff" points="56.63,-211.61 46.04,-211.53 54.27,-218.2 56.63,-211.61"/>
</a>
</g>
</g>
<!-- Node3 -->
<g id="Node000003" class="node">
<title>Node3</title>
<g id="a_Node000003"><a xlink:title=" ">
<polygon fill="#e0e0e0" stroke="#999999" points="127.5,-211.5 71.5,-211.5 71.5,-192.5 127.5,-192.5 127.5,-211.5"/>
<text text-anchor="middle" x="99.5" y="-199.5" font-family="Helvetica,sans-Serif" font-size="10.00">optional</text>
</a>
</g>
</g>
<!-- Node1&#45;&gt;Node3 -->
<g id="edge2_Node000001_Node000003" class="edge">
<title>Node1&#45;&gt;Node3</title>
<g id="a_edge2_Node000001_Node000003"><a xlink:title=" ">
<path fill="none" stroke="#63b8ff" d="M341.49,-257.86C285.43,-249.69 205.12,-236.05 136.5,-217 134.21,-216.36 131.86,-215.65 129.52,-214.88"/>
<polygon fill="#63b8ff" stroke="#63b8ff" points="130.62,-211.55 120.02,-211.52 128.29,-218.15 130.62,-211.55"/>
</a>
</g>
</g>
<!-- Node4 -->
<g id="Node000004" class="node">
<title>Node4</title>
<g id="a_Node000004"><a xlink:title=" ">
<polygon fill="#e0e0e0" stroke="#999999" points="189.5,-211.5 145.5,-211.5 145.5,-192.5 189.5,-192.5 189.5,-211.5"/>
<text text-anchor="middle" x="167.5" y="-199.5" font-family="Helvetica,sans-Serif" font-size="10.00">string</text>
</a>
</g>
</g>
<!-- Node1&#45;&gt;Node4 -->
<g id="edge3_Node000001_Node000004" class="edge">
<title>Node1&#45;&gt;Node4</title>
<g id="a_edge3_Node000001_Node000004"><a xlink:title=" ">
<path fill="none" stroke="#63b8ff" d="M341.48,-254.13C299.45,-245.52 245.26,-232.88 198.5,-217 197.1,-216.53 195.68,-216.01 194.26,-215.47"/>
<polygon fill="#63b8ff" stroke="#63b8ff" points="195.54,-212.21 184.97,-211.6 192.85,-218.67 195.54,-212.21"/>
</a>
</g>
</g>
<!-- Node5 -->
<g id="Node000005" class="node">
<title>Node5</title>
<g id="a_Node000005"><a xlink:title=" ">
<polygon fill="#e0e0e0" stroke="#999999" points="421,-145.5 348,-145.5 348,-126.5 421,-126.5 421,-145.5"/>
<text text-anchor="middle" x="384.5" y="-133.5" font-family="Helvetica,sans-Serif" font-size="10.00">string_view</text>
</a>
</g>
</g>
<!-- Node1&#45;&gt;Node5 -->
<g id="edge4_Node000001_Node000005" class="edge">
<title>Node1&#45;&gt;Node5</title>
<g id="a_edge4_Node000001_Node000005"><a xlink:title=" ">
<path fill="none" stroke="#63b8ff" d="M439.55,-252.95C453.07,-244.54 467.96,-232.46 475.5,-217 481.35,-205.02 482.29,-198.48 475.5,-187 464.79,-168.9 444.95,-156.91 426.51,-149.23"/>
<polygon fill="#63b8ff" stroke="#63b8ff" points="427.65,-145.91 417.06,-145.59 425.13,-152.45 427.65,-145.91"/>
</a>
</g>
</g>
<!-- Node6 -->
<g id="Node000006" class="node">
<title>Node6</title>
<g id="a_Node000006"><a xlink:title=" ">
<polygon fill="#e0e0e0" stroke="#999999" points="402,-211.5 357,-211.5 357,-192.5 402,-192.5 402,-211.5"/>
<text text-anchor="middle" x="379.5" y="-199.5" font-family="Helvetica,sans-Serif" font-size="10.00">utility</text>
</a>
</g>
</g>
<!-- Node1&#45;&gt;Node6 -->
<g id="edge5_Node000001_Node000006" class="edge">
<title>Node1&#45;&gt;Node6</title>
<g id="a_edge5_Node000001_Node000006"><a xlink:title=" ">
<path fill="none" stroke="#63b8ff" d="M404.4,-252.8C399.7,-243.41 393.51,-231.02 388.47,-220.95"/>
<polygon fill="#63b8ff" stroke="#63b8ff" points="391.52,-219.22 383.92,-211.84 385.26,-222.35 391.52,-219.22"/>
</a>
</g>
</g>
<!-- Node7 -->
<g id="Node000007" class="node">
<title>Node7</title>
<g id="a_Node000007"><a xlink:title=" ">
<polygon fill="#e0e0e0" stroke="#999999" points="467,-211.5 420,-211.5 420,-192.5 467,-192.5 467,-211.5"/>
<text text-anchor="middle" x="443.5" y="-199.5" font-family="Helvetica,sans-Serif" font-size="10.00">vector</text>
</a>
</g>
</g>
<!-- Node1&#45;&gt;Node7 -->
<g id="edge6_Node000001_Node000007" class="edge">
<title>Node1&#45;&gt;Node7</title>
<g id="a_edge6_Node000001_Node000007"><a xlink:title=" ">
<path fill="none" stroke="#63b8ff" d="M418.6,-252.8C423.3,-243.41 429.49,-231.02 434.53,-220.95"/>
<polygon fill="#63b8ff" stroke="#63b8ff" points="437.74,-222.35 439.08,-211.84 431.48,-219.22 437.74,-222.35"/>
</a>
</g>
</g>
<!-- Node8 -->
<g id="Node000008" class="node">
<title>Node8</title>
<g id="a_Node000008"><a xlink:href="../../da/d00/universal_2include_2userver_2formats_2common_2meta_8hpp.html" target="_top" xlink:title="Metaprogramming helpers for converters detection.">
<polygon fill="white" stroke="#666666" points="979.5,-217 839.5,-217 839.5,-187 979.5,-187 979.5,-217"/>
<text text-anchor="start" x="847.5" y="-205" font-family="Helvetica,sans-Serif" font-size="10.00">userver/formats/common</text>
<text text-anchor="middle" x="909.5" y="-194" font-family="Helvetica,sans-Serif" font-size="10.00">/meta.hpp</text>
</a>
</g>
</g>
<!-- Node1&#45;&gt;Node8 -->
<g id="edge7_Node000001_Node000008" class="edge">
<title>Node1&#45;&gt;Node8</title>
<g id="a_edge7_Node000001_Node000008"><a xlink:title=" ">
<path fill="none" stroke="#63b8ff" d="M481.72,-259.85C562.96,-251.3 700.98,-235.92 829.31,-217.13"/>
<polygon fill="#63b8ff" stroke="#63b8ff" points="829.94,-220.57 839.32,-215.65 828.92,-213.65 829.94,-220.57"/>
</a>
</g>
</g>
<!-- Node14 -->
<g id="Node000014" class="node">
<title>Node14</title>
<g id="a_Node000014"><a xlink:href="../../d6/dfe/transfer__tag_8hpp.html" target="_top" xlink:title="This tag class is used to move a ValueBuilder object without copying.">
<polygon fill="white" stroke="#666666" points="663.5,-217 523.5,-217 523.5,-187 663.5,-187 663.5,-217"/>
<text text-anchor="start" x="531.5" y="-205" font-family="Helvetica,sans-Serif" font-size="10.00">userver/formats/common</text>
<text text-anchor="middle" x="593.5" y="-194" font-family="Helvetica,sans-Serif" font-size="10.00">/transfer_tag.hpp</text>
</a>
</g>
</g>
<!-- Node1&#45;&gt;Node14 -->
<g id="edge15_Node000001_Node000014" class="edge">
<title>Node1&#45;&gt;Node14</title>
<g id="a_edge15_Node000001_Node000014"><a xlink:title=" ">
<path fill="none" stroke="#63b8ff" d="M451.44,-252.95C478.7,-243.37 515.01,-230.6 544.09,-220.37"/>
<polygon fill="#63b8ff" stroke="#63b8ff" points="545.38,-223.63 553.65,-217.01 543.06,-217.03 545.38,-223.63"/>
</a>
</g>
</g>
<!-- Node15 -->
<g id="Node000015" class="node">
<title>Node15</title>
<g id="a_Node000015"><a xlink:href="../../da/d72/type_8hpp.html" target="_top" xlink:title="Common enum of types.">
<polygon fill="white" stroke="#666666" points="821.5,-217 681.5,-217 681.5,-187 821.5,-187 821.5,-217"/>
<text text-anchor="start" x="689.5" y="-205" font-family="Helvetica,sans-Serif" font-size="10.00">userver/formats/common</text>
<text text-anchor="middle" x="751.5" y="-194" font-family="Helvetica,sans-Serif" font-size="10.00">/type.hpp</text>
</a>
</g>
</g>
<!-- Node1&#45;&gt;Node15 -->
<g id="edge16_Node000001_Node000015" class="edge">
<title>Node1&#45;&gt;Node15</title>
<g id="a_edge16_Node000001_Node000015"><a xlink:title=" ">
<path fill="none" stroke="#63b8ff" d="M481.54,-253.82C536.64,-243.44 613.49,-228.98 671.1,-218.13"/>
<polygon fill="#63b8ff" stroke="#63b8ff" points="672.08,-221.51 681.26,-216.22 670.79,-214.63 672.08,-221.51"/>
</a>
</g>
</g>
<!-- Node16 -->
<g id="Node000016" class="node">
<title>Node16</title>
<g id="a_Node000016"><a xlink:href="../../d2/d54/assert_8hpp.html" target="_top" xlink:title="Assertion macros UASSERT, UASSERT_MSG, UINVARIANT.">
<polygon fill="white" stroke="#666666" points="339,-211.5 208,-211.5 208,-192.5 339,-192.5 339,-211.5"/>
<text text-anchor="middle" x="273.5" y="-199.5" font-family="Helvetica,sans-Serif" font-size="10.00">userver/utils/assert.hpp</text>
</a>
</g>
</g>
<!-- Node1&#45;&gt;Node16 -->
<g id="edge17_Node000001_Node000016" class="edge">
<title>Node1&#45;&gt;Node16</title>
<g id="a_edge17_Node000001_Node000016"><a xlink:title=" ">
<path fill="none" stroke="#63b8ff" d="M381.22,-252.95C357.33,-241.88 324.3,-226.56 301.14,-215.82"/>
<polygon fill="#63b8ff" stroke="#63b8ff" points="302.41,-212.55 291.87,-211.52 299.46,-218.9 302.41,-212.55"/>
</a>
</g>
</g>
<!-- Node9 -->
<g id="Node000009" class="node">
<title>Node9</title>
<g id="a_Node000009"><a xlink:title=" ">
<polygon fill="#e0e0e0" stroke="#999999" points="1081,-19 1012,-19 1012,0 1081,0 1081,-19"/>
<text text-anchor="middle" x="1046.5" y="-7" font-family="Helvetica,sans-Serif" font-size="10.00">type_traits</text>
</a>
</g>
</g>
<!-- Node8&#45;&gt;Node9 -->
<g id="edge8_Node000008_Node000009" class="edge">
<title>Node8&#45;&gt;Node9</title>
<g id="a_edge8_Node000008_Node000009"><a xlink:title=" ">
<path fill="none" stroke="#63b8ff" d="M839.13,-189.01C790.44,-177.4 738.39,-156.25 762.5,-121 816.65,-41.83 936.54,-19.37 1001.9,-13.01"/>
<polygon fill="#63b8ff" stroke="#63b8ff" points="1002.25,-16.49 1011.9,-12.12 1001.63,-9.52 1002.25,-16.49"/>
</a>
</g>
</g>
<!-- Node10 -->
<g id="Node000010" class="node">
<title>Node10</title>
<g id="a_Node000010"><a xlink:href="../../d2/dc8/universal_2include_2userver_2formats_2parse_2to_8hpp.html" target="_top" xlink:title="Helper for parsers.">
<polygon fill="white" stroke="#666666" points="897,-151 772,-151 772,-121 897,-121 897,-151"/>
<text text-anchor="start" x="780" y="-139" font-family="Helvetica,sans-Serif" font-size="10.00">userver/formats/parse</text>
<text text-anchor="middle" x="834.5" y="-128" font-family="Helvetica,sans-Serif" font-size="10.00">/to.hpp</text>
</a>
</g>
</g>
<!-- Node8&#45;&gt;Node10 -->
<g id="edge9_Node000008_Node000010" class="edge">
<title>Node8&#45;&gt;Node10</title>
<g id="a_edge9_Node000008_Node000010"><a xlink:title=" ">
<path fill="none" stroke="#63b8ff" d="M892.86,-186.8C882.85,-178.26 869.95,-167.25 858.82,-157.75"/>
<polygon fill="#63b8ff" stroke="#63b8ff" points="860.98,-154.99 851.1,-151.16 856.43,-160.32 860.98,-154.99"/>
</a>
</g>
</g>
<!-- Node11 -->
<g id="Node000011" class="node">
<title>Node11</title>
<g id="a_Node000011"><a xlink:href="../../d6/d8e/universal_2include_2userver_2formats_2serialize_2to_8hpp.html" target="_top" xlink:title="Helper for serializers.">
<polygon fill="white" stroke="#666666" points="1054,-151 915,-151 915,-121 1054,-121 1054,-151"/>
<text text-anchor="start" x="923" y="-139" font-family="Helvetica,sans-Serif" font-size="10.00">userver/formats/serialize</text>
<text text-anchor="middle" x="984.5" y="-128" font-family="Helvetica,sans-Serif" font-size="10.00">/to.hpp</text>
</a>
</g>
</g>
<!-- Node8&#45;&gt;Node11 -->
<g id="edge10_Node000008_Node000011" class="edge">
<title>Node8&#45;&gt;Node11</title>
<g id="a_edge10_Node000008_Node000011"><a xlink:title=" ">
<path fill="none" stroke="#63b8ff" d="M926.14,-186.8C936.15,-178.26 949.05,-167.25 960.18,-157.75"/>
<polygon fill="#63b8ff" stroke="#63b8ff" points="962.57,-160.32 967.9,-151.16 958.02,-154.99 962.57,-160.32"/>
</a>
</g>
</g>
<!-- Node12 -->
<g id="Node000012" class="node">
<title>Node12</title>
<g id="a_Node000012"><a xlink:href="../../d3/da0/meta__light_8hpp.html" target="_top" xlink:title="Lightweight concepts.">
<polygon fill="white" stroke="#666666" points="1178.5,-151 1072.5,-151 1072.5,-121 1178.5,-121 1178.5,-151"/>
<text text-anchor="start" x="1080.5" y="-139" font-family="Helvetica,sans-Serif" font-size="10.00">userver/utils/meta</text>
<text text-anchor="middle" x="1125.5" y="-128" font-family="Helvetica,sans-Serif" font-size="10.00">_light.hpp</text>
</a>
</g>
</g>
<!-- Node8&#45;&gt;Node12 -->
<g id="edge11_Node000008_Node000012" class="edge">
<title>Node8&#45;&gt;Node12</title>
<g id="a_edge11_Node000008_Node000012"><a xlink:title=" ">
<path fill="none" stroke="#63b8ff" d="M956.9,-186.95C989.68,-177.24 1033.47,-164.27 1068.21,-153.98"/>
<polygon fill="#63b8ff" stroke="#63b8ff" points="1069.61,-157.21 1078.21,-151.01 1067.63,-150.5 1069.61,-157.21"/>
</a>
</g>
</g>
<!-- Node12&#45;&gt;Node9 -->
<g id="edge12_Node000012_Node000009" class="edge">
<title>Node12&#45;&gt;Node9</title>
<g id="a_edge12_Node000012_Node000009"><a xlink:title=" ">
<path fill="none" stroke="#63b8ff" d="M1124.79,-120.85C1123.35,-103.91 1118.93,-75.29 1105.5,-55 1097.15,-42.38 1083.97,-31.95 1072.18,-24.36"/>
<polygon fill="#63b8ff" stroke="#63b8ff" points="1073.91,-21.31 1063.55,-19.12 1070.28,-27.3 1073.91,-21.31"/>
</a>
</g>
</g>
<!-- Node13 -->
<g id="Node000013" class="node">
<title>Node13</title>
<g id="a_Node000013"><a xlink:href="../../d9/dce/void__t_8hpp.html" target="_top" xlink:title="std::void_t implementation with workarounds for compiler bugs">
<polygon fill="white" stroke="#666666" points="1097,-85 996,-85 996,-55 1097,-55 1097,-85"/>
<text text-anchor="start" x="1004" y="-73" font-family="Helvetica,sans-Serif" font-size="10.00">userver/utils/void</text>
<text text-anchor="middle" x="1046.5" y="-62" font-family="Helvetica,sans-Serif" font-size="10.00">_t.hpp</text>
</a>
</g>
</g>
<!-- Node12&#45;&gt;Node13 -->
<g id="edge13_Node000012_Node000013" class="edge">
<title>Node12&#45;&gt;Node13</title>
<g id="a_edge13_Node000012_Node000013"><a xlink:title=" ">
<path fill="none" stroke="#63b8ff" d="M1107.97,-120.8C1097.33,-112.18 1083.58,-101.04 1071.78,-91.48"/>
<polygon fill="#63b8ff" stroke="#63b8ff" points="1073.96,-88.74 1063.98,-85.16 1069.55,-94.18 1073.96,-88.74"/>
</a>
</g>
</g>
<!-- Node13&#45;&gt;Node9 -->
<g id="edge14_Node000013_Node000009" class="edge">
<title>Node13&#45;&gt;Node9</title>
<g id="a_edge14_Node000013_Node000009"><a xlink:title=" ">
<path fill="none" stroke="#63b8ff" d="M1046.5,-54.84C1046.5,-47.21 1046.5,-37.7 1046.5,-29.45"/>
<polygon fill="#63b8ff" stroke="#63b8ff" points="1050,-29.27 1046.5,-19.27 1043,-29.27 1050,-29.27"/>
</a>
</g>
</g>
<!-- Node16&#45;&gt;Node5 -->
<g id="edge18_Node000016_Node000005" class="edge">
<title>Node16&#45;&gt;Node5</title>
<g id="a_edge18_Node000016_Node000005"><a xlink:title=" ">
<path fill="none" stroke="#63b8ff" d="M288.47,-192.37C307.01,-181.68 338.81,-163.35 360.7,-150.72"/>
<polygon fill="#63b8ff" stroke="#63b8ff" points="362.5,-153.73 369.41,-145.7 359,-147.66 362.5,-153.73"/>
</a>
</g>
</g>
</g>
</svg>
