<?xml version="1.0" encoding="UTF-8" standalone="no"?>
<!DOCTYPE svg PUBLIC "-//W3C//DTD SVG 1.1//EN"
 "http://www.w3.org/Graphics/SVG/1.1/DTD/svg11.dtd">
<!-- Generated by graphviz version 2.43.0 (0)
 -->
<!-- Title: userver/utils/make_intrusive_ptr.hpp Pages: 1 -->
<svg width="212pt" height="93pt"
 viewBox="0.00 0.00 212.00 93.00" xmlns="http://www.w3.org/2000/svg" xmlns:xlink="http://www.w3.org/1999/xlink">
<g id="graph0" class="graph" transform="scale(1 1) rotate(0) translate(4 89)">
<title>userver/utils/make_intrusive_ptr.hpp</title>
<!-- Node1 -->
<g id="Node000001" class="node">
<title>Node1</title>
<g id="a_Node000001"><a xlink:title="Factory function for boost::intrusive_ptr, like std::make_unique.">
<polygon fill="#999999" stroke="#666666" points="137.5,-85 30.5,-85 30.5,-55 137.5,-55 137.5,-85"/>
<text text-anchor="start" x="38.5" y="-73" font-family="Helvetica,sans-Serif" font-size="10.00">userver/utils/make</text>
<text text-anchor="middle" x="84" y="-62" font-family="Helvetica,sans-Serif" font-size="10.00">_intrusive_ptr.hpp</text>
</a>
</g>
</g>
<!-- Node2 -->
<g id="Node000002" class="node">
<title>Node2</title>
<g id="a_Node000002"><a xlink:title=" ">
<polygon fill="#e0e0e0" stroke="#999999" points="58,-19 0,-19 0,0 58,0 58,-19"/>
<text text-anchor="middle" x="29" y="-7" font-family="Helvetica,sans-Serif" font-size="10.00">memory</text>
</a>
</g>
</g>
<!-- Node1&#45;&gt;Node2 -->
<g id="edge1_Node000001_Node000002" class="edge">
<title>Node1&#45;&gt;Node2</title>
<g id="a_edge1_Node000001_Node000002"><a xlink:title=" ">
<path fill="none" stroke="#63b8ff" d="M70.69,-54.84C62.7,-46.35 52.52,-35.52 44.22,-26.69"/>
<polygon fill="#63b8ff" stroke="#63b8ff" points="46.64,-24.15 37.24,-19.27 41.54,-28.95 46.64,-24.15"/>
</a>
</g>
</g>
<!-- Node3 -->
<g id="Node000003" class="node">
<title>Node3</title>
<g id="a_Node000003"><a xlink:title=" ">
<polygon fill="#e0e0e0" stroke="#999999" points="204,-19 76,-19 76,0 204,0 204,-19"/>
<text text-anchor="middle" x="140" y="-7" font-family="Helvetica,sans-Serif" font-size="10.00">boost/intrusive_ptr.hpp</text>
</a>
</g>
</g>
<!-- Node1&#45;&gt;Node3 -->
<g id="edge2_Node000001_Node000003" class="edge">
<title>Node1&#45;&gt;Node3</title>
<g id="a_edge2_Node000001_Node000003"><a xlink:title=" ">
<path fill="none" stroke="#63b8ff" d="M97.56,-54.84C105.68,-46.35 116.05,-35.52 124.5,-26.69"/>
<polygon fill="#63b8ff" stroke="#63b8ff" points="127.22,-28.91 131.61,-19.27 122.17,-24.07 127.22,-28.91"/>
</a>
</g>
</g>
</g>
</svg>
