<?xml version="1.0" encoding="UTF-8" standalone="no"?>
<!DOCTYPE svg PUBLIC "-//W3C//DTD SVG 1.1//EN"
 "http://www.w3.org/Graphics/SVG/1.1/DTD/svg11.dtd">
<!-- Generated by graphviz version 2.43.0 (0)
 -->
<!-- Title: storages::postgres::ResultSetError Pages: 1 -->
<svg width="855pt" height="662pt"
 viewBox="0.00 0.00 855.00 662.00" xmlns="http://www.w3.org/2000/svg" xmlns:xlink="http://www.w3.org/1999/xlink">
<g id="graph0" class="graph" transform="scale(1 1) rotate(0) translate(4 658)">
<title>storages::postgres::ResultSetError</title>
<!-- Node1 -->
<g id="Node000001" class="node">
<title>Node1</title>
<g id="a_Node000001"><a xlink:title=" ">
<polygon fill="#999999" stroke="#666666" points="655,-342 548,-342 548,-312 655,-312 655,-342"/>
<text text-anchor="start" x="556" y="-330" font-family="Helvetica,sans-Serif" font-size="10.00">storages::postgres</text>
<text text-anchor="middle" x="601.5" y="-319" font-family="Helvetica,sans-Serif" font-size="10.00">::ResultSetError</text>
</a>
</g>
</g>
<!-- Node6 -->
<g id="Node000006" class="node">
<title>Node6</title>
<g id="a_Node000006"><a xlink:href="../../d3/d1e/classstorages_1_1postgres_1_1FieldIndexOutOfBounds.html" target="_top" xlink:title="Result set has less columns that the requested index.">
<polygon fill="white" stroke="#666666" points="837.5,-654 700.5,-654 700.5,-624 837.5,-624 837.5,-654"/>
<text text-anchor="start" x="708.5" y="-642" font-family="Helvetica,sans-Serif" font-size="10.00">storages::postgres</text>
<text text-anchor="middle" x="769" y="-631" font-family="Helvetica,sans-Serif" font-size="10.00">::FieldIndexOutOfBounds</text>
</a>
</g>
</g>
<!-- Node1&#45;&gt;Node6 -->
<g id="edge5_Node000001_Node000006" class="edge">
<title>Node1&#45;&gt;Node6</title>
<g id="a_edge5_Node000001_Node000006"><a xlink:title=" ">
<path fill="none" stroke="#63b8ff" d="M602.78,-352.32C604.78,-407.84 617.46,-541.17 691,-615 694.46,-618.47 698.41,-621.44 702.66,-623.99"/>
<polygon fill="#63b8ff" stroke="#63b8ff" points="606.28,-352.2 602.5,-342.3 599.28,-352.39 606.28,-352.2"/>
</a>
</g>
</g>
<!-- Node7 -->
<g id="Node000007" class="node">
<title>Node7</title>
<g id="a_Node000007"><a xlink:href="../../d5/db8/classstorages_1_1postgres_1_1FieldNameDoesntExist.html" target="_top" xlink:title="Result set doesn&#39;t have field with the requested name.">
<polygon fill="white" stroke="#666666" points="836,-606 702,-606 702,-576 836,-576 836,-606"/>
<text text-anchor="start" x="710" y="-594" font-family="Helvetica,sans-Serif" font-size="10.00">storages::postgres</text>
<text text-anchor="middle" x="769" y="-583" font-family="Helvetica,sans-Serif" font-size="10.00">::FieldNameDoesntExist</text>
</a>
</g>
</g>
<!-- Node1&#45;&gt;Node7 -->
<g id="edge6_Node000001_Node000007" class="edge">
<title>Node1&#45;&gt;Node7</title>
<g id="a_edge6_Node000001_Node000007"><a xlink:title=" ">
<path fill="none" stroke="#63b8ff" d="M604.58,-352.09C609.95,-400.61 628.59,-507.71 691,-567 694.65,-570.47 698.8,-573.44 703.24,-575.98"/>
<polygon fill="#63b8ff" stroke="#63b8ff" points="608.06,-351.73 603.58,-342.13 601.1,-352.44 608.06,-351.73"/>
</a>
</g>
</g>
<!-- Node8 -->
<g id="Node000008" class="node">
<title>Node8</title>
<g id="a_Node000008"><a xlink:href="../../d9/de9/classstorages_1_1postgres_1_1FieldTupleMismatch.html" target="_top" xlink:title="A row was requested to be parsed based on field names/indexed, the count of names/indexes doesn&#39;t mat...">
<polygon fill="white" stroke="#666666" points="828.5,-558 709.5,-558 709.5,-528 828.5,-528 828.5,-558"/>
<text text-anchor="start" x="717.5" y="-546" font-family="Helvetica,sans-Serif" font-size="10.00">storages::postgres</text>
<text text-anchor="middle" x="769" y="-535" font-family="Helvetica,sans-Serif" font-size="10.00">::FieldTupleMismatch</text>
</a>
</g>
</g>
<!-- Node1&#45;&gt;Node8 -->
<g id="edge7_Node000001_Node000008" class="edge">
<title>Node1&#45;&gt;Node8</title>
<g id="a_edge7_Node000001_Node000008"><a xlink:title=" ">
<path fill="none" stroke="#63b8ff" d="M607.24,-352.19C616.25,-393.11 639.73,-473.98 691,-519 696.37,-523.71 702.65,-527.5 709.27,-530.54"/>
<polygon fill="#63b8ff" stroke="#63b8ff" points="610.63,-351.3 605.16,-342.23 603.78,-352.73 610.63,-351.3"/>
</a>
</g>
</g>
<!-- Node9 -->
<g id="Node000009" class="node">
<title>Node9</title>
<g id="a_Node000009"><a xlink:href="../../d8/d2e/classstorages_1_1postgres_1_1FieldValueIsNull.html" target="_top" xlink:title="Data extraction from a null field value to a non&#45;nullable type requested.">
<polygon fill="white" stroke="#666666" points="822.5,-510 715.5,-510 715.5,-480 822.5,-480 822.5,-510"/>
<text text-anchor="start" x="723.5" y="-498" font-family="Helvetica,sans-Serif" font-size="10.00">storages::postgres</text>
<text text-anchor="middle" x="769" y="-487" font-family="Helvetica,sans-Serif" font-size="10.00">::FieldValueIsNull</text>
</a>
</g>
</g>
<!-- Node1&#45;&gt;Node9 -->
<g id="edge8_Node000001_Node000009" class="edge">
<title>Node1&#45;&gt;Node9</title>
<g id="a_edge8_Node000001_Node000009"><a xlink:title=" ">
<path fill="none" stroke="#63b8ff" d="M611.29,-351.63C623.97,-383.73 650.45,-439.47 691,-471 698.18,-476.59 706.69,-480.88 715.37,-484.19"/>
<polygon fill="#63b8ff" stroke="#63b8ff" points="614.49,-350.19 607.65,-342.1 607.94,-352.69 614.49,-350.19"/>
</a>
</g>
</g>
<!-- Node10 -->
<g id="Node000010" class="node">
<title>Node10</title>
<g id="a_Node000010"><a xlink:href="../../df/dd8/classstorages_1_1postgres_1_1InvalidBinaryBuffer.html" target="_top" xlink:title="Binary buffer contains invalid data. Can occur when parsing binary buffers containing multiple fields...">
<polygon fill="white" stroke="#666666" points="827,-462 711,-462 711,-432 827,-432 827,-462"/>
<text text-anchor="start" x="719" y="-450" font-family="Helvetica,sans-Serif" font-size="10.00">storages::postgres</text>
<text text-anchor="middle" x="769" y="-439" font-family="Helvetica,sans-Serif" font-size="10.00">::InvalidBinaryBuffer</text>
</a>
</g>
</g>
<!-- Node1&#45;&gt;Node10 -->
<g id="edge9_Node000001_Node000010" class="edge">
<title>Node1&#45;&gt;Node10</title>
<g id="a_edge9_Node000001_Node000010"><a xlink:title=" ">
<path fill="none" stroke="#63b8ff" d="M618.65,-350.66C634.64,-372.4 661.03,-404.04 691,-423 697.15,-426.89 703.98,-430.19 710.96,-432.98"/>
<polygon fill="#63b8ff" stroke="#63b8ff" points="621.32,-348.38 612.64,-342.3 615.63,-352.46 621.32,-348.38"/>
</a>
</g>
</g>
<!-- Node11 -->
<g id="Node000011" class="node">
<title>Node11</title>
<g id="a_Node000011"><a xlink:href="../../da/d14/classstorages_1_1postgres_1_1InvalidInputBufferSize.html" target="_top" xlink:title="Buffer size is invalid for a fixed&#45;size type. Can occur when a wrong field type is requested for repl...">
<polygon fill="white" stroke="#666666" points="834,-414 704,-414 704,-384 834,-384 834,-414"/>
<text text-anchor="start" x="712" y="-402" font-family="Helvetica,sans-Serif" font-size="10.00">storages::postgres</text>
<text text-anchor="middle" x="769" y="-391" font-family="Helvetica,sans-Serif" font-size="10.00">::InvalidInputBufferSize</text>
</a>
</g>
</g>
<!-- Node1&#45;&gt;Node11 -->
<g id="edge10_Node000001_Node000011" class="edge">
<title>Node1&#45;&gt;Node11</title>
<g id="a_edge10_Node000001_Node000011"><a xlink:title=" ">
<path fill="none" stroke="#63b8ff" d="M636.46,-347.44C652.62,-356.63 672.42,-367.16 691,-375 698.61,-378.21 706.8,-381.22 714.91,-383.95"/>
<polygon fill="#63b8ff" stroke="#63b8ff" points="637.82,-344.18 627.41,-342.21 634.32,-350.24 637.82,-344.18"/>
</a>
</g>
</g>
<!-- Node12 -->
<g id="Node000012" class="node">
<title>Node12</title>
<g id="a_Node000012"><a xlink:href="../../d5/d0d/classstorages_1_1postgres_1_1InvalidParserCategory.html" target="_top" xlink:title="Field buffer contains different category of data than expected by data parser.">
<polygon fill="white" stroke="#666666" points="834,-366 704,-366 704,-336 834,-336 834,-366"/>
<text text-anchor="start" x="712" y="-354" font-family="Helvetica,sans-Serif" font-size="10.00">storages::postgres</text>
<text text-anchor="middle" x="769" y="-343" font-family="Helvetica,sans-Serif" font-size="10.00">::InvalidParserCategory</text>
</a>
</g>
</g>
<!-- Node1&#45;&gt;Node12 -->
<g id="edge11_Node000001_Node000012" class="edge">
<title>Node1&#45;&gt;Node12</title>
<g id="a_edge11_Node000001_Node000012"><a xlink:title=" ">
<path fill="none" stroke="#63b8ff" d="M665.27,-336.1C677.88,-337.93 691.15,-339.85 703.8,-341.69"/>
<polygon fill="#63b8ff" stroke="#63b8ff" points="665.72,-332.63 655.32,-334.66 664.71,-339.56 665.72,-332.63"/>
</a>
</g>
</g>
<!-- Node13 -->
<g id="Node000013" class="node">
<title>Node13</title>
<g id="a_Node000013"><a xlink:href="../../da/d37/classstorages_1_1postgres_1_1InvalidTupleSizeRequested.html" target="_top" xlink:title="A tuple was requested to be parsed out of a row that doesn&#39;t have enough fields.">
<polygon fill="white" stroke="#666666" points="845.5,-318 692.5,-318 692.5,-288 845.5,-288 845.5,-318"/>
<text text-anchor="start" x="700.5" y="-306" font-family="Helvetica,sans-Serif" font-size="10.00">storages::postgres</text>
<text text-anchor="middle" x="769" y="-295" font-family="Helvetica,sans-Serif" font-size="10.00">::InvalidTupleSizeRequested</text>
</a>
</g>
</g>
<!-- Node1&#45;&gt;Node13 -->
<g id="edge12_Node000001_Node000013" class="edge">
<title>Node1&#45;&gt;Node13</title>
<g id="a_edge12_Node000001_Node000013"><a xlink:title=" ">
<path fill="none" stroke="#63b8ff" d="M665.5,-317.86C674.31,-316.59 683.44,-315.26 692.46,-313.95"/>
<polygon fill="#63b8ff" stroke="#63b8ff" points="664.71,-314.44 655.32,-319.34 665.72,-321.37 664.71,-314.44"/>
</a>
</g>
</g>
<!-- Node14 -->
<g id="Node000014" class="node">
<title>Node14</title>
<g id="a_Node000014"><a xlink:href="../../dd/d9a/classstorages_1_1postgres_1_1NoBinaryParser.html" target="_top" xlink:title="A field in a result set doesn&#39;t have a binary parser.">
<polygon fill="white" stroke="#666666" points="822.5,-270 715.5,-270 715.5,-240 822.5,-240 822.5,-270"/>
<text text-anchor="start" x="723.5" y="-258" font-family="Helvetica,sans-Serif" font-size="10.00">storages::postgres</text>
<text text-anchor="middle" x="769" y="-247" font-family="Helvetica,sans-Serif" font-size="10.00">::NoBinaryParser</text>
</a>
</g>
</g>
<!-- Node1&#45;&gt;Node14 -->
<g id="edge13_Node000001_Node000014" class="edge">
<title>Node1&#45;&gt;Node14</title>
<g id="a_edge13_Node000001_Node000014"><a xlink:title=" ">
<path fill="none" stroke="#63b8ff" d="M636.46,-306.56C652.62,-297.37 672.42,-286.84 691,-279 698.74,-275.73 707.08,-272.68 715.32,-269.92"/>
<polygon fill="#63b8ff" stroke="#63b8ff" points="634.32,-303.76 627.41,-311.79 637.82,-309.82 634.32,-303.76"/>
</a>
</g>
</g>
<!-- Node15 -->
<g id="Node000015" class="node">
<title>Node15</title>
<g id="a_Node000015"><a xlink:href="../../d1/d0b/classstorages_1_1postgres_1_1NonSingleColumnResultSet.html" target="_top" xlink:title="A row or result set requested to be treated as a single column, but contains more than one column.">
<polygon fill="white" stroke="#666666" points="847,-222 691,-222 691,-192 847,-192 847,-222"/>
<text text-anchor="start" x="699" y="-210" font-family="Helvetica,sans-Serif" font-size="10.00">storages::postgres</text>
<text text-anchor="middle" x="769" y="-199" font-family="Helvetica,sans-Serif" font-size="10.00">::NonSingleColumnResultSet</text>
</a>
</g>
</g>
<!-- Node1&#45;&gt;Node15 -->
<g id="edge14_Node000001_Node000015" class="edge">
<title>Node1&#45;&gt;Node15</title>
<g id="a_edge14_Node000001_Node000015"><a xlink:title=" ">
<path fill="none" stroke="#63b8ff" d="M618.65,-303.34C634.64,-281.6 661.03,-249.96 691,-231 696.44,-227.56 702.42,-224.58 708.55,-222"/>
<polygon fill="#63b8ff" stroke="#63b8ff" points="615.63,-301.54 612.64,-311.7 621.32,-305.62 615.63,-301.54"/>
</a>
</g>
</g>
<!-- Node16 -->
<g id="Node000016" class="node">
<title>Node16</title>
<g id="a_Node000016"><a xlink:href="../../da/d2a/classstorages_1_1postgres_1_1NonSingleRowResultSet.html" target="_top" xlink:title="A result set containing a single row was expected.">
<polygon fill="white" stroke="#666666" points="839,-174 699,-174 699,-144 839,-144 839,-174"/>
<text text-anchor="start" x="707" y="-162" font-family="Helvetica,sans-Serif" font-size="10.00">storages::postgres</text>
<text text-anchor="middle" x="769" y="-151" font-family="Helvetica,sans-Serif" font-size="10.00">::NonSingleRowResultSet</text>
</a>
</g>
</g>
<!-- Node1&#45;&gt;Node16 -->
<g id="edge15_Node000001_Node000016" class="edge">
<title>Node1&#45;&gt;Node16</title>
<g id="a_edge15_Node000001_Node000016"><a xlink:title=" ">
<path fill="none" stroke="#63b8ff" d="M611.29,-302.37C623.97,-270.27 650.45,-214.53 691,-183 695.42,-179.56 700.34,-176.61 705.5,-174.08"/>
<polygon fill="#63b8ff" stroke="#63b8ff" points="607.94,-301.31 607.65,-311.9 614.49,-303.81 607.94,-301.31"/>
</a>
</g>
</g>
<!-- Node17 -->
<g id="Node000017" class="node">
<title>Node17</title>
<g id="a_Node000017"><a xlink:href="../../db/dea/classstorages_1_1postgres_1_1RowIndexOutOfBounds.html" target="_top" xlink:title="Result set has less rows than the requested row index.">
<polygon fill="white" stroke="#666666" points="836.5,-126 701.5,-126 701.5,-96 836.5,-96 836.5,-126"/>
<text text-anchor="start" x="709.5" y="-114" font-family="Helvetica,sans-Serif" font-size="10.00">storages::postgres</text>
<text text-anchor="middle" x="769" y="-103" font-family="Helvetica,sans-Serif" font-size="10.00">::RowIndexOutOfBounds</text>
</a>
</g>
</g>
<!-- Node1&#45;&gt;Node17 -->
<g id="edge16_Node000001_Node000017" class="edge">
<title>Node1&#45;&gt;Node17</title>
<g id="a_edge16_Node000001_Node000017"><a xlink:title=" ">
<path fill="none" stroke="#63b8ff" d="M607.24,-301.81C616.25,-260.89 639.73,-180.02 691,-135 694.89,-131.58 699.27,-128.65 703.91,-126.14"/>
<polygon fill="#63b8ff" stroke="#63b8ff" points="603.78,-301.27 605.16,-311.77 610.63,-302.7 603.78,-301.27"/>
</a>
</g>
</g>
<!-- Node18 -->
<g id="Node000018" class="node">
<title>Node18</title>
<g id="a_Node000018"><a xlink:href="../../d7/df0/classstorages_1_1postgres_1_1TypeCannotBeNull.html" target="_top" xlink:title="A value of a non&#45;nullable type requested to be set null. Can occur if io::traits::IsNullable for the ...">
<polygon fill="white" stroke="#666666" points="825,-78 713,-78 713,-48 825,-48 825,-78"/>
<text text-anchor="start" x="721" y="-66" font-family="Helvetica,sans-Serif" font-size="10.00">storages::postgres</text>
<text text-anchor="middle" x="769" y="-55" font-family="Helvetica,sans-Serif" font-size="10.00">::TypeCannotBeNull</text>
</a>
</g>
</g>
<!-- Node1&#45;&gt;Node18 -->
<g id="edge17_Node000001_Node000018" class="edge">
<title>Node1&#45;&gt;Node18</title>
<g id="a_edge17_Node000001_Node000018"><a xlink:title=" ">
<path fill="none" stroke="#63b8ff" d="M604.58,-301.91C609.95,-253.39 628.59,-146.29 691,-87 697.19,-81.12 704.81,-76.67 712.81,-73.32"/>
<polygon fill="#63b8ff" stroke="#63b8ff" points="601.1,-301.56 603.58,-311.87 608.06,-302.27 601.1,-301.56"/>
</a>
</g>
</g>
<!-- Node19 -->
<g id="Node000019" class="node">
<title>Node19</title>
<g id="a_Node000019"><a xlink:href="../../dc/dd7/classstorages_1_1postgres_1_1UnknownBufferCategory.html" target="_top" xlink:title="While checking result set types, failed to determine the buffer category for a type oid....">
<polygon fill="white" stroke="#666666" points="840,-30 698,-30 698,0 840,0 840,-30"/>
<text text-anchor="start" x="706" y="-18" font-family="Helvetica,sans-Serif" font-size="10.00">storages::postgres</text>
<text text-anchor="middle" x="769" y="-7" font-family="Helvetica,sans-Serif" font-size="10.00">::UnknownBufferCategory</text>
</a>
</g>
</g>
<!-- Node1&#45;&gt;Node19 -->
<g id="edge18_Node000001_Node000019" class="edge">
<title>Node1&#45;&gt;Node19</title>
<g id="a_edge18_Node000001_Node000019"><a xlink:title=" ">
<path fill="none" stroke="#63b8ff" d="M602.78,-301.68C604.78,-246.16 617.46,-112.83 691,-39 694.46,-35.53 698.41,-32.56 702.66,-30.01"/>
<polygon fill="#63b8ff" stroke="#63b8ff" points="599.28,-301.61 602.5,-311.7 606.28,-301.8 599.28,-301.61"/>
</a>
</g>
</g>
<!-- Node2 -->
<g id="Node000002" class="node">
<title>Node2</title>
<g id="a_Node000002"><a xlink:href="../../d4/d74/classstorages_1_1postgres_1_1LogicError.html" target="_top" xlink:title="Base Postgres logic error. Reports errors that are consequences of erroneous driver usage,...">
<polygon fill="white" stroke="#666666" points="512,-342 405,-342 405,-312 512,-312 512,-342"/>
<text text-anchor="start" x="413" y="-330" font-family="Helvetica,sans-Serif" font-size="10.00">storages::postgres</text>
<text text-anchor="middle" x="458.5" y="-319" font-family="Helvetica,sans-Serif" font-size="10.00">::LogicError</text>
</a>
</g>
</g>
<!-- Node2&#45;&gt;Node1 -->
<g id="edge1_Node000001_Node000002" class="edge">
<title>Node2&#45;&gt;Node1</title>
<g id="a_edge1_Node000001_Node000002"><a xlink:title=" ">
<path fill="none" stroke="#63b8ff" d="M522.05,-327C530.7,-327 539.51,-327 547.95,-327"/>
<polygon fill="#63b8ff" stroke="#63b8ff" points="522,-323.5 512,-327 522,-330.5 522,-323.5"/>
</a>
</g>
</g>
<!-- Node3 -->
<g id="Node000003" class="node">
<title>Node3</title>
<g id="a_Node000003"><a xlink:href="../../df/d3d/classstorages_1_1postgres_1_1Error.html" target="_top" xlink:title="Base class for all exceptions that may be thrown by the driver.">
<polygon fill="white" stroke="#666666" points="369,-342 262,-342 262,-312 369,-312 369,-342"/>
<text text-anchor="start" x="270" y="-330" font-family="Helvetica,sans-Serif" font-size="10.00">storages::postgres</text>
<text text-anchor="middle" x="315.5" y="-319" font-family="Helvetica,sans-Serif" font-size="10.00">::Error</text>
</a>
</g>
</g>
<!-- Node3&#45;&gt;Node2 -->
<g id="edge2_Node000002_Node000003" class="edge">
<title>Node3&#45;&gt;Node2</title>
<g id="a_edge2_Node000002_Node000003"><a xlink:title=" ">
<path fill="none" stroke="#63b8ff" d="M379.05,-327C387.7,-327 396.51,-327 404.95,-327"/>
<polygon fill="#63b8ff" stroke="#63b8ff" points="379,-323.5 369,-327 379,-330.5 379,-323.5"/>
</a>
</g>
</g>
<!-- Node4 -->
<g id="Node000004" class="node">
<title>Node4</title>
<g id="a_Node000004"><a xlink:title=" ">
<polygon fill="white" stroke="#666666" points="226,-336.5 122,-336.5 122,-317.5 226,-317.5 226,-336.5"/>
<text text-anchor="middle" x="174" y="-324.5" font-family="Helvetica,sans-Serif" font-size="10.00">std::runtime_error</text>
</a>
</g>
</g>
<!-- Node4&#45;&gt;Node3 -->
<g id="edge3_Node000003_Node000004" class="edge">
<title>Node4&#45;&gt;Node3</title>
<g id="a_edge3_Node000003_Node000004"><a xlink:title=" ">
<path fill="none" stroke="#63b8ff" d="M236.42,-327C244.93,-327 253.62,-327 261.95,-327"/>
<polygon fill="#63b8ff" stroke="#63b8ff" points="236.15,-323.5 226.15,-327 236.15,-330.5 236.15,-323.5"/>
</a>
</g>
</g>
<!-- Node5 -->
<g id="Node000005" class="node">
<title>Node5</title>
<g id="a_Node000005"><a xlink:title=" ">
<polygon fill="white" stroke="#666666" points="86,-336.5 0,-336.5 0,-317.5 86,-317.5 86,-336.5"/>
<text text-anchor="middle" x="43" y="-324.5" font-family="Helvetica,sans-Serif" font-size="10.00">std::exception</text>
</a>
</g>
</g>
<!-- Node5&#45;&gt;Node4 -->
<g id="edge4_Node000004_Node000005" class="edge">
<title>Node5&#45;&gt;Node4</title>
<g id="a_edge4_Node000004_Node000005"><a xlink:title=" ">
<path fill="none" stroke="#63b8ff" d="M96.27,-327C104.65,-327 113.31,-327 121.66,-327"/>
<polygon fill="#63b8ff" stroke="#63b8ff" points="96.24,-323.5 86.24,-327 96.24,-330.5 96.24,-323.5"/>
</a>
</g>
</g>
</g>
</svg>
