<?xml version="1.0" encoding="UTF-8" standalone="no"?>
<!DOCTYPE svg PUBLIC "-//W3C//DTD SVG 1.1//EN"
 "http://www.w3.org/Graphics/SVG/1.1/DTD/svg11.dtd">
<!-- Generated by graphviz version 2.43.0 (0)
 -->
<!-- Title: formats::json::parser::NumberParser&lt; Number &gt; Pages: 1 -->
<svg width="161pt" height="249pt"
 viewBox="0.00 0.00 161.00 249.00" xmlns="http://www.w3.org/2000/svg" xmlns:xlink="http://www.w3.org/1999/xlink">
<g id="graph0" class="graph" transform="scale(1 1) rotate(0) translate(4 245)">
<title>formats::json::parser::NumberParser&lt; Number &gt;</title>
<!-- Node1 -->
<g id="Node000001" class="node">
<title>Node1</title>
<g id="a_Node000001"><a xlink:title=" ">
<polygon fill="#999999" stroke="#666666" points="153,-30 0,-30 0,0 153,0 153,-30"/>
<text text-anchor="start" x="8" y="-18" font-family="Helvetica,sans-Serif" font-size="10.00">formats::json::parser</text>
<text text-anchor="middle" x="76.5" y="-7" font-family="Helvetica,sans-Serif" font-size="10.00">::NumberParser&lt; Number &gt;</text>
</a>
</g>
</g>
<!-- Node2 -->
<g id="Node000002" class="node">
<title>Node2</title>
<g id="a_Node000002"><a xlink:href="../../d6/da9/classformats_1_1json_1_1parser_1_1TypedParser.html" target="_top" xlink:title=" ">
<polygon fill="white" stroke="#666666" points="148,-97 5,-97 5,-67 148,-67 148,-97"/>
<text text-anchor="start" x="13" y="-85" font-family="Helvetica,sans-Serif" font-size="10.00">formats::json::parser</text>
<text text-anchor="middle" x="76.5" y="-74" font-family="Helvetica,sans-Serif" font-size="10.00">::TypedParser&lt; Number &gt;</text>
</a>
</g>
</g>
<!-- Node2&#45;&gt;Node1 -->
<g id="edge1_Node000001_Node000002" class="edge">
<title>Node2&#45;&gt;Node1</title>
<g id="a_edge1_Node000001_Node000002"><a xlink:title=" ">
<path fill="none" stroke="#63b8ff" d="M76.5,-56.61C76.5,-47.65 76.5,-37.82 76.5,-30.08"/>
<polygon fill="#63b8ff" stroke="#63b8ff" points="73,-56.9 76.5,-66.9 80,-56.9 73,-56.9"/>
</a>
</g>
</g>
<!-- Node3 -->
<g id="Node000003" class="node">
<title>Node3</title>
<g id="a_Node000003"><a xlink:href="../../dd/d76/classformats_1_1json_1_1parser_1_1BaseParser.html" target="_top" xlink:title="Base class for SAX parser.">
<polygon fill="white" stroke="#666666" points="135.5,-164 17.5,-164 17.5,-134 135.5,-134 135.5,-164"/>
<text text-anchor="start" x="25.5" y="-152" font-family="Helvetica,sans-Serif" font-size="10.00">formats::json::parser</text>
<text text-anchor="middle" x="76.5" y="-141" font-family="Helvetica,sans-Serif" font-size="10.00">::BaseParser</text>
</a>
</g>
</g>
<!-- Node3&#45;&gt;Node2 -->
<g id="edge2_Node000002_Node000003" class="edge">
<title>Node3&#45;&gt;Node2</title>
<g id="a_edge2_Node000002_Node000003"><a xlink:title=" ">
<path fill="none" stroke="#63b8ff" d="M76.5,-123.61C76.5,-114.65 76.5,-104.82 76.5,-97.08"/>
<polygon fill="#63b8ff" stroke="#63b8ff" points="73,-123.9 76.5,-133.9 80,-123.9 73,-123.9"/>
</a>
</g>
</g>
<!-- Node4 -->
<g id="Node000004" class="node">
<title>Node4</title>
<g id="a_Node000004"><a xlink:href="../../d9/d49/classformats_1_1json_1_1parser_1_1ParserState.html" target="_top" xlink:title=" ">
<polygon fill="white" stroke="#bfbfbf" points="135.5,-241 17.5,-241 17.5,-211 135.5,-211 135.5,-241"/>
<text text-anchor="start" x="25.5" y="-229" font-family="Helvetica,sans-Serif" font-size="10.00">formats::json::parser</text>
<text text-anchor="middle" x="76.5" y="-218" font-family="Helvetica,sans-Serif" font-size="10.00">::ParserState</text>
</a>
</g>
</g>
<!-- Node4&#45;&gt;Node3 -->
<g id="edge3_Node000003_Node000004" class="edge">
<title>Node4&#45;&gt;Node3</title>
<g id="a_edge3_Node000003_Node000004"><a xlink:title=" ">
<path fill="none" stroke="#9a32cd" stroke-dasharray="5,2" d="M76.5,-200.54C76.5,-188.45 76.5,-174.29 76.5,-164.04"/>
<polygon fill="#9a32cd" stroke="#9a32cd" points="73,-200.89 76.5,-210.89 80,-200.89 73,-200.89"/>
</a>
</g>
<text text-anchor="middle" x="111.5" y="-185" font-family="Helvetica,sans-Serif" font-size="10.00" fill="grey"> parser_state_</text>
</g>
</g>
</svg>
