<?xml version="1.0" encoding="UTF-8" standalone="no"?>
<!DOCTYPE svg PUBLIC "-//W3C//DTD SVG 1.1//EN"
 "http://www.w3.org/Graphics/SVG/1.1/DTD/svg11.dtd">
<!-- Generated by graphviz version 2.43.0 (0)
 -->
<!-- Title: userver/rcu/rcu_map.hpp Pages: 1 -->
<svg width="558pt" height="247pt"
 viewBox="0.00 0.00 558.00 247.00" xmlns="http://www.w3.org/2000/svg" xmlns:xlink="http://www.w3.org/1999/xlink">
<g id="graph0" class="graph" transform="scale(1 1) rotate(0) translate(4 243)">
<title>userver/rcu/rcu_map.hpp</title>
<!-- Node1 -->
<g id="Node000001" class="node">
<title>Node1</title>
<g id="a_Node000001"><a xlink:title="Map&#45;like structure allowing RCU keyset updates.">
<polygon fill="#999999" stroke="#666666" points="415.5,-239 278.5,-239 278.5,-220 415.5,-220 415.5,-239"/>
<text text-anchor="middle" x="347" y="-227" font-family="Helvetica,sans-Serif" font-size="10.00">userver/rcu/rcu_map.hpp</text>
</a>
</g>
</g>
<!-- Node2 -->
<g id="Node000002" class="node">
<title>Node2</title>
<g id="a_Node000002"><a xlink:href="../../d6/dc2/fs__cache__client_8hpp.html" target="_top" xlink:title="@copybref fs::FsCacheClient">
<polygon fill="white" stroke="#666666" points="156.5,-178.5 45.5,-178.5 45.5,-148.5 156.5,-148.5 156.5,-178.5"/>
<text text-anchor="start" x="53.5" y="-166.5" font-family="Helvetica,sans-Serif" font-size="10.00">userver/fs/fs_cache</text>
<text text-anchor="middle" x="101" y="-155.5" font-family="Helvetica,sans-Serif" font-size="10.00">_client.hpp</text>
</a>
</g>
</g>
<!-- Node1&#45;&gt;Node2 -->
<g id="edge1_Node000001_Node000002" class="edge">
<title>Node1&#45;&gt;Node2</title>
<g id="a_edge1_Node000001_Node000002"><a xlink:title=" ">
<path fill="none" stroke="#63b8ff" d="M299.58,-217.67C262.74,-209.08 210.45,-196.47 165,-184 158.84,-182.31 152.37,-180.45 146.01,-178.56"/>
<polygon fill="#63b8ff" stroke="#63b8ff" points="299.01,-221.13 309.55,-219.99 300.6,-214.32 299.01,-221.13"/>
</a>
</g>
</g>
<!-- Node5 -->
<g id="Node000005" class="node">
<title>Node5</title>
<g id="a_Node000005"><a xlink:href="../../dc/d2e/core_2include_2userver_2logging_2component_8hpp.html" target="_top" xlink:title="Logging component">
<polygon fill="white" stroke="#666666" points="345.5,-173 174.5,-173 174.5,-154 345.5,-154 345.5,-173"/>
<text text-anchor="middle" x="260" y="-161" font-family="Helvetica,sans-Serif" font-size="10.00">userver/logging/component.hpp</text>
</a>
</g>
</g>
<!-- Node1&#45;&gt;Node5 -->
<g id="edge5_Node000001_Node000005" class="edge">
<title>Node1&#45;&gt;Node5</title>
<g id="a_edge5_Node000001_Node000005"><a xlink:title=" ">
<path fill="none" stroke="#63b8ff" d="M327.06,-213.83C310,-201.28 286.01,-183.63 271.83,-173.2"/>
<polygon fill="#63b8ff" stroke="#63b8ff" points="325.14,-216.76 335.27,-219.87 329.29,-211.12 325.14,-216.76"/>
</a>
</g>
</g>
<!-- Node6 -->
<g id="Node000006" class="node">
<title>Node6</title>
<g id="a_Node000006"><a xlink:href="../../de/d82/digest_2auth__checker__base_8hpp.html" target="_top" xlink:title="Base class for digest authentication checkers. Implements a digest&#45;authentication logic.">
<polygon fill="white" stroke="#666666" points="506,-184 364,-184 364,-143 506,-143 506,-184"/>
<text text-anchor="start" x="372" y="-172" font-family="Helvetica,sans-Serif" font-size="10.00">userver/server/handlers</text>
<text text-anchor="start" x="372" y="-161" font-family="Helvetica,sans-Serif" font-size="10.00">/auth/digest/auth_checker</text>
<text text-anchor="middle" x="435" y="-150" font-family="Helvetica,sans-Serif" font-size="10.00">_base.hpp</text>
</a>
</g>
</g>
<!-- Node1&#45;&gt;Node6 -->
<g id="edge6_Node000001_Node000006" class="edge">
<title>Node1&#45;&gt;Node6</title>
<g id="a_edge6_Node000001_Node000006"><a xlink:title=" ">
<path fill="none" stroke="#63b8ff" d="M367.03,-213.93C379.21,-205.07 394.93,-193.64 408.18,-184.01"/>
<polygon fill="#63b8ff" stroke="#63b8ff" points="364.9,-211.16 358.87,-219.87 369.01,-216.82 364.9,-211.16"/>
</a>
</g>
</g>
<!-- Node7 -->
<g id="Node000007" class="node">
<title>Node7</title>
<g id="a_Node000007"><a xlink:href="../../db/df0/standalone__checker_8hpp.html" target="_top" xlink:title="Class for digest authentication checker. Implements a stand&#45;alone digest&#45;authentication logic.">
<polygon fill="white" stroke="#666666" points="550,-107 418,-107 418,-66 550,-66 550,-107"/>
<text text-anchor="start" x="426" y="-95" font-family="Helvetica,sans-Serif" font-size="10.00">userver/server/handlers</text>
<text text-anchor="start" x="426" y="-84" font-family="Helvetica,sans-Serif" font-size="10.00">/auth/digest/standalone</text>
<text text-anchor="middle" x="484" y="-73" font-family="Helvetica,sans-Serif" font-size="10.00">_checker.hpp</text>
</a>
</g>
</g>
<!-- Node1&#45;&gt;Node7 -->
<g id="edge8_Node000001_Node000007" class="edge">
<title>Node1&#45;&gt;Node7</title>
<g id="a_edge8_Node000001_Node000007"><a xlink:title=" ">
<path fill="none" stroke="#63b8ff" d="M419.51,-218.22C459.3,-210.93 502.96,-199.65 515,-184 532.6,-161.13 514.93,-127.96 499.95,-107.07"/>
<polygon fill="#63b8ff" stroke="#63b8ff" points="418.74,-214.8 409.5,-219.99 419.96,-221.69 418.74,-214.8"/>
</a>
</g>
</g>
<!-- Node3 -->
<g id="Node000003" class="node">
<title>Node3</title>
<g id="a_Node000003"><a xlink:href="../../d1/d41/fs__cache_8hpp.html" target="_top" xlink:title="Component for storing files in memory.">
<polygon fill="white" stroke="#666666" points="116,-101.5 0,-101.5 0,-71.5 116,-71.5 116,-101.5"/>
<text text-anchor="start" x="8" y="-89.5" font-family="Helvetica,sans-Serif" font-size="10.00">userver/components</text>
<text text-anchor="middle" x="58" y="-78.5" font-family="Helvetica,sans-Serif" font-size="10.00">/fs_cache.hpp</text>
</a>
</g>
</g>
<!-- Node2&#45;&gt;Node3 -->
<g id="edge2_Node000002_Node000003" class="edge">
<title>Node2&#45;&gt;Node3</title>
<g id="a_edge2_Node000002_Node000003"><a xlink:title=" ">
<path fill="none" stroke="#63b8ff" d="M87.82,-139.51C80.71,-127.11 72.17,-112.21 66.05,-101.54"/>
<polygon fill="#63b8ff" stroke="#63b8ff" points="84.9,-141.46 92.91,-148.39 90.97,-137.98 84.9,-141.46"/>
</a>
</g>
</g>
<!-- Node4 -->
<g id="Node000004" class="node">
<title>Node4</title>
<g id="a_Node000004"><a xlink:href="../../dd/db6/http__handler__static_8hpp.html" target="_top" xlink:title="Handler that returns HTTP 200 if file exist and returns file data with mapped content/type.">
<polygon fill="white" stroke="#666666" points="168,-30 34,-30 34,0 168,0 168,-30"/>
<text text-anchor="start" x="42" y="-18" font-family="Helvetica,sans-Serif" font-size="10.00">userver/server/handlers</text>
<text text-anchor="middle" x="101" y="-7" font-family="Helvetica,sans-Serif" font-size="10.00">/http_handler_static.hpp</text>
</a>
</g>
</g>
<!-- Node2&#45;&gt;Node4 -->
<g id="edge4_Node000002_Node000004" class="edge">
<title>Node2&#45;&gt;Node4</title>
<g id="a_edge4_Node000002_Node000004"><a xlink:title=" ">
<path fill="none" stroke="#63b8ff" d="M113.49,-139.43C118.07,-129.71 122.7,-118.1 125,-107 128.69,-89.16 129.04,-83.77 125,-66 122.09,-53.23 115.5,-39.92 109.96,-30.24"/>
<polygon fill="#63b8ff" stroke="#63b8ff" points="110.33,-137.91 109,-148.43 116.6,-141.04 110.33,-137.91"/>
</a>
</g>
</g>
<!-- Node3&#45;&gt;Node4 -->
<g id="edge3_Node000003_Node000004" class="edge">
<title>Node3&#45;&gt;Node4</title>
<g id="a_edge3_Node000003_Node000004"><a xlink:title=" ">
<path fill="none" stroke="#63b8ff" d="M71.99,-62.88C78.69,-52.07 86.49,-39.46 92.31,-30.04"/>
<polygon fill="#63b8ff" stroke="#63b8ff" points="68.99,-61.09 66.7,-71.44 74.94,-64.77 68.99,-61.09"/>
</a>
</g>
</g>
<!-- Node6&#45;&gt;Node7 -->
<g id="edge7_Node000006_Node000007" class="edge">
<title>Node6&#45;&gt;Node7</title>
<g id="a_edge7_Node000006_Node000007"><a xlink:title=" ">
<path fill="none" stroke="#63b8ff" d="M453.36,-134.39C459.31,-125.3 465.76,-115.41 471.21,-107.07"/>
<polygon fill="#63b8ff" stroke="#63b8ff" points="450.41,-132.51 447.87,-142.79 456.27,-136.34 450.41,-132.51"/>
</a>
</g>
</g>
</g>
</svg>
