<?xml version="1.0" encoding="UTF-8" standalone="no"?>
<!DOCTYPE svg PUBLIC "-//W3C//DTD SVG 1.1//EN"
 "http://www.w3.org/Graphics/SVG/1.1/DTD/svg11.dtd">
<!-- Generated by graphviz version 2.43.0 (0)
 -->
<!-- Title: userver/crypto/certificate.hpp Pages: 1 -->
<svg width="731pt" height="225pt"
 viewBox="0.00 0.00 730.50 225.00" xmlns="http://www.w3.org/2000/svg" xmlns:xlink="http://www.w3.org/1999/xlink">
<g id="graph0" class="graph" transform="scale(1 1) rotate(0) translate(4 221)">
<title>userver/crypto/certificate.hpp</title>
<!-- Node1 -->
<g id="Node000001" class="node">
<title>Node1</title>
<g id="a_Node000001"><a xlink:title=" ">
<polygon fill="#999999" stroke="#666666" points="425.5,-217 265.5,-217 265.5,-198 425.5,-198 425.5,-217"/>
<text text-anchor="middle" x="345.5" y="-205" font-family="Helvetica,sans-Serif" font-size="10.00">userver/crypto/certificate.hpp</text>
</a>
</g>
</g>
<!-- Node2 -->
<g id="Node000002" class="node">
<title>Node2</title>
<g id="a_Node000002"><a xlink:href="../../d1/d57/core_2include_2userver_2clients_2http_2request_8hpp.html" target="_top" xlink:title="Class for creating and performing new http requests.">
<polygon fill="white" stroke="#666666" points="216,-162 105,-162 105,-132 216,-132 216,-162"/>
<text text-anchor="start" x="113" y="-150" font-family="Helvetica,sans-Serif" font-size="10.00">userver/clients/http</text>
<text text-anchor="middle" x="160.5" y="-139" font-family="Helvetica,sans-Serif" font-size="10.00">/request.hpp</text>
</a>
</g>
</g>
<!-- Node1&#45;&gt;Node2 -->
<g id="edge1_Node000001_Node000002" class="edge">
<title>Node1&#45;&gt;Node2</title>
<g id="a_edge1_Node000001_Node000002"><a xlink:title=" ">
<path fill="none" stroke="#63b8ff" d="M308.99,-194.95C279.13,-185.51 236.81,-172.13 204.98,-162.06"/>
<polygon fill="#63b8ff" stroke="#63b8ff" points="308.01,-198.32 318.6,-197.99 310.12,-191.64 308.01,-198.32"/>
</a>
</g>
</g>
<!-- Node6 -->
<g id="Node000006" class="node">
<title>Node6</title>
<g id="a_Node000006"><a xlink:href="../../d2/d62/crypto_8hpp.html" target="_top" xlink:title="Include&#45;all header for crypto routines.">
<polygon fill="white" stroke="#666666" points="416.5,-90.5 274.5,-90.5 274.5,-71.5 416.5,-71.5 416.5,-90.5"/>
<text text-anchor="middle" x="345.5" y="-78.5" font-family="Helvetica,sans-Serif" font-size="10.00">userver/crypto/crypto.hpp</text>
</a>
</g>
</g>
<!-- Node1&#45;&gt;Node6 -->
<g id="edge5_Node000001_Node000006" class="edge">
<title>Node1&#45;&gt;Node6</title>
<g id="a_edge5_Node000001_Node000006"><a xlink:title=" ">
<path fill="none" stroke="#63b8ff" d="M303.79,-194.09C288.34,-187.24 272.42,-176.98 263.5,-162 256.68,-150.54 256.97,-143.63 263.5,-132 275.09,-111.35 299.05,-98.23 318.1,-90.63"/>
<polygon fill="#63b8ff" stroke="#63b8ff" points="302.7,-197.42 313.29,-197.92 305.33,-190.93 302.7,-197.42"/>
</a>
</g>
</g>
<!-- Node7 -->
<g id="Node000007" class="node">
<title>Node7</title>
<g id="a_Node000007"><a xlink:href="../../d6/dfb/signers_8hpp.html" target="_top" xlink:title="Digital signature generators.">
<polygon fill="white" stroke="#666666" points="418.5,-156.5 272.5,-156.5 272.5,-137.5 418.5,-137.5 418.5,-156.5"/>
<text text-anchor="middle" x="345.5" y="-144.5" font-family="Helvetica,sans-Serif" font-size="10.00">userver/crypto/signers.hpp</text>
</a>
</g>
</g>
<!-- Node1&#45;&gt;Node7 -->
<g id="edge6_Node000001_Node000007" class="edge">
<title>Node1&#45;&gt;Node7</title>
<g id="a_edge6_Node000001_Node000007"><a xlink:title=" ">
<path fill="none" stroke="#63b8ff" d="M345.5,-187.66C345.5,-177.24 345.5,-164.8 345.5,-156.67"/>
<polygon fill="#63b8ff" stroke="#63b8ff" points="342,-187.87 345.5,-197.87 349,-187.87 342,-187.87"/>
</a>
</g>
</g>
<!-- Node8 -->
<g id="Node000008" class="node">
<title>Node8</title>
<g id="a_Node000008"><a xlink:href="../../de/d3f/verifiers_8hpp.html" target="_top" xlink:title="Digital signature verifiers.">
<polygon fill="white" stroke="#666666" points="588,-156.5 437,-156.5 437,-137.5 588,-137.5 588,-156.5"/>
<text text-anchor="middle" x="512.5" y="-144.5" font-family="Helvetica,sans-Serif" font-size="10.00">userver/crypto/verifiers.hpp</text>
</a>
</g>
</g>
<!-- Node1&#45;&gt;Node8 -->
<g id="edge8_Node000001_Node000008" class="edge">
<title>Node1&#45;&gt;Node8</title>
<g id="a_edge8_Node000001_Node000008"><a xlink:title=" ">
<path fill="none" stroke="#63b8ff" d="M379.27,-194.67C411.56,-183.36 459.48,-166.57 488.19,-156.52"/>
<polygon fill="#63b8ff" stroke="#63b8ff" points="378.06,-191.38 369.78,-197.99 380.38,-197.99 378.06,-191.38"/>
</a>
</g>
</g>
<!-- Node9 -->
<g id="Node000009" class="node">
<title>Node9</title>
<g id="a_Node000009"><a xlink:href="../../d2/d28/tls__wrapper_8hpp.html" target="_top" xlink:title="TLS socket wrappers.">
<polygon fill="white" stroke="#666666" points="722.5,-162 606.5,-162 606.5,-132 722.5,-132 722.5,-162"/>
<text text-anchor="start" x="614.5" y="-150" font-family="Helvetica,sans-Serif" font-size="10.00">userver/engine/io/tls</text>
<text text-anchor="middle" x="664.5" y="-139" font-family="Helvetica,sans-Serif" font-size="10.00">_wrapper.hpp</text>
</a>
</g>
</g>
<!-- Node1&#45;&gt;Node9 -->
<g id="edge10_Node000001_Node000009" class="edge">
<title>Node1&#45;&gt;Node9</title>
<g id="a_edge10_Node000001_Node000009"><a xlink:title=" ">
<path fill="none" stroke="#63b8ff" d="M406.64,-196.25C457.73,-187.56 532.47,-174.53 597.5,-162 600.42,-161.44 603.4,-160.85 606.42,-160.25"/>
<polygon fill="#63b8ff" stroke="#63b8ff" points="406.02,-192.81 396.75,-197.93 407.19,-199.71 406.02,-192.81"/>
</a>
</g>
</g>
<!-- Node3 -->
<g id="Node000003" class="node">
<title>Node3</title>
<g id="a_Node000003"><a xlink:href="../../d3/db8/core_2include_2userver_2clients_2http_2client_8hpp.html" target="_top" xlink:title="HTTP client that returns a HTTP request builder from CreateRequest().">
<polygon fill="white" stroke="#666666" points="111,-96 0,-96 0,-66 111,-66 111,-96"/>
<text text-anchor="start" x="8" y="-84" font-family="Helvetica,sans-Serif" font-size="10.00">userver/clients/http</text>
<text text-anchor="middle" x="55.5" y="-73" font-family="Helvetica,sans-Serif" font-size="10.00">/client.hpp</text>
</a>
</g>
</g>
<!-- Node2&#45;&gt;Node3 -->
<g id="edge2_Node000002_Node000003" class="edge">
<title>Node2&#45;&gt;Node3</title>
<g id="a_edge2_Node000002_Node000003"><a xlink:title=" ">
<path fill="none" stroke="#63b8ff" d="M128.83,-126.69C112.62,-116.82 93.25,-105.01 78.49,-96.01"/>
<polygon fill="#63b8ff" stroke="#63b8ff" points="127.1,-129.74 137.46,-131.95 130.74,-123.76 127.1,-129.74"/>
</a>
</g>
</g>
<!-- Node5 -->
<g id="Node000005" class="node">
<title>Node5</title>
<g id="a_Node000005"><a xlink:href="../../d2/d6c/http__server__mock_8hpp_source.html" target="_top" xlink:title=" ">
<polygon fill="white" stroke="#666666" points="235.5,-96 129.5,-96 129.5,-66 235.5,-66 235.5,-96"/>
<text text-anchor="start" x="137.5" y="-84" font-family="Helvetica,sans-Serif" font-size="10.00">userver/utest/http</text>
<text text-anchor="middle" x="182.5" y="-73" font-family="Helvetica,sans-Serif" font-size="10.00">_server_mock.hpp</text>
</a>
</g>
</g>
<!-- Node2&#45;&gt;Node5 -->
<g id="edge4_Node000002_Node000005" class="edge">
<title>Node2&#45;&gt;Node5</title>
<g id="a_edge4_Node000002_Node000005"><a xlink:title=" ">
<path fill="none" stroke="#63b8ff" d="M168.71,-122.11C171.71,-113.38 175.01,-103.78 177.63,-96.16"/>
<polygon fill="#63b8ff" stroke="#63b8ff" points="165.32,-121.2 165.38,-131.8 171.94,-123.48 165.32,-121.2"/>
</a>
</g>
</g>
<!-- Node4 -->
<g id="Node000004" class="node">
<title>Node4</title>
<g id="a_Node000004"><a xlink:href="../../d7/d98/core_2include_2userver_2clients_2http_2component_8hpp.html" target="_top" xlink:title="Component that manages clients::http::Client.">
<polygon fill="white" stroke="#666666" points="111,-30 0,-30 0,0 111,0 111,-30"/>
<text text-anchor="start" x="8" y="-18" font-family="Helvetica,sans-Serif" font-size="10.00">userver/clients/http</text>
<text text-anchor="middle" x="55.5" y="-7" font-family="Helvetica,sans-Serif" font-size="10.00">/component.hpp</text>
</a>
</g>
</g>
<!-- Node3&#45;&gt;Node4 -->
<g id="edge3_Node000003_Node000004" class="edge">
<title>Node3&#45;&gt;Node4</title>
<g id="a_edge3_Node000003_Node000004"><a xlink:title=" ">
<path fill="none" stroke="#63b8ff" d="M55.5,-55.54C55.5,-46.96 55.5,-37.61 55.5,-30.16"/>
<polygon fill="#63b8ff" stroke="#63b8ff" points="52,-55.8 55.5,-65.8 59,-55.8 52,-55.8"/>
</a>
</g>
</g>
<!-- Node7&#45;&gt;Node6 -->
<g id="edge7_Node000007_Node000006" class="edge">
<title>Node7&#45;&gt;Node6</title>
<g id="a_edge7_Node000007_Node000006"><a xlink:title=" ">
<path fill="none" stroke="#63b8ff" d="M345.5,-127.08C345.5,-115.13 345.5,-100.22 345.5,-90.91"/>
<polygon fill="#63b8ff" stroke="#63b8ff" points="342,-127.37 345.5,-137.37 349,-127.37 342,-127.37"/>
</a>
</g>
</g>
<!-- Node8&#45;&gt;Node6 -->
<g id="edge9_Node000008_Node000006" class="edge">
<title>Node8&#45;&gt;Node6</title>
<g id="a_edge9_Node000008_Node000006"><a xlink:title=" ">
<path fill="none" stroke="#63b8ff" d="M480.34,-133.68C447.34,-121.03 396.85,-101.68 367.93,-90.6"/>
<polygon fill="#63b8ff" stroke="#63b8ff" points="479.39,-137.06 489.98,-137.37 481.89,-130.52 479.39,-137.06"/>
</a>
</g>
</g>
</g>
</svg>
