<?xml version="1.0" encoding="UTF-8" standalone="no"?>
<!DOCTYPE svg PUBLIC "-//W3C//DTD SVG 1.1//EN"
 "http://www.w3.org/Graphics/SVG/1.1/DTD/svg11.dtd">
<!-- Generated by graphviz version 2.43.0 (0)
 -->
<!-- Title: userver/compiler/thread_local.hpp Pages: 1 -->
<svg width="431pt" height="159pt"
 viewBox="0.00 0.00 431.08 159.00" xmlns="http://www.w3.org/2000/svg" xmlns:xlink="http://www.w3.org/1999/xlink">
<g id="graph0" class="graph" transform="scale(1 1) rotate(0) translate(4 155)">
<title>userver/compiler/thread_local.hpp</title>
<!-- Node1 -->
<g id="Node000001" class="node">
<title>Node1</title>
<g id="a_Node000001"><a xlink:title="Utilities for using thread&#45;local variables in a coroutine&#45;safe way.">
<polygon fill="#999999" stroke="#666666" points="215.08,-151 81.08,-151 81.08,-121 215.08,-121 215.08,-151"/>
<text text-anchor="start" x="89.08" y="-139" font-family="Helvetica,sans-Serif" font-size="10.00">userver/compiler/thread</text>
<text text-anchor="middle" x="148.08" y="-128" font-family="Helvetica,sans-Serif" font-size="10.00">_local.hpp</text>
</a>
</g>
</g>
<!-- Node2 -->
<g id="Node000002" class="node">
<title>Node2</title>
<g id="a_Node000002"><a xlink:title=" ">
<polygon fill="#e0e0e0" stroke="#999999" points="170.58,-19 101.58,-19 101.58,0 170.58,0 170.58,-19"/>
<text text-anchor="middle" x="136.08" y="-7" font-family="Helvetica,sans-Serif" font-size="10.00">type_traits</text>
</a>
</g>
</g>
<!-- Node1&#45;&gt;Node2 -->
<g id="edge1_Node000001_Node000002" class="edge">
<title>Node1&#45;&gt;Node2</title>
<g id="a_edge1_Node000001_Node000002"><a xlink:title=" ">
<path fill="none" stroke="#63b8ff" d="M81,-128.27C53.08,-121.78 23.22,-109.21 6.08,-85 -19.13,-49.4 44.47,-28.47 91.35,-18.27"/>
<polygon fill="#63b8ff" stroke="#63b8ff" points="92.27,-21.65 101.35,-16.2 90.85,-14.8 92.27,-21.65"/>
</a>
</g>
</g>
<!-- Node3 -->
<g id="Node000003" class="node">
<title>Node3</title>
<g id="a_Node000003"><a xlink:href="../../d4/dce/constexpr_8hpp_source.html" target="_top" xlink:title=" ">
<polygon fill="white" stroke="#666666" points="139.08,-85 15.08,-85 15.08,-55 139.08,-55 139.08,-85"/>
<text text-anchor="start" x="23.08" y="-73" font-family="Helvetica,sans-Serif" font-size="10.00">userver/compiler/impl</text>
<text text-anchor="middle" x="77.08" y="-62" font-family="Helvetica,sans-Serif" font-size="10.00">/constexpr.hpp</text>
</a>
</g>
</g>
<!-- Node1&#45;&gt;Node3 -->
<g id="edge2_Node000001_Node000003" class="edge">
<title>Node1&#45;&gt;Node3</title>
<g id="a_edge2_Node000001_Node000003"><a xlink:title=" ">
<path fill="none" stroke="#63b8ff" d="M132.32,-120.8C122.94,-112.34 110.87,-101.46 100.41,-92.03"/>
<polygon fill="#63b8ff" stroke="#63b8ff" points="102.56,-89.26 92.79,-85.16 97.88,-94.46 102.56,-89.26"/>
</a>
</g>
</g>
<!-- Node4 -->
<g id="Node000004" class="node">
<title>Node4</title>
<g id="a_Node000004"><a xlink:href="../../dd/d47/lifetime_8hpp_source.html" target="_top" xlink:title=" ">
<polygon fill="white" stroke="#666666" points="281.08,-85 157.08,-85 157.08,-55 281.08,-55 281.08,-85"/>
<text text-anchor="start" x="165.08" y="-73" font-family="Helvetica,sans-Serif" font-size="10.00">userver/compiler/impl</text>
<text text-anchor="middle" x="219.08" y="-62" font-family="Helvetica,sans-Serif" font-size="10.00">/lifetime.hpp</text>
</a>
</g>
</g>
<!-- Node1&#45;&gt;Node4 -->
<g id="edge3_Node000001_Node000004" class="edge">
<title>Node1&#45;&gt;Node4</title>
<g id="a_edge3_Node000001_Node000004"><a xlink:title=" ">
<path fill="none" stroke="#63b8ff" d="M163.84,-120.8C173.21,-112.34 185.28,-101.46 195.75,-92.03"/>
<polygon fill="#63b8ff" stroke="#63b8ff" points="198.28,-94.46 203.36,-85.16 193.59,-89.26 198.28,-94.46"/>
</a>
</g>
</g>
<!-- Node5 -->
<g id="Node000005" class="node">
<title>Node5</title>
<g id="a_Node000005"><a xlink:href="../../d0/d96/tls_8hpp_source.html" target="_top" xlink:title=" ">
<polygon fill="white" stroke="#666666" points="423.08,-85 299.08,-85 299.08,-55 423.08,-55 423.08,-85"/>
<text text-anchor="start" x="307.08" y="-73" font-family="Helvetica,sans-Serif" font-size="10.00">userver/compiler/impl</text>
<text text-anchor="middle" x="361.08" y="-62" font-family="Helvetica,sans-Serif" font-size="10.00">/tls.hpp</text>
</a>
</g>
</g>
<!-- Node1&#45;&gt;Node5 -->
<g id="edge4_Node000001_Node000005" class="edge">
<title>Node1&#45;&gt;Node5</title>
<g id="a_edge4_Node000001_Node000005"><a xlink:title=" ">
<path fill="none" stroke="#63b8ff" d="M194.82,-120.95C227.14,-111.24 270.33,-98.27 304.58,-87.98"/>
<polygon fill="#63b8ff" stroke="#63b8ff" points="305.87,-91.24 314.44,-85.01 303.86,-84.54 305.87,-91.24"/>
</a>
</g>
</g>
<!-- Node5&#45;&gt;Node2 -->
<g id="edge5_Node000005_Node000002" class="edge">
<title>Node5&#45;&gt;Node2</title>
<g id="a_edge5_Node000005_Node000002"><a xlink:title=" ">
<path fill="none" stroke="#63b8ff" d="M307.19,-54.99C267.85,-44.76 215.25,-31.09 178.8,-21.61"/>
<polygon fill="#63b8ff" stroke="#63b8ff" points="179.54,-18.18 168.98,-19.05 177.77,-24.96 179.54,-18.18"/>
</a>
</g>
</g>
<!-- Node6 -->
<g id="Node000006" class="node">
<title>Node6</title>
<g id="a_Node000006"><a xlink:title=" ">
<polygon fill="#e0e0e0" stroke="#999999" points="383.58,-19 338.58,-19 338.58,0 383.58,0 383.58,-19"/>
<text text-anchor="middle" x="361.08" y="-7" font-family="Helvetica,sans-Serif" font-size="10.00">utility</text>
</a>
</g>
</g>
<!-- Node5&#45;&gt;Node6 -->
<g id="edge6_Node000005_Node000006" class="edge">
<title>Node5&#45;&gt;Node6</title>
<g id="a_edge6_Node000005_Node000006"><a xlink:title=" ">
<path fill="none" stroke="#63b8ff" d="M361.08,-54.84C361.08,-47.21 361.08,-37.7 361.08,-29.45"/>
<polygon fill="#63b8ff" stroke="#63b8ff" points="364.58,-29.27 361.08,-19.27 357.58,-29.27 364.58,-29.27"/>
</a>
</g>
</g>
</g>
</svg>
