<?xml version="1.0" encoding="UTF-8" standalone="no"?>
<!DOCTYPE svg PUBLIC "-//W3C//DTD SVG 1.1//EN"
 "http://www.w3.org/Graphics/SVG/1.1/DTD/svg11.dtd">
<!-- Generated by graphviz version 2.43.0 (0)
 -->
<!-- Title: storages::postgres::Row Pages: 1 -->
<svg width="531pt" height="211pt"
 viewBox="0.00 0.00 531.00 211.00" xmlns="http://www.w3.org/2000/svg" xmlns:xlink="http://www.w3.org/1999/xlink">
<g id="graph0" class="graph" transform="scale(1 1) rotate(0) translate(4 207)">
<title>storages::postgres::Row</title>
<!-- Node1 -->
<g id="Node000001" class="node">
<title>Node1</title>
<g id="a_Node000001"><a xlink:title=" ">
<polygon fill="#999999" stroke="#666666" points="134,-100 0,-100 0,-81 134,-81 134,-100"/>
<text text-anchor="middle" x="67" y="-88" font-family="Helvetica,sans-Serif" font-size="10.00">storages::postgres::Row</text>
</a>
</g>
</g>
<!-- Node2 -->
<g id="Node000002" class="node">
<title>Node2</title>
<g id="a_Node000002"><a xlink:title=" ">
<polygon fill="white" stroke="#666666" points="326.5,-203 183.5,-203 183.5,-140 326.5,-140 326.5,-203"/>
<text text-anchor="start" x="191.5" y="-191" font-family="Helvetica,sans-Serif" font-size="10.00">storages::postgres</text>
<text text-anchor="start" x="191.5" y="-180" font-family="Helvetica,sans-Serif" font-size="10.00">::detail::ConstDataIterator</text>
<text text-anchor="start" x="191.5" y="-169" font-family="Helvetica,sans-Serif" font-size="10.00">&lt; ConstRowIterator, Row,</text>
<text text-anchor="start" x="191.5" y="-158" font-family="Helvetica,sans-Serif" font-size="10.00"> detail::IteratorDirection</text>
<text text-anchor="middle" x="255" y="-147" font-family="Helvetica,sans-Serif" font-size="10.00">::kForward &gt;</text>
</a>
</g>
</g>
<!-- Node1&#45;&gt;Node2 -->
<g id="edge1_Node000001_Node000002" class="edge">
<title>Node1&#45;&gt;Node2</title>
<g id="a_edge1_Node000001_Node000002"><a xlink:title=" ">
<path fill="none" stroke="darkgreen" d="M99.32,-104.14C122.31,-114.15 154.46,-128.15 183.5,-140.8"/>
<polygon fill="darkgreen" stroke="darkgreen" points="100.63,-100.89 90.07,-100.11 97.84,-107.31 100.63,-100.89"/>
</a>
</g>
</g>
<!-- Node4 -->
<g id="Node000004" class="node">
<title>Node4</title>
<g id="a_Node000004"><a xlink:title=" ">
<polygon fill="white" stroke="#666666" points="335.5,-122 174.5,-122 174.5,-59 335.5,-59 335.5,-122"/>
<text text-anchor="start" x="182.5" y="-110" font-family="Helvetica,sans-Serif" font-size="10.00">storages::postgres</text>
<text text-anchor="start" x="182.5" y="-99" font-family="Helvetica,sans-Serif" font-size="10.00">::detail::ConstDataIterator</text>
<text text-anchor="start" x="182.5" y="-88" font-family="Helvetica,sans-Serif" font-size="10.00">&lt; ReverseConstRowIterator,</text>
<text text-anchor="start" x="182.5" y="-77" font-family="Helvetica,sans-Serif" font-size="10.00"> Row, detail::IteratorDirection</text>
<text text-anchor="middle" x="255" y="-66" font-family="Helvetica,sans-Serif" font-size="10.00">::kReverse &gt;</text>
</a>
</g>
</g>
<!-- Node1&#45;&gt;Node4 -->
<g id="edge3_Node000001_Node000004" class="edge">
<title>Node1&#45;&gt;Node4</title>
<g id="a_edge3_Node000001_Node000004"><a xlink:title=" ">
<path fill="none" stroke="darkgreen" d="M144.33,-90.5C154.26,-90.5 164.44,-90.5 174.42,-90.5"/>
<polygon fill="darkgreen" stroke="darkgreen" points="144.1,-87 134.1,-90.5 144.1,-94 144.1,-87"/>
</a>
</g>
</g>
<!-- Node6 -->
<g id="Node000006" class="node">
<title>Node6</title>
<g id="a_Node000006"><a xlink:title=" ">
<polygon fill="white" stroke="#bfbfbf" points="340,-41 170,-41 170,0 340,0 340,-41"/>
<text text-anchor="start" x="178" y="-29" font-family="Helvetica,sans-Serif" font-size="10.00">storages::postgres</text>
<text text-anchor="start" x="178" y="-18" font-family="Helvetica,sans-Serif" font-size="10.00">::detail::ConstTypedRowIterator</text>
<text text-anchor="middle" x="255" y="-7" font-family="Helvetica,sans-Serif" font-size="10.00">&lt; T, ExtractionTag, direction &gt;</text>
</a>
</g>
</g>
<!-- Node1&#45;&gt;Node6 -->
<g id="edge5_Node000001_Node000006" class="edge">
<title>Node1&#45;&gt;Node6</title>
<g id="a_edge5_Node000001_Node000006"><a xlink:title=" ">
<path fill="none" stroke="#8b1a1a" d="M101.36,-77.12C121.23,-69.22 146.99,-59.12 170,-50.5 178.27,-47.4 187.02,-44.2 195.62,-41.09"/>
<polygon fill="#8b1a1a" stroke="#8b1a1a" points="99.82,-73.96 91.83,-80.92 102.41,-80.47 99.82,-73.96"/>
</a>
</g>
</g>
<!-- Node3 -->
<g id="Node000003" class="node">
<title>Node3</title>
<g id="a_Node000003"><a xlink:href="../../d6/d7b/classstorages_1_1postgres_1_1ConstRowIterator.html" target="_top" xlink:title=" ">
<polygon fill="white" stroke="#bfbfbf" points="503,-186.5 396,-186.5 396,-156.5 503,-156.5 503,-186.5"/>
<text text-anchor="start" x="404" y="-174.5" font-family="Helvetica,sans-Serif" font-size="10.00">storages::postgres</text>
<text text-anchor="middle" x="449.5" y="-163.5" font-family="Helvetica,sans-Serif" font-size="10.00">::ConstRowIterator</text>
</a>
</g>
</g>
<!-- Node2&#45;&gt;Node3 -->
<g id="edge2_Node000002_Node000003" class="edge">
<title>Node2&#45;&gt;Node3</title>
<g id="a_edge2_Node000002_Node000003"><a xlink:title=" ">
<path fill="none" stroke="#63b8ff" d="M336.61,-171.5C356.58,-171.5 377.46,-171.5 395.71,-171.5"/>
<polygon fill="#63b8ff" stroke="#63b8ff" points="336.59,-168 326.59,-171.5 336.59,-175 336.59,-168"/>
</a>
</g>
</g>
<!-- Node5 -->
<g id="Node000005" class="node">
<title>Node5</title>
<g id="a_Node000005"><a xlink:href="../../d6/d82/classstorages_1_1postgres_1_1ReverseConstRowIterator.html" target="_top" xlink:title=" ">
<polygon fill="white" stroke="#bfbfbf" points="523,-105.5 376,-105.5 376,-75.5 523,-75.5 523,-105.5"/>
<text text-anchor="start" x="384" y="-93.5" font-family="Helvetica,sans-Serif" font-size="10.00">storages::postgres</text>
<text text-anchor="middle" x="449.5" y="-82.5" font-family="Helvetica,sans-Serif" font-size="10.00">::ReverseConstRowIterator</text>
</a>
</g>
</g>
<!-- Node4&#45;&gt;Node5 -->
<g id="edge4_Node000004_Node000005" class="edge">
<title>Node4&#45;&gt;Node5</title>
<g id="a_edge4_Node000004_Node000005"><a xlink:title=" ">
<path fill="none" stroke="#63b8ff" d="M345.76,-90.5C355.88,-90.5 366.1,-90.5 375.96,-90.5"/>
<polygon fill="#63b8ff" stroke="#63b8ff" points="345.69,-87 335.69,-90.5 345.69,-94 345.69,-87"/>
</a>
</g>
</g>
</g>
</svg>
