<?xml version="1.0" encoding="UTF-8" standalone="no"?>
<!DOCTYPE svg PUBLIC "-//W3C//DTD SVG 1.1//EN"
 "http://www.w3.org/Graphics/SVG/1.1/DTD/svg11.dtd">
<!-- Generated by graphviz version 2.43.0 (0)
 -->
<!-- Title: userver/storages/postgres/message.hpp Pages: 1 -->
<svg width="1208pt" height="225pt"
 viewBox="0.00 0.00 1208.00 225.00" xmlns="http://www.w3.org/2000/svg" xmlns:xlink="http://www.w3.org/1999/xlink">
<g id="graph0" class="graph" transform="scale(1 1) rotate(0) translate(4 221)">
<title>userver/storages/postgres/message.hpp</title>
<!-- Node1 -->
<g id="Node000001" class="node">
<title>Node1</title>
<g id="a_Node000001"><a xlink:title="Database messages.">
<polygon fill="#999999" stroke="#666666" points="984.5,-217 841.5,-217 841.5,-187 984.5,-187 984.5,-217"/>
<text text-anchor="start" x="849.5" y="-205" font-family="Helvetica,sans-Serif" font-size="10.00">userver/storages/postgres</text>
<text text-anchor="middle" x="913" y="-194" font-family="Helvetica,sans-Serif" font-size="10.00">/message.hpp</text>
</a>
</g>
</g>
<!-- Node2 -->
<g id="Node000002" class="node">
<title>Node2</title>
<g id="a_Node000002"><a xlink:title=" ">
<polygon fill="#e0e0e0" stroke="#999999" points="44,-79.5 0,-79.5 0,-60.5 44,-60.5 44,-79.5"/>
<text text-anchor="middle" x="22" y="-67.5" font-family="Helvetica,sans-Serif" font-size="10.00">string</text>
</a>
</g>
</g>
<!-- Node1&#45;&gt;Node2 -->
<g id="edge1_Node000001_Node000002" class="edge">
<title>Node1&#45;&gt;Node2</title>
<g id="a_edge1_Node000001_Node000002"><a xlink:title=" ">
<path fill="none" stroke="#63b8ff" d="M841.23,-197.6C736.17,-191.91 534.54,-178.3 365,-151 249.15,-132.34 114.25,-96.71 53.96,-80.03"/>
<polygon fill="#63b8ff" stroke="#63b8ff" points="54.83,-76.64 44.26,-77.33 52.96,-83.38 54.83,-76.64"/>
</a>
</g>
</g>
<!-- Node3 -->
<g id="Node000003" class="node">
<title>Node3</title>
<g id="a_Node000003"><a xlink:title=" ">
<polygon fill="#e0e0e0" stroke="#999999" points="1131.5,-79.5 1058.5,-79.5 1058.5,-60.5 1131.5,-60.5 1131.5,-79.5"/>
<text text-anchor="middle" x="1095" y="-67.5" font-family="Helvetica,sans-Serif" font-size="10.00">string_view</text>
</a>
</g>
</g>
<!-- Node1&#45;&gt;Node3 -->
<g id="edge2_Node000001_Node000003" class="edge">
<title>Node1&#45;&gt;Node3</title>
<g id="a_edge2_Node000001_Node000003"><a xlink:title=" ">
<path fill="none" stroke="#63b8ff" d="M936.88,-186.99C953.01,-177.3 974.63,-163.89 993,-151 1001.35,-145.14 1049.07,-107.43 1076.18,-85.94"/>
<polygon fill="#63b8ff" stroke="#63b8ff" points="1078.52,-88.55 1084.18,-79.59 1074.17,-83.06 1078.52,-88.55"/>
</a>
</g>
</g>
<!-- Node4 -->
<g id="Node000004" class="node">
<title>Node4</title>
<g id="a_Node000004"><a xlink:href="../../d6/def/log__extra_8hpp.html" target="_top" xlink:title="Extra tskv fields storage.">
<polygon fill="white" stroke="#666666" points="484,-151 374,-151 374,-121 484,-121 484,-151"/>
<text text-anchor="start" x="382" y="-139" font-family="Helvetica,sans-Serif" font-size="10.00">userver/logging/log</text>
<text text-anchor="middle" x="429" y="-128" font-family="Helvetica,sans-Serif" font-size="10.00">_extra.hpp</text>
</a>
</g>
</g>
<!-- Node1&#45;&gt;Node4 -->
<g id="edge3_Node000001_Node000004" class="edge">
<title>Node1&#45;&gt;Node4</title>
<g id="a_edge3_Node000001_Node000004"><a xlink:title=" ">
<path fill="none" stroke="#63b8ff" d="M841.32,-191.52C747.57,-179.13 584.65,-157.58 494.21,-145.62"/>
<polygon fill="#63b8ff" stroke="#63b8ff" points="494.46,-142.13 484.09,-144.28 493.54,-149.07 494.46,-142.13"/>
</a>
</g>
</g>
<!-- Node16 -->
<g id="Node000016" class="node">
<title>Node16</title>
<g id="a_Node000016"><a xlink:href="../../d9/d34/postgres__fwd_8hpp.html" target="_top" xlink:title="Forward declarations of some popular postgre related types.">
<polygon fill="white" stroke="#666666" points="984.5,-151 841.5,-151 841.5,-121 984.5,-121 984.5,-151"/>
<text text-anchor="start" x="849.5" y="-139" font-family="Helvetica,sans-Serif" font-size="10.00">userver/storages/postgres</text>
<text text-anchor="middle" x="913" y="-128" font-family="Helvetica,sans-Serif" font-size="10.00">/postgres_fwd.hpp</text>
</a>
</g>
</g>
<!-- Node1&#45;&gt;Node16 -->
<g id="edge18_Node000001_Node000016" class="edge">
<title>Node1&#45;&gt;Node16</title>
<g id="a_edge18_Node000001_Node000016"><a xlink:title=" ">
<path fill="none" stroke="#63b8ff" d="M913,-186.8C913,-179.34 913,-169.99 913,-161.41"/>
<polygon fill="#63b8ff" stroke="#63b8ff" points="916.5,-161.16 913,-151.16 909.5,-161.16 916.5,-161.16"/>
</a>
</g>
</g>
<!-- Node19 -->
<g id="Node000019" class="node">
<title>Node19</title>
<g id="a_Node000019"><a xlink:href="../../d8/d77/sql__state_8hpp.html" target="_top" xlink:title="PostgreSQL error codes.">
<polygon fill="white" stroke="#666666" points="1184.5,-151 1041.5,-151 1041.5,-121 1184.5,-121 1184.5,-151"/>
<text text-anchor="start" x="1049.5" y="-139" font-family="Helvetica,sans-Serif" font-size="10.00">userver/storages/postgres</text>
<text text-anchor="middle" x="1113" y="-128" font-family="Helvetica,sans-Serif" font-size="10.00">/sql_state.hpp</text>
</a>
</g>
</g>
<!-- Node1&#45;&gt;Node19 -->
<g id="edge22_Node000001_Node000019" class="edge">
<title>Node1&#45;&gt;Node19</title>
<g id="a_edge22_Node000001_Node000019"><a xlink:title=" ">
<path fill="none" stroke="#63b8ff" d="M956.89,-186.95C987.11,-177.28 1027.44,-164.38 1059.54,-154.11"/>
<polygon fill="#63b8ff" stroke="#63b8ff" points="1060.75,-157.39 1069.21,-151.01 1058.62,-150.73 1060.75,-157.39"/>
</a>
</g>
</g>
<!-- Node4&#45;&gt;Node2 -->
<g id="edge5_Node000004_Node000002" class="edge">
<title>Node4&#45;&gt;Node2</title>
<g id="a_edge5_Node000004_Node000002"><a xlink:title=" ">
<path fill="none" stroke="#63b8ff" d="M373.84,-131.66C300.68,-126.3 167.97,-113.37 58,-85 55.7,-84.41 53.34,-83.71 51,-82.95"/>
<polygon fill="#63b8ff" stroke="#63b8ff" points="52.12,-79.63 41.53,-79.56 49.77,-86.22 52.12,-79.63"/>
</a>
</g>
</g>
<!-- Node5 -->
<g id="Node000005" class="node">
<title>Node5</title>
<g id="a_Node000005"><a xlink:title=" ">
<polygon fill="#e0e0e0" stroke="#999999" points="470.5,-79.5 387.5,-79.5 387.5,-60.5 470.5,-60.5 470.5,-79.5"/>
<text text-anchor="middle" x="429" y="-67.5" font-family="Helvetica,sans-Serif" font-size="10.00">initializer_list</text>
</a>
</g>
</g>
<!-- Node4&#45;&gt;Node5 -->
<g id="edge4_Node000004_Node000005" class="edge">
<title>Node4&#45;&gt;Node5</title>
<g id="a_edge4_Node000004_Node000005"><a xlink:title=" ">
<path fill="none" stroke="#63b8ff" d="M429,-120.8C429,-111.7 429,-99.79 429,-89.9"/>
<polygon fill="#63b8ff" stroke="#63b8ff" points="432.5,-89.84 429,-79.84 425.5,-89.84 432.5,-89.84"/>
</a>
</g>
</g>
<!-- Node6 -->
<g id="Node000006" class="node">
<title>Node6</title>
<g id="a_Node000006"><a xlink:title=" ">
<polygon fill="#e0e0e0" stroke="#999999" points="129.5,-19 84.5,-19 84.5,0 129.5,0 129.5,-19"/>
<text text-anchor="middle" x="107" y="-7" font-family="Helvetica,sans-Serif" font-size="10.00">utility</text>
</a>
</g>
</g>
<!-- Node4&#45;&gt;Node6 -->
<g id="edge6_Node000004_Node000006" class="edge">
<title>Node4&#45;&gt;Node6</title>
<g id="a_edge6_Node000004_Node000006"><a xlink:title=" ">
<path fill="none" stroke="#63b8ff" d="M373.98,-130.76C282.96,-123.18 109.21,-106.11 91,-85 77.27,-69.09 86.74,-44.25 95.9,-27.68"/>
<polygon fill="#63b8ff" stroke="#63b8ff" points="98.96,-29.39 101.08,-19.01 92.95,-25.8 98.96,-29.39"/>
</a>
</g>
</g>
<!-- Node7 -->
<g id="Node000007" class="node">
<title>Node7</title>
<g id="a_Node000007"><a xlink:title=" ">
<polygon fill="#e0e0e0" stroke="#999999" points="539.5,-79.5 488.5,-79.5 488.5,-60.5 539.5,-60.5 539.5,-79.5"/>
<text text-anchor="middle" x="514" y="-67.5" font-family="Helvetica,sans-Serif" font-size="10.00">variant</text>
</a>
</g>
</g>
<!-- Node4&#45;&gt;Node7 -->
<g id="edge7_Node000004_Node000007" class="edge">
<title>Node4&#45;&gt;Node7</title>
<g id="a_edge7_Node000004_Node000007"><a xlink:title=" ">
<path fill="none" stroke="#63b8ff" d="M447.86,-120.8C461.64,-110.43 480.26,-96.4 494.24,-85.88"/>
<polygon fill="#63b8ff" stroke="#63b8ff" points="496.37,-88.66 502.25,-79.84 492.16,-83.06 496.37,-88.66"/>
</a>
</g>
</g>
<!-- Node8 -->
<g id="Node000008" class="node">
<title>Node8</title>
<g id="a_Node000008"><a xlink:title=" ">
<polygon fill="#e0e0e0" stroke="#999999" points="698.5,-85 557.5,-85 557.5,-55 698.5,-55 698.5,-85"/>
<text text-anchor="start" x="565.5" y="-73" font-family="Helvetica,sans-Serif" font-size="10.00">boost/container/container</text>
<text text-anchor="middle" x="628" y="-62" font-family="Helvetica,sans-Serif" font-size="10.00">_fwd.hpp</text>
</a>
</g>
</g>
<!-- Node4&#45;&gt;Node8 -->
<g id="edge8_Node000004_Node000008" class="edge">
<title>Node4&#45;&gt;Node8</title>
<g id="a_edge8_Node000004_Node000008"><a xlink:title=" ">
<path fill="none" stroke="#63b8ff" d="M472.67,-120.95C502.74,-111.28 542.87,-98.38 574.8,-88.11"/>
<polygon fill="#63b8ff" stroke="#63b8ff" points="575.98,-91.41 584.43,-85.01 573.84,-84.74 575.98,-91.41"/>
</a>
</g>
</g>
<!-- Node9 -->
<g id="Node000009" class="node">
<title>Node9</title>
<g id="a_Node000009"><a xlink:href="../../d2/d84/select_8hpp.html" target="_top" xlink:title="Utilities for selection of platform specific values.">
<polygon fill="white" stroke="#666666" points="252,-79.5 100,-79.5 100,-60.5 252,-60.5 252,-79.5"/>
<text text-anchor="middle" x="176" y="-67.5" font-family="Helvetica,sans-Serif" font-size="10.00">userver/compiler/select.hpp</text>
</a>
</g>
</g>
<!-- Node4&#45;&gt;Node9 -->
<g id="edge9_Node000004_Node000009" class="edge">
<title>Node4&#45;&gt;Node9</title>
<g id="a_edge9_Node000004_Node000009"><a xlink:title=" ">
<path fill="none" stroke="#63b8ff" d="M373.79,-121.03C327.49,-109.32 262.26,-92.82 219.57,-82.02"/>
<polygon fill="#63b8ff" stroke="#63b8ff" points="220.31,-78.6 209.76,-79.54 218.59,-85.38 220.31,-78.6"/>
</a>
</g>
</g>
<!-- Node11 -->
<g id="Node000011" class="node">
<title>Node11</title>
<g id="a_Node000011"><a xlink:href="../../db/dfb/universal_2include_2userver_2logging_2fwd_8hpp.html" target="_top" xlink:title="Forward declarations for logging types.">
<polygon fill="white" stroke="#666666" points="851,-79.5 717,-79.5 717,-60.5 851,-60.5 851,-79.5"/>
<text text-anchor="middle" x="784" y="-67.5" font-family="Helvetica,sans-Serif" font-size="10.00">userver/logging/fwd.hpp</text>
</a>
</g>
</g>
<!-- Node4&#45;&gt;Node11 -->
<g id="edge11_Node000004_Node000011" class="edge">
<title>Node4&#45;&gt;Node11</title>
<g id="a_edge11_Node000004_Node000011"><a xlink:title=" ">
<path fill="none" stroke="#63b8ff" d="M484.13,-125.12C540.22,-115.05 629.67,-98.98 707,-85 713.56,-83.81 720.43,-82.57 727.25,-81.33"/>
<polygon fill="#63b8ff" stroke="#63b8ff" points="727.96,-84.76 737.18,-79.53 726.71,-77.87 727.96,-84.76"/>
</a>
</g>
</g>
<!-- Node13 -->
<g id="Node000013" class="node">
<title>Node13</title>
<g id="a_Node000013"><a xlink:href="../../d5/d02/fast__pimpl_8hpp.html" target="_top" xlink:title="Implements pimpl idiom without dynamic memory allocation.">
<polygon fill="white" stroke="#666666" points="369.5,-85 270.5,-85 270.5,-55 369.5,-55 369.5,-85"/>
<text text-anchor="start" x="278.5" y="-73" font-family="Helvetica,sans-Serif" font-size="10.00">userver/utils/fast</text>
<text text-anchor="middle" x="320" y="-62" font-family="Helvetica,sans-Serif" font-size="10.00">_pimpl.hpp</text>
</a>
</g>
</g>
<!-- Node4&#45;&gt;Node13 -->
<g id="edge13_Node000004_Node000013" class="edge">
<title>Node4&#45;&gt;Node13</title>
<g id="a_edge13_Node000004_Node000013"><a xlink:title=" ">
<path fill="none" stroke="#63b8ff" d="M405.08,-120.95C389.75,-111.95 369.64,-100.14 352.82,-90.27"/>
<polygon fill="#63b8ff" stroke="#63b8ff" points="354.26,-87.06 343.86,-85.01 350.72,-93.09 354.26,-87.06"/>
</a>
</g>
</g>
<!-- Node10 -->
<g id="Node000010" class="node">
<title>Node10</title>
<g id="a_Node000010"><a xlink:title=" ">
<polygon fill="#e0e0e0" stroke="#999999" points="218.5,-19 165.5,-19 165.5,0 218.5,0 218.5,-19"/>
<text text-anchor="middle" x="192" y="-7" font-family="Helvetica,sans-Serif" font-size="10.00">cstddef</text>
</a>
</g>
</g>
<!-- Node9&#45;&gt;Node10 -->
<g id="edge10_Node000009_Node000010" class="edge">
<title>Node9&#45;&gt;Node10</title>
<g id="a_edge10_Node000009_Node000010"><a xlink:title=" ">
<path fill="none" stroke="#63b8ff" d="M178.36,-60.37C180.61,-52.16 184.06,-39.54 186.93,-29.05"/>
<polygon fill="#63b8ff" stroke="#63b8ff" points="190.37,-29.74 189.63,-19.17 183.62,-27.89 190.37,-29.74"/>
</a>
</g>
</g>
<!-- Node12 -->
<g id="Node000012" class="node">
<title>Node12</title>
<g id="a_Node000012"><a xlink:title=" ">
<polygon fill="#e0e0e0" stroke="#999999" points="860,-19 802,-19 802,0 860,0 860,-19"/>
<text text-anchor="middle" x="831" y="-7" font-family="Helvetica,sans-Serif" font-size="10.00">memory</text>
</a>
</g>
</g>
<!-- Node11&#45;&gt;Node12 -->
<g id="edge12_Node000011_Node000012" class="edge">
<title>Node11&#45;&gt;Node12</title>
<g id="a_edge12_Node000011_Node000012"><a xlink:title=" ">
<path fill="none" stroke="#63b8ff" d="M790.94,-60.37C797.95,-51.64 808.96,-37.93 817.67,-27.09"/>
<polygon fill="#63b8ff" stroke="#63b8ff" points="820.5,-29.16 824.04,-19.17 815.04,-24.77 820.5,-29.16"/>
</a>
</g>
</g>
<!-- Node13&#45;&gt;Node6 -->
<g id="edge17_Node000013_Node000006" class="edge">
<title>Node13&#45;&gt;Node6</title>
<g id="a_edge17_Node000013_Node000006"><a xlink:title=" ">
<path fill="none" stroke="#63b8ff" d="M270.33,-55.36C229.94,-44.27 174.13,-28.94 139.32,-19.38"/>
<polygon fill="#63b8ff" stroke="#63b8ff" points="140.23,-16 129.66,-16.72 138.38,-22.75 140.23,-16"/>
</a>
</g>
</g>
<!-- Node13&#45;&gt;Node10 -->
<g id="edge14_Node000013_Node000010" class="edge">
<title>Node13&#45;&gt;Node10</title>
<g id="a_edge14_Node000013_Node000010"><a xlink:title=" ">
<path fill="none" stroke="#63b8ff" d="M289.34,-54.99C268.27,-45.36 240.51,-32.67 220.03,-23.31"/>
<polygon fill="#63b8ff" stroke="#63b8ff" points="221.45,-20.11 210.9,-19.14 218.54,-26.48 221.45,-20.11"/>
</a>
</g>
</g>
<!-- Node14 -->
<g id="Node000014" class="node">
<title>Node14</title>
<g id="a_Node000014"><a xlink:title=" ">
<polygon fill="#e0e0e0" stroke="#999999" points="377.5,-19 340.5,-19 340.5,0 377.5,0 377.5,-19"/>
<text text-anchor="middle" x="359" y="-7" font-family="Helvetica,sans-Serif" font-size="10.00">new</text>
</a>
</g>
</g>
<!-- Node13&#45;&gt;Node14 -->
<g id="edge15_Node000013_Node000014" class="edge">
<title>Node13&#45;&gt;Node14</title>
<g id="a_edge15_Node000013_Node000014"><a xlink:title=" ">
<path fill="none" stroke="#63b8ff" d="M329.44,-54.84C334.87,-46.69 341.73,-36.4 347.48,-27.78"/>
<polygon fill="#63b8ff" stroke="#63b8ff" points="350.52,-29.53 353.16,-19.27 344.7,-25.65 350.52,-29.53"/>
</a>
</g>
</g>
<!-- Node15 -->
<g id="Node000015" class="node">
<title>Node15</title>
<g id="a_Node000015"><a xlink:title=" ">
<polygon fill="#e0e0e0" stroke="#999999" points="322.5,-19 253.5,-19 253.5,0 322.5,0 322.5,-19"/>
<text text-anchor="middle" x="288" y="-7" font-family="Helvetica,sans-Serif" font-size="10.00">type_traits</text>
</a>
</g>
</g>
<!-- Node13&#45;&gt;Node15 -->
<g id="edge16_Node000013_Node000015" class="edge">
<title>Node13&#45;&gt;Node15</title>
<g id="a_edge16_Node000013_Node000015"><a xlink:title=" ">
<path fill="none" stroke="#63b8ff" d="M312.25,-54.84C307.85,-46.78 302.29,-36.62 297.6,-28.06"/>
<polygon fill="#63b8ff" stroke="#63b8ff" points="300.66,-26.36 292.8,-19.27 294.52,-29.72 300.66,-26.36"/>
</a>
</g>
</g>
<!-- Node16&#45;&gt;Node12 -->
<g id="edge21_Node000016_Node000012" class="edge">
<title>Node16&#45;&gt;Node12</title>
<g id="a_edge21_Node000016_Node000012"><a xlink:title=" ">
<path fill="none" stroke="#63b8ff" d="M903.59,-120.72C888.37,-97.61 858.42,-52.13 842.15,-27.43"/>
<polygon fill="#63b8ff" stroke="#63b8ff" points="845.07,-25.5 836.64,-19.07 839.22,-29.35 845.07,-25.5"/>
</a>
</g>
</g>
<!-- Node17 -->
<g id="Node000017" class="node">
<title>Node17</title>
<g id="a_Node000017"><a xlink:title=" ">
<polygon fill="#e0e0e0" stroke="#999999" points="957,-79.5 907,-79.5 907,-60.5 957,-60.5 957,-79.5"/>
<text text-anchor="middle" x="932" y="-67.5" font-family="Helvetica,sans-Serif" font-size="10.00">chrono</text>
</a>
</g>
</g>
<!-- Node16&#45;&gt;Node17 -->
<g id="edge19_Node000016_Node000017" class="edge">
<title>Node16&#45;&gt;Node17</title>
<g id="a_edge19_Node000016_Node000017"><a xlink:title=" ">
<path fill="none" stroke="#63b8ff" d="M917.22,-120.8C919.95,-111.6 923.53,-99.53 926.48,-89.58"/>
<polygon fill="#63b8ff" stroke="#63b8ff" points="929.88,-90.43 929.37,-79.84 923.17,-88.43 929.88,-90.43"/>
</a>
</g>
</g>
<!-- Node18 -->
<g id="Node000018" class="node">
<title>Node18</title>
<g id="a_Node000018"><a xlink:title=" ">
<polygon fill="#e0e0e0" stroke="#999999" points="1040.5,-79.5 975.5,-79.5 975.5,-60.5 1040.5,-60.5 1040.5,-79.5"/>
<text text-anchor="middle" x="1008" y="-67.5" font-family="Helvetica,sans-Serif" font-size="10.00">functional</text>
</a>
</g>
</g>
<!-- Node16&#45;&gt;Node18 -->
<g id="edge20_Node000016_Node000018" class="edge">
<title>Node16&#45;&gt;Node18</title>
<g id="a_edge20_Node000016_Node000018"><a xlink:title=" ">
<path fill="none" stroke="#63b8ff" d="M934.08,-120.8C949.71,-110.27 970.93,-95.97 986.63,-85.4"/>
<polygon fill="#63b8ff" stroke="#63b8ff" points="988.81,-88.15 995.15,-79.66 984.9,-82.34 988.81,-88.15"/>
</a>
</g>
</g>
<!-- Node19&#45;&gt;Node3 -->
<g id="edge24_Node000019_Node000003" class="edge">
<title>Node19&#45;&gt;Node3</title>
<g id="a_edge24_Node000019_Node000003"><a xlink:title=" ">
<path fill="none" stroke="#63b8ff" d="M1109.01,-120.8C1106.42,-111.6 1103.02,-99.53 1100.23,-89.58"/>
<polygon fill="#63b8ff" stroke="#63b8ff" points="1103.56,-88.52 1097.49,-79.84 1096.83,-90.42 1103.56,-88.52"/>
</a>
</g>
</g>
<!-- Node20 -->
<g id="Node000020" class="node">
<title>Node20</title>
<g id="a_Node000020"><a xlink:title=" ">
<polygon fill="#e0e0e0" stroke="#999999" points="1200,-79.5 1150,-79.5 1150,-60.5 1200,-60.5 1200,-79.5"/>
<text text-anchor="middle" x="1175" y="-67.5" font-family="Helvetica,sans-Serif" font-size="10.00">cstdint</text>
</a>
</g>
</g>
<!-- Node19&#45;&gt;Node20 -->
<g id="edge23_Node000019_Node000020" class="edge">
<title>Node19&#45;&gt;Node20</title>
<g id="a_edge23_Node000019_Node000020"><a xlink:title=" ">
<path fill="none" stroke="#63b8ff" d="M1126.76,-120.8C1136.43,-110.82 1149.37,-97.46 1159.42,-87.09"/>
<polygon fill="#63b8ff" stroke="#63b8ff" points="1161.99,-89.46 1166.43,-79.84 1156.96,-84.59 1161.99,-89.46"/>
</a>
</g>
</g>
</g>
</svg>
