<?xml version="1.0" encoding="UTF-8" standalone="no"?>
<!DOCTYPE svg PUBLIC "-//W3C//DTD SVG 1.1//EN"
 "http://www.w3.org/Graphics/SVG/1.1/DTD/svg11.dtd">
<!-- Generated by graphviz version 2.43.0 (0)
 -->
<!-- Title: userver/fs/blocking/open_mode.hpp Pages: 1 -->
<svg width="247pt" height="148pt"
 viewBox="0.00 0.00 246.50 148.00" xmlns="http://www.w3.org/2000/svg" xmlns:xlink="http://www.w3.org/1999/xlink">
<g id="graph0" class="graph" transform="scale(1 1) rotate(0) translate(4 144)">
<title>userver/fs/blocking/open_mode.hpp</title>
<!-- Node1 -->
<g id="Node000001" class="node">
<title>Node1</title>
<g id="a_Node000001"><a xlink:title="A set of OpenFlags.">
<polygon fill="#999999" stroke="#666666" points="165,-140 55,-140 55,-110 165,-110 165,-140"/>
<text text-anchor="start" x="63" y="-128" font-family="Helvetica,sans-Serif" font-size="10.00">userver/fs/blocking</text>
<text text-anchor="middle" x="110" y="-117" font-family="Helvetica,sans-Serif" font-size="10.00">/open_mode.hpp</text>
</a>
</g>
</g>
<!-- Node2 -->
<g id="Node000002" class="node">
<title>Node2</title>
<g id="a_Node000002"><a xlink:href="../../db/db5/flags_8hpp.html" target="_top" xlink:title="Types that provide flags interface to enums.">
<polygon fill="white" stroke="#666666" points="172.5,-74 47.5,-74 47.5,-55 172.5,-55 172.5,-74"/>
<text text-anchor="middle" x="110" y="-62" font-family="Helvetica,sans-Serif" font-size="10.00">userver/utils/flags.hpp</text>
</a>
</g>
</g>
<!-- Node1&#45;&gt;Node2 -->
<g id="edge1_Node000001_Node000002" class="edge">
<title>Node1&#45;&gt;Node2</title>
<g id="a_edge1_Node000001_Node000002"><a xlink:title=" ">
<path fill="none" stroke="#63b8ff" d="M110,-109.84C110,-102.21 110,-92.7 110,-84.45"/>
<polygon fill="#63b8ff" stroke="#63b8ff" points="113.5,-84.27 110,-74.27 106.5,-84.27 113.5,-84.27"/>
</a>
</g>
</g>
<!-- Node3 -->
<g id="Node000003" class="node">
<title>Node3</title>
<g id="a_Node000003"><a xlink:title=" ">
<polygon fill="#e0e0e0" stroke="#999999" points="50,-19 0,-19 0,0 50,0 50,-19"/>
<text text-anchor="middle" x="25" y="-7" font-family="Helvetica,sans-Serif" font-size="10.00">atomic</text>
</a>
</g>
</g>
<!-- Node2&#45;&gt;Node3 -->
<g id="edge2_Node000002_Node000003" class="edge">
<title>Node2&#45;&gt;Node3</title>
<g id="a_edge2_Node000002_Node000003"><a xlink:title=" ">
<path fill="none" stroke="#63b8ff" d="M96.34,-54.98C83.16,-46.77 62.97,-34.18 47.43,-24.49"/>
<polygon fill="#63b8ff" stroke="#63b8ff" points="49.24,-21.49 38.91,-19.17 45.54,-27.43 49.24,-21.49"/>
</a>
</g>
</g>
<!-- Node4 -->
<g id="Node000004" class="node">
<title>Node4</title>
<g id="a_Node000004"><a xlink:title=" ">
<polygon fill="#e0e0e0" stroke="#999999" points="151.5,-19 68.5,-19 68.5,0 151.5,0 151.5,-19"/>
<text text-anchor="middle" x="110" y="-7" font-family="Helvetica,sans-Serif" font-size="10.00">initializer_list</text>
</a>
</g>
</g>
<!-- Node2&#45;&gt;Node4 -->
<g id="edge3_Node000002_Node000004" class="edge">
<title>Node2&#45;&gt;Node4</title>
<g id="a_edge3_Node000002_Node000004"><a xlink:title=" ">
<path fill="none" stroke="#63b8ff" d="M110,-54.75C110,-47.8 110,-37.85 110,-29.13"/>
<polygon fill="#63b8ff" stroke="#63b8ff" points="113.5,-29.09 110,-19.09 106.5,-29.09 113.5,-29.09"/>
</a>
</g>
</g>
<!-- Node5 -->
<g id="Node000005" class="node">
<title>Node5</title>
<g id="a_Node000005"><a xlink:title=" ">
<polygon fill="#e0e0e0" stroke="#999999" points="238.5,-19 169.5,-19 169.5,0 238.5,0 238.5,-19"/>
<text text-anchor="middle" x="204" y="-7" font-family="Helvetica,sans-Serif" font-size="10.00">type_traits</text>
</a>
</g>
</g>
<!-- Node2&#45;&gt;Node5 -->
<g id="edge4_Node000002_Node000005" class="edge">
<title>Node2&#45;&gt;Node5</title>
<g id="a_edge4_Node000002_Node000005"><a xlink:title=" ">
<path fill="none" stroke="#63b8ff" d="M125.1,-54.98C139.82,-46.69 162.42,-33.94 179.67,-24.22"/>
<polygon fill="#63b8ff" stroke="#63b8ff" points="181.63,-27.13 188.62,-19.17 178.19,-21.03 181.63,-27.13"/>
</a>
</g>
</g>
</g>
</svg>
