<?xml version="1.0" encoding="UTF-8" standalone="no"?>
<!DOCTYPE svg PUBLIC "-//W3C//DTD SVG 1.1//EN"
 "http://www.w3.org/Graphics/SVG/1.1/DTD/svg11.dtd">
<!-- Generated by graphviz version 2.43.0 (0)
 -->
<!-- Title: userver/storages/redis/exception.hpp Pages: 1 -->
<svg width="489pt" height="368pt"
 viewBox="0.00 0.00 489.00 368.00" xmlns="http://www.w3.org/2000/svg" xmlns:xlink="http://www.w3.org/1999/xlink">
<g id="graph0" class="graph" transform="scale(1 1) rotate(0) translate(4 364)">
<title>userver/storages/redis/exception.hpp</title>
<!-- Node1 -->
<g id="Node000001" class="node">
<title>Node1</title>
<g id="a_Node000001"><a xlink:title="redis&#45;specific exceptions">
<polygon fill="#999999" stroke="#666666" points="201,-360 76,-360 76,-330 201,-330 201,-360"/>
<text text-anchor="start" x="84" y="-348" font-family="Helvetica,sans-Serif" font-size="10.00">userver/storages/redis</text>
<text text-anchor="middle" x="138.5" y="-337" font-family="Helvetica,sans-Serif" font-size="10.00">/exception.hpp</text>
</a>
</g>
</g>
<!-- Node2 -->
<g id="Node000002" class="node">
<title>Node2</title>
<g id="a_Node000002"><a xlink:href="../../d6/ddc/command__options_8hpp_source.html" target="_top" xlink:title=" ">
<polygon fill="white" stroke="#666666" points="131,-294 0,-294 0,-264 131,-264 131,-294"/>
<text text-anchor="start" x="8" y="-282" font-family="Helvetica,sans-Serif" font-size="10.00">userver/storages/redis</text>
<text text-anchor="middle" x="65.5" y="-271" font-family="Helvetica,sans-Serif" font-size="10.00">/command_options.hpp</text>
</a>
</g>
</g>
<!-- Node1&#45;&gt;Node2 -->
<g id="edge1_Node000001_Node000002" class="edge">
<title>Node1&#45;&gt;Node2</title>
<g id="a_edge1_Node000001_Node000002"><a xlink:title=" ">
<path fill="none" stroke="#63b8ff" d="M114.78,-323.2C103.94,-313.7 91.38,-302.69 81.66,-294.16"/>
<polygon fill="#63b8ff" stroke="#63b8ff" points="112.47,-325.84 122.3,-329.8 117.09,-320.57 112.47,-325.84"/>
</a>
</g>
</g>
<!-- Node8 -->
<g id="Node000008" class="node">
<title>Node8</title>
<g id="a_Node000008"><a xlink:href="../../d7/d98/redis_2include_2userver_2storages_2redis_2request_8hpp_source.html" target="_top" xlink:title=" ">
<polygon fill="white" stroke="#666666" points="274,-294 149,-294 149,-264 274,-264 274,-294"/>
<text text-anchor="start" x="157" y="-282" font-family="Helvetica,sans-Serif" font-size="10.00">userver/storages/redis</text>
<text text-anchor="middle" x="211.5" y="-271" font-family="Helvetica,sans-Serif" font-size="10.00">/request.hpp</text>
</a>
</g>
</g>
<!-- Node1&#45;&gt;Node8 -->
<g id="edge8_Node000001_Node000008" class="edge">
<title>Node1&#45;&gt;Node8</title>
<g id="a_edge8_Node000001_Node000008"><a xlink:title=" ">
<path fill="none" stroke="#63b8ff" d="M162.22,-323.2C173.06,-313.7 185.62,-302.69 195.34,-294.16"/>
<polygon fill="#63b8ff" stroke="#63b8ff" points="159.91,-320.57 154.7,-329.8 164.53,-325.84 159.91,-320.57"/>
</a>
</g>
</g>
<!-- Node3 -->
<g id="Node000003" class="node">
<title>Node3</title>
<g id="a_Node000003"><a xlink:href="../../dd/dc2/redis_2include_2userver_2storages_2redis_2client_8hpp.html" target="_top" xlink:title="Redis client.">
<polygon fill="white" stroke="#666666" points="247,-162 122,-162 122,-132 247,-132 247,-162"/>
<text text-anchor="start" x="130" y="-150" font-family="Helvetica,sans-Serif" font-size="10.00">userver/storages/redis</text>
<text text-anchor="middle" x="184.5" y="-139" font-family="Helvetica,sans-Serif" font-size="10.00">/client.hpp</text>
</a>
</g>
</g>
<!-- Node2&#45;&gt;Node3 -->
<g id="edge2_Node000002_Node000003" class="edge">
<title>Node2&#45;&gt;Node3</title>
<g id="a_edge2_Node000002_Node000003"><a xlink:title=" ">
<path fill="none" stroke="#63b8ff" d="M40.38,-256.58C23.92,-239.91 7.77,-216.57 21.5,-198 44.46,-166.94 86.37,-154.55 121.94,-149.87"/>
<polygon fill="#63b8ff" stroke="#63b8ff" points="38.22,-259.35 47.87,-263.73 43.05,-254.29 38.22,-259.35"/>
</a>
</g>
</g>
<!-- Node7 -->
<g id="Node000007" class="node">
<title>Node7</title>
<g id="a_Node000007"><a xlink:href="../../db/d36/redis_2include_2userver_2storages_2redis_2transaction_8hpp.html" target="_top" xlink:title=" ">
<polygon fill="white" stroke="#666666" points="156,-228 31,-228 31,-198 156,-198 156,-228"/>
<text text-anchor="start" x="39" y="-216" font-family="Helvetica,sans-Serif" font-size="10.00">userver/storages/redis</text>
<text text-anchor="middle" x="93.5" y="-205" font-family="Helvetica,sans-Serif" font-size="10.00">/transaction.hpp</text>
</a>
</g>
</g>
<!-- Node2&#45;&gt;Node7 -->
<g id="edge6_Node000002_Node000007" class="edge">
<title>Node2&#45;&gt;Node7</title>
<g id="a_edge6_Node000002_Node000007"><a xlink:title=" ">
<path fill="none" stroke="#63b8ff" d="M75.83,-254.39C79.68,-245.59 83.93,-235.86 87.3,-228.16"/>
<polygon fill="#63b8ff" stroke="#63b8ff" points="72.52,-253.23 71.71,-263.8 78.93,-256.04 72.52,-253.23"/>
</a>
</g>
</g>
<!-- Node4 -->
<g id="Node000004" class="node">
<title>Node4</title>
<g id="a_Node000004"><a xlink:href="../../df/d70/redis_2include_2userver_2storages_2redis_2hedged__request_8hpp.html" target="_top" xlink:title="Classes and functions for performing hedged requests.">
<polygon fill="white" stroke="#666666" points="176,-96 51,-96 51,-66 176,-66 176,-96"/>
<text text-anchor="start" x="59" y="-84" font-family="Helvetica,sans-Serif" font-size="10.00">userver/storages/redis</text>
<text text-anchor="middle" x="113.5" y="-73" font-family="Helvetica,sans-Serif" font-size="10.00">/hedged_request.hpp</text>
</a>
</g>
</g>
<!-- Node3&#45;&gt;Node4 -->
<g id="edge3_Node000003_Node000004" class="edge">
<title>Node3&#45;&gt;Node4</title>
<g id="a_edge3_Node000003_Node000004"><a xlink:title=" ">
<path fill="none" stroke="#63b8ff" d="M161.12,-124.92C150.65,-115.49 138.58,-104.61 129.21,-96.16"/>
<polygon fill="#63b8ff" stroke="#63b8ff" points="158.97,-127.7 168.74,-131.8 163.66,-122.5 158.97,-127.7"/>
</a>
</g>
</g>
<!-- Node5 -->
<g id="Node000005" class="node">
<title>Node5</title>
<g id="a_Node000005"><a xlink:href="../../da/dbe/redis__local_8hpp.html" target="_top" xlink:title=" ">
<polygon fill="white" stroke="#666666" points="319,-96 194,-96 194,-66 319,-66 319,-96"/>
<text text-anchor="start" x="202" y="-84" font-family="Helvetica,sans-Serif" font-size="10.00">userver/storages/redis</text>
<text text-anchor="middle" x="256.5" y="-73" font-family="Helvetica,sans-Serif" font-size="10.00">/utest/redis_local.hpp</text>
</a>
</g>
</g>
<!-- Node3&#45;&gt;Node5 -->
<g id="edge4_Node000003_Node000005" class="edge">
<title>Node3&#45;&gt;Node5</title>
<g id="a_edge4_Node000003_Node000005"><a xlink:title=" ">
<path fill="none" stroke="#63b8ff" d="M208.21,-124.92C218.83,-115.49 231.07,-104.61 240.57,-96.16"/>
<polygon fill="#63b8ff" stroke="#63b8ff" points="205.63,-122.54 200.48,-131.8 210.28,-127.77 205.63,-122.54"/>
</a>
</g>
</g>
<!-- Node6 -->
<g id="Node000006" class="node">
<title>Node6</title>
<g id="a_Node000006"><a xlink:href="../../d0/dd7/redis__fixture_8hpp.html" target="_top" xlink:title=" ">
<polygon fill="white" stroke="#666666" points="321,-30 192,-30 192,0 321,0 321,-30"/>
<text text-anchor="start" x="200" y="-18" font-family="Helvetica,sans-Serif" font-size="10.00">userver/storages/redis</text>
<text text-anchor="middle" x="256.5" y="-7" font-family="Helvetica,sans-Serif" font-size="10.00">/utest/redis_fixture.hpp</text>
</a>
</g>
</g>
<!-- Node5&#45;&gt;Node6 -->
<g id="edge5_Node000005_Node000006" class="edge">
<title>Node5&#45;&gt;Node6</title>
<g id="a_edge5_Node000005_Node000006"><a xlink:title=" ">
<path fill="none" stroke="#63b8ff" d="M256.5,-55.54C256.5,-46.96 256.5,-37.61 256.5,-30.16"/>
<polygon fill="#63b8ff" stroke="#63b8ff" points="253,-55.8 256.5,-65.8 260,-55.8 253,-55.8"/>
</a>
</g>
</g>
<!-- Node7&#45;&gt;Node3 -->
<g id="edge7_Node000007_Node000003" class="edge">
<title>Node7&#45;&gt;Node3</title>
<g id="a_edge7_Node000007_Node000003"><a xlink:title=" ">
<path fill="none" stroke="#63b8ff" d="M121.9,-192.03C135.67,-182.34 151.88,-170.94 164.36,-162.16"/>
<polygon fill="#63b8ff" stroke="#63b8ff" points="119.86,-189.18 113.7,-197.8 123.89,-194.91 119.86,-189.18"/>
</a>
</g>
</g>
<!-- Node8&#45;&gt;Node3 -->
<g id="edge9_Node000008_Node000003" class="edge">
<title>Node8&#45;&gt;Node3</title>
<g id="a_edge9_Node000008_Node000003"><a xlink:title=" ">
<path fill="none" stroke="#63b8ff" d="M206.52,-254.04C200.93,-227.08 192.02,-184.21 187.44,-162.14"/>
<polygon fill="#63b8ff" stroke="#63b8ff" points="203.1,-254.76 208.56,-263.84 209.95,-253.34 203.1,-254.76"/>
</a>
</g>
</g>
<!-- Node8&#45;&gt;Node7 -->
<g id="edge14_Node000008_Node000007" class="edge">
<title>Node8&#45;&gt;Node7</title>
<g id="a_edge14_Node000008_Node000007"><a xlink:title=" ">
<path fill="none" stroke="#63b8ff" d="M176.66,-259.11C158.3,-249.14 136.15,-237.13 119.34,-228.01"/>
<polygon fill="#63b8ff" stroke="#63b8ff" points="175.15,-262.26 185.6,-263.95 178.48,-256.11 175.15,-262.26"/>
</a>
</g>
</g>
<!-- Node9 -->
<g id="Node000009" class="node">
<title>Node9</title>
<g id="a_Node000009"><a xlink:href="../../da/df5/request__eval_8hpp_source.html" target="_top" xlink:title=" ">
<polygon fill="white" stroke="#666666" points="338,-228 213,-228 213,-198 338,-198 338,-228"/>
<text text-anchor="start" x="221" y="-216" font-family="Helvetica,sans-Serif" font-size="10.00">userver/storages/redis</text>
<text text-anchor="middle" x="275.5" y="-205" font-family="Helvetica,sans-Serif" font-size="10.00">/request_eval.hpp</text>
</a>
</g>
</g>
<!-- Node8&#45;&gt;Node9 -->
<g id="edge10_Node000008_Node000009" class="edge">
<title>Node8&#45;&gt;Node9</title>
<g id="a_edge10_Node000008_Node000009"><a xlink:title=" ">
<path fill="none" stroke="#63b8ff" d="M232.85,-256.65C242.23,-247.27 252.97,-236.53 261.34,-228.16"/>
<polygon fill="#63b8ff" stroke="#63b8ff" points="230.3,-254.25 225.7,-263.8 235.25,-259.2 230.3,-254.25"/>
</a>
</g>
</g>
<!-- Node10 -->
<g id="Node000010" class="node">
<title>Node10</title>
<g id="a_Node000010"><a xlink:href="../../de/d60/request__evalsha_8hpp_source.html" target="_top" xlink:title=" ">
<polygon fill="white" stroke="#666666" points="481,-228 356,-228 356,-198 481,-198 481,-228"/>
<text text-anchor="start" x="364" y="-216" font-family="Helvetica,sans-Serif" font-size="10.00">userver/storages/redis</text>
<text text-anchor="middle" x="418.5" y="-205" font-family="Helvetica,sans-Serif" font-size="10.00">/request_evalsha.hpp</text>
</a>
</g>
</g>
<!-- Node8&#45;&gt;Node10 -->
<g id="edge12_Node000008_Node000010" class="edge">
<title>Node8&#45;&gt;Node10</title>
<g id="a_edge12_Node000008_Node000010"><a xlink:title=" ">
<path fill="none" stroke="#63b8ff" d="M266.52,-260.99C299.83,-250.69 341.79,-237.72 373.18,-228.01"/>
<polygon fill="#63b8ff" stroke="#63b8ff" points="265.45,-257.66 256.93,-263.95 267.51,-264.34 265.45,-257.66"/>
</a>
</g>
</g>
<!-- Node9&#45;&gt;Node3 -->
<g id="edge11_Node000009_Node000003" class="edge">
<title>Node9&#45;&gt;Node3</title>
<g id="a_edge11_Node000009_Node000003"><a xlink:title=" ">
<path fill="none" stroke="#63b8ff" d="M247.1,-192.03C233.33,-182.34 217.12,-170.94 204.64,-162.16"/>
<polygon fill="#63b8ff" stroke="#63b8ff" points="245.11,-194.91 255.3,-197.8 249.14,-189.18 245.11,-194.91"/>
</a>
</g>
</g>
<!-- Node10&#45;&gt;Node3 -->
<g id="edge13_Node000010_Node000003" class="edge">
<title>Node10&#45;&gt;Node3</title>
<g id="a_edge13_Node000010_Node000003"><a xlink:title=" ">
<path fill="none" stroke="#63b8ff" d="M357.27,-195.25C319.47,-184.91 271.52,-171.8 235.73,-162.01"/>
<polygon fill="#63b8ff" stroke="#63b8ff" points="356.58,-198.69 367.15,-197.95 358.43,-191.94 356.58,-198.69"/>
</a>
</g>
</g>
</g>
</svg>
