<?xml version="1.0" encoding="UTF-8" standalone="no"?>
<!DOCTYPE svg PUBLIC "-//W3C//DTD SVG 1.1//EN"
 "http://www.w3.org/Graphics/SVG/1.1/DTD/svg11.dtd">
<!-- Generated by graphviz version 2.43.0 (0)
 -->
<!-- Title: userver/ugrpc/server/middlewares/fwd.hpp Pages: 1 -->
<svg width="1283pt" height="313pt"
 viewBox="0.00 0.00 1282.50 313.00" xmlns="http://www.w3.org/2000/svg" xmlns:xlink="http://www.w3.org/1999/xlink">
<g id="graph0" class="graph" transform="scale(1 1) rotate(0) translate(4 309)">
<title>userver/ugrpc/server/middlewares/fwd.hpp</title>
<!-- Node1 -->
<g id="Node000001" class="node">
<title>Node1</title>
<g id="a_Node000001"><a xlink:title="Forward declarations for grpc server middlewares.">
<polygon fill="#999999" stroke="#666666" points="986,-305 862,-305 862,-275 986,-275 986,-305"/>
<text text-anchor="start" x="870" y="-293" font-family="Helvetica,sans-Serif" font-size="10.00">userver/ugrpc/server</text>
<text text-anchor="middle" x="924" y="-282" font-family="Helvetica,sans-Serif" font-size="10.00">/middlewares/fwd.hpp</text>
</a>
</g>
</g>
<!-- Node2 -->
<g id="Node000002" class="node">
<title>Node2</title>
<g id="a_Node000002"><a xlink:href="../../d9/def/call_8hpp.html" target="_top" xlink:title="A non&#45;typed base class for any gRPC call.">
<polygon fill="white" stroke="#666666" points="823.5,-239 706.5,-239 706.5,-209 823.5,-209 823.5,-239"/>
<text text-anchor="start" x="714.5" y="-227" font-family="Helvetica,sans-Serif" font-size="10.00">userver/ugrpc/server</text>
<text text-anchor="middle" x="765" y="-216" font-family="Helvetica,sans-Serif" font-size="10.00">/call.hpp</text>
</a>
</g>
</g>
<!-- Node1&#45;&gt;Node2 -->
<g id="edge1_Node000001_Node000002" class="edge">
<title>Node1&#45;&gt;Node2</title>
<g id="a_edge1_Node000001_Node000002"><a xlink:title=" ">
<path fill="none" stroke="#63b8ff" d="M879.75,-271.19C854.5,-261.02 823.3,-248.47 799.81,-239.01"/>
<polygon fill="#63b8ff" stroke="#63b8ff" points="878.52,-274.47 889.11,-274.95 881.14,-267.97 878.52,-274.47"/>
</a>
</g>
</g>
<!-- Node3 -->
<g id="Node000003" class="node">
<title>Node3</title>
<g id="a_Node000003"><a xlink:href="../../d8/de5/server_2middlewares_2base_8hpp.html" target="_top" xlink:title="Base class for server gRPC middleware.">
<polygon fill="white" stroke="#666666" points="651,-173 521,-173 521,-143 651,-143 651,-173"/>
<text text-anchor="start" x="529" y="-161" font-family="Helvetica,sans-Serif" font-size="10.00">userver/ugrpc/server</text>
<text text-anchor="middle" x="586" y="-150" font-family="Helvetica,sans-Serif" font-size="10.00">/middlewares/base.hpp</text>
</a>
</g>
</g>
<!-- Node1&#45;&gt;Node3 -->
<g id="edge10_Node000001_Node000003" class="edge">
<title>Node1&#45;&gt;Node3</title>
<g id="a_edge10_Node000001_Node000003"><a xlink:title=" ">
<path fill="none" stroke="#63b8ff" d="M851.5,-280.71C805.72,-273.63 746.14,-260.98 697,-239 659.27,-222.12 621.55,-191.23 601.26,-173.17"/>
<polygon fill="#63b8ff" stroke="#63b8ff" points="851.23,-284.21 861.64,-282.22 852.27,-277.28 851.23,-284.21"/>
</a>
</g>
</g>
<!-- Node11 -->
<g id="Node000011" class="node">
<title>Node11</title>
<g id="a_Node000011"><a xlink:href="../../d4/d79/grpc_2include_2userver_2ugrpc_2server_2server_8hpp.html" target="_top" xlink:title="Manages the gRPC server.">
<polygon fill="white" stroke="#666666" points="1179.5,-173 1062.5,-173 1062.5,-143 1179.5,-143 1179.5,-173"/>
<text text-anchor="start" x="1070.5" y="-161" font-family="Helvetica,sans-Serif" font-size="10.00">userver/ugrpc/server</text>
<text text-anchor="middle" x="1121" y="-150" font-family="Helvetica,sans-Serif" font-size="10.00">/server.hpp</text>
</a>
</g>
</g>
<!-- Node1&#45;&gt;Node11 -->
<g id="edge11_Node000001_Node000011" class="edge">
<title>Node1&#45;&gt;Node11</title>
<g id="a_edge11_Node000001_Node000011"><a xlink:title=" ">
<path fill="none" stroke="#63b8ff" d="M996.27,-281.31C1028.01,-274.63 1063.72,-262.19 1089,-239 1108.07,-221.51 1115.98,-191.12 1119.1,-173.26"/>
<polygon fill="#63b8ff" stroke="#63b8ff" points="995.28,-277.94 986.13,-283.28 996.61,-284.81 995.28,-277.94"/>
</a>
</g>
</g>
<!-- Node15 -->
<g id="Node000015" class="node">
<title>Node15</title>
<g id="a_Node000015"><a xlink:href="../../df/da9/service__base_8hpp.html" target="_top" xlink:title="The type&#45;erased base class for all gRPC service implementations.">
<polygon fill="white" stroke="#666666" points="1080.5,-239 963.5,-239 963.5,-209 1080.5,-209 1080.5,-239"/>
<text text-anchor="start" x="971.5" y="-227" font-family="Helvetica,sans-Serif" font-size="10.00">userver/ugrpc/server</text>
<text text-anchor="middle" x="1022" y="-216" font-family="Helvetica,sans-Serif" font-size="10.00">/service_base.hpp</text>
</a>
</g>
</g>
<!-- Node1&#45;&gt;Node15 -->
<g id="edge15_Node000001_Node000015" class="edge">
<title>Node1&#45;&gt;Node15</title>
<g id="a_edge15_Node000001_Node000015"><a xlink:title=" ">
<path fill="none" stroke="#63b8ff" d="M954.16,-269.3C969.08,-259.56 986.75,-248.02 1000.31,-239.16"/>
<polygon fill="#63b8ff" stroke="#63b8ff" points="952.21,-266.4 945.75,-274.8 956.04,-272.26 952.21,-266.4"/>
</a>
</g>
</g>
<!-- Node16 -->
<g id="Node000016" class="node">
<title>Node16</title>
<g id="a_Node000016"><a xlink:href="../../d1/d68/service__component__base_8hpp.html" target="_top" xlink:title="Base class for all the gRPC service components.">
<polygon fill="white" stroke="#666666" points="1006,-173 842,-173 842,-143 1006,-143 1006,-173"/>
<text text-anchor="start" x="850" y="-161" font-family="Helvetica,sans-Serif" font-size="10.00">userver/ugrpc/server</text>
<text text-anchor="middle" x="924" y="-150" font-family="Helvetica,sans-Serif" font-size="10.00">/service_component_base.hpp</text>
</a>
</g>
</g>
<!-- Node1&#45;&gt;Node16 -->
<g id="edge20_Node000001_Node000016" class="edge">
<title>Node1&#45;&gt;Node16</title>
<g id="a_edge20_Node000001_Node000016"><a xlink:title=" ">
<path fill="none" stroke="#63b8ff" d="M924,-264.68C924,-237.7 924,-195.11 924,-173.14"/>
<polygon fill="#63b8ff" stroke="#63b8ff" points="920.5,-264.84 924,-274.84 927.5,-264.84 920.5,-264.84"/>
</a>
</g>
</g>
<!-- Node2&#45;&gt;Node3 -->
<g id="edge2_Node000002_Node000003" class="edge">
<title>Node2&#45;&gt;Node3</title>
<g id="a_edge2_Node000002_Node000003"><a xlink:title=" ">
<path fill="none" stroke="#63b8ff" d="M715.93,-205.46C687.38,-195.25 651.87,-182.55 625.19,-173.01"/>
<polygon fill="#63b8ff" stroke="#63b8ff" points="715.12,-208.88 725.72,-208.95 717.48,-202.29 715.12,-208.88"/>
</a>
</g>
</g>
<!-- Node9 -->
<g id="Node000009" class="node">
<title>Node9</title>
<g id="a_Node000009"><a xlink:href="../../dd/de8/server_2rpc_8hpp.html" target="_top" xlink:title="Classes representing an incoming RPC.">
<polygon fill="white" stroke="#666666" points="823.5,-173 706.5,-173 706.5,-143 823.5,-143 823.5,-173"/>
<text text-anchor="start" x="714.5" y="-161" font-family="Helvetica,sans-Serif" font-size="10.00">userver/ugrpc/server</text>
<text text-anchor="middle" x="765" y="-150" font-family="Helvetica,sans-Serif" font-size="10.00">/rpc.hpp</text>
</a>
</g>
</g>
<!-- Node2&#45;&gt;Node9 -->
<g id="edge8_Node000002_Node000009" class="edge">
<title>Node2&#45;&gt;Node9</title>
<g id="a_edge8_Node000002_Node000009"><a xlink:title=" ">
<path fill="none" stroke="#63b8ff" d="M765,-198.54C765,-189.96 765,-180.61 765,-173.16"/>
<polygon fill="#63b8ff" stroke="#63b8ff" points="761.5,-198.8 765,-208.8 768.5,-198.8 761.5,-198.8"/>
</a>
</g>
</g>
<!-- Node4 -->
<g id="Node000004" class="node">
<title>Node4</title>
<g id="a_Node000004"><a xlink:href="../../d0/d46/grpc_2include_2userver_2ugrpc_2server_2middlewares_2baggage_2component_8hpp.html" target="_top" xlink:title="ugrpc::server::middlewares::baggage::Component">
<polygon fill="white" stroke="#666666" points="498,-107 370,-107 370,-66 498,-66 498,-107"/>
<text text-anchor="start" x="378" y="-95" font-family="Helvetica,sans-Serif" font-size="10.00">userver/ugrpc/server</text>
<text text-anchor="start" x="378" y="-84" font-family="Helvetica,sans-Serif" font-size="10.00">/middlewares/baggage</text>
<text text-anchor="middle" x="434" y="-73" font-family="Helvetica,sans-Serif" font-size="10.00">/component.hpp</text>
</a>
</g>
</g>
<!-- Node3&#45;&gt;Node4 -->
<g id="edge3_Node000003_Node000004" class="edge">
<title>Node3&#45;&gt;Node4</title>
<g id="a_edge3_Node000003_Node000004"><a xlink:title=" ">
<path fill="none" stroke="#63b8ff" d="M546.13,-138.77C524.82,-129.02 498.56,-117.02 476.81,-107.07"/>
<polygon fill="#63b8ff" stroke="#63b8ff" points="544.69,-141.96 555.24,-142.94 547.6,-135.59 544.69,-141.96"/>
</a>
</g>
</g>
<!-- Node5 -->
<g id="Node000005" class="node">
<title>Node5</title>
<g id="a_Node000005"><a xlink:href="../../d7/d59/grpc_2include_2userver_2ugrpc_2server_2middlewares_2congestion__control_2component_8hpp.html" target="_top" xlink:title="ugrpc::server::middlewares::congestion_control::Component">
<polygon fill="white" stroke="#666666" points="655.5,-107 516.5,-107 516.5,-66 655.5,-66 655.5,-107"/>
<text text-anchor="start" x="524.5" y="-95" font-family="Helvetica,sans-Serif" font-size="10.00">userver/ugrpc/server</text>
<text text-anchor="start" x="524.5" y="-84" font-family="Helvetica,sans-Serif" font-size="10.00">/middlewares/congestion</text>
<text text-anchor="middle" x="586" y="-73" font-family="Helvetica,sans-Serif" font-size="10.00">_control/component.hpp</text>
</a>
</g>
</g>
<!-- Node3&#45;&gt;Node5 -->
<g id="edge4_Node000003_Node000005" class="edge">
<title>Node3&#45;&gt;Node5</title>
<g id="a_edge4_Node000003_Node000005"><a xlink:title=" ">
<path fill="none" stroke="#63b8ff" d="M586,-132.91C586,-124.47 586,-115.1 586,-107.07"/>
<polygon fill="#63b8ff" stroke="#63b8ff" points="582.5,-132.94 586,-142.94 589.5,-132.94 582.5,-132.94"/>
</a>
</g>
</g>
<!-- Node6 -->
<g id="Node000006" class="node">
<title>Node6</title>
<g id="a_Node000006"><a xlink:href="../../dc/dbf/grpc_2include_2userver_2ugrpc_2server_2middlewares_2deadline__propagation_2component_8hpp.html" target="_top" xlink:title="ugrpc::server::middlewares::deadline_propagation::Component">
<polygon fill="white" stroke="#666666" points="832.5,-107 673.5,-107 673.5,-66 832.5,-66 832.5,-107"/>
<text text-anchor="start" x="681.5" y="-95" font-family="Helvetica,sans-Serif" font-size="10.00">userver/ugrpc/server</text>
<text text-anchor="start" x="681.5" y="-84" font-family="Helvetica,sans-Serif" font-size="10.00">/middlewares/deadline</text>
<text text-anchor="middle" x="753" y="-73" font-family="Helvetica,sans-Serif" font-size="10.00">_propagation/component.hpp</text>
</a>
</g>
</g>
<!-- Node3&#45;&gt;Node6 -->
<g id="edge5_Node000003_Node000006" class="edge">
<title>Node3&#45;&gt;Node6</title>
<g id="a_edge5_Node000003_Node000006"><a xlink:title=" ">
<path fill="none" stroke="#63b8ff" d="M629.17,-139.03C652.7,-129.24 681.86,-117.11 705.97,-107.07"/>
<polygon fill="#63b8ff" stroke="#63b8ff" points="627.68,-135.86 619.79,-142.94 630.37,-142.32 627.68,-135.86"/>
</a>
</g>
</g>
<!-- Node7 -->
<g id="Node000007" class="node">
<title>Node7</title>
<g id="a_Node000007"><a xlink:href="../../d2/dc5/grpc_2include_2userver_2ugrpc_2server_2middlewares_2headers__propagator_2component_8hpp.html" target="_top" xlink:title="ugrpc::server::middlewares::headers_propagator::Component">
<polygon fill="white" stroke="#666666" points="154,-107 0,-107 0,-66 154,-66 154,-107"/>
<text text-anchor="start" x="8" y="-95" font-family="Helvetica,sans-Serif" font-size="10.00">userver/ugrpc/server</text>
<text text-anchor="start" x="8" y="-84" font-family="Helvetica,sans-Serif" font-size="10.00">/middlewares/headers</text>
<text text-anchor="middle" x="77" y="-73" font-family="Helvetica,sans-Serif" font-size="10.00">_propagator/component.hpp</text>
</a>
</g>
</g>
<!-- Node3&#45;&gt;Node7 -->
<g id="edge6_Node000003_Node000007" class="edge">
<title>Node3&#45;&gt;Node7</title>
<g id="a_edge6_Node000003_Node000007"><a xlink:title=" ">
<path fill="none" stroke="#63b8ff" d="M510.78,-150.52C425.93,-142.65 283.98,-127.81 163,-107 160.13,-106.51 157.22,-105.98 154.28,-105.43"/>
<polygon fill="#63b8ff" stroke="#63b8ff" points="510.56,-154.02 520.84,-151.45 511.2,-147.04 510.56,-154.02"/>
</a>
</g>
</g>
<!-- Node8 -->
<g id="Node000008" class="node">
<title>Node8</title>
<g id="a_Node000008"><a xlink:href="../../dd/d14/grpc_2include_2userver_2ugrpc_2server_2middlewares_2log_2component_8hpp.html" target="_top" xlink:title="Component for gRPC server logging.">
<polygon fill="white" stroke="#666666" points="351.5,-101.5 172.5,-101.5 172.5,-71.5 351.5,-71.5 351.5,-101.5"/>
<text text-anchor="start" x="180.5" y="-89.5" font-family="Helvetica,sans-Serif" font-size="10.00">userver/ugrpc/server</text>
<text text-anchor="middle" x="262" y="-78.5" font-family="Helvetica,sans-Serif" font-size="10.00">/middlewares/log/component.hpp</text>
</a>
</g>
</g>
<!-- Node3&#45;&gt;Node8 -->
<g id="edge7_Node000003_Node000008" class="edge">
<title>Node3&#45;&gt;Node8</title>
<g id="a_edge7_Node000003_Node000008"><a xlink:title=" ">
<path fill="none" stroke="#63b8ff" d="M511.03,-140.92C455.47,-129 380.48,-112.91 327.35,-101.52"/>
<polygon fill="#63b8ff" stroke="#63b8ff" points="510.31,-144.34 520.82,-143.02 511.78,-137.5 510.31,-144.34"/>
</a>
</g>
</g>
<!-- Node10 -->
<g id="Node000010" class="node">
<title>Node10</title>
<g id="a_Node000010"><a xlink:href="../../d7/d19/generic__service__base_8hpp.html" target="_top" xlink:title="Allows to handle RPCs with dynamic method names.">
<polygon fill="white" stroke="#666666" points="997,-101.5 851,-101.5 851,-71.5 997,-71.5 997,-101.5"/>
<text text-anchor="start" x="859" y="-89.5" font-family="Helvetica,sans-Serif" font-size="10.00">userver/ugrpc/server</text>
<text text-anchor="middle" x="924" y="-78.5" font-family="Helvetica,sans-Serif" font-size="10.00">/generic_service_base.hpp</text>
</a>
</g>
</g>
<!-- Node9&#45;&gt;Node10 -->
<g id="edge9_Node000009_Node000010" class="edge">
<title>Node9&#45;&gt;Node10</title>
<g id="a_edge9_Node000009_Node000010"><a xlink:title=" ">
<path fill="none" stroke="#63b8ff" d="M806.63,-138.81C833.27,-127.16 867.32,-112.28 891.87,-101.54"/>
<polygon fill="#63b8ff" stroke="#63b8ff" points="804.94,-135.72 797.18,-142.94 807.74,-142.14 804.94,-135.72"/>
</a>
</g>
</g>
<!-- Node12 -->
<g id="Node000012" class="node">
<title>Node12</title>
<g id="a_Node000012"><a xlink:href="../../db/d7e/server__component_8hpp.html" target="_top" xlink:title="Component that configures and manages the gRPC server.">
<polygon fill="white" stroke="#666666" points="1274.5,-101.5 1143.5,-101.5 1143.5,-71.5 1274.5,-71.5 1274.5,-101.5"/>
<text text-anchor="start" x="1151.5" y="-89.5" font-family="Helvetica,sans-Serif" font-size="10.00">userver/ugrpc/server</text>
<text text-anchor="middle" x="1209" y="-78.5" font-family="Helvetica,sans-Serif" font-size="10.00">/server_component.hpp</text>
</a>
</g>
</g>
<!-- Node11&#45;&gt;Node12 -->
<g id="edge12_Node000011_Node000012" class="edge">
<title>Node11&#45;&gt;Node12</title>
<g id="a_edge12_Node000011_Node000012"><a xlink:title=" ">
<path fill="none" stroke="#63b8ff" d="M1146.8,-136.63C1161.08,-125.35 1178.46,-111.62 1191.22,-101.54"/>
<polygon fill="#63b8ff" stroke="#63b8ff" points="1144.49,-133.99 1138.81,-142.94 1148.83,-139.48 1144.49,-133.99"/>
</a>
</g>
</g>
<!-- Node13 -->
<g id="Node000013" class="node">
<title>Node13</title>
<g id="a_Node000013"><a xlink:href="../../d3/d31/service_8hpp.html" target="_top" xlink:title="Base classes for testing and benchmarking ugrpc service implementations in a simplified gRPC environm...">
<polygon fill="white" stroke="#666666" points="1125,-101.5 1015,-101.5 1015,-71.5 1125,-71.5 1125,-101.5"/>
<text text-anchor="start" x="1023" y="-89.5" font-family="Helvetica,sans-Serif" font-size="10.00">userver/ugrpc/tests</text>
<text text-anchor="middle" x="1070" y="-78.5" font-family="Helvetica,sans-Serif" font-size="10.00">/service.hpp</text>
</a>
</g>
</g>
<!-- Node11&#45;&gt;Node13 -->
<g id="edge13_Node000011_Node000013" class="edge">
<title>Node11&#45;&gt;Node13</title>
<g id="a_edge13_Node000011_Node000013"><a xlink:title=" ">
<path fill="none" stroke="#63b8ff" d="M1104.64,-134.71C1096.65,-123.82 1087.28,-111.05 1080.31,-101.54"/>
<polygon fill="#63b8ff" stroke="#63b8ff" points="1101.94,-136.94 1110.68,-142.94 1107.58,-132.8 1101.94,-136.94"/>
</a>
</g>
</g>
<!-- Node14 -->
<g id="Node000014" class="node">
<title>Node14</title>
<g id="a_Node000014"><a xlink:href="../../d1/d31/service__fixtures_8hpp.html" target="_top" xlink:title="gtest fixtures for testing ugrpc service implementations. Requires linking to userver::grpc&#45;utest.">
<polygon fill="white" stroke="#666666" points="1129,-30 1011,-30 1011,0 1129,0 1129,-30"/>
<text text-anchor="start" x="1019" y="-18" font-family="Helvetica,sans-Serif" font-size="10.00">userver/ugrpc/tests</text>
<text text-anchor="middle" x="1070" y="-7" font-family="Helvetica,sans-Serif" font-size="10.00">/service_fixtures.hpp</text>
</a>
</g>
</g>
<!-- Node13&#45;&gt;Node14 -->
<g id="edge14_Node000013_Node000014" class="edge">
<title>Node13&#45;&gt;Node14</title>
<g id="a_edge14_Node000013_Node000014"><a xlink:title=" ">
<path fill="none" stroke="#63b8ff" d="M1070,-61.25C1070,-50.81 1070,-38.99 1070,-30.04"/>
<polygon fill="#63b8ff" stroke="#63b8ff" points="1066.5,-61.44 1070,-71.44 1073.5,-61.44 1066.5,-61.44"/>
</a>
</g>
</g>
<!-- Node15&#45;&gt;Node11 -->
<g id="edge16_Node000015_Node000011" class="edge">
<title>Node15&#45;&gt;Node11</title>
<g id="a_edge16_Node000015_Node000011"><a xlink:title=" ">
<path fill="none" stroke="#63b8ff" d="M1052.47,-203.3C1067.54,-193.56 1085.39,-182.02 1099.09,-173.16"/>
<polygon fill="#63b8ff" stroke="#63b8ff" points="1050.47,-200.43 1043.97,-208.8 1054.27,-206.31 1050.47,-200.43"/>
</a>
</g>
</g>
<!-- Node15&#45;&gt;Node13 -->
<g id="edge19_Node000015_Node000013" class="edge">
<title>Node15&#45;&gt;Node13</title>
<g id="a_edge19_Node000015_Node000013"><a xlink:title=" ">
<path fill="none" stroke="#63b8ff" d="M1030.42,-199.23C1040.44,-170.95 1056.83,-124.67 1065.02,-101.55"/>
<polygon fill="#63b8ff" stroke="#63b8ff" points="1027.09,-198.16 1027.05,-208.76 1033.68,-200.5 1027.09,-198.16"/>
</a>
</g>
</g>
<!-- Node15&#45;&gt;Node16 -->
<g id="edge17_Node000015_Node000016" class="edge">
<title>Node15&#45;&gt;Node16</title>
<g id="a_edge17_Node000015_Node000016"><a xlink:title=" ">
<path fill="none" stroke="#63b8ff" d="M991.84,-203.3C976.92,-193.56 959.25,-182.02 945.69,-173.16"/>
<polygon fill="#63b8ff" stroke="#63b8ff" points="989.96,-206.26 1000.25,-208.8 993.79,-200.4 989.96,-206.26"/>
</a>
</g>
</g>
<!-- Node16&#45;&gt;Node10 -->
<g id="edge18_Node000016_Node000010" class="edge">
<title>Node16&#45;&gt;Node10</title>
<g id="a_edge18_Node000016_Node000010"><a xlink:title=" ">
<path fill="none" stroke="#63b8ff" d="M924,-132.75C924,-122.31 924,-110.49 924,-101.54"/>
<polygon fill="#63b8ff" stroke="#63b8ff" points="920.5,-132.94 924,-142.94 927.5,-132.94 920.5,-132.94"/>
</a>
</g>
</g>
</g>
</svg>
