<?xml version="1.0" encoding="UTF-8" standalone="no"?>
<!DOCTYPE svg PUBLIC "-//W3C//DTD SVG 1.1//EN"
 "http://www.w3.org/Graphics/SVG/1.1/DTD/svg11.dtd">
<!-- Generated by graphviz version 2.43.0 (0)
 -->
<!-- Title: crypto::Signer Pages: 1 -->
<svg width="397pt" height="148pt"
 viewBox="0.00 0.00 396.50 148.00" xmlns="http://www.w3.org/2000/svg" xmlns:xlink="http://www.w3.org/1999/xlink">
<g id="graph0" class="graph" transform="scale(1 1) rotate(0) translate(4 144)">
<title>crypto::Signer</title>
<!-- Node1 -->
<g id="Node000001" class="node">
<title>Node1</title>
<g id="a_Node000001"><a xlink:title="Base signer class.">
<polygon fill="#999999" stroke="#666666" points="236.5,-85 152.5,-85 152.5,-66 236.5,-66 236.5,-85"/>
<text text-anchor="middle" x="194.5" y="-73" font-family="Helvetica,sans-Serif" font-size="10.00">crypto::Signer</text>
</a>
</g>
</g>
<!-- Node3 -->
<g id="Node000003" class="node">
<title>Node3</title>
<g id="a_Node000003"><a xlink:href="../../dd/dd6/classcrypto_1_1DsaSigner.html" target="_top" xlink:title="Generic signer for asymmetric cryptography.">
<polygon fill="white" stroke="#666666" points="111,-30 0,-30 0,0 111,0 111,-30"/>
<text text-anchor="start" x="8" y="-18" font-family="Helvetica,sans-Serif" font-size="10.00">crypto::DsaSigner&lt;</text>
<text text-anchor="middle" x="55.5" y="-7" font-family="Helvetica,sans-Serif" font-size="10.00"> type, bits &gt;</text>
</a>
</g>
</g>
<!-- Node1&#45;&gt;Node3 -->
<g id="edge2_Node000001_Node000003" class="edge">
<title>Node1&#45;&gt;Node3</title>
<g id="a_edge2_Node000001_Node000003"><a xlink:title=" ">
<path fill="none" stroke="#63b8ff" d="M164.99,-62.08C142.71,-52.7 112.1,-39.82 88.92,-30.06"/>
<polygon fill="#63b8ff" stroke="#63b8ff" points="163.71,-65.34 174.29,-65.99 166.43,-58.89 163.71,-65.34"/>
</a>
</g>
</g>
<!-- Node4 -->
<g id="Node000004" class="node">
<title>Node4</title>
<g id="a_Node000004"><a xlink:href="../../d0/d37/classcrypto_1_1HmacShaSigner.html" target="_top" xlink:title="HMAC&#45;SHA signer.">
<polygon fill="white" stroke="#666666" points="260,-30 129,-30 129,0 260,0 260,-30"/>
<text text-anchor="start" x="137" y="-18" font-family="Helvetica,sans-Serif" font-size="10.00">crypto::HmacShaSigner</text>
<text text-anchor="middle" x="194.5" y="-7" font-family="Helvetica,sans-Serif" font-size="10.00">&lt; bits &gt;</text>
</a>
</g>
</g>
<!-- Node1&#45;&gt;Node4 -->
<g id="edge3_Node000001_Node000004" class="edge">
<title>Node1&#45;&gt;Node4</title>
<g id="a_edge3_Node000001_Node000004"><a xlink:title=" ">
<path fill="none" stroke="#63b8ff" d="M194.5,-55.65C194.5,-47.36 194.5,-37.78 194.5,-30.11"/>
<polygon fill="#63b8ff" stroke="#63b8ff" points="191,-55.87 194.5,-65.87 198,-55.87 191,-55.87"/>
</a>
</g>
</g>
<!-- Node5 -->
<g id="Node000005" class="node">
<title>Node5</title>
<g id="a_Node000005"><a xlink:href="../../db/d35/classcrypto_1_1SignerNone.html" target="_top" xlink:title="&quot;none&quot; algorithm signer">
<polygon fill="white" stroke="#666666" points="388.5,-24.5 278.5,-24.5 278.5,-5.5 388.5,-5.5 388.5,-24.5"/>
<text text-anchor="middle" x="333.5" y="-12.5" font-family="Helvetica,sans-Serif" font-size="10.00">crypto::SignerNone</text>
</a>
</g>
</g>
<!-- Node1&#45;&gt;Node5 -->
<g id="edge4_Node000001_Node000005" class="edge">
<title>Node1&#45;&gt;Node5</title>
<g id="a_edge4_Node000001_Node000005"><a xlink:title=" ">
<path fill="none" stroke="#63b8ff" d="M224.01,-62.08C250.86,-50.78 289.78,-34.4 313.26,-24.52"/>
<polygon fill="#63b8ff" stroke="#63b8ff" points="222.57,-58.89 214.71,-65.99 225.29,-65.34 222.57,-58.89"/>
</a>
</g>
</g>
<!-- Node2 -->
<g id="Node000002" class="node">
<title>Node2</title>
<g id="a_Node000002"><a xlink:href="../../de/dac/classcrypto_1_1NamedAlgo.html" target="_top" xlink:title="Base class for a crypto algorithm implementation.">
<polygon fill="white" stroke="#666666" points="249.5,-140 139.5,-140 139.5,-121 249.5,-121 249.5,-140"/>
<text text-anchor="middle" x="194.5" y="-128" font-family="Helvetica,sans-Serif" font-size="10.00">crypto::NamedAlgo</text>
</a>
</g>
</g>
<!-- Node2&#45;&gt;Node1 -->
<g id="edge1_Node000001_Node000002" class="edge">
<title>Node2&#45;&gt;Node1</title>
<g id="a_edge1_Node000001_Node000002"><a xlink:title=" ">
<path fill="none" stroke="#63b8ff" d="M194.5,-110.66C194.5,-101.93 194.5,-91.99 194.5,-85.09"/>
<polygon fill="#63b8ff" stroke="#63b8ff" points="191,-110.75 194.5,-120.75 198,-110.75 191,-110.75"/>
</a>
</g>
</g>
</g>
</svg>
