<?xml version="1.0" encoding="UTF-8" standalone="no"?>
<!DOCTYPE svg PUBLIC "-//W3C//DTD SVG 1.1//EN"
 "http://www.w3.org/Graphics/SVG/1.1/DTD/svg11.dtd">
<!-- Generated by graphviz version 2.43.0 (0)
 -->
<!-- Title: userver/formats/bson/bson_builder.hpp Pages: 1 -->
<svg width="767pt" height="500pt"
 viewBox="0.00 0.00 767.00 500.00" xmlns="http://www.w3.org/2000/svg" xmlns:xlink="http://www.w3.org/1999/xlink">
<g id="graph0" class="graph" transform="scale(1 1) rotate(0) translate(4 496)">
<title>userver/formats/bson/bson_builder.hpp</title>
<!-- Node1 -->
<g id="Node000001" class="node">
<title>Node1</title>
<g id="a_Node000001"><a xlink:title="Internal helpers for inline document build.">
<polygon fill="#999999" stroke="#666666" points="326.5,-492 205.5,-492 205.5,-462 326.5,-462 326.5,-492"/>
<text text-anchor="start" x="213.5" y="-480" font-family="Helvetica,sans-Serif" font-size="10.00">userver/formats/bson</text>
<text text-anchor="middle" x="266" y="-469" font-family="Helvetica,sans-Serif" font-size="10.00">/bson_builder.hpp</text>
</a>
</g>
</g>
<!-- Node2 -->
<g id="Node000002" class="node">
<title>Node2</title>
<g id="a_Node000002"><a xlink:href="../../d1/d71/mongo_2include_2userver_2formats_2bson_2inline_8hpp.html" target="_top" xlink:title="Inline value builders.">
<polygon fill="white" stroke="#666666" points="230.5,-426 109.5,-426 109.5,-396 230.5,-396 230.5,-426"/>
<text text-anchor="start" x="117.5" y="-414" font-family="Helvetica,sans-Serif" font-size="10.00">userver/formats/bson</text>
<text text-anchor="middle" x="170" y="-403" font-family="Helvetica,sans-Serif" font-size="10.00">/inline.hpp</text>
</a>
</g>
</g>
<!-- Node1&#45;&gt;Node2 -->
<g id="edge1_Node000001_Node000002" class="edge">
<title>Node1&#45;&gt;Node2</title>
<g id="a_edge1_Node000001_Node000002"><a xlink:title=" ">
<path fill="none" stroke="#63b8ff" d="M236.04,-456.03C221.51,-446.34 204.41,-434.94 191.25,-426.16"/>
<polygon fill="#63b8ff" stroke="#63b8ff" points="234.43,-459.16 244.69,-461.8 238.32,-453.34 234.43,-459.16"/>
</a>
</g>
</g>
<!-- Node5 -->
<g id="Node000005" class="node">
<title>Node5</title>
<g id="a_Node000005"><a xlink:href="../../d2/d54/mongo_2include_2userver_2storages_2mongo_2options_8hpp.html" target="_top" xlink:title="Query options.">
<polygon fill="white" stroke="#666666" points="448.5,-426 313.5,-426 313.5,-396 448.5,-396 448.5,-426"/>
<text text-anchor="start" x="321.5" y="-414" font-family="Helvetica,sans-Serif" font-size="10.00">userver/storages/mongo</text>
<text text-anchor="middle" x="381" y="-403" font-family="Helvetica,sans-Serif" font-size="10.00">/options.hpp</text>
</a>
</g>
</g>
<!-- Node1&#45;&gt;Node5 -->
<g id="edge4_Node000001_Node000005" class="edge">
<title>Node1&#45;&gt;Node5</title>
<g id="a_edge4_Node000001_Node000005"><a xlink:title=" ">
<path fill="none" stroke="#63b8ff" d="M300.2,-456.97C318.05,-447.03 339.51,-435.09 355.82,-426.01"/>
<polygon fill="#63b8ff" stroke="#63b8ff" points="298.27,-454.03 291.24,-461.95 301.68,-460.15 298.27,-454.03"/>
</a>
</g>
</g>
<!-- Node3 -->
<g id="Node000003" class="node">
<title>Node3</title>
<g id="a_Node000003"><a xlink:href="../../dd/d6c/base__mongo__cache_8hpp.html" target="_top" xlink:title="Base class for all caches polling mongo collection">
<polygon fill="white" stroke="#666666" points="250.5,-162 139.5,-162 139.5,-132 250.5,-132 250.5,-162"/>
<text text-anchor="start" x="147.5" y="-150" font-family="Helvetica,sans-Serif" font-size="10.00">userver/cache/base</text>
<text text-anchor="middle" x="195" y="-139" font-family="Helvetica,sans-Serif" font-size="10.00">_mongo_cache.hpp</text>
</a>
</g>
</g>
<!-- Node2&#45;&gt;Node3 -->
<g id="edge2_Node000002_Node000003" class="edge">
<title>Node2&#45;&gt;Node3</title>
<g id="a_edge2_Node000002_Node000003"><a xlink:title=" ">
<path fill="none" stroke="#63b8ff" d="M172.29,-385.96C177.4,-332.43 189.58,-204.81 193.65,-162.16"/>
<polygon fill="#63b8ff" stroke="#63b8ff" points="168.81,-385.63 171.34,-395.91 175.78,-386.29 168.81,-385.63"/>
</a>
</g>
</g>
<!-- Node4 -->
<g id="Node000004" class="node">
<title>Node4</title>
<g id="a_Node000004"><a xlink:href="../../d3/d9f/bson_8hpp.html" target="_top" xlink:title="Include&#45;all header for BSON support.">
<polygon fill="white" stroke="#666666" points="142,-354.5 0,-354.5 0,-335.5 142,-335.5 142,-354.5"/>
<text text-anchor="middle" x="71" y="-342.5" font-family="Helvetica,sans-Serif" font-size="10.00">userver/formats/bson.hpp</text>
</a>
</g>
</g>
<!-- Node2&#45;&gt;Node4 -->
<g id="edge3_Node000002_Node000004" class="edge">
<title>Node2&#45;&gt;Node4</title>
<g id="a_edge3_Node000002_Node000004"><a xlink:title=" ">
<path fill="none" stroke="#63b8ff" d="M139.62,-390.36C121.15,-378.42 98.49,-363.77 84.39,-354.66"/>
<polygon fill="#63b8ff" stroke="#63b8ff" points="137.73,-393.31 148.03,-395.8 141.53,-387.43 137.73,-393.31"/>
</a>
</g>
</g>
<!-- Node5&#45;&gt;Node3 -->
<g id="edge5_Node000005_Node000003" class="edge">
<title>Node5&#45;&gt;Node3</title>
<g id="a_edge5_Node000005_Node000003"><a xlink:title=" ">
<path fill="none" stroke="#63b8ff" d="M379.21,-385.75C375.96,-355.13 366.91,-301.87 342,-264 311.18,-217.15 255.15,-180.77 221.88,-162.02"/>
<polygon fill="#63b8ff" stroke="#63b8ff" points="375.75,-386.31 380.17,-395.94 382.72,-385.66 375.75,-386.31"/>
</a>
</g>
</g>
<!-- Node6 -->
<g id="Node000006" class="node">
<title>Node6</title>
<g id="a_Node000006"><a xlink:href="../../d2/d86/mongo_8hpp.html" target="_top" xlink:title="Include&#45;all header for MongoDB client.">
<polygon fill="white" stroke="#666666" points="759,-90.5 603,-90.5 603,-71.5 759,-71.5 759,-90.5"/>
<text text-anchor="middle" x="681" y="-78.5" font-family="Helvetica,sans-Serif" font-size="10.00">userver/storages/mongo.hpp</text>
</a>
</g>
</g>
<!-- Node5&#45;&gt;Node6 -->
<g id="edge6_Node000005_Node000006" class="edge">
<title>Node5&#45;&gt;Node6</title>
<g id="a_edge6_Node000005_Node000006"><a xlink:title=" ">
<path fill="none" stroke="#63b8ff" d="M458.47,-394.49C552.89,-373.32 700,-331.98 700,-280 700,-280 700,-280 700,-212 700,-165.93 688.17,-111.62 683.18,-90.76"/>
<polygon fill="#63b8ff" stroke="#63b8ff" points="457.66,-391.08 448.65,-396.66 459.17,-397.92 457.66,-391.08"/>
</a>
</g>
</g>
<!-- Node7 -->
<g id="Node000007" class="node">
<title>Node7</title>
<g id="a_Node000007"><a xlink:href="../../d5/d0f/bulk_8hpp.html" target="_top" xlink:title="Bulk collection operation model.">
<polygon fill="white" stroke="#666666" points="544.5,-294 409.5,-294 409.5,-264 544.5,-264 544.5,-294"/>
<text text-anchor="start" x="417.5" y="-282" font-family="Helvetica,sans-Serif" font-size="10.00">userver/storages/mongo</text>
<text text-anchor="middle" x="477" y="-271" font-family="Helvetica,sans-Serif" font-size="10.00">/bulk.hpp</text>
</a>
</g>
</g>
<!-- Node5&#45;&gt;Node7 -->
<g id="edge7_Node000005_Node000007" class="edge">
<title>Node5&#45;&gt;Node7</title>
<g id="a_edge7_Node000005_Node000007"><a xlink:title=" ">
<path fill="none" stroke="#63b8ff" d="M389.69,-386.18C396.45,-369.49 406.88,-347.19 420,-330 430.55,-316.19 445.37,-303.33 457.26,-294.11"/>
<polygon fill="#63b8ff" stroke="#63b8ff" points="386.33,-385.16 385.96,-395.75 392.85,-387.7 386.33,-385.16"/>
</a>
</g>
</g>
<!-- Node14 -->
<g id="Node000014" class="node">
<title>Node14</title>
<g id="a_Node000014"><a xlink:href="../../d3/df1/bulk__ops_8hpp.html" target="_top" xlink:title="Bulk sub&#45;operation models.">
<polygon fill="white" stroke="#666666" points="563.5,-360 428.5,-360 428.5,-330 563.5,-330 563.5,-360"/>
<text text-anchor="start" x="436.5" y="-348" font-family="Helvetica,sans-Serif" font-size="10.00">userver/storages/mongo</text>
<text text-anchor="middle" x="496" y="-337" font-family="Helvetica,sans-Serif" font-size="10.00">/bulk_ops.hpp</text>
</a>
</g>
</g>
<!-- Node5&#45;&gt;Node14 -->
<g id="edge20_Node000005_Node000014" class="edge">
<title>Node5&#45;&gt;Node14</title>
<g id="a_edge20_Node000005_Node000014"><a xlink:title=" ">
<path fill="none" stroke="#63b8ff" d="M415.2,-390.97C433.05,-381.03 454.51,-369.09 470.82,-360.01"/>
<polygon fill="#63b8ff" stroke="#63b8ff" points="413.27,-388.03 406.24,-395.95 416.68,-394.15 413.27,-388.03"/>
</a>
</g>
</g>
<!-- Node15 -->
<g id="Node000015" class="node">
<title>Node15</title>
<g id="a_Node000015"><a xlink:href="../../de/d6b/mongo_2include_2userver_2storages_2mongo_2operations_8hpp.html" target="_top" xlink:title="Collection operation models.">
<polygon fill="white" stroke="#666666" points="333.5,-294 198.5,-294 198.5,-264 333.5,-264 333.5,-294"/>
<text text-anchor="start" x="206.5" y="-282" font-family="Helvetica,sans-Serif" font-size="10.00">userver/storages/mongo</text>
<text text-anchor="middle" x="266" y="-271" font-family="Helvetica,sans-Serif" font-size="10.00">/operations.hpp</text>
</a>
</g>
</g>
<!-- Node5&#45;&gt;Node15 -->
<g id="edge22_Node000005_Node000015" class="edge">
<title>Node5&#45;&gt;Node15</title>
<g id="a_edge22_Node000005_Node000015"><a xlink:title=" ">
<path fill="none" stroke="#63b8ff" d="M361.67,-388.15C337.99,-361.38 298.55,-316.79 278.51,-294.14"/>
<polygon fill="#63b8ff" stroke="#63b8ff" points="359.23,-390.67 368.47,-395.84 364.47,-386.03 359.23,-390.67"/>
</a>
</g>
</g>
<!-- Node7&#45;&gt;Node6 -->
<g id="edge8_Node000007_Node000006" class="edge">
<title>Node7&#45;&gt;Node6</title>
<g id="a_edge8_Node000007_Node000006"><a xlink:title=" ">
<path fill="none" stroke="#63b8ff" d="M511.57,-258.79C546.23,-238.25 599.54,-203.03 636,-162 656.11,-139.37 671.16,-106.26 677.58,-90.7"/>
<polygon fill="#63b8ff" stroke="#63b8ff" points="509.62,-255.87 502.75,-263.93 513.15,-261.92 509.62,-255.87"/>
</a>
</g>
</g>
<!-- Node8 -->
<g id="Node000008" class="node">
<title>Node8</title>
<g id="a_Node000008"><a xlink:href="../../d4/db6/collection_8hpp.html" target="_top" xlink:title="MongoDB collection handle, the main way to operate with MongoDB.">
<polygon fill="white" stroke="#666666" points="525.5,-228 390.5,-228 390.5,-198 525.5,-198 525.5,-228"/>
<text text-anchor="start" x="398.5" y="-216" font-family="Helvetica,sans-Serif" font-size="10.00">userver/storages/mongo</text>
<text text-anchor="middle" x="458" y="-205" font-family="Helvetica,sans-Serif" font-size="10.00">/collection.hpp</text>
</a>
</g>
</g>
<!-- Node7&#45;&gt;Node8 -->
<g id="edge9_Node000007_Node000008" class="edge">
<title>Node7&#45;&gt;Node8</title>
<g id="a_edge9_Node000007_Node000008"><a xlink:title=" ">
<path fill="none" stroke="#63b8ff" d="M469.91,-254.11C467.31,-245.38 464.47,-235.78 462.2,-228.16"/>
<polygon fill="#63b8ff" stroke="#63b8ff" points="466.58,-255.21 472.78,-263.8 473.29,-253.21 466.58,-255.21"/>
</a>
</g>
</g>
<!-- Node8&#45;&gt;Node3 -->
<g id="edge10_Node000008_Node000003" class="edge">
<title>Node8&#45;&gt;Node3</title>
<g id="a_edge10_Node000008_Node000003"><a xlink:title=" ">
<path fill="none" stroke="#63b8ff" d="M390.4,-195.55C347.09,-185.01 291.56,-171.5 250.78,-161.57"/>
<polygon fill="#63b8ff" stroke="#63b8ff" points="389.74,-198.99 400.28,-197.95 391.39,-192.19 389.74,-198.99"/>
</a>
</g>
</g>
<!-- Node8&#45;&gt;Node6 -->
<g id="edge11_Node000008_Node000006" class="edge">
<title>Node8&#45;&gt;Node6</title>
<g id="a_edge11_Node000008_Node000006"><a xlink:title=" ">
<path fill="none" stroke="#63b8ff" d="M530.12,-195.06C555.03,-187.29 582.35,-176.5 605,-162 635.98,-142.17 663.24,-107.08 674.93,-90.78"/>
<polygon fill="#63b8ff" stroke="#63b8ff" points="528.92,-191.77 520.35,-198 530.93,-198.47 528.92,-191.77"/>
</a>
</g>
</g>
<!-- Node9 -->
<g id="Node000009" class="node">
<title>Node9</title>
<g id="a_Node000009"><a xlink:href="../../d5/d93/mongo_2include_2userver_2storages_2mongo_2dist__lock__component__base_8hpp.html" target="_top" xlink:title="Base class for mongo&#45;based distlock worker components.">
<polygon fill="white" stroke="#666666" points="393.5,-96 220.5,-96 220.5,-66 393.5,-66 393.5,-96"/>
<text text-anchor="start" x="228.5" y="-84" font-family="Helvetica,sans-Serif" font-size="10.00">userver/storages/mongo</text>
<text text-anchor="middle" x="307" y="-73" font-family="Helvetica,sans-Serif" font-size="10.00">/dist_lock_component_base.hpp</text>
</a>
</g>
</g>
<!-- Node8&#45;&gt;Node9 -->
<g id="edge12_Node000008_Node000009" class="edge">
<title>Node8&#45;&gt;Node9</title>
<g id="a_edge12_Node000008_Node000009"><a xlink:title=" ">
<path fill="none" stroke="#63b8ff" d="M449.31,-188.36C441.9,-170.92 429.77,-147.61 413,-132 395.72,-115.92 372.34,-104.14 351.93,-96.08"/>
<polygon fill="#63b8ff" stroke="#63b8ff" points="446.14,-189.87 453.12,-197.84 452.64,-187.26 446.14,-189.87"/>
</a>
</g>
</g>
<!-- Node10 -->
<g id="Node000010" class="node">
<title>Node10</title>
<g id="a_Node000010"><a xlink:href="../../d6/d83/mongo_2include_2userver_2storages_2mongo_2dist__lock__strategy_8hpp_source.html" target="_top" xlink:title=" ">
<polygon fill="white" stroke="#666666" points="403.5,-162 268.5,-162 268.5,-132 403.5,-132 403.5,-162"/>
<text text-anchor="start" x="276.5" y="-150" font-family="Helvetica,sans-Serif" font-size="10.00">userver/storages/mongo</text>
<text text-anchor="middle" x="336" y="-139" font-family="Helvetica,sans-Serif" font-size="10.00">/dist_lock_strategy.hpp</text>
</a>
</g>
</g>
<!-- Node8&#45;&gt;Node10 -->
<g id="edge13_Node000008_Node000010" class="edge">
<title>Node8&#45;&gt;Node10</title>
<g id="a_edge13_Node000008_Node000010"><a xlink:title=" ">
<path fill="none" stroke="#63b8ff" d="M422.24,-193.24C403.2,-183.25 380.18,-171.18 362.71,-162.01"/>
<polygon fill="#63b8ff" stroke="#63b8ff" points="420.75,-196.41 431.23,-197.95 424,-190.21 420.75,-196.41"/>
</a>
</g>
</g>
<!-- Node11 -->
<g id="Node000011" class="node">
<title>Node11</title>
<g id="a_Node000011"><a xlink:href="../../d8/d62/mongo_2include_2userver_2storages_2mongo_2pool_8hpp.html" target="_top" xlink:title="MongoDB client pool.">
<polygon fill="white" stroke="#666666" points="595.5,-162 460.5,-162 460.5,-132 595.5,-132 595.5,-162"/>
<text text-anchor="start" x="468.5" y="-150" font-family="Helvetica,sans-Serif" font-size="10.00">userver/storages/mongo</text>
<text text-anchor="middle" x="528" y="-139" font-family="Helvetica,sans-Serif" font-size="10.00">/pool.hpp</text>
</a>
</g>
</g>
<!-- Node8&#45;&gt;Node11 -->
<g id="edge15_Node000008_Node000011" class="edge">
<title>Node8&#45;&gt;Node11</title>
<g id="a_edge15_Node000008_Node000011"><a xlink:title=" ">
<path fill="none" stroke="#63b8ff" d="M481.05,-190.92C491.37,-181.49 503.27,-170.61 512.51,-162.16"/>
<polygon fill="#63b8ff" stroke="#63b8ff" points="478.55,-188.47 473.54,-197.8 483.28,-193.63 478.55,-188.47"/>
</a>
</g>
</g>
<!-- Node10&#45;&gt;Node9 -->
<g id="edge14_Node000010_Node000009" class="edge">
<title>Node10&#45;&gt;Node9</title>
<g id="a_edge14_Node000010_Node000009"><a xlink:title=" ">
<path fill="none" stroke="#63b8ff" d="M325.43,-122.68C321.41,-113.79 316.94,-103.95 313.42,-96.16"/>
<polygon fill="#63b8ff" stroke="#63b8ff" points="322.25,-124.13 329.56,-131.8 328.62,-121.24 322.25,-124.13"/>
</a>
</g>
</g>
<!-- Node11&#45;&gt;Node6 -->
<g id="edge16_Node000011_Node000006" class="edge">
<title>Node11&#45;&gt;Node6</title>
<g id="a_edge16_Node000011_Node000006"><a xlink:title=" ">
<path fill="none" stroke="#63b8ff" d="M571.17,-127.94C600.49,-115.68 637.91,-100.02 660.64,-90.52"/>
<polygon fill="#63b8ff" stroke="#63b8ff" points="569.45,-124.87 561.58,-131.95 572.15,-131.32 569.45,-124.87"/>
</a>
</g>
</g>
<!-- Node12 -->
<g id="Node000012" class="node">
<title>Node12</title>
<g id="a_Node000012"><a xlink:href="../../d1/dd7/mongo_2include_2userver_2storages_2mongo_2component_8hpp.html" target="_top" xlink:title="MongoDB client component.">
<polygon fill="white" stroke="#666666" points="594.5,-30 459.5,-30 459.5,0 594.5,0 594.5,-30"/>
<text text-anchor="start" x="467.5" y="-18" font-family="Helvetica,sans-Serif" font-size="10.00">userver/storages/mongo</text>
<text text-anchor="middle" x="527" y="-7" font-family="Helvetica,sans-Serif" font-size="10.00">/component.hpp</text>
</a>
</g>
</g>
<!-- Node11&#45;&gt;Node12 -->
<g id="edge17_Node000011_Node000012" class="edge">
<title>Node11&#45;&gt;Node12</title>
<g id="a_edge17_Node000011_Node000012"><a xlink:title=" ">
<path fill="none" stroke="#63b8ff" d="M543.9,-123.36C548.78,-115.13 553.52,-105.51 556,-96 559.37,-83.1 559.46,-78.88 556,-66 552.51,-53.01 544.72,-39.92 538.1,-30.4"/>
<polygon fill="#63b8ff" stroke="#63b8ff" points="540.84,-121.65 538.44,-131.97 546.75,-125.4 540.84,-121.65"/>
</a>
</g>
</g>
<!-- Node13 -->
<g id="Node000013" class="node">
<title>Node13</title>
<g id="a_Node000013"><a xlink:href="../../d2/de5/multi__mongo_8hpp_source.html" target="_top" xlink:title=" ">
<polygon fill="white" stroke="#666666" points="546.5,-96 411.5,-96 411.5,-66 546.5,-66 546.5,-96"/>
<text text-anchor="start" x="419.5" y="-84" font-family="Helvetica,sans-Serif" font-size="10.00">userver/storages/mongo</text>
<text text-anchor="middle" x="479" y="-73" font-family="Helvetica,sans-Serif" font-size="10.00">/multi_mongo.hpp</text>
</a>
</g>
</g>
<!-- Node11&#45;&gt;Node13 -->
<g id="edge18_Node000011_Node000013" class="edge">
<title>Node11&#45;&gt;Node13</title>
<g id="a_edge18_Node000011_Node000013"><a xlink:title=" ">
<path fill="none" stroke="#63b8ff" d="M511.01,-123.81C503.99,-114.64 496.06,-104.28 489.84,-96.16"/>
<polygon fill="#63b8ff" stroke="#63b8ff" points="508.27,-125.98 517.13,-131.8 513.83,-121.73 508.27,-125.98"/>
</a>
</g>
</g>
<!-- Node13&#45;&gt;Node12 -->
<g id="edge19_Node000013_Node000012" class="edge">
<title>Node13&#45;&gt;Node12</title>
<g id="a_edge19_Node000013_Node000012"><a xlink:title=" ">
<path fill="none" stroke="#63b8ff" d="M495.86,-57.53C502.68,-48.43 510.35,-38.19 516.38,-30.16"/>
<polygon fill="#63b8ff" stroke="#63b8ff" points="492.85,-55.7 489.65,-65.8 498.45,-59.9 492.85,-55.7"/>
</a>
</g>
</g>
<!-- Node14&#45;&gt;Node7 -->
<g id="edge21_Node000014_Node000007" class="edge">
<title>Node14&#45;&gt;Node7</title>
<g id="a_edge21_Node000014_Node000007"><a xlink:title=" ">
<path fill="none" stroke="#63b8ff" d="M488.91,-320.11C486.31,-311.38 483.47,-301.78 481.2,-294.16"/>
<polygon fill="#63b8ff" stroke="#63b8ff" points="485.58,-321.21 491.78,-329.8 492.29,-319.21 485.58,-321.21"/>
</a>
</g>
</g>
<!-- Node15&#45;&gt;Node3 -->
<g id="edge23_Node000015_Node000003" class="edge">
<title>Node15&#45;&gt;Node3</title>
<g id="a_edge23_Node000015_Node000003"><a xlink:title=" ">
<path fill="none" stroke="#63b8ff" d="M253.3,-254.75C238.61,-227.84 214.88,-184.4 202.72,-162.14"/>
<polygon fill="#63b8ff" stroke="#63b8ff" points="250.4,-256.74 258.27,-263.84 256.55,-253.39 250.4,-256.74"/>
</a>
</g>
</g>
<!-- Node15&#45;&gt;Node8 -->
<g id="edge24_Node000015_Node000008" class="edge">
<title>Node15&#45;&gt;Node8</title>
<g id="a_edge24_Node000015_Node000008"><a xlink:title=" ">
<path fill="none" stroke="#63b8ff" d="M317.83,-260.72C348.59,-250.47 387.1,-237.63 415.96,-228.01"/>
<polygon fill="#63b8ff" stroke="#63b8ff" points="316.52,-257.47 308.14,-263.95 318.73,-264.11 316.52,-257.47"/>
</a>
</g>
</g>
</g>
</svg>
