<?xml version="1.0" encoding="UTF-8" standalone="no"?>
<!DOCTYPE svg PUBLIC "-//W3C//DTD SVG 1.1//EN"
 "http://www.w3.org/Graphics/SVG/1.1/DTD/svg11.dtd">
<!-- Generated by graphviz version 2.43.0 (0)
 -->
<!-- Title: server::handlers::HttpHandlerBase Pages: 1 -->
<svg width="215pt" height="192pt"
 viewBox="0.00 0.00 215.00 192.00" xmlns="http://www.w3.org/2000/svg" xmlns:xlink="http://www.w3.org/1999/xlink">
<g id="graph0" class="graph" transform="scale(1 1) rotate(0) translate(4 188)">
<title>server::handlers::HttpHandlerBase</title>
<!-- Node1 -->
<g id="Node000001" class="node">
<title>Node1</title>
<g id="a_Node000001"><a xlink:title="Base class for all the Userver HTTP Handlers.">
<polygon fill="#999999" stroke="#666666" points="196,-19 11,-19 11,0 196,0 196,-19"/>
<text text-anchor="middle" x="103.5" y="-7" font-family="Helvetica,sans-Serif" font-size="10.00">server::handlers::HttpHandlerBase</text>
</a>
</g>
</g>
<!-- Node2 -->
<g id="Node000002" class="node">
<title>Node2</title>
<g id="a_Node000002"><a xlink:href="../../d1/ddc/classserver_1_1handlers_1_1HandlerBase.html" target="_top" xlink:title="Base class for the request handlers.">
<polygon fill="white" stroke="#666666" points="185.5,-74 21.5,-74 21.5,-55 185.5,-55 185.5,-74"/>
<text text-anchor="middle" x="103.5" y="-62" font-family="Helvetica,sans-Serif" font-size="10.00">server::handlers::HandlerBase</text>
</a>
</g>
</g>
<!-- Node2&#45;&gt;Node1 -->
<g id="edge1_Node000001_Node000002" class="edge">
<title>Node2&#45;&gt;Node1</title>
<g id="a_edge1_Node000001_Node000002"><a xlink:title=" ">
<path fill="none" stroke="#63b8ff" d="M103.5,-44.66C103.5,-35.93 103.5,-25.99 103.5,-19.09"/>
<polygon fill="#63b8ff" stroke="#63b8ff" points="100,-44.75 103.5,-54.75 107,-44.75 100,-44.75"/>
</a>
</g>
</g>
<!-- Node3 -->
<g id="Node000003" class="node">
<title>Node3</title>
<g id="a_Node000003"><a xlink:href="../../d5/d69/classcomponents_1_1LoggableComponentBase.html" target="_top" xlink:title="Base class for all application components, it depends on components::Logger and components::Tracer.">
<polygon fill="white" stroke="#666666" points="207,-129 0,-129 0,-110 207,-110 207,-129"/>
<text text-anchor="middle" x="103.5" y="-117" font-family="Helvetica,sans-Serif" font-size="10.00">components::LoggableComponentBase</text>
</a>
</g>
</g>
<!-- Node3&#45;&gt;Node2 -->
<g id="edge2_Node000002_Node000003" class="edge">
<title>Node3&#45;&gt;Node2</title>
<g id="a_edge2_Node000002_Node000003"><a xlink:title=" ">
<path fill="none" stroke="#63b8ff" d="M103.5,-99.66C103.5,-90.93 103.5,-80.99 103.5,-74.09"/>
<polygon fill="#63b8ff" stroke="#63b8ff" points="100,-99.75 103.5,-109.75 107,-99.75 100,-99.75"/>
</a>
</g>
</g>
<!-- Node4 -->
<g id="Node000004" class="node">
<title>Node4</title>
<g id="a_Node000004"><a xlink:title=" ">
<polygon fill="white" stroke="#666666" points="199,-184 8,-184 8,-165 199,-165 199,-184"/>
<text text-anchor="middle" x="103.5" y="-172" font-family="Helvetica,sans-Serif" font-size="10.00">components::impl::ComponentBase</text>
</a>
</g>
</g>
<!-- Node4&#45;&gt;Node3 -->
<g id="edge3_Node000003_Node000004" class="edge">
<title>Node4&#45;&gt;Node3</title>
<g id="a_edge3_Node000003_Node000004"><a xlink:title=" ">
<path fill="none" stroke="#63b8ff" d="M103.5,-154.66C103.5,-145.93 103.5,-135.99 103.5,-129.09"/>
<polygon fill="#63b8ff" stroke="#63b8ff" points="100,-154.75 103.5,-164.75 107,-154.75 100,-154.75"/>
</a>
</g>
</g>
</g>
</svg>
