<?xml version="1.0" encoding="UTF-8" standalone="no"?>
<!DOCTYPE svg PUBLIC "-//W3C//DTD SVG 1.1//EN"
 "http://www.w3.org/Graphics/SVG/1.1/DTD/svg11.dtd">
<!-- Generated by graphviz version 14.1.2 (0)
 -->
<!-- Title: storages::mysql::MySQLIOException Pages: 1 -->
<svg width="200pt" height="199pt"
 viewBox="0.00 0.00 200.00 199.00" xmlns="http://www.w3.org/2000/svg" xmlns:xlink="http://www.w3.org/1999/xlink">
<g id="graph0" class="graph" transform="scale(1 1) rotate(0) translate(4 195)">
<title>storages::mysql::MySQLIOException</title>
<!-- Node1 -->
<g id="Node000001" class="node">
<title>Node1</title>
<g id="a_Node000001"><a xlink:title="IO exception (read/write timeout/cancelled).">
<polygon fill="#999999" stroke="#666666" points="192.25,-20.75 0,-20.75 0,0 192.25,0 192.25,-20.75"/>
<text xml:space="preserve" text-anchor="middle" x="96.12" y="-7.25" font-family="Helvetica,sans-Serif" font-size="10.00">storages::mysql::MySQLIOException</text>
</a>
</g>
</g>
<!-- Node2 -->
<g id="Node000002" class="node">
<title>Node2</title>
<g id="a_Node000002"><a xlink:href="../../d5/d4c/classstorages_1_1mysql_1_1MySQLException.html" target="_top" xlink:title="Base class for all uMySQL driver exceptions.">
<polygon fill="white" stroke="#666666" points="187,-77.5 5.25,-77.5 5.25,-56.75 187,-56.75 187,-77.5"/>
<text xml:space="preserve" text-anchor="middle" x="96.12" y="-64" font-family="Helvetica,sans-Serif" font-size="10.00">storages::mysql::MySQLException</text>
</a>
</g>
</g>
<!-- Node2&#45;&gt;Node1 -->
<g id="edge1_Node000001_Node000002" class="edge">
<title>Node2&#45;&gt;Node1</title>
<g id="a_edge1_Node000001_Node000002"><a xlink:title=" ">
<path fill="none" stroke="#63b8ff" d="M96.12,-44.88C96.12,-36.66 96.12,-27.68 96.12,-21.08"/>
<polygon fill="#63b8ff" stroke="#63b8ff" points="92.63,-44.82 96.13,-54.82 99.63,-44.82 92.63,-44.82"/>
</a>
</g>
</g>
<!-- Node3 -->
<g id="Node000003" class="node">
<title>Node3</title>
<g id="a_Node000003"><a xlink:title=" ">
<polygon fill="white" stroke="#666666" points="148,-134.25 44.25,-134.25 44.25,-113.5 148,-113.5 148,-134.25"/>
<text xml:space="preserve" text-anchor="middle" x="96.12" y="-120.75" font-family="Helvetica,sans-Serif" font-size="10.00">std::runtime_error</text>
</a>
</g>
</g>
<!-- Node3&#45;&gt;Node2 -->
<g id="edge2_Node000002_Node000003" class="edge">
<title>Node3&#45;&gt;Node2</title>
<g id="a_edge2_Node000002_Node000003"><a xlink:title=" ">
<path fill="none" stroke="#63b8ff" d="M96.12,-101.63C96.12,-93.41 96.12,-84.43 96.12,-77.83"/>
<polygon fill="#63b8ff" stroke="#63b8ff" points="92.63,-101.57 96.13,-111.57 99.63,-101.57 92.63,-101.57"/>
</a>
</g>
</g>
<!-- Node4 -->
<g id="Node000004" class="node">
<title>Node4</title>
<g id="a_Node000004"><a xlink:title=" ">
<polygon fill="white" stroke="#666666" points="138.62,-191 53.62,-191 53.62,-170.25 138.62,-170.25 138.62,-191"/>
<text xml:space="preserve" text-anchor="middle" x="96.12" y="-177.5" font-family="Helvetica,sans-Serif" font-size="10.00">std::exception</text>
</a>
</g>
</g>
<!-- Node4&#45;&gt;Node3 -->
<g id="edge3_Node000003_Node000004" class="edge">
<title>Node4&#45;&gt;Node3</title>
<g id="a_edge3_Node000003_Node000004"><a xlink:title=" ">
<path fill="none" stroke="#63b8ff" d="M96.12,-158.38C96.12,-150.16 96.12,-141.18 96.12,-134.58"/>
<polygon fill="#63b8ff" stroke="#63b8ff" points="92.63,-158.32 96.13,-168.32 99.63,-158.32 92.63,-158.32"/>
</a>
</g>
</g>
</g>
</svg>
