<?xml version="1.0" encoding="UTF-8" standalone="no"?>
<!DOCTYPE svg PUBLIC "-//W3C//DTD SVG 1.1//EN"
 "http://www.w3.org/Graphics/SVG/1.1/DTD/svg11.dtd">
<!-- Generated by graphviz version 2.43.0 (0)
 -->
<!-- Title: userver/tracing/in_place_span.hpp Pages: 1 -->
<svg width="2090pt" height="478pt"
 viewBox="0.00 0.00 2089.50 478.00" xmlns="http://www.w3.org/2000/svg" xmlns:xlink="http://www.w3.org/1999/xlink">
<g id="graph0" class="graph" transform="scale(1 1) rotate(0) translate(4 474)">
<title>userver/tracing/in_place_span.hpp</title>
<!-- Node1 -->
<g id="Node000001" class="node">
<title>Node1</title>
<g id="a_Node000001"><a xlink:title="Avoids an extra allocation by storing tracing::Span data in&#45;place.">
<polygon fill="#999999" stroke="#666666" points="1993,-470 1891,-470 1891,-440 1993,-440 1993,-470"/>
<text text-anchor="start" x="1899" y="-458" font-family="Helvetica,sans-Serif" font-size="10.00">userver/tracing/in</text>
<text text-anchor="middle" x="1942" y="-447" font-family="Helvetica,sans-Serif" font-size="10.00">_place_span.hpp</text>
</a>
</g>
</g>
<!-- Node2 -->
<g id="Node000002" class="node">
<title>Node2</title>
<g id="a_Node000002"><a xlink:title=" ">
<polygon fill="#e0e0e0" stroke="#999999" points="1964,-145.5 1920,-145.5 1920,-126.5 1964,-126.5 1964,-145.5"/>
<text text-anchor="middle" x="1942" y="-133.5" font-family="Helvetica,sans-Serif" font-size="10.00">string</text>
</a>
</g>
</g>
<!-- Node1&#45;&gt;Node2 -->
<g id="edge1_Node000001_Node000002" class="edge">
<title>Node1&#45;&gt;Node2</title>
<g id="a_edge1_Node000001_Node000002"><a xlink:title=" ">
<path fill="none" stroke="#63b8ff" d="M1942,-439.71C1942,-417.37 1942,-372.81 1942,-335 1942,-335 1942,-335 1942,-267 1942,-227.45 1942,-181.13 1942,-155.84"/>
<polygon fill="#63b8ff" stroke="#63b8ff" points="1945.5,-155.52 1942,-145.52 1938.5,-155.52 1945.5,-155.52"/>
</a>
</g>
</g>
<!-- Node3 -->
<g id="Node000003" class="node">
<title>Node3</title>
<g id="a_Node000003"><a xlink:href="../../d2/d68/core_2include_2userver_2tracing_2span_8hpp.html" target="_top" xlink:title="Measures the execution time of the current code block, links it with the parent tracing::Spans and st...">
<polygon fill="white" stroke="#666666" points="1520.5,-404 1383.5,-404 1383.5,-385 1520.5,-385 1520.5,-404"/>
<text text-anchor="middle" x="1452" y="-392" font-family="Helvetica,sans-Serif" font-size="10.00">userver/tracing/span.hpp</text>
</a>
</g>
</g>
<!-- Node1&#45;&gt;Node3 -->
<g id="edge2_Node000001_Node000003" class="edge">
<title>Node1&#45;&gt;Node3</title>
<g id="a_edge2_Node000001_Node000003"><a xlink:title=" ">
<path fill="none" stroke="#63b8ff" d="M1890.95,-447.91C1805.28,-437.68 1632.04,-416.99 1530.7,-404.9"/>
<polygon fill="#63b8ff" stroke="#63b8ff" points="1530.86,-401.39 1520.51,-403.68 1530.03,-408.34 1530.86,-401.39"/>
</a>
</g>
</g>
<!-- Node30 -->
<g id="Node000030" class="node">
<title>Node30</title>
<g id="a_Node000030"><a xlink:href="../../d5/d02/fast__pimpl_8hpp.html" target="_top" xlink:title="Implements pimpl idiom without dynamic memory allocation.">
<polygon fill="white" stroke="#666666" points="2081.5,-151 1982.5,-151 1982.5,-121 2081.5,-121 2081.5,-151"/>
<text text-anchor="start" x="1990.5" y="-139" font-family="Helvetica,sans-Serif" font-size="10.00">userver/utils/fast</text>
<text text-anchor="middle" x="2032" y="-128" font-family="Helvetica,sans-Serif" font-size="10.00">_pimpl.hpp</text>
</a>
</g>
</g>
<!-- Node1&#45;&gt;Node30 -->
<g id="edge72_Node000001_Node000030" class="edge">
<title>Node1&#45;&gt;Node30</title>
<g id="a_edge72_Node000001_Node000030"><a xlink:title=" ">
<path fill="none" stroke="#63b8ff" d="M1955.57,-439.93C1974.36,-418.9 2006,-377.22 2006,-335 2006,-335 2006,-335 2006,-267 2006,-229.37 2016.6,-186.79 2024.27,-160.92"/>
<polygon fill="#63b8ff" stroke="#63b8ff" points="2027.65,-161.83 2027.23,-151.24 2020.96,-159.78 2027.65,-161.83"/>
</a>
</g>
</g>
<!-- Node4 -->
<g id="Node000004" class="node">
<title>Node4</title>
<g id="a_Node000004"><a xlink:title=" ">
<polygon fill="#e0e0e0" stroke="#999999" points="1174,-145.5 1118,-145.5 1118,-126.5 1174,-126.5 1174,-145.5"/>
<text text-anchor="middle" x="1146" y="-133.5" font-family="Helvetica,sans-Serif" font-size="10.00">optional</text>
</a>
</g>
</g>
<!-- Node3&#45;&gt;Node4 -->
<g id="edge3_Node000003_Node000004" class="edge">
<title>Node3&#45;&gt;Node4</title>
<g id="a_edge3_Node000003_Node000004"><a xlink:title=" ">
<path fill="none" stroke="#63b8ff" d="M1383.25,-393.43C1329.93,-390.64 1255.8,-380.6 1199,-349 1130.24,-310.74 1109.07,-290.51 1081,-217 1076.24,-204.54 1075.11,-198.96 1081,-187 1088.79,-171.18 1104.26,-158.96 1118.15,-150.57"/>
<polygon fill="#63b8ff" stroke="#63b8ff" points="1119.97,-153.56 1126.96,-145.6 1116.53,-147.46 1119.97,-153.56"/>
</a>
</g>
</g>
<!-- Node5 -->
<g id="Node000005" class="node">
<title>Node5</title>
<g id="a_Node000005"><a xlink:title=" ">
<polygon fill="#e0e0e0" stroke="#999999" points="221.5,-79.5 148.5,-79.5 148.5,-60.5 221.5,-60.5 221.5,-79.5"/>
<text text-anchor="middle" x="185" y="-67.5" font-family="Helvetica,sans-Serif" font-size="10.00">string_view</text>
</a>
</g>
</g>
<!-- Node3&#45;&gt;Node5 -->
<g id="edge4_Node000003_Node000005" class="edge">
<title>Node3&#45;&gt;Node5</title>
<g id="a_edge4_Node000003_Node000005"><a xlink:title=" ">
<path fill="none" stroke="#63b8ff" d="M1383.43,-391.26C1095.62,-381.42 0,-339.33 0,-269 0,-269 0,-269 0,-201 0,-133.37 83.78,-97.89 138.58,-81.92"/>
<polygon fill="#63b8ff" stroke="#63b8ff" points="139.76,-85.22 148.45,-79.16 137.88,-78.48 139.76,-85.22"/>
</a>
</g>
</g>
<!-- Node6 -->
<g id="Node000006" class="node">
<title>Node6</title>
<g id="a_Node000006"><a xlink:href="../../dd/de6/universal_2include_2userver_2logging_2log_8hpp.html" target="_top" xlink:title="Logging helpers.">
<polygon fill="white" stroke="#666666" points="1338.5,-343.5 1207.5,-343.5 1207.5,-324.5 1338.5,-324.5 1338.5,-343.5"/>
<text text-anchor="middle" x="1273" y="-331.5" font-family="Helvetica,sans-Serif" font-size="10.00">userver/logging/log.hpp</text>
</a>
</g>
</g>
<!-- Node3&#45;&gt;Node6 -->
<g id="edge5_Node000003_Node000006" class="edge">
<title>Node3&#45;&gt;Node6</title>
<g id="a_edge5_Node000003_Node000006"><a xlink:title=" ">
<path fill="none" stroke="#63b8ff" d="M1425.97,-384.99C1395.08,-374.9 1343.42,-358.01 1308.78,-346.69"/>
<polygon fill="#63b8ff" stroke="#63b8ff" points="1309.65,-343.3 1299.06,-343.52 1307.48,-349.95 1309.65,-343.3"/>
</a>
</g>
</g>
<!-- Node25 -->
<g id="Node000025" class="node">
<title>Node25</title>
<g id="a_Node000025"><a xlink:href="../../d6/def/log__extra_8hpp.html" target="_top" xlink:title="Extra tskv fields storage.">
<polygon fill="white" stroke="#666666" points="1735,-217 1625,-217 1625,-187 1735,-187 1735,-217"/>
<text text-anchor="start" x="1633" y="-205" font-family="Helvetica,sans-Serif" font-size="10.00">userver/logging/log</text>
<text text-anchor="middle" x="1680" y="-194" font-family="Helvetica,sans-Serif" font-size="10.00">_extra.hpp</text>
</a>
</g>
</g>
<!-- Node3&#45;&gt;Node25 -->
<g id="edge61_Node000003_Node000025" class="edge">
<title>Node3&#45;&gt;Node25</title>
<g id="a_edge61_Node000003_Node000025"><a xlink:title=" ">
<path fill="none" stroke="#63b8ff" d="M1486.98,-384.96C1534.24,-371.55 1617.65,-340.88 1662,-283 1674.15,-267.15 1678.39,-244.65 1679.74,-227.55"/>
<polygon fill="#63b8ff" stroke="#63b8ff" points="1683.25,-227.38 1680.26,-217.21 1676.26,-227.02 1683.25,-227.38"/>
</a>
</g>
</g>
<!-- Node32 -->
<g id="Node000032" class="node">
<title>Node32</title>
<g id="a_Node000032"><a xlink:href="../../df/dd4/source__location_8hpp_source.html" target="_top" xlink:title=" ">
<polygon fill="white" stroke="#666666" points="213.5,-217 96.5,-217 96.5,-187 213.5,-187 213.5,-217"/>
<text text-anchor="start" x="104.5" y="-205" font-family="Helvetica,sans-Serif" font-size="10.00">userver/utils/impl</text>
<text text-anchor="middle" x="155" y="-194" font-family="Helvetica,sans-Serif" font-size="10.00">/source_location.hpp</text>
</a>
</g>
</g>
<!-- Node3&#45;&gt;Node32 -->
<g id="edge70_Node000003_Node000032" class="edge">
<title>Node3&#45;&gt;Node32</title>
<g id="a_edge70_Node000003_Node000032"><a xlink:title=" ">
<path fill="none" stroke="#63b8ff" d="M1383.38,-390.69C1216.75,-382.88 778.11,-356.45 420,-283 342.82,-267.17 255.82,-238.81 203.22,-220.46"/>
<polygon fill="#63b8ff" stroke="#63b8ff" points="204.09,-217.05 193.5,-217.04 201.77,-223.66 204.09,-217.05"/>
</a>
</g>
</g>
<!-- Node36 -->
<g id="Node000036" class="node">
<title>Node36</title>
<g id="a_Node000036"><a xlink:href="../../d4/d54/scope__time_8hpp.html" target="_top" xlink:title="Type to measure execution time of a scope.">
<polygon fill="white" stroke="#666666" points="1653,-283 1531,-283 1531,-253 1653,-253 1653,-283"/>
<text text-anchor="start" x="1539" y="-271" font-family="Helvetica,sans-Serif" font-size="10.00">userver/tracing/scope</text>
<text text-anchor="middle" x="1592" y="-260" font-family="Helvetica,sans-Serif" font-size="10.00">_time.hpp</text>
</a>
</g>
</g>
<!-- Node3&#45;&gt;Node36 -->
<g id="edge62_Node000003_Node000036" class="edge">
<title>Node3&#45;&gt;Node36</title>
<g id="a_edge62_Node000003_Node000036"><a xlink:title=" ">
<path fill="none" stroke="#63b8ff" d="M1461.62,-384.94C1483.4,-365.58 1536.99,-317.92 1568.27,-290.11"/>
<polygon fill="#63b8ff" stroke="#63b8ff" points="1570.93,-292.42 1576.08,-283.16 1566.28,-287.19 1570.93,-292.42"/>
</a>
</g>
</g>
<!-- Node38 -->
<g id="Node000038" class="node">
<title>Node38</title>
<g id="a_Node000038"><a xlink:href="../../dc/d90/tracer__fwd_8hpp_source.html" target="_top" xlink:title=" ">
<polygon fill="white" stroke="#666666" points="1513,-283 1391,-283 1391,-253 1513,-253 1513,-283"/>
<text text-anchor="start" x="1399" y="-271" font-family="Helvetica,sans-Serif" font-size="10.00">userver/tracing/tracer</text>
<text text-anchor="middle" x="1452" y="-260" font-family="Helvetica,sans-Serif" font-size="10.00">_fwd.hpp</text>
</a>
</g>
</g>
<!-- Node3&#45;&gt;Node38 -->
<g id="edge68_Node000003_Node000038" class="edge">
<title>Node3&#45;&gt;Node38</title>
<g id="a_edge68_Node000003_Node000038"><a xlink:title=" ">
<path fill="none" stroke="#63b8ff" d="M1452,-384.94C1452,-366.32 1452,-321.53 1452,-293.39"/>
<polygon fill="#63b8ff" stroke="#63b8ff" points="1455.5,-293.16 1452,-283.16 1448.5,-293.16 1455.5,-293.16"/>
</a>
</g>
</g>
<!-- Node39 -->
<g id="Node000039" class="node">
<title>Node39</title>
<g id="a_Node000039"><a xlink:href="../../d7/d2e/core_2include_2userver_2utils_2internal__tag__fwd_8hpp.html" target="_top" xlink:title=" ">
<polygon fill="white" stroke="#666666" points="1827,-349 1709,-349 1709,-319 1827,-319 1827,-349"/>
<text text-anchor="start" x="1717" y="-337" font-family="Helvetica,sans-Serif" font-size="10.00">userver/utils/internal</text>
<text text-anchor="middle" x="1768" y="-326" font-family="Helvetica,sans-Serif" font-size="10.00">_tag_fwd.hpp</text>
</a>
</g>
</g>
<!-- Node3&#45;&gt;Node39 -->
<g id="edge71_Node000003_Node000039" class="edge">
<title>Node3&#45;&gt;Node39</title>
<g id="a_edge71_Node000003_Node000039"><a xlink:title=" ">
<path fill="none" stroke="#63b8ff" d="M1499.52,-384.92C1548.52,-376.04 1627.13,-361.72 1695,-349 1696.25,-348.77 1697.51,-348.53 1698.78,-348.29"/>
<polygon fill="#63b8ff" stroke="#63b8ff" points="1699.47,-351.72 1708.65,-346.43 1698.17,-344.84 1699.47,-351.72"/>
</a>
</g>
</g>
<!-- Node7 -->
<g id="Node000007" class="node">
<title>Node7</title>
<g id="a_Node000007"><a xlink:title=" ">
<polygon fill="#e0e0e0" stroke="#999999" points="1298,-211.5 1248,-211.5 1248,-192.5 1298,-192.5 1298,-211.5"/>
<text text-anchor="middle" x="1273" y="-199.5" font-family="Helvetica,sans-Serif" font-size="10.00">chrono</text>
</a>
</g>
</g>
<!-- Node6&#45;&gt;Node7 -->
<g id="edge6_Node000006_Node000007" class="edge">
<title>Node6&#45;&gt;Node7</title>
<g id="a_edge6_Node000006_Node000007"><a xlink:title=" ">
<path fill="none" stroke="#63b8ff" d="M1273,-324.47C1273,-303.82 1273,-250.72 1273,-222.04"/>
<polygon fill="#63b8ff" stroke="#63b8ff" points="1276.5,-221.73 1273,-211.73 1269.5,-221.73 1276.5,-221.73"/>
</a>
</g>
</g>
<!-- Node8 -->
<g id="Node000008" class="node">
<title>Node8</title>
<g id="a_Node000008"><a xlink:href="../../d2/d84/select_8hpp.html" target="_top" xlink:title="Utilities for selection of platform specific values.">
<polygon fill="white" stroke="#666666" points="1534,-145.5 1382,-145.5 1382,-126.5 1534,-126.5 1534,-145.5"/>
<text text-anchor="middle" x="1458" y="-133.5" font-family="Helvetica,sans-Serif" font-size="10.00">userver/compiler/select.hpp</text>
</a>
</g>
</g>
<!-- Node6&#45;&gt;Node8 -->
<g id="edge7_Node000006_Node000008" class="edge">
<title>Node6&#45;&gt;Node8</title>
<g id="a_edge7_Node000006_Node000008"><a xlink:title=" ">
<path fill="none" stroke="#63b8ff" d="M1281.19,-324.33C1309.78,-294.03 1405.48,-192.64 1442.86,-153.04"/>
<polygon fill="#63b8ff" stroke="#63b8ff" points="1445.59,-155.25 1449.91,-145.57 1440.5,-150.44 1445.59,-155.25"/>
</a>
</g>
</g>
<!-- Node10 -->
<g id="Node000010" class="node">
<title>Node10</title>
<g id="a_Node000010"><a xlink:href="../../db/dfb/universal_2include_2userver_2logging_2fwd_8hpp.html" target="_top" xlink:title="Forward declarations for logging types.">
<polygon fill="white" stroke="#666666" points="1326,-145.5 1192,-145.5 1192,-126.5 1326,-126.5 1326,-145.5"/>
<text text-anchor="middle" x="1259" y="-133.5" font-family="Helvetica,sans-Serif" font-size="10.00">userver/logging/fwd.hpp</text>
</a>
</g>
</g>
<!-- Node6&#45;&gt;Node10 -->
<g id="edge9_Node000006_Node000010" class="edge">
<title>Node6&#45;&gt;Node10</title>
<g id="a_edge9_Node000006_Node000010"><a xlink:title=" ">
<path fill="none" stroke="#63b8ff" d="M1278.47,-324.49C1292.47,-301.59 1327.11,-236.98 1307,-187 1301.4,-173.08 1289.87,-160.86 1279.52,-151.99"/>
<polygon fill="#63b8ff" stroke="#63b8ff" points="1281.58,-149.16 1271.6,-145.62 1277.2,-154.61 1281.58,-149.16"/>
</a>
</g>
</g>
<!-- Node12 -->
<g id="Node000012" class="node">
<title>Node12</title>
<g id="a_Node000012"><a xlink:href="../../d5/d37/level_8hpp.html" target="_top" xlink:title="Log levels.">
<polygon fill="white" stroke="#666666" points="1230,-211.5 1090,-211.5 1090,-192.5 1230,-192.5 1230,-211.5"/>
<text text-anchor="middle" x="1160" y="-199.5" font-family="Helvetica,sans-Serif" font-size="10.00">userver/logging/level.hpp</text>
</a>
</g>
</g>
<!-- Node6&#45;&gt;Node12 -->
<g id="edge11_Node000006_Node000012" class="edge">
<title>Node6&#45;&gt;Node12</title>
<g id="a_edge11_Node000006_Node000012"><a xlink:title=" ">
<path fill="none" stroke="#63b8ff" d="M1265.59,-324.47C1247.07,-303.17 1198.58,-247.38 1174.29,-219.44"/>
<polygon fill="#63b8ff" stroke="#63b8ff" points="1176.79,-216.98 1167.59,-211.73 1171.51,-221.57 1176.79,-216.98"/>
</a>
</g>
</g>
<!-- Node13 -->
<g id="Node000013" class="node">
<title>Node13</title>
<g id="a_Node000013"><a xlink:href="../../d4/dc3/log__filepath_8hpp.html" target="_top" xlink:title="Short source path calculator.">
<polygon fill="white" stroke="#666666" points="282,-151 172,-151 172,-121 282,-121 282,-151"/>
<text text-anchor="start" x="180" y="-139" font-family="Helvetica,sans-Serif" font-size="10.00">userver/logging/log</text>
<text text-anchor="middle" x="227" y="-128" font-family="Helvetica,sans-Serif" font-size="10.00">_filepath.hpp</text>
</a>
</g>
</g>
<!-- Node6&#45;&gt;Node13 -->
<g id="edge14_Node000006_Node000013" class="edge">
<title>Node6&#45;&gt;Node13</title>
<g id="a_edge14_Node000006_Node000013"><a xlink:title=" ">
<path fill="none" stroke="#63b8ff" d="M1207.22,-330.83C1016.76,-323.66 468.3,-296.47 310,-217 282.86,-203.37 258.73,-177.79 243.58,-159.21"/>
<polygon fill="#63b8ff" stroke="#63b8ff" points="246.22,-156.91 237.27,-151.24 240.73,-161.25 246.22,-156.91"/>
</a>
</g>
</g>
<!-- Node14 -->
<g id="Node000014" class="node">
<title>Node14</title>
<g id="a_Node000014"><a xlink:href="../../db/d94/log__helper_8hpp.html" target="_top" xlink:title=" ">
<polygon fill="white" stroke="#666666" points="829,-283 719,-283 719,-253 829,-253 829,-283"/>
<text text-anchor="start" x="727" y="-271" font-family="Helvetica,sans-Serif" font-size="10.00">userver/logging/log</text>
<text text-anchor="middle" x="774" y="-260" font-family="Helvetica,sans-Serif" font-size="10.00">_helper.hpp</text>
</a>
</g>
</g>
<!-- Node6&#45;&gt;Node14 -->
<g id="edge16_Node000006_Node000014" class="edge">
<title>Node6&#45;&gt;Node14</title>
<g id="a_edge16_Node000006_Node000014"><a xlink:title=" ">
<path fill="none" stroke="#63b8ff" d="M1207.25,-324.57C1111.5,-312.29 934.72,-289.61 839.25,-277.37"/>
<polygon fill="#63b8ff" stroke="#63b8ff" points="839.51,-273.87 829.14,-276.07 838.62,-280.82 839.51,-273.87"/>
</a>
</g>
</g>
<!-- Node9 -->
<g id="Node000009" class="node">
<title>Node9</title>
<g id="a_Node000009"><a xlink:title=" ">
<polygon fill="#e0e0e0" stroke="#999999" points="1658.5,-79.5 1605.5,-79.5 1605.5,-60.5 1658.5,-60.5 1658.5,-79.5"/>
<text text-anchor="middle" x="1632" y="-67.5" font-family="Helvetica,sans-Serif" font-size="10.00">cstddef</text>
</a>
</g>
</g>
<!-- Node8&#45;&gt;Node9 -->
<g id="edge8_Node000008_Node000009" class="edge">
<title>Node8&#45;&gt;Node9</title>
<g id="a_edge8_Node000008_Node000009"><a xlink:title=" ">
<path fill="none" stroke="#63b8ff" d="M1481.47,-126.37C1511.78,-115.22 1564.71,-95.75 1599.04,-83.12"/>
<polygon fill="#63b8ff" stroke="#63b8ff" points="1600.45,-86.33 1608.63,-79.6 1598.03,-79.76 1600.45,-86.33"/>
</a>
</g>
</g>
<!-- Node11 -->
<g id="Node000011" class="node">
<title>Node11</title>
<g id="a_Node000011"><a xlink:title=" ">
<polygon fill="#e0e0e0" stroke="#999999" points="1288,-79.5 1230,-79.5 1230,-60.5 1288,-60.5 1288,-79.5"/>
<text text-anchor="middle" x="1259" y="-67.5" font-family="Helvetica,sans-Serif" font-size="10.00">memory</text>
</a>
</g>
</g>
<!-- Node10&#45;&gt;Node11 -->
<g id="edge10_Node000010_Node000011" class="edge">
<title>Node10&#45;&gt;Node11</title>
<g id="a_edge10_Node000010_Node000011"><a xlink:title=" ">
<path fill="none" stroke="#63b8ff" d="M1259,-126.37C1259,-117.16 1259,-102.29 1259,-90.27"/>
<polygon fill="#63b8ff" stroke="#63b8ff" points="1262.5,-89.91 1259,-79.91 1255.5,-89.91 1262.5,-89.91"/>
</a>
</g>
</g>
<!-- Node12&#45;&gt;Node2 -->
<g id="edge13_Node000012_Node000002" class="edge">
<title>Node12&#45;&gt;Node2</title>
<g id="a_edge13_Node000012_Node000002"><a xlink:title=" ">
<path fill="none" stroke="#63b8ff" d="M1202.91,-192.44C1214.58,-190.37 1227.24,-188.37 1239,-187 1519.33,-154.32 1593.09,-187.15 1873,-151 1885.07,-149.44 1898.18,-146.98 1909.7,-144.55"/>
<polygon fill="#63b8ff" stroke="#63b8ff" points="1910.74,-147.91 1919.76,-142.36 1909.25,-141.07 1910.74,-147.91"/>
</a>
</g>
</g>
<!-- Node12&#45;&gt;Node4 -->
<g id="edge12_Node000012_Node000004" class="edge">
<title>Node12&#45;&gt;Node4</title>
<g id="a_edge12_Node000012_Node000004"><a xlink:title=" ">
<path fill="none" stroke="#63b8ff" d="M1158.11,-192.37C1156.08,-183.07 1152.78,-167.98 1150.13,-155.9"/>
<polygon fill="#63b8ff" stroke="#63b8ff" points="1153.5,-154.93 1147.95,-145.91 1146.67,-156.42 1153.5,-154.93"/>
</a>
</g>
</g>
<!-- Node13&#45;&gt;Node5 -->
<g id="edge15_Node000013_Node000005" class="edge">
<title>Node13&#45;&gt;Node5</title>
<g id="a_edge15_Node000013_Node000005"><a xlink:title=" ">
<path fill="none" stroke="#63b8ff" d="M217.68,-120.8C211.39,-111.21 203.05,-98.5 196.37,-88.32"/>
<polygon fill="#63b8ff" stroke="#63b8ff" points="199.22,-86.28 190.8,-79.84 193.36,-90.13 199.22,-86.28"/>
</a>
</g>
</g>
<!-- Node14&#45;&gt;Node4 -->
<g id="edge22_Node000014_Node000004" class="edge">
<title>Node14&#45;&gt;Node4</title>
<g id="a_edge22_Node000014_Node000004"><a xlink:title=" ">
<path fill="none" stroke="#63b8ff" d="M829.34,-256.83C867.58,-248.72 919.09,-235.61 962,-217 985.08,-206.99 987.41,-198.07 1010,-187 1028.2,-178.09 1077.35,-160.59 1111.29,-148.84"/>
<polygon fill="#63b8ff" stroke="#63b8ff" points="1112.54,-152.12 1120.85,-145.55 1110.26,-145.5 1112.54,-152.12"/>
</a>
</g>
</g>
<!-- Node14&#45;&gt;Node5 -->
<g id="edge23_Node000014_Node000005" class="edge">
<title>Node14&#45;&gt;Node5</title>
<g id="a_edge23_Node000014_Node000005"><a xlink:title=" ">
<path fill="none" stroke="#63b8ff" d="M718.86,-267.37C614.7,-267 394.04,-260.91 334,-217 296.26,-189.4 323.73,-154.38 291,-121 273.46,-103.11 248.27,-90.86 226.84,-82.97"/>
<polygon fill="#63b8ff" stroke="#63b8ff" points="227.9,-79.63 217.3,-79.64 225.59,-86.24 227.9,-79.63"/>
</a>
</g>
</g>
<!-- Node14&#45;&gt;Node7 -->
<g id="edge17_Node000014_Node000007" class="edge">
<title>Node14&#45;&gt;Node7</title>
<g id="a_edge17_Node000014_Node000007"><a xlink:title=" ">
<path fill="none" stroke="#63b8ff" d="M829.3,-266.09C917.33,-263.53 1094.2,-253.8 1239,-217 1241.16,-216.45 1243.37,-215.79 1245.56,-215.06"/>
<polygon fill="#63b8ff" stroke="#63b8ff" points="1246.84,-218.32 1254.97,-211.53 1244.38,-211.77 1246.84,-218.32"/>
</a>
</g>
</g>
<!-- Node14&#45;&gt;Node10 -->
<g id="edge34_Node000014_Node000010" class="edge">
<title>Node14&#45;&gt;Node10</title>
<g id="a_edge34_Node000014_Node000010"><a xlink:title=" ">
<path fill="none" stroke="#63b8ff" d="M829.34,-256.96C875.42,-248.07 942.56,-233.9 1000,-217 1036.83,-206.16 1044.49,-198.87 1081,-187 1126.62,-172.17 1179.64,-157.62 1215.87,-148.07"/>
<polygon fill="#63b8ff" stroke="#63b8ff" points="1216.84,-151.43 1225.62,-145.51 1215.06,-144.66 1216.84,-151.43"/>
</a>
</g>
</g>
<!-- Node14&#45;&gt;Node11 -->
<g id="edge21_Node000014_Node000011" class="edge">
<title>Node14&#45;&gt;Node11</title>
<g id="a_edge21_Node000014_Node000011"><a xlink:title=" ">
<path fill="none" stroke="#63b8ff" d="M829.1,-255.32C859.84,-247.34 898.05,-234.93 929,-217 946.15,-207.07 945.24,-197.58 962,-187 997.73,-164.44 1011.58,-168.59 1050,-151 1076.75,-138.75 1081.86,-132.35 1109,-121 1145.86,-105.59 1189.29,-91.54 1219.91,-82.28"/>
<polygon fill="#63b8ff" stroke="#63b8ff" points="1221.2,-85.55 1229.77,-79.33 1219.19,-78.85 1221.2,-85.55"/>
</a>
</g>
</g>
<!-- Node14&#45;&gt;Node12 -->
<g id="edge35_Node000014_Node000012" class="edge">
<title>Node14&#45;&gt;Node12</title>
<g id="a_edge35_Node000014_Node000012"><a xlink:title=" ">
<path fill="none" stroke="#63b8ff" d="M829.11,-257.89C889.65,-247.89 989.76,-231.33 1076,-217 1083.4,-215.77 1091.17,-214.48 1098.87,-213.2"/>
<polygon fill="#63b8ff" stroke="#63b8ff" points="1099.63,-216.62 1108.92,-211.52 1098.48,-209.71 1099.63,-216.62"/>
</a>
</g>
</g>
<!-- Node15 -->
<g id="Node000015" class="node">
<title>Node15</title>
<g id="a_Node000015"><a xlink:title=" ">
<polygon fill="#e0e0e0" stroke="#999999" points="517.5,-211.5 452.5,-211.5 452.5,-192.5 517.5,-192.5 517.5,-211.5"/>
<text text-anchor="middle" x="485" y="-199.5" font-family="Helvetica,sans-Serif" font-size="10.00">exception</text>
</a>
</g>
</g>
<!-- Node14&#45;&gt;Node15 -->
<g id="edge18_Node000014_Node000015" class="edge">
<title>Node14&#45;&gt;Node15</title>
<g id="a_edge18_Node000014_Node000015"><a xlink:title=" ">
<path fill="none" stroke="#63b8ff" d="M718.85,-258C668.28,-249.25 591.51,-234.71 526,-217 523.37,-216.29 520.66,-215.5 517.95,-214.66"/>
<polygon fill="#63b8ff" stroke="#63b8ff" points="518.85,-211.28 508.25,-211.53 516.69,-217.94 518.85,-211.28"/>
</a>
</g>
</g>
<!-- Node16 -->
<g id="Node000016" class="node">
<title>Node16</title>
<g id="a_Node000016"><a xlink:title=" ">
<polygon fill="#e0e0e0" stroke="#999999" points="424,-145.5 376,-145.5 376,-126.5 424,-126.5 424,-145.5"/>
<text text-anchor="middle" x="400" y="-133.5" font-family="Helvetica,sans-Serif" font-size="10.00">iosfwd</text>
</a>
</g>
</g>
<!-- Node14&#45;&gt;Node16 -->
<g id="edge19_Node000014_Node000016" class="edge">
<title>Node14&#45;&gt;Node16</title>
<g id="a_edge19_Node000014_Node000016"><a xlink:title=" ">
<path fill="none" stroke="#63b8ff" d="M718.9,-265.41C634,-261.91 476.46,-250.91 433,-217 413.88,-202.08 405.75,-174.17 402.36,-155.58"/>
<polygon fill="#63b8ff" stroke="#63b8ff" points="405.81,-155 400.83,-145.65 398.89,-156.07 405.81,-155"/>
</a>
</g>
</g>
<!-- Node17 -->
<g id="Node000017" class="node">
<title>Node17</title>
<g id="a_Node000017"><a xlink:title=" ">
<polygon fill="#e0e0e0" stroke="#999999" points="495.5,-145.5 442.5,-145.5 442.5,-126.5 495.5,-126.5 495.5,-145.5"/>
<text text-anchor="middle" x="469" y="-133.5" font-family="Helvetica,sans-Serif" font-size="10.00">iterator</text>
</a>
</g>
</g>
<!-- Node14&#45;&gt;Node17 -->
<g id="edge20_Node000014_Node000017" class="edge">
<title>Node14&#45;&gt;Node17</title>
<g id="a_edge20_Node000014_Node000017"><a xlink:title=" ">
<path fill="none" stroke="#63b8ff" d="M718.8,-266.98C634.03,-265.65 477.92,-257.59 443,-217 427.43,-198.9 442.35,-171.29 455.17,-153.7"/>
<polygon fill="#63b8ff" stroke="#63b8ff" points="458.15,-155.56 461.51,-145.51 452.62,-151.28 458.15,-155.56"/>
</a>
</g>
</g>
<!-- Node18 -->
<g id="Node000018" class="node">
<title>Node18</title>
<g id="a_Node000018"><a xlink:title=" ">
<polygon fill="#e0e0e0" stroke="#999999" points="616.5,-211.5 535.5,-211.5 535.5,-192.5 616.5,-192.5 616.5,-211.5"/>
<text text-anchor="middle" x="576" y="-199.5" font-family="Helvetica,sans-Serif" font-size="10.00">system_error</text>
</a>
</g>
</g>
<!-- Node14&#45;&gt;Node18 -->
<g id="edge24_Node000014_Node000018" class="edge">
<title>Node14&#45;&gt;Node18</title>
<g id="a_edge24_Node000014_Node000018"><a xlink:title=" ">
<path fill="none" stroke="#63b8ff" d="M730.55,-252.95C695.06,-241.48 645.49,-225.46 612.14,-214.68"/>
<polygon fill="#63b8ff" stroke="#63b8ff" points="612.94,-211.26 602.35,-211.52 610.79,-217.92 612.94,-211.26"/>
</a>
</g>
</g>
<!-- Node19 -->
<g id="Node000019" class="node">
<title>Node19</title>
<g id="a_Node000019"><a xlink:title=" ">
<polygon fill="#e0e0e0" stroke="#999999" points="661.5,-19 592.5,-19 592.5,0 661.5,0 661.5,-19"/>
<text text-anchor="middle" x="627" y="-7" font-family="Helvetica,sans-Serif" font-size="10.00">type_traits</text>
</a>
</g>
</g>
<!-- Node14&#45;&gt;Node19 -->
<g id="edge25_Node000014_Node000019" class="edge">
<title>Node14&#45;&gt;Node19</title>
<g id="a_edge25_Node000014_Node000019"><a xlink:title=" ">
<path fill="none" stroke="#63b8ff" d="M718.81,-265.14C629.49,-261.21 458.17,-249.54 408,-217 379.03,-198.21 376.47,-184.21 367,-151 339.86,-55.9 501,-24.36 582.27,-14.58"/>
<polygon fill="#63b8ff" stroke="#63b8ff" points="582.7,-18.05 592.24,-13.44 581.9,-11.09 582.7,-18.05"/>
</a>
</g>
</g>
<!-- Node20 -->
<g id="Node000020" class="node">
<title>Node20</title>
<g id="a_Node000020"><a xlink:href="../../da/d00/universal_2include_2userver_2formats_2common_2meta_8hpp.html" target="_top" xlink:title="Metaprogramming helpers for converters detection.">
<polygon fill="white" stroke="#666666" points="920,-217 780,-217 780,-187 920,-187 920,-217"/>
<text text-anchor="start" x="788" y="-205" font-family="Helvetica,sans-Serif" font-size="10.00">userver/formats/common</text>
<text text-anchor="middle" x="850" y="-194" font-family="Helvetica,sans-Serif" font-size="10.00">/meta.hpp</text>
</a>
</g>
</g>
<!-- Node14&#45;&gt;Node20 -->
<g id="edge26_Node000014_Node000020" class="edge">
<title>Node14&#45;&gt;Node20</title>
<g id="a_edge26_Node000014_Node000020"><a xlink:title=" ">
<path fill="none" stroke="#63b8ff" d="M790.87,-252.8C801,-244.26 814.08,-233.25 825.35,-223.75"/>
<polygon fill="#63b8ff" stroke="#63b8ff" points="827.79,-226.28 833.18,-217.16 823.28,-220.93 827.79,-226.28"/>
</a>
</g>
</g>
<!-- Node14&#45;&gt;Node25 -->
<g id="edge36_Node000014_Node000025" class="edge">
<title>Node14&#45;&gt;Node25</title>
<g id="a_edge36_Node000014_Node000025"><a xlink:title=" ">
<path fill="none" stroke="#63b8ff" d="M829.46,-266.69C963.1,-265.31 1313.54,-257.87 1614.7,-217.02"/>
<polygon fill="#63b8ff" stroke="#63b8ff" points="1615.51,-220.44 1624.94,-215.62 1614.56,-213.51 1615.51,-220.44"/>
</a>
</g>
</g>
<!-- Node14&#45;&gt;Node32 -->
<g id="edge49_Node000014_Node000032" class="edge">
<title>Node14&#45;&gt;Node32</title>
<g id="a_edge49_Node000014_Node000032"><a xlink:title=" ">
<path fill="none" stroke="#63b8ff" d="M718.8,-261.29C605.67,-249.6 347.79,-222.93 223.92,-210.13"/>
<polygon fill="#63b8ff" stroke="#63b8ff" points="224.1,-206.63 213.79,-209.08 223.38,-213.59 224.1,-206.63"/>
</a>
</g>
</g>
<!-- Node34 -->
<g id="Node000034" class="node">
<title>Node34</title>
<g id="a_Node000034"><a xlink:href="../../d0/d03/universal_2include_2userver_2utils_2meta_8hpp.html" target="_top" xlink:title="Metaprogramming, template variables and concepts.">
<polygon fill="white" stroke="#666666" points="761.5,-211.5 634.5,-211.5 634.5,-192.5 761.5,-192.5 761.5,-211.5"/>
<text text-anchor="middle" x="698" y="-199.5" font-family="Helvetica,sans-Serif" font-size="10.00">userver/utils/meta.hpp</text>
</a>
</g>
</g>
<!-- Node14&#45;&gt;Node34 -->
<g id="edge54_Node000014_Node000034" class="edge">
<title>Node14&#45;&gt;Node34</title>
<g id="a_edge54_Node000014_Node000034"><a xlink:title=" ">
<path fill="none" stroke="#63b8ff" d="M757.13,-252.8C745.05,-242.62 728.79,-228.93 716.38,-218.48"/>
<polygon fill="#63b8ff" stroke="#63b8ff" points="718.41,-215.61 708.5,-211.84 713.9,-220.96 718.41,-215.61"/>
</a>
</g>
</g>
<!-- Node20&#45;&gt;Node19 -->
<g id="edge27_Node000020_Node000019" class="edge">
<title>Node20&#45;&gt;Node19</title>
<g id="a_edge27_Node000020_Node000019"><a xlink:title=" ">
<path fill="none" stroke="#63b8ff" d="M915.92,-186.96C964.97,-175.85 1024.65,-160.64 1032,-151 1040.08,-140.4 1040.09,-131.6 1032,-121 987.99,-63.37 767.68,-28.56 671.75,-15.92"/>
<polygon fill="#63b8ff" stroke="#63b8ff" points="672.14,-12.44 661.77,-14.63 671.24,-19.39 672.14,-12.44"/>
</a>
</g>
</g>
<!-- Node21 -->
<g id="Node000021" class="node">
<title>Node21</title>
<g id="a_Node000021"><a xlink:href="../../d2/dc8/universal_2include_2userver_2formats_2parse_2to_8hpp.html" target="_top" xlink:title="Helper for parsers.">
<polygon fill="white" stroke="#666666" points="1023.5,-151 898.5,-151 898.5,-121 1023.5,-121 1023.5,-151"/>
<text text-anchor="start" x="906.5" y="-139" font-family="Helvetica,sans-Serif" font-size="10.00">userver/formats/parse</text>
<text text-anchor="middle" x="961" y="-128" font-family="Helvetica,sans-Serif" font-size="10.00">/to.hpp</text>
</a>
</g>
</g>
<!-- Node20&#45;&gt;Node21 -->
<g id="edge28_Node000020_Node000021" class="edge">
<title>Node20&#45;&gt;Node21</title>
<g id="a_edge28_Node000020_Node000021"><a xlink:title=" ">
<path fill="none" stroke="#63b8ff" d="M874.36,-186.95C889.97,-177.95 910.45,-166.14 927.58,-156.27"/>
<polygon fill="#63b8ff" stroke="#63b8ff" points="929.78,-159.04 936.7,-151.01 926.29,-152.98 929.78,-159.04"/>
</a>
</g>
</g>
<!-- Node22 -->
<g id="Node000022" class="node">
<title>Node22</title>
<g id="a_Node000022"><a xlink:href="../../d6/d8e/universal_2include_2userver_2formats_2serialize_2to_8hpp.html" target="_top" xlink:title="Helper for serializers.">
<polygon fill="white" stroke="#666666" points="880.5,-151 741.5,-151 741.5,-121 880.5,-121 880.5,-151"/>
<text text-anchor="start" x="749.5" y="-139" font-family="Helvetica,sans-Serif" font-size="10.00">userver/formats/serialize</text>
<text text-anchor="middle" x="811" y="-128" font-family="Helvetica,sans-Serif" font-size="10.00">/to.hpp</text>
</a>
</g>
</g>
<!-- Node20&#45;&gt;Node22 -->
<g id="edge29_Node000020_Node000022" class="edge">
<title>Node20&#45;&gt;Node22</title>
<g id="a_edge29_Node000020_Node000022"><a xlink:title=" ">
<path fill="none" stroke="#63b8ff" d="M841.34,-186.8C836.5,-178.84 830.34,-168.74 824.84,-159.71"/>
<polygon fill="#63b8ff" stroke="#63b8ff" points="827.82,-157.88 819.63,-151.16 821.85,-161.52 827.82,-157.88"/>
</a>
</g>
</g>
<!-- Node23 -->
<g id="Node000023" class="node">
<title>Node23</title>
<g id="a_Node000023"><a xlink:href="../../d3/da0/meta__light_8hpp.html" target="_top" xlink:title="Lightweight concepts.">
<polygon fill="white" stroke="#666666" points="723,-151 617,-151 617,-121 723,-121 723,-151"/>
<text text-anchor="start" x="625" y="-139" font-family="Helvetica,sans-Serif" font-size="10.00">userver/utils/meta</text>
<text text-anchor="middle" x="670" y="-128" font-family="Helvetica,sans-Serif" font-size="10.00">_light.hpp</text>
</a>
</g>
</g>
<!-- Node20&#45;&gt;Node23 -->
<g id="edge30_Node000020_Node000023" class="edge">
<title>Node20&#45;&gt;Node23</title>
<g id="a_edge30_Node000020_Node000023"><a xlink:title=" ">
<path fill="none" stroke="#63b8ff" d="M810.5,-186.95C783.53,-177.37 747.63,-164.6 718.87,-154.37"/>
<polygon fill="#63b8ff" stroke="#63b8ff" points="720,-151.06 709.41,-151.01 717.66,-157.66 720,-151.06"/>
</a>
</g>
</g>
<!-- Node23&#45;&gt;Node19 -->
<g id="edge31_Node000023_Node000019" class="edge">
<title>Node23&#45;&gt;Node19</title>
<g id="a_edge31_Node000023_Node000019"><a xlink:title=" ">
<path fill="none" stroke="#63b8ff" d="M662.3,-120.88C657.16,-111.04 650.54,-97.49 646,-85 639.31,-66.61 634.05,-44.84 630.78,-29.6"/>
<polygon fill="#63b8ff" stroke="#63b8ff" points="634.12,-28.47 628.67,-19.39 627.26,-29.89 634.12,-28.47"/>
</a>
</g>
</g>
<!-- Node24 -->
<g id="Node000024" class="node">
<title>Node24</title>
<g id="a_Node000024"><a xlink:href="../../d9/dce/void__t_8hpp.html" target="_top" xlink:title="std::void_t implementation with workarounds for compiler bugs">
<polygon fill="white" stroke="#666666" points="756.5,-85 655.5,-85 655.5,-55 756.5,-55 756.5,-85"/>
<text text-anchor="start" x="663.5" y="-73" font-family="Helvetica,sans-Serif" font-size="10.00">userver/utils/void</text>
<text text-anchor="middle" x="706" y="-62" font-family="Helvetica,sans-Serif" font-size="10.00">_t.hpp</text>
</a>
</g>
</g>
<!-- Node23&#45;&gt;Node24 -->
<g id="edge32_Node000023_Node000024" class="edge">
<title>Node23&#45;&gt;Node24</title>
<g id="a_edge32_Node000023_Node000024"><a xlink:title=" ">
<path fill="none" stroke="#63b8ff" d="M677.99,-120.8C682.42,-112.92 688.03,-102.95 693.07,-93.99"/>
<polygon fill="#63b8ff" stroke="#63b8ff" points="696.18,-95.6 698.03,-85.16 690.08,-92.16 696.18,-95.6"/>
</a>
</g>
</g>
<!-- Node24&#45;&gt;Node19 -->
<g id="edge33_Node000024_Node000019" class="edge">
<title>Node24&#45;&gt;Node19</title>
<g id="a_edge33_Node000024_Node000019"><a xlink:title=" ">
<path fill="none" stroke="#63b8ff" d="M686.88,-54.84C674.82,-45.91 659.29,-34.41 647.06,-25.35"/>
<polygon fill="#63b8ff" stroke="#63b8ff" points="648.96,-22.4 638.84,-19.27 644.79,-28.03 648.96,-22.4"/>
</a>
</g>
</g>
<!-- Node25&#45;&gt;Node2 -->
<g id="edge38_Node000025_Node000002" class="edge">
<title>Node25&#45;&gt;Node2</title>
<g id="a_edge38_Node000025_Node000002"><a xlink:title=" ">
<path fill="none" stroke="#63b8ff" d="M1735.41,-191.2C1781.54,-182.46 1848.7,-168.37 1906,-151 1907.93,-150.42 1909.89,-149.78 1911.87,-149.1"/>
<polygon fill="#63b8ff" stroke="#63b8ff" points="1913.43,-152.26 1921.63,-145.55 1911.04,-145.68 1913.43,-152.26"/>
</a>
</g>
</g>
<!-- Node25&#45;&gt;Node8 -->
<g id="edge42_Node000025_Node000008" class="edge">
<title>Node25&#45;&gt;Node8</title>
<g id="a_edge42_Node000025_Node000008"><a xlink:title=" ">
<path fill="none" stroke="#63b8ff" d="M1631.28,-186.95C1591.15,-175.38 1534.95,-159.18 1497.56,-148.41"/>
<polygon fill="#63b8ff" stroke="#63b8ff" points="1498.12,-144.92 1487.54,-145.52 1496.18,-151.65 1498.12,-144.92"/>
</a>
</g>
</g>
<!-- Node25&#45;&gt;Node10 -->
<g id="edge43_Node000025_Node000010" class="edge">
<title>Node25&#45;&gt;Node10</title>
<g id="a_edge43_Node000025_Node000010"><a xlink:title=" ">
<path fill="none" stroke="#63b8ff" d="M1624.9,-188.67C1621.89,-188.08 1618.91,-187.52 1616,-187 1563.43,-177.58 1422.28,-158.5 1334.02,-146.82"/>
<polygon fill="#63b8ff" stroke="#63b8ff" points="1334.44,-143.35 1324.06,-145.51 1333.52,-150.29 1334.44,-143.35"/>
</a>
</g>
</g>
<!-- Node26 -->
<g id="Node000026" class="node">
<title>Node26</title>
<g id="a_Node000026"><a xlink:title=" ">
<polygon fill="#e0e0e0" stroke="#999999" points="1635.5,-145.5 1552.5,-145.5 1552.5,-126.5 1635.5,-126.5 1635.5,-145.5"/>
<text text-anchor="middle" x="1594" y="-133.5" font-family="Helvetica,sans-Serif" font-size="10.00">initializer_list</text>
</a>
</g>
</g>
<!-- Node25&#45;&gt;Node26 -->
<g id="edge37_Node000025_Node000026" class="edge">
<title>Node25&#45;&gt;Node26</title>
<g id="a_edge37_Node000025_Node000026"><a xlink:title=" ">
<path fill="none" stroke="#63b8ff" d="M1660.91,-186.8C1646.98,-176.43 1628.14,-162.4 1614,-151.88"/>
<polygon fill="#63b8ff" stroke="#63b8ff" points="1616,-149.01 1605.88,-145.84 1611.82,-154.62 1616,-149.01"/>
</a>
</g>
</g>
<!-- Node27 -->
<g id="Node000027" class="node">
<title>Node27</title>
<g id="a_Node000027"><a xlink:title=" ">
<polygon fill="#e0e0e0" stroke="#999999" points="1925.5,-79.5 1880.5,-79.5 1880.5,-60.5 1925.5,-60.5 1925.5,-79.5"/>
<text text-anchor="middle" x="1903" y="-67.5" font-family="Helvetica,sans-Serif" font-size="10.00">utility</text>
</a>
</g>
</g>
<!-- Node25&#45;&gt;Node27 -->
<g id="edge39_Node000025_Node000027" class="edge">
<title>Node25&#45;&gt;Node27</title>
<g id="a_edge39_Node000025_Node000027"><a xlink:title=" ">
<path fill="none" stroke="#63b8ff" d="M1735.04,-200C1777.55,-196.39 1835.31,-184.92 1873,-151 1890.53,-135.22 1897.86,-108.18 1900.89,-89.96"/>
<polygon fill="#63b8ff" stroke="#63b8ff" points="1904.38,-90.31 1902.28,-79.93 1897.44,-89.35 1904.38,-90.31"/>
</a>
</g>
</g>
<!-- Node28 -->
<g id="Node000028" class="node">
<title>Node28</title>
<g id="a_Node000028"><a xlink:title=" ">
<polygon fill="#e0e0e0" stroke="#999999" points="1704.5,-145.5 1653.5,-145.5 1653.5,-126.5 1704.5,-126.5 1704.5,-145.5"/>
<text text-anchor="middle" x="1679" y="-133.5" font-family="Helvetica,sans-Serif" font-size="10.00">variant</text>
</a>
</g>
</g>
<!-- Node25&#45;&gt;Node28 -->
<g id="edge40_Node000025_Node000028" class="edge">
<title>Node25&#45;&gt;Node28</title>
<g id="a_edge40_Node000025_Node000028"><a xlink:title=" ">
<path fill="none" stroke="#63b8ff" d="M1679.78,-186.8C1679.64,-177.7 1679.45,-165.79 1679.3,-155.9"/>
<polygon fill="#63b8ff" stroke="#63b8ff" points="1682.79,-155.79 1679.14,-145.84 1675.79,-155.9 1682.79,-155.79"/>
</a>
</g>
</g>
<!-- Node29 -->
<g id="Node000029" class="node">
<title>Node29</title>
<g id="a_Node000029"><a xlink:title=" ">
<polygon fill="#e0e0e0" stroke="#999999" points="1863.5,-151 1722.5,-151 1722.5,-121 1863.5,-121 1863.5,-151"/>
<text text-anchor="start" x="1730.5" y="-139" font-family="Helvetica,sans-Serif" font-size="10.00">boost/container/container</text>
<text text-anchor="middle" x="1793" y="-128" font-family="Helvetica,sans-Serif" font-size="10.00">_fwd.hpp</text>
</a>
</g>
</g>
<!-- Node25&#45;&gt;Node29 -->
<g id="edge41_Node000025_Node000029" class="edge">
<title>Node25&#45;&gt;Node29</title>
<g id="a_edge41_Node000025_Node000029"><a xlink:title=" ">
<path fill="none" stroke="#63b8ff" d="M1704.8,-186.95C1720.84,-177.87 1741.93,-165.93 1759.46,-156"/>
<polygon fill="#63b8ff" stroke="#63b8ff" points="1761.28,-158.99 1768.26,-151.01 1757.83,-152.9 1761.28,-158.99"/>
</a>
</g>
</g>
<!-- Node25&#45;&gt;Node30 -->
<g id="edge44_Node000025_Node000030" class="edge">
<title>Node25&#45;&gt;Node30</title>
<g id="a_edge44_Node000025_Node000030"><a xlink:title=" ">
<path fill="none" stroke="#63b8ff" d="M1735.01,-192.69C1791.9,-183.85 1883.53,-168.95 1972.49,-151.02"/>
<polygon fill="#63b8ff" stroke="#63b8ff" points="1973.37,-154.41 1982.48,-148.99 1971.98,-147.55 1973.37,-154.41"/>
</a>
</g>
</g>
<!-- Node30&#45;&gt;Node9 -->
<g id="edge45_Node000030_Node000009" class="edge">
<title>Node30&#45;&gt;Node9</title>
<g id="a_edge45_Node000030_Node000009"><a xlink:title=" ">
<path fill="none" stroke="#63b8ff" d="M1982.49,-122.92C1979.29,-122.24 1976.1,-121.59 1973,-121 1863.01,-99.93 1731.57,-82.94 1668.84,-75.33"/>
<polygon fill="#63b8ff" stroke="#63b8ff" points="1669.01,-71.82 1658.66,-74.1 1668.17,-78.77 1669.01,-71.82"/>
</a>
</g>
</g>
<!-- Node30&#45;&gt;Node19 -->
<g id="edge47_Node000030_Node000019" class="edge">
<title>Node30&#45;&gt;Node19</title>
<g id="a_edge47_Node000030_Node000019"><a xlink:title=" ">
<path fill="none" stroke="#63b8ff" d="M2020.31,-120.75C2003.67,-101.68 1971.14,-68.68 1935,-55 1814.91,-9.55 887.07,-9.67 671.59,-10.32"/>
<polygon fill="#63b8ff" stroke="#63b8ff" points="671.58,-6.82 661.59,-10.35 671.6,-13.82 671.58,-6.82"/>
</a>
</g>
</g>
<!-- Node30&#45;&gt;Node27 -->
<g id="edge48_Node000030_Node000027" class="edge">
<title>Node30&#45;&gt;Node27</title>
<g id="a_edge48_Node000030_Node000027"><a xlink:title=" ">
<path fill="none" stroke="#63b8ff" d="M2003.69,-120.95C1981.57,-109.98 1951.04,-94.83 1929.42,-84.11"/>
<polygon fill="#63b8ff" stroke="#63b8ff" points="1930.68,-80.83 1920.17,-79.52 1927.57,-87.1 1930.68,-80.83"/>
</a>
</g>
</g>
<!-- Node31 -->
<g id="Node000031" class="node">
<title>Node31</title>
<g id="a_Node000031"><a xlink:title=" ">
<polygon fill="#e0e0e0" stroke="#999999" points="2050.5,-79.5 2013.5,-79.5 2013.5,-60.5 2050.5,-60.5 2050.5,-79.5"/>
<text text-anchor="middle" x="2032" y="-67.5" font-family="Helvetica,sans-Serif" font-size="10.00">new</text>
</a>
</g>
</g>
<!-- Node30&#45;&gt;Node31 -->
<g id="edge46_Node000030_Node000031" class="edge">
<title>Node30&#45;&gt;Node31</title>
<g id="a_edge46_Node000030_Node000031"><a xlink:title=" ">
<path fill="none" stroke="#63b8ff" d="M2032,-120.8C2032,-111.7 2032,-99.79 2032,-89.9"/>
<polygon fill="#63b8ff" stroke="#63b8ff" points="2035.5,-89.84 2032,-79.84 2028.5,-89.84 2035.5,-89.84"/>
</a>
</g>
</g>
<!-- Node32&#45;&gt;Node5 -->
<g id="edge51_Node000032_Node000005" class="edge">
<title>Node32&#45;&gt;Node5</title>
<g id="a_edge51_Node000032_Node000005"><a xlink:title=" ">
<path fill="none" stroke="#63b8ff" d="M155.08,-186.89C155.47,-170.72 157.07,-143.54 163,-121 165.94,-109.82 171.07,-97.95 175.63,-88.58"/>
<polygon fill="#63b8ff" stroke="#63b8ff" points="178.82,-90.05 180.24,-79.55 172.58,-86.87 178.82,-90.05"/>
</a>
</g>
</g>
<!-- Node32&#45;&gt;Node13 -->
<g id="edge53_Node000032_Node000013" class="edge">
<title>Node32&#45;&gt;Node13</title>
<g id="a_edge53_Node000032_Node000013"><a xlink:title=" ">
<path fill="none" stroke="#63b8ff" d="M170.98,-186.8C180.49,-178.34 192.73,-167.46 203.34,-158.03"/>
<polygon fill="#63b8ff" stroke="#63b8ff" points="205.92,-160.42 211.07,-151.16 201.27,-155.19 205.92,-160.42"/>
</a>
</g>
</g>
<!-- Node32&#45;&gt;Node19 -->
<g id="edge52_Node000032_Node000019" class="edge">
<title>Node32&#45;&gt;Node19</title>
<g id="a_edge52_Node000032_Node000019"><a xlink:title=" ">
<path fill="none" stroke="#63b8ff" d="M103.35,-186.97C85.49,-179.37 67.37,-167.94 57,-151 21.11,-92.4 132.79,-57.51 139,-55 218.78,-22.74 477.22,-13.68 582.12,-11.29"/>
<polygon fill="#63b8ff" stroke="#63b8ff" points="582.45,-14.79 592.38,-11.07 582.3,-7.79 582.45,-14.79"/>
</a>
</g>
</g>
<!-- Node33 -->
<g id="Node000033" class="node">
<title>Node33</title>
<g id="a_Node000033"><a xlink:title=" ">
<polygon fill="#e0e0e0" stroke="#999999" points="116,-145.5 66,-145.5 66,-126.5 116,-126.5 116,-145.5"/>
<text text-anchor="middle" x="91" y="-133.5" font-family="Helvetica,sans-Serif" font-size="10.00">cstdint</text>
</a>
</g>
</g>
<!-- Node32&#45;&gt;Node33 -->
<g id="edge50_Node000032_Node000033" class="edge">
<title>Node32&#45;&gt;Node33</title>
<g id="a_edge50_Node000032_Node000033"><a xlink:title=" ">
<path fill="none" stroke="#63b8ff" d="M140.8,-186.8C130.82,-176.82 117.46,-163.46 107.09,-153.09"/>
<polygon fill="#63b8ff" stroke="#63b8ff" points="109.39,-150.44 99.84,-145.84 104.44,-155.39 109.39,-150.44"/>
</a>
</g>
</g>
<!-- Node34&#45;&gt;Node4 -->
<g id="edge57_Node000034_Node000004" class="edge">
<title>Node34&#45;&gt;Node4</title>
<g id="a_edge57_Node000034_Node000004"><a xlink:title=" ">
<path fill="none" stroke="#63b8ff" d="M740.39,-192.45C750.41,-190.54 761.06,-188.61 771,-187 835.44,-176.53 1025.92,-152.17 1107.84,-141.81"/>
<polygon fill="#63b8ff" stroke="#63b8ff" points="1108.48,-145.25 1117.96,-140.53 1107.6,-138.31 1108.48,-145.25"/>
</a>
</g>
</g>
<!-- Node34&#45;&gt;Node16 -->
<g id="edge55_Node000034_Node000016" class="edge">
<title>Node34&#45;&gt;Node16</title>
<g id="a_edge55_Node000034_Node000016"><a xlink:title=" ">
<path fill="none" stroke="#63b8ff" d="M653.61,-192.46C644.17,-190.65 634.26,-188.76 625,-187 539.7,-170.82 516.11,-176.1 433,-151 431.32,-150.49 429.61,-149.93 427.9,-149.32"/>
<polygon fill="#63b8ff" stroke="#63b8ff" points="428.83,-145.93 418.24,-145.57 426.29,-152.45 428.83,-145.93"/>
</a>
</g>
</g>
<!-- Node34&#45;&gt;Node17 -->
<g id="edge56_Node000034_Node000017" class="edge">
<title>Node34&#45;&gt;Node17</title>
<g id="a_edge56_Node000034_Node000017"><a xlink:title=" ">
<path fill="none" stroke="#63b8ff" d="M658.93,-192.48C619.45,-183.52 556.89,-168.31 504,-151 502.33,-150.45 500.63,-149.87 498.92,-149.26"/>
<polygon fill="#63b8ff" stroke="#63b8ff" points="499.79,-145.85 489.2,-145.59 497.32,-152.39 499.79,-145.85"/>
</a>
</g>
</g>
<!-- Node34&#45;&gt;Node19 -->
<g id="edge58_Node000034_Node000019" class="edge">
<title>Node34&#45;&gt;Node19</title>
<g id="a_edge58_Node000034_Node000019"><a xlink:title=" ">
<path fill="none" stroke="#63b8ff" d="M666.24,-192.47C645.68,-185.13 620.51,-172.26 608,-151 584.99,-111.89 604.97,-56.24 617.96,-28.16"/>
<polygon fill="#63b8ff" stroke="#63b8ff" points="621.12,-29.67 622.34,-19.15 614.82,-26.61 621.12,-29.67"/>
</a>
</g>
</g>
<!-- Node34&#45;&gt;Node23 -->
<g id="edge60_Node000034_Node000023" class="edge">
<title>Node34&#45;&gt;Node23</title>
<g id="a_edge60_Node000034_Node000023"><a xlink:title=" ">
<path fill="none" stroke="#63b8ff" d="M694.22,-192.37C690.67,-184.24 685.18,-171.69 680.32,-160.59"/>
<polygon fill="#63b8ff" stroke="#63b8ff" points="683.5,-159.12 676.28,-151.36 677.08,-161.92 683.5,-159.12"/>
</a>
</g>
</g>
<!-- Node35 -->
<g id="Node000035" class="node">
<title>Node35</title>
<g id="a_Node000035"><a xlink:title=" ">
<polygon fill="#e0e0e0" stroke="#999999" points="560.5,-145.5 513.5,-145.5 513.5,-126.5 560.5,-126.5 560.5,-145.5"/>
<text text-anchor="middle" x="537" y="-133.5" font-family="Helvetica,sans-Serif" font-size="10.00">vector</text>
</a>
</g>
</g>
<!-- Node34&#45;&gt;Node35 -->
<g id="edge59_Node000034_Node000035" class="edge">
<title>Node34&#45;&gt;Node35</title>
<g id="a_edge59_Node000034_Node000035"><a xlink:title=" ">
<path fill="none" stroke="#63b8ff" d="M676.29,-192.37C648.48,-181.32 600.1,-162.08 568.32,-149.45"/>
<polygon fill="#63b8ff" stroke="#63b8ff" points="569.21,-146.04 558.63,-145.6 566.63,-152.54 569.21,-146.04"/>
</a>
</g>
</g>
<!-- Node36&#45;&gt;Node2 -->
<g id="edge66_Node000036_Node000002" class="edge">
<title>Node36&#45;&gt;Node2</title>
<g id="a_edge66_Node000036_Node000002"><a xlink:title=" ">
<path fill="none" stroke="#63b8ff" d="M1637.5,-252.9C1667.84,-243.29 1708.52,-229.99 1744,-217 1804.56,-194.83 1874.24,-165.85 1912.69,-149.55"/>
<polygon fill="#63b8ff" stroke="#63b8ff" points="1914.38,-152.64 1922.22,-145.5 1911.64,-146.19 1914.38,-152.64"/>
</a>
</g>
</g>
<!-- Node36&#45;&gt;Node4 -->
<g id="edge65_Node000036_Node000004" class="edge">
<title>Node36&#45;&gt;Node4</title>
<g id="a_edge65_Node000036_Node000004"><a xlink:title=" ">
<path fill="none" stroke="#63b8ff" d="M1542,-252.94C1436.71,-223.32 1200.39,-156.74 1183,-151 1181.14,-150.39 1179.24,-149.74 1177.32,-149.06"/>
<polygon fill="#63b8ff" stroke="#63b8ff" points="1178.4,-145.73 1167.8,-145.6 1176,-152.31 1178.4,-145.73"/>
</a>
</g>
</g>
<!-- Node36&#45;&gt;Node7 -->
<g id="edge64_Node000036_Node000007" class="edge">
<title>Node36&#45;&gt;Node7</title>
<g id="a_edge64_Node000036_Node000007"><a xlink:title=" ">
<path fill="none" stroke="#63b8ff" d="M1530.87,-254.74C1464.89,-241.5 1362.08,-220.87 1308.37,-210.1"/>
<polygon fill="#63b8ff" stroke="#63b8ff" points="1308.81,-206.61 1298.31,-208.08 1307.43,-213.48 1308.81,-206.61"/>
</a>
</g>
</g>
<!-- Node36&#45;&gt;Node25 -->
<g id="edge67_Node000036_Node000025" class="edge">
<title>Node36&#45;&gt;Node25</title>
<g id="a_edge67_Node000036_Node000025"><a xlink:title=" ">
<path fill="none" stroke="#63b8ff" d="M1611.53,-252.8C1623.49,-244.1 1638.99,-232.82 1652.22,-223.2"/>
<polygon fill="#63b8ff" stroke="#63b8ff" points="1654.5,-225.88 1660.52,-217.16 1650.38,-220.22 1654.5,-225.88"/>
</a>
</g>
</g>
<!-- Node37 -->
<g id="Node000037" class="node">
<title>Node37</title>
<g id="a_Node000037"><a xlink:title=" ">
<polygon fill="#e0e0e0" stroke="#999999" points="1607,-211.5 1557,-211.5 1557,-192.5 1607,-192.5 1607,-211.5"/>
<text text-anchor="middle" x="1582" y="-199.5" font-family="Helvetica,sans-Serif" font-size="10.00">atomic</text>
</a>
</g>
</g>
<!-- Node36&#45;&gt;Node37 -->
<g id="edge63_Node000036_Node000037" class="edge">
<title>Node36&#45;&gt;Node37</title>
<g id="a_edge63_Node000036_Node000037"><a xlink:title=" ">
<path fill="none" stroke="#63b8ff" d="M1589.78,-252.8C1588.36,-243.7 1586.5,-231.79 1584.95,-221.9"/>
<polygon fill="#63b8ff" stroke="#63b8ff" points="1588.38,-221.18 1583.38,-211.84 1581.47,-222.26 1588.38,-221.18"/>
</a>
</g>
</g>
<!-- Node38&#45;&gt;Node11 -->
<g id="edge69_Node000038_Node000011" class="edge">
<title>Node38&#45;&gt;Node11</title>
<g id="a_edge69_Node000038_Node000011"><a xlink:title=" ">
<path fill="none" stroke="#63b8ff" d="M1442.94,-252.92C1424.76,-225.39 1381.6,-163.42 1335,-121 1319.53,-106.91 1299.71,-94.01 1284.19,-84.85"/>
<polygon fill="#63b8ff" stroke="#63b8ff" points="1285.58,-81.6 1275.16,-79.64 1282.08,-87.67 1285.58,-81.6"/>
</a>
</g>
</g>
</g>
</svg>
