<?xml version="1.0" encoding="UTF-8" standalone="no"?>
<!DOCTYPE svg PUBLIC "-//W3C//DTD SVG 1.1//EN"
 "http://www.w3.org/Graphics/SVG/1.1/DTD/svg11.dtd">
<!-- Generated by graphviz version 2.43.0 (0)
 -->
<!-- Title: redis::MetricsSettings Pages: 1 -->
<svg width="285pt" height="104pt"
 viewBox="0.00 0.00 285.00 104.00" xmlns="http://www.w3.org/2000/svg" xmlns:xlink="http://www.w3.org/1999/xlink">
<g id="graph0" class="graph" transform="scale(1 1) rotate(0) translate(4 100)">
<title>redis::MetricsSettings</title>
<!-- Node1 -->
<g id="Node000001" class="node">
<title>Node1</title>
<g id="a_Node000001"><a xlink:title=" ">
<polygon fill="#999999" stroke="#666666" points="192,-19 70,-19 70,0 192,0 192,-19"/>
<text text-anchor="middle" x="131" y="-7" font-family="Helvetica,sans-Serif" font-size="10.00">redis::MetricsSettings</text>
</a>
</g>
</g>
<!-- Node2 -->
<g id="Node000002" class="node">
<title>Node2</title>
<g id="a_Node000002"><a xlink:href="../../d0/d23/structredis_1_1MetricsSettings_1_1StaticSettings.html" target="_top" xlink:title=" ">
<polygon fill="white" stroke="#bfbfbf" points="122,-96 0,-96 0,-66 122,-66 122,-96"/>
<text text-anchor="start" x="8" y="-84" font-family="Helvetica,sans-Serif" font-size="10.00">redis::MetricsSettings</text>
<text text-anchor="middle" x="61" y="-73" font-family="Helvetica,sans-Serif" font-size="10.00">::StaticSettings</text>
</a>
</g>
</g>
<!-- Node2&#45;&gt;Node1 -->
<g id="edge1_Node000001_Node000002" class="edge">
<title>Node2&#45;&gt;Node1</title>
<g id="a_edge1_Node000001_Node000002"><a xlink:title=" ">
<path fill="none" stroke="#9a32cd" stroke-dasharray="5,2" d="M82.4,-58.53C89.28,-51.64 96.95,-43.98 104,-37 109.97,-31.08 116.72,-24.46 121.98,-19.31"/>
<polygon fill="#9a32cd" stroke="#9a32cd" points="79.89,-56.08 75.3,-65.63 84.84,-61.03 79.89,-56.08"/>
</a>
</g>
<text text-anchor="middle" x="141.5" y="-40" font-family="Helvetica,sans-Serif" font-size="10.00" fill="grey"> static_settings</text>
</g>
<!-- Node3 -->
<g id="Node000003" class="node">
<title>Node3</title>
<g id="a_Node000003"><a xlink:href="../../d8/d8f/structredis_1_1MetricsSettings_1_1DynamicSettings.html" target="_top" xlink:title=" ">
<polygon fill="white" stroke="#bfbfbf" points="262,-96 140,-96 140,-66 262,-66 262,-96"/>
<text text-anchor="start" x="148" y="-84" font-family="Helvetica,sans-Serif" font-size="10.00">redis::MetricsSettings</text>
<text text-anchor="middle" x="201" y="-73" font-family="Helvetica,sans-Serif" font-size="10.00">::DynamicSettings</text>
</a>
</g>
</g>
<!-- Node3&#45;&gt;Node1 -->
<g id="edge2_Node000001_Node000003" class="edge">
<title>Node3&#45;&gt;Node1</title>
<g id="a_edge2_Node000001_Node000003"><a xlink:title=" ">
<path fill="none" stroke="#9a32cd" stroke-dasharray="5,2" d="M192.02,-56.35C188.66,-49.56 184.33,-42.5 179,-37 171.71,-29.48 161.83,-23.53 152.92,-19.19"/>
<polygon fill="#9a32cd" stroke="#9a32cd" points="189.01,-58.19 196.26,-65.91 195.41,-55.35 189.01,-58.19"/>
</a>
</g>
<text text-anchor="middle" x="232" y="-40" font-family="Helvetica,sans-Serif" font-size="10.00" fill="grey"> dynamic_settings</text>
</g>
</g>
</svg>
