<?xml version="1.0" encoding="UTF-8" standalone="no"?>
<!DOCTYPE svg PUBLIC "-//W3C//DTD SVG 1.1//EN"
 "http://www.w3.org/Graphics/SVG/1.1/DTD/svg11.dtd">
<!-- Generated by graphviz version 2.43.0 (0)
 -->
<!-- Title: userver/utils/time_of_day.hpp Pages: 1 -->
<svg width="601pt" height="500pt"
 viewBox="0.00 0.00 601.00 500.00" xmlns="http://www.w3.org/2000/svg" xmlns:xlink="http://www.w3.org/1999/xlink">
<g id="graph0" class="graph" transform="scale(1 1) rotate(0) translate(4 496)">
<title>userver/utils/time_of_day.hpp</title>
<!-- Node1 -->
<g id="Node000001" class="node">
<title>Node1</title>
<g id="a_Node000001"><a xlink:title="A simple implementation of a &quot;time since midnight&quot; datatype.">
<polygon fill="#999999" stroke="#666666" points="264,-492 161,-492 161,-462 264,-462 264,-492"/>
<text text-anchor="start" x="169" y="-480" font-family="Helvetica,sans-Serif" font-size="10.00">userver/utils/time</text>
<text text-anchor="middle" x="212.5" y="-469" font-family="Helvetica,sans-Serif" font-size="10.00">_of_day.hpp</text>
</a>
</g>
</g>
<!-- Node2 -->
<g id="Node000002" class="node">
<title>Node2</title>
<g id="a_Node000002"><a xlink:href="../../db/dfa/universal_2include_2userver_2formats_2parse_2time__of__day_8hpp.html" target="_top" xlink:title="utils::datetime::TimeOfDay parser for any format">
<polygon fill="white" stroke="#666666" points="125,-426 0,-426 0,-396 125,-396 125,-426"/>
<text text-anchor="start" x="8" y="-414" font-family="Helvetica,sans-Serif" font-size="10.00">userver/formats/parse</text>
<text text-anchor="middle" x="62.5" y="-403" font-family="Helvetica,sans-Serif" font-size="10.00">/time_of_day.hpp</text>
</a>
</g>
</g>
<!-- Node1&#45;&gt;Node2 -->
<g id="edge1_Node000001_Node000002" class="edge">
<title>Node1&#45;&gt;Node2</title>
<g id="a_edge1_Node000001_Node000002"><a xlink:title=" ">
<path fill="none" stroke="#63b8ff" d="M170.12,-457.92C146.42,-447.8 117.31,-435.38 95.34,-426.01"/>
<polygon fill="#63b8ff" stroke="#63b8ff" points="169.01,-461.25 179.58,-461.95 171.76,-454.81 169.01,-461.25"/>
</a>
</g>
</g>
<!-- Node3 -->
<g id="Node000003" class="node">
<title>Node3</title>
<g id="a_Node000003"><a xlink:href="../../df/d95/universal_2include_2userver_2formats_2serialize_2time__of__day_8hpp.html" target="_top" xlink:title="utils::datetime::TimeOfDay to any format">
<polygon fill="white" stroke="#666666" points="282,-426 143,-426 143,-396 282,-396 282,-426"/>
<text text-anchor="start" x="151" y="-414" font-family="Helvetica,sans-Serif" font-size="10.00">userver/formats/serialize</text>
<text text-anchor="middle" x="212.5" y="-403" font-family="Helvetica,sans-Serif" font-size="10.00">/time_of_day.hpp</text>
</a>
</g>
</g>
<!-- Node1&#45;&gt;Node3 -->
<g id="edge2_Node000001_Node000003" class="edge">
<title>Node1&#45;&gt;Node3</title>
<g id="a_edge2_Node000001_Node000003"><a xlink:title=" ">
<path fill="none" stroke="#63b8ff" d="M212.5,-451.54C212.5,-442.96 212.5,-433.61 212.5,-426.16"/>
<polygon fill="#63b8ff" stroke="#63b8ff" points="209,-451.8 212.5,-461.8 216,-451.8 209,-451.8"/>
</a>
</g>
</g>
<!-- Node4 -->
<g id="Node000004" class="node">
<title>Node4</title>
<g id="a_Node000004"><a xlink:href="../../d5/d8e/postgresql_2include_2userver_2storages_2postgres_2io_2time__of__day_8hpp.html" target="_top" xlink:title="utils::datetime::TimeOfDay I/O support">
<polygon fill="white" stroke="#666666" points="443,-426 300,-426 300,-396 443,-396 443,-426"/>
<text text-anchor="start" x="308" y="-414" font-family="Helvetica,sans-Serif" font-size="10.00">userver/storages/postgres</text>
<text text-anchor="middle" x="371.5" y="-403" font-family="Helvetica,sans-Serif" font-size="10.00">/io/time_of_day.hpp</text>
</a>
</g>
</g>
<!-- Node1&#45;&gt;Node4 -->
<g id="edge3_Node000001_Node000004" class="edge">
<title>Node1&#45;&gt;Node4</title>
<g id="a_edge3_Node000001_Node000004"><a xlink:title=" ">
<path fill="none" stroke="#63b8ff" d="M256.75,-458.19C282,-448.02 313.2,-435.47 336.69,-426.01"/>
<polygon fill="#63b8ff" stroke="#63b8ff" points="255.36,-454.97 247.39,-461.95 257.98,-461.47 255.36,-454.97"/>
</a>
</g>
</g>
<!-- Node5 -->
<g id="Node000005" class="node">
<title>Node5</title>
<g id="a_Node000005"><a xlink:href="../../dc/da2/postgresql_2include_2userver_2storages_2postgres_2io_2supported__types_8hpp.html" target="_top" xlink:title="Includes parsers and formatters for all supported data types; prefer using the type specific include ...">
<polygon fill="white" stroke="#666666" points="443,-360 300,-360 300,-330 443,-330 443,-360"/>
<text text-anchor="start" x="308" y="-348" font-family="Helvetica,sans-Serif" font-size="10.00">userver/storages/postgres</text>
<text text-anchor="middle" x="371.5" y="-337" font-family="Helvetica,sans-Serif" font-size="10.00">/io/supported_types.hpp</text>
</a>
</g>
</g>
<!-- Node4&#45;&gt;Node5 -->
<g id="edge4_Node000004_Node000005" class="edge">
<title>Node4&#45;&gt;Node5</title>
<g id="a_edge4_Node000004_Node000005"><a xlink:title=" ">
<path fill="none" stroke="#63b8ff" d="M371.5,-385.54C371.5,-376.96 371.5,-367.61 371.5,-360.16"/>
<polygon fill="#63b8ff" stroke="#63b8ff" points="368,-385.8 371.5,-395.8 375,-385.8 368,-385.8"/>
</a>
</g>
</g>
<!-- Node6 -->
<g id="Node000006" class="node">
<title>Node6</title>
<g id="a_Node000006"><a xlink:href="../../de/d1d/result__set_8hpp.html" target="_top" xlink:title="Result accessors.">
<polygon fill="white" stroke="#666666" points="443,-294 300,-294 300,-264 443,-264 443,-294"/>
<text text-anchor="start" x="308" y="-282" font-family="Helvetica,sans-Serif" font-size="10.00">userver/storages/postgres</text>
<text text-anchor="middle" x="371.5" y="-271" font-family="Helvetica,sans-Serif" font-size="10.00">/result_set.hpp</text>
</a>
</g>
</g>
<!-- Node5&#45;&gt;Node6 -->
<g id="edge5_Node000005_Node000006" class="edge">
<title>Node5&#45;&gt;Node6</title>
<g id="a_edge5_Node000005_Node000006"><a xlink:title=" ">
<path fill="none" stroke="#63b8ff" d="M371.5,-319.54C371.5,-310.96 371.5,-301.61 371.5,-294.16"/>
<polygon fill="#63b8ff" stroke="#63b8ff" points="368,-319.8 371.5,-329.8 375,-319.8 368,-319.8"/>
</a>
</g>
</g>
<!-- Node7 -->
<g id="Node000007" class="node">
<title>Node7</title>
<g id="a_Node000007"><a xlink:href="../../d2/de3/portal_8hpp_source.html" target="_top" xlink:title=" ">
<polygon fill="white" stroke="#666666" points="393,-228 250,-228 250,-198 393,-198 393,-228"/>
<text text-anchor="start" x="258" y="-216" font-family="Helvetica,sans-Serif" font-size="10.00">userver/storages/postgres</text>
<text text-anchor="middle" x="321.5" y="-205" font-family="Helvetica,sans-Serif" font-size="10.00">/portal.hpp</text>
</a>
</g>
</g>
<!-- Node6&#45;&gt;Node7 -->
<g id="edge6_Node000006_Node000007" class="edge">
<title>Node6&#45;&gt;Node7</title>
<g id="a_edge6_Node000006_Node000007"><a xlink:title=" ">
<path fill="none" stroke="#63b8ff" d="M354.16,-255.81C347,-246.64 338.9,-236.28 332.57,-228.16"/>
<polygon fill="#63b8ff" stroke="#63b8ff" points="351.49,-258.07 360.4,-263.8 357,-253.76 351.49,-258.07"/>
</a>
</g>
</g>
<!-- Node8 -->
<g id="Node000008" class="node">
<title>Node8</title>
<g id="a_Node000008"><a xlink:href="../../da/deb/postgresql_2include_2userver_2storages_2postgres_2transaction_8hpp.html" target="_top" xlink:title="Transactions.">
<polygon fill="white" stroke="#666666" points="344,-162 201,-162 201,-132 344,-132 344,-162"/>
<text text-anchor="start" x="209" y="-150" font-family="Helvetica,sans-Serif" font-size="10.00">userver/storages/postgres</text>
<text text-anchor="middle" x="272.5" y="-139" font-family="Helvetica,sans-Serif" font-size="10.00">/transaction.hpp</text>
</a>
</g>
</g>
<!-- Node6&#45;&gt;Node8 -->
<g id="edge15_Node000006_Node000008" class="edge">
<title>Node6&#45;&gt;Node8</title>
<g id="a_edge15_Node000006_Node000008"><a xlink:title=" ">
<path fill="none" stroke="#63b8ff" d="M290.29,-263.82C270.84,-256.41 252.31,-245.14 240.5,-228 226.16,-207.18 244.7,-178.98 258.96,-162.22"/>
<polygon fill="#63b8ff" stroke="#63b8ff" points="289.29,-267.18 299.89,-267.15 291.59,-260.57 289.29,-267.18"/>
</a>
</g>
</g>
<!-- Node11 -->
<g id="Node000011" class="node">
<title>Node11</title>
<g id="a_Node000011"><a xlink:href="../../df/d02/postgres_8hpp.html" target="_top" xlink:title=" ">
<polygon fill="white" stroke="#666666" points="263,-30 120,-30 120,0 263,0 263,-30"/>
<text text-anchor="start" x="128" y="-18" font-family="Helvetica,sans-Serif" font-size="10.00">userver/storages/postgres</text>
<text text-anchor="middle" x="191.5" y="-7" font-family="Helvetica,sans-Serif" font-size="10.00">/postgres.hpp</text>
</a>
</g>
</g>
<!-- Node6&#45;&gt;Node11 -->
<g id="edge12_Node000006_Node000011" class="edge">
<title>Node6&#45;&gt;Node11</title>
<g id="a_edge12_Node000006_Node000011"><a xlink:title=" ">
<path fill="none" stroke="#63b8ff" d="M294.06,-260.76C272.22,-253.26 249.53,-242.71 231.5,-228 204.93,-206.31 200.73,-195.04 191.5,-162 178.41,-115.13 184.95,-56.44 189.04,-30.02"/>
<polygon fill="#63b8ff" stroke="#63b8ff" points="293.09,-264.12 303.68,-263.89 295.25,-257.47 293.09,-264.12"/>
</a>
</g>
</g>
<!-- Node12 -->
<g id="Node000012" class="node">
<title>Node12</title>
<g id="a_Node000012"><a xlink:href="../../d8/d63/query__queue_8hpp.html" target="_top" xlink:title="An utility to execute multiple queries in a single network round&#45;trip.">
<polygon fill="white" stroke="#666666" points="505,-162 362,-162 362,-132 505,-132 505,-162"/>
<text text-anchor="start" x="370" y="-150" font-family="Helvetica,sans-Serif" font-size="10.00">userver/storages/postgres</text>
<text text-anchor="middle" x="433.5" y="-139" font-family="Helvetica,sans-Serif" font-size="10.00">/query_queue.hpp</text>
</a>
</g>
</g>
<!-- Node6&#45;&gt;Node12 -->
<g id="edge13_Node000006_Node000012" class="edge">
<title>Node6&#45;&gt;Node12</title>
<g id="a_edge13_Node000006_Node000012"><a xlink:title=" ">
<path fill="none" stroke="#63b8ff" d="M386.13,-255.37C391.29,-246.94 396.94,-237.19 401.5,-228 412.6,-205.62 422.84,-178.4 428.61,-162.17"/>
<polygon fill="#63b8ff" stroke="#63b8ff" points="383.12,-253.57 380.79,-263.9 389.06,-257.28 383.12,-253.57"/>
</a>
</g>
</g>
<!-- Node13 -->
<g id="Node000013" class="node">
<title>Node13</title>
<g id="a_Node000013"><a xlink:href="../../d1/dee/typed__result__set_8hpp.html" target="_top" xlink:title="Typed PostgreSQL results.">
<polygon fill="white" stroke="#666666" points="593,-228 450,-228 450,-198 593,-198 593,-228"/>
<text text-anchor="start" x="458" y="-216" font-family="Helvetica,sans-Serif" font-size="10.00">userver/storages/postgres</text>
<text text-anchor="middle" x="521.5" y="-205" font-family="Helvetica,sans-Serif" font-size="10.00">/typed_result_set.hpp</text>
</a>
</g>
</g>
<!-- Node6&#45;&gt;Node13 -->
<g id="edge16_Node000006_Node000013" class="edge">
<title>Node6&#45;&gt;Node13</title>
<g id="a_edge16_Node000006_Node000013"><a xlink:title=" ">
<path fill="none" stroke="#63b8ff" d="M408.03,-259.78C430.76,-249.69 459.87,-237.34 482.96,-228.01"/>
<polygon fill="#63b8ff" stroke="#63b8ff" points="406.42,-256.67 398.72,-263.95 409.28,-263.06 406.42,-256.67"/>
</a>
</g>
</g>
<!-- Node7&#45;&gt;Node8 -->
<g id="edge7_Node000007_Node000008" class="edge">
<title>Node7&#45;&gt;Node8</title>
<g id="a_edge7_Node000007_Node000008"><a xlink:title=" ">
<path fill="none" stroke="#63b8ff" d="M304.51,-189.81C297.49,-180.64 289.56,-170.28 283.34,-162.16"/>
<polygon fill="#63b8ff" stroke="#63b8ff" points="301.77,-191.98 310.63,-197.8 307.33,-187.73 301.77,-191.98"/>
</a>
</g>
</g>
<!-- Node9 -->
<g id="Node000009" class="node">
<title>Node9</title>
<g id="a_Node000009"><a xlink:href="../../de/dd3/postgresql_2include_2userver_2storages_2postgres_2cluster_8hpp.html" target="_top" xlink:title="Interface for executing queries on a cluster of PostgreSQL servers.">
<polygon fill="white" stroke="#666666" points="404,-96 261,-96 261,-66 404,-66 404,-96"/>
<text text-anchor="start" x="269" y="-84" font-family="Helvetica,sans-Serif" font-size="10.00">userver/storages/postgres</text>
<text text-anchor="middle" x="332.5" y="-73" font-family="Helvetica,sans-Serif" font-size="10.00">/cluster.hpp</text>
</a>
</g>
</g>
<!-- Node8&#45;&gt;Node9 -->
<g id="edge8_Node000008_Node000009" class="edge">
<title>Node8&#45;&gt;Node9</title>
<g id="a_edge8_Node000008_Node000009"><a xlink:title=" ">
<path fill="none" stroke="#63b8ff" d="M292.78,-124.37C301.51,-115.06 311.46,-104.44 319.22,-96.16"/>
<polygon fill="#63b8ff" stroke="#63b8ff" points="290.1,-122.11 285.82,-131.8 295.21,-126.89 290.1,-122.11"/>
</a>
</g>
</g>
<!-- Node8&#45;&gt;Node11 -->
<g id="edge11_Node000008_Node000011" class="edge">
<title>Node8&#45;&gt;Node11</title>
<g id="a_edge11_Node000008_Node000011"><a xlink:title=" ">
<path fill="none" stroke="#63b8ff" d="M258.23,-123.1C241.49,-96.23 214.24,-52.5 200.31,-30.14"/>
<polygon fill="#63b8ff" stroke="#63b8ff" points="255.42,-125.2 263.68,-131.84 261.36,-121.5 255.42,-125.2"/>
</a>
</g>
</g>
<!-- Node10 -->
<g id="Node000010" class="node">
<title>Node10</title>
<g id="a_Node000010"><a xlink:href="../../dc/df7/base__postgres__cache_8hpp.html" target="_top" xlink:title="Caching component for PostgreSQL. See Caching Component for PostgreSQL.">
<polygon fill="white" stroke="#666666" points="400,-30 281,-30 281,0 400,0 400,-30"/>
<text text-anchor="start" x="289" y="-18" font-family="Helvetica,sans-Serif" font-size="10.00">userver/cache/base</text>
<text text-anchor="middle" x="340.5" y="-7" font-family="Helvetica,sans-Serif" font-size="10.00">_postgres_cache.hpp</text>
</a>
</g>
</g>
<!-- Node9&#45;&gt;Node10 -->
<g id="edge9_Node000009_Node000010" class="edge">
<title>Node9&#45;&gt;Node10</title>
<g id="a_edge9_Node000009_Node000010"><a xlink:title=" ">
<path fill="none" stroke="#63b8ff" d="M335.52,-55.83C336.6,-47.17 337.79,-37.7 338.73,-30.16"/>
<polygon fill="#63b8ff" stroke="#63b8ff" points="332.04,-55.44 334.28,-65.8 338.99,-56.31 332.04,-55.44"/>
</a>
</g>
</g>
<!-- Node9&#45;&gt;Node11 -->
<g id="edge10_Node000009_Node000011" class="edge">
<title>Node9&#45;&gt;Node11</title>
<g id="a_edge10_Node000009_Node000011"><a xlink:title=" ">
<path fill="none" stroke="#63b8ff" d="M292.37,-61.78C270.14,-51.69 242.93,-39.34 222.37,-30.01"/>
<polygon fill="#63b8ff" stroke="#63b8ff" points="291,-65.01 301.56,-65.95 293.9,-58.63 291,-65.01"/>
</a>
</g>
</g>
<!-- Node12&#45;&gt;Node9 -->
<g id="edge14_Node000012_Node000009" class="edge">
<title>Node12&#45;&gt;Node9</title>
<g id="a_edge14_Node000012_Node000009"><a xlink:title=" ">
<path fill="none" stroke="#63b8ff" d="M402.41,-126.3C387.04,-116.56 368.83,-105.02 354.85,-96.16"/>
<polygon fill="#63b8ff" stroke="#63b8ff" points="400.76,-129.4 411.08,-131.8 404.51,-123.49 400.76,-129.4"/>
</a>
</g>
</g>
<!-- Node13&#45;&gt;Node6 -->
<g id="edge17_Node000013_Node000006" class="edge">
<title>Node13&#45;&gt;Node6</title>
<g id="a_edge17_Node000013_Node000006"><a xlink:title=" ">
<path fill="none" stroke="#63b8ff" d="M485.05,-232.18C462.33,-242.27 433.23,-254.62 410.12,-263.95"/>
<polygon fill="#63b8ff" stroke="#63b8ff" points="486.66,-235.29 494.35,-228.01 483.8,-228.91 486.66,-235.29"/>
</a>
</g>
</g>
</g>
</svg>
