<?xml version="1.0" encoding="UTF-8" standalone="no"?>
<!DOCTYPE svg PUBLIC "-//W3C//DTD SVG 1.1//EN"
 "http://www.w3.org/Graphics/SVG/1.1/DTD/svg11.dtd">
<!-- Generated by graphviz version 2.43.0 (0)
 -->
<!-- Title: userver/fs/blocking/open_mode.hpp Pages: 1 -->
<svg width="261pt" height="170pt"
 viewBox="0.00 0.00 260.50 170.00" xmlns="http://www.w3.org/2000/svg" xmlns:xlink="http://www.w3.org/1999/xlink">
<g id="graph0" class="graph" transform="scale(1 1) rotate(0) translate(4 166)">
<title>userver/fs/blocking/open_mode.hpp</title>
<!-- Node1 -->
<g id="Node000001" class="node">
<title>Node1</title>
<g id="a_Node000001"><a xlink:title="A set of OpenFlags.">
<polygon fill="#999999" stroke="#666666" points="188.5,-162 78.5,-162 78.5,-132 188.5,-132 188.5,-162"/>
<text text-anchor="start" x="86.5" y="-150" font-family="Helvetica,sans-Serif" font-size="10.00">userver/fs/blocking</text>
<text text-anchor="middle" x="133.5" y="-139" font-family="Helvetica,sans-Serif" font-size="10.00">/open_mode.hpp</text>
</a>
</g>
</g>
<!-- Node2 -->
<g id="Node000002" class="node">
<title>Node2</title>
<g id="a_Node000002"><a xlink:href="../../d5/dff/c__file_8hpp.html" target="_top" xlink:title="A std::FILE* wrapper.">
<polygon fill="white" stroke="#666666" points="124.5,-96 14.5,-96 14.5,-66 124.5,-66 124.5,-96"/>
<text text-anchor="start" x="22.5" y="-84" font-family="Helvetica,sans-Serif" font-size="10.00">userver/fs/blocking</text>
<text text-anchor="middle" x="69.5" y="-73" font-family="Helvetica,sans-Serif" font-size="10.00">/c_file.hpp</text>
</a>
</g>
</g>
<!-- Node1&#45;&gt;Node2 -->
<g id="edge1_Node000001_Node000002" class="edge">
<title>Node1&#45;&gt;Node2</title>
<g id="a_edge1_Node000001_Node000002"><a xlink:title=" ">
<path fill="none" stroke="#63b8ff" d="M112.15,-124.65C102.77,-115.27 92.03,-104.53 83.66,-96.16"/>
<polygon fill="#63b8ff" stroke="#63b8ff" points="109.75,-127.2 119.3,-131.8 114.7,-122.25 109.75,-127.2"/>
</a>
</g>
</g>
<!-- Node4 -->
<g id="Node000004" class="node">
<title>Node4</title>
<g id="a_Node000004"><a xlink:href="../../de/d4f/file__descriptor_8hpp.html" target="_top" xlink:title="A file descriptor wrapper.">
<polygon fill="white" stroke="#666666" points="252.5,-96 142.5,-96 142.5,-66 252.5,-66 252.5,-96"/>
<text text-anchor="start" x="150.5" y="-84" font-family="Helvetica,sans-Serif" font-size="10.00">userver/fs/blocking</text>
<text text-anchor="middle" x="197.5" y="-73" font-family="Helvetica,sans-Serif" font-size="10.00">/file_descriptor.hpp</text>
</a>
</g>
</g>
<!-- Node1&#45;&gt;Node4 -->
<g id="edge3_Node000001_Node000004" class="edge">
<title>Node1&#45;&gt;Node4</title>
<g id="a_edge3_Node000001_Node000004"><a xlink:title=" ">
<path fill="none" stroke="#63b8ff" d="M154.85,-124.65C164.23,-115.27 174.97,-104.53 183.34,-96.16"/>
<polygon fill="#63b8ff" stroke="#63b8ff" points="152.3,-122.25 147.7,-131.8 157.25,-127.2 152.3,-122.25"/>
</a>
</g>
</g>
<!-- Node3 -->
<g id="Node000003" class="node">
<title>Node3</title>
<g id="a_Node000003"><a xlink:href="../../d3/d85/operations__file_8hpp_source.html" target="_top" xlink:title=" ">
<polygon fill="white" stroke="#666666" points="139,-30 0,-30 0,0 139,0 139,-30"/>
<text text-anchor="start" x="8" y="-18" font-family="Helvetica,sans-Serif" font-size="10.00">userver/dump/operations</text>
<text text-anchor="middle" x="69.5" y="-7" font-family="Helvetica,sans-Serif" font-size="10.00">_file.hpp</text>
</a>
</g>
</g>
<!-- Node2&#45;&gt;Node3 -->
<g id="edge2_Node000002_Node000003" class="edge">
<title>Node2&#45;&gt;Node3</title>
<g id="a_edge2_Node000002_Node000003"><a xlink:title=" ">
<path fill="none" stroke="#63b8ff" d="M69.5,-55.54C69.5,-46.96 69.5,-37.61 69.5,-30.16"/>
<polygon fill="#63b8ff" stroke="#63b8ff" points="66,-55.8 69.5,-65.8 73,-55.8 66,-55.8"/>
</a>
</g>
</g>
</g>
</svg>
