<?xml version="1.0" encoding="UTF-8" standalone="no"?>
<!DOCTYPE svg PUBLIC "-//W3C//DTD SVG 1.1//EN"
 "http://www.w3.org/Graphics/SVG/1.1/DTD/svg11.dtd">
<!-- Generated by graphviz version 2.43.0 (0)
 -->
<!-- Title: userver/utest/simple_server.hpp Pages: 1 -->
<svg width="447pt" height="93pt"
 viewBox="0.00 0.00 446.50 93.00" xmlns="http://www.w3.org/2000/svg" xmlns:xlink="http://www.w3.org/1999/xlink">
<g id="graph0" class="graph" transform="scale(1 1) rotate(0) translate(4 89)">
<title>userver/utest/simple_server.hpp</title>
<!-- Node1 -->
<g id="Node000001" class="node">
<title>Node1</title>
<g id="a_Node000001"><a xlink:title=" ">
<polygon fill="#999999" stroke="#666666" points="295.5,-85 178.5,-85 178.5,-55 295.5,-55 295.5,-85"/>
<text text-anchor="start" x="186.5" y="-73" font-family="Helvetica,sans-Serif" font-size="10.00">userver/utest/simple</text>
<text text-anchor="middle" x="237" y="-62" font-family="Helvetica,sans-Serif" font-size="10.00">_server.hpp</text>
</a>
</g>
</g>
<!-- Node2 -->
<g id="Node000002" class="node">
<title>Node2</title>
<g id="a_Node000002"><a xlink:title=" ">
<polygon fill="#e0e0e0" stroke="#999999" points="50,-19 0,-19 0,0 50,0 50,-19"/>
<text text-anchor="middle" x="25" y="-7" font-family="Helvetica,sans-Serif" font-size="10.00">cstdint</text>
</a>
</g>
</g>
<!-- Node1&#45;&gt;Node2 -->
<g id="edge1_Node000001_Node000002" class="edge">
<title>Node1&#45;&gt;Node2</title>
<g id="a_edge1_Node000001_Node000002"><a xlink:title=" ">
<path fill="none" stroke="#63b8ff" d="M186.22,-54.99C147.26,-44.24 94.48,-29.67 60.09,-20.18"/>
<polygon fill="#63b8ff" stroke="#63b8ff" points="60.62,-16.7 50.04,-17.41 58.75,-23.44 60.62,-16.7"/>
</a>
</g>
</g>
<!-- Node3 -->
<g id="Node000003" class="node">
<title>Node3</title>
<g id="a_Node000003"><a xlink:title=" ">
<polygon fill="#e0e0e0" stroke="#999999" points="133.5,-19 68.5,-19 68.5,0 133.5,0 133.5,-19"/>
<text text-anchor="middle" x="101" y="-7" font-family="Helvetica,sans-Serif" font-size="10.00">functional</text>
</a>
</g>
</g>
<!-- Node1&#45;&gt;Node3 -->
<g id="edge2_Node000001_Node000003" class="edge">
<title>Node1&#45;&gt;Node3</title>
<g id="a_edge2_Node000001_Node000003"><a xlink:title=" ">
<path fill="none" stroke="#63b8ff" d="M204.42,-54.99C181.94,-45.31 152.28,-32.56 130.49,-23.18"/>
<polygon fill="#63b8ff" stroke="#63b8ff" points="131.65,-19.88 121.08,-19.14 128.89,-26.31 131.65,-19.88"/>
</a>
</g>
</g>
<!-- Node4 -->
<g id="Node000004" class="node">
<title>Node4</title>
<g id="a_Node000004"><a xlink:title=" ">
<polygon fill="#e0e0e0" stroke="#999999" points="234.5,-19 151.5,-19 151.5,0 234.5,0 234.5,-19"/>
<text text-anchor="middle" x="193" y="-7" font-family="Helvetica,sans-Serif" font-size="10.00">initializer_list</text>
</a>
</g>
</g>
<!-- Node1&#45;&gt;Node4 -->
<g id="edge3_Node000001_Node000004" class="edge">
<title>Node1&#45;&gt;Node4</title>
<g id="a_edge3_Node000001_Node000004"><a xlink:title=" ">
<path fill="none" stroke="#63b8ff" d="M226.35,-54.84C220.16,-46.61 212.31,-36.18 205.79,-27.51"/>
<polygon fill="#63b8ff" stroke="#63b8ff" points="208.4,-25.15 199.59,-19.27 202.81,-29.36 208.4,-25.15"/>
</a>
</g>
</g>
<!-- Node5 -->
<g id="Node000005" class="node">
<title>Node5</title>
<g id="a_Node000005"><a xlink:title=" ">
<polygon fill="#e0e0e0" stroke="#999999" points="311,-19 253,-19 253,0 311,0 311,-19"/>
<text text-anchor="middle" x="282" y="-7" font-family="Helvetica,sans-Serif" font-size="10.00">memory</text>
</a>
</g>
</g>
<!-- Node1&#45;&gt;Node5 -->
<g id="edge4_Node000001_Node000005" class="edge">
<title>Node1&#45;&gt;Node5</title>
<g id="a_edge4_Node000001_Node000005"><a xlink:title=" ">
<path fill="none" stroke="#63b8ff" d="M247.89,-54.84C254.29,-46.52 262.42,-35.96 269.13,-27.23"/>
<polygon fill="#63b8ff" stroke="#63b8ff" points="271.93,-29.33 275.26,-19.27 266.39,-25.06 271.93,-29.33"/>
</a>
</g>
</g>
<!-- Node6 -->
<g id="Node000006" class="node">
<title>Node6</title>
<g id="a_Node000006"><a xlink:title=" ">
<polygon fill="#e0e0e0" stroke="#999999" points="373,-19 329,-19 329,0 373,0 373,-19"/>
<text text-anchor="middle" x="351" y="-7" font-family="Helvetica,sans-Serif" font-size="10.00">string</text>
</a>
</g>
</g>
<!-- Node1&#45;&gt;Node6 -->
<g id="edge5_Node000001_Node000006" class="edge">
<title>Node1&#45;&gt;Node6</title>
<g id="a_edge5_Node000001_Node000006"><a xlink:title=" ">
<path fill="none" stroke="#63b8ff" d="M264.31,-54.99C282.65,-45.58 306.68,-33.24 324.79,-23.95"/>
<polygon fill="#63b8ff" stroke="#63b8ff" points="326.87,-26.82 334.16,-19.14 323.67,-20.59 326.87,-26.82"/>
</a>
</g>
</g>
<!-- Node7 -->
<g id="Node000007" class="node">
<title>Node7</title>
<g id="a_Node000007"><a xlink:title=" ">
<polygon fill="#e0e0e0" stroke="#999999" points="438.5,-19 391.5,-19 391.5,0 438.5,0 438.5,-19"/>
<text text-anchor="middle" x="415" y="-7" font-family="Helvetica,sans-Serif" font-size="10.00">vector</text>
</a>
</g>
</g>
<!-- Node1&#45;&gt;Node7 -->
<g id="edge6_Node000001_Node000007" class="edge">
<title>Node1&#45;&gt;Node7</title>
<g id="a_edge6_Node000001_Node000007"><a xlink:title=" ">
<path fill="none" stroke="#63b8ff" d="M279.64,-54.99C310.92,-44.71 352.8,-30.94 381.65,-21.46"/>
<polygon fill="#63b8ff" stroke="#63b8ff" points="382.87,-24.74 391.27,-18.3 380.68,-18.09 382.87,-24.74"/>
</a>
</g>
</g>
</g>
</svg>
