<?xml version="1.0" encoding="UTF-8" standalone="no"?>
<!DOCTYPE svg PUBLIC "-//W3C//DTD SVG 1.1//EN"
 "http://www.w3.org/Graphics/SVG/1.1/DTD/svg11.dtd">
<!-- Generated by graphviz version 2.43.0 (0)
 -->
<!-- Title: utest::HttpServerMock::HttpResponse Pages: 1 -->
<svg width="254pt" height="171pt"
 viewBox="0.00 0.00 253.50 171.00" xmlns="http://www.w3.org/2000/svg" xmlns:xlink="http://www.w3.org/1999/xlink">
<g id="graph0" class="graph" transform="scale(1 1) rotate(0) translate(4 167)">
<title>utest::HttpServerMock::HttpResponse</title>
<!-- Node1 -->
<g id="Node000001" class="node">
<title>Node1</title>
<g id="a_Node000001"><a xlink:title=" ">
<polygon fill="#999999" stroke="#666666" points="181.5,-30 55.5,-30 55.5,0 181.5,0 181.5,-30"/>
<text text-anchor="start" x="63.5" y="-18" font-family="Helvetica,sans-Serif" font-size="10.00">utest::HttpServerMock</text>
<text text-anchor="middle" x="118.5" y="-7" font-family="Helvetica,sans-Serif" font-size="10.00">::HttpResponse</text>
</a>
</g>
</g>
<!-- Node2 -->
<g id="Node000002" class="node">
<title>Node2</title>
<g id="a_Node000002"><a xlink:href="../../dc/d2f/classhttp_1_1headers_1_1HeaderMap.html" target="_top" xlink:title="Container that maps case&#45;insensitive header name into header value.">
<polygon fill="white" stroke="#666666" points="143,-96 0,-96 0,-77 143,-77 143,-96"/>
<text text-anchor="middle" x="71.5" y="-84" font-family="Helvetica,sans-Serif" font-size="10.00">http::headers::HeaderMap</text>
</a>
</g>
</g>
<!-- Node2&#45;&gt;Node1 -->
<g id="edge1_Node000001_Node000002" class="edge">
<title>Node2&#45;&gt;Node1</title>
<g id="a_edge1_Node000001_Node000002"><a xlink:title=" ">
<path fill="none" stroke="#9a32cd" stroke-dasharray="5,2" d="M83.01,-68.49C90.97,-56.71 101.44,-41.23 108.94,-30.14"/>
<polygon fill="#9a32cd" stroke="#9a32cd" points="79.97,-66.73 77.26,-76.98 85.76,-70.65 79.97,-66.73"/>
</a>
</g>
<text text-anchor="middle" x="117" y="-51" font-family="Helvetica,sans-Serif" font-size="10.00" fill="grey"> headers</text>
</g>
<!-- Node3 -->
<g id="Node000003" class="node">
<title>Node3</title>
<g id="a_Node000003"><a xlink:title=" ">
<polygon fill="white" stroke="#666666" points="226,-96 161,-96 161,-77 226,-77 226,-96"/>
<text text-anchor="middle" x="193.5" y="-84" font-family="Helvetica,sans-Serif" font-size="10.00">std::string</text>
</a>
</g>
</g>
<!-- Node3&#45;&gt;Node1 -->
<g id="edge2_Node000001_Node000003" class="edge">
<title>Node3&#45;&gt;Node1</title>
<g id="a_edge2_Node000001_Node000003"><a xlink:title=" ">
<path fill="none" stroke="#9a32cd" stroke-dasharray="5,2" d="M176.63,-69.87C163.77,-57.95 146.2,-41.67 133.76,-30.14"/>
<polygon fill="#9a32cd" stroke="#9a32cd" points="174.59,-72.75 184.3,-76.98 179.35,-67.61 174.59,-72.75"/>
</a>
</g>
<text text-anchor="middle" x="176.5" y="-51" font-family="Helvetica,sans-Serif" font-size="10.00" fill="grey"> body</text>
</g>
<!-- Node4 -->
<g id="Node000004" class="node">
<title>Node4</title>
<g id="a_Node000004"><a xlink:title=" ">
<polygon fill="white" stroke="#666666" points="245.5,-163 141.5,-163 141.5,-133 245.5,-133 245.5,-163"/>
<text text-anchor="start" x="149.5" y="-151" font-family="Helvetica,sans-Serif" font-size="10.00">std::basic_string&lt;</text>
<text text-anchor="middle" x="193.5" y="-140" font-family="Helvetica,sans-Serif" font-size="10.00"> Char &gt;</text>
</a>
</g>
</g>
<!-- Node4&#45;&gt;Node3 -->
<g id="edge3_Node000003_Node000004" class="edge">
<title>Node4&#45;&gt;Node3</title>
<g id="a_edge3_Node000003_Node000004"><a xlink:title=" ">
<path fill="none" stroke="#63b8ff" d="M193.5,-122.79C193.5,-113.36 193.5,-103.15 193.5,-96.16"/>
<polygon fill="#63b8ff" stroke="#63b8ff" points="190,-122.9 193.5,-132.9 197,-122.9 190,-122.9"/>
</a>
</g>
</g>
</g>
</svg>
