<?xml version="1.0" encoding="UTF-8" standalone="no"?>
<!DOCTYPE svg PUBLIC "-//W3C//DTD SVG 1.1//EN"
 "http://www.w3.org/Graphics/SVG/1.1/DTD/svg11.dtd">
<!-- Generated by graphviz version 2.43.0 (0)
 -->
<!-- Title: userver/concurrent/mutex_set.hpp Pages: 1 -->
<svg width="1372pt" height="621pt"
 viewBox="0.00 0.00 1372.00 621.00" xmlns="http://www.w3.org/2000/svg" xmlns:xlink="http://www.w3.org/1999/xlink">
<g id="graph0" class="graph" transform="scale(1 1) rotate(0) translate(4 617)">
<title>userver/concurrent/mutex_set.hpp</title>
<!-- Node1 -->
<g id="Node000001" class="node">
<title>Node1</title>
<g id="a_Node000001"><a xlink:title="A dynamic set of mutexes.">
<polygon fill="#999999" stroke="#666666" points="1058,-613 950,-613 950,-583 1058,-583 1058,-613"/>
<text text-anchor="start" x="958" y="-601" font-family="Helvetica,sans-Serif" font-size="10.00">userver/concurrent</text>
<text text-anchor="middle" x="1004" y="-590" font-family="Helvetica,sans-Serif" font-size="10.00">/mutex_set.hpp</text>
</a>
</g>
</g>
<!-- Node2 -->
<g id="Node000002" class="node">
<title>Node2</title>
<g id="a_Node000002"><a xlink:title=" ">
<polygon fill="#e0e0e0" stroke="#999999" points="471,-74 421,-74 421,-55 471,-55 471,-74"/>
<text text-anchor="middle" x="446" y="-62" font-family="Helvetica,sans-Serif" font-size="10.00">chrono</text>
</a>
</g>
</g>
<!-- Node1&#45;&gt;Node2 -->
<g id="edge1_Node000001_Node000002" class="edge">
<title>Node1&#45;&gt;Node2</title>
<g id="a_edge1_Node000001_Node000002"><a xlink:title=" ">
<path fill="none" stroke="#63b8ff" d="M949.84,-596.95C760.36,-596.39 134.56,-591.18 57,-547 17.32,-524.4 0,-507.17 0,-461.5 0,-461.5 0,-461.5 0,-190 0,-148.31 13.82,-132.37 49,-110 108.69,-72.04 325.33,-66.32 410.89,-65.56"/>
<polygon fill="#63b8ff" stroke="#63b8ff" points="410.92,-69.06 420.89,-65.49 410.87,-62.06 410.92,-69.06"/>
</a>
</g>
</g>
<!-- Node3 -->
<g id="Node000003" class="node">
<title>Node3</title>
<g id="a_Node000003"><a xlink:title=" ">
<polygon fill="#e0e0e0" stroke="#999999" points="1244.5,-200.5 1179.5,-200.5 1179.5,-181.5 1244.5,-181.5 1244.5,-200.5"/>
<text text-anchor="middle" x="1212" y="-188.5" font-family="Helvetica,sans-Serif" font-size="10.00">functional</text>
</a>
</g>
</g>
<!-- Node1&#45;&gt;Node3 -->
<g id="edge2_Node000001_Node000003" class="edge">
<title>Node1&#45;&gt;Node3</title>
<g id="a_edge2_Node000001_Node000003"><a xlink:title=" ">
<path fill="none" stroke="#63b8ff" d="M1058.11,-586.34C1119.74,-570.69 1212,-534.98 1212,-461.5 1212,-461.5 1212,-461.5 1212,-322 1212,-282.45 1212,-236.13 1212,-210.84"/>
<polygon fill="#63b8ff" stroke="#63b8ff" points="1215.5,-210.52 1212,-200.52 1208.5,-210.52 1215.5,-210.52"/>
</a>
</g>
</g>
<!-- Node4 -->
<g id="Node000004" class="node">
<title>Node4</title>
<g id="a_Node000004"><a xlink:title=" ">
<polygon fill="#e0e0e0" stroke="#999999" points="268,-134.5 224,-134.5 224,-115.5 268,-115.5 268,-134.5"/>
<text text-anchor="middle" x="246" y="-122.5" font-family="Helvetica,sans-Serif" font-size="10.00">string</text>
</a>
</g>
</g>
<!-- Node1&#45;&gt;Node4 -->
<g id="edge3_Node000001_Node000004" class="edge">
<title>Node1&#45;&gt;Node4</title>
<g id="a_edge3_Node000001_Node000004"><a xlink:title=" ">
<path fill="none" stroke="#63b8ff" d="M949.85,-595.28C803.35,-590.31 401.51,-574.5 272,-547 163.69,-524 38,-572.22 38,-461.5 38,-461.5 38,-461.5 38,-322 38,-244.58 73.98,-226.1 133,-176 163.34,-150.24 178.64,-156.19 215,-140 215.85,-139.62 216.71,-139.24 217.58,-138.85"/>
<polygon fill="#63b8ff" stroke="#63b8ff" points="219.31,-141.91 227,-134.62 216.44,-135.52 219.31,-141.91"/>
</a>
</g>
</g>
<!-- Node5 -->
<g id="Node000005" class="node">
<title>Node5</title>
<g id="a_Node000005"><a xlink:title=" ">
<polygon fill="#e0e0e0" stroke="#999999" points="1364,-541.5 1278,-541.5 1278,-522.5 1364,-522.5 1364,-541.5"/>
<text text-anchor="middle" x="1321" y="-529.5" font-family="Helvetica,sans-Serif" font-size="10.00">unordered_set</text>
</a>
</g>
</g>
<!-- Node1&#45;&gt;Node5 -->
<g id="edge4_Node000001_Node000005" class="edge">
<title>Node1&#45;&gt;Node5</title>
<g id="a_edge4_Node000001_Node000005"><a xlink:title=" ">
<path fill="none" stroke="#63b8ff" d="M1058.19,-587.41C1110.9,-577.88 1193.16,-562.5 1264,-547 1268.43,-546.03 1273.04,-544.97 1277.64,-543.89"/>
<polygon fill="#63b8ff" stroke="#63b8ff" points="1278.7,-547.24 1287.61,-541.5 1277.07,-540.43 1278.7,-547.24"/>
</a>
</g>
</g>
<!-- Node6 -->
<g id="Node000006" class="node">
<title>Node6</title>
<g id="a_Node000006"><a xlink:title=" ">
<polygon fill="#e0e0e0" stroke="#999999" points="1183.5,-266.5 1138.5,-266.5 1138.5,-247.5 1183.5,-247.5 1183.5,-266.5"/>
<text text-anchor="middle" x="1161" y="-254.5" font-family="Helvetica,sans-Serif" font-size="10.00">utility</text>
</a>
</g>
</g>
<!-- Node1&#45;&gt;Node6 -->
<g id="edge5_Node000001_Node000006" class="edge">
<title>Node1&#45;&gt;Node6</title>
<g id="a_edge5_Node000001_Node000006"><a xlink:title=" ">
<path fill="none" stroke="#63b8ff" d="M1049.11,-582.96C1099.47,-564.13 1174,-525.47 1174,-461.5 1174,-461.5 1174,-461.5 1174,-388 1174,-348.27 1167.91,-302.04 1164.07,-276.81"/>
<polygon fill="#63b8ff" stroke="#63b8ff" points="1167.51,-276.13 1162.49,-266.8 1160.59,-277.22 1167.51,-276.13"/>
</a>
</g>
</g>
<!-- Node7 -->
<g id="Node000007" class="node">
<title>Node7</title>
<g id="a_Node000007"><a xlink:href="../../db/d39/condition__variable_8hpp.html" target="_top" xlink:title="std::condition_variable replacement for asynchronous tasks">
<polygon fill="white" stroke="#666666" points="666.5,-547 529.5,-547 529.5,-517 666.5,-517 666.5,-547"/>
<text text-anchor="start" x="537.5" y="-535" font-family="Helvetica,sans-Serif" font-size="10.00">userver/engine/condition</text>
<text text-anchor="middle" x="598" y="-524" font-family="Helvetica,sans-Serif" font-size="10.00">_variable.hpp</text>
</a>
</g>
</g>
<!-- Node1&#45;&gt;Node7 -->
<g id="edge6_Node000001_Node000007" class="edge">
<title>Node1&#45;&gt;Node7</title>
<g id="a_edge6_Node000001_Node000007"><a xlink:title=" ">
<path fill="none" stroke="#63b8ff" d="M949.67,-588.44C879.52,-577.38 756.96,-558.06 676.65,-545.4"/>
<polygon fill="#63b8ff" stroke="#63b8ff" points="677,-541.91 666.58,-543.81 675.91,-548.83 677,-541.91"/>
</a>
</g>
</g>
<!-- Node26 -->
<g id="Node000026" class="node">
<title>Node26</title>
<g id="a_Node000026"><a xlink:href="../../db/df2/cancel_8hpp.html" target="_top" xlink:title="Task cancellation helpers.">
<polygon fill="white" stroke="#666666" points="255.5,-206 142.5,-206 142.5,-176 255.5,-176 255.5,-206"/>
<text text-anchor="start" x="150.5" y="-194" font-family="Helvetica,sans-Serif" font-size="10.00">userver/engine/task</text>
<text text-anchor="middle" x="199" y="-183" font-family="Helvetica,sans-Serif" font-size="10.00">/cancel.hpp</text>
</a>
</g>
</g>
<!-- Node1&#45;&gt;Node26 -->
<g id="edge50_Node000001_Node000026" class="edge">
<title>Node1&#45;&gt;Node26</title>
<g id="a_edge50_Node000001_Node000026"><a xlink:title=" ">
<path fill="none" stroke="#63b8ff" d="M949.73,-594.13C762.07,-583.48 152,-542.61 152,-461.5 152,-461.5 152,-461.5 152,-322 152,-282.63 171.3,-240.34 185.16,-215.03"/>
<polygon fill="#63b8ff" stroke="#63b8ff" points="188.28,-216.63 190.16,-206.21 182.19,-213.18 188.28,-216.63"/>
</a>
</g>
</g>
<!-- Node28 -->
<g id="Node000028" class="node">
<title>Node28</title>
<g id="a_Node000028"><a xlink:href="../../d8/da6/mutex_8hpp.html" target="_top" xlink:title="std::mutex replacement for asynchronous tasks.">
<polygon fill="white" stroke="#666666" points="809.5,-470 664.5,-470 664.5,-451 809.5,-451 809.5,-470"/>
<text text-anchor="middle" x="737" y="-458" font-family="Helvetica,sans-Serif" font-size="10.00">userver/engine/mutex.hpp</text>
</a>
</g>
</g>
<!-- Node1&#45;&gt;Node28 -->
<g id="edge49_Node000001_Node000028" class="edge">
<title>Node1&#45;&gt;Node28</title>
<g id="a_edge49_Node000001_Node000028"><a xlink:title=" ">
<path fill="none" stroke="#63b8ff" d="M976.18,-582.88C924.23,-556.52 813.19,-500.17 762.81,-474.6"/>
<polygon fill="#63b8ff" stroke="#63b8ff" points="764.36,-471.46 753.86,-470.05 761.19,-477.7 764.36,-471.46"/>
</a>
</g>
</g>
<!-- Node30 -->
<g id="Node000030" class="node">
<title>Node30</title>
<g id="a_Node000030"><a xlink:href="../../d9/dee/cached__hash_8hpp.html" target="_top" xlink:title="Holds the key and its hash for faster comparisons and hashing.">
<polygon fill="white" stroke="#666666" points="1355.5,-272 1240.5,-272 1240.5,-242 1355.5,-242 1355.5,-272"/>
<text text-anchor="start" x="1248.5" y="-260" font-family="Helvetica,sans-Serif" font-size="10.00">userver/utils/cached</text>
<text text-anchor="middle" x="1298" y="-249" font-family="Helvetica,sans-Serif" font-size="10.00">_hash.hpp</text>
</a>
</g>
</g>
<!-- Node1&#45;&gt;Node30 -->
<g id="edge51_Node000001_Node000030" class="edge">
<title>Node1&#45;&gt;Node30</title>
<g id="a_edge51_Node000001_Node000030"><a xlink:title=" ">
<path fill="none" stroke="#63b8ff" d="M1058.2,-591.18C1115.93,-583.9 1202.22,-569.57 1226,-547 1254.63,-519.83 1250,-500.97 1250,-461.5 1250,-461.5 1250,-461.5 1250,-388 1250,-348.53 1269.71,-306.27 1283.87,-280.99"/>
<polygon fill="#63b8ff" stroke="#63b8ff" points="1286.99,-282.59 1288.97,-272.18 1280.93,-279.08 1286.99,-282.59"/>
</a>
</g>
</g>
<!-- Node31 -->
<g id="Node000031" class="node">
<title>Node31</title>
<g id="a_Node000031"><a xlink:href="../../d8/d4a/fixed__array_8hpp.html" target="_top" xlink:title="A fixed&#45;size array with the size determined at runtime.">
<polygon fill="white" stroke="#666666" points="1146,-338 1042,-338 1042,-308 1146,-308 1146,-338"/>
<text text-anchor="start" x="1050" y="-326" font-family="Helvetica,sans-Serif" font-size="10.00">userver/utils/fixed</text>
<text text-anchor="middle" x="1094" y="-315" font-family="Helvetica,sans-Serif" font-size="10.00">_array.hpp</text>
</a>
</g>
</g>
<!-- Node1&#45;&gt;Node31 -->
<g id="edge54_Node000001_Node000031" class="edge">
<title>Node1&#45;&gt;Node31</title>
<g id="a_edge54_Node000001_Node000031"><a xlink:title=" ">
<path fill="none" stroke="#63b8ff" d="M1008.71,-582.71C1023.32,-538.39 1067.97,-402.96 1086.16,-347.77"/>
<polygon fill="#63b8ff" stroke="#63b8ff" points="1089.53,-348.74 1089.33,-338.15 1082.88,-346.55 1089.53,-348.74"/>
</a>
</g>
</g>
<!-- Node7&#45;&gt;Node2 -->
<g id="edge7_Node000007_Node000002" class="edge">
<title>Node7&#45;&gt;Node2</title>
<g id="a_edge7_Node000007_Node000002"><a xlink:title=" ">
<path fill="none" stroke="#63b8ff" d="M529.18,-528.36C438.96,-521.21 281.23,-495.45 188,-404 94.49,-312.28 86.9,-267.53 57,-140 53.96,-127.02 48.12,-119.95 57,-110 80.37,-83.8 319.31,-70.91 410.71,-66.91"/>
<polygon fill="#63b8ff" stroke="#63b8ff" points="411.01,-70.4 420.85,-66.47 410.71,-63.4 411.01,-70.4"/>
</a>
</g>
</g>
<!-- Node8 -->
<g id="Node000008" class="node">
<title>Node8</title>
<g id="a_Node000008"><a xlink:title=" ">
<polygon fill="#e0e0e0" stroke="#999999" points="646,-266.5 588,-266.5 588,-247.5 646,-247.5 646,-266.5"/>
<text text-anchor="middle" x="617" y="-254.5" font-family="Helvetica,sans-Serif" font-size="10.00">memory</text>
</a>
</g>
</g>
<!-- Node7&#45;&gt;Node8 -->
<g id="edge8_Node000007_Node000008" class="edge">
<title>Node7&#45;&gt;Node8</title>
<g id="a_edge8_Node000007_Node000008"><a xlink:title=" ">
<path fill="none" stroke="#63b8ff" d="M603.01,-516.77C606.24,-506.87 610.17,-493.3 612,-481 623.16,-406.02 620.17,-315.32 618.15,-276.78"/>
<polygon fill="#63b8ff" stroke="#63b8ff" points="621.63,-276.36 617.57,-266.57 614.65,-276.75 621.63,-276.36"/>
</a>
</g>
</g>
<!-- Node9 -->
<g id="Node000009" class="node">
<title>Node9</title>
<g id="a_Node000009"><a xlink:href="../../df/de5/condition__variable__status_8hpp.html" target="_top" xlink:title="std::condition_variable state extended with &quot;cancelled&quot; state">
<polygon fill="white" stroke="#666666" points="334.5,-404 197.5,-404 197.5,-374 334.5,-374 334.5,-404"/>
<text text-anchor="start" x="205.5" y="-392" font-family="Helvetica,sans-Serif" font-size="10.00">userver/engine/condition</text>
<text text-anchor="middle" x="266" y="-381" font-family="Helvetica,sans-Serif" font-size="10.00">_variable_status.hpp</text>
</a>
</g>
</g>
<!-- Node7&#45;&gt;Node9 -->
<g id="edge9_Node000007_Node000009" class="edge">
<title>Node7&#45;&gt;Node9</title>
<g id="a_edge9_Node000007_Node000009"><a xlink:title=" ">
<path fill="none" stroke="#63b8ff" d="M543.8,-516.92C512.14,-508.02 471.71,-495.48 437,-481 386.78,-460.06 331.74,-429.24 298.03,-409.39"/>
<polygon fill="#63b8ff" stroke="#63b8ff" points="299.49,-406.19 289.11,-404.1 295.92,-412.22 299.49,-406.19"/>
</a>
</g>
</g>
<!-- Node10 -->
<g id="Node000010" class="node">
<title>Node10</title>
<g id="a_Node000010"><a xlink:href="../../d2/d22/deadline_8hpp.html" target="_top" xlink:title="Internal representation of a deadline time point.">
<polygon fill="white" stroke="#666666" points="635.5,-134.5 480.5,-134.5 480.5,-115.5 635.5,-115.5 635.5,-134.5"/>
<text text-anchor="middle" x="558" y="-122.5" font-family="Helvetica,sans-Serif" font-size="10.00">userver/engine/deadline.hpp</text>
</a>
</g>
</g>
<!-- Node7&#45;&gt;Node10 -->
<g id="edge10_Node000007_Node000010" class="edge">
<title>Node7&#45;&gt;Node10</title>
<g id="a_edge10_Node000007_Node000010"><a xlink:title=" ">
<path fill="none" stroke="#63b8ff" d="M596.58,-516.59C590.5,-455.05 566.72,-214.3 559.86,-144.85"/>
<polygon fill="#63b8ff" stroke="#63b8ff" points="563.31,-144.19 558.85,-134.58 556.35,-144.88 563.31,-144.19"/>
</a>
</g>
</g>
<!-- Node14 -->
<g id="Node000014" class="node">
<title>Node14</title>
<g id="a_Node000014"><a xlink:href="../../d6/d54/condition__variable__any_8hpp_source.html" target="_top" xlink:title=" ">
<polygon fill="white" stroke="#666666" points="560,-481 446,-481 446,-440 560,-440 560,-481"/>
<text text-anchor="start" x="454" y="-469" font-family="Helvetica,sans-Serif" font-size="10.00">userver/engine/impl</text>
<text text-anchor="start" x="454" y="-458" font-family="Helvetica,sans-Serif" font-size="10.00">/condition_variable</text>
<text text-anchor="middle" x="503" y="-447" font-family="Helvetica,sans-Serif" font-size="10.00">_any.hpp</text>
</a>
</g>
</g>
<!-- Node7&#45;&gt;Node14 -->
<g id="edge15_Node000007_Node000014" class="edge">
<title>Node7&#45;&gt;Node14</title>
<g id="a_edge15_Node000007_Node000014"><a xlink:title=" ">
<path fill="none" stroke="#63b8ff" d="M578.78,-516.94C567.1,-508.4 551.85,-497.23 538.08,-487.17"/>
<polygon fill="#63b8ff" stroke="#63b8ff" points="539.89,-484.15 529.76,-481.07 535.76,-489.8 539.89,-484.15"/>
</a>
</g>
</g>
<!-- Node7&#45;&gt;Node28 -->
<g id="edge43_Node000007_Node000028" class="edge">
<title>Node7&#45;&gt;Node28</title>
<g id="a_edge43_Node000007_Node000028"><a xlink:title=" ">
<path fill="none" stroke="#63b8ff" d="M626.13,-516.94C650.92,-504.54 686.75,-486.62 710.91,-474.54"/>
<polygon fill="#63b8ff" stroke="#63b8ff" points="712.49,-477.67 719.86,-470.07 709.35,-471.41 712.49,-477.67"/>
</a>
</g>
</g>
<!-- Node10&#45;&gt;Node2 -->
<g id="edge11_Node000010_Node000002" class="edge">
<title>Node10&#45;&gt;Node2</title>
<g id="a_edge11_Node000010_Node000002"><a xlink:title=" ">
<path fill="none" stroke="#63b8ff" d="M541.47,-115.37C523.03,-105.73 492.96,-90.03 471.49,-78.81"/>
<polygon fill="#63b8ff" stroke="#63b8ff" points="473.08,-75.69 462.59,-74.17 469.84,-81.9 473.08,-75.69"/>
</a>
</g>
</g>
<!-- Node11 -->
<g id="Node000011" class="node">
<title>Node11</title>
<g id="a_Node000011"><a xlink:title=" ">
<polygon fill="#e0e0e0" stroke="#999999" points="1107.5,-74 1038.5,-74 1038.5,-55 1107.5,-55 1107.5,-74"/>
<text text-anchor="middle" x="1073" y="-62" font-family="Helvetica,sans-Serif" font-size="10.00">type_traits</text>
</a>
</g>
</g>
<!-- Node10&#45;&gt;Node11 -->
<g id="edge12_Node000010_Node000011" class="edge">
<title>Node10&#45;&gt;Node11</title>
<g id="a_edge12_Node000010_Node000011"><a xlink:title=" ">
<path fill="none" stroke="#63b8ff" d="M632.89,-115.49C741.7,-103.13 940.15,-80.59 1028.51,-70.55"/>
<polygon fill="#63b8ff" stroke="#63b8ff" points="1028.94,-74.03 1038.48,-69.42 1028.15,-67.07 1028.94,-74.03"/>
</a>
</g>
</g>
<!-- Node12 -->
<g id="Node000012" class="node">
<title>Node12</title>
<g id="a_Node000012"><a xlink:href="../../d2/d54/assert_8hpp.html" target="_top" xlink:title="Assertion macros UASSERT, UASSERT_MSG, UINVARIANT.">
<polygon fill="white" stroke="#666666" points="766.5,-74 635.5,-74 635.5,-55 766.5,-55 766.5,-74"/>
<text text-anchor="middle" x="701" y="-62" font-family="Helvetica,sans-Serif" font-size="10.00">userver/utils/assert.hpp</text>
</a>
</g>
</g>
<!-- Node10&#45;&gt;Node12 -->
<g id="edge13_Node000010_Node000012" class="edge">
<title>Node10&#45;&gt;Node12</title>
<g id="a_edge13_Node000010_Node000012"><a xlink:title=" ">
<path fill="none" stroke="#63b8ff" d="M578.79,-115.49C602.94,-105.62 642.98,-89.23 670.62,-77.93"/>
<polygon fill="#63b8ff" stroke="#63b8ff" points="672.25,-81.04 680.18,-74.02 669.6,-74.56 672.25,-81.04"/>
</a>
</g>
</g>
<!-- Node13 -->
<g id="Node000013" class="node">
<title>Node13</title>
<g id="a_Node000013"><a xlink:title=" ">
<polygon fill="#e0e0e0" stroke="#999999" points="737.5,-19 664.5,-19 664.5,0 737.5,0 737.5,-19"/>
<text text-anchor="middle" x="701" y="-7" font-family="Helvetica,sans-Serif" font-size="10.00">string_view</text>
</a>
</g>
</g>
<!-- Node12&#45;&gt;Node13 -->
<g id="edge14_Node000012_Node000013" class="edge">
<title>Node12&#45;&gt;Node13</title>
<g id="a_edge14_Node000012_Node000013"><a xlink:title=" ">
<path fill="none" stroke="#63b8ff" d="M701,-54.75C701,-47.8 701,-37.85 701,-29.13"/>
<polygon fill="#63b8ff" stroke="#63b8ff" points="704.5,-29.09 701,-19.09 697.5,-29.09 704.5,-29.09"/>
</a>
</g>
</g>
<!-- Node14&#45;&gt;Node9 -->
<g id="edge17_Node000014_Node000009" class="edge">
<title>Node14&#45;&gt;Node9</title>
<g id="a_edge17_Node000014_Node000009"><a xlink:title=" ">
<path fill="none" stroke="#63b8ff" d="M445.93,-442.76C408.84,-431.89 360.65,-417.76 323.48,-406.86"/>
<polygon fill="#63b8ff" stroke="#63b8ff" points="324.37,-403.47 313.79,-404.01 322.4,-410.19 324.37,-403.47"/>
</a>
</g>
</g>
<!-- Node14&#45;&gt;Node10 -->
<g id="edge18_Node000014_Node000010" class="edge">
<title>Node14&#45;&gt;Node10</title>
<g id="a_edge18_Node000014_Node000010"><a xlink:title=" ">
<path fill="none" stroke="#63b8ff" d="M505.03,-439.77C506.88,-422.42 509.81,-396.49 513,-374 525.52,-285.67 528.25,-263.43 546,-176 548.12,-165.56 550.87,-153.99 553.2,-144.61"/>
<polygon fill="#63b8ff" stroke="#63b8ff" points="556.62,-145.36 555.69,-134.81 549.84,-143.64 556.62,-145.36"/>
</a>
</g>
</g>
<!-- Node15 -->
<g id="Node000015" class="node">
<title>Node15</title>
<g id="a_Node000015"><a xlink:title=" ">
<polygon fill="#e0e0e0" stroke="#999999" points="570,-398.5 522,-398.5 522,-379.5 570,-379.5 570,-398.5"/>
<text text-anchor="middle" x="546" y="-386.5" font-family="Helvetica,sans-Serif" font-size="10.00">mutex</text>
</a>
</g>
</g>
<!-- Node14&#45;&gt;Node15 -->
<g id="edge16_Node000014_Node000015" class="edge">
<title>Node14&#45;&gt;Node15</title>
<g id="a_edge16_Node000014_Node000015"><a xlink:title=" ">
<path fill="none" stroke="#63b8ff" d="M515.21,-439.77C521.53,-429.55 529.18,-417.19 535.27,-407.34"/>
<polygon fill="#63b8ff" stroke="#63b8ff" points="538.26,-409.17 540.54,-398.82 532.31,-405.48 538.26,-409.17"/>
</a>
</g>
</g>
<!-- Node16 -->
<g id="Node000016" class="node">
<title>Node16</title>
<g id="a_Node000016"><a xlink:href="../../d9/db5/wait__list__fwd_8hpp_source.html" target="_top" xlink:title=" ">
<polygon fill="white" stroke="#666666" points="868,-404 754,-404 754,-374 868,-374 868,-404"/>
<text text-anchor="start" x="762" y="-392" font-family="Helvetica,sans-Serif" font-size="10.00">userver/engine/impl</text>
<text text-anchor="middle" x="811" y="-381" font-family="Helvetica,sans-Serif" font-size="10.00">/wait_list_fwd.hpp</text>
</a>
</g>
</g>
<!-- Node14&#45;&gt;Node16 -->
<g id="edge19_Node000014_Node000016" class="edge">
<title>Node14&#45;&gt;Node16</title>
<g id="a_edge19_Node000014_Node000016"><a xlink:title=" ">
<path fill="none" stroke="#63b8ff" d="M560.21,-446.59C612.21,-434.86 688.97,-417.54 743.85,-405.15"/>
<polygon fill="#63b8ff" stroke="#63b8ff" points="744.85,-408.51 753.84,-402.9 743.31,-401.69 744.85,-408.51"/>
</a>
</g>
</g>
<!-- Node21 -->
<g id="Node000021" class="node">
<title>Node21</title>
<g id="a_Node000021"><a xlink:href="../../d8/da1/task_8hpp.html" target="_top" xlink:title="Asynchronous task that has a unique ownership of the payload.">
<polygon fill="white" stroke="#666666" points="465.5,-404 352.5,-404 352.5,-374 465.5,-374 465.5,-404"/>
<text text-anchor="start" x="360.5" y="-392" font-family="Helvetica,sans-Serif" font-size="10.00">userver/engine/task</text>
<text text-anchor="middle" x="409" y="-381" font-family="Helvetica,sans-Serif" font-size="10.00">/task.hpp</text>
</a>
</g>
</g>
<!-- Node14&#45;&gt;Node21 -->
<g id="edge27_Node000014_Node000021" class="edge">
<title>Node14&#45;&gt;Node21</title>
<g id="a_edge27_Node000014_Node000021"><a xlink:title=" ">
<path fill="none" stroke="#63b8ff" d="M476.57,-439.96C464.04,-430.69 449.08,-419.63 436.42,-410.27"/>
<polygon fill="#63b8ff" stroke="#63b8ff" points="438.21,-407.24 428.09,-404.11 434.05,-412.87 438.21,-407.24"/>
</a>
</g>
</g>
<!-- Node17 -->
<g id="Node000017" class="node">
<title>Node17</title>
<g id="a_Node000017"><a xlink:href="../../d2/d84/select_8hpp.html" target="_top" xlink:title="Utilities for selection of platform specific values.">
<polygon fill="white" stroke="#666666" points="1024,-332.5 872,-332.5 872,-313.5 1024,-313.5 1024,-332.5"/>
<text text-anchor="middle" x="948" y="-320.5" font-family="Helvetica,sans-Serif" font-size="10.00">userver/compiler/select.hpp</text>
</a>
</g>
</g>
<!-- Node16&#45;&gt;Node17 -->
<g id="edge20_Node000016_Node000017" class="edge">
<title>Node16&#45;&gt;Node17</title>
<g id="a_edge20_Node000016_Node000017"><a xlink:title=" ">
<path fill="none" stroke="#63b8ff" d="M841.07,-373.95C864.77,-362.88 897.56,-347.56 920.56,-336.82"/>
<polygon fill="#63b8ff" stroke="#63b8ff" points="922.19,-339.92 929.77,-332.52 919.23,-333.58 922.19,-339.92"/>
</a>
</g>
</g>
<!-- Node19 -->
<g id="Node000019" class="node">
<title>Node19</title>
<g id="a_Node000019"><a xlink:href="../../d5/d02/fast__pimpl_8hpp.html" target="_top" xlink:title="Implements pimpl idiom without dynamic memory allocation.">
<polygon fill="white" stroke="#666666" points="853.5,-338 754.5,-338 754.5,-308 853.5,-308 853.5,-338"/>
<text text-anchor="start" x="762.5" y="-326" font-family="Helvetica,sans-Serif" font-size="10.00">userver/utils/fast</text>
<text text-anchor="middle" x="804" y="-315" font-family="Helvetica,sans-Serif" font-size="10.00">_pimpl.hpp</text>
</a>
</g>
</g>
<!-- Node16&#45;&gt;Node19 -->
<g id="edge22_Node000016_Node000019" class="edge">
<title>Node16&#45;&gt;Node19</title>
<g id="a_edge22_Node000016_Node000019"><a xlink:title=" ">
<path fill="none" stroke="#63b8ff" d="M809.45,-373.8C808.62,-366.26 807.59,-356.78 806.64,-348.13"/>
<polygon fill="#63b8ff" stroke="#63b8ff" points="810.12,-347.72 805.55,-338.16 803.16,-348.49 810.12,-347.72"/>
</a>
</g>
</g>
<!-- Node18 -->
<g id="Node000018" class="node">
<title>Node18</title>
<g id="a_Node000018"><a xlink:title=" ">
<polygon fill="#e0e0e0" stroke="#999999" points="1043.5,-266.5 990.5,-266.5 990.5,-247.5 1043.5,-247.5 1043.5,-266.5"/>
<text text-anchor="middle" x="1017" y="-254.5" font-family="Helvetica,sans-Serif" font-size="10.00">cstddef</text>
</a>
</g>
</g>
<!-- Node17&#45;&gt;Node18 -->
<g id="edge21_Node000017_Node000018" class="edge">
<title>Node17&#45;&gt;Node18</title>
<g id="a_edge21_Node000017_Node000018"><a xlink:title=" ">
<path fill="none" stroke="#63b8ff" d="M957.31,-313.37C968.15,-303.31 986.3,-286.48 999.74,-274.01"/>
<polygon fill="#63b8ff" stroke="#63b8ff" points="1002.45,-276.27 1007.4,-266.91 997.69,-271.14 1002.45,-276.27"/>
</a>
</g>
</g>
<!-- Node19&#45;&gt;Node6 -->
<g id="edge26_Node000019_Node000006" class="edge">
<title>Node19&#45;&gt;Node6</title>
<g id="a_edge26_Node000019_Node000006"><a xlink:title=" ">
<path fill="none" stroke="#63b8ff" d="M853.52,-310C856.72,-309.3 859.9,-308.63 863,-308 958.93,-288.59 1073.3,-270.92 1128.29,-262.76"/>
<polygon fill="#63b8ff" stroke="#63b8ff" points="1129.09,-266.18 1138.48,-261.25 1128.07,-259.25 1129.09,-266.18"/>
</a>
</g>
</g>
<!-- Node19&#45;&gt;Node11 -->
<g id="edge25_Node000019_Node000011" class="edge">
<title>Node19&#45;&gt;Node11</title>
<g id="a_edge25_Node000019_Node000011"><a xlink:title=" ">
<path fill="none" stroke="#63b8ff" d="M853.34,-307.98C887.3,-297.64 928.76,-283.45 943,-272 1008.63,-219.24 1050.72,-123.91 1066.25,-83.93"/>
<polygon fill="#63b8ff" stroke="#63b8ff" points="1069.59,-85 1069.86,-74.41 1063.05,-82.52 1069.59,-85"/>
</a>
</g>
</g>
<!-- Node19&#45;&gt;Node18 -->
<g id="edge23_Node000019_Node000018" class="edge">
<title>Node19&#45;&gt;Node18</title>
<g id="a_edge23_Node000019_Node000018"><a xlink:title=" ">
<path fill="none" stroke="#63b8ff" d="M853.86,-308.16C888.29,-298.45 935.08,-284.93 976,-272 978.16,-271.32 980.37,-270.6 982.6,-269.87"/>
<polygon fill="#63b8ff" stroke="#63b8ff" points="983.97,-273.11 992.34,-266.62 981.75,-266.47 983.97,-273.11"/>
</a>
</g>
</g>
<!-- Node20 -->
<g id="Node000020" class="node">
<title>Node20</title>
<g id="a_Node000020"><a xlink:title=" ">
<polygon fill="#e0e0e0" stroke="#999999" points="933.5,-266.5 896.5,-266.5 896.5,-247.5 933.5,-247.5 933.5,-266.5"/>
<text text-anchor="middle" x="915" y="-254.5" font-family="Helvetica,sans-Serif" font-size="10.00">new</text>
</a>
</g>
</g>
<!-- Node19&#45;&gt;Node20 -->
<g id="edge24_Node000019_Node000020" class="edge">
<title>Node19&#45;&gt;Node20</title>
<g id="a_edge24_Node000019_Node000020"><a xlink:title=" ">
<path fill="none" stroke="#63b8ff" d="M828.36,-307.95C847.14,-297.13 872.95,-282.24 891.51,-271.54"/>
<polygon fill="#63b8ff" stroke="#63b8ff" points="893.31,-274.54 900.23,-266.52 889.82,-268.48 893.31,-274.54"/>
</a>
</g>
</g>
<!-- Node22 -->
<g id="Node000022" class="node">
<title>Node22</title>
<g id="a_Node000022"><a xlink:href="../../d9/d72/task__base_8hpp.html" target="_top" xlink:title="Base class for all the asynchronous tasks (engine::Task, engine::SharedTask, engine::SharedTaskWithRe...">
<polygon fill="white" stroke="#666666" points="465.5,-338 352.5,-338 352.5,-308 465.5,-308 465.5,-338"/>
<text text-anchor="start" x="360.5" y="-326" font-family="Helvetica,sans-Serif" font-size="10.00">userver/engine/task</text>
<text text-anchor="middle" x="409" y="-315" font-family="Helvetica,sans-Serif" font-size="10.00">/task_base.hpp</text>
</a>
</g>
</g>
<!-- Node21&#45;&gt;Node22 -->
<g id="edge28_Node000021_Node000022" class="edge">
<title>Node21&#45;&gt;Node22</title>
<g id="a_edge28_Node000021_Node000022"><a xlink:title=" ">
<path fill="none" stroke="#63b8ff" d="M409,-373.8C409,-366.34 409,-356.99 409,-348.41"/>
<polygon fill="#63b8ff" stroke="#63b8ff" points="412.5,-348.16 409,-338.16 405.5,-348.16 412.5,-348.16"/>
</a>
</g>
</g>
<!-- Node22&#45;&gt;Node2 -->
<g id="edge29_Node000022_Node000002" class="edge">
<title>Node22&#45;&gt;Node2</title>
<g id="a_edge29_Node000022_Node000002"><a xlink:title=" ">
<path fill="none" stroke="#63b8ff" d="M411.04,-307.84C417.3,-264.48 436.2,-133.45 443.28,-84.35"/>
<polygon fill="#63b8ff" stroke="#63b8ff" points="446.78,-84.61 444.74,-74.21 439.85,-83.61 446.78,-84.61"/>
</a>
</g>
</g>
<!-- Node22&#45;&gt;Node4 -->
<g id="edge31_Node000022_Node000004" class="edge">
<title>Node22&#45;&gt;Node4</title>
<g id="a_edge31_Node000022_Node000004"><a xlink:title=" ">
<path fill="none" stroke="#63b8ff" d="M407.1,-307.65C402.47,-278.51 387.93,-212.12 348,-176 327.71,-157.64 299.45,-144.5 277.82,-136.31"/>
<polygon fill="#63b8ff" stroke="#63b8ff" points="279,-133.01 268.4,-132.89 276.61,-139.59 279,-133.01"/>
</a>
</g>
</g>
<!-- Node22&#45;&gt;Node8 -->
<g id="edge30_Node000022_Node000008" class="edge">
<title>Node22&#45;&gt;Node8</title>
<g id="a_edge30_Node000022_Node000008"><a xlink:title=" ">
<path fill="none" stroke="#63b8ff" d="M454.65,-307.95C492.09,-296.43 544.45,-280.32 579.48,-269.54"/>
<polygon fill="#63b8ff" stroke="#63b8ff" points="580.79,-272.8 589.32,-266.52 578.73,-266.11 580.79,-272.8"/>
</a>
</g>
</g>
<!-- Node22&#45;&gt;Node10 -->
<g id="edge33_Node000022_Node000010" class="edge">
<title>Node22&#45;&gt;Node10</title>
<g id="a_edge33_Node000022_Node000010"><a xlink:title=" ">
<path fill="none" stroke="#63b8ff" d="M426.04,-307.91C436.7,-298.5 450.22,-285.43 460,-272 488.08,-233.44 480.11,-214.7 508,-176 517.18,-163.27 529.65,-150.79 539.85,-141.48"/>
<polygon fill="#63b8ff" stroke="#63b8ff" points="542.28,-144 547.43,-134.75 537.63,-138.77 542.28,-144"/>
</a>
</g>
</g>
<!-- Node23 -->
<g id="Node000023" class="node">
<title>Node23</title>
<g id="a_Node000023"><a xlink:title=" ">
<polygon fill="#e0e0e0" stroke="#999999" points="206,-140 66,-140 66,-110 206,-110 206,-140"/>
<text text-anchor="start" x="74" y="-128" font-family="Helvetica,sans-Serif" font-size="10.00">boost/smart_ptr/intrusive</text>
<text text-anchor="middle" x="136" y="-117" font-family="Helvetica,sans-Serif" font-size="10.00">_ptr.hpp</text>
</a>
</g>
</g>
<!-- Node22&#45;&gt;Node23 -->
<g id="edge32_Node000022_Node000023" class="edge">
<title>Node22&#45;&gt;Node23</title>
<g id="a_edge32_Node000022_Node000023"><a xlink:title=" ">
<path fill="none" stroke="#63b8ff" d="M352.35,-318.19C306.66,-313.02 242.15,-300.81 193,-272 158.8,-251.95 147.3,-242.98 133,-206 126.09,-188.13 127.49,-166.32 130.26,-149.99"/>
<polygon fill="#63b8ff" stroke="#63b8ff" points="133.7,-150.63 132.2,-140.14 126.83,-149.27 133.7,-150.63"/>
</a>
</g>
</g>
<!-- Node24 -->
<g id="Node000024" class="node">
<title>Node24</title>
<g id="a_Node000024"><a xlink:href="../../d9/d27/core_2include_2userver_2engine_2exception_8hpp.html" target="_top" xlink:title="Coroutine engine exceptions.">
<polygon fill="white" stroke="#666666" points="379.5,-266.5 218.5,-266.5 218.5,-247.5 379.5,-247.5 379.5,-266.5"/>
<text text-anchor="middle" x="299" y="-254.5" font-family="Helvetica,sans-Serif" font-size="10.00">userver/engine/exception.hpp</text>
</a>
</g>
</g>
<!-- Node22&#45;&gt;Node24 -->
<g id="edge34_Node000022_Node000024" class="edge">
<title>Node22&#45;&gt;Node24</title>
<g id="a_edge34_Node000022_Node000024"><a xlink:title=" ">
<path fill="none" stroke="#63b8ff" d="M384.86,-307.95C366.33,-297.18 340.9,-282.38 322.53,-271.69"/>
<polygon fill="#63b8ff" stroke="#63b8ff" points="324.04,-268.52 313.64,-266.52 320.52,-274.57 324.04,-268.52"/>
</a>
</g>
</g>
<!-- Node22&#45;&gt;Node26 -->
<g id="edge40_Node000022_Node000026" class="edge">
<title>Node22&#45;&gt;Node26</title>
<g id="a_edge40_Node000022_Node000026"><a xlink:title=" ">
<path fill="none" stroke="#63b8ff" d="M352.25,-315C300,-307.34 227.81,-293.23 209,-272 195.7,-256.99 194.16,-233.73 195.37,-216.15"/>
<polygon fill="#63b8ff" stroke="#63b8ff" points="198.87,-216.37 196.41,-206.06 191.91,-215.65 198.87,-216.37"/>
</a>
</g>
</g>
<!-- Node27 -->
<g id="Node000027" class="node">
<title>Node27</title>
<g id="a_Node000027"><a xlink:href="../../d8/d03/task__processor__fwd_8hpp.html" target="_top" xlink:title=" ">
<polygon fill="white" stroke="#666666" points="839.5,-272 702.5,-272 702.5,-242 839.5,-242 839.5,-272"/>
<text text-anchor="start" x="710.5" y="-260" font-family="Helvetica,sans-Serif" font-size="10.00">userver/engine/task</text>
<text text-anchor="middle" x="771" y="-249" font-family="Helvetica,sans-Serif" font-size="10.00">/task_processor_fwd.hpp</text>
</a>
</g>
</g>
<!-- Node22&#45;&gt;Node27 -->
<g id="edge41_Node000022_Node000027" class="edge">
<title>Node22&#45;&gt;Node27</title>
<g id="a_edge41_Node000022_Node000027"><a xlink:title=" ">
<path fill="none" stroke="#63b8ff" d="M465.56,-312C526.59,-301.21 624.2,-283.95 692.61,-271.86"/>
<polygon fill="#63b8ff" stroke="#63b8ff" points="693.25,-275.3 702.48,-270.11 692.03,-268.41 693.25,-275.3"/>
</a>
</g>
</g>
<!-- Node25 -->
<g id="Node000025" class="node">
<title>Node25</title>
<g id="a_Node000025"><a xlink:title=" ">
<polygon fill="#e0e0e0" stroke="#999999" points="338.5,-200.5 273.5,-200.5 273.5,-181.5 338.5,-181.5 338.5,-200.5"/>
<text text-anchor="middle" x="306" y="-188.5" font-family="Helvetica,sans-Serif" font-size="10.00">stdexcept</text>
</a>
</g>
</g>
<!-- Node24&#45;&gt;Node25 -->
<g id="edge35_Node000024_Node000025" class="edge">
<title>Node24&#45;&gt;Node25</title>
<g id="a_edge35_Node000024_Node000025"><a xlink:title=" ">
<path fill="none" stroke="#63b8ff" d="M299.94,-247.37C300.96,-238.07 302.61,-222.98 303.93,-210.9"/>
<polygon fill="#63b8ff" stroke="#63b8ff" points="307.42,-211.23 305.03,-200.91 300.46,-210.47 307.42,-211.23"/>
</a>
</g>
</g>
<!-- Node24&#45;&gt;Node26 -->
<g id="edge36_Node000024_Node000026" class="edge">
<title>Node24&#45;&gt;Node26</title>
<g id="a_edge36_Node000024_Node000026"><a xlink:title=" ">
<path fill="none" stroke="#63b8ff" d="M285.51,-247.37C271.25,-238.24 248.26,-223.53 229.56,-211.56"/>
<polygon fill="#63b8ff" stroke="#63b8ff" points="231.37,-208.56 221.06,-206.12 227.59,-214.45 231.37,-208.56"/>
</a>
</g>
</g>
<!-- Node26&#45;&gt;Node4 -->
<g id="edge37_Node000026_Node000004" class="edge">
<title>Node26&#45;&gt;Node4</title>
<g id="a_edge37_Node000026_Node000004"><a xlink:title=" ">
<path fill="none" stroke="#63b8ff" d="M209.43,-175.8C216.54,-166.11 226,-153.24 233.51,-143.01"/>
<polygon fill="#63b8ff" stroke="#63b8ff" points="236.41,-144.98 239.5,-134.84 230.76,-140.83 236.41,-144.98"/>
</a>
</g>
</g>
<!-- Node26&#45;&gt;Node10 -->
<g id="edge39_Node000026_Node000010" class="edge">
<title>Node26&#45;&gt;Node10</title>
<g id="a_edge39_Node000026_Node000010"><a xlink:title=" ">
<path fill="none" stroke="#63b8ff" d="M255.69,-177.64C258.5,-177.07 261.28,-176.52 264,-176 342.82,-160.82 433.99,-145.69 493.66,-136.11"/>
<polygon fill="#63b8ff" stroke="#63b8ff" points="494.36,-139.54 503.69,-134.51 493.26,-132.63 494.36,-139.54"/>
</a>
</g>
</g>
<!-- Node26&#45;&gt;Node23 -->
<g id="edge38_Node000026_Node000023" class="edge">
<title>Node26&#45;&gt;Node23</title>
<g id="a_edge38_Node000026_Node000023"><a xlink:title=" ">
<path fill="none" stroke="#63b8ff" d="M185.02,-175.8C176.78,-167.43 166.2,-156.68 156.98,-147.31"/>
<polygon fill="#63b8ff" stroke="#63b8ff" points="159.45,-144.84 149.94,-140.16 154.46,-149.75 159.45,-144.84"/>
</a>
</g>
</g>
<!-- Node27&#45;&gt;Node3 -->
<g id="edge42_Node000027_Node000003" class="edge">
<title>Node27&#45;&gt;Node3</title>
<g id="a_edge42_Node000027_Node000003"><a xlink:title=" ">
<path fill="none" stroke="#63b8ff" d="M839.91,-246C932.11,-232.62 1092.84,-209.29 1169.27,-198.2"/>
<polygon fill="#63b8ff" stroke="#63b8ff" points="1170.09,-201.62 1179.48,-196.72 1169.08,-194.69 1170.09,-201.62"/>
</a>
</g>
</g>
<!-- Node28&#45;&gt;Node2 -->
<g id="edge45_Node000028_Node000002" class="edge">
<title>Node28&#45;&gt;Node2</title>
<g id="a_edge45_Node000028_Node000002"><a xlink:title=" ">
<path fill="none" stroke="#63b8ff" d="M734.54,-450.86C727.96,-425.81 712.65,-352.15 746,-308 775.23,-269.31 820.93,-311.54 849,-272 856.72,-261.13 855.37,-253.71 849,-242 774.88,-105.75 564.78,-74.6 481.06,-67.54"/>
<polygon fill="#63b8ff" stroke="#63b8ff" points="481.27,-64.05 471.03,-66.76 480.73,-71.03 481.27,-64.05"/>
</a>
</g>
</g>
<!-- Node28&#45;&gt;Node10 -->
<g id="edge47_Node000028_Node000010" class="edge">
<title>Node28&#45;&gt;Node10</title>
<g id="a_edge47_Node000028_Node000010"><a xlink:title=" ">
<path fill="none" stroke="#63b8ff" d="M729.77,-450.95C713.23,-430.47 674,-376.4 674,-324 674,-324 674,-324 674,-256 674,-202.08 617.77,-160.23 583.6,-139.77"/>
<polygon fill="#63b8ff" stroke="#63b8ff" points="585.03,-136.55 574.62,-134.58 581.53,-142.61 585.03,-136.55"/>
</a>
</g>
</g>
<!-- Node28&#45;&gt;Node15 -->
<g id="edge46_Node000028_Node000015" class="edge">
<title>Node28&#45;&gt;Node15</title>
<g id="a_edge46_Node000028_Node000015"><a xlink:title=" ">
<path fill="none" stroke="#63b8ff" d="M713.58,-450.98C679.93,-438.73 617.73,-416.1 579.31,-402.12"/>
<polygon fill="#63b8ff" stroke="#63b8ff" points="580.21,-398.72 569.61,-398.59 577.81,-405.3 580.21,-398.72"/>
</a>
</g>
</g>
<!-- Node28&#45;&gt;Node16 -->
<g id="edge48_Node000028_Node000016" class="edge">
<title>Node28&#45;&gt;Node16</title>
<g id="a_edge48_Node000028_Node000016"><a xlink:title=" ">
<path fill="none" stroke="#63b8ff" d="M746.07,-450.98C756.56,-441.13 774.2,-424.56 788.45,-411.18"/>
<polygon fill="#63b8ff" stroke="#63b8ff" points="791.05,-413.53 795.95,-404.14 786.26,-408.43 791.05,-413.53"/>
</a>
</g>
</g>
<!-- Node29 -->
<g id="Node000029" class="node">
<title>Node29</title>
<g id="a_Node000029"><a xlink:title=" ">
<polygon fill="#e0e0e0" stroke="#999999" points="936,-398.5 886,-398.5 886,-379.5 936,-379.5 936,-398.5"/>
<text text-anchor="middle" x="911" y="-386.5" font-family="Helvetica,sans-Serif" font-size="10.00">atomic</text>
</a>
</g>
</g>
<!-- Node28&#45;&gt;Node29 -->
<g id="edge44_Node000028_Node000029" class="edge">
<title>Node28&#45;&gt;Node29</title>
<g id="a_edge44_Node000028_Node000029"><a xlink:title=" ">
<path fill="none" stroke="#63b8ff" d="M758.86,-450.94C786.44,-440.11 835.3,-420.85 877,-404 878.2,-403.52 879.42,-403.02 880.65,-402.52"/>
<polygon fill="#63b8ff" stroke="#63b8ff" points="882.23,-405.66 890.16,-398.63 879.58,-399.18 882.23,-405.66"/>
</a>
</g>
</g>
<!-- Node30&#45;&gt;Node3 -->
<g id="edge52_Node000030_Node000003" class="edge">
<title>Node30&#45;&gt;Node3</title>
<g id="a_edge52_Node000030_Node000003"><a xlink:title=" ">
<path fill="none" stroke="#63b8ff" d="M1278.91,-241.8C1264.98,-231.43 1246.14,-217.4 1232,-206.88"/>
<polygon fill="#63b8ff" stroke="#63b8ff" points="1234,-204.01 1223.88,-200.84 1229.82,-209.62 1234,-204.01"/>
</a>
</g>
</g>
<!-- Node30&#45;&gt;Node11 -->
<g id="edge53_Node000030_Node000011" class="edge">
<title>Node30&#45;&gt;Node11</title>
<g id="a_edge53_Node000030_Node000011"><a xlink:title=" ">
<path fill="none" stroke="#63b8ff" d="M1292.86,-241.88C1286.07,-224.71 1272.73,-195.6 1254,-176 1209.8,-129.75 1142.2,-95.37 1103.34,-78.06"/>
<polygon fill="#63b8ff" stroke="#63b8ff" points="1104.68,-74.83 1094.11,-74.03 1101.88,-81.24 1104.68,-74.83"/>
</a>
</g>
</g>
<!-- Node31&#45;&gt;Node6 -->
<g id="edge58_Node000031_Node000006" class="edge">
<title>Node31&#45;&gt;Node6</title>
<g id="a_edge58_Node000031_Node000006"><a xlink:title=" ">
<path fill="none" stroke="#63b8ff" d="M1108.87,-307.8C1119.42,-297.72 1133.58,-284.19 1144.48,-273.78"/>
<polygon fill="#63b8ff" stroke="#63b8ff" points="1146.93,-276.28 1151.74,-266.84 1142.09,-271.22 1146.93,-276.28"/>
</a>
</g>
</g>
<!-- Node31&#45;&gt;Node8 -->
<g id="edge56_Node000031_Node000008" class="edge">
<title>Node31&#45;&gt;Node8</title>
<g id="a_edge56_Node000031_Node000008"><a xlink:title=" ">
<path fill="none" stroke="#63b8ff" d="M1041.84,-309.6C1038.86,-309.02 1035.89,-308.48 1033,-308 883.56,-283.01 843.97,-293.57 694,-272 681.6,-270.22 668.15,-267.9 656.01,-265.67"/>
<polygon fill="#63b8ff" stroke="#63b8ff" points="656.64,-262.23 646.17,-263.83 655.35,-269.11 656.64,-262.23"/>
</a>
</g>
</g>
<!-- Node31&#45;&gt;Node11 -->
<g id="edge57_Node000031_Node000011" class="edge">
<title>Node31&#45;&gt;Node11</title>
<g id="a_edge57_Node000031_Node000011"><a xlink:title=" ">
<path fill="none" stroke="#63b8ff" d="M1092.84,-307.84C1089.29,-264.48 1078.56,-133.45 1074.54,-84.35"/>
<polygon fill="#63b8ff" stroke="#63b8ff" points="1078.02,-83.89 1073.71,-74.21 1071.04,-84.46 1078.02,-83.89"/>
</a>
</g>
</g>
<!-- Node31&#45;&gt;Node12 -->
<g id="edge59_Node000031_Node000012" class="edge">
<title>Node31&#45;&gt;Node12</title>
<g id="a_edge59_Node000031_Node000012"><a xlink:title=" ">
<path fill="none" stroke="#63b8ff" d="M1088.97,-307.89C1082.47,-290.99 1069.96,-262.4 1053,-242 991.63,-168.17 968.48,-151.69 882,-110 847.64,-93.44 806.56,-82.69 772.22,-75.92"/>
<polygon fill="#63b8ff" stroke="#63b8ff" points="772.74,-72.46 762.26,-74.03 771.43,-79.33 772.74,-72.46"/>
</a>
</g>
</g>
<!-- Node31&#45;&gt;Node18 -->
<g id="edge55_Node000031_Node000018" class="edge">
<title>Node31&#45;&gt;Node18</title>
<g id="a_edge55_Node000031_Node000018"><a xlink:title=" ">
<path fill="none" stroke="#63b8ff" d="M1076.91,-307.8C1064.67,-297.62 1048.2,-283.93 1035.62,-273.48"/>
<polygon fill="#63b8ff" stroke="#63b8ff" points="1037.57,-270.54 1027.64,-266.84 1033.09,-275.93 1037.57,-270.54"/>
</a>
</g>
</g>
</g>
</svg>
