<?xml version="1.0" encoding="UTF-8" standalone="no"?>
<!DOCTYPE svg PUBLIC "-//W3C//DTD SVG 1.1//EN"
 "http://www.w3.org/Graphics/SVG/1.1/DTD/svg11.dtd">
<!-- Generated by graphviz version 2.43.0 (0)
 -->
<!-- Title: userver/storages/postgres/postgres_fwd.hpp Pages: 1 -->
<svg width="218pt" height="93pt"
 viewBox="0.00 0.00 218.00 93.00" xmlns="http://www.w3.org/2000/svg" xmlns:xlink="http://www.w3.org/1999/xlink">
<g id="graph0" class="graph" transform="scale(1 1) rotate(0) translate(4 89)">
<title>userver/storages/postgres/postgres_fwd.hpp</title>
<!-- Node1 -->
<g id="Node000001" class="node">
<title>Node1</title>
<g id="a_Node000001"><a xlink:title="Forward declarations of some popular postgre related types.">
<polygon fill="#999999" stroke="#666666" points="172.5,-85 29.5,-85 29.5,-55 172.5,-55 172.5,-85"/>
<text text-anchor="start" x="37.5" y="-73" font-family="Helvetica,sans-Serif" font-size="10.00">userver/storages/postgres</text>
<text text-anchor="middle" x="101" y="-62" font-family="Helvetica,sans-Serif" font-size="10.00">/postgres_fwd.hpp</text>
</a>
</g>
</g>
<!-- Node2 -->
<g id="Node000002" class="node">
<title>Node2</title>
<g id="a_Node000002"><a xlink:title=" ">
<polygon fill="#e0e0e0" stroke="#999999" points="50,-19 0,-19 0,0 50,0 50,-19"/>
<text text-anchor="middle" x="25" y="-7" font-family="Helvetica,sans-Serif" font-size="10.00">chrono</text>
</a>
</g>
</g>
<!-- Node1&#45;&gt;Node2 -->
<g id="edge1_Node000001_Node000002" class="edge">
<title>Node1&#45;&gt;Node2</title>
<g id="a_edge1_Node000001_Node000002"><a xlink:title=" ">
<path fill="none" stroke="#63b8ff" d="M82.6,-54.84C71.12,-46 56.35,-34.63 44.64,-25.62"/>
<polygon fill="#63b8ff" stroke="#63b8ff" points="46.45,-22.59 36.39,-19.27 42.18,-28.14 46.45,-22.59"/>
</a>
</g>
</g>
<!-- Node3 -->
<g id="Node000003" class="node">
<title>Node3</title>
<g id="a_Node000003"><a xlink:title=" ">
<polygon fill="#e0e0e0" stroke="#999999" points="133.5,-19 68.5,-19 68.5,0 133.5,0 133.5,-19"/>
<text text-anchor="middle" x="101" y="-7" font-family="Helvetica,sans-Serif" font-size="10.00">functional</text>
</a>
</g>
</g>
<!-- Node1&#45;&gt;Node3 -->
<g id="edge2_Node000001_Node000003" class="edge">
<title>Node1&#45;&gt;Node3</title>
<g id="a_edge2_Node000001_Node000003"><a xlink:title=" ">
<path fill="none" stroke="#63b8ff" d="M101,-54.84C101,-47.21 101,-37.7 101,-29.45"/>
<polygon fill="#63b8ff" stroke="#63b8ff" points="104.5,-29.27 101,-19.27 97.5,-29.27 104.5,-29.27"/>
</a>
</g>
</g>
<!-- Node4 -->
<g id="Node000004" class="node">
<title>Node4</title>
<g id="a_Node000004"><a xlink:title=" ">
<polygon fill="#e0e0e0" stroke="#999999" points="210,-19 152,-19 152,0 210,0 210,-19"/>
<text text-anchor="middle" x="181" y="-7" font-family="Helvetica,sans-Serif" font-size="10.00">memory</text>
</a>
</g>
</g>
<!-- Node1&#45;&gt;Node4 -->
<g id="edge3_Node000001_Node000004" class="edge">
<title>Node1&#45;&gt;Node4</title>
<g id="a_edge3_Node000001_Node000004"><a xlink:title=" ">
<path fill="none" stroke="#63b8ff" d="M120.37,-54.84C132.57,-45.91 148.31,-34.41 160.69,-25.35"/>
<polygon fill="#63b8ff" stroke="#63b8ff" points="163.01,-27.99 169.01,-19.27 158.87,-22.34 163.01,-27.99"/>
</a>
</g>
</g>
</g>
</svg>
