<?xml version="1.0" encoding="UTF-8" standalone="no"?>
<!DOCTYPE svg PUBLIC "-//W3C//DTD SVG 1.1//EN"
 "http://www.w3.org/Graphics/SVG/1.1/DTD/svg11.dtd">
<!-- Generated by graphviz version 2.43.0 (0)
 -->
<!-- Title: userver/drivers/subscribable_futures.hpp Pages: 1 -->
<svg width="1082pt" height="346pt"
 viewBox="0.00 0.00 1081.50 346.00" xmlns="http://www.w3.org/2000/svg" xmlns:xlink="http://www.w3.org/1999/xlink">
<g id="graph0" class="graph" transform="scale(1 1) rotate(0) translate(4 342)">
<title>userver/drivers/subscribable_futures.hpp</title>
<!-- Node1 -->
<g id="Node000001" class="node">
<title>Node1</title>
<g id="a_Node000001"><a xlink:title="An adaptor for working with certain external futures.">
<polygon fill="#999999" stroke="#666666" points="517.5,-338 362.5,-338 362.5,-308 517.5,-308 517.5,-338"/>
<text text-anchor="start" x="370.5" y="-326" font-family="Helvetica,sans-Serif" font-size="10.00">userver/drivers/subscribable</text>
<text text-anchor="middle" x="440" y="-315" font-family="Helvetica,sans-Serif" font-size="10.00">_futures.hpp</text>
</a>
</g>
</g>
<!-- Node2 -->
<g id="Node000002" class="node">
<title>Node2</title>
<g id="a_Node000002"><a xlink:title=" ">
<polygon fill="#e0e0e0" stroke="#999999" points="128,-200.5 0,-200.5 0,-181.5 128,-181.5 128,-200.5"/>
<text text-anchor="middle" x="64" y="-188.5" font-family="Helvetica,sans-Serif" font-size="10.00">boost/intrusive_ptr.hpp</text>
</a>
</g>
</g>
<!-- Node1&#45;&gt;Node2 -->
<g id="edge1_Node000001_Node000002" class="edge">
<title>Node1&#45;&gt;Node2</title>
<g id="a_edge1_Node000001_Node000002"><a xlink:title=" ">
<path fill="none" stroke="#63b8ff" d="M362.37,-321.07C269.85,-318.32 122.75,-308.17 83,-272 66.04,-256.56 62.88,-228.99 62.89,-210.6"/>
<polygon fill="#63b8ff" stroke="#63b8ff" points="66.39,-210.63 63.2,-200.52 59.39,-210.41 66.39,-210.63"/>
</a>
</g>
</g>
<!-- Node3 -->
<g id="Node000003" class="node">
<title>Node3</title>
<g id="a_Node000003"><a xlink:title=" ">
<polygon fill="#e0e0e0" stroke="#999999" points="358,-272 218,-272 218,-242 358,-242 358,-272"/>
<text text-anchor="start" x="226" y="-260" font-family="Helvetica,sans-Serif" font-size="10.00">boost/smart_ptr/intrusive</text>
<text text-anchor="middle" x="288" y="-249" font-family="Helvetica,sans-Serif" font-size="10.00">_ref_counter.hpp</text>
</a>
</g>
</g>
<!-- Node1&#45;&gt;Node3 -->
<g id="edge2_Node000001_Node000003" class="edge">
<title>Node1&#45;&gt;Node3</title>
<g id="a_edge2_Node000001_Node000003"><a xlink:title=" ">
<path fill="none" stroke="#63b8ff" d="M406.64,-307.95C384.27,-298.53 354.61,-286.04 330.54,-275.91"/>
<polygon fill="#63b8ff" stroke="#63b8ff" points="331.85,-272.67 321.28,-272.01 329.14,-279.12 331.85,-272.67"/>
</a>
</g>
</g>
<!-- Node4 -->
<g id="Node000004" class="node">
<title>Node4</title>
<g id="a_Node000004"><a xlink:href="../../d2/d22/deadline_8hpp.html" target="_top" xlink:title="Internal representation of a deadline time point.">
<polygon fill="white" stroke="#666666" points="718.5,-134.5 563.5,-134.5 563.5,-115.5 718.5,-115.5 718.5,-134.5"/>
<text text-anchor="middle" x="641" y="-122.5" font-family="Helvetica,sans-Serif" font-size="10.00">userver/engine/deadline.hpp</text>
</a>
</g>
</g>
<!-- Node1&#45;&gt;Node4 -->
<g id="edge3_Node000001_Node000004" class="edge">
<title>Node1&#45;&gt;Node4</title>
<g id="a_edge3_Node000001_Node000004"><a xlink:title=" ">
<path fill="none" stroke="#63b8ff" d="M517.58,-308.64C541.63,-301.24 566.62,-289.76 585,-272 621.35,-236.87 634.45,-175.6 638.89,-144.8"/>
<polygon fill="#63b8ff" stroke="#63b8ff" points="642.4,-144.97 640.2,-134.61 635.45,-144.08 642.4,-144.97"/>
</a>
</g>
</g>
<!-- Node9 -->
<g id="Node000009" class="node">
<title>Node9</title>
<g id="a_Node000009"><a xlink:href="../../d9/d27/core_2include_2userver_2engine_2exception_8hpp.html" target="_top" xlink:title="Coroutine engine exceptions.">
<polygon fill="white" stroke="#666666" points="575.5,-266.5 414.5,-266.5 414.5,-247.5 575.5,-247.5 575.5,-266.5"/>
<text text-anchor="middle" x="495" y="-254.5" font-family="Helvetica,sans-Serif" font-size="10.00">userver/engine/exception.hpp</text>
</a>
</g>
</g>
<!-- Node1&#45;&gt;Node9 -->
<g id="edge8_Node000001_Node000009" class="edge">
<title>Node1&#45;&gt;Node9</title>
<g id="a_edge8_Node000001_Node000009"><a xlink:title=" ">
<path fill="none" stroke="#63b8ff" d="M452.21,-307.8C460.61,-298.01 471.81,-284.98 480.65,-274.7"/>
<polygon fill="#63b8ff" stroke="#63b8ff" points="483.54,-276.71 487.4,-266.84 478.23,-272.15 483.54,-276.71"/>
</a>
</g>
</g>
<!-- Node11 -->
<g id="Node000011" class="node">
<title>Node11</title>
<g id="a_Node000011"><a xlink:href="../../db/df2/cancel_8hpp.html" target="_top" xlink:title="Task cancellation helpers.">
<polygon fill="white" stroke="#666666" points="465.5,-206 352.5,-206 352.5,-176 465.5,-176 465.5,-206"/>
<text text-anchor="start" x="360.5" y="-194" font-family="Helvetica,sans-Serif" font-size="10.00">userver/engine/task</text>
<text text-anchor="middle" x="409" y="-183" font-family="Helvetica,sans-Serif" font-size="10.00">/cancel.hpp</text>
</a>
</g>
</g>
<!-- Node1&#45;&gt;Node11 -->
<g id="edge27_Node000001_Node000011" class="edge">
<title>Node1&#45;&gt;Node11</title>
<g id="a_edge27_Node000001_Node000011"><a xlink:title=" ">
<path fill="none" stroke="#63b8ff" d="M426.64,-307.98C418.66,-298.61 409.27,-285.54 405,-272 399.33,-254 400.79,-232.61 403.42,-216.48"/>
<polygon fill="#63b8ff" stroke="#63b8ff" points="406.94,-216.73 405.35,-206.25 400.06,-215.43 406.94,-216.73"/>
</a>
</g>
</g>
<!-- Node14 -->
<g id="Node000014" class="node">
<title>Node14</title>
<g id="a_Node000014"><a xlink:href="../../d0/dd6/future__status_8hpp.html" target="_top" xlink:title="std::future state extended with &quot;cancelled&quot; state">
<polygon fill="white" stroke="#666666" points="897,-272 775,-272 775,-242 897,-242 897,-272"/>
<text text-anchor="start" x="783" y="-260" font-family="Helvetica,sans-Serif" font-size="10.00">userver/engine/future</text>
<text text-anchor="middle" x="836" y="-249" font-family="Helvetica,sans-Serif" font-size="10.00">_status.hpp</text>
</a>
</g>
</g>
<!-- Node1&#45;&gt;Node14 -->
<g id="edge14_Node000001_Node000014" class="edge">
<title>Node1&#45;&gt;Node14</title>
<g id="a_edge14_Node000001_Node000014"><a xlink:title=" ">
<path fill="none" stroke="#63b8ff" d="M517.56,-311.11C581.38,-301.92 674.46,-287.98 765.06,-272.12"/>
<polygon fill="#63b8ff" stroke="#63b8ff" points="765.71,-275.56 774.95,-270.38 764.49,-268.67 765.71,-275.56"/>
</a>
</g>
</g>
<!-- Node15 -->
<g id="Node000015" class="node">
<title>Node15</title>
<g id="a_Node000015"><a xlink:href="../../d9/dad/single__consumer__event_8hpp.html" target="_top" xlink:title="A multiple&#45;producers, single&#45;consumer event.">
<polygon fill="white" stroke="#666666" points="757,-272 633,-272 633,-242 757,-242 757,-272"/>
<text text-anchor="start" x="641" y="-260" font-family="Helvetica,sans-Serif" font-size="10.00">userver/engine/single</text>
<text text-anchor="middle" x="695" y="-249" font-family="Helvetica,sans-Serif" font-size="10.00">_consumer_event.hpp</text>
</a>
</g>
</g>
<!-- Node1&#45;&gt;Node15 -->
<g id="edge15_Node000001_Node000015" class="edge">
<title>Node1&#45;&gt;Node15</title>
<g id="a_edge15_Node000001_Node000015"><a xlink:title=" ">
<path fill="none" stroke="#63b8ff" d="M495.96,-307.95C535.32,-298.08 588.13,-284.82 629.46,-274.45"/>
<polygon fill="#63b8ff" stroke="#63b8ff" points="630.32,-277.84 639.17,-272.01 628.62,-271.05 630.32,-277.84"/>
</a>
</g>
</g>
<!-- Node23 -->
<g id="Node000023" class="node">
<title>Node23</title>
<g id="a_Node000023"><a xlink:href="../../d2/dd5/make__intrusive__ptr_8hpp.html" target="_top" xlink:title="Factory function for boost::intrusive_ptr, like std::make_unique.">
<polygon fill="white" stroke="#666666" points="199.5,-272 92.5,-272 92.5,-242 199.5,-242 199.5,-272"/>
<text text-anchor="start" x="100.5" y="-260" font-family="Helvetica,sans-Serif" font-size="10.00">userver/utils/make</text>
<text text-anchor="middle" x="146" y="-249" font-family="Helvetica,sans-Serif" font-size="10.00">_intrusive_ptr.hpp</text>
</a>
</g>
</g>
<!-- Node1&#45;&gt;Node23 -->
<g id="edge28_Node000001_Node000023" class="edge">
<title>Node1&#45;&gt;Node23</title>
<g id="a_edge28_Node000001_Node000023"><a xlink:title=" ">
<path fill="none" stroke="#63b8ff" d="M374.76,-307.98C330.83,-298.51 271.32,-285.65 209.54,-272.11"/>
<polygon fill="#63b8ff" stroke="#63b8ff" points="210.13,-268.66 199.61,-269.93 208.63,-275.5 210.13,-268.66"/>
</a>
</g>
</g>
<!-- Node5 -->
<g id="Node000005" class="node">
<title>Node5</title>
<g id="a_Node000005"><a xlink:title=" ">
<polygon fill="#e0e0e0" stroke="#999999" points="773,-74 723,-74 723,-55 773,-55 773,-74"/>
<text text-anchor="middle" x="748" y="-62" font-family="Helvetica,sans-Serif" font-size="10.00">chrono</text>
</a>
</g>
</g>
<!-- Node4&#45;&gt;Node5 -->
<g id="edge4_Node000004_Node000005" class="edge">
<title>Node4&#45;&gt;Node5</title>
<g id="a_edge4_Node000004_Node000005"><a xlink:title=" ">
<path fill="none" stroke="#63b8ff" d="M656.79,-115.37C674.33,-105.78 702.88,-90.17 723.37,-78.97"/>
<polygon fill="#63b8ff" stroke="#63b8ff" points="725.05,-82.04 732.15,-74.17 721.69,-75.89 725.05,-82.04"/>
</a>
</g>
</g>
<!-- Node6 -->
<g id="Node000006" class="node">
<title>Node6</title>
<g id="a_Node000006"><a xlink:title=" ">
<polygon fill="#e0e0e0" stroke="#999999" points="874.5,-74 805.5,-74 805.5,-55 874.5,-55 874.5,-74"/>
<text text-anchor="middle" x="840" y="-62" font-family="Helvetica,sans-Serif" font-size="10.00">type_traits</text>
</a>
</g>
</g>
<!-- Node4&#45;&gt;Node6 -->
<g id="edge5_Node000004_Node000006" class="edge">
<title>Node4&#45;&gt;Node6</title>
<g id="a_edge5_Node000004_Node000006"><a xlink:title=" ">
<path fill="none" stroke="#63b8ff" d="M669.94,-115.49C704.57,-105.31 762.7,-88.22 801.21,-76.9"/>
<polygon fill="#63b8ff" stroke="#63b8ff" points="802.42,-80.2 811.03,-74.02 800.45,-73.48 802.42,-80.2"/>
</a>
</g>
</g>
<!-- Node7 -->
<g id="Node000007" class="node">
<title>Node7</title>
<g id="a_Node000007"><a xlink:href="../../d2/d54/assert_8hpp.html" target="_top" xlink:title="Assertion macros UASSERT, UASSERT_MSG, UINVARIANT.">
<polygon fill="white" stroke="#666666" points="704.5,-74 573.5,-74 573.5,-55 704.5,-55 704.5,-74"/>
<text text-anchor="middle" x="639" y="-62" font-family="Helvetica,sans-Serif" font-size="10.00">userver/utils/assert.hpp</text>
</a>
</g>
</g>
<!-- Node4&#45;&gt;Node7 -->
<g id="edge6_Node000004_Node000007" class="edge">
<title>Node4&#45;&gt;Node7</title>
<g id="a_edge6_Node000004_Node000007"><a xlink:title=" ">
<path fill="none" stroke="#63b8ff" d="M640.7,-115.37C640.43,-107.25 640,-94.81 639.65,-84.39"/>
<polygon fill="#63b8ff" stroke="#63b8ff" points="643.14,-84.04 639.3,-74.17 636.14,-84.28 643.14,-84.04"/>
</a>
</g>
</g>
<!-- Node8 -->
<g id="Node000008" class="node">
<title>Node8</title>
<g id="a_Node000008"><a xlink:title=" ">
<polygon fill="#e0e0e0" stroke="#999999" points="675.5,-19 602.5,-19 602.5,0 675.5,0 675.5,-19"/>
<text text-anchor="middle" x="639" y="-7" font-family="Helvetica,sans-Serif" font-size="10.00">string_view</text>
</a>
</g>
</g>
<!-- Node7&#45;&gt;Node8 -->
<g id="edge7_Node000007_Node000008" class="edge">
<title>Node7&#45;&gt;Node8</title>
<g id="a_edge7_Node000007_Node000008"><a xlink:title=" ">
<path fill="none" stroke="#63b8ff" d="M639,-54.75C639,-47.8 639,-37.85 639,-29.13"/>
<polygon fill="#63b8ff" stroke="#63b8ff" points="642.5,-29.09 639,-19.09 635.5,-29.09 642.5,-29.09"/>
</a>
</g>
</g>
<!-- Node10 -->
<g id="Node000010" class="node">
<title>Node10</title>
<g id="a_Node000010"><a xlink:title=" ">
<polygon fill="#e0e0e0" stroke="#999999" points="548.5,-200.5 483.5,-200.5 483.5,-181.5 548.5,-181.5 548.5,-200.5"/>
<text text-anchor="middle" x="516" y="-188.5" font-family="Helvetica,sans-Serif" font-size="10.00">stdexcept</text>
</a>
</g>
</g>
<!-- Node9&#45;&gt;Node10 -->
<g id="edge9_Node000009_Node000010" class="edge">
<title>Node9&#45;&gt;Node10</title>
<g id="a_edge9_Node000009_Node000010"><a xlink:title=" ">
<path fill="none" stroke="#63b8ff" d="M497.83,-247.37C500.91,-237.97 505.94,-222.67 509.92,-210.53"/>
<polygon fill="#63b8ff" stroke="#63b8ff" points="513.29,-211.5 513.08,-200.91 506.63,-209.32 513.29,-211.5"/>
</a>
</g>
</g>
<!-- Node9&#45;&gt;Node11 -->
<g id="edge10_Node000009_Node000011" class="edge">
<title>Node9&#45;&gt;Node11</title>
<g id="a_edge10_Node000009_Node000011"><a xlink:title=" ">
<path fill="none" stroke="#63b8ff" d="M483.4,-247.37C471.41,-238.44 452.25,-224.19 436.38,-212.38"/>
<polygon fill="#63b8ff" stroke="#63b8ff" points="438.08,-209.28 427.97,-206.12 433.9,-214.89 438.08,-209.28"/>
</a>
</g>
</g>
<!-- Node11&#45;&gt;Node4 -->
<g id="edge13_Node000011_Node000004" class="edge">
<title>Node11&#45;&gt;Node4</title>
<g id="a_edge13_Node000011_Node000004"><a xlink:title=" ">
<path fill="none" stroke="#63b8ff" d="M459.91,-175.95C502.03,-164.34 561.08,-148.05 600.15,-137.27"/>
<polygon fill="#63b8ff" stroke="#63b8ff" points="601.42,-140.55 610.12,-134.52 599.55,-133.8 601.42,-140.55"/>
</a>
</g>
</g>
<!-- Node12 -->
<g id="Node000012" class="node">
<title>Node12</title>
<g id="a_Node000012"><a xlink:title=" ">
<polygon fill="#e0e0e0" stroke="#999999" points="343,-134.5 299,-134.5 299,-115.5 343,-115.5 343,-134.5"/>
<text text-anchor="middle" x="321" y="-122.5" font-family="Helvetica,sans-Serif" font-size="10.00">string</text>
</a>
</g>
</g>
<!-- Node11&#45;&gt;Node12 -->
<g id="edge11_Node000011_Node000012" class="edge">
<title>Node11&#45;&gt;Node12</title>
<g id="a_edge11_Node000011_Node000012"><a xlink:title=" ">
<path fill="none" stroke="#63b8ff" d="M389.47,-175.8C375.13,-165.37 355.7,-151.24 341.21,-140.69"/>
<polygon fill="#63b8ff" stroke="#63b8ff" points="343.05,-137.71 332.91,-134.66 338.93,-143.37 343.05,-137.71"/>
</a>
</g>
</g>
<!-- Node13 -->
<g id="Node000013" class="node">
<title>Node13</title>
<g id="a_Node000013"><a xlink:title=" ">
<polygon fill="#e0e0e0" stroke="#999999" points="501,-140 361,-140 361,-110 501,-110 501,-140"/>
<text text-anchor="start" x="369" y="-128" font-family="Helvetica,sans-Serif" font-size="10.00">boost/smart_ptr/intrusive</text>
<text text-anchor="middle" x="431" y="-117" font-family="Helvetica,sans-Serif" font-size="10.00">_ptr.hpp</text>
</a>
</g>
</g>
<!-- Node11&#45;&gt;Node13 -->
<g id="edge12_Node000011_Node000013" class="edge">
<title>Node11&#45;&gt;Node13</title>
<g id="a_edge12_Node000011_Node000013"><a xlink:title=" ">
<path fill="none" stroke="#63b8ff" d="M413.88,-175.8C416.5,-168.17 419.8,-158.57 422.8,-149.84"/>
<polygon fill="#63b8ff" stroke="#63b8ff" points="426.19,-150.76 426.13,-140.16 419.57,-148.48 426.19,-150.76"/>
</a>
</g>
</g>
<!-- Node15&#45;&gt;Node4 -->
<g id="edge18_Node000015_Node000004" class="edge">
<title>Node15&#45;&gt;Node4</title>
<g id="a_edge18_Node000015_Node000004"><a xlink:title=" ">
<path fill="none" stroke="#63b8ff" d="M683.44,-241.93C676.07,-232.33 666.84,-219.03 661,-206 652.06,-186.04 646.67,-161.42 643.77,-144.8"/>
<polygon fill="#63b8ff" stroke="#63b8ff" points="647.2,-144.05 642.16,-134.74 640.29,-145.16 647.2,-144.05"/>
</a>
</g>
</g>
<!-- Node15&#45;&gt;Node5 -->
<g id="edge17_Node000015_Node000005" class="edge">
<title>Node15&#45;&gt;Node5</title>
<g id="a_edge17_Node000015_Node000005"><a xlink:title=" ">
<path fill="none" stroke="#63b8ff" d="M707.38,-241.71C714.89,-232.22 723.97,-219.14 729,-206 744.87,-164.57 747.81,-111.83 748.16,-84.24"/>
<polygon fill="#63b8ff" stroke="#63b8ff" points="751.66,-84.07 748.18,-74.07 744.66,-84.06 751.66,-84.07"/>
</a>
</g>
</g>
<!-- Node16 -->
<g id="Node000016" class="node">
<title>Node16</title>
<g id="a_Node000016"><a xlink:title=" ">
<polygon fill="#e0e0e0" stroke="#999999" points="720,-200.5 670,-200.5 670,-181.5 720,-181.5 720,-200.5"/>
<text text-anchor="middle" x="695" y="-188.5" font-family="Helvetica,sans-Serif" font-size="10.00">atomic</text>
</a>
</g>
</g>
<!-- Node15&#45;&gt;Node16 -->
<g id="edge16_Node000015_Node000016" class="edge">
<title>Node15&#45;&gt;Node16</title>
<g id="a_edge16_Node000015_Node000016"><a xlink:title=" ">
<path fill="none" stroke="#63b8ff" d="M695,-241.8C695,-232.7 695,-220.79 695,-210.9"/>
<polygon fill="#63b8ff" stroke="#63b8ff" points="698.5,-210.84 695,-200.84 691.5,-210.84 698.5,-210.84"/>
</a>
</g>
</g>
<!-- Node17 -->
<g id="Node000017" class="node">
<title>Node17</title>
<g id="a_Node000017"><a xlink:href="../../d9/db5/wait__list__fwd_8hpp_source.html" target="_top" xlink:title=" ">
<polygon fill="white" stroke="#666666" points="909,-206 795,-206 795,-176 909,-176 909,-206"/>
<text text-anchor="start" x="803" y="-194" font-family="Helvetica,sans-Serif" font-size="10.00">userver/engine/impl</text>
<text text-anchor="middle" x="852" y="-183" font-family="Helvetica,sans-Serif" font-size="10.00">/wait_list_fwd.hpp</text>
</a>
</g>
</g>
<!-- Node15&#45;&gt;Node17 -->
<g id="edge19_Node000015_Node000017" class="edge">
<title>Node15&#45;&gt;Node17</title>
<g id="a_edge19_Node000015_Node000017"><a xlink:title=" ">
<path fill="none" stroke="#63b8ff" d="M729.45,-241.95C752.56,-232.53 783.2,-220.04 808.06,-209.91"/>
<polygon fill="#63b8ff" stroke="#63b8ff" points="809.69,-213.03 817.63,-206.01 807.04,-206.55 809.69,-213.03"/>
</a>
</g>
</g>
<!-- Node18 -->
<g id="Node000018" class="node">
<title>Node18</title>
<g id="a_Node000018"><a xlink:href="../../d2/d84/select_8hpp.html" target="_top" xlink:title="Utilities for selection of platform specific values.">
<polygon fill="white" stroke="#666666" points="928,-134.5 776,-134.5 776,-115.5 928,-115.5 928,-134.5"/>
<text text-anchor="middle" x="852" y="-122.5" font-family="Helvetica,sans-Serif" font-size="10.00">userver/compiler/select.hpp</text>
</a>
</g>
</g>
<!-- Node17&#45;&gt;Node18 -->
<g id="edge20_Node000017_Node000018" class="edge">
<title>Node17&#45;&gt;Node18</title>
<g id="a_edge20_Node000017_Node000018"><a xlink:title=" ">
<path fill="none" stroke="#63b8ff" d="M852,-175.8C852,-166.7 852,-154.79 852,-144.9"/>
<polygon fill="#63b8ff" stroke="#63b8ff" points="855.5,-144.84 852,-134.84 848.5,-144.84 855.5,-144.84"/>
</a>
</g>
</g>
<!-- Node20 -->
<g id="Node000020" class="node">
<title>Node20</title>
<g id="a_Node000020"><a xlink:href="../../d5/d02/fast__pimpl_8hpp.html" target="_top" xlink:title="Implements pimpl idiom without dynamic memory allocation.">
<polygon fill="white" stroke="#666666" points="1045.5,-140 946.5,-140 946.5,-110 1045.5,-110 1045.5,-140"/>
<text text-anchor="start" x="954.5" y="-128" font-family="Helvetica,sans-Serif" font-size="10.00">userver/utils/fast</text>
<text text-anchor="middle" x="996" y="-117" font-family="Helvetica,sans-Serif" font-size="10.00">_pimpl.hpp</text>
</a>
</g>
</g>
<!-- Node17&#45;&gt;Node20 -->
<g id="edge22_Node000017_Node000020" class="edge">
<title>Node17&#45;&gt;Node20</title>
<g id="a_edge22_Node000017_Node000020"><a xlink:title=" ">
<path fill="none" stroke="#63b8ff" d="M883.6,-175.95C904.61,-166.62 932.4,-154.27 955.09,-144.18"/>
<polygon fill="#63b8ff" stroke="#63b8ff" points="956.76,-147.27 964.47,-140.01 953.91,-140.88 956.76,-147.27"/>
</a>
</g>
</g>
<!-- Node19 -->
<g id="Node000019" class="node">
<title>Node19</title>
<g id="a_Node000019"><a xlink:title=" ">
<polygon fill="#e0e0e0" stroke="#999999" points="952.5,-74 899.5,-74 899.5,-55 952.5,-55 952.5,-74"/>
<text text-anchor="middle" x="926" y="-62" font-family="Helvetica,sans-Serif" font-size="10.00">cstddef</text>
</a>
</g>
</g>
<!-- Node18&#45;&gt;Node19 -->
<g id="edge21_Node000018_Node000019" class="edge">
<title>Node18&#45;&gt;Node19</title>
<g id="a_edge21_Node000018_Node000019"><a xlink:title=" ">
<path fill="none" stroke="#63b8ff" d="M862.92,-115.37C874.51,-106.21 893.03,-91.56 907.02,-80.51"/>
<polygon fill="#63b8ff" stroke="#63b8ff" points="909.36,-83.11 915.04,-74.17 905.02,-77.62 909.36,-83.11"/>
</a>
</g>
</g>
<!-- Node20&#45;&gt;Node6 -->
<g id="edge25_Node000020_Node000006" class="edge">
<title>Node20&#45;&gt;Node6</title>
<g id="a_edge25_Node000020_Node000006"><a xlink:title=" ">
<path fill="none" stroke="#63b8ff" d="M958.63,-109.99C932.37,-100.14 897.59,-87.1 872.48,-77.68"/>
<polygon fill="#63b8ff" stroke="#63b8ff" points="873.63,-74.37 863.04,-74.14 871.17,-80.93 873.63,-74.37"/>
</a>
</g>
</g>
<!-- Node20&#45;&gt;Node19 -->
<g id="edge23_Node000020_Node000019" class="edge">
<title>Node20&#45;&gt;Node19</title>
<g id="a_edge23_Node000020_Node000019"><a xlink:title=" ">
<path fill="none" stroke="#63b8ff" d="M979.05,-109.84C968.58,-101.09 955.14,-89.85 944.41,-80.88"/>
<polygon fill="#63b8ff" stroke="#63b8ff" points="946.41,-77.99 936.49,-74.27 941.92,-83.36 946.41,-77.99"/>
</a>
</g>
</g>
<!-- Node21 -->
<g id="Node000021" class="node">
<title>Node21</title>
<g id="a_Node000021"><a xlink:title=" ">
<polygon fill="#e0e0e0" stroke="#999999" points="1010.5,-74 973.5,-74 973.5,-55 1010.5,-55 1010.5,-74"/>
<text text-anchor="middle" x="992" y="-62" font-family="Helvetica,sans-Serif" font-size="10.00">new</text>
</a>
</g>
</g>
<!-- Node20&#45;&gt;Node21 -->
<g id="edge24_Node000020_Node000021" class="edge">
<title>Node20&#45;&gt;Node21</title>
<g id="a_edge24_Node000020_Node000021"><a xlink:title=" ">
<path fill="none" stroke="#63b8ff" d="M995.03,-109.84C994.51,-102.21 993.86,-92.7 993.3,-84.45"/>
<polygon fill="#63b8ff" stroke="#63b8ff" points="996.77,-84 992.6,-74.27 989.79,-84.48 996.77,-84"/>
</a>
</g>
</g>
<!-- Node22 -->
<g id="Node000022" class="node">
<title>Node22</title>
<g id="a_Node000022"><a xlink:title=" ">
<polygon fill="#e0e0e0" stroke="#999999" points="1073.5,-74 1028.5,-74 1028.5,-55 1073.5,-55 1073.5,-74"/>
<text text-anchor="middle" x="1051" y="-62" font-family="Helvetica,sans-Serif" font-size="10.00">utility</text>
</a>
</g>
</g>
<!-- Node20&#45;&gt;Node22 -->
<g id="edge26_Node000020_Node000022" class="edge">
<title>Node20&#45;&gt;Node22</title>
<g id="a_edge26_Node000020_Node000022"><a xlink:title=" ">
<path fill="none" stroke="#63b8ff" d="M1009.31,-109.84C1017.3,-101.35 1027.48,-90.52 1035.78,-81.69"/>
<polygon fill="#63b8ff" stroke="#63b8ff" points="1038.46,-83.95 1042.76,-74.27 1033.36,-79.15 1038.46,-83.95"/>
</a>
</g>
</g>
<!-- Node23&#45;&gt;Node2 -->
<g id="edge30_Node000023_Node000002" class="edge">
<title>Node23&#45;&gt;Node2</title>
<g id="a_edge30_Node000023_Node000002"><a xlink:title=" ">
<path fill="none" stroke="#63b8ff" d="M127.8,-241.8C114.64,-231.53 96.89,-217.67 83.45,-207.18"/>
<polygon fill="#63b8ff" stroke="#63b8ff" points="85.37,-204.24 75.33,-200.84 81.06,-209.76 85.37,-204.24"/>
</a>
</g>
</g>
<!-- Node24 -->
<g id="Node000024" class="node">
<title>Node24</title>
<g id="a_Node000024"><a xlink:title=" ">
<polygon fill="#e0e0e0" stroke="#999999" points="204,-200.5 146,-200.5 146,-181.5 204,-181.5 204,-200.5"/>
<text text-anchor="middle" x="175" y="-188.5" font-family="Helvetica,sans-Serif" font-size="10.00">memory</text>
</a>
</g>
</g>
<!-- Node23&#45;&gt;Node24 -->
<g id="edge29_Node000023_Node000024" class="edge">
<title>Node23&#45;&gt;Node24</title>
<g id="a_edge29_Node000023_Node000024"><a xlink:title=" ">
<path fill="none" stroke="#63b8ff" d="M152.44,-241.8C156.65,-232.5 162.19,-220.27 166.73,-210.26"/>
<polygon fill="#63b8ff" stroke="#63b8ff" points="170.05,-211.4 170.99,-200.84 163.68,-208.51 170.05,-211.4"/>
</a>
</g>
</g>
</g>
</svg>
