<?xml version="1.0" encoding="UTF-8" standalone="no"?>
<!DOCTYPE svg PUBLIC "-//W3C//DTD SVG 1.1//EN"
 "http://www.w3.org/Graphics/SVG/1.1/DTD/svg11.dtd">
<!-- Generated by graphviz version 2.43.0 (0)
 -->
<!-- Title: userver/concurrent/mpsc_queue.hpp Pages: 1 -->
<svg width="1103pt" height="368pt"
 viewBox="0.00 0.00 1103.00 368.00" xmlns="http://www.w3.org/2000/svg" xmlns:xlink="http://www.w3.org/1999/xlink">
<g id="graph0" class="graph" transform="scale(1 1) rotate(0) translate(4 364)">
<title>userver/concurrent/mpsc_queue.hpp</title>
<!-- Node1 -->
<g id="Node000001" class="node">
<title>Node1</title>
<g id="a_Node000001"><a xlink:title="Multiple producer, single consumer queue.">
<polygon fill="#999999" stroke="#666666" points="663,-360 555,-360 555,-330 663,-330 663,-360"/>
<text text-anchor="start" x="563" y="-348" font-family="Helvetica,sans-Serif" font-size="10.00">userver/concurrent</text>
<text text-anchor="middle" x="609" y="-337" font-family="Helvetica,sans-Serif" font-size="10.00">/mpsc_queue.hpp</text>
</a>
</g>
</g>
<!-- Node2 -->
<g id="Node000002" class="node">
<title>Node2</title>
<g id="a_Node000002"><a xlink:title=" ">
<polygon fill="#e0e0e0" stroke="#999999" points="50,-145.5 0,-145.5 0,-126.5 50,-126.5 50,-145.5"/>
<text text-anchor="middle" x="25" y="-133.5" font-family="Helvetica,sans-Serif" font-size="10.00">atomic</text>
</a>
</g>
</g>
<!-- Node1&#45;&gt;Node2 -->
<g id="edge1_Node000001_Node000002" class="edge">
<title>Node1&#45;&gt;Node2</title>
<g id="a_edge1_Node000001_Node000002"><a xlink:title=" ">
<path fill="none" stroke="#63b8ff" d="M554.77,-341.59C448.44,-336.31 216.44,-321.91 142,-294 86.12,-273.05 61.84,-268.68 32,-217 21.24,-198.36 20.91,-173.11 22.35,-156"/>
<polygon fill="#63b8ff" stroke="#63b8ff" points="25.87,-155.97 23.51,-145.64 18.92,-155.18 25.87,-155.97"/>
</a>
</g>
</g>
<!-- Node3 -->
<g id="Node000003" class="node">
<title>Node3</title>
<g id="a_Node000003"><a xlink:title=" ">
<polygon fill="#e0e0e0" stroke="#999999" points="937,-283 893,-283 893,-264 937,-264 937,-283"/>
<text text-anchor="middle" x="915" y="-271" font-family="Helvetica,sans-Serif" font-size="10.00">limits</text>
</a>
</g>
</g>
<!-- Node1&#45;&gt;Node3 -->
<g id="edge2_Node000001_Node000003" class="edge">
<title>Node1&#45;&gt;Node3</title>
<g id="a_edge2_Node000001_Node000003"><a xlink:title=" ">
<path fill="none" stroke="#63b8ff" d="M663.05,-339.02C718.5,-332.76 806.64,-319.58 879,-294 883.49,-292.41 888.1,-290.32 892.46,-288.09"/>
<polygon fill="#63b8ff" stroke="#63b8ff" points="894.37,-291.03 901.45,-283.15 891,-284.9 894.37,-291.03"/>
</a>
</g>
</g>
<!-- Node4 -->
<g id="Node000004" class="node">
<title>Node4</title>
<g id="a_Node000004"><a xlink:title=" ">
<polygon fill="#e0e0e0" stroke="#999999" points="772,-145.5 714,-145.5 714,-126.5 772,-126.5 772,-145.5"/>
<text text-anchor="middle" x="743" y="-133.5" font-family="Helvetica,sans-Serif" font-size="10.00">memory</text>
</a>
</g>
</g>
<!-- Node1&#45;&gt;Node4 -->
<g id="edge3_Node000001_Node000004" class="edge">
<title>Node1&#45;&gt;Node4</title>
<g id="a_edge3_Node000001_Node000004"><a xlink:title=" ">
<path fill="none" stroke="#63b8ff" d="M656.02,-329.89C704.79,-312.37 778.03,-277.17 808,-217 813.94,-205.06 813.89,-198.96 808,-187 800.21,-171.18 784.74,-158.96 770.85,-150.57"/>
<polygon fill="#63b8ff" stroke="#63b8ff" points="772.47,-147.46 762.04,-145.6 769.03,-153.56 772.47,-147.46"/>
</a>
</g>
</g>
<!-- Node5 -->
<g id="Node000005" class="node">
<title>Node5</title>
<g id="a_Node000005"><a xlink:title=" ">
<polygon fill="#e0e0e0" stroke="#999999" points="1095,-283 955,-283 955,-264 1095,-264 1095,-283"/>
<text text-anchor="middle" x="1025" y="-271" font-family="Helvetica,sans-Serif" font-size="10.00">boost/lockfree/queue.hpp</text>
</a>
</g>
</g>
<!-- Node1&#45;&gt;Node5 -->
<g id="edge4_Node000001_Node000005" class="edge">
<title>Node1&#45;&gt;Node5</title>
<g id="a_edge4_Node000001_Node000005"><a xlink:title=" ">
<path fill="none" stroke="#63b8ff" d="M663.26,-337.56C730.08,-329.25 846.91,-313.53 946,-294 958.24,-291.59 971.43,-288.52 983.46,-285.54"/>
<polygon fill="#63b8ff" stroke="#63b8ff" points="984.41,-288.91 993.25,-283.07 982.7,-282.12 984.41,-288.91"/>
</a>
</g>
</g>
<!-- Node6 -->
<g id="Node000006" class="node">
<title>Node6</title>
<g id="a_Node000006"><a xlink:href="../../d2/da1/semaphore__capacity__control_8hpp_source.html" target="_top" xlink:title=" ">
<polygon fill="white" stroke="#666666" points="297,-294 151,-294 151,-253 297,-253 297,-294"/>
<text text-anchor="start" x="159" y="-282" font-family="Helvetica,sans-Serif" font-size="10.00">userver/concurrent</text>
<text text-anchor="start" x="159" y="-271" font-family="Helvetica,sans-Serif" font-size="10.00">/impl/semaphore_capacity</text>
<text text-anchor="middle" x="224" y="-260" font-family="Helvetica,sans-Serif" font-size="10.00">_control.hpp</text>
</a>
</g>
</g>
<!-- Node1&#45;&gt;Node6 -->
<g id="edge5_Node000001_Node000006" class="edge">
<title>Node1&#45;&gt;Node6</title>
<g id="a_edge5_Node000001_Node000006"><a xlink:title=" ">
<path fill="none" stroke="#63b8ff" d="M554.73,-335.8C494.88,-326.55 395.82,-310.61 311,-294 309.72,-293.75 308.43,-293.49 307.13,-293.23"/>
<polygon fill="#63b8ff" stroke="#63b8ff" points="307.54,-289.75 297.04,-291.17 306.14,-296.6 307.54,-289.75"/>
</a>
</g>
</g>
<!-- Node7 -->
<g id="Node000007" class="node">
<title>Node7</title>
<g id="a_Node000007"><a xlink:href="../../d1/d5a/semaphore_8hpp.html" target="_top" xlink:title="Class that allows up to max_simultaneous_locks concurrent accesses to the critical section....">
<polygon fill="white" stroke="#666666" points="373,-211.5 205,-211.5 205,-192.5 373,-192.5 373,-211.5"/>
<text text-anchor="middle" x="289" y="-199.5" font-family="Helvetica,sans-Serif" font-size="10.00">userver/engine/semaphore.hpp</text>
</a>
</g>
</g>
<!-- Node1&#45;&gt;Node7 -->
<g id="edge31_Node000001_Node000007" class="edge">
<title>Node1&#45;&gt;Node7</title>
<g id="a_edge31_Node000001_Node000007"><a xlink:title=" ">
<path fill="none" stroke="#63b8ff" d="M554.7,-339.76C507.98,-334.29 439.95,-321.9 387,-294 377.5,-288.99 330.56,-243.71 305.25,-218.97"/>
<polygon fill="#63b8ff" stroke="#63b8ff" points="307.46,-216.23 297.87,-211.74 302.56,-221.23 307.46,-216.23"/>
</a>
</g>
</g>
<!-- Node11 -->
<g id="Node000011" class="node">
<title>Node11</title>
<g id="a_Node000011"><a xlink:href="../../d2/d22/deadline_8hpp.html" target="_top" xlink:title="Internal representation of a deadline time point.">
<polygon fill="white" stroke="#666666" points="619.5,-145.5 464.5,-145.5 464.5,-126.5 619.5,-126.5 619.5,-145.5"/>
<text text-anchor="middle" x="542" y="-133.5" font-family="Helvetica,sans-Serif" font-size="10.00">userver/engine/deadline.hpp</text>
</a>
</g>
</g>
<!-- Node1&#45;&gt;Node11 -->
<g id="edge30_Node000001_Node000011" class="edge">
<title>Node1&#45;&gt;Node11</title>
<g id="a_edge30_Node000001_Node000011"><a xlink:title=" ">
<path fill="none" stroke="#63b8ff" d="M568.02,-329.91C522.44,-311.77 451.14,-275.44 420,-217 413.73,-205.23 412.57,-198.07 420,-187 433,-167.63 454.98,-155.75 476.74,-148.48"/>
<polygon fill="#63b8ff" stroke="#63b8ff" points="477.81,-151.81 486.35,-145.54 475.77,-145.12 477.81,-151.81"/>
</a>
</g>
</g>
<!-- Node13 -->
<g id="Node000013" class="node">
<title>Node13</title>
<g id="a_Node000013"><a xlink:href="../../d2/d54/assert_8hpp.html" target="_top" xlink:title="Assertion macros UASSERT, UASSERT_MSG, UINVARIANT.">
<polygon fill="white" stroke="#666666" points="713.5,-79.5 582.5,-79.5 582.5,-60.5 713.5,-60.5 713.5,-79.5"/>
<text text-anchor="middle" x="648" y="-67.5" font-family="Helvetica,sans-Serif" font-size="10.00">userver/utils/assert.hpp</text>
</a>
</g>
</g>
<!-- Node1&#45;&gt;Node13 -->
<g id="edge41_Node000001_Node000013" class="edge">
<title>Node1&#45;&gt;Node13</title>
<g id="a_edge41_Node000001_Node000013"><a xlink:title=" ">
<path fill="none" stroke="#63b8ff" d="M663.03,-336.59C696.64,-329.86 739.33,-317.27 771,-294 804.48,-269.4 811.67,-256.67 824,-217 837.88,-172.36 817.46,-150.27 781,-121 757.55,-102.17 726.27,-89.94 699.93,-82.28"/>
<polygon fill="#63b8ff" stroke="#63b8ff" points="700.68,-78.86 690.11,-79.57 698.82,-85.61 700.68,-78.86"/>
</a>
</g>
</g>
<!-- Node21 -->
<g id="Node000021" class="node">
<title>Node21</title>
<g id="a_Node000021"><a xlink:href="../../d6/d20/queue__helpers_8hpp_source.html" target="_top" xlink:title=" ">
<polygon fill="white" stroke="#666666" points="799,-217 687,-217 687,-187 799,-187 799,-217"/>
<text text-anchor="start" x="695" y="-205" font-family="Helvetica,sans-Serif" font-size="10.00">userver/concurrent</text>
<text text-anchor="middle" x="743" y="-194" font-family="Helvetica,sans-Serif" font-size="10.00">/queue_helpers.hpp</text>
</a>
</g>
</g>
<!-- Node1&#45;&gt;Node21 -->
<g id="edge27_Node000001_Node000021" class="edge">
<title>Node1&#45;&gt;Node21</title>
<g id="a_edge27_Node000001_Node000021"><a xlink:title=" ">
<path fill="none" stroke="#63b8ff" d="M630.74,-329.86C644.24,-320.53 661.53,-307.56 675,-294 696,-272.86 715.89,-244.98 728.68,-225.68"/>
<polygon fill="#63b8ff" stroke="#63b8ff" points="731.67,-227.5 734.19,-217.21 725.8,-223.68 731.67,-227.5"/>
</a>
</g>
</g>
<!-- Node22 -->
<g id="Node000022" class="node">
<title>Node22</title>
<g id="a_Node000022"><a xlink:href="../../d9/dad/single__consumer__event_8hpp.html" target="_top" xlink:title="A multiple&#45;producers, single&#45;consumer event.">
<polygon fill="white" stroke="#666666" points="187,-217 63,-217 63,-187 187,-187 187,-217"/>
<text text-anchor="start" x="71" y="-205" font-family="Helvetica,sans-Serif" font-size="10.00">userver/engine/single</text>
<text text-anchor="middle" x="125" y="-194" font-family="Helvetica,sans-Serif" font-size="10.00">_consumer_event.hpp</text>
</a>
</g>
</g>
<!-- Node1&#45;&gt;Node22 -->
<g id="edge32_Node000001_Node000022" class="edge">
<title>Node1&#45;&gt;Node22</title>
<g id="a_edge32_Node000001_Node000022"><a xlink:title=" ">
<path fill="none" stroke="#63b8ff" d="M554.9,-338.47C486.87,-330.76 374.66,-315.29 339,-294 318.91,-282.01 325.55,-265.84 306,-253 287.84,-241.07 239.51,-228 197.36,-218.22"/>
<polygon fill="#63b8ff" stroke="#63b8ff" points="197.88,-214.75 187.36,-215.94 196.32,-221.58 197.88,-214.75"/>
</a>
</g>
</g>
<!-- Node23 -->
<g id="Node000023" class="node">
<title>Node23</title>
<g id="a_Node000023"><a xlink:href="../../db/df2/cancel_8hpp.html" target="_top" xlink:title="Task cancellation helpers.">
<polygon fill="white" stroke="#666666" points="665.5,-288.5 552.5,-288.5 552.5,-258.5 665.5,-258.5 665.5,-288.5"/>
<text text-anchor="start" x="560.5" y="-276.5" font-family="Helvetica,sans-Serif" font-size="10.00">userver/engine/task</text>
<text text-anchor="middle" x="609" y="-265.5" font-family="Helvetica,sans-Serif" font-size="10.00">/cancel.hpp</text>
</a>
</g>
</g>
<!-- Node1&#45;&gt;Node23 -->
<g id="edge37_Node000001_Node000023" class="edge">
<title>Node1&#45;&gt;Node23</title>
<g id="a_edge37_Node000001_Node000023"><a xlink:title=" ">
<path fill="none" stroke="#63b8ff" d="M609,-329.94C609,-320.99 609,-309.16 609,-298.73"/>
<polygon fill="#63b8ff" stroke="#63b8ff" points="612.5,-298.54 609,-288.54 605.5,-298.54 612.5,-298.54"/>
</a>
</g>
</g>
<!-- Node6&#45;&gt;Node2 -->
<g id="edge6_Node000006_Node000002" class="edge">
<title>Node6&#45;&gt;Node2</title>
<g id="a_edge6_Node000006_Node000002"><a xlink:title=" ">
<path fill="none" stroke="#63b8ff" d="M150.72,-263.43C117.53,-255.92 79.98,-242.16 54,-217 37.13,-200.66 30.03,-173.76 27.07,-155.72"/>
<polygon fill="#63b8ff" stroke="#63b8ff" points="30.53,-155.23 25.71,-145.8 23.6,-156.18 30.53,-155.23"/>
</a>
</g>
</g>
<!-- Node6&#45;&gt;Node7 -->
<g id="edge7_Node000006_Node000007" class="edge">
<title>Node6&#45;&gt;Node7</title>
<g id="a_edge7_Node000006_Node000007"><a xlink:title=" ">
<path fill="none" stroke="#63b8ff" d="M242.45,-252.77C252.4,-242.13 264.53,-229.16 273.91,-219.13"/>
<polygon fill="#63b8ff" stroke="#63b8ff" points="276.48,-221.51 280.75,-211.82 271.36,-216.73 276.48,-221.51"/>
</a>
</g>
</g>
<!-- Node7&#45;&gt;Node2 -->
<g id="edge8_Node000007_Node000002" class="edge">
<title>Node7&#45;&gt;Node2</title>
<g id="a_edge8_Node000007_Node000002"><a xlink:title=" ">
<path fill="none" stroke="#63b8ff" d="M237.17,-192.44C190.1,-184.03 119.08,-169.74 59,-151 57.32,-150.48 55.62,-149.91 53.9,-149.3"/>
<polygon fill="#63b8ff" stroke="#63b8ff" points="54.79,-145.89 44.2,-145.6 52.29,-152.43 54.79,-145.89"/>
</a>
</g>
</g>
<!-- Node7&#45;&gt;Node4 -->
<g id="edge25_Node000007_Node000004" class="edge">
<title>Node7&#45;&gt;Node4</title>
<g id="a_edge25_Node000007_Node000004"><a xlink:title=" ">
<path fill="none" stroke="#63b8ff" d="M358.55,-192.48C433.55,-183.1 556.41,-167.2 662,-151 675.58,-148.92 690.4,-146.42 703.61,-144.12"/>
<polygon fill="#63b8ff" stroke="#63b8ff" points="704.56,-147.5 713.8,-142.32 703.34,-140.61 704.56,-147.5"/>
</a>
</g>
</g>
<!-- Node8 -->
<g id="Node000008" class="node">
<title>Node8</title>
<g id="a_Node000008"><a xlink:title=" ">
<polygon fill="#e0e0e0" stroke="#999999" points="372,-79.5 322,-79.5 322,-60.5 372,-60.5 372,-79.5"/>
<text text-anchor="middle" x="347" y="-67.5" font-family="Helvetica,sans-Serif" font-size="10.00">chrono</text>
</a>
</g>
</g>
<!-- Node7&#45;&gt;Node8 -->
<g id="edge9_Node000007_Node000008" class="edge">
<title>Node7&#45;&gt;Node8</title>
<g id="a_edge9_Node000007_Node000008"><a xlink:title=" ">
<path fill="none" stroke="#63b8ff" d="M293.12,-192.17C297.76,-182.2 305.51,-165.47 312,-151 321.47,-129.9 332.08,-105.53 339.11,-89.29"/>
<polygon fill="#63b8ff" stroke="#63b8ff" points="342.42,-90.47 343.17,-79.9 335.99,-87.69 342.42,-90.47"/>
</a>
</g>
</g>
<!-- Node9 -->
<g id="Node000009" class="node">
<title>Node9</title>
<g id="a_Node000009"><a xlink:title=" ">
<polygon fill="#e0e0e0" stroke="#999999" points="446,-145.5 360,-145.5 360,-126.5 446,-126.5 446,-145.5"/>
<text text-anchor="middle" x="403" y="-133.5" font-family="Helvetica,sans-Serif" font-size="10.00">shared_mutex</text>
</a>
</g>
</g>
<!-- Node7&#45;&gt;Node9 -->
<g id="edge10_Node000007_Node000009" class="edge">
<title>Node7&#45;&gt;Node9</title>
<g id="a_edge10_Node000007_Node000009"><a xlink:title=" ">
<path fill="none" stroke="#63b8ff" d="M304.37,-192.37C323.41,-181.68 356.07,-163.35 378.56,-150.72"/>
<polygon fill="#63b8ff" stroke="#63b8ff" points="380.5,-153.65 387.5,-145.7 377.07,-147.54 380.5,-153.65"/>
</a>
</g>
</g>
<!-- Node10 -->
<g id="Node000010" class="node">
<title>Node10</title>
<g id="a_Node000010"><a xlink:title=" ">
<polygon fill="#e0e0e0" stroke="#999999" points="303.5,-145.5 238.5,-145.5 238.5,-126.5 303.5,-126.5 303.5,-145.5"/>
<text text-anchor="middle" x="271" y="-133.5" font-family="Helvetica,sans-Serif" font-size="10.00">stdexcept</text>
</a>
</g>
</g>
<!-- Node7&#45;&gt;Node10 -->
<g id="edge11_Node000007_Node000010" class="edge">
<title>Node7&#45;&gt;Node10</title>
<g id="a_edge11_Node000007_Node000010"><a xlink:title=" ">
<path fill="none" stroke="#63b8ff" d="M286.57,-192.37C283.96,-183.07 279.71,-167.98 276.32,-155.9"/>
<polygon fill="#63b8ff" stroke="#63b8ff" points="279.58,-154.58 273.5,-145.91 272.84,-156.48 279.58,-154.58"/>
</a>
</g>
</g>
<!-- Node7&#45;&gt;Node11 -->
<g id="edge12_Node000007_Node000011" class="edge">
<title>Node7&#45;&gt;Node11</title>
<g id="a_edge12_Node000007_Node000011"><a xlink:title=" ">
<path fill="none" stroke="#63b8ff" d="M322.86,-192.44C368.21,-180.96 448.72,-160.6 498.51,-148"/>
<polygon fill="#63b8ff" stroke="#63b8ff" points="499.51,-151.36 508.34,-145.51 497.79,-144.57 499.51,-151.36"/>
</a>
</g>
</g>
<!-- Node7&#45;&gt;Node13 -->
<g id="edge26_Node000007_Node000013" class="edge">
<title>Node7&#45;&gt;Node13</title>
<g id="a_edge26_Node000007_Node000013"><a xlink:title=" ">
<path fill="none" stroke="#63b8ff" d="M361.32,-192.45C458.21,-180.7 619.2,-159.98 629,-151 645.91,-135.51 649.08,-107.95 649.09,-89.58"/>
<polygon fill="#63b8ff" stroke="#63b8ff" points="652.59,-89.4 648.79,-79.51 645.59,-89.61 652.59,-89.4"/>
</a>
</g>
</g>
<!-- Node15 -->
<g id="Node000015" class="node">
<title>Node15</title>
<g id="a_Node000015"><a xlink:href="../../d9/db5/wait__list__fwd_8hpp_source.html" target="_top" xlink:title=" ">
<polygon fill="white" stroke="#666666" points="182,-151 68,-151 68,-121 182,-121 182,-151"/>
<text text-anchor="start" x="76" y="-139" font-family="Helvetica,sans-Serif" font-size="10.00">userver/engine/impl</text>
<text text-anchor="middle" x="125" y="-128" font-family="Helvetica,sans-Serif" font-size="10.00">/wait_list_fwd.hpp</text>
</a>
</g>
</g>
<!-- Node7&#45;&gt;Node15 -->
<g id="edge17_Node000007_Node000015" class="edge">
<title>Node7&#45;&gt;Node15</title>
<g id="a_edge17_Node000007_Node000015"><a xlink:title=" ">
<path fill="none" stroke="#63b8ff" d="M266.88,-192.37C242.32,-182.78 201.99,-167.05 170.6,-154.8"/>
<polygon fill="#63b8ff" stroke="#63b8ff" points="171.76,-151.49 161.17,-151.12 169.21,-158.01 171.76,-151.49"/>
</a>
</g>
</g>
<!-- Node11&#45;&gt;Node8 -->
<g id="edge13_Node000011_Node000008" class="edge">
<title>Node11&#45;&gt;Node8</title>
<g id="a_edge13_Node000011_Node000008"><a xlink:title=" ">
<path fill="none" stroke="#63b8ff" d="M515.7,-126.37C481.16,-115.03 420.39,-95.09 381.99,-82.48"/>
<polygon fill="#63b8ff" stroke="#63b8ff" points="382.86,-79.09 372.26,-79.29 380.67,-85.74 382.86,-79.09"/>
</a>
</g>
</g>
<!-- Node12 -->
<g id="Node000012" class="node">
<title>Node12</title>
<g id="a_Node000012"><a xlink:title=" ">
<polygon fill="#e0e0e0" stroke="#999999" points="425.5,-19 356.5,-19 356.5,0 425.5,0 425.5,-19"/>
<text text-anchor="middle" x="391" y="-7" font-family="Helvetica,sans-Serif" font-size="10.00">type_traits</text>
</a>
</g>
</g>
<!-- Node11&#45;&gt;Node12 -->
<g id="edge14_Node000011_Node000012" class="edge">
<title>Node11&#45;&gt;Node12</title>
<g id="a_edge14_Node000011_Node000012"><a xlink:title=" ">
<path fill="none" stroke="#63b8ff" d="M531.62,-126.44C506.41,-105.65 441.65,-52.26 409.57,-25.81"/>
<polygon fill="#63b8ff" stroke="#63b8ff" points="411.39,-22.78 401.45,-19.12 406.94,-28.18 411.39,-22.78"/>
</a>
</g>
</g>
<!-- Node11&#45;&gt;Node13 -->
<g id="edge15_Node000011_Node000013" class="edge">
<title>Node11&#45;&gt;Node13</title>
<g id="a_edge15_Node000011_Node000013"><a xlink:title=" ">
<path fill="none" stroke="#63b8ff" d="M556.3,-126.37C573.92,-115.73 604.09,-97.51 624.99,-84.89"/>
<polygon fill="#63b8ff" stroke="#63b8ff" points="626.84,-87.86 633.59,-79.7 623.22,-81.87 626.84,-87.86"/>
</a>
</g>
</g>
<!-- Node14 -->
<g id="Node000014" class="node">
<title>Node14</title>
<g id="a_Node000014"><a xlink:title=" ">
<polygon fill="#e0e0e0" stroke="#999999" points="684.5,-19 611.5,-19 611.5,0 684.5,0 684.5,-19"/>
<text text-anchor="middle" x="648" y="-7" font-family="Helvetica,sans-Serif" font-size="10.00">string_view</text>
</a>
</g>
</g>
<!-- Node13&#45;&gt;Node14 -->
<g id="edge16_Node000013_Node000014" class="edge">
<title>Node13&#45;&gt;Node14</title>
<g id="a_edge16_Node000013_Node000014"><a xlink:title=" ">
<path fill="none" stroke="#63b8ff" d="M648,-60.37C648,-52.25 648,-39.81 648,-29.39"/>
<polygon fill="#63b8ff" stroke="#63b8ff" points="651.5,-29.17 648,-19.17 644.5,-29.17 651.5,-29.17"/>
</a>
</g>
</g>
<!-- Node16 -->
<g id="Node000016" class="node">
<title>Node16</title>
<g id="a_Node000016"><a xlink:href="../../d2/d84/select_8hpp.html" target="_top" xlink:title="Utilities for selection of platform specific values.">
<polygon fill="white" stroke="#666666" points="186,-79.5 34,-79.5 34,-60.5 186,-60.5 186,-79.5"/>
<text text-anchor="middle" x="110" y="-67.5" font-family="Helvetica,sans-Serif" font-size="10.00">userver/compiler/select.hpp</text>
</a>
</g>
</g>
<!-- Node15&#45;&gt;Node16 -->
<g id="edge18_Node000015_Node000016" class="edge">
<title>Node15&#45;&gt;Node16</title>
<g id="a_edge18_Node000015_Node000016"><a xlink:title=" ">
<path fill="none" stroke="#63b8ff" d="M121.67,-120.8C119.54,-111.7 116.75,-99.79 114.43,-89.9"/>
<polygon fill="#63b8ff" stroke="#63b8ff" points="117.76,-88.78 112.07,-79.84 110.95,-90.38 117.76,-88.78"/>
</a>
</g>
</g>
<!-- Node18 -->
<g id="Node000018" class="node">
<title>Node18</title>
<g id="a_Node000018"><a xlink:href="../../d5/d02/fast__pimpl_8hpp.html" target="_top" xlink:title="Implements pimpl idiom without dynamic memory allocation.">
<polygon fill="white" stroke="#666666" points="303.5,-85 204.5,-85 204.5,-55 303.5,-55 303.5,-85"/>
<text text-anchor="start" x="212.5" y="-73" font-family="Helvetica,sans-Serif" font-size="10.00">userver/utils/fast</text>
<text text-anchor="middle" x="254" y="-62" font-family="Helvetica,sans-Serif" font-size="10.00">_pimpl.hpp</text>
</a>
</g>
</g>
<!-- Node15&#45;&gt;Node18 -->
<g id="edge20_Node000015_Node000018" class="edge">
<title>Node15&#45;&gt;Node18</title>
<g id="a_edge20_Node000015_Node000018"><a xlink:title=" ">
<path fill="none" stroke="#63b8ff" d="M153.31,-120.95C171.88,-111.74 196.36,-99.6 216.54,-89.59"/>
<polygon fill="#63b8ff" stroke="#63b8ff" points="218.35,-92.59 225.76,-85.01 215.24,-86.32 218.35,-92.59"/>
</a>
</g>
</g>
<!-- Node17 -->
<g id="Node000017" class="node">
<title>Node17</title>
<g id="a_Node000017"><a xlink:title=" ">
<polygon fill="#e0e0e0" stroke="#999999" points="174.5,-19 121.5,-19 121.5,0 174.5,0 174.5,-19"/>
<text text-anchor="middle" x="148" y="-7" font-family="Helvetica,sans-Serif" font-size="10.00">cstddef</text>
</a>
</g>
</g>
<!-- Node16&#45;&gt;Node17 -->
<g id="edge19_Node000016_Node000017" class="edge">
<title>Node16&#45;&gt;Node17</title>
<g id="a_edge19_Node000016_Node000017"><a xlink:title=" ">
<path fill="none" stroke="#63b8ff" d="M115.61,-60.37C121.16,-51.81 129.83,-38.47 136.8,-27.74"/>
<polygon fill="#63b8ff" stroke="#63b8ff" points="139.86,-29.46 142.37,-19.17 133.99,-25.65 139.86,-29.46"/>
</a>
</g>
</g>
<!-- Node18&#45;&gt;Node12 -->
<g id="edge23_Node000018_Node000012" class="edge">
<title>Node18&#45;&gt;Node12</title>
<g id="a_edge23_Node000018_Node000012"><a xlink:title=" ">
<path fill="none" stroke="#63b8ff" d="M286.81,-54.99C309.47,-45.31 339.35,-32.56 361.3,-23.18"/>
<polygon fill="#63b8ff" stroke="#63b8ff" points="362.95,-26.29 370.77,-19.14 360.2,-19.85 362.95,-26.29"/>
</a>
</g>
</g>
<!-- Node18&#45;&gt;Node17 -->
<g id="edge21_Node000018_Node000017" class="edge">
<title>Node18&#45;&gt;Node17</title>
<g id="a_edge21_Node000018_Node000017"><a xlink:title=" ">
<path fill="none" stroke="#63b8ff" d="M228.61,-54.99C211.71,-45.66 189.62,-33.47 172.84,-24.21"/>
<polygon fill="#63b8ff" stroke="#63b8ff" points="174.1,-20.91 163.65,-19.14 170.72,-27.04 174.1,-20.91"/>
</a>
</g>
</g>
<!-- Node19 -->
<g id="Node000019" class="node">
<title>Node19</title>
<g id="a_Node000019"><a xlink:title=" ">
<polygon fill="#e0e0e0" stroke="#999999" points="301.5,-19 264.5,-19 264.5,0 301.5,0 301.5,-19"/>
<text text-anchor="middle" x="283" y="-7" font-family="Helvetica,sans-Serif" font-size="10.00">new</text>
</a>
</g>
</g>
<!-- Node18&#45;&gt;Node19 -->
<g id="edge22_Node000018_Node000019" class="edge">
<title>Node18&#45;&gt;Node19</title>
<g id="a_edge22_Node000018_Node000019"><a xlink:title=" ">
<path fill="none" stroke="#63b8ff" d="M261.02,-54.84C264.97,-46.87 269.94,-36.84 274.16,-28.33"/>
<polygon fill="#63b8ff" stroke="#63b8ff" points="277.35,-29.78 278.65,-19.27 271.08,-26.67 277.35,-29.78"/>
</a>
</g>
</g>
<!-- Node20 -->
<g id="Node000020" class="node">
<title>Node20</title>
<g id="a_Node000020"><a xlink:title=" ">
<polygon fill="#e0e0e0" stroke="#999999" points="246.5,-19 201.5,-19 201.5,0 246.5,0 246.5,-19"/>
<text text-anchor="middle" x="224" y="-7" font-family="Helvetica,sans-Serif" font-size="10.00">utility</text>
</a>
</g>
</g>
<!-- Node18&#45;&gt;Node20 -->
<g id="edge24_Node000018_Node000020" class="edge">
<title>Node18&#45;&gt;Node20</title>
<g id="a_edge24_Node000018_Node000020"><a xlink:title=" ">
<path fill="none" stroke="#63b8ff" d="M246.74,-54.84C242.65,-46.87 237.51,-36.84 233.14,-28.33"/>
<polygon fill="#63b8ff" stroke="#63b8ff" points="236.17,-26.57 228.5,-19.27 229.94,-29.76 236.17,-26.57"/>
</a>
</g>
</g>
<!-- Node21&#45;&gt;Node4 -->
<g id="edge28_Node000021_Node000004" class="edge">
<title>Node21&#45;&gt;Node4</title>
<g id="a_edge28_Node000021_Node000004"><a xlink:title=" ">
<path fill="none" stroke="#63b8ff" d="M743,-186.8C743,-177.7 743,-165.79 743,-155.9"/>
<polygon fill="#63b8ff" stroke="#63b8ff" points="746.5,-155.84 743,-145.84 739.5,-155.84 746.5,-155.84"/>
</a>
</g>
</g>
<!-- Node21&#45;&gt;Node11 -->
<g id="edge29_Node000021_Node000011" class="edge">
<title>Node21&#45;&gt;Node11</title>
<g id="a_edge29_Node000021_Node000011"><a xlink:title=" ">
<path fill="none" stroke="#63b8ff" d="M698.89,-186.95C662.86,-175.48 612.54,-159.46 578.69,-148.68"/>
<polygon fill="#63b8ff" stroke="#63b8ff" points="579.34,-145.22 568.75,-145.52 577.22,-151.89 579.34,-145.22"/>
</a>
</g>
</g>
<!-- Node22&#45;&gt;Node2 -->
<g id="edge33_Node000022_Node000002" class="edge">
<title>Node22&#45;&gt;Node2</title>
<g id="a_edge33_Node000022_Node000002"><a xlink:title=" ">
<path fill="none" stroke="#63b8ff" d="M102.81,-186.8C86.2,-176.17 63.6,-161.7 47.03,-151.1"/>
<polygon fill="#63b8ff" stroke="#63b8ff" points="48.84,-148.1 38.53,-145.66 45.06,-154 48.84,-148.1"/>
</a>
</g>
</g>
<!-- Node22&#45;&gt;Node8 -->
<g id="edge34_Node000022_Node000008" class="edge">
<title>Node22&#45;&gt;Node8</title>
<g id="a_edge34_Node000022_Node000008"><a xlink:title=" ">
<path fill="none" stroke="#63b8ff" d="M143.85,-186.87C157.09,-176.91 175.19,-163.22 191,-151 208.02,-137.84 210.48,-131.96 229,-121 236.96,-116.29 284.37,-96.6 316.62,-83.38"/>
<polygon fill="#63b8ff" stroke="#63b8ff" points="318.15,-86.53 326.08,-79.51 315.5,-80.06 318.15,-86.53"/>
</a>
</g>
</g>
<!-- Node22&#45;&gt;Node11 -->
<g id="edge35_Node000022_Node000011" class="edge">
<title>Node22&#45;&gt;Node11</title>
<g id="a_edge35_Node000022_Node000011"><a xlink:title=" ">
<path fill="none" stroke="#63b8ff" d="M187.3,-188.51C190.24,-187.98 193.15,-187.48 196,-187 310.61,-167.75 340.07,-168.23 455,-151 463.07,-149.79 471.55,-148.48 479.92,-147.16"/>
<polygon fill="#63b8ff" stroke="#63b8ff" points="480.72,-150.57 490.04,-145.55 479.62,-143.66 480.72,-150.57"/>
</a>
</g>
</g>
<!-- Node22&#45;&gt;Node15 -->
<g id="edge36_Node000022_Node000015" class="edge">
<title>Node22&#45;&gt;Node15</title>
<g id="a_edge36_Node000022_Node000015"><a xlink:title=" ">
<path fill="none" stroke="#63b8ff" d="M125,-186.8C125,-179.34 125,-169.99 125,-161.41"/>
<polygon fill="#63b8ff" stroke="#63b8ff" points="128.5,-161.16 125,-151.16 121.5,-161.16 128.5,-161.16"/>
</a>
</g>
</g>
<!-- Node23&#45;&gt;Node11 -->
<g id="edge40_Node000023_Node000011" class="edge">
<title>Node23&#45;&gt;Node11</title>
<g id="a_edge40_Node000023_Node000011"><a xlink:title=" ">
<path fill="none" stroke="#63b8ff" d="M621.4,-258.41C635.31,-240.79 654.18,-210.16 640,-187 628.65,-168.47 608.03,-156.53 588.62,-148.99"/>
<polygon fill="#63b8ff" stroke="#63b8ff" points="589.54,-145.6 578.94,-145.53 587.18,-152.19 589.54,-145.6"/>
</a>
</g>
</g>
<!-- Node24 -->
<g id="Node000024" class="node">
<title>Node24</title>
<g id="a_Node000024"><a xlink:title=" ">
<polygon fill="#e0e0e0" stroke="#999999" points="631,-211.5 587,-211.5 587,-192.5 631,-192.5 631,-211.5"/>
<text text-anchor="middle" x="609" y="-199.5" font-family="Helvetica,sans-Serif" font-size="10.00">string</text>
</a>
</g>
</g>
<!-- Node23&#45;&gt;Node24 -->
<g id="edge38_Node000023_Node000024" class="edge">
<title>Node23&#45;&gt;Node24</title>
<g id="a_edge38_Node000023_Node000024"><a xlink:title=" ">
<path fill="none" stroke="#63b8ff" d="M609,-258.44C609,-247.96 609,-233.55 609,-222.05"/>
<polygon fill="#63b8ff" stroke="#63b8ff" points="612.5,-221.77 609,-211.77 605.5,-221.77 612.5,-221.77"/>
</a>
</g>
</g>
<!-- Node25 -->
<g id="Node000025" class="node">
<title>Node25</title>
<g id="a_Node000025"><a xlink:title=" ">
<polygon fill="#e0e0e0" stroke="#999999" points="569,-217 429,-217 429,-187 569,-187 569,-217"/>
<text text-anchor="start" x="437" y="-205" font-family="Helvetica,sans-Serif" font-size="10.00">boost/smart_ptr/intrusive</text>
<text text-anchor="middle" x="499" y="-194" font-family="Helvetica,sans-Serif" font-size="10.00">_ptr.hpp</text>
</a>
</g>
</g>
<!-- Node23&#45;&gt;Node25 -->
<g id="edge39_Node000023_Node000025" class="edge">
<title>Node23&#45;&gt;Node25</title>
<g id="a_edge39_Node000023_Node000025"><a xlink:title=" ">
<path fill="none" stroke="#63b8ff" d="M586.74,-258.44C570.34,-248.07 547.83,-233.85 529.72,-222.41"/>
<polygon fill="#63b8ff" stroke="#63b8ff" points="531.55,-219.43 521.23,-217.04 527.81,-225.34 531.55,-219.43"/>
</a>
</g>
</g>
</g>
</svg>
