<?xml version="1.0" encoding="UTF-8" standalone="no"?>
<!DOCTYPE svg PUBLIC "-//W3C//DTD SVG 1.1//EN"
 "http://www.w3.org/Graphics/SVG/1.1/DTD/svg11.dtd">
<!-- Generated by graphviz version 2.43.0 (0)
 -->
<!-- Title: userver/utils/shared_readable_ptr.hpp Pages: 1 -->
<svg width="411pt" height="170pt"
 viewBox="0.00 0.00 410.50 170.00" xmlns="http://www.w3.org/2000/svg" xmlns:xlink="http://www.w3.org/1999/xlink">
<g id="graph0" class="graph" transform="scale(1 1) rotate(0) translate(4 166)">
<title>userver/utils/shared_readable_ptr.hpp</title>
<!-- Node1 -->
<g id="Node000001" class="node">
<title>Node1</title>
<g id="a_Node000001"><a xlink:title="std::shared_ptr&lt;const T&gt; wrapper that makes sure that the pointer is stored before dereferencing....">
<polygon fill="#999999" stroke="#666666" points="311,-162 198,-162 198,-132 311,-132 311,-162"/>
<text text-anchor="start" x="206" y="-150" font-family="Helvetica,sans-Serif" font-size="10.00">userver/utils/shared</text>
<text text-anchor="middle" x="254.5" y="-139" font-family="Helvetica,sans-Serif" font-size="10.00">_readable_ptr.hpp</text>
</a>
</g>
</g>
<!-- Node2 -->
<g id="Node000002" class="node">
<title>Node2</title>
<g id="a_Node000002"><a xlink:href="../../df/d56/caching__component__base_8hpp.html" target="_top" xlink:title="Base class for caching components.">
<polygon fill="white" stroke="#666666" points="251.5,-96 125.5,-96 125.5,-66 251.5,-66 251.5,-96"/>
<text text-anchor="start" x="133.5" y="-84" font-family="Helvetica,sans-Serif" font-size="10.00">userver/cache/caching</text>
<text text-anchor="middle" x="188.5" y="-73" font-family="Helvetica,sans-Serif" font-size="10.00">_component_base.hpp</text>
</a>
</g>
</g>
<!-- Node1&#45;&gt;Node2 -->
<g id="edge1_Node000001_Node000002" class="edge">
<title>Node1&#45;&gt;Node2</title>
<g id="a_edge1_Node000001_Node000002"><a xlink:title=" ">
<path fill="none" stroke="#63b8ff" d="M232.48,-124.65C222.81,-115.27 211.73,-104.53 203.11,-96.16"/>
<polygon fill="#63b8ff" stroke="#63b8ff" points="230.24,-127.35 239.85,-131.8 235.11,-122.32 230.24,-127.35"/>
</a>
</g>
</g>
<!-- Node6 -->
<g id="Node000006" class="node">
<title>Node6</title>
<g id="a_Node000006"><a xlink:href="../../d1/df2/lazy__shared__ptr_8hpp.html" target="_top" xlink:title="A lazy wrapper around utils::SharedReadablePtr that fetches the data on first access.">
<polygon fill="white" stroke="#666666" points="371,-96 270,-96 270,-66 371,-66 371,-96"/>
<text text-anchor="start" x="278" y="-84" font-family="Helvetica,sans-Serif" font-size="10.00">userver/utils/lazy</text>
<text text-anchor="middle" x="320.5" y="-73" font-family="Helvetica,sans-Serif" font-size="10.00">_shared_ptr.hpp</text>
</a>
</g>
</g>
<!-- Node1&#45;&gt;Node6 -->
<g id="edge5_Node000001_Node000006" class="edge">
<title>Node1&#45;&gt;Node6</title>
<g id="a_edge5_Node000001_Node000006"><a xlink:title=" ">
<path fill="none" stroke="#63b8ff" d="M276.52,-124.65C286.19,-115.27 297.27,-104.53 305.89,-96.16"/>
<polygon fill="#63b8ff" stroke="#63b8ff" points="273.89,-122.32 269.15,-131.8 278.76,-127.35 273.89,-122.32"/>
</a>
</g>
</g>
<!-- Node3 -->
<g id="Node000003" class="node">
<title>Node3</title>
<g id="a_Node000003"><a xlink:href="../../dd/d6c/base__mongo__cache_8hpp.html" target="_top" xlink:title="Base class for all caches polling mongo collection">
<polygon fill="white" stroke="#666666" points="111,-30 0,-30 0,0 111,0 111,-30"/>
<text text-anchor="start" x="8" y="-18" font-family="Helvetica,sans-Serif" font-size="10.00">userver/cache/base</text>
<text text-anchor="middle" x="55.5" y="-7" font-family="Helvetica,sans-Serif" font-size="10.00">_mongo_cache.hpp</text>
</a>
</g>
</g>
<!-- Node2&#45;&gt;Node3 -->
<g id="edge2_Node000002_Node000003" class="edge">
<title>Node2&#45;&gt;Node3</title>
<g id="a_edge2_Node000002_Node000003"><a xlink:title=" ">
<path fill="none" stroke="#63b8ff" d="M150.08,-61.51C129.22,-51.47 103.83,-39.26 84.62,-30.01"/>
<polygon fill="#63b8ff" stroke="#63b8ff" points="148.78,-64.77 159.31,-65.95 151.82,-58.46 148.78,-64.77"/>
</a>
</g>
</g>
<!-- Node4 -->
<g id="Node000004" class="node">
<title>Node4</title>
<g id="a_Node000004"><a xlink:href="../../dc/df7/base__postgres__cache_8hpp.html" target="_top" xlink:title="Caching component for PostgreSQL. See Caching Component for PostgreSQL.">
<polygon fill="white" stroke="#666666" points="248,-30 129,-30 129,0 248,0 248,-30"/>
<text text-anchor="start" x="137" y="-18" font-family="Helvetica,sans-Serif" font-size="10.00">userver/cache/base</text>
<text text-anchor="middle" x="188.5" y="-7" font-family="Helvetica,sans-Serif" font-size="10.00">_postgres_cache.hpp</text>
</a>
</g>
</g>
<!-- Node2&#45;&gt;Node4 -->
<g id="edge3_Node000002_Node000004" class="edge">
<title>Node2&#45;&gt;Node4</title>
<g id="a_edge3_Node000002_Node000004"><a xlink:title=" ">
<path fill="none" stroke="#63b8ff" d="M188.5,-55.54C188.5,-46.96 188.5,-37.61 188.5,-30.16"/>
<polygon fill="#63b8ff" stroke="#63b8ff" points="185,-55.8 188.5,-65.8 192,-55.8 185,-55.8"/>
</a>
</g>
</g>
<!-- Node5 -->
<g id="Node000005" class="node">
<title>Node5</title>
<g id="a_Node000005"><a xlink:href="../../db/df3/core_2include_2userver_2dynamic__config_2updater_2component_8hpp.html" target="_top" xlink:title="Component that does a periodic update of runtime configs.">
<polygon fill="white" stroke="#666666" points="402.5,-30 266.5,-30 266.5,0 402.5,0 402.5,-30"/>
<text text-anchor="start" x="274.5" y="-18" font-family="Helvetica,sans-Serif" font-size="10.00">userver/dynamic_config</text>
<text text-anchor="middle" x="334.5" y="-7" font-family="Helvetica,sans-Serif" font-size="10.00">/updater/component.hpp</text>
</a>
</g>
</g>
<!-- Node2&#45;&gt;Node5 -->
<g id="edge4_Node000002_Node000005" class="edge">
<title>Node2&#45;&gt;Node5</title>
<g id="a_edge4_Node000002_Node000005"><a xlink:title=" ">
<path fill="none" stroke="#63b8ff" d="M229.75,-61.92C252.82,-51.8 281.16,-39.38 302.53,-30.01"/>
<polygon fill="#63b8ff" stroke="#63b8ff" points="228.29,-58.73 220.54,-65.95 231.1,-65.15 228.29,-58.73"/>
</a>
</g>
</g>
</g>
</svg>
