<?xml version="1.0" encoding="UTF-8" standalone="no"?>
<!DOCTYPE svg PUBLIC "-//W3C//DTD SVG 1.1//EN"
 "http://www.w3.org/Graphics/SVG/1.1/DTD/svg11.dtd">
<!-- Generated by graphviz version 2.43.0 (0)
 -->
<!-- Title: storages::postgres::Field Pages: 1 -->
<svg width="499pt" height="152pt"
 viewBox="0.00 0.00 499.00 152.00" xmlns="http://www.w3.org/2000/svg" xmlns:xlink="http://www.w3.org/1999/xlink">
<g id="graph0" class="graph" transform="scale(1 1) rotate(0) translate(4 148)">
<title>storages::postgres::Field</title>
<!-- Node1 -->
<g id="Node000001" class="node">
<title>Node1</title>
<g id="a_Node000001"><a xlink:title="Accessor to a single field in a result set&#39;s row.">
<polygon fill="#999999" stroke="#666666" points="107,-86.5 0,-86.5 0,-56.5 107,-56.5 107,-86.5"/>
<text text-anchor="start" x="8" y="-74.5" font-family="Helvetica,sans-Serif" font-size="10.00">storages::postgres</text>
<text text-anchor="middle" x="53.5" y="-63.5" font-family="Helvetica,sans-Serif" font-size="10.00">::Field</text>
</a>
</g>
</g>
<!-- Node2 -->
<g id="Node000002" class="node">
<title>Node2</title>
<g id="a_Node000002"><a xlink:title=" ">
<polygon fill="white" stroke="#666666" points="298,-144 151,-144 151,-81 298,-81 298,-144"/>
<text text-anchor="start" x="159" y="-132" font-family="Helvetica,sans-Serif" font-size="10.00">storages::postgres</text>
<text text-anchor="start" x="159" y="-121" font-family="Helvetica,sans-Serif" font-size="10.00">::detail::ConstDataIterator</text>
<text text-anchor="start" x="159" y="-110" font-family="Helvetica,sans-Serif" font-size="10.00">&lt; ConstFieldIterator, Field,</text>
<text text-anchor="start" x="159" y="-99" font-family="Helvetica,sans-Serif" font-size="10.00"> detail::IteratorDirection</text>
<text text-anchor="middle" x="224.5" y="-88" font-family="Helvetica,sans-Serif" font-size="10.00">::kForward &gt;</text>
</a>
</g>
</g>
<!-- Node1&#45;&gt;Node2 -->
<g id="edge1_Node000001_Node000002" class="edge">
<title>Node1&#45;&gt;Node2</title>
<g id="a_edge1_Node000001_Node000002"><a xlink:title=" ">
<path fill="none" stroke="darkgreen" d="M116.99,-86.66C128,-89.33 139.55,-92.13 150.82,-94.87"/>
<polygon fill="darkgreen" stroke="darkgreen" points="117.59,-83.2 107.05,-84.25 115.94,-90.01 117.59,-83.2"/>
</a>
</g>
</g>
<!-- Node4 -->
<g id="Node000004" class="node">
<title>Node4</title>
<g id="a_Node000004"><a xlink:title=" ">
<polygon fill="white" stroke="#666666" points="306,-63 143,-63 143,0 306,0 306,-63"/>
<text text-anchor="start" x="151" y="-51" font-family="Helvetica,sans-Serif" font-size="10.00">storages::postgres</text>
<text text-anchor="start" x="151" y="-40" font-family="Helvetica,sans-Serif" font-size="10.00">::detail::ConstDataIterator</text>
<text text-anchor="start" x="151" y="-29" font-family="Helvetica,sans-Serif" font-size="10.00">&lt; ReverseConstFieldIterator,</text>
<text text-anchor="start" x="151" y="-18" font-family="Helvetica,sans-Serif" font-size="10.00"> Field, detail::IteratorDirection</text>
<text text-anchor="middle" x="224.5" y="-7" font-family="Helvetica,sans-Serif" font-size="10.00">::kReverse &gt;</text>
</a>
</g>
</g>
<!-- Node1&#45;&gt;Node4 -->
<g id="edge3_Node000001_Node000004" class="edge">
<title>Node1&#45;&gt;Node4</title>
<g id="a_edge3_Node000001_Node000004"><a xlink:title=" ">
<path fill="none" stroke="darkgreen" d="M116.8,-56.75C125.26,-54.75 134.03,-52.68 142.75,-50.61"/>
<polygon fill="darkgreen" stroke="darkgreen" points="115.97,-53.35 107.05,-59.06 117.58,-60.17 115.97,-53.35"/>
</a>
</g>
</g>
<!-- Node3 -->
<g id="Node000003" class="node">
<title>Node3</title>
<g id="a_Node000003"><a xlink:href="../../d6/daa/classstorages_1_1postgres_1_1ConstFieldIterator.html" target="_top" xlink:title="Iterator over fields in a result set&#39;s row.">
<polygon fill="white" stroke="#666666" points="471.5,-127.5 361.5,-127.5 361.5,-97.5 471.5,-97.5 471.5,-127.5"/>
<text text-anchor="start" x="369.5" y="-115.5" font-family="Helvetica,sans-Serif" font-size="10.00">storages::postgres</text>
<text text-anchor="middle" x="416.5" y="-104.5" font-family="Helvetica,sans-Serif" font-size="10.00">::ConstFieldIterator</text>
</a>
</g>
</g>
<!-- Node2&#45;&gt;Node3 -->
<g id="edge2_Node000002_Node000003" class="edge">
<title>Node2&#45;&gt;Node3</title>
<g id="a_edge2_Node000002_Node000003"><a xlink:title=" ">
<path fill="none" stroke="#63b8ff" d="M308.31,-112.5C326.23,-112.5 344.73,-112.5 361.22,-112.5"/>
<polygon fill="#63b8ff" stroke="#63b8ff" points="308.14,-109 298.14,-112.5 308.14,-116 308.14,-109"/>
</a>
</g>
</g>
<!-- Node5 -->
<g id="Node000005" class="node">
<title>Node5</title>
<g id="a_Node000005"><a xlink:href="../../d1/d69/classstorages_1_1postgres_1_1ReverseConstFieldIterator.html" target="_top" xlink:title="Reverse iterator over fields in a result set&#39;s row.">
<polygon fill="white" stroke="#666666" points="491,-46.5 342,-46.5 342,-16.5 491,-16.5 491,-46.5"/>
<text text-anchor="start" x="350" y="-34.5" font-family="Helvetica,sans-Serif" font-size="10.00">storages::postgres</text>
<text text-anchor="middle" x="416.5" y="-23.5" font-family="Helvetica,sans-Serif" font-size="10.00">::ReverseConstFieldIterator</text>
</a>
</g>
</g>
<!-- Node4&#45;&gt;Node5 -->
<g id="edge4_Node000004_Node000005" class="edge">
<title>Node4&#45;&gt;Node5</title>
<g id="a_edge4_Node000004_Node000005"><a xlink:title=" ">
<path fill="none" stroke="#63b8ff" d="M316.12,-31.5C324.7,-31.5 333.34,-31.5 341.74,-31.5"/>
<polygon fill="#63b8ff" stroke="#63b8ff" points="316.08,-28 306.08,-31.5 316.08,-35 316.08,-28"/>
</a>
</g>
</g>
</g>
</svg>
