<?xml version="1.0" encoding="UTF-8" standalone="no"?>
<!DOCTYPE svg PUBLIC "-//W3C//DTD SVG 1.1//EN"
 "http://www.w3.org/Graphics/SVG/1.1/DTD/svg11.dtd">
<!-- Generated by graphviz version 2.43.0 (0)
 -->
<!-- Title: userver/dynamic_config/fwd.hpp Pages: 1 -->
<svg width="1318pt" height="379pt"
 viewBox="0.00 0.00 1318.00 379.00" xmlns="http://www.w3.org/2000/svg" xmlns:xlink="http://www.w3.org/1999/xlink">
<g id="graph0" class="graph" transform="scale(1 1) rotate(0) translate(4 375)">
<title>userver/dynamic_config/fwd.hpp</title>
<!-- Node1 -->
<g id="Node000001" class="node">
<title>Node1</title>
<g id="a_Node000001"><a xlink:title="Forward declarations of dynamic_config classes.">
<polygon fill="#999999" stroke="#666666" points="742,-371 609,-371 609,-341 742,-341 742,-371"/>
<text text-anchor="start" x="617" y="-359" font-family="Helvetica,sans-Serif" font-size="10.00">userver/dynamic_config</text>
<text text-anchor="middle" x="675.5" y="-348" font-family="Helvetica,sans-Serif" font-size="10.00">/fwd.hpp</text>
</a>
</g>
</g>
<!-- Node2 -->
<g id="Node000002" class="node">
<title>Node2</title>
<g id="a_Node000002"><a xlink:href="../../db/db6/clients_2http_2config_8hpp_source.html" target="_top" xlink:title=" ">
<polygon fill="white" stroke="#666666" points="229,-305 118,-305 118,-275 229,-275 229,-305"/>
<text text-anchor="start" x="126" y="-293" font-family="Helvetica,sans-Serif" font-size="10.00">userver/clients/http</text>
<text text-anchor="middle" x="173.5" y="-282" font-family="Helvetica,sans-Serif" font-size="10.00">/config.hpp</text>
</a>
</g>
</g>
<!-- Node1&#45;&gt;Node2 -->
<g id="edge1_Node000001_Node000002" class="edge">
<title>Node1&#45;&gt;Node2</title>
<g id="a_edge1_Node000001_Node000002"><a xlink:title=" ">
<path fill="none" stroke="#63b8ff" d="M598.92,-345.24C497.02,-332.25 319.28,-309.59 229.22,-298.1"/>
<polygon fill="#63b8ff" stroke="#63b8ff" points="598.48,-348.71 608.84,-346.5 599.36,-341.76 598.48,-348.71"/>
</a>
</g>
</g>
<!-- Node8 -->
<g id="Node000008" class="node">
<title>Node8</title>
<g id="a_Node000008"><a xlink:href="../../d5/dd9/dumper_8hpp.html" target="_top" xlink:title="Manages dumps of a cache&#45;like component.">
<polygon fill="white" stroke="#666666" points="507,-299.5 362,-299.5 362,-280.5 507,-280.5 507,-299.5"/>
<text text-anchor="middle" x="434.5" y="-287.5" font-family="Helvetica,sans-Serif" font-size="10.00">userver/dump/dumper.hpp</text>
</a>
</g>
</g>
<!-- Node1&#45;&gt;Node8 -->
<g id="edge8_Node000001_Node000008" class="edge">
<title>Node1&#45;&gt;Node8</title>
<g id="a_edge8_Node000001_Node000008"><a xlink:title=" ">
<path fill="none" stroke="#63b8ff" d="M612.85,-338.36C565.97,-325.91 503.77,-309.4 466.57,-299.52"/>
<polygon fill="#63b8ff" stroke="#63b8ff" points="612.05,-341.77 622.61,-340.95 613.84,-335.01 612.05,-341.77"/>
</a>
</g>
</g>
<!-- Node15 -->
<g id="Node000015" class="node">
<title>Node15</title>
<g id="a_Node000015"><a xlink:href="../../d5/d81/core_2include_2userver_2dynamic__config_2updates__sink_2component_8hpp.html" target="_top" xlink:title="Base class for components acting as dynamic config updates sinks.">
<polygon fill="white" stroke="#666666" points="757,-305 594,-305 594,-275 757,-275 757,-305"/>
<text text-anchor="start" x="602" y="-293" font-family="Helvetica,sans-Serif" font-size="10.00">userver/dynamic_config</text>
<text text-anchor="middle" x="675.5" y="-282" font-family="Helvetica,sans-Serif" font-size="10.00">/updates_sink/component.hpp</text>
</a>
</g>
</g>
<!-- Node1&#45;&gt;Node15 -->
<g id="edge17_Node000001_Node000015" class="edge">
<title>Node1&#45;&gt;Node15</title>
<g id="a_edge17_Node000001_Node000015"><a xlink:title=" ">
<path fill="none" stroke="#63b8ff" d="M675.5,-330.54C675.5,-321.96 675.5,-312.61 675.5,-305.16"/>
<polygon fill="#63b8ff" stroke="#63b8ff" points="672,-330.8 675.5,-340.8 679,-330.8 672,-330.8"/>
</a>
</g>
</g>
<!-- Node18 -->
<g id="Node000018" class="node">
<title>Node18</title>
<g id="a_Node000018"><a xlink:href="../../df/db0/find_8hpp.html" target="_top" xlink:title="Function for retrieving dynamic config updates sink specified in the static config.">
<polygon fill="white" stroke="#666666" points="908,-305 775,-305 775,-275 908,-275 908,-305"/>
<text text-anchor="start" x="783" y="-293" font-family="Helvetica,sans-Serif" font-size="10.00">userver/dynamic_config</text>
<text text-anchor="middle" x="841.5" y="-282" font-family="Helvetica,sans-Serif" font-size="10.00">/updates_sink/find.hpp</text>
</a>
</g>
</g>
<!-- Node1&#45;&gt;Node18 -->
<g id="edge21_Node000001_Node000018" class="edge">
<title>Node1&#45;&gt;Node18</title>
<g id="a_edge21_Node000001_Node000018"><a xlink:title=" ">
<path fill="none" stroke="#63b8ff" d="M721.35,-337.32C747.77,-327.14 780.52,-314.51 805.16,-305.01"/>
<polygon fill="#63b8ff" stroke="#63b8ff" points="720,-334.09 711.93,-340.95 722.52,-340.62 720,-334.09"/>
</a>
</g>
</g>
<!-- Node19 -->
<g id="Node000019" class="node">
<title>Node19</title>
<g id="a_Node000019"><a xlink:href="../../d3/dc1/pool_8hpp.html" target="_top" xlink:title="MongoDB client pool.">
<polygon fill="white" stroke="#666666" points="1061,-305 926,-305 926,-275 1061,-275 1061,-305"/>
<text text-anchor="start" x="934" y="-293" font-family="Helvetica,sans-Serif" font-size="10.00">userver/storages/mongo</text>
<text text-anchor="middle" x="993.5" y="-282" font-family="Helvetica,sans-Serif" font-size="10.00">/pool.hpp</text>
</a>
</g>
</g>
<!-- Node1&#45;&gt;Node19 -->
<g id="edge22_Node000001_Node000019" class="edge">
<title>Node1&#45;&gt;Node19</title>
<g id="a_edge22_Node000001_Node000019"><a xlink:title=" ">
<path fill="none" stroke="#63b8ff" d="M752.18,-339.57C805.15,-328.91 874.93,-314.86 925.83,-304.62"/>
<polygon fill="#63b8ff" stroke="#63b8ff" points="751.28,-336.18 742.16,-341.58 752.66,-343.04 751.28,-336.18"/>
</a>
</g>
</g>
<!-- Node3 -->
<g id="Node000003" class="node">
<title>Node3</title>
<g id="a_Node000003"><a xlink:href="../../d3/db8/core_2include_2userver_2clients_2http_2client_8hpp.html" target="_top" xlink:title="HTTP client that returns a HTTP request builder from CreateRequest().">
<polygon fill="white" stroke="#666666" points="111,-101.5 0,-101.5 0,-71.5 111,-71.5 111,-101.5"/>
<text text-anchor="start" x="8" y="-89.5" font-family="Helvetica,sans-Serif" font-size="10.00">userver/clients/http</text>
<text text-anchor="middle" x="55.5" y="-78.5" font-family="Helvetica,sans-Serif" font-size="10.00">/client.hpp</text>
</a>
</g>
</g>
<!-- Node2&#45;&gt;Node3 -->
<g id="edge2_Node000002_Node000003" class="edge">
<title>Node2&#45;&gt;Node3</title>
<g id="a_edge2_Node000002_Node000003"><a xlink:title=" ">
<path fill="none" stroke="#63b8ff" d="M137.76,-269.4C125.77,-261.34 113.25,-251.04 104.5,-239 72.82,-195.39 60.97,-130.31 57.12,-101.78"/>
<polygon fill="#63b8ff" stroke="#63b8ff" points="136.01,-272.44 146.33,-274.87 139.78,-266.54 136.01,-272.44"/>
</a>
</g>
</g>
<!-- Node5 -->
<g id="Node000005" class="node">
<title>Node5</title>
<g id="a_Node000005"><a xlink:href="../../d2/de8/response__future_8hpp.html" target="_top" xlink:title="Allows to perform a request concurrently with other work without creating an extra coroutine for wait...">
<polygon fill="white" stroke="#666666" points="233,-239 114,-239 114,-209 233,-209 233,-239"/>
<text text-anchor="start" x="122" y="-227" font-family="Helvetica,sans-Serif" font-size="10.00">userver/clients/http</text>
<text text-anchor="middle" x="173.5" y="-216" font-family="Helvetica,sans-Serif" font-size="10.00">/response_future.hpp</text>
</a>
</g>
</g>
<!-- Node2&#45;&gt;Node5 -->
<g id="edge4_Node000002_Node000005" class="edge">
<title>Node2&#45;&gt;Node5</title>
<g id="a_edge4_Node000002_Node000005"><a xlink:title=" ">
<path fill="none" stroke="#63b8ff" d="M173.5,-264.54C173.5,-255.96 173.5,-246.61 173.5,-239.16"/>
<polygon fill="#63b8ff" stroke="#63b8ff" points="170,-264.8 173.5,-274.8 177,-264.8 170,-264.8"/>
</a>
</g>
</g>
<!-- Node4 -->
<g id="Node000004" class="node">
<title>Node4</title>
<g id="a_Node000004"><a xlink:href="../../d7/d98/core_2include_2userver_2clients_2http_2component_8hpp.html" target="_top" xlink:title="Component that manages clients::http::Client.">
<polygon fill="white" stroke="#666666" points="111,-30 0,-30 0,0 111,0 111,-30"/>
<text text-anchor="start" x="8" y="-18" font-family="Helvetica,sans-Serif" font-size="10.00">userver/clients/http</text>
<text text-anchor="middle" x="55.5" y="-7" font-family="Helvetica,sans-Serif" font-size="10.00">/component.hpp</text>
</a>
</g>
</g>
<!-- Node3&#45;&gt;Node4 -->
<g id="edge3_Node000003_Node000004" class="edge">
<title>Node3&#45;&gt;Node4</title>
<g id="a_edge3_Node000003_Node000004"><a xlink:title=" ">
<path fill="none" stroke="#63b8ff" d="M55.5,-61.25C55.5,-50.81 55.5,-38.99 55.5,-30.04"/>
<polygon fill="#63b8ff" stroke="#63b8ff" points="52,-61.44 55.5,-71.44 59,-61.44 52,-61.44"/>
</a>
</g>
</g>
<!-- Node6 -->
<g id="Node000006" class="node">
<title>Node6</title>
<g id="a_Node000006"><a xlink:href="../../d1/d57/core_2include_2userver_2clients_2http_2request_8hpp.html" target="_top" xlink:title="Class for creating and performing new http requests.">
<polygon fill="white" stroke="#666666" points="229,-173 118,-173 118,-143 229,-143 229,-173"/>
<text text-anchor="start" x="126" y="-161" font-family="Helvetica,sans-Serif" font-size="10.00">userver/clients/http</text>
<text text-anchor="middle" x="173.5" y="-150" font-family="Helvetica,sans-Serif" font-size="10.00">/request.hpp</text>
</a>
</g>
</g>
<!-- Node5&#45;&gt;Node6 -->
<g id="edge5_Node000005_Node000006" class="edge">
<title>Node5&#45;&gt;Node6</title>
<g id="a_edge5_Node000005_Node000006"><a xlink:title=" ">
<path fill="none" stroke="#63b8ff" d="M173.5,-198.54C173.5,-189.96 173.5,-180.61 173.5,-173.16"/>
<polygon fill="#63b8ff" stroke="#63b8ff" points="170,-198.8 173.5,-208.8 177,-198.8 170,-198.8"/>
</a>
</g>
</g>
<!-- Node6&#45;&gt;Node3 -->
<g id="edge6_Node000006_Node000003" class="edge">
<title>Node6&#45;&gt;Node3</title>
<g id="a_edge6_Node000006_Node000003"><a xlink:title=" ">
<path fill="none" stroke="#63b8ff" d="M140.77,-137.72C121.29,-126.25 97.01,-111.95 79.34,-101.54"/>
<polygon fill="#63b8ff" stroke="#63b8ff" points="139.23,-140.88 149.62,-142.94 142.78,-134.84 139.23,-140.88"/>
</a>
</g>
</g>
<!-- Node7 -->
<g id="Node000007" class="node">
<title>Node7</title>
<g id="a_Node000007"><a xlink:href="../../d2/d6c/http__server__mock_8hpp_source.html" target="_top" xlink:title=" ">
<polygon fill="white" stroke="#666666" points="235.5,-101.5 129.5,-101.5 129.5,-71.5 235.5,-71.5 235.5,-101.5"/>
<text text-anchor="start" x="137.5" y="-89.5" font-family="Helvetica,sans-Serif" font-size="10.00">userver/utest/http</text>
<text text-anchor="middle" x="182.5" y="-78.5" font-family="Helvetica,sans-Serif" font-size="10.00">_server_mock.hpp</text>
</a>
</g>
</g>
<!-- Node6&#45;&gt;Node7 -->
<g id="edge7_Node000006_Node000007" class="edge">
<title>Node6&#45;&gt;Node7</title>
<g id="a_edge7_Node000006_Node000007"><a xlink:title=" ">
<path fill="none" stroke="#63b8ff" d="M176.64,-132.75C177.99,-122.31 179.52,-110.49 180.68,-101.54"/>
<polygon fill="#63b8ff" stroke="#63b8ff" points="173.13,-132.57 175.32,-142.94 180.08,-133.47 173.13,-132.57"/>
</a>
</g>
</g>
<!-- Node9 -->
<g id="Node000009" class="node">
<title>Node9</title>
<g id="a_Node000009"><a xlink:href="../../d8/de1/expirable__lru__cache_8hpp.html" target="_top" xlink:title="Class for expirable LRU cache. Use cache::LruMap for not expirable LRU Cache.">
<polygon fill="white" stroke="#666666" points="394.5,-173 260.5,-173 260.5,-143 394.5,-143 394.5,-173"/>
<text text-anchor="start" x="268.5" y="-161" font-family="Helvetica,sans-Serif" font-size="10.00">userver/cache/expirable</text>
<text text-anchor="middle" x="327.5" y="-150" font-family="Helvetica,sans-Serif" font-size="10.00">_lru_cache.hpp</text>
</a>
</g>
</g>
<!-- Node8&#45;&gt;Node9 -->
<g id="edge9_Node000008_Node000009" class="edge">
<title>Node8&#45;&gt;Node9</title>
<g id="a_edge9_Node000008_Node000009"><a xlink:title=" ">
<path fill="none" stroke="#63b8ff" d="M351.74,-280.63C325.65,-273.63 299.49,-261.13 283.5,-239 267.91,-217.41 291.73,-189.71 309.95,-173.21"/>
<polygon fill="#63b8ff" stroke="#63b8ff" points="351.17,-284.09 361.71,-283.05 352.82,-277.29 351.17,-284.09"/>
</a>
</g>
</g>
<!-- Node10 -->
<g id="Node000010" class="node">
<title>Node10</title>
<g id="a_Node000010"><a xlink:href="../../d9/daf/lru__cache__component__base_8hpp.html" target="_top" xlink:title="Base class for LRU&#45;cache components.">
<polygon fill="white" stroke="#666666" points="537.5,-101.5 403.5,-101.5 403.5,-71.5 537.5,-71.5 537.5,-101.5"/>
<text text-anchor="start" x="411.5" y="-89.5" font-family="Helvetica,sans-Serif" font-size="10.00">userver/cache/lru_cache</text>
<text text-anchor="middle" x="470.5" y="-78.5" font-family="Helvetica,sans-Serif" font-size="10.00">_component_base.hpp</text>
</a>
</g>
</g>
<!-- Node8&#45;&gt;Node10 -->
<g id="edge12_Node000008_Node000010" class="edge">
<title>Node8&#45;&gt;Node10</title>
<g id="a_edge12_Node000008_Node000010"><a xlink:title=" ">
<path fill="none" stroke="#63b8ff" d="M435.94,-270.04C438.31,-242.03 443.75,-188.03 453.5,-143 456.57,-128.82 461.57,-113.03 465.35,-101.93"/>
<polygon fill="#63b8ff" stroke="#63b8ff" points="432.43,-270.11 435.12,-280.36 439.41,-270.67 432.43,-270.11"/>
</a>
</g>
</g>
<!-- Node12 -->
<g id="Node000012" class="node">
<title>Node12</title>
<g id="a_Node000012"><a xlink:href="../../db/d6e/nway__lru__cache_8hpp_source.html" target="_top" xlink:title=" ">
<polygon fill="white" stroke="#666666" points="406.5,-239 292.5,-239 292.5,-209 406.5,-209 406.5,-239"/>
<text text-anchor="start" x="300.5" y="-227" font-family="Helvetica,sans-Serif" font-size="10.00">userver/cache/nway</text>
<text text-anchor="middle" x="349.5" y="-216" font-family="Helvetica,sans-Serif" font-size="10.00">_lru_cache.hpp</text>
</a>
</g>
</g>
<!-- Node8&#45;&gt;Node12 -->
<g id="edge13_Node000008_Node000012" class="edge">
<title>Node8&#45;&gt;Node12</title>
<g id="a_edge13_Node000008_Node000012"><a xlink:title=" ">
<path fill="none" stroke="#63b8ff" d="M415,-274.32C400.95,-263.74 382.12,-249.56 368.25,-239.12"/>
<polygon fill="#63b8ff" stroke="#63b8ff" points="412.94,-277.15 423.04,-280.37 417.15,-271.56 412.94,-277.15"/>
</a>
</g>
</g>
<!-- Node13 -->
<g id="Node000013" class="node">
<title>Node13</title>
<g id="a_Node000013"><a xlink:href="../../d2/d2b/dump__control_8hpp.html" target="_top" xlink:title="Dumper control interface for testsuite.">
<polygon fill="white" stroke="#666666" points="592.5,-239 462.5,-239 462.5,-209 592.5,-209 592.5,-239"/>
<text text-anchor="start" x="470.5" y="-227" font-family="Helvetica,sans-Serif" font-size="10.00">userver/testsuite/dump</text>
<text text-anchor="middle" x="527.5" y="-216" font-family="Helvetica,sans-Serif" font-size="10.00">_control.hpp</text>
</a>
</g>
</g>
<!-- Node8&#45;&gt;Node13 -->
<g id="edge15_Node000008_Node000013" class="edge">
<title>Node8&#45;&gt;Node13</title>
<g id="a_edge15_Node000008_Node000013"><a xlink:title=" ">
<path fill="none" stroke="#63b8ff" d="M455.4,-274.62C470.81,-264.01 491.67,-249.66 506.99,-239.12"/>
<polygon fill="#63b8ff" stroke="#63b8ff" points="453.3,-271.82 447.04,-280.37 457.26,-277.58 453.3,-271.82"/>
</a>
</g>
</g>
<!-- Node9&#45;&gt;Node10 -->
<g id="edge10_Node000009_Node000010" class="edge">
<title>Node9&#45;&gt;Node10</title>
<g id="a_edge10_Node000009_Node000010"><a xlink:title=" ">
<path fill="none" stroke="#63b8ff" d="M365.57,-138.5C389.43,-126.9 419.71,-112.18 441.6,-101.54"/>
<polygon fill="#63b8ff" stroke="#63b8ff" points="363.9,-135.42 356.44,-142.94 366.96,-141.71 363.9,-135.42"/>
</a>
</g>
</g>
<!-- Node11 -->
<g id="Node000011" class="node">
<title>Node11</title>
<g id="a_Node000011"><a xlink:href="../../db/df0/standalone__checker_8hpp.html" target="_top" xlink:title="Class for digest authentication checker. Implements a stand&#45;alone digest&#45;authentication logic.">
<polygon fill="white" stroke="#666666" points="385.5,-107 253.5,-107 253.5,-66 385.5,-66 385.5,-107"/>
<text text-anchor="start" x="261.5" y="-95" font-family="Helvetica,sans-Serif" font-size="10.00">userver/server/handlers</text>
<text text-anchor="start" x="261.5" y="-84" font-family="Helvetica,sans-Serif" font-size="10.00">/auth/digest/standalone</text>
<text text-anchor="middle" x="319.5" y="-73" font-family="Helvetica,sans-Serif" font-size="10.00">_checker.hpp</text>
</a>
</g>
</g>
<!-- Node9&#45;&gt;Node11 -->
<g id="edge11_Node000009_Node000011" class="edge">
<title>Node9&#45;&gt;Node11</title>
<g id="a_edge11_Node000009_Node000011"><a xlink:title=" ">
<path fill="none" stroke="#63b8ff" d="M324.73,-132.91C323.76,-124.47 322.68,-115.1 321.75,-107.07"/>
<polygon fill="#63b8ff" stroke="#63b8ff" points="321.26,-133.4 325.88,-142.94 328.21,-132.6 321.26,-133.4"/>
</a>
</g>
</g>
<!-- Node12&#45;&gt;Node9 -->
<g id="edge14_Node000012_Node000009" class="edge">
<title>Node12&#45;&gt;Node9</title>
<g id="a_edge14_Node000012_Node000009"><a xlink:title=" ">
<path fill="none" stroke="#63b8ff" d="M341.29,-199.11C338.29,-190.38 334.99,-180.78 332.37,-173.16"/>
<polygon fill="#63b8ff" stroke="#63b8ff" points="338.06,-200.48 344.62,-208.8 344.68,-198.2 338.06,-200.48"/>
</a>
</g>
</g>
<!-- Node14 -->
<g id="Node000014" class="node">
<title>Node14</title>
<g id="a_Node000014"><a xlink:href="../../d3/d37/testsuite__support_8hpp.html" target="_top" xlink:title="Testsuite support component.">
<polygon fill="white" stroke="#666666" points="608,-173 463,-173 463,-143 608,-143 608,-173"/>
<text text-anchor="start" x="471" y="-161" font-family="Helvetica,sans-Serif" font-size="10.00">userver/testsuite/testsuite</text>
<text text-anchor="middle" x="535.5" y="-150" font-family="Helvetica,sans-Serif" font-size="10.00">_support.hpp</text>
</a>
</g>
</g>
<!-- Node13&#45;&gt;Node14 -->
<g id="edge16_Node000013_Node000014" class="edge">
<title>Node13&#45;&gt;Node14</title>
<g id="a_edge16_Node000013_Node000014"><a xlink:title=" ">
<path fill="none" stroke="#63b8ff" d="M530.52,-198.83C531.6,-190.17 532.79,-180.7 533.73,-173.16"/>
<polygon fill="#63b8ff" stroke="#63b8ff" points="527.04,-198.44 529.28,-208.8 533.99,-199.31 527.04,-198.44"/>
</a>
</g>
</g>
<!-- Node16 -->
<g id="Node000016" class="node">
<title>Node16</title>
<g id="a_Node000016"><a xlink:href="../../d2/d88/core_2include_2userver_2dynamic__config_2storage_2component_8hpp.html" target="_top" xlink:title="Component that stores the dynamic config.">
<polygon fill="white" stroke="#666666" points="746,-239 611,-239 611,-209 746,-209 746,-239"/>
<text text-anchor="start" x="619" y="-227" font-family="Helvetica,sans-Serif" font-size="10.00">userver/dynamic_config</text>
<text text-anchor="middle" x="678.5" y="-216" font-family="Helvetica,sans-Serif" font-size="10.00">/storage/component.hpp</text>
</a>
</g>
</g>
<!-- Node15&#45;&gt;Node16 -->
<g id="edge18_Node000015_Node000016" class="edge">
<title>Node15&#45;&gt;Node16</title>
<g id="a_edge18_Node000015_Node000016"><a xlink:title=" ">
<path fill="none" stroke="#63b8ff" d="M676.65,-264.54C677.05,-255.96 677.49,-246.61 677.84,-239.16"/>
<polygon fill="#63b8ff" stroke="#63b8ff" points="673.14,-264.64 676.17,-274.8 680.13,-264.97 673.14,-264.64"/>
</a>
</g>
</g>
<!-- Node17 -->
<g id="Node000017" class="node">
<title>Node17</title>
<g id="a_Node000017"><a xlink:href="../../db/df3/core_2include_2userver_2dynamic__config_2updater_2component_8hpp.html" target="_top" xlink:title="Component that does a periodic update of runtime configs.">
<polygon fill="white" stroke="#666666" points="802.5,-173 666.5,-173 666.5,-143 802.5,-143 802.5,-173"/>
<text text-anchor="start" x="674.5" y="-161" font-family="Helvetica,sans-Serif" font-size="10.00">userver/dynamic_config</text>
<text text-anchor="middle" x="734.5" y="-150" font-family="Helvetica,sans-Serif" font-size="10.00">/updater/component.hpp</text>
</a>
</g>
</g>
<!-- Node15&#45;&gt;Node17 -->
<g id="edge20_Node000015_Node000017" class="edge">
<title>Node15&#45;&gt;Node17</title>
<g id="a_edge20_Node000015_Node000017"><a xlink:title=" ">
<path fill="none" stroke="#63b8ff" d="M722.1,-269.99C734.9,-262.36 747.25,-252.17 754.5,-239 766.17,-217.81 753.71,-189.73 743.9,-173.09"/>
<polygon fill="#63b8ff" stroke="#63b8ff" points="720.29,-266.99 713.22,-274.88 723.67,-273.12 720.29,-266.99"/>
</a>
</g>
</g>
<!-- Node16&#45;&gt;Node17 -->
<g id="edge19_Node000016_Node000017" class="edge">
<title>Node16&#45;&gt;Node17</title>
<g id="a_edge19_Node000016_Node000017"><a xlink:title=" ">
<path fill="none" stroke="#63b8ff" d="M697.67,-201.09C705.76,-191.85 714.94,-181.36 722.11,-173.16"/>
<polygon fill="#63b8ff" stroke="#63b8ff" points="694.88,-198.97 690.93,-208.8 700.15,-203.58 694.88,-198.97"/>
</a>
</g>
</g>
<!-- Node20 -->
<g id="Node000020" class="node">
<title>Node20</title>
<g id="a_Node000020"><a xlink:href="../../d2/d86/mongo_8hpp.html" target="_top" xlink:title="Include&#45;all header for MongoDB client.">
<polygon fill="white" stroke="#666666" points="963.5,-233.5 807.5,-233.5 807.5,-214.5 963.5,-214.5 963.5,-233.5"/>
<text text-anchor="middle" x="885.5" y="-221.5" font-family="Helvetica,sans-Serif" font-size="10.00">userver/storages/mongo.hpp</text>
</a>
</g>
</g>
<!-- Node19&#45;&gt;Node20 -->
<g id="edge23_Node000019_Node000020" class="edge">
<title>Node19&#45;&gt;Node20</title>
<g id="a_edge23_Node000019_Node000020"><a xlink:title=" ">
<path fill="none" stroke="#63b8ff" d="M961.12,-269.81C940.73,-257.73 915.43,-242.73 899.87,-233.52"/>
<polygon fill="#63b8ff" stroke="#63b8ff" points="959.41,-272.87 969.8,-274.95 962.98,-266.85 959.41,-272.87"/>
</a>
</g>
</g>
<!-- Node21 -->
<g id="Node000021" class="node">
<title>Node21</title>
<g id="a_Node000021"><a xlink:href="../../d1/dd7/mongo_2include_2userver_2storages_2mongo_2component_8hpp.html" target="_top" xlink:title="MongoDB client component.">
<polygon fill="white" stroke="#666666" points="1106,-173 971,-173 971,-143 1106,-143 1106,-173"/>
<text text-anchor="start" x="979" y="-161" font-family="Helvetica,sans-Serif" font-size="10.00">userver/storages/mongo</text>
<text text-anchor="middle" x="1038.5" y="-150" font-family="Helvetica,sans-Serif" font-size="10.00">/component.hpp</text>
</a>
</g>
</g>
<!-- Node19&#45;&gt;Node21 -->
<g id="edge24_Node000019_Node000021" class="edge">
<title>Node19&#45;&gt;Node21</title>
<g id="a_edge24_Node000019_Node000021"><a xlink:title=" ">
<path fill="none" stroke="#63b8ff" d="M996.74,-264.55C999.35,-248.42 1003.71,-227.03 1010.5,-209 1015.27,-196.34 1022.87,-183.02 1028.95,-173.31"/>
<polygon fill="#63b8ff" stroke="#63b8ff" points="993.23,-264.35 995.21,-274.76 1000.15,-265.39 993.23,-264.35"/>
</a>
</g>
</g>
<!-- Node22 -->
<g id="Node000022" class="node">
<title>Node22</title>
<g id="a_Node000022"><a xlink:href="../../d2/de5/multi__mongo_8hpp_source.html" target="_top" xlink:title=" ">
<polygon fill="white" stroke="#666666" points="1155,-239 1020,-239 1020,-209 1155,-209 1155,-239"/>
<text text-anchor="start" x="1028" y="-227" font-family="Helvetica,sans-Serif" font-size="10.00">userver/storages/mongo</text>
<text text-anchor="middle" x="1087.5" y="-216" font-family="Helvetica,sans-Serif" font-size="10.00">/multi_mongo.hpp</text>
</a>
</g>
</g>
<!-- Node19&#45;&gt;Node22 -->
<g id="edge25_Node000019_Node000022" class="edge">
<title>Node19&#45;&gt;Node22</title>
<g id="a_edge25_Node000019_Node000022"><a xlink:title=" ">
<path fill="none" stroke="#63b8ff" d="M1022.83,-269.03C1037.06,-259.34 1053.81,-247.94 1066.7,-239.16"/>
<polygon fill="#63b8ff" stroke="#63b8ff" points="1020.66,-266.28 1014.36,-274.8 1024.6,-272.06 1020.66,-266.28"/>
</a>
</g>
</g>
<!-- Node23 -->
<g id="Node000023" class="node">
<title>Node23</title>
<g id="a_Node000023"><a xlink:href="../../d7/d49/mongo__local_8hpp.html" target="_top" xlink:title=" ">
<polygon fill="white" stroke="#666666" points="1308,-239 1173,-239 1173,-209 1308,-209 1308,-239"/>
<text text-anchor="start" x="1181" y="-227" font-family="Helvetica,sans-Serif" font-size="10.00">userver/storages/mongo</text>
<text text-anchor="middle" x="1240.5" y="-216" font-family="Helvetica,sans-Serif" font-size="10.00">/utest/mongo_local.hpp</text>
</a>
</g>
</g>
<!-- Node19&#45;&gt;Node23 -->
<g id="edge27_Node000019_Node000023" class="edge">
<title>Node19&#45;&gt;Node23</title>
<g id="a_edge27_Node000019_Node000023"><a xlink:title=" ">
<path fill="none" stroke="#63b8ff" d="M1057.62,-272.39C1097.6,-262.03 1148.48,-248.84 1186.42,-239.01"/>
<polygon fill="#63b8ff" stroke="#63b8ff" points="1056.51,-269.06 1047.71,-274.95 1058.26,-275.83 1056.51,-269.06"/>
</a>
</g>
</g>
<!-- Node22&#45;&gt;Node21 -->
<g id="edge26_Node000022_Node000021" class="edge">
<title>Node22&#45;&gt;Node21</title>
<g id="a_edge26_Node000022_Node000021"><a xlink:title=" ">
<path fill="none" stroke="#63b8ff" d="M1070.51,-200.81C1063.49,-191.64 1055.56,-181.28 1049.34,-173.16"/>
<polygon fill="#63b8ff" stroke="#63b8ff" points="1067.77,-202.98 1076.63,-208.8 1073.33,-198.73 1067.77,-202.98"/>
</a>
</g>
</g>
<!-- Node24 -->
<g id="Node000024" class="node">
<title>Node24</title>
<g id="a_Node000024"><a xlink:href="../../d0/d79/mongo__fixture_8hpp.html" target="_top" xlink:title=" ">
<polygon fill="white" stroke="#666666" points="1310,-173 1171,-173 1171,-143 1310,-143 1310,-173"/>
<text text-anchor="start" x="1179" y="-161" font-family="Helvetica,sans-Serif" font-size="10.00">userver/storages/mongo</text>
<text text-anchor="middle" x="1240.5" y="-150" font-family="Helvetica,sans-Serif" font-size="10.00">/utest/mongo_fixture.hpp</text>
</a>
</g>
</g>
<!-- Node23&#45;&gt;Node24 -->
<g id="edge28_Node000023_Node000024" class="edge">
<title>Node23&#45;&gt;Node24</title>
<g id="a_edge28_Node000023_Node000024"><a xlink:title=" ">
<path fill="none" stroke="#63b8ff" d="M1240.5,-198.54C1240.5,-189.96 1240.5,-180.61 1240.5,-173.16"/>
<polygon fill="#63b8ff" stroke="#63b8ff" points="1237,-198.8 1240.5,-208.8 1244,-198.8 1237,-198.8"/>
</a>
</g>
</g>
</g>
</svg>
