<?xml version="1.0" encoding="UTF-8" standalone="no"?>
<!DOCTYPE svg PUBLIC "-//W3C//DTD SVG 1.1//EN"
 "http://www.w3.org/Graphics/SVG/1.1/DTD/svg11.dtd">
<!-- Generated by graphviz version 2.43.0 (0)
 -->
<!-- Title: userver/server/handlers/auth/digest/directives_parser.hpp Pages: 1 -->
<svg width="272pt" height="159pt"
 viewBox="0.00 0.00 272.00 159.00" xmlns="http://www.w3.org/2000/svg" xmlns:xlink="http://www.w3.org/1999/xlink">
<g id="graph0" class="graph" transform="scale(1 1) rotate(0) translate(4 155)">
<title>userver/server/handlers/auth/digest/directives_parser.hpp</title>
<!-- Node1 -->
<g id="Node000001" class="node">
<title>Node1</title>
<g id="a_Node000001"><a xlink:title="Class for parsing Authorization header directives from client request.">
<polygon fill="#999999" stroke="#666666" points="168,-151 36,-151 36,-110 168,-110 168,-151"/>
<text text-anchor="start" x="44" y="-139" font-family="Helvetica,sans-Serif" font-size="10.00">userver/server/handlers</text>
<text text-anchor="start" x="44" y="-128" font-family="Helvetica,sans-Serif" font-size="10.00">/auth/digest/directives</text>
<text text-anchor="middle" x="102" y="-117" font-family="Helvetica,sans-Serif" font-size="10.00">_parser.hpp</text>
</a>
</g>
</g>
<!-- Node2 -->
<g id="Node000002" class="node">
<title>Node2</title>
<g id="a_Node000002"><a xlink:title=" ">
<polygon fill="#e0e0e0" stroke="#999999" points="42,-74 0,-74 0,-55 42,-55 42,-74"/>
<text text-anchor="middle" x="21" y="-62" font-family="Helvetica,sans-Serif" font-size="10.00">array</text>
</a>
</g>
</g>
<!-- Node1&#45;&gt;Node2 -->
<g id="edge1_Node000001_Node000002" class="edge">
<title>Node1&#45;&gt;Node2</title>
<g id="a_edge1_Node000001_Node000002"><a xlink:title=" ">
<path fill="none" stroke="#63b8ff" d="M77.26,-109.95C65.36,-100.55 51.32,-89.46 40.24,-80.7"/>
<polygon fill="#63b8ff" stroke="#63b8ff" points="42.1,-77.71 32.09,-74.26 37.76,-83.21 42.1,-77.71"/>
</a>
</g>
</g>
<!-- Node3 -->
<g id="Node000003" class="node">
<title>Node3</title>
<g id="a_Node000003"><a xlink:title=" ">
<polygon fill="#e0e0e0" stroke="#999999" points="170,-19 126,-19 126,0 170,0 170,-19"/>
<text text-anchor="middle" x="148" y="-7" font-family="Helvetica,sans-Serif" font-size="10.00">string</text>
</a>
</g>
</g>
<!-- Node1&#45;&gt;Node3 -->
<g id="edge2_Node000001_Node000003" class="edge">
<title>Node1&#45;&gt;Node3</title>
<g id="a_edge2_Node000001_Node000003"><a xlink:title=" ">
<path fill="none" stroke="#63b8ff" d="M92.26,-109.88C85.96,-94.27 80.39,-72.27 89,-55 95.57,-41.82 108.1,-31.52 119.93,-24.16"/>
<polygon fill="#63b8ff" stroke="#63b8ff" points="121.8,-27.12 128.73,-19.1 118.32,-21.05 121.8,-27.12"/>
</a>
</g>
</g>
<!-- Node4 -->
<g id="Node000004" class="node">
<title>Node4</title>
<g id="a_Node000004"><a xlink:title=" ">
<polygon fill="#e0e0e0" stroke="#999999" points="171.5,-74 98.5,-74 98.5,-55 171.5,-55 171.5,-74"/>
<text text-anchor="middle" x="135" y="-62" font-family="Helvetica,sans-Serif" font-size="10.00">string_view</text>
</a>
</g>
</g>
<!-- Node1&#45;&gt;Node4 -->
<g id="edge3_Node000001_Node000004" class="edge">
<title>Node1&#45;&gt;Node4</title>
<g id="a_edge3_Node000001_Node000004"><a xlink:title=" ">
<path fill="none" stroke="#63b8ff" d="M112.08,-109.95C116.45,-101.48 121.52,-91.64 125.79,-83.37"/>
<polygon fill="#63b8ff" stroke="#63b8ff" points="129.01,-84.75 130.48,-74.26 122.79,-81.54 129.01,-84.75"/>
</a>
</g>
</g>
<!-- Node5 -->
<g id="Node000005" class="node">
<title>Node5</title>
<g id="a_Node000005"><a xlink:href="../../d2/da3/context_8hpp.html" target="_top" xlink:title="Context structures for Digest Authentication.">
<polygon fill="white" stroke="#666666" points="264,-74 190,-74 190,-55 264,-55 264,-74"/>
<text text-anchor="middle" x="227" y="-62" font-family="Helvetica,sans-Serif" font-size="10.00">context.hpp</text>
</a>
</g>
</g>
<!-- Node1&#45;&gt;Node5 -->
<g id="edge4_Node000001_Node000005" class="edge">
<title>Node1&#45;&gt;Node5</title>
<g id="a_edge4_Node000001_Node000005"><a xlink:title=" ">
<path fill="none" stroke="#63b8ff" d="M140.18,-109.95C159.93,-99.84 183.52,-87.76 201.12,-78.75"/>
<polygon fill="#63b8ff" stroke="#63b8ff" points="202.91,-81.76 210.22,-74.09 199.72,-75.53 202.91,-81.76"/>
</a>
</g>
</g>
<!-- Node5&#45;&gt;Node3 -->
<g id="edge5_Node000005_Node000003" class="edge">
<title>Node5&#45;&gt;Node3</title>
<g id="a_edge5_Node000005_Node000003"><a xlink:title=" ">
<path fill="none" stroke="#63b8ff" d="M214.31,-54.98C202.17,-46.84 183.64,-34.41 169.25,-24.76"/>
<polygon fill="#63b8ff" stroke="#63b8ff" points="171.18,-21.84 160.92,-19.17 167.28,-27.65 171.18,-21.84"/>
</a>
</g>
</g>
</g>
</svg>
