<?xml version="1.0" encoding="UTF-8" standalone="no"?>
<!DOCTYPE svg PUBLIC "-//W3C//DTD SVG 1.1//EN"
 "http://www.w3.org/Graphics/SVG/1.1/DTD/svg11.dtd">
<!-- Generated by graphviz version 2.43.0 (0)
 -->
<!-- Title: redis::Exception Pages: 1 -->
<svg width="594pt" height="417pt"
 viewBox="0.00 0.00 594.00 417.00" xmlns="http://www.w3.org/2000/svg" xmlns:xlink="http://www.w3.org/1999/xlink">
<g id="graph0" class="graph" transform="scale(1 1) rotate(0) translate(4 413)">
<title>redis::Exception</title>
<!-- Node1 -->
<g id="Node000001" class="node">
<title>Node1</title>
<g id="a_Node000001"><a xlink:title="Generic redis&#45;related exception.">
<polygon fill="#999999" stroke="#666666" points="357,-218.5 262,-218.5 262,-199.5 357,-199.5 357,-218.5"/>
<text text-anchor="middle" x="309.5" y="-206.5" font-family="Helvetica,sans-Serif" font-size="10.00">redis::Exception</text>
</a>
</g>
</g>
<!-- Node4 -->
<g id="Node000004" class="node">
<title>Node4</title>
<g id="a_Node000004"><a xlink:href="../../db/d84/classredis_1_1ClientNotConnectedException.html" target="_top" xlink:title="Cannot connect to some redis server shard.">
<polygon fill="white" stroke="#666666" points="561.5,-409 417.5,-409 417.5,-379 561.5,-379 561.5,-409"/>
<text text-anchor="start" x="425.5" y="-397" font-family="Helvetica,sans-Serif" font-size="10.00">redis::ClientNotConnected</text>
<text text-anchor="middle" x="489.5" y="-386" font-family="Helvetica,sans-Serif" font-size="10.00">Exception</text>
</a>
</g>
</g>
<!-- Node1&#45;&gt;Node4 -->
<g id="edge3_Node000001_Node000004" class="edge">
<title>Node1&#45;&gt;Node4</title>
<g id="a_edge3_Node000001_Node000004"><a xlink:title=" ">
<path fill="none" stroke="#63b8ff" d="M314.99,-228.9C323.79,-263.15 346.62,-333.12 393,-370 400.23,-375.75 408.65,-380.13 417.45,-383.48"/>
<polygon fill="#63b8ff" stroke="#63b8ff" points="318.29,-227.64 312.53,-218.75 311.49,-229.29 318.29,-227.64"/>
</a>
</g>
</g>
<!-- Node5 -->
<g id="Node000005" class="node">
<title>Node5</title>
<g id="a_Node000005"><a xlink:href="../../d6/da6/classredis_1_1InvalidArgumentException.html" target="_top" xlink:title="Invalid redis command argument.">
<polygon fill="white" stroke="#666666" points="577.5,-360.5 401.5,-360.5 401.5,-341.5 577.5,-341.5 577.5,-360.5"/>
<text text-anchor="middle" x="489.5" y="-348.5" font-family="Helvetica,sans-Serif" font-size="10.00">redis::InvalidArgumentException</text>
</a>
</g>
</g>
<!-- Node1&#45;&gt;Node5 -->
<g id="edge4_Node000001_Node000005" class="edge">
<title>Node1&#45;&gt;Node5</title>
<g id="a_edge4_Node000001_Node000005"><a xlink:title=" ">
<path fill="none" stroke="#63b8ff" d="M317.64,-227.89C329.1,-255.44 354.3,-306.19 393,-332 398.77,-335.85 405.14,-338.95 411.77,-341.44"/>
<polygon fill="#63b8ff" stroke="#63b8ff" points="320.88,-226.55 313.93,-218.56 314.38,-229.15 320.88,-226.55"/>
</a>
</g>
</g>
<!-- Node6 -->
<g id="Node000006" class="node">
<title>Node6</title>
<g id="a_Node000006"><a xlink:href="../../dc/ddc/classredis_1_1KeyHasNoExpirationException.html" target="_top" xlink:title="Trying to get expiration from a nonexistent or a persistent key.">
<polygon fill="white" stroke="#666666" points="562.5,-323 416.5,-323 416.5,-293 562.5,-293 562.5,-323"/>
<text text-anchor="start" x="424.5" y="-311" font-family="Helvetica,sans-Serif" font-size="10.00">redis::KeyHasNoExpiration</text>
<text text-anchor="middle" x="489.5" y="-300" font-family="Helvetica,sans-Serif" font-size="10.00">Exception</text>
</a>
</g>
</g>
<!-- Node1&#45;&gt;Node6 -->
<g id="edge5_Node000001_Node000006" class="edge">
<title>Node1&#45;&gt;Node6</title>
<g id="a_edge5_Node000001_Node000006"><a xlink:title=" ">
<path fill="none" stroke="#63b8ff" d="M324.89,-226.33C340.08,-243.5 365.58,-269.3 393,-284 400.31,-287.92 408.27,-291.21 416.39,-293.98"/>
<polygon fill="#63b8ff" stroke="#63b8ff" points="327.48,-223.97 318.3,-218.68 322.17,-228.54 327.48,-223.97"/>
</a>
</g>
</g>
<!-- Node7 -->
<g id="Node000007" class="node">
<title>Node7</title>
<g id="a_Node000007"><a xlink:href="../../d1/d79/classredis_1_1ParseConfigException.html" target="_top" xlink:title="Invalid config format.">
<polygon fill="white" stroke="#666666" points="565.5,-274.5 413.5,-274.5 413.5,-255.5 565.5,-255.5 565.5,-274.5"/>
<text text-anchor="middle" x="489.5" y="-262.5" font-family="Helvetica,sans-Serif" font-size="10.00">redis::ParseConfigException</text>
</a>
</g>
</g>
<!-- Node1&#45;&gt;Node7 -->
<g id="edge6_Node000001_Node000007" class="edge">
<title>Node1&#45;&gt;Node7</title>
<g id="a_edge6_Node000001_Node000007"><a xlink:title=" ">
<path fill="none" stroke="#63b8ff" d="M337.2,-223.33C353.03,-231.31 373.72,-240.85 393,-247 403.45,-250.33 414.75,-253.14 425.79,-255.46"/>
<polygon fill="#63b8ff" stroke="#63b8ff" points="338.51,-220.07 328.02,-218.61 335.31,-226.3 338.51,-220.07"/>
</a>
</g>
</g>
<!-- Node8 -->
<g id="Node000008" class="node">
<title>Node8</title>
<g id="a_Node000008"><a xlink:href="../../d3/da8/classredis_1_1ParseReplyException.html" target="_top" xlink:title="Invalid reply data format.">
<polygon fill="white" stroke="#666666" points="564,-237.5 415,-237.5 415,-218.5 564,-218.5 564,-237.5"/>
<text text-anchor="middle" x="489.5" y="-225.5" font-family="Helvetica,sans-Serif" font-size="10.00">redis::ParseReplyException</text>
</a>
</g>
</g>
<!-- Node1&#45;&gt;Node8 -->
<g id="edge7_Node000001_Node000008" class="edge">
<title>Node1&#45;&gt;Node8</title>
<g id="a_edge7_Node000001_Node000008"><a xlink:title=" ">
<path fill="none" stroke="#63b8ff" d="M367.45,-215.08C382.53,-216.69 399.02,-218.45 414.84,-220.14"/>
<polygon fill="#63b8ff" stroke="#63b8ff" points="367.58,-211.57 357.27,-213.99 366.84,-218.53 367.58,-211.57"/>
</a>
</g>
</g>
<!-- Node9 -->
<g id="Node000009" class="node">
<title>Node9</title>
<g id="a_Node000009"><a xlink:href="../../d7/d1d/classredis_1_1RequestCancelledException.html" target="_top" xlink:title="Request was cancelled.">
<polygon fill="white" stroke="#666666" points="580.5,-200.5 398.5,-200.5 398.5,-181.5 580.5,-181.5 580.5,-200.5"/>
<text text-anchor="middle" x="489.5" y="-188.5" font-family="Helvetica,sans-Serif" font-size="10.00">redis::RequestCancelledException</text>
</a>
</g>
</g>
<!-- Node1&#45;&gt;Node9 -->
<g id="edge8_Node000001_Node000009" class="edge">
<title>Node1&#45;&gt;Node9</title>
<g id="a_edge8_Node000001_Node000009"><a xlink:title=" ">
<path fill="none" stroke="#63b8ff" d="M367.34,-203.25C377.24,-202.25 387.75,-201.19 398.29,-200.12"/>
<polygon fill="#63b8ff" stroke="#63b8ff" points="366.86,-199.78 357.27,-204.27 367.57,-206.75 366.86,-199.78"/>
</a>
</g>
</g>
<!-- Node10 -->
<g id="Node000010" class="node">
<title>Node10</title>
<g id="a_Node000010"><a xlink:href="../../dc/d8b/classredis_1_1RequestFailedException.html" target="_top" xlink:title="Request execution failed.">
<polygon fill="white" stroke="#666666" points="571,-163.5 408,-163.5 408,-144.5 571,-144.5 571,-163.5"/>
<text text-anchor="middle" x="489.5" y="-151.5" font-family="Helvetica,sans-Serif" font-size="10.00">redis::RequestFailedException</text>
</a>
</g>
</g>
<!-- Node1&#45;&gt;Node10 -->
<g id="edge9_Node000001_Node000010" class="edge">
<title>Node1&#45;&gt;Node10</title>
<g id="a_edge9_Node000001_Node000010"><a xlink:title=" ">
<path fill="none" stroke="#63b8ff" d="M337.85,-194.77C353.62,-187.08 374.02,-177.95 393,-172 403.62,-168.67 415.12,-165.86 426.33,-163.52"/>
<polygon fill="#63b8ff" stroke="#63b8ff" points="336.08,-191.75 328.69,-199.34 339.2,-198.01 336.08,-191.75"/>
</a>
</g>
</g>
<!-- Node11 -->
<g id="Node000011" class="node">
<title>Node11</title>
<g id="a_Node000011"><a xlink:href="../../da/dd8/classstorages_1_1redis_1_1EmptyTransactionException.html" target="_top" xlink:title=" ">
<polygon fill="white" stroke="#bfbfbf" points="580.5,-126 398.5,-126 398.5,-96 580.5,-96 580.5,-126"/>
<text text-anchor="start" x="406.5" y="-114" font-family="Helvetica,sans-Serif" font-size="10.00">storages::redis::EmptyTransaction</text>
<text text-anchor="middle" x="489.5" y="-103" font-family="Helvetica,sans-Serif" font-size="10.00">Exception</text>
</a>
</g>
</g>
<!-- Node1&#45;&gt;Node11 -->
<g id="edge10_Node000001_Node000011" class="edge">
<title>Node1&#45;&gt;Node11</title>
<g id="a_edge10_Node000001_Node000011"><a xlink:title=" ">
<path fill="none" stroke="#63b8ff" d="M324.94,-191.91C340.16,-174.97 365.7,-149.52 393,-135 399.49,-131.55 406.5,-128.58 413.66,-126.03"/>
<polygon fill="#63b8ff" stroke="#63b8ff" points="322.28,-189.62 318.33,-199.45 327.55,-194.24 322.28,-189.62"/>
</a>
</g>
</g>
<!-- Node12 -->
<g id="Node000012" class="node">
<title>Node12</title>
<g id="a_Node000012"><a xlink:href="../../d2/de6/classstorages_1_1redis_1_1NotStartedTransactionException.html" target="_top" xlink:title=" ">
<polygon fill="white" stroke="#bfbfbf" points="563,-78 416,-78 416,-48 563,-48 563,-78"/>
<text text-anchor="start" x="424" y="-66" font-family="Helvetica,sans-Serif" font-size="10.00">storages::redis::NotStarted</text>
<text text-anchor="middle" x="489.5" y="-55" font-family="Helvetica,sans-Serif" font-size="10.00">TransactionException</text>
</a>
</g>
</g>
<!-- Node1&#45;&gt;Node12 -->
<g id="edge11_Node000001_Node000012" class="edge">
<title>Node1&#45;&gt;Node12</title>
<g id="a_edge11_Node000001_Node000012"><a xlink:title=" ">
<path fill="none" stroke="#63b8ff" d="M318.19,-189.75C330.06,-162.56 355.47,-113.3 393,-87 399.86,-82.19 407.59,-78.35 415.61,-75.27"/>
<polygon fill="#63b8ff" stroke="#63b8ff" points="314.82,-188.73 314.18,-199.31 321.27,-191.44 314.82,-188.73"/>
</a>
</g>
</g>
<!-- Node13 -->
<g id="Node000013" class="node">
<title>Node13</title>
<g id="a_Node000013"><a xlink:href="../../d5/d22/classstorages_1_1redis_1_1ScanRequest_1_1GetAfterEofException.html" target="_top" xlink:title=" ">
<polygon fill="white" stroke="#bfbfbf" points="586,-30 393,-30 393,0 586,0 586,-30"/>
<text text-anchor="start" x="401" y="-18" font-family="Helvetica,sans-Serif" font-size="10.00">storages::redis::ScanRequest</text>
<text text-anchor="middle" x="489.5" y="-7" font-family="Helvetica,sans-Serif" font-size="10.00">&lt; scan_tag &gt;::GetAfterEofException</text>
</a>
</g>
</g>
<!-- Node1&#45;&gt;Node13 -->
<g id="edge12_Node000001_Node000013" class="edge">
<title>Node1&#45;&gt;Node13</title>
<g id="a_edge12_Node000001_Node000013"><a xlink:title=" ">
<path fill="none" stroke="#63b8ff" d="M314.43,-188.99C322.53,-153.23 344.53,-78.4 393,-39 397.24,-35.55 401.92,-32.59 406.85,-30.04"/>
<polygon fill="#63b8ff" stroke="#63b8ff" points="310.93,-188.63 312.27,-199.14 317.78,-190.08 310.93,-188.63"/>
</a>
</g>
</g>
<!-- Node2 -->
<g id="Node000002" class="node">
<title>Node2</title>
<g id="a_Node000002"><a xlink:title=" ">
<polygon fill="white" stroke="#666666" points="226,-218.5 122,-218.5 122,-199.5 226,-199.5 226,-218.5"/>
<text text-anchor="middle" x="174" y="-206.5" font-family="Helvetica,sans-Serif" font-size="10.00">std::runtime_error</text>
</a>
</g>
</g>
<!-- Node2&#45;&gt;Node1 -->
<g id="edge1_Node000001_Node000002" class="edge">
<title>Node2&#45;&gt;Node1</title>
<g id="a_edge1_Node000001_Node000002"><a xlink:title=" ">
<path fill="none" stroke="#63b8ff" d="M236.29,-209C244.93,-209 253.69,-209 262,-209"/>
<polygon fill="#63b8ff" stroke="#63b8ff" points="236.23,-205.5 226.23,-209 236.23,-212.5 236.23,-205.5"/>
</a>
</g>
</g>
<!-- Node3 -->
<g id="Node000003" class="node">
<title>Node3</title>
<g id="a_Node000003"><a xlink:title=" ">
<polygon fill="white" stroke="#666666" points="86,-218.5 0,-218.5 0,-199.5 86,-199.5 86,-218.5"/>
<text text-anchor="middle" x="43" y="-206.5" font-family="Helvetica,sans-Serif" font-size="10.00">std::exception</text>
</a>
</g>
</g>
<!-- Node3&#45;&gt;Node2 -->
<g id="edge2_Node000002_Node000003" class="edge">
<title>Node3&#45;&gt;Node2</title>
<g id="a_edge2_Node000002_Node000003"><a xlink:title=" ">
<path fill="none" stroke="#63b8ff" d="M96.27,-209C104.65,-209 113.31,-209 121.66,-209"/>
<polygon fill="#63b8ff" stroke="#63b8ff" points="96.24,-205.5 86.24,-209 96.24,-212.5 96.24,-205.5"/>
</a>
</g>
</g>
</g>
</svg>
