<?xml version="1.0" encoding="UTF-8" standalone="no"?>
<!DOCTYPE svg PUBLIC "-//W3C//DTD SVG 1.1//EN"
 "http://www.w3.org/Graphics/SVG/1.1/DTD/svg11.dtd">
<!-- Generated by graphviz version 2.43.0 (0)
 -->
<!-- Title: userver/storages/mongo/options.hpp Pages: 1 -->
<svg width="700pt" height="434pt"
 viewBox="0.00 0.00 699.50 434.00" xmlns="http://www.w3.org/2000/svg" xmlns:xlink="http://www.w3.org/1999/xlink">
<g id="graph0" class="graph" transform="scale(1 1) rotate(0) translate(4 430)">
<title>userver/storages/mongo/options.hpp</title>
<!-- Node1 -->
<g id="Node000001" class="node">
<title>Node1</title>
<g id="a_Node000001"><a xlink:title="Query options.">
<polygon fill="#999999" stroke="#666666" points="413.5,-426 278.5,-426 278.5,-396 413.5,-396 413.5,-426"/>
<text text-anchor="start" x="286.5" y="-414" font-family="Helvetica,sans-Serif" font-size="10.00">userver/storages/mongo</text>
<text text-anchor="middle" x="346" y="-403" font-family="Helvetica,sans-Serif" font-size="10.00">/options.hpp</text>
</a>
</g>
</g>
<!-- Node2 -->
<g id="Node000002" class="node">
<title>Node2</title>
<g id="a_Node000002"><a xlink:href="../../dd/d6c/base__mongo__cache_8hpp.html" target="_top" xlink:title="Base class for all caches polling mongo collection">
<polygon fill="white" stroke="#666666" points="638.5,-162 527.5,-162 527.5,-132 638.5,-132 638.5,-162"/>
<text text-anchor="start" x="535.5" y="-150" font-family="Helvetica,sans-Serif" font-size="10.00">userver/cache/base</text>
<text text-anchor="middle" x="583" y="-139" font-family="Helvetica,sans-Serif" font-size="10.00">_mongo_cache.hpp</text>
</a>
</g>
</g>
<!-- Node1&#45;&gt;Node2 -->
<g id="edge1_Node000001_Node000002" class="edge">
<title>Node1&#45;&gt;Node2</title>
<g id="a_edge1_Node000001_Node000002"><a xlink:title=" ">
<path fill="none" stroke="#63b8ff" d="M388.92,-391.69C428.3,-372.77 485.47,-339.57 519,-294 550.66,-250.98 570.96,-189.84 579.03,-162.36"/>
<polygon fill="#63b8ff" stroke="#63b8ff" points="387.38,-388.55 379.81,-395.97 390.35,-394.89 387.38,-388.55"/>
</a>
</g>
</g>
<!-- Node3 -->
<g id="Node000003" class="node">
<title>Node3</title>
<g id="a_Node000003"><a xlink:href="../../d2/d86/mongo_8hpp.html" target="_top" xlink:title="Include&#45;all header for MongoDB client.">
<polygon fill="white" stroke="#666666" points="156,-90.5 0,-90.5 0,-71.5 156,-71.5 156,-90.5"/>
<text text-anchor="middle" x="78" y="-78.5" font-family="Helvetica,sans-Serif" font-size="10.00">userver/storages/mongo.hpp</text>
</a>
</g>
</g>
<!-- Node1&#45;&gt;Node3 -->
<g id="edge2_Node000001_Node000003" class="edge">
<title>Node1&#45;&gt;Node3</title>
<g id="a_edge2_Node000001_Node000003"><a xlink:title=" ">
<path fill="none" stroke="#63b8ff" d="M268.4,-404.73C189.26,-394.65 78,-365.3 78,-280 78,-280 78,-280 78,-212 78,-166.18 78,-111.29 78,-90.52"/>
<polygon fill="#63b8ff" stroke="#63b8ff" points="268.03,-408.21 278.37,-405.92 268.86,-401.26 268.03,-408.21"/>
</a>
</g>
</g>
<!-- Node4 -->
<g id="Node000004" class="node">
<title>Node4</title>
<g id="a_Node000004"><a xlink:href="../../d5/d0f/bulk_8hpp.html" target="_top" xlink:title="Bulk collection operation model.">
<polygon fill="white" stroke="#666666" points="337.5,-294 202.5,-294 202.5,-264 337.5,-264 337.5,-294"/>
<text text-anchor="start" x="210.5" y="-282" font-family="Helvetica,sans-Serif" font-size="10.00">userver/storages/mongo</text>
<text text-anchor="middle" x="270" y="-271" font-family="Helvetica,sans-Serif" font-size="10.00">/bulk.hpp</text>
</a>
</g>
</g>
<!-- Node1&#45;&gt;Node4 -->
<g id="edge3_Node000001_Node000004" class="edge">
<title>Node1&#45;&gt;Node4</title>
<g id="a_edge3_Node000001_Node000004"><a xlink:title=" ">
<path fill="none" stroke="#63b8ff" d="M300.88,-390.95C288.28,-383.28 276.11,-373.09 269,-360 257.8,-339.37 261.82,-311.11 265.85,-294.29"/>
<polygon fill="#63b8ff" stroke="#63b8ff" points="299.18,-394.01 309.62,-395.86 302.61,-387.91 299.18,-394.01"/>
</a>
</g>
</g>
<!-- Node13 -->
<g id="Node000013" class="node">
<title>Node13</title>
<g id="a_Node000013"><a xlink:href="../../d3/df1/bulk__ops_8hpp.html" target="_top" xlink:title="Bulk sub&#45;operation models.">
<polygon fill="white" stroke="#666666" points="413.5,-360 278.5,-360 278.5,-330 413.5,-330 413.5,-360"/>
<text text-anchor="start" x="286.5" y="-348" font-family="Helvetica,sans-Serif" font-size="10.00">userver/storages/mongo</text>
<text text-anchor="middle" x="346" y="-337" font-family="Helvetica,sans-Serif" font-size="10.00">/bulk_ops.hpp</text>
</a>
</g>
</g>
<!-- Node1&#45;&gt;Node13 -->
<g id="edge18_Node000001_Node000013" class="edge">
<title>Node1&#45;&gt;Node13</title>
<g id="a_edge18_Node000001_Node000013"><a xlink:title=" ">
<path fill="none" stroke="#63b8ff" d="M346,-385.54C346,-376.96 346,-367.61 346,-360.16"/>
<polygon fill="#63b8ff" stroke="#63b8ff" points="342.5,-385.8 346,-395.8 349.5,-385.8 342.5,-385.8"/>
</a>
</g>
</g>
<!-- Node14 -->
<g id="Node000014" class="node">
<title>Node14</title>
<g id="a_Node000014"><a xlink:href="../../de/d6b/mongo_2include_2userver_2storages_2mongo_2operations_8hpp.html" target="_top" xlink:title="Collection operation models.">
<polygon fill="white" stroke="#666666" points="509.5,-294 374.5,-294 374.5,-264 509.5,-264 509.5,-294"/>
<text text-anchor="start" x="382.5" y="-282" font-family="Helvetica,sans-Serif" font-size="10.00">userver/storages/mongo</text>
<text text-anchor="middle" x="442" y="-271" font-family="Helvetica,sans-Serif" font-size="10.00">/operations.hpp</text>
</a>
</g>
</g>
<!-- Node1&#45;&gt;Node14 -->
<g id="edge20_Node000001_Node000014" class="edge">
<title>Node1&#45;&gt;Node14</title>
<g id="a_edge20_Node000001_Node000014"><a xlink:title=" ">
<path fill="none" stroke="#63b8ff" d="M386.76,-390.87C399.72,-382.98 413.02,-372.66 422,-360 436.08,-340.15 440.28,-311.38 441.51,-294.3"/>
<polygon fill="#63b8ff" stroke="#63b8ff" points="384.83,-387.95 377.89,-395.96 388.31,-394.02 384.83,-387.95"/>
</a>
</g>
</g>
<!-- Node4&#45;&gt;Node3 -->
<g id="edge4_Node000004_Node000003" class="edge">
<title>Node4&#45;&gt;Node3</title>
<g id="a_edge4_Node000004_Node000003"><a xlink:title=" ">
<path fill="none" stroke="#63b8ff" d="M241.28,-257.91C211.61,-236.31 164.97,-199.94 131,-162 109.89,-138.42 90.92,-105.77 82.54,-90.51"/>
<polygon fill="#63b8ff" stroke="#63b8ff" points="239.39,-260.86 249.54,-263.86 243.48,-255.18 239.39,-260.86"/>
</a>
</g>
</g>
<!-- Node5 -->
<g id="Node000005" class="node">
<title>Node5</title>
<g id="a_Node000005"><a xlink:href="../../d4/db6/collection_8hpp.html" target="_top" xlink:title="MongoDB collection handle, the main way to operate with MongoDB.">
<polygon fill="white" stroke="#666666" points="413.5,-228 278.5,-228 278.5,-198 413.5,-198 413.5,-228"/>
<text text-anchor="start" x="286.5" y="-216" font-family="Helvetica,sans-Serif" font-size="10.00">userver/storages/mongo</text>
<text text-anchor="middle" x="346" y="-205" font-family="Helvetica,sans-Serif" font-size="10.00">/collection.hpp</text>
</a>
</g>
</g>
<!-- Node4&#45;&gt;Node5 -->
<g id="edge5_Node000004_Node000005" class="edge">
<title>Node4&#45;&gt;Node5</title>
<g id="a_edge5_Node000004_Node000005"><a xlink:title=" ">
<path fill="none" stroke="#63b8ff" d="M294.7,-257.2C305.98,-247.7 319.05,-236.69 329.18,-228.16"/>
<polygon fill="#63b8ff" stroke="#63b8ff" points="292.26,-254.68 286.87,-263.8 296.77,-260.03 292.26,-254.68"/>
</a>
</g>
</g>
<!-- Node5&#45;&gt;Node2 -->
<g id="edge6_Node000005_Node000002" class="edge">
<title>Node5&#45;&gt;Node2</title>
<g id="a_edge6_Node000005_Node000002"><a xlink:title=" ">
<path fill="none" stroke="#63b8ff" d="M408.01,-195.25C446.3,-184.91 494.86,-171.8 531.11,-162.01"/>
<polygon fill="#63b8ff" stroke="#63b8ff" points="406.75,-191.97 398.01,-197.95 408.58,-198.73 406.75,-191.97"/>
</a>
</g>
</g>
<!-- Node5&#45;&gt;Node3 -->
<g id="edge7_Node000005_Node000003" class="edge">
<title>Node5&#45;&gt;Node3</title>
<g id="a_edge7_Node000005_Node000003"><a xlink:title=" ">
<path fill="none" stroke="#63b8ff" d="M268.33,-196.91C237.52,-189.07 202.49,-177.75 173,-162 154.08,-151.89 107.17,-109.16 87.22,-90.63"/>
<polygon fill="#63b8ff" stroke="#63b8ff" points="267.62,-200.34 278.17,-199.33 269.3,-193.54 267.62,-200.34"/>
</a>
</g>
</g>
<!-- Node6 -->
<g id="Node000006" class="node">
<title>Node6</title>
<g id="a_Node000006"><a xlink:href="../../d5/d93/mongo_2include_2userver_2storages_2mongo_2dist__lock__component__base_8hpp.html" target="_top" xlink:title="Base class for mongo&#45;based distlock worker components.">
<polygon fill="white" stroke="#666666" points="691.5,-96 518.5,-96 518.5,-66 691.5,-66 691.5,-96"/>
<text text-anchor="start" x="526.5" y="-84" font-family="Helvetica,sans-Serif" font-size="10.00">userver/storages/mongo</text>
<text text-anchor="middle" x="605" y="-73" font-family="Helvetica,sans-Serif" font-size="10.00">/dist_lock_component_base.hpp</text>
</a>
</g>
</g>
<!-- Node5&#45;&gt;Node6 -->
<g id="edge8_Node000005_Node000006" class="edge">
<title>Node5&#45;&gt;Node6</title>
<g id="a_edge8_Node000005_Node000006"><a xlink:title=" ">
<path fill="none" stroke="#63b8ff" d="M345.26,-187.73C346.09,-169.88 350.25,-146.34 365,-132 376.25,-121.06 454.21,-106.13 518.27,-95.43"/>
<polygon fill="#63b8ff" stroke="#63b8ff" points="341.76,-187.92 345.12,-197.96 348.76,-188.02 341.76,-187.92"/>
</a>
</g>
</g>
<!-- Node7 -->
<g id="Node000007" class="node">
<title>Node7</title>
<g id="a_Node000007"><a xlink:href="../../d6/d83/mongo_2include_2userver_2storages_2mongo_2dist__lock__strategy_8hpp_source.html" target="_top" xlink:title=" ">
<polygon fill="white" stroke="#666666" points="509.5,-162 374.5,-162 374.5,-132 509.5,-132 509.5,-162"/>
<text text-anchor="start" x="382.5" y="-150" font-family="Helvetica,sans-Serif" font-size="10.00">userver/storages/mongo</text>
<text text-anchor="middle" x="442" y="-139" font-family="Helvetica,sans-Serif" font-size="10.00">/dist_lock_strategy.hpp</text>
</a>
</g>
</g>
<!-- Node5&#45;&gt;Node7 -->
<g id="edge9_Node000005_Node000007" class="edge">
<title>Node5&#45;&gt;Node7</title>
<g id="a_edge9_Node000005_Node000007"><a xlink:title=" ">
<path fill="none" stroke="#63b8ff" d="M375.96,-192.03C390.49,-182.34 407.59,-170.94 420.75,-162.16"/>
<polygon fill="#63b8ff" stroke="#63b8ff" points="373.68,-189.34 367.31,-197.8 377.57,-195.16 373.68,-189.34"/>
</a>
</g>
</g>
<!-- Node8 -->
<g id="Node000008" class="node">
<title>Node8</title>
<g id="a_Node000008"><a xlink:href="../../d3/dc1/pool_8hpp.html" target="_top" xlink:title="MongoDB client pool.">
<polygon fill="white" stroke="#666666" points="317.5,-162 182.5,-162 182.5,-132 317.5,-132 317.5,-162"/>
<text text-anchor="start" x="190.5" y="-150" font-family="Helvetica,sans-Serif" font-size="10.00">userver/storages/mongo</text>
<text text-anchor="middle" x="250" y="-139" font-family="Helvetica,sans-Serif" font-size="10.00">/pool.hpp</text>
</a>
</g>
</g>
<!-- Node5&#45;&gt;Node8 -->
<g id="edge11_Node000005_Node000008" class="edge">
<title>Node5&#45;&gt;Node8</title>
<g id="a_edge11_Node000005_Node000008"><a xlink:title=" ">
<path fill="none" stroke="#63b8ff" d="M316.04,-192.03C301.51,-182.34 284.41,-170.94 271.25,-162.16"/>
<polygon fill="#63b8ff" stroke="#63b8ff" points="314.43,-195.16 324.69,-197.8 318.32,-189.34 314.43,-195.16"/>
</a>
</g>
</g>
<!-- Node7&#45;&gt;Node6 -->
<g id="edge10_Node000007_Node000006" class="edge">
<title>Node7&#45;&gt;Node6</title>
<g id="a_edge10_Node000007_Node000006"><a xlink:title=" ">
<path fill="none" stroke="#63b8ff" d="M487.36,-128.19C513.25,-118.02 545.23,-105.47 569.31,-96.01"/>
<polygon fill="#63b8ff" stroke="#63b8ff" points="485.8,-125.04 477.77,-131.95 488.36,-131.56 485.8,-125.04"/>
</a>
</g>
</g>
<!-- Node8&#45;&gt;Node3 -->
<g id="edge12_Node000008_Node000003" class="edge">
<title>Node8&#45;&gt;Node3</title>
<g id="a_edge12_Node000008_Node000003"><a xlink:title=" ">
<path fill="none" stroke="#63b8ff" d="M202.75,-128.42C169.61,-116.09 126.77,-100.15 100.89,-90.52"/>
<polygon fill="#63b8ff" stroke="#63b8ff" points="201.66,-131.75 212.25,-131.95 204.1,-125.19 201.66,-131.75"/>
</a>
</g>
</g>
<!-- Node9 -->
<g id="Node000009" class="node">
<title>Node9</title>
<g id="a_Node000009"><a xlink:href="../../d1/dd7/mongo_2include_2userver_2storages_2mongo_2component_8hpp.html" target="_top" xlink:title="MongoDB client component.">
<polygon fill="white" stroke="#666666" points="298.5,-30 163.5,-30 163.5,0 298.5,0 298.5,-30"/>
<text text-anchor="start" x="171.5" y="-18" font-family="Helvetica,sans-Serif" font-size="10.00">userver/storages/mongo</text>
<text text-anchor="middle" x="231" y="-7" font-family="Helvetica,sans-Serif" font-size="10.00">/component.hpp</text>
</a>
</g>
</g>
<!-- Node8&#45;&gt;Node9 -->
<g id="edge13_Node000008_Node000009" class="edge">
<title>Node8&#45;&gt;Node9</title>
<g id="a_edge13_Node000008_Node000009"><a xlink:title=" ">
<path fill="none" stroke="#63b8ff" d="M223.3,-124.78C215.2,-116.73 207.3,-106.85 203,-96 193.95,-73.15 208.62,-46.07 219.92,-30"/>
<polygon fill="#63b8ff" stroke="#63b8ff" points="221,-127.41 230.71,-131.63 225.75,-122.27 221,-127.41"/>
</a>
</g>
</g>
<!-- Node10 -->
<g id="Node000010" class="node">
<title>Node10</title>
<g id="a_Node000010"><a xlink:href="../../d2/de5/multi__mongo_8hpp_source.html" target="_top" xlink:title=" ">
<polygon fill="white" stroke="#666666" points="347.5,-96 212.5,-96 212.5,-66 347.5,-66 347.5,-96"/>
<text text-anchor="start" x="220.5" y="-84" font-family="Helvetica,sans-Serif" font-size="10.00">userver/storages/mongo</text>
<text text-anchor="middle" x="280" y="-73" font-family="Helvetica,sans-Serif" font-size="10.00">/multi_mongo.hpp</text>
</a>
</g>
</g>
<!-- Node8&#45;&gt;Node10 -->
<g id="edge14_Node000008_Node000010" class="edge">
<title>Node8&#45;&gt;Node10</title>
<g id="a_edge14_Node000008_Node000010"><a xlink:title=" ">
<path fill="none" stroke="#63b8ff" d="M260.93,-122.68C265.1,-113.79 269.71,-103.95 273.36,-96.16"/>
<polygon fill="#63b8ff" stroke="#63b8ff" points="257.73,-121.26 256.66,-131.8 264.07,-124.23 257.73,-121.26"/>
</a>
</g>
</g>
<!-- Node11 -->
<g id="Node000011" class="node">
<title>Node11</title>
<g id="a_Node000011"><a xlink:href="../../d7/d49/mongo__local_8hpp.html" target="_top" xlink:title=" ">
<polygon fill="white" stroke="#666666" points="500.5,-96 365.5,-96 365.5,-66 500.5,-66 500.5,-96"/>
<text text-anchor="start" x="373.5" y="-84" font-family="Helvetica,sans-Serif" font-size="10.00">userver/storages/mongo</text>
<text text-anchor="middle" x="433" y="-73" font-family="Helvetica,sans-Serif" font-size="10.00">/utest/mongo_local.hpp</text>
</a>
</g>
</g>
<!-- Node8&#45;&gt;Node11 -->
<g id="edge16_Node000008_Node000011" class="edge">
<title>Node8&#45;&gt;Node11</title>
<g id="a_edge16_Node000008_Node000011"><a xlink:title=" ">
<path fill="none" stroke="#63b8ff" d="M299.78,-128.59C329.04,-118.36 365.54,-105.59 392.93,-96.01"/>
<polygon fill="#63b8ff" stroke="#63b8ff" points="298.44,-125.35 290.16,-131.95 300.75,-131.96 298.44,-125.35"/>
</a>
</g>
</g>
<!-- Node10&#45;&gt;Node9 -->
<g id="edge15_Node000010_Node000009" class="edge">
<title>Node10&#45;&gt;Node9</title>
<g id="a_edge15_Node000010_Node000009"><a xlink:title=" ">
<path fill="none" stroke="#63b8ff" d="M263.01,-57.81C255.99,-48.64 248.06,-38.28 241.84,-30.16"/>
<polygon fill="#63b8ff" stroke="#63b8ff" points="260.27,-59.98 269.13,-65.8 265.83,-55.73 260.27,-59.98"/>
</a>
</g>
</g>
<!-- Node12 -->
<g id="Node000012" class="node">
<title>Node12</title>
<g id="a_Node000012"><a xlink:href="../../d0/d79/mongo__fixture_8hpp.html" target="_top" xlink:title=" ">
<polygon fill="white" stroke="#666666" points="502.5,-30 363.5,-30 363.5,0 502.5,0 502.5,-30"/>
<text text-anchor="start" x="371.5" y="-18" font-family="Helvetica,sans-Serif" font-size="10.00">userver/storages/mongo</text>
<text text-anchor="middle" x="433" y="-7" font-family="Helvetica,sans-Serif" font-size="10.00">/utest/mongo_fixture.hpp</text>
</a>
</g>
</g>
<!-- Node11&#45;&gt;Node12 -->
<g id="edge17_Node000011_Node000012" class="edge">
<title>Node11&#45;&gt;Node12</title>
<g id="a_edge17_Node000011_Node000012"><a xlink:title=" ">
<path fill="none" stroke="#63b8ff" d="M433,-55.54C433,-46.96 433,-37.61 433,-30.16"/>
<polygon fill="#63b8ff" stroke="#63b8ff" points="429.5,-55.8 433,-65.8 436.5,-55.8 429.5,-55.8"/>
</a>
</g>
</g>
<!-- Node13&#45;&gt;Node4 -->
<g id="edge19_Node000013_Node000004" class="edge">
<title>Node13&#45;&gt;Node4</title>
<g id="a_edge19_Node000013_Node000004"><a xlink:title=" ">
<path fill="none" stroke="#63b8ff" d="M321.3,-323.2C310.02,-313.7 296.95,-302.69 286.82,-294.16"/>
<polygon fill="#63b8ff" stroke="#63b8ff" points="319.23,-326.03 329.13,-329.8 323.74,-320.68 319.23,-326.03"/>
</a>
</g>
</g>
<!-- Node14&#45;&gt;Node2 -->
<g id="edge21_Node000014_Node000002" class="edge">
<title>Node14&#45;&gt;Node2</title>
<g id="a_edge21_Node000014_Node000002"><a xlink:title=" ">
<path fill="none" stroke="#63b8ff" d="M464.96,-256.84C493.9,-230.15 542.88,-184.99 567.66,-162.14"/>
<polygon fill="#63b8ff" stroke="#63b8ff" points="462.34,-254.49 457.36,-263.84 467.08,-259.63 462.34,-254.49"/>
</a>
</g>
</g>
<!-- Node14&#45;&gt;Node5 -->
<g id="edge22_Node000014_Node000005" class="edge">
<title>Node14&#45;&gt;Node5</title>
<g id="a_edge22_Node000014_Node000005"><a xlink:title=" ">
<path fill="none" stroke="#63b8ff" d="M412.04,-258.03C397.51,-248.34 380.41,-236.94 367.25,-228.16"/>
<polygon fill="#63b8ff" stroke="#63b8ff" points="410.43,-261.16 420.69,-263.8 414.32,-255.34 410.43,-261.16"/>
</a>
</g>
</g>
</g>
</svg>
