<?xml version="1.0" encoding="UTF-8" standalone="no"?>
<!DOCTYPE svg PUBLIC "-//W3C//DTD SVG 1.1//EN"
 "http://www.w3.org/Graphics/SVG/1.1/DTD/svg11.dtd">
<!-- Generated by graphviz version 2.43.0 (0)
 -->
<!-- Title: userver/storages/mongo/options.hpp Pages: 1 -->
<svg width="643pt" height="434pt"
 viewBox="0.00 0.00 642.50 434.00" xmlns="http://www.w3.org/2000/svg" xmlns:xlink="http://www.w3.org/1999/xlink">
<g id="graph0" class="graph" transform="scale(1 1) rotate(0) translate(4 430)">
<title>userver/storages/mongo/options.hpp</title>
<!-- Node1 -->
<g id="Node000001" class="node">
<title>Node1</title>
<g id="a_Node000001"><a xlink:title="Query options.">
<polygon fill="#999999" stroke="#666666" points="409.5,-426 274.5,-426 274.5,-396 409.5,-396 409.5,-426"/>
<text text-anchor="start" x="282.5" y="-414" font-family="Helvetica,sans-Serif" font-size="10.00">userver/storages/mongo</text>
<text text-anchor="middle" x="342" y="-403" font-family="Helvetica,sans-Serif" font-size="10.00">/options.hpp</text>
</a>
</g>
</g>
<!-- Node2 -->
<g id="Node000002" class="node">
<title>Node2</title>
<g id="a_Node000002"><a xlink:href="../../dd/d6c/base__mongo__cache_8hpp.html" target="_top" xlink:title="Base class for all caches polling mongo collection">
<polygon fill="white" stroke="#666666" points="634.5,-162 523.5,-162 523.5,-132 634.5,-132 634.5,-162"/>
<text text-anchor="start" x="531.5" y="-150" font-family="Helvetica,sans-Serif" font-size="10.00">userver/cache/base</text>
<text text-anchor="middle" x="579" y="-139" font-family="Helvetica,sans-Serif" font-size="10.00">_mongo_cache.hpp</text>
</a>
</g>
</g>
<!-- Node1&#45;&gt;Node2 -->
<g id="edge1_Node000001_Node000002" class="edge">
<title>Node1&#45;&gt;Node2</title>
<g id="a_edge1_Node000001_Node000002"><a xlink:title=" ">
<path fill="none" stroke="#63b8ff" d="M384.92,-391.69C424.3,-372.77 481.47,-339.57 515,-294 546.66,-250.98 566.96,-189.84 575.03,-162.36"/>
<polygon fill="#63b8ff" stroke="#63b8ff" points="383.38,-388.55 375.81,-395.97 386.35,-394.89 383.38,-388.55"/>
</a>
</g>
</g>
<!-- Node3 -->
<g id="Node000003" class="node">
<title>Node3</title>
<g id="a_Node000003"><a xlink:href="../../d2/d86/mongo_8hpp.html" target="_top" xlink:title="Include&#45;all header for MongoDB client.">
<polygon fill="white" stroke="#666666" points="156,-90.5 0,-90.5 0,-71.5 156,-71.5 156,-90.5"/>
<text text-anchor="middle" x="78" y="-78.5" font-family="Helvetica,sans-Serif" font-size="10.00">userver/storages/mongo.hpp</text>
</a>
</g>
</g>
<!-- Node1&#45;&gt;Node3 -->
<g id="edge2_Node000001_Node000003" class="edge">
<title>Node1&#45;&gt;Node3</title>
<g id="a_edge2_Node000001_Node000003"><a xlink:title=" ">
<path fill="none" stroke="#63b8ff" d="M264.4,-404.73C185.26,-394.65 74,-365.3 74,-280 74,-280 74,-280 74,-212 74,-166.16 76.52,-111.28 77.56,-90.51"/>
<polygon fill="#63b8ff" stroke="#63b8ff" points="264.03,-408.21 274.37,-405.92 264.86,-401.26 264.03,-408.21"/>
</a>
</g>
</g>
<!-- Node4 -->
<g id="Node000004" class="node">
<title>Node4</title>
<g id="a_Node000004"><a xlink:href="../../d5/d0f/bulk_8hpp.html" target="_top" xlink:title="Bulk collection operation model.">
<polygon fill="white" stroke="#666666" points="333.5,-294 198.5,-294 198.5,-264 333.5,-264 333.5,-294"/>
<text text-anchor="start" x="206.5" y="-282" font-family="Helvetica,sans-Serif" font-size="10.00">userver/storages/mongo</text>
<text text-anchor="middle" x="266" y="-271" font-family="Helvetica,sans-Serif" font-size="10.00">/bulk.hpp</text>
</a>
</g>
</g>
<!-- Node1&#45;&gt;Node4 -->
<g id="edge3_Node000001_Node000004" class="edge">
<title>Node1&#45;&gt;Node4</title>
<g id="a_edge3_Node000001_Node000004"><a xlink:title=" ">
<path fill="none" stroke="#63b8ff" d="M296.88,-390.95C284.28,-383.28 272.11,-373.09 265,-360 253.8,-339.37 257.82,-311.11 261.85,-294.29"/>
<polygon fill="#63b8ff" stroke="#63b8ff" points="295.18,-394.01 305.62,-395.86 298.61,-387.91 295.18,-394.01"/>
</a>
</g>
</g>
<!-- Node11 -->
<g id="Node000011" class="node">
<title>Node11</title>
<g id="a_Node000011"><a xlink:href="../../d3/df1/bulk__ops_8hpp.html" target="_top" xlink:title="Bulk sub&#45;operation models.">
<polygon fill="white" stroke="#666666" points="409.5,-360 274.5,-360 274.5,-330 409.5,-330 409.5,-360"/>
<text text-anchor="start" x="282.5" y="-348" font-family="Helvetica,sans-Serif" font-size="10.00">userver/storages/mongo</text>
<text text-anchor="middle" x="342" y="-337" font-family="Helvetica,sans-Serif" font-size="10.00">/bulk_ops.hpp</text>
</a>
</g>
</g>
<!-- Node1&#45;&gt;Node11 -->
<g id="edge16_Node000001_Node000011" class="edge">
<title>Node1&#45;&gt;Node11</title>
<g id="a_edge16_Node000001_Node000011"><a xlink:title=" ">
<path fill="none" stroke="#63b8ff" d="M342,-385.54C342,-376.96 342,-367.61 342,-360.16"/>
<polygon fill="#63b8ff" stroke="#63b8ff" points="338.5,-385.8 342,-395.8 345.5,-385.8 338.5,-385.8"/>
</a>
</g>
</g>
<!-- Node12 -->
<g id="Node000012" class="node">
<title>Node12</title>
<g id="a_Node000012"><a xlink:href="../../de/d6b/mongo_2include_2userver_2storages_2mongo_2operations_8hpp.html" target="_top" xlink:title="Collection operation models.">
<polygon fill="white" stroke="#666666" points="505.5,-294 370.5,-294 370.5,-264 505.5,-264 505.5,-294"/>
<text text-anchor="start" x="378.5" y="-282" font-family="Helvetica,sans-Serif" font-size="10.00">userver/storages/mongo</text>
<text text-anchor="middle" x="438" y="-271" font-family="Helvetica,sans-Serif" font-size="10.00">/operations.hpp</text>
</a>
</g>
</g>
<!-- Node1&#45;&gt;Node12 -->
<g id="edge18_Node000001_Node000012" class="edge">
<title>Node1&#45;&gt;Node12</title>
<g id="a_edge18_Node000001_Node000012"><a xlink:title=" ">
<path fill="none" stroke="#63b8ff" d="M382.76,-390.87C395.72,-382.98 409.02,-372.66 418,-360 432.08,-340.15 436.28,-311.38 437.51,-294.3"/>
<polygon fill="#63b8ff" stroke="#63b8ff" points="380.83,-387.95 373.89,-395.96 384.31,-394.02 380.83,-387.95"/>
</a>
</g>
</g>
<!-- Node4&#45;&gt;Node3 -->
<g id="edge4_Node000004_Node000003" class="edge">
<title>Node4&#45;&gt;Node3</title>
<g id="a_edge4_Node000004_Node000003"><a xlink:title=" ">
<path fill="none" stroke="#63b8ff" d="M236.21,-257.9C206.01,-236.54 159.13,-200.57 126,-162 105.95,-138.65 89.22,-105.9 81.93,-90.56"/>
<polygon fill="#63b8ff" stroke="#63b8ff" points="234.43,-260.93 244.63,-263.79 238.44,-255.19 234.43,-260.93"/>
</a>
</g>
</g>
<!-- Node5 -->
<g id="Node000005" class="node">
<title>Node5</title>
<g id="a_Node000005"><a xlink:href="../../d4/db6/collection_8hpp.html" target="_top" xlink:title="MongoDB collection handle, the main way to operate with MongoDB.">
<polygon fill="white" stroke="#666666" points="409.5,-228 274.5,-228 274.5,-198 409.5,-198 409.5,-228"/>
<text text-anchor="start" x="282.5" y="-216" font-family="Helvetica,sans-Serif" font-size="10.00">userver/storages/mongo</text>
<text text-anchor="middle" x="342" y="-205" font-family="Helvetica,sans-Serif" font-size="10.00">/collection.hpp</text>
</a>
</g>
</g>
<!-- Node4&#45;&gt;Node5 -->
<g id="edge5_Node000004_Node000005" class="edge">
<title>Node4&#45;&gt;Node5</title>
<g id="a_edge5_Node000004_Node000005"><a xlink:title=" ">
<path fill="none" stroke="#63b8ff" d="M290.7,-257.2C301.98,-247.7 315.05,-236.69 325.18,-228.16"/>
<polygon fill="#63b8ff" stroke="#63b8ff" points="288.26,-254.68 282.87,-263.8 292.77,-260.03 288.26,-254.68"/>
</a>
</g>
</g>
<!-- Node5&#45;&gt;Node2 -->
<g id="edge6_Node000005_Node000002" class="edge">
<title>Node5&#45;&gt;Node2</title>
<g id="a_edge6_Node000005_Node000002"><a xlink:title=" ">
<path fill="none" stroke="#63b8ff" d="M404.01,-195.25C442.3,-184.91 490.86,-171.8 527.11,-162.01"/>
<polygon fill="#63b8ff" stroke="#63b8ff" points="402.75,-191.97 394.01,-197.95 404.58,-198.73 402.75,-191.97"/>
</a>
</g>
</g>
<!-- Node5&#45;&gt;Node3 -->
<g id="edge7_Node000005_Node000003" class="edge">
<title>Node5&#45;&gt;Node3</title>
<g id="a_edge7_Node000005_Node000003"><a xlink:title=" ">
<path fill="none" stroke="#63b8ff" d="M264.55,-197.32C233.62,-189.53 198.44,-178.13 169,-162 133.58,-142.59 100.1,-107.3 85.58,-90.86"/>
<polygon fill="#63b8ff" stroke="#63b8ff" points="263.88,-200.76 274.42,-199.73 265.54,-193.96 263.88,-200.76"/>
</a>
</g>
</g>
<!-- Node6 -->
<g id="Node000006" class="node">
<title>Node6</title>
<g id="a_Node000006"><a xlink:href="../../d5/d93/mongo_2include_2userver_2storages_2mongo_2dist__lock__component__base_8hpp.html" target="_top" xlink:title="Base class for mongo&#45;based distlock worker components.">
<polygon fill="white" stroke="#666666" points="539.5,-96 366.5,-96 366.5,-66 539.5,-66 539.5,-96"/>
<text text-anchor="start" x="374.5" y="-84" font-family="Helvetica,sans-Serif" font-size="10.00">userver/storages/mongo</text>
<text text-anchor="middle" x="453" y="-73" font-family="Helvetica,sans-Serif" font-size="10.00">/dist_lock_component_base.hpp</text>
</a>
</g>
</g>
<!-- Node5&#45;&gt;Node6 -->
<g id="edge8_Node000005_Node000006" class="edge">
<title>Node5&#45;&gt;Node6</title>
<g id="a_edge8_Node000005_Node000006"><a xlink:title=" ">
<path fill="none" stroke="#63b8ff" d="M342.68,-187.49C344.29,-170.4 348.83,-147.9 361,-132 373.48,-115.69 392.87,-104.03 410.64,-96.1"/>
<polygon fill="#63b8ff" stroke="#63b8ff" points="339.16,-187.6 341.99,-197.81 346.15,-188.07 339.16,-187.6"/>
</a>
</g>
</g>
<!-- Node7 -->
<g id="Node000007" class="node">
<title>Node7</title>
<g id="a_Node000007"><a xlink:href="../../d6/d83/mongo_2include_2userver_2storages_2mongo_2dist__lock__strategy_8hpp_source.html" target="_top" xlink:title=" ">
<polygon fill="white" stroke="#666666" points="505.5,-162 370.5,-162 370.5,-132 505.5,-132 505.5,-162"/>
<text text-anchor="start" x="378.5" y="-150" font-family="Helvetica,sans-Serif" font-size="10.00">userver/storages/mongo</text>
<text text-anchor="middle" x="438" y="-139" font-family="Helvetica,sans-Serif" font-size="10.00">/dist_lock_strategy.hpp</text>
</a>
</g>
</g>
<!-- Node5&#45;&gt;Node7 -->
<g id="edge9_Node000005_Node000007" class="edge">
<title>Node5&#45;&gt;Node7</title>
<g id="a_edge9_Node000005_Node000007"><a xlink:title=" ">
<path fill="none" stroke="#63b8ff" d="M371.96,-192.03C386.49,-182.34 403.59,-170.94 416.75,-162.16"/>
<polygon fill="#63b8ff" stroke="#63b8ff" points="369.68,-189.34 363.31,-197.8 373.57,-195.16 369.68,-189.34"/>
</a>
</g>
</g>
<!-- Node8 -->
<g id="Node000008" class="node">
<title>Node8</title>
<g id="a_Node000008"><a xlink:href="../../d8/d62/mongo_2include_2userver_2storages_2mongo_2pool_8hpp.html" target="_top" xlink:title="MongoDB client pool.">
<polygon fill="white" stroke="#666666" points="313.5,-162 178.5,-162 178.5,-132 313.5,-132 313.5,-162"/>
<text text-anchor="start" x="186.5" y="-150" font-family="Helvetica,sans-Serif" font-size="10.00">userver/storages/mongo</text>
<text text-anchor="middle" x="246" y="-139" font-family="Helvetica,sans-Serif" font-size="10.00">/pool.hpp</text>
</a>
</g>
</g>
<!-- Node5&#45;&gt;Node8 -->
<g id="edge11_Node000005_Node000008" class="edge">
<title>Node5&#45;&gt;Node8</title>
<g id="a_edge11_Node000005_Node000008"><a xlink:title=" ">
<path fill="none" stroke="#63b8ff" d="M312.04,-192.03C297.51,-182.34 280.41,-170.94 267.25,-162.16"/>
<polygon fill="#63b8ff" stroke="#63b8ff" points="310.43,-195.16 320.69,-197.8 314.32,-189.34 310.43,-195.16"/>
</a>
</g>
</g>
<!-- Node7&#45;&gt;Node6 -->
<g id="edge10_Node000007_Node000006" class="edge">
<title>Node7&#45;&gt;Node6</title>
<g id="a_edge10_Node000007_Node000006"><a xlink:title=" ">
<path fill="none" stroke="#63b8ff" d="M443.67,-121.83C445.69,-113.17 447.91,-103.7 449.68,-96.16"/>
<polygon fill="#63b8ff" stroke="#63b8ff" points="440.2,-121.26 441.33,-131.8 447.02,-122.86 440.2,-121.26"/>
</a>
</g>
</g>
<!-- Node8&#45;&gt;Node3 -->
<g id="edge12_Node000008_Node000003" class="edge">
<title>Node8&#45;&gt;Node3</title>
<g id="a_edge12_Node000008_Node000003"><a xlink:title=" ">
<path fill="none" stroke="#63b8ff" d="M199.43,-128.26C167.12,-115.95 125.53,-100.11 100.36,-90.52"/>
<polygon fill="#63b8ff" stroke="#63b8ff" points="198.54,-131.67 209.13,-131.95 201.03,-125.12 198.54,-131.67"/>
</a>
</g>
</g>
<!-- Node9 -->
<g id="Node000009" class="node">
<title>Node9</title>
<g id="a_Node000009"><a xlink:href="../../d1/dd7/mongo_2include_2userver_2storages_2mongo_2component_8hpp.html" target="_top" xlink:title="MongoDB client component.">
<polygon fill="white" stroke="#666666" points="357.5,-30 222.5,-30 222.5,0 357.5,0 357.5,-30"/>
<text text-anchor="start" x="230.5" y="-18" font-family="Helvetica,sans-Serif" font-size="10.00">userver/storages/mongo</text>
<text text-anchor="middle" x="290" y="-7" font-family="Helvetica,sans-Serif" font-size="10.00">/component.hpp</text>
</a>
</g>
</g>
<!-- Node8&#45;&gt;Node9 -->
<g id="edge13_Node000008_Node000009" class="edge">
<title>Node8&#45;&gt;Node9</title>
<g id="a_edge13_Node000008_Node000009"><a xlink:title=" ">
<path fill="none" stroke="#63b8ff" d="M287.68,-126.74C299.67,-118.99 311.3,-108.8 318,-96 329.46,-74.09 313.82,-46.49 301.71,-30.09"/>
<polygon fill="#63b8ff" stroke="#63b8ff" points="285.74,-123.82 278.95,-131.95 289.33,-129.82 285.74,-123.82"/>
</a>
</g>
</g>
<!-- Node10 -->
<g id="Node000010" class="node">
<title>Node10</title>
<g id="a_Node000010"><a xlink:href="../../d2/de5/multi__mongo_8hpp_source.html" target="_top" xlink:title=" ">
<polygon fill="white" stroke="#666666" points="309.5,-96 174.5,-96 174.5,-66 309.5,-66 309.5,-96"/>
<text text-anchor="start" x="182.5" y="-84" font-family="Helvetica,sans-Serif" font-size="10.00">userver/storages/mongo</text>
<text text-anchor="middle" x="242" y="-73" font-family="Helvetica,sans-Serif" font-size="10.00">/multi_mongo.hpp</text>
</a>
</g>
</g>
<!-- Node8&#45;&gt;Node10 -->
<g id="edge14_Node000008_Node000010" class="edge">
<title>Node8&#45;&gt;Node10</title>
<g id="a_edge14_Node000008_Node000010"><a xlink:title=" ">
<path fill="none" stroke="#63b8ff" d="M244.47,-121.54C243.94,-112.96 243.35,-103.61 242.89,-96.16"/>
<polygon fill="#63b8ff" stroke="#63b8ff" points="241,-122.03 245.11,-131.8 247.98,-121.6 241,-122.03"/>
</a>
</g>
</g>
<!-- Node10&#45;&gt;Node9 -->
<g id="edge15_Node000010_Node000009" class="edge">
<title>Node10&#45;&gt;Node9</title>
<g id="a_edge15_Node000010_Node000009"><a xlink:title=" ">
<path fill="none" stroke="#63b8ff" d="M258.86,-57.53C265.68,-48.43 273.35,-38.19 279.38,-30.16"/>
<polygon fill="#63b8ff" stroke="#63b8ff" points="255.85,-55.7 252.65,-65.8 261.45,-59.9 255.85,-55.7"/>
</a>
</g>
</g>
<!-- Node11&#45;&gt;Node4 -->
<g id="edge17_Node000011_Node000004" class="edge">
<title>Node11&#45;&gt;Node4</title>
<g id="a_edge17_Node000011_Node000004"><a xlink:title=" ">
<path fill="none" stroke="#63b8ff" d="M317.3,-323.2C306.02,-313.7 292.95,-302.69 282.82,-294.16"/>
<polygon fill="#63b8ff" stroke="#63b8ff" points="315.23,-326.03 325.13,-329.8 319.74,-320.68 315.23,-326.03"/>
</a>
</g>
</g>
<!-- Node12&#45;&gt;Node2 -->
<g id="edge19_Node000012_Node000002" class="edge">
<title>Node12&#45;&gt;Node2</title>
<g id="a_edge19_Node000012_Node000002"><a xlink:title=" ">
<path fill="none" stroke="#63b8ff" d="M460.96,-256.84C489.9,-230.15 538.88,-184.99 563.66,-162.14"/>
<polygon fill="#63b8ff" stroke="#63b8ff" points="458.34,-254.49 453.36,-263.84 463.08,-259.63 458.34,-254.49"/>
</a>
</g>
</g>
<!-- Node12&#45;&gt;Node5 -->
<g id="edge20_Node000012_Node000005" class="edge">
<title>Node12&#45;&gt;Node5</title>
<g id="a_edge20_Node000012_Node000005"><a xlink:title=" ">
<path fill="none" stroke="#63b8ff" d="M408.04,-258.03C393.51,-248.34 376.41,-236.94 363.25,-228.16"/>
<polygon fill="#63b8ff" stroke="#63b8ff" points="406.43,-261.16 416.69,-263.8 410.32,-255.34 406.43,-261.16"/>
</a>
</g>
</g>
</g>
</svg>
