<?xml version="1.0" encoding="UTF-8" standalone="no"?>
<!DOCTYPE svg PUBLIC "-//W3C//DTD SVG 1.1//EN"
 "http://www.w3.org/Graphics/SVG/1.1/DTD/svg11.dtd">
<!-- Generated by graphviz version 2.43.0 (0)
 -->
<!-- Title: storages::postgres::ServerConnectionError Pages: 1 -->
<svg width="186pt" height="412pt"
 viewBox="0.00 0.00 186.00 412.00" xmlns="http://www.w3.org/2000/svg" xmlns:xlink="http://www.w3.org/1999/xlink">
<g id="graph0" class="graph" transform="scale(1 1) rotate(0) translate(4 408)">
<title>storages::postgres::ServerConnectionError</title>
<!-- Node1 -->
<g id="Node000001" class="node">
<title>Node1</title>
<g id="a_Node000001"><a xlink:title="Connection error reported by PostgreSQL server. Doc: https://www.postgresql.org/docs/12/static/errcod...">
<polygon fill="#999999" stroke="#666666" points="155,-30 23,-30 23,0 155,0 155,-30"/>
<text text-anchor="start" x="31" y="-18" font-family="Helvetica,sans-Serif" font-size="10.00">storages::postgres</text>
<text text-anchor="middle" x="89" y="-7" font-family="Helvetica,sans-Serif" font-size="10.00">::ServerConnectionError</text>
</a>
</g>
</g>
<!-- Node2 -->
<g id="Node000002" class="node">
<title>Node2</title>
<g id="a_Node000002"><a xlink:href="../../da/d34/classstorages_1_1postgres_1_1ServerError.html" target="_top" xlink:title=" ">
<polygon fill="white" stroke="#666666" points="178,-96 0,-96 0,-66 178,-66 178,-96"/>
<text text-anchor="start" x="8" y="-84" font-family="Helvetica,sans-Serif" font-size="10.00">storages::postgres</text>
<text text-anchor="middle" x="89" y="-73" font-family="Helvetica,sans-Serif" font-size="10.00">::ServerError&lt; ConnectionError &gt;</text>
</a>
</g>
</g>
<!-- Node2&#45;&gt;Node1 -->
<g id="edge1_Node000001_Node000002" class="edge">
<title>Node2&#45;&gt;Node1</title>
<g id="a_edge1_Node000001_Node000002"><a xlink:title=" ">
<path fill="none" stroke="#63b8ff" d="M89,-55.54C89,-46.96 89,-37.61 89,-30.16"/>
<polygon fill="#63b8ff" stroke="#63b8ff" points="85.5,-55.8 89,-65.8 92.5,-55.8 85.5,-55.8"/>
</a>
</g>
</g>
<!-- Node3 -->
<g id="Node000003" class="node">
<title>Node3</title>
<g id="a_Node000003"><a xlink:href="../../d1/dea/classstorages_1_1postgres_1_1ConnectionError.html" target="_top" xlink:title=" ">
<polygon fill="white" stroke="#bfbfbf" points="142.5,-162 35.5,-162 35.5,-132 142.5,-132 142.5,-162"/>
<text text-anchor="start" x="43.5" y="-150" font-family="Helvetica,sans-Serif" font-size="10.00">storages::postgres</text>
<text text-anchor="middle" x="89" y="-139" font-family="Helvetica,sans-Serif" font-size="10.00">::ConnectionError</text>
</a>
</g>
</g>
<!-- Node3&#45;&gt;Node2 -->
<g id="edge2_Node000002_Node000003" class="edge">
<title>Node3&#45;&gt;Node2</title>
<g id="a_edge2_Node000002_Node000003"><a xlink:title=" ">
<path fill="none" stroke="#63b8ff" d="M89,-121.54C89,-112.96 89,-103.61 89,-96.16"/>
<polygon fill="#63b8ff" stroke="#63b8ff" points="85.5,-121.8 89,-131.8 92.5,-121.8 85.5,-121.8"/>
</a>
</g>
</g>
<!-- Node4 -->
<g id="Node000004" class="node">
<title>Node4</title>
<g id="a_Node000004"><a xlink:href="../../d6/d97/classstorages_1_1postgres_1_1RuntimeError.html" target="_top" xlink:title="Base Postgres runtime error. Reports errors that are consequences of erroneous data,...">
<polygon fill="white" stroke="#666666" points="142.5,-228 35.5,-228 35.5,-198 142.5,-198 142.5,-228"/>
<text text-anchor="start" x="43.5" y="-216" font-family="Helvetica,sans-Serif" font-size="10.00">storages::postgres</text>
<text text-anchor="middle" x="89" y="-205" font-family="Helvetica,sans-Serif" font-size="10.00">::RuntimeError</text>
</a>
</g>
</g>
<!-- Node4&#45;&gt;Node3 -->
<g id="edge3_Node000003_Node000004" class="edge">
<title>Node4&#45;&gt;Node3</title>
<g id="a_edge3_Node000003_Node000004"><a xlink:title=" ">
<path fill="none" stroke="#63b8ff" d="M89,-187.54C89,-178.96 89,-169.61 89,-162.16"/>
<polygon fill="#63b8ff" stroke="#63b8ff" points="85.5,-187.8 89,-197.8 92.5,-187.8 85.5,-187.8"/>
</a>
</g>
</g>
<!-- Node5 -->
<g id="Node000005" class="node">
<title>Node5</title>
<g id="a_Node000005"><a xlink:href="../../df/d3d/classstorages_1_1postgres_1_1Error.html" target="_top" xlink:title="Base class for all exceptions that may be thrown by the driver.">
<polygon fill="white" stroke="#666666" points="142.5,-294 35.5,-294 35.5,-264 142.5,-264 142.5,-294"/>
<text text-anchor="start" x="43.5" y="-282" font-family="Helvetica,sans-Serif" font-size="10.00">storages::postgres</text>
<text text-anchor="middle" x="89" y="-271" font-family="Helvetica,sans-Serif" font-size="10.00">::Error</text>
</a>
</g>
</g>
<!-- Node5&#45;&gt;Node4 -->
<g id="edge4_Node000004_Node000005" class="edge">
<title>Node5&#45;&gt;Node4</title>
<g id="a_edge4_Node000004_Node000005"><a xlink:title=" ">
<path fill="none" stroke="#63b8ff" d="M89,-253.54C89,-244.96 89,-235.61 89,-228.16"/>
<polygon fill="#63b8ff" stroke="#63b8ff" points="85.5,-253.8 89,-263.8 92.5,-253.8 85.5,-253.8"/>
</a>
</g>
</g>
<!-- Node6 -->
<g id="Node000006" class="node">
<title>Node6</title>
<g id="a_Node000006"><a xlink:title=" ">
<polygon fill="white" stroke="#666666" points="141,-349 37,-349 37,-330 141,-330 141,-349"/>
<text text-anchor="middle" x="89" y="-337" font-family="Helvetica,sans-Serif" font-size="10.00">std::runtime_error</text>
</a>
</g>
</g>
<!-- Node6&#45;&gt;Node5 -->
<g id="edge5_Node000005_Node000006" class="edge">
<title>Node6&#45;&gt;Node5</title>
<g id="a_edge5_Node000005_Node000006"><a xlink:title=" ">
<path fill="none" stroke="#63b8ff" d="M89,-319.65C89,-311.36 89,-301.78 89,-294.11"/>
<polygon fill="#63b8ff" stroke="#63b8ff" points="85.5,-319.87 89,-329.87 92.5,-319.87 85.5,-319.87"/>
</a>
</g>
</g>
<!-- Node7 -->
<g id="Node000007" class="node">
<title>Node7</title>
<g id="a_Node000007"><a xlink:title=" ">
<polygon fill="white" stroke="#666666" points="132,-404 46,-404 46,-385 132,-385 132,-404"/>
<text text-anchor="middle" x="89" y="-392" font-family="Helvetica,sans-Serif" font-size="10.00">std::exception</text>
</a>
</g>
</g>
<!-- Node7&#45;&gt;Node6 -->
<g id="edge6_Node000006_Node000007" class="edge">
<title>Node7&#45;&gt;Node6</title>
<g id="a_edge6_Node000006_Node000007"><a xlink:title=" ">
<path fill="none" stroke="#63b8ff" d="M89,-374.66C89,-365.93 89,-355.99 89,-349.09"/>
<polygon fill="#63b8ff" stroke="#63b8ff" points="85.5,-374.75 89,-384.75 92.5,-374.75 85.5,-374.75"/>
</a>
</g>
</g>
</g>
</svg>
