<?xml version="1.0" encoding="UTF-8" standalone="no"?>
<!DOCTYPE svg PUBLIC "-//W3C//DTD SVG 1.1//EN"
 "http://www.w3.org/Graphics/SVG/1.1/DTD/svg11.dtd">
<!-- Generated by graphviz version 2.43.0 (0)
 -->
<!-- Title: storages::postgres::io::BufferFormatter&lt; boost::optional&lt; T &gt;, std::enable_if_t&lt; traits::kHasFormatter&lt; T &gt; &gt; &gt; Pages: 1 -->
<svg width="180pt" height="225pt"
 viewBox="0.00 0.00 180.00 225.00" xmlns="http://www.w3.org/2000/svg" xmlns:xlink="http://www.w3.org/1999/xlink">
<g id="graph0" class="graph" transform="scale(1 1) rotate(0) translate(4 221)">
<title>storages::postgres::io::BufferFormatter&lt; boost::optional&lt; T &gt;, std::enable_if_t&lt; traits::kHasFormatter&lt; T &gt; &gt; &gt;</title>
<!-- Node1 -->
<g id="Node000001" class="node">
<title>Node1</title>
<g id="a_Node000001"><a xlink:title="Formatter specialization for boost::optional.">
<polygon fill="#999999" stroke="#666666" points="159,-63 13,-63 13,0 159,0 159,-63"/>
<text text-anchor="start" x="21" y="-51" font-family="Helvetica,sans-Serif" font-size="10.00">storages::postgres</text>
<text text-anchor="start" x="21" y="-40" font-family="Helvetica,sans-Serif" font-size="10.00">::io::BufferFormatter</text>
<text text-anchor="start" x="21" y="-29" font-family="Helvetica,sans-Serif" font-size="10.00">&lt; boost::optional&lt; T &gt;</text>
<text text-anchor="start" x="21" y="-18" font-family="Helvetica,sans-Serif" font-size="10.00">, std::enable_if_t&lt; traits</text>
<text text-anchor="middle" x="86" y="-7" font-family="Helvetica,sans-Serif" font-size="10.00">::kHasFormatter&lt; T &gt; &gt; &gt;</text>
</a>
</g>
</g>
<!-- Node2 -->
<g id="Node000002" class="node">
<title>Node2</title>
<g id="a_Node000002"><a xlink:title=" ">
<polygon fill="white" stroke="#bfbfbf" points="172,-140 0,-140 0,-99 172,-99 172,-140"/>
<text text-anchor="start" x="8" y="-128" font-family="Helvetica,sans-Serif" font-size="10.00">storages::postgres</text>
<text text-anchor="start" x="8" y="-117" font-family="Helvetica,sans-Serif" font-size="10.00">::io::detail::OptionalValue</text>
<text text-anchor="middle" x="86" y="-106" font-family="Helvetica,sans-Serif" font-size="10.00">Formatter&lt; boost::optional, T &gt;</text>
</a>
</g>
</g>
<!-- Node2&#45;&gt;Node1 -->
<g id="edge1_Node000001_Node000002" class="edge">
<title>Node2&#45;&gt;Node1</title>
<g id="a_edge1_Node000001_Node000002"><a xlink:title=" ">
<path fill="none" stroke="#63b8ff" d="M86,-88.92C86,-80.57 86,-71.48 86,-63.07"/>
<polygon fill="#63b8ff" stroke="#63b8ff" points="82.5,-88.99 86,-98.99 89.5,-88.99 82.5,-88.99"/>
</a>
</g>
</g>
<!-- Node3 -->
<g id="Node000003" class="node">
<title>Node3</title>
<g id="a_Node000003"><a xlink:title=" ">
<polygon fill="white" stroke="#bfbfbf" points="160.5,-217 11.5,-217 11.5,-176 160.5,-176 160.5,-217"/>
<text text-anchor="start" x="19.5" y="-205" font-family="Helvetica,sans-Serif" font-size="10.00">storages::postgres</text>
<text text-anchor="start" x="19.5" y="-194" font-family="Helvetica,sans-Serif" font-size="10.00">::io::detail::BufferFormatter</text>
<text text-anchor="middle" x="86" y="-183" font-family="Helvetica,sans-Serif" font-size="10.00">Base&lt; T &gt;</text>
</a>
</g>
</g>
<!-- Node3&#45;&gt;Node2 -->
<g id="edge2_Node000002_Node000003" class="edge">
<title>Node3&#45;&gt;Node2</title>
<g id="a_edge2_Node000002_Node000003"><a xlink:title=" ">
<path fill="none" stroke="#63b8ff" d="M86,-165.69C86,-157.08 86,-147.9 86,-140.07"/>
<polygon fill="#63b8ff" stroke="#63b8ff" points="82.5,-165.79 86,-175.79 89.5,-165.79 82.5,-165.79"/>
</a>
</g>
</g>
</g>
</svg>
