<?xml version="1.0" encoding="UTF-8" standalone="no"?>
<!DOCTYPE svg PUBLIC "-//W3C//DTD SVG 1.1//EN"
 "http://www.w3.org/Graphics/SVG/1.1/DTD/svg11.dtd">
<!-- Generated by graphviz version 2.43.0 (0)
 -->
<!-- Title: components::Postgres Pages: 1 -->
<svg width="378pt" height="160pt"
 viewBox="0.00 0.00 377.50 160.00" xmlns="http://www.w3.org/2000/svg" xmlns:xlink="http://www.w3.org/1999/xlink">
<g id="graph0" class="graph" transform="scale(1 1) rotate(0) translate(4 156)">
<title>components::Postgres</title>
<!-- Node1 -->
<g id="Node000001" class="node">
<title>Node1</title>
<g id="a_Node000001"><a xlink:title="PosgreSQL client component.">
<polygon fill="#999999" stroke="#666666" points="254,-19 129,-19 129,0 254,0 254,-19"/>
<text text-anchor="middle" x="191.5" y="-7" font-family="Helvetica,sans-Serif" font-size="10.00">components::Postgres</text>
</a>
</g>
</g>
<!-- Node2 -->
<g id="Node000002" class="node">
<title>Node2</title>
<g id="a_Node000002"><a xlink:href="../../d5/d69/classcomponents_1_1LoggableComponentBase.html" target="_top" xlink:title="Base class for all application components, it depends on components::Logger and components::Tracer.">
<polygon fill="white" stroke="#666666" points="207,-90.5 0,-90.5 0,-71.5 207,-71.5 207,-90.5"/>
<text text-anchor="middle" x="103.5" y="-78.5" font-family="Helvetica,sans-Serif" font-size="10.00">components::LoggableComponentBase</text>
</a>
</g>
</g>
<!-- Node2&#45;&gt;Node1 -->
<g id="edge1_Node000001_Node000002" class="edge">
<title>Node2&#45;&gt;Node1</title>
<g id="a_edge1_Node000001_Node000002"><a xlink:title=" ">
<path fill="none" stroke="#63b8ff" d="M122.26,-65.19C140.01,-51.16 166.06,-30.59 180.62,-19.09"/>
<polygon fill="#63b8ff" stroke="#63b8ff" points="119.97,-62.53 114.29,-71.48 124.31,-68.03 119.97,-62.53"/>
</a>
</g>
</g>
<!-- Node3 -->
<g id="Node000003" class="node">
<title>Node3</title>
<g id="a_Node000003"><a xlink:title=" ">
<polygon fill="white" stroke="#666666" points="199,-152 8,-152 8,-133 199,-133 199,-152"/>
<text text-anchor="middle" x="103.5" y="-140" font-family="Helvetica,sans-Serif" font-size="10.00">components::impl::ComponentBase</text>
</a>
</g>
</g>
<!-- Node3&#45;&gt;Node2 -->
<g id="edge2_Node000002_Node000003" class="edge">
<title>Node3&#45;&gt;Node2</title>
<g id="a_edge2_Node000002_Node000003"><a xlink:title=" ">
<path fill="none" stroke="#63b8ff" d="M103.5,-122.82C103.5,-112 103.5,-98.9 103.5,-90.51"/>
<polygon fill="#63b8ff" stroke="#63b8ff" points="100,-122.98 103.5,-132.98 107,-122.98 100,-122.98"/>
</a>
</g>
</g>
<!-- Node4 -->
<g id="Node000004" class="node">
<title>Node4</title>
<g id="a_Node000004"><a xlink:href="../../d2/dcb/structstorages_1_1postgres_1_1CommandControl.html" target="_top" xlink:title=" ">
<polygon fill="white" stroke="#666666" points="333.5,-96 225.5,-96 225.5,-66 333.5,-66 333.5,-96"/>
<text text-anchor="start" x="233.5" y="-84" font-family="Helvetica,sans-Serif" font-size="10.00">storages::postgres</text>
<text text-anchor="middle" x="279.5" y="-73" font-family="Helvetica,sans-Serif" font-size="10.00">::CommandControl</text>
</a>
</g>
</g>
<!-- Node4&#45;&gt;Node1 -->
<g id="edge3_Node000001_Node000004" class="edge">
<title>Node4&#45;&gt;Node1</title>
<g id="a_edge3_Node000001_Node000004"><a xlink:title=" ">
<path fill="none" stroke="#9a32cd" stroke-dasharray="5,2" d="M253.76,-59.68C236.78,-46.26 215.38,-29.36 202.6,-19.27"/>
<polygon fill="#9a32cd" stroke="#9a32cd" points="251.67,-62.48 261.69,-65.94 256.01,-56.99 251.67,-62.48"/>
</a>
</g>
<text text-anchor="middle" x="304" y="-40" font-family="Helvetica,sans-Serif" font-size="10.00" fill="grey"> kDefaultCommandControl</text>
</g>
</g>
</svg>
