<?xml version="1.0" encoding="UTF-8" standalone="no"?>
<!DOCTYPE svg PUBLIC "-//W3C//DTD SVG 1.1//EN"
 "http://www.w3.org/Graphics/SVG/1.1/DTD/svg11.dtd">
<!-- Generated by graphviz version 2.43.0 (0)
 -->
<!-- Title: userver/storages/postgres/null.hpp Pages: 1 -->
<svg width="547pt" height="368pt"
 viewBox="0.00 0.00 547.00 368.00" xmlns="http://www.w3.org/2000/svg" xmlns:xlink="http://www.w3.org/1999/xlink">
<g id="graph0" class="graph" transform="scale(1 1) rotate(0) translate(4 364)">
<title>userver/storages/postgres/null.hpp</title>
<!-- Node1 -->
<g id="Node000001" class="node">
<title>Node1</title>
<g id="a_Node000001"><a xlink:title="NULL type.">
<polygon fill="#999999" stroke="#666666" points="339,-360 196,-360 196,-330 339,-330 339,-360"/>
<text text-anchor="start" x="204" y="-348" font-family="Helvetica,sans-Serif" font-size="10.00">userver/storages/postgres</text>
<text text-anchor="middle" x="267.5" y="-337" font-family="Helvetica,sans-Serif" font-size="10.00">/null.hpp</text>
</a>
</g>
</g>
<!-- Node2 -->
<g id="Node000002" class="node">
<title>Node2</title>
<g id="a_Node000002"><a xlink:href="../../d2/d3f/query__parameters_8hpp_source.html" target="_top" xlink:title=" ">
<polygon fill="white" stroke="#666666" points="348,-294 187,-294 187,-264 348,-264 348,-294"/>
<text text-anchor="start" x="195" y="-282" font-family="Helvetica,sans-Serif" font-size="10.00">userver/storages/postgres</text>
<text text-anchor="middle" x="267.5" y="-271" font-family="Helvetica,sans-Serif" font-size="10.00">/detail/query_parameters.hpp</text>
</a>
</g>
</g>
<!-- Node1&#45;&gt;Node2 -->
<g id="edge1_Node000001_Node000002" class="edge">
<title>Node1&#45;&gt;Node2</title>
<g id="a_edge1_Node000001_Node000002"><a xlink:title=" ">
<path fill="none" stroke="#63b8ff" d="M267.5,-319.54C267.5,-310.96 267.5,-301.61 267.5,-294.16"/>
<polygon fill="#63b8ff" stroke="#63b8ff" points="264,-319.8 267.5,-329.8 271,-319.8 264,-319.8"/>
</a>
</g>
</g>
<!-- Node3 -->
<g id="Node000003" class="node">
<title>Node3</title>
<g id="a_Node000003"><a xlink:href="../../d4/dd3/non__transaction_8hpp_source.html" target="_top" xlink:title=" ">
<polygon fill="white" stroke="#666666" points="310,-162 161,-162 161,-132 310,-132 310,-162"/>
<text text-anchor="start" x="169" y="-150" font-family="Helvetica,sans-Serif" font-size="10.00">userver/storages/postgres</text>
<text text-anchor="middle" x="235.5" y="-139" font-family="Helvetica,sans-Serif" font-size="10.00">/detail/non_transaction.hpp</text>
</a>
</g>
</g>
<!-- Node2&#45;&gt;Node3 -->
<g id="edge2_Node000002_Node000003" class="edge">
<title>Node2&#45;&gt;Node3</title>
<g id="a_edge2_Node000002_Node000003"><a xlink:title=" ">
<path fill="none" stroke="#63b8ff" d="M219.4,-259.03C206.4,-251.43 193.89,-241.25 186.5,-228 173.41,-204.53 197.55,-178.08 216.36,-162.24"/>
<polygon fill="#63b8ff" stroke="#63b8ff" points="217.97,-262.23 228.43,-263.89 221.28,-256.07 217.97,-262.23"/>
</a>
</g>
</g>
<!-- Node7 -->
<g id="Node000007" class="node">
<title>Node7</title>
<g id="a_Node000007"><a xlink:href="../../db/d6e/parameter__store_8hpp.html" target="_top" xlink:title="Class for dynamic PostgreSQL parameter list construction.">
<polygon fill="white" stroke="#666666" points="339,-228 196,-228 196,-198 339,-198 339,-228"/>
<text text-anchor="start" x="204" y="-216" font-family="Helvetica,sans-Serif" font-size="10.00">userver/storages/postgres</text>
<text text-anchor="middle" x="267.5" y="-205" font-family="Helvetica,sans-Serif" font-size="10.00">/parameter_store.hpp</text>
</a>
</g>
</g>
<!-- Node2&#45;&gt;Node7 -->
<g id="edge6_Node000002_Node000007" class="edge">
<title>Node2&#45;&gt;Node7</title>
<g id="a_edge6_Node000002_Node000007"><a xlink:title=" ">
<path fill="none" stroke="#63b8ff" d="M267.5,-253.54C267.5,-244.96 267.5,-235.61 267.5,-228.16"/>
<polygon fill="#63b8ff" stroke="#63b8ff" points="264,-253.8 267.5,-263.8 271,-253.8 264,-253.8"/>
</a>
</g>
</g>
<!-- Node8 -->
<g id="Node000008" class="node">
<title>Node8</title>
<g id="a_Node000008"><a xlink:href="../../da/deb/postgresql_2include_2userver_2storages_2postgres_2transaction_8hpp.html" target="_top" xlink:title="Transactions.">
<polygon fill="white" stroke="#666666" points="471,-162 328,-162 328,-132 471,-132 471,-162"/>
<text text-anchor="start" x="336" y="-150" font-family="Helvetica,sans-Serif" font-size="10.00">userver/storages/postgres</text>
<text text-anchor="middle" x="399.5" y="-139" font-family="Helvetica,sans-Serif" font-size="10.00">/transaction.hpp</text>
</a>
</g>
</g>
<!-- Node2&#45;&gt;Node8 -->
<g id="edge15_Node000002_Node000008" class="edge">
<title>Node2&#45;&gt;Node8</title>
<g id="a_edge15_Node000002_Node000008"><a xlink:title=" ">
<path fill="none" stroke="#63b8ff" d="M305.69,-258.72C319.81,-250.46 335.33,-239.96 347.5,-228 367.71,-208.15 384.12,-179.12 392.79,-162.04"/>
<polygon fill="#63b8ff" stroke="#63b8ff" points="303.66,-255.85 296.67,-263.81 307.09,-261.95 303.66,-255.85"/>
</a>
</g>
</g>
<!-- Node9 -->
<g id="Node000009" class="node">
<title>Node9</title>
<g id="a_Node000009"><a xlink:href="../../d2/de3/portal_8hpp_source.html" target="_top" xlink:title=" ">
<polygon fill="white" stroke="#666666" points="539,-228 396,-228 396,-198 539,-198 539,-228"/>
<text text-anchor="start" x="404" y="-216" font-family="Helvetica,sans-Serif" font-size="10.00">userver/storages/postgres</text>
<text text-anchor="middle" x="467.5" y="-205" font-family="Helvetica,sans-Serif" font-size="10.00">/portal.hpp</text>
</a>
</g>
</g>
<!-- Node2&#45;&gt;Node9 -->
<g id="edge11_Node000002_Node000009" class="edge">
<title>Node2&#45;&gt;Node9</title>
<g id="a_edge11_Node000002_Node000009"><a xlink:title=" ">
<path fill="none" stroke="#63b8ff" d="M321.07,-260.86C353.19,-250.58 393.51,-237.68 423.71,-228.01"/>
<polygon fill="#63b8ff" stroke="#63b8ff" points="319.85,-257.57 311.39,-263.95 321.98,-264.24 319.85,-257.57"/>
</a>
</g>
</g>
<!-- Node10 -->
<g id="Node000010" class="node">
<title>Node10</title>
<g id="a_Node000010"><a xlink:href="../../d8/d63/query__queue_8hpp.html" target="_top" xlink:title="An utility to execute multiple queries in a single network round&#45;trip.">
<polygon fill="white" stroke="#666666" points="143,-162 0,-162 0,-132 143,-132 143,-162"/>
<text text-anchor="start" x="8" y="-150" font-family="Helvetica,sans-Serif" font-size="10.00">userver/storages/postgres</text>
<text text-anchor="middle" x="71.5" y="-139" font-family="Helvetica,sans-Serif" font-size="10.00">/query_queue.hpp</text>
</a>
</g>
</g>
<!-- Node2&#45;&gt;Node10 -->
<g id="edge13_Node000002_Node000010" class="edge">
<title>Node2&#45;&gt;Node10</title>
<g id="a_edge13_Node000002_Node000010"><a xlink:title=" ">
<path fill="none" stroke="#63b8ff" d="M231.67,-258.93C215.47,-249.98 196.24,-238.9 179.5,-228 146.65,-206.61 110.4,-178.84 89.37,-162.28"/>
<polygon fill="#63b8ff" stroke="#63b8ff" points="230.37,-262.21 240.82,-263.94 233.73,-256.07 230.37,-262.21"/>
</a>
</g>
</g>
<!-- Node4 -->
<g id="Node000004" class="node">
<title>Node4</title>
<g id="a_Node000004"><a xlink:href="../../de/dd3/postgresql_2include_2userver_2storages_2postgres_2cluster_8hpp.html" target="_top" xlink:title="Interface for executing queries on a cluster of PostgreSQL servers.">
<polygon fill="white" stroke="#666666" points="314,-96 171,-96 171,-66 314,-66 314,-96"/>
<text text-anchor="start" x="179" y="-84" font-family="Helvetica,sans-Serif" font-size="10.00">userver/storages/postgres</text>
<text text-anchor="middle" x="242.5" y="-73" font-family="Helvetica,sans-Serif" font-size="10.00">/cluster.hpp</text>
</a>
</g>
</g>
<!-- Node3&#45;&gt;Node4 -->
<g id="edge3_Node000003_Node000004" class="edge">
<title>Node3&#45;&gt;Node4</title>
<g id="a_edge3_Node000003_Node000004"><a xlink:title=" ">
<path fill="none" stroke="#63b8ff" d="M238.14,-121.83C239.09,-113.17 240.13,-103.7 240.95,-96.16"/>
<polygon fill="#63b8ff" stroke="#63b8ff" points="234.66,-121.48 237.05,-131.8 241.62,-122.24 234.66,-121.48"/>
</a>
</g>
</g>
<!-- Node5 -->
<g id="Node000005" class="node">
<title>Node5</title>
<g id="a_Node000005"><a xlink:href="../../dc/df7/base__postgres__cache_8hpp.html" target="_top" xlink:title="Caching component for PostgreSQL. See Caching Component for PostgreSQL.">
<polygon fill="white" stroke="#666666" points="302,-30 183,-30 183,0 302,0 302,-30"/>
<text text-anchor="start" x="191" y="-18" font-family="Helvetica,sans-Serif" font-size="10.00">userver/cache/base</text>
<text text-anchor="middle" x="242.5" y="-7" font-family="Helvetica,sans-Serif" font-size="10.00">_postgres_cache.hpp</text>
</a>
</g>
</g>
<!-- Node4&#45;&gt;Node5 -->
<g id="edge4_Node000004_Node000005" class="edge">
<title>Node4&#45;&gt;Node5</title>
<g id="a_edge4_Node000004_Node000005"><a xlink:title=" ">
<path fill="none" stroke="#63b8ff" d="M242.5,-55.54C242.5,-46.96 242.5,-37.61 242.5,-30.16"/>
<polygon fill="#63b8ff" stroke="#63b8ff" points="239,-55.8 242.5,-65.8 246,-55.8 239,-55.8"/>
</a>
</g>
</g>
<!-- Node6 -->
<g id="Node000006" class="node">
<title>Node6</title>
<g id="a_Node000006"><a xlink:href="../../df/d02/postgres_8hpp.html" target="_top" xlink:title=" ">
<polygon fill="white" stroke="#666666" points="467,-30 324,-30 324,0 467,0 467,-30"/>
<text text-anchor="start" x="332" y="-18" font-family="Helvetica,sans-Serif" font-size="10.00">userver/storages/postgres</text>
<text text-anchor="middle" x="395.5" y="-7" font-family="Helvetica,sans-Serif" font-size="10.00">/postgres.hpp</text>
</a>
</g>
</g>
<!-- Node4&#45;&gt;Node6 -->
<g id="edge5_Node000004_Node000006" class="edge">
<title>Node4&#45;&gt;Node6</title>
<g id="a_edge5_Node000004_Node000006"><a xlink:title=" ">
<path fill="none" stroke="#63b8ff" d="M285.4,-62.05C309.64,-51.91 339.5,-39.43 362,-30.01"/>
<polygon fill="#63b8ff" stroke="#63b8ff" points="283.95,-58.87 276.08,-65.95 286.65,-65.32 283.95,-58.87"/>
</a>
</g>
</g>
<!-- Node7&#45;&gt;Node3 -->
<g id="edge7_Node000007_Node000003" class="edge">
<title>Node7&#45;&gt;Node3</title>
<g id="a_edge7_Node000007_Node000003"><a xlink:title=" ">
<path fill="none" stroke="#63b8ff" d="M255.84,-188.68C251.4,-179.79 246.47,-169.95 242.58,-162.16"/>
<polygon fill="#63b8ff" stroke="#63b8ff" points="252.8,-190.42 260.4,-197.8 259.06,-187.29 252.8,-190.42"/>
</a>
</g>
</g>
<!-- Node7&#45;&gt;Node8 -->
<g id="edge8_Node000007_Node000008" class="edge">
<title>Node7&#45;&gt;Node8</title>
<g id="a_edge8_Node000007_Node000008"><a xlink:title=" ">
<path fill="none" stroke="#63b8ff" d="M305.63,-193.51C326.34,-183.47 351.53,-171.26 370.6,-162.01"/>
<polygon fill="#63b8ff" stroke="#63b8ff" points="303.94,-190.44 296.47,-197.95 306.99,-196.74 303.94,-190.44"/>
</a>
</g>
</g>
<!-- Node8&#45;&gt;Node4 -->
<g id="edge9_Node000008_Node000004" class="edge">
<title>Node8&#45;&gt;Node4</title>
<g id="a_edge9_Node000008_Node000004"><a xlink:title=" ">
<path fill="none" stroke="#63b8ff" d="M355.48,-128.05C330.6,-117.91 299.97,-105.43 276.87,-96.01"/>
<polygon fill="#63b8ff" stroke="#63b8ff" points="354.46,-131.42 365.05,-131.95 357.11,-124.94 354.46,-131.42"/>
</a>
</g>
</g>
<!-- Node8&#45;&gt;Node6 -->
<g id="edge10_Node000008_Node000006" class="edge">
<title>Node8&#45;&gt;Node6</title>
<g id="a_edge10_Node000008_Node000006"><a xlink:title=" ">
<path fill="none" stroke="#63b8ff" d="M398.75,-121.68C397.92,-94.7 396.61,-52.11 395.94,-30.14"/>
<polygon fill="#63b8ff" stroke="#63b8ff" points="395.26,-121.95 399.06,-131.84 402.26,-121.74 395.26,-121.95"/>
</a>
</g>
</g>
<!-- Node9&#45;&gt;Node8 -->
<g id="edge12_Node000009_Node000008" class="edge">
<title>Node9&#45;&gt;Node8</title>
<g id="a_edge12_Node000009_Node000008"><a xlink:title=" ">
<path fill="none" stroke="#63b8ff" d="M445.11,-190.92C435.08,-181.49 423.52,-170.61 414.55,-162.16"/>
<polygon fill="#63b8ff" stroke="#63b8ff" points="442.73,-193.49 452.41,-197.8 447.53,-188.39 442.73,-193.49"/>
</a>
</g>
</g>
<!-- Node10&#45;&gt;Node4 -->
<g id="edge14_Node000010_Node000004" class="edge">
<title>Node10&#45;&gt;Node4</title>
<g id="a_edge14_Node000010_Node000004"><a xlink:title=" ">
<path fill="none" stroke="#63b8ff" d="M118.73,-128.32C145.95,-118.14 179.69,-105.51 205.06,-96.01"/>
<polygon fill="#63b8ff" stroke="#63b8ff" points="117.17,-125.17 109.03,-131.95 119.62,-131.73 117.17,-125.17"/>
</a>
</g>
</g>
</g>
</svg>
