<?xml version="1.0" encoding="UTF-8" standalone="no"?>
<!DOCTYPE svg PUBLIC "-//W3C//DTD SVG 1.1//EN"
 "http://www.w3.org/Graphics/SVG/1.1/DTD/svg11.dtd">
<!-- Generated by graphviz version 2.43.0 (0)
 -->
<!-- Title: userver/formats/common/items.hpp Pages: 1 -->
<svg width="282pt" height="93pt"
 viewBox="0.00 0.00 282.00 93.00" xmlns="http://www.w3.org/2000/svg" xmlns:xlink="http://www.w3.org/1999/xlink">
<g id="graph0" class="graph" transform="scale(1 1) rotate(0) translate(4 89)">
<title>userver/formats/common/items.hpp</title>
<!-- Node1 -->
<g id="Node000001" class="node">
<title>Node1</title>
<g id="a_Node000001"><a xlink:title="Wrapper for handy python&#45;like iteration over a map.">
<polygon fill="#999999" stroke="#666666" points="200.5,-85 60.5,-85 60.5,-55 200.5,-55 200.5,-85"/>
<text text-anchor="start" x="68.5" y="-73" font-family="Helvetica,sans-Serif" font-size="10.00">userver/formats/common</text>
<text text-anchor="middle" x="130.5" y="-62" font-family="Helvetica,sans-Serif" font-size="10.00">/items.hpp</text>
</a>
</g>
</g>
<!-- Node2 -->
<g id="Node000002" class="node">
<title>Node2</title>
<g id="a_Node000002"><a xlink:title=" ">
<polygon fill="#e0e0e0" stroke="#999999" points="53,-19 0,-19 0,0 53,0 53,-19"/>
<text text-anchor="middle" x="26.5" y="-7" font-family="Helvetica,sans-Serif" font-size="10.00">cstddef</text>
</a>
</g>
</g>
<!-- Node1&#45;&gt;Node2 -->
<g id="edge1_Node000001_Node000002" class="edge">
<title>Node1&#45;&gt;Node2</title>
<g id="a_edge1_Node000001_Node000002"><a xlink:title=" ">
<path fill="none" stroke="#63b8ff" d="M105.59,-54.99C89.01,-45.66 67.34,-33.47 50.87,-24.21"/>
<polygon fill="#63b8ff" stroke="#63b8ff" points="52.29,-20.99 41.86,-19.14 48.86,-27.09 52.29,-20.99"/>
</a>
</g>
</g>
<!-- Node3 -->
<g id="Node000003" class="node">
<title>Node3</title>
<g id="a_Node000003"><a xlink:title=" ">
<polygon fill="#e0e0e0" stroke="#999999" points="124,-19 71,-19 71,0 124,0 124,-19"/>
<text text-anchor="middle" x="97.5" y="-7" font-family="Helvetica,sans-Serif" font-size="10.00">iterator</text>
</a>
</g>
</g>
<!-- Node1&#45;&gt;Node3 -->
<g id="edge2_Node000001_Node000003" class="edge">
<title>Node1&#45;&gt;Node3</title>
<g id="a_edge2_Node000001_Node000003"><a xlink:title=" ">
<path fill="none" stroke="#63b8ff" d="M122.51,-54.84C117.97,-46.78 112.23,-36.62 107.4,-28.06"/>
<polygon fill="#63b8ff" stroke="#63b8ff" points="110.41,-26.26 102.44,-19.27 104.31,-29.7 110.41,-26.26"/>
</a>
</g>
</g>
<!-- Node4 -->
<g id="Node000004" class="node">
<title>Node4</title>
<g id="a_Node000004"><a xlink:title=" ">
<polygon fill="#e0e0e0" stroke="#999999" points="186.5,-19 142.5,-19 142.5,0 186.5,0 186.5,-19"/>
<text text-anchor="middle" x="164.5" y="-7" font-family="Helvetica,sans-Serif" font-size="10.00">string</text>
</a>
</g>
</g>
<!-- Node1&#45;&gt;Node4 -->
<g id="edge3_Node000001_Node000004" class="edge">
<title>Node1&#45;&gt;Node4</title>
<g id="a_edge3_Node000001_Node000004"><a xlink:title=" ">
<path fill="none" stroke="#63b8ff" d="M138.73,-54.84C143.41,-46.78 149.32,-36.62 154.3,-28.06"/>
<polygon fill="#63b8ff" stroke="#63b8ff" points="157.41,-29.67 159.41,-19.27 151.35,-26.15 157.41,-29.67"/>
</a>
</g>
</g>
<!-- Node5 -->
<g id="Node000005" class="node">
<title>Node5</title>
<g id="a_Node000005"><a xlink:title=" ">
<polygon fill="#e0e0e0" stroke="#999999" points="274,-19 205,-19 205,0 274,0 274,-19"/>
<text text-anchor="middle" x="239.5" y="-7" font-family="Helvetica,sans-Serif" font-size="10.00">type_traits</text>
</a>
</g>
</g>
<!-- Node1&#45;&gt;Node5 -->
<g id="edge4_Node000001_Node000005" class="edge">
<title>Node1&#45;&gt;Node5</title>
<g id="a_edge4_Node000001_Node000005"><a xlink:title=" ">
<path fill="none" stroke="#63b8ff" d="M156.61,-54.99C174.14,-45.58 197.12,-33.24 214.44,-23.95"/>
<polygon fill="#63b8ff" stroke="#63b8ff" points="216.25,-26.95 223.4,-19.14 212.94,-20.78 216.25,-26.95"/>
</a>
</g>
</g>
</g>
</svg>
