<?xml version="1.0" encoding="UTF-8" standalone="no"?>
<!DOCTYPE svg PUBLIC "-//W3C//DTD SVG 1.1//EN"
 "http://www.w3.org/Graphics/SVG/1.1/DTD/svg11.dtd">
<!-- Generated by graphviz version 2.43.0 (0)
 -->
<!-- Title: ugrpc::server::ServiceConfig Pages: 1 -->
<svg width="175pt" height="247pt"
 viewBox="0.00 0.00 175.00 247.00" xmlns="http://www.w3.org/2000/svg" xmlns:xlink="http://www.w3.org/1999/xlink">
<g id="graph0" class="graph" transform="scale(1 1) rotate(0) translate(4 243)">
<title>ugrpc::server::ServiceConfig</title>
<!-- Node1 -->
<g id="Node000001" class="node">
<title>Node1</title>
<g id="a_Node000001"><a xlink:title="Per&#45;service settings.">
<polygon fill="#999999" stroke="#666666" points="160,-19 7,-19 7,0 160,0 160,-19"/>
<text text-anchor="middle" x="83.5" y="-7" font-family="Helvetica,sans-Serif" font-size="10.00">ugrpc::server::ServiceConfig</text>
</a>
</g>
</g>
<!-- Node2 -->
<g id="Node000002" class="node">
<title>Node2</title>
<g id="a_Node000002"><a xlink:title=" ">
<polygon fill="white" stroke="#666666" points="158.5,-96 8.5,-96 8.5,-66 158.5,-66 158.5,-96"/>
<text text-anchor="start" x="16.5" y="-84" font-family="Helvetica,sans-Serif" font-size="10.00">std::vector&lt; std::shared</text>
<text text-anchor="middle" x="83.5" y="-73" font-family="Helvetica,sans-Serif" font-size="10.00">_ptr&lt; MiddlewareBase &gt; &gt;</text>
</a>
</g>
</g>
<!-- Node2&#45;&gt;Node1 -->
<g id="edge1_Node000001_Node000002" class="edge">
<title>Node2&#45;&gt;Node1</title>
<g id="a_edge1_Node000001_Node000002"><a xlink:title=" ">
<path fill="none" stroke="#9a32cd" stroke-dasharray="5,2" d="M83.5,-55.56C83.5,-42.95 83.5,-28.35 83.5,-19.27"/>
<polygon fill="#9a32cd" stroke="#9a32cd" points="80,-55.94 83.5,-65.94 87,-55.94 80,-55.94"/>
</a>
</g>
<text text-anchor="middle" x="117" y="-40" font-family="Helvetica,sans-Serif" font-size="10.00" fill="grey"> middlewares</text>
</g>
<!-- Node3 -->
<g id="Node000003" class="node">
<title>Node3</title>
<g id="a_Node000003"><a xlink:title=" ">
<polygon fill="white" stroke="#666666" points="162.5,-173 4.5,-173 4.5,-143 162.5,-143 162.5,-173"/>
<text text-anchor="start" x="12.5" y="-161" font-family="Helvetica,sans-Serif" font-size="10.00">std::shared_ptr&lt; Middleware</text>
<text text-anchor="middle" x="83.5" y="-150" font-family="Helvetica,sans-Serif" font-size="10.00">Base &gt;</text>
</a>
</g>
</g>
<!-- Node3&#45;&gt;Node2 -->
<g id="edge2_Node000002_Node000003" class="edge">
<title>Node3&#45;&gt;Node2</title>
<g id="a_edge2_Node000002_Node000003"><a xlink:title=" ">
<path fill="none" stroke="#9a32cd" stroke-dasharray="5,2" d="M83.5,-132.54C83.5,-120.45 83.5,-106.29 83.5,-96.04"/>
<polygon fill="#9a32cd" stroke="#9a32cd" points="80,-132.89 83.5,-142.89 87,-132.89 80,-132.89"/>
</a>
</g>
<text text-anchor="middle" x="108" y="-117" font-family="Helvetica,sans-Serif" font-size="10.00" fill="grey"> elements</text>
</g>
<!-- Node4 -->
<g id="Node000004" class="node">
<title>Node4</title>
<g id="a_Node000004"><a xlink:href="../../d7/d2d/classugrpc_1_1server_1_1MiddlewareBase.html" target="_top" xlink:title="Base class for server gRPC middleware.">
<polygon fill="white" stroke="#666666" points="167,-239 0,-239 0,-220 167,-220 167,-239"/>
<text text-anchor="middle" x="83.5" y="-227" font-family="Helvetica,sans-Serif" font-size="10.00">ugrpc::server::MiddlewareBase</text>
</a>
</g>
</g>
<!-- Node4&#45;&gt;Node3 -->
<g id="edge3_Node000003_Node000004" class="edge">
<title>Node4&#45;&gt;Node3</title>
<g id="a_edge3_Node000003_Node000004"><a xlink:title=" ">
<path fill="none" stroke="#9a32cd" stroke-dasharray="5,2" d="M83.5,-209.71C83.5,-198.19 83.5,-183.68 83.5,-173.14"/>
<polygon fill="#9a32cd" stroke="#9a32cd" points="80,-209.98 83.5,-219.98 87,-209.98 80,-209.98"/>
</a>
</g>
<text text-anchor="middle" x="92" y="-194" font-family="Helvetica,sans-Serif" font-size="10.00" fill="grey"> ptr</text>
</g>
</g>
</svg>
