<?xml version="1.0" encoding="UTF-8" standalone="no"?>
<!DOCTYPE svg PUBLIC "-//W3C//DTD SVG 1.1//EN"
 "http://www.w3.org/Graphics/SVG/1.1/DTD/svg11.dtd">
<!-- Generated by graphviz version 2.43.0 (0)
 -->
<!-- Title: ugrpc::client::middlewares::deadline_propagation::Component Pages: 1 -->
<svg width="215pt" height="225pt"
 viewBox="0.00 0.00 215.00 225.00" xmlns="http://www.w3.org/2000/svg" xmlns:xlink="http://www.w3.org/1999/xlink">
<g id="graph0" class="graph" transform="scale(1 1) rotate(0) translate(4 221)">
<title>ugrpc::client::middlewares::deadline_propagation::Component</title>
<!-- Node1 -->
<g id="Node000001" class="node">
<title>Node1</title>
<g id="a_Node000001"><a xlink:title="Component for gRPC client deadline_propagation. Update deadline from TaskInheritedData if it exists a...">
<polygon fill="#999999" stroke="#666666" points="176.5,-41 30.5,-41 30.5,0 176.5,0 176.5,-41"/>
<text text-anchor="start" x="38.5" y="-29" font-family="Helvetica,sans-Serif" font-size="10.00">ugrpc::client::middlewares</text>
<text text-anchor="start" x="38.5" y="-18" font-family="Helvetica,sans-Serif" font-size="10.00">::deadline_propagation::</text>
<text text-anchor="middle" x="103.5" y="-7" font-family="Helvetica,sans-Serif" font-size="10.00">Component</text>
</a>
</g>
</g>
<!-- Node2 -->
<g id="Node000002" class="node">
<title>Node2</title>
<g id="a_Node000002"><a xlink:href="../../da/d1b/classugrpc_1_1client_1_1MiddlewareComponentBase.html" target="_top" xlink:title="Base class for client middleware component.">
<polygon fill="white" stroke="#666666" points="173.5,-107 33.5,-107 33.5,-77 173.5,-77 173.5,-107"/>
<text text-anchor="start" x="41.5" y="-95" font-family="Helvetica,sans-Serif" font-size="10.00">ugrpc::client::Middleware</text>
<text text-anchor="middle" x="103.5" y="-84" font-family="Helvetica,sans-Serif" font-size="10.00">ComponentBase</text>
</a>
</g>
</g>
<!-- Node2&#45;&gt;Node1 -->
<g id="edge1_Node000001_Node000002" class="edge">
<title>Node2&#45;&gt;Node1</title>
<g id="a_edge1_Node000001_Node000002"><a xlink:title=" ">
<path fill="none" stroke="#63b8ff" d="M103.5,-66.91C103.5,-58.47 103.5,-49.1 103.5,-41.07"/>
<polygon fill="#63b8ff" stroke="#63b8ff" points="100,-66.94 103.5,-76.94 107,-66.94 100,-66.94"/>
</a>
</g>
</g>
<!-- Node3 -->
<g id="Node000003" class="node">
<title>Node3</title>
<g id="a_Node000003"><a xlink:href="../../d5/d69/classcomponents_1_1LoggableComponentBase.html" target="_top" xlink:title="Base class for all application components, it depends on components::Logger and components::Tracer.">
<polygon fill="white" stroke="#666666" points="207,-162 0,-162 0,-143 207,-143 207,-162"/>
<text text-anchor="middle" x="103.5" y="-150" font-family="Helvetica,sans-Serif" font-size="10.00">components::LoggableComponentBase</text>
</a>
</g>
</g>
<!-- Node3&#45;&gt;Node2 -->
<g id="edge2_Node000002_Node000003" class="edge">
<title>Node3&#45;&gt;Node2</title>
<g id="a_edge2_Node000002_Node000003"><a xlink:title=" ">
<path fill="none" stroke="#63b8ff" d="M103.5,-132.65C103.5,-124.36 103.5,-114.78 103.5,-107.11"/>
<polygon fill="#63b8ff" stroke="#63b8ff" points="100,-132.87 103.5,-142.87 107,-132.87 100,-132.87"/>
</a>
</g>
</g>
<!-- Node4 -->
<g id="Node000004" class="node">
<title>Node4</title>
<g id="a_Node000004"><a xlink:title=" ">
<polygon fill="white" stroke="#666666" points="199,-217 8,-217 8,-198 199,-198 199,-217"/>
<text text-anchor="middle" x="103.5" y="-205" font-family="Helvetica,sans-Serif" font-size="10.00">components::impl::ComponentBase</text>
</a>
</g>
</g>
<!-- Node4&#45;&gt;Node3 -->
<g id="edge3_Node000003_Node000004" class="edge">
<title>Node4&#45;&gt;Node3</title>
<g id="a_edge3_Node000003_Node000004"><a xlink:title=" ">
<path fill="none" stroke="#63b8ff" d="M103.5,-187.66C103.5,-178.93 103.5,-168.99 103.5,-162.09"/>
<polygon fill="#63b8ff" stroke="#63b8ff" points="100,-187.75 103.5,-197.75 107,-187.75 100,-187.75"/>
</a>
</g>
</g>
</g>
</svg>
