<?xml version="1.0" encoding="UTF-8" standalone="no"?>
<!DOCTYPE svg PUBLIC "-//W3C//DTD SVG 1.1//EN"
 "http://www.w3.org/Graphics/SVG/1.1/DTD/svg11.dtd">
<!-- Generated by graphviz version 2.43.0 (0)
 -->
<!-- Title: userver/utest/assert_macros.hpp Pages: 1 -->
<svg width="1227pt" height="291pt"
 viewBox="0.00 0.00 1226.88 291.00" xmlns="http://www.w3.org/2000/svg" xmlns:xlink="http://www.w3.org/1999/xlink">
<g id="graph0" class="graph" transform="scale(1 1) rotate(0) translate(4 287)">
<title>userver/utest/assert_macros.hpp</title>
<!-- Node1 -->
<g id="Node000001" class="node">
<title>Node1</title>
<g id="a_Node000001"><a xlink:title="Extensions to the gtest macros for printing and testing exceptions that could work even without corou...">
<polygon fill="#999999" stroke="#666666" points="352.38,-283 238.38,-283 238.38,-253 352.38,-253 352.38,-283"/>
<text text-anchor="start" x="246.38" y="-271" font-family="Helvetica,sans-Serif" font-size="10.00">userver/utest/assert</text>
<text text-anchor="middle" x="295.38" y="-260" font-family="Helvetica,sans-Serif" font-size="10.00">_macros.hpp</text>
</a>
</g>
</g>
<!-- Node2 -->
<g id="Node000002" class="node">
<title>Node2</title>
<g id="a_Node000002"><a xlink:title=" ">
<polygon fill="#e0e0e0" stroke="#999999" points="622.88,-79.5 557.88,-79.5 557.88,-60.5 622.88,-60.5 622.88,-79.5"/>
<text text-anchor="middle" x="590.38" y="-67.5" font-family="Helvetica,sans-Serif" font-size="10.00">exception</text>
</a>
</g>
</g>
<!-- Node1&#45;&gt;Node2 -->
<g id="edge1_Node000001_Node000002" class="edge">
<title>Node1&#45;&gt;Node2</title>
<g id="a_edge1_Node000001_Node000002"><a xlink:title=" ">
<path fill="none" stroke="#63b8ff" d="M352.44,-264.81C413.24,-260.78 511.29,-249.35 589.38,-217 636.2,-197.6 659.11,-196.03 682.38,-151 688.49,-139.15 689.19,-132.46 682.38,-121 675.43,-109.33 645.26,-94.25 621.33,-83.71"/>
<polygon fill="#63b8ff" stroke="#63b8ff" points="622.44,-80.38 611.87,-79.64 619.67,-86.81 622.44,-80.38"/>
</a>
</g>
</g>
<!-- Node3 -->
<g id="Node000003" class="node">
<title>Node3</title>
<g id="a_Node000003"><a xlink:title=" ">
<polygon fill="#e0e0e0" stroke="#999999" points="93.88,-79.5 28.88,-79.5 28.88,-60.5 93.88,-60.5 93.88,-79.5"/>
<text text-anchor="middle" x="61.38" y="-67.5" font-family="Helvetica,sans-Serif" font-size="10.00">functional</text>
</a>
</g>
</g>
<!-- Node1&#45;&gt;Node3 -->
<g id="edge2_Node000001_Node000003" class="edge">
<title>Node1&#45;&gt;Node3</title>
<g id="a_edge2_Node000001_Node000003"><a xlink:title=" ">
<path fill="none" stroke="#63b8ff" d="M238.23,-262.44C202.12,-256.85 156.55,-244.44 125.38,-217 86.52,-182.8 70.28,-120.64 64.35,-89.63"/>
<polygon fill="#63b8ff" stroke="#63b8ff" points="67.79,-88.97 62.61,-79.73 60.89,-90.18 67.79,-88.97"/>
</a>
</g>
</g>
<!-- Node4 -->
<g id="Node000004" class="node">
<title>Node4</title>
<g id="a_Node000004"><a xlink:title=" ">
<polygon fill="#e0e0e0" stroke="#999999" points="539.38,-79.5 495.38,-79.5 495.38,-60.5 539.38,-60.5 539.38,-79.5"/>
<text text-anchor="middle" x="517.38" y="-67.5" font-family="Helvetica,sans-Serif" font-size="10.00">string</text>
</a>
</g>
</g>
<!-- Node1&#45;&gt;Node4 -->
<g id="edge3_Node000001_Node000004" class="edge">
<title>Node1&#45;&gt;Node4</title>
<g id="a_edge3_Node000001_Node000004"><a xlink:title=" ">
<path fill="none" stroke="#63b8ff" d="M352.43,-257.88C447.29,-241.39 630.6,-203.38 666.38,-151 673.9,-139.99 674.3,-131.73 666.38,-121 634.05,-77.24 600.38,-103.93 549.38,-85 547.99,-84.49 546.58,-83.94 545.16,-83.38"/>
<polygon fill="#63b8ff" stroke="#63b8ff" points="546.42,-80.11 535.84,-79.51 543.73,-86.58 546.42,-80.11"/>
</a>
</g>
</g>
<!-- Node5 -->
<g id="Node000005" class="node">
<title>Node5</title>
<g id="a_Node000005"><a xlink:title=" ">
<polygon fill="#e0e0e0" stroke="#999999" points="298.88,-79.5 225.88,-79.5 225.88,-60.5 298.88,-60.5 298.88,-79.5"/>
<text text-anchor="middle" x="262.38" y="-67.5" font-family="Helvetica,sans-Serif" font-size="10.00">string_view</text>
</a>
</g>
</g>
<!-- Node1&#45;&gt;Node5 -->
<g id="edge4_Node000001_Node000005" class="edge">
<title>Node1&#45;&gt;Node5</title>
<g id="a_edge4_Node000001_Node000005"><a xlink:title=" ">
<path fill="none" stroke="#63b8ff" d="M258.54,-252.91C219.13,-235.6 158.72,-202.09 132.38,-151 126.26,-139.15 124.83,-131.99 132.38,-121 150.99,-93.9 186.5,-81.48 215.71,-75.79"/>
<polygon fill="#63b8ff" stroke="#63b8ff" points="216.49,-79.21 225.75,-74.05 215.29,-72.31 216.49,-79.21"/>
</a>
</g>
</g>
<!-- Node6 -->
<g id="Node000006" class="node">
<title>Node6</title>
<g id="a_Node000006"><a xlink:title=" ">
<polygon fill="#e0e0e0" stroke="#999999" points="479.88,-19 410.88,-19 410.88,0 479.88,0 479.88,-19"/>
<text text-anchor="middle" x="445.38" y="-7" font-family="Helvetica,sans-Serif" font-size="10.00">type_traits</text>
</a>
</g>
</g>
<!-- Node1&#45;&gt;Node6 -->
<g id="edge5_Node000001_Node000006" class="edge">
<title>Node1&#45;&gt;Node6</title>
<g id="a_edge5_Node000001_Node000006"><a xlink:title=" ">
<path fill="none" stroke="#63b8ff" d="M238.21,-264.04C195.97,-259.29 138.99,-247.24 98.38,-217 34.13,-169.16 -34.24,-114.51 19.38,-55 44.55,-27.06 295.97,-15.49 400.33,-11.86"/>
<polygon fill="#63b8ff" stroke="#63b8ff" points="400.67,-15.35 410.55,-11.52 400.44,-8.36 400.67,-15.35"/>
</a>
</g>
</g>
<!-- Node7 -->
<g id="Node000007" class="node">
<title>Node7</title>
<g id="a_Node000007"><a xlink:title=" ">
<polygon fill="#e0e0e0" stroke="#999999" points="168.88,-79.5 111.88,-79.5 111.88,-60.5 168.88,-60.5 168.88,-79.5"/>
<text text-anchor="middle" x="140.38" y="-67.5" font-family="Helvetica,sans-Serif" font-size="10.00">typeinfo</text>
</a>
</g>
</g>
<!-- Node1&#45;&gt;Node7 -->
<g id="edge6_Node000001_Node000007" class="edge">
<title>Node1&#45;&gt;Node7</title>
<g id="a_edge6_Node000001_Node000007"><a xlink:title=" ">
<path fill="none" stroke="#63b8ff" d="M238.1,-256.96C210.5,-249.71 178.46,-237.45 155.38,-217 121.61,-187.08 114.62,-165.45 122.38,-121 124.29,-110.04 128.39,-98.31 132.2,-88.96"/>
<polygon fill="#63b8ff" stroke="#63b8ff" points="135.49,-90.17 136.24,-79.6 129.07,-87.4 135.49,-90.17"/>
</a>
</g>
</g>
<!-- Node8 -->
<g id="Node000008" class="node">
<title>Node8</title>
<g id="a_Node000008"><a xlink:title=" ">
<polygon fill="#e0e0e0" stroke="#999999" points="657.38,-145.5 579.38,-145.5 579.38,-126.5 657.38,-126.5 657.38,-145.5"/>
<text text-anchor="middle" x="618.38" y="-133.5" font-family="Helvetica,sans-Serif" font-size="10.00">gtest/gtest.h</text>
</a>
</g>
</g>
<!-- Node1&#45;&gt;Node8 -->
<g id="edge7_Node000001_Node000008" class="edge">
<title>Node1&#45;&gt;Node8</title>
<g id="a_edge7_Node000001_Node000008"><a xlink:title=" ">
<path fill="none" stroke="#63b8ff" d="M345.17,-252.93C376.11,-243.73 416.49,-230.87 451.38,-217 502.81,-196.55 560.61,-167.42 592.94,-150.53"/>
<polygon fill="#63b8ff" stroke="#63b8ff" points="594.89,-153.46 602.12,-145.71 591.64,-147.26 594.89,-153.46"/>
</a>
</g>
</g>
<!-- Node9 -->
<g id="Node000009" class="node">
<title>Node9</title>
<g id="a_Node000009"><a xlink:href="../../d4/dd3/death__tests_8hpp.html" target="_top" xlink:title="Contains facilities for testing service crashes.">
<polygon fill="white" stroke="#666666" points="442.38,-217 330.38,-217 330.38,-187 442.38,-187 442.38,-217"/>
<text text-anchor="start" x="338.38" y="-205" font-family="Helvetica,sans-Serif" font-size="10.00">userver/utest/death</text>
<text text-anchor="middle" x="386.38" y="-194" font-family="Helvetica,sans-Serif" font-size="10.00">_tests.hpp</text>
</a>
</g>
</g>
<!-- Node1&#45;&gt;Node9 -->
<g id="edge8_Node000001_Node000009" class="edge">
<title>Node1&#45;&gt;Node9</title>
<g id="a_edge8_Node000001_Node000009"><a xlink:title=" ">
<path fill="none" stroke="#63b8ff" d="M315.57,-252.8C328.06,-244.01 344.28,-232.61 358.04,-222.93"/>
<polygon fill="#63b8ff" stroke="#63b8ff" points="360.07,-225.78 366.24,-217.16 356.04,-220.05 360.07,-225.78"/>
</a>
</g>
</g>
<!-- Node13 -->
<g id="Node000013" class="node">
<title>Node13</title>
<g id="a_Node000013"><a xlink:href="../../d5/d21/impl_2assert__macros_8hpp_source.html" target="_top" xlink:title=" ">
<polygon fill="white" stroke="#666666" points="253.38,-151 141.38,-151 141.38,-121 253.38,-121 253.38,-151"/>
<text text-anchor="start" x="149.38" y="-139" font-family="Helvetica,sans-Serif" font-size="10.00">userver/utest/impl</text>
<text text-anchor="middle" x="197.38" y="-128" font-family="Helvetica,sans-Serif" font-size="10.00">/assert_macros.hpp</text>
</a>
</g>
</g>
<!-- Node1&#45;&gt;Node13 -->
<g id="edge14_Node000001_Node000013" class="edge">
<title>Node1&#45;&gt;Node13</title>
<g id="a_edge14_Node000001_Node000013"><a xlink:title=" ">
<path fill="none" stroke="#63b8ff" d="M284.7,-252.84C267.69,-230.28 234.3,-185.98 214.1,-159.18"/>
<polygon fill="#63b8ff" stroke="#63b8ff" points="216.85,-157.02 208.04,-151.14 211.26,-161.23 216.85,-157.02"/>
</a>
</g>
</g>
<!-- Node14 -->
<g id="Node000014" class="node">
<title>Node14</title>
<g id="a_Node000014"><a xlink:href="../../d9/d1f/invariant__error_8hpp.html" target="_top" xlink:title="Exception that is thrown on UINVARIANT violation.">
<polygon fill="white" stroke="#666666" points="875.38,-217 751.38,-217 751.38,-187 875.38,-187 875.38,-217"/>
<text text-anchor="start" x="759.38" y="-205" font-family="Helvetica,sans-Serif" font-size="10.00">userver/utils/invariant</text>
<text text-anchor="middle" x="813.38" y="-194" font-family="Helvetica,sans-Serif" font-size="10.00">_error.hpp</text>
</a>
</g>
</g>
<!-- Node1&#45;&gt;Node14 -->
<g id="edge21_Node000001_Node000014" class="edge">
<title>Node1&#45;&gt;Node14</title>
<g id="a_edge21_Node000001_Node000014"><a xlink:title=" ">
<path fill="none" stroke="#63b8ff" d="M352.41,-261.83C436.77,-253.89 599.69,-237.44 737.38,-217 738.64,-216.81 739.92,-216.62 741.21,-216.42"/>
<polygon fill="#63b8ff" stroke="#63b8ff" points="741.9,-219.85 751.22,-214.81 740.79,-212.94 741.9,-219.85"/>
</a>
</g>
</g>
<!-- Node9&#45;&gt;Node8 -->
<g id="edge9_Node000009_Node000008" class="edge">
<title>Node9&#45;&gt;Node8</title>
<g id="a_edge9_Node000009_Node000008"><a xlink:title=" ">
<path fill="none" stroke="#63b8ff" d="M439.19,-186.93C476.01,-177.05 526.25,-163.43 570.38,-151 573.37,-150.16 576.47,-149.27 579.58,-148.38"/>
<polygon fill="#63b8ff" stroke="#63b8ff" points="580.83,-151.66 589.46,-145.53 578.89,-144.94 580.83,-151.66"/>
</a>
</g>
</g>
<!-- Node10 -->
<g id="Node000010" class="node">
<title>Node10</title>
<g id="a_Node000010"><a xlink:href="../../d2/d54/assert_8hpp.html" target="_top" xlink:title="Assertion macros UASSERT, UASSERT_MSG, UINVARIANT.">
<polygon fill="white" stroke="#666666" points="402.88,-145.5 271.88,-145.5 271.88,-126.5 402.88,-126.5 402.88,-145.5"/>
<text text-anchor="middle" x="337.38" y="-133.5" font-family="Helvetica,sans-Serif" font-size="10.00">userver/utils/assert.hpp</text>
</a>
</g>
</g>
<!-- Node9&#45;&gt;Node10 -->
<g id="edge10_Node000009_Node000010" class="edge">
<title>Node9&#45;&gt;Node10</title>
<g id="a_edge10_Node000009_Node000010"><a xlink:title=" ">
<path fill="none" stroke="#63b8ff" d="M375.5,-186.8C368.09,-177.11 358.23,-164.24 350.4,-154.01"/>
<polygon fill="#63b8ff" stroke="#63b8ff" points="353.01,-151.66 344.15,-145.84 347.45,-155.91 353.01,-151.66"/>
</a>
</g>
</g>
<!-- Node11 -->
<g id="Node000011" class="node">
<title>Node11</title>
<g id="a_Node000011"><a xlink:href="../../d5/d9d/disable__core__dumps_8hpp_source.html" target="_top" xlink:title=" ">
<polygon fill="white" stroke="#666666" points="561.38,-151 421.38,-151 421.38,-121 561.38,-121 561.38,-151"/>
<text text-anchor="start" x="429.38" y="-139" font-family="Helvetica,sans-Serif" font-size="10.00">userver/utils/impl</text>
<text text-anchor="middle" x="491.38" y="-128" font-family="Helvetica,sans-Serif" font-size="10.00">/disable_core_dumps.hpp</text>
</a>
</g>
</g>
<!-- Node9&#45;&gt;Node11 -->
<g id="edge12_Node000009_Node000011" class="edge">
<title>Node9&#45;&gt;Node11</title>
<g id="a_edge12_Node000009_Node000011"><a xlink:title=" ">
<path fill="none" stroke="#63b8ff" d="M409.42,-186.95C424.19,-177.95 443.56,-166.14 459.76,-156.27"/>
<polygon fill="#63b8ff" stroke="#63b8ff" points="461.67,-159.21 468.39,-151.01 458.03,-153.23 461.67,-159.21"/>
</a>
</g>
</g>
<!-- Node10&#45;&gt;Node5 -->
<g id="edge11_Node000010_Node000005" class="edge">
<title>Node10&#45;&gt;Node5</title>
<g id="a_edge11_Node000010_Node000005"><a xlink:title=" ">
<path fill="none" stroke="#63b8ff" d="M327.26,-126.37C315.36,-116.21 295.37,-99.16 280.72,-86.65"/>
<polygon fill="#63b8ff" stroke="#63b8ff" points="282.69,-83.73 272.81,-79.91 278.15,-89.06 282.69,-83.73"/>
</a>
</g>
</g>
<!-- Node12 -->
<g id="Node000012" class="node">
<title>Node12</title>
<g id="a_Node000012"><a xlink:title=" ">
<polygon fill="#e0e0e0" stroke="#999999" points="477.38,-79.5 419.38,-79.5 419.38,-60.5 477.38,-60.5 477.38,-79.5"/>
<text text-anchor="middle" x="448.38" y="-67.5" font-family="Helvetica,sans-Serif" font-size="10.00">memory</text>
</a>
</g>
</g>
<!-- Node11&#45;&gt;Node12 -->
<g id="edge13_Node000011_Node000012" class="edge">
<title>Node11&#45;&gt;Node12</title>
<g id="a_edge13_Node000011_Node000012"><a xlink:title=" ">
<path fill="none" stroke="#63b8ff" d="M481.83,-120.8C475.39,-111.21 466.85,-98.5 460.01,-88.32"/>
<polygon fill="#63b8ff" stroke="#63b8ff" points="462.8,-86.19 454.32,-79.84 456.99,-90.1 462.8,-86.19"/>
</a>
</g>
</g>
<!-- Node13&#45;&gt;Node2 -->
<g id="edge15_Node000013_Node000002" class="edge">
<title>Node13&#45;&gt;Node2</title>
<g id="a_edge15_Node000013_Node000002"><a xlink:title=" ">
<path fill="none" stroke="#63b8ff" d="M253.48,-122.77C256.83,-122.14 260.14,-121.55 263.38,-121 389.27,-99.74 423.88,-113.32 548.38,-85 551.42,-84.31 554.57,-83.48 557.69,-82.58"/>
<polygon fill="#63b8ff" stroke="#63b8ff" points="558.99,-85.84 567.5,-79.53 556.91,-79.16 558.99,-85.84"/>
</a>
</g>
</g>
<!-- Node13&#45;&gt;Node3 -->
<g id="edge16_Node000013_Node000003" class="edge">
<title>Node13&#45;&gt;Node3</title>
<g id="a_edge16_Node000013_Node000003"><a xlink:title=" ">
<path fill="none" stroke="#63b8ff" d="M167.53,-120.95C143.99,-109.88 111.44,-94.56 88.61,-83.82"/>
<polygon fill="#63b8ff" stroke="#63b8ff" points="90.01,-80.61 79.47,-79.52 87.03,-86.94 90.01,-80.61"/>
</a>
</g>
</g>
<!-- Node13&#45;&gt;Node4 -->
<g id="edge17_Node000013_Node000004" class="edge">
<title>Node13&#45;&gt;Node4</title>
<g id="a_edge17_Node000013_Node000004"><a xlink:title=" ">
<path fill="none" stroke="#63b8ff" d="M253.51,-122.9C256.84,-122.24 260.15,-121.6 263.38,-121 362.07,-102.58 390.23,-113.91 486.38,-85 488.01,-84.51 489.67,-83.95 491.33,-83.35"/>
<polygon fill="#63b8ff" stroke="#63b8ff" points="492.71,-86.56 500.63,-79.53 490.05,-80.09 492.71,-86.56"/>
</a>
</g>
</g>
<!-- Node13&#45;&gt;Node5 -->
<g id="edge18_Node000013_Node000005" class="edge">
<title>Node13&#45;&gt;Node5</title>
<g id="a_edge18_Node000013_Node000005"><a xlink:title=" ">
<path fill="none" stroke="#63b8ff" d="M211.8,-120.8C221.93,-110.82 235.51,-97.46 246.04,-87.09"/>
<polygon fill="#63b8ff" stroke="#63b8ff" points="248.72,-89.35 253.39,-79.84 243.81,-84.37 248.72,-89.35"/>
</a>
</g>
</g>
<!-- Node13&#45;&gt;Node6 -->
<g id="edge19_Node000013_Node000006" class="edge">
<title>Node13&#45;&gt;Node6</title>
<g id="a_edge19_Node000013_Node000006"><a xlink:title=" ">
<path fill="none" stroke="#63b8ff" d="M196.66,-120.91C196.56,-102.94 199.31,-72.15 217.38,-55 243.18,-30.51 341.69,-18.64 400.44,-13.63"/>
<polygon fill="#63b8ff" stroke="#63b8ff" points="400.89,-17.1 410.57,-12.8 400.32,-10.13 400.89,-17.1"/>
</a>
</g>
</g>
<!-- Node13&#45;&gt;Node7 -->
<g id="edge20_Node000013_Node000007" class="edge">
<title>Node13&#45;&gt;Node7</title>
<g id="a_edge20_Node000013_Node000007"><a xlink:title=" ">
<path fill="none" stroke="#63b8ff" d="M184.73,-120.8C175.93,-110.92 164.17,-97.72 154.97,-87.39"/>
<polygon fill="#63b8ff" stroke="#63b8ff" points="157.52,-84.98 148.25,-79.84 152.29,-89.64 157.52,-84.98"/>
</a>
</g>
</g>
<!-- Node15 -->
<g id="Node000015" class="node">
<title>Node15</title>
<g id="a_Node000015"><a xlink:href="../../da/de0/traceful__exception_8hpp.html" target="_top" xlink:title="Exception that remembers the backtrace at the point of its construction.">
<polygon fill="white" stroke="#666666" points="870.38,-151 752.38,-151 752.38,-121 870.38,-121 870.38,-151"/>
<text text-anchor="start" x="760.38" y="-139" font-family="Helvetica,sans-Serif" font-size="10.00">userver/utils/traceful</text>
<text text-anchor="middle" x="811.38" y="-128" font-family="Helvetica,sans-Serif" font-size="10.00">_exception.hpp</text>
</a>
</g>
</g>
<!-- Node14&#45;&gt;Node15 -->
<g id="edge22_Node000014_Node000015" class="edge">
<title>Node14&#45;&gt;Node15</title>
<g id="a_edge22_Node000014_Node000015"><a xlink:title=" ">
<path fill="none" stroke="#63b8ff" d="M812.93,-186.8C812.7,-179.34 812.41,-169.99 812.14,-161.41"/>
<polygon fill="#63b8ff" stroke="#63b8ff" points="815.63,-161.05 811.82,-151.16 808.63,-161.27 815.63,-161.05"/>
</a>
</g>
</g>
<!-- Node15&#45;&gt;Node2 -->
<g id="edge23_Node000015_Node000002" class="edge">
<title>Node15&#45;&gt;Node2</title>
<g id="a_edge23_Node000015_Node000002"><a xlink:title=" ">
<path fill="none" stroke="#63b8ff" d="M761.84,-120.9C727,-110.96 679.31,-97.27 637.38,-85 634.62,-84.19 631.77,-83.36 628.9,-82.51"/>
<polygon fill="#63b8ff" stroke="#63b8ff" points="629.78,-79.12 619.2,-79.63 627.79,-85.83 629.78,-79.12"/>
</a>
</g>
</g>
<!-- Node15&#45;&gt;Node4 -->
<g id="edge24_Node000015_Node000004" class="edge">
<title>Node15&#45;&gt;Node4</title>
<g id="a_edge24_Node000015_Node000004"><a xlink:title=" ">
<path fill="none" stroke="#63b8ff" d="M752.18,-127.57C698.47,-119.91 617.49,-106.11 549.38,-85 547.74,-84.49 546.08,-83.93 544.42,-83.33"/>
<polygon fill="#63b8ff" stroke="#63b8ff" points="545.63,-80.04 535.05,-79.57 543.03,-86.54 545.63,-80.04"/>
</a>
</g>
</g>
<!-- Node15&#45;&gt;Node6 -->
<g id="edge25_Node000015_Node000006" class="edge">
<title>Node15&#45;&gt;Node6</title>
<g id="a_edge25_Node000015_Node000006"><a xlink:title=" ">
<path fill="none" stroke="#63b8ff" d="M760.17,-120.95C732.92,-112.44 699.36,-100.26 671.38,-85 652.18,-74.53 652.12,-64.41 632.38,-55 586.47,-33.13 528.96,-21.53 489.92,-15.72"/>
<polygon fill="#63b8ff" stroke="#63b8ff" points="490.31,-12.24 479.92,-14.3 489.33,-19.17 490.31,-12.24"/>
</a>
</g>
</g>
<!-- Node16 -->
<g id="Node000016" class="node">
<title>Node16</title>
<g id="a_Node000016"><a xlink:title=" ">
<polygon fill="#e0e0e0" stroke="#999999" points="758.88,-79.5 679.88,-79.5 679.88,-60.5 758.88,-60.5 758.88,-79.5"/>
<text text-anchor="middle" x="719.38" y="-67.5" font-family="Helvetica,sans-Serif" font-size="10.00">fmt/format.h</text>
</a>
</g>
</g>
<!-- Node15&#45;&gt;Node16 -->
<g id="edge26_Node000015_Node000016" class="edge">
<title>Node15&#45;&gt;Node16</title>
<g id="a_edge26_Node000015_Node000016"><a xlink:title=" ">
<path fill="none" stroke="#63b8ff" d="M790.96,-120.8C775.82,-110.27 755.27,-95.97 740.07,-85.4"/>
<polygon fill="#63b8ff" stroke="#63b8ff" points="742.03,-82.5 731.82,-79.66 738.03,-88.24 742.03,-82.5"/>
</a>
</g>
</g>
<!-- Node17 -->
<g id="Node000017" class="node">
<title>Node17</title>
<g id="a_Node000017"><a xlink:title=" ">
<polygon fill="#e0e0e0" stroke="#999999" points="929.38,-85 777.38,-85 777.38,-55 929.38,-55 929.38,-85"/>
<text text-anchor="start" x="785.38" y="-73" font-family="Helvetica,sans-Serif" font-size="10.00">boost/stacktrace/stacktrace</text>
<text text-anchor="middle" x="853.38" y="-62" font-family="Helvetica,sans-Serif" font-size="10.00">_fwd.hpp</text>
</a>
</g>
</g>
<!-- Node15&#45;&gt;Node17 -->
<g id="edge27_Node000015_Node000017" class="edge">
<title>Node15&#45;&gt;Node17</title>
<g id="a_edge27_Node000015_Node000017"><a xlink:title=" ">
<path fill="none" stroke="#63b8ff" d="M820.7,-120.8C825.92,-112.84 832.55,-102.74 838.47,-93.71"/>
<polygon fill="#63b8ff" stroke="#63b8ff" points="841.52,-95.44 844.08,-85.16 835.67,-91.6 841.52,-95.44"/>
</a>
</g>
</g>
<!-- Node18 -->
<g id="Node000018" class="node">
<title>Node18</title>
<g id="a_Node000018"><a xlink:href="../../d2/d84/select_8hpp.html" target="_top" xlink:title="Utilities for selection of platform specific values.">
<polygon fill="white" stroke="#666666" points="1099.38,-79.5 947.38,-79.5 947.38,-60.5 1099.38,-60.5 1099.38,-79.5"/>
<text text-anchor="middle" x="1023.38" y="-67.5" font-family="Helvetica,sans-Serif" font-size="10.00">userver/compiler/select.hpp</text>
</a>
</g>
</g>
<!-- Node15&#45;&gt;Node18 -->
<g id="edge28_Node000015_Node000018" class="edge">
<title>Node15&#45;&gt;Node18</title>
<g id="a_edge28_Node000015_Node000018"><a xlink:title=" ">
<path fill="none" stroke="#63b8ff" d="M857.9,-120.95C896.06,-109.43 949.43,-93.32 985.14,-82.54"/>
<polygon fill="#63b8ff" stroke="#63b8ff" points="986.6,-85.76 995.16,-79.52 984.58,-79.06 986.6,-85.76"/>
</a>
</g>
</g>
<!-- Node20 -->
<g id="Node000020" class="node">
<title>Node20</title>
<g id="a_Node000020"><a xlink:href="../../d5/d02/fast__pimpl_8hpp.html" target="_top" xlink:title="Implements pimpl idiom without dynamic memory allocation.">
<polygon fill="white" stroke="#666666" points="1216.88,-85 1117.88,-85 1117.88,-55 1216.88,-55 1216.88,-85"/>
<text text-anchor="start" x="1125.88" y="-73" font-family="Helvetica,sans-Serif" font-size="10.00">userver/utils/fast</text>
<text text-anchor="middle" x="1167.38" y="-62" font-family="Helvetica,sans-Serif" font-size="10.00">_pimpl.hpp</text>
</a>
</g>
</g>
<!-- Node15&#45;&gt;Node20 -->
<g id="edge30_Node000015_Node000020" class="edge">
<title>Node15&#45;&gt;Node20</title>
<g id="a_edge30_Node000015_Node000020"><a xlink:title=" ">
<path fill="none" stroke="#63b8ff" d="M870.48,-126.23C928.39,-117.37 1019.38,-102.74 1107.91,-85.01"/>
<polygon fill="#63b8ff" stroke="#63b8ff" points="1108.74,-88.41 1117.85,-83 1107.36,-81.55 1108.74,-88.41"/>
</a>
</g>
</g>
<!-- Node19 -->
<g id="Node000019" class="node">
<title>Node19</title>
<g id="a_Node000019"><a xlink:title=" ">
<polygon fill="#e0e0e0" stroke="#999999" points="1074.88,-19 1021.88,-19 1021.88,0 1074.88,0 1074.88,-19"/>
<text text-anchor="middle" x="1048.38" y="-7" font-family="Helvetica,sans-Serif" font-size="10.00">cstddef</text>
</a>
</g>
</g>
<!-- Node18&#45;&gt;Node19 -->
<g id="edge29_Node000018_Node000019" class="edge">
<title>Node18&#45;&gt;Node19</title>
<g id="a_edge29_Node000018_Node000019"><a xlink:title=" ">
<path fill="none" stroke="#63b8ff" d="M1027.06,-60.37C1030.65,-51.99 1036.19,-39.01 1040.73,-28.39"/>
<polygon fill="#63b8ff" stroke="#63b8ff" points="1043.96,-29.74 1044.67,-19.17 1037.52,-26.99 1043.96,-29.74"/>
</a>
</g>
</g>
<!-- Node20&#45;&gt;Node6 -->
<g id="edge33_Node000020_Node000006" class="edge">
<title>Node20&#45;&gt;Node6</title>
<g id="a_edge33_Node000020_Node000006"><a xlink:title=" ">
<path fill="none" stroke="#63b8ff" d="M1117.6,-56.57C1114.49,-55.99 1111.39,-55.46 1108.38,-55 877.66,-20.13 597.64,-12.58 490.25,-10.95"/>
<polygon fill="#63b8ff" stroke="#63b8ff" points="490.15,-7.45 480.11,-10.81 490.05,-14.45 490.15,-7.45"/>
</a>
</g>
</g>
<!-- Node20&#45;&gt;Node19 -->
<g id="edge31_Node000020_Node000019" class="edge">
<title>Node20&#45;&gt;Node19</title>
<g id="a_edge31_Node000020_Node000019"><a xlink:title=" ">
<path fill="none" stroke="#63b8ff" d="M1138.87,-54.99C1119.46,-45.45 1093.94,-32.9 1074.95,-23.57"/>
<polygon fill="#63b8ff" stroke="#63b8ff" points="1076.47,-20.41 1065.95,-19.14 1073.38,-26.69 1076.47,-20.41"/>
</a>
</g>
</g>
<!-- Node21 -->
<g id="Node000021" class="node">
<title>Node21</title>
<g id="a_Node000021"><a xlink:title=" ">
<polygon fill="#e0e0e0" stroke="#999999" points="1155.88,-19 1118.88,-19 1118.88,0 1155.88,0 1155.88,-19"/>
<text text-anchor="middle" x="1137.38" y="-7" font-family="Helvetica,sans-Serif" font-size="10.00">new</text>
</a>
</g>
</g>
<!-- Node20&#45;&gt;Node21 -->
<g id="edge32_Node000020_Node000021" class="edge">
<title>Node20&#45;&gt;Node21</title>
<g id="a_edge32_Node000020_Node000021"><a xlink:title=" ">
<path fill="none" stroke="#63b8ff" d="M1160.11,-54.84C1156.03,-46.87 1150.88,-36.84 1146.52,-28.33"/>
<polygon fill="#63b8ff" stroke="#63b8ff" points="1149.55,-26.57 1141.87,-19.27 1143.32,-29.76 1149.55,-26.57"/>
</a>
</g>
</g>
<!-- Node22 -->
<g id="Node000022" class="node">
<title>Node22</title>
<g id="a_Node000022"><a xlink:title=" ">
<polygon fill="#e0e0e0" stroke="#999999" points="1218.88,-19 1173.88,-19 1173.88,0 1218.88,0 1218.88,-19"/>
<text text-anchor="middle" x="1196.38" y="-7" font-family="Helvetica,sans-Serif" font-size="10.00">utility</text>
</a>
</g>
</g>
<!-- Node20&#45;&gt;Node22 -->
<g id="edge34_Node000020_Node000022" class="edge">
<title>Node20&#45;&gt;Node22</title>
<g id="a_edge34_Node000020_Node000022"><a xlink:title=" ">
<path fill="none" stroke="#63b8ff" d="M1174.4,-54.84C1178.35,-46.87 1183.32,-36.84 1187.54,-28.33"/>
<polygon fill="#63b8ff" stroke="#63b8ff" points="1190.72,-29.78 1192.03,-19.27 1184.45,-26.67 1190.72,-29.78"/>
</a>
</g>
</g>
</g>
</svg>
