<?xml version="1.0" encoding="UTF-8" standalone="no"?>
<!DOCTYPE svg PUBLIC "-//W3C//DTD SVG 1.1//EN"
 "http://www.w3.org/Graphics/SVG/1.1/DTD/svg11.dtd">
<!-- Generated by graphviz version 2.43.0 (0)
 -->
<!-- Title: userver/engine/task/local_variable.hpp Pages: 1 -->
<svg width="406pt" height="225pt"
 viewBox="0.00 0.00 405.86 225.00" xmlns="http://www.w3.org/2000/svg" xmlns:xlink="http://www.w3.org/1999/xlink">
<g id="graph0" class="graph" transform="scale(1 1) rotate(0) translate(4 221)">
<title>userver/engine/task/local_variable.hpp</title>
<!-- Node1 -->
<g id="Node000001" class="node">
<title>Node1</title>
<g id="a_Node000001"><a xlink:title="TaskLocalVariable is a per&#45;coroutine variable of arbitrary type.">
<polygon fill="#999999" stroke="#666666" points="371.86,-217 258.86,-217 258.86,-187 371.86,-187 371.86,-217"/>
<text text-anchor="start" x="266.86" y="-205" font-family="Helvetica,sans-Serif" font-size="10.00">userver/engine/task</text>
<text text-anchor="middle" x="315.36" y="-194" font-family="Helvetica,sans-Serif" font-size="10.00">/local_variable.hpp</text>
</a>
</g>
</g>
<!-- Node2 -->
<g id="Node000002" class="node">
<title>Node2</title>
<g id="a_Node000002"><a xlink:title=" ">
<polygon fill="#e0e0e0" stroke="#999999" points="397.86,-19 328.86,-19 328.86,0 397.86,0 397.86,-19"/>
<text text-anchor="middle" x="363.36" y="-7" font-family="Helvetica,sans-Serif" font-size="10.00">type_traits</text>
</a>
</g>
</g>
<!-- Node1&#45;&gt;Node2 -->
<g id="edge1_Node000001_Node000002" class="edge">
<title>Node1&#45;&gt;Node2</title>
<g id="a_edge1_Node000001_Node000002"><a xlink:title=" ">
<path fill="none" stroke="#63b8ff" d="M323.66,-186.97C335.67,-165.77 357.34,-123.87 365.36,-85 369.2,-66.42 367.98,-44.68 366.25,-29.5"/>
<polygon fill="#63b8ff" stroke="#63b8ff" points="369.68,-28.78 364.89,-19.33 362.74,-29.71 369.68,-28.78"/>
</a>
</g>
</g>
<!-- Node3 -->
<g id="Node000003" class="node">
<title>Node3</title>
<g id="a_Node000003"><a xlink:href="../../df/ddb/task__local__storage_8hpp_source.html" target="_top" xlink:title=" ">
<polygon fill="white" stroke="#666666" points="296.36,-151 164.36,-151 164.36,-121 296.36,-121 296.36,-151"/>
<text text-anchor="start" x="172.36" y="-139" font-family="Helvetica,sans-Serif" font-size="10.00">userver/engine/impl</text>
<text text-anchor="middle" x="230.36" y="-128" font-family="Helvetica,sans-Serif" font-size="10.00">/task_local_storage.hpp</text>
</a>
</g>
</g>
<!-- Node1&#45;&gt;Node3 -->
<g id="edge2_Node000001_Node000003" class="edge">
<title>Node1&#45;&gt;Node3</title>
<g id="a_edge2_Node000001_Node000003"><a xlink:title=" ">
<path fill="none" stroke="#63b8ff" d="M296.5,-186.8C284.95,-178.1 269.97,-166.82 257.2,-157.2"/>
<polygon fill="#63b8ff" stroke="#63b8ff" points="259.27,-154.38 249.18,-151.16 255.06,-159.98 259.27,-154.38"/>
</a>
</g>
</g>
<!-- Node3&#45;&gt;Node2 -->
<g id="edge6_Node000003_Node000002" class="edge">
<title>Node3&#45;&gt;Node2</title>
<g id="a_edge6_Node000003_Node000002"><a xlink:title=" ">
<path fill="none" stroke="#63b8ff" d="M288.42,-120.96C308.7,-113.38 329.96,-101.97 344.36,-85 357.56,-69.45 361.77,-45.93 363.02,-29.49"/>
<polygon fill="#63b8ff" stroke="#63b8ff" points="366.52,-29.58 363.49,-19.43 359.53,-29.25 366.52,-29.58"/>
</a>
</g>
</g>
<!-- Node4 -->
<g id="Node000004" class="node">
<title>Node4</title>
<g id="a_Node000004"><a xlink:title=" ">
<polygon fill="#e0e0e0" stroke="#999999" points="65.36,-79.5 15.36,-79.5 15.36,-60.5 65.36,-60.5 65.36,-79.5"/>
<text text-anchor="middle" x="40.36" y="-67.5" font-family="Helvetica,sans-Serif" font-size="10.00">atomic</text>
</a>
</g>
</g>
<!-- Node3&#45;&gt;Node4 -->
<g id="edge3_Node000003_Node000004" class="edge">
<title>Node3&#45;&gt;Node4</title>
<g id="a_edge3_Node000003_Node000004"><a xlink:title=" ">
<path fill="none" stroke="#63b8ff" d="M183.96,-120.94C153.02,-111.35 111.54,-98.05 75.36,-85 73.76,-84.42 72.11,-83.81 70.45,-83.19"/>
<polygon fill="#63b8ff" stroke="#63b8ff" points="71.59,-79.88 61,-79.53 69.06,-86.4 71.59,-79.88"/>
</a>
</g>
</g>
<!-- Node5 -->
<g id="Node000005" class="node">
<title>Node5</title>
<g id="a_Node000005"><a xlink:title=" ">
<polygon fill="#e0e0e0" stroke="#999999" points="54.86,-19 1.86,-19 1.86,0 54.86,0 54.86,-19"/>
<text text-anchor="middle" x="28.36" y="-7" font-family="Helvetica,sans-Serif" font-size="10.00">cstddef</text>
</a>
</g>
</g>
<!-- Node3&#45;&gt;Node5 -->
<g id="edge4_Node000003_Node000005" class="edge">
<title>Node3&#45;&gt;Node5</title>
<g id="a_edge4_Node000003_Node000005"><a xlink:title=" ">
<path fill="none" stroke="#63b8ff" d="M164.27,-129.27C105.49,-122.64 25.89,-109.37 6.36,-85 -6.89,-68.46 4.42,-44.15 15.13,-27.85"/>
<polygon fill="#63b8ff" stroke="#63b8ff" points="18.26,-29.48 21.18,-19.29 12.55,-25.44 18.26,-29.48"/>
</a>
</g>
</g>
<!-- Node6 -->
<g id="Node000006" class="node">
<title>Node6</title>
<g id="a_Node000006"><a xlink:title=" ">
<polygon fill="#e0e0e0" stroke="#999999" points="259.36,-79.5 201.36,-79.5 201.36,-60.5 259.36,-60.5 259.36,-79.5"/>
<text text-anchor="middle" x="230.36" y="-67.5" font-family="Helvetica,sans-Serif" font-size="10.00">memory</text>
</a>
</g>
</g>
<!-- Node3&#45;&gt;Node6 -->
<g id="edge5_Node000003_Node000006" class="edge">
<title>Node3&#45;&gt;Node6</title>
<g id="a_edge5_Node000003_Node000006"><a xlink:title=" ">
<path fill="none" stroke="#63b8ff" d="M230.36,-120.8C230.36,-111.7 230.36,-99.79 230.36,-89.9"/>
<polygon fill="#63b8ff" stroke="#63b8ff" points="233.86,-89.84 230.36,-79.84 226.86,-89.84 233.86,-89.84"/>
</a>
</g>
</g>
<!-- Node7 -->
<g id="Node000007" class="node">
<title>Node7</title>
<g id="a_Node000007"><a xlink:title=" ">
<polygon fill="#e0e0e0" stroke="#999999" points="334.86,-79.5 277.86,-79.5 277.86,-60.5 334.86,-60.5 334.86,-79.5"/>
<text text-anchor="middle" x="306.36" y="-67.5" font-family="Helvetica,sans-Serif" font-size="10.00">typeinfo</text>
</a>
</g>
</g>
<!-- Node3&#45;&gt;Node7 -->
<g id="edge7_Node000003_Node000007" class="edge">
<title>Node3&#45;&gt;Node7</title>
<g id="a_edge7_Node000003_Node000007"><a xlink:title=" ">
<path fill="none" stroke="#63b8ff" d="M247.23,-120.8C259.31,-110.62 275.57,-96.93 287.98,-86.48"/>
<polygon fill="#63b8ff" stroke="#63b8ff" points="290.47,-88.96 295.86,-79.84 285.96,-83.61 290.47,-88.96"/>
</a>
</g>
</g>
<!-- Node8 -->
<g id="Node000008" class="node">
<title>Node8</title>
<g id="a_Node000008"><a xlink:href="../../d5/d02/fast__pimpl_8hpp.html" target="_top" xlink:title="Implements pimpl idiom without dynamic memory allocation.">
<polygon fill="white" stroke="#666666" points="182.86,-85 83.86,-85 83.86,-55 182.86,-55 182.86,-85"/>
<text text-anchor="start" x="91.86" y="-73" font-family="Helvetica,sans-Serif" font-size="10.00">userver/utils/fast</text>
<text text-anchor="middle" x="133.36" y="-62" font-family="Helvetica,sans-Serif" font-size="10.00">_pimpl.hpp</text>
</a>
</g>
</g>
<!-- Node3&#45;&gt;Node8 -->
<g id="edge8_Node000003_Node000008" class="edge">
<title>Node3&#45;&gt;Node8</title>
<g id="a_edge8_Node000003_Node000008"><a xlink:title=" ">
<path fill="none" stroke="#63b8ff" d="M208.84,-120.8C195.53,-112.01 178.24,-100.61 163.57,-90.93"/>
<polygon fill="#63b8ff" stroke="#63b8ff" points="165.11,-87.75 154.83,-85.16 161.25,-93.59 165.11,-87.75"/>
</a>
</g>
</g>
<!-- Node8&#45;&gt;Node2 -->
<g id="edge11_Node000008_Node000002" class="edge">
<title>Node8&#45;&gt;Node2</title>
<g id="a_edge11_Node000008_Node000002"><a xlink:title=" ">
<path fill="none" stroke="#63b8ff" d="M182.99,-56.38C223.72,-46.02 280.84,-31.49 319.81,-21.58"/>
<polygon fill="#63b8ff" stroke="#63b8ff" points="320.98,-24.89 329.8,-19.04 319.25,-18.11 320.98,-24.89"/>
</a>
</g>
</g>
<!-- Node8&#45;&gt;Node5 -->
<g id="edge9_Node000008_Node000005" class="edge">
<title>Node8&#45;&gt;Node5</title>
<g id="a_edge9_Node000008_Node000005"><a xlink:title=" ">
<path fill="none" stroke="#63b8ff" d="M108.21,-54.99C91.48,-45.66 69.6,-33.47 52.97,-24.21"/>
<polygon fill="#63b8ff" stroke="#63b8ff" points="54.31,-20.95 43.87,-19.14 50.9,-27.06 54.31,-20.95"/>
</a>
</g>
</g>
<!-- Node9 -->
<g id="Node000009" class="node">
<title>Node9</title>
<g id="a_Node000009"><a xlink:title=" ">
<polygon fill="#e0e0e0" stroke="#999999" points="121.86,-19 84.86,-19 84.86,0 121.86,0 121.86,-19"/>
<text text-anchor="middle" x="103.36" y="-7" font-family="Helvetica,sans-Serif" font-size="10.00">new</text>
</a>
</g>
</g>
<!-- Node8&#45;&gt;Node9 -->
<g id="edge10_Node000008_Node000009" class="edge">
<title>Node8&#45;&gt;Node9</title>
<g id="a_edge10_Node000008_Node000009"><a xlink:title=" ">
<path fill="none" stroke="#63b8ff" d="M126.1,-54.84C122.01,-46.87 116.87,-36.84 112.51,-28.33"/>
<polygon fill="#63b8ff" stroke="#63b8ff" points="115.54,-26.57 107.86,-19.27 109.31,-29.76 115.54,-26.57"/>
</a>
</g>
</g>
<!-- Node10 -->
<g id="Node000010" class="node">
<title>Node10</title>
<g id="a_Node000010"><a xlink:title=" ">
<polygon fill="#e0e0e0" stroke="#999999" points="184.86,-19 139.86,-19 139.86,0 184.86,0 184.86,-19"/>
<text text-anchor="middle" x="162.36" y="-7" font-family="Helvetica,sans-Serif" font-size="10.00">utility</text>
</a>
</g>
</g>
<!-- Node8&#45;&gt;Node10 -->
<g id="edge12_Node000008_Node000010" class="edge">
<title>Node8&#45;&gt;Node10</title>
<g id="a_edge12_Node000008_Node000010"><a xlink:title=" ">
<path fill="none" stroke="#63b8ff" d="M140.38,-54.84C144.34,-46.87 149.31,-36.84 153.52,-28.33"/>
<polygon fill="#63b8ff" stroke="#63b8ff" points="156.71,-29.78 158.02,-19.27 150.44,-26.67 156.71,-29.78"/>
</a>
</g>
</g>
</g>
</svg>
