<?xml version="1.0" encoding="UTF-8" standalone="no"?>
<!DOCTYPE svg PUBLIC "-//W3C//DTD SVG 1.1//EN"
 "http://www.w3.org/Graphics/SVG/1.1/DTD/svg11.dtd">
<!-- Generated by graphviz version 2.43.0 (0)
 -->
<!-- Title: components::DynamicConfigUpdatesSinkBase Pages: 1 -->
<svg width="215pt" height="203pt"
 viewBox="0.00 0.00 215.00 203.00" xmlns="http://www.w3.org/2000/svg" xmlns:xlink="http://www.w3.org/1999/xlink">
<g id="graph0" class="graph" transform="scale(1 1) rotate(0) translate(4 199)">
<title>components::DynamicConfigUpdatesSinkBase</title>
<!-- Node1 -->
<g id="Node000001" class="node">
<title>Node1</title>
<g id="a_Node000001"><a xlink:title="Base class for components acting as dynamic config updates sinks.">
<polygon fill="#999999" stroke="#666666" points="182,-85 25,-85 25,-55 182,-55 182,-85"/>
<text text-anchor="start" x="33" y="-73" font-family="Helvetica,sans-Serif" font-size="10.00">components::DynamicConfig</text>
<text text-anchor="middle" x="103.5" y="-62" font-family="Helvetica,sans-Serif" font-size="10.00">UpdatesSinkBase</text>
</a>
</g>
</g>
<!-- Node4 -->
<g id="Node000004" class="node">
<title>Node4</title>
<g id="a_Node000004"><a xlink:href="../../dd/d1a/classcomponents_1_1DynamicConfig.html" target="_top" xlink:title="Component that stores the dynamic config.">
<polygon fill="white" stroke="#666666" points="182,-19 25,-19 25,0 182,0 182,-19"/>
<text text-anchor="middle" x="103.5" y="-7" font-family="Helvetica,sans-Serif" font-size="10.00">components::DynamicConfig</text>
</a>
</g>
</g>
<!-- Node1&#45;&gt;Node4 -->
<g id="edge3_Node000001_Node000004" class="edge">
<title>Node1&#45;&gt;Node4</title>
<g id="a_edge3_Node000001_Node000004"><a xlink:title=" ">
<path fill="none" stroke="#63b8ff" d="M103.5,-44.75C103.5,-35.72 103.5,-26.03 103.5,-19.27"/>
<polygon fill="#63b8ff" stroke="#63b8ff" points="100,-44.84 103.5,-54.84 107,-44.84 100,-44.84"/>
</a>
</g>
</g>
<!-- Node2 -->
<g id="Node000002" class="node">
<title>Node2</title>
<g id="a_Node000002"><a xlink:href="../../d5/d69/classcomponents_1_1LoggableComponentBase.html" target="_top" xlink:title="Base class for all application components, it depends on components::Logger and components::Tracer.">
<polygon fill="white" stroke="#666666" points="207,-140 0,-140 0,-121 207,-121 207,-140"/>
<text text-anchor="middle" x="103.5" y="-128" font-family="Helvetica,sans-Serif" font-size="10.00">components::LoggableComponentBase</text>
</a>
</g>
</g>
<!-- Node2&#45;&gt;Node1 -->
<g id="edge1_Node000001_Node000002" class="edge">
<title>Node2&#45;&gt;Node1</title>
<g id="a_edge1_Node000001_Node000002"><a xlink:title=" ">
<path fill="none" stroke="#63b8ff" d="M103.5,-110.65C103.5,-102.36 103.5,-92.78 103.5,-85.11"/>
<polygon fill="#63b8ff" stroke="#63b8ff" points="100,-110.87 103.5,-120.87 107,-110.87 100,-110.87"/>
</a>
</g>
</g>
<!-- Node3 -->
<g id="Node000003" class="node">
<title>Node3</title>
<g id="a_Node000003"><a xlink:title=" ">
<polygon fill="white" stroke="#666666" points="199,-195 8,-195 8,-176 199,-176 199,-195"/>
<text text-anchor="middle" x="103.5" y="-183" font-family="Helvetica,sans-Serif" font-size="10.00">components::impl::ComponentBase</text>
</a>
</g>
</g>
<!-- Node3&#45;&gt;Node2 -->
<g id="edge2_Node000002_Node000003" class="edge">
<title>Node3&#45;&gt;Node2</title>
<g id="a_edge2_Node000002_Node000003"><a xlink:title=" ">
<path fill="none" stroke="#63b8ff" d="M103.5,-165.66C103.5,-156.93 103.5,-146.99 103.5,-140.09"/>
<polygon fill="#63b8ff" stroke="#63b8ff" points="100,-165.75 103.5,-175.75 107,-165.75 100,-165.75"/>
</a>
</g>
</g>
</g>
</svg>
