<?xml version="1.0" encoding="UTF-8" standalone="no"?>
<!DOCTYPE svg PUBLIC "-//W3C//DTD SVG 1.1//EN"
 "http://www.w3.org/Graphics/SVG/1.1/DTD/svg11.dtd">
<!-- Generated by graphviz version 2.43.0 (0)
 -->
<!-- Title: server::handlers::LogLevel Pages: 1 -->
<svg width="337pt" height="272pt"
 viewBox="0.00 0.00 337.00 272.00" xmlns="http://www.w3.org/2000/svg" xmlns:xlink="http://www.w3.org/1999/xlink">
<g id="graph0" class="graph" transform="scale(1 1) rotate(0) translate(4 268)">
<title>server::handlers::LogLevel</title>
<!-- Node1 -->
<g id="Node000001" class="node">
<title>Node1</title>
<g id="a_Node000001"><a xlink:title="Handler that controls logging levels of all the loggers.">
<polygon fill="#999999" stroke="#666666" points="257,-19 112,-19 112,0 257,0 257,-19"/>
<text text-anchor="middle" x="184.5" y="-7" font-family="Helvetica,sans-Serif" font-size="10.00">server::handlers::LogLevel</text>
</a>
</g>
</g>
<!-- Node2 -->
<g id="Node000002" class="node">
<title>Node2</title>
<g id="a_Node000002"><a xlink:href="../../d6/d36/classserver_1_1handlers_1_1HttpHandlerBase.html" target="_top" xlink:title="Base class for all the Userver HTTP Handlers.">
<polygon fill="white" stroke="#666666" points="199,-85 14,-85 14,-66 199,-66 199,-85"/>
<text text-anchor="middle" x="106.5" y="-73" font-family="Helvetica,sans-Serif" font-size="10.00">server::handlers::HttpHandlerBase</text>
</a>
</g>
</g>
<!-- Node2&#45;&gt;Node1 -->
<g id="edge1_Node000001_Node000002" class="edge">
<title>Node2&#45;&gt;Node1</title>
<g id="a_edge1_Node000001_Node000002"><a xlink:title=" ">
<path fill="none" stroke="#63b8ff" d="M124.8,-59.49C140.07,-46.96 161.3,-29.54 173.9,-19.2"/>
<polygon fill="#63b8ff" stroke="#63b8ff" points="122.53,-56.82 117.02,-65.87 126.97,-62.23 122.53,-56.82"/>
</a>
</g>
</g>
<!-- Node3 -->
<g id="Node000003" class="node">
<title>Node3</title>
<g id="a_Node000003"><a xlink:href="../../d1/ddc/classserver_1_1handlers_1_1HandlerBase.html" target="_top" xlink:title="Base class for the request handlers.">
<polygon fill="white" stroke="#666666" points="185.5,-146.5 21.5,-146.5 21.5,-127.5 185.5,-127.5 185.5,-146.5"/>
<text text-anchor="middle" x="103.5" y="-134.5" font-family="Helvetica,sans-Serif" font-size="10.00">server::handlers::HandlerBase</text>
</a>
</g>
</g>
<!-- Node3&#45;&gt;Node2 -->
<g id="edge2_Node000002_Node000003" class="edge">
<title>Node3&#45;&gt;Node2</title>
<g id="a_edge2_Node000002_Node000003"><a xlink:title=" ">
<path fill="none" stroke="#63b8ff" d="M104.44,-117.32C104.99,-106.5 105.65,-93.4 106.07,-85.01"/>
<polygon fill="#63b8ff" stroke="#63b8ff" points="100.94,-117.31 103.93,-127.48 107.93,-117.66 100.94,-117.31"/>
</a>
</g>
</g>
<!-- Node4 -->
<g id="Node000004" class="node">
<title>Node4</title>
<g id="a_Node000004"><a xlink:href="../../d5/d69/classcomponents_1_1LoggableComponentBase.html" target="_top" xlink:title="Base class for all application components, it depends on components::Logger and components::Tracer.">
<polygon fill="white" stroke="#666666" points="207,-208 0,-208 0,-189 207,-189 207,-208"/>
<text text-anchor="middle" x="103.5" y="-196" font-family="Helvetica,sans-Serif" font-size="10.00">components::LoggableComponentBase</text>
</a>
</g>
</g>
<!-- Node4&#45;&gt;Node3 -->
<g id="edge3_Node000003_Node000004" class="edge">
<title>Node4&#45;&gt;Node3</title>
<g id="a_edge3_Node000003_Node000004"><a xlink:title=" ">
<path fill="none" stroke="#63b8ff" d="M103.5,-178.82C103.5,-168 103.5,-154.9 103.5,-146.51"/>
<polygon fill="#63b8ff" stroke="#63b8ff" points="100,-178.98 103.5,-188.98 107,-178.98 100,-178.98"/>
</a>
</g>
</g>
<!-- Node5 -->
<g id="Node000005" class="node">
<title>Node5</title>
<g id="a_Node000005"><a xlink:title=" ">
<polygon fill="white" stroke="#666666" points="199,-264 8,-264 8,-245 199,-245 199,-264"/>
<text text-anchor="middle" x="103.5" y="-252" font-family="Helvetica,sans-Serif" font-size="10.00">components::impl::ComponentBase</text>
</a>
</g>
</g>
<!-- Node5&#45;&gt;Node4 -->
<g id="edge4_Node000004_Node000005" class="edge">
<title>Node5&#45;&gt;Node4</title>
<g id="a_edge4_Node000004_Node000005"><a xlink:title=" ">
<path fill="none" stroke="#63b8ff" d="M103.5,-234.3C103.5,-225.41 103.5,-215.28 103.5,-208.25"/>
<polygon fill="#63b8ff" stroke="#63b8ff" points="100,-234.58 103.5,-244.58 107,-234.58 100,-234.58"/>
</a>
</g>
</g>
<!-- Node6 -->
<g id="Node000006" class="node">
<title>Node6</title>
<g id="a_Node000006"><a xlink:title=" ">
<polygon fill="white" stroke="#666666" points="312.5,-85 218.5,-85 218.5,-66 312.5,-66 312.5,-85"/>
<text text-anchor="middle" x="265.5" y="-73" font-family="Helvetica,sans-Serif" font-size="10.00">std::string_view</text>
</a>
</g>
</g>
<!-- Node6&#45;&gt;Node1 -->
<g id="edge5_Node000001_Node000006" class="edge">
<title>Node6&#45;&gt;Node1</title>
<g id="a_edge5_Node000001_Node000006"><a xlink:title=" ">
<path fill="none" stroke="#9a32cd" stroke-dasharray="5,2" d="M246.5,-59.49C230.64,-46.96 208.59,-29.54 195.51,-19.2"/>
<polygon fill="#9a32cd" stroke="#9a32cd" points="244.56,-62.42 254.58,-65.87 248.9,-56.92 244.56,-62.42"/>
</a>
</g>
<text text-anchor="middle" x="250" y="-40" font-family="Helvetica,sans-Serif" font-size="10.00" fill="grey"> kName</text>
</g>
<!-- Node7 -->
<g id="Node000007" class="node">
<title>Node7</title>
<g id="a_Node000007"><a xlink:title=" ">
<polygon fill="white" stroke="#666666" points="329,-152 204,-152 204,-122 329,-122 329,-152"/>
<text text-anchor="start" x="212" y="-140" font-family="Helvetica,sans-Serif" font-size="10.00">std::basic_string_view</text>
<text text-anchor="middle" x="266.5" y="-129" font-family="Helvetica,sans-Serif" font-size="10.00">&lt; Char &gt;</text>
</a>
</g>
</g>
<!-- Node7&#45;&gt;Node6 -->
<g id="edge6_Node000006_Node000007" class="edge">
<title>Node7&#45;&gt;Node6</title>
<g id="a_edge6_Node000006_Node000007"><a xlink:title=" ">
<path fill="none" stroke="#63b8ff" d="M266.09,-111.79C265.93,-102.36 265.76,-92.15 265.65,-85.16"/>
<polygon fill="#63b8ff" stroke="#63b8ff" points="262.6,-111.96 266.26,-121.9 269.59,-111.84 262.6,-111.96"/>
</a>
</g>
</g>
</g>
</svg>
