<?xml version="1.0" encoding="UTF-8" standalone="no"?>
<!DOCTYPE svg PUBLIC "-//W3C//DTD SVG 1.1//EN"
 "http://www.w3.org/Graphics/SVG/1.1/DTD/svg11.dtd">
<!-- Generated by graphviz version 2.43.0 (0)
 -->
<!-- Title: userver/utils/statistics/storage.hpp Pages: 1 -->
<svg width="1752pt" height="170pt"
 viewBox="0.00 0.00 1752.00 170.00" xmlns="http://www.w3.org/2000/svg" xmlns:xlink="http://www.w3.org/1999/xlink">
<g id="graph0" class="graph" transform="scale(1 1) rotate(0) translate(4 166)">
<title>userver/utils/statistics/storage.hpp</title>
<!-- Node1 -->
<g id="Node000001" class="node">
<title>Node1</title>
<g id="a_Node000001"><a xlink:title=" ">
<polygon fill="#999999" stroke="#666666" points="929,-162 804,-162 804,-132 929,-132 929,-162"/>
<text text-anchor="start" x="812" y="-150" font-family="Helvetica,sans-Serif" font-size="10.00">userver/utils/statistics</text>
<text text-anchor="middle" x="866.5" y="-139" font-family="Helvetica,sans-Serif" font-size="10.00">/storage.hpp</text>
</a>
</g>
</g>
<!-- Node2 -->
<g id="Node000002" class="node">
<title>Node2</title>
<g id="a_Node000002"><a xlink:href="../../d2/db2/statistics__storage_8hpp.html" target="_top" xlink:title="Component that keeps a utils::statistics::Storage storage for metrics.">
<polygon fill="white" stroke="#666666" points="127,-96 0,-96 0,-66 127,-66 127,-96"/>
<text text-anchor="start" x="8" y="-84" font-family="Helvetica,sans-Serif" font-size="10.00">userver/components</text>
<text text-anchor="middle" x="63.5" y="-73" font-family="Helvetica,sans-Serif" font-size="10.00">/statistics_storage.hpp</text>
</a>
</g>
</g>
<!-- Node1&#45;&gt;Node2 -->
<g id="edge1_Node000001_Node000002" class="edge">
<title>Node1&#45;&gt;Node2</title>
<g id="a_edge1_Node000001_Node000002"><a xlink:title=" ">
<path fill="none" stroke="#63b8ff" d="M793.28,-143.99C661.31,-139.7 374.97,-127.35 135.5,-96 132.72,-95.64 129.89,-95.23 127.03,-94.8"/>
<polygon fill="#63b8ff" stroke="#63b8ff" points="793.55,-147.5 803.66,-144.32 793.78,-140.5 793.55,-147.5"/>
</a>
</g>
</g>
<!-- Node3 -->
<g id="Node000003" class="node">
<title>Node3</title>
<g id="a_Node000003"><a xlink:href="../../d2/d2e/clickhouse_2include_2userver_2storages_2clickhouse_2component_8hpp.html" target="_top" xlink:title="ClickHouse client component.">
<polygon fill="white" stroke="#666666" points="298,-96 145,-96 145,-66 298,-66 298,-96"/>
<text text-anchor="start" x="153" y="-84" font-family="Helvetica,sans-Serif" font-size="10.00">userver/storages/clickhouse</text>
<text text-anchor="middle" x="221.5" y="-73" font-family="Helvetica,sans-Serif" font-size="10.00">/component.hpp</text>
</a>
</g>
</g>
<!-- Node1&#45;&gt;Node3 -->
<g id="edge2_Node000001_Node000003" class="edge">
<title>Node1&#45;&gt;Node3</title>
<g id="a_edge2_Node000001_Node000003"><a xlink:title=" ">
<path fill="none" stroke="#63b8ff" d="M793.86,-141.18C687.05,-133.72 481.46,-117.91 307.5,-96 304.5,-95.62 301.44,-95.22 298.35,-94.79"/>
<polygon fill="#63b8ff" stroke="#63b8ff" points="793.67,-144.68 803.89,-141.88 794.15,-137.7 793.67,-144.68"/>
</a>
</g>
</g>
<!-- Node5 -->
<g id="Node000005" class="node">
<title>Node5</title>
<g id="a_Node000005"><a xlink:href="../../d3/d31/service_8hpp.html" target="_top" xlink:title="Base classes for testing and benchmarking ugrpc service implementations in a simplified gRPC environm...">
<polygon fill="white" stroke="#666666" points="426.5,-96 316.5,-96 316.5,-66 426.5,-66 426.5,-96"/>
<text text-anchor="start" x="324.5" y="-84" font-family="Helvetica,sans-Serif" font-size="10.00">userver/ugrpc/tests</text>
<text text-anchor="middle" x="371.5" y="-73" font-family="Helvetica,sans-Serif" font-size="10.00">/service.hpp</text>
</a>
</g>
</g>
<!-- Node1&#45;&gt;Node5 -->
<g id="edge4_Node000001_Node000005" class="edge">
<title>Node1&#45;&gt;Node5</title>
<g id="a_edge4_Node000001_Node000005"><a xlink:title=" ">
<path fill="none" stroke="#63b8ff" d="M793.6,-139.78C707.64,-131.93 560.62,-116.89 435.5,-96 432.58,-95.51 429.6,-94.98 426.59,-94.42"/>
<polygon fill="#63b8ff" stroke="#63b8ff" points="793.5,-143.29 803.77,-140.7 794.13,-136.32 793.5,-143.29"/>
</a>
</g>
</g>
<!-- Node7 -->
<g id="Node000007" class="node">
<title>Node7</title>
<g id="a_Node000007"><a xlink:href="../../d5/d64/standalone__client_8hpp.html" target="_top" xlink:title="Sets up a mini gRPC client that is not directly associated with any userver gRPC server.">
<polygon fill="white" stroke="#666666" points="572,-96 445,-96 445,-66 572,-66 572,-96"/>
<text text-anchor="start" x="453" y="-84" font-family="Helvetica,sans-Serif" font-size="10.00">userver/ugrpc/tests</text>
<text text-anchor="middle" x="508.5" y="-73" font-family="Helvetica,sans-Serif" font-size="10.00">/standalone_client.hpp</text>
</a>
</g>
</g>
<!-- Node1&#45;&gt;Node7 -->
<g id="edge6_Node000001_Node000007" class="edge">
<title>Node1&#45;&gt;Node7</title>
<g id="a_edge6_Node000001_Node000007"><a xlink:title=" ">
<path fill="none" stroke="#63b8ff" d="M793.81,-133.68C735.97,-123.79 652.98,-109.38 580.5,-96 577.75,-95.49 574.93,-94.97 572.09,-94.43"/>
<polygon fill="#63b8ff" stroke="#63b8ff" points="793.51,-137.18 803.95,-135.42 794.68,-130.28 793.51,-137.18"/>
</a>
</g>
</g>
<!-- Node8 -->
<g id="Node000008" class="node">
<title>Node8</title>
<g id="a_Node000008"><a xlink:href="../../dd/da6/statistics_2graphite_8hpp.html" target="_top" xlink:title="Statistics output in Graphite format.">
<polygon fill="white" stroke="#666666" points="715,-96 590,-96 590,-66 715,-66 715,-96"/>
<text text-anchor="start" x="598" y="-84" font-family="Helvetica,sans-Serif" font-size="10.00">userver/utils/statistics</text>
<text text-anchor="middle" x="652.5" y="-73" font-family="Helvetica,sans-Serif" font-size="10.00">/graphite.hpp</text>
</a>
</g>
</g>
<!-- Node1&#45;&gt;Node8 -->
<g id="edge7_Node000001_Node000008" class="edge">
<title>Node1&#45;&gt;Node8</title>
<g id="a_edge7_Node000001_Node000008"><a xlink:title=" ">
<path fill="none" stroke="#63b8ff" d="M809.62,-128.99C775.19,-118.69 731.8,-105.72 699.35,-96.01"/>
<polygon fill="#63b8ff" stroke="#63b8ff" points="808.95,-132.44 819.54,-131.95 810.96,-125.74 808.95,-132.44"/>
</a>
</g>
</g>
<!-- Node9 -->
<g id="Node000009" class="node">
<title>Node9</title>
<g id="a_Node000009"><a xlink:href="../../d1/dc7/core_2include_2userver_2utils_2statistics_2json_8hpp.html" target="_top" xlink:title="Statistics output in JSON format.">
<polygon fill="white" stroke="#666666" points="858,-96 733,-96 733,-66 858,-66 858,-96"/>
<text text-anchor="start" x="741" y="-84" font-family="Helvetica,sans-Serif" font-size="10.00">userver/utils/statistics</text>
<text text-anchor="middle" x="795.5" y="-73" font-family="Helvetica,sans-Serif" font-size="10.00">/json.hpp</text>
</a>
</g>
</g>
<!-- Node1&#45;&gt;Node9 -->
<g id="edge8_Node000001_Node000009" class="edge">
<title>Node1&#45;&gt;Node9</title>
<g id="a_edge8_Node000001_Node000009"><a xlink:title=" ">
<path fill="none" stroke="#63b8ff" d="M843.12,-124.92C832.65,-115.49 820.58,-104.61 811.21,-96.16"/>
<polygon fill="#63b8ff" stroke="#63b8ff" points="840.97,-127.7 850.74,-131.8 845.66,-122.5 840.97,-127.7"/>
</a>
</g>
</g>
<!-- Node10 -->
<g id="Node000010" class="node">
<title>Node10</title>
<g id="a_Node000010"><a xlink:href="../../d7/d98/portability__info_8hpp.html" target="_top" xlink:title="Portability reports.">
<polygon fill="white" stroke="#666666" points="1001,-96 876,-96 876,-66 1001,-66 1001,-96"/>
<text text-anchor="start" x="884" y="-84" font-family="Helvetica,sans-Serif" font-size="10.00">userver/utils/statistics</text>
<text text-anchor="middle" x="938.5" y="-73" font-family="Helvetica,sans-Serif" font-size="10.00">/portability_info.hpp</text>
</a>
</g>
</g>
<!-- Node1&#45;&gt;Node10 -->
<g id="edge9_Node000001_Node000010" class="edge">
<title>Node1&#45;&gt;Node10</title>
<g id="a_edge9_Node000001_Node000010"><a xlink:title=" ">
<path fill="none" stroke="#63b8ff" d="M890.21,-124.92C900.83,-115.49 913.07,-104.61 922.57,-96.16"/>
<polygon fill="#63b8ff" stroke="#63b8ff" points="887.63,-122.54 882.48,-131.8 892.28,-127.77 887.63,-122.54"/>
</a>
</g>
</g>
<!-- Node11 -->
<g id="Node000011" class="node">
<title>Node11</title>
<g id="a_Node000011"><a xlink:href="../../d0/d09/pretty__format_8hpp.html" target="_top" xlink:title="Statistics output in human&#45;readable format.">
<polygon fill="white" stroke="#666666" points="1144,-96 1019,-96 1019,-66 1144,-66 1144,-96"/>
<text text-anchor="start" x="1027" y="-84" font-family="Helvetica,sans-Serif" font-size="10.00">userver/utils/statistics</text>
<text text-anchor="middle" x="1081.5" y="-73" font-family="Helvetica,sans-Serif" font-size="10.00">/pretty_format.hpp</text>
</a>
</g>
</g>
<!-- Node1&#45;&gt;Node11 -->
<g id="edge10_Node000001_Node000011" class="edge">
<title>Node1&#45;&gt;Node11</title>
<g id="a_edge10_Node000001_Node000011"><a xlink:title=" ">
<path fill="none" stroke="#63b8ff" d="M923.65,-128.99C958.24,-118.69 1001.83,-105.72 1034.43,-96.01"/>
<polygon fill="#63b8ff" stroke="#63b8ff" points="922.27,-125.75 913.68,-131.95 924.27,-132.46 922.27,-125.75"/>
</a>
</g>
</g>
<!-- Node12 -->
<g id="Node000012" class="node">
<title>Node12</title>
<g id="a_Node000012"><a xlink:href="../../da/d92/prometheus_8hpp.html" target="_top" xlink:title="Statistics output in Prometheus format.">
<polygon fill="white" stroke="#666666" points="1287,-96 1162,-96 1162,-66 1287,-66 1287,-96"/>
<text text-anchor="start" x="1170" y="-84" font-family="Helvetica,sans-Serif" font-size="10.00">userver/utils/statistics</text>
<text text-anchor="middle" x="1224.5" y="-73" font-family="Helvetica,sans-Serif" font-size="10.00">/prometheus.hpp</text>
</a>
</g>
</g>
<!-- Node1&#45;&gt;Node12 -->
<g id="edge11_Node000001_Node000012" class="edge">
<title>Node1&#45;&gt;Node12</title>
<g id="a_edge11_Node000001_Node000012"><a xlink:title=" ">
<path fill="none" stroke="#63b8ff" d="M939.45,-133.75C997.51,-123.89 1080.79,-109.5 1153.5,-96 1156.22,-95.5 1158.99,-94.97 1161.79,-94.44"/>
<polygon fill="#63b8ff" stroke="#63b8ff" points="938.55,-130.35 929.28,-135.48 939.72,-137.25 938.55,-130.35"/>
</a>
</g>
</g>
<!-- Node13 -->
<g id="Node000013" class="node">
<title>Node13</title>
<g id="a_Node000013"><a xlink:href="../../d4/d70/solomon_8hpp.html" target="_top" xlink:title="Statistics output in Solomon format.">
<polygon fill="white" stroke="#666666" points="1430,-96 1305,-96 1305,-66 1430,-66 1430,-96"/>
<text text-anchor="start" x="1313" y="-84" font-family="Helvetica,sans-Serif" font-size="10.00">userver/utils/statistics</text>
<text text-anchor="middle" x="1367.5" y="-73" font-family="Helvetica,sans-Serif" font-size="10.00">/solomon.hpp</text>
</a>
</g>
</g>
<!-- Node1&#45;&gt;Node13 -->
<g id="edge12_Node000001_Node000013" class="edge">
<title>Node1&#45;&gt;Node13</title>
<g id="a_edge12_Node000001_Node000013"><a xlink:title=" ">
<path fill="none" stroke="#63b8ff" d="M939.16,-139.32C1024.85,-131.03 1171.46,-115.57 1296.5,-96 1299.23,-95.57 1302.02,-95.12 1304.83,-94.64"/>
<polygon fill="#63b8ff" stroke="#63b8ff" points="938.64,-135.85 929.02,-140.29 939.31,-142.82 938.64,-135.85"/>
</a>
</g>
</g>
<!-- Node14 -->
<g id="Node000014" class="node">
<title>Node14</title>
<g id="a_Node000014"><a xlink:href="../../d2/da2/testing_8hpp_source.html" target="_top" xlink:title=" ">
<polygon fill="white" stroke="#666666" points="1573,-96 1448,-96 1448,-66 1573,-66 1573,-96"/>
<text text-anchor="start" x="1456" y="-84" font-family="Helvetica,sans-Serif" font-size="10.00">userver/utils/statistics</text>
<text text-anchor="middle" x="1510.5" y="-73" font-family="Helvetica,sans-Serif" font-size="10.00">/testing.hpp</text>
</a>
</g>
</g>
<!-- Node1&#45;&gt;Node14 -->
<g id="edge13_Node000001_Node000014" class="edge">
<title>Node1&#45;&gt;Node14</title>
<g id="a_edge13_Node000001_Node000014"><a xlink:title=" ">
<path fill="none" stroke="#63b8ff" d="M939.3,-142.16C1048.41,-135.85 1260.63,-121.36 1439.5,-96 1442.24,-95.61 1445.03,-95.19 1447.84,-94.73"/>
<polygon fill="#63b8ff" stroke="#63b8ff" points="938.85,-138.68 929.07,-142.75 939.25,-145.67 938.85,-138.68"/>
</a>
</g>
</g>
<!-- Node15 -->
<g id="Node000015" class="node">
<title>Node15</title>
<g id="a_Node000015"><a xlink:href="../../d1/d84/ydb_2include_2userver_2ydb_2component_8hpp.html" target="_top" xlink:title="YDB client component.">
<polygon fill="white" stroke="#666666" points="1744,-90.5 1591,-90.5 1591,-71.5 1744,-71.5 1744,-90.5"/>
<text text-anchor="middle" x="1667.5" y="-78.5" font-family="Helvetica,sans-Serif" font-size="10.00">userver/ydb/component.hpp</text>
</a>
</g>
</g>
<!-- Node1&#45;&gt;Node15 -->
<g id="edge15_Node000001_Node000015" class="edge">
<title>Node1&#45;&gt;Node15</title>
<g id="a_edge15_Node000001_Node000015"><a xlink:title=" ">
<path fill="none" stroke="#63b8ff" d="M939.63,-143.15C1069.42,-137.6 1348.43,-123.39 1582.5,-96 1594.83,-94.56 1608.1,-92.58 1620.4,-90.56"/>
<polygon fill="#63b8ff" stroke="#63b8ff" points="939.26,-139.67 929.42,-143.59 939.56,-146.66 939.26,-139.67"/>
</a>
</g>
</g>
<!-- Node4 -->
<g id="Node000004" class="node">
<title>Node4</title>
<g id="a_Node000004"><a xlink:href="../../d7/d29/clickhouse_8hpp.html" target="_top" xlink:title=" ">
<polygon fill="white" stroke="#666666" points="308.5,-24.5 134.5,-24.5 134.5,-5.5 308.5,-5.5 308.5,-24.5"/>
<text text-anchor="middle" x="221.5" y="-12.5" font-family="Helvetica,sans-Serif" font-size="10.00">userver/storages/clickhouse.hpp</text>
</a>
</g>
</g>
<!-- Node3&#45;&gt;Node4 -->
<g id="edge3_Node000003_Node000004" class="edge">
<title>Node3&#45;&gt;Node4</title>
<g id="a_edge3_Node000003_Node000004"><a xlink:title=" ">
<path fill="none" stroke="#63b8ff" d="M221.5,-55.6C221.5,-44.8 221.5,-32.78 221.5,-24.84"/>
<polygon fill="#63b8ff" stroke="#63b8ff" points="218,-55.8 221.5,-65.8 225,-55.8 218,-55.8"/>
</a>
</g>
</g>
<!-- Node6 -->
<g id="Node000006" class="node">
<title>Node6</title>
<g id="a_Node000006"><a xlink:href="../../d1/d31/service__fixtures_8hpp.html" target="_top" xlink:title="gtest fixtures for testing ugrpc service implementations. Requires linking to userver::grpc&#45;utest.">
<polygon fill="white" stroke="#666666" points="1006.5,-30 888.5,-30 888.5,0 1006.5,0 1006.5,-30"/>
<text text-anchor="start" x="896.5" y="-18" font-family="Helvetica,sans-Serif" font-size="10.00">userver/ugrpc/tests</text>
<text text-anchor="middle" x="947.5" y="-7" font-family="Helvetica,sans-Serif" font-size="10.00">/service_fixtures.hpp</text>
</a>
</g>
</g>
<!-- Node5&#45;&gt;Node6 -->
<g id="edge5_Node000005_Node000006" class="edge">
<title>Node5&#45;&gt;Node6</title>
<g id="a_edge5_Node000005_Node000006"><a xlink:title=" ">
<path fill="none" stroke="#63b8ff" d="M436.68,-65.94C606.05,-39.74 794.75,-25.54 888.47,-19.49"/>
<polygon fill="#63b8ff" stroke="#63b8ff" points="435.92,-62.51 426.58,-67.52 437,-69.43 435.92,-62.51"/>
</a>
</g>
</g>
<!-- Node14&#45;&gt;Node6 -->
<g id="edge14_Node000014_Node000006" class="edge">
<title>Node14&#45;&gt;Node6</title>
<g id="a_edge14_Node000014_Node000006"><a xlink:title=" ">
<path fill="none" stroke="#63b8ff" d="M1437.74,-65.82C1276.57,-42.2 1097.56,-27.09 1006.79,-20.23"/>
<polygon fill="#63b8ff" stroke="#63b8ff" points="1437.43,-69.31 1447.84,-67.31 1438.46,-62.39 1437.43,-69.31"/>
</a>
</g>
</g>
</g>
</svg>
