<?xml version="1.0" encoding="UTF-8" standalone="no"?>
<!DOCTYPE svg PUBLIC "-//W3C//DTD SVG 1.1//EN"
 "http://www.w3.org/Graphics/SVG/1.1/DTD/svg11.dtd">
<!-- Generated by graphviz version 2.43.0 (0)
 -->
<!-- Title: userver/testsuite/periodic_task_control.hpp Pages: 1 -->
<svg width="1313pt" height="588pt"
 viewBox="0.00 0.00 1312.77 588.00" xmlns="http://www.w3.org/2000/svg" xmlns:xlink="http://www.w3.org/1999/xlink">
<g id="graph0" class="graph" transform="scale(1 1) rotate(0) translate(4 584)">
<title>userver/testsuite/periodic_task_control.hpp</title>
<!-- Node1 -->
<g id="Node000001" class="node">
<title>Node1</title>
<g id="a_Node000001"><a xlink:title="Periodic task control interface for testsuite.">
<polygon fill="#999999" stroke="#666666" points="814.27,-580 673.27,-580 673.27,-550 814.27,-550 814.27,-580"/>
<text text-anchor="start" x="681.27" y="-568" font-family="Helvetica,sans-Serif" font-size="10.00">userver/testsuite/periodic</text>
<text text-anchor="middle" x="743.77" y="-557" font-family="Helvetica,sans-Serif" font-size="10.00">_task_control.hpp</text>
</a>
</g>
</g>
<!-- Node2 -->
<g id="Node000002" class="node">
<title>Node2</title>
<g id="a_Node000002"><a xlink:href="../../d3/d37/testsuite__support_8hpp.html" target="_top" xlink:title="Testsuite support component.">
<polygon fill="white" stroke="#666666" points="741.27,-514 596.27,-514 596.27,-484 741.27,-484 741.27,-514"/>
<text text-anchor="start" x="604.27" y="-502" font-family="Helvetica,sans-Serif" font-size="10.00">userver/testsuite/testsuite</text>
<text text-anchor="middle" x="668.77" y="-491" font-family="Helvetica,sans-Serif" font-size="10.00">_support.hpp</text>
</a>
</g>
</g>
<!-- Node1&#45;&gt;Node2 -->
<g id="edge1_Node000001_Node000002" class="edge">
<title>Node1&#45;&gt;Node2</title>
<g id="a_edge1_Node000001_Node000002"><a xlink:title=" ">
<path fill="none" stroke="#63b8ff" d="M719.39,-543.2C708.26,-533.7 695.36,-522.69 685.36,-514.16"/>
<polygon fill="#63b8ff" stroke="#63b8ff" points="717.24,-545.97 727.12,-549.8 721.79,-540.64 717.24,-545.97"/>
</a>
</g>
</g>
<!-- Node3 -->
<g id="Node000003" class="node">
<title>Node3</title>
<g id="a_Node000003"><a xlink:href="../../dd/d64/periodic__task_8hpp.html" target="_top" xlink:title="Task that periodically runs a user callback. Callback is started after the previous callback executio...">
<polygon fill="white" stroke="#666666" points="878.27,-514 759.27,-514 759.27,-484 878.27,-484 878.27,-514"/>
<text text-anchor="start" x="767.27" y="-502" font-family="Helvetica,sans-Serif" font-size="10.00">userver/utils/periodic</text>
<text text-anchor="middle" x="818.77" y="-491" font-family="Helvetica,sans-Serif" font-size="10.00">_task.hpp</text>
</a>
</g>
</g>
<!-- Node1&#45;&gt;Node3 -->
<g id="edge2_Node000001_Node000003" class="edge">
<title>Node1&#45;&gt;Node3</title>
<g id="a_edge2_Node000001_Node000003"><a xlink:title=" ">
<path fill="none" stroke="#63b8ff" d="M768.14,-543.2C779.27,-533.7 792.17,-522.69 802.17,-514.16"/>
<polygon fill="#63b8ff" stroke="#63b8ff" points="765.74,-540.64 760.41,-549.8 770.29,-545.97 765.74,-540.64"/>
</a>
</g>
</g>
<!-- Node4 -->
<g id="Node000004" class="node">
<title>Node4</title>
<g id="a_Node000004"><a xlink:href="../../d3/db8/core_2include_2userver_2clients_2http_2client_8hpp.html" target="_top" xlink:title="HTTP client that returns a HTTP request builder from CreateRequest().">
<polygon fill="white" stroke="#666666" points="632.27,-442.5 521.27,-442.5 521.27,-412.5 632.27,-412.5 632.27,-442.5"/>
<text text-anchor="start" x="529.27" y="-430.5" font-family="Helvetica,sans-Serif" font-size="10.00">userver/clients/http</text>
<text text-anchor="middle" x="576.77" y="-419.5" font-family="Helvetica,sans-Serif" font-size="10.00">/client.hpp</text>
</a>
</g>
</g>
<!-- Node3&#45;&gt;Node4 -->
<g id="edge3_Node000003_Node000004" class="edge">
<title>Node3&#45;&gt;Node4</title>
<g id="a_edge3_Node000003_Node000004"><a xlink:title=" ">
<path fill="none" stroke="#63b8ff" d="M760.16,-481.17C718.97,-469.34 664.51,-453.7 625.66,-442.54"/>
<polygon fill="#63b8ff" stroke="#63b8ff" points="759.22,-484.54 769.79,-483.94 761.15,-477.81 759.22,-484.54"/>
</a>
</g>
</g>
<!-- Node6 -->
<g id="Node000006" class="node">
<title>Node6</title>
<g id="a_Node000006"><a xlink:href="../../d9/d28/linear_8hpp_source.html" target="_top" xlink:title=" ">
<polygon fill="white" stroke="#666666" points="748.77,-371 638.77,-371 638.77,-330 748.77,-330 748.77,-371"/>
<text text-anchor="start" x="646.77" y="-359" font-family="Helvetica,sans-Serif" font-size="10.00">userver/congestion</text>
<text text-anchor="start" x="646.77" y="-348" font-family="Helvetica,sans-Serif" font-size="10.00">_control/controllers</text>
<text text-anchor="middle" x="693.77" y="-337" font-family="Helvetica,sans-Serif" font-size="10.00">/linear.hpp</text>
</a>
</g>
</g>
<!-- Node3&#45;&gt;Node6 -->
<g id="edge5_Node000003_Node000006" class="edge">
<title>Node3&#45;&gt;Node6</title>
<g id="a_edge5_Node000003_Node000006"><a xlink:title=" ">
<path fill="none" stroke="#63b8ff" d="M756.51,-480.96C728.09,-471.8 698.92,-459.95 690.77,-448 675.26,-425.3 680.85,-392.08 686.87,-371.14"/>
<polygon fill="#63b8ff" stroke="#63b8ff" points="755.51,-484.31 766.1,-483.96 757.6,-477.63 755.51,-484.31"/>
</a>
</g>
</g>
<!-- Node27 -->
<g id="Node000027" class="node">
<title>Node27</title>
<g id="a_Node000027"><a xlink:href="../../d2/d7f/v2_8hpp_source.html" target="_top" xlink:title=" ">
<polygon fill="white" stroke="#666666" points="809.77,-448 699.77,-448 699.77,-407 809.77,-407 809.77,-448"/>
<text text-anchor="start" x="707.77" y="-436" font-family="Helvetica,sans-Serif" font-size="10.00">userver/congestion</text>
<text text-anchor="start" x="707.77" y="-425" font-family="Helvetica,sans-Serif" font-size="10.00">_control/controllers</text>
<text text-anchor="middle" x="754.77" y="-414" font-family="Helvetica,sans-Serif" font-size="10.00">/v2.hpp</text>
</a>
</g>
</g>
<!-- Node3&#45;&gt;Node27 -->
<g id="edge37_Node000003_Node000027" class="edge">
<title>Node3&#45;&gt;Node27</title>
<g id="a_edge37_Node000003_Node000027"><a xlink:title=" ">
<path fill="none" stroke="#63b8ff" d="M798.89,-476.41C790.55,-467.36 780.92,-456.9 772.79,-448.07"/>
<polygon fill="#63b8ff" stroke="#63b8ff" points="796.46,-478.95 805.81,-483.94 801.61,-474.21 796.46,-478.95"/>
</a>
</g>
</g>
<!-- Node28 -->
<g id="Node000028" class="node">
<title>Node28</title>
<g id="a_Node000028"><a xlink:href="../../d6/dc2/fs__cache__client_8hpp.html" target="_top" xlink:title="@copybref fs::FsCacheClient">
<polygon fill="white" stroke="#666666" points="939.27,-442.5 828.27,-442.5 828.27,-412.5 939.27,-412.5 939.27,-442.5"/>
<text text-anchor="start" x="836.27" y="-430.5" font-family="Helvetica,sans-Serif" font-size="10.00">userver/fs/fs_cache</text>
<text text-anchor="middle" x="883.77" y="-419.5" font-family="Helvetica,sans-Serif" font-size="10.00">_client.hpp</text>
</a>
</g>
</g>
<!-- Node3&#45;&gt;Node28 -->
<g id="edge39_Node000003_Node000028" class="edge">
<title>Node3&#45;&gt;Node28</title>
<g id="a_edge39_Node000003_Node000028"><a xlink:title=" ">
<path fill="none" stroke="#63b8ff" d="M839.01,-476.35C849.32,-465.33 861.56,-452.24 870.63,-442.54"/>
<polygon fill="#63b8ff" stroke="#63b8ff" points="836.19,-474.24 831.92,-483.94 841.31,-479.02 836.19,-474.24"/>
</a>
</g>
</g>
<!-- Node31 -->
<g id="Node000031" class="node">
<title>Node31</title>
<g id="a_Node000031"><a xlink:href="../../dc/d2e/core_2include_2userver_2logging_2component_8hpp.html" target="_top" xlink:title="Logging component">
<polygon fill="white" stroke="#666666" points="1128.27,-437 957.27,-437 957.27,-418 1128.27,-418 1128.27,-437"/>
<text text-anchor="middle" x="1042.77" y="-425" font-family="Helvetica,sans-Serif" font-size="10.00">userver/logging/component.hpp</text>
</a>
</g>
</g>
<!-- Node3&#45;&gt;Node31 -->
<g id="edge43_Node000003_Node000031" class="edge">
<title>Node3&#45;&gt;Node31</title>
<g id="a_edge43_Node000003_Node000031"><a xlink:title=" ">
<path fill="none" stroke="#63b8ff" d="M873.68,-480.96C918.52,-467.05 980.02,-447.97 1015.15,-437.07"/>
<polygon fill="#63b8ff" stroke="#63b8ff" points="872.61,-477.63 864.09,-483.94 874.68,-484.32 872.61,-477.63"/>
</a>
</g>
</g>
<!-- Node32 -->
<g id="Node000032" class="node">
<title>Node32</title>
<g id="a_Node000032"><a xlink:href="../../db/d6a/consumer__base_8hpp.html" target="_top" xlink:title="Base class for your consumers.">
<polygon fill="white" stroke="#666666" points="1304.77,-442.5 1146.77,-442.5 1146.77,-412.5 1304.77,-412.5 1304.77,-442.5"/>
<text text-anchor="start" x="1154.77" y="-430.5" font-family="Helvetica,sans-Serif" font-size="10.00">userver/urabbitmq/consumer</text>
<text text-anchor="middle" x="1225.77" y="-419.5" font-family="Helvetica,sans-Serif" font-size="10.00">_base.hpp</text>
</a>
</g>
</g>
<!-- Node3&#45;&gt;Node32 -->
<g id="edge44_Node000003_Node000032" class="edge">
<title>Node3&#45;&gt;Node32</title>
<g id="a_edge44_Node000003_Node000032"><a xlink:title=" ">
<path fill="none" stroke="#63b8ff" d="M888.43,-488.36C953.2,-479.1 1052.28,-464.15 1137.77,-448 1146.53,-446.34 1155.75,-444.46 1164.8,-442.53"/>
<polygon fill="#63b8ff" stroke="#63b8ff" points="887.74,-484.92 878.34,-489.8 888.73,-491.85 887.74,-484.92"/>
</a>
</g>
</g>
<!-- Node5 -->
<g id="Node000005" class="node">
<title>Node5</title>
<g id="a_Node000005"><a xlink:href="../../d7/d98/core_2include_2userver_2clients_2http_2component_8hpp.html" target="_top" xlink:title="Component that manages clients::http::Client.">
<polygon fill="white" stroke="#666666" points="620.27,-365.5 509.27,-365.5 509.27,-335.5 620.27,-335.5 620.27,-365.5"/>
<text text-anchor="start" x="517.27" y="-353.5" font-family="Helvetica,sans-Serif" font-size="10.00">userver/clients/http</text>
<text text-anchor="middle" x="564.77" y="-342.5" font-family="Helvetica,sans-Serif" font-size="10.00">/component.hpp</text>
</a>
</g>
</g>
<!-- Node4&#45;&gt;Node5 -->
<g id="edge4_Node000004_Node000005" class="edge">
<title>Node4&#45;&gt;Node5</title>
<g id="a_edge4_Node000004_Node000005"><a xlink:title=" ">
<path fill="none" stroke="#63b8ff" d="M572.91,-402.41C570.96,-390.24 568.67,-375.9 567.01,-365.54"/>
<polygon fill="#63b8ff" stroke="#63b8ff" points="569.47,-403.07 574.51,-412.39 576.38,-401.97 569.47,-403.07"/>
</a>
</g>
</g>
<!-- Node7 -->
<g id="Node000007" class="node">
<title>Node7</title>
<g id="a_Node000007"><a xlink:href="../../d8/d6c/pool__config_8hpp.html" target="_top" xlink:title="MongoDB connection pool configuration.">
<polygon fill="white" stroke="#666666" points="884.27,-294 749.27,-294 749.27,-264 884.27,-264 884.27,-294"/>
<text text-anchor="start" x="757.27" y="-282" font-family="Helvetica,sans-Serif" font-size="10.00">userver/storages/mongo</text>
<text text-anchor="middle" x="816.77" y="-271" font-family="Helvetica,sans-Serif" font-size="10.00">/pool_config.hpp</text>
</a>
</g>
</g>
<!-- Node6&#45;&gt;Node7 -->
<g id="edge6_Node000006_Node000007" class="edge">
<title>Node6&#45;&gt;Node7</title>
<g id="a_edge6_Node000006_Node000007"><a xlink:title=" ">
<path fill="none" stroke="#63b8ff" d="M737.12,-325C755.43,-314.66 776.1,-302.98 791.79,-294.11"/>
<polygon fill="#63b8ff" stroke="#63b8ff" points="735.34,-321.99 728.35,-329.96 738.78,-328.08 735.34,-321.99"/>
</a>
</g>
</g>
<!-- Node14 -->
<g id="Node000014" class="node">
<title>Node14</title>
<g id="a_Node000014"><a xlink:href="../../d7/d18/postgresql_2include_2userver_2storages_2postgres_2options_8hpp.html" target="_top" xlink:title="Options.">
<polygon fill="white" stroke="#666666" points="551.27,-294 408.27,-294 408.27,-264 551.27,-264 551.27,-294"/>
<text text-anchor="start" x="416.27" y="-282" font-family="Helvetica,sans-Serif" font-size="10.00">userver/storages/postgres</text>
<text text-anchor="middle" x="479.77" y="-271" font-family="Helvetica,sans-Serif" font-size="10.00">/options.hpp</text>
</a>
</g>
</g>
<!-- Node6&#45;&gt;Node14 -->
<g id="edge15_Node000006_Node000014" class="edge">
<title>Node6&#45;&gt;Node14</title>
<g id="a_edge15_Node000006_Node000014"><a xlink:title=" ">
<path fill="none" stroke="#63b8ff" d="M628.71,-328.37C594.38,-317.22 553.22,-303.86 522.88,-294"/>
<polygon fill="#63b8ff" stroke="#63b8ff" points="628.06,-331.84 638.65,-331.6 630.22,-325.18 628.06,-331.84"/>
</a>
</g>
</g>
<!-- Node26 -->
<g id="Node000026" class="node">
<title>Node26</title>
<g id="a_Node000026"><a xlink:href="../../d1/db6/postgresql_2include_2userver_2storages_2postgres_2statistics_8hpp.html" target="_top" xlink:title="Statistics helpers.">
<polygon fill="white" stroke="#666666" points="271.27,-294 128.27,-294 128.27,-264 271.27,-264 271.27,-294"/>
<text text-anchor="start" x="136.27" y="-282" font-family="Helvetica,sans-Serif" font-size="10.00">userver/storages/postgres</text>
<text text-anchor="middle" x="199.77" y="-271" font-family="Helvetica,sans-Serif" font-size="10.00">/statistics.hpp</text>
</a>
</g>
</g>
<!-- Node6&#45;&gt;Node26 -->
<g id="edge35_Node000006_Node000026" class="edge">
<title>Node6&#45;&gt;Node26</title>
<g id="a_edge35_Node000006_Node000026"><a xlink:title=" ">
<path fill="none" stroke="#63b8ff" d="M629.07,-330.06C628.97,-330.04 628.87,-330.02 628.77,-330 504.48,-304.32 357.02,-290.74 271.35,-284.49"/>
<polygon fill="#63b8ff" stroke="#63b8ff" points="628.09,-333.43 638.62,-332.24 629.64,-326.6 628.09,-333.43"/>
</a>
</g>
</g>
<!-- Node8 -->
<g id="Node000008" class="node">
<title>Node8</title>
<g id="a_Node000008"><a xlink:href="../../d2/de5/multi__mongo_8hpp_source.html" target="_top" xlink:title=" ">
<polygon fill="white" stroke="#666666" points="1222.27,-162 1087.27,-162 1087.27,-132 1222.27,-132 1222.27,-162"/>
<text text-anchor="start" x="1095.27" y="-150" font-family="Helvetica,sans-Serif" font-size="10.00">userver/storages/mongo</text>
<text text-anchor="middle" x="1154.77" y="-139" font-family="Helvetica,sans-Serif" font-size="10.00">/multi_mongo.hpp</text>
</a>
</g>
</g>
<!-- Node7&#45;&gt;Node8 -->
<g id="edge7_Node000007_Node000008" class="edge">
<title>Node7&#45;&gt;Node8</title>
<g id="a_edge7_Node000007_Node000008"><a xlink:title=" ">
<path fill="none" stroke="#63b8ff" d="M887.05,-261.36C919.93,-252.76 959.34,-241.28 993.77,-228 1043.71,-208.73 1098.99,-179.38 1130.04,-162.1"/>
<polygon fill="#63b8ff" stroke="#63b8ff" points="885.88,-258.04 877.07,-263.93 887.63,-264.82 885.88,-258.04"/>
</a>
</g>
</g>
<!-- Node10 -->
<g id="Node000010" class="node">
<title>Node10</title>
<g id="a_Node000010"><a xlink:href="../../d3/dc1/pool_8hpp.html" target="_top" xlink:title="MongoDB client pool.">
<polygon fill="white" stroke="#666666" points="985.27,-228 850.27,-228 850.27,-198 985.27,-198 985.27,-228"/>
<text text-anchor="start" x="858.27" y="-216" font-family="Helvetica,sans-Serif" font-size="10.00">userver/storages/mongo</text>
<text text-anchor="middle" x="917.77" y="-205" font-family="Helvetica,sans-Serif" font-size="10.00">/pool.hpp</text>
</a>
</g>
</g>
<!-- Node7&#45;&gt;Node10 -->
<g id="edge9_Node000007_Node000010" class="edge">
<title>Node7&#45;&gt;Node10</title>
<g id="a_edge9_Node000007_Node000010"><a xlink:title=" ">
<path fill="none" stroke="#63b8ff" d="M847.85,-258.3C863.23,-248.56 881.43,-237.02 895.41,-228.16"/>
<polygon fill="#63b8ff" stroke="#63b8ff" points="845.75,-255.49 839.18,-263.8 849.5,-261.4 845.75,-255.49"/>
</a>
</g>
</g>
<!-- Node9 -->
<g id="Node000009" class="node">
<title>Node9</title>
<g id="a_Node000009"><a xlink:href="../../d1/dd7/mongo_2include_2userver_2storages_2mongo_2component_8hpp.html" target="_top" xlink:title="MongoDB client component.">
<polygon fill="white" stroke="#666666" points="1116.27,-96 981.27,-96 981.27,-66 1116.27,-66 1116.27,-96"/>
<text text-anchor="start" x="989.27" y="-84" font-family="Helvetica,sans-Serif" font-size="10.00">userver/storages/mongo</text>
<text text-anchor="middle" x="1048.77" y="-73" font-family="Helvetica,sans-Serif" font-size="10.00">/component.hpp</text>
</a>
</g>
</g>
<!-- Node8&#45;&gt;Node9 -->
<g id="edge8_Node000008_Node000009" class="edge">
<title>Node8&#45;&gt;Node9</title>
<g id="a_edge8_Node000008_Node000009"><a xlink:title=" ">
<path fill="none" stroke="#63b8ff" d="M1122.79,-126.69C1106.43,-116.82 1086.87,-105.01 1071.97,-96.01"/>
<polygon fill="#63b8ff" stroke="#63b8ff" points="1121.13,-129.78 1131.5,-131.95 1124.75,-123.79 1121.13,-129.78"/>
</a>
</g>
</g>
<!-- Node10&#45;&gt;Node8 -->
<g id="edge12_Node000010_Node000008" class="edge">
<title>Node10&#45;&gt;Node8</title>
<g id="a_edge12_Node000010_Node000008"><a xlink:title=" ">
<path fill="none" stroke="#63b8ff" d="M979.78,-195.25C1018.07,-184.91 1066.63,-171.8 1102.88,-162.01"/>
<polygon fill="#63b8ff" stroke="#63b8ff" points="978.52,-191.97 969.78,-197.95 980.34,-198.73 978.52,-191.97"/>
</a>
</g>
</g>
<!-- Node10&#45;&gt;Node9 -->
<g id="edge11_Node000010_Node000009" class="edge">
<title>Node10&#45;&gt;Node9</title>
<g id="a_edge11_Node000010_Node000009"><a xlink:title=" ">
<path fill="none" stroke="#63b8ff" d="M905.14,-188.58C897.8,-171.44 892.06,-148.41 903.77,-132 921.46,-107.17 952.34,-94.55 981.06,-88.19"/>
<polygon fill="#63b8ff" stroke="#63b8ff" points="902.1,-190.34 909.53,-197.89 908.43,-187.35 902.1,-190.34"/>
</a>
</g>
</g>
<!-- Node11 -->
<g id="Node000011" class="node">
<title>Node11</title>
<g id="a_Node000011"><a xlink:href="../../d2/d86/mongo_8hpp.html" target="_top" xlink:title="Include&#45;all header for MongoDB client.">
<polygon fill="white" stroke="#666666" points="1068.77,-156.5 912.77,-156.5 912.77,-137.5 1068.77,-137.5 1068.77,-156.5"/>
<text text-anchor="middle" x="990.77" y="-144.5" font-family="Helvetica,sans-Serif" font-size="10.00">userver/storages/mongo.hpp</text>
</a>
</g>
</g>
<!-- Node10&#45;&gt;Node11 -->
<g id="edge10_Node000010_Node000011" class="edge">
<title>Node10&#45;&gt;Node11</title>
<g id="a_edge10_Node000010_Node000011"><a xlink:title=" ">
<path fill="none" stroke="#63b8ff" d="M941.8,-190.93C955,-179.35 970.68,-165.61 980.68,-156.84"/>
<polygon fill="#63b8ff" stroke="#63b8ff" points="939.18,-188.57 933.97,-197.8 943.79,-193.84 939.18,-188.57"/>
</a>
</g>
</g>
<!-- Node12 -->
<g id="Node000012" class="node">
<title>Node12</title>
<g id="a_Node000012"><a xlink:href="../../d7/d49/mongo__local_8hpp.html" target="_top" xlink:title=" ">
<polygon fill="white" stroke="#666666" points="856.27,-162 721.27,-162 721.27,-132 856.27,-132 856.27,-162"/>
<text text-anchor="start" x="729.27" y="-150" font-family="Helvetica,sans-Serif" font-size="10.00">userver/storages/mongo</text>
<text text-anchor="middle" x="788.77" y="-139" font-family="Helvetica,sans-Serif" font-size="10.00">/utest/mongo_local.hpp</text>
</a>
</g>
</g>
<!-- Node10&#45;&gt;Node12 -->
<g id="edge13_Node000010_Node000012" class="edge">
<title>Node10&#45;&gt;Node12</title>
<g id="a_edge13_Node000010_Node000012"><a xlink:title=" ">
<path fill="none" stroke="#63b8ff" d="M880.23,-193.38C860.04,-183.36 835.56,-171.22 817.01,-162.01"/>
<polygon fill="#63b8ff" stroke="#63b8ff" points="878.94,-196.65 889.46,-197.95 882.05,-190.38 878.94,-196.65"/>
</a>
</g>
</g>
<!-- Node13 -->
<g id="Node000013" class="node">
<title>Node13</title>
<g id="a_Node000013"><a xlink:href="../../d0/d79/mongo__fixture_8hpp.html" target="_top" xlink:title=" ">
<polygon fill="white" stroke="#666666" points="858.27,-96 719.27,-96 719.27,-66 858.27,-66 858.27,-96"/>
<text text-anchor="start" x="727.27" y="-84" font-family="Helvetica,sans-Serif" font-size="10.00">userver/storages/mongo</text>
<text text-anchor="middle" x="788.77" y="-73" font-family="Helvetica,sans-Serif" font-size="10.00">/utest/mongo_fixture.hpp</text>
</a>
</g>
</g>
<!-- Node12&#45;&gt;Node13 -->
<g id="edge14_Node000012_Node000013" class="edge">
<title>Node12&#45;&gt;Node13</title>
<g id="a_edge14_Node000012_Node000013"><a xlink:title=" ">
<path fill="none" stroke="#63b8ff" d="M788.77,-121.54C788.77,-112.96 788.77,-103.61 788.77,-96.16"/>
<polygon fill="#63b8ff" stroke="#63b8ff" points="785.27,-121.8 788.77,-131.8 792.27,-121.8 785.27,-121.8"/>
</a>
</g>
</g>
<!-- Node15 -->
<g id="Node000015" class="node">
<title>Node15</title>
<g id="a_Node000015"><a xlink:href="../../de/dd3/postgresql_2include_2userver_2storages_2postgres_2cluster_8hpp.html" target="_top" xlink:title="Interface for executing queries on a cluster of PostgreSQL servers.">
<polygon fill="white" stroke="#666666" points="319.27,-96 176.27,-96 176.27,-66 319.27,-66 319.27,-96"/>
<text text-anchor="start" x="184.27" y="-84" font-family="Helvetica,sans-Serif" font-size="10.00">userver/storages/postgres</text>
<text text-anchor="middle" x="247.77" y="-73" font-family="Helvetica,sans-Serif" font-size="10.00">/cluster.hpp</text>
</a>
</g>
</g>
<!-- Node14&#45;&gt;Node15 -->
<g id="edge16_Node000014_Node000015" class="edge">
<title>Node14&#45;&gt;Node15</title>
<g id="a_edge16_Node000014_Node000015"><a xlink:title=" ">
<path fill="none" stroke="#63b8ff" d="M397.68,-270.78C307.49,-261.99 173.25,-246.07 157.77,-228 149.09,-217.87 153.45,-210.61 157.77,-198 172.38,-155.32 209.81,-116.2 231.52,-96.13"/>
<polygon fill="#63b8ff" stroke="#63b8ff" points="397.62,-274.29 407.91,-271.76 398.29,-267.32 397.62,-274.29"/>
</a>
</g>
</g>
<!-- Node18 -->
<g id="Node000018" class="node">
<title>Node18</title>
<g id="a_Node000018"><a xlink:href="../../df/da2/database_8hpp.html" target="_top" xlink:title="Object for accessing PostgreSQL database instance (sharded or not)">
<polygon fill="white" stroke="#666666" points="164.27,-162 21.27,-162 21.27,-132 164.27,-132 164.27,-162"/>
<text text-anchor="start" x="29.27" y="-150" font-family="Helvetica,sans-Serif" font-size="10.00">userver/storages/postgres</text>
<text text-anchor="middle" x="92.77" y="-139" font-family="Helvetica,sans-Serif" font-size="10.00">/database.hpp</text>
</a>
</g>
</g>
<!-- Node14&#45;&gt;Node18 -->
<g id="edge19_Node000014_Node000018" class="edge">
<title>Node14&#45;&gt;Node18</title>
<g id="a_edge19_Node000014_Node000018"><a xlink:title=" ">
<path fill="none" stroke="#63b8ff" d="M397.67,-270.78C299.55,-261.49 145.87,-244.56 124.77,-228 104.17,-211.84 96.78,-180.39 94.16,-162.11"/>
<polygon fill="#63b8ff" stroke="#63b8ff" points="397.58,-274.29 407.87,-271.74 398.24,-267.32 397.58,-274.29"/>
</a>
</g>
</g>
<!-- Node20 -->
<g id="Node000020" class="node">
<title>Node20</title>
<g id="a_Node000020"><a xlink:href="../../d9/d02/postgresql_2include_2userver_2storages_2postgres_2dist__lock__strategy_8hpp.html" target="_top" xlink:title="Postgres distributed locking strategy.">
<polygon fill="white" stroke="#666666" points="632.27,-228 489.27,-228 489.27,-198 632.27,-198 632.27,-228"/>
<text text-anchor="start" x="497.27" y="-216" font-family="Helvetica,sans-Serif" font-size="10.00">userver/storages/postgres</text>
<text text-anchor="middle" x="560.77" y="-205" font-family="Helvetica,sans-Serif" font-size="10.00">/dist_lock_strategy.hpp</text>
</a>
</g>
</g>
<!-- Node14&#45;&gt;Node20 -->
<g id="edge24_Node000014_Node000020" class="edge">
<title>Node14&#45;&gt;Node20</title>
<g id="a_edge24_Node000014_Node000020"><a xlink:title=" ">
<path fill="none" stroke="#63b8ff" d="M505.74,-257.48C517.84,-247.91 531.94,-236.77 542.84,-228.16"/>
<polygon fill="#63b8ff" stroke="#63b8ff" points="503.42,-254.85 497.74,-263.8 507.76,-260.34 503.42,-254.85"/>
</a>
</g>
</g>
<!-- Node22 -->
<g id="Node000022" class="node">
<title>Node22</title>
<g id="a_Node000022"><a xlink:href="../../d3/db6/notify_8hpp.html" target="_top" xlink:title="Asynchronous notifications.">
<polygon fill="white" stroke="#666666" points="310.27,-228 167.27,-228 167.27,-198 310.27,-198 310.27,-228"/>
<text text-anchor="start" x="175.27" y="-216" font-family="Helvetica,sans-Serif" font-size="10.00">userver/storages/postgres</text>
<text text-anchor="middle" x="238.77" y="-205" font-family="Helvetica,sans-Serif" font-size="10.00">/notify.hpp</text>
</a>
</g>
</g>
<!-- Node14&#45;&gt;Node22 -->
<g id="edge26_Node000014_Node000022" class="edge">
<title>Node14&#45;&gt;Node22</title>
<g id="a_edge26_Node000014_Node000022"><a xlink:title=" ">
<path fill="none" stroke="#63b8ff" d="M417.2,-261.39C378.19,-251.03 328.55,-237.84 291.53,-228.01"/>
<polygon fill="#63b8ff" stroke="#63b8ff" points="416.31,-264.77 426.88,-263.95 418.11,-258.01 416.31,-264.77"/>
</a>
</g>
</g>
<!-- Node23 -->
<g id="Node000023" class="node">
<title>Node23</title>
<g id="a_Node000023"><a xlink:href="../../d2/de3/portal_8hpp_source.html" target="_top" xlink:title=" ">
<polygon fill="white" stroke="#666666" points="832.27,-228 689.27,-228 689.27,-198 832.27,-198 832.27,-228"/>
<text text-anchor="start" x="697.27" y="-216" font-family="Helvetica,sans-Serif" font-size="10.00">userver/storages/postgres</text>
<text text-anchor="middle" x="760.77" y="-205" font-family="Helvetica,sans-Serif" font-size="10.00">/portal.hpp</text>
</a>
</g>
</g>
<!-- Node14&#45;&gt;Node23 -->
<g id="edge28_Node000014_Node000023" class="edge">
<title>Node14&#45;&gt;Node23</title>
<g id="a_edge28_Node000014_Node000023"><a xlink:title=" ">
<path fill="none" stroke="#63b8ff" d="M551.27,-261.71C596.97,-251.31 655.63,-237.95 699.24,-228.01"/>
<polygon fill="#63b8ff" stroke="#63b8ff" points="550.4,-258.32 541.43,-263.95 551.96,-265.15 550.4,-258.32"/>
</a>
</g>
</g>
<!-- Node24 -->
<g id="Node000024" class="node">
<title>Node24</title>
<g id="a_Node000024"><a xlink:href="../../da/deb/postgresql_2include_2userver_2storages_2postgres_2transaction_8hpp.html" target="_top" xlink:title="Transactions.">
<polygon fill="white" stroke="#666666" points="703.27,-162 560.27,-162 560.27,-132 703.27,-132 703.27,-162"/>
<text text-anchor="start" x="568.27" y="-150" font-family="Helvetica,sans-Serif" font-size="10.00">userver/storages/postgres</text>
<text text-anchor="middle" x="631.77" y="-139" font-family="Helvetica,sans-Serif" font-size="10.00">/transaction.hpp</text>
</a>
</g>
</g>
<!-- Node14&#45;&gt;Node24 -->
<g id="edge34_Node000014_Node000024" class="edge">
<title>Node14&#45;&gt;Node24</title>
<g id="a_edge34_Node000014_Node000024"><a xlink:title=" ">
<path fill="none" stroke="#63b8ff" d="M561.47,-272.43C591.33,-265.96 622.29,-253.09 640.77,-228 654.94,-208.76 646.16,-179.53 638.77,-162.24"/>
<polygon fill="#63b8ff" stroke="#63b8ff" points="560.56,-269.04 551.41,-274.39 561.89,-275.92 560.56,-269.04"/>
</a>
</g>
</g>
<!-- Node25 -->
<g id="Node000025" class="node">
<title>Node25</title>
<g id="a_Node000025"><a xlink:href="../../d8/d63/query__queue_8hpp.html" target="_top" xlink:title="An utility to execute multiple queries in a single network round&#45;trip.">
<polygon fill="white" stroke="#666666" points="471.27,-228 328.27,-228 328.27,-198 471.27,-198 471.27,-228"/>
<text text-anchor="start" x="336.27" y="-216" font-family="Helvetica,sans-Serif" font-size="10.00">userver/storages/postgres</text>
<text text-anchor="middle" x="399.77" y="-205" font-family="Helvetica,sans-Serif" font-size="10.00">/query_queue.hpp</text>
</a>
</g>
</g>
<!-- Node14&#45;&gt;Node25 -->
<g id="edge32_Node000014_Node000025" class="edge">
<title>Node14&#45;&gt;Node25</title>
<g id="a_edge32_Node000014_Node000025"><a xlink:title=" ">
<path fill="none" stroke="#63b8ff" d="M454.11,-257.48C442.16,-247.91 428.23,-236.77 417.47,-228.16"/>
<polygon fill="#63b8ff" stroke="#63b8ff" points="452.02,-260.28 462.01,-263.8 456.39,-254.82 452.02,-260.28"/>
</a>
</g>
</g>
<!-- Node16 -->
<g id="Node000016" class="node">
<title>Node16</title>
<g id="a_Node000016"><a xlink:href="../../dc/df7/base__postgres__cache_8hpp.html" target="_top" xlink:title="Caching component for PostgreSQL. See Caching Component for PostgreSQL.">
<polygon fill="white" stroke="#666666" points="152.27,-30 33.27,-30 33.27,0 152.27,0 152.27,-30"/>
<text text-anchor="start" x="41.27" y="-18" font-family="Helvetica,sans-Serif" font-size="10.00">userver/cache/base</text>
<text text-anchor="middle" x="92.77" y="-7" font-family="Helvetica,sans-Serif" font-size="10.00">_postgres_cache.hpp</text>
</a>
</g>
</g>
<!-- Node15&#45;&gt;Node16 -->
<g id="edge17_Node000015_Node000016" class="edge">
<title>Node15&#45;&gt;Node16</title>
<g id="a_edge17_Node000015_Node000016"><a xlink:title=" ">
<path fill="none" stroke="#63b8ff" d="M204.3,-62.05C179.75,-51.91 149.5,-39.43 126.7,-30.01"/>
<polygon fill="#63b8ff" stroke="#63b8ff" points="203.17,-65.37 213.75,-65.95 205.84,-58.9 203.17,-65.37"/>
</a>
</g>
</g>
<!-- Node17 -->
<g id="Node000017" class="node">
<title>Node17</title>
<g id="a_Node000017"><a xlink:href="../../df/d02/postgres_8hpp.html" target="_top" xlink:title=" ">
<polygon fill="white" stroke="#666666" points="319.27,-30 176.27,-30 176.27,0 319.27,0 319.27,-30"/>
<text text-anchor="start" x="184.27" y="-18" font-family="Helvetica,sans-Serif" font-size="10.00">userver/storages/postgres</text>
<text text-anchor="middle" x="247.77" y="-7" font-family="Helvetica,sans-Serif" font-size="10.00">/postgres.hpp</text>
</a>
</g>
</g>
<!-- Node15&#45;&gt;Node17 -->
<g id="edge18_Node000015_Node000017" class="edge">
<title>Node15&#45;&gt;Node17</title>
<g id="a_edge18_Node000015_Node000017"><a xlink:title=" ">
<path fill="none" stroke="#63b8ff" d="M247.77,-55.54C247.77,-46.96 247.77,-37.61 247.77,-30.16"/>
<polygon fill="#63b8ff" stroke="#63b8ff" points="244.27,-55.8 247.77,-65.8 251.27,-55.8 244.27,-55.8"/>
</a>
</g>
</g>
<!-- Node18&#45;&gt;Node15 -->
<g id="edge20_Node000018_Node000015" class="edge">
<title>Node18&#45;&gt;Node15</title>
<g id="a_edge20_Node000018_Node000015"><a xlink:title=" ">
<path fill="none" stroke="#63b8ff" d="M136.23,-128.05C160.78,-117.91 191.03,-105.43 213.83,-96.01"/>
<polygon fill="#63b8ff" stroke="#63b8ff" points="134.69,-124.9 126.78,-131.95 137.36,-131.37 134.69,-124.9"/>
</a>
</g>
</g>
<!-- Node19 -->
<g id="Node000019" class="node">
<title>Node19</title>
<g id="a_Node000019"><a xlink:href="../../df/d08/postgresql_2include_2userver_2storages_2postgres_2component_8hpp.html" target="_top" xlink:title="PosgreSQL client component.">
<polygon fill="white" stroke="#666666" points="158.27,-96 15.27,-96 15.27,-66 158.27,-66 158.27,-96"/>
<text text-anchor="start" x="23.27" y="-84" font-family="Helvetica,sans-Serif" font-size="10.00">userver/storages/postgres</text>
<text text-anchor="middle" x="86.77" y="-73" font-family="Helvetica,sans-Serif" font-size="10.00">/component.hpp</text>
</a>
</g>
</g>
<!-- Node18&#45;&gt;Node19 -->
<g id="edge21_Node000018_Node000019" class="edge">
<title>Node18&#45;&gt;Node19</title>
<g id="a_edge21_Node000018_Node000019"><a xlink:title=" ">
<path fill="none" stroke="#63b8ff" d="M90.5,-121.83C89.69,-113.17 88.8,-103.7 88.09,-96.16"/>
<polygon fill="#63b8ff" stroke="#63b8ff" points="87.02,-122.17 91.43,-131.8 93.98,-121.51 87.02,-122.17"/>
</a>
</g>
</g>
<!-- Node19&#45;&gt;Node16 -->
<g id="edge22_Node000019_Node000016" class="edge">
<title>Node19&#45;&gt;Node16</title>
<g id="a_edge22_Node000019_Node000016"><a xlink:title=" ">
<path fill="none" stroke="#63b8ff" d="M89.03,-55.83C89.84,-47.17 90.73,-37.7 91.44,-30.16"/>
<polygon fill="#63b8ff" stroke="#63b8ff" points="85.55,-55.51 88.1,-65.8 92.51,-56.17 85.55,-55.51"/>
</a>
</g>
</g>
<!-- Node19&#45;&gt;Node17 -->
<g id="edge23_Node000019_Node000017" class="edge">
<title>Node19&#45;&gt;Node17</title>
<g id="a_edge23_Node000019_Node000017"><a xlink:title=" ">
<path fill="none" stroke="#63b8ff" d="M131.57,-62.19C157.14,-52.02 188.73,-39.47 212.52,-30.01"/>
<polygon fill="#63b8ff" stroke="#63b8ff" points="130.1,-59.01 122.1,-65.95 132.68,-65.51 130.1,-59.01"/>
</a>
</g>
</g>
<!-- Node21 -->
<g id="Node000021" class="node">
<title>Node21</title>
<g id="a_Node000021"><a xlink:href="../../dc/d89/postgresql_2include_2userver_2storages_2postgres_2dist__lock__component__base_8hpp.html" target="_top" xlink:title="Base class for postgres&#45;based distlock worker components.">
<polygon fill="white" stroke="#666666" points="542.27,-162 369.27,-162 369.27,-132 542.27,-132 542.27,-162"/>
<text text-anchor="start" x="377.27" y="-150" font-family="Helvetica,sans-Serif" font-size="10.00">userver/storages/postgres</text>
<text text-anchor="middle" x="455.77" y="-139" font-family="Helvetica,sans-Serif" font-size="10.00">/dist_lock_component_base.hpp</text>
</a>
</g>
</g>
<!-- Node20&#45;&gt;Node21 -->
<g id="edge25_Node000020_Node000021" class="edge">
<title>Node20&#45;&gt;Node21</title>
<g id="a_edge25_Node000020_Node000021"><a xlink:title=" ">
<path fill="none" stroke="#63b8ff" d="M529.09,-192.69C512.88,-182.82 493.51,-171.01 478.75,-162.01"/>
<polygon fill="#63b8ff" stroke="#63b8ff" points="527.36,-195.74 537.72,-197.95 531.01,-189.76 527.36,-195.74"/>
</a>
</g>
</g>
<!-- Node22&#45;&gt;Node15 -->
<g id="edge27_Node000022_Node000015" class="edge">
<title>Node22&#45;&gt;Node15</title>
<g id="a_edge27_Node000022_Node000015"><a xlink:title=" ">
<path fill="none" stroke="#63b8ff" d="M240.45,-187.68C242.32,-160.7 245.27,-118.11 246.79,-96.14"/>
<polygon fill="#63b8ff" stroke="#63b8ff" points="236.94,-187.62 239.75,-197.84 243.93,-188.11 236.94,-187.62"/>
</a>
</g>
</g>
<!-- Node23&#45;&gt;Node24 -->
<g id="edge29_Node000023_Node000024" class="edge">
<title>Node23&#45;&gt;Node24</title>
<g id="a_edge29_Node000023_Node000024"><a xlink:title=" ">
<path fill="none" stroke="#63b8ff" d="M723.23,-193.38C703.04,-183.36 678.56,-171.22 660.01,-162.01"/>
<polygon fill="#63b8ff" stroke="#63b8ff" points="721.94,-196.65 732.46,-197.95 725.05,-190.38 721.94,-196.65"/>
</a>
</g>
</g>
<!-- Node24&#45;&gt;Node15 -->
<g id="edge30_Node000024_Node000015" class="edge">
<title>Node24&#45;&gt;Node15</title>
<g id="a_edge30_Node000024_Node000015"><a xlink:title=" ">
<path fill="none" stroke="#63b8ff" d="M550.35,-131.94C464.95,-117.53 378.55,-103.33 319.42,-93.67"/>
<polygon fill="#63b8ff" stroke="#63b8ff" points="549.77,-135.39 560.22,-133.6 550.94,-128.49 549.77,-135.39"/>
</a>
</g>
</g>
<!-- Node24&#45;&gt;Node17 -->
<g id="edge31_Node000024_Node000017" class="edge">
<title>Node24&#45;&gt;Node17</title>
<g id="a_edge31_Node000024_Node000017"><a xlink:title=" ">
<path fill="none" stroke="#63b8ff" d="M580.37,-128.6C503.49,-102.57 360.04,-54.01 289.34,-30.08"/>
<polygon fill="#63b8ff" stroke="#63b8ff" points="579.71,-132.07 590.31,-131.96 581.96,-125.44 579.71,-132.07"/>
</a>
</g>
</g>
<!-- Node25&#45;&gt;Node15 -->
<g id="edge33_Node000025_Node000015" class="edge">
<title>Node25&#45;&gt;Node15</title>
<g id="a_edge33_Node000025_Node000015"><a xlink:title=" ">
<path fill="none" stroke="#63b8ff" d="M375.42,-191.18C344.26,-164.53 291.13,-119.09 264.3,-96.14"/>
<polygon fill="#63b8ff" stroke="#63b8ff" points="373.33,-194 383.21,-197.84 377.88,-188.68 373.33,-194"/>
</a>
</g>
</g>
<!-- Node26&#45;&gt;Node15 -->
<g id="edge36_Node000026_Node000015" class="edge">
<title>Node26&#45;&gt;Node15</title>
<g id="a_edge36_Node000026_Node000015"><a xlink:title=" ">
<path fill="none" stroke="#63b8ff" d="M142.71,-260.68C71.97,-236.31 -34.02,-188.5 11.77,-132 17.06,-125.46 108.76,-107.42 176.26,-94.9"/>
<polygon fill="#63b8ff" stroke="#63b8ff" points="141.85,-264.08 152.44,-263.96 144.09,-257.45 141.85,-264.08"/>
</a>
</g>
</g>
<!-- Node27&#45;&gt;Node6 -->
<g id="edge38_Node000027_Node000006" class="edge">
<title>Node27&#45;&gt;Node6</title>
<g id="a_edge38_Node000027_Node000006"><a xlink:title=" ">
<path fill="none" stroke="#63b8ff" d="M732.36,-398.95C724.84,-389.7 716.61,-379.58 709.68,-371.07"/>
<polygon fill="#63b8ff" stroke="#63b8ff" points="729.71,-401.25 738.74,-406.79 735.14,-396.83 729.71,-401.25"/>
</a>
</g>
</g>
<!-- Node29 -->
<g id="Node000029" class="node">
<title>Node29</title>
<g id="a_Node000029"><a xlink:href="../../d1/d41/fs__cache_8hpp.html" target="_top" xlink:title="Component for storing files in memory.">
<polygon fill="white" stroke="#666666" points="1027.77,-365.5 911.77,-365.5 911.77,-335.5 1027.77,-335.5 1027.77,-365.5"/>
<text text-anchor="start" x="919.77" y="-353.5" font-family="Helvetica,sans-Serif" font-size="10.00">userver/components</text>
<text text-anchor="middle" x="969.77" y="-342.5" font-family="Helvetica,sans-Serif" font-size="10.00">/fs_cache.hpp</text>
</a>
</g>
</g>
<!-- Node28&#45;&gt;Node29 -->
<g id="edge40_Node000028_Node000029" class="edge">
<title>Node28&#45;&gt;Node29</title>
<g id="a_edge40_Node000028_Node000029"><a xlink:title=" ">
<path fill="none" stroke="#63b8ff" d="M907.65,-405.67C922.32,-392.88 940.71,-376.84 953.66,-365.54"/>
<polygon fill="#63b8ff" stroke="#63b8ff" points="905.18,-403.18 899.94,-412.39 909.78,-408.46 905.18,-403.18"/>
</a>
</g>
</g>
<!-- Node30 -->
<g id="Node000030" class="node">
<title>Node30</title>
<g id="a_Node000030"><a xlink:href="../../dd/db6/http__handler__static_8hpp.html" target="_top" xlink:title="Handler that returns HTTP 200 if file exist and returns file data with mapped content/type.">
<polygon fill="white" stroke="#666666" points="1036.77,-294 902.77,-294 902.77,-264 1036.77,-264 1036.77,-294"/>
<text text-anchor="start" x="910.77" y="-282" font-family="Helvetica,sans-Serif" font-size="10.00">userver/server/handlers</text>
<text text-anchor="middle" x="969.77" y="-271" font-family="Helvetica,sans-Serif" font-size="10.00">/http_handler_static.hpp</text>
</a>
</g>
</g>
<!-- Node28&#45;&gt;Node30 -->
<g id="edge42_Node000028_Node000030" class="edge">
<title>Node28&#45;&gt;Node30</title>
<g id="a_edge42_Node000028_Node000030"><a xlink:title=" ">
<path fill="none" stroke="#63b8ff" d="M883.8,-402.08C884.89,-381.42 889.04,-351.8 902.77,-330 912.36,-314.77 928.38,-302.56 942.35,-294.02"/>
<polygon fill="#63b8ff" stroke="#63b8ff" points="880.3,-402.14 883.47,-412.25 887.29,-402.36 880.3,-402.14"/>
</a>
</g>
</g>
<!-- Node29&#45;&gt;Node30 -->
<g id="edge41_Node000029_Node000030" class="edge">
<title>Node29&#45;&gt;Node30</title>
<g id="a_edge41_Node000029_Node000030"><a xlink:title=" ">
<path fill="none" stroke="#63b8ff" d="M969.77,-325.25C969.77,-314.81 969.77,-302.99 969.77,-294.04"/>
<polygon fill="#63b8ff" stroke="#63b8ff" points="966.27,-325.44 969.77,-335.44 973.27,-325.44 966.27,-325.44"/>
</a>
</g>
</g>
<!-- Node33 -->
<g id="Node000033" class="node">
<title>Node33</title>
<g id="a_Node000033"><a xlink:href="../../d7/de4/rabbitmq_8hpp.html" target="_top" xlink:title=" ">
<polygon fill="white" stroke="#666666" points="1286.77,-360 1164.77,-360 1164.77,-341 1286.77,-341 1286.77,-360"/>
<text text-anchor="middle" x="1225.77" y="-348" font-family="Helvetica,sans-Serif" font-size="10.00">userver/rabbitmq.hpp</text>
</a>
</g>
</g>
<!-- Node32&#45;&gt;Node33 -->
<g id="edge45_Node000032_Node000033" class="edge">
<title>Node32&#45;&gt;Node33</title>
<g id="a_edge45_Node000032_Node000033"><a xlink:title=" ">
<path fill="none" stroke="#63b8ff" d="M1225.77,-402.18C1225.77,-387.86 1225.77,-370.61 1225.77,-360.37"/>
<polygon fill="#63b8ff" stroke="#63b8ff" points="1222.27,-402.39 1225.77,-412.39 1229.27,-402.39 1222.27,-402.39"/>
</a>
</g>
</g>
</g>
</svg>
