<?xml version="1.0" encoding="UTF-8" standalone="no"?>
<!DOCTYPE svg PUBLIC "-//W3C//DTD SVG 1.1//EN"
 "http://www.w3.org/Graphics/SVG/1.1/DTD/svg11.dtd">
<!-- Generated by graphviz version 2.43.0 (0)
 -->
<!-- Title: userver/utils/statistics/fmt.hpp Pages: 1 -->
<svg width="901pt" height="225pt"
 viewBox="0.00 0.00 901.00 225.00" xmlns="http://www.w3.org/2000/svg" xmlns:xlink="http://www.w3.org/1999/xlink">
<g id="graph0" class="graph" transform="scale(1 1) rotate(0) translate(4 221)">
<title>userver/utils/statistics/fmt.hpp</title>
<!-- Node1 -->
<g id="Node000001" class="node">
<title>Node1</title>
<g id="a_Node000001"><a xlink:title="fmt formatters for various statistics types">
<polygon fill="#999999" stroke="#666666" points="560,-217 435,-217 435,-187 560,-187 560,-217"/>
<text text-anchor="start" x="443" y="-205" font-family="Helvetica,sans-Serif" font-size="10.00">userver/utils/statistics</text>
<text text-anchor="middle" x="497.5" y="-194" font-family="Helvetica,sans-Serif" font-size="10.00">/fmt.hpp</text>
</a>
</g>
</g>
<!-- Node2 -->
<g id="Node000002" class="node">
<title>Node2</title>
<g id="a_Node000002"><a xlink:title=" ">
<polygon fill="#e0e0e0" stroke="#999999" points="529,-79.5 478,-79.5 478,-60.5 529,-60.5 529,-79.5"/>
<text text-anchor="middle" x="503.5" y="-67.5" font-family="Helvetica,sans-Serif" font-size="10.00">variant</text>
</a>
</g>
</g>
<!-- Node1&#45;&gt;Node2 -->
<g id="edge1_Node000001_Node000002" class="edge">
<title>Node1&#45;&gt;Node2</title>
<g id="a_edge1_Node000001_Node000002"><a xlink:title=" ">
<path fill="none" stroke="#63b8ff" d="M540.75,-186.95C557.49,-179.15 574.9,-167.59 584.5,-151 591.18,-139.46 591,-132.64 584.5,-121 574.58,-103.22 555.45,-90.98 538.27,-83.05"/>
<polygon fill="#63b8ff" stroke="#63b8ff" points="539.57,-79.8 529,-79.09 536.82,-86.24 539.57,-79.8"/>
</a>
</g>
</g>
<!-- Node3 -->
<g id="Node000003" class="node">
<title>Node3</title>
<g id="a_Node000003"><a xlink:title=" ">
<polygon fill="#e0e0e0" stroke="#999999" points="258,-145.5 179,-145.5 179,-126.5 258,-126.5 258,-145.5"/>
<text text-anchor="middle" x="218.5" y="-133.5" font-family="Helvetica,sans-Serif" font-size="10.00">fmt/format.h</text>
</a>
</g>
</g>
<!-- Node1&#45;&gt;Node3 -->
<g id="edge2_Node000001_Node000003" class="edge">
<title>Node1&#45;&gt;Node3</title>
<g id="a_edge2_Node000001_Node000003"><a xlink:title=" ">
<path fill="none" stroke="#63b8ff" d="M434.96,-188.71C388.33,-179.24 323.18,-165.38 266.5,-151 263.16,-150.15 259.7,-149.23 256.24,-148.28"/>
<polygon fill="#63b8ff" stroke="#63b8ff" points="257.16,-144.9 246.58,-145.55 255.25,-151.64 257.16,-144.9"/>
</a>
</g>
</g>
<!-- Node4 -->
<g id="Node000004" class="node">
<title>Node4</title>
<g id="a_Node000004"><a xlink:href="../../d3/d6c/fmt__compat_8hpp_source.html" target="_top" xlink:title=" ">
<polygon fill="white" stroke="#666666" points="161,-145.5 0,-145.5 0,-126.5 161,-126.5 161,-145.5"/>
<text text-anchor="middle" x="80.5" y="-133.5" font-family="Helvetica,sans-Serif" font-size="10.00">userver/utils/fmt_compat.hpp</text>
</a>
</g>
</g>
<!-- Node1&#45;&gt;Node4 -->
<g id="edge3_Node000001_Node000004" class="edge">
<title>Node1&#45;&gt;Node4</title>
<g id="a_edge3_Node000001_Node000004"><a xlink:title=" ">
<path fill="none" stroke="#63b8ff" d="M434.91,-191.55C368.9,-181.56 261.86,-165.3 169.5,-151 161.48,-149.76 153.05,-148.44 144.71,-147.14"/>
<polygon fill="#63b8ff" stroke="#63b8ff" points="145.04,-143.65 134.62,-145.56 143.96,-150.56 145.04,-143.65"/>
</a>
</g>
</g>
<!-- Node6 -->
<g id="Node000006" class="node">
<title>Node6</title>
<g id="a_Node000006"><a xlink:href="../../da/df1/overloaded_8hpp.html" target="_top" xlink:title="Utility to define std::variant visitors in a simple way.">
<polygon fill="white" stroke="#666666" points="575.5,-145.5 419.5,-145.5 419.5,-126.5 575.5,-126.5 575.5,-145.5"/>
<text text-anchor="middle" x="497.5" y="-133.5" font-family="Helvetica,sans-Serif" font-size="10.00">userver/utils/overloaded.hpp</text>
</a>
</g>
</g>
<!-- Node1&#45;&gt;Node6 -->
<g id="edge5_Node000001_Node000006" class="edge">
<title>Node1&#45;&gt;Node6</title>
<g id="a_edge5_Node000001_Node000006"><a xlink:title=" ">
<path fill="none" stroke="#63b8ff" d="M497.5,-186.8C497.5,-177.7 497.5,-165.79 497.5,-155.9"/>
<polygon fill="#63b8ff" stroke="#63b8ff" points="501,-155.84 497.5,-145.84 494,-155.84 501,-155.84"/>
</a>
</g>
</g>
<!-- Node7 -->
<g id="Node000007" class="node">
<title>Node7</title>
<g id="a_Node000007"><a xlink:href="../../d1/d0e/labels_8hpp.html" target="_top" xlink:title="Owning and non owning labels representations.">
<polygon fill="white" stroke="#666666" points="401,-151 276,-151 276,-121 401,-121 401,-151"/>
<text text-anchor="start" x="284" y="-139" font-family="Helvetica,sans-Serif" font-size="10.00">userver/utils/statistics</text>
<text text-anchor="middle" x="338.5" y="-128" font-family="Helvetica,sans-Serif" font-size="10.00">/labels.hpp</text>
</a>
</g>
</g>
<!-- Node1&#45;&gt;Node7 -->
<g id="edge6_Node000001_Node000007" class="edge">
<title>Node1&#45;&gt;Node7</title>
<g id="a_edge6_Node000001_Node000007"><a xlink:title=" ">
<path fill="none" stroke="#63b8ff" d="M462.61,-186.95C439.1,-177.49 407.9,-164.93 382.66,-154.78"/>
<polygon fill="#63b8ff" stroke="#63b8ff" points="383.9,-151.5 373.31,-151.01 381.28,-157.99 383.9,-151.5"/>
</a>
</g>
</g>
<!-- Node11 -->
<g id="Node000011" class="node">
<title>Node11</title>
<g id="a_Node000011"><a xlink:href="../../da/d8a/metric__value_8hpp.html" target="_top" xlink:title="The value of a metric.">
<polygon fill="white" stroke="#666666" points="757,-151 632,-151 632,-121 757,-121 757,-151"/>
<text text-anchor="start" x="640" y="-139" font-family="Helvetica,sans-Serif" font-size="10.00">userver/utils/statistics</text>
<text text-anchor="middle" x="694.5" y="-128" font-family="Helvetica,sans-Serif" font-size="10.00">/metric_value.hpp</text>
</a>
</g>
</g>
<!-- Node1&#45;&gt;Node11 -->
<g id="edge10_Node000001_Node000011" class="edge">
<title>Node1&#45;&gt;Node11</title>
<g id="a_edge10_Node000001_Node000011"><a xlink:title=" ">
<path fill="none" stroke="#63b8ff" d="M540.73,-186.95C570.5,-177.28 610.22,-164.38 641.84,-154.11"/>
<polygon fill="#63b8ff" stroke="#63b8ff" points="642.94,-157.43 651.37,-151.01 640.78,-150.77 642.94,-157.43"/>
</a>
</g>
</g>
<!-- Node15 -->
<g id="Node000015" class="node">
<title>Node15</title>
<g id="a_Node000015"><a xlink:href="../../d6/dab/rate_8hpp.html" target="_top" xlink:title=" ">
<polygon fill="white" stroke="#666666" points="893,-85 768,-85 768,-55 893,-55 893,-85"/>
<text text-anchor="start" x="776" y="-73" font-family="Helvetica,sans-Serif" font-size="10.00">userver/utils/statistics</text>
<text text-anchor="middle" x="830.5" y="-62" font-family="Helvetica,sans-Serif" font-size="10.00">/rate.hpp</text>
</a>
</g>
</g>
<!-- Node1&#45;&gt;Node15 -->
<g id="edge20_Node000001_Node000015" class="edge">
<title>Node1&#45;&gt;Node15</title>
<g id="a_edge20_Node000001_Node000015"><a xlink:title=" ">
<path fill="none" stroke="#63b8ff" d="M560.1,-194.47C628.37,-186.45 732.48,-171.39 766.5,-151 789.34,-137.31 807.35,-112.27 818.37,-93.84"/>
<polygon fill="#63b8ff" stroke="#63b8ff" points="821.42,-95.57 823.35,-85.15 815.34,-92.09 821.42,-95.57"/>
</a>
</g>
</g>
<!-- Node5 -->
<g id="Node000005" class="node">
<title>Node5</title>
<g id="a_Node000005"><a xlink:title=" ">
<polygon fill="#e0e0e0" stroke="#999999" points="114,-79.5 47,-79.5 47,-60.5 114,-60.5 114,-79.5"/>
<text text-anchor="middle" x="80.5" y="-67.5" font-family="Helvetica,sans-Serif" font-size="10.00">fmt/core.h</text>
</a>
</g>
</g>
<!-- Node4&#45;&gt;Node5 -->
<g id="edge4_Node000004_Node000005" class="edge">
<title>Node4&#45;&gt;Node5</title>
<g id="a_edge4_Node000004_Node000005"><a xlink:title=" ">
<path fill="none" stroke="#63b8ff" d="M80.5,-126.37C80.5,-117.16 80.5,-102.29 80.5,-90.27"/>
<polygon fill="#63b8ff" stroke="#63b8ff" points="84,-89.91 80.5,-79.91 77,-89.91 84,-89.91"/>
</a>
</g>
</g>
<!-- Node8 -->
<g id="Node000008" class="node">
<title>Node8</title>
<g id="a_Node000008"><a xlink:title=" ">
<polygon fill="#e0e0e0" stroke="#999999" points="306.5,-79.5 262.5,-79.5 262.5,-60.5 306.5,-60.5 306.5,-79.5"/>
<text text-anchor="middle" x="284.5" y="-67.5" font-family="Helvetica,sans-Serif" font-size="10.00">string</text>
</a>
</g>
</g>
<!-- Node7&#45;&gt;Node8 -->
<g id="edge7_Node000007_Node000008" class="edge">
<title>Node7&#45;&gt;Node8</title>
<g id="a_edge7_Node000007_Node000008"><a xlink:title=" ">
<path fill="none" stroke="#63b8ff" d="M326.52,-120.8C318.26,-111.01 307.26,-97.98 298.59,-87.7"/>
<polygon fill="#63b8ff" stroke="#63b8ff" points="301.09,-85.23 291.96,-79.84 295.74,-89.74 301.09,-85.23"/>
</a>
</g>
</g>
<!-- Node9 -->
<g id="Node000009" class="node">
<title>Node9</title>
<g id="a_Node000009"><a xlink:title=" ">
<polygon fill="#e0e0e0" stroke="#999999" points="398,-79.5 325,-79.5 325,-60.5 398,-60.5 398,-79.5"/>
<text text-anchor="middle" x="361.5" y="-67.5" font-family="Helvetica,sans-Serif" font-size="10.00">string_view</text>
</a>
</g>
</g>
<!-- Node7&#45;&gt;Node9 -->
<g id="edge8_Node000007_Node000009" class="edge">
<title>Node7&#45;&gt;Node9</title>
<g id="a_edge8_Node000007_Node000009"><a xlink:title=" ">
<path fill="none" stroke="#63b8ff" d="M343.6,-120.8C346.94,-111.5 351.34,-99.27 354.94,-89.26"/>
<polygon fill="#63b8ff" stroke="#63b8ff" points="358.23,-90.44 358.32,-79.84 351.65,-88.07 358.23,-90.44"/>
</a>
</g>
</g>
<!-- Node10 -->
<g id="Node000010" class="node">
<title>Node10</title>
<g id="a_Node000010"><a xlink:title=" ">
<polygon fill="#e0e0e0" stroke="#999999" points="592,-19 523,-19 523,0 592,0 592,-19"/>
<text text-anchor="middle" x="557.5" y="-7" font-family="Helvetica,sans-Serif" font-size="10.00">type_traits</text>
</a>
</g>
</g>
<!-- Node7&#45;&gt;Node10 -->
<g id="edge9_Node000007_Node000010" class="edge">
<title>Node7&#45;&gt;Node10</title>
<g id="a_edge9_Node000007_Node000010"><a xlink:title=" ">
<path fill="none" stroke="#63b8ff" d="M360.23,-120.81C385.77,-104.33 429.59,-76.64 468.5,-55 488.75,-43.73 512.22,-32.05 529.97,-23.49"/>
<polygon fill="#63b8ff" stroke="#63b8ff" points="531.68,-26.55 539.19,-19.07 528.66,-20.24 531.68,-26.55"/>
</a>
</g>
</g>
<!-- Node11&#45;&gt;Node2 -->
<g id="edge13_Node000011_Node000002" class="edge">
<title>Node11&#45;&gt;Node2</title>
<g id="a_edge13_Node000011_Node000002"><a xlink:title=" ">
<path fill="none" stroke="#63b8ff" d="M651.48,-120.97C621.23,-111.05 579.84,-97.37 543.5,-85 541.41,-84.29 539.25,-83.55 537.08,-82.8"/>
<polygon fill="#63b8ff" stroke="#63b8ff" points="538.19,-79.48 527.59,-79.51 535.89,-86.09 538.19,-79.48"/>
</a>
</g>
</g>
<!-- Node11&#45;&gt;Node10 -->
<g id="edge12_Node000011_Node000010" class="edge">
<title>Node11&#45;&gt;Node10</title>
<g id="a_edge12_Node000011_Node000010"><a xlink:title=" ">
<path fill="none" stroke="#63b8ff" d="M633.22,-120.95C612.6,-113.42 591.15,-102.04 576.5,-85 563.21,-69.54 559.02,-46 557.79,-29.53"/>
<polygon fill="#63b8ff" stroke="#63b8ff" points="561.29,-29.28 557.35,-19.45 554.29,-29.59 561.29,-29.28"/>
</a>
</g>
</g>
<!-- Node12 -->
<g id="Node000012" class="node">
<title>Node12</title>
<g id="a_Node000012"><a xlink:title=" ">
<polygon fill="#e0e0e0" stroke="#999999" points="764.5,-19 714.5,-19 714.5,0 764.5,0 764.5,-19"/>
<text text-anchor="middle" x="739.5" y="-7" font-family="Helvetica,sans-Serif" font-size="10.00">cstdint</text>
</a>
</g>
</g>
<!-- Node11&#45;&gt;Node12 -->
<g id="edge11_Node000011_Node000012" class="edge">
<title>Node11&#45;&gt;Node12</title>
<g id="a_edge11_Node000011_Node000012"><a xlink:title=" ">
<path fill="none" stroke="#63b8ff" d="M702.51,-120.9C707.85,-111.07 714.74,-97.52 719.5,-85 726.54,-66.46 732.13,-44.45 735.59,-29.18"/>
<polygon fill="#63b8ff" stroke="#63b8ff" points="739.01,-29.91 737.72,-19.4 732.17,-28.42 739.01,-29.91"/>
</a>
</g>
</g>
<!-- Node13 -->
<g id="Node000013" class="node">
<title>Node13</title>
<g id="a_Node000013"><a xlink:href="../../d5/de6/histogram__view_8hpp.html" target="_top" xlink:title="The non&#45;owning reader API for &quot;histogram&quot; metrics.">
<polygon fill="white" stroke="#666666" points="711,-85 586,-85 586,-55 711,-55 711,-85"/>
<text text-anchor="start" x="594" y="-73" font-family="Helvetica,sans-Serif" font-size="10.00">userver/utils/statistics</text>
<text text-anchor="middle" x="648.5" y="-62" font-family="Helvetica,sans-Serif" font-size="10.00">/histogram_view.hpp</text>
</a>
</g>
</g>
<!-- Node11&#45;&gt;Node13 -->
<g id="edge14_Node000011_Node000013" class="edge">
<title>Node11&#45;&gt;Node13</title>
<g id="a_edge14_Node000011_Node000013"><a xlink:title=" ">
<path fill="none" stroke="#63b8ff" d="M684.29,-120.8C678.51,-112.76 671.16,-102.53 664.62,-93.43"/>
<polygon fill="#63b8ff" stroke="#63b8ff" points="667.36,-91.24 658.68,-85.16 661.67,-95.33 667.36,-91.24"/>
</a>
</g>
</g>
<!-- Node11&#45;&gt;Node15 -->
<g id="edge18_Node000011_Node000015" class="edge">
<title>Node11&#45;&gt;Node15</title>
<g id="a_edge18_Node000011_Node000015"><a xlink:title=" ">
<path fill="none" stroke="#63b8ff" d="M724.35,-120.95C744.1,-111.66 770.2,-99.38 791.58,-89.32"/>
<polygon fill="#63b8ff" stroke="#63b8ff" points="793.17,-92.44 800.72,-85.01 790.19,-86.1 793.17,-92.44"/>
</a>
</g>
</g>
<!-- Node13&#45;&gt;Node10 -->
<g id="edge17_Node000013_Node000010" class="edge">
<title>Node13&#45;&gt;Node10</title>
<g id="a_edge17_Node000013_Node000010"><a xlink:title=" ">
<path fill="none" stroke="#63b8ff" d="M626.47,-54.84C612.23,-45.68 593.77,-33.82 579.53,-24.66"/>
<polygon fill="#63b8ff" stroke="#63b8ff" points="581.17,-21.56 570.87,-19.09 577.39,-27.45 581.17,-21.56"/>
</a>
</g>
</g>
<!-- Node13&#45;&gt;Node12 -->
<g id="edge16_Node000013_Node000012" class="edge">
<title>Node13&#45;&gt;Node12</title>
<g id="a_edge16_Node000013_Node000012"><a xlink:title=" ">
<path fill="none" stroke="#63b8ff" d="M670.53,-54.84C684.77,-45.68 703.23,-33.82 717.47,-24.66"/>
<polygon fill="#63b8ff" stroke="#63b8ff" points="719.61,-27.45 726.13,-19.09 715.83,-21.56 719.61,-27.45"/>
</a>
</g>
</g>
<!-- Node14 -->
<g id="Node000014" class="node">
<title>Node14</title>
<g id="a_Node000014"><a xlink:title=" ">
<polygon fill="#e0e0e0" stroke="#999999" points="675,-19 622,-19 622,0 675,0 675,-19"/>
<text text-anchor="middle" x="648.5" y="-7" font-family="Helvetica,sans-Serif" font-size="10.00">cstddef</text>
</a>
</g>
</g>
<!-- Node13&#45;&gt;Node14 -->
<g id="edge15_Node000013_Node000014" class="edge">
<title>Node13&#45;&gt;Node14</title>
<g id="a_edge15_Node000013_Node000014"><a xlink:title=" ">
<path fill="none" stroke="#63b8ff" d="M648.5,-54.84C648.5,-47.21 648.5,-37.7 648.5,-29.45"/>
<polygon fill="#63b8ff" stroke="#63b8ff" points="652,-29.27 648.5,-19.27 645,-29.27 652,-29.27"/>
</a>
</g>
</g>
<!-- Node15&#45;&gt;Node12 -->
<g id="edge19_Node000015_Node000012" class="edge">
<title>Node15&#45;&gt;Node12</title>
<g id="a_edge19_Node000015_Node000012"><a xlink:title=" ">
<path fill="none" stroke="#63b8ff" d="M808.47,-54.84C794.23,-45.68 775.77,-33.82 761.53,-24.66"/>
<polygon fill="#63b8ff" stroke="#63b8ff" points="763.17,-21.56 752.87,-19.09 759.39,-27.45 763.17,-21.56"/>
</a>
</g>
</g>
</g>
</svg>
