<?xml version="1.0" encoding="UTF-8" standalone="no"?>
<!DOCTYPE svg PUBLIC "-//W3C//DTD SVG 1.1//EN"
 "http://www.w3.org/Graphics/SVG/1.1/DTD/svg11.dtd">
<!-- Generated by graphviz version 2.43.0 (0)
 -->
<!-- Title: formats::yaml::Exception Pages: 1 -->
<svg width="476pt" height="268pt"
 viewBox="0.00 0.00 476.00 268.00" xmlns="http://www.w3.org/2000/svg" xmlns:xlink="http://www.w3.org/1999/xlink">
<g id="graph0" class="graph" transform="scale(1 1) rotate(0) translate(4 264)">
<title>formats::yaml::Exception</title>
<!-- Node1 -->
<g id="Node000001" class="node">
<title>Node1</title>
<g id="a_Node000001"><a xlink:title=" ">
<polygon fill="#999999" stroke="#666666" points="262,-136.5 122,-136.5 122,-117.5 262,-117.5 262,-136.5"/>
<text text-anchor="middle" x="192" y="-124.5" font-family="Helvetica,sans-Serif" font-size="10.00">formats::yaml::Exception</text>
</a>
</g>
</g>
<!-- Node3 -->
<g id="Node000003" class="node">
<title>Node3</title>
<g id="a_Node000003"><a xlink:href="../../d7/d15/classformats_1_1yaml_1_1BadStreamException.html" target="_top" xlink:title=" ">
<polygon fill="white" stroke="#bfbfbf" points="456,-260 310,-260 310,-230 456,-230 456,-260"/>
<text text-anchor="start" x="318" y="-248" font-family="Helvetica,sans-Serif" font-size="10.00">formats::yaml::BadStream</text>
<text text-anchor="middle" x="383" y="-237" font-family="Helvetica,sans-Serif" font-size="10.00">Exception</text>
</a>
</g>
</g>
<!-- Node1&#45;&gt;Node3 -->
<g id="edge2_Node000001_Node000003" class="edge">
<title>Node1&#45;&gt;Node3</title>
<g id="a_edge2_Node000001_Node000003"><a xlink:title=" ">
<path fill="none" stroke="#63b8ff" d="M207.55,-144.1C226.36,-165.16 261.12,-200.65 298,-221 304.11,-224.37 310.73,-227.31 317.49,-229.85"/>
<polygon fill="#63b8ff" stroke="#63b8ff" points="210.15,-141.76 200.93,-136.54 204.88,-146.37 210.15,-141.76"/>
</a>
</g>
</g>
<!-- Node4 -->
<g id="Node000004" class="node">
<title>Node4</title>
<g id="a_Node000004"><a xlink:href="../../d4/dcb/classformats_1_1yaml_1_1MemberMissingException.html" target="_top" xlink:title=" ">
<polygon fill="white" stroke="#bfbfbf" points="468,-212 298,-212 298,-182 468,-182 468,-212"/>
<text text-anchor="start" x="306" y="-200" font-family="Helvetica,sans-Serif" font-size="10.00">formats::yaml::MemberMissing</text>
<text text-anchor="middle" x="383" y="-189" font-family="Helvetica,sans-Serif" font-size="10.00">Exception</text>
</a>
</g>
</g>
<!-- Node1&#45;&gt;Node4 -->
<g id="edge3_Node000001_Node000004" class="edge">
<title>Node1&#45;&gt;Node4</title>
<g id="a_edge3_Node000001_Node000004"><a xlink:title=" ">
<path fill="none" stroke="#63b8ff" d="M222.06,-140.99C242.9,-150.72 271.81,-163.57 298,-173 306.7,-176.13 316.03,-179.14 325.19,-181.89"/>
<polygon fill="#63b8ff" stroke="#63b8ff" points="223.34,-137.73 212.8,-136.63 220.36,-144.06 223.34,-137.73"/>
</a>
</g>
</g>
<!-- Node5 -->
<g id="Node000005" class="node">
<title>Node5</title>
<g id="a_Node000005"><a xlink:href="../../d1/d0b/classformats_1_1yaml_1_1OutOfBoundsException.html" target="_top" xlink:title=" ">
<polygon fill="white" stroke="#bfbfbf" points="461,-164 305,-164 305,-134 461,-134 461,-164"/>
<text text-anchor="start" x="313" y="-152" font-family="Helvetica,sans-Serif" font-size="10.00">formats::yaml::OutOfBounds</text>
<text text-anchor="middle" x="383" y="-141" font-family="Helvetica,sans-Serif" font-size="10.00">Exception</text>
</a>
</g>
</g>
<!-- Node1&#45;&gt;Node5 -->
<g id="edge4_Node000001_Node000005" class="edge">
<title>Node1&#45;&gt;Node5</title>
<g id="a_edge4_Node000001_Node000005"><a xlink:title=" ">
<path fill="none" stroke="#63b8ff" d="M272.27,-136.23C283.05,-137.48 294.1,-138.77 304.85,-140.02"/>
<polygon fill="#63b8ff" stroke="#63b8ff" points="272.37,-132.72 262.04,-135.04 271.56,-139.67 272.37,-132.72"/>
</a>
</g>
</g>
<!-- Node6 -->
<g id="Node000006" class="node">
<title>Node6</title>
<g id="a_Node000006"><a xlink:href="../../d9/d8f/classformats_1_1yaml_1_1ParseException.html" target="_top" xlink:title=" ">
<polygon fill="white" stroke="#bfbfbf" points="466,-115.5 300,-115.5 300,-96.5 466,-96.5 466,-115.5"/>
<text text-anchor="middle" x="383" y="-103.5" font-family="Helvetica,sans-Serif" font-size="10.00">formats::yaml::ParseException</text>
</a>
</g>
</g>
<!-- Node1&#45;&gt;Node6 -->
<g id="edge5_Node000001_Node000006" class="edge">
<title>Node1&#45;&gt;Node6</title>
<g id="a_edge5_Node000001_Node000006"><a xlink:title=" ">
<path fill="none" stroke="#63b8ff" d="M271.98,-118.22C281.24,-117.2 290.7,-116.14 300,-115.11"/>
<polygon fill="#63b8ff" stroke="#63b8ff" points="271.59,-114.75 262.04,-119.33 272.36,-121.7 271.59,-114.75"/>
</a>
</g>
</g>
<!-- Node7 -->
<g id="Node000007" class="node">
<title>Node7</title>
<g id="a_Node000007"><a xlink:href="../../de/d64/classformats_1_1yaml_1_1PathPrefixException.html" target="_top" xlink:title=" ">
<polygon fill="white" stroke="#bfbfbf" points="453,-78 313,-78 313,-48 453,-48 453,-78"/>
<text text-anchor="start" x="321" y="-66" font-family="Helvetica,sans-Serif" font-size="10.00">formats::yaml::PathPrefix</text>
<text text-anchor="middle" x="383" y="-55" font-family="Helvetica,sans-Serif" font-size="10.00">Exception</text>
</a>
</g>
</g>
<!-- Node1&#45;&gt;Node7 -->
<g id="edge6_Node000001_Node000007" class="edge">
<title>Node1&#45;&gt;Node7</title>
<g id="a_edge6_Node000001_Node000007"><a xlink:title=" ">
<path fill="none" stroke="#63b8ff" d="M226.08,-113.56C246.63,-105.43 273.66,-95.1 298,-87 307.21,-83.94 317.07,-80.9 326.67,-78.08"/>
<polygon fill="#63b8ff" stroke="#63b8ff" points="224.55,-110.4 216.56,-117.36 227.15,-116.91 224.55,-110.4"/>
</a>
</g>
</g>
<!-- Node8 -->
<g id="Node000008" class="node">
<title>Node8</title>
<g id="a_Node000008"><a xlink:href="../../d0/df6/classformats_1_1yaml_1_1TypeMismatchException.html" target="_top" xlink:title=" ">
<polygon fill="white" stroke="#bfbfbf" points="464,-30 302,-30 302,0 464,0 464,-30"/>
<text text-anchor="start" x="310" y="-18" font-family="Helvetica,sans-Serif" font-size="10.00">formats::yaml::TypeMismatch</text>
<text text-anchor="middle" x="383" y="-7" font-family="Helvetica,sans-Serif" font-size="10.00">Exception</text>
</a>
</g>
</g>
<!-- Node1&#45;&gt;Node8 -->
<g id="edge7_Node000001_Node000008" class="edge">
<title>Node1&#45;&gt;Node8</title>
<g id="a_edge7_Node000001_Node000008"><a xlink:title=" ">
<path fill="none" stroke="#63b8ff" d="M208.92,-109.86C228.21,-90.06 262.55,-57.82 298,-39 304.43,-35.59 311.4,-32.61 318.49,-30.03"/>
<polygon fill="#63b8ff" stroke="#63b8ff" points="206.22,-107.62 201.84,-117.26 211.28,-112.45 206.22,-107.62"/>
</a>
</g>
</g>
<!-- Node2 -->
<g id="Node000002" class="node">
<title>Node2</title>
<g id="a_Node000002"><a xlink:title=" ">
<polygon fill="white" stroke="#666666" points="86,-136.5 0,-136.5 0,-117.5 86,-117.5 86,-136.5"/>
<text text-anchor="middle" x="43" y="-124.5" font-family="Helvetica,sans-Serif" font-size="10.00">std::exception</text>
</a>
</g>
</g>
<!-- Node2&#45;&gt;Node1 -->
<g id="edge1_Node000001_Node000002" class="edge">
<title>Node2&#45;&gt;Node1</title>
<g id="a_edge1_Node000001_Node000002"><a xlink:title=" ">
<path fill="none" stroke="#63b8ff" d="M96.38,-127C104.67,-127 113.35,-127 121.95,-127"/>
<polygon fill="#63b8ff" stroke="#63b8ff" points="96.12,-123.5 86.12,-127 96.12,-130.5 96.12,-123.5"/>
</a>
</g>
</g>
</g>
</svg>
