<?xml version="1.0" encoding="UTF-8" standalone="no"?>
<!DOCTYPE svg PUBLIC "-//W3C//DTD SVG 1.1//EN"
 "http://www.w3.org/Graphics/SVG/1.1/DTD/svg11.dtd">
<!-- Generated by graphviz version 2.43.0 (0)
 -->
<!-- Title: storages::postgres::ReverseConstFieldIterator Pages: 1 -->
<svg width="499pt" height="71pt"
 viewBox="0.00 0.00 499.00 71.00" xmlns="http://www.w3.org/2000/svg" xmlns:xlink="http://www.w3.org/1999/xlink">
<g id="graph0" class="graph" transform="scale(1 1) rotate(0) translate(4 67)">
<title>storages::postgres::ReverseConstFieldIterator</title>
<!-- Node1 -->
<g id="Node000001" class="node">
<title>Node1</title>
<g id="a_Node000001"><a xlink:title="Reverse iterator over fields in a result set&#39;s row.">
<polygon fill="#999999" stroke="#666666" points="491,-46.5 342,-46.5 342,-16.5 491,-16.5 491,-46.5"/>
<text text-anchor="start" x="350" y="-34.5" font-family="Helvetica,sans-Serif" font-size="10.00">storages::postgres</text>
<text text-anchor="middle" x="416.5" y="-23.5" font-family="Helvetica,sans-Serif" font-size="10.00">::ReverseConstFieldIterator</text>
</a>
</g>
</g>
<!-- Node2 -->
<g id="Node000002" class="node">
<title>Node2</title>
<g id="a_Node000002"><a xlink:title=" ">
<polygon fill="white" stroke="#666666" points="306,-63 143,-63 143,0 306,0 306,-63"/>
<text text-anchor="start" x="151" y="-51" font-family="Helvetica,sans-Serif" font-size="10.00">storages::postgres</text>
<text text-anchor="start" x="151" y="-40" font-family="Helvetica,sans-Serif" font-size="10.00">::detail::ConstDataIterator</text>
<text text-anchor="start" x="151" y="-29" font-family="Helvetica,sans-Serif" font-size="10.00">&lt; ReverseConstFieldIterator,</text>
<text text-anchor="start" x="151" y="-18" font-family="Helvetica,sans-Serif" font-size="10.00"> Field, detail::IteratorDirection</text>
<text text-anchor="middle" x="224.5" y="-7" font-family="Helvetica,sans-Serif" font-size="10.00">::kReverse &gt;</text>
</a>
</g>
</g>
<!-- Node2&#45;&gt;Node1 -->
<g id="edge1_Node000001_Node000002" class="edge">
<title>Node2&#45;&gt;Node1</title>
<g id="a_edge1_Node000001_Node000002"><a xlink:title=" ">
<path fill="none" stroke="#63b8ff" d="M316.12,-31.5C324.7,-31.5 333.34,-31.5 341.74,-31.5"/>
<polygon fill="#63b8ff" stroke="#63b8ff" points="316.08,-28 306.08,-31.5 316.08,-35 316.08,-28"/>
</a>
</g>
</g>
<!-- Node3 -->
<g id="Node000003" class="node">
<title>Node3</title>
<g id="a_Node000003"><a xlink:href="../../df/d31/classstorages_1_1postgres_1_1Field.html" target="_top" xlink:title="Accessor to a single field in a result set&#39;s row.">
<polygon fill="white" stroke="#666666" points="107,-46.5 0,-46.5 0,-16.5 107,-16.5 107,-46.5"/>
<text text-anchor="start" x="8" y="-34.5" font-family="Helvetica,sans-Serif" font-size="10.00">storages::postgres</text>
<text text-anchor="middle" x="53.5" y="-23.5" font-family="Helvetica,sans-Serif" font-size="10.00">::Field</text>
</a>
</g>
</g>
<!-- Node3&#45;&gt;Node2 -->
<g id="edge2_Node000002_Node000003" class="edge">
<title>Node3&#45;&gt;Node2</title>
<g id="a_edge2_Node000002_Node000003"><a xlink:title=" ">
<path fill="none" stroke="darkgreen" d="M117.08,-31.5C125.45,-31.5 134.13,-31.5 142.75,-31.5"/>
<polygon fill="darkgreen" stroke="darkgreen" points="117.05,-28 107.05,-31.5 117.05,-35 117.05,-28"/>
</a>
</g>
</g>
</g>
</svg>
