<?xml version="1.0" encoding="UTF-8" standalone="no"?>
<!DOCTYPE svg PUBLIC "-//W3C//DTD SVG 1.1//EN"
 "http://www.w3.org/Graphics/SVG/1.1/DTD/svg11.dtd">
<!-- Generated by graphviz version 2.43.0 (0)
 -->
<!-- Title: userver/storages/postgres/result_set.hpp Pages: 1 -->
<svg width="695pt" height="302pt"
 viewBox="0.00 0.00 695.21 302.00" xmlns="http://www.w3.org/2000/svg" xmlns:xlink="http://www.w3.org/1999/xlink">
<g id="graph0" class="graph" transform="scale(1 1) rotate(0) translate(4 298)">
<title>userver/storages/postgres/result_set.hpp</title>
<!-- Node1 -->
<g id="Node000001" class="node">
<title>Node1</title>
<g id="a_Node000001"><a xlink:title="Result accessors.">
<polygon fill="#999999" stroke="#666666" points="422.21,-294 279.21,-294 279.21,-264 422.21,-264 422.21,-294"/>
<text text-anchor="start" x="287.21" y="-282" font-family="Helvetica,sans-Serif" font-size="10.00">userver/storages/postgres</text>
<text text-anchor="middle" x="350.71" y="-271" font-family="Helvetica,sans-Serif" font-size="10.00">/result_set.hpp</text>
</a>
</g>
</g>
<!-- Node2 -->
<g id="Node000002" class="node">
<title>Node2</title>
<g id="a_Node000002"><a xlink:href="../../d4/dd3/non__transaction_8hpp_source.html" target="_top" xlink:title=" ">
<polygon fill="white" stroke="#666666" points="687.21,-162 538.21,-162 538.21,-132 687.21,-132 687.21,-162"/>
<text text-anchor="start" x="546.21" y="-150" font-family="Helvetica,sans-Serif" font-size="10.00">userver/storages/postgres</text>
<text text-anchor="middle" x="612.71" y="-139" font-family="Helvetica,sans-Serif" font-size="10.00">/detail/non_transaction.hpp</text>
</a>
</g>
</g>
<!-- Node1&#45;&gt;Node2 -->
<g id="edge1_Node000001_Node000002" class="edge">
<title>Node1&#45;&gt;Node2</title>
<g id="a_edge1_Node000001_Node000002"><a xlink:title=" ">
<path fill="none" stroke="#63b8ff" d="M432.54,-270.89C494.57,-263.8 572.9,-250.63 595.71,-228 613.25,-210.6 614.8,-179.9 613.99,-162.01"/>
<polygon fill="#63b8ff" stroke="#63b8ff" points="431.9,-267.44 422.35,-272.02 432.67,-274.4 431.9,-267.44"/>
</a>
</g>
</g>
<!-- Node5 -->
<g id="Node000005" class="node">
<title>Node5</title>
<g id="a_Node000005"><a xlink:href="../../df/d02/postgres_8hpp.html" target="_top" xlink:title=" ">
<polygon fill="white" stroke="#666666" points="268.21,-30 125.21,-30 125.21,0 268.21,0 268.21,-30"/>
<text text-anchor="start" x="133.21" y="-18" font-family="Helvetica,sans-Serif" font-size="10.00">userver/storages/postgres</text>
<text text-anchor="middle" x="196.71" y="-7" font-family="Helvetica,sans-Serif" font-size="10.00">/postgres.hpp</text>
</a>
</g>
</g>
<!-- Node1&#45;&gt;Node5 -->
<g id="edge12_Node000001_Node000005" class="edge">
<title>Node1&#45;&gt;Node5</title>
<g id="a_edge12_Node000001_Node000005"><a xlink:title=" ">
<path fill="none" stroke="#63b8ff" d="M269.12,-277.56C180.66,-275.15 47.78,-265.21 15.71,-228 -48.27,-153.76 102.22,-64.32 167.92,-30.18"/>
<polygon fill="#63b8ff" stroke="#63b8ff" points="269.05,-281.06 279.14,-277.81 269.23,-274.06 269.05,-281.06"/>
</a>
</g>
</g>
<!-- Node6 -->
<g id="Node000006" class="node">
<title>Node6</title>
<g id="a_Node000006"><a xlink:href="../../d7/d52/typed__rows_8hpp_source.html" target="_top" xlink:title=" ">
<polygon fill="white" stroke="#666666" points="368.21,-228 225.21,-228 225.21,-198 368.21,-198 368.21,-228"/>
<text text-anchor="start" x="233.21" y="-216" font-family="Helvetica,sans-Serif" font-size="10.00">userver/storages/postgres</text>
<text text-anchor="middle" x="296.71" y="-205" font-family="Helvetica,sans-Serif" font-size="10.00">/detail/typed_rows.hpp</text>
</a>
</g>
</g>
<!-- Node1&#45;&gt;Node6 -->
<g id="edge5_Node000001_Node000006" class="edge">
<title>Node1&#45;&gt;Node6</title>
<g id="a_edge5_Node000001_Node000006"><a xlink:title=" ">
<path fill="none" stroke="#63b8ff" d="M332.22,-256.09C324.43,-246.85 315.58,-236.36 308.66,-228.16"/>
<polygon fill="#63b8ff" stroke="#63b8ff" points="329.6,-258.41 338.73,-263.8 334.95,-253.9 329.6,-258.41"/>
</a>
</g>
</g>
<!-- Node7 -->
<g id="Node000007" class="node">
<title>Node7</title>
<g id="a_Node000007"><a xlink:href="../../d1/dee/typed__result__set_8hpp.html" target="_top" xlink:title="Typed PostgreSQL results.">
<polygon fill="white" stroke="#666666" points="477.21,-162 334.21,-162 334.21,-132 477.21,-132 477.21,-162"/>
<text text-anchor="start" x="342.21" y="-150" font-family="Helvetica,sans-Serif" font-size="10.00">userver/storages/postgres</text>
<text text-anchor="middle" x="405.71" y="-139" font-family="Helvetica,sans-Serif" font-size="10.00">/typed_result_set.hpp</text>
</a>
</g>
</g>
<!-- Node1&#45;&gt;Node7 -->
<g id="edge16_Node000001_Node000007" class="edge">
<title>Node1&#45;&gt;Node7</title>
<g id="a_edge16_Node000001_Node000007"><a xlink:title=" ">
<path fill="none" stroke="#63b8ff" d="M355.29,-254.43C359.13,-246.19 363.85,-236.79 367.71,-228 377.63,-205.41 386.95,-178.25 394.73,-162.09"/>
<polygon fill="#63b8ff" stroke="#63b8ff" points="351.98,-253.24 351.14,-263.8 358.39,-256.07 351.98,-253.24"/>
</a>
</g>
</g>
<!-- Node8 -->
<g id="Node000008" class="node">
<title>Node8</title>
<g id="a_Node000008"><a xlink:href="../../d2/de3/portal_8hpp_source.html" target="_top" xlink:title=" ">
<polygon fill="white" stroke="#666666" points="168.21,-228 25.21,-228 25.21,-198 168.21,-198 168.21,-228"/>
<text text-anchor="start" x="33.21" y="-216" font-family="Helvetica,sans-Serif" font-size="10.00">userver/storages/postgres</text>
<text text-anchor="middle" x="96.71" y="-205" font-family="Helvetica,sans-Serif" font-size="10.00">/portal.hpp</text>
</a>
</g>
</g>
<!-- Node1&#45;&gt;Node8 -->
<g id="edge8_Node000001_Node000008" class="edge">
<title>Node1&#45;&gt;Node8</title>
<g id="a_edge8_Node000001_Node000008"><a xlink:title=" ">
<path fill="none" stroke="#63b8ff" d="M285.03,-261.45C243.88,-251.08 191.42,-237.86 152.32,-228.01"/>
<polygon fill="#63b8ff" stroke="#63b8ff" points="284.42,-264.91 294.97,-263.95 286.13,-258.12 284.42,-264.91"/>
</a>
</g>
</g>
<!-- Node9 -->
<g id="Node000009" class="node">
<title>Node9</title>
<g id="a_Node000009"><a xlink:href="../../da/deb/postgresql_2include_2userver_2storages_2postgres_2transaction_8hpp.html" target="_top" xlink:title="Transactions.">
<polygon fill="white" stroke="#666666" points="268.21,-162 125.21,-162 125.21,-132 268.21,-132 268.21,-162"/>
<text text-anchor="start" x="133.21" y="-150" font-family="Helvetica,sans-Serif" font-size="10.00">userver/storages/postgres</text>
<text text-anchor="middle" x="196.71" y="-139" font-family="Helvetica,sans-Serif" font-size="10.00">/transaction.hpp</text>
</a>
</g>
</g>
<!-- Node1&#45;&gt;Node9 -->
<g id="edge15_Node000001_Node000009" class="edge">
<title>Node1&#45;&gt;Node9</title>
<g id="a_edge15_Node000001_Node000009"><a xlink:title=" ">
<path fill="none" stroke="#63b8ff" d="M269.65,-262.29C249.62,-254.88 229.87,-243.99 215.71,-228 199.44,-209.62 196.45,-179.82 196.25,-162.25"/>
<polygon fill="#63b8ff" stroke="#63b8ff" points="268.58,-265.62 279.17,-265.55 270.85,-259 268.58,-265.62"/>
</a>
</g>
</g>
<!-- Node10 -->
<g id="Node000010" class="node">
<title>Node10</title>
<g id="a_Node000010"><a xlink:href="../../d8/d63/query__queue_8hpp.html" target="_top" xlink:title="An utility to execute multiple queries in a single network round&#45;trip.">
<polygon fill="white" stroke="#666666" points="586.21,-228 443.21,-228 443.21,-198 586.21,-198 586.21,-228"/>
<text text-anchor="start" x="451.21" y="-216" font-family="Helvetica,sans-Serif" font-size="10.00">userver/storages/postgres</text>
<text text-anchor="middle" x="514.71" y="-205" font-family="Helvetica,sans-Serif" font-size="10.00">/query_queue.hpp</text>
</a>
</g>
</g>
<!-- Node1&#45;&gt;Node10 -->
<g id="edge13_Node000001_Node000010" class="edge">
<title>Node1&#45;&gt;Node10</title>
<g id="a_edge13_Node000001_Node000010"><a xlink:title=" ">
<path fill="none" stroke="#63b8ff" d="M396.35,-260.19C422.4,-250.02 454.58,-237.47 478.8,-228.01"/>
<polygon fill="#63b8ff" stroke="#63b8ff" points="394.74,-257.06 386.7,-263.95 397.29,-263.58 394.74,-257.06"/>
</a>
</g>
</g>
<!-- Node3 -->
<g id="Node000003" class="node">
<title>Node3</title>
<g id="a_Node000003"><a xlink:href="../../de/dd3/postgresql_2include_2userver_2storages_2postgres_2cluster_8hpp.html" target="_top" xlink:title="Interface for executing queries on a cluster of PostgreSQL servers.">
<polygon fill="white" stroke="#666666" points="498.21,-96 355.21,-96 355.21,-66 498.21,-66 498.21,-96"/>
<text text-anchor="start" x="363.21" y="-84" font-family="Helvetica,sans-Serif" font-size="10.00">userver/storages/postgres</text>
<text text-anchor="middle" x="426.71" y="-73" font-family="Helvetica,sans-Serif" font-size="10.00">/cluster.hpp</text>
</a>
</g>
</g>
<!-- Node2&#45;&gt;Node3 -->
<g id="edge2_Node000002_Node000003" class="edge">
<title>Node2&#45;&gt;Node3</title>
<g id="a_edge2_Node000002_Node000003"><a xlink:title=" ">
<path fill="none" stroke="#63b8ff" d="M562.11,-128.59C532.37,-118.36 495.28,-105.59 467.43,-96.01"/>
<polygon fill="#63b8ff" stroke="#63b8ff" points="561.3,-132.01 571.89,-131.95 563.58,-125.39 561.3,-132.01"/>
</a>
</g>
</g>
<!-- Node4 -->
<g id="Node000004" class="node">
<title>Node4</title>
<g id="a_Node000004"><a xlink:href="../../dc/df7/base__postgres__cache_8hpp.html" target="_top" xlink:title="Caching component for PostgreSQL. See Caching Component for PostgreSQL.">
<polygon fill="white" stroke="#666666" points="486.21,-30 367.21,-30 367.21,0 486.21,0 486.21,-30"/>
<text text-anchor="start" x="375.21" y="-18" font-family="Helvetica,sans-Serif" font-size="10.00">userver/cache/base</text>
<text text-anchor="middle" x="426.71" y="-7" font-family="Helvetica,sans-Serif" font-size="10.00">_postgres_cache.hpp</text>
</a>
</g>
</g>
<!-- Node3&#45;&gt;Node4 -->
<g id="edge3_Node000003_Node000004" class="edge">
<title>Node3&#45;&gt;Node4</title>
<g id="a_edge3_Node000003_Node000004"><a xlink:title=" ">
<path fill="none" stroke="#63b8ff" d="M426.71,-55.54C426.71,-46.96 426.71,-37.61 426.71,-30.16"/>
<polygon fill="#63b8ff" stroke="#63b8ff" points="423.21,-55.8 426.71,-65.8 430.21,-55.8 423.21,-55.8"/>
</a>
</g>
</g>
<!-- Node3&#45;&gt;Node5 -->
<g id="edge4_Node000003_Node000005" class="edge">
<title>Node3&#45;&gt;Node5</title>
<g id="a_edge4_Node000003_Node000005"><a xlink:title=" ">
<path fill="none" stroke="#63b8ff" d="M366.53,-63.25C329.37,-52.91 282.24,-39.8 247.07,-30.01"/>
<polygon fill="#63b8ff" stroke="#63b8ff" points="365.66,-66.65 376.24,-65.95 367.54,-59.9 365.66,-66.65"/>
</a>
</g>
</g>
<!-- Node6&#45;&gt;Node7 -->
<g id="edge6_Node000006_Node000007" class="edge">
<title>Node6&#45;&gt;Node7</title>
<g id="a_edge6_Node000006_Node000007"><a xlink:title=" ">
<path fill="none" stroke="#63b8ff" d="M329.59,-192.69C346.42,-182.82 366.52,-171.01 381.85,-162.01"/>
<polygon fill="#63b8ff" stroke="#63b8ff" points="327.48,-189.87 320.63,-197.95 331.03,-195.91 327.48,-189.87"/>
</a>
</g>
</g>
<!-- Node7&#45;&gt;Node1 -->
<g id="edge7_Node000007_Node000001" class="edge">
<title>Node7&#45;&gt;Node1</title>
<g id="a_edge7_Node000007_Node000001"><a xlink:title=" ">
<path fill="none" stroke="#63b8ff" d="M405.51,-172.24C401.43,-188.27 393.77,-209.65 385.71,-228 380.28,-240.36 373.15,-253.93 366.32,-263.8"/>
<polygon fill="#63b8ff" stroke="#63b8ff" points="409.02,-172.61 407.73,-162.09 402.18,-171.12 409.02,-172.61"/>
</a>
</g>
</g>
<!-- Node8&#45;&gt;Node9 -->
<g id="edge9_Node000008_Node000009" class="edge">
<title>Node8&#45;&gt;Node9</title>
<g id="a_edge9_Node000008_Node000009"><a xlink:title=" ">
<path fill="none" stroke="#63b8ff" d="M127.49,-192.3C142.71,-182.56 160.74,-171.02 174.58,-162.16"/>
<polygon fill="#63b8ff" stroke="#63b8ff" points="125.44,-189.46 118.9,-197.8 129.21,-195.35 125.44,-189.46"/>
</a>
</g>
</g>
<!-- Node9&#45;&gt;Node3 -->
<g id="edge10_Node000009_Node000003" class="edge">
<title>Node9&#45;&gt;Node3</title>
<g id="a_edge10_Node000009_Node000003"><a xlink:title=" ">
<path fill="none" stroke="#63b8ff" d="M256.89,-129.25C294.05,-118.91 341.18,-105.8 376.35,-96.01"/>
<polygon fill="#63b8ff" stroke="#63b8ff" points="255.88,-125.9 247.19,-131.95 257.76,-132.65 255.88,-125.9"/>
</a>
</g>
</g>
<!-- Node9&#45;&gt;Node5 -->
<g id="edge11_Node000009_Node000005" class="edge">
<title>Node9&#45;&gt;Node5</title>
<g id="a_edge11_Node000009_Node000005"><a xlink:title=" ">
<path fill="none" stroke="#63b8ff" d="M196.71,-121.68C196.71,-94.7 196.71,-52.11 196.71,-30.14"/>
<polygon fill="#63b8ff" stroke="#63b8ff" points="193.21,-121.84 196.71,-131.84 200.21,-121.84 193.21,-121.84"/>
</a>
</g>
</g>
<!-- Node10&#45;&gt;Node3 -->
<g id="edge14_Node000010_Node000003" class="edge">
<title>Node10&#45;&gt;Node3</title>
<g id="a_edge14_Node000010_Node000003"><a xlink:title=" ">
<path fill="none" stroke="#63b8ff" d="M509.86,-187.84C505.67,-171.09 498.41,-148.86 486.71,-132 476.74,-117.63 461.59,-105.04 449,-96.09"/>
<polygon fill="#63b8ff" stroke="#63b8ff" points="506.53,-188.98 512.18,-197.94 513.35,-187.41 506.53,-188.98"/>
</a>
</g>
</g>
</g>
</svg>
