<?xml version="1.0" encoding="UTF-8" standalone="no"?>
<!DOCTYPE svg PUBLIC "-//W3C//DTD SVG 1.1//EN"
 "http://www.w3.org/Graphics/SVG/1.1/DTD/svg11.dtd">
<!-- Generated by graphviz version 2.43.0 (0)
 -->
<!-- Title: userver/formats/serialize/common_containers.hpp Pages: 1 -->
<svg width="731pt" height="368pt"
 viewBox="0.00 0.00 731.00 368.00" xmlns="http://www.w3.org/2000/svg" xmlns:xlink="http://www.w3.org/1999/xlink">
<g id="graph0" class="graph" transform="scale(1 1) rotate(0) translate(4 364)">
<title>userver/formats/serialize/common_containers.hpp</title>
<!-- Node1 -->
<g id="Node000001" class="node">
<title>Node1</title>
<g id="a_Node000001"><a xlink:title="Serializers for standard containers and optional.">
<polygon fill="#999999" stroke="#666666" points="593.5,-360 453.5,-360 453.5,-330 593.5,-330 593.5,-360"/>
<text text-anchor="start" x="461.5" y="-348" font-family="Helvetica,sans-Serif" font-size="10.00">userver/formats/serialize</text>
<text text-anchor="middle" x="523.5" y="-337" font-family="Helvetica,sans-Serif" font-size="10.00">/common_containers.hpp</text>
</a>
</g>
</g>
<!-- Node2 -->
<g id="Node000002" class="node">
<title>Node2</title>
<g id="a_Node000002"><a xlink:href="../../d0/dcf/core_2include_2userver_2dynamic__config_2value_8hpp_source.html" target="_top" xlink:title=" ">
<polygon fill="white" stroke="#666666" points="439,-294 306,-294 306,-264 439,-264 439,-294"/>
<text text-anchor="start" x="314" y="-282" font-family="Helvetica,sans-Serif" font-size="10.00">userver/dynamic_config</text>
<text text-anchor="middle" x="372.5" y="-271" font-family="Helvetica,sans-Serif" font-size="10.00">/value.hpp</text>
</a>
</g>
</g>
<!-- Node1&#45;&gt;Node2 -->
<g id="edge1_Node000001_Node000002" class="edge">
<title>Node1&#45;&gt;Node2</title>
<g id="a_edge1_Node000001_Node000002"><a xlink:title=" ">
<path fill="none" stroke="#63b8ff" d="M480.84,-325.92C456.97,-315.8 427.67,-303.38 405.56,-294.01"/>
<polygon fill="#63b8ff" stroke="#63b8ff" points="479.79,-329.28 490.36,-329.95 482.52,-322.83 479.79,-329.28"/>
</a>
</g>
</g>
<!-- Node14 -->
<g id="Node000014" class="node">
<title>Node14</title>
<g id="a_Node000014"><a xlink:href="../../de/dad/json_2serialize__container_8hpp_source.html" target="_top" xlink:title=" ">
<polygon fill="white" stroke="#666666" points="589.5,-294 457.5,-294 457.5,-264 589.5,-264 589.5,-294"/>
<text text-anchor="start" x="465.5" y="-282" font-family="Helvetica,sans-Serif" font-size="10.00">userver/formats/json</text>
<text text-anchor="middle" x="523.5" y="-271" font-family="Helvetica,sans-Serif" font-size="10.00">/serialize_container.hpp</text>
</a>
</g>
</g>
<!-- Node1&#45;&gt;Node14 -->
<g id="edge14_Node000001_Node000014" class="edge">
<title>Node1&#45;&gt;Node14</title>
<g id="a_edge14_Node000001_Node000014"><a xlink:title=" ">
<path fill="none" stroke="#63b8ff" d="M523.5,-319.54C523.5,-310.96 523.5,-301.61 523.5,-294.16"/>
<polygon fill="#63b8ff" stroke="#63b8ff" points="520,-319.8 523.5,-329.8 527,-319.8 520,-319.8"/>
</a>
</g>
</g>
<!-- Node15 -->
<g id="Node000015" class="node">
<title>Node15</title>
<g id="a_Node000015"><a xlink:href="../../d0/d2e/universal_2include_2userver_2utils_2default__dict_8hpp_source.html" target="_top" xlink:title=" ">
<polygon fill="white" stroke="#666666" points="723,-294 608,-294 608,-264 723,-264 723,-294"/>
<text text-anchor="start" x="616" y="-282" font-family="Helvetica,sans-Serif" font-size="10.00">userver/utils/default</text>
<text text-anchor="middle" x="665.5" y="-271" font-family="Helvetica,sans-Serif" font-size="10.00">_dict.hpp</text>
</a>
</g>
</g>
<!-- Node1&#45;&gt;Node15 -->
<g id="edge15_Node000001_Node000015" class="edge">
<title>Node1&#45;&gt;Node15</title>
<g id="a_edge15_Node000001_Node000015"><a xlink:title=" ">
<path fill="none" stroke="#63b8ff" d="M563.92,-325.78C586.3,-315.69 613.71,-303.34 634.41,-294.01"/>
<polygon fill="#63b8ff" stroke="#63b8ff" points="562.34,-322.65 554.66,-329.95 565.22,-329.04 562.34,-322.65"/>
</a>
</g>
</g>
<!-- Node3 -->
<g id="Node000003" class="node">
<title>Node3</title>
<g id="a_Node000003"><a xlink:href="../../d2/d68/core_2include_2userver_2dynamic__config_2client_2client_8hpp.html" target="_top" xlink:title="Client for the dynamic configs service.">
<polygon fill="white" stroke="#666666" points="286,-228 153,-228 153,-198 286,-198 286,-228"/>
<text text-anchor="start" x="161" y="-216" font-family="Helvetica,sans-Serif" font-size="10.00">userver/dynamic_config</text>
<text text-anchor="middle" x="219.5" y="-205" font-family="Helvetica,sans-Serif" font-size="10.00">/client/client.hpp</text>
</a>
</g>
</g>
<!-- Node2&#45;&gt;Node3 -->
<g id="edge2_Node000002_Node000003" class="edge">
<title>Node2&#45;&gt;Node3</title>
<g id="a_edge2_Node000002_Node000003"><a xlink:title=" ">
<path fill="none" stroke="#63b8ff" d="M329.6,-260.05C305.36,-249.91 275.5,-237.43 253,-228.01"/>
<polygon fill="#63b8ff" stroke="#63b8ff" points="328.35,-263.32 338.92,-263.95 331.05,-256.87 328.35,-263.32"/>
</a>
</g>
</g>
<!-- Node6 -->
<g id="Node000006" class="node">
<title>Node6</title>
<g id="a_Node000006"><a xlink:href="../../df/db4/storage__mock_8hpp.html" target="_top" xlink:title="Backing storage for dynamic_config::Source in tests and benchmarks.">
<polygon fill="white" stroke="#666666" points="439,-228 306,-228 306,-198 439,-198 439,-228"/>
<text text-anchor="start" x="314" y="-216" font-family="Helvetica,sans-Serif" font-size="10.00">userver/dynamic_config</text>
<text text-anchor="middle" x="372.5" y="-205" font-family="Helvetica,sans-Serif" font-size="10.00">/storage_mock.hpp</text>
</a>
</g>
</g>
<!-- Node2&#45;&gt;Node6 -->
<g id="edge5_Node000002_Node000006" class="edge">
<title>Node2&#45;&gt;Node6</title>
<g id="a_edge5_Node000002_Node000006"><a xlink:title=" ">
<path fill="none" stroke="#63b8ff" d="M372.5,-253.54C372.5,-244.96 372.5,-235.61 372.5,-228.16"/>
<polygon fill="#63b8ff" stroke="#63b8ff" points="369,-253.8 372.5,-263.8 376,-253.8 369,-253.8"/>
</a>
</g>
</g>
<!-- Node13 -->
<g id="Node000013" class="node">
<title>Node13</title>
<g id="a_Node000013"><a xlink:href="../../d0/d5e/redis__config_8hpp_source.html" target="_top" xlink:title=" ">
<polygon fill="white" stroke="#666666" points="582,-228 457,-228 457,-198 582,-198 582,-228"/>
<text text-anchor="start" x="465" y="-216" font-family="Helvetica,sans-Serif" font-size="10.00">userver/storages/redis</text>
<text text-anchor="middle" x="519.5" y="-205" font-family="Helvetica,sans-Serif" font-size="10.00">/redis_config.hpp</text>
</a>
</g>
</g>
<!-- Node2&#45;&gt;Node13 -->
<g id="edge13_Node000002_Node000013" class="edge">
<title>Node2&#45;&gt;Node13</title>
<g id="a_edge13_Node000002_Node000013"><a xlink:title=" ">
<path fill="none" stroke="#63b8ff" d="M414.03,-259.92C437.26,-249.8 465.79,-237.38 487.32,-228.01"/>
<polygon fill="#63b8ff" stroke="#63b8ff" points="412.53,-256.75 404.76,-263.95 415.33,-263.17 412.53,-256.75"/>
</a>
</g>
</g>
<!-- Node4 -->
<g id="Node000004" class="node">
<title>Node4</title>
<g id="a_Node000004"><a xlink:href="../../d7/d00/core_2include_2userver_2dynamic__config_2client_2component_8hpp.html" target="_top" xlink:title="Component that starts a clients::dynamic_config::Client client.">
<polygon fill="white" stroke="#666666" points="133,-162 0,-162 0,-132 133,-132 133,-162"/>
<text text-anchor="start" x="8" y="-150" font-family="Helvetica,sans-Serif" font-size="10.00">userver/dynamic_config</text>
<text text-anchor="middle" x="66.5" y="-139" font-family="Helvetica,sans-Serif" font-size="10.00">/client/component.hpp</text>
</a>
</g>
</g>
<!-- Node3&#45;&gt;Node4 -->
<g id="edge3_Node000003_Node000004" class="edge">
<title>Node3&#45;&gt;Node4</title>
<g id="a_edge3_Node000003_Node000004"><a xlink:title=" ">
<path fill="none" stroke="#63b8ff" d="M176.6,-194.05C152.36,-183.91 122.5,-171.43 100,-162.01"/>
<polygon fill="#63b8ff" stroke="#63b8ff" points="175.35,-197.32 185.92,-197.95 178.05,-190.87 175.35,-197.32"/>
</a>
</g>
</g>
<!-- Node5 -->
<g id="Node000005" class="node">
<title>Node5</title>
<g id="a_Node000005"><a xlink:href="../../db/df3/core_2include_2userver_2dynamic__config_2updater_2component_8hpp.html" target="_top" xlink:title="Component that does a periodic update of runtime configs.">
<polygon fill="white" stroke="#666666" points="287.5,-162 151.5,-162 151.5,-132 287.5,-132 287.5,-162"/>
<text text-anchor="start" x="159.5" y="-150" font-family="Helvetica,sans-Serif" font-size="10.00">userver/dynamic_config</text>
<text text-anchor="middle" x="219.5" y="-139" font-family="Helvetica,sans-Serif" font-size="10.00">/updater/component.hpp</text>
</a>
</g>
</g>
<!-- Node3&#45;&gt;Node5 -->
<g id="edge4_Node000003_Node000005" class="edge">
<title>Node3&#45;&gt;Node5</title>
<g id="a_edge4_Node000003_Node000005"><a xlink:title=" ">
<path fill="none" stroke="#63b8ff" d="M219.5,-187.54C219.5,-178.96 219.5,-169.61 219.5,-162.16"/>
<polygon fill="#63b8ff" stroke="#63b8ff" points="216,-187.8 219.5,-197.8 223,-187.8 216,-187.8"/>
</a>
</g>
</g>
<!-- Node7 -->
<g id="Node000007" class="node">
<title>Node7</title>
<g id="a_Node000007"><a xlink:href="../../d5/db8/include_2userver_2dynamic__config_2test__helpers_8hpp.html" target="_top" xlink:title="Accessors for dynamic config defaults for tests and benchmarks.">
<polygon fill="white" stroke="#666666" points="439,-162 306,-162 306,-132 439,-132 439,-162"/>
<text text-anchor="start" x="314" y="-150" font-family="Helvetica,sans-Serif" font-size="10.00">userver/dynamic_config</text>
<text text-anchor="middle" x="372.5" y="-139" font-family="Helvetica,sans-Serif" font-size="10.00">/test_helpers.hpp</text>
</a>
</g>
</g>
<!-- Node6&#45;&gt;Node7 -->
<g id="edge6_Node000006_Node000007" class="edge">
<title>Node6&#45;&gt;Node7</title>
<g id="a_edge6_Node000006_Node000007"><a xlink:title=" ">
<path fill="none" stroke="#63b8ff" d="M372.5,-187.54C372.5,-178.96 372.5,-169.61 372.5,-162.16"/>
<polygon fill="#63b8ff" stroke="#63b8ff" points="369,-187.8 372.5,-197.8 376,-187.8 369,-187.8"/>
</a>
</g>
</g>
<!-- Node10 -->
<g id="Node000010" class="node">
<title>Node10</title>
<g id="a_Node000010"><a xlink:href="../../d3/d31/service_8hpp.html" target="_top" xlink:title="Base classes for testing and benchmarking ugrpc service implementations in a simplified gRPC environm...">
<polygon fill="white" stroke="#666666" points="553.5,-96 443.5,-96 443.5,-66 553.5,-66 553.5,-96"/>
<text text-anchor="start" x="451.5" y="-84" font-family="Helvetica,sans-Serif" font-size="10.00">userver/ugrpc/tests</text>
<text text-anchor="middle" x="498.5" y="-73" font-family="Helvetica,sans-Serif" font-size="10.00">/service.hpp</text>
</a>
</g>
</g>
<!-- Node6&#45;&gt;Node10 -->
<g id="edge12_Node000006_Node000010" class="edge">
<title>Node6&#45;&gt;Node10</title>
<g id="a_edge12_Node000006_Node000010"><a xlink:title=" ">
<path fill="none" stroke="#63b8ff" d="M408.54,-192.72C422.04,-184.41 436.91,-173.86 448.5,-162 467.96,-142.08 483.62,-113.34 491.95,-96.28"/>
<polygon fill="#63b8ff" stroke="#63b8ff" points="406.71,-189.73 399.9,-197.85 410.29,-195.75 406.71,-189.73"/>
</a>
</g>
</g>
<!-- Node8 -->
<g id="Node000008" class="node">
<title>Node8</title>
<g id="a_Node000008"><a xlink:href="../../d7/d49/mongo__local_8hpp.html" target="_top" xlink:title=" ">
<polygon fill="white" stroke="#666666" points="280,-96 145,-96 145,-66 280,-66 280,-96"/>
<text text-anchor="start" x="153" y="-84" font-family="Helvetica,sans-Serif" font-size="10.00">userver/storages/mongo</text>
<text text-anchor="middle" x="212.5" y="-73" font-family="Helvetica,sans-Serif" font-size="10.00">/utest/mongo_local.hpp</text>
</a>
</g>
</g>
<!-- Node7&#45;&gt;Node8 -->
<g id="edge7_Node000007_Node000008" class="edge">
<title>Node7&#45;&gt;Node8</title>
<g id="a_edge7_Node000007_Node000008"><a xlink:title=" ">
<path fill="none" stroke="#63b8ff" d="M327.97,-128.19C302.56,-118.02 271.17,-105.47 247.53,-96.01"/>
<polygon fill="#63b8ff" stroke="#63b8ff" points="326.8,-131.49 337.39,-131.95 329.4,-124.99 326.8,-131.49"/>
</a>
</g>
</g>
<!-- Node7&#45;&gt;Node10 -->
<g id="edge9_Node000007_Node000010" class="edge">
<title>Node7&#45;&gt;Node10</title>
<g id="a_edge9_Node000007_Node000010"><a xlink:title=" ">
<path fill="none" stroke="#63b8ff" d="M409.16,-127.38C428.88,-117.36 452.79,-105.22 470.91,-96.01"/>
<polygon fill="#63b8ff" stroke="#63b8ff" points="407.48,-124.31 400.15,-131.95 410.65,-130.55 407.48,-124.31"/>
</a>
</g>
</g>
<!-- Node12 -->
<g id="Node000012" class="node">
<title>Node12</title>
<g id="a_Node000012"><a xlink:href="../../d5/d64/standalone__client_8hpp.html" target="_top" xlink:title="Sets up a mini gRPC client that is not directly associated with any userver gRPC server.">
<polygon fill="white" stroke="#666666" points="425,-96 298,-96 298,-66 425,-66 425,-96"/>
<text text-anchor="start" x="306" y="-84" font-family="Helvetica,sans-Serif" font-size="10.00">userver/ugrpc/tests</text>
<text text-anchor="middle" x="361.5" y="-73" font-family="Helvetica,sans-Serif" font-size="10.00">/standalone_client.hpp</text>
</a>
</g>
</g>
<!-- Node7&#45;&gt;Node12 -->
<g id="edge11_Node000007_Node000012" class="edge">
<title>Node7&#45;&gt;Node12</title>
<g id="a_edge11_Node000007_Node000012"><a xlink:title=" ">
<path fill="none" stroke="#63b8ff" d="M368.34,-121.83C366.86,-113.17 365.23,-103.7 363.93,-96.16"/>
<polygon fill="#63b8ff" stroke="#63b8ff" points="364.92,-122.53 370.06,-131.8 371.81,-121.35 364.92,-122.53"/>
</a>
</g>
</g>
<!-- Node9 -->
<g id="Node000009" class="node">
<title>Node9</title>
<g id="a_Node000009"><a xlink:href="../../d0/d79/mongo__fixture_8hpp.html" target="_top" xlink:title=" ">
<polygon fill="white" stroke="#666666" points="282,-30 143,-30 143,0 282,0 282,-30"/>
<text text-anchor="start" x="151" y="-18" font-family="Helvetica,sans-Serif" font-size="10.00">userver/storages/mongo</text>
<text text-anchor="middle" x="212.5" y="-7" font-family="Helvetica,sans-Serif" font-size="10.00">/utest/mongo_fixture.hpp</text>
</a>
</g>
</g>
<!-- Node8&#45;&gt;Node9 -->
<g id="edge8_Node000008_Node000009" class="edge">
<title>Node8&#45;&gt;Node9</title>
<g id="a_edge8_Node000008_Node000009"><a xlink:title=" ">
<path fill="none" stroke="#63b8ff" d="M212.5,-55.54C212.5,-46.96 212.5,-37.61 212.5,-30.16"/>
<polygon fill="#63b8ff" stroke="#63b8ff" points="209,-55.8 212.5,-65.8 216,-55.8 209,-55.8"/>
</a>
</g>
</g>
<!-- Node11 -->
<g id="Node000011" class="node">
<title>Node11</title>
<g id="a_Node000011"><a xlink:href="../../d1/d31/service__fixtures_8hpp.html" target="_top" xlink:title="gtest fixtures for testing ugrpc service implementations. Requires linking to userver::grpc&#45;utest.">
<polygon fill="white" stroke="#666666" points="557.5,-30 439.5,-30 439.5,0 557.5,0 557.5,-30"/>
<text text-anchor="start" x="447.5" y="-18" font-family="Helvetica,sans-Serif" font-size="10.00">userver/ugrpc/tests</text>
<text text-anchor="middle" x="498.5" y="-7" font-family="Helvetica,sans-Serif" font-size="10.00">/service_fixtures.hpp</text>
</a>
</g>
</g>
<!-- Node10&#45;&gt;Node11 -->
<g id="edge10_Node000010_Node000011" class="edge">
<title>Node10&#45;&gt;Node11</title>
<g id="a_edge10_Node000010_Node000011"><a xlink:title=" ">
<path fill="none" stroke="#63b8ff" d="M498.5,-55.54C498.5,-46.96 498.5,-37.61 498.5,-30.16"/>
<polygon fill="#63b8ff" stroke="#63b8ff" points="495,-55.8 498.5,-65.8 502,-55.8 495,-55.8"/>
</a>
</g>
</g>
</g>
</svg>
