<?xml version="1.0" encoding="UTF-8" standalone="no"?>
<!DOCTYPE svg PUBLIC "-//W3C//DTD SVG 1.1//EN"
 "http://www.w3.org/Graphics/SVG/1.1/DTD/svg11.dtd">
<!-- Generated by graphviz version 2.43.0 (0)
 -->
<!-- Title: userver/clients/dns/component.hpp Pages: 1 -->
<svg width="1747pt" height="423pt"
 viewBox="0.00 0.00 1747.00 423.00" xmlns="http://www.w3.org/2000/svg" xmlns:xlink="http://www.w3.org/1999/xlink">
<g id="graph0" class="graph" transform="scale(1 1) rotate(0) translate(4 419)">
<title>userver/clients/dns/component.hpp</title>
<!-- Node1 -->
<g id="Node000001" class="node">
<title>Node1</title>
<g id="a_Node000001"><a xlink:title="Caching DNS resolver component.">
<polygon fill="#999999" stroke="#666666" points="1266,-415 1157,-415 1157,-385 1266,-385 1266,-415"/>
<text text-anchor="start" x="1165" y="-403" font-family="Helvetica,sans-Serif" font-size="10.00">userver/clients/dns</text>
<text text-anchor="middle" x="1211.5" y="-392" font-family="Helvetica,sans-Serif" font-size="10.00">/component.hpp</text>
</a>
</g>
</g>
<!-- Node2 -->
<g id="Node000002" class="node">
<title>Node2</title>
<g id="a_Node000002"><a xlink:href="../../dc/da6/resolver_8hpp.html" target="_top" xlink:title="Caching DNS resolver implementation.">
<polygon fill="white" stroke="#666666" points="899,-343.5 790,-343.5 790,-313.5 899,-313.5 899,-343.5"/>
<text text-anchor="start" x="798" y="-331.5" font-family="Helvetica,sans-Serif" font-size="10.00">userver/clients/dns</text>
<text text-anchor="middle" x="844.5" y="-320.5" font-family="Helvetica,sans-Serif" font-size="10.00">/resolver.hpp</text>
</a>
</g>
</g>
<!-- Node1&#45;&gt;Node2 -->
<g id="edge1_Node000001_Node000002" class="edge">
<title>Node1&#45;&gt;Node2</title>
<g id="a_edge1_Node000001_Node000002"><a xlink:title=" ">
<path fill="none" stroke="#63b8ff" d="M1156.95,-388.67C1090.82,-376.15 979.49,-355.06 909.12,-341.74"/>
<polygon fill="#63b8ff" stroke="#63b8ff" points="909.52,-338.25 899.05,-339.83 908.22,-345.13 909.52,-338.25"/>
</a>
</g>
</g>
<!-- Node36 -->
<g id="Node000036" class="node">
<title>Node36</title>
<g id="a_Node000036"><a xlink:href="../../da/d11/loggable__component__base_8hpp.html" target="_top" xlink:title="Contains components::LoggableComponentBase declaration and forward declarations of components::Compon...">
<polygon fill="white" stroke="#666666" points="1573.5,-349 1451.5,-349 1451.5,-308 1573.5,-308 1573.5,-349"/>
<text text-anchor="start" x="1459.5" y="-337" font-family="Helvetica,sans-Serif" font-size="10.00">userver/components</text>
<text text-anchor="start" x="1459.5" y="-326" font-family="Helvetica,sans-Serif" font-size="10.00">/loggable_component</text>
<text text-anchor="middle" x="1512.5" y="-315" font-family="Helvetica,sans-Serif" font-size="10.00">_base.hpp</text>
</a>
</g>
</g>
<!-- Node1&#45;&gt;Node36 -->
<g id="edge40_Node000001_Node000036" class="edge">
<title>Node1&#45;&gt;Node36</title>
<g id="a_edge40_Node000001_Node000036"><a xlink:title=" ">
<path fill="none" stroke="#63b8ff" d="M1266.01,-386.41C1315.21,-375.05 1387.9,-358.27 1441.61,-345.87"/>
<polygon fill="#63b8ff" stroke="#63b8ff" points="1442.45,-349.27 1451.4,-343.61 1440.87,-342.45 1442.45,-349.27"/>
</a>
</g>
</g>
<!-- Node39 -->
<g id="Node000039" class="node">
<title>Node39</title>
<g id="a_Node000039"><a xlink:href="../../d4/ddc/entry_8hpp.html" target="_top" xlink:title="Header with all the types required in component header to use statistics (includes utils::statistics:...">
<polygon fill="white" stroke="#666666" points="1274,-343.5 1149,-343.5 1149,-313.5 1274,-313.5 1274,-343.5"/>
<text text-anchor="start" x="1157" y="-331.5" font-family="Helvetica,sans-Serif" font-size="10.00">userver/utils/statistics</text>
<text text-anchor="middle" x="1211.5" y="-320.5" font-family="Helvetica,sans-Serif" font-size="10.00">/entry.hpp</text>
</a>
</g>
</g>
<!-- Node1&#45;&gt;Node39 -->
<g id="edge44_Node000001_Node000039" class="edge">
<title>Node1&#45;&gt;Node39</title>
<g id="a_edge44_Node000001_Node000039"><a xlink:title=" ">
<path fill="none" stroke="#63b8ff" d="M1211.5,-384.94C1211.5,-375.99 1211.5,-364.16 1211.5,-353.73"/>
<polygon fill="#63b8ff" stroke="#63b8ff" points="1215,-353.54 1211.5,-343.54 1208,-353.54 1215,-353.54"/>
</a>
</g>
</g>
<!-- Node3 -->
<g id="Node000003" class="node">
<title>Node3</title>
<g id="a_Node000003"><a xlink:href="../../d4/dc3/core_2include_2userver_2clients_2dns_2common_8hpp.html" target="_top" xlink:title="Common DNS client declarations.">
<polygon fill="white" stroke="#666666" points="609,-272 500,-272 500,-242 609,-242 609,-272"/>
<text text-anchor="start" x="508" y="-260" font-family="Helvetica,sans-Serif" font-size="10.00">userver/clients/dns</text>
<text text-anchor="middle" x="554.5" y="-249" font-family="Helvetica,sans-Serif" font-size="10.00">/common.hpp</text>
</a>
</g>
</g>
<!-- Node2&#45;&gt;Node3 -->
<g id="edge2_Node000002_Node000003" class="edge">
<title>Node2&#45;&gt;Node3</title>
<g id="a_edge2_Node000002_Node000003"><a xlink:title=" ">
<path fill="none" stroke="#63b8ff" d="M789.95,-314.43C741.5,-302.82 670.61,-285.83 619.29,-273.53"/>
<polygon fill="#63b8ff" stroke="#63b8ff" points="619.83,-270.06 609.29,-271.13 618.2,-276.87 619.83,-270.06"/>
</a>
</g>
</g>
<!-- Node5 -->
<g id="Node000005" class="node">
<title>Node5</title>
<g id="a_Node000005"><a xlink:href="../../d7/d1b/sockaddr_8hpp.html" target="_top" xlink:title="Native socket address wrapper.">
<polygon fill="white" stroke="#666666" points="489.5,-200.5 321.5,-200.5 321.5,-181.5 489.5,-181.5 489.5,-200.5"/>
<text text-anchor="middle" x="405.5" y="-188.5" font-family="Helvetica,sans-Serif" font-size="10.00">userver/engine/io/sockaddr.hpp</text>
</a>
</g>
</g>
<!-- Node2&#45;&gt;Node5 -->
<g id="edge28_Node000002_Node000005" class="edge">
<title>Node2&#45;&gt;Node5</title>
<g id="a_edge28_Node000002_Node000005"><a xlink:title=" ">
<path fill="none" stroke="#63b8ff" d="M789.84,-322.9C704.04,-315.02 542.18,-297.3 490.5,-272 459.86,-257 432.76,-227.13 417.8,-208.44"/>
<polygon fill="#63b8ff" stroke="#63b8ff" points="420.53,-206.25 411.63,-200.5 415,-210.55 420.53,-206.25"/>
</a>
</g>
</g>
<!-- Node18 -->
<g id="Node000018" class="node">
<title>Node18</title>
<g id="a_Node000018"><a xlink:href="../../d7/dcd/clients_2dns_2config_8hpp.html" target="_top" xlink:title="Caching DNS resolver static configuration.">
<polygon fill="white" stroke="#666666" points="1073,-272 964,-272 964,-242 1073,-242 1073,-272"/>
<text text-anchor="start" x="972" y="-260" font-family="Helvetica,sans-Serif" font-size="10.00">userver/clients/dns</text>
<text text-anchor="middle" x="1018.5" y="-249" font-family="Helvetica,sans-Serif" font-size="10.00">/config.hpp</text>
</a>
</g>
</g>
<!-- Node2&#45;&gt;Node18 -->
<g id="edge17_Node000002_Node000018" class="edge">
<title>Node2&#45;&gt;Node18</title>
<g id="a_edge17_Node000002_Node000018"><a xlink:title=" ">
<path fill="none" stroke="#63b8ff" d="M879.71,-313.44C906.83,-302.6 944.51,-287.55 973.77,-275.87"/>
<polygon fill="#63b8ff" stroke="#63b8ff" points="975.35,-279 983.34,-272.04 972.76,-272.5 975.35,-279"/>
</a>
</g>
</g>
<!-- Node21 -->
<g id="Node000021" class="node">
<title>Node21</title>
<g id="a_Node000021"><a xlink:href="../../d0/d50/core_2include_2userver_2clients_2dns_2exception_8hpp.html" target="_top" xlink:title="DNS client exceptions.">
<polygon fill="white" stroke="#666666" points="384,-272 275,-272 275,-242 384,-242 384,-272"/>
<text text-anchor="start" x="283" y="-260" font-family="Helvetica,sans-Serif" font-size="10.00">userver/clients/dns</text>
<text text-anchor="middle" x="329.5" y="-249" font-family="Helvetica,sans-Serif" font-size="10.00">/exception.hpp</text>
</a>
</g>
</g>
<!-- Node2&#45;&gt;Node21 -->
<g id="edge21_Node000002_Node000021" class="edge">
<title>Node2&#45;&gt;Node21</title>
<g id="a_edge21_Node000002_Node000021"><a xlink:title=" ">
<path fill="none" stroke="#63b8ff" d="M789.76,-320.53C709.56,-310.26 555.43,-290.3 424.5,-272 414.72,-270.63 404.37,-269.15 394.25,-267.67"/>
<polygon fill="#63b8ff" stroke="#63b8ff" points="394.64,-264.19 384.24,-266.21 393.62,-271.12 394.64,-264.19"/>
</a>
</g>
</g>
<!-- Node23 -->
<g id="Node000023" class="node">
<title>Node23</title>
<g id="a_Node000023"><a xlink:href="../../d2/d22/deadline_8hpp.html" target="_top" xlink:title="Internal representation of a deadline time point.">
<polygon fill="white" stroke="#666666" points="1252,-266.5 1097,-266.5 1097,-247.5 1252,-247.5 1252,-266.5"/>
<text text-anchor="middle" x="1174.5" y="-254.5" font-family="Helvetica,sans-Serif" font-size="10.00">userver/engine/deadline.hpp</text>
</a>
</g>
</g>
<!-- Node2&#45;&gt;Node23 -->
<g id="edge23_Node000002_Node000023" class="edge">
<title>Node2&#45;&gt;Node23</title>
<g id="a_edge23_Node000002_Node000023"><a xlink:title=" ">
<path fill="none" stroke="#63b8ff" d="M899.36,-315.95C961.91,-302.77 1063.31,-281.42 1123.98,-268.64"/>
<polygon fill="#63b8ff" stroke="#63b8ff" points="1125.02,-272 1134.09,-266.51 1123.58,-265.15 1125.02,-272"/>
</a>
</g>
</g>
<!-- Node27 -->
<g id="Node000027" class="node">
<title>Node27</title>
<g id="a_Node000027"><a xlink:href="../../d8/d03/task__processor__fwd_8hpp.html" target="_top" xlink:title=" ">
<polygon fill="white" stroke="#666666" points="764,-272 627,-272 627,-242 764,-242 764,-272"/>
<text text-anchor="start" x="635" y="-260" font-family="Helvetica,sans-Serif" font-size="10.00">userver/engine/task</text>
<text text-anchor="middle" x="695.5" y="-249" font-family="Helvetica,sans-Serif" font-size="10.00">/task_processor_fwd.hpp</text>
</a>
</g>
</g>
<!-- Node2&#45;&gt;Node27 -->
<g id="edge29_Node000002_Node000027" class="edge">
<title>Node2&#45;&gt;Node27</title>
<g id="a_edge29_Node000002_Node000027"><a xlink:title=" ">
<path fill="none" stroke="#63b8ff" d="M814.35,-313.44C791.43,-302.74 759.7,-287.94 734.79,-276.33"/>
<polygon fill="#63b8ff" stroke="#63b8ff" points="736.15,-273.1 725.61,-272.04 733.19,-279.44 736.15,-273.1"/>
</a>
</g>
</g>
<!-- Node29 -->
<g id="Node000029" class="node">
<title>Node29</title>
<g id="a_Node000029"><a xlink:href="../../d5/d02/fast__pimpl_8hpp.html" target="_top" xlink:title="Implements pimpl idiom without dynamic memory allocation.">
<polygon fill="white" stroke="#666666" points="1398,-272 1299,-272 1299,-242 1398,-242 1398,-272"/>
<text text-anchor="start" x="1307" y="-260" font-family="Helvetica,sans-Serif" font-size="10.00">userver/utils/fast</text>
<text text-anchor="middle" x="1348.5" y="-249" font-family="Helvetica,sans-Serif" font-size="10.00">_pimpl.hpp</text>
</a>
</g>
</g>
<!-- Node2&#45;&gt;Node29 -->
<g id="edge31_Node000002_Node000029" class="edge">
<title>Node2&#45;&gt;Node29</title>
<g id="a_edge31_Node000002_Node000029"><a xlink:title=" ">
<path fill="none" stroke="#63b8ff" d="M899.21,-320.7C978.97,-310.68 1131.8,-291.06 1261.5,-272 1270.3,-270.71 1279.59,-269.28 1288.69,-267.84"/>
<polygon fill="#63b8ff" stroke="#63b8ff" points="1289.52,-271.26 1298.85,-266.23 1288.42,-264.34 1289.52,-271.26"/>
</a>
</g>
</g>
<!-- Node33 -->
<g id="Node000033" class="node">
<title>Node33</title>
<g id="a_Node000033"><a xlink:href="../../db/d91/relaxed__counter_8hpp.html" target="_top" xlink:title="Atomic counter of type T with relaxed memory ordering.">
<polygon fill="white" stroke="#666666" points="907,-272 782,-272 782,-242 907,-242 907,-272"/>
<text text-anchor="start" x="790" y="-260" font-family="Helvetica,sans-Serif" font-size="10.00">userver/utils/statistics</text>
<text text-anchor="middle" x="844.5" y="-249" font-family="Helvetica,sans-Serif" font-size="10.00">/relaxed_counter.hpp</text>
</a>
</g>
</g>
<!-- Node2&#45;&gt;Node33 -->
<g id="edge36_Node000002_Node000033" class="edge">
<title>Node2&#45;&gt;Node33</title>
<g id="a_edge36_Node000002_Node000033"><a xlink:title=" ">
<path fill="none" stroke="#63b8ff" d="M844.5,-313.44C844.5,-304.49 844.5,-292.66 844.5,-282.23"/>
<polygon fill="#63b8ff" stroke="#63b8ff" points="848,-282.04 844.5,-272.04 841,-282.04 848,-282.04"/>
</a>
</g>
</g>
<!-- Node4 -->
<g id="Node000004" class="node">
<title>Node4</title>
<g id="a_Node000004"><a xlink:title=" ">
<polygon fill="#e0e0e0" stroke="#999999" points="629.5,-206 507.5,-206 507.5,-176 629.5,-176 629.5,-206"/>
<text text-anchor="start" x="515.5" y="-194" font-family="Helvetica,sans-Serif" font-size="10.00">boost/container/small</text>
<text text-anchor="middle" x="568.5" y="-183" font-family="Helvetica,sans-Serif" font-size="10.00">_vector.hpp</text>
</a>
</g>
</g>
<!-- Node3&#45;&gt;Node4 -->
<g id="edge3_Node000003_Node000004" class="edge">
<title>Node3&#45;&gt;Node4</title>
<g id="a_edge3_Node000003_Node000004"><a xlink:title=" ">
<path fill="none" stroke="#63b8ff" d="M557.61,-241.8C559.26,-234.26 561.33,-224.78 563.22,-216.13"/>
<polygon fill="#63b8ff" stroke="#63b8ff" points="566.68,-216.68 565.4,-206.16 559.85,-215.19 566.68,-216.68"/>
</a>
</g>
</g>
<!-- Node3&#45;&gt;Node5 -->
<g id="edge4_Node000003_Node000005" class="edge">
<title>Node3&#45;&gt;Node5</title>
<g id="a_edge4_Node000003_Node000005"><a xlink:title=" ">
<path fill="none" stroke="#63b8ff" d="M521.8,-241.95C495.79,-230.78 459.72,-215.29 434.67,-204.53"/>
<polygon fill="#63b8ff" stroke="#63b8ff" points="435.9,-201.25 425.33,-200.52 433.14,-207.68 435.9,-201.25"/>
</a>
</g>
</g>
<!-- Node6 -->
<g id="Node000006" class="node">
<title>Node6</title>
<g id="a_Node000006"><a xlink:title=" ">
<polygon fill="#e0e0e0" stroke="#999999" points="348.5,-134.5 276.5,-134.5 276.5,-115.5 348.5,-115.5 348.5,-134.5"/>
<text text-anchor="middle" x="312.5" y="-122.5" font-family="Helvetica,sans-Serif" font-size="10.00">netinet/in.h</text>
</a>
</g>
</g>
<!-- Node5&#45;&gt;Node6 -->
<g id="edge5_Node000005_Node000006" class="edge">
<title>Node5&#45;&gt;Node6</title>
<g id="a_edge5_Node000005_Node000006"><a xlink:title=" ">
<path fill="none" stroke="#63b8ff" d="M392.96,-181.37C377.7,-170.87 351.73,-153 333.43,-140.4"/>
<polygon fill="#63b8ff" stroke="#63b8ff" points="335.36,-137.48 325.14,-134.7 331.39,-143.25 335.36,-137.48"/>
</a>
</g>
</g>
<!-- Node7 -->
<g id="Node000007" class="node">
<title>Node7</title>
<g id="a_Node000007"><a xlink:title=" ">
<polygon fill="#e0e0e0" stroke="#999999" points="444,-134.5 367,-134.5 367,-115.5 444,-115.5 444,-134.5"/>
<text text-anchor="middle" x="405.5" y="-122.5" font-family="Helvetica,sans-Serif" font-size="10.00">sys/socket.h</text>
</a>
</g>
</g>
<!-- Node5&#45;&gt;Node7 -->
<g id="edge6_Node000005_Node000007" class="edge">
<title>Node5&#45;&gt;Node7</title>
<g id="a_edge6_Node000005_Node000007"><a xlink:title=" ">
<path fill="none" stroke="#63b8ff" d="M405.5,-181.37C405.5,-172.16 405.5,-157.29 405.5,-145.27"/>
<polygon fill="#63b8ff" stroke="#63b8ff" points="409,-144.91 405.5,-134.91 402,-144.91 409,-144.91"/>
</a>
</g>
</g>
<!-- Node8 -->
<g id="Node000008" class="node">
<title>Node8</title>
<g id="a_Node000008"><a xlink:title=" ">
<polygon fill="#e0e0e0" stroke="#999999" points="534.5,-134.5 462.5,-134.5 462.5,-115.5 534.5,-115.5 534.5,-134.5"/>
<text text-anchor="middle" x="498.5" y="-122.5" font-family="Helvetica,sans-Serif" font-size="10.00">sys/types.h</text>
</a>
</g>
</g>
<!-- Node5&#45;&gt;Node8 -->
<g id="edge7_Node000005_Node000008" class="edge">
<title>Node5&#45;&gt;Node8</title>
<g id="a_edge7_Node000005_Node000008"><a xlink:title=" ">
<path fill="none" stroke="#63b8ff" d="M418.04,-181.37C433.3,-170.87 459.27,-153 477.57,-140.4"/>
<polygon fill="#63b8ff" stroke="#63b8ff" points="479.61,-143.25 485.86,-134.7 475.64,-137.48 479.61,-143.25"/>
</a>
</g>
</g>
<!-- Node9 -->
<g id="Node000009" class="node">
<title>Node9</title>
<g id="a_Node000009"><a xlink:title=" ">
<polygon fill="#e0e0e0" stroke="#999999" points="610,-134.5 553,-134.5 553,-115.5 610,-115.5 610,-134.5"/>
<text text-anchor="middle" x="581.5" y="-122.5" font-family="Helvetica,sans-Serif" font-size="10.00">sys/un.h</text>
</a>
</g>
</g>
<!-- Node5&#45;&gt;Node9 -->
<g id="edge8_Node000005_Node000009" class="edge">
<title>Node5&#45;&gt;Node9</title>
<g id="a_edge8_Node000005_Node000009"><a xlink:title=" ">
<path fill="none" stroke="#63b8ff" d="M429.45,-181.37C456.98,-171.43 503.53,-154.6 543.5,-140 545.13,-139.4 546.81,-138.79 548.5,-138.17"/>
<polygon fill="#63b8ff" stroke="#63b8ff" points="550.02,-141.34 558.2,-134.61 547.6,-134.77 550.02,-141.34"/>
</a>
</g>
</g>
<!-- Node10 -->
<g id="Node000010" class="node">
<title>Node10</title>
<g id="a_Node000010"><a xlink:title=" ">
<polygon fill="#e0e0e0" stroke="#999999" points="678.5,-134.5 628.5,-134.5 628.5,-115.5 678.5,-115.5 678.5,-134.5"/>
<text text-anchor="middle" x="653.5" y="-122.5" font-family="Helvetica,sans-Serif" font-size="10.00">cstring</text>
</a>
</g>
</g>
<!-- Node5&#45;&gt;Node10 -->
<g id="edge9_Node000005_Node000010" class="edge">
<title>Node5&#45;&gt;Node10</title>
<g id="a_edge9_Node000005_Node000010"><a xlink:title=" ">
<path fill="none" stroke="#63b8ff" d="M450.49,-181.48C493.97,-172.77 561.45,-158 618.5,-140 620.37,-139.41 622.29,-138.76 624.21,-138.09"/>
<polygon fill="#63b8ff" stroke="#63b8ff" points="625.57,-141.31 633.7,-134.52 623.11,-134.76 625.57,-141.31"/>
</a>
</g>
</g>
<!-- Node11 -->
<g id="Node000011" class="node">
<title>Node11</title>
<g id="a_Node000011"><a xlink:title=" ">
<polygon fill="#e0e0e0" stroke="#999999" points="1040.5,-134.5 996.5,-134.5 996.5,-115.5 1040.5,-115.5 1040.5,-134.5"/>
<text text-anchor="middle" x="1018.5" y="-122.5" font-family="Helvetica,sans-Serif" font-size="10.00">string</text>
</a>
</g>
</g>
<!-- Node5&#45;&gt;Node11 -->
<g id="edge10_Node000005_Node000011" class="edge">
<title>Node5&#45;&gt;Node11</title>
<g id="a_edge10_Node000005_Node000011"><a xlink:title=" ">
<path fill="none" stroke="#63b8ff" d="M459.04,-181.44C471.94,-179.52 485.7,-177.58 498.5,-176 682.64,-153.3 904.53,-134.95 986.26,-128.5"/>
<polygon fill="#63b8ff" stroke="#63b8ff" points="986.71,-131.97 996.41,-127.7 986.16,-124.99 986.71,-131.97"/>
</a>
</g>
</g>
<!-- Node12 -->
<g id="Node000012" class="node">
<title>Node12</title>
<g id="a_Node000012"><a xlink:title=" ">
<polygon fill="#e0e0e0" stroke="#999999" points="79,-134.5 0,-134.5 0,-115.5 79,-115.5 79,-134.5"/>
<text text-anchor="middle" x="39.5" y="-122.5" font-family="Helvetica,sans-Serif" font-size="10.00">fmt/format.h</text>
</a>
</g>
</g>
<!-- Node5&#45;&gt;Node12 -->
<g id="edge11_Node000005_Node000012" class="edge">
<title>Node5&#45;&gt;Node12</title>
<g id="a_edge11_Node000005_Node000012"><a xlink:title=" ">
<path fill="none" stroke="#63b8ff" d="M348.76,-181.48C264.23,-168.73 112.45,-145.58 87.5,-140 83.85,-139.19 80.08,-138.25 76.32,-137.25"/>
<polygon fill="#63b8ff" stroke="#63b8ff" points="77.08,-133.83 66.5,-134.53 75.21,-140.58 77.08,-133.83"/>
</a>
</g>
</g>
<!-- Node13 -->
<g id="Node000013" class="node">
<title>Node13</title>
<g id="a_Node000013"><a xlink:href="../../d3/d6c/fmt__compat_8hpp_source.html" target="_top" xlink:title=" ">
<polygon fill="white" stroke="#666666" points="258,-134.5 97,-134.5 97,-115.5 258,-115.5 258,-134.5"/>
<text text-anchor="middle" x="177.5" y="-122.5" font-family="Helvetica,sans-Serif" font-size="10.00">userver/utils/fmt_compat.hpp</text>
</a>
</g>
</g>
<!-- Node5&#45;&gt;Node13 -->
<g id="edge12_Node000005_Node000013" class="edge">
<title>Node5&#45;&gt;Node13</title>
<g id="a_edge12_Node000005_Node000013"><a xlink:title=" ">
<path fill="none" stroke="#63b8ff" d="M374.75,-181.37C334.18,-169.98 262.69,-149.91 217.82,-137.32"/>
<polygon fill="#63b8ff" stroke="#63b8ff" points="218.7,-133.93 208.13,-134.6 216.81,-140.67 218.7,-133.93"/>
</a>
</g>
</g>
<!-- Node15 -->
<g id="Node000015" class="node">
<title>Node15</title>
<g id="a_Node000015"><a xlink:href="../../d0/d14/log__helper__fwd_8hpp.html" target="_top" xlink:title=" ">
<polygon fill="white" stroke="#666666" points="814.5,-140 704.5,-140 704.5,-110 814.5,-110 814.5,-140"/>
<text text-anchor="start" x="712.5" y="-128" font-family="Helvetica,sans-Serif" font-size="10.00">userver/logging/log</text>
<text text-anchor="middle" x="759.5" y="-117" font-family="Helvetica,sans-Serif" font-size="10.00">_helper_fwd.hpp</text>
</a>
</g>
</g>
<!-- Node5&#45;&gt;Node15 -->
<g id="edge14_Node000005_Node000015" class="edge">
<title>Node5&#45;&gt;Node15</title>
<g id="a_edge14_Node000005_Node000015"><a xlink:title=" ">
<path fill="none" stroke="#63b8ff" d="M454.96,-181.49C511.3,-171.73 606.11,-155.13 687.5,-140 689.82,-139.57 692.19,-139.13 694.58,-138.68"/>
<polygon fill="#63b8ff" stroke="#63b8ff" points="695.31,-142.1 704.48,-136.8 694.01,-135.22 695.31,-142.1"/>
</a>
</g>
</g>
<!-- Node14 -->
<g id="Node000014" class="node">
<title>Node14</title>
<g id="a_Node000014"><a xlink:title=" ">
<polygon fill="#e0e0e0" stroke="#999999" points="211,-74 144,-74 144,-55 211,-55 211,-74"/>
<text text-anchor="middle" x="177.5" y="-62" font-family="Helvetica,sans-Serif" font-size="10.00">fmt/core.h</text>
</a>
</g>
</g>
<!-- Node13&#45;&gt;Node14 -->
<g id="edge13_Node000013_Node000014" class="edge">
<title>Node13&#45;&gt;Node14</title>
<g id="a_edge13_Node000013_Node000014"><a xlink:title=" ">
<path fill="none" stroke="#63b8ff" d="M177.5,-115.37C177.5,-107.25 177.5,-94.81 177.5,-84.39"/>
<polygon fill="#63b8ff" stroke="#63b8ff" points="181,-84.17 177.5,-74.17 174,-84.17 181,-84.17"/>
</a>
</g>
</g>
<!-- Node16 -->
<g id="Node000016" class="node">
<title>Node16</title>
<g id="a_Node000016"><a xlink:href="../../db/dfb/universal_2include_2userver_2logging_2fwd_8hpp.html" target="_top" xlink:title="Forward declarations for logging types.">
<polygon fill="white" stroke="#666666" points="828.5,-74 694.5,-74 694.5,-55 828.5,-55 828.5,-74"/>
<text text-anchor="middle" x="761.5" y="-62" font-family="Helvetica,sans-Serif" font-size="10.00">userver/logging/fwd.hpp</text>
</a>
</g>
</g>
<!-- Node15&#45;&gt;Node16 -->
<g id="edge15_Node000015_Node000016" class="edge">
<title>Node15&#45;&gt;Node16</title>
<g id="a_edge15_Node000015_Node000016"><a xlink:title=" ">
<path fill="none" stroke="#63b8ff" d="M759.98,-109.84C760.24,-102.21 760.57,-92.7 760.85,-84.45"/>
<polygon fill="#63b8ff" stroke="#63b8ff" points="764.36,-84.38 761.2,-74.27 757.36,-84.14 764.36,-84.38"/>
</a>
</g>
</g>
<!-- Node17 -->
<g id="Node000017" class="node">
<title>Node17</title>
<g id="a_Node000017"><a xlink:title=" ">
<polygon fill="#e0e0e0" stroke="#999999" points="845.5,-19 787.5,-19 787.5,0 845.5,0 845.5,-19"/>
<text text-anchor="middle" x="816.5" y="-7" font-family="Helvetica,sans-Serif" font-size="10.00">memory</text>
</a>
</g>
</g>
<!-- Node16&#45;&gt;Node17 -->
<g id="edge16_Node000016_Node000017" class="edge">
<title>Node16&#45;&gt;Node17</title>
<g id="a_edge16_Node000016_Node000017"><a xlink:title=" ">
<path fill="none" stroke="#63b8ff" d="M770.58,-54.75C778.59,-47.03 790.46,-35.6 800.12,-26.28"/>
<polygon fill="#63b8ff" stroke="#63b8ff" points="802.81,-28.55 807.59,-19.09 797.96,-23.51 802.81,-28.55"/>
</a>
</g>
</g>
<!-- Node18&#45;&gt;Node11 -->
<g id="edge19_Node000018_Node000011" class="edge">
<title>Node18&#45;&gt;Node11</title>
<g id="a_edge19_Node000018_Node000011"><a xlink:title=" ">
<path fill="none" stroke="#63b8ff" d="M1018.5,-241.84C1018.5,-218.34 1018.5,-171.26 1018.5,-144.93"/>
<polygon fill="#63b8ff" stroke="#63b8ff" points="1022,-144.75 1018.5,-134.75 1015,-144.75 1022,-144.75"/>
</a>
</g>
</g>
<!-- Node19 -->
<g id="Node000019" class="node">
<title>Node19</title>
<g id="a_Node000019"><a xlink:title=" ">
<polygon fill="#e0e0e0" stroke="#999999" points="1096.5,-200.5 1046.5,-200.5 1046.5,-181.5 1096.5,-181.5 1096.5,-200.5"/>
<text text-anchor="middle" x="1071.5" y="-188.5" font-family="Helvetica,sans-Serif" font-size="10.00">chrono</text>
</a>
</g>
</g>
<!-- Node18&#45;&gt;Node19 -->
<g id="edge18_Node000018_Node000019" class="edge">
<title>Node18&#45;&gt;Node19</title>
<g id="a_edge18_Node000018_Node000019"><a xlink:title=" ">
<path fill="none" stroke="#63b8ff" d="M1030.26,-241.8C1038.36,-232.01 1049.16,-218.98 1057.67,-208.7"/>
<polygon fill="#63b8ff" stroke="#63b8ff" points="1060.49,-210.78 1064.18,-200.84 1055.1,-206.31 1060.49,-210.78"/>
</a>
</g>
</g>
<!-- Node20 -->
<g id="Node000020" class="node">
<title>Node20</title>
<g id="a_Node000020"><a xlink:title=" ">
<polygon fill="#e0e0e0" stroke="#999999" points="990,-200.5 943,-200.5 943,-181.5 990,-181.5 990,-200.5"/>
<text text-anchor="middle" x="966.5" y="-188.5" font-family="Helvetica,sans-Serif" font-size="10.00">vector</text>
</a>
</g>
</g>
<!-- Node18&#45;&gt;Node20 -->
<g id="edge20_Node000018_Node000020" class="edge">
<title>Node18&#45;&gt;Node20</title>
<g id="a_edge20_Node000018_Node000020"><a xlink:title=" ">
<path fill="none" stroke="#63b8ff" d="M1006.96,-241.8C999.01,-232.01 988.42,-218.98 980.07,-208.7"/>
<polygon fill="#63b8ff" stroke="#63b8ff" points="982.71,-206.4 973.69,-200.84 977.28,-210.81 982.71,-206.4"/>
</a>
</g>
</g>
<!-- Node22 -->
<g id="Node000022" class="node">
<title>Node22</title>
<g id="a_Node000022"><a xlink:title=" ">
<polygon fill="#e0e0e0" stroke="#999999" points="303,-200.5 238,-200.5 238,-181.5 303,-181.5 303,-200.5"/>
<text text-anchor="middle" x="270.5" y="-188.5" font-family="Helvetica,sans-Serif" font-size="10.00">stdexcept</text>
</a>
</g>
</g>
<!-- Node21&#45;&gt;Node22 -->
<g id="edge22_Node000021_Node000022" class="edge">
<title>Node21&#45;&gt;Node22</title>
<g id="a_edge22_Node000021_Node000022"><a xlink:title=" ">
<path fill="none" stroke="#63b8ff" d="M316.41,-241.8C307.3,-231.92 295.13,-218.72 285.61,-208.39"/>
<polygon fill="#63b8ff" stroke="#63b8ff" points="288,-205.82 278.65,-200.84 282.86,-210.57 288,-205.82"/>
</a>
</g>
</g>
<!-- Node23&#45;&gt;Node19 -->
<g id="edge24_Node000023_Node000019" class="edge">
<title>Node23&#45;&gt;Node19</title>
<g id="a_edge24_Node000023_Node000019"><a xlink:title=" ">
<path fill="none" stroke="#63b8ff" d="M1160.61,-247.37C1143.56,-236.78 1114.43,-218.67 1094.13,-206.06"/>
<polygon fill="#63b8ff" stroke="#63b8ff" points="1095.84,-203 1085.5,-200.7 1092.15,-208.95 1095.84,-203"/>
</a>
</g>
</g>
<!-- Node24 -->
<g id="Node000024" class="node">
<title>Node24</title>
<g id="a_Node000024"><a xlink:title=" ">
<polygon fill="#e0e0e0" stroke="#999999" points="1333,-200.5 1264,-200.5 1264,-181.5 1333,-181.5 1333,-200.5"/>
<text text-anchor="middle" x="1298.5" y="-188.5" font-family="Helvetica,sans-Serif" font-size="10.00">type_traits</text>
</a>
</g>
</g>
<!-- Node23&#45;&gt;Node24 -->
<g id="edge25_Node000023_Node000024" class="edge">
<title>Node23&#45;&gt;Node24</title>
<g id="a_edge25_Node000023_Node000024"><a xlink:title=" ">
<path fill="none" stroke="#63b8ff" d="M1191.22,-247.37C1212.12,-236.59 1248.09,-218.02 1272.57,-205.38"/>
<polygon fill="#63b8ff" stroke="#63b8ff" points="1274.36,-208.4 1281.65,-200.7 1271.15,-202.18 1274.36,-208.4"/>
</a>
</g>
</g>
<!-- Node25 -->
<g id="Node000025" class="node">
<title>Node25</title>
<g id="a_Node000025"><a xlink:href="../../d2/d54/assert_8hpp.html" target="_top" xlink:title="Assertion macros UASSERT, UASSERT_MSG, UINVARIANT.">
<polygon fill="white" stroke="#666666" points="1246,-200.5 1115,-200.5 1115,-181.5 1246,-181.5 1246,-200.5"/>
<text text-anchor="middle" x="1180.5" y="-188.5" font-family="Helvetica,sans-Serif" font-size="10.00">userver/utils/assert.hpp</text>
</a>
</g>
</g>
<!-- Node23&#45;&gt;Node25 -->
<g id="edge26_Node000023_Node000025" class="edge">
<title>Node23&#45;&gt;Node25</title>
<g id="a_edge26_Node000023_Node000025"><a xlink:title=" ">
<path fill="none" stroke="#63b8ff" d="M1175.31,-247.37C1176.18,-238.07 1177.6,-222.98 1178.73,-210.9"/>
<polygon fill="#63b8ff" stroke="#63b8ff" points="1182.22,-211.19 1179.67,-200.91 1175.25,-210.53 1182.22,-211.19"/>
</a>
</g>
</g>
<!-- Node26 -->
<g id="Node000026" class="node">
<title>Node26</title>
<g id="a_Node000026"><a xlink:title=" ">
<polygon fill="#e0e0e0" stroke="#999999" points="1217,-134.5 1144,-134.5 1144,-115.5 1217,-115.5 1217,-134.5"/>
<text text-anchor="middle" x="1180.5" y="-122.5" font-family="Helvetica,sans-Serif" font-size="10.00">string_view</text>
</a>
</g>
</g>
<!-- Node25&#45;&gt;Node26 -->
<g id="edge27_Node000025_Node000026" class="edge">
<title>Node25&#45;&gt;Node26</title>
<g id="a_edge27_Node000025_Node000026"><a xlink:title=" ">
<path fill="none" stroke="#63b8ff" d="M1180.5,-181.37C1180.5,-172.16 1180.5,-157.29 1180.5,-145.27"/>
<polygon fill="#63b8ff" stroke="#63b8ff" points="1184,-144.91 1180.5,-134.91 1177,-144.91 1184,-144.91"/>
</a>
</g>
</g>
<!-- Node28 -->
<g id="Node000028" class="node">
<title>Node28</title>
<g id="a_Node000028"><a xlink:title=" ">
<polygon fill="#e0e0e0" stroke="#999999" points="713,-200.5 648,-200.5 648,-181.5 713,-181.5 713,-200.5"/>
<text text-anchor="middle" x="680.5" y="-188.5" font-family="Helvetica,sans-Serif" font-size="10.00">functional</text>
</a>
</g>
</g>
<!-- Node27&#45;&gt;Node28 -->
<g id="edge30_Node000027_Node000028" class="edge">
<title>Node27&#45;&gt;Node28</title>
<g id="a_edge30_Node000027_Node000028"><a xlink:title=" ">
<path fill="none" stroke="#63b8ff" d="M692.17,-241.8C690.04,-232.7 687.25,-220.79 684.93,-210.9"/>
<polygon fill="#63b8ff" stroke="#63b8ff" points="688.26,-209.78 682.57,-200.84 681.45,-211.38 688.26,-209.78"/>
</a>
</g>
</g>
<!-- Node29&#45;&gt;Node24 -->
<g id="edge34_Node000029_Node000024" class="edge">
<title>Node29&#45;&gt;Node24</title>
<g id="a_edge34_Node000029_Node000024"><a xlink:title=" ">
<path fill="none" stroke="#63b8ff" d="M1337.4,-241.8C1329.84,-232.11 1319.78,-219.24 1311.79,-209.01"/>
<polygon fill="#63b8ff" stroke="#63b8ff" points="1314.32,-206.57 1305.41,-200.84 1308.81,-210.88 1314.32,-206.57"/>
</a>
</g>
</g>
<!-- Node30 -->
<g id="Node000030" class="node">
<title>Node30</title>
<g id="a_Node000030"><a xlink:title=" ">
<polygon fill="#e0e0e0" stroke="#999999" points="1404,-200.5 1351,-200.5 1351,-181.5 1404,-181.5 1404,-200.5"/>
<text text-anchor="middle" x="1377.5" y="-188.5" font-family="Helvetica,sans-Serif" font-size="10.00">cstddef</text>
</a>
</g>
</g>
<!-- Node29&#45;&gt;Node30 -->
<g id="edge32_Node000029_Node000030" class="edge">
<title>Node29&#45;&gt;Node30</title>
<g id="a_edge32_Node000029_Node000030"><a xlink:title=" ">
<path fill="none" stroke="#63b8ff" d="M1354.94,-241.8C1359.15,-232.5 1364.69,-220.27 1369.23,-210.26"/>
<polygon fill="#63b8ff" stroke="#63b8ff" points="1372.55,-211.4 1373.49,-200.84 1366.18,-208.51 1372.55,-211.4"/>
</a>
</g>
</g>
<!-- Node31 -->
<g id="Node000031" class="node">
<title>Node31</title>
<g id="a_Node000031"><a xlink:title=" ">
<polygon fill="#e0e0e0" stroke="#999999" points="1459,-200.5 1422,-200.5 1422,-181.5 1459,-181.5 1459,-200.5"/>
<text text-anchor="middle" x="1440.5" y="-188.5" font-family="Helvetica,sans-Serif" font-size="10.00">new</text>
</a>
</g>
</g>
<!-- Node29&#45;&gt;Node31 -->
<g id="edge33_Node000029_Node000031" class="edge">
<title>Node29&#45;&gt;Node31</title>
<g id="a_edge33_Node000029_Node000031"><a xlink:title=" ">
<path fill="none" stroke="#63b8ff" d="M1368.92,-241.8C1384.05,-231.27 1404.6,-216.97 1419.8,-206.4"/>
<polygon fill="#63b8ff" stroke="#63b8ff" points="1421.84,-209.24 1428.05,-200.66 1417.85,-203.5 1421.84,-209.24"/>
</a>
</g>
</g>
<!-- Node32 -->
<g id="Node000032" class="node">
<title>Node32</title>
<g id="a_Node000032"><a xlink:title=" ">
<polygon fill="#e0e0e0" stroke="#999999" points="1522,-200.5 1477,-200.5 1477,-181.5 1522,-181.5 1522,-200.5"/>
<text text-anchor="middle" x="1499.5" y="-188.5" font-family="Helvetica,sans-Serif" font-size="10.00">utility</text>
</a>
</g>
</g>
<!-- Node29&#45;&gt;Node32 -->
<g id="edge35_Node000029_Node000032" class="edge">
<title>Node29&#45;&gt;Node32</title>
<g id="a_edge35_Node000029_Node000032"><a xlink:title=" ">
<path fill="none" stroke="#63b8ff" d="M1383.01,-241.93C1407.05,-232.06 1439.83,-218.45 1468.5,-206 1469.5,-205.57 1470.52,-205.12 1471.55,-204.67"/>
<polygon fill="#63b8ff" stroke="#63b8ff" points="1473.14,-207.79 1480.85,-200.53 1470.29,-201.4 1473.14,-207.79"/>
</a>
</g>
</g>
<!-- Node34 -->
<g id="Node000034" class="node">
<title>Node34</title>
<g id="a_Node000034"><a xlink:title=" ">
<polygon fill="#e0e0e0" stroke="#999999" points="781.5,-200.5 731.5,-200.5 731.5,-181.5 781.5,-181.5 781.5,-200.5"/>
<text text-anchor="middle" x="756.5" y="-188.5" font-family="Helvetica,sans-Serif" font-size="10.00">atomic</text>
</a>
</g>
</g>
<!-- Node33&#45;&gt;Node34 -->
<g id="edge37_Node000033_Node000034" class="edge">
<title>Node33&#45;&gt;Node34</title>
<g id="a_edge37_Node000033_Node000034"><a xlink:title=" ">
<path fill="none" stroke="#63b8ff" d="M824.97,-241.8C810.63,-231.37 791.2,-217.24 776.71,-206.69"/>
<polygon fill="#63b8ff" stroke="#63b8ff" points="778.55,-203.71 768.41,-200.66 774.43,-209.37 778.55,-203.71"/>
</a>
</g>
</g>
<!-- Node35 -->
<g id="Node000035" class="node">
<title>Node35</title>
<g id="a_Node000035"><a xlink:href="../../d7/def/core_2include_2userver_2utils_2statistics_2fwd_8hpp.html" target="_top" xlink:title="Forward declarations for statistics entities.">
<polygon fill="white" stroke="#666666" points="925,-206 800,-206 800,-176 925,-176 925,-206"/>
<text text-anchor="start" x="808" y="-194" font-family="Helvetica,sans-Serif" font-size="10.00">userver/utils/statistics</text>
<text text-anchor="middle" x="862.5" y="-183" font-family="Helvetica,sans-Serif" font-size="10.00">/fwd.hpp</text>
</a>
</g>
</g>
<!-- Node33&#45;&gt;Node35 -->
<g id="edge38_Node000033_Node000035" class="edge">
<title>Node33&#45;&gt;Node35</title>
<g id="a_edge38_Node000033_Node000035"><a xlink:title=" ">
<path fill="none" stroke="#63b8ff" d="M848.49,-241.8C850.64,-234.17 853.34,-224.57 855.79,-215.84"/>
<polygon fill="#63b8ff" stroke="#63b8ff" points="859.18,-216.74 858.52,-206.16 852.44,-214.84 859.18,-216.74"/>
</a>
</g>
</g>
<!-- Node35&#45;&gt;Node17 -->
<g id="edge39_Node000035_Node000017" class="edge">
<title>Node35&#45;&gt;Node17</title>
<g id="a_edge39_Node000035_Node000017"><a xlink:title=" ">
<path fill="none" stroke="#63b8ff" d="M861.1,-175.91C858.37,-151.03 851.33,-97.87 837.5,-55 834.55,-45.85 830.14,-36.15 826.12,-28.15"/>
<polygon fill="#63b8ff" stroke="#63b8ff" points="829.11,-26.33 821.37,-19.09 822.91,-29.57 829.11,-26.33"/>
</a>
</g>
</g>
<!-- Node37 -->
<g id="Node000037" class="node">
<title>Node37</title>
<g id="a_Node000037"><a xlink:href="../../d7/d47/component__fwd_8hpp.html" target="_top" xlink:title="Forward declarations for components::ComponentContext and components::ComponentConfig; function compo...">
<polygon fill="white" stroke="#666666" points="1571.5,-272 1453.5,-272 1453.5,-242 1571.5,-242 1571.5,-272"/>
<text text-anchor="start" x="1461.5" y="-260" font-family="Helvetica,sans-Serif" font-size="10.00">userver/components</text>
<text text-anchor="middle" x="1512.5" y="-249" font-family="Helvetica,sans-Serif" font-size="10.00">/component_fwd.hpp</text>
</a>
</g>
</g>
<!-- Node36&#45;&gt;Node37 -->
<g id="edge41_Node000036_Node000037" class="edge">
<title>Node36&#45;&gt;Node37</title>
<g id="a_edge41_Node000036_Node000037"><a xlink:title=" ">
<path fill="none" stroke="#63b8ff" d="M1512.5,-307.77C1512.5,-299.85 1512.5,-290.63 1512.5,-282.3"/>
<polygon fill="#63b8ff" stroke="#63b8ff" points="1516,-282.04 1512.5,-272.04 1509,-282.04 1516,-282.04"/>
</a>
</g>
</g>
<!-- Node38 -->
<g id="Node000038" class="node">
<title>Node38</title>
<g id="a_Node000038"><a xlink:href="../../d2/d61/component__base_8hpp_source.html" target="_top" xlink:title=" ">
<polygon fill="white" stroke="#666666" points="1739,-272 1590,-272 1590,-242 1739,-242 1739,-272"/>
<text text-anchor="start" x="1598" y="-260" font-family="Helvetica,sans-Serif" font-size="10.00">userver/components</text>
<text text-anchor="middle" x="1664.5" y="-249" font-family="Helvetica,sans-Serif" font-size="10.00">/impl/component_base.hpp</text>
</a>
</g>
</g>
<!-- Node36&#45;&gt;Node38 -->
<g id="edge43_Node000036_Node000038" class="edge">
<title>Node36&#45;&gt;Node38</title>
<g id="a_edge43_Node000036_Node000038"><a xlink:title=" ">
<path fill="none" stroke="#63b8ff" d="M1555.24,-307.96C1576.97,-298.02 1603.21,-286.03 1624.52,-276.28"/>
<polygon fill="#63b8ff" stroke="#63b8ff" points="1626,-279.45 1633.63,-272.11 1623.08,-273.09 1626,-279.45"/>
</a>
</g>
</g>
<!-- Node37&#45;&gt;Node11 -->
<g id="edge42_Node000037_Node000011" class="edge">
<title>Node37&#45;&gt;Node11</title>
<g id="a_edge42_Node000037_Node000011"><a xlink:title=" ">
<path fill="none" stroke="#63b8ff" d="M1522.45,-241.98C1533.62,-224.36 1548.15,-194.24 1531.5,-176 1501.71,-143.38 1179.44,-144.63 1135.5,-140 1106.92,-136.99 1074.47,-133.07 1051.01,-130.14"/>
<polygon fill="#63b8ff" stroke="#63b8ff" points="1051.27,-126.65 1040.91,-128.87 1050.39,-133.59 1051.27,-126.65"/>
</a>
</g>
</g>
<!-- Node39&#45;&gt;Node29 -->
<g id="edge45_Node000039_Node000029" class="edge">
<title>Node39&#45;&gt;Node29</title>
<g id="a_edge45_Node000039_Node000029"><a xlink:title=" ">
<path fill="none" stroke="#63b8ff" d="M1239.22,-313.44C1260.11,-302.84 1288.96,-288.2 1311.77,-276.63"/>
<polygon fill="#63b8ff" stroke="#63b8ff" points="1313.48,-279.69 1320.82,-272.04 1310.32,-273.45 1313.48,-279.69"/>
</a>
</g>
</g>
<!-- Node39&#45;&gt;Node35 -->
<g id="edge46_Node000039_Node000035" class="edge">
<title>Node39&#45;&gt;Node35</title>
<g id="a_edge46_Node000039_Node000035"><a xlink:title=" ">
<path fill="none" stroke="#63b8ff" d="M1148.92,-322.63C1095.25,-316.46 1017.07,-302.66 955.5,-272 947.54,-268.04 910.42,-235.23 885.55,-212.87"/>
<polygon fill="#63b8ff" stroke="#63b8ff" points="887.73,-210.13 877.96,-206.03 883.04,-215.33 887.73,-210.13"/>
</a>
</g>
</g>
</g>
</svg>
