<?xml version="1.0" encoding="UTF-8" standalone="no"?>
<!DOCTYPE svg PUBLIC "-//W3C//DTD SVG 1.1//EN"
 "http://www.w3.org/Graphics/SVG/1.1/DTD/svg11.dtd">
<!-- Generated by graphviz version 2.43.0 (0)
 -->
<!-- Title: storages::mysql::MySQLException Pages: 1 -->
<svg width="681pt" height="220pt"
 viewBox="0.00 0.00 681.00 220.00" xmlns="http://www.w3.org/2000/svg" xmlns:xlink="http://www.w3.org/1999/xlink">
<g id="graph0" class="graph" transform="scale(1 1) rotate(0) translate(4 216)">
<title>storages::mysql::MySQLException</title>
<!-- Node1 -->
<g id="Node000001" class="node">
<title>Node1</title>
<g id="a_Node000001"><a xlink:title="Base class for all uMySQL driver exceptions.">
<polygon fill="#999999" stroke="#666666" points="444,-120.5 262,-120.5 262,-101.5 444,-101.5 444,-120.5"/>
<text text-anchor="middle" x="353" y="-108.5" font-family="Helvetica,sans-Serif" font-size="10.00">storages::mysql::MySQLException</text>
</a>
</g>
</g>
<!-- Node4 -->
<g id="Node000004" class="node">
<title>Node4</title>
<g id="a_Node000004"><a xlink:href="../../d5/d5f/classstorages_1_1mysql_1_1MySQLCommandException.html" target="_top" xlink:title="Command exception &#45; something went wrong with the command.">
<polygon fill="white" stroke="#666666" points="669,-212 484,-212 484,-182 669,-182 669,-212"/>
<text text-anchor="start" x="492" y="-200" font-family="Helvetica,sans-Serif" font-size="10.00">storages::mysql::MySQLCommand</text>
<text text-anchor="middle" x="576.5" y="-189" font-family="Helvetica,sans-Serif" font-size="10.00">Exception</text>
</a>
</g>
</g>
<!-- Node1&#45;&gt;Node4 -->
<g id="edge3_Node000001_Node000004" class="edge">
<title>Node1&#45;&gt;Node4</title>
<g id="a_edge3_Node000001_Node000004"><a xlink:title=" ">
<path fill="none" stroke="#63b8ff" d="M379.44,-125.51C404.4,-139.26 443.88,-159.74 480,-173 488.99,-176.3 498.61,-179.3 508.17,-181.98"/>
<polygon fill="#63b8ff" stroke="#63b8ff" points="381.06,-122.41 370.62,-120.6 377.65,-128.52 381.06,-122.41"/>
</a>
</g>
</g>
<!-- Node5 -->
<g id="Node000005" class="node">
<title>Node5</title>
<g id="a_Node000005"><a xlink:href="../../d1/d7d/classstorages_1_1mysql_1_1MySQLIOException.html" target="_top" xlink:title="IO exception (read/write timeout/cancelled)">
<polygon fill="white" stroke="#666666" points="673,-163.5 480,-163.5 480,-144.5 673,-144.5 673,-163.5"/>
<text text-anchor="middle" x="576.5" y="-151.5" font-family="Helvetica,sans-Serif" font-size="10.00">storages::mysql::MySQLIOException</text>
</a>
</g>
</g>
<!-- Node1&#45;&gt;Node5 -->
<g id="edge4_Node000001_Node000005" class="edge">
<title>Node1&#45;&gt;Node5</title>
<g id="a_edge4_Node000001_Node000005"><a xlink:title=" ">
<path fill="none" stroke="#63b8ff" d="M413.35,-122.52C448.73,-129.39 493.1,-138 526.48,-144.48"/>
<polygon fill="#63b8ff" stroke="#63b8ff" points="413.64,-119.01 403.16,-120.54 412.31,-125.88 413.64,-119.01"/>
</a>
</g>
</g>
<!-- Node6 -->
<g id="Node000006" class="node">
<title>Node6</title>
<g id="a_Node000006"><a xlink:href="../../d3/d16/classstorages_1_1mysql_1_1MySQLStatementException.html" target="_top" xlink:title="Statement exception &#45; something went wrong with the statement.">
<polygon fill="white" stroke="#666666" points="669,-126 484,-126 484,-96 669,-96 669,-126"/>
<text text-anchor="start" x="492" y="-114" font-family="Helvetica,sans-Serif" font-size="10.00">storages::mysql::MySQLStatement</text>
<text text-anchor="middle" x="576.5" y="-103" font-family="Helvetica,sans-Serif" font-size="10.00">Exception</text>
</a>
</g>
</g>
<!-- Node1&#45;&gt;Node6 -->
<g id="edge5_Node000001_Node000006" class="edge">
<title>Node1&#45;&gt;Node6</title>
<g id="a_edge5_Node000001_Node000006"><a xlink:title=" ">
<path fill="none" stroke="#63b8ff" d="M454.26,-111C464.06,-111 473.97,-111 483.69,-111"/>
<polygon fill="#63b8ff" stroke="#63b8ff" points="454.09,-107.5 444.09,-111 454.09,-114.5 454.09,-107.5"/>
</a>
</g>
</g>
<!-- Node7 -->
<g id="Node000007" class="node">
<title>Node7</title>
<g id="a_Node000007"><a xlink:href="../../dc/db5/classstorages_1_1mysql_1_1MySQLTransactionException.html" target="_top" xlink:title="Transaction exception &#45; something went wrong with the transaction.">
<polygon fill="white" stroke="#666666" points="671,-78 482,-78 482,-48 671,-48 671,-78"/>
<text text-anchor="start" x="490" y="-66" font-family="Helvetica,sans-Serif" font-size="10.00">storages::mysql::MySQLTransaction</text>
<text text-anchor="middle" x="576.5" y="-55" font-family="Helvetica,sans-Serif" font-size="10.00">Exception</text>
</a>
</g>
</g>
<!-- Node1&#45;&gt;Node7 -->
<g id="edge6_Node000001_Node000007" class="edge">
<title>Node1&#45;&gt;Node7</title>
<g id="a_edge6_Node000001_Node000007"><a xlink:title=" ">
<path fill="none" stroke="#63b8ff" d="M408.15,-99.26C437.72,-92.86 474.63,-84.86 506.26,-78"/>
<polygon fill="#63b8ff" stroke="#63b8ff" points="407.06,-95.92 398.03,-101.46 408.54,-102.76 407.06,-95.92"/>
</a>
</g>
</g>
<!-- Node8 -->
<g id="Node000008" class="node">
<title>Node8</title>
<g id="a_Node000008"><a xlink:href="../../d3/d2d/classstorages_1_1mysql_1_1MySQLValidationException.html" target="_top" xlink:title=" ">
<polygon fill="white" stroke="#bfbfbf" points="667.5,-30 485.5,-30 485.5,0 667.5,0 667.5,-30"/>
<text text-anchor="start" x="493.5" y="-18" font-family="Helvetica,sans-Serif" font-size="10.00">storages::mysql::MySQLValidation</text>
<text text-anchor="middle" x="576.5" y="-7" font-family="Helvetica,sans-Serif" font-size="10.00">Exception</text>
</a>
</g>
</g>
<!-- Node1&#45;&gt;Node8 -->
<g id="edge7_Node000001_Node000008" class="edge">
<title>Node1&#45;&gt;Node8</title>
<g id="a_edge7_Node000001_Node000008"><a xlink:title=" ">
<path fill="none" stroke="#63b8ff" d="M376.25,-95.78C400.72,-79.65 441.66,-54.43 480,-39 488.33,-35.65 497.25,-32.66 506.19,-30.03"/>
<polygon fill="#63b8ff" stroke="#63b8ff" points="374.09,-93.01 367.72,-101.47 377.98,-98.83 374.09,-93.01"/>
</a>
</g>
</g>
<!-- Node2 -->
<g id="Node000002" class="node">
<title>Node2</title>
<g id="a_Node000002"><a xlink:title=" ">
<polygon fill="white" stroke="#666666" points="226,-120.5 122,-120.5 122,-101.5 226,-101.5 226,-120.5"/>
<text text-anchor="middle" x="174" y="-108.5" font-family="Helvetica,sans-Serif" font-size="10.00">std::runtime_error</text>
</a>
</g>
</g>
<!-- Node2&#45;&gt;Node1 -->
<g id="edge1_Node000001_Node000002" class="edge">
<title>Node2&#45;&gt;Node1</title>
<g id="a_edge1_Node000001_Node000002"><a xlink:title=" ">
<path fill="none" stroke="#63b8ff" d="M236.43,-111C244.68,-111 253.28,-111 261.89,-111"/>
<polygon fill="#63b8ff" stroke="#63b8ff" points="236.2,-107.5 226.2,-111 236.2,-114.5 236.2,-107.5"/>
</a>
</g>
</g>
<!-- Node3 -->
<g id="Node000003" class="node">
<title>Node3</title>
<g id="a_Node000003"><a xlink:title=" ">
<polygon fill="white" stroke="#666666" points="86,-120.5 0,-120.5 0,-101.5 86,-101.5 86,-120.5"/>
<text text-anchor="middle" x="43" y="-108.5" font-family="Helvetica,sans-Serif" font-size="10.00">std::exception</text>
</a>
</g>
</g>
<!-- Node3&#45;&gt;Node2 -->
<g id="edge2_Node000002_Node000003" class="edge">
<title>Node3&#45;&gt;Node2</title>
<g id="a_edge2_Node000002_Node000003"><a xlink:title=" ">
<path fill="none" stroke="#63b8ff" d="M96.27,-111C104.65,-111 113.31,-111 121.66,-111"/>
<polygon fill="#63b8ff" stroke="#63b8ff" points="96.24,-107.5 86.24,-111 96.24,-114.5 96.24,-107.5"/>
</a>
</g>
</g>
</g>
</svg>
