<?xml version="1.0" encoding="UTF-8" standalone="no"?>
<!DOCTYPE svg PUBLIC "-//W3C//DTD SVG 1.1//EN"
 "http://www.w3.org/Graphics/SVG/1.1/DTD/svg11.dtd">
<!-- Generated by graphviz version 2.43.0 (0)
 -->
<!-- Title: clients::dns::ResolverException Pages: 1 -->
<svg width="617pt" height="134pt"
 viewBox="0.00 0.00 617.00 134.00" xmlns="http://www.w3.org/2000/svg" xmlns:xlink="http://www.w3.org/1999/xlink">
<g id="graph0" class="graph" transform="scale(1 1) rotate(0) translate(4 130)">
<title>clients::dns::ResolverException</title>
<!-- Node1 -->
<g id="Node000001" class="node">
<title>Node1</title>
<g id="a_Node000001"><a xlink:title="Generic resolver error.">
<polygon fill="#999999" stroke="#666666" points="431,-72.5 262,-72.5 262,-53.5 431,-53.5 431,-72.5"/>
<text text-anchor="middle" x="346.5" y="-60.5" font-family="Helvetica,sans-Serif" font-size="10.00">clients::dns::ResolverException</text>
</a>
</g>
</g>
<!-- Node4 -->
<g id="Node000004" class="node">
<title>Node4</title>
<g id="a_Node000004"><a xlink:href="../../dc/d1a/classclients_1_1dns_1_1InvalidConfigException.html" target="_top" xlink:title="Configuration error.">
<polygon fill="white" stroke="#666666" points="609,-126 467,-126 467,-96 609,-96 609,-126"/>
<text text-anchor="start" x="475" y="-114" font-family="Helvetica,sans-Serif" font-size="10.00">clients::dns::InvalidConfig</text>
<text text-anchor="middle" x="538" y="-103" font-family="Helvetica,sans-Serif" font-size="10.00">Exception</text>
</a>
</g>
</g>
<!-- Node1&#45;&gt;Node4 -->
<g id="edge3_Node000001_Node000004" class="edge">
<title>Node1&#45;&gt;Node4</title>
<g id="a_edge3_Node000001_Node000004"><a xlink:title=" ">
<path fill="none" stroke="#63b8ff" d="M395.35,-75.12C420.3,-81.44 451.06,-89.23 477.53,-95.94"/>
<polygon fill="#63b8ff" stroke="#63b8ff" points="395.95,-71.66 385.39,-72.6 394.23,-78.45 395.95,-71.66"/>
</a>
</g>
</g>
<!-- Node5 -->
<g id="Node000005" class="node">
<title>Node5</title>
<g id="a_Node000005"><a xlink:href="../../dd/d02/classclients_1_1dns_1_1NotResolvedException.html" target="_top" xlink:title="Host resolution error.">
<polygon fill="white" stroke="#666666" points="608,-78 468,-78 468,-48 608,-48 608,-78"/>
<text text-anchor="start" x="476" y="-66" font-family="Helvetica,sans-Serif" font-size="10.00">clients::dns::NotResolved</text>
<text text-anchor="middle" x="538" y="-55" font-family="Helvetica,sans-Serif" font-size="10.00">Exception</text>
</a>
</g>
</g>
<!-- Node1&#45;&gt;Node5 -->
<g id="edge4_Node000001_Node000005" class="edge">
<title>Node1&#45;&gt;Node5</title>
<g id="a_edge4_Node000001_Node000005"><a xlink:title=" ">
<path fill="none" stroke="#63b8ff" d="M441.29,-63C450.28,-63 459.28,-63 467.97,-63"/>
<polygon fill="#63b8ff" stroke="#63b8ff" points="441.17,-59.5 431.17,-63 441.17,-66.5 441.17,-59.5"/>
</a>
</g>
</g>
<!-- Node6 -->
<g id="Node000006" class="node">
<title>Node6</title>
<g id="a_Node000006"><a xlink:href="../../d7/da8/classclients_1_1dns_1_1UnsupportedDomainException.html" target="_top" xlink:title="Unsupported domain error.">
<polygon fill="white" stroke="#666666" points="608,-30 468,-30 468,0 608,0 608,-30"/>
<text text-anchor="start" x="476" y="-18" font-family="Helvetica,sans-Serif" font-size="10.00">clients::dns::Unsupported</text>
<text text-anchor="middle" x="538" y="-7" font-family="Helvetica,sans-Serif" font-size="10.00">DomainException</text>
</a>
</g>
</g>
<!-- Node1&#45;&gt;Node6 -->
<g id="edge5_Node000001_Node000006" class="edge">
<title>Node1&#45;&gt;Node6</title>
<g id="a_edge5_Node000001_Node000006"><a xlink:title=" ">
<path fill="none" stroke="#63b8ff" d="M395.35,-50.88C420.3,-44.56 451.06,-36.77 477.53,-30.06"/>
<polygon fill="#63b8ff" stroke="#63b8ff" points="394.23,-47.55 385.39,-53.4 395.95,-54.34 394.23,-47.55"/>
</a>
</g>
</g>
<!-- Node2 -->
<g id="Node000002" class="node">
<title>Node2</title>
<g id="a_Node000002"><a xlink:title=" ">
<polygon fill="white" stroke="#666666" points="226,-72.5 122,-72.5 122,-53.5 226,-53.5 226,-72.5"/>
<text text-anchor="middle" x="174" y="-60.5" font-family="Helvetica,sans-Serif" font-size="10.00">std::runtime_error</text>
</a>
</g>
</g>
<!-- Node2&#45;&gt;Node1 -->
<g id="edge1_Node000001_Node000002" class="edge">
<title>Node2&#45;&gt;Node1</title>
<g id="a_edge1_Node000001_Node000002"><a xlink:title=" ">
<path fill="none" stroke="#63b8ff" d="M236.43,-63C244.7,-63 253.29,-63 261.86,-63"/>
<polygon fill="#63b8ff" stroke="#63b8ff" points="236.16,-59.5 226.16,-63 236.16,-66.5 236.16,-59.5"/>
</a>
</g>
</g>
<!-- Node3 -->
<g id="Node000003" class="node">
<title>Node3</title>
<g id="a_Node000003"><a xlink:title=" ">
<polygon fill="white" stroke="#666666" points="86,-72.5 0,-72.5 0,-53.5 86,-53.5 86,-72.5"/>
<text text-anchor="middle" x="43" y="-60.5" font-family="Helvetica,sans-Serif" font-size="10.00">std::exception</text>
</a>
</g>
</g>
<!-- Node3&#45;&gt;Node2 -->
<g id="edge2_Node000002_Node000003" class="edge">
<title>Node3&#45;&gt;Node2</title>
<g id="a_edge2_Node000002_Node000003"><a xlink:title=" ">
<path fill="none" stroke="#63b8ff" d="M96.27,-63C104.65,-63 113.31,-63 121.66,-63"/>
<polygon fill="#63b8ff" stroke="#63b8ff" points="96.24,-59.5 86.24,-63 96.24,-66.5 96.24,-59.5"/>
</a>
</g>
</g>
</g>
</svg>
