<?xml version="1.0" encoding="UTF-8" standalone="no"?>
<!DOCTYPE svg PUBLIC "-//W3C//DTD SVG 1.1//EN"
 "http://www.w3.org/Graphics/SVG/1.1/DTD/svg11.dtd">
<!-- Generated by graphviz version 2.43.0 (0)
 -->
<!-- Title: userver/ugrpc/server/middlewares/base.hpp Pages: 1 -->
<svg width="841pt" height="115pt"
 viewBox="0.00 0.00 840.50 115.00" xmlns="http://www.w3.org/2000/svg" xmlns:xlink="http://www.w3.org/1999/xlink">
<g id="graph0" class="graph" transform="scale(1 1) rotate(0) translate(4 111)">
<title>userver/ugrpc/server/middlewares/base.hpp</title>
<!-- Node1 -->
<g id="Node000001" class="node">
<title>Node1</title>
<g id="a_Node000001"><a xlink:title="Base class for server gRPC middleware.">
<polygon fill="#999999" stroke="#666666" points="448,-107 318,-107 318,-77 448,-77 448,-107"/>
<text text-anchor="start" x="326" y="-95" font-family="Helvetica,sans-Serif" font-size="10.00">userver/ugrpc/server</text>
<text text-anchor="middle" x="383" y="-84" font-family="Helvetica,sans-Serif" font-size="10.00">/middlewares/base.hpp</text>
</a>
</g>
</g>
<!-- Node2 -->
<g id="Node000002" class="node">
<title>Node2</title>
<g id="a_Node000002"><a xlink:href="../../d0/d46/grpc_2include_2userver_2ugrpc_2server_2middlewares_2baggage_2component_8hpp.html" target="_top" xlink:title="ugrpc::server::middlewares::baggage::Component">
<polygon fill="white" stroke="#666666" points="128,-41 0,-41 0,0 128,0 128,-41"/>
<text text-anchor="start" x="8" y="-29" font-family="Helvetica,sans-Serif" font-size="10.00">userver/ugrpc/server</text>
<text text-anchor="start" x="8" y="-18" font-family="Helvetica,sans-Serif" font-size="10.00">/middlewares/baggage</text>
<text text-anchor="middle" x="64" y="-7" font-family="Helvetica,sans-Serif" font-size="10.00">/component.hpp</text>
</a>
</g>
</g>
<!-- Node1&#45;&gt;Node2 -->
<g id="edge1_Node000001_Node000002" class="edge">
<title>Node1&#45;&gt;Node2</title>
<g id="a_edge1_Node000001_Node000002"><a xlink:title=" ">
<path fill="none" stroke="#63b8ff" d="M307.91,-76.96C259.06,-67.53 194.06,-54.41 137,-41 134.06,-40.31 131.06,-39.59 128.04,-38.84"/>
<polygon fill="#63b8ff" stroke="#63b8ff" points="307.28,-80.4 317.76,-78.86 308.61,-73.53 307.28,-80.4"/>
</a>
</g>
</g>
<!-- Node3 -->
<g id="Node000003" class="node">
<title>Node3</title>
<g id="a_Node000003"><a xlink:href="../../d7/d59/grpc_2include_2userver_2ugrpc_2server_2middlewares_2congestion__control_2component_8hpp.html" target="_top" xlink:title="ugrpc::server::middlewares::congestion_control::Component">
<polygon fill="white" stroke="#666666" points="285.5,-41 146.5,-41 146.5,0 285.5,0 285.5,-41"/>
<text text-anchor="start" x="154.5" y="-29" font-family="Helvetica,sans-Serif" font-size="10.00">userver/ugrpc/server</text>
<text text-anchor="start" x="154.5" y="-18" font-family="Helvetica,sans-Serif" font-size="10.00">/middlewares/congestion</text>
<text text-anchor="middle" x="216" y="-7" font-family="Helvetica,sans-Serif" font-size="10.00">_control/component.hpp</text>
</a>
</g>
</g>
<!-- Node1&#45;&gt;Node3 -->
<g id="edge2_Node000001_Node000003" class="edge">
<title>Node1&#45;&gt;Node3</title>
<g id="a_edge2_Node000001_Node000003"><a xlink:title=" ">
<path fill="none" stroke="#63b8ff" d="M339.83,-73.03C316.3,-63.24 287.14,-51.11 263.03,-41.07"/>
<polygon fill="#63b8ff" stroke="#63b8ff" points="338.63,-76.32 349.21,-76.94 341.32,-69.86 338.63,-76.32"/>
</a>
</g>
</g>
<!-- Node4 -->
<g id="Node000004" class="node">
<title>Node4</title>
<g id="a_Node000004"><a xlink:href="../../dc/dbf/grpc_2include_2userver_2ugrpc_2server_2middlewares_2deadline__propagation_2component_8hpp.html" target="_top" xlink:title="ugrpc::server::middlewares::deadline_propagation::Component">
<polygon fill="white" stroke="#666666" points="462.5,-41 303.5,-41 303.5,0 462.5,0 462.5,-41"/>
<text text-anchor="start" x="311.5" y="-29" font-family="Helvetica,sans-Serif" font-size="10.00">userver/ugrpc/server</text>
<text text-anchor="start" x="311.5" y="-18" font-family="Helvetica,sans-Serif" font-size="10.00">/middlewares/deadline</text>
<text text-anchor="middle" x="383" y="-7" font-family="Helvetica,sans-Serif" font-size="10.00">_propagation/component.hpp</text>
</a>
</g>
</g>
<!-- Node1&#45;&gt;Node4 -->
<g id="edge3_Node000001_Node000004" class="edge">
<title>Node1&#45;&gt;Node4</title>
<g id="a_edge3_Node000001_Node000004"><a xlink:title=" ">
<path fill="none" stroke="#63b8ff" d="M383,-66.91C383,-58.47 383,-49.1 383,-41.07"/>
<polygon fill="#63b8ff" stroke="#63b8ff" points="379.5,-66.94 383,-76.94 386.5,-66.94 379.5,-66.94"/>
</a>
</g>
</g>
<!-- Node5 -->
<g id="Node000005" class="node">
<title>Node5</title>
<g id="a_Node000005"><a xlink:href="../../d2/dc5/grpc_2include_2userver_2ugrpc_2server_2middlewares_2headers__propagator_2component_8hpp.html" target="_top" xlink:title="ugrpc::server::middlewares::headers_propagator::Component">
<polygon fill="white" stroke="#666666" points="635,-41 481,-41 481,0 635,0 635,-41"/>
<text text-anchor="start" x="489" y="-29" font-family="Helvetica,sans-Serif" font-size="10.00">userver/ugrpc/server</text>
<text text-anchor="start" x="489" y="-18" font-family="Helvetica,sans-Serif" font-size="10.00">/middlewares/headers</text>
<text text-anchor="middle" x="558" y="-7" font-family="Helvetica,sans-Serif" font-size="10.00">_propagator/component.hpp</text>
</a>
</g>
</g>
<!-- Node1&#45;&gt;Node5 -->
<g id="edge4_Node000001_Node000005" class="edge">
<title>Node1&#45;&gt;Node5</title>
<g id="a_edge4_Node000001_Node000005"><a xlink:title=" ">
<path fill="none" stroke="#63b8ff" d="M427.91,-73.16C452.63,-63.35 483.34,-51.15 508.71,-41.07"/>
<polygon fill="#63b8ff" stroke="#63b8ff" points="426.42,-69.99 418.41,-76.94 429,-76.5 426.42,-69.99"/>
</a>
</g>
</g>
<!-- Node6 -->
<g id="Node000006" class="node">
<title>Node6</title>
<g id="a_Node000006"><a xlink:href="../../dd/d14/grpc_2include_2userver_2ugrpc_2server_2middlewares_2log_2component_8hpp.html" target="_top" xlink:title="Component for gRPC server logging.">
<polygon fill="white" stroke="#666666" points="832.5,-35.5 653.5,-35.5 653.5,-5.5 832.5,-5.5 832.5,-35.5"/>
<text text-anchor="start" x="661.5" y="-23.5" font-family="Helvetica,sans-Serif" font-size="10.00">userver/ugrpc/server</text>
<text text-anchor="middle" x="743" y="-12.5" font-family="Helvetica,sans-Serif" font-size="10.00">/middlewares/log/component.hpp</text>
</a>
</g>
</g>
<!-- Node1&#45;&gt;Node6 -->
<g id="edge5_Node000001_Node000006" class="edge">
<title>Node1&#45;&gt;Node6</title>
<g id="a_edge5_Node000001_Node000006"><a xlink:title=" ">
<path fill="none" stroke="#63b8ff" d="M458.02,-76.73C510.2,-66.79 581.35,-53.17 644,-41 653.03,-39.25 662.52,-37.39 671.9,-35.55"/>
<polygon fill="#63b8ff" stroke="#63b8ff" points="457.35,-73.3 448.18,-78.61 458.66,-80.18 457.35,-73.3"/>
</a>
</g>
</g>
</g>
</svg>
