<?xml version="1.0" encoding="UTF-8" standalone="no"?>
<!DOCTYPE svg PUBLIC "-//W3C//DTD SVG 1.1//EN"
 "http://www.w3.org/Graphics/SVG/1.1/DTD/svg11.dtd">
<!-- Generated by graphviz version 2.43.0 (0)
 -->
<!-- Title: userver/decimal64/format_options.hpp Pages: 1 -->
<svg width="1282pt" height="676pt"
 viewBox="0.00 0.00 1281.73 676.00" xmlns="http://www.w3.org/2000/svg" xmlns:xlink="http://www.w3.org/1999/xlink">
<g id="graph0" class="graph" transform="scale(1 1) rotate(0) translate(4 672)">
<title>userver/decimal64/format_options.hpp</title>
<!-- Node1 -->
<g id="Node000001" class="node">
<title>Node1</title>
<g id="a_Node000001"><a xlink:title="Structure storing format options for decimal.">
<polygon fill="#999999" stroke="#666666" points="477,-668 334,-668 334,-638 477,-638 477,-668"/>
<text text-anchor="start" x="342" y="-656" font-family="Helvetica,sans-Serif" font-size="10.00">userver/decimal64/format</text>
<text text-anchor="middle" x="405.5" y="-645" font-family="Helvetica,sans-Serif" font-size="10.00">_options.hpp</text>
</a>
</g>
</g>
<!-- Node2 -->
<g id="Node000002" class="node">
<title>Node2</title>
<g id="a_Node000002"><a xlink:href="../../d8/ded/universal_2include_2userver_2decimal64_2decimal64_8hpp.html" target="_top" xlink:title="Decimal data type for fixed&#45;point arithmetic.">
<polygon fill="white" stroke="#666666" points="496.5,-602 314.5,-602 314.5,-583 496.5,-583 496.5,-602"/>
<text text-anchor="middle" x="405.5" y="-590" font-family="Helvetica,sans-Serif" font-size="10.00">userver/decimal64/decimal64.hpp</text>
</a>
</g>
</g>
<!-- Node1&#45;&gt;Node2 -->
<g id="edge1_Node000001_Node000002" class="edge">
<title>Node1&#45;&gt;Node2</title>
<g id="a_edge1_Node000001_Node000002"><a xlink:title=" ">
<path fill="none" stroke="#63b8ff" d="M405.5,-627.75C405.5,-618.72 405.5,-609.03 405.5,-602.27"/>
<polygon fill="#63b8ff" stroke="#63b8ff" points="402,-627.84 405.5,-637.84 409,-627.84 402,-627.84"/>
</a>
</g>
</g>
<!-- Node3 -->
<g id="Node000003" class="node">
<title>Node3</title>
<g id="a_Node000003"><a xlink:href="../../d8/def/decimal__binder_8hpp_source.html" target="_top" xlink:title=" ">
<polygon fill="white" stroke="#666666" points="398.5,-547 246.5,-547 246.5,-517 398.5,-517 398.5,-547"/>
<text text-anchor="start" x="254.5" y="-535" font-family="Helvetica,sans-Serif" font-size="10.00">userver/storages/mysql</text>
<text text-anchor="middle" x="322.5" y="-524" font-family="Helvetica,sans-Serif" font-size="10.00">/impl/io/decimal_binder.hpp</text>
</a>
</g>
</g>
<!-- Node2&#45;&gt;Node3 -->
<g id="edge2_Node000002_Node000003" class="edge">
<title>Node2&#45;&gt;Node3</title>
<g id="a_edge2_Node000002_Node000003"><a xlink:title=" ">
<path fill="none" stroke="#63b8ff" d="M384.97,-577.03C372.02,-567.9 355.38,-556.17 342.53,-547.11"/>
<polygon fill="#63b8ff" stroke="#63b8ff" points="383.06,-579.97 393.25,-582.87 387.1,-574.25 383.06,-579.97"/>
</a>
</g>
</g>
<!-- Node15 -->
<g id="Node000015" class="node">
<title>Node15</title>
<g id="a_Node000015"><a xlink:href="../../df/dbe/postgresql_2include_2userver_2storages_2postgres_2io_2decimal64_8hpp.html" target="_top" xlink:title="decimal64::Decimal I/O support">
<polygon fill="white" stroke="#666666" points="563,-547 420,-547 420,-517 563,-517 563,-547"/>
<text text-anchor="start" x="428" y="-535" font-family="Helvetica,sans-Serif" font-size="10.00">userver/storages/postgres</text>
<text text-anchor="middle" x="491.5" y="-524" font-family="Helvetica,sans-Serif" font-size="10.00">/io/decimal64.hpp</text>
</a>
</g>
</g>
<!-- Node2&#45;&gt;Node15 -->
<g id="edge21_Node000002_Node000015" class="edge">
<title>Node2&#45;&gt;Node15</title>
<g id="a_edge21_Node000002_Node000015"><a xlink:title=" ">
<path fill="none" stroke="#63b8ff" d="M426.77,-577.03C440.19,-567.9 457.43,-556.17 470.75,-547.11"/>
<polygon fill="#63b8ff" stroke="#63b8ff" points="424.49,-574.35 418.19,-582.87 428.43,-580.14 424.49,-574.35"/>
</a>
</g>
</g>
<!-- Node4 -->
<g id="Node000004" class="node">
<title>Node4</title>
<g id="a_Node000004"><a xlink:href="../../d8/d1a/binder__declarations_8hpp_source.html" target="_top" xlink:title=" ">
<polygon fill="white" stroke="#666666" points="403,-481 230,-481 230,-451 403,-451 403,-481"/>
<text text-anchor="start" x="238" y="-469" font-family="Helvetica,sans-Serif" font-size="10.00">userver/storages/mysql</text>
<text text-anchor="middle" x="316.5" y="-458" font-family="Helvetica,sans-Serif" font-size="10.00">/impl/io/binder_declarations.hpp</text>
</a>
</g>
</g>
<!-- Node3&#45;&gt;Node4 -->
<g id="edge3_Node000003_Node000004" class="edge">
<title>Node3&#45;&gt;Node4</title>
<g id="a_edge3_Node000003_Node000004"><a xlink:title=" ">
<path fill="none" stroke="#63b8ff" d="M320.23,-506.83C319.42,-498.17 318.53,-488.7 317.83,-481.16"/>
<polygon fill="#63b8ff" stroke="#63b8ff" points="316.75,-507.17 321.17,-516.8 323.72,-506.51 316.75,-507.17"/>
</a>
</g>
</g>
<!-- Node5 -->
<g id="Node000005" class="node">
<title>Node5</title>
<g id="a_Node000005"><a xlink:href="../../d6/d2d/insert__binder_8hpp_source.html" target="_top" xlink:title=" ">
<polygon fill="white" stroke="#666666" points="307.5,-415 167.5,-415 167.5,-385 307.5,-385 307.5,-415"/>
<text text-anchor="start" x="175.5" y="-403" font-family="Helvetica,sans-Serif" font-size="10.00">userver/storages/mysql</text>
<text text-anchor="middle" x="237.5" y="-392" font-family="Helvetica,sans-Serif" font-size="10.00">/impl/io/insert_binder.hpp</text>
</a>
</g>
</g>
<!-- Node4&#45;&gt;Node5 -->
<g id="edge4_Node000004_Node000005" class="edge">
<title>Node4&#45;&gt;Node5</title>
<g id="a_edge4_Node000004_Node000005"><a xlink:title=" ">
<path fill="none" stroke="#63b8ff" d="M291.17,-444.48C279.36,-434.91 265.61,-423.77 254.98,-415.16"/>
<polygon fill="#63b8ff" stroke="#63b8ff" points="288.99,-447.22 298.97,-450.8 293.4,-441.78 288.99,-447.22"/>
</a>
</g>
</g>
<!-- Node10 -->
<g id="Node000010" class="node">
<title>Node10</title>
<g id="a_Node000010"><a xlink:href="../../da/d3c/params__binder_8hpp_source.html" target="_top" xlink:title=" ">
<polygon fill="white" stroke="#666666" points="149,-415 0,-415 0,-385 149,-385 149,-415"/>
<text text-anchor="start" x="8" y="-403" font-family="Helvetica,sans-Serif" font-size="10.00">userver/storages/mysql</text>
<text text-anchor="middle" x="74.5" y="-392" font-family="Helvetica,sans-Serif" font-size="10.00">/impl/io/params_binder.hpp</text>
</a>
</g>
</g>
<!-- Node4&#45;&gt;Node10 -->
<g id="edge10_Node000004_Node000010" class="edge">
<title>Node4&#45;&gt;Node10</title>
<g id="a_edge10_Node000004_Node000010"><a xlink:title=" ">
<path fill="none" stroke="#63b8ff" d="M253.68,-448.39C214.5,-438.03 164.65,-424.84 127.48,-415.01"/>
<polygon fill="#63b8ff" stroke="#63b8ff" points="252.83,-451.78 263.39,-450.95 254.62,-445.01 252.83,-451.78"/>
</a>
</g>
</g>
<!-- Node11 -->
<g id="Node000011" class="node">
<title>Node11</title>
<g id="a_Node000011"><a xlink:href="../../d3/d13/result__binder_8hpp_source.html" target="_top" xlink:title=" ">
<polygon fill="white" stroke="#666666" points="465.5,-415 325.5,-415 325.5,-385 465.5,-385 465.5,-415"/>
<text text-anchor="start" x="333.5" y="-403" font-family="Helvetica,sans-Serif" font-size="10.00">userver/storages/mysql</text>
<text text-anchor="middle" x="395.5" y="-392" font-family="Helvetica,sans-Serif" font-size="10.00">/impl/io/result_binder.hpp</text>
</a>
</g>
</g>
<!-- Node4&#45;&gt;Node11 -->
<g id="edge12_Node000004_Node000011" class="edge">
<title>Node4&#45;&gt;Node11</title>
<g id="a_edge12_Node000004_Node000011"><a xlink:title=" ">
<path fill="none" stroke="#63b8ff" d="M341.83,-444.48C353.64,-434.91 367.39,-423.77 378.02,-415.16"/>
<polygon fill="#63b8ff" stroke="#63b8ff" points="339.6,-441.78 334.03,-450.8 344.01,-447.22 339.6,-441.78"/>
</a>
</g>
</g>
<!-- Node6 -->
<g id="Node000006" class="node">
<title>Node6</title>
<g id="a_Node000006"><a xlink:href="../../d7/d43/bind__helper_8hpp_source.html" target="_top" xlink:title=" ">
<polygon fill="white" stroke="#666666" points="215,-217 84,-217 84,-187 215,-187 215,-217"/>
<text text-anchor="start" x="92" y="-205" font-family="Helvetica,sans-Serif" font-size="10.00">userver/storages/mysql</text>
<text text-anchor="middle" x="149.5" y="-194" font-family="Helvetica,sans-Serif" font-size="10.00">/impl/bind_helper.hpp</text>
</a>
</g>
</g>
<!-- Node5&#45;&gt;Node6 -->
<g id="edge5_Node000005_Node000006" class="edge">
<title>Node5&#45;&gt;Node6</title>
<g id="a_edge5_Node000005_Node000006"><a xlink:title=" ">
<path fill="none" stroke="#63b8ff" d="M227.03,-375.68C208.6,-334.64 170.91,-250.7 155.89,-217.23"/>
<polygon fill="#63b8ff" stroke="#63b8ff" points="223.88,-377.22 231.17,-384.9 230.27,-374.35 223.88,-377.22"/>
</a>
</g>
</g>
<!-- Node7 -->
<g id="Node000007" class="node">
<title>Node7</title>
<g id="a_Node000007"><a xlink:href="../../d0/d3d/mysql_2include_2userver_2storages_2mysql_2cluster_8hpp.html" target="_top" xlink:title="Client interface for a cluster of MySQL servers. Usually retrieved from components::MySQL.">
<polygon fill="white" stroke="#666666" points="403,-85 272,-85 272,-55 403,-55 403,-85"/>
<text text-anchor="start" x="280" y="-73" font-family="Helvetica,sans-Serif" font-size="10.00">userver/storages/mysql</text>
<text text-anchor="middle" x="337.5" y="-62" font-family="Helvetica,sans-Serif" font-size="10.00">/cluster.hpp</text>
</a>
</g>
</g>
<!-- Node6&#45;&gt;Node7 -->
<g id="edge6_Node000006_Node000007" class="edge">
<title>Node6&#45;&gt;Node7</title>
<g id="a_edge6_Node000006_Node000007"><a xlink:title=" ">
<path fill="none" stroke="#63b8ff" d="M167.8,-178.81C182.98,-161.44 205.83,-137.52 229.5,-121 250.85,-106.1 277.34,-93.75 298.75,-85.06"/>
<polygon fill="#63b8ff" stroke="#63b8ff" points="164.84,-176.89 160.99,-186.76 170.16,-181.44 164.84,-176.89"/>
</a>
</g>
</g>
<!-- Node9 -->
<g id="Node000009" class="node">
<title>Node9</title>
<g id="a_Node000009"><a xlink:href="../../de/d48/mysql_2include_2userver_2storages_2mysql_2transaction_8hpp.html" target="_top" xlink:title=" ">
<polygon fill="white" stroke="#666666" points="403,-151 272,-151 272,-121 403,-121 403,-151"/>
<text text-anchor="start" x="280" y="-139" font-family="Helvetica,sans-Serif" font-size="10.00">userver/storages/mysql</text>
<text text-anchor="middle" x="337.5" y="-128" font-family="Helvetica,sans-Serif" font-size="10.00">/transaction.hpp</text>
</a>
</g>
</g>
<!-- Node6&#45;&gt;Node9 -->
<g id="edge8_Node000006_Node000009" class="edge">
<title>Node6&#45;&gt;Node9</title>
<g id="a_edge8_Node000006_Node000009"><a xlink:title=" ">
<path fill="none" stroke="#63b8ff" d="M200.25,-183.72C230.37,-173.47 268.08,-160.63 296.34,-151.01"/>
<polygon fill="#63b8ff" stroke="#63b8ff" points="199.1,-180.42 190.76,-186.95 201.35,-187.05 199.1,-180.42"/>
</a>
</g>
</g>
<!-- Node8 -->
<g id="Node000008" class="node">
<title>Node8</title>
<g id="a_Node000008"><a xlink:href="../../dd/db6/mysql_8hpp.html" target="_top" xlink:title=" ">
<polygon fill="white" stroke="#666666" points="479.5,-19 327.5,-19 327.5,0 479.5,0 479.5,-19"/>
<text text-anchor="middle" x="403.5" y="-7" font-family="Helvetica,sans-Serif" font-size="10.00">userver/storages/mysql.hpp</text>
</a>
</g>
</g>
<!-- Node7&#45;&gt;Node8 -->
<g id="edge7_Node000007_Node000008" class="edge">
<title>Node7&#45;&gt;Node8</title>
<g id="a_edge7_Node000007_Node000008"><a xlink:title=" ">
<path fill="none" stroke="#63b8ff" d="M361.24,-47.96C372.39,-38.07 385.07,-26.83 393.61,-19.27"/>
<polygon fill="#63b8ff" stroke="#63b8ff" points="358.64,-45.59 353.48,-54.84 363.28,-50.82 358.64,-45.59"/>
</a>
</g>
</g>
<!-- Node9&#45;&gt;Node7 -->
<g id="edge9_Node000009_Node000007" class="edge">
<title>Node9&#45;&gt;Node7</title>
<g id="a_edge9_Node000009_Node000007"><a xlink:title=" ">
<path fill="none" stroke="#63b8ff" d="M337.5,-110.54C337.5,-101.96 337.5,-92.61 337.5,-85.16"/>
<polygon fill="#63b8ff" stroke="#63b8ff" points="334,-110.8 337.5,-120.8 341,-110.8 334,-110.8"/>
</a>
</g>
</g>
<!-- Node10&#45;&gt;Node6 -->
<g id="edge11_Node000010_Node000006" class="edge">
<title>Node10&#45;&gt;Node6</title>
<g id="a_edge11_Node000010_Node000006"><a xlink:title=" ">
<path fill="none" stroke="#63b8ff" d="M83.52,-375.42C99.26,-334.29 131.28,-250.63 144.05,-217.23"/>
<polygon fill="#63b8ff" stroke="#63b8ff" points="80.2,-374.31 79.89,-384.9 86.74,-376.82 80.2,-374.31"/>
</a>
</g>
</g>
<!-- Node12 -->
<g id="Node000012" class="node">
<title>Node12</title>
<g id="a_Node000012"><a xlink:href="../../d3/d31/extractor_8hpp_source.html" target="_top" xlink:title=" ">
<polygon fill="white" stroke="#666666" points="403,-349 272,-349 272,-319 403,-319 403,-349"/>
<text text-anchor="start" x="280" y="-337" font-family="Helvetica,sans-Serif" font-size="10.00">userver/storages/mysql</text>
<text text-anchor="middle" x="337.5" y="-326" font-family="Helvetica,sans-Serif" font-size="10.00">/impl/io/extractor.hpp</text>
</a>
</g>
</g>
<!-- Node11&#45;&gt;Node12 -->
<g id="edge13_Node000011_Node000012" class="edge">
<title>Node11&#45;&gt;Node12</title>
<g id="a_edge13_Node000011_Node000012"><a xlink:title=" ">
<path fill="none" stroke="#63b8ff" d="M375.9,-377.37C367.46,-368.06 357.84,-357.44 350.34,-349.16"/>
<polygon fill="#63b8ff" stroke="#63b8ff" points="373.32,-379.74 382.63,-384.8 378.51,-375.04 373.32,-379.74"/>
</a>
</g>
</g>
<!-- Node13 -->
<g id="Node000013" class="node">
<title>Node13</title>
<g id="a_Node000013"><a xlink:href="../../dc/d5a/statement__result__set_8hpp.html" target="_top" xlink:title=" ">
<polygon fill="white" stroke="#666666" points="409.5,-283 265.5,-283 265.5,-253 409.5,-253 409.5,-283"/>
<text text-anchor="start" x="273.5" y="-271" font-family="Helvetica,sans-Serif" font-size="10.00">userver/storages/mysql</text>
<text text-anchor="middle" x="337.5" y="-260" font-family="Helvetica,sans-Serif" font-size="10.00">/statement_result_set.hpp</text>
</a>
</g>
</g>
<!-- Node12&#45;&gt;Node13 -->
<g id="edge14_Node000012_Node000013" class="edge">
<title>Node12&#45;&gt;Node13</title>
<g id="a_edge14_Node000012_Node000013"><a xlink:title=" ">
<path fill="none" stroke="#63b8ff" d="M337.5,-308.54C337.5,-299.96 337.5,-290.61 337.5,-283.16"/>
<polygon fill="#63b8ff" stroke="#63b8ff" points="334,-308.8 337.5,-318.8 341,-308.8 334,-308.8"/>
</a>
</g>
</g>
<!-- Node13&#45;&gt;Node7 -->
<g id="edge15_Node000013_Node000007" class="edge">
<title>Node13&#45;&gt;Node7</title>
<g id="a_edge15_Node000013_Node000007"><a xlink:title=" ">
<path fill="none" stroke="#63b8ff" d="M317.6,-244.93C299.23,-222.94 273.21,-187.3 262.5,-151 258.73,-138.21 256.21,-132.76 262.5,-121 271.07,-105 287.27,-93.23 302.43,-85.15"/>
<polygon fill="#63b8ff" stroke="#63b8ff" points="315.06,-247.34 324.22,-252.66 320.38,-242.79 315.06,-247.34"/>
</a>
</g>
</g>
<!-- Node13&#45;&gt;Node9 -->
<g id="edge20_Node000013_Node000009" class="edge">
<title>Node13&#45;&gt;Node9</title>
<g id="a_edge20_Node000013_Node000009"><a xlink:title=" ">
<path fill="none" stroke="#63b8ff" d="M337.5,-242.68C337.5,-215.7 337.5,-173.11 337.5,-151.14"/>
<polygon fill="#63b8ff" stroke="#63b8ff" points="334,-242.84 337.5,-252.84 341,-242.84 334,-242.84"/>
</a>
</g>
</g>
<!-- Node14 -->
<g id="Node000014" class="node">
<title>Node14</title>
<g id="a_Node000014"><a xlink:href="../../d6/dc8/cursor__result__set_8hpp.html" target="_top" xlink:title=" ">
<polygon fill="white" stroke="#666666" points="497,-217 366,-217 366,-187 497,-187 497,-217"/>
<text text-anchor="start" x="374" y="-205" font-family="Helvetica,sans-Serif" font-size="10.00">userver/storages/mysql</text>
<text text-anchor="middle" x="431.5" y="-194" font-family="Helvetica,sans-Serif" font-size="10.00">/cursor_result_set.hpp</text>
</a>
</g>
</g>
<!-- Node13&#45;&gt;Node14 -->
<g id="edge16_Node000013_Node000014" class="edge">
<title>Node13&#45;&gt;Node14</title>
<g id="a_edge16_Node000013_Node000014"><a xlink:title=" ">
<path fill="none" stroke="#63b8ff" d="M366.83,-247.03C381.06,-237.34 397.81,-225.94 410.7,-217.16"/>
<polygon fill="#63b8ff" stroke="#63b8ff" points="364.66,-244.28 358.36,-252.8 368.6,-250.06 364.66,-244.28"/>
</a>
</g>
</g>
<!-- Node14&#45;&gt;Node7 -->
<g id="edge18_Node000014_Node000007" class="edge">
<title>Node14&#45;&gt;Node7</title>
<g id="a_edge18_Node000014_Node000007"><a xlink:title=" ">
<path fill="none" stroke="#63b8ff" d="M429.96,-176.52C427.86,-159.63 422.95,-137.35 411.5,-121 400.65,-105.5 383.34,-93.42 368.18,-85.02"/>
<polygon fill="#63b8ff" stroke="#63b8ff" points="426.5,-177.13 430.97,-186.73 433.47,-176.43 426.5,-177.13"/>
</a>
</g>
</g>
<!-- Node14&#45;&gt;Node8 -->
<g id="edge17_Node000014_Node000008" class="edge">
<title>Node14&#45;&gt;Node8</title>
<g id="a_edge17_Node000014_Node000008"><a xlink:title=" ">
<path fill="none" stroke="#63b8ff" d="M432.08,-176.93C432.25,-168.7 432.42,-159.45 432.5,-151 432.63,-137.67 434.21,-134.22 432.5,-121 427.5,-82.25 413.02,-37.7 406.61,-19.23"/>
<polygon fill="#63b8ff" stroke="#63b8ff" points="428.58,-176.92 431.86,-186.99 435.58,-177.07 428.58,-176.92"/>
</a>
</g>
</g>
<!-- Node14&#45;&gt;Node9 -->
<g id="edge19_Node000014_Node000009" class="edge">
<title>Node14&#45;&gt;Node9</title>
<g id="a_edge19_Node000014_Node000009"><a xlink:title=" ">
<path fill="none" stroke="#63b8ff" d="M402.17,-181.03C387.94,-171.34 371.19,-159.94 358.3,-151.16"/>
<polygon fill="#63b8ff" stroke="#63b8ff" points="400.4,-184.06 410.64,-186.8 404.34,-178.28 400.4,-184.06"/>
</a>
</g>
</g>
<!-- Node16 -->
<g id="Node000016" class="node">
<title>Node16</title>
<g id="a_Node000016"><a xlink:href="../../de/d7f/supported__types_8hpp_source.html" target="_top" xlink:title=" ">
<polygon fill="white" stroke="#666666" points="739,-481 596,-481 596,-451 739,-451 739,-481"/>
<text text-anchor="start" x="604" y="-469" font-family="Helvetica,sans-Serif" font-size="10.00">userver/storages/postgres</text>
<text text-anchor="middle" x="667.5" y="-458" font-family="Helvetica,sans-Serif" font-size="10.00">/io/supported_types.hpp</text>
</a>
</g>
</g>
<!-- Node15&#45;&gt;Node16 -->
<g id="edge22_Node000015_Node000016" class="edge">
<title>Node15&#45;&gt;Node16</title>
<g id="a_edge22_Node000015_Node000016"><a xlink:title=" ">
<path fill="none" stroke="#63b8ff" d="M539.74,-513.46C567.82,-503.25 602.74,-490.55 628.97,-481.01"/>
<polygon fill="#63b8ff" stroke="#63b8ff" points="538.33,-510.25 530.12,-516.95 540.72,-516.83 538.33,-510.25"/>
</a>
</g>
</g>
<!-- Node17 -->
<g id="Node000017" class="node">
<title>Node17</title>
<g id="a_Node000017"><a xlink:href="../../d2/d3f/query__parameters_8hpp_source.html" target="_top" xlink:title=" ">
<polygon fill="white" stroke="#666666" points="1078,-415 917,-415 917,-385 1078,-385 1078,-415"/>
<text text-anchor="start" x="925" y="-403" font-family="Helvetica,sans-Serif" font-size="10.00">userver/storages/postgres</text>
<text text-anchor="middle" x="997.5" y="-392" font-family="Helvetica,sans-Serif" font-size="10.00">/detail/query_parameters.hpp</text>
</a>
</g>
</g>
<!-- Node16&#45;&gt;Node17 -->
<g id="edge23_Node000016_Node000017" class="edge">
<title>Node16&#45;&gt;Node17</title>
<g id="a_edge23_Node000016_Node000017"><a xlink:title=" ">
<path fill="none" stroke="#63b8ff" d="M748.99,-449.2C802.98,-438.72 873.17,-425.11 925.18,-415.03"/>
<polygon fill="#63b8ff" stroke="#63b8ff" points="748.26,-445.77 739.11,-451.11 749.59,-452.64 748.26,-445.77"/>
</a>
</g>
</g>
<!-- Node26 -->
<g id="Node000026" class="node">
<title>Node26</title>
<g id="a_Node000026"><a xlink:href="../../de/d1d/result__set_8hpp.html" target="_top" xlink:title="Result accessors.">
<polygon fill="white" stroke="#666666" points="739,-415 596,-415 596,-385 739,-385 739,-415"/>
<text text-anchor="start" x="604" y="-403" font-family="Helvetica,sans-Serif" font-size="10.00">userver/storages/postgres</text>
<text text-anchor="middle" x="667.5" y="-392" font-family="Helvetica,sans-Serif" font-size="10.00">/result_set.hpp</text>
</a>
</g>
</g>
<!-- Node16&#45;&gt;Node26 -->
<g id="edge38_Node000016_Node000026" class="edge">
<title>Node16&#45;&gt;Node26</title>
<g id="a_edge38_Node000016_Node000026"><a xlink:title=" ">
<path fill="none" stroke="#63b8ff" d="M667.5,-440.54C667.5,-431.96 667.5,-422.61 667.5,-415.16"/>
<polygon fill="#63b8ff" stroke="#63b8ff" points="664,-440.8 667.5,-450.8 671,-440.8 664,-440.8"/>
</a>
</g>
</g>
<!-- Node18 -->
<g id="Node000018" class="node">
<title>Node18</title>
<g id="a_Node000018"><a xlink:href="../../d4/dd3/non__transaction_8hpp_source.html" target="_top" xlink:title=" ">
<polygon fill="white" stroke="#666666" points="1210,-283 1061,-283 1061,-253 1210,-253 1210,-283"/>
<text text-anchor="start" x="1069" y="-271" font-family="Helvetica,sans-Serif" font-size="10.00">userver/storages/postgres</text>
<text text-anchor="middle" x="1135.5" y="-260" font-family="Helvetica,sans-Serif" font-size="10.00">/detail/non_transaction.hpp</text>
</a>
</g>
</g>
<!-- Node17&#45;&gt;Node18 -->
<g id="edge24_Node000017_Node000018" class="edge">
<title>Node17&#45;&gt;Node18</title>
<g id="a_edge24_Node000017_Node000018"><a xlink:title=" ">
<path fill="none" stroke="#63b8ff" d="M1088.11,-394.3C1157.11,-388.59 1243.96,-376.11 1266.5,-349 1291.97,-318.36 1243.01,-296.23 1197.87,-283.11"/>
<polygon fill="#63b8ff" stroke="#63b8ff" points="1087.76,-390.81 1078.07,-395.09 1088.31,-397.79 1087.76,-390.81"/>
</a>
</g>
</g>
<!-- Node22 -->
<g id="Node000022" class="node">
<title>Node22</title>
<g id="a_Node000022"><a xlink:href="../../db/d6e/parameter__store_8hpp.html" target="_top" xlink:title="Class for dynamic PostgreSQL parameter list construction.">
<polygon fill="white" stroke="#666666" points="1257,-349 1114,-349 1114,-319 1257,-319 1257,-349"/>
<text text-anchor="start" x="1122" y="-337" font-family="Helvetica,sans-Serif" font-size="10.00">userver/storages/postgres</text>
<text text-anchor="middle" x="1185.5" y="-326" font-family="Helvetica,sans-Serif" font-size="10.00">/parameter_store.hpp</text>
</a>
</g>
</g>
<!-- Node17&#45;&gt;Node22 -->
<g id="edge28_Node000017_Node000022" class="edge">
<title>Node17&#45;&gt;Node22</title>
<g id="a_edge28_Node000017_Node000022"><a xlink:title=" ">
<path fill="none" stroke="#63b8ff" d="M1048.25,-381.72C1078.37,-371.47 1116.08,-358.63 1144.34,-349.01"/>
<polygon fill="#63b8ff" stroke="#63b8ff" points="1047.1,-378.42 1038.76,-384.95 1049.35,-385.05 1047.1,-378.42"/>
</a>
</g>
</g>
<!-- Node23 -->
<g id="Node000023" class="node">
<title>Node23</title>
<g id="a_Node000023"><a xlink:href="../../da/deb/postgresql_2include_2userver_2storages_2postgres_2transaction_8hpp.html" target="_top" xlink:title="Transactions.">
<polygon fill="white" stroke="#666666" points="895,-283 752,-283 752,-253 895,-253 895,-283"/>
<text text-anchor="start" x="760" y="-271" font-family="Helvetica,sans-Serif" font-size="10.00">userver/storages/postgres</text>
<text text-anchor="middle" x="823.5" y="-260" font-family="Helvetica,sans-Serif" font-size="10.00">/transaction.hpp</text>
</a>
</g>
</g>
<!-- Node17&#45;&gt;Node23 -->
<g id="edge37_Node000017_Node000023" class="edge">
<title>Node17&#45;&gt;Node23</title>
<g id="a_edge37_Node000017_Node000023"><a xlink:title=" ">
<path fill="none" stroke="#63b8ff" d="M1017.17,-376.89C1029.95,-359.75 1041.94,-336.11 1028.5,-319 1011.95,-297.93 947.41,-284.62 895.1,-277.07"/>
<polygon fill="#63b8ff" stroke="#63b8ff" points="1014.42,-374.72 1010.94,-384.72 1019.9,-379.07 1014.42,-374.72"/>
</a>
</g>
</g>
<!-- Node24 -->
<g id="Node000024" class="node">
<title>Node24</title>
<g id="a_Node000024"><a xlink:href="../../d2/de3/portal_8hpp_source.html" target="_top" xlink:title=" ">
<polygon fill="white" stroke="#666666" points="858,-349 715,-349 715,-319 858,-319 858,-349"/>
<text text-anchor="start" x="723" y="-337" font-family="Helvetica,sans-Serif" font-size="10.00">userver/storages/postgres</text>
<text text-anchor="middle" x="786.5" y="-326" font-family="Helvetica,sans-Serif" font-size="10.00">/portal.hpp</text>
</a>
</g>
</g>
<!-- Node17&#45;&gt;Node24 -->
<g id="edge33_Node000017_Node000024" class="edge">
<title>Node17&#45;&gt;Node24</title>
<g id="a_edge33_Node000017_Node000024"><a xlink:title=" ">
<path fill="none" stroke="#63b8ff" d="M941.42,-381.99C907.47,-371.69 864.69,-358.72 832.7,-349.01"/>
<polygon fill="#63b8ff" stroke="#63b8ff" points="940.61,-385.4 951.2,-384.95 942.64,-378.7 940.61,-385.4"/>
</a>
</g>
</g>
<!-- Node25 -->
<g id="Node000025" class="node">
<title>Node25</title>
<g id="a_Node000025"><a xlink:href="../../d8/d63/query__queue_8hpp.html" target="_top" xlink:title="An utility to execute multiple queries in a single network round&#45;trip.">
<polygon fill="white" stroke="#666666" points="1019,-349 876,-349 876,-319 1019,-319 1019,-349"/>
<text text-anchor="start" x="884" y="-337" font-family="Helvetica,sans-Serif" font-size="10.00">userver/storages/postgres</text>
<text text-anchor="middle" x="947.5" y="-326" font-family="Helvetica,sans-Serif" font-size="10.00">/query_queue.hpp</text>
</a>
</g>
</g>
<!-- Node17&#45;&gt;Node25 -->
<g id="edge35_Node000017_Node000025" class="edge">
<title>Node17&#45;&gt;Node25</title>
<g id="a_edge35_Node000017_Node000025"><a xlink:title=" ">
<path fill="none" stroke="#63b8ff" d="M980.16,-376.81C973,-367.64 964.9,-357.28 958.57,-349.16"/>
<polygon fill="#63b8ff" stroke="#63b8ff" points="977.49,-379.07 986.4,-384.8 983,-374.76 977.49,-379.07"/>
</a>
</g>
</g>
<!-- Node19 -->
<g id="Node000019" class="node">
<title>Node19</title>
<g id="a_Node000019"><a xlink:href="../../de/dd3/postgresql_2include_2userver_2storages_2postgres_2cluster_8hpp.html" target="_top" xlink:title="Interface for executing queries on a cluster of PostgreSQL servers.">
<polygon fill="white" stroke="#666666" points="1019,-217 876,-217 876,-187 1019,-187 1019,-217"/>
<text text-anchor="start" x="884" y="-205" font-family="Helvetica,sans-Serif" font-size="10.00">userver/storages/postgres</text>
<text text-anchor="middle" x="947.5" y="-194" font-family="Helvetica,sans-Serif" font-size="10.00">/cluster.hpp</text>
</a>
</g>
</g>
<!-- Node18&#45;&gt;Node19 -->
<g id="edge25_Node000018_Node000019" class="edge">
<title>Node18&#45;&gt;Node19</title>
<g id="a_edge25_Node000018_Node000019"><a xlink:title=" ">
<path fill="none" stroke="#63b8ff" d="M1084.75,-249.72C1054.63,-239.47 1016.92,-226.63 988.66,-217.01"/>
<polygon fill="#63b8ff" stroke="#63b8ff" points="1083.65,-253.05 1094.24,-252.95 1085.9,-246.42 1083.65,-253.05"/>
</a>
</g>
</g>
<!-- Node20 -->
<g id="Node000020" class="node">
<title>Node20</title>
<g id="a_Node000020"><a xlink:href="../../dc/df7/base__postgres__cache_8hpp.html" target="_top" xlink:title="Caching component for PostgreSQL. See Caching Component for PostgreSQL.">
<polygon fill="white" stroke="#666666" points="1014,-151 895,-151 895,-121 1014,-121 1014,-151"/>
<text text-anchor="start" x="903" y="-139" font-family="Helvetica,sans-Serif" font-size="10.00">userver/cache/base</text>
<text text-anchor="middle" x="954.5" y="-128" font-family="Helvetica,sans-Serif" font-size="10.00">_postgres_cache.hpp</text>
</a>
</g>
</g>
<!-- Node19&#45;&gt;Node20 -->
<g id="edge26_Node000019_Node000020" class="edge">
<title>Node19&#45;&gt;Node20</title>
<g id="a_edge26_Node000019_Node000020"><a xlink:title=" ">
<path fill="none" stroke="#63b8ff" d="M950.14,-176.83C951.09,-168.17 952.13,-158.7 952.95,-151.16"/>
<polygon fill="#63b8ff" stroke="#63b8ff" points="946.66,-176.48 949.05,-186.8 953.62,-177.24 946.66,-176.48"/>
</a>
</g>
</g>
<!-- Node21 -->
<g id="Node000021" class="node">
<title>Node21</title>
<g id="a_Node000021"><a xlink:href="../../df/d02/postgres_8hpp.html" target="_top" xlink:title=" ">
<polygon fill="white" stroke="#666666" points="877,-151 734,-151 734,-121 877,-121 877,-151"/>
<text text-anchor="start" x="742" y="-139" font-family="Helvetica,sans-Serif" font-size="10.00">userver/storages/postgres</text>
<text text-anchor="middle" x="805.5" y="-128" font-family="Helvetica,sans-Serif" font-size="10.00">/postgres.hpp</text>
</a>
</g>
</g>
<!-- Node19&#45;&gt;Node21 -->
<g id="edge27_Node000019_Node000021" class="edge">
<title>Node19&#45;&gt;Node21</title>
<g id="a_edge27_Node000019_Node000021"><a xlink:title=" ">
<path fill="none" stroke="#63b8ff" d="M907.08,-182.78C884.7,-172.69 857.29,-160.34 836.59,-151.01"/>
<polygon fill="#63b8ff" stroke="#63b8ff" points="905.78,-186.04 916.34,-186.95 908.66,-179.65 905.78,-186.04"/>
</a>
</g>
</g>
<!-- Node22&#45;&gt;Node18 -->
<g id="edge29_Node000022_Node000018" class="edge">
<title>Node22&#45;&gt;Node18</title>
<g id="a_edge29_Node000022_Node000018"><a xlink:title=" ">
<path fill="none" stroke="#63b8ff" d="M1168.16,-310.81C1161,-301.64 1152.9,-291.28 1146.57,-283.16"/>
<polygon fill="#63b8ff" stroke="#63b8ff" points="1165.49,-313.07 1174.4,-318.8 1171,-308.76 1165.49,-313.07"/>
</a>
</g>
</g>
<!-- Node22&#45;&gt;Node23 -->
<g id="edge30_Node000022_Node000023" class="edge">
<title>Node22&#45;&gt;Node23</title>
<g id="a_edge30_Node000022_Node000023"><a xlink:title=" ">
<path fill="none" stroke="#63b8ff" d="M1104.11,-318.61C1041.35,-307.51 955.37,-292.31 895.18,-281.67"/>
<polygon fill="#63b8ff" stroke="#63b8ff" points="1103.52,-322.06 1113.98,-320.36 1104.74,-315.17 1103.52,-322.06"/>
</a>
</g>
</g>
<!-- Node23&#45;&gt;Node19 -->
<g id="edge31_Node000023_Node000019" class="edge">
<title>Node23&#45;&gt;Node19</title>
<g id="a_edge31_Node000023_Node000019"><a xlink:title=" ">
<path fill="none" stroke="#63b8ff" d="M859.84,-248.24C879.2,-238.25 902.6,-226.18 920.35,-217.01"/>
<polygon fill="#63b8ff" stroke="#63b8ff" points="857.99,-245.26 850.71,-252.95 861.2,-251.48 857.99,-245.26"/>
</a>
</g>
</g>
<!-- Node23&#45;&gt;Node21 -->
<g id="edge32_Node000023_Node000021" class="edge">
<title>Node23&#45;&gt;Node21</title>
<g id="a_edge32_Node000023_Node000021"><a xlink:title=" ">
<path fill="none" stroke="#63b8ff" d="M820.13,-242.68C816.4,-215.7 810.5,-173.11 807.46,-151.14"/>
<polygon fill="#63b8ff" stroke="#63b8ff" points="816.7,-243.41 821.54,-252.84 823.63,-242.45 816.7,-243.41"/>
</a>
</g>
</g>
<!-- Node24&#45;&gt;Node23 -->
<g id="edge34_Node000024_Node000023" class="edge">
<title>Node24&#45;&gt;Node23</title>
<g id="a_edge34_Node000024_Node000023"><a xlink:title=" ">
<path fill="none" stroke="#63b8ff" d="M799.82,-309.96C805,-301 810.76,-291.03 815.31,-283.16"/>
<polygon fill="#63b8ff" stroke="#63b8ff" points="796.69,-308.39 794.71,-318.8 802.75,-311.89 796.69,-308.39"/>
</a>
</g>
</g>
<!-- Node25&#45;&gt;Node19 -->
<g id="edge36_Node000025_Node000019" class="edge">
<title>Node25&#45;&gt;Node19</title>
<g id="a_edge36_Node000025_Node000019"><a xlink:title=" ">
<path fill="none" stroke="#63b8ff" d="M947.5,-308.68C947.5,-281.7 947.5,-239.11 947.5,-217.14"/>
<polygon fill="#63b8ff" stroke="#63b8ff" points="944,-308.84 947.5,-318.84 951,-308.84 944,-308.84"/>
</a>
</g>
</g>
<!-- Node26&#45;&gt;Node18 -->
<g id="edge39_Node000026_Node000018" class="edge">
<title>Node26&#45;&gt;Node18</title>
<g id="a_edge39_Node000026_Node000018"><a xlink:title=" ">
<path fill="none" stroke="#63b8ff" d="M749.43,-399.19C824.64,-396.73 937.81,-386.26 1028.5,-349 1066.26,-333.49 1102.67,-301.49 1121.75,-283.01"/>
<polygon fill="#63b8ff" stroke="#63b8ff" points="748.97,-395.71 739.08,-399.49 749.17,-402.7 748.97,-395.71"/>
</a>
</g>
</g>
<!-- Node26&#45;&gt;Node21 -->
<g id="edge44_Node000026_Node000021" class="edge">
<title>Node26&#45;&gt;Node21</title>
<g id="a_edge44_Node000026_Node000021"><a xlink:title=" ">
<path fill="none" stroke="#63b8ff" d="M668.68,-374.63C670.13,-358.39 673.35,-336.83 680.5,-319 708.33,-249.63 766.29,-180.34 792.33,-151.26"/>
<polygon fill="#63b8ff" stroke="#63b8ff" points="665.17,-374.69 667.93,-384.92 672.15,-375.2 665.17,-374.69"/>
</a>
</g>
</g>
<!-- Node26&#45;&gt;Node23 -->
<g id="edge46_Node000026_Node000023" class="edge">
<title>Node26&#45;&gt;Node23</title>
<g id="a_edge46_Node000026_Node000023"><a xlink:title=" ">
<path fill="none" stroke="#63b8ff" d="M674.13,-375.19C680.09,-357.66 690.41,-334.31 706.5,-319 724.02,-302.33 747.96,-290.77 769.62,-283"/>
<polygon fill="#63b8ff" stroke="#63b8ff" points="670.79,-374.14 671.12,-384.73 677.47,-376.25 670.79,-374.14"/>
</a>
</g>
</g>
<!-- Node26&#45;&gt;Node24 -->
<g id="edge43_Node000026_Node000024" class="edge">
<title>Node26&#45;&gt;Node24</title>
<g id="a_edge43_Node000026_Node000024"><a xlink:title=" ">
<path fill="none" stroke="#63b8ff" d="M702.63,-380.11C721.15,-370.14 743.49,-358.13 760.45,-349.01"/>
<polygon fill="#63b8ff" stroke="#63b8ff" points="700.76,-377.14 693.62,-384.95 704.08,-383.3 700.76,-377.14"/>
</a>
</g>
</g>
<!-- Node26&#45;&gt;Node25 -->
<g id="edge45_Node000026_Node000025" class="edge">
<title>Node26&#45;&gt;Node25</title>
<g id="a_edge45_Node000026_Node000025"><a xlink:title=" ">
<path fill="none" stroke="#63b8ff" d="M738.75,-382.71C784.29,-372.31 842.74,-358.95 886.2,-349.01"/>
<polygon fill="#63b8ff" stroke="#63b8ff" points="737.92,-379.31 728.95,-384.95 739.48,-386.14 737.92,-379.31"/>
</a>
</g>
</g>
<!-- Node27 -->
<g id="Node000027" class="node">
<title>Node27</title>
<g id="a_Node000027"><a xlink:href="../../d7/d52/typed__rows_8hpp_source.html" target="_top" xlink:title=" ">
<polygon fill="white" stroke="#666666" points="564,-349 421,-349 421,-319 564,-319 564,-349"/>
<text text-anchor="start" x="429" y="-337" font-family="Helvetica,sans-Serif" font-size="10.00">userver/storages/postgres</text>
<text text-anchor="middle" x="492.5" y="-326" font-family="Helvetica,sans-Serif" font-size="10.00">/detail/typed_rows.hpp</text>
</a>
</g>
</g>
<!-- Node26&#45;&gt;Node27 -->
<g id="edge40_Node000026_Node000027" class="edge">
<title>Node26&#45;&gt;Node27</title>
<g id="a_edge40_Node000026_Node000027"><a xlink:title=" ">
<path fill="none" stroke="#63b8ff" d="M619.53,-381.46C591.61,-371.25 556.9,-358.55 530.81,-349.01"/>
<polygon fill="#63b8ff" stroke="#63b8ff" points="618.5,-384.81 629.1,-384.95 620.91,-378.23 618.5,-384.81"/>
</a>
</g>
</g>
<!-- Node28 -->
<g id="Node000028" class="node">
<title>Node28</title>
<g id="a_Node000028"><a xlink:href="../../d1/dee/typed__result__set_8hpp.html" target="_top" xlink:title="Typed PostgreSQL results.">
<polygon fill="white" stroke="#666666" points="620,-283 477,-283 477,-253 620,-253 620,-283"/>
<text text-anchor="start" x="485" y="-271" font-family="Helvetica,sans-Serif" font-size="10.00">userver/storages/postgres</text>
<text text-anchor="middle" x="548.5" y="-260" font-family="Helvetica,sans-Serif" font-size="10.00">/typed_result_set.hpp</text>
</a>
</g>
</g>
<!-- Node26&#45;&gt;Node28 -->
<g id="edge47_Node000026_Node000028" class="edge">
<title>Node26&#45;&gt;Node28</title>
<g id="a_edge47_Node000026_Node000028"><a xlink:title=" ">
<path fill="none" stroke="#63b8ff" d="M642.99,-377.84C616.18,-351.15 575.1,-305.99 557.05,-283.14"/>
<polygon fill="#63b8ff" stroke="#63b8ff" points="640.54,-380.34 650.14,-384.84 645.44,-375.34 640.54,-380.34"/>
</a>
</g>
</g>
<!-- Node27&#45;&gt;Node28 -->
<g id="edge41_Node000027_Node000028" class="edge">
<title>Node27&#45;&gt;Node28</title>
<g id="a_edge41_Node000027_Node000028"><a xlink:title=" ">
<path fill="none" stroke="#63b8ff" d="M511.67,-311.09C519.76,-301.85 528.94,-291.36 536.11,-283.16"/>
<polygon fill="#63b8ff" stroke="#63b8ff" points="508.88,-308.97 504.93,-318.8 514.15,-313.58 508.88,-308.97"/>
</a>
</g>
</g>
<!-- Node28&#45;&gt;Node26 -->
<g id="edge42_Node000028_Node000026" class="edge">
<title>Node28&#45;&gt;Node26</title>
<g id="a_edge42_Node000028_Node000026"><a xlink:title=" ">
<path fill="none" stroke="#63b8ff" d="M572.99,-290.14C599.79,-316.82 640.88,-361.98 658.94,-384.84"/>
<polygon fill="#63b8ff" stroke="#63b8ff" points="575.44,-287.64 565.85,-283.14 570.54,-292.64 575.44,-287.64"/>
</a>
</g>
</g>
</g>
</svg>
