<?xml version="1.0" encoding="UTF-8" standalone="no"?>
<!DOCTYPE svg PUBLIC "-//W3C//DTD SVG 1.1//EN"
 "http://www.w3.org/Graphics/SVG/1.1/DTD/svg11.dtd">
<!-- Generated by graphviz version 2.43.0 (0)
 -->
<!-- Title: userver/utils/trivial_map.hpp Pages: 1 -->
<svg width="877pt" height="148pt"
 viewBox="0.00 0.00 877.00 148.00" xmlns="http://www.w3.org/2000/svg" xmlns:xlink="http://www.w3.org/1999/xlink">
<g id="graph0" class="graph" transform="scale(1 1) rotate(0) translate(4 144)">
<title>userver/utils/trivial_map.hpp</title>
<!-- Node1 -->
<g id="Node000001" class="node">
<title>Node1</title>
<g id="a_Node000001"><a xlink:title="Bidirectional map|sets over string literals or other trivial types.">
<polygon fill="#999999" stroke="#666666" points="459,-140 350,-140 350,-110 459,-110 459,-140"/>
<text text-anchor="start" x="358" y="-128" font-family="Helvetica,sans-Serif" font-size="10.00">userver/utils/trivial</text>
<text text-anchor="middle" x="404.5" y="-117" font-family="Helvetica,sans-Serif" font-size="10.00">_map.hpp</text>
</a>
</g>
</g>
<!-- Node2 -->
<g id="Node000002" class="node">
<title>Node2</title>
<g id="a_Node000002"><a xlink:title=" ">
<polygon fill="#e0e0e0" stroke="#999999" points="53,-74 0,-74 0,-55 53,-55 53,-74"/>
<text text-anchor="middle" x="26.5" y="-62" font-family="Helvetica,sans-Serif" font-size="10.00">cstddef</text>
</a>
</g>
</g>
<!-- Node1&#45;&gt;Node2 -->
<g id="edge1_Node000001_Node000002" class="edge">
<title>Node1&#45;&gt;Node2</title>
<g id="a_edge1_Node000001_Node000002"><a xlink:title=" ">
<path fill="none" stroke="#63b8ff" d="M349.76,-117.48C284.08,-109.33 170.43,-94.18 63.2,-73.98"/>
<polygon fill="#63b8ff" stroke="#63b8ff" points="63.66,-70.5 53.18,-72.07 62.35,-77.38 63.66,-70.5"/>
</a>
</g>
</g>
<!-- Node3 -->
<g id="Node000003" class="node">
<title>Node3</title>
<g id="a_Node000003"><a xlink:title=" ">
<polygon fill="#e0e0e0" stroke="#999999" points="127.5,-74 71.5,-74 71.5,-55 127.5,-55 127.5,-74"/>
<text text-anchor="middle" x="99.5" y="-62" font-family="Helvetica,sans-Serif" font-size="10.00">optional</text>
</a>
</g>
</g>
<!-- Node1&#45;&gt;Node3 -->
<g id="edge2_Node000001_Node000003" class="edge">
<title>Node1&#45;&gt;Node3</title>
<g id="a_edge2_Node000001_Node000003"><a xlink:title=" ">
<path fill="none" stroke="#63b8ff" d="M349.81,-113.8C296.59,-103.82 213.45,-88.12 141.5,-74 140.23,-73.75 138.93,-73.49 137.63,-73.24"/>
<polygon fill="#63b8ff" stroke="#63b8ff" points="138,-69.74 127.5,-71.22 136.63,-76.61 138,-69.74"/>
</a>
</g>
</g>
<!-- Node4 -->
<g id="Node000004" class="node">
<title>Node4</title>
<g id="a_Node000004"><a xlink:title=" ">
<polygon fill="#e0e0e0" stroke="#999999" points="693.5,-19 649.5,-19 649.5,0 693.5,0 693.5,-19"/>
<text text-anchor="middle" x="671.5" y="-7" font-family="Helvetica,sans-Serif" font-size="10.00">string</text>
</a>
</g>
</g>
<!-- Node1&#45;&gt;Node4 -->
<g id="edge3_Node000001_Node000004" class="edge">
<title>Node1&#45;&gt;Node4</title>
<g id="a_edge3_Node000001_Node000004"><a xlink:title=" ">
<path fill="none" stroke="#63b8ff" d="M459.16,-118.01C519.8,-110.41 612.77,-95.65 640.5,-74 654.68,-62.93 662.79,-43.71 667.12,-29.31"/>
<polygon fill="#63b8ff" stroke="#63b8ff" points="670.56,-30.01 669.75,-19.45 663.79,-28.21 670.56,-30.01"/>
</a>
</g>
</g>
<!-- Node5 -->
<g id="Node000005" class="node">
<title>Node5</title>
<g id="a_Node000005"><a xlink:title=" ">
<polygon fill="#e0e0e0" stroke="#999999" points="239,-19 166,-19 166,0 239,0 239,-19"/>
<text text-anchor="middle" x="202.5" y="-7" font-family="Helvetica,sans-Serif" font-size="10.00">string_view</text>
</a>
</g>
</g>
<!-- Node1&#45;&gt;Node5 -->
<g id="edge4_Node000001_Node000005" class="edge">
<title>Node1&#45;&gt;Node5</title>
<g id="a_edge4_Node000001_Node000005"><a xlink:title=" ">
<path fill="none" stroke="#63b8ff" d="M349.83,-119.86C288.91,-113.99 196.1,-100.8 174.5,-74 163.1,-59.86 174.83,-40.36 186.41,-26.71"/>
<polygon fill="#63b8ff" stroke="#63b8ff" points="189.23,-28.81 193.38,-19.07 184.06,-24.09 189.23,-28.81"/>
</a>
</g>
</g>
<!-- Node6 -->
<g id="Node000006" class="node">
<title>Node6</title>
<g id="a_Node000006"><a xlink:title=" ">
<polygon fill="#e0e0e0" stroke="#999999" points="402,-74 333,-74 333,-55 402,-55 402,-74"/>
<text text-anchor="middle" x="367.5" y="-62" font-family="Helvetica,sans-Serif" font-size="10.00">type_traits</text>
</a>
</g>
</g>
<!-- Node1&#45;&gt;Node6 -->
<g id="edge5_Node000001_Node000006" class="edge">
<title>Node1&#45;&gt;Node6</title>
<g id="a_edge5_Node000001_Node000006"><a xlink:title=" ">
<path fill="none" stroke="#63b8ff" d="M395.54,-109.84C390.39,-101.69 383.88,-91.4 378.43,-82.78"/>
<polygon fill="#63b8ff" stroke="#63b8ff" points="381.35,-80.85 373.04,-74.27 375.43,-84.59 381.35,-80.85"/>
</a>
</g>
</g>
<!-- Node7 -->
<g id="Node000007" class="node">
<title>Node7</title>
<g id="a_Node000007"><a xlink:title=" ">
<polygon fill="#e0e0e0" stroke="#999999" points="465,-74 420,-74 420,-55 465,-55 465,-74"/>
<text text-anchor="middle" x="442.5" y="-62" font-family="Helvetica,sans-Serif" font-size="10.00">utility</text>
</a>
</g>
</g>
<!-- Node1&#45;&gt;Node7 -->
<g id="edge6_Node000001_Node000007" class="edge">
<title>Node1&#45;&gt;Node7</title>
<g id="a_edge6_Node000001_Node000007"><a xlink:title=" ">
<path fill="none" stroke="#63b8ff" d="M413.7,-109.84C418.99,-101.69 425.68,-91.4 431.28,-82.78"/>
<polygon fill="#63b8ff" stroke="#63b8ff" points="434.29,-84.56 436.81,-74.27 428.42,-80.75 434.29,-84.56"/>
</a>
</g>
</g>
<!-- Node8 -->
<g id="Node000008" class="node">
<title>Node8</title>
<g id="a_Node000008"><a xlink:title=" ">
<polygon fill="#e0e0e0" stroke="#999999" points="534,-74 483,-74 483,-55 534,-55 534,-74"/>
<text text-anchor="middle" x="508.5" y="-62" font-family="Helvetica,sans-Serif" font-size="10.00">variant</text>
</a>
</g>
</g>
<!-- Node1&#45;&gt;Node8 -->
<g id="edge7_Node000001_Node000008" class="edge">
<title>Node1&#45;&gt;Node8</title>
<g id="a_edge7_Node000001_Node000008"><a xlink:title=" ">
<path fill="none" stroke="#63b8ff" d="M429.41,-109.99C445.99,-100.66 467.66,-88.47 484.13,-79.21"/>
<polygon fill="#63b8ff" stroke="#63b8ff" points="486.14,-82.09 493.14,-74.14 482.71,-75.99 486.14,-82.09"/>
</a>
</g>
</g>
<!-- Node9 -->
<g id="Node000009" class="node">
<title>Node9</title>
<g id="a_Node000009"><a xlink:title=" ">
<polygon fill="#e0e0e0" stroke="#999999" points="631,-74 552,-74 552,-55 631,-55 631,-74"/>
<text text-anchor="middle" x="591.5" y="-62" font-family="Helvetica,sans-Serif" font-size="10.00">fmt/format.h</text>
</a>
</g>
</g>
<!-- Node1&#45;&gt;Node9 -->
<g id="edge8_Node000001_Node000009" class="edge">
<title>Node1&#45;&gt;Node9</title>
<g id="a_edge8_Node000001_Node000009"><a xlink:title=" ">
<path fill="none" stroke="#63b8ff" d="M449.29,-109.99C481.42,-99.94 524.2,-86.55 554.42,-77.1"/>
<polygon fill="#63b8ff" stroke="#63b8ff" points="555.66,-80.38 564.16,-74.05 553.57,-73.7 555.66,-80.38"/>
</a>
</g>
</g>
<!-- Node10 -->
<g id="Node000010" class="node">
<title>Node10</title>
<g id="a_Node000010"><a xlink:href="../../d1/d37/demangle_8hpp.html" target="_top" xlink:title="Returns a human&#45;readable representation of provided type name.">
<polygon fill="white" stroke="#666666" points="859.5,-74 687.5,-74 687.5,-55 859.5,-55 859.5,-74"/>
<text text-anchor="middle" x="773.5" y="-62" font-family="Helvetica,sans-Serif" font-size="10.00">userver/compiler/demangle.hpp</text>
</a>
</g>
</g>
<!-- Node1&#45;&gt;Node10 -->
<g id="edge9_Node000001_Node000010" class="edge">
<title>Node1&#45;&gt;Node10</title>
<g id="a_edge9_Node000001_Node000010"><a xlink:title=" ">
<path fill="none" stroke="#63b8ff" d="M459.34,-115.31C526.22,-104.7 639.06,-86.81 709.74,-75.61"/>
<polygon fill="#63b8ff" stroke="#63b8ff" points="710.53,-79.03 719.86,-74 709.43,-72.11 710.53,-79.03"/>
</a>
</g>
</g>
<!-- Node13 -->
<g id="Node000013" class="node">
<title>Node13</title>
<g id="a_Node000013"><a xlink:href="../../d2/d54/assert_8hpp.html" target="_top" xlink:title="Assertion macros UASSERT, UASSERT_MSG, UINVARIANT.">
<polygon fill="white" stroke="#666666" points="315,-74 184,-74 184,-55 315,-55 315,-74"/>
<text text-anchor="middle" x="249.5" y="-62" font-family="Helvetica,sans-Serif" font-size="10.00">userver/utils/assert.hpp</text>
</a>
</g>
</g>
<!-- Node1&#45;&gt;Node13 -->
<g id="edge13_Node000001_Node000013" class="edge">
<title>Node1&#45;&gt;Node13</title>
<g id="a_edge13_Node000001_Node000013"><a xlink:title=" ">
<path fill="none" stroke="#63b8ff" d="M367.37,-109.99C341.28,-100.14 306.72,-87.1 281.77,-77.68"/>
<polygon fill="#63b8ff" stroke="#63b8ff" points="282.98,-74.4 272.39,-74.14 280.51,-80.94 282.98,-74.4"/>
</a>
</g>
</g>
<!-- Node10&#45;&gt;Node4 -->
<g id="edge11_Node000010_Node000004" class="edge">
<title>Node10&#45;&gt;Node4</title>
<g id="a_edge11_Node000010_Node000004"><a xlink:title=" ">
<path fill="none" stroke="#63b8ff" d="M757.11,-54.98C740.93,-46.57 715.93,-33.59 697.12,-23.81"/>
<polygon fill="#63b8ff" stroke="#63b8ff" points="698.67,-20.68 688.19,-19.17 695.45,-26.89 698.67,-20.68"/>
</a>
</g>
</g>
<!-- Node11 -->
<g id="Node000011" class="node">
<title>Node11</title>
<g id="a_Node000011"><a xlink:title=" ">
<polygon fill="#e0e0e0" stroke="#999999" points="785.5,-19 735.5,-19 735.5,0 785.5,0 785.5,-19"/>
<text text-anchor="middle" x="760.5" y="-7" font-family="Helvetica,sans-Serif" font-size="10.00">chrono</text>
</a>
</g>
</g>
<!-- Node10&#45;&gt;Node11 -->
<g id="edge10_Node000010_Node000011" class="edge">
<title>Node10&#45;&gt;Node11</title>
<g id="a_edge10_Node000010_Node000011"><a xlink:title=" ">
<path fill="none" stroke="#63b8ff" d="M771.35,-54.75C769.63,-47.72 767.15,-37.62 765,-28.84"/>
<polygon fill="#63b8ff" stroke="#63b8ff" points="768.39,-27.97 762.61,-19.09 761.59,-29.63 768.39,-27.97"/>
</a>
</g>
</g>
<!-- Node12 -->
<g id="Node000012" class="node">
<title>Node12</title>
<g id="a_Node000012"><a xlink:title=" ">
<polygon fill="#e0e0e0" stroke="#999999" points="869,-19 804,-19 804,0 869,0 869,-19"/>
<text text-anchor="middle" x="836.5" y="-7" font-family="Helvetica,sans-Serif" font-size="10.00">typeindex</text>
</a>
</g>
</g>
<!-- Node10&#45;&gt;Node12 -->
<g id="edge12_Node000010_Node000012" class="edge">
<title>Node10&#45;&gt;Node12</title>
<g id="a_edge12_Node000010_Node000012"><a xlink:title=" ">
<path fill="none" stroke="#63b8ff" d="M783.62,-54.98C792.94,-47.15 806.97,-35.34 818.24,-25.86"/>
<polygon fill="#63b8ff" stroke="#63b8ff" points="820.79,-28.29 826.19,-19.17 816.29,-22.93 820.79,-28.29"/>
</a>
</g>
</g>
<!-- Node13&#45;&gt;Node5 -->
<g id="edge14_Node000013_Node000005" class="edge">
<title>Node13&#45;&gt;Node5</title>
<g id="a_edge14_Node000013_Node000005"><a xlink:title=" ">
<path fill="none" stroke="#63b8ff" d="M241.74,-54.75C235.03,-47.18 225.16,-36.05 216.99,-26.84"/>
<polygon fill="#63b8ff" stroke="#63b8ff" points="219.37,-24.25 210.12,-19.09 214.13,-28.89 219.37,-24.25"/>
</a>
</g>
</g>
</g>
</svg>
