<?xml version="1.0" encoding="UTF-8" standalone="no"?>
<!DOCTYPE svg PUBLIC "-//W3C//DTD SVG 1.1//EN"
 "http://www.w3.org/Graphics/SVG/1.1/DTD/svg11.dtd">
<!-- Generated by graphviz version 2.43.0 (0)
 -->
<!-- Title: userver/http/url.hpp Pages: 1 -->
<svg width="538pt" height="148pt"
 viewBox="0.00 0.00 538.00 148.00" xmlns="http://www.w3.org/2000/svg" xmlns:xlink="http://www.w3.org/1999/xlink">
<g id="graph0" class="graph" transform="scale(1 1) rotate(0) translate(4 144)">
<title>userver/http/url.hpp</title>
<!-- Node1 -->
<g id="Node000001" class="node">
<title>Node1</title>
<g id="a_Node000001"><a xlink:title="URL manipulation functions.">
<polygon fill="#999999" stroke="#666666" points="273.5,-140 160.5,-140 160.5,-121 273.5,-121 273.5,-140"/>
<text text-anchor="middle" x="217" y="-128" font-family="Helvetica,sans-Serif" font-size="10.00">userver/http/url.hpp</text>
</a>
</g>
</g>
<!-- Node2 -->
<g id="Node000002" class="node">
<title>Node2</title>
<g id="a_Node000002"><a xlink:title=" ">
<polygon fill="#e0e0e0" stroke="#999999" points="38,-79.5 0,-79.5 0,-60.5 38,-60.5 38,-79.5"/>
<text text-anchor="middle" x="19" y="-67.5" font-family="Helvetica,sans-Serif" font-size="10.00">map</text>
</a>
</g>
</g>
<!-- Node1&#45;&gt;Node2 -->
<g id="edge1_Node000001_Node000002" class="edge">
<title>Node1&#45;&gt;Node2</title>
<g id="a_edge1_Node000001_Node000002"><a xlink:title=" ">
<path fill="none" stroke="#63b8ff" d="M179.53,-120.96C145.8,-112.9 95.05,-99.86 52,-85 50.57,-84.51 49.11,-83.98 47.64,-83.43"/>
<polygon fill="#63b8ff" stroke="#63b8ff" points="48.61,-80.05 38.02,-79.6 46.02,-86.55 48.61,-80.05"/>
</a>
</g>
</g>
<!-- Node3 -->
<g id="Node000003" class="node">
<title>Node3</title>
<g id="a_Node000003"><a xlink:title=" ">
<polygon fill="#e0e0e0" stroke="#999999" points="106,-19 62,-19 62,0 106,0 106,-19"/>
<text text-anchor="middle" x="84" y="-7" font-family="Helvetica,sans-Serif" font-size="10.00">string</text>
</a>
</g>
</g>
<!-- Node1&#45;&gt;Node3 -->
<g id="edge2_Node000001_Node000003" class="edge">
<title>Node1&#45;&gt;Node3</title>
<g id="a_edge2_Node000001_Node000003"><a xlink:title=" ">
<path fill="none" stroke="#63b8ff" d="M160.3,-125.22C132.91,-119.98 102.3,-108.75 85,-85 73.37,-69.03 75.26,-45.59 78.68,-29.29"/>
<polygon fill="#63b8ff" stroke="#63b8ff" points="82.14,-29.86 81.14,-19.32 75.35,-28.18 82.14,-29.86"/>
</a>
</g>
</g>
<!-- Node4 -->
<g id="Node000004" class="node">
<title>Node4</title>
<g id="a_Node000004"><a xlink:title=" ">
<polygon fill="#e0e0e0" stroke="#999999" points="293.5,-19 220.5,-19 220.5,0 293.5,0 293.5,-19"/>
<text text-anchor="middle" x="257" y="-7" font-family="Helvetica,sans-Serif" font-size="10.00">string_view</text>
</a>
</g>
</g>
<!-- Node1&#45;&gt;Node4 -->
<g id="edge3_Node000001_Node000004" class="edge">
<title>Node1&#45;&gt;Node4</title>
<g id="a_edge3_Node000001_Node000004"><a xlink:title=" ">
<path fill="none" stroke="#63b8ff" d="M225.41,-120.78C232.98,-112.36 243.7,-98.87 249,-85 255.89,-66.99 257.48,-44.86 257.6,-29.42"/>
<polygon fill="#63b8ff" stroke="#63b8ff" points="261.1,-29.05 257.47,-19.1 254.1,-29.14 261.1,-29.05"/>
</a>
</g>
</g>
<!-- Node5 -->
<g id="Node000005" class="node">
<title>Node5</title>
<g id="a_Node000005"><a xlink:title=" ">
<polygon fill="#e0e0e0" stroke="#999999" points="389.5,-79.5 296.5,-79.5 296.5,-60.5 389.5,-60.5 389.5,-79.5"/>
<text text-anchor="middle" x="343" y="-67.5" font-family="Helvetica,sans-Serif" font-size="10.00">unordered_map</text>
</a>
</g>
</g>
<!-- Node1&#45;&gt;Node5 -->
<g id="edge4_Node000001_Node000005" class="edge">
<title>Node1&#45;&gt;Node5</title>
<g id="a_edge4_Node000001_Node000005"><a xlink:title=" ">
<path fill="none" stroke="#63b8ff" d="M235.32,-120.99C256.41,-111.2 291.26,-95.02 315.58,-83.73"/>
<polygon fill="#63b8ff" stroke="#63b8ff" points="317.06,-86.9 324.66,-79.52 314.11,-80.55 317.06,-86.9"/>
</a>
</g>
</g>
<!-- Node6 -->
<g id="Node000006" class="node">
<title>Node6</title>
<g id="a_Node000006"><a xlink:href="../../d9/d61/universal_2include_2userver_2utils_2impl_2internal__tag__fwd_8hpp_source.html" target="_top" xlink:title=" ">
<polygon fill="white" stroke="#666666" points="530,-85 408,-85 408,-55 530,-55 530,-85"/>
<text text-anchor="start" x="416" y="-73" font-family="Helvetica,sans-Serif" font-size="10.00">userver/utils/impl</text>
<text text-anchor="middle" x="469" y="-62" font-family="Helvetica,sans-Serif" font-size="10.00">/internal_tag_fwd.hpp</text>
</a>
</g>
</g>
<!-- Node1&#45;&gt;Node6 -->
<g id="edge5_Node000001_Node000006" class="edge">
<title>Node1&#45;&gt;Node6</title>
<g id="a_edge5_Node000001_Node000006"><a xlink:title=" ">
<path fill="none" stroke="#63b8ff" d="M253.64,-120.99C291.49,-112.21 351.51,-98.27 398.58,-87.35"/>
<polygon fill="#63b8ff" stroke="#63b8ff" points="399.47,-90.73 408.42,-85.06 397.88,-83.92 399.47,-90.73"/>
</a>
</g>
</g>
<!-- Node7 -->
<g id="Node000007" class="node">
<title>Node7</title>
<g id="a_Node000007"><a xlink:href="../../d1/d46/str__icase_8hpp.html" target="_top" xlink:title="Case insensitive ASCII comparators and hashers.">
<polygon fill="white" stroke="#666666" points="239.5,-79.5 94.5,-79.5 94.5,-60.5 239.5,-60.5 239.5,-79.5"/>
<text text-anchor="middle" x="167" y="-67.5" font-family="Helvetica,sans-Serif" font-size="10.00">userver/utils/str_icase.hpp</text>
</a>
</g>
</g>
<!-- Node1&#45;&gt;Node7 -->
<g id="edge6_Node000001_Node000007" class="edge">
<title>Node1&#45;&gt;Node7</title>
<g id="a_edge6_Node000001_Node000007"><a xlink:title=" ">
<path fill="none" stroke="#63b8ff" d="M209.62,-120.87C202.09,-112.05 190.21,-98.16 180.91,-87.27"/>
<polygon fill="#63b8ff" stroke="#63b8ff" points="183.57,-85 174.41,-79.67 178.24,-89.54 183.57,-85"/>
</a>
</g>
</g>
<!-- Node7&#45;&gt;Node3 -->
<g id="edge8_Node000007_Node000003" class="edge">
<title>Node7&#45;&gt;Node3</title>
<g id="a_edge8_Node000007_Node000003"><a xlink:title=" ">
<path fill="none" stroke="#63b8ff" d="M154.75,-60.37C141.64,-51.12 120.58,-36.28 104.85,-25.19"/>
<polygon fill="#63b8ff" stroke="#63b8ff" points="106.49,-22.07 96.3,-19.17 102.45,-27.79 106.49,-22.07"/>
</a>
</g>
</g>
<!-- Node7&#45;&gt;Node4 -->
<g id="edge9_Node000007_Node000004" class="edge">
<title>Node7&#45;&gt;Node4</title>
<g id="a_edge9_Node000007_Node000004"><a xlink:title=" ">
<path fill="none" stroke="#63b8ff" d="M180.28,-60.37C194.64,-51.04 217.76,-36.01 234.87,-24.88"/>
<polygon fill="#63b8ff" stroke="#63b8ff" points="237.19,-27.55 243.67,-19.17 233.37,-21.68 237.19,-27.55"/>
</a>
</g>
</g>
<!-- Node8 -->
<g id="Node000008" class="node">
<title>Node8</title>
<g id="a_Node000008"><a xlink:title=" ">
<polygon fill="#e0e0e0" stroke="#999999" points="192,-19 142,-19 142,0 192,0 192,-19"/>
<text text-anchor="middle" x="167" y="-7" font-family="Helvetica,sans-Serif" font-size="10.00">cstdint</text>
</a>
</g>
</g>
<!-- Node7&#45;&gt;Node8 -->
<g id="edge7_Node000007_Node000008" class="edge">
<title>Node7&#45;&gt;Node8</title>
<g id="a_edge7_Node000007_Node000008"><a xlink:title=" ">
<path fill="none" stroke="#63b8ff" d="M167,-60.37C167,-52.25 167,-39.81 167,-29.39"/>
<polygon fill="#63b8ff" stroke="#63b8ff" points="170.5,-29.17 167,-19.17 163.5,-29.17 170.5,-29.17"/>
</a>
</g>
</g>
</g>
</svg>
