<?xml version="1.0" encoding="UTF-8" standalone="no"?>
<!DOCTYPE svg PUBLIC "-//W3C//DTD SVG 1.1//EN"
 "http://www.w3.org/Graphics/SVG/1.1/DTD/svg11.dtd">
<!-- Generated by graphviz version 2.43.0 (0)
 -->
<!-- Title: userver/engine/exception.hpp Pages: 1 -->
<svg width="497pt" height="269pt"
 viewBox="0.00 0.00 497.00 269.00" xmlns="http://www.w3.org/2000/svg" xmlns:xlink="http://www.w3.org/1999/xlink">
<g id="graph0" class="graph" transform="scale(1 1) rotate(0) translate(4 265)">
<title>userver/engine/exception.hpp</title>
<!-- Node1 -->
<g id="Node000001" class="node">
<title>Node1</title>
<g id="a_Node000001"><a xlink:title="Coroutine engine exceptions.">
<polygon fill="#999999" stroke="#666666" points="166,-261 5,-261 5,-242 166,-242 166,-261"/>
<text text-anchor="middle" x="85.5" y="-249" font-family="Helvetica,sans-Serif" font-size="10.00">userver/engine/exception.hpp</text>
</a>
</g>
</g>
<!-- Node2 -->
<g id="Node000002" class="node">
<title>Node2</title>
<g id="a_Node000002"><a xlink:title=" ">
<polygon fill="#e0e0e0" stroke="#999999" points="65,-200.5 0,-200.5 0,-181.5 65,-181.5 65,-200.5"/>
<text text-anchor="middle" x="32.5" y="-188.5" font-family="Helvetica,sans-Serif" font-size="10.00">stdexcept</text>
</a>
</g>
</g>
<!-- Node1&#45;&gt;Node2 -->
<g id="edge1_Node000001_Node000002" class="edge">
<title>Node1&#45;&gt;Node2</title>
<g id="a_edge1_Node000001_Node000002"><a xlink:title=" ">
<path fill="none" stroke="#63b8ff" d="M77.68,-241.87C69.69,-233.05 57.11,-219.16 47.24,-208.27"/>
<polygon fill="#63b8ff" stroke="#63b8ff" points="49.66,-205.73 40.35,-200.67 44.47,-210.43 49.66,-205.73"/>
</a>
</g>
</g>
<!-- Node3 -->
<g id="Node000003" class="node">
<title>Node3</title>
<g id="a_Node000003"><a xlink:href="../../db/df2/cancel_8hpp.html" target="_top" xlink:title="Task cancellation helpers.">
<polygon fill="white" stroke="#666666" points="196,-206 83,-206 83,-176 196,-176 196,-206"/>
<text text-anchor="start" x="91" y="-194" font-family="Helvetica,sans-Serif" font-size="10.00">userver/engine/task</text>
<text text-anchor="middle" x="139.5" y="-183" font-family="Helvetica,sans-Serif" font-size="10.00">/cancel.hpp</text>
</a>
</g>
</g>
<!-- Node1&#45;&gt;Node3 -->
<g id="edge2_Node000001_Node000003" class="edge">
<title>Node1&#45;&gt;Node3</title>
<g id="a_edge2_Node000001_Node000003"><a xlink:title=" ">
<path fill="none" stroke="#63b8ff" d="M93.47,-241.87C100.32,-234.44 110.5,-223.42 119.55,-213.62"/>
<polygon fill="#63b8ff" stroke="#63b8ff" points="122.26,-215.84 126.47,-206.11 117.12,-211.09 122.26,-215.84"/>
</a>
</g>
</g>
<!-- Node4 -->
<g id="Node000004" class="node">
<title>Node4</title>
<g id="a_Node000004"><a xlink:title=" ">
<polygon fill="#e0e0e0" stroke="#999999" points="51.5,-134.5 7.5,-134.5 7.5,-115.5 51.5,-115.5 51.5,-134.5"/>
<text text-anchor="middle" x="29.5" y="-122.5" font-family="Helvetica,sans-Serif" font-size="10.00">string</text>
</a>
</g>
</g>
<!-- Node3&#45;&gt;Node4 -->
<g id="edge3_Node000003_Node000004" class="edge">
<title>Node3&#45;&gt;Node4</title>
<g id="a_edge3_Node000003_Node000004"><a xlink:title=" ">
<path fill="none" stroke="#63b8ff" d="M115.36,-175.95C96.83,-165.18 71.4,-150.38 53.03,-139.69"/>
<polygon fill="#63b8ff" stroke="#63b8ff" points="54.54,-136.52 44.14,-134.52 51.02,-142.57 54.54,-136.52"/>
</a>
</g>
</g>
<!-- Node5 -->
<g id="Node000005" class="node">
<title>Node5</title>
<g id="a_Node000005"><a xlink:title=" ">
<polygon fill="#e0e0e0" stroke="#999999" points="209.5,-140 69.5,-140 69.5,-110 209.5,-110 209.5,-140"/>
<text text-anchor="start" x="77.5" y="-128" font-family="Helvetica,sans-Serif" font-size="10.00">boost/smart_ptr/intrusive</text>
<text text-anchor="middle" x="139.5" y="-117" font-family="Helvetica,sans-Serif" font-size="10.00">_ptr.hpp</text>
</a>
</g>
</g>
<!-- Node3&#45;&gt;Node5 -->
<g id="edge4_Node000003_Node000005" class="edge">
<title>Node3&#45;&gt;Node5</title>
<g id="a_edge4_Node000003_Node000005"><a xlink:title=" ">
<path fill="none" stroke="#63b8ff" d="M139.5,-175.8C139.5,-168.34 139.5,-158.99 139.5,-150.41"/>
<polygon fill="#63b8ff" stroke="#63b8ff" points="143,-150.16 139.5,-140.16 136,-150.16 143,-150.16"/>
</a>
</g>
</g>
<!-- Node6 -->
<g id="Node000006" class="node">
<title>Node6</title>
<g id="a_Node000006"><a xlink:href="../../d2/d22/deadline_8hpp.html" target="_top" xlink:title="Internal representation of a deadline time point.">
<polygon fill="white" stroke="#666666" points="383,-134.5 228,-134.5 228,-115.5 383,-115.5 383,-134.5"/>
<text text-anchor="middle" x="305.5" y="-122.5" font-family="Helvetica,sans-Serif" font-size="10.00">userver/engine/deadline.hpp</text>
</a>
</g>
</g>
<!-- Node3&#45;&gt;Node6 -->
<g id="edge5_Node000003_Node000006" class="edge">
<title>Node3&#45;&gt;Node6</title>
<g id="a_edge5_Node000003_Node000006"><a xlink:title=" ">
<path fill="none" stroke="#63b8ff" d="M175.93,-175.95C205.17,-164.68 245.81,-149.01 273.74,-138.25"/>
<polygon fill="#63b8ff" stroke="#63b8ff" points="275.34,-141.38 283.41,-134.52 272.82,-134.85 275.34,-141.38"/>
</a>
</g>
</g>
<!-- Node7 -->
<g id="Node000007" class="node">
<title>Node7</title>
<g id="a_Node000007"><a xlink:title=" ">
<polygon fill="#e0e0e0" stroke="#999999" points="252.5,-74 202.5,-74 202.5,-55 252.5,-55 252.5,-74"/>
<text text-anchor="middle" x="227.5" y="-62" font-family="Helvetica,sans-Serif" font-size="10.00">chrono</text>
</a>
</g>
</g>
<!-- Node6&#45;&gt;Node7 -->
<g id="edge6_Node000006_Node000007" class="edge">
<title>Node6&#45;&gt;Node7</title>
<g id="a_edge6_Node000006_Node000007"><a xlink:title=" ">
<path fill="none" stroke="#63b8ff" d="M293.99,-115.37C281.66,-106.12 261.88,-91.28 247.09,-80.19"/>
<polygon fill="#63b8ff" stroke="#63b8ff" points="249.16,-77.37 239.06,-74.17 244.96,-82.97 249.16,-77.37"/>
</a>
</g>
</g>
<!-- Node8 -->
<g id="Node000008" class="node">
<title>Node8</title>
<g id="a_Node000008"><a xlink:title=" ">
<polygon fill="#e0e0e0" stroke="#999999" points="340,-74 271,-74 271,-55 340,-55 340,-74"/>
<text text-anchor="middle" x="305.5" y="-62" font-family="Helvetica,sans-Serif" font-size="10.00">type_traits</text>
</a>
</g>
</g>
<!-- Node6&#45;&gt;Node8 -->
<g id="edge7_Node000006_Node000008" class="edge">
<title>Node6&#45;&gt;Node8</title>
<g id="a_edge7_Node000006_Node000008"><a xlink:title=" ">
<path fill="none" stroke="#63b8ff" d="M305.5,-115.37C305.5,-107.25 305.5,-94.81 305.5,-84.39"/>
<polygon fill="#63b8ff" stroke="#63b8ff" points="309,-84.17 305.5,-74.17 302,-84.17 309,-84.17"/>
</a>
</g>
</g>
<!-- Node9 -->
<g id="Node000009" class="node">
<title>Node9</title>
<g id="a_Node000009"><a xlink:href="../../d2/d54/assert_8hpp.html" target="_top" xlink:title="Assertion macros UASSERT, UASSERT_MSG, UINVARIANT.">
<polygon fill="white" stroke="#666666" points="489,-74 358,-74 358,-55 489,-55 489,-74"/>
<text text-anchor="middle" x="423.5" y="-62" font-family="Helvetica,sans-Serif" font-size="10.00">userver/utils/assert.hpp</text>
</a>
</g>
</g>
<!-- Node6&#45;&gt;Node9 -->
<g id="edge8_Node000006_Node000009" class="edge">
<title>Node6&#45;&gt;Node9</title>
<g id="a_edge8_Node000006_Node000009"><a xlink:title=" ">
<path fill="none" stroke="#63b8ff" d="M322.66,-115.49C342.23,-105.79 374.47,-89.81 397.22,-78.53"/>
<polygon fill="#63b8ff" stroke="#63b8ff" points="398.92,-81.59 406.32,-74.02 395.81,-75.32 398.92,-81.59"/>
</a>
</g>
</g>
<!-- Node10 -->
<g id="Node000010" class="node">
<title>Node10</title>
<g id="a_Node000010"><a xlink:title=" ">
<polygon fill="#e0e0e0" stroke="#999999" points="460,-19 387,-19 387,0 460,0 460,-19"/>
<text text-anchor="middle" x="423.5" y="-7" font-family="Helvetica,sans-Serif" font-size="10.00">string_view</text>
</a>
</g>
</g>
<!-- Node9&#45;&gt;Node10 -->
<g id="edge9_Node000009_Node000010" class="edge">
<title>Node9&#45;&gt;Node10</title>
<g id="a_edge9_Node000009_Node000010"><a xlink:title=" ">
<path fill="none" stroke="#63b8ff" d="M423.5,-54.75C423.5,-47.8 423.5,-37.85 423.5,-29.13"/>
<polygon fill="#63b8ff" stroke="#63b8ff" points="427,-29.09 423.5,-19.09 420,-29.09 427,-29.09"/>
</a>
</g>
</g>
</g>
</svg>
