<?xml version="1.0" encoding="UTF-8" standalone="no"?>
<!DOCTYPE svg PUBLIC "-//W3C//DTD SVG 1.1//EN"
 "http://www.w3.org/Graphics/SVG/1.1/DTD/svg11.dtd">
<!-- Generated by graphviz version 2.43.0 (0)
 -->
<!-- Title: userver/crypto/random.hpp Pages: 1 -->
<svg width="368pt" height="192pt"
 viewBox="0.00 0.00 368.00 192.00" xmlns="http://www.w3.org/2000/svg" xmlns:xlink="http://www.w3.org/1999/xlink">
<g id="graph0" class="graph" transform="scale(1 1) rotate(0) translate(4 188)">
<title>userver/crypto/random.hpp</title>
<!-- Node1 -->
<g id="Node000001" class="node">
<title>Node1</title>
<g id="a_Node000001"><a xlink:title="Cryptographically&#45;secure randomness.">
<polygon fill="#999999" stroke="#666666" points="205,-184 56,-184 56,-165 205,-165 205,-184"/>
<text text-anchor="middle" x="130.5" y="-172" font-family="Helvetica,sans-Serif" font-size="10.00">userver/crypto/random.hpp</text>
</a>
</g>
</g>
<!-- Node2 -->
<g id="Node000002" class="node">
<title>Node2</title>
<g id="a_Node000002"><a xlink:title=" ">
<polygon fill="#e0e0e0" stroke="#999999" points="53,-74 0,-74 0,-55 53,-55 53,-74"/>
<text text-anchor="middle" x="26.5" y="-62" font-family="Helvetica,sans-Serif" font-size="10.00">cstddef</text>
</a>
</g>
</g>
<!-- Node1&#45;&gt;Node2 -->
<g id="edge1_Node000001_Node000002" class="edge">
<title>Node1&#45;&gt;Node2</title>
<g id="a_edge1_Node000001_Node000002"><a xlink:title=" ">
<path fill="none" stroke="#63b8ff" d="M121.99,-164.66C104.46,-146.46 64.1,-104.55 41.88,-81.47"/>
<polygon fill="#63b8ff" stroke="#63b8ff" points="44.3,-78.93 34.84,-74.16 39.25,-83.79 44.3,-78.93"/>
</a>
</g>
</g>
<!-- Node3 -->
<g id="Node000003" class="node">
<title>Node3</title>
<g id="a_Node000003"><a xlink:title=" ">
<polygon fill="#e0e0e0" stroke="#999999" points="301.5,-129 257.5,-129 257.5,-110 301.5,-110 301.5,-129"/>
<text text-anchor="middle" x="279.5" y="-117" font-family="Helvetica,sans-Serif" font-size="10.00">string</text>
</a>
</g>
</g>
<!-- Node1&#45;&gt;Node3 -->
<g id="edge2_Node000001_Node000003" class="edge">
<title>Node1&#45;&gt;Node3</title>
<g id="a_edge2_Node000001_Node000003"><a xlink:title=" ">
<path fill="none" stroke="#63b8ff" d="M154.44,-164.98C179.64,-156.02 219.46,-141.86 247.38,-131.92"/>
<polygon fill="#63b8ff" stroke="#63b8ff" points="248.83,-135.12 257.08,-128.47 246.49,-128.53 248.83,-135.12"/>
</a>
</g>
</g>
<!-- Node4 -->
<g id="Node000004" class="node">
<title>Node4</title>
<g id="a_Node000004"><a xlink:title=" ">
<polygon fill="#e0e0e0" stroke="#999999" points="140,-74 71,-74 71,-55 140,-55 140,-74"/>
<text text-anchor="middle" x="105.5" y="-62" font-family="Helvetica,sans-Serif" font-size="10.00">type_traits</text>
</a>
</g>
</g>
<!-- Node1&#45;&gt;Node4 -->
<g id="edge3_Node000001_Node000004" class="edge">
<title>Node1&#45;&gt;Node4</title>
<g id="a_edge3_Node000001_Node000004"><a xlink:title=" ">
<path fill="none" stroke="#63b8ff" d="M123.87,-164.88C117.74,-156.32 109.04,-142.54 105.5,-129 101.66,-114.32 101.95,-97.06 103.04,-84.25"/>
<polygon fill="#63b8ff" stroke="#63b8ff" points="106.52,-84.62 104.12,-74.31 99.56,-83.87 106.52,-84.62"/>
</a>
</g>
</g>
<!-- Node5 -->
<g id="Node000005" class="node">
<title>Node5</title>
<g id="a_Node000005"><a xlink:href="../../d8/d08/universal_2include_2userver_2utils_2span_8hpp.html" target="_top" xlink:title=" ">
<polygon fill="white" stroke="#666666" points="239,-129 114,-129 114,-110 239,-110 239,-129"/>
<text text-anchor="middle" x="176.5" y="-117" font-family="Helvetica,sans-Serif" font-size="10.00">userver/utils/span.hpp</text>
</a>
</g>
</g>
<!-- Node1&#45;&gt;Node5 -->
<g id="edge4_Node000001_Node000005" class="edge">
<title>Node1&#45;&gt;Node5</title>
<g id="a_edge4_Node000001_Node000005"><a xlink:title=" ">
<path fill="none" stroke="#63b8ff" d="M138.1,-164.75C144.66,-157.18 154.32,-146.05 162.31,-136.84"/>
<polygon fill="#63b8ff" stroke="#63b8ff" points="165.13,-138.94 169.05,-129.09 159.85,-134.35 165.13,-138.94"/>
</a>
</g>
</g>
<!-- Node5&#45;&gt;Node2 -->
<g id="edge6_Node000005_Node000002" class="edge">
<title>Node5&#45;&gt;Node2</title>
<g id="a_edge6_Node000005_Node000002"><a xlink:title=" ">
<path fill="none" stroke="#63b8ff" d="M152.4,-109.98C127.62,-101.23 88.8,-87.51 60.81,-77.62"/>
<polygon fill="#63b8ff" stroke="#63b8ff" points="61.63,-74.2 51.04,-74.17 59.3,-80.8 61.63,-74.2"/>
</a>
</g>
</g>
<!-- Node5&#45;&gt;Node4 -->
<g id="edge7_Node000005_Node000004" class="edge">
<title>Node5&#45;&gt;Node4</title>
<g id="a_edge7_Node000005_Node000004"><a xlink:title=" ">
<path fill="none" stroke="#63b8ff" d="M165.09,-109.98C154.39,-102 138.16,-89.88 125.34,-80.31"/>
<polygon fill="#63b8ff" stroke="#63b8ff" points="127.22,-77.35 117.11,-74.17 123.03,-82.96 127.22,-77.35"/>
</a>
</g>
</g>
<!-- Node6 -->
<g id="Node000006" class="node">
<title>Node6</title>
<g id="a_Node000006"><a xlink:title=" ">
<polygon fill="#e0e0e0" stroke="#999999" points="211,-74 158,-74 158,-55 211,-55 211,-74"/>
<text text-anchor="middle" x="184.5" y="-62" font-family="Helvetica,sans-Serif" font-size="10.00">iterator</text>
</a>
</g>
</g>
<!-- Node5&#45;&gt;Node6 -->
<g id="edge5_Node000005_Node000006" class="edge">
<title>Node5&#45;&gt;Node6</title>
<g id="a_edge5_Node000005_Node000006"><a xlink:title=" ">
<path fill="none" stroke="#63b8ff" d="M177.82,-109.75C178.87,-102.8 180.37,-92.85 181.69,-84.13"/>
<polygon fill="#63b8ff" stroke="#63b8ff" points="185.17,-84.5 183.2,-74.09 178.25,-83.45 185.17,-84.5"/>
</a>
</g>
</g>
<!-- Node7 -->
<g id="Node000007" class="node">
<title>Node7</title>
<g id="a_Node000007"><a xlink:href="../../d2/d54/assert_8hpp.html" target="_top" xlink:title="Assertion macros UASSERT, UASSERT_MSG, UINVARIANT.">
<polygon fill="white" stroke="#666666" points="360,-74 229,-74 229,-55 360,-55 360,-74"/>
<text text-anchor="middle" x="294.5" y="-62" font-family="Helvetica,sans-Serif" font-size="10.00">userver/utils/assert.hpp</text>
</a>
</g>
</g>
<!-- Node5&#45;&gt;Node7 -->
<g id="edge8_Node000005_Node000007" class="edge">
<title>Node5&#45;&gt;Node7</title>
<g id="a_edge8_Node000005_Node000007"><a xlink:title=" ">
<path fill="none" stroke="#63b8ff" d="M195.46,-109.98C214.53,-101.42 244.16,-88.11 266.05,-78.28"/>
<polygon fill="#63b8ff" stroke="#63b8ff" points="267.51,-81.46 275.2,-74.17 264.64,-75.07 267.51,-81.46"/>
</a>
</g>
</g>
<!-- Node8 -->
<g id="Node000008" class="node">
<title>Node8</title>
<g id="a_Node000008"><a xlink:title=" ">
<polygon fill="#e0e0e0" stroke="#999999" points="331,-19 258,-19 258,0 331,0 331,-19"/>
<text text-anchor="middle" x="294.5" y="-7" font-family="Helvetica,sans-Serif" font-size="10.00">string_view</text>
</a>
</g>
</g>
<!-- Node7&#45;&gt;Node8 -->
<g id="edge9_Node000007_Node000008" class="edge">
<title>Node7&#45;&gt;Node8</title>
<g id="a_edge9_Node000007_Node000008"><a xlink:title=" ">
<path fill="none" stroke="#63b8ff" d="M294.5,-54.75C294.5,-47.8 294.5,-37.85 294.5,-29.13"/>
<polygon fill="#63b8ff" stroke="#63b8ff" points="298,-29.09 294.5,-19.09 291,-29.09 298,-29.09"/>
</a>
</g>
</g>
</g>
</svg>
