<?xml version="1.0" encoding="UTF-8" standalone="no"?>
<!DOCTYPE svg PUBLIC "-//W3C//DTD SVG 1.1//EN"
 "http://www.w3.org/Graphics/SVG/1.1/DTD/svg11.dtd">
<!-- Generated by graphviz version 2.43.0 (0)
 -->
<!-- Title: userver/storages/postgres/io/user_types.hpp Pages: 1 -->
<svg width="939pt" height="566pt"
 viewBox="0.00 0.00 939.00 566.00" xmlns="http://www.w3.org/2000/svg" xmlns:xlink="http://www.w3.org/1999/xlink">
<g id="graph0" class="graph" transform="scale(1 1) rotate(0) translate(4 562)">
<title>userver/storages/postgres/io/user_types.hpp</title>
<!-- Node1 -->
<g id="Node000001" class="node">
<title>Node1</title>
<g id="a_Node000001"><a xlink:title="User types I/O support.">
<polygon fill="#999999" stroke="#666666" points="471,-558 328,-558 328,-528 471,-528 471,-558"/>
<text text-anchor="start" x="336" y="-546" font-family="Helvetica,sans-Serif" font-size="10.00">userver/storages/postgres</text>
<text text-anchor="middle" x="399.5" y="-535" font-family="Helvetica,sans-Serif" font-size="10.00">/io/user_types.hpp</text>
</a>
</g>
</g>
<!-- Node2 -->
<g id="Node000002" class="node">
<title>Node2</title>
<g id="a_Node000002"><a xlink:href="../../d4/d90/array__types_8hpp.html" target="_top" xlink:title="I/O support for arrays (std::array, std::set, std::unordered_set, std::vector)">
<polygon fill="white" stroke="#666666" points="341,-426 198,-426 198,-396 341,-396 341,-426"/>
<text text-anchor="start" x="206" y="-414" font-family="Helvetica,sans-Serif" font-size="10.00">userver/storages/postgres</text>
<text text-anchor="middle" x="269.5" y="-403" font-family="Helvetica,sans-Serif" font-size="10.00">/io/array_types.hpp</text>
</a>
</g>
</g>
<!-- Node1&#45;&gt;Node2 -->
<g id="edge1_Node000001_Node000002" class="edge">
<title>Node1&#45;&gt;Node2</title>
<g id="a_edge1_Node000001_Node000002"><a xlink:title=" ">
<path fill="none" stroke="#63b8ff" d="M377.99,-520.49C351.26,-493.76 306.39,-448.89 283.64,-426.14"/>
<polygon fill="#63b8ff" stroke="#63b8ff" points="375.79,-523.24 385.34,-527.84 380.74,-518.29 375.79,-523.24"/>
</a>
</g>
</g>
<!-- Node3 -->
<g id="Node000003" class="node">
<title>Node3</title>
<g id="a_Node000003"><a xlink:href="../../dc/da2/postgresql_2include_2userver_2storages_2postgres_2io_2supported__types_8hpp.html" target="_top" xlink:title="Includes parsers and formatters for all supported data types; prefer using the type specific include ...">
<polygon fill="white" stroke="#666666" points="502,-360 359,-360 359,-330 502,-330 502,-360"/>
<text text-anchor="start" x="367" y="-348" font-family="Helvetica,sans-Serif" font-size="10.00">userver/storages/postgres</text>
<text text-anchor="middle" x="430.5" y="-337" font-family="Helvetica,sans-Serif" font-size="10.00">/io/supported_types.hpp</text>
</a>
</g>
</g>
<!-- Node1&#45;&gt;Node3 -->
<g id="edge25_Node000001_Node000003" class="edge">
<title>Node1&#45;&gt;Node3</title>
<g id="a_edge25_Node000001_Node000003"><a xlink:title=" ">
<path fill="none" stroke="#63b8ff" d="M332.45,-524.77C283.35,-508.26 220.16,-477.96 189.5,-426 182.72,-414.52 181.08,-406.34 189.5,-396 210.57,-370.11 295.7,-357.2 358.84,-351.06"/>
<polygon fill="#63b8ff" stroke="#63b8ff" points="331.47,-528.13 342.06,-527.89 333.63,-521.48 331.47,-528.13"/>
</a>
</g>
</g>
<!-- Node12 -->
<g id="Node000012" class="node">
<title>Node12</title>
<g id="a_Node000012"><a xlink:href="../../d4/dda/composite__types_8hpp.html" target="_top" xlink:title="Composite types I/O support.">
<polygon fill="white" stroke="#666666" points="502,-426 359,-426 359,-396 502,-396 502,-426"/>
<text text-anchor="start" x="367" y="-414" font-family="Helvetica,sans-Serif" font-size="10.00">userver/storages/postgres</text>
<text text-anchor="middle" x="430.5" y="-403" font-family="Helvetica,sans-Serif" font-size="10.00">/io/composite_types.hpp</text>
</a>
</g>
</g>
<!-- Node1&#45;&gt;Node12 -->
<g id="edge16_Node000001_Node000012" class="edge">
<title>Node1&#45;&gt;Node12</title>
<g id="a_edge16_Node000001_Node000012"><a xlink:title=" ">
<path fill="none" stroke="#63b8ff" d="M405.21,-518.04C411.64,-491.08 421.87,-448.21 427.13,-426.14"/>
<polygon fill="#63b8ff" stroke="#63b8ff" points="401.79,-517.3 402.88,-527.84 408.6,-518.92 401.79,-517.3"/>
</a>
</g>
</g>
<!-- Node13 -->
<g id="Node000013" class="node">
<title>Node13</title>
<g id="a_Node000013"><a xlink:href="../../d5/d23/enum__types_8hpp.html" target="_top" xlink:title="Enum I/O support.">
<polygon fill="white" stroke="#666666" points="663,-426 520,-426 520,-396 663,-396 663,-426"/>
<text text-anchor="start" x="528" y="-414" font-family="Helvetica,sans-Serif" font-size="10.00">userver/storages/postgres</text>
<text text-anchor="middle" x="591.5" y="-403" font-family="Helvetica,sans-Serif" font-size="10.00">/io/enum_types.hpp</text>
</a>
</g>
</g>
<!-- Node1&#45;&gt;Node13 -->
<g id="edge18_Node000001_Node000013" class="edge">
<title>Node1&#45;&gt;Node13</title>
<g id="a_edge18_Node000001_Node000013"><a xlink:title=" ">
<path fill="none" stroke="#63b8ff" d="M411.39,-518.77C421.51,-501.04 437.57,-477.16 457.5,-462 479.24,-445.46 507.04,-433.91 531.67,-426.1"/>
<polygon fill="#63b8ff" stroke="#63b8ff" points="408.13,-517.44 406.39,-527.89 414.26,-520.8 408.13,-517.44"/>
</a>
</g>
</g>
<!-- Node14 -->
<g id="Node000014" class="node">
<title>Node14</title>
<g id="a_Node000014"><a xlink:href="../../da/d26/geometry__types_8hpp.html" target="_top" xlink:title="Geometry I/O support.">
<polygon fill="white" stroke="#666666" points="931,-492 788,-492 788,-462 931,-462 931,-492"/>
<text text-anchor="start" x="796" y="-480" font-family="Helvetica,sans-Serif" font-size="10.00">userver/storages/postgres</text>
<text text-anchor="middle" x="859.5" y="-469" font-family="Helvetica,sans-Serif" font-size="10.00">/io/geometry_types.hpp</text>
</a>
</g>
</g>
<!-- Node1&#45;&gt;Node14 -->
<g id="edge20_Node000001_Node000014" class="edge">
<title>Node1&#45;&gt;Node14</title>
<g id="a_edge20_Node000001_Node000014"><a xlink:title=" ">
<path fill="none" stroke="#63b8ff" d="M481.19,-532.27C558.24,-522.85 676.9,-507.72 779.5,-492 782.29,-491.57 785.13,-491.13 788,-490.67"/>
<polygon fill="#63b8ff" stroke="#63b8ff" points="480.57,-528.82 471.07,-533.5 481.42,-535.77 480.57,-528.82"/>
</a>
</g>
</g>
<!-- Node15 -->
<g id="Node000015" class="node">
<title>Node15</title>
<g id="a_Node000015"><a xlink:href="../../dd/d50/json__types_8hpp.html" target="_top" xlink:title="JSON I/O support.">
<polygon fill="white" stroke="#666666" points="609,-492 466,-492 466,-462 609,-462 609,-492"/>
<text text-anchor="start" x="474" y="-480" font-family="Helvetica,sans-Serif" font-size="10.00">userver/storages/postgres</text>
<text text-anchor="middle" x="537.5" y="-469" font-family="Helvetica,sans-Serif" font-size="10.00">/io/json_types.hpp</text>
</a>
</g>
</g>
<!-- Node1&#45;&gt;Node15 -->
<g id="edge21_Node000001_Node000015" class="edge">
<title>Node1&#45;&gt;Node15</title>
<g id="a_edge21_Node000001_Node000015"><a xlink:title=" ">
<path fill="none" stroke="#63b8ff" d="M439.07,-523.65C460.77,-513.58 487.26,-501.3 507.29,-492.01"/>
<polygon fill="#63b8ff" stroke="#63b8ff" points="437.38,-520.57 429.78,-527.95 440.33,-526.92 437.38,-520.57"/>
</a>
</g>
</g>
<!-- Node16 -->
<g id="Node000016" class="node">
<title>Node16</title>
<g id="a_Node000016"><a xlink:href="../../d5/d60/range__types_8hpp.html" target="_top" xlink:title="Ranges I/O support.">
<polygon fill="white" stroke="#666666" points="203,-492 60,-492 60,-462 203,-462 203,-492"/>
<text text-anchor="start" x="68" y="-480" font-family="Helvetica,sans-Serif" font-size="10.00">userver/storages/postgres</text>
<text text-anchor="middle" x="131.5" y="-469" font-family="Helvetica,sans-Serif" font-size="10.00">/io/range_types.hpp</text>
</a>
</g>
</g>
<!-- Node1&#45;&gt;Node16 -->
<g id="edge23_Node000001_Node000016" class="edge">
<title>Node1&#45;&gt;Node16</title>
<g id="a_edge23_Node000001_Node000016"><a xlink:title=" ">
<path fill="none" stroke="#63b8ff" d="M330.75,-525.58C287.25,-515.19 231.6,-501.9 190.18,-492.01"/>
<polygon fill="#63b8ff" stroke="#63b8ff" points="330.15,-529.04 340.69,-527.95 331.77,-522.23 330.15,-529.04"/>
</a>
</g>
</g>
<!-- Node17 -->
<g id="Node000017" class="node">
<title>Node17</title>
<g id="a_Node000017"><a xlink:href="../../d9/d6e/transform__io_8hpp_source.html" target="_top" xlink:title=" ">
<polygon fill="white" stroke="#666666" points="770,-492 627,-492 627,-462 770,-462 770,-492"/>
<text text-anchor="start" x="635" y="-480" font-family="Helvetica,sans-Serif" font-size="10.00">userver/storages/postgres</text>
<text text-anchor="middle" x="698.5" y="-469" font-family="Helvetica,sans-Serif" font-size="10.00">/io/transform_io.hpp</text>
</a>
</g>
</g>
<!-- Node1&#45;&gt;Node17 -->
<g id="edge26_Node000001_Node000017" class="edge">
<title>Node1&#45;&gt;Node17</title>
<g id="a_edge26_Node000001_Node000017"><a xlink:title=" ">
<path fill="none" stroke="#63b8ff" d="M474.98,-525.84C523.69,-515.42 586.43,-501.99 633.04,-492.01"/>
<polygon fill="#63b8ff" stroke="#63b8ff" points="474.16,-522.44 465.12,-527.95 475.63,-529.28 474.16,-522.44"/>
</a>
</g>
</g>
<!-- Node19 -->
<g id="Node000019" class="node">
<title>Node19</title>
<g id="a_Node000019"><a xlink:href="../../db/d6e/parameter__store_8hpp.html" target="_top" xlink:title="Class for dynamic PostgreSQL parameter list construction.">
<polygon fill="white" stroke="#666666" points="143,-360 0,-360 0,-330 143,-330 143,-360"/>
<text text-anchor="start" x="8" y="-348" font-family="Helvetica,sans-Serif" font-size="10.00">userver/storages/postgres</text>
<text text-anchor="middle" x="71.5" y="-337" font-family="Helvetica,sans-Serif" font-size="10.00">/parameter_store.hpp</text>
</a>
</g>
</g>
<!-- Node1&#45;&gt;Node19 -->
<g id="edge30_Node000001_Node000019" class="edge">
<title>Node1&#45;&gt;Node19</title>
<g id="a_edge30_Node000001_Node000019"><a xlink:title=" ">
<path fill="none" stroke="#63b8ff" d="M317.58,-542.14C225.49,-540.34 84.36,-531.06 50.5,-492 17.62,-454.08 47.4,-388.64 63.16,-360.05"/>
<polygon fill="#63b8ff" stroke="#63b8ff" points="317.66,-545.64 327.72,-542.31 317.78,-538.64 317.66,-545.64"/>
</a>
</g>
</g>
<!-- Node2&#45;&gt;Node3 -->
<g id="edge2_Node000002_Node000003" class="edge">
<title>Node2&#45;&gt;Node3</title>
<g id="a_edge2_Node000002_Node000003"><a xlink:title=" ">
<path fill="none" stroke="#63b8ff" d="M314.31,-392.19C339.87,-382.02 371.47,-369.47 395.25,-360.01"/>
<polygon fill="#63b8ff" stroke="#63b8ff" points="312.83,-389.01 304.83,-395.95 315.42,-395.51 312.83,-389.01"/>
</a>
</g>
</g>
<!-- Node4 -->
<g id="Node000004" class="node">
<title>Node4</title>
<g id="a_Node000004"><a xlink:href="../../de/d1d/result__set_8hpp.html" target="_top" xlink:title="Result accessors.">
<polygon fill="white" stroke="#666666" points="502,-294 359,-294 359,-264 502,-264 502,-294"/>
<text text-anchor="start" x="367" y="-282" font-family="Helvetica,sans-Serif" font-size="10.00">userver/storages/postgres</text>
<text text-anchor="middle" x="430.5" y="-271" font-family="Helvetica,sans-Serif" font-size="10.00">/result_set.hpp</text>
</a>
</g>
</g>
<!-- Node3&#45;&gt;Node4 -->
<g id="edge3_Node000003_Node000004" class="edge">
<title>Node3&#45;&gt;Node4</title>
<g id="a_edge3_Node000003_Node000004"><a xlink:title=" ">
<path fill="none" stroke="#63b8ff" d="M430.5,-319.54C430.5,-310.96 430.5,-301.61 430.5,-294.16"/>
<polygon fill="#63b8ff" stroke="#63b8ff" points="427,-319.8 430.5,-329.8 434,-319.8 427,-319.8"/>
</a>
</g>
</g>
<!-- Node5 -->
<g id="Node000005" class="node">
<title>Node5</title>
<g id="a_Node000005"><a xlink:href="../../d2/de3/portal_8hpp_source.html" target="_top" xlink:title=" ">
<polygon fill="white" stroke="#666666" points="517,-228 374,-228 374,-198 517,-198 517,-228"/>
<text text-anchor="start" x="382" y="-216" font-family="Helvetica,sans-Serif" font-size="10.00">userver/storages/postgres</text>
<text text-anchor="middle" x="445.5" y="-205" font-family="Helvetica,sans-Serif" font-size="10.00">/portal.hpp</text>
</a>
</g>
</g>
<!-- Node4&#45;&gt;Node5 -->
<g id="edge4_Node000004_Node000005" class="edge">
<title>Node4&#45;&gt;Node5</title>
<g id="a_edge4_Node000004_Node000005"><a xlink:title=" ">
<path fill="none" stroke="#63b8ff" d="M436.17,-253.83C438.19,-245.17 440.41,-235.7 442.18,-228.16"/>
<polygon fill="#63b8ff" stroke="#63b8ff" points="432.7,-253.26 433.83,-263.8 439.52,-254.86 432.7,-253.26"/>
</a>
</g>
</g>
<!-- Node6 -->
<g id="Node000006" class="node">
<title>Node6</title>
<g id="a_Node000006"><a xlink:href="../../da/deb/postgresql_2include_2userver_2storages_2postgres_2transaction_8hpp.html" target="_top" xlink:title="Transactions.">
<polygon fill="white" stroke="#666666" points="517,-162 374,-162 374,-132 517,-132 517,-162"/>
<text text-anchor="start" x="382" y="-150" font-family="Helvetica,sans-Serif" font-size="10.00">userver/storages/postgres</text>
<text text-anchor="middle" x="445.5" y="-139" font-family="Helvetica,sans-Serif" font-size="10.00">/transaction.hpp</text>
</a>
</g>
</g>
<!-- Node4&#45;&gt;Node6 -->
<g id="edge13_Node000004_Node000006" class="edge">
<title>Node4&#45;&gt;Node6</title>
<g id="a_edge13_Node000004_Node000006"><a xlink:title=" ">
<path fill="none" stroke="#63b8ff" d="M393.29,-258.29C382.28,-250.45 371.56,-240.32 365.5,-228 359.61,-216.04 359.04,-209.66 365.5,-198 374.55,-181.67 391.41,-169.97 407.32,-162.01"/>
<polygon fill="#63b8ff" stroke="#63b8ff" points="391.41,-261.25 401.69,-263.84 395.27,-255.41 391.41,-261.25"/>
</a>
</g>
</g>
<!-- Node9 -->
<g id="Node000009" class="node">
<title>Node9</title>
<g id="a_Node000009"><a xlink:href="../../df/d02/postgres_8hpp.html" target="_top" xlink:title=" ">
<polygon fill="white" stroke="#666666" points="617,-30 474,-30 474,0 617,0 617,-30"/>
<text text-anchor="start" x="482" y="-18" font-family="Helvetica,sans-Serif" font-size="10.00">userver/storages/postgres</text>
<text text-anchor="middle" x="545.5" y="-7" font-family="Helvetica,sans-Serif" font-size="10.00">/postgres.hpp</text>
</a>
</g>
</g>
<!-- Node4&#45;&gt;Node9 -->
<g id="edge10_Node000004_Node000009" class="edge">
<title>Node4&#45;&gt;Node9</title>
<g id="a_edge10_Node000004_Node000009"><a xlink:title=" ">
<path fill="none" stroke="#63b8ff" d="M487.87,-259.68C502.75,-252.18 517.19,-241.9 526.5,-228 568.75,-164.9 555.41,-66.5 548.51,-30.13"/>
<polygon fill="#63b8ff" stroke="#63b8ff" points="486.18,-256.6 478.59,-263.99 489.13,-262.95 486.18,-256.6"/>
</a>
</g>
</g>
<!-- Node10 -->
<g id="Node000010" class="node">
<title>Node10</title>
<g id="a_Node000010"><a xlink:href="../../d8/d63/query__queue_8hpp.html" target="_top" xlink:title="An utility to execute multiple queries in a single network round&#45;trip.">
<polygon fill="white" stroke="#666666" points="717,-162 574,-162 574,-132 717,-132 717,-162"/>
<text text-anchor="start" x="582" y="-150" font-family="Helvetica,sans-Serif" font-size="10.00">userver/storages/postgres</text>
<text text-anchor="middle" x="645.5" y="-139" font-family="Helvetica,sans-Serif" font-size="10.00">/query_queue.hpp</text>
</a>
</g>
</g>
<!-- Node4&#45;&gt;Node10 -->
<g id="edge11_Node000004_Node000010" class="edge">
<title>Node4&#45;&gt;Node10</title>
<g id="a_edge11_Node000004_Node000010"><a xlink:title=" ">
<path fill="none" stroke="#63b8ff" d="M489.04,-260.61C511.94,-252.47 537.86,-241.55 559.5,-228 589.23,-209.38 617.83,-179.67 633.4,-162.17"/>
<polygon fill="#63b8ff" stroke="#63b8ff" points="487.74,-257.35 479.43,-263.92 490.02,-263.97 487.74,-257.35"/>
</a>
</g>
</g>
<!-- Node11 -->
<g id="Node000011" class="node">
<title>Node11</title>
<g id="a_Node000011"><a xlink:href="../../d1/dee/typed__result__set_8hpp.html" target="_top" xlink:title="Typed PostgreSQL results.">
<polygon fill="white" stroke="#666666" points="317,-228 174,-228 174,-198 317,-198 317,-228"/>
<text text-anchor="start" x="182" y="-216" font-family="Helvetica,sans-Serif" font-size="10.00">userver/storages/postgres</text>
<text text-anchor="middle" x="245.5" y="-205" font-family="Helvetica,sans-Serif" font-size="10.00">/typed_result_set.hpp</text>
</a>
</g>
</g>
<!-- Node4&#45;&gt;Node11 -->
<g id="edge14_Node000004_Node000011" class="edge">
<title>Node4&#45;&gt;Node11</title>
<g id="a_edge14_Node000004_Node000011"><a xlink:title=" ">
<path fill="none" stroke="#63b8ff" d="M374.49,-260.72C343.83,-250.47 306.85,-237.63 280.31,-228.01"/>
<polygon fill="#63b8ff" stroke="#63b8ff" points="373.61,-264.12 384.2,-263.95 375.82,-257.48 373.61,-264.12"/>
</a>
</g>
</g>
<!-- Node5&#45;&gt;Node6 -->
<g id="edge5_Node000005_Node000006" class="edge">
<title>Node5&#45;&gt;Node6</title>
<g id="a_edge5_Node000005_Node000006"><a xlink:title=" ">
<path fill="none" stroke="#63b8ff" d="M445.5,-187.54C445.5,-178.96 445.5,-169.61 445.5,-162.16"/>
<polygon fill="#63b8ff" stroke="#63b8ff" points="442,-187.8 445.5,-197.8 449,-187.8 442,-187.8"/>
</a>
</g>
</g>
<!-- Node7 -->
<g id="Node000007" class="node">
<title>Node7</title>
<g id="a_Node000007"><a xlink:href="../../de/dd3/postgresql_2include_2userver_2storages_2postgres_2cluster_8hpp.html" target="_top" xlink:title="Interface for executing queries on a cluster of PostgreSQL servers.">
<polygon fill="white" stroke="#666666" points="717,-96 574,-96 574,-66 717,-66 717,-96"/>
<text text-anchor="start" x="582" y="-84" font-family="Helvetica,sans-Serif" font-size="10.00">userver/storages/postgres</text>
<text text-anchor="middle" x="645.5" y="-73" font-family="Helvetica,sans-Serif" font-size="10.00">/cluster.hpp</text>
</a>
</g>
</g>
<!-- Node6&#45;&gt;Node7 -->
<g id="edge6_Node000006_Node000007" class="edge">
<title>Node6&#45;&gt;Node7</title>
<g id="a_edge6_Node000006_Node000007"><a xlink:title=" ">
<path fill="none" stroke="#63b8ff" d="M499.07,-128.86C531.19,-118.58 571.51,-105.68 601.71,-96.01"/>
<polygon fill="#63b8ff" stroke="#63b8ff" points="497.85,-125.57 489.39,-131.95 499.98,-132.24 497.85,-125.57"/>
</a>
</g>
</g>
<!-- Node6&#45;&gt;Node9 -->
<g id="edge9_Node000006_Node000009" class="edge">
<title>Node6&#45;&gt;Node9</title>
<g id="a_edge9_Node000006_Node000009"><a xlink:title=" ">
<path fill="none" stroke="#63b8ff" d="M462.58,-123.8C483.2,-96.99 517.27,-52.7 534.62,-30.14"/>
<polygon fill="#63b8ff" stroke="#63b8ff" points="459.72,-121.78 456.39,-131.84 465.26,-126.05 459.72,-121.78"/>
</a>
</g>
</g>
<!-- Node8 -->
<g id="Node000008" class="node">
<title>Node8</title>
<g id="a_Node000008"><a xlink:href="../../dc/df7/base__postgres__cache_8hpp.html" target="_top" xlink:title="Caching component for PostgreSQL. See Caching Component for PostgreSQL.">
<polygon fill="white" stroke="#666666" points="779,-30 660,-30 660,0 779,0 779,-30"/>
<text text-anchor="start" x="668" y="-18" font-family="Helvetica,sans-Serif" font-size="10.00">userver/cache/base</text>
<text text-anchor="middle" x="719.5" y="-7" font-family="Helvetica,sans-Serif" font-size="10.00">_postgres_cache.hpp</text>
</a>
</g>
</g>
<!-- Node7&#45;&gt;Node8 -->
<g id="edge7_Node000007_Node000008" class="edge">
<title>Node7&#45;&gt;Node8</title>
<g id="a_edge7_Node000007_Node000008"><a xlink:title=" ">
<path fill="none" stroke="#63b8ff" d="M669.55,-59.2C680.53,-49.7 693.26,-38.69 703.12,-30.16"/>
<polygon fill="#63b8ff" stroke="#63b8ff" points="667.2,-56.61 661.92,-65.8 671.78,-61.9 667.2,-56.61"/>
</a>
</g>
</g>
<!-- Node7&#45;&gt;Node9 -->
<g id="edge8_Node000007_Node000009" class="edge">
<title>Node7&#45;&gt;Node9</title>
<g id="a_edge8_Node000007_Node000009"><a xlink:title=" ">
<path fill="none" stroke="#63b8ff" d="M614.72,-60.3C599.5,-50.56 581.47,-39.02 567.63,-30.16"/>
<polygon fill="#63b8ff" stroke="#63b8ff" points="613,-63.35 623.31,-65.8 616.77,-57.46 613,-63.35"/>
</a>
</g>
</g>
<!-- Node10&#45;&gt;Node7 -->
<g id="edge12_Node000010_Node000007" class="edge">
<title>Node10&#45;&gt;Node7</title>
<g id="a_edge12_Node000010_Node000007"><a xlink:title=" ">
<path fill="none" stroke="#63b8ff" d="M645.5,-121.54C645.5,-112.96 645.5,-103.61 645.5,-96.16"/>
<polygon fill="#63b8ff" stroke="#63b8ff" points="642,-121.8 645.5,-131.8 649,-121.8 642,-121.8"/>
</a>
</g>
</g>
<!-- Node11&#45;&gt;Node4 -->
<g id="edge15_Node000011_Node000004" class="edge">
<title>Node11&#45;&gt;Node4</title>
<g id="a_edge15_Node000011_Node000004"><a xlink:title=" ">
<path fill="none" stroke="#63b8ff" d="M301.41,-231.24C332.05,-241.49 369.03,-254.33 395.6,-263.95"/>
<polygon fill="#63b8ff" stroke="#63b8ff" points="302.29,-227.85 291.7,-228.01 300.08,-234.49 302.29,-227.85"/>
</a>
</g>
</g>
<!-- Node12&#45;&gt;Node3 -->
<g id="edge17_Node000012_Node000003" class="edge">
<title>Node12&#45;&gt;Node3</title>
<g id="a_edge17_Node000012_Node000003"><a xlink:title=" ">
<path fill="none" stroke="#63b8ff" d="M430.5,-385.54C430.5,-376.96 430.5,-367.61 430.5,-360.16"/>
<polygon fill="#63b8ff" stroke="#63b8ff" points="427,-385.8 430.5,-395.8 434,-385.8 427,-385.8"/>
</a>
</g>
</g>
<!-- Node13&#45;&gt;Node3 -->
<g id="edge19_Node000013_Node000003" class="edge">
<title>Node13&#45;&gt;Node3</title>
<g id="a_edge19_Node000013_Node000003"><a xlink:title=" ">
<path fill="none" stroke="#63b8ff" d="M546.69,-392.19C521.13,-382.02 489.53,-369.47 465.75,-360.01"/>
<polygon fill="#63b8ff" stroke="#63b8ff" points="545.58,-395.51 556.17,-395.95 548.17,-389.01 545.58,-395.51"/>
</a>
</g>
</g>
<!-- Node15&#45;&gt;Node3 -->
<g id="edge22_Node000015_Node000003" class="edge">
<title>Node15&#45;&gt;Node3</title>
<g id="a_edge22_Node000015_Node000003"><a xlink:title=" ">
<path fill="none" stroke="#63b8ff" d="M612.62,-459.14C655.4,-446 696.17,-425.06 672.5,-396 651.3,-369.97 565.58,-357.08 502.15,-350.99"/>
<polygon fill="#63b8ff" stroke="#63b8ff" points="611.52,-455.82 602.9,-461.99 613.49,-462.54 611.52,-455.82"/>
</a>
</g>
</g>
<!-- Node16&#45;&gt;Node3 -->
<g id="edge24_Node000016_Node000003" class="edge">
<title>Node16&#45;&gt;Node3</title>
<g id="a_edge24_Node000016_Node000003"><a xlink:title=" ">
<path fill="none" stroke="#63b8ff" d="M132.29,-451.74C134.23,-433.74 139.85,-409.99 155.5,-396 184.85,-369.76 287.46,-356.7 358.68,-350.65"/>
<polygon fill="#63b8ff" stroke="#63b8ff" points="128.8,-451.57 131.52,-461.81 135.77,-452.11 128.8,-451.57"/>
</a>
</g>
</g>
<!-- Node18 -->
<g id="Node000018" class="node">
<title>Node18</title>
<g id="a_Node000018"><a xlink:href="../../d6/db8/chrono_8hpp.html" target="_top" xlink:title="Timestamp (std::chrono::*) I/O support.">
<polygon fill="white" stroke="#666666" points="863,-426 720,-426 720,-396 863,-396 863,-426"/>
<text text-anchor="start" x="728" y="-414" font-family="Helvetica,sans-Serif" font-size="10.00">userver/storages/postgres</text>
<text text-anchor="middle" x="791.5" y="-403" font-family="Helvetica,sans-Serif" font-size="10.00">/io/chrono.hpp</text>
</a>
</g>
</g>
<!-- Node17&#45;&gt;Node18 -->
<g id="edge27_Node000017_Node000018" class="edge">
<title>Node17&#45;&gt;Node18</title>
<g id="a_edge27_Node000017_Node000018"><a xlink:title=" ">
<path fill="none" stroke="#63b8ff" d="M727.52,-456.03C741.59,-446.34 758.17,-434.94 770.92,-426.16"/>
<polygon fill="#63b8ff" stroke="#63b8ff" points="725.39,-453.24 719.14,-461.8 729.36,-459.01 725.39,-453.24"/>
</a>
</g>
</g>
<!-- Node18&#45;&gt;Node3 -->
<g id="edge29_Node000018_Node000003" class="edge">
<title>Node18&#45;&gt;Node3</title>
<g id="a_edge29_Node000018_Node000003"><a xlink:title=" ">
<path fill="none" stroke="#63b8ff" d="M709.53,-395.47C647.06,-384.39 561.88,-369.29 502.12,-358.7"/>
<polygon fill="#63b8ff" stroke="#63b8ff" points="709.29,-398.98 719.75,-397.28 710.51,-392.09 709.29,-398.98"/>
</a>
</g>
</g>
<!-- Node18&#45;&gt;Node8 -->
<g id="edge28_Node000018_Node000008" class="edge">
<title>Node18&#45;&gt;Node8</title>
<g id="a_edge28_Node000018_Node000008"><a xlink:title=" ">
<path fill="none" stroke="#63b8ff" d="M786.68,-385.55C781.97,-359.5 775.5,-317.01 775.5,-280 775.5,-280 775.5,-280 775.5,-146 775.5,-100.78 746.57,-53.41 730.3,-30.34"/>
<polygon fill="#63b8ff" stroke="#63b8ff" points="783.29,-386.46 788.57,-395.64 790.17,-385.17 783.29,-386.46"/>
</a>
</g>
</g>
<!-- Node19&#45;&gt;Node6 -->
<g id="edge31_Node000019_Node000006" class="edge">
<title>Node19&#45;&gt;Node6</title>
<g id="a_edge31_Node000019_Node000006"><a xlink:title=" ">
<path fill="none" stroke="#63b8ff" d="M79.81,-320.18C92.68,-287.07 120.71,-227.84 165.5,-198 198.84,-175.79 302.39,-161.65 373.76,-154.27"/>
<polygon fill="#63b8ff" stroke="#63b8ff" points="76.53,-318.96 76.3,-329.56 83.08,-321.42 76.53,-318.96"/>
</a>
</g>
</g>
</g>
</svg>
