<?xml version="1.0" encoding="UTF-8" standalone="no"?>
<!DOCTYPE svg PUBLIC "-//W3C//DTD SVG 1.1//EN"
 "http://www.w3.org/Graphics/SVG/1.1/DTD/svg11.dtd">
<!-- Generated by graphviz version 2.43.0 (0)
 -->
<!-- Title: userver/storages/mongo/bulk.hpp Pages: 1 -->
<svg width="701pt" height="302pt"
 viewBox="0.00 0.00 700.50 302.00" xmlns="http://www.w3.org/2000/svg" xmlns:xlink="http://www.w3.org/1999/xlink">
<g id="graph0" class="graph" transform="scale(1 1) rotate(0) translate(4 298)">
<title>userver/storages/mongo/bulk.hpp</title>
<!-- Node1 -->
<g id="Node000001" class="node">
<title>Node1</title>
<g id="a_Node000001"><a xlink:title="Bulk collection operation model.">
<polygon fill="#999999" stroke="#666666" points="526,-294 391,-294 391,-264 526,-264 526,-294"/>
<text text-anchor="start" x="399" y="-282" font-family="Helvetica,sans-Serif" font-size="10.00">userver/storages/mongo</text>
<text text-anchor="middle" x="458.5" y="-271" font-family="Helvetica,sans-Serif" font-size="10.00">/bulk.hpp</text>
</a>
</g>
</g>
<!-- Node2 -->
<g id="Node000002" class="node">
<title>Node2</title>
<g id="a_Node000002"><a xlink:href="../../d2/d86/mongo_8hpp.html" target="_top" xlink:title="Include&#45;all header for MongoDB client.">
<polygon fill="white" stroke="#666666" points="692.5,-90.5 536.5,-90.5 536.5,-71.5 692.5,-71.5 692.5,-90.5"/>
<text text-anchor="middle" x="614.5" y="-78.5" font-family="Helvetica,sans-Serif" font-size="10.00">userver/storages/mongo.hpp</text>
</a>
</g>
</g>
<!-- Node1&#45;&gt;Node2 -->
<g id="edge1_Node000001_Node000002" class="edge">
<title>Node1&#45;&gt;Node2</title>
<g id="a_edge1_Node000001_Node000002"><a xlink:title=" ">
<path fill="none" stroke="#63b8ff" d="M476.35,-255.85C495.12,-232.54 525.47,-194.76 551.5,-162 571.96,-136.26 595.94,-105.69 607.53,-90.9"/>
<polygon fill="#63b8ff" stroke="#63b8ff" points="473.54,-253.76 469.99,-263.75 478.99,-258.15 473.54,-253.76"/>
</a>
</g>
</g>
<!-- Node3 -->
<g id="Node000003" class="node">
<title>Node3</title>
<g id="a_Node000003"><a xlink:href="../../d4/db6/collection_8hpp.html" target="_top" xlink:title="MongoDB collection handle, the main way to operate with MongoDB.">
<polygon fill="white" stroke="#666666" points="459,-228 324,-228 324,-198 459,-198 459,-228"/>
<text text-anchor="start" x="332" y="-216" font-family="Helvetica,sans-Serif" font-size="10.00">userver/storages/mongo</text>
<text text-anchor="middle" x="391.5" y="-205" font-family="Helvetica,sans-Serif" font-size="10.00">/collection.hpp</text>
</a>
</g>
</g>
<!-- Node1&#45;&gt;Node3 -->
<g id="edge2_Node000001_Node000003" class="edge">
<title>Node1&#45;&gt;Node3</title>
<g id="a_edge2_Node000001_Node000003"><a xlink:title=" ">
<path fill="none" stroke="#63b8ff" d="M436.15,-256.65C426.33,-247.27 415.08,-236.53 406.33,-228.16"/>
<polygon fill="#63b8ff" stroke="#63b8ff" points="433.98,-259.42 443.63,-263.8 438.82,-254.36 433.98,-259.42"/>
</a>
</g>
</g>
<!-- Node3&#45;&gt;Node2 -->
<g id="edge4_Node000003_Node000002" class="edge">
<title>Node3&#45;&gt;Node2</title>
<g id="a_edge4_Node000003_Node000002"><a xlink:title=" ">
<path fill="none" stroke="#63b8ff" d="M445.33,-194.56C468.04,-186.17 494.3,-175.08 516.5,-162 552.64,-140.7 589.4,-106.65 605.74,-90.73"/>
<polygon fill="#63b8ff" stroke="#63b8ff" points="444.05,-191.3 435.84,-197.98 446.43,-197.88 444.05,-191.3"/>
</a>
</g>
</g>
<!-- Node4 -->
<g id="Node000004" class="node">
<title>Node4</title>
<g id="a_Node000004"><a xlink:href="../../dd/d6c/base__mongo__cache_8hpp.html" target="_top" xlink:title="Base class for all caches polling mongo collection">
<polygon fill="white" stroke="#666666" points="315,-162 204,-162 204,-132 315,-132 315,-162"/>
<text text-anchor="start" x="212" y="-150" font-family="Helvetica,sans-Serif" font-size="10.00">userver/cache/base</text>
<text text-anchor="middle" x="259.5" y="-139" font-family="Helvetica,sans-Serif" font-size="10.00">_mongo_cache.hpp</text>
</a>
</g>
</g>
<!-- Node3&#45;&gt;Node4 -->
<g id="edge3_Node000003_Node000004" class="edge">
<title>Node3&#45;&gt;Node4</title>
<g id="a_edge3_Node000003_Node000004"><a xlink:title=" ">
<path fill="none" stroke="#63b8ff" d="M353.37,-193.51C332.66,-183.47 307.47,-171.26 288.4,-162.01"/>
<polygon fill="#63b8ff" stroke="#63b8ff" points="352.01,-196.74 362.53,-197.95 355.06,-190.44 352.01,-196.74"/>
</a>
</g>
</g>
<!-- Node5 -->
<g id="Node000005" class="node">
<title>Node5</title>
<g id="a_Node000005"><a xlink:href="../../d5/d93/mongo_2include_2userver_2storages_2mongo_2dist__lock__component__base_8hpp.html" target="_top" xlink:title="Base class for mongo&#45;based distlock worker components.">
<polygon fill="white" stroke="#666666" points="173,-96 0,-96 0,-66 173,-66 173,-96"/>
<text text-anchor="start" x="8" y="-84" font-family="Helvetica,sans-Serif" font-size="10.00">userver/storages/mongo</text>
<text text-anchor="middle" x="86.5" y="-73" font-family="Helvetica,sans-Serif" font-size="10.00">/dist_lock_component_base.hpp</text>
</a>
</g>
</g>
<!-- Node3&#45;&gt;Node5 -->
<g id="edge5_Node000003_Node000005" class="edge">
<title>Node3&#45;&gt;Node5</title>
<g id="a_edge5_Node000003_Node000005"><a xlink:title=" ">
<path fill="none" stroke="#63b8ff" d="M378.19,-189.3C366.23,-170.95 346.95,-145.96 323.5,-132 309.77,-123.82 228.79,-107.73 165.26,-96"/>
<polygon fill="#63b8ff" stroke="#63b8ff" points="375.34,-191.33 383.62,-197.94 381.27,-187.61 375.34,-191.33"/>
</a>
</g>
</g>
<!-- Node6 -->
<g id="Node000006" class="node">
<title>Node6</title>
<g id="a_Node000006"><a xlink:href="../../d6/d83/mongo_2include_2userver_2storages_2mongo_2dist__lock__strategy_8hpp_source.html" target="_top" xlink:title=" ">
<polygon fill="white" stroke="#666666" points="175,-162 40,-162 40,-132 175,-132 175,-162"/>
<text text-anchor="start" x="48" y="-150" font-family="Helvetica,sans-Serif" font-size="10.00">userver/storages/mongo</text>
<text text-anchor="middle" x="107.5" y="-139" font-family="Helvetica,sans-Serif" font-size="10.00">/dist_lock_strategy.hpp</text>
</a>
</g>
</g>
<!-- Node3&#45;&gt;Node6 -->
<g id="edge6_Node000003_Node000006" class="edge">
<title>Node3&#45;&gt;Node6</title>
<g id="a_edge6_Node000003_Node000006"><a xlink:title=" ">
<path fill="none" stroke="#63b8ff" d="M319.23,-195.71C273.04,-185.31 213.76,-171.95 169.68,-162.01"/>
<polygon fill="#63b8ff" stroke="#63b8ff" points="318.65,-199.17 329.17,-197.95 320.19,-192.34 318.65,-199.17"/>
</a>
</g>
</g>
<!-- Node7 -->
<g id="Node000007" class="node">
<title>Node7</title>
<g id="a_Node000007"><a xlink:href="../../d3/dc1/pool_8hpp.html" target="_top" xlink:title="MongoDB client pool.">
<polygon fill="white" stroke="#666666" points="507,-162 372,-162 372,-132 507,-132 507,-162"/>
<text text-anchor="start" x="380" y="-150" font-family="Helvetica,sans-Serif" font-size="10.00">userver/storages/mongo</text>
<text text-anchor="middle" x="439.5" y="-139" font-family="Helvetica,sans-Serif" font-size="10.00">/pool.hpp</text>
</a>
</g>
</g>
<!-- Node3&#45;&gt;Node7 -->
<g id="edge8_Node000003_Node000007" class="edge">
<title>Node3&#45;&gt;Node7</title>
<g id="a_edge8_Node000003_Node000007"><a xlink:title=" ">
<path fill="none" stroke="#63b8ff" d="M408.36,-189.53C415.18,-180.43 422.85,-170.19 428.88,-162.16"/>
<polygon fill="#63b8ff" stroke="#63b8ff" points="405.35,-187.7 402.15,-197.8 410.95,-191.9 405.35,-187.7"/>
</a>
</g>
</g>
<!-- Node6&#45;&gt;Node5 -->
<g id="edge7_Node000006_Node000005" class="edge">
<title>Node6&#45;&gt;Node5</title>
<g id="a_edge7_Node000006_Node000005"><a xlink:title=" ">
<path fill="none" stroke="#63b8ff" d="M99.66,-122.11C96.8,-113.38 93.65,-103.78 91.15,-96.16"/>
<polygon fill="#63b8ff" stroke="#63b8ff" points="96.4,-123.39 102.84,-131.8 103.05,-121.2 96.4,-123.39"/>
</a>
</g>
</g>
<!-- Node7&#45;&gt;Node2 -->
<g id="edge9_Node000007_Node000002" class="edge">
<title>Node7&#45;&gt;Node2</title>
<g id="a_edge9_Node000007_Node000002"><a xlink:title=" ">
<path fill="none" stroke="#63b8ff" d="M487.57,-128.42C521.29,-116.09 564.88,-100.15 591.21,-90.52"/>
<polygon fill="#63b8ff" stroke="#63b8ff" points="486.09,-125.23 477.9,-131.95 488.5,-131.81 486.09,-125.23"/>
</a>
</g>
</g>
<!-- Node8 -->
<g id="Node000008" class="node">
<title>Node8</title>
<g id="a_Node000008"><a xlink:href="../../d1/dd7/mongo_2include_2userver_2storages_2mongo_2component_8hpp.html" target="_top" xlink:title="MongoDB client component.">
<polygon fill="white" stroke="#666666" points="345,-30 210,-30 210,0 345,0 345,-30"/>
<text text-anchor="start" x="218" y="-18" font-family="Helvetica,sans-Serif" font-size="10.00">userver/storages/mongo</text>
<text text-anchor="middle" x="277.5" y="-7" font-family="Helvetica,sans-Serif" font-size="10.00">/component.hpp</text>
</a>
</g>
</g>
<!-- Node7&#45;&gt;Node8 -->
<g id="edge10_Node000007_Node000008" class="edge">
<title>Node7&#45;&gt;Node8</title>
<g id="a_edge10_Node000007_Node000008"><a xlink:title=" ">
<path fill="none" stroke="#63b8ff" d="M412.73,-125.73C400.94,-116.72 386.96,-105.92 374.5,-96 345.99,-73.29 313.4,-46.16 294.18,-30.05"/>
<polygon fill="#63b8ff" stroke="#63b8ff" points="410.8,-128.66 420.88,-131.94 415.05,-123.1 410.8,-128.66"/>
</a>
</g>
</g>
<!-- Node9 -->
<g id="Node000009" class="node">
<title>Node9</title>
<g id="a_Node000009"><a xlink:href="../../d2/de5/multi__mongo_8hpp_source.html" target="_top" xlink:title=" ">
<polygon fill="white" stroke="#666666" points="326,-96 191,-96 191,-66 326,-66 326,-96"/>
<text text-anchor="start" x="199" y="-84" font-family="Helvetica,sans-Serif" font-size="10.00">userver/storages/mongo</text>
<text text-anchor="middle" x="258.5" y="-73" font-family="Helvetica,sans-Serif" font-size="10.00">/multi_mongo.hpp</text>
</a>
</g>
</g>
<!-- Node7&#45;&gt;Node9 -->
<g id="edge11_Node000007_Node000009" class="edge">
<title>Node7&#45;&gt;Node9</title>
<g id="a_edge11_Node000007_Node000009"><a xlink:title=" ">
<path fill="none" stroke="#63b8ff" d="M390.26,-128.59C361.32,-118.36 325.22,-105.59 298.13,-96.01"/>
<polygon fill="#63b8ff" stroke="#63b8ff" points="389.18,-131.92 399.78,-131.95 391.52,-125.32 389.18,-131.92"/>
</a>
</g>
</g>
<!-- Node10 -->
<g id="Node000010" class="node">
<title>Node10</title>
<g id="a_Node000010"><a xlink:href="../../d7/d49/mongo__local_8hpp.html" target="_top" xlink:title=" ">
<polygon fill="white" stroke="#666666" points="518,-96 383,-96 383,-66 518,-66 518,-96"/>
<text text-anchor="start" x="391" y="-84" font-family="Helvetica,sans-Serif" font-size="10.00">userver/storages/mongo</text>
<text text-anchor="middle" x="450.5" y="-73" font-family="Helvetica,sans-Serif" font-size="10.00">/utest/mongo_local.hpp</text>
</a>
</g>
</g>
<!-- Node7&#45;&gt;Node10 -->
<g id="edge13_Node000007_Node000010" class="edge">
<title>Node7&#45;&gt;Node10</title>
<g id="a_edge13_Node000007_Node000010"><a xlink:title=" ">
<path fill="none" stroke="#63b8ff" d="M443.66,-121.83C445.14,-113.17 446.77,-103.7 448.07,-96.16"/>
<polygon fill="#63b8ff" stroke="#63b8ff" points="440.19,-121.35 441.94,-131.8 447.08,-122.53 440.19,-121.35"/>
</a>
</g>
</g>
<!-- Node9&#45;&gt;Node8 -->
<g id="edge12_Node000009_Node000008" class="edge">
<title>Node9&#45;&gt;Node8</title>
<g id="a_edge12_Node000009_Node000008"><a xlink:title=" ">
<path fill="none" stroke="#63b8ff" d="M265.59,-56.11C268.19,-47.38 271.03,-37.78 273.3,-30.16"/>
<polygon fill="#63b8ff" stroke="#63b8ff" points="262.21,-55.21 262.72,-65.8 268.92,-57.21 262.21,-55.21"/>
</a>
</g>
</g>
<!-- Node11 -->
<g id="Node000011" class="node">
<title>Node11</title>
<g id="a_Node000011"><a xlink:href="../../d0/d79/mongo__fixture_8hpp.html" target="_top" xlink:title=" ">
<polygon fill="white" stroke="#666666" points="520,-30 381,-30 381,0 520,0 520,-30"/>
<text text-anchor="start" x="389" y="-18" font-family="Helvetica,sans-Serif" font-size="10.00">userver/storages/mongo</text>
<text text-anchor="middle" x="450.5" y="-7" font-family="Helvetica,sans-Serif" font-size="10.00">/utest/mongo_fixture.hpp</text>
</a>
</g>
</g>
<!-- Node10&#45;&gt;Node11 -->
<g id="edge14_Node000010_Node000011" class="edge">
<title>Node10&#45;&gt;Node11</title>
<g id="a_edge14_Node000010_Node000011"><a xlink:title=" ">
<path fill="none" stroke="#63b8ff" d="M450.5,-55.54C450.5,-46.96 450.5,-37.61 450.5,-30.16"/>
<polygon fill="#63b8ff" stroke="#63b8ff" points="447,-55.8 450.5,-65.8 454,-55.8 447,-55.8"/>
</a>
</g>
</g>
</g>
</svg>
