<?xml version="1.0" encoding="UTF-8" standalone="no"?>
<!DOCTYPE svg PUBLIC "-//W3C//DTD SVG 1.1//EN"
 "http://www.w3.org/Graphics/SVG/1.1/DTD/svg11.dtd">
<!-- Generated by graphviz version 2.43.0 (0)
 -->
<!-- Title: tracing::TracingManagerComponentBase Pages: 1 -->
<svg width="392pt" height="137pt"
 viewBox="0.00 0.00 391.50 137.00" xmlns="http://www.w3.org/2000/svg" xmlns:xlink="http://www.w3.org/1999/xlink">
<g id="graph0" class="graph" transform="scale(1 1) rotate(0) translate(4 133)">
<title>tracing::TracingManagerComponentBase</title>
<!-- Node1 -->
<g id="Node000001" class="node">
<title>Node1</title>
<g id="a_Node000001"><a xlink:title="Base component for implementing TracingManager component.">
<polygon fill="#999999" stroke="#666666" points="310.5,-19 96.5,-19 96.5,0 310.5,0 310.5,-19"/>
<text text-anchor="middle" x="203.5" y="-7" font-family="Helvetica,sans-Serif" font-size="10.00">tracing::TracingManagerComponentBase</text>
</a>
</g>
</g>
<!-- Node2 -->
<g id="Node000002" class="node">
<title>Node2</title>
<g id="a_Node000002"><a xlink:href="../../d5/d69/classcomponents_1_1LoggableComponentBase.html" target="_top" xlink:title="Base class for all application components, it depends on components::Logger and components::Tracer.">
<polygon fill="white" stroke="#666666" points="207,-74 0,-74 0,-55 207,-55 207,-74"/>
<text text-anchor="middle" x="103.5" y="-62" font-family="Helvetica,sans-Serif" font-size="10.00">components::LoggableComponentBase</text>
</a>
</g>
</g>
<!-- Node2&#45;&gt;Node1 -->
<g id="edge1_Node000001_Node000002" class="edge">
<title>Node2&#45;&gt;Node1</title>
<g id="a_edge1_Node000001_Node000002"><a xlink:title=" ">
<path fill="none" stroke="#63b8ff" d="M128.53,-50.23C146.87,-40.51 171.24,-27.6 187.14,-19.17"/>
<polygon fill="#63b8ff" stroke="#63b8ff" points="126.76,-47.21 119.57,-54.98 130.04,-53.39 126.76,-47.21"/>
</a>
</g>
</g>
<!-- Node3 -->
<g id="Node000003" class="node">
<title>Node3</title>
<g id="a_Node000003"><a xlink:title=" ">
<polygon fill="white" stroke="#666666" points="199,-129 8,-129 8,-110 199,-110 199,-129"/>
<text text-anchor="middle" x="103.5" y="-117" font-family="Helvetica,sans-Serif" font-size="10.00">components::impl::ComponentBase</text>
</a>
</g>
</g>
<!-- Node3&#45;&gt;Node2 -->
<g id="edge2_Node000002_Node000003" class="edge">
<title>Node3&#45;&gt;Node2</title>
<g id="a_edge2_Node000002_Node000003"><a xlink:title=" ">
<path fill="none" stroke="#63b8ff" d="M103.5,-99.66C103.5,-90.93 103.5,-80.99 103.5,-74.09"/>
<polygon fill="#63b8ff" stroke="#63b8ff" points="100,-99.75 103.5,-109.75 107,-99.75 100,-99.75"/>
</a>
</g>
</g>
<!-- Node4 -->
<g id="Node000004" class="node">
<title>Node4</title>
<g id="a_Node000004"><a xlink:href="../../db/d3d/classtracing_1_1TracingManagerBase.html" target="_top" xlink:title="Base class for propagating trace context information in headers.">
<polygon fill="white" stroke="#666666" points="383.5,-74 225.5,-74 225.5,-55 383.5,-55 383.5,-74"/>
<text text-anchor="middle" x="304.5" y="-62" font-family="Helvetica,sans-Serif" font-size="10.00">tracing::TracingManagerBase</text>
</a>
</g>
</g>
<!-- Node4&#45;&gt;Node1 -->
<g id="edge3_Node000001_Node000004" class="edge">
<title>Node4&#45;&gt;Node1</title>
<g id="a_edge3_Node000001_Node000004"><a xlink:title=" ">
<path fill="none" stroke="#63b8ff" d="M279.22,-50.23C260.7,-40.51 236.08,-27.6 220.02,-19.17"/>
<polygon fill="#63b8ff" stroke="#63b8ff" points="277.79,-53.44 288.27,-54.98 281.04,-47.24 277.79,-53.44"/>
</a>
</g>
</g>
</g>
</svg>
