<?xml version="1.0" encoding="UTF-8" standalone="no"?>
<!DOCTYPE svg PUBLIC "-//W3C//DTD SVG 1.1//EN"
 "http://www.w3.org/Graphics/SVG/1.1/DTD/svg11.dtd">
<!-- Generated by graphviz version 2.43.0 (0)
 -->
<!-- Title: utils::TracefulException Pages: 1 -->
<svg width="1193pt" height="857pt"
 viewBox="0.00 0.00 1193.00 856.50" xmlns="http://www.w3.org/2000/svg" xmlns:xlink="http://www.w3.org/1999/xlink">
<g id="graph0" class="graph" transform="scale(1 1) rotate(0) translate(4 852.5)">
<title>utils::TracefulException</title>
<!-- Node1 -->
<g id="Node000001" class="node">
<title>Node1</title>
<g id="a_Node000001"><a xlink:title="Exception that remembers the backtrace at the point of its construction.">
<polygon fill="#999999" stroke="#666666" points="320,-512.5 190,-512.5 190,-493.5 320,-493.5 320,-512.5"/>
<text text-anchor="middle" x="255" y="-500.5" font-family="Helvetica,sans-Serif" font-size="10.00">utils::TracefulException</text>
</a>
</g>
</g>
<!-- Node4 -->
<g id="Node000004" class="node">
<title>Node4</title>
<g id="a_Node000004"><a xlink:href="../../d4/d92/classcrypto_1_1CryptoException.html" target="_top" xlink:title="Base exception.">
<polygon fill="white" stroke="#666666" points="515.5,-774.5 381.5,-774.5 381.5,-755.5 515.5,-755.5 515.5,-774.5"/>
<text text-anchor="middle" x="448.5" y="-762.5" font-family="Helvetica,sans-Serif" font-size="10.00">crypto::CryptoException</text>
</a>
</g>
</g>
<!-- Node1&#45;&gt;Node4 -->
<g id="edge3_Node000001_Node000004" class="edge">
<title>Node1&#45;&gt;Node4</title>
<g id="a_edge3_Node000001_Node000004"><a xlink:title=" ">
<path fill="none" stroke="#63b8ff" d="M268.95,-520.72C306.06,-571.5 411.95,-716.36 440.39,-755.28"/>
<polygon fill="#63b8ff" stroke="#63b8ff" points="271.77,-518.64 263.04,-512.64 266.12,-522.77 271.77,-518.64"/>
</a>
</g>
</g>
<!-- Node9 -->
<g id="Node000009" class="node">
<title>Node9</title>
<g id="a_Node000009"><a xlink:href="../../d2/d81/classengine_1_1io_1_1IoException.html" target="_top" xlink:title="Generic I/O error.">
<polygon fill="white" stroke="#666666" points="512.5,-620.5 384.5,-620.5 384.5,-601.5 512.5,-601.5 512.5,-620.5"/>
<text text-anchor="middle" x="448.5" y="-608.5" font-family="Helvetica,sans-Serif" font-size="10.00">engine::io::IoException</text>
</a>
</g>
</g>
<!-- Node1&#45;&gt;Node9 -->
<g id="edge8_Node000001_Node000009" class="edge">
<title>Node1&#45;&gt;Node9</title>
<g id="a_edge8_Node000001_Node000009"><a xlink:title=" ">
<path fill="none" stroke="#63b8ff" d="M277.1,-518.67C296.89,-532.99 327.62,-554.28 356,-570 378.08,-582.23 404.5,-593.76 423.26,-601.46"/>
<polygon fill="#63b8ff" stroke="#63b8ff" points="278.96,-515.69 268.82,-512.62 274.83,-521.34 278.96,-515.69"/>
</a>
</g>
</g>
<!-- Node16 -->
<g id="Node000016" class="node">
<title>Node16</title>
<g id="a_Node000016"><a xlink:href="../../d5/dc3/classengine_1_1subprocess_1_1ChildProcessStatusException.html" target="_top" xlink:title=" ">
<polygon fill="white" stroke="#bfbfbf" points="530.5,-561 366.5,-561 366.5,-531 530.5,-531 530.5,-561"/>
<text text-anchor="start" x="374.5" y="-549" font-family="Helvetica,sans-Serif" font-size="10.00">engine::subprocess</text>
<text text-anchor="middle" x="448.5" y="-538" font-family="Helvetica,sans-Serif" font-size="10.00">::ChildProcessStatusException</text>
</a>
</g>
</g>
<!-- Node1&#45;&gt;Node16 -->
<g id="edge15_Node000001_Node000016" class="edge">
<title>Node1&#45;&gt;Node16</title>
<g id="a_edge15_Node000001_Node000016"><a xlink:title=" ">
<path fill="none" stroke="#63b8ff" d="M308.44,-514.78C330.74,-519.78 357,-525.68 380.67,-530.99"/>
<polygon fill="#63b8ff" stroke="#63b8ff" points="309.02,-511.32 298.5,-512.54 307.49,-518.15 309.02,-511.32"/>
</a>
</g>
</g>
<!-- Node17 -->
<g id="Node000017" class="node">
<title>Node17</title>
<g id="a_Node000017"><a xlink:href="../../d5/d9e/classformats_1_1bson_1_1BsonException.html" target="_top" xlink:title="Generic BSON&#45;related exception.">
<polygon fill="white" stroke="#666666" points="529.5,-512.5 367.5,-512.5 367.5,-493.5 529.5,-493.5 529.5,-512.5"/>
<text text-anchor="middle" x="448.5" y="-500.5" font-family="Helvetica,sans-Serif" font-size="10.00">formats::bson::BsonException</text>
</a>
</g>
</g>
<!-- Node1&#45;&gt;Node17 -->
<g id="edge16_Node000001_Node000017" class="edge">
<title>Node1&#45;&gt;Node17</title>
<g id="a_edge16_Node000001_Node000017"><a xlink:title=" ">
<path fill="none" stroke="#63b8ff" d="M330.1,-503C342.25,-503 354.89,-503 367.18,-503"/>
<polygon fill="#63b8ff" stroke="#63b8ff" points="330.03,-499.5 320.03,-503 330.03,-506.5 330.03,-499.5"/>
</a>
</g>
</g>
<!-- Node24 -->
<g id="Node000024" class="node">
<title>Node24</title>
<g id="a_Node000024"><a xlink:href="../../d1/d7c/classrcu_1_1MissingKeyException.html" target="_top" xlink:title="Thrown on missing element access.">
<polygon fill="white" stroke="#666666" points="519,-475.5 378,-475.5 378,-456.5 519,-456.5 519,-475.5"/>
<text text-anchor="middle" x="448.5" y="-463.5" font-family="Helvetica,sans-Serif" font-size="10.00">rcu::MissingKeyException</text>
</a>
</g>
</g>
<!-- Node1&#45;&gt;Node24 -->
<g id="edge23_Node000001_Node000024" class="edge">
<title>Node1&#45;&gt;Node24</title>
<g id="a_edge23_Node000001_Node000024"><a xlink:title=" ">
<path fill="none" stroke="#63b8ff" d="M315.25,-491.55C341.8,-486.42 372.74,-480.44 398.02,-475.56"/>
<polygon fill="#63b8ff" stroke="#63b8ff" points="314.47,-488.14 305.32,-493.47 315.8,-495.01 314.47,-488.14"/>
</a>
</g>
</g>
<!-- Node25 -->
<g id="Node000025" class="node">
<title>Node25</title>
<g id="a_Node000025"><a xlink:href="../../d9/dc4/classstorages_1_1mongo_1_1MongoException.html" target="_top" xlink:title="Generic mongo&#45;related exception.">
<polygon fill="white" stroke="#666666" points="541,-304.5 356,-304.5 356,-285.5 541,-285.5 541,-304.5"/>
<text text-anchor="middle" x="448.5" y="-292.5" font-family="Helvetica,sans-Serif" font-size="10.00">storages::mongo::MongoException</text>
</a>
</g>
</g>
<!-- Node1&#45;&gt;Node25 -->
<g id="edge24_Node000001_Node000025" class="edge">
<title>Node1&#45;&gt;Node25</title>
<g id="a_edge24_Node000001_Node000025"><a xlink:title=" ">
<path fill="none" stroke="#63b8ff" d="M271.86,-485.77C310.38,-443.94 407.93,-337.98 438.32,-304.97"/>
<polygon fill="#63b8ff" stroke="#63b8ff" points="269.18,-483.52 264.98,-493.25 274.33,-488.26 269.18,-483.52"/>
</a>
</g>
</g>
<!-- Node39 -->
<g id="Node000039" class="node">
<title>Node39</title>
<g id="a_Node000039"><a xlink:href="../../d5/de0/classutils_1_1InvariantError.html" target="_top" xlink:title="Exception that is thrown on UINVARIANT violation.">
<polygon fill="white" stroke="#666666" points="503.5,-267.5 393.5,-267.5 393.5,-248.5 503.5,-248.5 503.5,-267.5"/>
<text text-anchor="middle" x="448.5" y="-255.5" font-family="Helvetica,sans-Serif" font-size="10.00">utils::InvariantError</text>
</a>
</g>
</g>
<!-- Node1&#45;&gt;Node39 -->
<g id="edge38_Node000001_Node000039" class="edge">
<title>Node1&#45;&gt;Node39</title>
<g id="a_edge38_Node000001_Node000039"><a xlink:title=" ">
<path fill="none" stroke="#63b8ff" d="M258.55,-483.26C265.42,-438.69 288.58,-329.97 356,-276 366.62,-267.5 380.12,-262.64 393.47,-259.95"/>
<polygon fill="#63b8ff" stroke="#63b8ff" points="255.06,-482.96 257.11,-493.36 261.99,-483.95 255.06,-482.96"/>
</a>
</g>
</g>
<!-- Node2 -->
<g id="Node000002" class="node">
<title>Node2</title>
<g id="a_Node000002"><a xlink:title=" ">
<polygon fill="white" stroke="#666666" points="120,-531.5 34,-531.5 34,-512.5 120,-512.5 120,-531.5"/>
<text text-anchor="middle" x="77" y="-519.5" font-family="Helvetica,sans-Serif" font-size="10.00">std::exception</text>
</a>
</g>
</g>
<!-- Node2&#45;&gt;Node1 -->
<g id="edge1_Node000001_Node000002" class="edge">
<title>Node2&#45;&gt;Node1</title>
<g id="a_edge1_Node000001_Node000002"><a xlink:title=" ">
<path fill="none" stroke="#63b8ff" d="M130.25,-516.36C148.95,-514.34 170.24,-512.04 189.83,-509.93"/>
<polygon fill="#63b8ff" stroke="#63b8ff" points="129.72,-512.9 120.16,-517.45 130.47,-519.86 129.72,-512.9"/>
</a>
</g>
</g>
<!-- Node3 -->
<g id="Node000003" class="node">
<title>Node3</title>
<g id="a_Node000003"><a xlink:href="../../d9/d28/classutils_1_1TracefulExceptionBase.html" target="_top" xlink:title="Base class implementing backtrace storage and message builder, published only for documentation purpo...">
<polygon fill="white" stroke="#666666" points="154,-494.5 0,-494.5 0,-475.5 154,-475.5 154,-494.5"/>
<text text-anchor="middle" x="77" y="-482.5" font-family="Helvetica,sans-Serif" font-size="10.00">utils::TracefulExceptionBase</text>
</a>
</g>
</g>
<!-- Node3&#45;&gt;Node1 -->
<g id="edge2_Node000001_Node000003" class="edge">
<title>Node3&#45;&gt;Node1</title>
<g id="a_edge2_Node000001_Node000003"><a xlink:title=" ">
<path fill="none" stroke="#63b8ff" d="M164.26,-493.82C172.87,-494.7 181.51,-495.59 189.84,-496.44"/>
<polygon fill="#63b8ff" stroke="#63b8ff" points="164.48,-490.33 154.17,-492.79 163.76,-497.29 164.48,-490.33"/>
</a>
</g>
</g>
<!-- Node5 -->
<g id="Node000005" class="node">
<title>Node5</title>
<g id="a_Node000005"><a xlink:href="../../da/d49/classcrypto_1_1KeyParseError.html" target="_top" xlink:title="Signing key parse error.">
<polygon fill="white" stroke="#666666" points="728.5,-848.5 607.5,-848.5 607.5,-829.5 728.5,-829.5 728.5,-848.5"/>
<text text-anchor="middle" x="668" y="-836.5" font-family="Helvetica,sans-Serif" font-size="10.00">crypto::KeyParseError</text>
</a>
</g>
</g>
<!-- Node4&#45;&gt;Node5 -->
<g id="edge4_Node000004_Node000005" class="edge">
<title>Node4&#45;&gt;Node5</title>
<g id="a_edge4_Node000004_Node000005"><a xlink:title=" ">
<path fill="none" stroke="#63b8ff" d="M477.04,-779.18C502.42,-791.74 541.43,-809.78 577,-821 587.33,-824.26 598.53,-827.06 609.4,-829.41"/>
<polygon fill="#63b8ff" stroke="#63b8ff" points="478.52,-776.01 468.02,-774.66 475.39,-782.27 478.52,-776.01"/>
</a>
</g>
</g>
<!-- Node6 -->
<g id="Node000006" class="node">
<title>Node6</title>
<g id="a_Node000006"><a xlink:href="../../dd/dc0/classcrypto_1_1SerializationError.html" target="_top" xlink:title="Serialization error.">
<polygon fill="white" stroke="#666666" points="736.5,-811.5 599.5,-811.5 599.5,-792.5 736.5,-792.5 736.5,-811.5"/>
<text text-anchor="middle" x="668" y="-799.5" font-family="Helvetica,sans-Serif" font-size="10.00">crypto::SerializationError</text>
</a>
</g>
</g>
<!-- Node4&#45;&gt;Node6 -->
<g id="edge5_Node000004_Node000006" class="edge">
<title>Node4&#45;&gt;Node6</title>
<g id="a_edge5_Node000004_Node000006"><a xlink:title=" ">
<path fill="none" stroke="#63b8ff" d="M515.6,-776.25C546.01,-781.42 581.71,-787.49 610.8,-792.44"/>
<polygon fill="#63b8ff" stroke="#63b8ff" points="515.96,-772.76 505.51,-774.53 514.78,-779.66 515.96,-772.76"/>
</a>
</g>
</g>
<!-- Node7 -->
<g id="Node000007" class="node">
<title>Node7</title>
<g id="a_Node000007"><a xlink:href="../../d2/deb/classcrypto_1_1SignError.html" target="_top" xlink:title="Signature generation error.">
<polygon fill="white" stroke="#666666" points="717,-774.5 619,-774.5 619,-755.5 717,-755.5 717,-774.5"/>
<text text-anchor="middle" x="668" y="-762.5" font-family="Helvetica,sans-Serif" font-size="10.00">crypto::SignError</text>
</a>
</g>
</g>
<!-- Node4&#45;&gt;Node7 -->
<g id="edge6_Node000004_Node000007" class="edge">
<title>Node4&#45;&gt;Node7</title>
<g id="a_edge6_Node000004_Node000007"><a xlink:title=" ">
<path fill="none" stroke="#63b8ff" d="M525.95,-765C556.83,-765 591.52,-765 618.78,-765"/>
<polygon fill="#63b8ff" stroke="#63b8ff" points="525.64,-761.5 515.64,-765 525.64,-768.5 525.64,-761.5"/>
</a>
</g>
</g>
<!-- Node8 -->
<g id="Node000008" class="node">
<title>Node8</title>
<g id="a_Node000008"><a xlink:href="../../d0/dc8/classcrypto_1_1VerificationError.html" target="_top" xlink:title="Signature verification error.">
<polygon fill="white" stroke="#666666" points="733.5,-737.5 602.5,-737.5 602.5,-718.5 733.5,-718.5 733.5,-737.5"/>
<text text-anchor="middle" x="668" y="-725.5" font-family="Helvetica,sans-Serif" font-size="10.00">crypto::VerificationError</text>
</a>
</g>
</g>
<!-- Node4&#45;&gt;Node8 -->
<g id="edge7_Node000004_Node000008" class="edge">
<title>Node4&#45;&gt;Node8</title>
<g id="a_edge7_Node000004_Node000008"><a xlink:title=" ">
<path fill="none" stroke="#63b8ff" d="M515.6,-753.75C546.01,-748.58 581.71,-742.51 610.8,-737.56"/>
<polygon fill="#63b8ff" stroke="#63b8ff" points="514.78,-750.34 505.51,-755.47 515.96,-757.24 514.78,-750.34"/>
</a>
</g>
</g>
<!-- Node10 -->
<g id="Node000010" class="node">
<title>Node10</title>
<g id="a_Node000010"><a xlink:href="../../dc/de4/classengine_1_1io_1_1IoInterrupted.html" target="_top" xlink:title="I/O interruption.">
<polygon fill="white" stroke="#666666" points="735,-700.5 601,-700.5 601,-681.5 735,-681.5 735,-700.5"/>
<text text-anchor="middle" x="668" y="-688.5" font-family="Helvetica,sans-Serif" font-size="10.00">engine::io::IoInterrupted</text>
</a>
</g>
</g>
<!-- Node9&#45;&gt;Node10 -->
<g id="edge9_Node000009_Node000010" class="edge">
<title>Node9&#45;&gt;Node10</title>
<g id="a_edge9_Node000009_Node000010"><a xlink:title=" ">
<path fill="none" stroke="#63b8ff" d="M474.7,-625.65C499.85,-639.69 539.98,-660.53 577,-673 586.82,-676.31 597.45,-679.1 607.85,-681.41"/>
<polygon fill="#63b8ff" stroke="#63b8ff" points="476.26,-622.51 465.83,-620.63 472.82,-628.6 476.26,-622.51"/>
</a>
</g>
</g>
<!-- Node13 -->
<g id="Node000013" class="node">
<title>Node13</title>
<g id="a_Node000013"><a xlink:href="../../d1/d90/classengine_1_1io_1_1IoSystemError.html" target="_top" xlink:title="Operating system I/O error.">
<polygon fill="white" stroke="#666666" points="738,-663.5 598,-663.5 598,-644.5 738,-644.5 738,-663.5"/>
<text text-anchor="middle" x="668" y="-651.5" font-family="Helvetica,sans-Serif" font-size="10.00">engine::io::IoSystemError</text>
</a>
</g>
</g>
<!-- Node9&#45;&gt;Node13 -->
<g id="edge12_Node000009_Node000013" class="edge">
<title>Node9&#45;&gt;Node13</title>
<g id="a_edge12_Node000009_Node000013"><a xlink:title=" ">
<path fill="none" stroke="#63b8ff" d="M507.78,-622.52C542.52,-629.39 586.09,-638 618.86,-644.48"/>
<polygon fill="#63b8ff" stroke="#63b8ff" points="508.26,-619.05 497.77,-620.54 506.9,-625.92 508.26,-619.05"/>
</a>
</g>
</g>
<!-- Node14 -->
<g id="Node000014" class="node">
<title>Node14</title>
<g id="a_Node000014"><a xlink:href="../../dd/d4c/classengine_1_1io_1_1TerminatorNotFoundException.html" target="_top" xlink:title=" ">
<polygon fill="white" stroke="#bfbfbf" points="738,-626 598,-626 598,-596 738,-596 738,-626"/>
<text text-anchor="start" x="606" y="-614" font-family="Helvetica,sans-Serif" font-size="10.00">engine::io::TerminatorNot</text>
<text text-anchor="middle" x="668" y="-603" font-family="Helvetica,sans-Serif" font-size="10.00">FoundException</text>
</a>
</g>
</g>
<!-- Node9&#45;&gt;Node14 -->
<g id="edge13_Node000009_Node000014" class="edge">
<title>Node9&#45;&gt;Node14</title>
<g id="a_edge13_Node000009_Node000014"><a xlink:title=" ">
<path fill="none" stroke="#63b8ff" d="M522.91,-611C547.16,-611 574.02,-611 597.93,-611"/>
<polygon fill="#63b8ff" stroke="#63b8ff" points="522.7,-607.5 512.7,-611 522.7,-614.5 522.7,-607.5"/>
</a>
</g>
</g>
<!-- Node15 -->
<g id="Node000015" class="node">
<title>Node15</title>
<g id="a_Node000015"><a xlink:href="../../d1/d1d/classengine_1_1io_1_1TlsException.html" target="_top" xlink:title="TLS I/O error.">
<polygon fill="white" stroke="#666666" points="734.5,-577.5 601.5,-577.5 601.5,-558.5 734.5,-558.5 734.5,-577.5"/>
<text text-anchor="middle" x="668" y="-565.5" font-family="Helvetica,sans-Serif" font-size="10.00">engine::io::TlsException</text>
</a>
</g>
</g>
<!-- Node9&#45;&gt;Node15 -->
<g id="edge14_Node000009_Node000015" class="edge">
<title>Node9&#45;&gt;Node15</title>
<g id="a_edge14_Node000009_Node000015"><a xlink:title=" ">
<path fill="none" stroke="#63b8ff" d="M507.78,-599.48C542.52,-592.61 586.09,-584 618.86,-577.52"/>
<polygon fill="#63b8ff" stroke="#63b8ff" points="506.9,-596.08 497.77,-601.46 508.26,-602.95 506.9,-596.08"/>
</a>
</g>
</g>
<!-- Node11 -->
<g id="Node000011" class="node">
<title>Node11</title>
<g id="a_Node000011"><a xlink:href="../../df/de3/classengine_1_1io_1_1IoCancelled.html" target="_top" xlink:title=" ">
<polygon fill="white" stroke="#666666" points="951,-718.5 823,-718.5 823,-699.5 951,-699.5 951,-718.5"/>
<text text-anchor="middle" x="887" y="-706.5" font-family="Helvetica,sans-Serif" font-size="10.00">engine::io::IoCancelled</text>
</a>
</g>
</g>
<!-- Node10&#45;&gt;Node11 -->
<g id="edge10_Node000010_Node000011" class="edge">
<title>Node10&#45;&gt;Node11</title>
<g id="a_edge10_Node000010_Node000011"><a xlink:title=" ">
<path fill="none" stroke="#63b8ff" d="M745.56,-697.35C770.8,-699.44 798.58,-701.75 822.72,-703.75"/>
<polygon fill="#63b8ff" stroke="#63b8ff" points="745.54,-693.84 735.29,-696.5 744.96,-700.81 745.54,-693.84"/>
</a>
</g>
</g>
<!-- Node12 -->
<g id="Node000012" class="node">
<title>Node12</title>
<g id="a_Node000012"><a xlink:href="../../de/d2d/classengine_1_1io_1_1IoTimeout.html" target="_top" xlink:title="I/O timeout.">
<polygon fill="white" stroke="#666666" points="947,-681.5 827,-681.5 827,-662.5 947,-662.5 947,-681.5"/>
<text text-anchor="middle" x="887" y="-669.5" font-family="Helvetica,sans-Serif" font-size="10.00">engine::io::IoTimeout</text>
</a>
</g>
</g>
<!-- Node10&#45;&gt;Node12 -->
<g id="edge11_Node000010_Node000012" class="edge">
<title>Node10&#45;&gt;Node12</title>
<g id="a_edge11_Node000010_Node000012"><a xlink:title=" ">
<path fill="none" stroke="#63b8ff" d="M745.37,-684.31C772.08,-681.97 801.65,-679.39 826.75,-677.19"/>
<polygon fill="#63b8ff" stroke="#63b8ff" points="744.94,-680.84 735.29,-685.2 745.55,-687.81 744.94,-680.84"/>
</a>
</g>
</g>
<!-- Node18 -->
<g id="Node000018" class="node">
<title>Node18</title>
<g id="a_Node000018"><a xlink:href="../../d8/d55/classformats_1_1bson_1_1ExceptionWithPath.html" target="_top" xlink:title=" ">
<polygon fill="white" stroke="#bfbfbf" points="737,-540 599,-540 599,-510 737,-510 737,-540"/>
<text text-anchor="start" x="607" y="-528" font-family="Helvetica,sans-Serif" font-size="10.00">formats::bson::Exception</text>
<text text-anchor="middle" x="668" y="-517" font-family="Helvetica,sans-Serif" font-size="10.00">WithPath</text>
</a>
</g>
</g>
<!-- Node17&#45;&gt;Node18 -->
<g id="edge17_Node000017_Node000018" class="edge">
<title>Node17&#45;&gt;Node18</title>
<g id="a_edge17_Node000017_Node000018"><a xlink:title=" ">
<path fill="none" stroke="#63b8ff" d="M539.54,-512.11C559.38,-514.11 580.09,-516.21 598.9,-518.11"/>
<polygon fill="#63b8ff" stroke="#63b8ff" points="539.86,-508.62 529.56,-511.1 539.16,-515.59 539.86,-508.62"/>
</a>
</g>
</g>
<!-- Node23 -->
<g id="Node000023" class="node">
<title>Node23</title>
<g id="a_Node000023"><a xlink:href="../../d8/d86/classformats_1_1bson_1_1ParseException.html" target="_top" xlink:title="BSON parsing error.">
<polygon fill="white" stroke="#666666" points="750,-491.5 586,-491.5 586,-472.5 750,-472.5 750,-491.5"/>
<text text-anchor="middle" x="668" y="-479.5" font-family="Helvetica,sans-Serif" font-size="10.00">formats::bson::ParseException</text>
</a>
</g>
</g>
<!-- Node17&#45;&gt;Node23 -->
<g id="edge22_Node000017_Node000023" class="edge">
<title>Node17&#45;&gt;Node23</title>
<g id="a_edge22_Node000017_Node000023"><a xlink:title=" ">
<path fill="none" stroke="#63b8ff" d="M539.52,-494.31C554.81,-492.83 570.6,-491.31 585.65,-489.85"/>
<polygon fill="#63b8ff" stroke="#63b8ff" points="539.18,-490.82 529.56,-495.27 539.85,-497.79 539.18,-490.82"/>
</a>
</g>
</g>
<!-- Node19 -->
<g id="Node000019" class="node">
<title>Node19</title>
<g id="a_Node000019"><a xlink:href="../../d9/de6/classformats_1_1bson_1_1ConversionException.html" target="_top" xlink:title="Conversion error.">
<polygon fill="white" stroke="#666666" points="959.5,-612 814.5,-612 814.5,-582 959.5,-582 959.5,-612"/>
<text text-anchor="start" x="822.5" y="-600" font-family="Helvetica,sans-Serif" font-size="10.00">formats::bson::Conversion</text>
<text text-anchor="middle" x="887" y="-589" font-family="Helvetica,sans-Serif" font-size="10.00">Exception</text>
</a>
</g>
</g>
<!-- Node18&#45;&gt;Node19 -->
<g id="edge18_Node000018_Node000019" class="edge">
<title>Node18&#45;&gt;Node19</title>
<g id="a_edge18_Node000018_Node000019"><a xlink:title=" ">
<path fill="none" stroke="#63b8ff" d="M742.1,-543.3C747.9,-545.35 753.59,-547.59 759,-550 776.34,-557.74 777.61,-565.38 795,-573 802.63,-576.35 810.83,-579.31 819.08,-581.91"/>
<polygon fill="#63b8ff" stroke="#63b8ff" points="742.89,-539.87 732.3,-540.01 740.67,-546.51 742.89,-539.87"/>
</a>
</g>
</g>
<!-- Node20 -->
<g id="Node000020" class="node">
<title>Node20</title>
<g id="a_Node000020"><a xlink:href="../../d5/d07/classformats_1_1bson_1_1MemberMissingException.html" target="_top" xlink:title="BSON nonexisting member access error.">
<polygon fill="white" stroke="#666666" points="971,-564 803,-564 803,-534 971,-534 971,-564"/>
<text text-anchor="start" x="811" y="-552" font-family="Helvetica,sans-Serif" font-size="10.00">formats::bson::MemberMissing</text>
<text text-anchor="middle" x="887" y="-541" font-family="Helvetica,sans-Serif" font-size="10.00">Exception</text>
</a>
</g>
</g>
<!-- Node18&#45;&gt;Node20 -->
<g id="edge19_Node000018_Node000020" class="edge">
<title>Node18&#45;&gt;Node20</title>
<g id="a_edge19_Node000018_Node000020"><a xlink:title=" ">
<path fill="none" stroke="#63b8ff" d="M747.01,-533.63C765.17,-535.64 784.56,-537.78 802.93,-539.81"/>
<polygon fill="#63b8ff" stroke="#63b8ff" points="747.39,-530.15 737.06,-532.53 746.62,-537.11 747.39,-530.15"/>
</a>
</g>
</g>
<!-- Node21 -->
<g id="Node000021" class="node">
<title>Node21</title>
<g id="a_Node000021"><a xlink:href="../../dc/dd1/classformats_1_1bson_1_1OutOfBoundsException.html" target="_top" xlink:title="BSON array indexing error.">
<polygon fill="white" stroke="#666666" points="964.5,-516 809.5,-516 809.5,-486 964.5,-486 964.5,-516"/>
<text text-anchor="start" x="817.5" y="-504" font-family="Helvetica,sans-Serif" font-size="10.00">formats::bson::OutOfBounds</text>
<text text-anchor="middle" x="887" y="-493" font-family="Helvetica,sans-Serif" font-size="10.00">Exception</text>
</a>
</g>
</g>
<!-- Node18&#45;&gt;Node21 -->
<g id="edge20_Node000018_Node000021" class="edge">
<title>Node18&#45;&gt;Node21</title>
<g id="a_edge20_Node000018_Node000021"><a xlink:title=" ">
<path fill="none" stroke="#63b8ff" d="M747.2,-516.35C767.48,-514.11 789.29,-511.7 809.49,-509.46"/>
<polygon fill="#63b8ff" stroke="#63b8ff" points="746.62,-512.89 737.06,-517.47 747.39,-519.85 746.62,-512.89"/>
</a>
</g>
</g>
<!-- Node22 -->
<g id="Node000022" class="node">
<title>Node22</title>
<g id="a_Node000022"><a xlink:href="../../d2/d94/classformats_1_1bson_1_1TypeMismatchException.html" target="_top" xlink:title="BSON types mismatch error.">
<polygon fill="white" stroke="#666666" points="967.5,-468 806.5,-468 806.5,-438 967.5,-438 967.5,-468"/>
<text text-anchor="start" x="814.5" y="-456" font-family="Helvetica,sans-Serif" font-size="10.00">formats::bson::TypeMismatch</text>
<text text-anchor="middle" x="887" y="-445" font-family="Helvetica,sans-Serif" font-size="10.00">Exception</text>
</a>
</g>
</g>
<!-- Node18&#45;&gt;Node22 -->
<g id="edge21_Node000018_Node000022" class="edge">
<title>Node18&#45;&gt;Node22</title>
<g id="a_edge21_Node000018_Node000022"><a xlink:title=" ">
<path fill="none" stroke="#63b8ff" d="M745.39,-506.53C750.05,-504.82 754.62,-502.98 759,-501 776.52,-493.08 777.46,-484.89 795,-477 802.45,-473.65 810.46,-470.69 818.53,-468.1"/>
<polygon fill="#63b8ff" stroke="#63b8ff" points="744.04,-503.29 735.73,-509.86 746.32,-509.91 744.04,-503.29"/>
</a>
</g>
</g>
<!-- Node26 -->
<g id="Node000026" class="node">
<title>Node26</title>
<g id="a_Node000026"><a xlink:href="../../d5/dd6/classstorages_1_1mongo_1_1AuthenticationException.html" target="_top" xlink:title="Authentication error.">
<polygon fill="white" stroke="#666666" points="756,-454 580,-454 580,-424 756,-424 756,-454"/>
<text text-anchor="start" x="588" y="-442" font-family="Helvetica,sans-Serif" font-size="10.00">storages::mongo::Authentication</text>
<text text-anchor="middle" x="668" y="-431" font-family="Helvetica,sans-Serif" font-size="10.00">Exception</text>
</a>
</g>
</g>
<!-- Node25&#45;&gt;Node26 -->
<g id="edge25_Node000025_Node000026" class="edge">
<title>Node25&#45;&gt;Node26</title>
<g id="a_edge25_Node000025_Node000026"><a xlink:title=" ">
<path fill="none" stroke="#63b8ff" d="M463.37,-312.76C484.86,-339.07 528.8,-388.17 577,-415 583.08,-418.38 589.65,-421.3 596.38,-423.83"/>
<polygon fill="#63b8ff" stroke="#63b8ff" points="465.95,-310.39 456.96,-304.78 460.49,-314.77 465.95,-310.39"/>
</a>
</g>
</g>
<!-- Node27 -->
<g id="Node000027" class="node">
<title>Node27</title>
<g id="a_Node000027"><a xlink:href="../../d0/d98/classstorages_1_1mongo_1_1CancelledException.html" target="_top" xlink:title="The current task has been cancelled, e.g. by deadline propagation.">
<polygon fill="white" stroke="#666666" points="744,-406 592,-406 592,-376 744,-376 744,-406"/>
<text text-anchor="start" x="600" y="-394" font-family="Helvetica,sans-Serif" font-size="10.00">storages::mongo::Cancelled</text>
<text text-anchor="middle" x="668" y="-383" font-family="Helvetica,sans-Serif" font-size="10.00">Exception</text>
</a>
</g>
</g>
<!-- Node25&#45;&gt;Node27 -->
<g id="edge26_Node000025_Node000027" class="edge">
<title>Node25&#45;&gt;Node27</title>
<g id="a_edge26_Node000025_Node000027"><a xlink:title=" ">
<path fill="none" stroke="#63b8ff" d="M472.49,-310.36C497.36,-326.39 538.6,-351.33 577,-367 585.09,-370.3 593.76,-373.27 602.43,-375.91"/>
<polygon fill="#63b8ff" stroke="#63b8ff" points="474.09,-307.22 463.81,-304.69 470.27,-313.09 474.09,-307.22"/>
</a>
</g>
</g>
<!-- Node28 -->
<g id="Node000028" class="node">
<title>Node28</title>
<g id="a_Node000028"><a xlink:href="../../d8/d48/classstorages_1_1mongo_1_1ClusterUnavailableException.html" target="_top" xlink:title="No server available to satisfy request constraints.">
<polygon fill="white" stroke="#666666" points="737.5,-358 598.5,-358 598.5,-328 737.5,-328 737.5,-358"/>
<text text-anchor="start" x="606.5" y="-346" font-family="Helvetica,sans-Serif" font-size="10.00">storages::mongo::Cluster</text>
<text text-anchor="middle" x="668" y="-335" font-family="Helvetica,sans-Serif" font-size="10.00">UnavailableException</text>
</a>
</g>
</g>
<!-- Node25&#45;&gt;Node28 -->
<g id="edge27_Node000025_Node000028" class="edge">
<title>Node25&#45;&gt;Node28</title>
<g id="a_edge27_Node000025_Node000028"><a xlink:title=" ">
<path fill="none" stroke="#63b8ff" d="M502.68,-306.74C531.7,-313.14 567.95,-321.14 599.02,-328"/>
<polygon fill="#63b8ff" stroke="#63b8ff" points="503.25,-303.28 492.73,-304.54 501.74,-310.11 503.25,-303.28"/>
</a>
</g>
</g>
<!-- Node29 -->
<g id="Node000029" class="node">
<title>Node29</title>
<g id="a_Node000029"><a xlink:href="../../d7/df9/classstorages_1_1mongo_1_1IncompatibleServerException.html" target="_top" xlink:title="Incompatible server version.">
<polygon fill="white" stroke="#666666" points="752,-310 584,-310 584,-280 752,-280 752,-310"/>
<text text-anchor="start" x="592" y="-298" font-family="Helvetica,sans-Serif" font-size="10.00">storages::mongo::Incompatible</text>
<text text-anchor="middle" x="668" y="-287" font-family="Helvetica,sans-Serif" font-size="10.00">ServerException</text>
</a>
</g>
</g>
<!-- Node25&#45;&gt;Node29 -->
<g id="edge28_Node000025_Node000029" class="edge">
<title>Node25&#45;&gt;Node29</title>
<g id="a_edge28_Node000025_Node000029"><a xlink:title=" ">
<path fill="none" stroke="#63b8ff" d="M551.12,-295C562.07,-295 573.11,-295 583.8,-295"/>
<polygon fill="#63b8ff" stroke="#63b8ff" points="551.11,-291.5 541.11,-295 551.11,-298.5 551.11,-291.5"/>
</a>
</g>
</g>
<!-- Node30 -->
<g id="Node000030" class="node">
<title>Node30</title>
<g id="a_Node000030"><a xlink:href="../../d4/d1d/classstorages_1_1mongo_1_1InvalidConfigException.html" target="_top" xlink:title="Config validation error.">
<polygon fill="white" stroke="#666666" points="736.5,-262 599.5,-262 599.5,-232 736.5,-232 736.5,-262"/>
<text text-anchor="start" x="607.5" y="-250" font-family="Helvetica,sans-Serif" font-size="10.00">storages::mongo::Invalid</text>
<text text-anchor="middle" x="668" y="-239" font-family="Helvetica,sans-Serif" font-size="10.00">ConfigException</text>
</a>
</g>
</g>
<!-- Node25&#45;&gt;Node30 -->
<g id="edge29_Node000025_Node000030" class="edge">
<title>Node25&#45;&gt;Node30</title>
<g id="a_edge29_Node000025_Node000030"><a xlink:title=" ">
<path fill="none" stroke="#63b8ff" d="M506.46,-283.37C517.91,-280.98 529.84,-278.44 541,-276 561.17,-271.58 583.12,-266.6 602.96,-262.02"/>
<polygon fill="#63b8ff" stroke="#63b8ff" points="505.64,-279.97 496.56,-285.43 507.06,-286.82 505.64,-279.97"/>
</a>
</g>
</g>
<!-- Node31 -->
<g id="Node000031" class="node">
<title>Node31</title>
<g id="a_Node000031"><a xlink:href="../../da/d68/classstorages_1_1mongo_1_1NetworkException.html" target="_top" xlink:title="Network (connectivity) error.">
<polygon fill="white" stroke="#666666" points="741,-214 595,-214 595,-184 741,-184 741,-214"/>
<text text-anchor="start" x="603" y="-202" font-family="Helvetica,sans-Serif" font-size="10.00">storages::mongo::Network</text>
<text text-anchor="middle" x="668" y="-191" font-family="Helvetica,sans-Serif" font-size="10.00">Exception</text>
</a>
</g>
</g>
<!-- Node25&#45;&gt;Node31 -->
<g id="edge30_Node000025_Node000031" class="edge">
<title>Node25&#45;&gt;Node31</title>
<g id="a_edge30_Node000025_Node000031"><a xlink:title=" ">
<path fill="none" stroke="#63b8ff" d="M531.28,-281.55C534.66,-279.9 537.92,-278.06 541,-276 564.67,-260.17 553.78,-239.48 577,-223 582.41,-219.16 588.39,-215.94 594.63,-213.23"/>
<polygon fill="#63b8ff" stroke="#63b8ff" points="529.9,-278.34 522.08,-285.48 532.65,-284.77 529.9,-278.34"/>
</a>
</g>
</g>
<!-- Node32 -->
<g id="Node000032" class="node">
<title>Node32</title>
<g id="a_Node000032"><a xlink:href="../../d3/d28/classstorages_1_1mongo_1_1PoolNotFoundException.html" target="_top" xlink:title="Nonexistent pool requested from the set.">
<polygon fill="white" stroke="#666666" points="739.5,-166 596.5,-166 596.5,-136 739.5,-136 739.5,-166"/>
<text text-anchor="start" x="604.5" y="-154" font-family="Helvetica,sans-Serif" font-size="10.00">storages::mongo::PoolNot</text>
<text text-anchor="middle" x="668" y="-143" font-family="Helvetica,sans-Serif" font-size="10.00">FoundException</text>
</a>
</g>
</g>
<!-- Node25&#45;&gt;Node32 -->
<g id="edge31_Node000025_Node000032" class="edge">
<title>Node25&#45;&gt;Node32</title>
<g id="a_edge31_Node000025_Node000032"><a xlink:title=" ">
<path fill="none" stroke="#63b8ff" d="M535.53,-280.22C537.43,-278.92 539.26,-277.52 541,-276 576.93,-244.7 541.95,-207.29 577,-175 582.59,-169.85 589.16,-165.78 596.16,-162.57"/>
<polygon fill="#63b8ff" stroke="#63b8ff" points="533.66,-277.26 526.76,-285.31 537.17,-283.32 533.66,-277.26"/>
</a>
</g>
</g>
<!-- Node33 -->
<g id="Node000033" class="node">
<title>Node33</title>
<g id="a_Node000033"><a xlink:href="../../dc/d28/classstorages_1_1mongo_1_1PoolOverloadException.html" target="_top" xlink:title="Pool refused to satisfy connection request due to high load.">
<polygon fill="white" stroke="#666666" points="753,-118 583,-118 583,-88 753,-88 753,-118"/>
<text text-anchor="start" x="591" y="-106" font-family="Helvetica,sans-Serif" font-size="10.00">storages::mongo::PoolOverload</text>
<text text-anchor="middle" x="668" y="-95" font-family="Helvetica,sans-Serif" font-size="10.00">Exception</text>
</a>
</g>
</g>
<!-- Node25&#45;&gt;Node33 -->
<g id="edge32_Node000025_Node000033" class="edge">
<title>Node25&#45;&gt;Node33</title>
<g id="a_edge32_Node000025_Node000033"><a xlink:title=" ">
<path fill="none" stroke="#63b8ff" d="M536.85,-279.62C538.29,-278.48 539.68,-277.28 541,-276 589.95,-228.61 529.4,-175.74 577,-127 580.28,-123.65 583.97,-120.74 587.93,-118.23"/>
<polygon fill="#63b8ff" stroke="#63b8ff" points="534.54,-276.95 528.07,-285.34 538.36,-282.81 534.54,-276.95"/>
</a>
</g>
</g>
<!-- Node34 -->
<g id="Node000034" class="node">
<title>Node34</title>
<g id="a_Node000034"><a xlink:href="../../de/db7/classstorages_1_1mongo_1_1QueryException.html" target="_top" xlink:title="Generic query error.">
<polygon fill="white" stroke="#666666" points="759,-69.5 577,-69.5 577,-50.5 759,-50.5 759,-69.5"/>
<text text-anchor="middle" x="668" y="-57.5" font-family="Helvetica,sans-Serif" font-size="10.00">storages::mongo::QueryException</text>
</a>
</g>
</g>
<!-- Node25&#45;&gt;Node34 -->
<g id="edge33_Node000025_Node000034" class="edge">
<title>Node25&#45;&gt;Node34</title>
<g id="a_edge33_Node000025_Node000034"><a xlink:title=" ">
<path fill="none" stroke="#63b8ff" d="M537.08,-279.61C538.44,-278.48 539.75,-277.28 541,-276 603.18,-212.31 514.93,-142.79 577,-79 580.68,-75.22 584.9,-72.1 589.47,-69.54"/>
<polygon fill="#63b8ff" stroke="#63b8ff" points="534.99,-276.8 528.74,-285.35 538.96,-282.57 534.99,-276.8"/>
</a>
</g>
</g>
<!-- Node35 -->
<g id="Node000035" class="node">
<title>Node35</title>
<g id="a_Node000035"><a xlink:href="../../d6/db8/classstorages_1_1mongo_1_1InvalidQueryArgumentException.html" target="_top" xlink:title="Query argument validation error.">
<polygon fill="white" stroke="#666666" points="958,-97 816,-97 816,-67 958,-67 958,-97"/>
<text text-anchor="start" x="824" y="-85" font-family="Helvetica,sans-Serif" font-size="10.00">storages::mongo::Invalid</text>
<text text-anchor="middle" x="887" y="-74" font-family="Helvetica,sans-Serif" font-size="10.00">QueryArgumentException</text>
</a>
</g>
</g>
<!-- Node34&#45;&gt;Node35 -->
<g id="edge34_Node000034_Node000035" class="edge">
<title>Node34&#45;&gt;Node35</title>
<g id="a_edge34_Node000034_Node000035"><a xlink:title=" ">
<path fill="none" stroke="#63b8ff" d="M769.43,-70.18C785.17,-71.78 801.13,-73.4 815.99,-74.9"/>
<polygon fill="#63b8ff" stroke="#63b8ff" points="769.44,-66.67 759.14,-69.14 768.74,-73.63 769.44,-66.67"/>
</a>
</g>
</g>
<!-- Node36 -->
<g id="Node000036" class="node">
<title>Node36</title>
<g id="a_Node000036"><a xlink:href="../../d1/de8/classstorages_1_1mongo_1_1ServerException.html" target="_top" xlink:title="Server&#45;side error.">
<polygon fill="white" stroke="#666666" points="979,-48.5 795,-48.5 795,-29.5 979,-29.5 979,-48.5"/>
<text text-anchor="middle" x="887" y="-36.5" font-family="Helvetica,sans-Serif" font-size="10.00">storages::mongo::ServerException</text>
</a>
</g>
</g>
<!-- Node34&#45;&gt;Node36 -->
<g id="edge35_Node000034_Node000036" class="edge">
<title>Node34&#45;&gt;Node36</title>
<g id="a_edge35_Node000034_Node000036"><a xlink:title=" ">
<path fill="none" stroke="#63b8ff" d="M769.12,-50.31C777.66,-49.48 786.27,-48.65 794.74,-47.83"/>
<polygon fill="#63b8ff" stroke="#63b8ff" points="768.76,-46.83 759.14,-51.28 769.43,-53.8 768.76,-46.83"/>
</a>
</g>
</g>
<!-- Node37 -->
<g id="Node000037" class="node">
<title>Node37</title>
<g id="a_Node000037"><a xlink:href="../../d7/d4b/classstorages_1_1mongo_1_1DuplicateKeyException.html" target="_top" xlink:title="Duplicate key error.">
<polygon fill="white" stroke="#666666" points="1175.5,-78 1024.5,-78 1024.5,-48 1175.5,-48 1175.5,-78"/>
<text text-anchor="start" x="1032.5" y="-66" font-family="Helvetica,sans-Serif" font-size="10.00">storages::mongo::Duplicate</text>
<text text-anchor="middle" x="1100" y="-55" font-family="Helvetica,sans-Serif" font-size="10.00">KeyException</text>
</a>
</g>
</g>
<!-- Node36&#45;&gt;Node37 -->
<g id="edge36_Node000036_Node000037" class="edge">
<title>Node36&#45;&gt;Node37</title>
<g id="a_edge36_Node000036_Node000037"><a xlink:title=" ">
<path fill="none" stroke="#63b8ff" d="M981.96,-49.69C996.13,-51.3 1010.59,-52.94 1024.29,-54.5"/>
<polygon fill="#63b8ff" stroke="#63b8ff" points="982.03,-46.17 971.7,-48.52 981.24,-53.13 982.03,-46.17"/>
</a>
</g>
</g>
<!-- Node38 -->
<g id="Node000038" class="node">
<title>Node38</title>
<g id="a_Node000038"><a xlink:href="../../d9/d98/classstorages_1_1mongo_1_1WriteConcernException.html" target="_top" xlink:title="Write concern error.">
<polygon fill="white" stroke="#666666" points="1185,-30 1015,-30 1015,0 1185,0 1185,-30"/>
<text text-anchor="start" x="1023" y="-18" font-family="Helvetica,sans-Serif" font-size="10.00">storages::mongo::WriteConcern</text>
<text text-anchor="middle" x="1100" y="-7" font-family="Helvetica,sans-Serif" font-size="10.00">Exception</text>
</a>
</g>
</g>
<!-- Node36&#45;&gt;Node38 -->
<g id="edge37_Node000036_Node000038" class="edge">
<title>Node36&#45;&gt;Node38</title>
<g id="a_edge37_Node000036_Node000038"><a xlink:title=" ">
<path fill="none" stroke="#63b8ff" d="M981.72,-28.34C992.71,-27.09 1003.87,-25.82 1014.71,-24.59"/>
<polygon fill="#63b8ff" stroke="#63b8ff" points="981.24,-24.87 971.7,-29.48 982.03,-31.83 981.24,-24.87"/>
</a>
</g>
</g>
</g>
</svg>
