<?xml version="1.0" encoding="UTF-8" standalone="no"?>
<!DOCTYPE svg PUBLIC "-//W3C//DTD SVG 1.1//EN"
 "http://www.w3.org/Graphics/SVG/1.1/DTD/svg11.dtd">
<!-- Generated by graphviz version 2.43.0 (0)
 -->
<!-- Title: userver/formats/yaml/types.hpp Pages: 1 -->
<svg width="440pt" height="159pt"
 viewBox="0.00 0.00 439.58 159.00" xmlns="http://www.w3.org/2000/svg" xmlns:xlink="http://www.w3.org/1999/xlink">
<g id="graph0" class="graph" transform="scale(1 1) rotate(0) translate(4 155)">
<title>userver/formats/yaml/types.hpp</title>
<!-- Node1 -->
<g id="Node000001" class="node">
<title>Node1</title>
<g id="a_Node000001"><a xlink:title="Forward declarations of the internal YAML types.">
<polygon fill="#999999" stroke="#666666" points="194.58,-151 72.58,-151 72.58,-121 194.58,-121 194.58,-151"/>
<text text-anchor="start" x="80.58" y="-139" font-family="Helvetica,sans-Serif" font-size="10.00">userver/formats/yaml</text>
<text text-anchor="middle" x="133.58" y="-128" font-family="Helvetica,sans-Serif" font-size="10.00">/types.hpp</text>
</a>
</g>
</g>
<!-- Node2 -->
<g id="Node000002" class="node">
<title>Node2</title>
<g id="a_Node000002"><a xlink:title=" ">
<polygon fill="#e0e0e0" stroke="#999999" points="76.08,-19 7.08,-19 7.08,0 76.08,0 76.08,-19"/>
<text text-anchor="middle" x="41.58" y="-7" font-family="Helvetica,sans-Serif" font-size="10.00">type_traits</text>
</a>
</g>
</g>
<!-- Node1&#45;&gt;Node2 -->
<g id="edge1_Node000001_Node000002" class="edge">
<title>Node1&#45;&gt;Node2</title>
<g id="a_edge1_Node000001_Node000002"><a xlink:title=" ">
<path fill="none" stroke="#63b8ff" d="M72.48,-126.68C47.08,-119.87 19.98,-107.49 4.58,-85 -8.35,-66.13 8.89,-42.09 23.91,-26.5"/>
<polygon fill="#63b8ff" stroke="#63b8ff" points="26.68,-28.69 31.39,-19.19 21.79,-23.68 26.68,-28.69"/>
</a>
</g>
</g>
<!-- Node3 -->
<g id="Node000003" class="node">
<title>Node3</title>
<g id="a_Node000003"><a xlink:href="../../d9/dce/void__t_8hpp.html" target="_top" xlink:title="std::void_t implementation with workarounds for compiler bugs">
<polygon fill="white" stroke="#666666" points="115.08,-85 14.08,-85 14.08,-55 115.08,-55 115.08,-85"/>
<text text-anchor="start" x="22.08" y="-73" font-family="Helvetica,sans-Serif" font-size="10.00">userver/utils/void</text>
<text text-anchor="middle" x="64.58" y="-62" font-family="Helvetica,sans-Serif" font-size="10.00">_t.hpp</text>
</a>
</g>
</g>
<!-- Node1&#45;&gt;Node3 -->
<g id="edge2_Node000001_Node000003" class="edge">
<title>Node1&#45;&gt;Node3</title>
<g id="a_edge2_Node000001_Node000003"><a xlink:title=" ">
<path fill="none" stroke="#63b8ff" d="M118.26,-120.8C109.15,-112.34 97.42,-101.46 87.25,-92.03"/>
<polygon fill="#63b8ff" stroke="#63b8ff" points="89.56,-89.4 79.85,-85.16 84.8,-94.53 89.56,-89.4"/>
</a>
</g>
</g>
<!-- Node4 -->
<g id="Node000004" class="node">
<title>Node4</title>
<g id="a_Node000004"><a xlink:href="../../d1/d4c/path_8hpp.html" target="_top" xlink:title=" ">
<polygon fill="white" stroke="#666666" points="273.58,-85 133.58,-85 133.58,-55 273.58,-55 273.58,-85"/>
<text text-anchor="start" x="141.58" y="-73" font-family="Helvetica,sans-Serif" font-size="10.00">userver/formats/common</text>
<text text-anchor="middle" x="203.58" y="-62" font-family="Helvetica,sans-Serif" font-size="10.00">/path.hpp</text>
</a>
</g>
</g>
<!-- Node1&#45;&gt;Node4 -->
<g id="edge4_Node000001_Node000004" class="edge">
<title>Node1&#45;&gt;Node4</title>
<g id="a_edge4_Node000001_Node000004"><a xlink:title=" ">
<path fill="none" stroke="#63b8ff" d="M149.11,-120.8C158.36,-112.34 170.26,-101.46 180.57,-92.03"/>
<polygon fill="#63b8ff" stroke="#63b8ff" points="183.07,-94.49 188.09,-85.16 178.34,-89.33 183.07,-94.49"/>
</a>
</g>
</g>
<!-- Node7 -->
<g id="Node000007" class="node">
<title>Node7</title>
<g id="a_Node000007"><a xlink:href="../../da/d72/type_8hpp.html" target="_top" xlink:title="Common enum of types.">
<polygon fill="white" stroke="#666666" points="431.58,-85 291.58,-85 291.58,-55 431.58,-55 431.58,-85"/>
<text text-anchor="start" x="299.58" y="-73" font-family="Helvetica,sans-Serif" font-size="10.00">userver/formats/common</text>
<text text-anchor="middle" x="361.58" y="-62" font-family="Helvetica,sans-Serif" font-size="10.00">/type.hpp</text>
</a>
</g>
</g>
<!-- Node1&#45;&gt;Node7 -->
<g id="edge7_Node000001_Node000007" class="edge">
<title>Node1&#45;&gt;Node7</title>
<g id="a_edge7_Node000001_Node000007"><a xlink:title=" ">
<path fill="none" stroke="#63b8ff" d="M183.61,-120.95C218.36,-111.2 264.83,-98.16 301.57,-87.84"/>
<polygon fill="#63b8ff" stroke="#63b8ff" points="302.98,-91.08 311.66,-85.01 301.09,-84.35 302.98,-91.08"/>
</a>
</g>
</g>
<!-- Node3&#45;&gt;Node2 -->
<g id="edge3_Node000003_Node000002" class="edge">
<title>Node3&#45;&gt;Node2</title>
<g id="a_edge3_Node000003_Node000002"><a xlink:title=" ">
<path fill="none" stroke="#63b8ff" d="M59.01,-54.84C55.91,-46.95 52.02,-37.05 48.7,-28.61"/>
<polygon fill="#63b8ff" stroke="#63b8ff" points="51.94,-27.29 45.02,-19.27 45.43,-29.85 51.94,-27.29"/>
</a>
</g>
</g>
<!-- Node5 -->
<g id="Node000005" class="node">
<title>Node5</title>
<g id="a_Node000005"><a xlink:title=" ">
<polygon fill="#e0e0e0" stroke="#999999" points="171.58,-19 127.58,-19 127.58,0 171.58,0 171.58,-19"/>
<text text-anchor="middle" x="149.58" y="-7" font-family="Helvetica,sans-Serif" font-size="10.00">string</text>
</a>
</g>
</g>
<!-- Node4&#45;&gt;Node5 -->
<g id="edge5_Node000004_Node000005" class="edge">
<title>Node4&#45;&gt;Node5</title>
<g id="a_edge5_Node000004_Node000005"><a xlink:title=" ">
<path fill="none" stroke="#63b8ff" d="M190.51,-54.84C182.67,-46.35 172.67,-35.52 164.52,-26.69"/>
<polygon fill="#63b8ff" stroke="#63b8ff" points="167.02,-24.24 157.67,-19.27 161.88,-28.99 167.02,-24.24"/>
</a>
</g>
</g>
<!-- Node6 -->
<g id="Node000006" class="node">
<title>Node6</title>
<g id="a_Node000006"><a xlink:title=" ">
<polygon fill="#e0e0e0" stroke="#999999" points="263.08,-19 190.08,-19 190.08,0 263.08,0 263.08,-19"/>
<text text-anchor="middle" x="226.58" y="-7" font-family="Helvetica,sans-Serif" font-size="10.00">string_view</text>
</a>
</g>
</g>
<!-- Node4&#45;&gt;Node6 -->
<g id="edge6_Node000004_Node000006" class="edge">
<title>Node4&#45;&gt;Node6</title>
<g id="a_edge6_Node000004_Node000006"><a xlink:title=" ">
<path fill="none" stroke="#63b8ff" d="M209.15,-54.84C212.25,-46.95 216.14,-37.05 219.46,-28.61"/>
<polygon fill="#63b8ff" stroke="#63b8ff" points="222.73,-29.85 223.13,-19.27 216.21,-27.29 222.73,-29.85"/>
</a>
</g>
</g>
</g>
</svg>
