<?xml version="1.0" encoding="UTF-8" standalone="no"?>
<!DOCTYPE svg PUBLIC "-//W3C//DTD SVG 1.1//EN"
 "http://www.w3.org/Graphics/SVG/1.1/DTD/svg11.dtd">
<!-- Generated by graphviz version 2.43.0 (0)
 -->
<!-- Title: storages::postgres::InstanceStatisticsNonatomic Pages: 1 -->
<svg width="887pt" height="103pt"
 viewBox="0.00 0.00 887.00 103.00" xmlns="http://www.w3.org/2000/svg" xmlns:xlink="http://www.w3.org/1999/xlink">
<g id="graph0" class="graph" transform="scale(1 1) rotate(0) translate(4 99)">
<title>storages::postgres::InstanceStatisticsNonatomic</title>
<!-- Node1 -->
<g id="Node000001" class="node">
<title>Node1</title>
<g id="a_Node000001"><a xlink:title=" ">
<polygon fill="#999999" stroke="#666666" points="879,-76.5 717,-76.5 717,-46.5 879,-46.5 879,-76.5"/>
<text text-anchor="start" x="725" y="-64.5" font-family="Helvetica,sans-Serif" font-size="10.00">storages::postgres</text>
<text text-anchor="middle" x="798" y="-53.5" font-family="Helvetica,sans-Serif" font-size="10.00">::InstanceStatisticsNonatomic</text>
</a>
</g>
</g>
<!-- Node2 -->
<g id="Node000002" class="node">
<title>Node2</title>
<g id="a_Node000002"><a xlink:href="../../df/d1c/structstorages_1_1postgres_1_1InstanceStatisticsTemplate.html" target="_top" xlink:title="Template instance statistics storage.">
<polygon fill="white" stroke="#666666" points="585,-95 405,-95 405,-76 585,-76 585,-95"/>
<text text-anchor="middle" x="495" y="-83" font-family="Helvetica,sans-Serif" font-size="10.00">InstanceStatisticsNonatomicBase</text>
</a>
</g>
</g>
<!-- Node2&#45;&gt;Node1 -->
<g id="edge1_Node000001_Node000002" class="edge">
<title>Node2&#45;&gt;Node1</title>
<g id="a_edge1_Node000001_Node000002"><a xlink:title=" ">
<path fill="none" stroke="#63b8ff" d="M595.26,-77.59C634.72,-74.44 679.52,-70.87 716.86,-67.89"/>
<polygon fill="#63b8ff" stroke="#63b8ff" points="594.78,-74.11 585.09,-78.4 595.33,-81.09 594.78,-74.11"/>
</a>
</g>
</g>
<!-- Node3 -->
<g id="Node000003" class="node">
<title>Node3</title>
<g id="a_Node000003"><a xlink:title=" ">
<polygon fill="white" stroke="#666666" points="561.5,-58 428.5,-58 428.5,-17 561.5,-17 561.5,-58"/>
<text text-anchor="start" x="436.5" y="-46" font-family="Helvetica,sans-Serif" font-size="10.00">std::unordered_map</text>
<text text-anchor="start" x="436.5" y="-35" font-family="Helvetica,sans-Serif" font-size="10.00">&lt; std::string, utils</text>
<text text-anchor="middle" x="495" y="-24" font-family="Helvetica,sans-Serif" font-size="10.00">::statistics::Percentile &gt;</text>
</a>
</g>
</g>
<!-- Node3&#45;&gt;Node1 -->
<g id="edge2_Node000001_Node000003" class="edge">
<title>Node3&#45;&gt;Node1</title>
<g id="a_edge2_Node000001_Node000003"><a xlink:title=" ">
<path fill="none" stroke="#9a32cd" stroke-dasharray="5,2" d="M571.82,-43.55C616.12,-47.08 671.99,-51.53 717,-55.12"/>
<polygon fill="#9a32cd" stroke="#9a32cd" points="571.93,-40.04 561.68,-42.74 571.37,-47.02 571.93,-40.04"/>
</a>
</g>
<text text-anchor="middle" x="651" y="-56.5" font-family="Helvetica,sans-Serif" font-size="10.00" fill="grey"> statement_timings</text>
</g>
<!-- Node4 -->
<g id="Node000004" class="node">
<title>Node4</title>
<g id="a_Node000004"><a xlink:title=" ">
<polygon fill="white" stroke="#666666" points="263,-78 198,-78 198,-59 263,-59 263,-78"/>
<text text-anchor="middle" x="230.5" y="-66" font-family="Helvetica,sans-Serif" font-size="10.00">std::string</text>
</a>
</g>
</g>
<!-- Node4&#45;&gt;Node3 -->
<g id="edge3_Node000003_Node000004" class="edge">
<title>Node4&#45;&gt;Node3</title>
<g id="a_edge3_Node000003_Node000004"><a xlink:title=" ">
<path fill="none" stroke="#9a32cd" stroke-dasharray="5,2" d="M273.25,-63.57C314.96,-58.64 379.69,-51 428.29,-45.26"/>
<polygon fill="#9a32cd" stroke="#9a32cd" points="272.68,-60.11 263.16,-64.76 273.51,-67.06 272.68,-60.11"/>
</a>
</g>
<text text-anchor="middle" x="362.5" y="-59.5" font-family="Helvetica,sans-Serif" font-size="10.00" fill="grey"> keys</text>
</g>
<!-- Node5 -->
<g id="Node000005" class="node">
<title>Node5</title>
<g id="a_Node000005"><a xlink:title=" ">
<polygon fill="white" stroke="#666666" points="104,-83.5 0,-83.5 0,-53.5 104,-53.5 104,-83.5"/>
<text text-anchor="start" x="8" y="-71.5" font-family="Helvetica,sans-Serif" font-size="10.00">std::basic_string&lt;</text>
<text text-anchor="middle" x="52" y="-60.5" font-family="Helvetica,sans-Serif" font-size="10.00"> Char &gt;</text>
</a>
</g>
</g>
<!-- Node5&#45;&gt;Node4 -->
<g id="edge4_Node000004_Node000005" class="edge">
<title>Node5&#45;&gt;Node4</title>
<g id="a_edge4_Node000004_Node000005"><a xlink:title=" ">
<path fill="none" stroke="#63b8ff" d="M114.24,-68.5C142.46,-68.5 174.76,-68.5 197.97,-68.5"/>
<polygon fill="#63b8ff" stroke="#63b8ff" points="114.05,-65 104.05,-68.5 114.05,-72 114.05,-65"/>
</a>
</g>
</g>
<!-- Node6 -->
<g id="Node000006" class="node">
<title>Node6</title>
<g id="a_Node000006"><a xlink:href="../../df/d18/classutils_1_1statistics_1_1Percentile.html" target="_top" xlink:title="Class allows easy calculation of percentiles.">
<polygon fill="white" stroke="#666666" points="320,-41 141,-41 141,0 320,0 320,-41"/>
<text text-anchor="start" x="149" y="-29" font-family="Helvetica,sans-Serif" font-size="10.00">utils::statistics::</text>
<text text-anchor="start" x="149" y="-18" font-family="Helvetica,sans-Serif" font-size="10.00">Percentile&lt; M, Counter,</text>
<text text-anchor="middle" x="230.5" y="-7" font-family="Helvetica,sans-Serif" font-size="10.00"> ExtraBuckets, ExtraBucketSize &gt;</text>
</a>
</g>
</g>
<!-- Node6&#45;&gt;Node3 -->
<g id="edge5_Node000003_Node000006" class="edge">
<title>Node6&#45;&gt;Node3</title>
<g id="a_edge5_Node000003_Node000006"><a xlink:title=" ">
<path fill="none" stroke="#9a32cd" stroke-dasharray="5,2" d="M330.4,-25.1C349.2,-26.12 368.71,-27.26 387,-28.5 400.39,-29.41 414.71,-30.52 428.38,-31.64"/>
<polygon fill="#9a32cd" stroke="#9a32cd" points="330.51,-21.61 320.34,-24.57 330.14,-28.6 330.51,-21.61"/>
</a>
</g>
<text text-anchor="middle" x="362.5" y="-31.5" font-family="Helvetica,sans-Serif" font-size="10.00" fill="grey"> elements</text>
</g>
</g>
</svg>
