<?xml version="1.0" encoding="UTF-8" standalone="no"?>
<!DOCTYPE svg PUBLIC "-//W3C//DTD SVG 1.1//EN"
 "http://www.w3.org/Graphics/SVG/1.1/DTD/svg11.dtd">
<!-- Generated by graphviz version 2.43.0 (0)
 -->
<!-- Title: server::middlewares::HttpMiddlewareFactoryBase Pages: 1 -->
<svg width="793pt" height="98pt"
 viewBox="0.00 0.00 793.00 97.50" xmlns="http://www.w3.org/2000/svg" xmlns:xlink="http://www.w3.org/1999/xlink">
<g id="graph0" class="graph" transform="scale(1 1) rotate(0) translate(4 93.5)">
<title>server::middlewares::HttpMiddlewareFactoryBase</title>
<!-- Node1 -->
<g id="Node000001" class="node">
<title>Node1</title>
<g id="a_Node000001"><a xlink:title="Base class for a http middleware&#45;factory.">
<polygon fill="#999999" stroke="#666666" points="579,-62.5 419,-62.5 419,-32.5 579,-32.5 579,-62.5"/>
<text text-anchor="start" x="427" y="-50.5" font-family="Helvetica,sans-Serif" font-size="10.00">server::middlewares</text>
<text text-anchor="middle" x="499" y="-39.5" font-family="Helvetica,sans-Serif" font-size="10.00">::HttpMiddlewareFactoryBase</text>
</a>
</g>
</g>
<!-- Node4 -->
<g id="Node000004" class="node">
<title>Node4</title>
<g id="a_Node000004"><a xlink:href="../../d2/df1/classserver_1_1middlewares_1_1HeadersPropagatorFactory.html" target="_top" xlink:title=" ">
<polygon fill="white" stroke="#bfbfbf" points="776,-89.5 624,-89.5 624,-59.5 776,-59.5 776,-89.5"/>
<text text-anchor="start" x="632" y="-77.5" font-family="Helvetica,sans-Serif" font-size="10.00">server::middlewares</text>
<text text-anchor="middle" x="700" y="-66.5" font-family="Helvetica,sans-Serif" font-size="10.00">::HeadersPropagatorFactory</text>
</a>
</g>
</g>
<!-- Node1&#45;&gt;Node4 -->
<g id="edge3_Node000001_Node000004" class="edge">
<title>Node1&#45;&gt;Node4</title>
<g id="a_edge3_Node000001_Node000004"><a xlink:title=" ">
<path fill="none" stroke="#63b8ff" d="M589.32,-59.62C600.88,-61.19 612.63,-62.78 623.94,-64.32"/>
<polygon fill="#63b8ff" stroke="#63b8ff" points="589.6,-56.13 579.22,-58.25 588.66,-63.06 589.6,-56.13"/>
</a>
</g>
</g>
<!-- Node5 -->
<g id="Node000005" class="node">
<title>Node5</title>
<g id="a_Node000005"><a xlink:href="../../dc/d3e/classserver_1_1middlewares_1_1SimpleHttpMiddlewareFactory.html" target="_top" xlink:title="A short&#45;cut for defining a middleware&#45;factory.">
<polygon fill="white" stroke="#666666" points="785,-41 615,-41 615,0 785,0 785,-41"/>
<text text-anchor="start" x="623" y="-29" font-family="Helvetica,sans-Serif" font-size="10.00">server::middlewares</text>
<text text-anchor="start" x="623" y="-18" font-family="Helvetica,sans-Serif" font-size="10.00">::SimpleHttpMiddlewareFactory</text>
<text text-anchor="middle" x="700" y="-7" font-family="Helvetica,sans-Serif" font-size="10.00">&lt; Middleware &gt;</text>
</a>
</g>
</g>
<!-- Node1&#45;&gt;Node5 -->
<g id="edge4_Node000001_Node000005" class="edge">
<title>Node1&#45;&gt;Node5</title>
<g id="a_edge4_Node000001_Node000005"><a xlink:title=" ">
<path fill="none" stroke="#63b8ff" d="M589.18,-35.4C597.71,-34.24 606.34,-33.07 614.83,-31.92"/>
<polygon fill="#63b8ff" stroke="#63b8ff" points="588.66,-31.94 579.22,-36.75 589.6,-38.87 588.66,-31.94"/>
</a>
</g>
</g>
<!-- Node2 -->
<g id="Node000002" class="node">
<title>Node2</title>
<g id="a_Node000002"><a xlink:href="../../d7/db4/classcomponents_1_1ComponentBase.html" target="_top" xlink:title="Base class for all application components, it depends on components::Logger and components::Tracer.">
<polygon fill="white" stroke="#666666" points="383,-57 220,-57 220,-38 383,-38 383,-57"/>
<text text-anchor="middle" x="301.5" y="-45" font-family="Helvetica,sans-Serif" font-size="10.00">components::ComponentBase</text>
</a>
</g>
</g>
<!-- Node2&#45;&gt;Node1 -->
<g id="edge1_Node000001_Node000002" class="edge">
<title>Node2&#45;&gt;Node1</title>
<g id="a_edge1_Node000001_Node000002"><a xlink:title=" ">
<path fill="none" stroke="#63b8ff" d="M393.15,-47.5C401.72,-47.5 410.35,-47.5 418.8,-47.5"/>
<polygon fill="#63b8ff" stroke="#63b8ff" points="393.15,-44 383.15,-47.5 393.15,-51 393.15,-44"/>
</a>
</g>
</g>
<!-- Node3 -->
<g id="Node000003" class="node">
<title>Node3</title>
<g id="a_Node000003"><a xlink:href="../../d2/d86/classcomponents_1_1RawComponentBase.html" target="_top" xlink:title="The base class for all components. Don&#39;t use it for application components, use ComponentBase instead...">
<polygon fill="white" stroke="#666666" points="184,-57 0,-57 0,-38 184,-38 184,-57"/>
<text text-anchor="middle" x="92" y="-45" font-family="Helvetica,sans-Serif" font-size="10.00">components::RawComponentBase</text>
</a>
</g>
</g>
<!-- Node3&#45;&gt;Node2 -->
<g id="edge2_Node000002_Node000003" class="edge">
<title>Node3&#45;&gt;Node2</title>
<g id="a_edge2_Node000002_Node000003"><a xlink:title=" ">
<path fill="none" stroke="#63b8ff" d="M194.16,-47.5C202.82,-47.5 211.51,-47.5 219.99,-47.5"/>
<polygon fill="#63b8ff" stroke="#63b8ff" points="194.01,-44 184.01,-47.5 194.01,-51 194.01,-44"/>
</a>
</g>
</g>
</g>
</svg>
