<?xml version="1.0" encoding="UTF-8" standalone="no"?>
<!DOCTYPE svg PUBLIC "-//W3C//DTD SVG 1.1//EN"
 "http://www.w3.org/Graphics/SVG/1.1/DTD/svg11.dtd">
<!-- Generated by graphviz version 2.43.0 (0)
 -->
<!-- Title: server::middlewares::HttpMiddlewareBase Pages: 1 -->
<svg width="304pt" height="104pt"
 viewBox="0.00 0.00 304.00 104.00" xmlns="http://www.w3.org/2000/svg" xmlns:xlink="http://www.w3.org/1999/xlink">
<g id="graph0" class="graph" transform="scale(1 1) rotate(0) translate(4 100)">
<title>server::middlewares::HttpMiddlewareBase</title>
<!-- Node1 -->
<g id="Node000001" class="node">
<title>Node1</title>
<g id="a_Node000001"><a xlink:title="Base class for a http middleware.">
<polygon fill="#999999" stroke="#666666" points="198.5,-96 73.5,-96 73.5,-66 198.5,-66 198.5,-96"/>
<text text-anchor="start" x="81.5" y="-84" font-family="Helvetica,sans-Serif" font-size="10.00">server::middlewares</text>
<text text-anchor="middle" x="136" y="-73" font-family="Helvetica,sans-Serif" font-size="10.00">::HttpMiddlewareBase</text>
</a>
</g>
</g>
<!-- Node2 -->
<g id="Node000002" class="node">
<title>Node2</title>
<g id="a_Node000002"><a xlink:href="../../dd/d24/classserver_1_1middlewares_1_1HeadersPropagator.html" target="_top" xlink:title=" ">
<polygon fill="white" stroke="#bfbfbf" points="116,-30 0,-30 0,0 116,0 116,-30"/>
<text text-anchor="start" x="8" y="-18" font-family="Helvetica,sans-Serif" font-size="10.00">server::middlewares</text>
<text text-anchor="middle" x="58" y="-7" font-family="Helvetica,sans-Serif" font-size="10.00">::HeadersPropagator</text>
</a>
</g>
</g>
<!-- Node1&#45;&gt;Node2 -->
<g id="edge1_Node000001_Node000002" class="edge">
<title>Node1&#45;&gt;Node2</title>
<g id="a_edge1_Node000001_Node000002"><a xlink:title=" ">
<path fill="none" stroke="#63b8ff" d="M110.65,-59.2C99.07,-49.7 85.65,-38.69 75.26,-30.16"/>
<polygon fill="#63b8ff" stroke="#63b8ff" points="108.74,-62.16 118.69,-65.8 113.18,-56.75 108.74,-62.16"/>
</a>
</g>
</g>
<!-- Node3 -->
<g id="Node000003" class="node">
<title>Node3</title>
<g id="a_Node000003"><a xlink:href="../../d8/d65/classtestsuite_1_1ExceptionsHandlingMiddleware.html" target="_top" xlink:title=" ">
<polygon fill="white" stroke="#bfbfbf" points="296,-30 134,-30 134,0 296,0 296,-30"/>
<text text-anchor="start" x="142" y="-18" font-family="Helvetica,sans-Serif" font-size="10.00">testsuite::ExceptionsHandling</text>
<text text-anchor="middle" x="215" y="-7" font-family="Helvetica,sans-Serif" font-size="10.00">Middleware</text>
</a>
</g>
</g>
<!-- Node1&#45;&gt;Node3 -->
<g id="edge2_Node000001_Node000003" class="edge">
<title>Node1&#45;&gt;Node3</title>
<g id="a_edge2_Node000001_Node000003"><a xlink:title=" ">
<path fill="none" stroke="#63b8ff" d="M161.33,-59.48C173.14,-49.91 186.89,-38.77 197.52,-30.16"/>
<polygon fill="#63b8ff" stroke="#63b8ff" points="159.1,-56.78 153.53,-65.8 163.51,-62.22 159.1,-56.78"/>
</a>
</g>
</g>
</g>
</svg>
