<?xml version="1.0" encoding="UTF-8" standalone="no"?>
<!DOCTYPE svg PUBLIC "-//W3C//DTD SVG 1.1//EN"
 "http://www.w3.org/Graphics/SVG/1.1/DTD/svg11.dtd">
<!-- Generated by graphviz version 2.43.0 (0)
 -->
<!-- Title: ugrpc::client::BaseError Pages: 1 -->
<svg width="826pt" height="707pt"
 viewBox="0.00 0.00 826.00 707.00" xmlns="http://www.w3.org/2000/svg" xmlns:xlink="http://www.w3.org/1999/xlink">
<g id="graph0" class="graph" transform="scale(1 1) rotate(0) translate(4 703)">
<title>ugrpc::client::BaseError</title>
<!-- Node1 -->
<g id="Node000001" class="node">
<title>Node1</title>
<g id="a_Node000001"><a xlink:title="Base exception for all the client errors.">
<polygon fill="#999999" stroke="#666666" points="252,-318 122,-318 122,-299 252,-299 252,-318"/>
<text text-anchor="middle" x="187" y="-306" font-family="Helvetica,sans-Serif" font-size="10.00">ugrpc::client::BaseError</text>
</a>
</g>
</g>
<!-- Node3 -->
<g id="Node000003" class="node">
<title>Node3</title>
<g id="a_Node000003"><a xlink:href="../../d3/d28/classugrpc_1_1client_1_1RpcError.html" target="_top" xlink:title="Error during an RPC.">
<polygon fill="white" stroke="#666666" points="412,-318 288,-318 288,-299 412,-299 412,-318"/>
<text text-anchor="middle" x="350" y="-306" font-family="Helvetica,sans-Serif" font-size="10.00">ugrpc::client::RpcError</text>
</a>
</g>
</g>
<!-- Node1&#45;&gt;Node3 -->
<g id="edge2_Node000001_Node000003" class="edge">
<title>Node1&#45;&gt;Node3</title>
<g id="a_edge2_Node000001_Node000003"><a xlink:title=" ">
<path fill="none" stroke="#63b8ff" d="M262.1,-308.5C270.68,-308.5 279.36,-308.5 287.75,-308.5"/>
<polygon fill="#63b8ff" stroke="#63b8ff" points="262.09,-305 252.09,-308.5 262.09,-312 262.09,-305"/>
</a>
</g>
</g>
<!-- Node2 -->
<g id="Node000002" class="node">
<title>Node2</title>
<g id="a_Node000002"><a xlink:title=" ">
<polygon fill="white" stroke="#666666" points="86,-318 0,-318 0,-299 86,-299 86,-318"/>
<text text-anchor="middle" x="43" y="-306" font-family="Helvetica,sans-Serif" font-size="10.00">std::exception</text>
</a>
</g>
</g>
<!-- Node2&#45;&gt;Node1 -->
<g id="edge1_Node000001_Node000002" class="edge">
<title>Node2&#45;&gt;Node1</title>
<g id="a_edge1_Node000001_Node000002"><a xlink:title=" ">
<path fill="none" stroke="#63b8ff" d="M96.46,-308.5C104.73,-308.5 113.36,-308.5 121.85,-308.5"/>
<polygon fill="#63b8ff" stroke="#63b8ff" points="96.22,-305 86.22,-308.5 96.22,-312 96.22,-305"/>
</a>
</g>
</g>
<!-- Node4 -->
<g id="Node000004" class="node">
<title>Node4</title>
<g id="a_Node000004"><a xlink:href="../../d4/d7d/classugrpc_1_1client_1_1ErrorWithStatus.html" target="_top" xlink:title="Error with grpc::Status details.">
<polygon fill="white" stroke="#666666" points="589.5,-371.5 461.5,-371.5 461.5,-341.5 589.5,-341.5 589.5,-371.5"/>
<text text-anchor="start" x="469.5" y="-359.5" font-family="Helvetica,sans-Serif" font-size="10.00">ugrpc::client::ErrorWith</text>
<text text-anchor="middle" x="525.5" y="-348.5" font-family="Helvetica,sans-Serif" font-size="10.00">Status</text>
</a>
</g>
</g>
<!-- Node3&#45;&gt;Node4 -->
<g id="edge3_Node000003_Node000004" class="edge">
<title>Node3&#45;&gt;Node4</title>
<g id="a_edge3_Node000003_Node000004"><a xlink:title=" ">
<path fill="none" stroke="#63b8ff" d="M395.42,-320.79C418.16,-327.08 446.03,-334.79 470.05,-341.44"/>
<polygon fill="#63b8ff" stroke="#63b8ff" points="396.26,-317.39 385.69,-318.1 394.4,-324.14 396.26,-317.39"/>
</a>
</g>
</g>
<!-- Node21 -->
<g id="Node000021" class="node">
<title>Node21</title>
<g id="a_Node000021"><a xlink:href="../../d8/ddb/classugrpc_1_1client_1_1RpcCancelledError.html" target="_top" xlink:title="RPC failed due to task cancellation.">
<polygon fill="white" stroke="#666666" points="600,-323.5 451,-323.5 451,-293.5 600,-293.5 600,-323.5"/>
<text text-anchor="start" x="459" y="-311.5" font-family="Helvetica,sans-Serif" font-size="10.00">ugrpc::client::RpcCancelled</text>
<text text-anchor="middle" x="525.5" y="-300.5" font-family="Helvetica,sans-Serif" font-size="10.00">Error</text>
</a>
</g>
</g>
<!-- Node3&#45;&gt;Node21 -->
<g id="edge20_Node000003_Node000021" class="edge">
<title>Node3&#45;&gt;Node21</title>
<g id="a_edge20_Node000003_Node000021"><a xlink:title=" ">
<path fill="none" stroke="#63b8ff" d="M422.26,-308.5C431.68,-308.5 441.34,-308.5 450.79,-308.5"/>
<polygon fill="#63b8ff" stroke="#63b8ff" points="422.17,-305 412.17,-308.5 422.17,-312 422.17,-305"/>
</a>
</g>
</g>
<!-- Node22 -->
<g id="Node000022" class="node">
<title>Node22</title>
<g id="a_Node000022"><a xlink:href="../../db/d86/classugrpc_1_1client_1_1RpcInterruptedError.html" target="_top" xlink:title="RPC failed without a status. This means that either the call got cancelled using TryCancel,...">
<polygon fill="white" stroke="#666666" points="603,-275.5 448,-275.5 448,-245.5 603,-245.5 603,-275.5"/>
<text text-anchor="start" x="456" y="-263.5" font-family="Helvetica,sans-Serif" font-size="10.00">ugrpc::client::RpcInterrupted</text>
<text text-anchor="middle" x="525.5" y="-252.5" font-family="Helvetica,sans-Serif" font-size="10.00">Error</text>
</a>
</g>
</g>
<!-- Node3&#45;&gt;Node22 -->
<g id="edge21_Node000003_Node000022" class="edge">
<title>Node3&#45;&gt;Node22</title>
<g id="a_edge21_Node000003_Node000022"><a xlink:title=" ">
<path fill="none" stroke="#63b8ff" d="M395.42,-296.21C418.16,-289.92 446.03,-282.21 470.05,-275.56"/>
<polygon fill="#63b8ff" stroke="#63b8ff" points="394.4,-292.86 385.69,-298.9 396.26,-299.61 394.4,-292.86"/>
</a>
</g>
</g>
<!-- Node5 -->
<g id="Node000005" class="node">
<title>Node5</title>
<g id="a_Node000005"><a xlink:href="../../d3/d0b/classugrpc_1_1client_1_1AbortedError.html" target="_top" xlink:title=" ">
<polygon fill="white" stroke="#bfbfbf" points="800.5,-699 656.5,-699 656.5,-680 800.5,-680 800.5,-699"/>
<text text-anchor="middle" x="728.5" y="-687" font-family="Helvetica,sans-Serif" font-size="10.00">ugrpc::client::AbortedError</text>
</a>
</g>
</g>
<!-- Node4&#45;&gt;Node5 -->
<g id="edge4_Node000004_Node000005" class="edge">
<title>Node4&#45;&gt;Node5</title>
<g id="a_edge4_Node000004_Node000005"><a xlink:title=" ">
<path fill="none" stroke="#63b8ff" d="M527.63,-381.88C531.75,-441.89 550.82,-593.29 639,-670.5 644.08,-674.95 649.96,-678.44 656.21,-681.17"/>
<polygon fill="#63b8ff" stroke="#63b8ff" points="531.12,-381.54 527.02,-371.77 524.13,-381.96 531.12,-381.54"/>
</a>
</g>
</g>
<!-- Node6 -->
<g id="Node000006" class="node">
<title>Node6</title>
<g id="a_Node000006"><a xlink:href="../../dc/d5f/classugrpc_1_1client_1_1AlreadyExistsError.html" target="_top" xlink:title=" ">
<polygon fill="white" stroke="#bfbfbf" points="803,-661.5 654,-661.5 654,-631.5 803,-631.5 803,-661.5"/>
<text text-anchor="start" x="662" y="-649.5" font-family="Helvetica,sans-Serif" font-size="10.00">ugrpc::client::AlreadyExists</text>
<text text-anchor="middle" x="728.5" y="-638.5" font-family="Helvetica,sans-Serif" font-size="10.00">Error</text>
</a>
</g>
</g>
<!-- Node4&#45;&gt;Node6 -->
<g id="edge5_Node000004_Node000006" class="edge">
<title>Node4&#45;&gt;Node6</title>
<g id="a_edge5_Node000004_Node000006"><a xlink:title=" ">
<path fill="none" stroke="#63b8ff" d="M529.82,-382.03C538.09,-435.05 564.6,-557.54 639,-622.5 643.44,-626.37 648.44,-629.63 653.75,-632.36"/>
<polygon fill="#63b8ff" stroke="#63b8ff" points="533.23,-381.2 528.32,-371.82 526.31,-382.22 533.23,-381.2"/>
</a>
</g>
</g>
<!-- Node7 -->
<g id="Node000007" class="node">
<title>Node7</title>
<g id="a_Node000007"><a xlink:href="../../d3/dc0/classugrpc_1_1client_1_1CancelledError.html" target="_top" xlink:title="Concrete errors for all the error codes.">
<polygon fill="white" stroke="#666666" points="794,-613.5 663,-613.5 663,-583.5 794,-583.5 794,-613.5"/>
<text text-anchor="start" x="671" y="-601.5" font-family="Helvetica,sans-Serif" font-size="10.00">ugrpc::client::Cancelled</text>
<text text-anchor="middle" x="728.5" y="-590.5" font-family="Helvetica,sans-Serif" font-size="10.00">Error</text>
</a>
</g>
</g>
<!-- Node4&#45;&gt;Node7 -->
<g id="edge6_Node000004_Node000007" class="edge">
<title>Node4&#45;&gt;Node7</title>
<g id="a_edge6_Node000004_Node000007"><a xlink:title=" ">
<path fill="none" stroke="#63b8ff" d="M532.31,-381.51C544.19,-427.01 575.67,-523.33 639,-574.5 645.93,-580.1 654.07,-584.4 662.55,-587.7"/>
<polygon fill="#63b8ff" stroke="#63b8ff" points="535.65,-380.45 529.82,-371.6 528.86,-382.15 535.65,-380.45"/>
</a>
</g>
</g>
<!-- Node8 -->
<g id="Node000008" class="node">
<title>Node8</title>
<g id="a_Node000008"><a xlink:href="../../d6/d3e/classugrpc_1_1client_1_1DataLossError.html" target="_top" xlink:title=" ">
<polygon fill="white" stroke="#bfbfbf" points="804,-565 653,-565 653,-546 804,-546 804,-565"/>
<text text-anchor="middle" x="728.5" y="-553" font-family="Helvetica,sans-Serif" font-size="10.00">ugrpc::client::DataLossError</text>
</a>
</g>
</g>
<!-- Node4&#45;&gt;Node8 -->
<g id="edge7_Node000004_Node000008" class="edge">
<title>Node4&#45;&gt;Node8</title>
<g id="a_edge7_Node000004_Node000008"><a xlink:title=" ">
<path fill="none" stroke="#63b8ff" d="M534.79,-381.34C549.3,-420.8 583.2,-497.35 639,-536.5 644.53,-540.38 650.7,-543.49 657.14,-545.99"/>
<polygon fill="#63b8ff" stroke="#63b8ff" points="538.01,-379.95 531.36,-371.7 531.41,-382.3 538.01,-379.95"/>
</a>
</g>
</g>
<!-- Node9 -->
<g id="Node000009" class="node">
<title>Node9</title>
<g id="a_Node000009"><a xlink:href="../../d2/dc6/classugrpc_1_1client_1_1DeadlineExceededError.html" target="_top" xlink:title=" ">
<polygon fill="white" stroke="#bfbfbf" points="815,-527.5 642,-527.5 642,-497.5 815,-497.5 815,-527.5"/>
<text text-anchor="start" x="650" y="-515.5" font-family="Helvetica,sans-Serif" font-size="10.00">ugrpc::client::DeadlineExceeded</text>
<text text-anchor="middle" x="728.5" y="-504.5" font-family="Helvetica,sans-Serif" font-size="10.00">Error</text>
</a>
</g>
</g>
<!-- Node4&#45;&gt;Node9 -->
<g id="edge8_Node000004_Node000009" class="edge">
<title>Node4&#45;&gt;Node9</title>
<g id="a_edge8_Node000004_Node000009"><a xlink:title=" ">
<path fill="none" stroke="#63b8ff" d="M540.4,-380.29C559.05,-410.08 594.98,-460.6 639,-488.5 644.38,-491.91 650.24,-494.84 656.29,-497.36"/>
<polygon fill="#63b8ff" stroke="#63b8ff" points="543.39,-378.46 535.18,-371.75 537.42,-382.11 543.39,-378.46"/>
</a>
</g>
</g>
<!-- Node10 -->
<g id="Node000010" class="node">
<title>Node10</title>
<g id="a_Node000010"><a xlink:href="../../d3/d87/classugrpc_1_1client_1_1FailedPreconditionError.html" target="_top" xlink:title=" ">
<polygon fill="white" stroke="#bfbfbf" points="814.5,-479.5 642.5,-479.5 642.5,-449.5 814.5,-449.5 814.5,-479.5"/>
<text text-anchor="start" x="650.5" y="-467.5" font-family="Helvetica,sans-Serif" font-size="10.00">ugrpc::client::FailedPrecondition</text>
<text text-anchor="middle" x="728.5" y="-456.5" font-family="Helvetica,sans-Serif" font-size="10.00">Error</text>
</a>
</g>
</g>
<!-- Node4&#45;&gt;Node10 -->
<g id="edge9_Node000004_Node000010" class="edge">
<title>Node4&#45;&gt;Node10</title>
<g id="a_edge9_Node000004_Node000010"><a xlink:title=" ">
<path fill="none" stroke="#63b8ff" d="M550.4,-378.6C572.05,-397.53 605.58,-424.23 639,-440.5 646.01,-443.91 653.58,-446.9 661.24,-449.5"/>
<polygon fill="#63b8ff" stroke="#63b8ff" points="552.51,-375.8 542.71,-371.77 547.86,-381.03 552.51,-375.8"/>
</a>
</g>
</g>
<!-- Node11 -->
<g id="Node000011" class="node">
<title>Node11</title>
<g id="a_Node000011"><a xlink:href="../../d9/d4d/classugrpc_1_1client_1_1InternalError.html" target="_top" xlink:title=" ">
<polygon fill="white" stroke="#bfbfbf" points="800,-431 657,-431 657,-412 800,-412 800,-431"/>
<text text-anchor="middle" x="728.5" y="-419" font-family="Helvetica,sans-Serif" font-size="10.00">ugrpc::client::InternalError</text>
</a>
</g>
</g>
<!-- Node4&#45;&gt;Node11 -->
<g id="edge10_Node000004_Node000011" class="edge">
<title>Node4&#45;&gt;Node11</title>
<g id="a_edge10_Node000004_Node000011"><a xlink:title=" ">
<path fill="none" stroke="#63b8ff" d="M568.16,-375.59C589.1,-384.66 615.05,-395.1 639,-402.5 650.71,-406.12 663.5,-409.3 675.63,-411.97"/>
<polygon fill="#63b8ff" stroke="#63b8ff" points="569.49,-372.35 558.92,-371.54 566.68,-378.76 569.49,-372.35"/>
</a>
</g>
</g>
<!-- Node12 -->
<g id="Node000012" class="node">
<title>Node12</title>
<g id="a_Node000012"><a xlink:href="../../d4/dc9/classugrpc_1_1client_1_1InvalidArgumentError.html" target="_top" xlink:title=" ">
<polygon fill="white" stroke="#bfbfbf" points="810.5,-393.5 646.5,-393.5 646.5,-363.5 810.5,-363.5 810.5,-393.5"/>
<text text-anchor="start" x="654.5" y="-381.5" font-family="Helvetica,sans-Serif" font-size="10.00">ugrpc::client::InvalidArgument</text>
<text text-anchor="middle" x="728.5" y="-370.5" font-family="Helvetica,sans-Serif" font-size="10.00">Error</text>
</a>
</g>
</g>
<!-- Node4&#45;&gt;Node12 -->
<g id="edge11_Node000004_Node000012" class="edge">
<title>Node4&#45;&gt;Node12</title>
<g id="a_edge11_Node000004_Node000012"><a xlink:title=" ">
<path fill="none" stroke="#63b8ff" d="M599.83,-364.53C614.91,-366.18 630.87,-367.92 646.21,-369.6"/>
<polygon fill="#63b8ff" stroke="#63b8ff" points="599.87,-361.01 589.55,-363.4 599.11,-367.97 599.87,-361.01"/>
</a>
</g>
</g>
<!-- Node13 -->
<g id="Node000013" class="node">
<title>Node13</title>
<g id="a_Node000013"><a xlink:href="../../d9/dc2/classugrpc_1_1client_1_1NotFoundError.html" target="_top" xlink:title=" ">
<polygon fill="white" stroke="#bfbfbf" points="804.5,-345 652.5,-345 652.5,-326 804.5,-326 804.5,-345"/>
<text text-anchor="middle" x="728.5" y="-333" font-family="Helvetica,sans-Serif" font-size="10.00">ugrpc::client::NotFoundError</text>
</a>
</g>
</g>
<!-- Node4&#45;&gt;Node13 -->
<g id="edge12_Node000004_Node000013" class="edge">
<title>Node4&#45;&gt;Node13</title>
<g id="a_edge12_Node000004_Node000013"><a xlink:title=" ">
<path fill="none" stroke="#63b8ff" d="M599.52,-348.87C616.71,-347.08 635.06,-345.16 652.35,-343.35"/>
<polygon fill="#63b8ff" stroke="#63b8ff" points="599.13,-345.39 589.55,-349.91 599.86,-352.35 599.13,-345.39"/>
</a>
</g>
</g>
<!-- Node14 -->
<g id="Node000014" class="node">
<title>Node14</title>
<g id="a_Node000014"><a xlink:href="../../dd/d53/classugrpc_1_1client_1_1OutOfRangeError.html" target="_top" xlink:title=" ">
<polygon fill="white" stroke="#bfbfbf" points="799.5,-307.5 657.5,-307.5 657.5,-277.5 799.5,-277.5 799.5,-307.5"/>
<text text-anchor="start" x="665.5" y="-295.5" font-family="Helvetica,sans-Serif" font-size="10.00">ugrpc::client::OutOfRange</text>
<text text-anchor="middle" x="728.5" y="-284.5" font-family="Helvetica,sans-Serif" font-size="10.00">Error</text>
</a>
</g>
</g>
<!-- Node4&#45;&gt;Node14 -->
<g id="edge13_Node000004_Node000014" class="edge">
<title>Node4&#45;&gt;Node14</title>
<g id="a_edge13_Node000004_Node000014"><a xlink:title=" ">
<path fill="none" stroke="#63b8ff" d="M586.81,-338.15C592.3,-336.3 597.77,-334.41 603,-332.5 619.29,-326.57 622.63,-323.2 639,-317.5 649.1,-313.98 659.98,-310.59 670.53,-307.51"/>
<polygon fill="#63b8ff" stroke="#63b8ff" points="585.33,-334.95 576.92,-341.4 587.52,-341.6 585.33,-334.95"/>
</a>
</g>
</g>
<!-- Node15 -->
<g id="Node000015" class="node">
<title>Node15</title>
<g id="a_Node000015"><a xlink:href="../../d1/d8a/classugrpc_1_1client_1_1PermissionDeniedError.html" target="_top" xlink:title=" ">
<polygon fill="white" stroke="#bfbfbf" points="797,-259.5 660,-259.5 660,-229.5 797,-229.5 797,-259.5"/>
<text text-anchor="start" x="668" y="-247.5" font-family="Helvetica,sans-Serif" font-size="10.00">ugrpc::client::Permission</text>
<text text-anchor="middle" x="728.5" y="-236.5" font-family="Helvetica,sans-Serif" font-size="10.00">DeniedError</text>
</a>
</g>
</g>
<!-- Node4&#45;&gt;Node15 -->
<g id="edge14_Node000004_Node000015" class="edge">
<title>Node4&#45;&gt;Node15</title>
<g id="a_edge14_Node000004_Node000015"><a xlink:title=" ">
<path fill="none" stroke="#63b8ff" d="M598.06,-336.15C599.77,-335 601.42,-333.78 603,-332.5 628.35,-311.95 613.25,-288.55 639,-268.5 645.15,-263.71 652.2,-259.87 659.56,-256.8"/>
<polygon fill="#63b8ff" stroke="#63b8ff" points="595.99,-333.3 589.12,-341.37 599.52,-339.34 595.99,-333.3"/>
</a>
</g>
</g>
<!-- Node16 -->
<g id="Node000016" class="node">
<title>Node16</title>
<g id="a_Node000016"><a xlink:href="../../d8/db2/classugrpc_1_1client_1_1ResourceExhaustedError.html" target="_top" xlink:title=" ">
<polygon fill="white" stroke="#bfbfbf" points="818,-211.5 639,-211.5 639,-181.5 818,-181.5 818,-211.5"/>
<text text-anchor="start" x="647" y="-199.5" font-family="Helvetica,sans-Serif" font-size="10.00">ugrpc::client::ResourceExhausted</text>
<text text-anchor="middle" x="728.5" y="-188.5" font-family="Helvetica,sans-Serif" font-size="10.00">Error</text>
</a>
</g>
</g>
<!-- Node4&#45;&gt;Node16 -->
<g id="edge15_Node000004_Node000016" class="edge">
<title>Node4&#45;&gt;Node16</title>
<g id="a_edge15_Node000004_Node000016"><a xlink:title=" ">
<path fill="none" stroke="#63b8ff" d="M598.3,-336.65C599.95,-335.35 601.52,-333.97 603,-332.5 640.1,-295.66 601.18,-256.61 639,-220.5 642.57,-217.09 646.57,-214.16 650.85,-211.63"/>
<polygon fill="#63b8ff" stroke="#63b8ff" points="595.95,-334.01 589.54,-342.45 599.81,-339.85 595.95,-334.01"/>
</a>
</g>
</g>
<!-- Node17 -->
<g id="Node000017" class="node">
<title>Node17</title>
<g id="a_Node000017"><a xlink:href="../../d4/da1/classugrpc_1_1client_1_1UnauthenticatedError.html" target="_top" xlink:title=" ">
<polygon fill="white" stroke="#bfbfbf" points="810.5,-163.5 646.5,-163.5 646.5,-133.5 810.5,-133.5 810.5,-163.5"/>
<text text-anchor="start" x="654.5" y="-151.5" font-family="Helvetica,sans-Serif" font-size="10.00">ugrpc::client::Unauthenticated</text>
<text text-anchor="middle" x="728.5" y="-140.5" font-family="Helvetica,sans-Serif" font-size="10.00">Error</text>
</a>
</g>
</g>
<!-- Node4&#45;&gt;Node17 -->
<g id="edge16_Node000004_Node000017" class="edge">
<title>Node4&#45;&gt;Node17</title>
<g id="a_edge16_Node000004_Node000017"><a xlink:title=" ">
<path fill="none" stroke="#63b8ff" d="M597.95,-337.26C599.74,-335.79 601.43,-334.21 603,-332.5 652.37,-278.87 588.59,-225.15 639,-172.5 642.3,-169.05 646.05,-166.08 650.08,-163.52"/>
<polygon fill="#63b8ff" stroke="#63b8ff" points="595.82,-334.48 589.56,-343.03 599.79,-340.25 595.82,-334.48"/>
</a>
</g>
</g>
<!-- Node18 -->
<g id="Node000018" class="node">
<title>Node18</title>
<g id="a_Node000018"><a xlink:href="../../de/df2/classugrpc_1_1client_1_1UnavailableError.html" target="_top" xlink:title=" ">
<polygon fill="white" stroke="#bfbfbf" points="799,-115.5 658,-115.5 658,-85.5 799,-85.5 799,-115.5"/>
<text text-anchor="start" x="666" y="-103.5" font-family="Helvetica,sans-Serif" font-size="10.00">ugrpc::client::Unavailable</text>
<text text-anchor="middle" x="728.5" y="-92.5" font-family="Helvetica,sans-Serif" font-size="10.00">Error</text>
</a>
</g>
</g>
<!-- Node4&#45;&gt;Node18 -->
<g id="edge17_Node000004_Node000018" class="edge">
<title>Node4&#45;&gt;Node18</title>
<g id="a_edge17_Node000004_Node000018"><a xlink:title=" ">
<path fill="none" stroke="#63b8ff" d="M598.07,-337.37C599.82,-335.86 601.47,-334.24 603,-332.5 664.8,-261.91 575.83,-193.87 639,-124.5 644.25,-118.73 650.74,-114.29 657.79,-110.89"/>
<polygon fill="#63b8ff" stroke="#63b8ff" points="595.92,-334.6 589.79,-343.24 599.97,-340.31 595.92,-334.6"/>
</a>
</g>
</g>
<!-- Node19 -->
<g id="Node000019" class="node">
<title>Node19</title>
<g id="a_Node000019"><a xlink:href="../../da/dc4/classugrpc_1_1client_1_1UnimplementedError.html" target="_top" xlink:title=" ">
<polygon fill="white" stroke="#bfbfbf" points="809,-67.5 648,-67.5 648,-37.5 809,-37.5 809,-67.5"/>
<text text-anchor="start" x="656" y="-55.5" font-family="Helvetica,sans-Serif" font-size="10.00">ugrpc::client::Unimplemented</text>
<text text-anchor="middle" x="728.5" y="-44.5" font-family="Helvetica,sans-Serif" font-size="10.00">Error</text>
</a>
</g>
</g>
<!-- Node4&#45;&gt;Node19 -->
<g id="edge18_Node000004_Node000019" class="edge">
<title>Node4&#45;&gt;Node19</title>
<g id="a_edge18_Node000004_Node000019"><a xlink:title=" ">
<path fill="none" stroke="#63b8ff" d="M598.01,-337.54C599.79,-335.99 601.46,-334.31 603,-332.5 677.3,-244.86 562.99,-162.66 639,-76.5 641.95,-73.16 645.31,-70.26 648.96,-67.75"/>
<polygon fill="#63b8ff" stroke="#63b8ff" points="595.67,-334.91 589.57,-343.57 599.74,-340.6 595.67,-334.91"/>
</a>
</g>
</g>
<!-- Node20 -->
<g id="Node000020" class="node">
<title>Node20</title>
<g id="a_Node000020"><a xlink:href="../../dc/d6c/classugrpc_1_1client_1_1UnknownError.html" target="_top" xlink:title=" ">
<polygon fill="white" stroke="#bfbfbf" points="804.5,-19 652.5,-19 652.5,0 804.5,0 804.5,-19"/>
<text text-anchor="middle" x="728.5" y="-7" font-family="Helvetica,sans-Serif" font-size="10.00">ugrpc::client::UnknownError</text>
</a>
</g>
</g>
<!-- Node4&#45;&gt;Node20 -->
<g id="edge19_Node000004_Node000020" class="edge">
<title>Node4&#45;&gt;Node20</title>
<g id="a_edge19_Node000004_Node000020"><a xlink:title=" ">
<path fill="none" stroke="#63b8ff" d="M598.06,-337.58C599.83,-336.02 601.48,-334.33 603,-332.5 689.85,-227.77 547.4,-129.1 639,-28.5 642.81,-24.32 647.3,-20.93 652.2,-18.21"/>
<polygon fill="#63b8ff" stroke="#63b8ff" points="595.72,-334.96 589.67,-343.66 599.83,-340.63 595.72,-334.96"/>
</a>
</g>
</g>
</g>
</svg>
