<?xml version="1.0" encoding="UTF-8" standalone="no"?>
<!DOCTYPE svg PUBLIC "-//W3C//DTD SVG 1.1//EN"
 "http://www.w3.org/Graphics/SVG/1.1/DTD/svg11.dtd">
<!-- Generated by graphviz version 2.43.0 (0)
 -->
<!-- Title: userver/components/single_threaded_task_processors.hpp Pages: 1 -->
<svg width="607pt" height="247pt"
 viewBox="0.00 0.00 607.00 247.00" xmlns="http://www.w3.org/2000/svg" xmlns:xlink="http://www.w3.org/1999/xlink">
<g id="graph0" class="graph" transform="scale(1 1) rotate(0) translate(4 243)">
<title>userver/components/single_threaded_task_processors.hpp</title>
<!-- Node1 -->
<g id="Node000001" class="node">
<title>Node1</title>
<g id="a_Node000001"><a xlink:title="Component that starts multiple single threaded task processors.">
<polygon fill="#999999" stroke="#666666" points="413.5,-239 289.5,-239 289.5,-198 413.5,-198 413.5,-239"/>
<text text-anchor="start" x="297.5" y="-227" font-family="Helvetica,sans-Serif" font-size="10.00">userver/components</text>
<text text-anchor="start" x="297.5" y="-216" font-family="Helvetica,sans-Serif" font-size="10.00">/single_threaded_task</text>
<text text-anchor="middle" x="351.5" y="-205" font-family="Helvetica,sans-Serif" font-size="10.00">_processors.hpp</text>
</a>
</g>
</g>
<!-- Node2 -->
<g id="Node000002" class="node">
<title>Node2</title>
<g id="a_Node000002"><a xlink:href="../../da/d11/loggable__component__base_8hpp.html" target="_top" xlink:title="Contains components::LoggableComponentBase declaration and forward declarations of components::Compon...">
<polygon fill="white" stroke="#666666" points="285.5,-162 163.5,-162 163.5,-121 285.5,-121 285.5,-162"/>
<text text-anchor="start" x="171.5" y="-150" font-family="Helvetica,sans-Serif" font-size="10.00">userver/components</text>
<text text-anchor="start" x="171.5" y="-139" font-family="Helvetica,sans-Serif" font-size="10.00">/loggable_component</text>
<text text-anchor="middle" x="224.5" y="-128" font-family="Helvetica,sans-Serif" font-size="10.00">_base.hpp</text>
</a>
</g>
</g>
<!-- Node1&#45;&gt;Node2 -->
<g id="edge1_Node000001_Node000002" class="edge">
<title>Node1&#45;&gt;Node2</title>
<g id="a_edge1_Node000001_Node000002"><a xlink:title=" ">
<path fill="none" stroke="#63b8ff" d="M318.46,-197.99C302.71,-188.69 283.68,-177.45 266.88,-167.53"/>
<polygon fill="#63b8ff" stroke="#63b8ff" points="268.2,-164.24 257.81,-162.17 264.64,-170.27 268.2,-164.24"/>
</a>
</g>
</g>
<!-- Node6 -->
<g id="Node000006" class="node">
<title>Node6</title>
<g id="a_Node000006"><a xlink:href="../../de/d3f/single__threaded__task__processors__pool_8hpp_source.html" target="_top" xlink:title=" ">
<polygon fill="white" stroke="#666666" points="503.5,-162 379.5,-162 379.5,-121 503.5,-121 503.5,-162"/>
<text text-anchor="start" x="387.5" y="-150" font-family="Helvetica,sans-Serif" font-size="10.00">userver/engine/task</text>
<text text-anchor="start" x="387.5" y="-139" font-family="Helvetica,sans-Serif" font-size="10.00">/single_threaded_task</text>
<text text-anchor="middle" x="441.5" y="-128" font-family="Helvetica,sans-Serif" font-size="10.00">_processors_pool.hpp</text>
</a>
</g>
</g>
<!-- Node1&#45;&gt;Node6 -->
<g id="edge5_Node000001_Node000006" class="edge">
<title>Node1&#45;&gt;Node6</title>
<g id="a_edge5_Node000001_Node000006"><a xlink:title=" ">
<path fill="none" stroke="#63b8ff" d="M375.15,-197.79C385.89,-188.84 398.76,-178.12 410.29,-168.51"/>
<polygon fill="#63b8ff" stroke="#63b8ff" points="412.57,-171.16 418.01,-162.07 408.09,-165.79 412.57,-171.16"/>
</a>
</g>
</g>
<!-- Node7 -->
<g id="Node000007" class="node">
<title>Node7</title>
<g id="a_Node000007"><a xlink:title=" ">
<polygon fill="#e0e0e0" stroke="#999999" points="371.5,-79.5 313.5,-79.5 313.5,-60.5 371.5,-60.5 371.5,-79.5"/>
<text text-anchor="middle" x="342.5" y="-67.5" font-family="Helvetica,sans-Serif" font-size="10.00">memory</text>
</a>
</g>
</g>
<!-- Node1&#45;&gt;Node7 -->
<g id="edge11_Node000001_Node000007" class="edge">
<title>Node1&#45;&gt;Node7</title>
<g id="a_edge11_Node000001_Node000007"><a xlink:title=" ">
<path fill="none" stroke="#63b8ff" d="M345.31,-197.95C342.3,-187.42 339.01,-174.13 337.5,-162 335.25,-143.92 336.59,-139.2 337.5,-121 338.01,-110.72 339.12,-99.29 340.16,-89.96"/>
<polygon fill="#63b8ff" stroke="#63b8ff" points="343.65,-90.17 341.35,-79.83 336.7,-89.35 343.65,-90.17"/>
</a>
</g>
</g>
<!-- Node8 -->
<g id="Node000008" class="node">
<title>Node8</title>
<g id="a_Node000008"><a xlink:title=" ">
<polygon fill="#e0e0e0" stroke="#999999" points="442,-79.5 395,-79.5 395,-60.5 442,-60.5 442,-79.5"/>
<text text-anchor="middle" x="418.5" y="-67.5" font-family="Helvetica,sans-Serif" font-size="10.00">vector</text>
</a>
</g>
</g>
<!-- Node1&#45;&gt;Node8 -->
<g id="edge12_Node000001_Node000008" class="edge">
<title>Node1&#45;&gt;Node8</title>
<g id="a_edge12_Node000001_Node000008"><a xlink:title=" ">
<path fill="none" stroke="#63b8ff" d="M352.14,-197.95C353.52,-177.66 357.73,-145.54 370.5,-121 377.51,-107.52 389.28,-95.18 399.41,-86.13"/>
<polygon fill="#63b8ff" stroke="#63b8ff" points="401.71,-88.76 407.06,-79.61 397.18,-83.43 401.71,-88.76"/>
</a>
</g>
</g>
<!-- Node9 -->
<g id="Node000009" class="node">
<title>Node9</title>
<g id="a_Node000009"><a xlink:href="../../d8/d03/task__processor__fwd_8hpp.html" target="_top" xlink:title=" ">
<polygon fill="white" stroke="#666666" points="599,-85 462,-85 462,-55 599,-55 599,-85"/>
<text text-anchor="start" x="470" y="-73" font-family="Helvetica,sans-Serif" font-size="10.00">userver/engine/task</text>
<text text-anchor="middle" x="530.5" y="-62" font-family="Helvetica,sans-Serif" font-size="10.00">/task_processor_fwd.hpp</text>
</a>
</g>
</g>
<!-- Node1&#45;&gt;Node9 -->
<g id="edge10_Node000001_Node000009" class="edge">
<title>Node1&#45;&gt;Node9</title>
<g id="a_edge10_Node000001_Node000009"><a xlink:title=" ">
<path fill="none" stroke="#63b8ff" d="M413.75,-211.06C447.69,-204.29 487.73,-190.41 512.5,-162 528.4,-143.77 531.84,-115.61 531.96,-95.44"/>
<polygon fill="#63b8ff" stroke="#63b8ff" points="535.46,-95.1 531.75,-85.18 528.46,-95.25 535.46,-95.1"/>
</a>
</g>
</g>
<!-- Node3 -->
<g id="Node000003" class="node">
<title>Node3</title>
<g id="a_Node000003"><a xlink:href="../../d7/d47/component__fwd_8hpp.html" target="_top" xlink:title="Forward declarations for components::ComponentContext and components::ComponentConfig; function compo...">
<polygon fill="white" stroke="#666666" points="285.5,-85 167.5,-85 167.5,-55 285.5,-55 285.5,-85"/>
<text text-anchor="start" x="175.5" y="-73" font-family="Helvetica,sans-Serif" font-size="10.00">userver/components</text>
<text text-anchor="middle" x="226.5" y="-62" font-family="Helvetica,sans-Serif" font-size="10.00">/component_fwd.hpp</text>
</a>
</g>
</g>
<!-- Node2&#45;&gt;Node3 -->
<g id="edge2_Node000002_Node000003" class="edge">
<title>Node2&#45;&gt;Node3</title>
<g id="a_edge2_Node000002_Node000003"><a xlink:title=" ">
<path fill="none" stroke="#63b8ff" d="M225.07,-120.77C225.3,-112.85 225.56,-103.63 225.8,-95.3"/>
<polygon fill="#63b8ff" stroke="#63b8ff" points="229.31,-95.13 226.1,-85.04 222.31,-94.93 229.31,-95.13"/>
</a>
</g>
</g>
<!-- Node5 -->
<g id="Node000005" class="node">
<title>Node5</title>
<g id="a_Node000005"><a xlink:href="../../d2/d61/component__base_8hpp_source.html" target="_top" xlink:title=" ">
<polygon fill="white" stroke="#666666" points="149,-85 0,-85 0,-55 149,-55 149,-85"/>
<text text-anchor="start" x="8" y="-73" font-family="Helvetica,sans-Serif" font-size="10.00">userver/components</text>
<text text-anchor="middle" x="74.5" y="-62" font-family="Helvetica,sans-Serif" font-size="10.00">/impl/component_base.hpp</text>
</a>
</g>
</g>
<!-- Node2&#45;&gt;Node5 -->
<g id="edge4_Node000002_Node000005" class="edge">
<title>Node2&#45;&gt;Node5</title>
<g id="a_edge4_Node000002_Node000005"><a xlink:title=" ">
<path fill="none" stroke="#63b8ff" d="M182.32,-120.96C160.98,-111.07 135.22,-99.13 114.23,-89.41"/>
<polygon fill="#63b8ff" stroke="#63b8ff" points="115.5,-86.14 104.96,-85.11 112.56,-92.49 115.5,-86.14"/>
</a>
</g>
</g>
<!-- Node4 -->
<g id="Node000004" class="node">
<title>Node4</title>
<g id="a_Node000004"><a xlink:title=" ">
<polygon fill="#e0e0e0" stroke="#999999" points="248.5,-19 204.5,-19 204.5,0 248.5,0 248.5,-19"/>
<text text-anchor="middle" x="226.5" y="-7" font-family="Helvetica,sans-Serif" font-size="10.00">string</text>
</a>
</g>
</g>
<!-- Node3&#45;&gt;Node4 -->
<g id="edge3_Node000003_Node000004" class="edge">
<title>Node3&#45;&gt;Node4</title>
<g id="a_edge3_Node000003_Node000004"><a xlink:title=" ">
<path fill="none" stroke="#63b8ff" d="M226.5,-54.84C226.5,-47.21 226.5,-37.7 226.5,-29.45"/>
<polygon fill="#63b8ff" stroke="#63b8ff" points="230,-29.27 226.5,-19.27 223,-29.27 230,-29.27"/>
</a>
</g>
</g>
<!-- Node6&#45;&gt;Node7 -->
<g id="edge6_Node000006_Node000007" class="edge">
<title>Node6&#45;&gt;Node7</title>
<g id="a_edge6_Node000006_Node000007"><a xlink:title=" ">
<path fill="none" stroke="#63b8ff" d="M413.66,-120.96C397.56,-109.65 377.64,-95.67 362.98,-85.38"/>
<polygon fill="#63b8ff" stroke="#63b8ff" points="364.81,-82.38 354.61,-79.5 360.79,-88.11 364.81,-82.38"/>
</a>
</g>
</g>
<!-- Node6&#45;&gt;Node8 -->
<g id="edge7_Node000006_Node000008" class="edge">
<title>Node6&#45;&gt;Node8</title>
<g id="a_edge7_Node000006_Node000008"><a xlink:title=" ">
<path fill="none" stroke="#63b8ff" d="M434.97,-120.77C431.73,-110.97 427.83,-99.2 424.65,-89.57"/>
<polygon fill="#63b8ff" stroke="#63b8ff" points="427.88,-88.21 421.42,-79.82 421.24,-90.41 427.88,-88.21"/>
</a>
</g>
</g>
<!-- Node6&#45;&gt;Node9 -->
<g id="edge8_Node000006_Node000009" class="edge">
<title>Node6&#45;&gt;Node9</title>
<g id="a_edge8_Node000006_Node000009"><a xlink:title=" ">
<path fill="none" stroke="#63b8ff" d="M466.77,-120.77C478.51,-111.6 492.47,-100.7 504.32,-91.44"/>
<polygon fill="#63b8ff" stroke="#63b8ff" points="506.8,-93.95 512.52,-85.04 502.49,-88.43 506.8,-93.95"/>
</a>
</g>
</g>
<!-- Node10 -->
<g id="Node000010" class="node">
<title>Node10</title>
<g id="a_Node000010"><a xlink:title=" ">
<polygon fill="#e0e0e0" stroke="#999999" points="563,-19 498,-19 498,0 563,0 563,-19"/>
<text text-anchor="middle" x="530.5" y="-7" font-family="Helvetica,sans-Serif" font-size="10.00">functional</text>
</a>
</g>
</g>
<!-- Node9&#45;&gt;Node10 -->
<g id="edge9_Node000009_Node000010" class="edge">
<title>Node9&#45;&gt;Node10</title>
<g id="a_edge9_Node000009_Node000010"><a xlink:title=" ">
<path fill="none" stroke="#63b8ff" d="M530.5,-54.84C530.5,-47.21 530.5,-37.7 530.5,-29.45"/>
<polygon fill="#63b8ff" stroke="#63b8ff" points="534,-29.27 530.5,-19.27 527,-29.27 534,-29.27"/>
</a>
</g>
</g>
</g>
</svg>
