<?xml version="1.0" encoding="UTF-8" standalone="no"?>
<!DOCTYPE svg PUBLIC "-//W3C//DTD SVG 1.1//EN"
 "http://www.w3.org/Graphics/SVG/1.1/DTD/svg11.dtd">
<!-- Generated by graphviz version 2.43.0 (0)
 -->
<!-- Title: userver/storages/mysql/dates.hpp Pages: 1 -->
<svg width="484pt" height="687pt"
 viewBox="0.00 0.00 483.51 687.00" xmlns="http://www.w3.org/2000/svg" xmlns:xlink="http://www.w3.org/1999/xlink">
<g id="graph0" class="graph" transform="scale(1 1) rotate(0) translate(4 683)">
<title>userver/storages/mysql/dates.hpp</title>
<!-- Node1 -->
<g id="Node000001" class="node">
<title>Node1</title>
<g id="a_Node000001"><a xlink:title=" ">
<polygon fill="#999999" stroke="#666666" points="308.01,-679 177.01,-679 177.01,-649 308.01,-649 308.01,-679"/>
<text text-anchor="start" x="185.01" y="-667" font-family="Helvetica,sans-Serif" font-size="10.00">userver/storages/mysql</text>
<text text-anchor="middle" x="242.51" y="-656" font-family="Helvetica,sans-Serif" font-size="10.00">/dates.hpp</text>
</a>
</g>
</g>
<!-- Node2 -->
<g id="Node000002" class="node">
<title>Node2</title>
<g id="a_Node000002"><a xlink:href="../../dd/d28/common__binders_8hpp_source.html" target="_top" xlink:title=" ">
<polygon fill="white" stroke="#666666" points="323.01,-613 162.01,-613 162.01,-583 323.01,-583 323.01,-613"/>
<text text-anchor="start" x="170.01" y="-601" font-family="Helvetica,sans-Serif" font-size="10.00">userver/storages/mysql</text>
<text text-anchor="middle" x="242.51" y="-590" font-family="Helvetica,sans-Serif" font-size="10.00">/impl/io/common_binders.hpp</text>
</a>
</g>
</g>
<!-- Node1&#45;&gt;Node2 -->
<g id="edge1_Node000001_Node000002" class="edge">
<title>Node1&#45;&gt;Node2</title>
<g id="a_edge1_Node000001_Node000002"><a xlink:title=" ">
<path fill="none" stroke="#63b8ff" d="M242.51,-638.54C242.51,-629.96 242.51,-620.61 242.51,-613.16"/>
<polygon fill="#63b8ff" stroke="#63b8ff" points="239.01,-638.8 242.51,-648.8 246.01,-638.8 239.01,-638.8"/>
</a>
</g>
</g>
<!-- Node3 -->
<g id="Node000003" class="node">
<title>Node3</title>
<g id="a_Node000003"><a xlink:href="../../d8/d1a/binder__declarations_8hpp_source.html" target="_top" xlink:title=" ">
<polygon fill="white" stroke="#666666" points="329.01,-481 156.01,-481 156.01,-451 329.01,-451 329.01,-481"/>
<text text-anchor="start" x="164.01" y="-469" font-family="Helvetica,sans-Serif" font-size="10.00">userver/storages/mysql</text>
<text text-anchor="middle" x="242.51" y="-458" font-family="Helvetica,sans-Serif" font-size="10.00">/impl/io/binder_declarations.hpp</text>
</a>
</g>
</g>
<!-- Node2&#45;&gt;Node3 -->
<g id="edge2_Node000002_Node000003" class="edge">
<title>Node2&#45;&gt;Node3</title>
<g id="a_edge2_Node000002_Node000003"><a xlink:title=" ">
<path fill="none" stroke="#63b8ff" d="M223.74,-574.63C218.01,-566.46 212.46,-556.8 209.51,-547 205.68,-534.23 205.68,-529.77 209.51,-517 213.52,-503.65 222.38,-490.58 229.9,-481.15"/>
<polygon fill="#63b8ff" stroke="#63b8ff" points="221.11,-576.95 229.9,-582.85 226.71,-572.75 221.11,-576.95"/>
</a>
</g>
</g>
<!-- Node14 -->
<g id="Node000014" class="node">
<title>Node14</title>
<g id="a_Node000014"><a xlink:href="../../d8/def/decimal__binder_8hpp_source.html" target="_top" xlink:title=" ">
<polygon fill="white" stroke="#666666" points="370.51,-547 218.51,-547 218.51,-517 370.51,-517 370.51,-547"/>
<text text-anchor="start" x="226.51" y="-535" font-family="Helvetica,sans-Serif" font-size="10.00">userver/storages/mysql</text>
<text text-anchor="middle" x="294.51" y="-524" font-family="Helvetica,sans-Serif" font-size="10.00">/impl/io/decimal_binder.hpp</text>
</a>
</g>
</g>
<!-- Node2&#45;&gt;Node14 -->
<g id="edge20_Node000002_Node000014" class="edge">
<title>Node2&#45;&gt;Node14</title>
<g id="a_edge20_Node000002_Node000014"><a xlink:title=" ">
<path fill="none" stroke="#63b8ff" d="M260.55,-574.81C268,-565.64 276.41,-555.28 283.01,-547.16"/>
<polygon fill="#63b8ff" stroke="#63b8ff" points="257.64,-572.83 254.05,-582.8 263.08,-577.24 257.64,-572.83"/>
</a>
</g>
</g>
<!-- Node4 -->
<g id="Node000004" class="node">
<title>Node4</title>
<g id="a_Node000004"><a xlink:href="../../d6/d2d/insert__binder_8hpp_source.html" target="_top" xlink:title=" ">
<polygon fill="white" stroke="#666666" points="475.51,-415 335.51,-415 335.51,-385 475.51,-385 475.51,-415"/>
<text text-anchor="start" x="343.51" y="-403" font-family="Helvetica,sans-Serif" font-size="10.00">userver/storages/mysql</text>
<text text-anchor="middle" x="405.51" y="-392" font-family="Helvetica,sans-Serif" font-size="10.00">/impl/io/insert_binder.hpp</text>
</a>
</g>
</g>
<!-- Node3&#45;&gt;Node4 -->
<g id="edge3_Node000003_Node000004" class="edge">
<title>Node3&#45;&gt;Node4</title>
<g id="a_edge3_Node000003_Node000004"><a xlink:title=" ">
<path fill="none" stroke="#63b8ff" d="M287.88,-447.19C313.76,-437.02 345.75,-424.47 369.83,-415.01"/>
<polygon fill="#63b8ff" stroke="#63b8ff" points="286.31,-444.04 278.29,-450.95 288.87,-450.56 286.31,-444.04"/>
</a>
</g>
</g>
<!-- Node9 -->
<g id="Node000009" class="node">
<title>Node9</title>
<g id="a_Node000009"><a xlink:href="../../da/d3c/params__binder_8hpp_source.html" target="_top" xlink:title=" ">
<polygon fill="white" stroke="#666666" points="317.01,-415 168.01,-415 168.01,-385 317.01,-385 317.01,-415"/>
<text text-anchor="start" x="176.01" y="-403" font-family="Helvetica,sans-Serif" font-size="10.00">userver/storages/mysql</text>
<text text-anchor="middle" x="242.51" y="-392" font-family="Helvetica,sans-Serif" font-size="10.00">/impl/io/params_binder.hpp</text>
</a>
</g>
</g>
<!-- Node3&#45;&gt;Node9 -->
<g id="edge9_Node000003_Node000009" class="edge">
<title>Node3&#45;&gt;Node9</title>
<g id="a_edge9_Node000003_Node000009"><a xlink:title=" ">
<path fill="none" stroke="#63b8ff" d="M242.51,-440.54C242.51,-431.96 242.51,-422.61 242.51,-415.16"/>
<polygon fill="#63b8ff" stroke="#63b8ff" points="239.01,-440.8 242.51,-450.8 246.01,-440.8 239.01,-440.8"/>
</a>
</g>
</g>
<!-- Node10 -->
<g id="Node000010" class="node">
<title>Node10</title>
<g id="a_Node000010"><a xlink:href="../../d3/d13/result__binder_8hpp_source.html" target="_top" xlink:title=" ">
<polygon fill="white" stroke="#666666" points="149.51,-415 9.51,-415 9.51,-385 149.51,-385 149.51,-415"/>
<text text-anchor="start" x="17.51" y="-403" font-family="Helvetica,sans-Serif" font-size="10.00">userver/storages/mysql</text>
<text text-anchor="middle" x="79.51" y="-392" font-family="Helvetica,sans-Serif" font-size="10.00">/impl/io/result_binder.hpp</text>
</a>
</g>
</g>
<!-- Node3&#45;&gt;Node10 -->
<g id="edge11_Node000003_Node000010" class="edge">
<title>Node3&#45;&gt;Node10</title>
<g id="a_edge11_Node000003_Node000010"><a xlink:title=" ">
<path fill="none" stroke="#63b8ff" d="M197.15,-447.19C171.27,-437.02 139.28,-424.47 115.2,-415.01"/>
<polygon fill="#63b8ff" stroke="#63b8ff" points="196.16,-450.56 206.74,-450.95 198.71,-444.04 196.16,-450.56"/>
</a>
</g>
</g>
<!-- Node5 -->
<g id="Node000005" class="node">
<title>Node5</title>
<g id="a_Node000005"><a xlink:href="../../d7/d43/bind__helper_8hpp_source.html" target="_top" xlink:title=" ">
<polygon fill="white" stroke="#666666" points="326.01,-283 195.01,-283 195.01,-253 326.01,-253 326.01,-283"/>
<text text-anchor="start" x="203.01" y="-271" font-family="Helvetica,sans-Serif" font-size="10.00">userver/storages/mysql</text>
<text text-anchor="middle" x="260.51" y="-260" font-family="Helvetica,sans-Serif" font-size="10.00">/impl/bind_helper.hpp</text>
</a>
</g>
</g>
<!-- Node4&#45;&gt;Node5 -->
<g id="edge4_Node000004_Node000005" class="edge">
<title>Node4&#45;&gt;Node5</title>
<g id="a_edge4_Node000004_Node000005"><a xlink:title=" ">
<path fill="none" stroke="#63b8ff" d="M381.91,-377.84C352.14,-351.15 301.77,-305.99 276.29,-283.14"/>
<polygon fill="#63b8ff" stroke="#63b8ff" points="379.94,-380.77 389.72,-384.84 384.61,-375.56 379.94,-380.77"/>
</a>
</g>
</g>
<!-- Node6 -->
<g id="Node000006" class="node">
<title>Node6</title>
<g id="a_Node000006"><a xlink:href="../../d0/d3d/mysql_2include_2userver_2storages_2mysql_2cluster_8hpp.html" target="_top" xlink:title="Client interface for a cluster of MySQL servers. Usually retrieved from components::MySQL.">
<polygon fill="white" stroke="#666666" points="201.01,-85 70.01,-85 70.01,-55 201.01,-55 201.01,-85"/>
<text text-anchor="start" x="78.01" y="-73" font-family="Helvetica,sans-Serif" font-size="10.00">userver/storages/mysql</text>
<text text-anchor="middle" x="135.51" y="-62" font-family="Helvetica,sans-Serif" font-size="10.00">/cluster.hpp</text>
</a>
</g>
</g>
<!-- Node5&#45;&gt;Node6 -->
<g id="edge5_Node000005_Node000006" class="edge">
<title>Node5&#45;&gt;Node6</title>
<g id="a_edge5_Node000005_Node000006"><a xlink:title=" ">
<path fill="none" stroke="#63b8ff" d="M265.25,-242.98C269.98,-211.81 273.3,-157.13 247.51,-121 235.33,-103.93 215.94,-92.59 196.69,-85.1"/>
<polygon fill="#63b8ff" stroke="#63b8ff" points="261.78,-242.52 263.56,-252.96 268.68,-243.69 261.78,-242.52"/>
</a>
</g>
</g>
<!-- Node8 -->
<g id="Node000008" class="node">
<title>Node8</title>
<g id="a_Node000008"><a xlink:href="../../de/d48/mysql_2include_2userver_2storages_2mysql_2transaction_8hpp.html" target="_top" xlink:title=" ">
<polygon fill="white" stroke="#666666" points="239.01,-151 108.01,-151 108.01,-121 239.01,-121 239.01,-151"/>
<text text-anchor="start" x="116.01" y="-139" font-family="Helvetica,sans-Serif" font-size="10.00">userver/storages/mysql</text>
<text text-anchor="middle" x="173.51" y="-128" font-family="Helvetica,sans-Serif" font-size="10.00">/transaction.hpp</text>
</a>
</g>
</g>
<!-- Node5&#45;&gt;Node8 -->
<g id="edge7_Node000005_Node000008" class="edge">
<title>Node5&#45;&gt;Node8</title>
<g id="a_edge7_Node000005_Node000008"><a xlink:title=" ">
<path fill="none" stroke="#63b8ff" d="M245.42,-244.45C227.46,-217.61 198.01,-173.6 182.98,-151.14"/>
<polygon fill="#63b8ff" stroke="#63b8ff" points="242.57,-246.48 251.04,-252.84 248.38,-242.58 242.57,-246.48"/>
</a>
</g>
</g>
<!-- Node7 -->
<g id="Node000007" class="node">
<title>Node7</title>
<g id="a_Node000007"><a xlink:href="../../dd/db6/mysql_8hpp.html" target="_top" xlink:title=" ">
<polygon fill="white" stroke="#666666" points="164.51,-19 12.51,-19 12.51,0 164.51,0 164.51,-19"/>
<text text-anchor="middle" x="88.51" y="-7" font-family="Helvetica,sans-Serif" font-size="10.00">userver/storages/mysql.hpp</text>
</a>
</g>
</g>
<!-- Node6&#45;&gt;Node7 -->
<g id="edge6_Node000006_Node000007" class="edge">
<title>Node6&#45;&gt;Node7</title>
<g id="a_edge6_Node000006_Node000007"><a xlink:title=" ">
<path fill="none" stroke="#63b8ff" d="M117.68,-46.8C109.97,-37.21 101.4,-26.54 95.56,-19.27"/>
<polygon fill="#63b8ff" stroke="#63b8ff" points="115.15,-49.24 124.14,-54.84 120.6,-44.85 115.15,-49.24"/>
</a>
</g>
</g>
<!-- Node8&#45;&gt;Node6 -->
<g id="edge8_Node000008_Node000006" class="edge">
<title>Node8&#45;&gt;Node6</title>
<g id="a_edge8_Node000008_Node000006"><a xlink:title=" ">
<path fill="none" stroke="#63b8ff" d="M159.84,-111.96C154.52,-103 148.59,-93.03 143.92,-85.16"/>
<polygon fill="#63b8ff" stroke="#63b8ff" points="156.97,-113.98 165.08,-120.8 162.98,-110.41 156.97,-113.98"/>
</a>
</g>
</g>
<!-- Node9&#45;&gt;Node5 -->
<g id="edge10_Node000009_Node000005" class="edge">
<title>Node9&#45;&gt;Node5</title>
<g id="a_edge10_Node000009_Node000005"><a xlink:title=" ">
<path fill="none" stroke="#63b8ff" d="M245.88,-374.68C249.62,-347.7 255.51,-305.11 258.56,-283.14"/>
<polygon fill="#63b8ff" stroke="#63b8ff" points="242.38,-374.45 244.47,-384.84 249.31,-375.41 242.38,-374.45"/>
</a>
</g>
</g>
<!-- Node11 -->
<g id="Node000011" class="node">
<title>Node11</title>
<g id="a_Node000011"><a xlink:href="../../d3/d31/extractor_8hpp_source.html" target="_top" xlink:title=" ">
<polygon fill="white" stroke="#666666" points="145.01,-349 14.01,-349 14.01,-319 145.01,-319 145.01,-349"/>
<text text-anchor="start" x="22.01" y="-337" font-family="Helvetica,sans-Serif" font-size="10.00">userver/storages/mysql</text>
<text text-anchor="middle" x="79.51" y="-326" font-family="Helvetica,sans-Serif" font-size="10.00">/impl/io/extractor.hpp</text>
</a>
</g>
</g>
<!-- Node10&#45;&gt;Node11 -->
<g id="edge12_Node000010_Node000011" class="edge">
<title>Node10&#45;&gt;Node11</title>
<g id="a_edge12_Node000010_Node000011"><a xlink:title=" ">
<path fill="none" stroke="#63b8ff" d="M79.51,-374.54C79.51,-365.96 79.51,-356.61 79.51,-349.16"/>
<polygon fill="#63b8ff" stroke="#63b8ff" points="76.01,-374.8 79.51,-384.8 83.01,-374.8 76.01,-374.8"/>
</a>
</g>
</g>
<!-- Node12 -->
<g id="Node000012" class="node">
<title>Node12</title>
<g id="a_Node000012"><a xlink:href="../../dc/d5a/statement__result__set_8hpp.html" target="_top" xlink:title=" ">
<polygon fill="white" stroke="#666666" points="151.51,-283 7.51,-283 7.51,-253 151.51,-253 151.51,-283"/>
<text text-anchor="start" x="15.51" y="-271" font-family="Helvetica,sans-Serif" font-size="10.00">userver/storages/mysql</text>
<text text-anchor="middle" x="79.51" y="-260" font-family="Helvetica,sans-Serif" font-size="10.00">/statement_result_set.hpp</text>
</a>
</g>
</g>
<!-- Node11&#45;&gt;Node12 -->
<g id="edge13_Node000011_Node000012" class="edge">
<title>Node11&#45;&gt;Node12</title>
<g id="a_edge13_Node000011_Node000012"><a xlink:title=" ">
<path fill="none" stroke="#63b8ff" d="M79.51,-308.54C79.51,-299.96 79.51,-290.61 79.51,-283.16"/>
<polygon fill="#63b8ff" stroke="#63b8ff" points="76.01,-308.8 79.51,-318.8 83.01,-308.8 76.01,-308.8"/>
</a>
</g>
</g>
<!-- Node12&#45;&gt;Node6 -->
<g id="edge14_Node000012_Node000006" class="edge">
<title>Node12&#45;&gt;Node6</title>
<g id="a_edge14_Node000012_Node000006"><a xlink:title=" ">
<path fill="none" stroke="#63b8ff" d="M35.5,-247.69C23.24,-240.01 11.41,-229.88 4.51,-217 -1.78,-205.24 -0.96,-199.16 4.51,-187 25.9,-139.49 77.43,-103.58 109.11,-85.04"/>
<polygon fill="#63b8ff" stroke="#63b8ff" points="34.03,-250.88 44.44,-252.85 37.53,-244.82 34.03,-250.88"/>
</a>
</g>
</g>
<!-- Node12&#45;&gt;Node8 -->
<g id="edge19_Node000012_Node000008" class="edge">
<title>Node12&#45;&gt;Node8</title>
<g id="a_edge19_Node000012_Node000008"><a xlink:title=" ">
<path fill="none" stroke="#63b8ff" d="M118.89,-247.87C131.62,-239.93 144.7,-229.59 153.51,-217 167.47,-197.06 171.71,-168.33 172.98,-151.27"/>
<polygon fill="#63b8ff" stroke="#63b8ff" points="117.04,-244.89 110.2,-252.98 120.59,-250.93 117.04,-244.89"/>
</a>
</g>
</g>
<!-- Node13 -->
<g id="Node000013" class="node">
<title>Node13</title>
<g id="a_Node000013"><a xlink:href="../../d6/dc8/cursor__result__set_8hpp.html" target="_top" xlink:title=" ">
<polygon fill="white" stroke="#666666" points="145.01,-217 14.01,-217 14.01,-187 145.01,-187 145.01,-217"/>
<text text-anchor="start" x="22.01" y="-205" font-family="Helvetica,sans-Serif" font-size="10.00">userver/storages/mysql</text>
<text text-anchor="middle" x="79.51" y="-194" font-family="Helvetica,sans-Serif" font-size="10.00">/cursor_result_set.hpp</text>
</a>
</g>
</g>
<!-- Node12&#45;&gt;Node13 -->
<g id="edge15_Node000012_Node000013" class="edge">
<title>Node12&#45;&gt;Node13</title>
<g id="a_edge15_Node000012_Node000013"><a xlink:title=" ">
<path fill="none" stroke="#63b8ff" d="M79.51,-242.54C79.51,-233.96 79.51,-224.61 79.51,-217.16"/>
<polygon fill="#63b8ff" stroke="#63b8ff" points="76.01,-242.8 79.51,-252.8 83.01,-242.8 76.01,-242.8"/>
</a>
</g>
</g>
<!-- Node13&#45;&gt;Node6 -->
<g id="edge17_Node000013_Node000006" class="edge">
<title>Node13&#45;&gt;Node6</title>
<g id="a_edge17_Node000013_Node000006"><a xlink:title=" ">
<path fill="none" stroke="#63b8ff" d="M82.7,-176.53C85.44,-160.24 90.3,-138.67 98.51,-121 104.61,-107.88 114.47,-94.79 122.47,-85.3"/>
<polygon fill="#63b8ff" stroke="#63b8ff" points="79.17,-176.43 81.12,-186.85 86.09,-177.49 79.17,-176.43"/>
</a>
</g>
</g>
<!-- Node13&#45;&gt;Node7 -->
<g id="edge16_Node000013_Node000007" class="edge">
<title>Node13&#45;&gt;Node7</title>
<g id="a_edge16_Node000013_Node000007"><a xlink:title=" ">
<path fill="none" stroke="#63b8ff" d="M70.46,-176.83C60.82,-147.5 48.46,-96.78 60.51,-55 64.46,-41.32 73.99,-27.79 80.84,-19.3"/>
<polygon fill="#63b8ff" stroke="#63b8ff" points="67.27,-178.31 73.84,-186.62 73.89,-176.02 67.27,-178.31"/>
</a>
</g>
</g>
<!-- Node13&#45;&gt;Node8 -->
<g id="edge18_Node000013_Node000008" class="edge">
<title>Node13&#45;&gt;Node8</title>
<g id="a_edge18_Node000013_Node000008"><a xlink:title=" ">
<path fill="none" stroke="#63b8ff" d="M108.85,-181.03C123.07,-171.34 139.82,-159.94 152.71,-151.16"/>
<polygon fill="#63b8ff" stroke="#63b8ff" points="106.67,-178.28 100.38,-186.8 110.61,-184.06 106.67,-178.28"/>
</a>
</g>
</g>
<!-- Node14&#45;&gt;Node3 -->
<g id="edge21_Node000014_Node000003" class="edge">
<title>Node14&#45;&gt;Node3</title>
<g id="a_edge21_Node000014_Node000003"><a xlink:title=" ">
<path fill="none" stroke="#63b8ff" d="M276.48,-508.81C269.03,-499.64 260.61,-489.28 254.02,-481.16"/>
<polygon fill="#63b8ff" stroke="#63b8ff" points="273.95,-511.24 282.97,-516.8 279.38,-506.83 273.95,-511.24"/>
</a>
</g>
</g>
</g>
</svg>
