<?xml version="1.0" encoding="UTF-8" standalone="no"?>
<!DOCTYPE svg PUBLIC "-//W3C//DTD SVG 1.1//EN"
 "http://www.w3.org/Graphics/SVG/1.1/DTD/svg11.dtd">
<!-- Generated by graphviz version 2.43.0 (0)
 -->
<!-- Title: userver/concurrent/mutex_set.hpp Pages: 1 -->
<svg width="292pt" height="181pt"
 viewBox="0.00 0.00 292.00 181.00" xmlns="http://www.w3.org/2000/svg" xmlns:xlink="http://www.w3.org/1999/xlink">
<g id="graph0" class="graph" transform="scale(1 1) rotate(0) translate(4 177)">
<title>userver/concurrent/mutex_set.hpp</title>
<!-- Node1 -->
<g id="Node000001" class="node">
<title>Node1</title>
<g id="a_Node000001"><a xlink:title="A dynamic set of mutexes.">
<polygon fill="#999999" stroke="#666666" points="196,-173 88,-173 88,-143 196,-143 196,-173"/>
<text text-anchor="start" x="96" y="-161" font-family="Helvetica,sans-Serif" font-size="10.00">userver/concurrent</text>
<text text-anchor="middle" x="142" y="-150" font-family="Helvetica,sans-Serif" font-size="10.00">/mutex_set.hpp</text>
</a>
</g>
</g>
<!-- Node2 -->
<g id="Node000002" class="node">
<title>Node2</title>
<g id="a_Node000002"><a xlink:href="../../d8/de1/expirable__lru__cache_8hpp.html" target="_top" xlink:title="Class for expirable LRU cache. Use cache::LruMap for not expirable LRU Cache.">
<polygon fill="white" stroke="#666666" points="209,-107 75,-107 75,-77 209,-77 209,-107"/>
<text text-anchor="start" x="83" y="-95" font-family="Helvetica,sans-Serif" font-size="10.00">userver/cache/expirable</text>
<text text-anchor="middle" x="142" y="-84" font-family="Helvetica,sans-Serif" font-size="10.00">_lru_cache.hpp</text>
</a>
</g>
</g>
<!-- Node1&#45;&gt;Node2 -->
<g id="edge1_Node000001_Node000002" class="edge">
<title>Node1&#45;&gt;Node2</title>
<g id="a_edge1_Node000001_Node000002"><a xlink:title=" ">
<path fill="none" stroke="#63b8ff" d="M142,-132.54C142,-123.96 142,-114.61 142,-107.16"/>
<polygon fill="#63b8ff" stroke="#63b8ff" points="138.5,-132.8 142,-142.8 145.5,-132.8 138.5,-132.8"/>
</a>
</g>
</g>
<!-- Node3 -->
<g id="Node000003" class="node">
<title>Node3</title>
<g id="a_Node000003"><a xlink:href="../../d9/daf/lru__cache__component__base_8hpp.html" target="_top" xlink:title="Base class for LRU&#45;cache components.">
<polygon fill="white" stroke="#666666" points="134,-35.5 0,-35.5 0,-5.5 134,-5.5 134,-35.5"/>
<text text-anchor="start" x="8" y="-23.5" font-family="Helvetica,sans-Serif" font-size="10.00">userver/cache/lru_cache</text>
<text text-anchor="middle" x="67" y="-12.5" font-family="Helvetica,sans-Serif" font-size="10.00">_component_base.hpp</text>
</a>
</g>
</g>
<!-- Node2&#45;&gt;Node3 -->
<g id="edge2_Node000002_Node000003" class="edge">
<title>Node2&#45;&gt;Node3</title>
<g id="a_edge2_Node000002_Node000003"><a xlink:title=" ">
<path fill="none" stroke="#63b8ff" d="M119.33,-69.99C107.29,-58.84 92.82,-45.43 82.15,-35.54"/>
<polygon fill="#63b8ff" stroke="#63b8ff" points="117.11,-72.71 126.82,-76.94 121.87,-67.57 117.11,-72.71"/>
</a>
</g>
</g>
<!-- Node4 -->
<g id="Node000004" class="node">
<title>Node4</title>
<g id="a_Node000004"><a xlink:href="../../db/df0/standalone__checker_8hpp.html" target="_top" xlink:title="Class for digest authentication checker. Implements a stand&#45;alone digest&#45;authentication logic.">
<polygon fill="white" stroke="#666666" points="284,-41 152,-41 152,0 284,0 284,-41"/>
<text text-anchor="start" x="160" y="-29" font-family="Helvetica,sans-Serif" font-size="10.00">userver/server/handlers</text>
<text text-anchor="start" x="160" y="-18" font-family="Helvetica,sans-Serif" font-size="10.00">/auth/digest/standalone</text>
<text text-anchor="middle" x="218" y="-7" font-family="Helvetica,sans-Serif" font-size="10.00">_checker.hpp</text>
</a>
</g>
</g>
<!-- Node2&#45;&gt;Node4 -->
<g id="edge3_Node000002_Node000004" class="edge">
<title>Node2&#45;&gt;Node4</title>
<g id="a_edge3_Node000002_Node000004"><a xlink:title=" ">
<path fill="none" stroke="#63b8ff" d="M165.01,-69.96C175.05,-60.78 186.75,-50.08 196.6,-41.07"/>
<polygon fill="#63b8ff" stroke="#63b8ff" points="162.4,-67.6 157.38,-76.94 167.12,-72.77 162.4,-67.6"/>
</a>
</g>
</g>
</g>
</svg>
