<?xml version="1.0" encoding="UTF-8" standalone="no"?>
<!DOCTYPE svg PUBLIC "-//W3C//DTD SVG 1.1//EN"
 "http://www.w3.org/Graphics/SVG/1.1/DTD/svg11.dtd">
<!-- Generated by graphviz version 2.43.0 (0)
 -->
<!-- Title: SAX Serializers Pages: 1 -->
<svg width="338pt" height="139pt"
 viewBox="0.00 0.00 338.00 139.32" xmlns="http://www.w3.org/2000/svg" xmlns:xlink="http://www.w3.org/1999/xlink">
<g id="graph0" class="graph" transform="scale(1 1) rotate(0) translate(4 135.32)">
<title>SAX Serializers</title>
<!-- Node4 -->
<g id="Node000004" class="node">
<title>Node4</title>
<g id="a_Node000004"><a xlink:href="../../df/d2e/group__userver__containers.html" target="_top" xlink:title="Utility containers.">
<polygon fill="white" stroke="#666666" points="330,-78.82 261,-78.82 261,-59.82 330,-59.82 330,-78.82"/>
<text text-anchor="middle" x="295.5" y="-66.82" font-family="Helvetica,sans-Serif" font-size="10.00">Containers</text>
</a>
</g>
</g>
<!-- Node2 -->
<g id="Node000002" class="node">
<title>Node2</title>
<g id="a_Node000002"><a xlink:href="../../d3/dcb/group__userver__formats.html" target="_top" xlink:title="Different containers that share the same interface and manipulate tree&#45;like formats.">
<polygon fill="white" stroke="#666666" points="323.5,-126.82 267.5,-126.82 267.5,-107.82 323.5,-107.82 323.5,-126.82"/>
<text text-anchor="middle" x="295.5" y="-114.82" font-family="Helvetica,sans-Serif" font-size="10.00">Formats</text>
</a>
</g>
</g>
<!-- Node1 -->
<g id="Node000001" class="node">
<title>Node1</title>
<g id="a_Node000001"><a xlink:title="Files with SAX serializers into formats.">
<polygon fill="#999999" stroke="#666666" points="91,-78.82 0,-78.82 0,-59.82 91,-59.82 91,-78.82"/>
<text text-anchor="middle" x="45.5" y="-66.82" font-family="Helvetica,sans-Serif" font-size="10.00">SAX Serializers</text>
</a>
</g>
</g>
<!-- Node2&#45;&gt;Node1 -->
<g id="edge1" class="edge">
<title>Node2&#45;&gt;Node1</title>
<path fill="none" stroke="black" d="M257.39,-110.14C212.97,-101.54 138.63,-87.15 91.12,-77.96"/>
<polygon fill="black" stroke="black" points="256.98,-113.63 267.47,-112.09 258.31,-106.75 256.98,-113.63"/>
</g>
<!-- Node1&#45;&gt;Node4 -->
<g id="edge3" class="edge">
<title>Node1&#45;&gt;Node4</title>
<path fill="none" stroke="orange" stroke-dasharray="5,2" d="M91.12,-69.32C139.93,-69.32 217.05,-69.32 260.96,-69.32"/>
<text text-anchor="middle" x="176" y="-72.32" font-family="Helvetica,sans-Serif" font-size="10.00">formats::json::StringBuilder</text>
</g>
<!-- Node1&#45;&gt;Node2 -->
<g id="edge4" class="edge">
<title>Node1&#45;&gt;Node2</title>
<path fill="none" stroke="orange" stroke-dasharray="5,2" d="M58.59,-78.88C70.61,-87.77 89.95,-100.49 109,-106.32 163.3,-122.93 230.61,-121.9 267.38,-119.64"/>
<text text-anchor="middle" x="176" y="-123.32" font-family="Helvetica,sans-Serif" font-size="10.00">formats::json::StringBuilder</text>
</g>
<!-- Node3 -->
<g id="Node000003" class="node">
<title>Node3</title>
<g id="a_Node000003"><a xlink:href="../../d7/d67/group__userver__universal.html" target="_top" xlink:title="Functions and classes that could be used with or without coroutine environment.">
<polygon fill="white" stroke="#666666" points="327,-26.82 264,-26.82 264,-7.82 327,-7.82 327,-26.82"/>
<text text-anchor="middle" x="295.5" y="-14.82" font-family="Helvetica,sans-Serif" font-size="10.00">Universal</text>
</a>
</g>
</g>
<!-- Node1&#45;&gt;Node3 -->
<g id="edge2" class="edge">
<title>Node1&#45;&gt;Node3</title>
<path fill="none" stroke="orange" stroke-dasharray="5,2" d="M85.12,-59.81C93.01,-57.93 101.26,-56.02 109,-54.32 163.37,-42.38 227.06,-30.03 263.9,-23.05"/>
<text text-anchor="middle" x="176" y="-57.32" font-family="Helvetica,sans-Serif" font-size="10.00">formats::json::StringBuilder</text>
</g>
<!-- Node1&#45;&gt;Node3 -->
<g id="edge5" class="edge">
<title>Node1&#45;&gt;Node3</title>
<path fill="none" stroke="darkgreen" stroke-dasharray="5,2" d="M53.24,-59.76C63.47,-46.17 84.35,-21.87 109,-12.32 160.37,7.58 225.88,-1.33 263.72,-9.45"/>
<text text-anchor="middle" x="176" y="-15.32" font-family="Helvetica,sans-Serif" font-size="10.00">write_to_stream.hpp</text>
</g>
</g>
</svg>
