<?xml version="1.0" encoding="UTF-8" standalone="no"?>
<!DOCTYPE svg PUBLIC "-//W3C//DTD SVG 1.1//EN"
 "http://www.w3.org/Graphics/SVG/1.1/DTD/svg11.dtd">
<!-- Generated by graphviz version 2.43.0 (0)
 -->
<!-- Title: ugrpc::client::FailedPreconditionError Pages: 1 -->
<svg width="180pt" height="269pt"
 viewBox="0.00 0.00 180.00 269.00" xmlns="http://www.w3.org/2000/svg" xmlns:xlink="http://www.w3.org/1999/xlink">
<g id="graph0" class="graph" transform="scale(1 1) rotate(0) translate(4 265)">
<title>ugrpc::client::FailedPreconditionError</title>
<!-- Node1 -->
<g id="Node000001" class="node">
<title>Node1</title>
<g id="a_Node000001"><a xlink:title=" ">
<polygon fill="#999999" stroke="#666666" points="172,-30 0,-30 0,0 172,0 172,-30"/>
<text text-anchor="start" x="8" y="-18" font-family="Helvetica,sans-Serif" font-size="10.00">ugrpc::client::FailedPrecondition</text>
<text text-anchor="middle" x="86" y="-7" font-family="Helvetica,sans-Serif" font-size="10.00">Error</text>
</a>
</g>
</g>
<!-- Node2 -->
<g id="Node000002" class="node">
<title>Node2</title>
<g id="a_Node000002"><a xlink:href="../../d4/d7d/classugrpc_1_1client_1_1ErrorWithStatus.html" target="_top" xlink:title="Error with grpc::Status details.">
<polygon fill="white" stroke="#666666" points="150,-96 22,-96 22,-66 150,-66 150,-96"/>
<text text-anchor="start" x="30" y="-84" font-family="Helvetica,sans-Serif" font-size="10.00">ugrpc::client::ErrorWith</text>
<text text-anchor="middle" x="86" y="-73" font-family="Helvetica,sans-Serif" font-size="10.00">Status</text>
</a>
</g>
</g>
<!-- Node2&#45;&gt;Node1 -->
<g id="edge1_Node000001_Node000002" class="edge">
<title>Node2&#45;&gt;Node1</title>
<g id="a_edge1_Node000001_Node000002"><a xlink:title=" ">
<path fill="none" stroke="#63b8ff" d="M86,-55.54C86,-46.96 86,-37.61 86,-30.16"/>
<polygon fill="#63b8ff" stroke="#63b8ff" points="82.5,-55.8 86,-65.8 89.5,-55.8 82.5,-55.8"/>
</a>
</g>
</g>
<!-- Node3 -->
<g id="Node000003" class="node">
<title>Node3</title>
<g id="a_Node000003"><a xlink:href="../../d3/d28/classugrpc_1_1client_1_1RpcError.html" target="_top" xlink:title="Error during an RPC.">
<polygon fill="white" stroke="#666666" points="148,-151 24,-151 24,-132 148,-132 148,-151"/>
<text text-anchor="middle" x="86" y="-139" font-family="Helvetica,sans-Serif" font-size="10.00">ugrpc::client::RpcError</text>
</a>
</g>
</g>
<!-- Node3&#45;&gt;Node2 -->
<g id="edge2_Node000002_Node000003" class="edge">
<title>Node3&#45;&gt;Node2</title>
<g id="a_edge2_Node000002_Node000003"><a xlink:title=" ">
<path fill="none" stroke="#63b8ff" d="M86,-121.65C86,-113.36 86,-103.78 86,-96.11"/>
<polygon fill="#63b8ff" stroke="#63b8ff" points="82.5,-121.87 86,-131.87 89.5,-121.87 82.5,-121.87"/>
</a>
</g>
</g>
<!-- Node4 -->
<g id="Node000004" class="node">
<title>Node4</title>
<g id="a_Node000004"><a xlink:href="../../d3/d25/classugrpc_1_1client_1_1BaseError.html" target="_top" xlink:title="Base exception for all the client errors.">
<polygon fill="white" stroke="#666666" points="151,-206 21,-206 21,-187 151,-187 151,-206"/>
<text text-anchor="middle" x="86" y="-194" font-family="Helvetica,sans-Serif" font-size="10.00">ugrpc::client::BaseError</text>
</a>
</g>
</g>
<!-- Node4&#45;&gt;Node3 -->
<g id="edge3_Node000003_Node000004" class="edge">
<title>Node4&#45;&gt;Node3</title>
<g id="a_edge3_Node000003_Node000004"><a xlink:title=" ">
<path fill="none" stroke="#63b8ff" d="M86,-176.66C86,-167.93 86,-157.99 86,-151.09"/>
<polygon fill="#63b8ff" stroke="#63b8ff" points="82.5,-176.75 86,-186.75 89.5,-176.75 82.5,-176.75"/>
</a>
</g>
</g>
<!-- Node5 -->
<g id="Node000005" class="node">
<title>Node5</title>
<g id="a_Node000005"><a xlink:title=" ">
<polygon fill="white" stroke="#666666" points="129,-261 43,-261 43,-242 129,-242 129,-261"/>
<text text-anchor="middle" x="86" y="-249" font-family="Helvetica,sans-Serif" font-size="10.00">std::exception</text>
</a>
</g>
</g>
<!-- Node5&#45;&gt;Node4 -->
<g id="edge4_Node000004_Node000005" class="edge">
<title>Node5&#45;&gt;Node4</title>
<g id="a_edge4_Node000004_Node000005"><a xlink:title=" ">
<path fill="none" stroke="#63b8ff" d="M86,-231.66C86,-222.93 86,-212.99 86,-206.09"/>
<polygon fill="#63b8ff" stroke="#63b8ff" points="82.5,-231.75 86,-241.75 89.5,-231.75 82.5,-231.75"/>
</a>
</g>
</g>
</g>
</svg>
