<?xml version="1.0" encoding="UTF-8" standalone="no"?>
<!DOCTYPE svg PUBLIC "-//W3C//DTD SVG 1.1//EN"
 "http://www.w3.org/Graphics/SVG/1.1/DTD/svg11.dtd">
<!-- Generated by graphviz version 2.43.0 (0)
 -->
<!-- Title: userver/formats/bson/value.hpp Pages: 1 -->
<svg width="1220pt" height="566pt"
 viewBox="0.00 0.00 1219.50 566.00" xmlns="http://www.w3.org/2000/svg" xmlns:xlink="http://www.w3.org/1999/xlink">
<g id="graph0" class="graph" transform="scale(1 1) rotate(0) translate(4 562)">
<title>userver/formats/bson/value.hpp</title>
<!-- Node1 -->
<g id="Node000001" class="node">
<title>Node1</title>
<g id="a_Node000001"><a xlink:title="Non&#45;mutable BSON value representation.">
<polygon fill="#999999" stroke="#666666" points="728.5,-558 607.5,-558 607.5,-528 728.5,-528 728.5,-558"/>
<text text-anchor="start" x="615.5" y="-546" font-family="Helvetica,sans-Serif" font-size="10.00">userver/formats/bson</text>
<text text-anchor="middle" x="668" y="-535" font-family="Helvetica,sans-Serif" font-size="10.00">/value.hpp</text>
</a>
</g>
</g>
<!-- Node2 -->
<g id="Node000002" class="node">
<title>Node2</title>
<g id="a_Node000002"><a xlink:href="../../d3/d9f/bson_8hpp.html" target="_top" xlink:title="Include&#45;all header for BSON support.">
<polygon fill="white" stroke="#666666" points="705,-354.5 563,-354.5 563,-335.5 705,-335.5 705,-354.5"/>
<text text-anchor="middle" x="634" y="-342.5" font-family="Helvetica,sans-Serif" font-size="10.00">userver/formats/bson.hpp</text>
</a>
</g>
</g>
<!-- Node1&#45;&gt;Node2 -->
<g id="edge1_Node000001_Node000002" class="edge">
<title>Node1&#45;&gt;Node2</title>
<g id="a_edge1_Node000001_Node000002"><a xlink:title=" ">
<path fill="none" stroke="#63b8ff" d="M738.86,-538.64C872.5,-529.86 1140.49,-499.18 1049,-396 1048.65,-395.6 823.81,-368.68 705.27,-354.51"/>
<polygon fill="#63b8ff" stroke="#63b8ff" points="738.46,-535.16 728.7,-539.28 738.9,-542.15 738.46,-535.16"/>
</a>
</g>
</g>
<!-- Node3 -->
<g id="Node000003" class="node">
<title>Node3</title>
<g id="a_Node000003"><a xlink:href="../../d9/d03/bson__builder_8hpp.html" target="_top" xlink:title="Internal helpers for inline document build.">
<polygon fill="white" stroke="#666666" points="201.5,-492 80.5,-492 80.5,-462 201.5,-462 201.5,-492"/>
<text text-anchor="start" x="88.5" y="-480" font-family="Helvetica,sans-Serif" font-size="10.00">userver/formats/bson</text>
<text text-anchor="middle" x="141" y="-469" font-family="Helvetica,sans-Serif" font-size="10.00">/bson_builder.hpp</text>
</a>
</g>
</g>
<!-- Node1&#45;&gt;Node3 -->
<g id="edge2_Node000001_Node000003" class="edge">
<title>Node1&#45;&gt;Node3</title>
<g id="a_edge2_Node000001_Node000003"><a xlink:title=" ">
<path fill="none" stroke="#63b8ff" d="M597.51,-535.84C508.4,-527.68 350.41,-511.95 216,-492 211.28,-491.3 206.41,-490.52 201.52,-489.7"/>
<polygon fill="#63b8ff" stroke="#63b8ff" points="597.22,-539.33 607.5,-536.75 597.86,-532.36 597.22,-539.33"/>
</a>
</g>
</g>
<!-- Node4 -->
<g id="Node000004" class="node">
<title>Node4</title>
<g id="a_Node000004"><a xlink:href="../../d1/d71/mongo_2include_2userver_2formats_2bson_2inline_8hpp.html" target="_top" xlink:title="Inline value builders.">
<polygon fill="white" stroke="#666666" points="392.5,-426 271.5,-426 271.5,-396 392.5,-396 392.5,-426"/>
<text text-anchor="start" x="279.5" y="-414" font-family="Helvetica,sans-Serif" font-size="10.00">userver/formats/bson</text>
<text text-anchor="middle" x="332" y="-403" font-family="Helvetica,sans-Serif" font-size="10.00">/inline.hpp</text>
</a>
</g>
</g>
<!-- Node1&#45;&gt;Node4 -->
<g id="edge50_Node000001_Node000004" class="edge">
<title>Node1&#45;&gt;Node4</title>
<g id="a_edge50_Node000001_Node000004"><a xlink:title=" ">
<path fill="none" stroke="#63b8ff" d="M597.48,-529.87C557.92,-521.77 508.19,-509.37 466,-492 422.65,-474.16 376.7,-443.9 351.45,-426.15"/>
<polygon fill="#63b8ff" stroke="#63b8ff" points="596.81,-533.31 607.3,-531.84 598.19,-526.45 596.81,-533.31"/>
</a>
</g>
</g>
<!-- Node6 -->
<g id="Node000006" class="node">
<title>Node6</title>
<g id="a_Node000006"><a xlink:href="../../d2/d54/mongo_2include_2userver_2storages_2mongo_2options_8hpp.html" target="_top" xlink:title="Query options.">
<polygon fill="white" stroke="#666666" points="160.5,-426 25.5,-426 25.5,-396 160.5,-396 160.5,-426"/>
<text text-anchor="start" x="33.5" y="-414" font-family="Helvetica,sans-Serif" font-size="10.00">userver/storages/mongo</text>
<text text-anchor="middle" x="93" y="-403" font-family="Helvetica,sans-Serif" font-size="10.00">/options.hpp</text>
</a>
</g>
</g>
<!-- Node1&#45;&gt;Node6 -->
<g id="edge55_Node000001_Node000006" class="edge">
<title>Node1&#45;&gt;Node6</title>
<g id="a_edge55_Node000001_Node000006"><a xlink:title=" ">
<path fill="none" stroke="#63b8ff" d="M597.28,-541.32C447.05,-539.13 106.93,-529.99 72,-492 55.18,-473.71 70.69,-443.61 82.51,-426.01"/>
<polygon fill="#63b8ff" stroke="#63b8ff" points="597.28,-544.82 607.33,-541.46 597.38,-537.82 597.28,-544.82"/>
</a>
</g>
</g>
<!-- Node9 -->
<g id="Node000009" class="node">
<title>Node9</title>
<g id="a_Node000009"><a xlink:href="../../d4/db6/collection_8hpp.html" target="_top" xlink:title="MongoDB collection handle, the main way to operate with MongoDB.">
<polygon fill="white" stroke="#666666" points="736.5,-228 601.5,-228 601.5,-198 736.5,-198 736.5,-228"/>
<text text-anchor="start" x="609.5" y="-216" font-family="Helvetica,sans-Serif" font-size="10.00">userver/storages/mongo</text>
<text text-anchor="middle" x="669" y="-205" font-family="Helvetica,sans-Serif" font-size="10.00">/collection.hpp</text>
</a>
</g>
</g>
<!-- Node1&#45;&gt;Node9 -->
<g id="edge53_Node000001_Node000009" class="edge">
<title>Node1&#45;&gt;Node9</title>
<g id="a_edge53_Node000001_Node000009"><a xlink:title=" ">
<path fill="none" stroke="#63b8ff" d="M739.13,-541.32C835.82,-538.98 1002,-529.44 1048,-492 1072.09,-472.39 1065.82,-456.63 1071,-426 1096.28,-276.63 857.52,-232.07 736.55,-219.12"/>
<polygon fill="#63b8ff" stroke="#63b8ff" points="738.76,-537.83 728.84,-541.55 738.92,-544.83 738.76,-537.83"/>
</a>
</g>
</g>
<!-- Node18 -->
<g id="Node000018" class="node">
<title>Node18</title>
<g id="a_Node000018"><a xlink:href="../../de/d6b/mongo_2include_2userver_2storages_2mongo_2operations_8hpp.html" target="_top" xlink:title="Collection operation models.">
<polygon fill="white" stroke="#666666" points="392.5,-360 257.5,-360 257.5,-330 392.5,-330 392.5,-360"/>
<text text-anchor="start" x="265.5" y="-348" font-family="Helvetica,sans-Serif" font-size="10.00">userver/storages/mongo</text>
<text text-anchor="middle" x="325" y="-337" font-family="Helvetica,sans-Serif" font-size="10.00">/operations.hpp</text>
</a>
</g>
</g>
<!-- Node1&#45;&gt;Node18 -->
<g id="edge54_Node000001_Node000018" class="edge">
<title>Node1&#45;&gt;Node18</title>
<g id="a_edge54_Node000001_Node000018"><a xlink:title=" ">
<path fill="none" stroke="#63b8ff" d="M597.33,-532.94C491.14,-517.61 298.98,-482.57 263,-426 255.84,-414.75 257.25,-408.03 263,-396 270.34,-380.66 284.94,-368.51 298.13,-360.04"/>
<polygon fill="#63b8ff" stroke="#63b8ff" points="596.94,-536.42 607.33,-534.36 597.92,-529.49 596.94,-536.42"/>
</a>
</g>
</g>
<!-- Node19 -->
<g id="Node000019" class="node">
<title>Node19</title>
<g id="a_Node000019"><a xlink:href="../../dd/d39/document_8hpp.html" target="_top" xlink:title="BSON document.">
<polygon fill="white" stroke="#666666" points="595.5,-492 474.5,-492 474.5,-462 595.5,-462 595.5,-492"/>
<text text-anchor="start" x="482.5" y="-480" font-family="Helvetica,sans-Serif" font-size="10.00">userver/formats/bson</text>
<text text-anchor="middle" x="535" y="-469" font-family="Helvetica,sans-Serif" font-size="10.00">/document.hpp</text>
</a>
</g>
</g>
<!-- Node1&#45;&gt;Node19 -->
<g id="edge29_Node000001_Node000019" class="edge">
<title>Node1&#45;&gt;Node19</title>
<g id="a_edge29_Node000001_Node000019"><a xlink:title=" ">
<path fill="none" stroke="#63b8ff" d="M629.58,-523.51C608.72,-513.47 583.33,-501.26 564.12,-492.01"/>
<polygon fill="#63b8ff" stroke="#63b8ff" points="628.28,-526.77 638.81,-527.95 631.32,-520.46 628.28,-526.77"/>
</a>
</g>
</g>
<!-- Node21 -->
<g id="Node000021" class="node">
<title>Node21</title>
<g id="a_Node000021"><a xlink:href="../../d6/de5/mongo_2include_2userver_2formats_2bson_2serialize_8hpp.html" target="_top" xlink:title="Textual serialization helpers.">
<polygon fill="white" stroke="#666666" points="1039.5,-426 918.5,-426 918.5,-396 1039.5,-396 1039.5,-426"/>
<text text-anchor="start" x="926.5" y="-414" font-family="Helvetica,sans-Serif" font-size="10.00">userver/formats/bson</text>
<text text-anchor="middle" x="979" y="-403" font-family="Helvetica,sans-Serif" font-size="10.00">/serialize.hpp</text>
</a>
</g>
</g>
<!-- Node1&#45;&gt;Node21 -->
<g id="edge51_Node000001_Node000021" class="edge">
<title>Node1&#45;&gt;Node21</title>
<g id="a_edge51_Node000001_Node000021"><a xlink:title=" ">
<path fill="none" stroke="#63b8ff" d="M711.15,-523.96C773.68,-497.82 888.21,-449.95 945.09,-426.17"/>
<polygon fill="#63b8ff" stroke="#63b8ff" points="709.45,-520.88 701.58,-527.96 712.15,-527.34 709.45,-520.88"/>
</a>
</g>
</g>
<!-- Node22 -->
<g id="Node000022" class="node">
<title>Node22</title>
<g id="a_Node000022"><a xlink:href="../../dc/d8c/mongo_2include_2userver_2formats_2bson_2value__builder_8hpp.html" target="_top" xlink:title="Builder for BSON.">
<polygon fill="white" stroke="#666666" points="861.5,-426 740.5,-426 740.5,-396 861.5,-396 861.5,-426"/>
<text text-anchor="start" x="748.5" y="-414" font-family="Helvetica,sans-Serif" font-size="10.00">userver/formats/bson</text>
<text text-anchor="middle" x="801" y="-403" font-family="Helvetica,sans-Serif" font-size="10.00">/value_builder.hpp</text>
</a>
</g>
</g>
<!-- Node1&#45;&gt;Node22 -->
<g id="edge52_Node000001_Node000022" class="edge">
<title>Node1&#45;&gt;Node22</title>
<g id="a_edge52_Node000001_Node000022"><a xlink:title=" ">
<path fill="none" stroke="#63b8ff" d="M689.65,-520.84C716.96,-494.15 763.16,-448.99 786.53,-426.14"/>
<polygon fill="#63b8ff" stroke="#63b8ff" points="687.19,-518.35 682.49,-527.84 692.08,-523.35 687.19,-518.35"/>
</a>
</g>
</g>
<!-- Node25 -->
<g id="Node000025" class="node">
<title>Node25</title>
<g id="a_Node000025"><a xlink:href="../../d7/d6e/write__result_8hpp_source.html" target="_top" xlink:title=" ">
<polygon fill="white" stroke="#666666" points="1211.5,-294 1076.5,-294 1076.5,-264 1211.5,-264 1211.5,-294"/>
<text text-anchor="start" x="1084.5" y="-282" font-family="Helvetica,sans-Serif" font-size="10.00">userver/storages/mongo</text>
<text text-anchor="middle" x="1144" y="-271" font-family="Helvetica,sans-Serif" font-size="10.00">/write_result.hpp</text>
</a>
</g>
</g>
<!-- Node1&#45;&gt;Node25 -->
<g id="edge56_Node000001_Node000025" class="edge">
<title>Node1&#45;&gt;Node25</title>
<g id="a_edge56_Node000001_Node000025"><a xlink:title=" ">
<path fill="none" stroke="#63b8ff" d="M738.8,-538.95C859.23,-533.08 1093.56,-518.38 1120,-492 1174.42,-437.72 1156.39,-332.15 1147.6,-294.1"/>
<polygon fill="#63b8ff" stroke="#63b8ff" points="738.39,-535.47 728.57,-539.44 738.72,-542.46 738.39,-535.47"/>
</a>
</g>
</g>
<!-- Node3&#45;&gt;Node4 -->
<g id="edge3_Node000003_Node000004" class="edge">
<title>Node3&#45;&gt;Node4</title>
<g id="a_edge3_Node000003_Node000004"><a xlink:title=" ">
<path fill="none" stroke="#63b8ff" d="M192.56,-458.72C223.16,-448.47 261.47,-435.63 290.18,-426.01"/>
<polygon fill="#63b8ff" stroke="#63b8ff" points="191.29,-455.46 182.92,-461.95 193.51,-462.1 191.29,-455.46"/>
</a>
</g>
</g>
<!-- Node3&#45;&gt;Node6 -->
<g id="edge6_Node000003_Node000006" class="edge">
<title>Node3&#45;&gt;Node6</title>
<g id="a_edge6_Node000003_Node000006"><a xlink:title=" ">
<path fill="none" stroke="#63b8ff" d="M124.14,-453.53C117.32,-444.43 109.65,-434.19 103.62,-426.16"/>
<polygon fill="#63b8ff" stroke="#63b8ff" points="121.55,-455.9 130.35,-461.8 127.15,-451.7 121.55,-455.9"/>
</a>
</g>
</g>
<!-- Node4&#45;&gt;Node2 -->
<g id="edge5_Node000004_Node000002" class="edge">
<title>Node4&#45;&gt;Node2</title>
<g id="a_edge5_Node000004_Node000002"><a xlink:title=" ">
<path fill="none" stroke="#63b8ff" d="M402.81,-394.99C462.2,-382.41 544.9,-364.88 593.61,-354.56"/>
<polygon fill="#63b8ff" stroke="#63b8ff" points="401.81,-391.63 392.75,-397.13 403.26,-398.48 401.81,-391.63"/>
</a>
</g>
</g>
<!-- Node5 -->
<g id="Node000005" class="node">
<title>Node5</title>
<g id="a_Node000005"><a xlink:href="../../dd/d6c/base__mongo__cache_8hpp.html" target="_top" xlink:title="Base class for all caches polling mongo collection">
<polygon fill="white" stroke="#666666" points="495.5,-162 384.5,-162 384.5,-132 495.5,-132 495.5,-162"/>
<text text-anchor="start" x="392.5" y="-150" font-family="Helvetica,sans-Serif" font-size="10.00">userver/cache/base</text>
<text text-anchor="middle" x="440" y="-139" font-family="Helvetica,sans-Serif" font-size="10.00">_mongo_cache.hpp</text>
</a>
</g>
</g>
<!-- Node4&#45;&gt;Node5 -->
<g id="edge4_Node000004_Node000005" class="edge">
<title>Node4&#45;&gt;Node5</title>
<g id="a_edge4_Node000004_Node000005"><a xlink:title=" ">
<path fill="none" stroke="#63b8ff" d="M370.08,-390.55C382.04,-382.63 394.16,-372.39 402,-360 442.97,-295.22 442.69,-198.24 440.95,-162.18"/>
<polygon fill="#63b8ff" stroke="#63b8ff" points="368.1,-387.65 361.45,-395.9 371.8,-393.6 368.1,-387.65"/>
</a>
</g>
</g>
<!-- Node6&#45;&gt;Node5 -->
<g id="edge7_Node000006_Node000005" class="edge">
<title>Node6&#45;&gt;Node5</title>
<g id="a_edge7_Node000006_Node000005"><a xlink:title=" ">
<path fill="none" stroke="#63b8ff" d="M83.23,-386.25C72.09,-354.98 58.62,-299.8 85,-264 154.62,-169.52 303.26,-150.65 384.37,-147.71"/>
<polygon fill="#63b8ff" stroke="#63b8ff" points="80.05,-387.75 86.85,-395.87 86.6,-385.28 80.05,-387.75"/>
</a>
</g>
</g>
<!-- Node7 -->
<g id="Node000007" class="node">
<title>Node7</title>
<g id="a_Node000007"><a xlink:href="../../d2/d86/mongo_8hpp.html" target="_top" xlink:title="Include&#45;all header for MongoDB client.">
<polygon fill="white" stroke="#666666" points="651,-90.5 495,-90.5 495,-71.5 651,-71.5 651,-90.5"/>
<text text-anchor="middle" x="573" y="-78.5" font-family="Helvetica,sans-Serif" font-size="10.00">userver/storages/mongo.hpp</text>
</a>
</g>
</g>
<!-- Node6&#45;&gt;Node7 -->
<g id="edge8_Node000006_Node000007" class="edge">
<title>Node6&#45;&gt;Node7</title>
<g id="a_edge8_Node000006_Node000007"><a xlink:title=" ">
<path fill="none" stroke="#63b8ff" d="M65.97,-389.65C38.51,-366.43 0,-325.72 0,-280 0,-280 0,-280 0,-212 0,-111.71 338.03,-88.79 494.83,-83.55"/>
<polygon fill="#63b8ff" stroke="#63b8ff" points="63.78,-392.37 73.73,-396 68.21,-386.95 63.78,-392.37"/>
</a>
</g>
</g>
<!-- Node8 -->
<g id="Node000008" class="node">
<title>Node8</title>
<g id="a_Node000008"><a xlink:href="../../d5/d0f/bulk_8hpp.html" target="_top" xlink:title="Bulk collection operation model.">
<polygon fill="white" stroke="#666666" points="229.5,-294 94.5,-294 94.5,-264 229.5,-264 229.5,-294"/>
<text text-anchor="start" x="102.5" y="-282" font-family="Helvetica,sans-Serif" font-size="10.00">userver/storages/mongo</text>
<text text-anchor="middle" x="162" y="-271" font-family="Helvetica,sans-Serif" font-size="10.00">/bulk.hpp</text>
</a>
</g>
</g>
<!-- Node6&#45;&gt;Node8 -->
<g id="edge9_Node000006_Node000008" class="edge">
<title>Node6&#45;&gt;Node8</title>
<g id="a_edge9_Node000006_Node000008"><a xlink:title=" ">
<path fill="none" stroke="#63b8ff" d="M88.3,-385.76C86.3,-369.15 86.15,-347.11 95,-330 103.07,-314.4 118.48,-302.38 132.49,-294.04"/>
<polygon fill="#63b8ff" stroke="#63b8ff" points="84.86,-386.42 89.8,-395.79 91.78,-385.38 84.86,-386.42"/>
</a>
</g>
</g>
<!-- Node17 -->
<g id="Node000017" class="node">
<title>Node17</title>
<g id="a_Node000017"><a xlink:href="../../d3/df1/bulk__ops_8hpp.html" target="_top" xlink:title="Bulk sub&#45;operation models.">
<polygon fill="white" stroke="#666666" points="239.5,-360 104.5,-360 104.5,-330 239.5,-330 239.5,-360"/>
<text text-anchor="start" x="112.5" y="-348" font-family="Helvetica,sans-Serif" font-size="10.00">userver/storages/mongo</text>
<text text-anchor="middle" x="172" y="-337" font-family="Helvetica,sans-Serif" font-size="10.00">/bulk_ops.hpp</text>
</a>
</g>
</g>
<!-- Node6&#45;&gt;Node17 -->
<g id="edge24_Node000006_Node000017" class="edge">
<title>Node6&#45;&gt;Node17</title>
<g id="a_edge24_Node000006_Node000017"><a xlink:title=" ">
<path fill="none" stroke="#63b8ff" d="M118.33,-389.48C130.14,-379.91 143.89,-368.77 154.52,-360.16"/>
<polygon fill="#63b8ff" stroke="#63b8ff" points="116.1,-386.78 110.53,-395.8 120.51,-392.22 116.1,-386.78"/>
</a>
</g>
</g>
<!-- Node6&#45;&gt;Node18 -->
<g id="edge26_Node000006_Node000018" class="edge">
<title>Node6&#45;&gt;Node18</title>
<g id="a_edge26_Node000006_Node000018"><a xlink:title=" ">
<path fill="none" stroke="#63b8ff" d="M153.71,-393.25C191.19,-382.91 238.72,-369.8 274.21,-360.01"/>
<polygon fill="#63b8ff" stroke="#63b8ff" points="152.62,-389.92 143.91,-395.95 154.48,-396.67 152.62,-389.92"/>
</a>
</g>
</g>
<!-- Node8&#45;&gt;Node7 -->
<g id="edge10_Node000008_Node000007" class="edge">
<title>Node8&#45;&gt;Node7</title>
<g id="a_edge10_Node000008_Node000007"><a xlink:title=" ">
<path fill="none" stroke="#63b8ff" d="M186.17,-257.24C224.12,-225.69 301.1,-165.78 376,-132 422,-111.26 478.08,-98.09 518.62,-90.5"/>
<polygon fill="#63b8ff" stroke="#63b8ff" points="183.66,-254.78 178.25,-263.89 188.16,-260.15 183.66,-254.78"/>
</a>
</g>
</g>
<!-- Node8&#45;&gt;Node9 -->
<g id="edge11_Node000008_Node000009" class="edge">
<title>Node8&#45;&gt;Node9</title>
<g id="a_edge11_Node000008_Node000009"><a xlink:title=" ">
<path fill="none" stroke="#63b8ff" d="M239.52,-268.21C338.36,-255.74 507.67,-234.36 601.47,-222.52"/>
<polygon fill="#63b8ff" stroke="#63b8ff" points="239.07,-264.74 229.59,-269.47 239.95,-271.69 239.07,-264.74"/>
</a>
</g>
</g>
<!-- Node9&#45;&gt;Node5 -->
<g id="edge12_Node000009_Node000005" class="edge">
<title>Node9&#45;&gt;Node5</title>
<g id="a_edge12_Node000009_Node000005"><a xlink:title=" ">
<path fill="none" stroke="#63b8ff" d="M609.08,-195.25C572.08,-184.91 525.16,-171.8 490.14,-162.01"/>
<polygon fill="#63b8ff" stroke="#63b8ff" points="608.17,-198.63 618.74,-197.95 610.06,-191.89 608.17,-198.63"/>
</a>
</g>
</g>
<!-- Node9&#45;&gt;Node7 -->
<g id="edge13_Node000009_Node000007" class="edge">
<title>Node9&#45;&gt;Node7</title>
<g id="a_edge13_Node000009_Node000007"><a xlink:title=" ">
<path fill="none" stroke="#63b8ff" d="M652.38,-189.49C630.81,-160.29 594.22,-110.74 579.46,-90.75"/>
<polygon fill="#63b8ff" stroke="#63b8ff" points="649.79,-191.88 658.54,-197.84 655.42,-187.72 649.79,-191.88"/>
</a>
</g>
</g>
<!-- Node10 -->
<g id="Node000010" class="node">
<title>Node10</title>
<g id="a_Node000010"><a xlink:href="../../d5/d93/mongo_2include_2userver_2storages_2mongo_2dist__lock__component__base_8hpp.html" target="_top" xlink:title="Base class for mongo&#45;based distlock worker components.">
<polygon fill="white" stroke="#666666" points="1191.5,-96 1018.5,-96 1018.5,-66 1191.5,-66 1191.5,-96"/>
<text text-anchor="start" x="1026.5" y="-84" font-family="Helvetica,sans-Serif" font-size="10.00">userver/storages/mongo</text>
<text text-anchor="middle" x="1105" y="-73" font-family="Helvetica,sans-Serif" font-size="10.00">/dist_lock_component_base.hpp</text>
</a>
</g>
</g>
<!-- Node9&#45;&gt;Node10 -->
<g id="edge14_Node000009_Node000010" class="edge">
<title>Node9&#45;&gt;Node10</title>
<g id="a_edge14_Node000009_Node000010"><a xlink:title=" ">
<path fill="none" stroke="#63b8ff" d="M746.7,-207.58C860.9,-200.35 1063.32,-184.54 1088,-162 1106.24,-145.34 1107.54,-114.37 1106.5,-96.24"/>
<polygon fill="#63b8ff" stroke="#63b8ff" points="746.36,-204.09 736.6,-208.21 746.8,-211.08 746.36,-204.09"/>
</a>
</g>
</g>
<!-- Node11 -->
<g id="Node000011" class="node">
<title>Node11</title>
<g id="a_Node000011"><a xlink:href="../../d6/d83/mongo_2include_2userver_2storages_2mongo_2dist__lock__strategy_8hpp_source.html" target="_top" xlink:title=" ">
<polygon fill="white" stroke="#666666" points="1078.5,-162 943.5,-162 943.5,-132 1078.5,-132 1078.5,-162"/>
<text text-anchor="start" x="951.5" y="-150" font-family="Helvetica,sans-Serif" font-size="10.00">userver/storages/mongo</text>
<text text-anchor="middle" x="1011" y="-139" font-family="Helvetica,sans-Serif" font-size="10.00">/dist_lock_strategy.hpp</text>
</a>
</g>
</g>
<!-- Node9&#45;&gt;Node11 -->
<g id="edge15_Node000009_Node000011" class="edge">
<title>Node9&#45;&gt;Node11</title>
<g id="a_edge15_Node000009_Node000011"><a xlink:title=" ">
<path fill="none" stroke="#63b8ff" d="M746.62,-197.47C805.86,-186.39 886.65,-171.27 943.28,-160.67"/>
<polygon fill="#63b8ff" stroke="#63b8ff" points="745.75,-194.08 736.57,-199.36 747.04,-200.96 745.75,-194.08"/>
</a>
</g>
</g>
<!-- Node12 -->
<g id="Node000012" class="node">
<title>Node12</title>
<g id="a_Node000012"><a xlink:href="../../d3/dc1/pool_8hpp.html" target="_top" xlink:title="MongoDB client pool.">
<polygon fill="white" stroke="#666666" points="925.5,-162 790.5,-162 790.5,-132 925.5,-132 925.5,-162"/>
<text text-anchor="start" x="798.5" y="-150" font-family="Helvetica,sans-Serif" font-size="10.00">userver/storages/mongo</text>
<text text-anchor="middle" x="858" y="-139" font-family="Helvetica,sans-Serif" font-size="10.00">/pool.hpp</text>
</a>
</g>
</g>
<!-- Node9&#45;&gt;Node12 -->
<g id="edge17_Node000009_Node000012" class="edge">
<title>Node9&#45;&gt;Node12</title>
<g id="a_edge17_Node000009_Node000012"><a xlink:title=" ">
<path fill="none" stroke="#63b8ff" d="M720.02,-194.72C750.3,-184.47 788.21,-171.63 816.62,-162.01"/>
<polygon fill="#63b8ff" stroke="#63b8ff" points="718.83,-191.43 710.48,-197.95 721.07,-198.06 718.83,-191.43"/>
</a>
</g>
</g>
<!-- Node11&#45;&gt;Node10 -->
<g id="edge16_Node000011_Node000010" class="edge">
<title>Node11&#45;&gt;Node10</title>
<g id="a_edge16_Node000011_Node000010"><a xlink:title=" ">
<path fill="none" stroke="#63b8ff" d="M1040.33,-126.03C1054.56,-116.34 1071.31,-104.94 1084.2,-96.16"/>
<polygon fill="#63b8ff" stroke="#63b8ff" points="1038.16,-123.28 1031.86,-131.8 1042.1,-129.06 1038.16,-123.28"/>
</a>
</g>
</g>
<!-- Node12&#45;&gt;Node7 -->
<g id="edge18_Node000012_Node000007" class="edge">
<title>Node12&#45;&gt;Node7</title>
<g id="a_edge18_Node000012_Node000007"><a xlink:title=" ">
<path fill="none" stroke="#63b8ff" d="M785.65,-129.75C730.02,-117.26 655.38,-100.5 610.93,-90.52"/>
<polygon fill="#63b8ff" stroke="#63b8ff" points="784.93,-133.18 795.46,-131.95 786.47,-126.35 784.93,-133.18"/>
</a>
</g>
</g>
<!-- Node13 -->
<g id="Node000013" class="node">
<title>Node13</title>
<g id="a_Node000013"><a xlink:href="../../d1/dd7/mongo_2include_2userver_2storages_2mongo_2component_8hpp.html" target="_top" xlink:title="MongoDB client component.">
<polygon fill="white" stroke="#666666" points="1006.5,-30 871.5,-30 871.5,0 1006.5,0 1006.5,-30"/>
<text text-anchor="start" x="879.5" y="-18" font-family="Helvetica,sans-Serif" font-size="10.00">userver/storages/mongo</text>
<text text-anchor="middle" x="939" y="-7" font-family="Helvetica,sans-Serif" font-size="10.00">/component.hpp</text>
</a>
</g>
</g>
<!-- Node12&#45;&gt;Node13 -->
<g id="edge19_Node000012_Node000013" class="edge">
<title>Node12&#45;&gt;Node13</title>
<g id="a_edge19_Node000012_Node000013"><a xlink:title=" ">
<path fill="none" stroke="#63b8ff" d="M928.32,-127.79C943.58,-120.45 957.88,-110.22 967,-96 980.43,-75.07 963.92,-46.91 951.16,-30.19"/>
<polygon fill="#63b8ff" stroke="#63b8ff" points="926.47,-124.78 918.72,-132 929.28,-131.19 926.47,-124.78"/>
</a>
</g>
</g>
<!-- Node14 -->
<g id="Node000014" class="node">
<title>Node14</title>
<g id="a_Node000014"><a xlink:href="../../d2/de5/multi__mongo_8hpp_source.html" target="_top" xlink:title=" ">
<polygon fill="white" stroke="#666666" points="957.5,-96 822.5,-96 822.5,-66 957.5,-66 957.5,-96"/>
<text text-anchor="start" x="830.5" y="-84" font-family="Helvetica,sans-Serif" font-size="10.00">userver/storages/mongo</text>
<text text-anchor="middle" x="890" y="-73" font-family="Helvetica,sans-Serif" font-size="10.00">/multi_mongo.hpp</text>
</a>
</g>
</g>
<!-- Node12&#45;&gt;Node14 -->
<g id="edge20_Node000012_Node000014" class="edge">
<title>Node12&#45;&gt;Node14</title>
<g id="a_edge20_Node000012_Node000014"><a xlink:title=" ">
<path fill="none" stroke="#63b8ff" d="M869.66,-122.68C874.1,-113.79 879.03,-103.95 882.92,-96.16"/>
<polygon fill="#63b8ff" stroke="#63b8ff" points="866.44,-121.29 865.1,-131.8 872.7,-124.42 866.44,-121.29"/>
</a>
</g>
</g>
<!-- Node15 -->
<g id="Node000015" class="node">
<title>Node15</title>
<g id="a_Node000015"><a xlink:href="../../d7/d49/mongo__local_8hpp.html" target="_top" xlink:title=" ">
<polygon fill="white" stroke="#666666" points="804.5,-96 669.5,-96 669.5,-66 804.5,-66 804.5,-96"/>
<text text-anchor="start" x="677.5" y="-84" font-family="Helvetica,sans-Serif" font-size="10.00">userver/storages/mongo</text>
<text text-anchor="middle" x="737" y="-73" font-family="Helvetica,sans-Serif" font-size="10.00">/utest/mongo_local.hpp</text>
</a>
</g>
</g>
<!-- Node12&#45;&gt;Node15 -->
<g id="edge22_Node000012_Node000015" class="edge">
<title>Node12&#45;&gt;Node15</title>
<g id="a_edge22_Node000012_Node000015"><a xlink:title=" ">
<path fill="none" stroke="#63b8ff" d="M822.53,-127.24C803.65,-117.25 780.82,-105.18 763.49,-96.01"/>
<polygon fill="#63b8ff" stroke="#63b8ff" points="820.97,-130.37 831.45,-131.95 824.24,-124.19 820.97,-130.37"/>
</a>
</g>
</g>
<!-- Node14&#45;&gt;Node13 -->
<g id="edge21_Node000014_Node000013" class="edge">
<title>Node14&#45;&gt;Node13</title>
<g id="a_edge21_Node000014_Node000013"><a xlink:title=" ">
<path fill="none" stroke="#63b8ff" d="M906.99,-57.81C914.01,-48.64 921.94,-38.28 928.16,-30.16"/>
<polygon fill="#63b8ff" stroke="#63b8ff" points="904.17,-55.73 900.87,-65.8 909.73,-59.98 904.17,-55.73"/>
</a>
</g>
</g>
<!-- Node16 -->
<g id="Node000016" class="node">
<title>Node16</title>
<g id="a_Node000016"><a xlink:href="../../d0/d79/mongo__fixture_8hpp.html" target="_top" xlink:title=" ">
<polygon fill="white" stroke="#666666" points="806.5,-30 667.5,-30 667.5,0 806.5,0 806.5,-30"/>
<text text-anchor="start" x="675.5" y="-18" font-family="Helvetica,sans-Serif" font-size="10.00">userver/storages/mongo</text>
<text text-anchor="middle" x="737" y="-7" font-family="Helvetica,sans-Serif" font-size="10.00">/utest/mongo_fixture.hpp</text>
</a>
</g>
</g>
<!-- Node15&#45;&gt;Node16 -->
<g id="edge23_Node000015_Node000016" class="edge">
<title>Node15&#45;&gt;Node16</title>
<g id="a_edge23_Node000015_Node000016"><a xlink:title=" ">
<path fill="none" stroke="#63b8ff" d="M737,-55.54C737,-46.96 737,-37.61 737,-30.16"/>
<polygon fill="#63b8ff" stroke="#63b8ff" points="733.5,-55.8 737,-65.8 740.5,-55.8 733.5,-55.8"/>
</a>
</g>
</g>
<!-- Node17&#45;&gt;Node8 -->
<g id="edge25_Node000017_Node000008" class="edge">
<title>Node17&#45;&gt;Node8</title>
<g id="a_edge25_Node000017_Node000008"><a xlink:title=" ">
<path fill="none" stroke="#63b8ff" d="M168.22,-319.83C166.87,-311.17 165.39,-301.7 164.21,-294.16"/>
<polygon fill="#63b8ff" stroke="#63b8ff" points="164.78,-320.46 169.78,-329.8 171.69,-319.38 164.78,-320.46"/>
</a>
</g>
</g>
<!-- Node18&#45;&gt;Node5 -->
<g id="edge27_Node000018_Node000005" class="edge">
<title>Node18&#45;&gt;Node5</title>
<g id="a_edge27_Node000018_Node000005"><a xlink:title=" ">
<path fill="none" stroke="#63b8ff" d="M337.39,-320.75C353.03,-291.69 381.03,-240.59 407,-198 414.47,-185.75 423.48,-172.17 430.19,-162.27"/>
<polygon fill="#63b8ff" stroke="#63b8ff" points="334.23,-319.24 332.58,-329.71 340.39,-322.55 334.23,-319.24"/>
</a>
</g>
</g>
<!-- Node18&#45;&gt;Node9 -->
<g id="edge28_Node000018_Node000009" class="edge">
<title>Node18&#45;&gt;Node9</title>
<g id="a_edge28_Node000018_Node000009"><a xlink:title=" ">
<path fill="none" stroke="#63b8ff" d="M371.89,-326.28C440.96,-300.18 568.68,-251.91 631.75,-228.08"/>
<polygon fill="#63b8ff" stroke="#63b8ff" points="370.26,-323.16 362.14,-329.96 372.73,-329.7 370.26,-323.16"/>
</a>
</g>
</g>
<!-- Node19&#45;&gt;Node2 -->
<g id="edge31_Node000019_Node000002" class="edge">
<title>Node19&#45;&gt;Node2</title>
<g id="a_edge31_Node000019_Node000002"><a xlink:title=" ">
<path fill="none" stroke="#63b8ff" d="M550.68,-453.64C562.15,-437.45 578.24,-415.14 593,-396 604.38,-381.25 618.24,-364.6 626.58,-354.72"/>
<polygon fill="#63b8ff" stroke="#63b8ff" points="547.72,-451.75 544.81,-461.94 553.44,-455.79 547.72,-451.75"/>
</a>
</g>
</g>
<!-- Node19&#45;&gt;Node4 -->
<g id="edge34_Node000019_Node000004" class="edge">
<title>Node19&#45;&gt;Node4</title>
<g id="a_edge34_Node000019_Node000004"><a xlink:title=" ">
<path fill="none" stroke="#63b8ff" d="M480.62,-458.86C448.03,-448.58 407.1,-435.68 376.45,-426.01"/>
<polygon fill="#63b8ff" stroke="#63b8ff" points="479.86,-462.29 490.45,-461.95 481.97,-455.61 479.86,-462.29"/>
</a>
</g>
</g>
<!-- Node19&#45;&gt;Node5 -->
<g id="edge30_Node000019_Node000005" class="edge">
<title>Node19&#45;&gt;Node5</title>
<g id="a_edge30_Node000019_Node000005"><a xlink:title=" ">
<path fill="none" stroke="#63b8ff" d="M512.78,-454.49C490.35,-430.38 459,-388.98 459,-346 459,-346 459,-346 459,-278 459,-235.57 448.97,-186.17 443.48,-162.33"/>
<polygon fill="#63b8ff" stroke="#63b8ff" points="510.53,-457.21 519.98,-461.99 515.58,-452.35 510.53,-457.21"/>
</a>
</g>
</g>
<!-- Node19&#45;&gt;Node6 -->
<g id="edge46_Node000019_Node000006" class="edge">
<title>Node19&#45;&gt;Node6</title>
<g id="a_edge46_Node000019_Node000006"><a xlink:title=" ">
<path fill="none" stroke="#63b8ff" d="M464.57,-465.8C381.11,-453.72 243.03,-433.72 160.76,-421.81"/>
<polygon fill="#63b8ff" stroke="#63b8ff" points="464.07,-469.27 474.47,-467.24 465.07,-462.34 464.07,-469.27"/>
</a>
</g>
</g>
<!-- Node19&#45;&gt;Node9 -->
<g id="edge41_Node000019_Node000009" class="edge">
<title>Node19&#45;&gt;Node9</title>
<g id="a_edge41_Node000019_Node000009"><a xlink:title=" ">
<path fill="none" stroke="#63b8ff" d="M530.52,-451.54C526.14,-419.43 523.94,-363.24 554,-330 601.15,-277.87 664.32,-349.07 708,-294 724.32,-273.42 701.77,-244.89 684.77,-228.05"/>
<polygon fill="#63b8ff" stroke="#63b8ff" points="527.12,-452.47 532.1,-461.82 534.04,-451.41 527.12,-452.47"/>
</a>
</g>
</g>
<!-- Node19&#45;&gt;Node17 -->
<g id="edge40_Node000019_Node000017" class="edge">
<title>Node19&#45;&gt;Node17</title>
<g id="a_edge40_Node000019_Node000017"><a xlink:title=" ">
<path fill="none" stroke="#63b8ff" d="M464.33,-473.33C407.46,-468.81 326.78,-456.93 263,-426 229.88,-409.94 199.51,-378.45 183.62,-360.14"/>
<polygon fill="#63b8ff" stroke="#63b8ff" points="464.08,-476.82 474.31,-474.07 464.6,-469.84 464.08,-476.82"/>
</a>
</g>
</g>
<!-- Node19&#45;&gt;Node18 -->
<g id="edge45_Node000019_Node000018" class="edge">
<title>Node19&#45;&gt;Node18</title>
<g id="a_edge45_Node000019_Node000018"><a xlink:title=" ">
<path fill="none" stroke="#63b8ff" d="M498.93,-457.05C482.28,-448.03 462.4,-436.86 445,-426 425.23,-413.66 421.33,-409.01 402,-396 383.62,-383.63 362.5,-369.95 347.03,-360.03"/>
<polygon fill="#63b8ff" stroke="#63b8ff" points="497.34,-460.17 507.81,-461.83 500.66,-454.01 497.34,-460.17"/>
</a>
</g>
</g>
<!-- Node20 -->
<g id="Node000020" class="node">
<title>Node20</title>
<g id="a_Node000020"><a xlink:href="../../db/d2e/binary_8hpp.html" target="_top" xlink:title="Binary representation helpers.">
<polygon fill="white" stroke="#666666" points="722.5,-426 601.5,-426 601.5,-396 722.5,-396 722.5,-426"/>
<text text-anchor="start" x="609.5" y="-414" font-family="Helvetica,sans-Serif" font-size="10.00">userver/formats/bson</text>
<text text-anchor="middle" x="662" y="-403" font-family="Helvetica,sans-Serif" font-size="10.00">/binary.hpp</text>
</a>
</g>
</g>
<!-- Node19&#45;&gt;Node20 -->
<g id="edge32_Node000019_Node000020" class="edge">
<title>Node19&#45;&gt;Node20</title>
<g id="a_edge32_Node000019_Node000020"><a xlink:title=" ">
<path fill="none" stroke="#63b8ff" d="M571.95,-457.38C591.83,-447.36 615.93,-435.22 634.19,-426.01"/>
<polygon fill="#63b8ff" stroke="#63b8ff" points="570.23,-454.33 562.87,-461.95 573.38,-460.58 570.23,-454.33"/>
</a>
</g>
</g>
<!-- Node19&#45;&gt;Node21 -->
<g id="edge35_Node000019_Node000021" class="edge">
<title>Node19&#45;&gt;Node21</title>
<g id="a_edge35_Node000019_Node000021"><a xlink:title=" ">
<path fill="none" stroke="#63b8ff" d="M605.72,-467.48C680.12,-458.27 800.52,-442.66 904,-426 908.71,-425.24 913.57,-424.42 918.46,-423.57"/>
<polygon fill="#63b8ff" stroke="#63b8ff" points="605.03,-464.04 595.54,-468.74 605.89,-470.99 605.03,-464.04"/>
</a>
</g>
</g>
<!-- Node19&#45;&gt;Node22 -->
<g id="edge36_Node000019_Node000022" class="edge">
<title>Node19&#45;&gt;Node22</title>
<g id="a_edge36_Node000019_Node000022"><a xlink:title=" ">
<path fill="none" stroke="#63b8ff" d="M603.23,-459.58C646.42,-449.19 701.65,-435.9 742.76,-426.01"/>
<polygon fill="#63b8ff" stroke="#63b8ff" points="602.28,-456.21 593.37,-461.95 603.92,-463.02 602.28,-456.21"/>
</a>
</g>
</g>
<!-- Node24 -->
<g id="Node000024" class="node">
<title>Node24</title>
<g id="a_Node000024"><a xlink:href="../../d7/dfb/cursor_8hpp.html" target="_top" xlink:title="Interface for MongoDB query cursors.">
<polygon fill="white" stroke="#666666" points="698.5,-294 563.5,-294 563.5,-264 698.5,-264 698.5,-294"/>
<text text-anchor="start" x="571.5" y="-282" font-family="Helvetica,sans-Serif" font-size="10.00">userver/storages/mongo</text>
<text text-anchor="middle" x="631" y="-271" font-family="Helvetica,sans-Serif" font-size="10.00">/cursor.hpp</text>
</a>
</g>
</g>
<!-- Node19&#45;&gt;Node24 -->
<g id="edge42_Node000019_Node000024" class="edge">
<title>Node19&#45;&gt;Node24</title>
<g id="a_edge42_Node000019_Node000024"><a xlink:title=" ">
<path fill="none" stroke="#63b8ff" d="M524.29,-452.28C512.15,-421.5 496.97,-367.32 521,-330 532.02,-312.89 550.48,-301.57 569.16,-294.11"/>
<polygon fill="#63b8ff" stroke="#63b8ff" points="521.16,-453.87 528.23,-461.77 527.63,-451.19 521.16,-453.87"/>
</a>
</g>
</g>
<!-- Node19&#45;&gt;Node25 -->
<g id="edge47_Node000019_Node000025" class="edge">
<title>Node19&#45;&gt;Node25</title>
<g id="a_edge47_Node000019_Node000025"><a xlink:title=" ">
<path fill="none" stroke="#63b8ff" d="M605.76,-475.7C675.75,-473.09 784.6,-462.7 871,-426 891.13,-417.45 891.45,-407.58 910,-396 978.28,-353.39 1064.37,-314.1 1110.75,-294.01"/>
<polygon fill="#63b8ff" stroke="#63b8ff" points="605.61,-472.21 595.73,-476.04 605.84,-479.2 605.61,-472.21"/>
</a>
</g>
</g>
<!-- Node20&#45;&gt;Node2 -->
<g id="edge33_Node000020_Node000002" class="edge">
<title>Node20&#45;&gt;Node2</title>
<g id="a_edge33_Node000020_Node000002"><a xlink:title=" ">
<path fill="none" stroke="#63b8ff" d="M651.77,-386.61C646.93,-375.56 641.45,-363.03 637.87,-354.84"/>
<polygon fill="#63b8ff" stroke="#63b8ff" points="648.57,-388.04 655.79,-395.8 654.98,-385.23 648.57,-388.04"/>
</a>
</g>
</g>
<!-- Node22&#45;&gt;Node2 -->
<g id="edge38_Node000022_Node000002" class="edge">
<title>Node22&#45;&gt;Node2</title>
<g id="a_edge38_Node000022_Node000002"><a xlink:title=" ">
<path fill="none" stroke="#63b8ff" d="M754.71,-392.26C722.59,-379.95 681.25,-364.11 656.22,-354.52"/>
<polygon fill="#63b8ff" stroke="#63b8ff" points="753.76,-395.64 764.35,-395.95 756.27,-389.11 753.76,-395.64"/>
</a>
</g>
</g>
<!-- Node22&#45;&gt;Node5 -->
<g id="edge37_Node000022_Node000005" class="edge">
<title>Node22&#45;&gt;Node5</title>
<g id="a_edge37_Node000022_Node000005"><a xlink:title=" ">
<path fill="none" stroke="#63b8ff" d="M780.41,-388.72C759.68,-367.74 728.73,-337.72 714,-330 649.84,-296.34 616.27,-332.68 555,-294 527.44,-276.6 471.77,-195.76 449.51,-162.43"/>
<polygon fill="#63b8ff" stroke="#63b8ff" points="778.04,-391.3 787.54,-395.99 783.03,-386.4 778.04,-391.3"/>
</a>
</g>
</g>
<!-- Node23 -->
<g id="Node000023" class="node">
<title>Node23</title>
<g id="a_Node000023"><a xlink:href="../../d9/d86/mongo_2include_2userver_2formats_2bson_2serialize__duration_8hpp.html" target="_top" xlink:title="Serializers for std::chrono::duration types.">
<polygon fill="white" stroke="#666666" points="889,-360 761,-360 761,-330 889,-330 889,-360"/>
<text text-anchor="start" x="769" y="-348" font-family="Helvetica,sans-Serif" font-size="10.00">userver/formats/bson</text>
<text text-anchor="middle" x="825" y="-337" font-family="Helvetica,sans-Serif" font-size="10.00">/serialize_duration.hpp</text>
</a>
</g>
</g>
<!-- Node22&#45;&gt;Node23 -->
<g id="edge39_Node000022_Node000023" class="edge">
<title>Node22&#45;&gt;Node23</title>
<g id="a_edge39_Node000022_Node000023"><a xlink:title=" ">
<path fill="none" stroke="#63b8ff" d="M809.85,-386.39C813.16,-377.59 816.8,-367.86 819.69,-360.16"/>
<polygon fill="#63b8ff" stroke="#63b8ff" points="806.56,-385.2 806.33,-395.8 813.11,-387.66 806.56,-385.2"/>
</a>
</g>
</g>
<!-- Node24&#45;&gt;Node7 -->
<g id="edge43_Node000024_Node000007" class="edge">
<title>Node24&#45;&gt;Node7</title>
<g id="a_edge43_Node000024_Node000007"><a xlink:title=" ">
<path fill="none" stroke="#63b8ff" d="M610.62,-256.27C603.95,-248 597.2,-238.12 593,-228 572.72,-179.08 572.16,-113.81 572.69,-90.62"/>
<polygon fill="#63b8ff" stroke="#63b8ff" points="608,-258.6 617.15,-263.95 613.34,-254.07 608,-258.6"/>
</a>
</g>
</g>
<!-- Node24&#45;&gt;Node9 -->
<g id="edge44_Node000024_Node000009" class="edge">
<title>Node24&#45;&gt;Node9</title>
<g id="a_edge44_Node000024_Node000009"><a xlink:title=" ">
<path fill="none" stroke="#63b8ff" d="M644.68,-254.96C650,-246 655.92,-236.03 660.59,-228.16"/>
<polygon fill="#63b8ff" stroke="#63b8ff" points="641.53,-253.41 639.43,-263.8 647.55,-256.98 641.53,-253.41"/>
</a>
</g>
</g>
<!-- Node25&#45;&gt;Node7 -->
<g id="edge48_Node000025_Node000007" class="edge">
<title>Node25&#45;&gt;Node7</title>
<g id="a_edge48_Node000025_Node000007"><a xlink:title=" ">
<path fill="none" stroke="#63b8ff" d="M1087.73,-261.03C1016.27,-239.23 889.34,-199.71 782,-162 712.72,-137.66 631.82,-105.66 594.22,-90.57"/>
<polygon fill="#63b8ff" stroke="#63b8ff" points="1086.85,-264.42 1097.44,-263.98 1088.89,-257.72 1086.85,-264.42"/>
</a>
</g>
</g>
<!-- Node25&#45;&gt;Node9 -->
<g id="edge49_Node000025_Node000009" class="edge">
<title>Node25&#45;&gt;Node9</title>
<g id="a_edge49_Node000025_Node000009"><a xlink:title=" ">
<path fill="none" stroke="#63b8ff" d="M1066.46,-264.65C1064.96,-264.43 1063.47,-264.21 1062,-264 924.26,-244.28 888.74,-247.72 751,-228 746.28,-227.32 741.42,-226.59 736.52,-225.82"/>
<polygon fill="#63b8ff" stroke="#63b8ff" points="1066.06,-268.13 1076.48,-266.18 1067.12,-261.21 1066.06,-268.13"/>
</a>
</g>
</g>
</g>
</svg>
