<?xml version="1.0" encoding="UTF-8" standalone="no"?>
<!DOCTYPE svg PUBLIC "-//W3C//DTD SVG 1.1//EN"
 "http://www.w3.org/Graphics/SVG/1.1/DTD/svg11.dtd">
<!-- Generated by graphviz version 2.43.0 (0)
 -->
<!-- Title: userver/components/component_context.hpp Pages: 1 -->
<svg width="1218pt" height="170pt"
 viewBox="0.00 0.00 1217.50 170.00" xmlns="http://www.w3.org/2000/svg" xmlns:xlink="http://www.w3.org/1999/xlink">
<g id="graph0" class="graph" transform="scale(1 1) rotate(0) translate(4 166)">
<title>userver/components/component_context.hpp</title>
<!-- Node1 -->
<g id="Node000001" class="node">
<title>Node1</title>
<g id="a_Node000001"><a xlink:title="Class to retrieve other components.">
<polygon fill="#999999" stroke="#666666" points="627,-162 490,-162 490,-132 627,-132 627,-162"/>
<text text-anchor="start" x="498" y="-150" font-family="Helvetica,sans-Serif" font-size="10.00">userver/components</text>
<text text-anchor="middle" x="558.5" y="-139" font-family="Helvetica,sans-Serif" font-size="10.00">/component_context.hpp</text>
</a>
</g>
</g>
<!-- Node2 -->
<g id="Node000002" class="node">
<title>Node2</title>
<g id="a_Node000002"><a xlink:href="../../d4/d44/baggage__manager_8hpp.html" target="_top" xlink:title="Baggage manipulation client and component.">
<polygon fill="white" stroke="#666666" points="143,-96 0,-96 0,-66 143,-66 143,-96"/>
<text text-anchor="start" x="8" y="-84" font-family="Helvetica,sans-Serif" font-size="10.00">userver/baggage/baggage</text>
<text text-anchor="middle" x="71.5" y="-73" font-family="Helvetica,sans-Serif" font-size="10.00">_manager.hpp</text>
</a>
</g>
</g>
<!-- Node1&#45;&gt;Node2 -->
<g id="edge1_Node000001_Node000002" class="edge">
<title>Node1&#45;&gt;Node2</title>
<g id="a_edge1_Node000001_Node000002"><a xlink:title=" ">
<path fill="none" stroke="#63b8ff" d="M479.94,-137.55C397.85,-128.44 265.4,-112.95 151.5,-96 148.71,-95.58 145.87,-95.15 143,-94.7"/>
<polygon fill="#63b8ff" stroke="#63b8ff" points="479.62,-141.04 489.94,-138.66 480.39,-134.08 479.62,-141.04"/>
</a>
</g>
</g>
<!-- Node3 -->
<g id="Node000003" class="node">
<title>Node3</title>
<g id="a_Node000003"><a xlink:href="../../dd/d6c/base__mongo__cache_8hpp.html" target="_top" xlink:title="Base class for all caches polling mongo collection">
<polygon fill="white" stroke="#666666" points="272,-96 161,-96 161,-66 272,-66 272,-96"/>
<text text-anchor="start" x="169" y="-84" font-family="Helvetica,sans-Serif" font-size="10.00">userver/cache/base</text>
<text text-anchor="middle" x="216.5" y="-73" font-family="Helvetica,sans-Serif" font-size="10.00">_mongo_cache.hpp</text>
</a>
</g>
</g>
<!-- Node1&#45;&gt;Node3 -->
<g id="edge2_Node000001_Node000003" class="edge">
<title>Node1&#45;&gt;Node3</title>
<g id="a_edge2_Node000001_Node000003"><a xlink:title=" ">
<path fill="none" stroke="#63b8ff" d="M479.66,-132.63C423.92,-122.98 347.51,-109.35 280.5,-96 277.82,-95.47 275.09,-94.91 272.32,-94.34"/>
<polygon fill="#63b8ff" stroke="#63b8ff" points="479.37,-136.13 489.82,-134.38 480.56,-129.23 479.37,-136.13"/>
</a>
</g>
</g>
<!-- Node4 -->
<g id="Node000004" class="node">
<title>Node4</title>
<g id="a_Node000004"><a xlink:href="../../dc/df7/base__postgres__cache_8hpp.html" target="_top" xlink:title="Caching component for PostgreSQL. See Caching Component for PostgreSQL.">
<polygon fill="white" stroke="#666666" points="409,-96 290,-96 290,-66 409,-66 409,-96"/>
<text text-anchor="start" x="298" y="-84" font-family="Helvetica,sans-Serif" font-size="10.00">userver/cache/base</text>
<text text-anchor="middle" x="349.5" y="-73" font-family="Helvetica,sans-Serif" font-size="10.00">_postgres_cache.hpp</text>
</a>
</g>
</g>
<!-- Node1&#45;&gt;Node4 -->
<g id="edge3_Node000001_Node000004" class="edge">
<title>Node1&#45;&gt;Node4</title>
<g id="a_edge3_Node000001_Node000004"><a xlink:title=" ">
<path fill="none" stroke="#63b8ff" d="M502.95,-128.99C469.32,-118.69 426.95,-105.72 395.26,-96.01"/>
<polygon fill="#63b8ff" stroke="#63b8ff" points="502.05,-132.37 512.63,-131.95 504.1,-125.68 502.05,-132.37"/>
</a>
</g>
</g>
<!-- Node5 -->
<g id="Node000005" class="node">
<title>Node5</title>
<g id="a_Node000005"><a xlink:href="../../d8/d2e/core_2include_2userver_2components_2component_8hpp.html" target="_top" xlink:title="Convenience header that provides all the types for component implementation (components::ComponentCon...">
<polygon fill="white" stroke="#666666" points="543.5,-96 427.5,-96 427.5,-66 543.5,-66 543.5,-96"/>
<text text-anchor="start" x="435.5" y="-84" font-family="Helvetica,sans-Serif" font-size="10.00">userver/components</text>
<text text-anchor="middle" x="485.5" y="-73" font-family="Helvetica,sans-Serif" font-size="10.00">/component.hpp</text>
</a>
</g>
</g>
<!-- Node1&#45;&gt;Node5 -->
<g id="edge4_Node000001_Node000005" class="edge">
<title>Node1&#45;&gt;Node5</title>
<g id="a_edge4_Node000001_Node000005"><a xlink:title=" ">
<path fill="none" stroke="#63b8ff" d="M534.78,-125.2C523.94,-115.7 511.38,-104.69 501.66,-96.16"/>
<polygon fill="#63b8ff" stroke="#63b8ff" points="532.47,-127.84 542.3,-131.8 537.09,-122.57 532.47,-127.84"/>
</a>
</g>
</g>
<!-- Node6 -->
<g id="Node000006" class="node">
<title>Node6</title>
<g id="a_Node000006"><a xlink:href="../../dc/d2d/factory_8hpp_source.html" target="_top" xlink:title=" ">
<polygon fill="white" stroke="#666666" points="703,-90.5 562,-90.5 562,-71.5 703,-71.5 703,-90.5"/>
<text text-anchor="middle" x="632.5" y="-78.5" font-family="Helvetica,sans-Serif" font-size="10.00">userver/dump/factory.hpp</text>
</a>
</g>
</g>
<!-- Node1&#45;&gt;Node6 -->
<g id="edge5_Node000001_Node000006" class="edge">
<title>Node1&#45;&gt;Node6</title>
<g id="a_edge5_Node000001_Node000006"><a xlink:title=" ">
<path fill="none" stroke="#63b8ff" d="M582.86,-124.93C596.25,-113.35 612.14,-99.61 622.27,-90.84"/>
<polygon fill="#63b8ff" stroke="#63b8ff" points="580.2,-122.61 574.92,-131.8 584.78,-127.9 580.2,-122.61"/>
</a>
</g>
</g>
<!-- Node9 -->
<g id="Node000009" class="node">
<title>Node9</title>
<g id="a_Node000009"><a xlink:href="../../db/ddd/auth__checker__factory_8hpp.html" target="_top" xlink:title="Authorization factory registration and base classes.">
<polygon fill="white" stroke="#666666" points="889.5,-96 721.5,-96 721.5,-66 889.5,-66 889.5,-96"/>
<text text-anchor="start" x="729.5" y="-84" font-family="Helvetica,sans-Serif" font-size="10.00">userver/server/handlers</text>
<text text-anchor="middle" x="805.5" y="-73" font-family="Helvetica,sans-Serif" font-size="10.00">/auth/auth_checker_factory.hpp</text>
</a>
</g>
</g>
<!-- Node1&#45;&gt;Node9 -->
<g id="edge8_Node000001_Node000009" class="edge">
<title>Node1&#45;&gt;Node9</title>
<g id="a_edge8_Node000001_Node000009"><a xlink:title=" ">
<path fill="none" stroke="#63b8ff" d="M622.62,-129.39C662.6,-119.03 713.48,-105.84 751.42,-96.01"/>
<polygon fill="#63b8ff" stroke="#63b8ff" points="621.51,-126.06 612.71,-131.95 623.26,-132.83 621.51,-126.06"/>
</a>
</g>
</g>
<!-- Node10 -->
<g id="Node000010" class="node">
<title>Node10</title>
<g id="a_Node000010"><a xlink:href="../../d8/d82/core_2include_2userver_2server_2server_8hpp_source.html" target="_top" xlink:title=" ">
<polygon fill="white" stroke="#666666" points="1049,-90.5 908,-90.5 908,-71.5 1049,-71.5 1049,-90.5"/>
<text text-anchor="middle" x="978.5" y="-78.5" font-family="Helvetica,sans-Serif" font-size="10.00">userver/server/server.hpp</text>
</a>
</g>
</g>
<!-- Node1&#45;&gt;Node10 -->
<g id="edge9_Node000001_Node000010" class="edge">
<title>Node1&#45;&gt;Node10</title>
<g id="a_edge9_Node000001_Node000010"><a xlink:title=" ">
<path fill="none" stroke="#63b8ff" d="M637.21,-135.04C706.18,-125.3 809.09,-110.39 898.5,-96 909.08,-94.3 920.43,-92.37 931.16,-90.5"/>
<polygon fill="#63b8ff" stroke="#63b8ff" points="636.7,-131.58 627.29,-136.44 637.68,-138.51 636.7,-131.58"/>
</a>
</g>
</g>
<!-- Node12 -->
<g id="Node000012" class="node">
<title>Node12</title>
<g id="a_Node000012"><a xlink:href="../../d4/d64/websocket__handler_8hpp.html" target="_top" xlink:title=" ">
<polygon fill="white" stroke="#666666" points="1209.5,-96 1067.5,-96 1067.5,-66 1209.5,-66 1209.5,-96"/>
<text text-anchor="start" x="1075.5" y="-84" font-family="Helvetica,sans-Serif" font-size="10.00">userver/server/websocket</text>
<text text-anchor="middle" x="1138.5" y="-73" font-family="Helvetica,sans-Serif" font-size="10.00">/websocket_handler.hpp</text>
</a>
</g>
</g>
<!-- Node1&#45;&gt;Node12 -->
<g id="edge11_Node000001_Node000012" class="edge">
<title>Node1&#45;&gt;Node12</title>
<g id="a_edge11_Node000001_Node000012"><a xlink:title=" ">
<path fill="none" stroke="#63b8ff" d="M637.22,-139.93C735.9,-131.91 910.13,-116.37 1058.5,-96 1061.43,-95.6 1064.42,-95.17 1067.44,-94.71"/>
<polygon fill="#63b8ff" stroke="#63b8ff" points="636.71,-136.46 627.03,-140.75 637.28,-143.44 636.71,-136.46"/>
</a>
</g>
</g>
<!-- Node7 -->
<g id="Node000007" class="node">
<title>Node7</title>
<g id="a_Node000007"><a xlink:href="../../d9/de9/operations__encrypted_8hpp_source.html" target="_top" xlink:title=" ">
<polygon fill="white" stroke="#666666" points="624,-30 485,-30 485,0 624,0 624,-30"/>
<text text-anchor="start" x="493" y="-18" font-family="Helvetica,sans-Serif" font-size="10.00">userver/dump/operations</text>
<text text-anchor="middle" x="554.5" y="-7" font-family="Helvetica,sans-Serif" font-size="10.00">_encrypted.hpp</text>
</a>
</g>
</g>
<!-- Node6&#45;&gt;Node7 -->
<g id="edge6_Node000006_Node000007" class="edge">
<title>Node6&#45;&gt;Node7</title>
<g id="a_edge6_Node000006_Node000007"><a xlink:title=" ">
<path fill="none" stroke="#63b8ff" d="M614.24,-65.02C601.39,-54.48 584.31,-40.46 571.7,-30.12"/>
<polygon fill="#63b8ff" stroke="#63b8ff" points="612.03,-67.73 621.98,-71.37 616.47,-62.32 612.03,-67.73"/>
</a>
</g>
</g>
<!-- Node8 -->
<g id="Node000008" class="node">
<title>Node8</title>
<g id="a_Node000008"><a xlink:href="../../d3/d85/operations__file_8hpp_source.html" target="_top" xlink:title=" ">
<polygon fill="white" stroke="#666666" points="781,-30 642,-30 642,0 781,0 781,-30"/>
<text text-anchor="start" x="650" y="-18" font-family="Helvetica,sans-Serif" font-size="10.00">userver/dump/operations</text>
<text text-anchor="middle" x="711.5" y="-7" font-family="Helvetica,sans-Serif" font-size="10.00">_file.hpp</text>
</a>
</g>
</g>
<!-- Node6&#45;&gt;Node8 -->
<g id="edge7_Node000006_Node000008" class="edge">
<title>Node6&#45;&gt;Node8</title>
<g id="a_edge7_Node000006_Node000008"><a xlink:title=" ">
<path fill="none" stroke="#63b8ff" d="M651,-65.02C664.01,-54.48 681.31,-40.46 694.08,-30.12"/>
<polygon fill="#63b8ff" stroke="#63b8ff" points="648.72,-62.35 643.15,-71.37 653.13,-67.79 648.72,-62.35"/>
</a>
</g>
</g>
<!-- Node11 -->
<g id="Node000011" class="node">
<title>Node11</title>
<g id="a_Node000011"><a xlink:href="../../d3/ddd/core_2include_2userver_2server_2component_8hpp.html" target="_top" xlink:title="Component that listens for incoming requests, manages incoming connections and passes the requests to...">
<polygon fill="white" stroke="#666666" points="1061.5,-24.5 895.5,-24.5 895.5,-5.5 1061.5,-5.5 1061.5,-24.5"/>
<text text-anchor="middle" x="978.5" y="-12.5" font-family="Helvetica,sans-Serif" font-size="10.00">userver/server/component.hpp</text>
</a>
</g>
</g>
<!-- Node10&#45;&gt;Node11 -->
<g id="edge10_Node000010_Node000011" class="edge">
<title>Node10&#45;&gt;Node11</title>
<g id="a_edge10_Node000010_Node000011"><a xlink:title=" ">
<path fill="none" stroke="#63b8ff" d="M978.5,-61.08C978.5,-49.13 978.5,-34.22 978.5,-24.91"/>
<polygon fill="#63b8ff" stroke="#63b8ff" points="975,-61.37 978.5,-71.37 982,-61.37 975,-61.37"/>
</a>
</g>
</g>
</g>
</svg>
