<?xml version="1.0" encoding="UTF-8" standalone="no"?>
<!DOCTYPE svg PUBLIC "-//W3C//DTD SVG 1.1//EN"
 "http://www.w3.org/Graphics/SVG/1.1/DTD/svg11.dtd">
<!-- Generated by graphviz version 2.43.0 (0)
 -->
<!-- Title: baggage::BaggageSettings Pages: 1 -->
<svg width="155pt" height="237pt"
 viewBox="0.00 0.00 155.00 237.00" xmlns="http://www.w3.org/2000/svg" xmlns:xlink="http://www.w3.org/1999/xlink">
<g id="graph0" class="graph" transform="scale(1 1) rotate(0) translate(4 233)">
<title>baggage::BaggageSettings</title>
<!-- Node1 -->
<g id="Node000001" class="node">
<title>Node1</title>
<g id="a_Node000001"><a xlink:title=" ">
<polygon fill="#999999" stroke="#666666" points="147,-19 0,-19 0,0 147,0 147,-19"/>
<text text-anchor="middle" x="73.5" y="-7" font-family="Helvetica,sans-Serif" font-size="10.00">baggage::BaggageSettings</text>
</a>
</g>
</g>
<!-- Node2 -->
<g id="Node000002" class="node">
<title>Node2</title>
<g id="a_Node000002"><a xlink:title=" ">
<polygon fill="white" stroke="#666666" points="127,-96 20,-96 20,-66 127,-66 127,-96"/>
<text text-anchor="start" x="28" y="-84" font-family="Helvetica,sans-Serif" font-size="10.00">std::unordered_set</text>
<text text-anchor="middle" x="73.5" y="-73" font-family="Helvetica,sans-Serif" font-size="10.00">&lt; std::string &gt;</text>
</a>
</g>
</g>
<!-- Node2&#45;&gt;Node1 -->
<g id="edge1_Node000001_Node000002" class="edge">
<title>Node2&#45;&gt;Node1</title>
<g id="a_edge1_Node000001_Node000002"><a xlink:title=" ">
<path fill="none" stroke="#9a32cd" stroke-dasharray="5,2" d="M73.5,-55.56C73.5,-42.95 73.5,-28.35 73.5,-19.27"/>
<polygon fill="#9a32cd" stroke="#9a32cd" points="70,-55.94 73.5,-65.94 77,-55.94 70,-55.94"/>
</a>
</g>
<text text-anchor="middle" x="108.5" y="-40" font-family="Helvetica,sans-Serif" font-size="10.00" fill="grey"> allowed_keys</text>
</g>
<!-- Node3 -->
<g id="Node000003" class="node">
<title>Node3</title>
<g id="a_Node000003"><a xlink:title=" ">
<polygon fill="white" stroke="#666666" points="106,-162 41,-162 41,-143 106,-143 106,-162"/>
<text text-anchor="middle" x="73.5" y="-150" font-family="Helvetica,sans-Serif" font-size="10.00">std::string</text>
</a>
</g>
</g>
<!-- Node3&#45;&gt;Node2 -->
<g id="edge2_Node000002_Node000003" class="edge">
<title>Node3&#45;&gt;Node2</title>
<g id="a_edge2_Node000002_Node000003"><a xlink:title=" ">
<path fill="none" stroke="#9a32cd" stroke-dasharray="5,2" d="M73.5,-132.71C73.5,-121.19 73.5,-106.68 73.5,-96.14"/>
<polygon fill="#9a32cd" stroke="#9a32cd" points="70,-132.98 73.5,-142.98 77,-132.98 70,-132.98"/>
</a>
</g>
<text text-anchor="middle" x="86.5" y="-117" font-family="Helvetica,sans-Serif" font-size="10.00" fill="grey"> keys</text>
</g>
<!-- Node4 -->
<g id="Node000004" class="node">
<title>Node4</title>
<g id="a_Node000004"><a xlink:title=" ">
<polygon fill="white" stroke="#666666" points="125.5,-229 21.5,-229 21.5,-199 125.5,-199 125.5,-229"/>
<text text-anchor="start" x="29.5" y="-217" font-family="Helvetica,sans-Serif" font-size="10.00">std::basic_string&lt;</text>
<text text-anchor="middle" x="73.5" y="-206" font-family="Helvetica,sans-Serif" font-size="10.00"> Char &gt;</text>
</a>
</g>
</g>
<!-- Node4&#45;&gt;Node3 -->
<g id="edge3_Node000003_Node000004" class="edge">
<title>Node4&#45;&gt;Node3</title>
<g id="a_edge3_Node000003_Node000004"><a xlink:title=" ">
<path fill="none" stroke="#63b8ff" d="M73.5,-188.79C73.5,-179.36 73.5,-169.15 73.5,-162.16"/>
<polygon fill="#63b8ff" stroke="#63b8ff" points="70,-188.9 73.5,-198.9 77,-188.9 70,-188.9"/>
</a>
</g>
</g>
</g>
</svg>
