<?xml version="1.0" encoding="UTF-8" standalone="no"?>
<!DOCTYPE svg PUBLIC "-//W3C//DTD SVG 1.1//EN"
 "http://www.w3.org/Graphics/SVG/1.1/DTD/svg11.dtd">
<!-- Generated by graphviz version 2.43.0 (0)
 -->
<!-- Title: userver/utils/sliding_interval.hpp Pages: 1 -->
<svg width="441pt" height="214pt"
 viewBox="0.00 0.00 440.50 214.00" xmlns="http://www.w3.org/2000/svg" xmlns:xlink="http://www.w3.org/1999/xlink">
<g id="graph0" class="graph" transform="scale(1 1) rotate(0) translate(4 210)">
<title>userver/utils/sliding_interval.hpp</title>
<!-- Node1 -->
<g id="Node000001" class="node">
<title>Node1</title>
<g id="a_Node000001"><a xlink:title="Sliding interval of values that provides functions to compute average, min and max values from the la...">
<polygon fill="#999999" stroke="#666666" points="140.5,-206 27.5,-206 27.5,-176 140.5,-176 140.5,-206"/>
<text text-anchor="start" x="35.5" y="-194" font-family="Helvetica,sans-Serif" font-size="10.00">userver/utils/sliding</text>
<text text-anchor="middle" x="84" y="-183" font-family="Helvetica,sans-Serif" font-size="10.00">_interval.hpp</text>
</a>
</g>
</g>
<!-- Node2 -->
<g id="Node000002" class="node">
<title>Node2</title>
<g id="a_Node000002"><a xlink:title=" ">
<polygon fill="#e0e0e0" stroke="#999999" points="56,-134.5 0,-134.5 0,-115.5 56,-115.5 56,-134.5"/>
<text text-anchor="middle" x="28" y="-122.5" font-family="Helvetica,sans-Serif" font-size="10.00">numeric</text>
</a>
</g>
</g>
<!-- Node1&#45;&gt;Node2 -->
<g id="edge1_Node000001_Node000002" class="edge">
<title>Node1&#45;&gt;Node2</title>
<g id="a_edge1_Node000001_Node000002"><a xlink:title=" ">
<path fill="none" stroke="#63b8ff" d="M71.57,-175.8C62.93,-165.92 51.38,-152.72 42.34,-142.39"/>
<polygon fill="#63b8ff" stroke="#63b8ff" points="44.96,-140.07 35.74,-134.84 39.69,-144.67 44.96,-140.07"/>
</a>
</g>
</g>
<!-- Node3 -->
<g id="Node000003" class="node">
<title>Node3</title>
<g id="a_Node000003"><a xlink:href="../../d2/d54/assert_8hpp.html" target="_top" xlink:title="Assertion macros UASSERT, UASSERT_MSG, UINVARIANT.">
<polygon fill="white" stroke="#666666" points="134.5,-74 3.5,-74 3.5,-55 134.5,-55 134.5,-74"/>
<text text-anchor="middle" x="69" y="-62" font-family="Helvetica,sans-Serif" font-size="10.00">userver/utils/assert.hpp</text>
</a>
</g>
</g>
<!-- Node1&#45;&gt;Node3 -->
<g id="edge2_Node000001_Node000003" class="edge">
<title>Node1&#45;&gt;Node3</title>
<g id="a_edge2_Node000001_Node000003"><a xlink:title=" ">
<path fill="none" stroke="#63b8ff" d="M82.28,-175.72C79.56,-153.12 74.26,-109.12 71.24,-84.09"/>
<polygon fill="#63b8ff" stroke="#63b8ff" points="74.7,-83.58 70.03,-74.07 67.75,-84.42 74.7,-83.58"/>
</a>
</g>
</g>
<!-- Node5 -->
<g id="Node000005" class="node">
<title>Node5</title>
<g id="a_Node000005"><a xlink:href="../../d8/d4a/fixed__array_8hpp.html" target="_top" xlink:title="A fixed&#45;size array with the size determined at runtime.">
<polygon fill="white" stroke="#666666" points="268,-140 164,-140 164,-110 268,-110 268,-140"/>
<text text-anchor="start" x="172" y="-128" font-family="Helvetica,sans-Serif" font-size="10.00">userver/utils/fixed</text>
<text text-anchor="middle" x="216" y="-117" font-family="Helvetica,sans-Serif" font-size="10.00">_array.hpp</text>
</a>
</g>
</g>
<!-- Node1&#45;&gt;Node5 -->
<g id="edge4_Node000001_Node000005" class="edge">
<title>Node1&#45;&gt;Node5</title>
<g id="a_edge4_Node000001_Node000005"><a xlink:title=" ">
<path fill="none" stroke="#63b8ff" d="M112.97,-175.95C132.05,-166.7 157.25,-154.49 177.94,-144.45"/>
<polygon fill="#63b8ff" stroke="#63b8ff" points="179.63,-147.52 187.1,-140.01 176.57,-141.23 179.63,-147.52"/>
</a>
</g>
</g>
<!-- Node4 -->
<g id="Node000004" class="node">
<title>Node4</title>
<g id="a_Node000004"><a xlink:title=" ">
<polygon fill="#e0e0e0" stroke="#999999" points="105.5,-19 32.5,-19 32.5,0 105.5,0 105.5,-19"/>
<text text-anchor="middle" x="69" y="-7" font-family="Helvetica,sans-Serif" font-size="10.00">string_view</text>
</a>
</g>
</g>
<!-- Node3&#45;&gt;Node4 -->
<g id="edge3_Node000003_Node000004" class="edge">
<title>Node3&#45;&gt;Node4</title>
<g id="a_edge3_Node000003_Node000004"><a xlink:title=" ">
<path fill="none" stroke="#63b8ff" d="M69,-54.75C69,-47.8 69,-37.85 69,-29.13"/>
<polygon fill="#63b8ff" stroke="#63b8ff" points="72.5,-29.09 69,-19.09 65.5,-29.09 72.5,-29.09"/>
</a>
</g>
</g>
<!-- Node5&#45;&gt;Node3 -->
<g id="edge9_Node000005_Node000003" class="edge">
<title>Node5&#45;&gt;Node3</title>
<g id="a_edge9_Node000005_Node000003"><a xlink:title=" ">
<path fill="none" stroke="#63b8ff" d="M180.79,-109.99C156.26,-100.23 123.85,-87.33 100.24,-77.93"/>
<polygon fill="#63b8ff" stroke="#63b8ff" points="101.29,-74.58 90.71,-74.14 98.71,-81.09 101.29,-74.58"/>
</a>
</g>
</g>
<!-- Node6 -->
<g id="Node000006" class="node">
<title>Node6</title>
<g id="a_Node000006"><a xlink:title=" ">
<polygon fill="#e0e0e0" stroke="#999999" points="205.5,-74 152.5,-74 152.5,-55 205.5,-55 205.5,-74"/>
<text text-anchor="middle" x="179" y="-62" font-family="Helvetica,sans-Serif" font-size="10.00">cstddef</text>
</a>
</g>
</g>
<!-- Node5&#45;&gt;Node6 -->
<g id="edge5_Node000005_Node000006" class="edge">
<title>Node5&#45;&gt;Node6</title>
<g id="a_edge5_Node000005_Node000006"><a xlink:title=" ">
<path fill="none" stroke="#63b8ff" d="M207.04,-109.84C201.89,-101.69 195.38,-91.4 189.93,-82.78"/>
<polygon fill="#63b8ff" stroke="#63b8ff" points="192.85,-80.85 184.54,-74.27 186.93,-84.59 192.85,-80.85"/>
</a>
</g>
</g>
<!-- Node7 -->
<g id="Node000007" class="node">
<title>Node7</title>
<g id="a_Node000007"><a xlink:title=" ">
<polygon fill="#e0e0e0" stroke="#999999" points="282,-74 224,-74 224,-55 282,-55 282,-74"/>
<text text-anchor="middle" x="253" y="-62" font-family="Helvetica,sans-Serif" font-size="10.00">memory</text>
</a>
</g>
</g>
<!-- Node5&#45;&gt;Node7 -->
<g id="edge6_Node000005_Node000007" class="edge">
<title>Node5&#45;&gt;Node7</title>
<g id="a_edge6_Node000005_Node000007"><a xlink:title=" ">
<path fill="none" stroke="#63b8ff" d="M224.96,-109.84C230.11,-101.69 236.62,-91.4 242.07,-82.78"/>
<polygon fill="#63b8ff" stroke="#63b8ff" points="245.07,-84.59 247.46,-74.27 239.15,-80.85 245.07,-84.59"/>
</a>
</g>
</g>
<!-- Node8 -->
<g id="Node000008" class="node">
<title>Node8</title>
<g id="a_Node000008"><a xlink:title=" ">
<polygon fill="#e0e0e0" stroke="#999999" points="369.5,-74 300.5,-74 300.5,-55 369.5,-55 369.5,-74"/>
<text text-anchor="middle" x="335" y="-62" font-family="Helvetica,sans-Serif" font-size="10.00">type_traits</text>
</a>
</g>
</g>
<!-- Node5&#45;&gt;Node8 -->
<g id="edge7_Node000005_Node000008" class="edge">
<title>Node5&#45;&gt;Node8</title>
<g id="a_edge7_Node000005_Node000008"><a xlink:title=" ">
<path fill="none" stroke="#63b8ff" d="M244.5,-109.99C263.91,-100.45 289.43,-87.9 308.42,-78.57"/>
<polygon fill="#63b8ff" stroke="#63b8ff" points="310,-81.69 317.43,-74.14 306.91,-75.41 310,-81.69"/>
</a>
</g>
</g>
<!-- Node9 -->
<g id="Node000009" class="node">
<title>Node9</title>
<g id="a_Node000009"><a xlink:title=" ">
<polygon fill="#e0e0e0" stroke="#999999" points="432.5,-74 387.5,-74 387.5,-55 432.5,-55 432.5,-74"/>
<text text-anchor="middle" x="410" y="-62" font-family="Helvetica,sans-Serif" font-size="10.00">utility</text>
</a>
</g>
</g>
<!-- Node5&#45;&gt;Node9 -->
<g id="edge8_Node000005_Node000009" class="edge">
<title>Node5&#45;&gt;Node9</title>
<g id="a_edge8_Node000005_Node000009"><a xlink:title=" ">
<path fill="none" stroke="#63b8ff" d="M262.47,-109.99C298.07,-99.25 346.28,-84.71 377.75,-75.22"/>
<polygon fill="#63b8ff" stroke="#63b8ff" points="378.78,-78.57 387.34,-72.33 376.76,-71.87 378.78,-78.57"/>
</a>
</g>
</g>
</g>
</svg>
