<?xml version="1.0" encoding="UTF-8" standalone="no"?>
<!DOCTYPE svg PUBLIC "-//W3C//DTD SVG 1.1//EN"
 "http://www.w3.org/Graphics/SVG/1.1/DTD/svg11.dtd">
<!-- Generated by graphviz version 2.43.0 (0)
 -->
<!-- Title: userver/crypto/verifiers.hpp Pages: 1 -->
<svg width="1958pt" height="412pt"
 viewBox="0.00 0.00 1958.00 412.00" xmlns="http://www.w3.org/2000/svg" xmlns:xlink="http://www.w3.org/1999/xlink">
<g id="graph0" class="graph" transform="scale(1 1) rotate(0) translate(4 408)">
<title>userver/crypto/verifiers.hpp</title>
<!-- Node1 -->
<g id="Node000001" class="node">
<title>Node1</title>
<g id="a_Node000001"><a xlink:title="Digital signature verifiers.">
<polygon fill="#999999" stroke="#666666" points="431.5,-404 280.5,-404 280.5,-385 431.5,-385 431.5,-404"/>
<text text-anchor="middle" x="356" y="-392" font-family="Helvetica,sans-Serif" font-size="10.00">userver/crypto/verifiers.hpp</text>
</a>
</g>
</g>
<!-- Node2 -->
<g id="Node000002" class="node">
<title>Node2</title>
<g id="a_Node000002"><a xlink:title=" ">
<polygon fill="#e0e0e0" stroke="#999999" points="1586.5,-277.5 1503.5,-277.5 1503.5,-258.5 1586.5,-258.5 1586.5,-277.5"/>
<text text-anchor="middle" x="1545" y="-265.5" font-family="Helvetica,sans-Serif" font-size="10.00">initializer_list</text>
</a>
</g>
</g>
<!-- Node1&#45;&gt;Node2 -->
<g id="edge1_Node000001_Node000002" class="edge">
<title>Node1&#45;&gt;Node2</title>
<g id="a_edge1_Node000001_Node000002"><a xlink:title=" ">
<path fill="none" stroke="#63b8ff" d="M431.73,-385.57C654.63,-362.23 1304.53,-294.18 1493.13,-274.43"/>
<polygon fill="#63b8ff" stroke="#63b8ff" points="1493.74,-277.89 1503.32,-273.36 1493.01,-270.92 1493.74,-277.89"/>
</a>
</g>
</g>
<!-- Node3 -->
<g id="Node000003" class="node">
<title>Node3</title>
<g id="a_Node000003"><a xlink:title=" ">
<polygon fill="#e0e0e0" stroke="#999999" points="402,-145.5 344,-145.5 344,-126.5 402,-126.5 402,-145.5"/>
<text text-anchor="middle" x="373" y="-133.5" font-family="Helvetica,sans-Serif" font-size="10.00">memory</text>
</a>
</g>
</g>
<!-- Node1&#45;&gt;Node3 -->
<g id="edge2_Node000001_Node000003" class="edge">
<title>Node1&#45;&gt;Node3</title>
<g id="a_edge2_Node000001_Node000003"><a xlink:title=" ">
<path fill="none" stroke="#63b8ff" d="M379.78,-384.92C395.43,-377.89 414.67,-366.25 424,-349 442.42,-314.93 398.82,-199.91 380.57,-155.09"/>
<polygon fill="#63b8ff" stroke="#63b8ff" points="383.76,-153.65 376.71,-145.74 377.29,-156.32 383.76,-153.65"/>
</a>
</g>
</g>
<!-- Node4 -->
<g id="Node000004" class="node">
<title>Node4</title>
<g id="a_Node000004"><a xlink:title=" ">
<polygon fill="#e0e0e0" stroke="#999999" points="44,-79.5 0,-79.5 0,-60.5 44,-60.5 44,-79.5"/>
<text text-anchor="middle" x="22" y="-67.5" font-family="Helvetica,sans-Serif" font-size="10.00">string</text>
</a>
</g>
</g>
<!-- Node1&#45;&gt;Node4 -->
<g id="edge3_Node000001_Node000004" class="edge">
<title>Node1&#45;&gt;Node4</title>
<g id="a_edge3_Node000001_Node000004"><a xlink:title=" ">
<path fill="none" stroke="#63b8ff" d="M280.24,-389.32C205.24,-383.91 96.74,-372.27 62,-349 27.55,-325.92 14,-310.46 14,-269 14,-269 14,-269 14,-201 14,-161.19 17.78,-114.66 20.15,-89.48"/>
<polygon fill="#63b8ff" stroke="#63b8ff" points="23.63,-89.8 21.11,-79.51 16.66,-89.12 23.63,-89.8"/>
</a>
</g>
</g>
<!-- Node5 -->
<g id="Node000005" class="node">
<title>Node5</title>
<g id="a_Node000005"><a xlink:title=" ">
<polygon fill="#e0e0e0" stroke="#999999" points="325.5,-277.5 252.5,-277.5 252.5,-258.5 325.5,-258.5 325.5,-277.5"/>
<text text-anchor="middle" x="289" y="-265.5" font-family="Helvetica,sans-Serif" font-size="10.00">string_view</text>
</a>
</g>
</g>
<!-- Node1&#45;&gt;Node5 -->
<g id="edge4_Node000001_Node000005" class="edge">
<title>Node1&#45;&gt;Node5</title>
<g id="a_edge4_Node000001_Node000005"><a xlink:title=" ">
<path fill="none" stroke="#63b8ff" d="M331.53,-384.86C315.73,-377.85 296.41,-366.27 287,-349 276.64,-329.99 279.63,-304.47 283.56,-287.42"/>
<polygon fill="#63b8ff" stroke="#63b8ff" points="286.99,-288.15 286.15,-277.59 280.22,-286.37 286.99,-288.15"/>
</a>
</g>
</g>
<!-- Node6 -->
<g id="Node000006" class="node">
<title>Node6</title>
<g id="a_Node000006"><a xlink:href="../../d0/df9/basic__types_8hpp.html" target="_top" xlink:title="Common types for crypto module.">
<polygon fill="white" stroke="#666666" points="196,-283 80,-283 80,-253 196,-253 196,-283"/>
<text text-anchor="start" x="88" y="-271" font-family="Helvetica,sans-Serif" font-size="10.00">userver/crypto/basic</text>
<text text-anchor="middle" x="138" y="-260" font-family="Helvetica,sans-Serif" font-size="10.00">_types.hpp</text>
</a>
</g>
</g>
<!-- Node1&#45;&gt;Node6 -->
<g id="edge5_Node000001_Node000006" class="edge">
<title>Node1&#45;&gt;Node6</title>
<g id="a_edge5_Node000001_Node000006"><a xlink:title=" ">
<path fill="none" stroke="#63b8ff" d="M280.31,-392.4C205.16,-389.51 97.46,-379.91 71,-349 53.51,-328.56 78.85,-304.92 103.22,-288.66"/>
<polygon fill="#63b8ff" stroke="#63b8ff" points="105.18,-291.57 111.73,-283.24 101.41,-285.66 105.18,-291.57"/>
</a>
</g>
</g>
<!-- Node7 -->
<g id="Node000007" class="node">
<title>Node7</title>
<g id="a_Node000007"><a xlink:href="../../df/db8/universal_2include_2userver_2crypto_2exception_8hpp.html" target="_top" xlink:title="Exception classes for crypto module.">
<polygon fill="white" stroke="#666666" points="578.5,-211.5 419.5,-211.5 419.5,-192.5 578.5,-192.5 578.5,-211.5"/>
<text text-anchor="middle" x="499" y="-199.5" font-family="Helvetica,sans-Serif" font-size="10.00">userver/crypto/exception.hpp</text>
</a>
</g>
</g>
<!-- Node1&#45;&gt;Node7 -->
<g id="edge28_Node000001_Node000007" class="edge">
<title>Node1&#45;&gt;Node7</title>
<g id="a_edge28_Node000001_Node000007"><a xlink:title=" ">
<path fill="none" stroke="#63b8ff" d="M395.83,-384.93C417.05,-378.42 442.01,-367.36 458,-349 490.05,-312.21 497.18,-252.17 498.68,-221.83"/>
<polygon fill="#63b8ff" stroke="#63b8ff" points="502.18,-221.87 499.02,-211.76 495.18,-221.64 502.18,-221.87"/>
</a>
</g>
</g>
<!-- Node18 -->
<g id="Node000018" class="node">
<title>Node18</title>
<g id="a_Node000018"><a xlink:href="../../d1/dab/certificate_8hpp.html" target="_top" xlink:title=" ">
<polygon fill="white" stroke="#666666" points="240,-343.5 80,-343.5 80,-324.5 240,-324.5 240,-343.5"/>
<text text-anchor="middle" x="160" y="-331.5" font-family="Helvetica,sans-Serif" font-size="10.00">userver/crypto/certificate.hpp</text>
</a>
</g>
</g>
<!-- Node1&#45;&gt;Node18 -->
<g id="edge22_Node000001_Node000018" class="edge">
<title>Node1&#45;&gt;Node18</title>
<g id="a_edge22_Node000001_Node000018"><a xlink:title=" ">
<path fill="none" stroke="#63b8ff" d="M327.5,-384.99C293.39,-374.81 236.13,-357.72 198.21,-346.4"/>
<polygon fill="#63b8ff" stroke="#63b8ff" points="199.12,-343.02 188.53,-343.52 197.12,-349.73 199.12,-343.02"/>
</a>
</g>
</g>
<!-- Node20 -->
<g id="Node000020" class="node">
<title>Node20</title>
<g id="a_Node000020"><a xlink:href="../../dc/d0a/public__key_8hpp.html" target="_top" xlink:title=" ">
<polygon fill="white" stroke="#666666" points="415.5,-349 296.5,-349 296.5,-319 415.5,-319 415.5,-349"/>
<text text-anchor="start" x="304.5" y="-337" font-family="Helvetica,sans-Serif" font-size="10.00">userver/crypto/public</text>
<text text-anchor="middle" x="356" y="-326" font-family="Helvetica,sans-Serif" font-size="10.00">_key.hpp</text>
</a>
</g>
</g>
<!-- Node1&#45;&gt;Node20 -->
<g id="edge29_Node000001_Node000020" class="edge">
<title>Node1&#45;&gt;Node20</title>
<g id="a_edge29_Node000001_Node000020"><a xlink:title=" ">
<path fill="none" stroke="#63b8ff" d="M356,-384.87C356,-378.11 356,-368.35 356,-359.26"/>
<polygon fill="#63b8ff" stroke="#63b8ff" points="359.5,-359.11 356,-349.11 352.5,-359.11 359.5,-359.11"/>
</a>
</g>
</g>
<!-- Node36 -->
<g id="Node000036" class="node">
<title>Node36</title>
<g id="a_Node000036"><a xlink:href="../../db/db5/flags_8hpp.html" target="_top" xlink:title="Types that provide flags interface to enums.">
<polygon fill="white" stroke="#666666" points="1770.5,-343.5 1645.5,-343.5 1645.5,-324.5 1770.5,-324.5 1770.5,-343.5"/>
<text text-anchor="middle" x="1708" y="-331.5" font-family="Helvetica,sans-Serif" font-size="10.00">userver/utils/flags.hpp</text>
</a>
</g>
</g>
<!-- Node1&#45;&gt;Node36 -->
<g id="edge60_Node000001_Node000036" class="edge">
<title>Node1&#45;&gt;Node36</title>
<g id="a_edge60_Node000001_Node000036"><a xlink:title=" ">
<path fill="none" stroke="#63b8ff" d="M431.59,-390.23C669.54,-379.93 1401.25,-348.27 1635.24,-338.15"/>
<polygon fill="#63b8ff" stroke="#63b8ff" points="1635.5,-341.64 1645.34,-337.71 1635.2,-334.65 1635.5,-341.64"/>
</a>
</g>
</g>
<!-- Node6&#45;&gt;Node4 -->
<g id="edge6_Node000006_Node000004" class="edge">
<title>Node6&#45;&gt;Node4</title>
<g id="a_edge6_Node000006_Node000004"><a xlink:title=" ">
<path fill="none" stroke="#63b8ff" d="M132.41,-252.64C121.59,-225.67 96.19,-166.09 66,-121 57.84,-108.81 46.97,-96.43 38.07,-87.03"/>
<polygon fill="#63b8ff" stroke="#63b8ff" points="40.35,-84.36 30.88,-79.63 35.33,-89.24 40.35,-84.36"/>
</a>
</g>
</g>
<!-- Node6&#45;&gt;Node7 -->
<g id="edge7_Node000006_Node000007" class="edge">
<title>Node6&#45;&gt;Node7</title>
<g id="a_edge7_Node000006_Node000007"><a xlink:title=" ">
<path fill="none" stroke="#63b8ff" d="M196,-256.72C263.3,-244.79 373.62,-225.23 440.94,-213.29"/>
<polygon fill="#63b8ff" stroke="#63b8ff" points="441.72,-216.71 450.96,-211.52 440.5,-209.82 441.72,-216.71"/>
</a>
</g>
</g>
<!-- Node7&#45;&gt;Node3 -->
<g id="edge8_Node000007_Node000003" class="edge">
<title>Node7&#45;&gt;Node3</title>
<g id="a_edge8_Node000007_Node000003"><a xlink:title=" ">
<path fill="none" stroke="#63b8ff" d="M482.01,-192.37C460.78,-181.59 424.22,-163.02 399.35,-150.38"/>
<polygon fill="#63b8ff" stroke="#63b8ff" points="400.63,-147.11 390.13,-145.7 397.46,-153.35 400.63,-147.11"/>
</a>
</g>
</g>
<!-- Node8 -->
<g id="Node000008" class="node">
<title>Node8</title>
<g id="a_Node000008"><a xlink:href="../../da/de0/traceful__exception_8hpp.html" target="_top" xlink:title="Exception that remembers the backtrace at the point of its construction.">
<polygon fill="white" stroke="#666666" points="538,-151 420,-151 420,-121 538,-121 538,-151"/>
<text text-anchor="start" x="428" y="-139" font-family="Helvetica,sans-Serif" font-size="10.00">userver/utils/traceful</text>
<text text-anchor="middle" x="479" y="-128" font-family="Helvetica,sans-Serif" font-size="10.00">_exception.hpp</text>
</a>
</g>
</g>
<!-- Node7&#45;&gt;Node8 -->
<g id="edge9_Node000007_Node000008" class="edge">
<title>Node7&#45;&gt;Node8</title>
<g id="a_edge9_Node000007_Node000008"><a xlink:title=" ">
<path fill="none" stroke="#63b8ff" d="M496.3,-192.37C493.79,-184.32 489.92,-171.94 486.48,-160.93"/>
<polygon fill="#63b8ff" stroke="#63b8ff" points="489.81,-159.86 483.49,-151.36 483.13,-161.95 489.81,-159.86"/>
</a>
</g>
</g>
<!-- Node8&#45;&gt;Node4 -->
<g id="edge11_Node000008_Node000004" class="edge">
<title>Node8&#45;&gt;Node4</title>
<g id="a_edge11_Node000008_Node000004"><a xlink:title=" ">
<path fill="none" stroke="#63b8ff" d="M419.73,-122.42C416.78,-121.92 413.86,-121.44 411,-121 252.92,-96.84 207.45,-126.45 53,-85 51.31,-84.55 49.6,-84.01 47.9,-83.42"/>
<polygon fill="#63b8ff" stroke="#63b8ff" points="48.95,-80.07 38.37,-79.58 46.33,-86.56 48.95,-80.07"/>
</a>
</g>
</g>
<!-- Node9 -->
<g id="Node000009" class="node">
<title>Node9</title>
<g id="a_Node000009"><a xlink:title=" ">
<polygon fill="#e0e0e0" stroke="#999999" points="127.5,-79.5 62.5,-79.5 62.5,-60.5 127.5,-60.5 127.5,-79.5"/>
<text text-anchor="middle" x="95" y="-67.5" font-family="Helvetica,sans-Serif" font-size="10.00">exception</text>
</a>
</g>
</g>
<!-- Node8&#45;&gt;Node9 -->
<g id="edge10_Node000008_Node000009" class="edge">
<title>Node8&#45;&gt;Node9</title>
<g id="a_edge10_Node000008_Node000009"><a xlink:title=" ">
<path fill="none" stroke="#63b8ff" d="M419.71,-122.53C416.77,-121.99 413.85,-121.48 411,-121 289.88,-100.6 256.7,-112.55 137,-85 133.95,-84.3 130.81,-83.47 127.69,-82.56"/>
<polygon fill="#63b8ff" stroke="#63b8ff" points="128.47,-79.14 117.88,-79.51 126.39,-85.82 128.47,-79.14"/>
</a>
</g>
</g>
<!-- Node10 -->
<g id="Node000010" class="node">
<title>Node10</title>
<g id="a_Node000010"><a xlink:title=" ">
<polygon fill="#e0e0e0" stroke="#999999" points="1303.5,-19 1234.5,-19 1234.5,0 1303.5,0 1303.5,-19"/>
<text text-anchor="middle" x="1269" y="-7" font-family="Helvetica,sans-Serif" font-size="10.00">type_traits</text>
</a>
</g>
</g>
<!-- Node8&#45;&gt;Node10 -->
<g id="edge12_Node000008_Node000010" class="edge">
<title>Node8&#45;&gt;Node10</title>
<g id="a_edge12_Node000008_Node000010"><a xlink:title=" ">
<path fill="none" stroke="#63b8ff" d="M518.05,-120.98C541.12,-112.02 570.52,-99.39 595,-85 613.85,-73.92 613.56,-62.76 634,-55 742.16,-13.94 1098.12,-10.28 1224.23,-10.3"/>
<polygon fill="#63b8ff" stroke="#63b8ff" points="1224.3,-13.8 1234.31,-10.31 1224.31,-6.8 1224.3,-13.8"/>
</a>
</g>
</g>
<!-- Node11 -->
<g id="Node000011" class="node">
<title>Node11</title>
<g id="a_Node000011"><a xlink:title=" ">
<polygon fill="#e0e0e0" stroke="#999999" points="721.5,-79.5 642.5,-79.5 642.5,-60.5 721.5,-60.5 721.5,-79.5"/>
<text text-anchor="middle" x="682" y="-67.5" font-family="Helvetica,sans-Serif" font-size="10.00">fmt/format.h</text>
</a>
</g>
</g>
<!-- Node8&#45;&gt;Node11 -->
<g id="edge13_Node000008_Node000011" class="edge">
<title>Node8&#45;&gt;Node11</title>
<g id="a_edge13_Node000008_Node000011"><a xlink:title=" ">
<path fill="none" stroke="#63b8ff" d="M523.55,-120.95C560.09,-109.43 611.19,-93.32 645.38,-82.54"/>
<polygon fill="#63b8ff" stroke="#63b8ff" points="646.5,-85.86 654.98,-79.52 644.39,-79.19 646.5,-85.86"/>
</a>
</g>
</g>
<!-- Node12 -->
<g id="Node000012" class="node">
<title>Node12</title>
<g id="a_Node000012"><a xlink:title=" ">
<polygon fill="#e0e0e0" stroke="#999999" points="468,-85 316,-85 316,-55 468,-55 468,-85"/>
<text text-anchor="start" x="324" y="-73" font-family="Helvetica,sans-Serif" font-size="10.00">boost/stacktrace/stacktrace</text>
<text text-anchor="middle" x="392" y="-62" font-family="Helvetica,sans-Serif" font-size="10.00">_fwd.hpp</text>
</a>
</g>
</g>
<!-- Node8&#45;&gt;Node12 -->
<g id="edge14_Node000008_Node000012" class="edge">
<title>Node8&#45;&gt;Node12</title>
<g id="a_edge14_Node000008_Node000012"><a xlink:title=" ">
<path fill="none" stroke="#63b8ff" d="M459.69,-120.8C447.87,-112.1 432.54,-100.82 419.46,-91.2"/>
<polygon fill="#63b8ff" stroke="#63b8ff" points="421.38,-88.27 411.25,-85.16 417.24,-93.91 421.38,-88.27"/>
</a>
</g>
</g>
<!-- Node13 -->
<g id="Node000013" class="node">
<title>Node13</title>
<g id="a_Node000013"><a xlink:href="../../d2/d84/select_8hpp.html" target="_top" xlink:title="Utilities for selection of platform specific values.">
<polygon fill="white" stroke="#666666" points="298,-79.5 146,-79.5 146,-60.5 298,-60.5 298,-79.5"/>
<text text-anchor="middle" x="222" y="-67.5" font-family="Helvetica,sans-Serif" font-size="10.00">userver/compiler/select.hpp</text>
</a>
</g>
</g>
<!-- Node8&#45;&gt;Node13 -->
<g id="edge15_Node000008_Node000013" class="edge">
<title>Node8&#45;&gt;Node13</title>
<g id="a_edge15_Node000008_Node000013"><a xlink:title=" ">
<path fill="none" stroke="#63b8ff" d="M422.6,-120.95C375.54,-109.24 309.42,-92.77 266.15,-81.99"/>
<polygon fill="#63b8ff" stroke="#63b8ff" points="266.75,-78.54 256.2,-79.52 265.06,-85.33 266.75,-78.54"/>
</a>
</g>
</g>
<!-- Node15 -->
<g id="Node000015" class="node">
<title>Node15</title>
<g id="a_Node000015"><a xlink:href="../../d5/d02/fast__pimpl_8hpp.html" target="_top" xlink:title="Implements pimpl idiom without dynamic memory allocation.">
<polygon fill="white" stroke="#666666" points="585.5,-85 486.5,-85 486.5,-55 585.5,-55 585.5,-85"/>
<text text-anchor="start" x="494.5" y="-73" font-family="Helvetica,sans-Serif" font-size="10.00">userver/utils/fast</text>
<text text-anchor="middle" x="536" y="-62" font-family="Helvetica,sans-Serif" font-size="10.00">_pimpl.hpp</text>
</a>
</g>
</g>
<!-- Node8&#45;&gt;Node15 -->
<g id="edge17_Node000008_Node000015" class="edge">
<title>Node8&#45;&gt;Node15</title>
<g id="a_edge17_Node000008_Node000015"><a xlink:title=" ">
<path fill="none" stroke="#63b8ff" d="M491.65,-120.8C498.96,-112.59 508.3,-102.1 516.52,-92.87"/>
<polygon fill="#63b8ff" stroke="#63b8ff" points="519.35,-94.96 523.39,-85.16 514.12,-90.3 519.35,-94.96"/>
</a>
</g>
</g>
<!-- Node14 -->
<g id="Node000014" class="node">
<title>Node14</title>
<g id="a_Node000014"><a xlink:title=" ">
<polygon fill="#e0e0e0" stroke="#999999" points="374.5,-19 321.5,-19 321.5,0 374.5,0 374.5,-19"/>
<text text-anchor="middle" x="348" y="-7" font-family="Helvetica,sans-Serif" font-size="10.00">cstddef</text>
</a>
</g>
</g>
<!-- Node13&#45;&gt;Node14 -->
<g id="edge16_Node000013_Node000014" class="edge">
<title>Node13&#45;&gt;Node14</title>
<g id="a_edge16_Node000013_Node000014"><a xlink:title=" ">
<path fill="none" stroke="#63b8ff" d="M240.32,-60.49C261.41,-50.7 296.26,-34.52 320.58,-23.23"/>
<polygon fill="#63b8ff" stroke="#63b8ff" points="322.06,-26.4 329.66,-19.02 319.11,-20.05 322.06,-26.4"/>
</a>
</g>
</g>
<!-- Node15&#45;&gt;Node10 -->
<g id="edge20_Node000015_Node000010" class="edge">
<title>Node15&#45;&gt;Node10</title>
<g id="a_edge20_Node000015_Node000010"><a xlink:title=" ">
<path fill="none" stroke="#63b8ff" d="M585.83,-57.35C590.6,-56.46 595.38,-55.65 600,-55 833.39,-21.9 1116.16,-13.32 1224.15,-11.18"/>
<polygon fill="#63b8ff" stroke="#63b8ff" points="1224.41,-14.68 1234.34,-10.99 1224.28,-7.68 1224.41,-14.68"/>
</a>
</g>
</g>
<!-- Node15&#45;&gt;Node14 -->
<g id="edge18_Node000015_Node000014" class="edge">
<title>Node15&#45;&gt;Node14</title>
<g id="a_edge18_Node000015_Node000014"><a xlink:title=" ">
<path fill="none" stroke="#63b8ff" d="M490.97,-54.99C458.37,-44.84 414.87,-31.31 384.45,-21.84"/>
<polygon fill="#63b8ff" stroke="#63b8ff" points="385.26,-18.43 374.67,-18.8 383.18,-25.11 385.26,-18.43"/>
</a>
</g>
</g>
<!-- Node16 -->
<g id="Node000016" class="node">
<title>Node16</title>
<g id="a_Node000016"><a xlink:title=" ">
<polygon fill="#e0e0e0" stroke="#999999" points="554.5,-19 517.5,-19 517.5,0 554.5,0 554.5,-19"/>
<text text-anchor="middle" x="536" y="-7" font-family="Helvetica,sans-Serif" font-size="10.00">new</text>
</a>
</g>
</g>
<!-- Node15&#45;&gt;Node16 -->
<g id="edge19_Node000015_Node000016" class="edge">
<title>Node15&#45;&gt;Node16</title>
<g id="a_edge19_Node000015_Node000016"><a xlink:title=" ">
<path fill="none" stroke="#63b8ff" d="M536,-54.84C536,-47.21 536,-37.7 536,-29.45"/>
<polygon fill="#63b8ff" stroke="#63b8ff" points="539.5,-29.27 536,-19.27 532.5,-29.27 539.5,-29.27"/>
</a>
</g>
</g>
<!-- Node17 -->
<g id="Node000017" class="node">
<title>Node17</title>
<g id="a_Node000017"><a xlink:title=" ">
<polygon fill="#e0e0e0" stroke="#999999" points="695.5,-19 650.5,-19 650.5,0 695.5,0 695.5,-19"/>
<text text-anchor="middle" x="673" y="-7" font-family="Helvetica,sans-Serif" font-size="10.00">utility</text>
</a>
</g>
</g>
<!-- Node15&#45;&gt;Node17 -->
<g id="edge21_Node000015_Node000017" class="edge">
<title>Node15&#45;&gt;Node17</title>
<g id="a_edge21_Node000015_Node000017"><a xlink:title=" ">
<path fill="none" stroke="#63b8ff" d="M568.81,-54.99C591.47,-45.31 621.35,-32.56 643.3,-23.18"/>
<polygon fill="#63b8ff" stroke="#63b8ff" points="644.95,-26.29 652.77,-19.14 642.2,-19.85 644.95,-26.29"/>
</a>
</g>
</g>
<!-- Node18&#45;&gt;Node3 -->
<g id="edge23_Node000018_Node000003" class="edge">
<title>Node18&#45;&gt;Node3</title>
<g id="a_edge23_Node000018_Node000003"><a xlink:title=" ">
<path fill="none" stroke="#63b8ff" d="M168.62,-324.48C183.58,-309.74 215.41,-278.59 243,-253 282.65,-216.22 330.33,-174.24 355.48,-152.26"/>
<polygon fill="#63b8ff" stroke="#63b8ff" points="357.87,-154.82 363.1,-145.6 353.26,-149.54 357.87,-154.82"/>
</a>
</g>
</g>
<!-- Node18&#45;&gt;Node4 -->
<g id="edge25_Node000018_Node000004" class="edge">
<title>Node18&#45;&gt;Node4</title>
<g id="a_edge25_Node000018_Node000004"><a xlink:title=" ">
<path fill="none" stroke="#63b8ff" d="M132.59,-324.39C112.55,-316.69 86.3,-303.42 71,-283 47.93,-252.2 30.54,-136.15 24.41,-90.05"/>
<polygon fill="#63b8ff" stroke="#63b8ff" points="27.85,-89.4 23.09,-79.93 20.91,-90.3 27.85,-89.4"/>
</a>
</g>
</g>
<!-- Node18&#45;&gt;Node5 -->
<g id="edge26_Node000018_Node000005" class="edge">
<title>Node18&#45;&gt;Node5</title>
<g id="a_edge26_Node000018_Node000005"><a xlink:title=" ">
<path fill="none" stroke="#63b8ff" d="M177.4,-324.37C199.23,-313.54 236.89,-294.85 262.36,-282.22"/>
<polygon fill="#63b8ff" stroke="#63b8ff" points="264.06,-285.28 271.47,-277.7 260.95,-279.01 264.06,-285.28"/>
</a>
</g>
</g>
<!-- Node18&#45;&gt;Node6 -->
<g id="edge27_Node000018_Node000006" class="edge">
<title>Node18&#45;&gt;Node6</title>
<g id="a_edge27_Node000018_Node000006"><a xlink:title=" ">
<path fill="none" stroke="#63b8ff" d="M157.03,-324.37C154.27,-316.32 150.01,-303.94 146.23,-292.93"/>
<polygon fill="#63b8ff" stroke="#63b8ff" points="149.5,-291.68 142.94,-283.36 142.88,-293.96 149.5,-291.68"/>
</a>
</g>
</g>
<!-- Node19 -->
<g id="Node000019" class="node">
<title>Node19</title>
<g id="a_Node000019"><a xlink:title=" ">
<polygon fill="#e0e0e0" stroke="#999999" points="766,-145.5 710,-145.5 710,-126.5 766,-126.5 766,-145.5"/>
<text text-anchor="middle" x="738" y="-133.5" font-family="Helvetica,sans-Serif" font-size="10.00">optional</text>
</a>
</g>
</g>
<!-- Node18&#45;&gt;Node19 -->
<g id="edge24_Node000018_Node000019" class="edge">
<title>Node18&#45;&gt;Node19</title>
<g id="a_edge24_Node000018_Node000019"><a xlink:title=" ">
<path fill="none" stroke="#63b8ff" d="M203.75,-324.48C282.24,-308.45 451.43,-270.56 587,-217 634.6,-198.2 686.61,-168.41 715.48,-150.98"/>
<polygon fill="#63b8ff" stroke="#63b8ff" points="717.62,-153.77 724.34,-145.58 713.98,-147.79 717.62,-153.77"/>
</a>
</g>
</g>
<!-- Node20&#45;&gt;Node3 -->
<g id="edge30_Node000020_Node000003" class="edge">
<title>Node20&#45;&gt;Node3</title>
<g id="a_edge30_Node000020_Node000003"><a xlink:title=" ">
<path fill="none" stroke="#63b8ff" d="M357.22,-318.9C360.23,-284.23 367.99,-194.79 371.38,-155.72"/>
<polygon fill="#63b8ff" stroke="#63b8ff" points="374.87,-155.99 372.24,-145.73 367.89,-155.39 374.87,-155.99"/>
</a>
</g>
</g>
<!-- Node20&#45;&gt;Node5 -->
<g id="edge31_Node000020_Node000005" class="edge">
<title>Node20&#45;&gt;Node5</title>
<g id="a_edge31_Node000020_Node000005"><a xlink:title=" ">
<path fill="none" stroke="#63b8ff" d="M341.13,-318.8C330.58,-308.72 316.42,-295.19 305.52,-284.78"/>
<polygon fill="#63b8ff" stroke="#63b8ff" points="307.91,-282.22 298.26,-277.84 303.07,-287.28 307.91,-282.22"/>
</a>
</g>
</g>
<!-- Node20&#45;&gt;Node6 -->
<g id="edge32_Node000020_Node000006" class="edge">
<title>Node20&#45;&gt;Node6</title>
<g id="a_edge32_Node000020_Node000006"><a xlink:title=" ">
<path fill="none" stroke="#63b8ff" d="M308.16,-318.95C274.94,-309.2 230.5,-296.16 195.37,-285.84"/>
<polygon fill="#63b8ff" stroke="#63b8ff" points="196.31,-282.47 185.73,-283.01 194.34,-289.19 196.31,-282.47"/>
</a>
</g>
</g>
<!-- Node21 -->
<g id="Node000021" class="node">
<title>Node21</title>
<g id="a_Node000021"><a xlink:href="../../d5/dfe/universal_2include_2userver_2utils_2strong__typedef_8hpp.html" target="_top" xlink:title="Strong typedef for a type T.">
<polygon fill="white" stroke="#666666" points="1051.5,-283 940.5,-283 940.5,-253 1051.5,-253 1051.5,-283"/>
<text text-anchor="start" x="948.5" y="-271" font-family="Helvetica,sans-Serif" font-size="10.00">userver/utils/strong</text>
<text text-anchor="middle" x="996" y="-260" font-family="Helvetica,sans-Serif" font-size="10.00">_typedef.hpp</text>
</a>
</g>
</g>
<!-- Node20&#45;&gt;Node21 -->
<g id="edge33_Node000020_Node000021" class="edge">
<title>Node20&#45;&gt;Node21</title>
<g id="a_edge33_Node000020_Node000021"><a xlink:title=" ">
<path fill="none" stroke="#63b8ff" d="M415.63,-327.04C535.61,-315.04 805.33,-288.07 930.23,-275.58"/>
<polygon fill="#63b8ff" stroke="#63b8ff" points="930.81,-279.04 940.41,-274.56 930.11,-272.07 930.81,-279.04"/>
</a>
</g>
</g>
<!-- Node21&#45;&gt;Node10 -->
<g id="edge36_Node000021_Node000010" class="edge">
<title>Node21&#45;&gt;Node10</title>
<g id="a_edge36_Node000021_Node000010"><a xlink:title=" ">
<path fill="none" stroke="#63b8ff" d="M1051.73,-265.3C1172.15,-261.07 1448.02,-248.04 1476,-217 1504.56,-185.31 1497.52,-157.84 1476,-121 1441.5,-61.93 1363.19,-32.81 1313.39,-19.76"/>
<polygon fill="#63b8ff" stroke="#63b8ff" points="1314.08,-16.33 1303.53,-17.29 1312.38,-23.12 1314.08,-16.33"/>
</a>
</g>
</g>
<!-- Node21&#45;&gt;Node11 -->
<g id="edge38_Node000021_Node000011" class="edge">
<title>Node21&#45;&gt;Node11</title>
<g id="a_edge38_Node000021_Node000011"><a xlink:title=" ">
<path fill="none" stroke="#63b8ff" d="M940.32,-265.15C864.4,-261.41 734.14,-250.2 702,-217 668.72,-182.62 673.39,-120.55 678.33,-89.6"/>
<polygon fill="#63b8ff" stroke="#63b8ff" points="681.78,-90.17 680.09,-79.71 674.89,-88.94 681.78,-90.17"/>
</a>
</g>
</g>
<!-- Node21&#45;&gt;Node17 -->
<g id="edge37_Node000021_Node000017" class="edge">
<title>Node21&#45;&gt;Node17</title>
<g id="a_edge37_Node000021_Node000017"><a xlink:title=" ">
<path fill="none" stroke="#63b8ff" d="M940.39,-265.7C863.88,-262.61 732.16,-252.18 702,-217 674.23,-184.61 686.47,-161.12 701,-121 708.09,-101.42 723.91,-104.58 731,-85 735.54,-72.46 736.9,-66.96 731,-55 724.51,-41.85 712.07,-31.5 700.36,-24.11"/>
<polygon fill="#63b8ff" stroke="#63b8ff" points="702.07,-21.05 691.67,-19.03 698.54,-27.1 702.07,-21.05"/>
</a>
</g>
</g>
<!-- Node22 -->
<g id="Node000022" class="node">
<title>Node22</title>
<g id="a_Node000022"><a xlink:title=" ">
<polygon fill="#e0e0e0" stroke="#999999" points="920.5,-211.5 855.5,-211.5 855.5,-192.5 920.5,-192.5 920.5,-211.5"/>
<text text-anchor="middle" x="888" y="-199.5" font-family="Helvetica,sans-Serif" font-size="10.00">functional</text>
</a>
</g>
</g>
<!-- Node21&#45;&gt;Node22 -->
<g id="edge34_Node000021_Node000022" class="edge">
<title>Node21&#45;&gt;Node22</title>
<g id="a_edge34_Node000021_Node000022"><a xlink:title=" ">
<path fill="none" stroke="#63b8ff" d="M972.3,-252.95C954.11,-242.18 929.14,-227.38 911.1,-216.69"/>
<polygon fill="#63b8ff" stroke="#63b8ff" points="912.76,-213.6 902.37,-211.52 909.19,-219.63 912.76,-213.6"/>
</a>
</g>
</g>
<!-- Node23 -->
<g id="Node000023" class="node">
<title>Node23</title>
<g id="a_Node000023"><a xlink:title=" ">
<polygon fill="#e0e0e0" stroke="#999999" points="1007,-145.5 959,-145.5 959,-126.5 1007,-126.5 1007,-145.5"/>
<text text-anchor="middle" x="983" y="-133.5" font-family="Helvetica,sans-Serif" font-size="10.00">iosfwd</text>
</a>
</g>
</g>
<!-- Node21&#45;&gt;Node23 -->
<g id="edge35_Node000021_Node000023" class="edge">
<title>Node21&#45;&gt;Node23</title>
<g id="a_edge35_Node000021_Node000023"><a xlink:title=" ">
<path fill="none" stroke="#63b8ff" d="M985.56,-252.97C979.11,-243.39 971.42,-230.09 968,-217 962.56,-196.14 968.93,-171.73 974.97,-155.41"/>
<polygon fill="#63b8ff" stroke="#63b8ff" points="978.28,-156.55 978.76,-145.97 971.78,-153.94 978.28,-156.55"/>
</a>
</g>
</g>
<!-- Node24 -->
<g id="Node000024" class="node">
<title>Node24</title>
<g id="a_Node000024"><a xlink:href="../../d3/d6c/fmt__compat_8hpp_source.html" target="_top" xlink:title=" ">
<polygon fill="white" stroke="#666666" points="1466.5,-211.5 1305.5,-211.5 1305.5,-192.5 1466.5,-192.5 1466.5,-211.5"/>
<text text-anchor="middle" x="1386" y="-199.5" font-family="Helvetica,sans-Serif" font-size="10.00">userver/utils/fmt_compat.hpp</text>
</a>
</g>
</g>
<!-- Node21&#45;&gt;Node24 -->
<g id="edge39_Node000021_Node000024" class="edge">
<title>Node21&#45;&gt;Node24</title>
<g id="a_edge39_Node000021_Node000024"><a xlink:title=" ">
<path fill="none" stroke="#63b8ff" d="M1051.88,-257.83C1123.89,-246.01 1248.73,-225.53 1323.72,-213.22"/>
<polygon fill="#63b8ff" stroke="#63b8ff" points="1324.66,-216.61 1333.97,-211.54 1323.53,-209.7 1324.66,-216.61"/>
</a>
</g>
</g>
<!-- Node26 -->
<g id="Node000026" class="node">
<title>Node26</title>
<g id="a_Node000026"><a xlink:title=" ">
<polygon fill="#e0e0e0" stroke="#999999" points="1249,-217 1127,-217 1127,-187 1249,-187 1249,-217"/>
<text text-anchor="start" x="1135" y="-205" font-family="Helvetica,sans-Serif" font-size="10.00">boost/functional/hash</text>
<text text-anchor="middle" x="1188" y="-194" font-family="Helvetica,sans-Serif" font-size="10.00">_fwd.hpp</text>
</a>
</g>
</g>
<!-- Node21&#45;&gt;Node26 -->
<g id="edge41_Node000021_Node000026" class="edge">
<title>Node21&#45;&gt;Node26</title>
<g id="a_edge41_Node000021_Node000026"><a xlink:title=" ">
<path fill="none" stroke="#63b8ff" d="M1038.14,-252.95C1067.02,-243.33 1105.53,-230.49 1136.27,-220.24"/>
<polygon fill="#63b8ff" stroke="#63b8ff" points="1137.58,-223.5 1145.96,-217.01 1135.37,-216.85 1137.58,-223.5"/>
</a>
</g>
</g>
<!-- Node27 -->
<g id="Node000027" class="node">
<title>Node27</title>
<g id="a_Node000027"><a xlink:href="../../da/d00/universal_2include_2userver_2formats_2common_2meta_8hpp.html" target="_top" xlink:title="Metaprogramming helpers for converters detection.">
<polygon fill="white" stroke="#666666" points="1663,-217 1523,-217 1523,-187 1663,-187 1663,-217"/>
<text text-anchor="start" x="1531" y="-205" font-family="Helvetica,sans-Serif" font-size="10.00">userver/formats/common</text>
<text text-anchor="middle" x="1593" y="-194" font-family="Helvetica,sans-Serif" font-size="10.00">/meta.hpp</text>
</a>
</g>
</g>
<!-- Node21&#45;&gt;Node27 -->
<g id="edge42_Node000021_Node000027" class="edge">
<title>Node21&#45;&gt;Node27</title>
<g id="a_edge42_Node000021_Node000027"><a xlink:title=" ">
<path fill="none" stroke="#63b8ff" d="M1051.56,-262.83C1145.84,-255.48 1343.1,-238.88 1509,-217 1510.28,-216.83 1511.57,-216.66 1512.86,-216.48"/>
<polygon fill="#63b8ff" stroke="#63b8ff" points="1513.52,-219.92 1522.93,-215.04 1512.53,-212.99 1513.52,-219.92"/>
</a>
</g>
</g>
<!-- Node31 -->
<g id="Node000031" class="node">
<title>Node31</title>
<g id="a_Node000031"><a xlink:href="../../d9/dce/void__t_8hpp.html" target="_top" xlink:title="std::void_t implementation with workarounds for compiler bugs">
<polygon fill="white" stroke="#666666" points="1319.5,-85 1218.5,-85 1218.5,-55 1319.5,-55 1319.5,-85"/>
<text text-anchor="start" x="1226.5" y="-73" font-family="Helvetica,sans-Serif" font-size="10.00">userver/utils/void</text>
<text text-anchor="middle" x="1269" y="-62" font-family="Helvetica,sans-Serif" font-size="10.00">_t.hpp</text>
</a>
</g>
</g>
<!-- Node21&#45;&gt;Node31 -->
<g id="edge59_Node000021_Node000031" class="edge">
<title>Node21&#45;&gt;Node31</title>
<g id="a_edge59_Node000021_Node000031"><a xlink:title=" ">
<path fill="none" stroke="#63b8ff" d="M1051.76,-264.11C1120.42,-259.28 1231.25,-246.97 1258,-217 1261.98,-212.54 1266.06,-135.7 1267.93,-95.33"/>
<polygon fill="#63b8ff" stroke="#63b8ff" points="1271.43,-95.38 1268.39,-85.23 1264.44,-95.06 1271.43,-95.38"/>
</a>
</g>
</g>
<!-- Node32 -->
<g id="Node000032" class="node">
<title>Node32</title>
<g id="a_Node000032"><a xlink:href="../../d0/d03/universal_2include_2userver_2utils_2meta_8hpp.html" target="_top" xlink:title="Metaprogramming, template variables and concepts.">
<polygon fill="white" stroke="#666666" points="837.5,-211.5 710.5,-211.5 710.5,-192.5 837.5,-192.5 837.5,-211.5"/>
<text text-anchor="middle" x="774" y="-199.5" font-family="Helvetica,sans-Serif" font-size="10.00">userver/utils/meta.hpp</text>
</a>
</g>
</g>
<!-- Node21&#45;&gt;Node32 -->
<g id="edge50_Node000021_Node000032" class="edge">
<title>Node21&#45;&gt;Node32</title>
<g id="a_edge50_Node000021_Node000032"><a xlink:title=" ">
<path fill="none" stroke="#63b8ff" d="M947.28,-252.95C907.15,-241.38 850.95,-225.18 813.56,-214.41"/>
<polygon fill="#63b8ff" stroke="#63b8ff" points="814.12,-210.92 803.54,-211.52 812.18,-217.65 814.12,-210.92"/>
</a>
</g>
</g>
<!-- Node35 -->
<g id="Node000035" class="node">
<title>Node35</title>
<g id="a_Node000035"><a xlink:href="../../db/d12/underlying__value_8hpp.html" target="_top" xlink:title=" ">
<polygon fill="white" stroke="#666666" points="1109,-217 977,-217 977,-187 1109,-187 1109,-217"/>
<text text-anchor="start" x="985" y="-205" font-family="Helvetica,sans-Serif" font-size="10.00">userver/utils/underlying</text>
<text text-anchor="middle" x="1043" y="-194" font-family="Helvetica,sans-Serif" font-size="10.00">_value.hpp</text>
</a>
</g>
</g>
<!-- Node21&#45;&gt;Node35 -->
<g id="edge57_Node000021_Node000035" class="edge">
<title>Node21&#45;&gt;Node35</title>
<g id="a_edge57_Node000021_Node000035"><a xlink:title=" ">
<path fill="none" stroke="#63b8ff" d="M1006.43,-252.8C1012.33,-244.76 1019.85,-234.53 1026.53,-225.43"/>
<polygon fill="#63b8ff" stroke="#63b8ff" points="1029.5,-227.3 1032.6,-217.16 1023.86,-223.15 1029.5,-227.3"/>
</a>
</g>
</g>
<!-- Node25 -->
<g id="Node000025" class="node">
<title>Node25</title>
<g id="a_Node000025"><a xlink:title=" ">
<polygon fill="#e0e0e0" stroke="#999999" points="1342.5,-145.5 1275.5,-145.5 1275.5,-126.5 1342.5,-126.5 1342.5,-145.5"/>
<text text-anchor="middle" x="1309" y="-133.5" font-family="Helvetica,sans-Serif" font-size="10.00">fmt/core.h</text>
</a>
</g>
</g>
<!-- Node24&#45;&gt;Node25 -->
<g id="edge40_Node000024_Node000025" class="edge">
<title>Node24&#45;&gt;Node25</title>
<g id="a_edge40_Node000024_Node000025"><a xlink:title=" ">
<path fill="none" stroke="#63b8ff" d="M1375.62,-192.37C1363.28,-182.12 1342.49,-164.84 1327.41,-152.31"/>
<polygon fill="#63b8ff" stroke="#63b8ff" points="1329.64,-149.61 1319.71,-145.91 1325.17,-154.99 1329.64,-149.61"/>
</a>
</g>
</g>
<!-- Node27&#45;&gt;Node10 -->
<g id="edge43_Node000027_Node000010" class="edge">
<title>Node27&#45;&gt;Node10</title>
<g id="a_edge43_Node000027_Node000010"><a xlink:title=" ">
<path fill="none" stroke="#63b8ff" d="M1663.32,-198.52C1743.83,-193.09 1859.26,-175.83 1815,-121 1752.05,-43.02 1433.19,-18.88 1314.02,-12.51"/>
<polygon fill="#63b8ff" stroke="#63b8ff" points="1313.95,-9 1303.79,-11.98 1313.59,-15.99 1313.95,-9"/>
</a>
</g>
</g>
<!-- Node28 -->
<g id="Node000028" class="node">
<title>Node28</title>
<g id="a_Node000028"><a xlink:href="../../d2/dc8/universal_2include_2userver_2formats_2parse_2to_8hpp.html" target="_top" xlink:title="Helper for parsers.">
<polygon fill="white" stroke="#666666" points="1648.5,-151 1523.5,-151 1523.5,-121 1648.5,-121 1648.5,-151"/>
<text text-anchor="start" x="1531.5" y="-139" font-family="Helvetica,sans-Serif" font-size="10.00">userver/formats/parse</text>
<text text-anchor="middle" x="1586" y="-128" font-family="Helvetica,sans-Serif" font-size="10.00">/to.hpp</text>
</a>
</g>
</g>
<!-- Node27&#45;&gt;Node28 -->
<g id="edge44_Node000027_Node000028" class="edge">
<title>Node27&#45;&gt;Node28</title>
<g id="a_edge44_Node000027_Node000028"><a xlink:title=" ">
<path fill="none" stroke="#63b8ff" d="M1591.45,-186.8C1590.62,-179.26 1589.59,-169.78 1588.64,-161.13"/>
<polygon fill="#63b8ff" stroke="#63b8ff" points="1592.12,-160.72 1587.55,-151.16 1585.16,-161.49 1592.12,-160.72"/>
</a>
</g>
</g>
<!-- Node29 -->
<g id="Node000029" class="node">
<title>Node29</title>
<g id="a_Node000029"><a xlink:href="../../d6/d8e/universal_2include_2userver_2formats_2serialize_2to_8hpp.html" target="_top" xlink:title="Helper for serializers.">
<polygon fill="white" stroke="#666666" points="1805.5,-151 1666.5,-151 1666.5,-121 1805.5,-121 1805.5,-151"/>
<text text-anchor="start" x="1674.5" y="-139" font-family="Helvetica,sans-Serif" font-size="10.00">userver/formats/serialize</text>
<text text-anchor="middle" x="1736" y="-128" font-family="Helvetica,sans-Serif" font-size="10.00">/to.hpp</text>
</a>
</g>
</g>
<!-- Node27&#45;&gt;Node29 -->
<g id="edge45_Node000027_Node000029" class="edge">
<title>Node27&#45;&gt;Node29</title>
<g id="a_edge45_Node000027_Node000029"><a xlink:title=" ">
<path fill="none" stroke="#63b8ff" d="M1624.38,-186.95C1645.24,-177.62 1672.84,-165.27 1695.38,-155.18"/>
<polygon fill="#63b8ff" stroke="#63b8ff" points="1696.99,-158.29 1704.69,-151.01 1694.13,-151.9 1696.99,-158.29"/>
</a>
</g>
</g>
<!-- Node30 -->
<g id="Node000030" class="node">
<title>Node30</title>
<g id="a_Node000030"><a xlink:href="../../d3/da0/meta__light_8hpp.html" target="_top" xlink:title="Lightweight concepts.">
<polygon fill="white" stroke="#666666" points="1467,-151 1361,-151 1361,-121 1467,-121 1467,-151"/>
<text text-anchor="start" x="1369" y="-139" font-family="Helvetica,sans-Serif" font-size="10.00">userver/utils/meta</text>
<text text-anchor="middle" x="1414" y="-128" font-family="Helvetica,sans-Serif" font-size="10.00">_light.hpp</text>
</a>
</g>
</g>
<!-- Node27&#45;&gt;Node30 -->
<g id="edge46_Node000027_Node000030" class="edge">
<title>Node27&#45;&gt;Node30</title>
<g id="a_edge46_Node000027_Node000030"><a xlink:title=" ">
<path fill="none" stroke="#63b8ff" d="M1553.72,-186.95C1527.02,-177.41 1491.51,-164.71 1462.97,-154.51"/>
<polygon fill="#63b8ff" stroke="#63b8ff" points="1463.79,-151.08 1453.19,-151.01 1461.43,-157.67 1463.79,-151.08"/>
</a>
</g>
</g>
<!-- Node30&#45;&gt;Node10 -->
<g id="edge47_Node000030_Node000010" class="edge">
<title>Node30&#45;&gt;Node10</title>
<g id="a_edge47_Node000030_Node000010"><a xlink:title=" ">
<path fill="none" stroke="#63b8ff" d="M1400.03,-120.88C1383.56,-104.47 1355.11,-76.84 1329,-55 1316.48,-44.52 1301.76,-33.59 1290.03,-25.18"/>
<polygon fill="#63b8ff" stroke="#63b8ff" points="1291.92,-22.22 1281.74,-19.29 1287.87,-27.93 1291.92,-22.22"/>
</a>
</g>
</g>
<!-- Node30&#45;&gt;Node31 -->
<g id="edge48_Node000030_Node000031" class="edge">
<title>Node30&#45;&gt;Node31</title>
<g id="a_edge48_Node000030_Node000031"><a xlink:title=" ">
<path fill="none" stroke="#63b8ff" d="M1382.18,-120.95C1361.03,-111.62 1333.04,-99.27 1310.19,-89.18"/>
<polygon fill="#63b8ff" stroke="#63b8ff" points="1311.31,-85.85 1300.75,-85.01 1308.48,-92.25 1311.31,-85.85"/>
</a>
</g>
</g>
<!-- Node31&#45;&gt;Node10 -->
<g id="edge49_Node000031_Node000010" class="edge">
<title>Node31&#45;&gt;Node10</title>
<g id="a_edge49_Node000031_Node000010"><a xlink:title=" ">
<path fill="none" stroke="#63b8ff" d="M1269,-54.84C1269,-47.21 1269,-37.7 1269,-29.45"/>
<polygon fill="#63b8ff" stroke="#63b8ff" points="1272.5,-29.27 1269,-19.27 1265.5,-29.27 1272.5,-29.27"/>
</a>
</g>
</g>
<!-- Node32&#45;&gt;Node10 -->
<g id="edge54_Node000032_Node000010" class="edge">
<title>Node32&#45;&gt;Node10</title>
<g id="a_edge54_Node000032_Node000010"><a xlink:title=" ">
<path fill="none" stroke="#63b8ff" d="M806.5,-192.44C835.3,-184.12 877.93,-169.96 912,-151 930.8,-140.53 931.13,-131.33 950,-121 1041.8,-70.75 1160.73,-36.84 1224.29,-20.92"/>
<polygon fill="#63b8ff" stroke="#63b8ff" points="1225.51,-24.23 1234.37,-18.43 1223.83,-17.43 1225.51,-24.23"/>
</a>
</g>
</g>
<!-- Node32&#45;&gt;Node19 -->
<g id="edge53_Node000032_Node000019" class="edge">
<title>Node32&#45;&gt;Node19</title>
<g id="a_edge53_Node000032_Node000019"><a xlink:title=" ">
<path fill="none" stroke="#63b8ff" d="M769.14,-192.37C763.75,-182.78 754.9,-167.05 748.01,-154.8"/>
<polygon fill="#63b8ff" stroke="#63b8ff" points="750.96,-152.91 743.01,-145.91 744.86,-156.34 750.96,-152.91"/>
</a>
</g>
</g>
<!-- Node32&#45;&gt;Node23 -->
<g id="edge51_Node000032_Node000023" class="edge">
<title>Node32&#45;&gt;Node23</title>
<g id="a_edge51_Node000032_Node000023"><a xlink:title=" ">
<path fill="none" stroke="#63b8ff" d="M805.72,-192.43C840.2,-182.94 896.83,-166.9 945,-151 946.9,-150.37 948.85,-149.71 950.82,-149.03"/>
<polygon fill="#63b8ff" stroke="#63b8ff" points="952.34,-152.2 960.58,-145.55 949.99,-145.61 952.34,-152.2"/>
</a>
</g>
</g>
<!-- Node32&#45;&gt;Node30 -->
<g id="edge56_Node000032_Node000030" class="edge">
<title>Node32&#45;&gt;Node30</title>
<g id="a_edge56_Node000032_Node000030"><a xlink:title=" ">
<path fill="none" stroke="#63b8ff" d="M814.02,-192.44C824.7,-190.4 836.25,-188.41 847,-187 1066.84,-158.19 1127.63,-183.12 1350.93,-150.99"/>
<polygon fill="#63b8ff" stroke="#63b8ff" points="1351.61,-154.43 1361,-149.52 1350.6,-147.5 1351.61,-154.43"/>
</a>
</g>
</g>
<!-- Node33 -->
<g id="Node000033" class="node">
<title>Node33</title>
<g id="a_Node000033"><a xlink:title=" ">
<polygon fill="#e0e0e0" stroke="#999999" points="837.5,-145.5 784.5,-145.5 784.5,-126.5 837.5,-126.5 837.5,-145.5"/>
<text text-anchor="middle" x="811" y="-133.5" font-family="Helvetica,sans-Serif" font-size="10.00">iterator</text>
</a>
</g>
</g>
<!-- Node32&#45;&gt;Node33 -->
<g id="edge52_Node000032_Node000033" class="edge">
<title>Node32&#45;&gt;Node33</title>
<g id="a_edge52_Node000032_Node000033"><a xlink:title=" ">
<path fill="none" stroke="#63b8ff" d="M778.99,-192.37C784.53,-182.78 793.63,-167.05 800.71,-154.8"/>
<polygon fill="#63b8ff" stroke="#63b8ff" points="803.88,-156.31 805.85,-145.91 797.82,-152.81 803.88,-156.31"/>
</a>
</g>
</g>
<!-- Node34 -->
<g id="Node000034" class="node">
<title>Node34</title>
<g id="a_Node000034"><a xlink:title=" ">
<polygon fill="#e0e0e0" stroke="#999999" points="902.5,-145.5 855.5,-145.5 855.5,-126.5 902.5,-126.5 902.5,-145.5"/>
<text text-anchor="middle" x="879" y="-133.5" font-family="Helvetica,sans-Serif" font-size="10.00">vector</text>
</a>
</g>
</g>
<!-- Node32&#45;&gt;Node34 -->
<g id="edge55_Node000032_Node000034" class="edge">
<title>Node32&#45;&gt;Node34</title>
<g id="a_edge55_Node000032_Node000034"><a xlink:title=" ">
<path fill="none" stroke="#63b8ff" d="M788.16,-192.37C805.54,-181.78 835.24,-163.67 855.93,-151.06"/>
<polygon fill="#63b8ff" stroke="#63b8ff" points="858.01,-153.89 864.73,-145.7 854.37,-147.92 858.01,-153.89"/>
</a>
</g>
</g>
<!-- Node35&#45;&gt;Node10 -->
<g id="edge58_Node000035_Node000010" class="edge">
<title>Node35&#45;&gt;Node10</title>
<g id="a_edge58_Node000035_Node000010"><a xlink:title=" ">
<path fill="none" stroke="#63b8ff" d="M1058.33,-186.93C1087.37,-160.44 1152.61,-101.63 1210,-55 1222.7,-44.68 1237.38,-33.61 1248.92,-25.08"/>
<polygon fill="#63b8ff" stroke="#63b8ff" points="1251.06,-27.86 1257.05,-19.12 1246.92,-22.21 1251.06,-27.86"/>
</a>
</g>
</g>
<!-- Node36&#45;&gt;Node2 -->
<g id="edge62_Node000036_Node000002" class="edge">
<title>Node36&#45;&gt;Node2</title>
<g id="a_edge62_Node000036_Node000002"><a xlink:title=" ">
<path fill="none" stroke="#63b8ff" d="M1686.02,-324.37C1657.75,-313.27 1608.46,-293.92 1576.29,-281.28"/>
<polygon fill="#63b8ff" stroke="#63b8ff" points="1577.48,-277.99 1566.89,-277.6 1574.92,-284.51 1577.48,-277.99"/>
</a>
</g>
</g>
<!-- Node36&#45;&gt;Node10 -->
<g id="edge63_Node000036_Node000010" class="edge">
<title>Node36&#45;&gt;Node10</title>
<g id="a_edge63_Node000036_Node000010"><a xlink:title=" ">
<path fill="none" stroke="#63b8ff" d="M1737.7,-324.44C1784.96,-308.79 1872,-270.76 1872,-203 1872,-203 1872,-203 1872,-135 1872,-21.05 1453.79,-10.55 1313.94,-10.22"/>
<polygon fill="#63b8ff" stroke="#63b8ff" points="1313.59,-6.72 1303.59,-10.21 1313.58,-13.72 1313.59,-6.72"/>
</a>
</g>
</g>
<!-- Node37 -->
<g id="Node000037" class="node">
<title>Node37</title>
<g id="a_Node000037"><a xlink:title=" ">
<polygon fill="#e0e0e0" stroke="#999999" points="1950,-277.5 1900,-277.5 1900,-258.5 1950,-258.5 1950,-277.5"/>
<text text-anchor="middle" x="1925" y="-265.5" font-family="Helvetica,sans-Serif" font-size="10.00">atomic</text>
</a>
</g>
</g>
<!-- Node36&#45;&gt;Node37 -->
<g id="edge61_Node000036_Node000037" class="edge">
<title>Node36&#45;&gt;Node37</title>
<g id="a_edge61_Node000036_Node000037"><a xlink:title=" ">
<path fill="none" stroke="#63b8ff" d="M1741.01,-324.48C1776.91,-315.04 1835.86,-299.02 1886,-283 1888.12,-282.32 1890.29,-281.61 1892.47,-280.87"/>
<polygon fill="#63b8ff" stroke="#63b8ff" points="1893.7,-284.15 1902,-277.56 1891.4,-277.54 1893.7,-284.15"/>
</a>
</g>
</g>
</g>
</svg>
