<?xml version="1.0" encoding="UTF-8" standalone="no"?>
<!DOCTYPE svg PUBLIC "-//W3C//DTD SVG 1.1//EN"
 "http://www.w3.org/Graphics/SVG/1.1/DTD/svg11.dtd">
<!-- Generated by graphviz version 2.43.0 (0)
 -->
<!-- Title: userver/storages/clickhouse/io/typedefs.hpp Pages: 1 -->
<svg width="225pt" height="291pt"
 viewBox="0.00 0.00 224.50 291.00" xmlns="http://www.w3.org/2000/svg" xmlns:xlink="http://www.w3.org/1999/xlink">
<g id="graph0" class="graph" transform="scale(1 1) rotate(0) translate(4 287)">
<title>userver/storages/clickhouse/io/typedefs.hpp</title>
<!-- Node1 -->
<g id="Node000001" class="node">
<title>Node1</title>
<g id="a_Node000001"><a xlink:title=" ">
<polygon fill="#999999" stroke="#666666" points="163.5,-283 10.5,-283 10.5,-253 163.5,-253 163.5,-283"/>
<text text-anchor="start" x="18.5" y="-271" font-family="Helvetica,sans-Serif" font-size="10.00">userver/storages/clickhouse</text>
<text text-anchor="middle" x="87" y="-260" font-family="Helvetica,sans-Serif" font-size="10.00">/io/typedefs.hpp</text>
</a>
</g>
</g>
<!-- Node2 -->
<g id="Node000002" class="node">
<title>Node2</title>
<g id="a_Node000002"><a xlink:href="../../d3/d92/escape_8hpp_source.html" target="_top" xlink:title=" ">
<polygon fill="white" stroke="#666666" points="163.5,-217 10.5,-217 10.5,-187 163.5,-187 163.5,-217"/>
<text text-anchor="start" x="18.5" y="-205" font-family="Helvetica,sans-Serif" font-size="10.00">userver/storages/clickhouse</text>
<text text-anchor="middle" x="87" y="-194" font-family="Helvetica,sans-Serif" font-size="10.00">/io/impl/escape.hpp</text>
</a>
</g>
</g>
<!-- Node1&#45;&gt;Node2 -->
<g id="edge1_Node000001_Node000002" class="edge">
<title>Node1&#45;&gt;Node2</title>
<g id="a_edge1_Node000001_Node000002"><a xlink:title=" ">
<path fill="none" stroke="#63b8ff" d="M87,-242.54C87,-233.96 87,-224.61 87,-217.16"/>
<polygon fill="#63b8ff" stroke="#63b8ff" points="83.5,-242.8 87,-252.8 90.5,-242.8 83.5,-242.8"/>
</a>
</g>
</g>
<!-- Node3 -->
<g id="Node000003" class="node">
<title>Node3</title>
<g id="a_Node000003"><a xlink:href="../../d7/de9/clickhouse_2include_2userver_2storages_2clickhouse_2query_8hpp.html" target="_top" xlink:title="Holds a query and its name. In case query is expected to be executed with parameters,...">
<polygon fill="white" stroke="#666666" points="163.5,-151 10.5,-151 10.5,-121 163.5,-121 163.5,-151"/>
<text text-anchor="start" x="18.5" y="-139" font-family="Helvetica,sans-Serif" font-size="10.00">userver/storages/clickhouse</text>
<text text-anchor="middle" x="87" y="-128" font-family="Helvetica,sans-Serif" font-size="10.00">/query.hpp</text>
</a>
</g>
</g>
<!-- Node2&#45;&gt;Node3 -->
<g id="edge2_Node000002_Node000003" class="edge">
<title>Node2&#45;&gt;Node3</title>
<g id="a_edge2_Node000002_Node000003"><a xlink:title=" ">
<path fill="none" stroke="#63b8ff" d="M87,-176.54C87,-167.96 87,-158.61 87,-151.16"/>
<polygon fill="#63b8ff" stroke="#63b8ff" points="83.5,-176.8 87,-186.8 90.5,-176.8 83.5,-176.8"/>
</a>
</g>
</g>
<!-- Node4 -->
<g id="Node000004" class="node">
<title>Node4</title>
<g id="a_Node000004"><a xlink:href="../../d7/d29/clickhouse_8hpp.html" target="_top" xlink:title=" ">
<polygon fill="white" stroke="#666666" points="174,-19 0,-19 0,0 174,0 174,-19"/>
<text text-anchor="middle" x="87" y="-7" font-family="Helvetica,sans-Serif" font-size="10.00">userver/storages/clickhouse.hpp</text>
</a>
</g>
</g>
<!-- Node3&#45;&gt;Node4 -->
<g id="edge3_Node000003_Node000004" class="edge">
<title>Node3&#45;&gt;Node4</title>
<g id="a_edge3_Node000003_Node000004"><a xlink:title=" ">
<path fill="none" stroke="#63b8ff" d="M68.23,-112.63C62.5,-104.46 56.94,-94.8 54,-85 50.17,-72.23 49.82,-67.66 54,-55 58.71,-40.75 69.93,-27.34 77.98,-19.04"/>
<polygon fill="#63b8ff" stroke="#63b8ff" points="65.59,-114.95 74.39,-120.85 71.19,-110.75 65.59,-114.95"/>
</a>
</g>
</g>
<!-- Node5 -->
<g id="Node000005" class="node">
<title>Node5</title>
<g id="a_Node000005"><a xlink:href="../../da/de8/clickhouse_2include_2userver_2storages_2clickhouse_2cluster_8hpp.html" target="_top" xlink:title="Interface for executing queries on a cluster of ClickHouse servers.">
<polygon fill="white" stroke="#666666" points="216.5,-85 63.5,-85 63.5,-55 216.5,-55 216.5,-85"/>
<text text-anchor="start" x="71.5" y="-73" font-family="Helvetica,sans-Serif" font-size="10.00">userver/storages/clickhouse</text>
<text text-anchor="middle" x="140" y="-62" font-family="Helvetica,sans-Serif" font-size="10.00">/cluster.hpp</text>
</a>
</g>
</g>
<!-- Node3&#45;&gt;Node5 -->
<g id="edge4_Node000003_Node000005" class="edge">
<title>Node3&#45;&gt;Node5</title>
<g id="a_edge4_Node000003_Node000005"><a xlink:title=" ">
<path fill="none" stroke="#63b8ff" d="M105.15,-113.09C112.8,-103.85 121.48,-93.36 128.27,-85.16"/>
<polygon fill="#63b8ff" stroke="#63b8ff" points="102.44,-110.86 98.76,-120.8 107.84,-115.33 102.44,-110.86"/>
</a>
</g>
</g>
<!-- Node5&#45;&gt;Node4 -->
<g id="edge5_Node000005_Node000004" class="edge">
<title>Node5&#45;&gt;Node4</title>
<g id="a_edge5_Node000005_Node000004"><a xlink:title=" ">
<path fill="none" stroke="#63b8ff" d="M120.41,-47.38C111.59,-37.64 101.66,-26.69 94.94,-19.27"/>
<polygon fill="#63b8ff" stroke="#63b8ff" points="117.86,-49.78 127.17,-54.84 123.05,-45.08 117.86,-49.78"/>
</a>
</g>
</g>
</g>
</svg>
