<?xml version="1.0" encoding="UTF-8" standalone="no"?>
<!DOCTYPE svg PUBLIC "-//W3C//DTD SVG 1.1//EN"
 "http://www.w3.org/Graphics/SVG/1.1/DTD/svg11.dtd">
<!-- Generated by graphviz version 2.43.0 (0)
 -->
<!-- Title: yaml_config::YamlConfig Pages: 1 -->
<svg width="320pt" height="93pt"
 viewBox="0.00 0.00 319.50 93.00" xmlns="http://www.w3.org/2000/svg" xmlns:xlink="http://www.w3.org/1999/xlink">
<g id="graph0" class="graph" transform="scale(1 1) rotate(0) translate(4 89)">
<title>yaml_config::YamlConfig</title>
<!-- Node1 -->
<g id="Node000001" class="node">
<title>Node1</title>
<g id="a_Node000001"><a xlink:title="Datatype that represents YAML with substituted variables.">
<polygon fill="#999999" stroke="#666666" points="235,-85 99,-85 99,-66 235,-66 235,-85"/>
<text text-anchor="middle" x="167" y="-73" font-family="Helvetica,sans-Serif" font-size="10.00">yaml_config::YamlConfig</text>
</a>
</g>
</g>
<!-- Node2 -->
<g id="Node000002" class="node">
<title>Node2</title>
<g id="a_Node000002"><a xlink:href="../../db/dff/classcomponents_1_1ComponentConfig.html" target="_top" xlink:title=" ">
<polygon fill="white" stroke="#bfbfbf" points="170,-24.5 0,-24.5 0,-5.5 170,-5.5 170,-24.5"/>
<text text-anchor="middle" x="85" y="-12.5" font-family="Helvetica,sans-Serif" font-size="10.00">components::ComponentConfig</text>
</a>
</g>
</g>
<!-- Node1&#45;&gt;Node2 -->
<g id="edge1_Node000001_Node000002" class="edge">
<title>Node1&#45;&gt;Node2</title>
<g id="a_edge1_Node000001_Node000002"><a xlink:title=" ">
<path fill="none" stroke="#63b8ff" d="M146.46,-59.85C130.93,-48.77 110.13,-33.93 97.15,-24.67"/>
<polygon fill="#63b8ff" stroke="#63b8ff" points="144.73,-62.91 154.9,-65.87 148.79,-57.21 144.73,-62.91"/>
</a>
</g>
</g>
<!-- Node3 -->
<g id="Node000003" class="node">
<title>Node3</title>
<g id="a_Node000003"><a xlink:href="../../d0/dd7/classserver_1_1handlers_1_1auth_1_1HandlerAuthConfig.html" target="_top" xlink:title=" ">
<polygon fill="white" stroke="#bfbfbf" points="311.5,-30 188.5,-30 188.5,0 311.5,0 311.5,-30"/>
<text text-anchor="start" x="196.5" y="-18" font-family="Helvetica,sans-Serif" font-size="10.00">server::handlers::auth</text>
<text text-anchor="middle" x="250" y="-7" font-family="Helvetica,sans-Serif" font-size="10.00">::HandlerAuthConfig</text>
</a>
</g>
</g>
<!-- Node1&#45;&gt;Node3 -->
<g id="edge2_Node000001_Node000003" class="edge">
<title>Node1&#45;&gt;Node3</title>
<g id="a_edge2_Node000001_Node000003"><a xlink:title=" ">
<path fill="none" stroke="#63b8ff" d="M187.53,-60.03C200.48,-50.9 217.12,-39.17 229.97,-30.11"/>
<polygon fill="#63b8ff" stroke="#63b8ff" points="185.4,-57.25 179.25,-65.87 189.44,-62.97 185.4,-57.25"/>
</a>
</g>
</g>
</g>
</svg>
