<?xml version="1.0" encoding="UTF-8" standalone="no"?>
<!DOCTYPE svg PUBLIC "-//W3C//DTD SVG 1.1//EN"
 "http://www.w3.org/Graphics/SVG/1.1/DTD/svg11.dtd">
<!-- Generated by graphviz version 2.43.0 (0)
 -->
<!-- Title: components::DefaultSecdistProvider Pages: 1 -->
<svg width="305pt" height="159pt"
 viewBox="0.00 0.00 304.50 159.00" xmlns="http://www.w3.org/2000/svg" xmlns:xlink="http://www.w3.org/1999/xlink">
<g id="graph0" class="graph" transform="scale(1 1) rotate(0) translate(4 155)">
<title>components::DefaultSecdistProvider</title>
<!-- Node1 -->
<g id="Node000001" class="node">
<title>Node1</title>
<g id="a_Node000001"><a xlink:title="Component that stores security related data (keys, passwords, ...).">
<polygon fill="#999999" stroke="#666666" points="245,-30 91,-30 91,0 245,0 245,-30"/>
<text text-anchor="start" x="99" y="-18" font-family="Helvetica,sans-Serif" font-size="10.00">components::DefaultSecdist</text>
<text text-anchor="middle" x="168" y="-7" font-family="Helvetica,sans-Serif" font-size="10.00">Provider</text>
</a>
</g>
</g>
<!-- Node2 -->
<g id="Node000002" class="node">
<title>Node2</title>
<g id="a_Node000002"><a xlink:href="../../d7/db4/classcomponents_1_1ComponentBase.html" target="_top" xlink:title="Base class for all application components, it depends on components::Logger and components::Tracer.">
<polygon fill="white" stroke="#666666" points="173.5,-90.5 10.5,-90.5 10.5,-71.5 173.5,-71.5 173.5,-90.5"/>
<text text-anchor="middle" x="92" y="-78.5" font-family="Helvetica,sans-Serif" font-size="10.00">components::ComponentBase</text>
</a>
</g>
</g>
<!-- Node2&#45;&gt;Node1 -->
<g id="edge1_Node000001_Node000002" class="edge">
<title>Node2&#45;&gt;Node1</title>
<g id="a_edge1_Node000001_Node000002"><a xlink:title=" ">
<path fill="none" stroke="#63b8ff" d="M110.15,-64.71C122.63,-54.21 139.07,-40.36 151.24,-30.12"/>
<polygon fill="#63b8ff" stroke="#63b8ff" points="107.64,-62.25 102.25,-71.37 112.15,-67.6 107.64,-62.25"/>
</a>
</g>
</g>
<!-- Node3 -->
<g id="Node000003" class="node">
<title>Node3</title>
<g id="a_Node000003"><a xlink:href="../../d2/d86/classcomponents_1_1RawComponentBase.html" target="_top" xlink:title="The base class for all components. Don&#39;t use it for application components, use ComponentBase instead...">
<polygon fill="white" stroke="#666666" points="184,-151 0,-151 0,-132 184,-132 184,-151"/>
<text text-anchor="middle" x="92" y="-139" font-family="Helvetica,sans-Serif" font-size="10.00">components::RawComponentBase</text>
</a>
</g>
</g>
<!-- Node3&#45;&gt;Node2 -->
<g id="edge2_Node000002_Node000003" class="edge">
<title>Node3&#45;&gt;Node2</title>
<g id="a_edge2_Node000002_Node000003"><a xlink:title=" ">
<path fill="none" stroke="#63b8ff" d="M92,-121.66C92,-111.24 92,-98.8 92,-90.67"/>
<polygon fill="#63b8ff" stroke="#63b8ff" points="88.5,-121.87 92,-131.87 95.5,-121.87 88.5,-121.87"/>
</a>
</g>
</g>
<!-- Node4 -->
<g id="Node000004" class="node">
<title>Node4</title>
<g id="a_Node000004"><a xlink:href="../../d3/dfb/classstorages_1_1secdist_1_1SecdistProvider.html" target="_top" xlink:title=" ">
<polygon fill="white" stroke="#bfbfbf" points="296.5,-96 191.5,-96 191.5,-66 296.5,-66 296.5,-96"/>
<text text-anchor="start" x="199.5" y="-84" font-family="Helvetica,sans-Serif" font-size="10.00">storages::secdist::</text>
<text text-anchor="middle" x="244" y="-73" font-family="Helvetica,sans-Serif" font-size="10.00">SecdistProvider</text>
</a>
</g>
</g>
<!-- Node4&#45;&gt;Node1 -->
<g id="edge3_Node000001_Node000004" class="edge">
<title>Node4&#45;&gt;Node1</title>
<g id="a_edge3_Node000001_Node000004"><a xlink:title=" ">
<path fill="none" stroke="#63b8ff" d="M219.3,-59.2C208.02,-49.7 194.95,-38.69 184.82,-30.16"/>
<polygon fill="#63b8ff" stroke="#63b8ff" points="217.23,-62.03 227.13,-65.8 221.74,-56.68 217.23,-62.03"/>
</a>
</g>
</g>
</g>
</svg>
