<?xml version="1.0" encoding="UTF-8" standalone="no"?>
<!DOCTYPE svg PUBLIC "-//W3C//DTD SVG 1.1//EN"
 "http://www.w3.org/Graphics/SVG/1.1/DTD/svg11.dtd">
<!-- Generated by graphviz version 2.43.0 (0)
 -->
<!-- Title: userver/rcu/fwd.hpp Pages: 1 -->
<svg width="184pt" height="82pt"
 viewBox="0.00 0.00 184.00 82.00" xmlns="http://www.w3.org/2000/svg" xmlns:xlink="http://www.w3.org/1999/xlink">
<g id="graph0" class="graph" transform="scale(1 1) rotate(0) translate(4 78)">
<title>userver/rcu/fwd.hpp</title>
<!-- Node1 -->
<g id="Node000001" class="node">
<title>Node1</title>
<g id="a_Node000001"><a xlink:title="Forward declarations for rcu::Variable and rcu::RcuMap.">
<polygon fill="#999999" stroke="#666666" points="137,-74 24,-74 24,-55 137,-55 137,-74"/>
<text text-anchor="middle" x="80.5" y="-62" font-family="Helvetica,sans-Serif" font-size="10.00">userver/rcu/fwd.hpp</text>
</a>
</g>
</g>
<!-- Node2 -->
<g id="Node000002" class="node">
<title>Node2</title>
<g id="a_Node000002"><a xlink:title=" ">
<polygon fill="#e0e0e0" stroke="#999999" points="65,-19 0,-19 0,0 65,0 65,-19"/>
<text text-anchor="middle" x="32.5" y="-7" font-family="Helvetica,sans-Serif" font-size="10.00">functional</text>
</a>
</g>
</g>
<!-- Node1&#45;&gt;Node2 -->
<g id="edge1_Node000001_Node000002" class="edge">
<title>Node1&#45;&gt;Node2</title>
<g id="a_edge1_Node000001_Node000002"><a xlink:title=" ">
<path fill="none" stroke="#63b8ff" d="M72.57,-54.75C65.65,-47.11 55.43,-35.82 47.05,-26.56"/>
<polygon fill="#63b8ff" stroke="#63b8ff" points="49.59,-24.15 40.28,-19.09 44.4,-28.85 49.59,-24.15"/>
</a>
</g>
</g>
<!-- Node3 -->
<g id="Node000003" class="node">
<title>Node3</title>
<g id="a_Node000003"><a xlink:title=" ">
<polygon fill="#e0e0e0" stroke="#999999" points="176,-19 83,-19 83,0 176,0 176,-19"/>
<text text-anchor="middle" x="129.5" y="-7" font-family="Helvetica,sans-Serif" font-size="10.00">unordered_map</text>
</a>
</g>
</g>
<!-- Node1&#45;&gt;Node3 -->
<g id="edge2_Node000001_Node000003" class="edge">
<title>Node1&#45;&gt;Node3</title>
<g id="a_edge2_Node000001_Node000003"><a xlink:title=" ">
<path fill="none" stroke="#63b8ff" d="M88.59,-54.75C95.66,-47.11 106.09,-35.82 114.65,-26.56"/>
<polygon fill="#63b8ff" stroke="#63b8ff" points="117.34,-28.81 121.56,-19.09 112.2,-24.06 117.34,-28.81"/>
</a>
</g>
</g>
</g>
</svg>
