<?xml version="1.0" encoding="UTF-8" standalone="no"?>
<!DOCTYPE svg PUBLIC "-//W3C//DTD SVG 1.1//EN"
 "http://www.w3.org/Graphics/SVG/1.1/DTD/svg11.dtd">
<!-- Generated by graphviz version 2.43.0 (0)
 -->
<!-- Title: userver/storages/postgres/dsn.hpp Pages: 1 -->
<svg width="1282pt" height="357pt"
 viewBox="0.00 0.00 1282.11 357.00" xmlns="http://www.w3.org/2000/svg" xmlns:xlink="http://www.w3.org/1999/xlink">
<g id="graph0" class="graph" transform="scale(1 1) rotate(0) translate(4 353)">
<title>userver/storages/postgres/dsn.hpp</title>
<!-- Node1 -->
<g id="Node000001" class="node">
<title>Node1</title>
<g id="a_Node000001"><a xlink:title="DSN manipulation helpers.">
<polygon fill="#999999" stroke="#666666" points="496.11,-349 353.11,-349 353.11,-319 496.11,-319 496.11,-349"/>
<text text-anchor="start" x="361.11" y="-337" font-family="Helvetica,sans-Serif" font-size="10.00">userver/storages/postgres</text>
<text text-anchor="middle" x="424.61" y="-326" font-family="Helvetica,sans-Serif" font-size="10.00">/dsn.hpp</text>
</a>
</g>
</g>
<!-- Node2 -->
<g id="Node000002" class="node">
<title>Node2</title>
<g id="a_Node000002"><a xlink:title=" ">
<polygon fill="#e0e0e0" stroke="#999999" points="54.61,-277.5 10.61,-277.5 10.61,-258.5 54.61,-258.5 54.61,-277.5"/>
<text text-anchor="middle" x="32.61" y="-265.5" font-family="Helvetica,sans-Serif" font-size="10.00">string</text>
</a>
</g>
</g>
<!-- Node1&#45;&gt;Node2 -->
<g id="edge1_Node000001_Node000002" class="edge">
<title>Node1&#45;&gt;Node2</title>
<g id="a_edge1_Node000001_Node000002"><a xlink:title=" ">
<path fill="none" stroke="#63b8ff" d="M352.8,-329.12C279.04,-323.74 161.49,-311.24 63.61,-283 61.97,-282.53 60.31,-281.98 58.65,-281.39"/>
<polygon fill="#63b8ff" stroke="#63b8ff" points="59.92,-278.13 49.33,-277.6 57.28,-284.61 59.92,-278.13"/>
</a>
</g>
</g>
<!-- Node3 -->
<g id="Node000003" class="node">
<title>Node3</title>
<g id="a_Node000003"><a xlink:title=" ">
<polygon fill="#e0e0e0" stroke="#999999" points="1003.11,-145.5 956.11,-145.5 956.11,-126.5 1003.11,-126.5 1003.11,-145.5"/>
<text text-anchor="middle" x="979.61" y="-133.5" font-family="Helvetica,sans-Serif" font-size="10.00">vector</text>
</a>
</g>
</g>
<!-- Node1&#45;&gt;Node3 -->
<g id="edge2_Node000001_Node000003" class="edge">
<title>Node1&#45;&gt;Node3</title>
<g id="a_edge2_Node000001_Node000003"><a xlink:title=" ">
<path fill="none" stroke="#63b8ff" d="M496.28,-331.41C648.52,-326.33 995.97,-305.11 1065.61,-217 1086.73,-190.28 1043.69,-164.38 1011.22,-149.59"/>
<polygon fill="#63b8ff" stroke="#63b8ff" points="1012.54,-146.35 1001.98,-145.55 1009.74,-152.77 1012.54,-146.35"/>
</a>
</g>
</g>
<!-- Node4 -->
<g id="Node000004" class="node">
<title>Node4</title>
<g id="a_Node000004"><a xlink:href="../../d9/dfe/resolver__fwd_8hpp_source.html" target="_top" xlink:title=" ">
<polygon fill="white" stroke="#666666" points="479.11,-283 370.11,-283 370.11,-253 479.11,-253 479.11,-283"/>
<text text-anchor="start" x="378.11" y="-271" font-family="Helvetica,sans-Serif" font-size="10.00">userver/clients/dns</text>
<text text-anchor="middle" x="424.61" y="-260" font-family="Helvetica,sans-Serif" font-size="10.00">/resolver_fwd.hpp</text>
</a>
</g>
</g>
<!-- Node1&#45;&gt;Node4 -->
<g id="edge3_Node000001_Node000004" class="edge">
<title>Node1&#45;&gt;Node4</title>
<g id="a_edge3_Node000001_Node000004"><a xlink:title=" ">
<path fill="none" stroke="#63b8ff" d="M424.61,-318.8C424.61,-311.34 424.61,-301.99 424.61,-293.41"/>
<polygon fill="#63b8ff" stroke="#63b8ff" points="428.11,-293.16 424.61,-283.16 421.11,-293.16 428.11,-293.16"/>
</a>
</g>
</g>
<!-- Node5 -->
<g id="Node000005" class="node">
<title>Node5</title>
<g id="a_Node000005"><a xlink:href="../../d2/d22/deadline_8hpp.html" target="_top" xlink:title="Internal representation of a deadline time point.">
<polygon fill="white" stroke="#666666" points="228.11,-277.5 73.11,-277.5 73.11,-258.5 228.11,-258.5 228.11,-277.5"/>
<text text-anchor="middle" x="150.61" y="-265.5" font-family="Helvetica,sans-Serif" font-size="10.00">userver/engine/deadline.hpp</text>
</a>
</g>
</g>
<!-- Node1&#45;&gt;Node5 -->
<g id="edge4_Node000001_Node000005" class="edge">
<title>Node1&#45;&gt;Node5</title>
<g id="a_edge4_Node000001_Node000005"><a xlink:title=" ">
<path fill="none" stroke="#63b8ff" d="M364.48,-318.95C314.1,-307.19 243.21,-290.63 197.1,-279.86"/>
<polygon fill="#63b8ff" stroke="#63b8ff" points="197.61,-276.38 187.08,-277.52 196.02,-283.2 197.61,-276.38"/>
</a>
</g>
</g>
<!-- Node10 -->
<g id="Node000010" class="node">
<title>Node10</title>
<g id="a_Node000010"><a xlink:href="../../d5/dfe/universal_2include_2userver_2utils_2strong__typedef_8hpp.html" target="_top" xlink:title="Strong typedef for a type T.">
<polygon fill="white" stroke="#666666" points="779.11,-283 668.11,-283 668.11,-253 779.11,-253 779.11,-283"/>
<text text-anchor="start" x="676.11" y="-271" font-family="Helvetica,sans-Serif" font-size="10.00">userver/utils/strong</text>
<text text-anchor="middle" x="723.61" y="-260" font-family="Helvetica,sans-Serif" font-size="10.00">_typedef.hpp</text>
</a>
</g>
</g>
<!-- Node1&#45;&gt;Node10 -->
<g id="edge9_Node000001_Node000010" class="edge">
<title>Node1&#45;&gt;Node10</title>
<g id="a_edge9_Node000001_Node000010"><a xlink:title=" ">
<path fill="none" stroke="#63b8ff" d="M490.23,-318.95C539.92,-308.32 607.9,-293.77 657.68,-283.11"/>
<polygon fill="#63b8ff" stroke="#63b8ff" points="658.65,-286.49 667.69,-280.97 657.18,-279.64 658.65,-286.49"/>
</a>
</g>
</g>
<!-- Node6 -->
<g id="Node000006" class="node">
<title>Node6</title>
<g id="a_Node000006"><a xlink:title=" ">
<polygon fill="#e0e0e0" stroke="#999999" points="66.61,-211.5 16.61,-211.5 16.61,-192.5 66.61,-192.5 66.61,-211.5"/>
<text text-anchor="middle" x="41.61" y="-199.5" font-family="Helvetica,sans-Serif" font-size="10.00">chrono</text>
</a>
</g>
</g>
<!-- Node5&#45;&gt;Node6 -->
<g id="edge5_Node000005_Node000006" class="edge">
<title>Node5&#45;&gt;Node6</title>
<g id="a_edge5_Node000005_Node000006"><a xlink:title=" ">
<path fill="none" stroke="#63b8ff" d="M135.91,-258.37C117.79,-247.73 86.76,-229.51 65.27,-216.89"/>
<polygon fill="#63b8ff" stroke="#63b8ff" points="66.82,-213.74 56.43,-211.7 63.28,-219.78 66.82,-213.74"/>
</a>
</g>
</g>
<!-- Node7 -->
<g id="Node000007" class="node">
<title>Node7</title>
<g id="a_Node000007"><a xlink:title=" ">
<polygon fill="#e0e0e0" stroke="#999999" points="672.11,-19 603.11,-19 603.11,0 672.11,0 672.11,-19"/>
<text text-anchor="middle" x="637.61" y="-7" font-family="Helvetica,sans-Serif" font-size="10.00">type_traits</text>
</a>
</g>
</g>
<!-- Node5&#45;&gt;Node7 -->
<g id="edge6_Node000005_Node000007" class="edge">
<title>Node5&#45;&gt;Node7</title>
<g id="a_edge6_Node000005_Node000007"><a xlink:title=" ">
<path fill="none" stroke="#63b8ff" d="M110.5,-258.42C72.6,-249.4 19.79,-234.16 7.61,-217 -24.26,-172.09 60.12,-124.69 66.61,-121 242.17,-21.35 491.77,-9.95 592.69,-9.74"/>
<polygon fill="#63b8ff" stroke="#63b8ff" points="592.83,-13.24 602.84,-9.76 592.85,-6.24 592.83,-13.24"/>
</a>
</g>
</g>
<!-- Node8 -->
<g id="Node000008" class="node">
<title>Node8</title>
<g id="a_Node000008"><a xlink:href="../../d2/d54/assert_8hpp.html" target="_top" xlink:title="Assertion macros UASSERT, UASSERT_MSG, UINVARIANT.">
<polygon fill="white" stroke="#666666" points="216.11,-211.5 85.11,-211.5 85.11,-192.5 216.11,-192.5 216.11,-211.5"/>
<text text-anchor="middle" x="150.61" y="-199.5" font-family="Helvetica,sans-Serif" font-size="10.00">userver/utils/assert.hpp</text>
</a>
</g>
</g>
<!-- Node5&#45;&gt;Node8 -->
<g id="edge7_Node000005_Node000008" class="edge">
<title>Node5&#45;&gt;Node8</title>
<g id="a_edge7_Node000005_Node000008"><a xlink:title=" ">
<path fill="none" stroke="#63b8ff" d="M150.61,-258.37C150.61,-249.16 150.61,-234.29 150.61,-222.27"/>
<polygon fill="#63b8ff" stroke="#63b8ff" points="154.11,-221.91 150.61,-211.91 147.11,-221.91 154.11,-221.91"/>
</a>
</g>
</g>
<!-- Node9 -->
<g id="Node000009" class="node">
<title>Node9</title>
<g id="a_Node000009"><a xlink:title=" ">
<polygon fill="#e0e0e0" stroke="#999999" points="149.11,-145.5 76.11,-145.5 76.11,-126.5 149.11,-126.5 149.11,-145.5"/>
<text text-anchor="middle" x="112.61" y="-133.5" font-family="Helvetica,sans-Serif" font-size="10.00">string_view</text>
</a>
</g>
</g>
<!-- Node8&#45;&gt;Node9 -->
<g id="edge8_Node000008_Node000009" class="edge">
<title>Node8&#45;&gt;Node9</title>
<g id="a_edge8_Node000008_Node000009"><a xlink:title=" ">
<path fill="none" stroke="#63b8ff" d="M145.49,-192.37C139.8,-182.78 130.45,-167.05 123.18,-154.8"/>
<polygon fill="#63b8ff" stroke="#63b8ff" points="126.01,-152.72 117.9,-145.91 120,-156.29 126.01,-152.72"/>
</a>
</g>
</g>
<!-- Node10&#45;&gt;Node7 -->
<g id="edge12_Node000010_Node000007" class="edge">
<title>Node10&#45;&gt;Node7</title>
<g id="a_edge12_Node000010_Node000007"><a xlink:title=" ">
<path fill="none" stroke="#63b8ff" d="M714.96,-252.96C709.19,-243.15 701.75,-229.61 696.61,-217 669.34,-150.03 649.53,-66.02 641.52,-29.22"/>
<polygon fill="#63b8ff" stroke="#63b8ff" points="644.94,-28.43 639.42,-19.38 638.09,-29.89 644.94,-28.43"/>
</a>
</g>
</g>
<!-- Node11 -->
<g id="Node000011" class="node">
<title>Node11</title>
<g id="a_Node000011"><a xlink:title=" ">
<polygon fill="#e0e0e0" stroke="#999999" points="993.11,-211.5 928.11,-211.5 928.11,-192.5 993.11,-192.5 993.11,-211.5"/>
<text text-anchor="middle" x="960.61" y="-199.5" font-family="Helvetica,sans-Serif" font-size="10.00">functional</text>
</a>
</g>
</g>
<!-- Node10&#45;&gt;Node11 -->
<g id="edge10_Node000010_Node000011" class="edge">
<title>Node10&#45;&gt;Node11</title>
<g id="a_edge10_Node000010_Node000011"><a xlink:title=" ">
<path fill="none" stroke="#63b8ff" d="M779.03,-252.92C816.99,-243.15 868.45,-229.66 913.61,-217 916.55,-216.18 919.59,-215.31 922.64,-214.43"/>
<polygon fill="#63b8ff" stroke="#63b8ff" points="923.71,-217.76 932.32,-211.59 921.74,-211.04 923.71,-217.76"/>
</a>
</g>
</g>
<!-- Node12 -->
<g id="Node000012" class="node">
<title>Node12</title>
<g id="a_Node000012"><a xlink:title=" ">
<polygon fill="#e0e0e0" stroke="#999999" points="937.61,-145.5 889.61,-145.5 889.61,-126.5 937.61,-126.5 937.61,-145.5"/>
<text text-anchor="middle" x="913.61" y="-133.5" font-family="Helvetica,sans-Serif" font-size="10.00">iosfwd</text>
</a>
</g>
</g>
<!-- Node10&#45;&gt;Node12 -->
<g id="edge11_Node000010_Node000012" class="edge">
<title>Node10&#45;&gt;Node12</title>
<g id="a_edge11_Node000010_Node000012"><a xlink:title=" ">
<path fill="none" stroke="#63b8ff" d="M769.16,-252.99C792.13,-244.65 819.69,-232.63 841.61,-217 866.49,-199.26 888.96,-171.55 901.95,-153.84"/>
<polygon fill="#63b8ff" stroke="#63b8ff" points="904.87,-155.77 907.84,-145.59 899.18,-151.7 904.87,-155.77"/>
</a>
</g>
</g>
<!-- Node13 -->
<g id="Node000013" class="node">
<title>Node13</title>
<g id="a_Node000013"><a xlink:title=" ">
<polygon fill="#e0e0e0" stroke="#999999" points="1056.11,-211.5 1011.11,-211.5 1011.11,-192.5 1056.11,-192.5 1056.11,-211.5"/>
<text text-anchor="middle" x="1033.61" y="-199.5" font-family="Helvetica,sans-Serif" font-size="10.00">utility</text>
</a>
</g>
</g>
<!-- Node10&#45;&gt;Node13 -->
<g id="edge13_Node000010_Node000013" class="edge">
<title>Node10&#45;&gt;Node13</title>
<g id="a_edge13_Node000010_Node000013"><a xlink:title=" ">
<path fill="none" stroke="#63b8ff" d="M779.37,-260.88C836.16,-253.74 926.31,-239.9 1001.61,-217 1003.25,-216.5 1004.91,-215.95 1006.58,-215.35"/>
<polygon fill="#63b8ff" stroke="#63b8ff" points="1007.96,-218.56 1015.95,-211.61 1005.37,-212.06 1007.96,-218.56"/>
</a>
</g>
</g>
<!-- Node14 -->
<g id="Node000014" class="node">
<title>Node14</title>
<g id="a_Node000014"><a xlink:title=" ">
<polygon fill="#e0e0e0" stroke="#999999" points="313.11,-211.5 234.11,-211.5 234.11,-192.5 313.11,-192.5 313.11,-211.5"/>
<text text-anchor="middle" x="273.61" y="-199.5" font-family="Helvetica,sans-Serif" font-size="10.00">fmt/format.h</text>
</a>
</g>
</g>
<!-- Node10&#45;&gt;Node14 -->
<g id="edge14_Node000010_Node000014" class="edge">
<title>Node10&#45;&gt;Node14</title>
<g id="a_edge14_Node000010_Node000014"><a xlink:title=" ">
<path fill="none" stroke="#63b8ff" d="M668.04,-262.8C590.22,-256.3 444.63,-241.88 322.61,-217 318.68,-216.2 314.6,-215.24 310.55,-214.21"/>
<polygon fill="#63b8ff" stroke="#63b8ff" points="311.21,-210.76 300.64,-211.53 309.38,-217.52 311.21,-210.76"/>
</a>
</g>
</g>
<!-- Node15 -->
<g id="Node000015" class="node">
<title>Node15</title>
<g id="a_Node000015"><a xlink:href="../../d3/d6c/fmt__compat_8hpp_source.html" target="_top" xlink:title=" ">
<polygon fill="white" stroke="#666666" points="1274.11,-211.5 1113.11,-211.5 1113.11,-192.5 1274.11,-192.5 1274.11,-211.5"/>
<text text-anchor="middle" x="1193.61" y="-199.5" font-family="Helvetica,sans-Serif" font-size="10.00">userver/utils/fmt_compat.hpp</text>
</a>
</g>
</g>
<!-- Node10&#45;&gt;Node15 -->
<g id="edge15_Node000010_Node000015" class="edge">
<title>Node10&#45;&gt;Node15</title>
<g id="a_edge15_Node000010_Node000015"><a xlink:title=" ">
<path fill="none" stroke="#63b8ff" d="M779.37,-259.41C864.42,-247.83 1026.58,-225.75 1120.81,-212.91"/>
<polygon fill="#63b8ff" stroke="#63b8ff" points="1121.39,-216.37 1130.83,-211.55 1120.45,-209.43 1121.39,-216.37"/>
</a>
</g>
</g>
<!-- Node17 -->
<g id="Node000017" class="node">
<title>Node17</title>
<g id="a_Node000017"><a xlink:title=" ">
<polygon fill="#e0e0e0" stroke="#999999" points="611.61,-217 489.61,-217 489.61,-187 611.61,-187 611.61,-217"/>
<text text-anchor="start" x="497.61" y="-205" font-family="Helvetica,sans-Serif" font-size="10.00">boost/functional/hash</text>
<text text-anchor="middle" x="550.61" y="-194" font-family="Helvetica,sans-Serif" font-size="10.00">_fwd.hpp</text>
</a>
</g>
</g>
<!-- Node10&#45;&gt;Node17 -->
<g id="edge17_Node000010_Node000017" class="edge">
<title>Node10&#45;&gt;Node17</title>
<g id="a_edge17_Node000010_Node000017"><a xlink:title=" ">
<path fill="none" stroke="#63b8ff" d="M685.65,-252.95C659.84,-243.41 625.52,-230.71 597.94,-220.51"/>
<polygon fill="#63b8ff" stroke="#63b8ff" points="599.08,-217.2 588.49,-217.01 596.65,-223.76 599.08,-217.2"/>
</a>
</g>
</g>
<!-- Node18 -->
<g id="Node000018" class="node">
<title>Node18</title>
<g id="a_Node000018"><a xlink:href="../../da/d00/universal_2include_2userver_2formats_2common_2meta_8hpp.html" target="_top" xlink:title="Metaprogramming helpers for converters detection.">
<polygon fill="white" stroke="#666666" points="471.61,-217 331.61,-217 331.61,-187 471.61,-187 471.61,-217"/>
<text text-anchor="start" x="339.61" y="-205" font-family="Helvetica,sans-Serif" font-size="10.00">userver/formats/common</text>
<text text-anchor="middle" x="401.61" y="-194" font-family="Helvetica,sans-Serif" font-size="10.00">/meta.hpp</text>
</a>
</g>
</g>
<!-- Node10&#45;&gt;Node18 -->
<g id="edge18_Node000010_Node000018" class="edge">
<title>Node10&#45;&gt;Node18</title>
<g id="a_edge18_Node000010_Node000018"><a xlink:title=" ">
<path fill="none" stroke="#63b8ff" d="M667.89,-255.93C616.5,-245.71 539.64,-230.43 481.68,-218.91"/>
<polygon fill="#63b8ff" stroke="#63b8ff" points="482.31,-215.47 471.82,-216.95 480.94,-222.34 482.31,-215.47"/>
</a>
</g>
</g>
<!-- Node22 -->
<g id="Node000022" class="node">
<title>Node22</title>
<g id="a_Node000022"><a xlink:href="../../d9/dce/void__t_8hpp.html" target="_top" xlink:title="std::void_t implementation with workarounds for compiler bugs">
<polygon fill="white" stroke="#666666" points="609.11,-85 508.11,-85 508.11,-55 609.11,-55 609.11,-85"/>
<text text-anchor="start" x="516.11" y="-73" font-family="Helvetica,sans-Serif" font-size="10.00">userver/utils/void</text>
<text text-anchor="middle" x="558.61" y="-62" font-family="Helvetica,sans-Serif" font-size="10.00">_t.hpp</text>
</a>
</g>
</g>
<!-- Node10&#45;&gt;Node22 -->
<g id="edge35_Node000010_Node000022" class="edge">
<title>Node10&#45;&gt;Node22</title>
<g id="a_edge35_Node000010_Node000022"><a xlink:title=" ">
<path fill="none" stroke="#63b8ff" d="M706.42,-252.75C681.98,-232.65 638.21,-197.27 620.61,-187 584.83,-166.11 557.57,-185.5 534.61,-151 523.09,-133.68 532.01,-110.66 542.09,-93.76"/>
<polygon fill="#63b8ff" stroke="#63b8ff" points="545.21,-95.37 547.68,-85.07 539.33,-91.58 545.21,-95.37"/>
</a>
</g>
</g>
<!-- Node23 -->
<g id="Node000023" class="node">
<title>Node23</title>
<g id="a_Node000023"><a xlink:href="../../d0/d03/universal_2include_2userver_2utils_2meta_8hpp.html" target="_top" xlink:title="Metaprogramming, template variables and concepts.">
<polygon fill="white" stroke="#666666" points="833.11,-211.5 706.11,-211.5 706.11,-192.5 833.11,-192.5 833.11,-211.5"/>
<text text-anchor="middle" x="769.61" y="-199.5" font-family="Helvetica,sans-Serif" font-size="10.00">userver/utils/meta.hpp</text>
</a>
</g>
</g>
<!-- Node10&#45;&gt;Node23 -->
<g id="edge26_Node000010_Node000023" class="edge">
<title>Node10&#45;&gt;Node23</title>
<g id="a_edge26_Node000010_Node000023"><a xlink:title=" ">
<path fill="none" stroke="#63b8ff" d="M733.82,-252.8C740.78,-243.11 750.03,-230.24 757.39,-220.01"/>
<polygon fill="#63b8ff" stroke="#63b8ff" points="760.26,-222.01 763.25,-211.84 754.58,-217.92 760.26,-222.01"/>
</a>
</g>
</g>
<!-- Node26 -->
<g id="Node000026" class="node">
<title>Node26</title>
<g id="a_Node000026"><a xlink:href="../../db/d12/underlying__value_8hpp.html" target="_top" xlink:title=" ">
<polygon fill="white" stroke="#666666" points="1022.61,-85 890.61,-85 890.61,-55 1022.61,-55 1022.61,-85"/>
<text text-anchor="start" x="898.61" y="-73" font-family="Helvetica,sans-Serif" font-size="10.00">userver/utils/underlying</text>
<text text-anchor="middle" x="956.61" y="-62" font-family="Helvetica,sans-Serif" font-size="10.00">_value.hpp</text>
</a>
</g>
</g>
<!-- Node10&#45;&gt;Node26 -->
<g id="edge33_Node000010_Node000026" class="edge">
<title>Node10&#45;&gt;Node26</title>
<g id="a_edge33_Node000010_Node000026"><a xlink:title=" ">
<path fill="none" stroke="#63b8ff" d="M776.27,-252.9C805.38,-244.23 841.79,-231.92 872.61,-217 894.58,-206.37 896.87,-198.09 918.61,-187 958.46,-166.67 987.26,-187.86 1012.61,-151 1026.63,-130.62 1006.48,-107.49 986.56,-91.36"/>
<polygon fill="#63b8ff" stroke="#63b8ff" points="988.49,-88.43 978.42,-85.11 984.22,-93.98 988.49,-88.43"/>
</a>
</g>
</g>
<!-- Node16 -->
<g id="Node000016" class="node">
<title>Node16</title>
<g id="a_Node000016"><a xlink:title=" ">
<polygon fill="#e0e0e0" stroke="#999999" points="1227.11,-145.5 1160.11,-145.5 1160.11,-126.5 1227.11,-126.5 1227.11,-145.5"/>
<text text-anchor="middle" x="1193.61" y="-133.5" font-family="Helvetica,sans-Serif" font-size="10.00">fmt/core.h</text>
</a>
</g>
</g>
<!-- Node15&#45;&gt;Node16 -->
<g id="edge16_Node000015_Node000016" class="edge">
<title>Node15&#45;&gt;Node16</title>
<g id="a_edge16_Node000015_Node000016"><a xlink:title=" ">
<path fill="none" stroke="#63b8ff" d="M1193.61,-192.37C1193.61,-183.16 1193.61,-168.29 1193.61,-156.27"/>
<polygon fill="#63b8ff" stroke="#63b8ff" points="1197.11,-155.91 1193.61,-145.91 1190.11,-155.91 1197.11,-155.91"/>
</a>
</g>
</g>
<!-- Node18&#45;&gt;Node7 -->
<g id="edge19_Node000018_Node000007" class="edge">
<title>Node18&#45;&gt;Node7</title>
<g id="a_edge19_Node000018_Node000007"><a xlink:title=" ">
<path fill="none" stroke="#63b8ff" d="M421.5,-186.8C433.22,-177.64 447.65,-164.87 457.61,-151 484.67,-113.32 464.3,-86.23 498.61,-55 524.51,-31.43 562.95,-20.34 592.85,-15.12"/>
<polygon fill="#63b8ff" stroke="#63b8ff" points="593.71,-18.53 603.04,-13.51 592.61,-11.62 593.71,-18.53"/>
</a>
</g>
</g>
<!-- Node19 -->
<g id="Node000019" class="node">
<title>Node19</title>
<g id="a_Node000019"><a xlink:href="../../d2/dc8/universal_2include_2userver_2formats_2parse_2to_8hpp.html" target="_top" xlink:title="Helper for parsers.">
<polygon fill="white" stroke="#666666" points="292.11,-151 167.11,-151 167.11,-121 292.11,-121 292.11,-151"/>
<text text-anchor="start" x="175.11" y="-139" font-family="Helvetica,sans-Serif" font-size="10.00">userver/formats/parse</text>
<text text-anchor="middle" x="229.61" y="-128" font-family="Helvetica,sans-Serif" font-size="10.00">/to.hpp</text>
</a>
</g>
</g>
<!-- Node18&#45;&gt;Node19 -->
<g id="edge20_Node000018_Node000019" class="edge">
<title>Node18&#45;&gt;Node19</title>
<g id="a_edge20_Node000018_Node000019"><a xlink:title=" ">
<path fill="none" stroke="#63b8ff" d="M363.87,-186.95C338.21,-177.41 304.09,-164.71 276.67,-154.51"/>
<polygon fill="#63b8ff" stroke="#63b8ff" points="277.86,-151.22 267.27,-151.01 275.42,-157.78 277.86,-151.22"/>
</a>
</g>
</g>
<!-- Node20 -->
<g id="Node000020" class="node">
<title>Node20</title>
<g id="a_Node000020"><a xlink:href="../../d6/d8e/universal_2include_2userver_2formats_2serialize_2to_8hpp.html" target="_top" xlink:title="Helper for serializers.">
<polygon fill="white" stroke="#666666" points="449.11,-151 310.11,-151 310.11,-121 449.11,-121 449.11,-151"/>
<text text-anchor="start" x="318.11" y="-139" font-family="Helvetica,sans-Serif" font-size="10.00">userver/formats/serialize</text>
<text text-anchor="middle" x="379.61" y="-128" font-family="Helvetica,sans-Serif" font-size="10.00">/to.hpp</text>
</a>
</g>
</g>
<!-- Node18&#45;&gt;Node20 -->
<g id="edge21_Node000018_Node000020" class="edge">
<title>Node18&#45;&gt;Node20</title>
<g id="a_edge21_Node000018_Node000020"><a xlink:title=" ">
<path fill="none" stroke="#63b8ff" d="M396.73,-186.8C394.11,-179.17 390.81,-169.57 387.81,-160.84"/>
<polygon fill="#63b8ff" stroke="#63b8ff" points="391.04,-159.48 384.48,-151.16 384.42,-161.76 391.04,-159.48"/>
</a>
</g>
</g>
<!-- Node21 -->
<g id="Node000021" class="node">
<title>Node21</title>
<g id="a_Node000021"><a xlink:href="../../d3/da0/meta__light_8hpp.html" target="_top" xlink:title="Lightweight concepts.">
<polygon fill="white" stroke="#666666" points="649.61,-151 543.61,-151 543.61,-121 649.61,-121 649.61,-151"/>
<text text-anchor="start" x="551.61" y="-139" font-family="Helvetica,sans-Serif" font-size="10.00">userver/utils/meta</text>
<text text-anchor="middle" x="596.61" y="-128" font-family="Helvetica,sans-Serif" font-size="10.00">_light.hpp</text>
</a>
</g>
</g>
<!-- Node18&#45;&gt;Node21 -->
<g id="edge22_Node000018_Node000021" class="edge">
<title>Node18&#45;&gt;Node21</title>
<g id="a_edge22_Node000018_Node000021"><a xlink:title=" ">
<path fill="none" stroke="#63b8ff" d="M444.41,-186.95C473.74,-177.33 512.85,-164.49 544.08,-154.24"/>
<polygon fill="#63b8ff" stroke="#63b8ff" points="545.51,-157.46 553.92,-151.01 543.33,-150.81 545.51,-157.46"/>
</a>
</g>
</g>
<!-- Node21&#45;&gt;Node7 -->
<g id="edge23_Node000021_Node000007" class="edge">
<title>Node21&#45;&gt;Node7</title>
<g id="a_edge23_Node000021_Node000007"><a xlink:title=" ">
<path fill="none" stroke="#63b8ff" d="M603.2,-120.76C607.63,-110.86 613.4,-97.29 617.61,-85 623.97,-66.42 629.61,-44.69 633.26,-29.5"/>
<polygon fill="#63b8ff" stroke="#63b8ff" points="636.77,-29.87 635.65,-19.33 629.96,-28.27 636.77,-29.87"/>
</a>
</g>
</g>
<!-- Node21&#45;&gt;Node22 -->
<g id="edge24_Node000021_Node000022" class="edge">
<title>Node21&#45;&gt;Node22</title>
<g id="a_edge24_Node000021_Node000022"><a xlink:title=" ">
<path fill="none" stroke="#63b8ff" d="M588.18,-120.8C583.5,-112.92 577.58,-102.95 572.26,-93.99"/>
<polygon fill="#63b8ff" stroke="#63b8ff" points="575.14,-91.98 567.02,-85.16 569.12,-95.55 575.14,-91.98"/>
</a>
</g>
</g>
<!-- Node22&#45;&gt;Node7 -->
<g id="edge25_Node000022_Node000007" class="edge">
<title>Node22&#45;&gt;Node7</title>
<g id="a_edge25_Node000022_Node000007"><a xlink:title=" ">
<path fill="none" stroke="#63b8ff" d="M577.74,-54.84C589.79,-45.91 605.33,-34.41 617.55,-25.35"/>
<polygon fill="#63b8ff" stroke="#63b8ff" points="619.82,-28.03 625.77,-19.27 615.65,-22.4 619.82,-28.03"/>
</a>
</g>
</g>
<!-- Node23&#45;&gt;Node3 -->
<g id="edge31_Node000023_Node000003" class="edge">
<title>Node23&#45;&gt;Node3</title>
<g id="a_edge31_Node000023_Node000003"><a xlink:title=" ">
<path fill="none" stroke="#63b8ff" d="M804.95,-192.42C840.97,-183.34 898.27,-168.01 946.61,-151 948.04,-150.5 949.5,-149.96 950.97,-149.41"/>
<polygon fill="#63b8ff" stroke="#63b8ff" points="952.6,-152.52 960.58,-145.56 949.99,-146.03 952.6,-152.52"/>
</a>
</g>
</g>
<!-- Node23&#45;&gt;Node7 -->
<g id="edge30_Node000023_Node000007" class="edge">
<title>Node23&#45;&gt;Node7</title>
<g id="a_edge30_Node000023_Node000007"><a xlink:title=" ">
<path fill="none" stroke="#63b8ff" d="M771.62,-192.07C774.61,-176.7 778.75,-144.63 767.61,-121 746.1,-75.35 695.64,-41.52 664.29,-23.99"/>
<polygon fill="#63b8ff" stroke="#63b8ff" points="665.69,-20.77 655.23,-19.08 662.36,-26.93 665.69,-20.77"/>
</a>
</g>
</g>
<!-- Node23&#45;&gt;Node12 -->
<g id="edge27_Node000023_Node000012" class="edge">
<title>Node23&#45;&gt;Node12</title>
<g id="a_edge27_Node000023_Node000012"><a xlink:title=" ">
<path fill="none" stroke="#63b8ff" d="M789.03,-192.37C813.62,-181.44 856.19,-162.52 884.62,-149.88"/>
<polygon fill="#63b8ff" stroke="#63b8ff" points="886.32,-152.96 894.04,-145.7 883.48,-146.56 886.32,-152.96"/>
</a>
</g>
</g>
<!-- Node23&#45;&gt;Node21 -->
<g id="edge32_Node000023_Node000021" class="edge">
<title>Node23&#45;&gt;Node21</title>
<g id="a_edge32_Node000023_Node000021"><a xlink:title=" ">
<path fill="none" stroke="#63b8ff" d="M746.28,-192.37C720.26,-182.74 677.46,-166.91 644.29,-154.64"/>
<polygon fill="#63b8ff" stroke="#63b8ff" points="645.36,-151.3 634.77,-151.12 642.93,-157.87 645.36,-151.3"/>
</a>
</g>
</g>
<!-- Node24 -->
<g id="Node000024" class="node">
<title>Node24</title>
<g id="a_Node000024"><a xlink:title=" ">
<polygon fill="#e0e0e0" stroke="#999999" points="759.11,-145.5 706.11,-145.5 706.11,-126.5 759.11,-126.5 759.11,-145.5"/>
<text text-anchor="middle" x="732.61" y="-133.5" font-family="Helvetica,sans-Serif" font-size="10.00">iterator</text>
</a>
</g>
</g>
<!-- Node23&#45;&gt;Node24 -->
<g id="edge28_Node000023_Node000024" class="edge">
<title>Node23&#45;&gt;Node24</title>
<g id="a_edge28_Node000023_Node000024"><a xlink:title=" ">
<path fill="none" stroke="#63b8ff" d="M764.62,-192.37C759.08,-182.78 749.98,-167.05 742.9,-154.8"/>
<polygon fill="#63b8ff" stroke="#63b8ff" points="745.8,-152.81 737.76,-145.91 739.74,-156.31 745.8,-152.81"/>
</a>
</g>
</g>
<!-- Node25 -->
<g id="Node000025" class="node">
<title>Node25</title>
<g id="a_Node000025"><a xlink:title=" ">
<polygon fill="#e0e0e0" stroke="#999999" points="871.61,-145.5 815.61,-145.5 815.61,-126.5 871.61,-126.5 871.61,-145.5"/>
<text text-anchor="middle" x="843.61" y="-133.5" font-family="Helvetica,sans-Serif" font-size="10.00">optional</text>
</a>
</g>
</g>
<!-- Node23&#45;&gt;Node25 -->
<g id="edge29_Node000023_Node000025" class="edge">
<title>Node23&#45;&gt;Node25</title>
<g id="a_edge29_Node000023_Node000025"><a xlink:title=" ">
<path fill="none" stroke="#63b8ff" d="M779.59,-192.37C791.33,-182.21 811.05,-165.16 825.51,-152.65"/>
<polygon fill="#63b8ff" stroke="#63b8ff" points="828.04,-155.09 833.32,-145.91 823.46,-149.8 828.04,-155.09"/>
</a>
</g>
</g>
<!-- Node26&#45;&gt;Node7 -->
<g id="edge34_Node000026_Node000007" class="edge">
<title>Node26&#45;&gt;Node7</title>
<g id="a_edge34_Node000026_Node000007"><a xlink:title=" ">
<path fill="none" stroke="#63b8ff" d="M890.51,-56.88C828.11,-45.43 736.25,-28.59 682.12,-18.66"/>
<polygon fill="#63b8ff" stroke="#63b8ff" points="682.61,-15.19 672.14,-16.83 681.34,-22.08 682.61,-15.19"/>
</a>
</g>
</g>
</g>
</svg>
