<?xml version="1.0" encoding="UTF-8" standalone="no"?>
<!DOCTYPE svg PUBLIC "-//W3C//DTD SVG 1.1//EN"
 "http://www.w3.org/Graphics/SVG/1.1/DTD/svg11.dtd">
<!-- Generated by graphviz version 2.43.0 (0)
 -->
<!-- Title: ugrpc::client::MiddlewareComponentBase Pages: 1 -->
<svg width="749pt" height="146pt"
 viewBox="0.00 0.00 749.00 146.00" xmlns="http://www.w3.org/2000/svg" xmlns:xlink="http://www.w3.org/1999/xlink">
<g id="graph0" class="graph" transform="scale(1 1) rotate(0) translate(4 142)">
<title>ugrpc::client::MiddlewareComponentBase</title>
<!-- Node1 -->
<g id="Node000001" class="node">
<title>Node1</title>
<g id="a_Node000001"><a xlink:title="Base class for client middleware component.">
<polygon fill="#999999" stroke="#666666" points="559,-84 419,-84 419,-54 559,-54 559,-84"/>
<text text-anchor="start" x="427" y="-72" font-family="Helvetica,sans-Serif" font-size="10.00">ugrpc::client::Middleware</text>
<text text-anchor="middle" x="489" y="-61" font-family="Helvetica,sans-Serif" font-size="10.00">ComponentBase</text>
</a>
</g>
</g>
<!-- Node4 -->
<g id="Node000004" class="node">
<title>Node4</title>
<g id="a_Node000004"><a xlink:href="../../d6/de9/classugrpc_1_1client_1_1middlewares_1_1baggage_1_1Component.html" target="_top" xlink:title="Component for gRPC client baggage.">
<polygon fill="white" stroke="#666666" points="741,-138 595,-138 595,-108 741,-108 741,-138"/>
<text text-anchor="start" x="603" y="-126" font-family="Helvetica,sans-Serif" font-size="10.00">ugrpc::client::middlewares</text>
<text text-anchor="middle" x="668" y="-115" font-family="Helvetica,sans-Serif" font-size="10.00">::baggage::Component</text>
</a>
</g>
</g>
<!-- Node1&#45;&gt;Node4 -->
<g id="edge3_Node000001_Node000004" class="edge">
<title>Node1&#45;&gt;Node4</title>
<g id="a_edge3_Node000001_Node000004"><a xlink:title=" ">
<path fill="none" stroke="#63b8ff" d="M548.99,-87C571.26,-93.79 596.35,-101.45 617.65,-107.95"/>
<polygon fill="#63b8ff" stroke="#63b8ff" points="549.89,-83.61 539.3,-84.04 547.85,-90.31 549.89,-83.61"/>
</a>
</g>
</g>
<!-- Node5 -->
<g id="Node000005" class="node">
<title>Node5</title>
<g id="a_Node000005"><a xlink:href="../../da/df9/classugrpc_1_1client_1_1middlewares_1_1deadline__propagation_1_1Component.html" target="_top" xlink:title="Component for gRPC client deadline_propagation. Update deadline from TaskInheritedData if it exists a...">
<polygon fill="white" stroke="#666666" points="741,-89.5 595,-89.5 595,-48.5 741,-48.5 741,-89.5"/>
<text text-anchor="start" x="603" y="-77.5" font-family="Helvetica,sans-Serif" font-size="10.00">ugrpc::client::middlewares</text>
<text text-anchor="start" x="603" y="-66.5" font-family="Helvetica,sans-Serif" font-size="10.00">::deadline_propagation::</text>
<text text-anchor="middle" x="668" y="-55.5" font-family="Helvetica,sans-Serif" font-size="10.00">Component</text>
</a>
</g>
</g>
<!-- Node1&#45;&gt;Node5 -->
<g id="edge4_Node000001_Node000005" class="edge">
<title>Node1&#45;&gt;Node5</title>
<g id="a_edge4_Node000001_Node000005"><a xlink:title=" ">
<path fill="none" stroke="#63b8ff" d="M569.47,-69C577.95,-69 586.55,-69 594.94,-69"/>
<polygon fill="#63b8ff" stroke="#63b8ff" points="569.19,-65.5 559.19,-69 569.19,-72.5 569.19,-65.5"/>
</a>
</g>
</g>
<!-- Node6 -->
<g id="Node000006" class="node">
<title>Node6</title>
<g id="a_Node000006"><a xlink:href="../../d2/d09/classugrpc_1_1client_1_1middlewares_1_1log_1_1Component.html" target="_top" xlink:title="Component for gRPC client logging.">
<polygon fill="white" stroke="#666666" points="741,-30 595,-30 595,0 741,0 741,-30"/>
<text text-anchor="start" x="603" y="-18" font-family="Helvetica,sans-Serif" font-size="10.00">ugrpc::client::middlewares</text>
<text text-anchor="middle" x="668" y="-7" font-family="Helvetica,sans-Serif" font-size="10.00">::log::Component</text>
</a>
</g>
</g>
<!-- Node1&#45;&gt;Node6 -->
<g id="edge5_Node000001_Node000006" class="edge">
<title>Node1&#45;&gt;Node6</title>
<g id="a_edge5_Node000001_Node000006"><a xlink:title=" ">
<path fill="none" stroke="#63b8ff" d="M548.99,-51C571.26,-44.21 596.35,-36.55 617.65,-30.05"/>
<polygon fill="#63b8ff" stroke="#63b8ff" points="547.85,-47.69 539.3,-53.96 549.89,-54.39 547.85,-47.69"/>
</a>
</g>
</g>
<!-- Node2 -->
<g id="Node000002" class="node">
<title>Node2</title>
<g id="a_Node000002"><a xlink:href="../../d7/db4/classcomponents_1_1ComponentBase.html" target="_top" xlink:title="Base class for all application components, it depends on components::Logger and components::Tracer.">
<polygon fill="white" stroke="#666666" points="383,-78.5 220,-78.5 220,-59.5 383,-59.5 383,-78.5"/>
<text text-anchor="middle" x="301.5" y="-66.5" font-family="Helvetica,sans-Serif" font-size="10.00">components::ComponentBase</text>
</a>
</g>
</g>
<!-- Node2&#45;&gt;Node1 -->
<g id="edge1_Node000001_Node000002" class="edge">
<title>Node2&#45;&gt;Node1</title>
<g id="a_edge1_Node000001_Node000002"><a xlink:title=" ">
<path fill="none" stroke="#63b8ff" d="M393.17,-69C401.8,-69 410.47,-69 418.85,-69"/>
<polygon fill="#63b8ff" stroke="#63b8ff" points="393.05,-65.5 383.05,-69 393.05,-72.5 393.05,-65.5"/>
</a>
</g>
</g>
<!-- Node3 -->
<g id="Node000003" class="node">
<title>Node3</title>
<g id="a_Node000003"><a xlink:href="../../d2/d86/classcomponents_1_1RawComponentBase.html" target="_top" xlink:title="The base class for all components. Don&#39;t use it for application components, use ComponentBase instead...">
<polygon fill="white" stroke="#666666" points="184,-78.5 0,-78.5 0,-59.5 184,-59.5 184,-78.5"/>
<text text-anchor="middle" x="92" y="-66.5" font-family="Helvetica,sans-Serif" font-size="10.00">components::RawComponentBase</text>
</a>
</g>
</g>
<!-- Node3&#45;&gt;Node2 -->
<g id="edge2_Node000002_Node000003" class="edge">
<title>Node3&#45;&gt;Node2</title>
<g id="a_edge2_Node000002_Node000003"><a xlink:title=" ">
<path fill="none" stroke="#63b8ff" d="M194.16,-69C202.82,-69 211.51,-69 219.99,-69"/>
<polygon fill="#63b8ff" stroke="#63b8ff" points="194.01,-65.5 184.01,-69 194.01,-72.5 194.01,-65.5"/>
</a>
</g>
</g>
</g>
</svg>
