<?xml version="1.0" encoding="UTF-8" standalone="no"?>
<!DOCTYPE svg PUBLIC "-//W3C//DTD SVG 1.1//EN"
 "http://www.w3.org/Graphics/SVG/1.1/DTD/svg11.dtd">
<!-- Generated by graphviz version 2.43.0 (0)
 -->
<!-- Title: ugrpc::client::MiddlewareComponentBase Pages: 1 -->
<svg width="800pt" height="146pt"
 viewBox="0.00 0.00 800.00 146.00" xmlns="http://www.w3.org/2000/svg" xmlns:xlink="http://www.w3.org/1999/xlink">
<g id="graph0" class="graph" transform="scale(1 1) rotate(0) translate(4 142)">
<title>ugrpc::client::MiddlewareComponentBase</title>
<!-- Node1 -->
<g id="Node000001" class="node">
<title>Node1</title>
<g id="a_Node000001"><a xlink:title="Base class for client middleware component.">
<polygon fill="#999999" stroke="#666666" points="610,-84 470,-84 470,-54 610,-54 610,-84"/>
<text text-anchor="start" x="478" y="-72" font-family="Helvetica,sans-Serif" font-size="10.00">ugrpc::client::Middleware</text>
<text text-anchor="middle" x="540" y="-61" font-family="Helvetica,sans-Serif" font-size="10.00">ComponentBase</text>
</a>
</g>
</g>
<!-- Node4 -->
<g id="Node000004" class="node">
<title>Node4</title>
<g id="a_Node000004"><a xlink:href="../../d6/de9/classugrpc_1_1client_1_1middlewares_1_1baggage_1_1Component.html" target="_top" xlink:title="Component for gRPC client baggage.">
<polygon fill="white" stroke="#666666" points="792,-138 646,-138 646,-108 792,-108 792,-138"/>
<text text-anchor="start" x="654" y="-126" font-family="Helvetica,sans-Serif" font-size="10.00">ugrpc::client::middlewares</text>
<text text-anchor="middle" x="719" y="-115" font-family="Helvetica,sans-Serif" font-size="10.00">::baggage::Component</text>
</a>
</g>
</g>
<!-- Node1&#45;&gt;Node4 -->
<g id="edge3_Node000001_Node000004" class="edge">
<title>Node1&#45;&gt;Node4</title>
<g id="a_edge3_Node000001_Node000004"><a xlink:title=" ">
<path fill="none" stroke="#63b8ff" d="M599.99,-87C622.26,-93.79 647.35,-101.45 668.65,-107.95"/>
<polygon fill="#63b8ff" stroke="#63b8ff" points="600.89,-83.61 590.3,-84.04 598.85,-90.31 600.89,-83.61"/>
</a>
</g>
</g>
<!-- Node5 -->
<g id="Node000005" class="node">
<title>Node5</title>
<g id="a_Node000005"><a xlink:href="../../da/df9/classugrpc_1_1client_1_1middlewares_1_1deadline__propagation_1_1Component.html" target="_top" xlink:title="Component for gRPC client deadline_propagation. Update deadline from TaskInheritedData if it exists a...">
<polygon fill="white" stroke="#666666" points="792,-89.5 646,-89.5 646,-48.5 792,-48.5 792,-89.5"/>
<text text-anchor="start" x="654" y="-77.5" font-family="Helvetica,sans-Serif" font-size="10.00">ugrpc::client::middlewares</text>
<text text-anchor="start" x="654" y="-66.5" font-family="Helvetica,sans-Serif" font-size="10.00">::deadline_propagation::</text>
<text text-anchor="middle" x="719" y="-55.5" font-family="Helvetica,sans-Serif" font-size="10.00">Component</text>
</a>
</g>
</g>
<!-- Node1&#45;&gt;Node5 -->
<g id="edge4_Node000001_Node000005" class="edge">
<title>Node1&#45;&gt;Node5</title>
<g id="a_edge4_Node000001_Node000005"><a xlink:title=" ">
<path fill="none" stroke="#63b8ff" d="M620.47,-69C628.95,-69 637.55,-69 645.94,-69"/>
<polygon fill="#63b8ff" stroke="#63b8ff" points="620.19,-65.5 610.19,-69 620.19,-72.5 620.19,-65.5"/>
</a>
</g>
</g>
<!-- Node6 -->
<g id="Node000006" class="node">
<title>Node6</title>
<g id="a_Node000006"><a xlink:href="../../d2/d09/classugrpc_1_1client_1_1middlewares_1_1log_1_1Component.html" target="_top" xlink:title="Component for gRPC client logging.">
<polygon fill="white" stroke="#666666" points="792,-30 646,-30 646,0 792,0 792,-30"/>
<text text-anchor="start" x="654" y="-18" font-family="Helvetica,sans-Serif" font-size="10.00">ugrpc::client::middlewares</text>
<text text-anchor="middle" x="719" y="-7" font-family="Helvetica,sans-Serif" font-size="10.00">::log::Component</text>
</a>
</g>
</g>
<!-- Node1&#45;&gt;Node6 -->
<g id="edge5_Node000001_Node000006" class="edge">
<title>Node1&#45;&gt;Node6</title>
<g id="a_edge5_Node000001_Node000006"><a xlink:title=" ">
<path fill="none" stroke="#63b8ff" d="M599.99,-51C622.26,-44.21 647.35,-36.55 668.65,-30.05"/>
<polygon fill="#63b8ff" stroke="#63b8ff" points="598.85,-47.69 590.3,-53.96 600.89,-54.39 598.85,-47.69"/>
</a>
</g>
</g>
<!-- Node2 -->
<g id="Node000002" class="node">
<title>Node2</title>
<g id="a_Node000002"><a xlink:href="../../d5/d69/classcomponents_1_1LoggableComponentBase.html" target="_top" xlink:title="Base class for all application components, it depends on components::Logger and components::Tracer.">
<polygon fill="white" stroke="#666666" points="434,-78.5 227,-78.5 227,-59.5 434,-59.5 434,-78.5"/>
<text text-anchor="middle" x="330.5" y="-66.5" font-family="Helvetica,sans-Serif" font-size="10.00">components::LoggableComponentBase</text>
</a>
</g>
</g>
<!-- Node2&#45;&gt;Node1 -->
<g id="edge1_Node000001_Node000002" class="edge">
<title>Node2&#45;&gt;Node1</title>
<g id="a_edge1_Node000001_Node000002"><a xlink:title=" ">
<path fill="none" stroke="#63b8ff" d="M444.28,-69C452.98,-69 461.6,-69 469.89,-69"/>
<polygon fill="#63b8ff" stroke="#63b8ff" points="444.03,-65.5 434.03,-69 444.03,-72.5 444.03,-65.5"/>
</a>
</g>
</g>
<!-- Node3 -->
<g id="Node000003" class="node">
<title>Node3</title>
<g id="a_Node000003"><a xlink:title=" ">
<polygon fill="white" stroke="#666666" points="191,-78.5 0,-78.5 0,-59.5 191,-59.5 191,-78.5"/>
<text text-anchor="middle" x="95.5" y="-66.5" font-family="Helvetica,sans-Serif" font-size="10.00">components::impl::ComponentBase</text>
</a>
</g>
</g>
<!-- Node3&#45;&gt;Node2 -->
<g id="edge2_Node000002_Node000003" class="edge">
<title>Node3&#45;&gt;Node2</title>
<g id="a_edge2_Node000002_Node000003"><a xlink:title=" ">
<path fill="none" stroke="#63b8ff" d="M201.5,-69C209.92,-69 218.43,-69 226.84,-69"/>
<polygon fill="#63b8ff" stroke="#63b8ff" points="201.27,-65.5 191.27,-69 201.27,-72.5 201.27,-65.5"/>
</a>
</g>
</g>
</g>
</svg>
