<?xml version="1.0" encoding="UTF-8" standalone="no"?>
<!DOCTYPE svg PUBLIC "-//W3C//DTD SVG 1.1//EN"
 "http://www.w3.org/Graphics/SVG/1.1/DTD/svg11.dtd">
<!-- Generated by graphviz version 2.43.0 (0)
 -->
<!-- Title: userver/server/handlers/exceptions.hpp Pages: 1 -->
<svg width="2142pt" height="324pt"
 viewBox="0.00 0.00 2142.00 324.00" xmlns="http://www.w3.org/2000/svg" xmlns:xlink="http://www.w3.org/1999/xlink">
<g id="graph0" class="graph" transform="scale(1 1) rotate(0) translate(4 320)">
<title>userver/server/handlers/exceptions.hpp</title>
<!-- Node1 -->
<g id="Node000001" class="node">
<title>Node1</title>
<g id="a_Node000001"><a xlink:title="Helpers for throwing exceptions.">
<polygon fill="#999999" stroke="#666666" points="1308,-316 1176,-316 1176,-286 1308,-286 1308,-316"/>
<text text-anchor="start" x="1184" y="-304" font-family="Helvetica,sans-Serif" font-size="10.00">userver/server/handlers</text>
<text text-anchor="middle" x="1242" y="-293" font-family="Helvetica,sans-Serif" font-size="10.00">/exceptions.hpp</text>
</a>
</g>
</g>
<!-- Node2 -->
<g id="Node000002" class="node">
<title>Node2</title>
<g id="a_Node000002"><a xlink:href="../../da/dff/auth__checker__base_8hpp_source.html" target="_top" xlink:title=" ">
<polygon fill="white" stroke="#666666" points="605,-250 447,-250 447,-220 605,-220 605,-250"/>
<text text-anchor="start" x="455" y="-238" font-family="Helvetica,sans-Serif" font-size="10.00">userver/server/handlers</text>
<text text-anchor="middle" x="526" y="-227" font-family="Helvetica,sans-Serif" font-size="10.00">/auth/auth_checker_base.hpp</text>
</a>
</g>
</g>
<!-- Node1&#45;&gt;Node2 -->
<g id="edge1_Node000001_Node000002" class="edge">
<title>Node1&#45;&gt;Node2</title>
<g id="a_edge1_Node000001_Node000002"><a xlink:title=" ">
<path fill="none" stroke="#63b8ff" d="M1165.96,-293.2C1029.38,-281 743.9,-255.48 605.12,-243.07"/>
<polygon fill="#63b8ff" stroke="#63b8ff" points="1165.65,-296.69 1175.92,-294.09 1166.28,-289.72 1165.65,-296.69"/>
</a>
</g>
</g>
<!-- Node6 -->
<g id="Node000006" class="node">
<title>Node6</title>
<g id="a_Node000006"><a xlink:href="../../df/dd5/handler__base_8hpp.html" target="_top" xlink:title="Base class for the request handlers.">
<polygon fill="white" stroke="#666666" points="1167,-250 1035,-250 1035,-220 1167,-220 1167,-250"/>
<text text-anchor="start" x="1043" y="-238" font-family="Helvetica,sans-Serif" font-size="10.00">userver/server/handlers</text>
<text text-anchor="middle" x="1101" y="-227" font-family="Helvetica,sans-Serif" font-size="10.00">/handler_base.hpp</text>
</a>
</g>
</g>
<!-- Node1&#45;&gt;Node6 -->
<g id="edge5_Node000001_Node000006" class="edge">
<title>Node1&#45;&gt;Node6</title>
<g id="a_edge5_Node000001_Node000006"><a xlink:title=" ">
<path fill="none" stroke="#63b8ff" d="M1201.87,-281.78C1179.64,-271.69 1152.43,-259.34 1131.87,-250.01"/>
<polygon fill="#63b8ff" stroke="#63b8ff" points="1200.5,-285.01 1211.06,-285.95 1203.4,-278.63 1200.5,-285.01"/>
</a>
</g>
</g>
<!-- Node7 -->
<g id="Node000007" class="node">
<title>Node7</title>
<g id="a_Node000007"><a xlink:href="../../d4/df6/http__handler__base_8hpp.html" target="_top" xlink:title="Base class for all the Userver HTTP Handlers.">
<polygon fill="white" stroke="#666666" points="1214,-178.5 1082,-178.5 1082,-148.5 1214,-148.5 1214,-178.5"/>
<text text-anchor="start" x="1090" y="-166.5" font-family="Helvetica,sans-Serif" font-size="10.00">userver/server/handlers</text>
<text text-anchor="middle" x="1148" y="-155.5" font-family="Helvetica,sans-Serif" font-size="10.00">/http_handler_base.hpp</text>
</a>
</g>
</g>
<!-- Node1&#45;&gt;Node7 -->
<g id="edge24_Node000001_Node000007" class="edge">
<title>Node1&#45;&gt;Node7</title>
<g id="a_edge24_Node000001_Node000007"><a xlink:title=" ">
<path fill="none" stroke="#63b8ff" d="M1226.28,-277.33C1206.74,-249.17 1173.99,-201.97 1157.75,-178.55"/>
<polygon fill="#63b8ff" stroke="#63b8ff" points="1223.54,-279.53 1232.12,-285.76 1229.29,-275.54 1223.54,-279.53"/>
</a>
</g>
</g>
<!-- Node25 -->
<g id="Node000025" class="node">
<title>Node25</title>
<g id="a_Node000025"><a xlink:href="../../d3/d0e/json__error__builder_8hpp_source.html" target="_top" xlink:title=" ">
<polygon fill="white" stroke="#666666" points="1355,-250 1223,-250 1223,-220 1355,-220 1355,-250"/>
<text text-anchor="start" x="1231" y="-238" font-family="Helvetica,sans-Serif" font-size="10.00">userver/server/handlers</text>
<text text-anchor="middle" x="1289" y="-227" font-family="Helvetica,sans-Serif" font-size="10.00">/json_error_builder.hpp</text>
</a>
</g>
</g>
<!-- Node1&#45;&gt;Node25 -->
<g id="edge25_Node000001_Node000025" class="edge">
<title>Node1&#45;&gt;Node25</title>
<g id="a_edge25_Node000001_Node000025"><a xlink:title=" ">
<path fill="none" stroke="#63b8ff" d="M1258.5,-277.53C1265.19,-268.43 1272.7,-258.19 1278.6,-250.16"/>
<polygon fill="#63b8ff" stroke="#63b8ff" points="1255.53,-275.66 1252.43,-285.8 1261.17,-279.81 1255.53,-275.66"/>
</a>
</g>
</g>
<!-- Node26 -->
<g id="Node000026" class="node">
<title>Node26</title>
<g id="a_Node000026"><a xlink:href="../../db/d08/legacy__json__error__builder_8hpp_source.html" target="_top" xlink:title=" ">
<polygon fill="white" stroke="#666666" points="1538.5,-250 1373.5,-250 1373.5,-220 1538.5,-220 1538.5,-250"/>
<text text-anchor="start" x="1381.5" y="-238" font-family="Helvetica,sans-Serif" font-size="10.00">userver/server/handlers</text>
<text text-anchor="middle" x="1456" y="-227" font-family="Helvetica,sans-Serif" font-size="10.00">/legacy_json_error_builder.hpp</text>
</a>
</g>
</g>
<!-- Node1&#45;&gt;Node26 -->
<g id="edge26_Node000001_Node000026" class="edge">
<title>Node1&#45;&gt;Node26</title>
<g id="a_edge26_Node000001_Node000026"><a xlink:title=" ">
<path fill="none" stroke="#63b8ff" d="M1298.88,-282.99C1333.31,-272.69 1376.7,-259.72 1409.15,-250.01"/>
<polygon fill="#63b8ff" stroke="#63b8ff" points="1297.54,-279.74 1288.96,-285.95 1299.55,-286.44 1297.54,-279.74"/>
</a>
</g>
</g>
<!-- Node27 -->
<g id="Node000027" class="node">
<title>Node27</title>
<g id="a_Node000027"><a xlink:href="../../da/dfa/http__error_8hpp.html" target="_top" xlink:title="Get http status code mapped to generic handler error code.">
<polygon fill="white" stroke="#666666" points="2009,-178.5 1899,-178.5 1899,-148.5 2009,-148.5 2009,-178.5"/>
<text text-anchor="start" x="1907" y="-166.5" font-family="Helvetica,sans-Serif" font-size="10.00">userver/server/http</text>
<text text-anchor="middle" x="1954" y="-155.5" font-family="Helvetica,sans-Serif" font-size="10.00">/http_error.hpp</text>
</a>
</g>
</g>
<!-- Node1&#45;&gt;Node27 -->
<g id="edge27_Node000001_Node000027" class="edge">
<title>Node1&#45;&gt;Node27</title>
<g id="a_edge27_Node000001_Node000027"><a xlink:title=" ">
<path fill="none" stroke="#63b8ff" d="M1318.25,-288.47C1380.04,-278.89 1469.31,-264.52 1547,-250 1673.33,-226.39 1820.75,-194.28 1898.86,-176.9"/>
<polygon fill="#63b8ff" stroke="#63b8ff" points="1317.54,-285.03 1308.19,-290.02 1318.61,-291.95 1317.54,-285.03"/>
</a>
</g>
</g>
<!-- Node3 -->
<g id="Node000003" class="node">
<title>Node3</title>
<g id="a_Node000003"><a xlink:href="../../db/ddd/auth__checker__factory_8hpp.html" target="_top" xlink:title="Authorization factory registration and base classes.">
<polygon fill="white" stroke="#666666" points="437,-178.5 269,-178.5 269,-148.5 437,-148.5 437,-178.5"/>
<text text-anchor="start" x="277" y="-166.5" font-family="Helvetica,sans-Serif" font-size="10.00">userver/server/handlers</text>
<text text-anchor="middle" x="353" y="-155.5" font-family="Helvetica,sans-Serif" font-size="10.00">/auth/auth_checker_factory.hpp</text>
</a>
</g>
</g>
<!-- Node2&#45;&gt;Node3 -->
<g id="edge2_Node000002_Node000003" class="edge">
<title>Node2&#45;&gt;Node3</title>
<g id="a_edge2_Node000002_Node000003"><a xlink:title=" ">
<path fill="none" stroke="#63b8ff" d="M481.47,-216.11C452.37,-204.42 414.91,-189.37 387.96,-178.54"/>
<polygon fill="#63b8ff" stroke="#63b8ff" points="480.41,-219.46 490.99,-219.94 483.02,-212.96 480.41,-219.46"/>
</a>
</g>
</g>
<!-- Node4 -->
<g id="Node000004" class="node">
<title>Node4</title>
<g id="a_Node000004"><a xlink:href="../../de/d82/digest_2auth__checker__base_8hpp.html" target="_top" xlink:title="Base class for digest authentication checkers. Implements a digest&#45;authentication logic.">
<polygon fill="white" stroke="#666666" points="597,-184 455,-184 455,-143 597,-143 597,-184"/>
<text text-anchor="start" x="463" y="-172" font-family="Helvetica,sans-Serif" font-size="10.00">userver/server/handlers</text>
<text text-anchor="start" x="463" y="-161" font-family="Helvetica,sans-Serif" font-size="10.00">/auth/digest/auth_checker</text>
<text text-anchor="middle" x="526" y="-150" font-family="Helvetica,sans-Serif" font-size="10.00">_base.hpp</text>
</a>
</g>
</g>
<!-- Node2&#45;&gt;Node4 -->
<g id="edge3_Node000002_Node000004" class="edge">
<title>Node2&#45;&gt;Node4</title>
<g id="a_edge3_Node000002_Node000004"><a xlink:title=" ">
<path fill="none" stroke="#63b8ff" d="M526,-209.91C526,-201.47 526,-192.1 526,-184.07"/>
<polygon fill="#63b8ff" stroke="#63b8ff" points="522.5,-209.94 526,-219.94 529.5,-209.94 522.5,-209.94"/>
</a>
</g>
</g>
<!-- Node5 -->
<g id="Node000005" class="node">
<title>Node5</title>
<g id="a_Node000005"><a xlink:href="../../db/df0/standalone__checker_8hpp.html" target="_top" xlink:title="Class for digest authentication checker. Implements a stand&#45;alone digest&#45;authentication logic.">
<polygon fill="white" stroke="#666666" points="132,-107 0,-107 0,-66 132,-66 132,-107"/>
<text text-anchor="start" x="8" y="-95" font-family="Helvetica,sans-Serif" font-size="10.00">userver/server/handlers</text>
<text text-anchor="start" x="8" y="-84" font-family="Helvetica,sans-Serif" font-size="10.00">/auth/digest/standalone</text>
<text text-anchor="middle" x="66" y="-73" font-family="Helvetica,sans-Serif" font-size="10.00">_checker.hpp</text>
</a>
</g>
</g>
<!-- Node4&#45;&gt;Node5 -->
<g id="edge4_Node000004_Node000005" class="edge">
<title>Node4&#45;&gt;Node5</title>
<g id="a_edge4_Node000004_Node000005"><a xlink:title=" ">
<path fill="none" stroke="#63b8ff" d="M445.09,-142.96C309.9,-119.4 272,-131.64 141,-107 138.09,-106.45 135.13,-105.86 132.14,-105.22"/>
<polygon fill="#63b8ff" stroke="#63b8ff" points="444.54,-146.42 455,-144.72 445.76,-139.52 444.54,-146.42"/>
</a>
</g>
</g>
<!-- Node6&#45;&gt;Node7 -->
<g id="edge6_Node000006_Node000007" class="edge">
<title>Node6&#45;&gt;Node7</title>
<g id="a_edge6_Node000006_Node000007"><a xlink:title=" ">
<path fill="none" stroke="#63b8ff" d="M1116.3,-211.38C1123.61,-200.57 1132.14,-187.96 1138.5,-178.54"/>
<polygon fill="#63b8ff" stroke="#63b8ff" points="1113.21,-209.69 1110.51,-219.94 1119.01,-213.61 1113.21,-209.69"/>
</a>
</g>
</g>
<!-- Node8 -->
<g id="Node000008" class="node">
<title>Node8</title>
<g id="a_Node000008"><a xlink:href="../../d6/d0d/dns__client__control_8hpp.html" target="_top" xlink:title="Handlers that controls the DNS client.">
<polygon fill="white" stroke="#666666" points="1984,-101.5 1852,-101.5 1852,-71.5 1984,-71.5 1984,-101.5"/>
<text text-anchor="start" x="1860" y="-89.5" font-family="Helvetica,sans-Serif" font-size="10.00">userver/server/handlers</text>
<text text-anchor="middle" x="1918" y="-78.5" font-family="Helvetica,sans-Serif" font-size="10.00">/dns_client_control.hpp</text>
</a>
</g>
</g>
<!-- Node7&#45;&gt;Node8 -->
<g id="edge7_Node000007_Node000008" class="edge">
<title>Node7&#45;&gt;Node8</title>
<g id="a_edge7_Node000007_Node000008"><a xlink:title=" ">
<path fill="none" stroke="#63b8ff" d="M1224.24,-160.76C1352.72,-156.86 1620.16,-144.57 1843,-107 1851.49,-105.57 1860.42,-103.63 1869.05,-101.54"/>
<polygon fill="#63b8ff" stroke="#63b8ff" points="1224,-157.27 1214.11,-161.06 1224.21,-164.26 1224,-157.27"/>
</a>
</g>
</g>
<!-- Node9 -->
<g id="Node000009" class="node">
<title>Node9</title>
<g id="a_Node000009"><a xlink:href="../../d6/dc0/dynamic__debug__log_8hpp.html" target="_top" xlink:title="HTTP Handler to show/hide logs at the specific file:line.">
<polygon fill="white" stroke="#666666" points="288,-101.5 150,-101.5 150,-71.5 288,-71.5 288,-101.5"/>
<text text-anchor="start" x="158" y="-89.5" font-family="Helvetica,sans-Serif" font-size="10.00">userver/server/handlers</text>
<text text-anchor="middle" x="219" y="-78.5" font-family="Helvetica,sans-Serif" font-size="10.00">/dynamic_debug_log.hpp</text>
</a>
</g>
</g>
<!-- Node7&#45;&gt;Node9 -->
<g id="edge8_Node000007_Node000009" class="edge">
<title>Node7&#45;&gt;Node9</title>
<g id="a_edge8_Node000007_Node000009"><a xlink:title=" ">
<path fill="none" stroke="#63b8ff" d="M1071.45,-162.11C921.77,-160.32 580.2,-151.27 297,-107 288.04,-105.6 278.6,-103.65 269.5,-101.53"/>
<polygon fill="#63b8ff" stroke="#63b8ff" points="1071.85,-165.61 1081.89,-162.22 1071.93,-158.61 1071.85,-165.61"/>
</a>
</g>
</g>
<!-- Node10 -->
<g id="Node000010" class="node">
<title>Node10</title>
<g id="a_Node000010"><a xlink:href="../../d5/d4d/http__handler__flatbuf__base_8hpp.html" target="_top" xlink:title="Convenient base for handlers that accept requests with body in Flatbuffer format and respond with bod...">
<polygon fill="white" stroke="#666666" points="2134,-107 2002,-107 2002,-66 2134,-66 2134,-107"/>
<text text-anchor="start" x="2010" y="-95" font-family="Helvetica,sans-Serif" font-size="10.00">userver/server/handlers</text>
<text text-anchor="start" x="2010" y="-84" font-family="Helvetica,sans-Serif" font-size="10.00">/http_handler_flatbuf</text>
<text text-anchor="middle" x="2068" y="-73" font-family="Helvetica,sans-Serif" font-size="10.00">_base.hpp</text>
</a>
</g>
</g>
<!-- Node7&#45;&gt;Node10 -->
<g id="edge9_Node000007_Node000010" class="edge">
<title>Node7&#45;&gt;Node10</title>
<g id="a_edge9_Node000007_Node000010"><a xlink:title=" ">
<path fill="none" stroke="#63b8ff" d="M1224.61,-162.29C1373.59,-160.82 1712.36,-152.28 1993,-107 1995.92,-106.53 1998.9,-105.99 2001.89,-105.41"/>
<polygon fill="#63b8ff" stroke="#63b8ff" points="1224.18,-158.79 1214.22,-162.38 1224.25,-165.79 1224.18,-158.79"/>
</a>
</g>
</g>
<!-- Node11 -->
<g id="Node000011" class="node">
<title>Node11</title>
<g id="a_Node000011"><a xlink:href="../../d1/d58/http__handler__json__base_8hpp.html" target="_top" xlink:title="Convenient base for handlers that accept requests with body in JSON format and respond with body in J...">
<polygon fill="white" stroke="#666666" points="462,-101.5 306,-101.5 306,-71.5 462,-71.5 462,-101.5"/>
<text text-anchor="start" x="314" y="-89.5" font-family="Helvetica,sans-Serif" font-size="10.00">userver/server/handlers</text>
<text text-anchor="middle" x="384" y="-78.5" font-family="Helvetica,sans-Serif" font-size="10.00">/http_handler_json_base.hpp</text>
</a>
</g>
</g>
<!-- Node7&#45;&gt;Node11 -->
<g id="edge10_Node000007_Node000011" class="edge">
<title>Node7&#45;&gt;Node11</title>
<g id="a_edge10_Node000007_Node000011"><a xlink:title=" ">
<path fill="none" stroke="#63b8ff" d="M1071.52,-159.69C945.67,-154.29 687.3,-139.94 471,-107 461.36,-105.53 451.19,-103.61 441.35,-101.53"/>
<polygon fill="#63b8ff" stroke="#63b8ff" points="1071.68,-163.2 1081.82,-160.12 1071.97,-156.2 1071.68,-163.2"/>
</a>
</g>
</g>
<!-- Node15 -->
<g id="Node000015" class="node">
<title>Node15</title>
<g id="a_Node000015"><a xlink:href="../../dd/db6/http__handler__static_8hpp.html" target="_top" xlink:title="Handler that returns HTTP 200 if file exist and returns file data with mapped content/type.">
<polygon fill="white" stroke="#666666" points="614,-101.5 480,-101.5 480,-71.5 614,-71.5 614,-101.5"/>
<text text-anchor="start" x="488" y="-89.5" font-family="Helvetica,sans-Serif" font-size="10.00">userver/server/handlers</text>
<text text-anchor="middle" x="547" y="-78.5" font-family="Helvetica,sans-Serif" font-size="10.00">/http_handler_static.hpp</text>
</a>
</g>
</g>
<!-- Node7&#45;&gt;Node15 -->
<g id="edge14_Node000007_Node000015" class="edge">
<title>Node7&#45;&gt;Node15</title>
<g id="a_edge14_Node000007_Node000015"><a xlink:title=" ">
<path fill="none" stroke="#63b8ff" d="M1071.4,-157.92C968.72,-150.97 781.06,-135.48 623,-107 614.69,-105.5 605.94,-103.59 597.47,-101.54"/>
<polygon fill="#63b8ff" stroke="#63b8ff" points="1071.46,-161.43 1081.67,-158.6 1071.93,-154.44 1071.46,-161.43"/>
</a>
</g>
</g>
<!-- Node16 -->
<g id="Node000016" class="node">
<title>Node16</title>
<g id="a_Node000016"><a xlink:href="../../d7/db3/implicit__options_8hpp.html" target="_top" xlink:title="A &quot;magical&quot; handler that will respond to OPTIONS HTTP method for any other handler that cannot handle...">
<polygon fill="white" stroke="#666666" points="764,-101.5 632,-101.5 632,-71.5 764,-71.5 764,-101.5"/>
<text text-anchor="start" x="640" y="-89.5" font-family="Helvetica,sans-Serif" font-size="10.00">userver/server/handlers</text>
<text text-anchor="middle" x="698" y="-78.5" font-family="Helvetica,sans-Serif" font-size="10.00">/implicit_options.hpp</text>
</a>
</g>
</g>
<!-- Node7&#45;&gt;Node16 -->
<g id="edge15_Node000007_Node000016" class="edge">
<title>Node7&#45;&gt;Node16</title>
<g id="a_edge15_Node000007_Node000016"><a xlink:title=" ">
<path fill="none" stroke="#63b8ff" d="M1071.95,-153.68C995.89,-144.29 875.77,-127.9 773,-107 765.22,-105.42 757.04,-103.53 749.07,-101.56"/>
<polygon fill="#63b8ff" stroke="#63b8ff" points="1071.57,-157.16 1081.92,-154.9 1072.42,-150.21 1071.57,-157.16"/>
</a>
</g>
</g>
<!-- Node17 -->
<g id="Node000017" class="node">
<title>Node17</title>
<g id="a_Node000017"><a xlink:href="../../d5/d86/jemalloc_8hpp.html" target="_top" xlink:title="Handler that controls the jemalloc allocator.">
<polygon fill="white" stroke="#666666" points="914,-101.5 782,-101.5 782,-71.5 914,-71.5 914,-101.5"/>
<text text-anchor="start" x="790" y="-89.5" font-family="Helvetica,sans-Serif" font-size="10.00">userver/server/handlers</text>
<text text-anchor="middle" x="848" y="-78.5" font-family="Helvetica,sans-Serif" font-size="10.00">/jemalloc.hpp</text>
</a>
</g>
</g>
<!-- Node7&#45;&gt;Node17 -->
<g id="edge16_Node000007_Node000017" class="edge">
<title>Node7&#45;&gt;Node17</title>
<g id="a_edge16_Node000007_Node000017"><a xlink:title=" ">
<path fill="none" stroke="#63b8ff" d="M1080.27,-146.03C1035.58,-135.1 975.76,-120.36 923,-107 916.09,-105.25 908.82,-103.39 901.65,-101.54"/>
<polygon fill="#63b8ff" stroke="#63b8ff" points="1079.6,-149.47 1090.15,-148.44 1081.26,-142.67 1079.6,-149.47"/>
</a>
</g>
</g>
<!-- Node18 -->
<g id="Node000018" class="node">
<title>Node18</title>
<g id="a_Node000018"><a xlink:href="../../d0/d01/log__level_8hpp.html" target="_top" xlink:title="Handler that controls logging levels of all the loggers.">
<polygon fill="white" stroke="#666666" points="1064,-101.5 932,-101.5 932,-71.5 1064,-71.5 1064,-101.5"/>
<text text-anchor="start" x="940" y="-89.5" font-family="Helvetica,sans-Serif" font-size="10.00">userver/server/handlers</text>
<text text-anchor="middle" x="998" y="-78.5" font-family="Helvetica,sans-Serif" font-size="10.00">/log_level.hpp</text>
</a>
</g>
</g>
<!-- Node7&#45;&gt;Node18 -->
<g id="edge17_Node000007_Node000018" class="edge">
<title>Node7&#45;&gt;Node18</title>
<g id="a_edge17_Node000007_Node000018"><a xlink:title=" ">
<path fill="none" stroke="#63b8ff" d="M1110.54,-143.77C1084.35,-130.68 1049.93,-113.47 1026.09,-101.54"/>
<polygon fill="#63b8ff" stroke="#63b8ff" points="1109.28,-147.05 1119.79,-148.39 1112.41,-140.79 1109.28,-147.05"/>
</a>
</g>
</g>
<!-- Node19 -->
<g id="Node000019" class="node">
<title>Node19</title>
<g id="a_Node000019"><a xlink:href="../../d7/d72/on__log__rotate_8hpp.html" target="_top" xlink:title="Handler that controls logging levels of all the loggers.">
<polygon fill="white" stroke="#666666" points="1214,-101.5 1082,-101.5 1082,-71.5 1214,-71.5 1214,-101.5"/>
<text text-anchor="start" x="1090" y="-89.5" font-family="Helvetica,sans-Serif" font-size="10.00">userver/server/handlers</text>
<text text-anchor="middle" x="1148" y="-78.5" font-family="Helvetica,sans-Serif" font-size="10.00">/on_log_rotate.hpp</text>
</a>
</g>
</g>
<!-- Node7&#45;&gt;Node19 -->
<g id="edge18_Node000007_Node000019" class="edge">
<title>Node7&#45;&gt;Node19</title>
<g id="a_edge18_Node000007_Node000019"><a xlink:title=" ">
<path fill="none" stroke="#63b8ff" d="M1148,-138.04C1148,-125.95 1148,-111.79 1148,-101.54"/>
<polygon fill="#63b8ff" stroke="#63b8ff" points="1144.5,-138.39 1148,-148.39 1151.5,-138.39 1144.5,-138.39"/>
</a>
</g>
</g>
<!-- Node20 -->
<g id="Node000020" class="node">
<title>Node20</title>
<g id="a_Node000020"><a xlink:href="../../d8/d39/ping_8hpp.html" target="_top" xlink:title="Handler that returns HTTP 200 if the service is OK and able to process requests.">
<polygon fill="white" stroke="#666666" points="1364,-101.5 1232,-101.5 1232,-71.5 1364,-71.5 1364,-101.5"/>
<text text-anchor="start" x="1240" y="-89.5" font-family="Helvetica,sans-Serif" font-size="10.00">userver/server/handlers</text>
<text text-anchor="middle" x="1298" y="-78.5" font-family="Helvetica,sans-Serif" font-size="10.00">/ping.hpp</text>
</a>
</g>
</g>
<!-- Node7&#45;&gt;Node20 -->
<g id="edge19_Node000007_Node000020" class="edge">
<title>Node7&#45;&gt;Node20</title>
<g id="a_edge19_Node000007_Node000020"><a xlink:title=" ">
<path fill="none" stroke="#63b8ff" d="M1185.46,-143.77C1211.65,-130.68 1246.07,-113.47 1269.91,-101.54"/>
<polygon fill="#63b8ff" stroke="#63b8ff" points="1183.59,-140.79 1176.21,-148.39 1186.72,-147.05 1183.59,-140.79"/>
</a>
</g>
</g>
<!-- Node21 -->
<g id="Node000021" class="node">
<title>Node21</title>
<g id="a_Node000021"><a xlink:href="../../de/d18/server__monitor_8hpp.html" target="_top" xlink:title="Handler that returns statistics data.">
<polygon fill="white" stroke="#666666" points="1514,-101.5 1382,-101.5 1382,-71.5 1514,-71.5 1514,-101.5"/>
<text text-anchor="start" x="1390" y="-89.5" font-family="Helvetica,sans-Serif" font-size="10.00">userver/server/handlers</text>
<text text-anchor="middle" x="1448" y="-78.5" font-family="Helvetica,sans-Serif" font-size="10.00">/server_monitor.hpp</text>
</a>
</g>
</g>
<!-- Node7&#45;&gt;Node21 -->
<g id="edge20_Node000007_Node000021" class="edge">
<title>Node7&#45;&gt;Node21</title>
<g id="a_edge20_Node000007_Node000021"><a xlink:title=" ">
<path fill="none" stroke="#63b8ff" d="M1215.73,-146.03C1260.42,-135.1 1320.24,-120.36 1373,-107 1379.91,-105.25 1387.18,-103.39 1394.35,-101.54"/>
<polygon fill="#63b8ff" stroke="#63b8ff" points="1214.74,-142.67 1205.85,-148.44 1216.4,-149.47 1214.74,-142.67"/>
</a>
</g>
</g>
<!-- Node22 -->
<g id="Node000022" class="node">
<title>Node22</title>
<g id="a_Node000022"><a xlink:href="../../d8/d82/core_2include_2userver_2server_2server_8hpp_source.html" target="_top" xlink:title=" ">
<polygon fill="white" stroke="#666666" points="1673.5,-96 1532.5,-96 1532.5,-77 1673.5,-77 1673.5,-96"/>
<text text-anchor="middle" x="1603" y="-84" font-family="Helvetica,sans-Serif" font-size="10.00">userver/server/server.hpp</text>
</a>
</g>
</g>
<!-- Node7&#45;&gt;Node22 -->
<g id="edge21_Node000007_Node000022" class="edge">
<title>Node7&#45;&gt;Node22</title>
<g id="a_edge21_Node000007_Node000022"><a xlink:title=" ">
<path fill="none" stroke="#63b8ff" d="M1223.99,-153.34C1299.99,-143.69 1420.08,-127.12 1523,-107 1538.85,-103.9 1556.3,-99.74 1570.84,-96.06"/>
<polygon fill="#63b8ff" stroke="#63b8ff" points="1223.51,-149.88 1214.02,-154.6 1224.38,-156.82 1223.51,-149.88"/>
</a>
</g>
</g>
<!-- Node24 -->
<g id="Node000024" class="node">
<title>Node24</title>
<g id="a_Node000024"><a xlink:href="../../d4/d64/websocket__handler_8hpp.html" target="_top" xlink:title=" ">
<polygon fill="white" stroke="#666666" points="1834,-101.5 1692,-101.5 1692,-71.5 1834,-71.5 1834,-101.5"/>
<text text-anchor="start" x="1700" y="-89.5" font-family="Helvetica,sans-Serif" font-size="10.00">userver/server/websocket</text>
<text text-anchor="middle" x="1763" y="-78.5" font-family="Helvetica,sans-Serif" font-size="10.00">/websocket_handler.hpp</text>
</a>
</g>
</g>
<!-- Node7&#45;&gt;Node24 -->
<g id="edge23_Node000007_Node000024" class="edge">
<title>Node7&#45;&gt;Node24</title>
<g id="a_edge23_Node000007_Node000024"><a xlink:title=" ">
<path fill="none" stroke="#63b8ff" d="M1224.25,-157.77C1328.26,-150.59 1520.19,-134.76 1682,-107 1690.84,-105.48 1700.15,-103.56 1709.18,-101.51"/>
<polygon fill="#63b8ff" stroke="#63b8ff" points="1223.89,-154.29 1214.15,-158.46 1224.37,-161.27 1223.89,-154.29"/>
</a>
</g>
</g>
<!-- Node12 -->
<g id="Node000012" class="node">
<title>Node12</title>
<g id="a_Node000012"><a xlink:href="../../d5/ded/handler_8hpp_source.html" target="_top" xlink:title=" ">
<polygon fill="white" stroke="#666666" points="612,-24.5 468,-24.5 468,-5.5 612,-5.5 612,-24.5"/>
<text text-anchor="middle" x="540" y="-12.5" font-family="Helvetica,sans-Serif" font-size="10.00">userver/alerts/handler.hpp</text>
</a>
</g>
</g>
<!-- Node11&#45;&gt;Node12 -->
<g id="edge11_Node000011_Node000012" class="edge">
<title>Node11&#45;&gt;Node12</title>
<g id="a_edge11_Node000011_Node000012"><a xlink:title=" ">
<path fill="none" stroke="#63b8ff" d="M424.82,-67.31C455.79,-53.52 496.97,-35.17 520.77,-24.57"/>
<polygon fill="#63b8ff" stroke="#63b8ff" points="423.28,-64.17 415.57,-71.44 426.13,-70.56 423.28,-64.17"/>
</a>
</g>
</g>
<!-- Node13 -->
<g id="Node000013" class="node">
<title>Node13</title>
<g id="a_Node000013"><a xlink:href="../../d7/d79/inspect__requests_8hpp.html" target="_top" xlink:title="Handler that returns information about all in&#45;flight requests.">
<polygon fill="white" stroke="#666666" points="300,-30 168,-30 168,0 300,0 300,-30"/>
<text text-anchor="start" x="176" y="-18" font-family="Helvetica,sans-Serif" font-size="10.00">userver/server/handlers</text>
<text text-anchor="middle" x="234" y="-7" font-family="Helvetica,sans-Serif" font-size="10.00">/inspect_requests.hpp</text>
</a>
</g>
</g>
<!-- Node11&#45;&gt;Node13 -->
<g id="edge12_Node000011_Node000013" class="edge">
<title>Node11&#45;&gt;Node13</title>
<g id="a_edge12_Node000011_Node000013"><a xlink:title=" ">
<path fill="none" stroke="#63b8ff" d="M344.4,-67.15C319.32,-55.53 287.37,-40.73 264.31,-30.04"/>
<polygon fill="#63b8ff" stroke="#63b8ff" points="343.1,-70.41 353.65,-71.44 346.04,-64.06 343.1,-70.41"/>
</a>
</g>
</g>
<!-- Node14 -->
<g id="Node000014" class="node">
<title>Node14</title>
<g id="a_Node000014"><a xlink:href="../../d6/d43/tests__control_8hpp.html" target="_top" xlink:title="Handler that allows to control the behavior of server from tests, and functional tests with testsuite...">
<polygon fill="white" stroke="#666666" points="450,-30 318,-30 318,0 450,0 450,-30"/>
<text text-anchor="start" x="326" y="-18" font-family="Helvetica,sans-Serif" font-size="10.00">userver/server/handlers</text>
<text text-anchor="middle" x="384" y="-7" font-family="Helvetica,sans-Serif" font-size="10.00">/tests_control.hpp</text>
</a>
</g>
</g>
<!-- Node11&#45;&gt;Node14 -->
<g id="edge13_Node000011_Node000014" class="edge">
<title>Node11&#45;&gt;Node14</title>
<g id="a_edge13_Node000011_Node000014"><a xlink:title=" ">
<path fill="none" stroke="#63b8ff" d="M384,-61.25C384,-50.81 384,-38.99 384,-30.04"/>
<polygon fill="#63b8ff" stroke="#63b8ff" points="380.5,-61.44 384,-71.44 387.5,-61.44 380.5,-61.44"/>
</a>
</g>
</g>
<!-- Node23 -->
<g id="Node000023" class="node">
<title>Node23</title>
<g id="a_Node000023"><a xlink:href="../../d3/ddd/core_2include_2userver_2server_2component_8hpp.html" target="_top" xlink:title="Component that listens for incoming requests, manages incoming connections and passes the requests to...">
<polygon fill="white" stroke="#666666" points="1686,-24.5 1520,-24.5 1520,-5.5 1686,-5.5 1686,-24.5"/>
<text text-anchor="middle" x="1603" y="-12.5" font-family="Helvetica,sans-Serif" font-size="10.00">userver/server/component.hpp</text>
</a>
</g>
</g>
<!-- Node22&#45;&gt;Node23 -->
<g id="edge22_Node000022_Node000023" class="edge">
<title>Node22&#45;&gt;Node23</title>
<g id="a_edge22_Node000022_Node000023"><a xlink:title=" ">
<path fill="none" stroke="#63b8ff" d="M1603,-66.71C1603,-53 1603,-35.05 1603,-24.59"/>
<polygon fill="#63b8ff" stroke="#63b8ff" points="1599.5,-66.98 1603,-76.98 1606.5,-66.98 1599.5,-66.98"/>
</a>
</g>
</g>
<!-- Node27&#45;&gt;Node10 -->
<g id="edge28_Node000027_Node000010" class="edge">
<title>Node27&#45;&gt;Node10</title>
<g id="a_edge28_Node000027_Node000010"><a xlink:title=" ">
<path fill="none" stroke="#63b8ff" d="M1984.23,-142.61C2000.87,-131.66 2021.45,-118.12 2038.05,-107.2"/>
<polygon fill="#63b8ff" stroke="#63b8ff" points="1981.87,-139.97 1975.44,-148.39 1985.72,-145.82 1981.87,-139.97"/>
</a>
</g>
</g>
</g>
</svg>
