<?xml version="1.0" encoding="UTF-8" standalone="no"?>
<!DOCTYPE svg PUBLIC "-//W3C//DTD SVG 1.1//EN"
 "http://www.w3.org/Graphics/SVG/1.1/DTD/svg11.dtd">
<!-- Generated by graphviz version 2.43.0 (0)
 -->
<!-- Title: userver/clients/http/response.hpp Pages: 1 -->
<svg width="1938pt" height="346pt"
 viewBox="0.00 0.00 1937.55 346.00" xmlns="http://www.w3.org/2000/svg" xmlns:xlink="http://www.w3.org/1999/xlink">
<g id="graph0" class="graph" transform="scale(1 1) rotate(0) translate(4 342)">
<title>userver/clients/http/response.hpp</title>
<!-- Node1 -->
<g id="Node000001" class="node">
<title>Node1</title>
<g id="a_Node000001"><a xlink:title="Class that will be returned for successful request.">
<polygon fill="#999999" stroke="#666666" points="475.5,-338 364.5,-338 364.5,-308 475.5,-308 475.5,-338"/>
<text text-anchor="start" x="372.5" y="-326" font-family="Helvetica,sans-Serif" font-size="10.00">userver/clients/http</text>
<text text-anchor="middle" x="420" y="-315" font-family="Helvetica,sans-Serif" font-size="10.00">/response.hpp</text>
</a>
</g>
</g>
<!-- Node2 -->
<g id="Node000002" class="node">
<title>Node2</title>
<g id="a_Node000002"><a xlink:title=" ">
<polygon fill="#e0e0e0" stroke="#999999" points="48,-266.5 0,-266.5 0,-247.5 48,-247.5 48,-266.5"/>
<text text-anchor="middle" x="24" y="-254.5" font-family="Helvetica,sans-Serif" font-size="10.00">iosfwd</text>
</a>
</g>
</g>
<!-- Node1&#45;&gt;Node2 -->
<g id="edge1_Node000001_Node000002" class="edge">
<title>Node1&#45;&gt;Node2</title>
<g id="a_edge1_Node000001_Node000002"><a xlink:title=" ">
<path fill="none" stroke="#63b8ff" d="M364.41,-317.95C293.41,-311.93 167.15,-298.39 62,-272 59.49,-271.37 56.92,-270.63 54.36,-269.83"/>
<polygon fill="#63b8ff" stroke="#63b8ff" points="55.25,-266.44 44.65,-266.52 52.99,-273.06 55.25,-266.44"/>
</a>
</g>
</g>
<!-- Node3 -->
<g id="Node000003" class="node">
<title>Node3</title>
<g id="a_Node000003"><a xlink:title=" ">
<polygon fill="#e0e0e0" stroke="#999999" points="1261,-19 1217,-19 1217,0 1261,0 1261,-19"/>
<text text-anchor="middle" x="1239" y="-7" font-family="Helvetica,sans-Serif" font-size="10.00">string</text>
</a>
</g>
</g>
<!-- Node1&#45;&gt;Node3 -->
<g id="edge2_Node000001_Node000003" class="edge">
<title>Node1&#45;&gt;Node3</title>
<g id="a_edge2_Node000001_Node000003"><a xlink:title=" ">
<path fill="none" stroke="#63b8ff" d="M364.35,-312.84C266.99,-295.22 76,-252.89 76,-192 76,-192 76,-192 76,-124 76,-79.25 -166.53,-132.12 263,-55 667.95,17.7 778.72,-60.9 1188,-19 1194.12,-18.37 1200.62,-17.47 1206.86,-16.49"/>
<polygon fill="#63b8ff" stroke="#63b8ff" points="1207.71,-19.9 1216.99,-14.79 1206.55,-12.99 1207.71,-19.9"/>
</a>
</g>
</g>
<!-- Node4 -->
<g id="Node000004" class="node">
<title>Node4</title>
<g id="a_Node000004"><a xlink:href="../../d9/d99/error_8hpp_source.html" target="_top" xlink:title=" ">
<polygon fill="white" stroke="#666666" points="361.5,-206 250.5,-206 250.5,-176 361.5,-176 361.5,-206"/>
<text text-anchor="start" x="258.5" y="-194" font-family="Helvetica,sans-Serif" font-size="10.00">userver/clients/http</text>
<text text-anchor="middle" x="306" y="-183" font-family="Helvetica,sans-Serif" font-size="10.00">/error.hpp</text>
</a>
</g>
</g>
<!-- Node1&#45;&gt;Node4 -->
<g id="edge3_Node000001_Node000004" class="edge">
<title>Node1&#45;&gt;Node4</title>
<g id="a_edge3_Node000001_Node000004"><a xlink:title=" ">
<path fill="none" stroke="#63b8ff" d="M407.58,-307.84C387.71,-285.18 348.61,-240.6 325.14,-213.83"/>
<polygon fill="#63b8ff" stroke="#63b8ff" points="327.63,-211.35 318.4,-206.14 322.36,-215.97 327.63,-211.35"/>
</a>
</g>
</g>
<!-- Node8 -->
<g id="Node000008" class="node">
<title>Node8</title>
<g id="a_Node000008"><a xlink:href="../../df/d78/local__stats_8hpp_source.html" target="_top" xlink:title=" ">
<polygon fill="white" stroke="#666666" points="475.5,-140 364.5,-140 364.5,-110 475.5,-110 475.5,-140"/>
<text text-anchor="start" x="372.5" y="-128" font-family="Helvetica,sans-Serif" font-size="10.00">userver/clients/http</text>
<text text-anchor="middle" x="420" y="-117" font-family="Helvetica,sans-Serif" font-size="10.00">/local_stats.hpp</text>
</a>
</g>
</g>
<!-- Node1&#45;&gt;Node8 -->
<g id="edge11_Node000001_Node000008" class="edge">
<title>Node1&#45;&gt;Node8</title>
<g id="a_edge11_Node000001_Node000008"><a xlink:title=" ">
<path fill="none" stroke="#63b8ff" d="M420,-307.9C420,-274.79 420,-191.7 420,-150.27"/>
<polygon fill="#63b8ff" stroke="#63b8ff" points="423.5,-150.23 420,-140.23 416.5,-150.23 423.5,-150.23"/>
</a>
</g>
</g>
<!-- Node11 -->
<g id="Node000011" class="node">
<title>Node11</title>
<g id="a_Node000011"><a xlink:href="../../d4/d81/header__map_8hpp_source.html" target="_top" xlink:title=" ">
<polygon fill="white" stroke="#666666" points="898.5,-272 785.5,-272 785.5,-242 898.5,-242 898.5,-272"/>
<text text-anchor="start" x="793.5" y="-260" font-family="Helvetica,sans-Serif" font-size="10.00">userver/http/header</text>
<text text-anchor="middle" x="842" y="-249" font-family="Helvetica,sans-Serif" font-size="10.00">_map.hpp</text>
</a>
</g>
</g>
<!-- Node1&#45;&gt;Node11 -->
<g id="edge12_Node000001_Node000011" class="edge">
<title>Node1&#45;&gt;Node11</title>
<g id="a_edge12_Node000001_Node000011"><a xlink:title=" ">
<path fill="none" stroke="#63b8ff" d="M475.6,-313.57C552.84,-301.85 692.42,-280.69 775.21,-268.13"/>
<polygon fill="#63b8ff" stroke="#63b8ff" points="775.9,-271.56 785.26,-266.6 774.85,-264.64 775.9,-271.56"/>
</a>
</g>
</g>
<!-- Node33 -->
<g id="Node000033" class="node">
<title>Node33</title>
<g id="a_Node000033"><a xlink:href="../../d2/dd7/http__response__cookie_8hpp.html" target="_top" xlink:title="HTTP response cookie.">
<polygon fill="white" stroke="#666666" points="1755.5,-272 1608.5,-272 1608.5,-242 1755.5,-242 1755.5,-272"/>
<text text-anchor="start" x="1616.5" y="-260" font-family="Helvetica,sans-Serif" font-size="10.00">userver/server/http</text>
<text text-anchor="middle" x="1682" y="-249" font-family="Helvetica,sans-Serif" font-size="10.00">/http_response_cookie.hpp</text>
</a>
</g>
</g>
<!-- Node1&#45;&gt;Node33 -->
<g id="edge47_Node000001_Node000033" class="edge">
<title>Node1&#45;&gt;Node33</title>
<g id="a_edge47_Node000001_Node000033"><a xlink:title=" ">
<path fill="none" stroke="#63b8ff" d="M475.85,-319.17C676.07,-309.01 1358.58,-274.4 1598.09,-262.26"/>
<polygon fill="#63b8ff" stroke="#63b8ff" points="1598.33,-265.75 1608.14,-261.75 1597.97,-258.76 1598.33,-265.75"/>
</a>
</g>
</g>
<!-- Node36 -->
<g id="Node000036" class="node">
<title>Node36</title>
<g id="a_Node000036"><a xlink:href="../../d1/d46/str__icase_8hpp.html" target="_top" xlink:title="Case insensitive ASCII comparators and hashers.">
<polygon fill="white" stroke="#666666" points="1879.5,-134.5 1734.5,-134.5 1734.5,-115.5 1879.5,-115.5 1879.5,-134.5"/>
<text text-anchor="middle" x="1807" y="-122.5" font-family="Helvetica,sans-Serif" font-size="10.00">userver/utils/str_icase.hpp</text>
</a>
</g>
</g>
<!-- Node1&#45;&gt;Node36 -->
<g id="edge58_Node000001_Node000036" class="edge">
<title>Node1&#45;&gt;Node36</title>
<g id="a_edge58_Node000001_Node000036"><a xlink:title=" ">
<path fill="none" stroke="#63b8ff" d="M475.74,-321.1C713.67,-317.08 1637.88,-299.8 1765,-272 1839.75,-255.65 1881.52,-269.63 1924,-206 1945.95,-173.13 1894.29,-150.01 1852.76,-137.35"/>
<polygon fill="#63b8ff" stroke="#63b8ff" points="1853.59,-133.95 1843.01,-134.51 1851.63,-140.67 1853.59,-133.95"/>
</a>
</g>
</g>
<!-- Node4&#45;&gt;Node3 -->
<g id="edge5_Node000004_Node000003" class="edge">
<title>Node4&#45;&gt;Node3</title>
<g id="a_edge5_Node000004_Node000003"><a xlink:title=" ">
<path fill="none" stroke="#63b8ff" d="M272.22,-175.85C257.35,-167.71 241.38,-155.9 233,-140 226.78,-128.21 226.51,-121.65 233,-110 255.64,-69.39 277.54,-68.63 322,-55 506.15,1.47 996.42,-38.87 1188,-19 1194.12,-18.37 1200.62,-17.46 1206.86,-16.48"/>
<polygon fill="#63b8ff" stroke="#63b8ff" points="1207.71,-19.88 1216.99,-14.78 1206.55,-12.98 1207.71,-19.88"/>
</a>
</g>
</g>
<!-- Node5 -->
<g id="Node000005" class="node">
<title>Node5</title>
<g id="a_Node000005"><a xlink:title=" ">
<polygon fill="#e0e0e0" stroke="#999999" points="307.5,-134.5 242.5,-134.5 242.5,-115.5 307.5,-115.5 307.5,-134.5"/>
<text text-anchor="middle" x="275" y="-122.5" font-family="Helvetica,sans-Serif" font-size="10.00">exception</text>
</a>
</g>
</g>
<!-- Node4&#45;&gt;Node5 -->
<g id="edge4_Node000004_Node000005" class="edge">
<title>Node4&#45;&gt;Node5</title>
<g id="a_edge4_Node000004_Node000005"><a xlink:title=" ">
<path fill="none" stroke="#63b8ff" d="M299.12,-175.8C294.57,-166.41 288.57,-154.02 283.69,-143.95"/>
<polygon fill="#63b8ff" stroke="#63b8ff" points="286.79,-142.32 279.28,-134.84 280.49,-145.37 286.79,-142.32"/>
</a>
</g>
</g>
<!-- Node6 -->
<g id="Node000006" class="node">
<title>Node6</title>
<g id="a_Node000006"><a xlink:title=" ">
<polygon fill="#e0e0e0" stroke="#999999" points="1473.5,-19 1400.5,-19 1400.5,0 1473.5,0 1473.5,-19"/>
<text text-anchor="middle" x="1437" y="-7" font-family="Helvetica,sans-Serif" font-size="10.00">string_view</text>
</a>
</g>
</g>
<!-- Node4&#45;&gt;Node6 -->
<g id="edge6_Node000004_Node000006" class="edge">
<title>Node4&#45;&gt;Node6</title>
<g id="a_edge6_Node000004_Node000006"><a xlink:title=" ">
<path fill="none" stroke="#63b8ff" d="M310.95,-175.72C318.02,-157.53 332.77,-126.51 356,-110 445.91,-46.11 488.75,-70.2 598,-55 617.75,-52.25 1216.52,-21.7 1390.21,-12.87"/>
<polygon fill="#63b8ff" stroke="#63b8ff" points="1390.5,-16.36 1400.31,-12.36 1390.15,-9.37 1390.5,-16.36"/>
</a>
</g>
</g>
<!-- Node7 -->
<g id="Node000007" class="node">
<title>Node7</title>
<g id="a_Node000007"><a xlink:title=" ">
<polygon fill="#e0e0e0" stroke="#999999" points="185.5,-134.5 104.5,-134.5 104.5,-115.5 185.5,-115.5 185.5,-134.5"/>
<text text-anchor="middle" x="145" y="-122.5" font-family="Helvetica,sans-Serif" font-size="10.00">system_error</text>
</a>
</g>
</g>
<!-- Node4&#45;&gt;Node7 -->
<g id="edge7_Node000004_Node000007" class="edge">
<title>Node4&#45;&gt;Node7</title>
<g id="a_edge7_Node000004_Node000007"><a xlink:title=" ">
<path fill="none" stroke="#63b8ff" d="M270.67,-175.95C242.31,-164.68 202.89,-149.01 175.8,-138.25"/>
<polygon fill="#63b8ff" stroke="#63b8ff" points="177.01,-134.96 166.43,-134.52 174.43,-141.46 177.01,-134.96"/>
</a>
</g>
</g>
<!-- Node4&#45;&gt;Node8 -->
<g id="edge8_Node000004_Node000008" class="edge">
<title>Node4&#45;&gt;Node8</title>
<g id="a_edge8_Node000004_Node000008"><a xlink:title=" ">
<path fill="none" stroke="#63b8ff" d="M331.02,-175.95C347.2,-166.87 368.48,-154.93 386.16,-145"/>
<polygon fill="#63b8ff" stroke="#63b8ff" points="388.03,-147.96 395.04,-140.01 384.61,-141.86 388.03,-147.96"/>
</a>
</g>
</g>
<!-- Node9 -->
<g id="Node000009" class="node">
<title>Node9</title>
<g id="a_Node000009"><a xlink:title=" ">
<polygon fill="#e0e0e0" stroke="#999999" points="1095,-19 1045,-19 1045,0 1095,0 1095,-19"/>
<text text-anchor="middle" x="1070" y="-7" font-family="Helvetica,sans-Serif" font-size="10.00">chrono</text>
</a>
</g>
</g>
<!-- Node8&#45;&gt;Node9 -->
<g id="edge9_Node000008_Node000009" class="edge">
<title>Node8&#45;&gt;Node9</title>
<g id="a_edge9_Node000008_Node000009"><a xlink:title=" ">
<path fill="none" stroke="#63b8ff" d="M442.93,-109.8C470.53,-93.48 518.81,-67.37 564,-55 653.04,-30.62 934.89,-16.35 1034.62,-11.96"/>
<polygon fill="#63b8ff" stroke="#63b8ff" points="1034.93,-15.45 1044.77,-11.52 1034.63,-8.46 1034.93,-15.45"/>
</a>
</g>
</g>
<!-- Node10 -->
<g id="Node000010" class="node">
<title>Node10</title>
<g id="a_Node000010"><a xlink:title=" ">
<polygon fill="#e0e0e0" stroke="#999999" points="659.5,-74 606.5,-74 606.5,-55 659.5,-55 659.5,-74"/>
<text text-anchor="middle" x="633" y="-62" font-family="Helvetica,sans-Serif" font-size="10.00">cstddef</text>
</a>
</g>
</g>
<!-- Node8&#45;&gt;Node10 -->
<g id="edge10_Node000008_Node000010" class="edge">
<title>Node8&#45;&gt;Node10</title>
<g id="a_edge10_Node000008_Node000010"><a xlink:title=" ">
<path fill="none" stroke="#63b8ff" d="M471.02,-109.99C509.78,-99.34 562.14,-84.96 596.7,-75.47"/>
<polygon fill="#63b8ff" stroke="#63b8ff" points="597.67,-78.83 606.39,-72.81 595.82,-72.08 597.67,-78.83"/>
</a>
</g>
</g>
<!-- Node11&#45;&gt;Node3 -->
<g id="edge15_Node000011_Node000003" class="edge">
<title>Node11&#45;&gt;Node3</title>
<g id="a_edge15_Node000011_Node000003"><a xlink:title=" ">
<path fill="none" stroke="#63b8ff" d="M840.88,-241.78C837.74,-212.27 826.19,-144.3 785,-110 718.43,-54.56 538.64,-118.1 598,-55 643,-7.17 1122.74,-26.41 1188,-19 1194.11,-18.31 1200.61,-17.37 1206.85,-16.38"/>
<polygon fill="#63b8ff" stroke="#63b8ff" points="1207.69,-19.79 1216.98,-14.69 1206.54,-12.88 1207.69,-19.79"/>
</a>
</g>
</g>
<!-- Node12 -->
<g id="Node000012" class="node">
<title>Node12</title>
<g id="a_Node000012"><a xlink:title=" ">
<polygon fill="#e0e0e0" stroke="#999999" points="953.5,-200.5 870.5,-200.5 870.5,-181.5 953.5,-181.5 953.5,-200.5"/>
<text text-anchor="middle" x="912" y="-188.5" font-family="Helvetica,sans-Serif" font-size="10.00">initializer_list</text>
</a>
</g>
</g>
<!-- Node11&#45;&gt;Node12 -->
<g id="edge13_Node000011_Node000012" class="edge">
<title>Node11&#45;&gt;Node12</title>
<g id="a_edge13_Node000011_Node000012"><a xlink:title=" ">
<path fill="none" stroke="#63b8ff" d="M857.54,-241.8C868.56,-231.72 883.35,-218.19 894.74,-207.78"/>
<polygon fill="#63b8ff" stroke="#63b8ff" points="897.31,-210.18 902.33,-200.84 892.58,-205.01 897.31,-210.18"/>
</a>
</g>
</g>
<!-- Node13 -->
<g id="Node000013" class="node">
<title>Node13</title>
<g id="a_Node000013"><a xlink:title=" ">
<polygon fill="#e0e0e0" stroke="#999999" points="1024.5,-200.5 971.5,-200.5 971.5,-181.5 1024.5,-181.5 1024.5,-200.5"/>
<text text-anchor="middle" x="998" y="-188.5" font-family="Helvetica,sans-Serif" font-size="10.00">iterator</text>
</a>
</g>
</g>
<!-- Node11&#45;&gt;Node13 -->
<g id="edge14_Node000011_Node000013" class="edge">
<title>Node11&#45;&gt;Node13</title>
<g id="a_edge14_Node000011_Node000013"><a xlink:title=" ">
<path fill="none" stroke="#63b8ff" d="M876.23,-241.95C903.59,-230.73 941.57,-215.15 967.81,-204.39"/>
<polygon fill="#63b8ff" stroke="#63b8ff" points="969.32,-207.55 977.24,-200.52 966.66,-201.07 969.32,-207.55"/>
</a>
</g>
</g>
<!-- Node14 -->
<g id="Node000014" class="node">
<title>Node14</title>
<g id="a_Node000014"><a xlink:title=" ">
<polygon fill="#e0e0e0" stroke="#999999" points="1089.5,-200.5 1042.5,-200.5 1042.5,-181.5 1089.5,-181.5 1089.5,-200.5"/>
<text text-anchor="middle" x="1066" y="-188.5" font-family="Helvetica,sans-Serif" font-size="10.00">vector</text>
</a>
</g>
</g>
<!-- Node11&#45;&gt;Node14 -->
<g id="edge16_Node000011_Node000014" class="edge">
<title>Node11&#45;&gt;Node14</title>
<g id="a_edge16_Node000011_Node000014"><a xlink:title=" ">
<path fill="none" stroke="#63b8ff" d="M898.57,-243.75C937.18,-234.78 989.25,-221.51 1034,-206 1035.43,-205.5 1036.89,-204.97 1038.35,-204.41"/>
<polygon fill="#63b8ff" stroke="#63b8ff" points="1039.99,-207.53 1047.92,-200.5 1037.34,-201.05 1039.99,-207.53"/>
</a>
</g>
</g>
<!-- Node15 -->
<g id="Node000015" class="node">
<title>Node15</title>
<g id="a_Node000015"><a xlink:href="../../dc/d7d/json__fwd_8hpp.html" target="_top" xlink:title="Forward declarations of formats::json types, formats::parse::To and formats::serialize::To.">
<polygon fill="white" stroke="#666666" points="765,-206 647,-206 647,-176 765,-176 765,-206"/>
<text text-anchor="start" x="655" y="-194" font-family="Helvetica,sans-Serif" font-size="10.00">userver/formats/json</text>
<text text-anchor="middle" x="706" y="-183" font-family="Helvetica,sans-Serif" font-size="10.00">_fwd.hpp</text>
</a>
</g>
</g>
<!-- Node11&#45;&gt;Node15 -->
<g id="edge17_Node000011_Node000015" class="edge">
<title>Node11&#45;&gt;Node15</title>
<g id="a_edge17_Node000011_Node000015"><a xlink:title=" ">
<path fill="none" stroke="#63b8ff" d="M812.15,-241.95C792.4,-232.66 766.3,-220.38 744.92,-210.32"/>
<polygon fill="#63b8ff" stroke="#63b8ff" points="746.31,-207.1 735.78,-206.01 743.33,-213.44 746.31,-207.1"/>
</a>
</g>
</g>
<!-- Node16 -->
<g id="Node000016" class="node">
<title>Node16</title>
<g id="a_Node000016"><a xlink:href="../../d2/dc8/universal_2include_2userver_2formats_2parse_2to_8hpp.html" target="_top" xlink:title="Helper for parsers.">
<polygon fill="white" stroke="#666666" points="618.5,-140 493.5,-140 493.5,-110 618.5,-110 618.5,-140"/>
<text text-anchor="start" x="501.5" y="-128" font-family="Helvetica,sans-Serif" font-size="10.00">userver/formats/parse</text>
<text text-anchor="middle" x="556" y="-117" font-family="Helvetica,sans-Serif" font-size="10.00">/to.hpp</text>
</a>
</g>
</g>
<!-- Node11&#45;&gt;Node16 -->
<g id="edge20_Node000011_Node000016" class="edge">
<title>Node11&#45;&gt;Node16</title>
<g id="a_edge20_Node000011_Node000016"><a xlink:title=" ">
<path fill="none" stroke="#63b8ff" d="M785.39,-250.3C742.72,-244.12 683.91,-231.48 638,-206 611.76,-191.44 587.97,-166.25 572.85,-148.02"/>
<polygon fill="#63b8ff" stroke="#63b8ff" points="575.54,-145.78 566.54,-140.2 570.09,-150.18 575.54,-145.78"/>
</a>
</g>
</g>
<!-- Node18 -->
<g id="Node000018" class="node">
<title>Node18</title>
<g id="a_Node000018"><a xlink:href="../../de/dd5/predefined__header_8hpp_source.html" target="_top" xlink:title=" ">
<polygon fill="white" stroke="#666666" points="1441.5,-206 1310.5,-206 1310.5,-176 1441.5,-176 1441.5,-206"/>
<text text-anchor="start" x="1318.5" y="-194" font-family="Helvetica,sans-Serif" font-size="10.00">userver/http/predefined</text>
<text text-anchor="middle" x="1376" y="-183" font-family="Helvetica,sans-Serif" font-size="10.00">_header.hpp</text>
</a>
</g>
</g>
<!-- Node11&#45;&gt;Node18 -->
<g id="edge21_Node000011_Node000018" class="edge">
<title>Node11&#45;&gt;Node18</title>
<g id="a_edge21_Node000011_Node000018"><a xlink:title=" ">
<path fill="none" stroke="#63b8ff" d="M898.64,-249.21C995.24,-237.63 1191.9,-214.06 1300.22,-201.08"/>
<polygon fill="#63b8ff" stroke="#63b8ff" points="1300.9,-204.53 1310.42,-199.86 1300.07,-197.58 1300.9,-204.53"/>
</a>
</g>
</g>
<!-- Node31 -->
<g id="Node000031" class="node">
<title>Node31</title>
<g id="a_Node000031"><a xlink:href="../../d5/d02/fast__pimpl_8hpp.html" target="_top" xlink:title="Implements pimpl idiom without dynamic memory allocation.">
<polygon fill="white" stroke="#666666" points="931.5,-140 832.5,-140 832.5,-110 931.5,-110 931.5,-140"/>
<text text-anchor="start" x="840.5" y="-128" font-family="Helvetica,sans-Serif" font-size="10.00">userver/utils/fast</text>
<text text-anchor="middle" x="882" y="-117" font-family="Helvetica,sans-Serif" font-size="10.00">_pimpl.hpp</text>
</a>
</g>
</g>
<!-- Node11&#45;&gt;Node31 -->
<g id="edge42_Node000011_Node000031" class="edge">
<title>Node11&#45;&gt;Node31</title>
<g id="a_edge42_Node000011_Node000031"><a xlink:title=" ">
<path fill="none" stroke="#63b8ff" d="M844.9,-241.96C848.37,-225.86 854.64,-198.75 862,-176 864.82,-167.27 868.42,-157.89 871.78,-149.64"/>
<polygon fill="#63b8ff" stroke="#63b8ff" points="875.08,-150.83 875.7,-140.25 868.62,-148.13 875.08,-150.83"/>
</a>
</g>
</g>
<!-- Node15&#45;&gt;Node16 -->
<g id="edge18_Node000015_Node000016" class="edge">
<title>Node15&#45;&gt;Node16</title>
<g id="a_edge18_Node000015_Node000016"><a xlink:title=" ">
<path fill="none" stroke="#63b8ff" d="M673.08,-175.95C651.1,-166.58 621.99,-154.16 598.29,-144.05"/>
<polygon fill="#63b8ff" stroke="#63b8ff" points="599.41,-140.72 588.84,-140.01 596.67,-147.16 599.41,-140.72"/>
</a>
</g>
</g>
<!-- Node17 -->
<g id="Node000017" class="node">
<title>Node17</title>
<g id="a_Node000017"><a xlink:href="../../d6/d8e/universal_2include_2userver_2formats_2serialize_2to_8hpp.html" target="_top" xlink:title="Helper for serializers.">
<polygon fill="white" stroke="#666666" points="775.5,-140 636.5,-140 636.5,-110 775.5,-110 775.5,-140"/>
<text text-anchor="start" x="644.5" y="-128" font-family="Helvetica,sans-Serif" font-size="10.00">userver/formats/serialize</text>
<text text-anchor="middle" x="706" y="-117" font-family="Helvetica,sans-Serif" font-size="10.00">/to.hpp</text>
</a>
</g>
</g>
<!-- Node15&#45;&gt;Node17 -->
<g id="edge19_Node000015_Node000017" class="edge">
<title>Node15&#45;&gt;Node17</title>
<g id="a_edge19_Node000015_Node000017"><a xlink:title=" ">
<path fill="none" stroke="#63b8ff" d="M706,-175.8C706,-168.34 706,-158.99 706,-150.41"/>
<polygon fill="#63b8ff" stroke="#63b8ff" points="709.5,-150.16 706,-140.16 702.5,-150.16 709.5,-150.16"/>
</a>
</g>
</g>
<!-- Node18&#45;&gt;Node3 -->
<g id="edge22_Node000018_Node000003" class="edge">
<title>Node18&#45;&gt;Node3</title>
<g id="a_edge22_Node000018_Node000003"><a xlink:title=" ">
<path fill="none" stroke="#63b8ff" d="M1372.6,-175.95C1369.33,-159.36 1366.19,-131.32 1376,-110 1388.85,-82.06 1436.94,-79.23 1418,-55 1400.11,-32.12 1317.72,-19.32 1271.21,-13.81"/>
<polygon fill="#63b8ff" stroke="#63b8ff" points="1271.37,-10.3 1261.04,-12.65 1270.58,-17.26 1271.37,-10.3"/>
</a>
</g>
</g>
<!-- Node18&#45;&gt;Node6 -->
<g id="edge23_Node000018_Node000006" class="edge">
<title>Node18&#45;&gt;Node6</title>
<g id="a_edge23_Node000018_Node000006"><a xlink:title=" ">
<path fill="none" stroke="#63b8ff" d="M1375.78,-175.78C1376.28,-158.23 1379.7,-128.46 1396,-110 1425.33,-76.77 1463.95,-110.56 1489,-74 1501.24,-56.14 1480.63,-37.11 1461.86,-24.59"/>
<polygon fill="#63b8ff" stroke="#63b8ff" points="1463.54,-21.52 1453.21,-19.17 1459.82,-27.45 1463.54,-21.52"/>
</a>
</g>
</g>
<!-- Node19 -->
<g id="Node000019" class="node">
<title>Node19</title>
<g id="a_Node000019"><a xlink:title=" ">
<polygon fill="#e0e0e0" stroke="#999999" points="1471.5,-134.5 1404.5,-134.5 1404.5,-115.5 1471.5,-115.5 1471.5,-134.5"/>
<text text-anchor="middle" x="1438" y="-122.5" font-family="Helvetica,sans-Serif" font-size="10.00">fmt/core.h</text>
</a>
</g>
</g>
<!-- Node18&#45;&gt;Node19 -->
<g id="edge24_Node000018_Node000019" class="edge">
<title>Node18&#45;&gt;Node19</title>
<g id="a_edge24_Node000018_Node000019"><a xlink:title=" ">
<path fill="none" stroke="#63b8ff" d="M1389.76,-175.8C1399.43,-165.82 1412.37,-152.46 1422.42,-142.09"/>
<polygon fill="#63b8ff" stroke="#63b8ff" points="1424.99,-144.46 1429.43,-134.84 1419.96,-139.59 1424.99,-144.46"/>
</a>
</g>
</g>
<!-- Node20 -->
<g id="Node000020" class="node">
<title>Node20</title>
<g id="a_Node000020"><a xlink:href="../../d6/da7/small__string__fwd_8hpp_source.html" target="_top" xlink:title=" ">
<polygon fill="white" stroke="#666666" points="1596.5,-140 1489.5,-140 1489.5,-110 1596.5,-110 1596.5,-140"/>
<text text-anchor="start" x="1497.5" y="-128" font-family="Helvetica,sans-Serif" font-size="10.00">userver/utils/small</text>
<text text-anchor="middle" x="1543" y="-117" font-family="Helvetica,sans-Serif" font-size="10.00">_string_fwd.hpp</text>
</a>
</g>
</g>
<!-- Node18&#45;&gt;Node20 -->
<g id="edge25_Node000018_Node000020" class="edge">
<title>Node18&#45;&gt;Node20</title>
<g id="a_edge25_Node000018_Node000020"><a xlink:title=" ">
<path fill="none" stroke="#63b8ff" d="M1412.65,-175.95C1437.45,-166.45 1470.4,-153.82 1496.96,-143.64"/>
<polygon fill="#63b8ff" stroke="#63b8ff" points="1498.35,-146.86 1506.44,-140.01 1495.85,-140.32 1498.35,-146.86"/>
</a>
</g>
</g>
<!-- Node22 -->
<g id="Node000022" class="node">
<title>Node22</title>
<g id="a_Node000022"><a xlink:href="../../d7/d32/trivial__map_8hpp.html" target="_top" xlink:title="Bidirectional map|sets over string literals or other trivial types.">
<polygon fill="white" stroke="#666666" points="1189.5,-140 1080.5,-140 1080.5,-110 1189.5,-110 1189.5,-140"/>
<text text-anchor="start" x="1088.5" y="-128" font-family="Helvetica,sans-Serif" font-size="10.00">userver/utils/trivial</text>
<text text-anchor="middle" x="1135" y="-117" font-family="Helvetica,sans-Serif" font-size="10.00">_map.hpp</text>
</a>
</g>
</g>
<!-- Node18&#45;&gt;Node22 -->
<g id="edge27_Node000018_Node000022" class="edge">
<title>Node18&#45;&gt;Node22</title>
<g id="a_edge27_Node000018_Node000022"><a xlink:title=" ">
<path fill="none" stroke="#63b8ff" d="M1323.11,-175.95C1286.07,-166.12 1236.42,-152.93 1197.43,-142.58"/>
<polygon fill="#63b8ff" stroke="#63b8ff" points="1198.33,-139.2 1187.77,-140.01 1196.53,-145.96 1198.33,-139.2"/>
</a>
</g>
</g>
<!-- Node21 -->
<g id="Node000021" class="node">
<title>Node21</title>
<g id="a_Node000021"><a xlink:title=" ">
<polygon fill="#e0e0e0" stroke="#999999" points="1741,-74 1691,-74 1691,-55 1741,-55 1741,-74"/>
<text text-anchor="middle" x="1716" y="-62" font-family="Helvetica,sans-Serif" font-size="10.00">cstdint</text>
</a>
</g>
</g>
<!-- Node20&#45;&gt;Node21 -->
<g id="edge26_Node000020_Node000021" class="edge">
<title>Node20&#45;&gt;Node21</title>
<g id="a_edge26_Node000020_Node000021"><a xlink:title=" ">
<path fill="none" stroke="#63b8ff" d="M1584.44,-109.99C1614,-99.99 1653.29,-86.7 1681.22,-77.26"/>
<polygon fill="#63b8ff" stroke="#63b8ff" points="1682.61,-80.49 1690.96,-73.97 1680.36,-73.86 1682.61,-80.49"/>
</a>
</g>
</g>
<!-- Node22&#45;&gt;Node3 -->
<g id="edge30_Node000022_Node000003" class="edge">
<title>Node22&#45;&gt;Node3</title>
<g id="a_edge30_Node000022_Node000003"><a xlink:title=" ">
<path fill="none" stroke="#63b8ff" d="M1181.43,-109.9C1199.34,-102.14 1218.3,-90.61 1230,-74 1239.12,-61.06 1240.88,-42.9 1240.65,-29.32"/>
<polygon fill="#63b8ff" stroke="#63b8ff" points="1244.14,-28.99 1240.1,-19.2 1237.15,-29.37 1244.14,-28.99"/>
</a>
</g>
</g>
<!-- Node22&#45;&gt;Node6 -->
<g id="edge31_Node000022_Node000006" class="edge">
<title>Node22&#45;&gt;Node6</title>
<g id="a_edge31_Node000022_Node000006"><a xlink:title=" ">
<path fill="none" stroke="#63b8ff" d="M1189.8,-121.04C1262.36,-116.02 1385.02,-103.36 1418,-74 1430.48,-62.89 1434.91,-43.96 1436.42,-29.65"/>
<polygon fill="#63b8ff" stroke="#63b8ff" points="1439.93,-29.61 1437.09,-19.4 1432.94,-29.15 1439.93,-29.61"/>
</a>
</g>
</g>
<!-- Node22&#45;&gt;Node10 -->
<g id="edge28_Node000022_Node000010" class="edge">
<title>Node22&#45;&gt;Node10</title>
<g id="a_edge28_Node000022_Node000010"><a xlink:title=" ">
<path fill="none" stroke="#63b8ff" d="M1080.17,-120.35C994.62,-114.16 824.1,-99.87 669.8,-73.91"/>
<polygon fill="#63b8ff" stroke="#63b8ff" points="670.11,-70.41 659.66,-72.19 668.93,-77.32 670.11,-70.41"/>
</a>
</g>
</g>
<!-- Node23 -->
<g id="Node000023" class="node">
<title>Node23</title>
<g id="a_Node000023"><a xlink:title=" ">
<polygon fill="#e0e0e0" stroke="#999999" points="1597,-74 1541,-74 1541,-55 1597,-55 1597,-74"/>
<text text-anchor="middle" x="1569" y="-62" font-family="Helvetica,sans-Serif" font-size="10.00">optional</text>
</a>
</g>
</g>
<!-- Node22&#45;&gt;Node23 -->
<g id="edge29_Node000022_Node000023" class="edge">
<title>Node22&#45;&gt;Node23</title>
<g id="a_edge29_Node000022_Node000023"><a xlink:title=" ">
<path fill="none" stroke="#63b8ff" d="M1189.53,-116.65C1278.68,-104.63 1453.43,-81.08 1530.7,-70.66"/>
<polygon fill="#63b8ff" stroke="#63b8ff" points="1531.49,-74.09 1540.93,-69.28 1530.55,-67.15 1531.49,-74.09"/>
</a>
</g>
</g>
<!-- Node24 -->
<g id="Node000024" class="node">
<title>Node24</title>
<g id="a_Node000024"><a xlink:title=" ">
<polygon fill="#e0e0e0" stroke="#999999" points="801.5,-74 732.5,-74 732.5,-55 801.5,-55 801.5,-74"/>
<text text-anchor="middle" x="767" y="-62" font-family="Helvetica,sans-Serif" font-size="10.00">type_traits</text>
</a>
</g>
</g>
<!-- Node22&#45;&gt;Node24 -->
<g id="edge32_Node000022_Node000024" class="edge">
<title>Node22&#45;&gt;Node24</title>
<g id="a_edge32_Node000022_Node000024"><a xlink:title=" ">
<path fill="none" stroke="#63b8ff" d="M1080.44,-116.22C1018.04,-107.18 912.56,-91.47 811.63,-74.05"/>
<polygon fill="#63b8ff" stroke="#63b8ff" points="812.02,-70.56 801.56,-72.3 810.82,-77.46 812.02,-70.56"/>
</a>
</g>
</g>
<!-- Node25 -->
<g id="Node000025" class="node">
<title>Node25</title>
<g id="a_Node000025"><a xlink:title=" ">
<polygon fill="#e0e0e0" stroke="#999999" points="864.5,-74 819.5,-74 819.5,-55 864.5,-55 864.5,-74"/>
<text text-anchor="middle" x="842" y="-62" font-family="Helvetica,sans-Serif" font-size="10.00">utility</text>
</a>
</g>
</g>
<!-- Node22&#45;&gt;Node25 -->
<g id="edge33_Node000022_Node000025" class="edge">
<title>Node22&#45;&gt;Node25</title>
<g id="a_edge33_Node000022_Node000025"><a xlink:title=" ">
<path fill="none" stroke="#63b8ff" d="M1080.28,-114.67C1029.48,-105.75 951.56,-91.41 874.55,-73.99"/>
<polygon fill="#63b8ff" stroke="#63b8ff" points="875.2,-70.55 864.68,-71.73 873.65,-77.37 875.2,-70.55"/>
</a>
</g>
</g>
<!-- Node26 -->
<g id="Node000026" class="node">
<title>Node26</title>
<g id="a_Node000026"><a xlink:title=" ">
<polygon fill="#e0e0e0" stroke="#999999" points="933.5,-74 882.5,-74 882.5,-55 933.5,-55 933.5,-74"/>
<text text-anchor="middle" x="908" y="-62" font-family="Helvetica,sans-Serif" font-size="10.00">variant</text>
</a>
</g>
</g>
<!-- Node22&#45;&gt;Node26 -->
<g id="edge34_Node000022_Node000026" class="edge">
<title>Node22&#45;&gt;Node26</title>
<g id="a_edge34_Node000022_Node000026"><a xlink:title=" ">
<path fill="none" stroke="#63b8ff" d="M1080.63,-109.99C1038.07,-99.02 980.11,-84.08 943.38,-74.62"/>
<polygon fill="#63b8ff" stroke="#63b8ff" points="944.16,-71.21 933.61,-72.1 942.42,-77.98 944.16,-71.21"/>
</a>
</g>
</g>
<!-- Node27 -->
<g id="Node000027" class="node">
<title>Node27</title>
<g id="a_Node000027"><a xlink:title=" ">
<polygon fill="#e0e0e0" stroke="#999999" points="1030.5,-74 951.5,-74 951.5,-55 1030.5,-55 1030.5,-74"/>
<text text-anchor="middle" x="991" y="-62" font-family="Helvetica,sans-Serif" font-size="10.00">fmt/format.h</text>
</a>
</g>
</g>
<!-- Node22&#45;&gt;Node27 -->
<g id="edge35_Node000022_Node000027" class="edge">
<title>Node22&#45;&gt;Node27</title>
<g id="a_edge35_Node000022_Node000027"><a xlink:title=" ">
<path fill="none" stroke="#63b8ff" d="M1100.51,-109.99C1076.48,-100.23 1044.73,-87.33 1021.6,-77.93"/>
<polygon fill="#63b8ff" stroke="#63b8ff" points="1022.85,-74.66 1012.27,-74.14 1020.21,-81.15 1022.85,-74.66"/>
</a>
</g>
</g>
<!-- Node28 -->
<g id="Node000028" class="node">
<title>Node28</title>
<g id="a_Node000028"><a xlink:href="../../d1/d37/demangle_8hpp.html" target="_top" xlink:title="Returns a human&#45;readable representation of provided type name.">
<polygon fill="white" stroke="#666666" points="1221,-74 1049,-74 1049,-55 1221,-55 1221,-74"/>
<text text-anchor="middle" x="1135" y="-62" font-family="Helvetica,sans-Serif" font-size="10.00">userver/compiler/demangle.hpp</text>
</a>
</g>
</g>
<!-- Node22&#45;&gt;Node28 -->
<g id="edge36_Node000022_Node000028" class="edge">
<title>Node22&#45;&gt;Node28</title>
<g id="a_edge36_Node000022_Node000028"><a xlink:title=" ">
<path fill="none" stroke="#63b8ff" d="M1135,-109.84C1135,-102.21 1135,-92.7 1135,-84.45"/>
<polygon fill="#63b8ff" stroke="#63b8ff" points="1138.5,-84.27 1135,-74.27 1131.5,-84.27 1138.5,-84.27"/>
</a>
</g>
</g>
<!-- Node30 -->
<g id="Node000030" class="node">
<title>Node30</title>
<g id="a_Node000030"><a xlink:href="../../d2/d54/assert_8hpp.html" target="_top" xlink:title="Assertion macros UASSERT, UASSERT_MSG, UINVARIANT.">
<polygon fill="white" stroke="#666666" points="1408.5,-74 1277.5,-74 1277.5,-55 1408.5,-55 1408.5,-74"/>
<text text-anchor="middle" x="1343" y="-62" font-family="Helvetica,sans-Serif" font-size="10.00">userver/utils/assert.hpp</text>
</a>
</g>
</g>
<!-- Node22&#45;&gt;Node30 -->
<g id="edge40_Node000022_Node000030" class="edge">
<title>Node22&#45;&gt;Node30</title>
<g id="a_edge40_Node000022_Node000030"><a xlink:title=" ">
<path fill="none" stroke="#63b8ff" d="M1184.82,-109.99C1220.87,-99.85 1268.98,-86.32 1302.63,-76.85"/>
<polygon fill="#63b8ff" stroke="#63b8ff" points="1303.91,-80.13 1312.59,-74.05 1302.01,-73.39 1303.91,-80.13"/>
</a>
</g>
</g>
<!-- Node28&#45;&gt;Node3 -->
<g id="edge38_Node000028_Node000003" class="edge">
<title>Node28&#45;&gt;Node3</title>
<g id="a_edge38_Node000028_Node000003"><a xlink:title=" ">
<path fill="none" stroke="#63b8ff" d="M1151.71,-54.98C1168.21,-46.57 1193.7,-33.59 1212.88,-23.81"/>
<polygon fill="#63b8ff" stroke="#63b8ff" points="1214.67,-26.83 1221.99,-19.17 1211.49,-20.59 1214.67,-26.83"/>
</a>
</g>
</g>
<!-- Node28&#45;&gt;Node9 -->
<g id="edge37_Node000028_Node000009" class="edge">
<title>Node28&#45;&gt;Node9</title>
<g id="a_edge37_Node000028_Node000009"><a xlink:title=" ">
<path fill="none" stroke="#63b8ff" d="M1124.56,-54.98C1114.85,-47.07 1100.18,-35.11 1088.5,-25.58"/>
<polygon fill="#63b8ff" stroke="#63b8ff" points="1090.6,-22.78 1080.63,-19.17 1086.17,-28.2 1090.6,-22.78"/>
</a>
</g>
</g>
<!-- Node29 -->
<g id="Node000029" class="node">
<title>Node29</title>
<g id="a_Node000029"><a xlink:title=" ">
<polygon fill="#e0e0e0" stroke="#999999" points="1178.5,-19 1113.5,-19 1113.5,0 1178.5,0 1178.5,-19"/>
<text text-anchor="middle" x="1146" y="-7" font-family="Helvetica,sans-Serif" font-size="10.00">typeindex</text>
</a>
</g>
</g>
<!-- Node28&#45;&gt;Node29 -->
<g id="edge39_Node000028_Node000029" class="edge">
<title>Node28&#45;&gt;Node29</title>
<g id="a_edge39_Node000028_Node000029"><a xlink:title=" ">
<path fill="none" stroke="#63b8ff" d="M1136.82,-54.75C1138.26,-47.8 1140.32,-37.85 1142.13,-29.13"/>
<polygon fill="#63b8ff" stroke="#63b8ff" points="1145.61,-29.59 1144.22,-19.09 1138.76,-28.17 1145.61,-29.59"/>
</a>
</g>
</g>
<!-- Node30&#45;&gt;Node6 -->
<g id="edge41_Node000030_Node000006" class="edge">
<title>Node30&#45;&gt;Node6</title>
<g id="a_edge41_Node000030_Node000006"><a xlink:title=" ">
<path fill="none" stroke="#63b8ff" d="M1358.1,-54.98C1372.82,-46.69 1395.42,-33.94 1412.67,-24.22"/>
<polygon fill="#63b8ff" stroke="#63b8ff" points="1414.63,-27.13 1421.62,-19.17 1411.19,-21.03 1414.63,-27.13"/>
</a>
</g>
</g>
<!-- Node31&#45;&gt;Node10 -->
<g id="edge43_Node000031_Node000010" class="edge">
<title>Node31&#45;&gt;Node10</title>
<g id="a_edge43_Node000031_Node000010"><a xlink:title=" ">
<path fill="none" stroke="#63b8ff" d="M832.07,-112.3C791.1,-102.69 731.28,-88.66 669.64,-74.15"/>
<polygon fill="#63b8ff" stroke="#63b8ff" points="670.27,-70.7 659.74,-71.82 668.67,-77.52 670.27,-70.7"/>
</a>
</g>
</g>
<!-- Node31&#45;&gt;Node24 -->
<g id="edge45_Node000031_Node000024" class="edge">
<title>Node31&#45;&gt;Node24</title>
<g id="a_edge45_Node000031_Node000024"><a xlink:title=" ">
<path fill="none" stroke="#63b8ff" d="M854.45,-109.99C835.78,-100.49 811.26,-88.02 792.94,-78.69"/>
<polygon fill="#63b8ff" stroke="#63b8ff" points="794.48,-75.55 783.98,-74.14 791.31,-81.79 794.48,-75.55"/>
</a>
</g>
</g>
<!-- Node31&#45;&gt;Node25 -->
<g id="edge46_Node000031_Node000025" class="edge">
<title>Node31&#45;&gt;Node25</title>
<g id="a_edge46_Node000031_Node000025"><a xlink:title=" ">
<path fill="none" stroke="#63b8ff" d="M872.32,-109.84C866.75,-101.69 859.71,-91.4 853.82,-82.78"/>
<polygon fill="#63b8ff" stroke="#63b8ff" points="856.53,-80.55 847.99,-74.27 850.75,-84.5 856.53,-80.55"/>
</a>
</g>
</g>
<!-- Node32 -->
<g id="Node000032" class="node">
<title>Node32</title>
<g id="a_Node000032"><a xlink:title=" ">
<polygon fill="#e0e0e0" stroke="#999999" points="714.5,-74 677.5,-74 677.5,-55 714.5,-55 714.5,-74"/>
<text text-anchor="middle" x="696" y="-62" font-family="Helvetica,sans-Serif" font-size="10.00">new</text>
</a>
</g>
</g>
<!-- Node31&#45;&gt;Node32 -->
<g id="edge44_Node000031_Node000032" class="edge">
<title>Node31&#45;&gt;Node32</title>
<g id="a_edge44_Node000031_Node000032"><a xlink:title=" ">
<path fill="none" stroke="#63b8ff" d="M837.45,-109.99C802.45,-98.98 754.76,-83.98 724.68,-74.52"/>
<polygon fill="#63b8ff" stroke="#63b8ff" points="725.41,-71.08 714.82,-71.42 723.31,-77.76 725.41,-71.08"/>
</a>
</g>
</g>
<!-- Node33&#45;&gt;Node3 -->
<g id="edge51_Node000033_Node000003" class="edge">
<title>Node33&#45;&gt;Node3</title>
<g id="a_edge51_Node000033_Node000003"><a xlink:title=" ">
<path fill="none" stroke="#63b8ff" d="M1670.94,-241.81C1663.85,-232.16 1654.9,-218.85 1649,-206 1619.89,-142.58 1659.05,-100.33 1606,-55 1580.73,-33.41 1356.07,-17.62 1271.24,-12.38"/>
<polygon fill="#63b8ff" stroke="#63b8ff" points="1271.34,-8.88 1261.15,-11.77 1270.92,-15.87 1271.34,-8.88"/>
</a>
</g>
</g>
<!-- Node33&#45;&gt;Node9 -->
<g id="edge48_Node000033_Node000009" class="edge">
<title>Node33&#45;&gt;Node9</title>
<g id="a_edge48_Node000033_Node000009"><a xlink:title=" ">
<path fill="none" stroke="#63b8ff" d="M1681.52,-241.8C1679.39,-204.09 1667.92,-101.15 1606,-55 1561.25,-21.65 1160.14,-27.62 1105,-19 1104.9,-18.98 1104.8,-18.97 1104.7,-18.95"/>
<polygon fill="#63b8ff" stroke="#63b8ff" points="1105.61,-15.56 1095.13,-17.13 1104.3,-22.44 1105.61,-15.56"/>
</a>
</g>
</g>
<!-- Node33&#45;&gt;Node18 -->
<g id="edge53_Node000033_Node000018" class="edge">
<title>Node33&#45;&gt;Node18</title>
<g id="a_edge53_Node000033_Node000018"><a xlink:title=" ">
<path fill="none" stroke="#63b8ff" d="M1614.85,-241.95C1566.6,-231.86 1501.52,-218.25 1451.48,-207.79"/>
<polygon fill="#63b8ff" stroke="#63b8ff" points="1452.19,-204.36 1441.68,-205.74 1450.75,-211.21 1452.19,-204.36"/>
</a>
</g>
</g>
<!-- Node33&#45;&gt;Node23 -->
<g id="edge50_Node000033_Node000023" class="edge">
<title>Node33&#45;&gt;Node23</title>
<g id="a_edge50_Node000033_Node000023"><a xlink:title=" ">
<path fill="none" stroke="#63b8ff" d="M1675.82,-241.75C1663.94,-214.97 1636.38,-155.69 1606,-110 1599.48,-100.19 1591.17,-90.03 1584.07,-81.9"/>
<polygon fill="#63b8ff" stroke="#63b8ff" points="1586.52,-79.39 1577.25,-74.26 1581.3,-84.05 1586.52,-79.39"/>
</a>
</g>
</g>
<!-- Node34 -->
<g id="Node000034" class="node">
<title>Node34</title>
<g id="a_Node000034"><a xlink:title=" ">
<polygon fill="#e0e0e0" stroke="#999999" points="1787,-200.5 1729,-200.5 1729,-181.5 1787,-181.5 1787,-200.5"/>
<text text-anchor="middle" x="1758" y="-188.5" font-family="Helvetica,sans-Serif" font-size="10.00">memory</text>
</a>
</g>
</g>
<!-- Node33&#45;&gt;Node34 -->
<g id="edge49_Node000033_Node000034" class="edge">
<title>Node33&#45;&gt;Node34</title>
<g id="a_edge49_Node000033_Node000034"><a xlink:title=" ">
<path fill="none" stroke="#63b8ff" d="M1698.87,-241.8C1710.95,-231.62 1727.21,-217.93 1739.62,-207.48"/>
<polygon fill="#63b8ff" stroke="#63b8ff" points="1742.1,-209.96 1747.5,-200.84 1737.59,-204.61 1742.1,-209.96"/>
</a>
</g>
</g>
<!-- Node35 -->
<g id="Node000035" class="node">
<title>Node35</title>
<g id="a_Node000035"><a xlink:title=" ">
<polygon fill="#e0e0e0" stroke="#999999" points="1898.5,-200.5 1805.5,-200.5 1805.5,-181.5 1898.5,-181.5 1898.5,-200.5"/>
<text text-anchor="middle" x="1852" y="-188.5" font-family="Helvetica,sans-Serif" font-size="10.00">unordered_map</text>
</a>
</g>
</g>
<!-- Node33&#45;&gt;Node35 -->
<g id="edge52_Node000033_Node000035" class="edge">
<title>Node33&#45;&gt;Node35</title>
<g id="a_edge52_Node000033_Node000035"><a xlink:title=" ">
<path fill="none" stroke="#63b8ff" d="M1719.31,-241.95C1749.38,-230.63 1791.24,-214.88 1819.85,-204.1"/>
<polygon fill="#63b8ff" stroke="#63b8ff" points="1821.25,-207.32 1829.38,-200.52 1818.78,-200.77 1821.25,-207.32"/>
</a>
</g>
</g>
<!-- Node33&#45;&gt;Node36 -->
<g id="edge54_Node000033_Node000036" class="edge">
<title>Node33&#45;&gt;Node36</title>
<g id="a_edge54_Node000033_Node000036"><a xlink:title=" ">
<path fill="none" stroke="#63b8ff" d="M1755.57,-249.57C1814.04,-242.76 1889.04,-229.62 1908,-206 1931.21,-177.1 1882.06,-152.1 1844.5,-138.05"/>
<polygon fill="#63b8ff" stroke="#63b8ff" points="1845.36,-134.64 1834.77,-134.56 1843,-141.23 1845.36,-134.64"/>
</a>
</g>
</g>
<!-- Node36&#45;&gt;Node3 -->
<g id="edge56_Node000036_Node000003" class="edge">
<title>Node36&#45;&gt;Node3</title>
<g id="a_edge56_Node000036_Node000003"><a xlink:title=" ">
<path fill="none" stroke="#63b8ff" d="M1802.8,-115.34C1794.87,-100.09 1776.14,-68.73 1750,-55 1728.73,-43.83 1380.16,-19.87 1271.25,-12.62"/>
<polygon fill="#63b8ff" stroke="#63b8ff" points="1271.4,-9.12 1261.19,-11.95 1270.94,-16.11 1271.4,-9.12"/>
</a>
</g>
</g>
<!-- Node36&#45;&gt;Node6 -->
<g id="edge57_Node000036_Node000006" class="edge">
<title>Node36&#45;&gt;Node6</title>
<g id="a_edge57_Node000036_Node000006"><a xlink:title=" ">
<path fill="none" stroke="#63b8ff" d="M1806.74,-115.16C1805.78,-100.2 1801.51,-70.03 1783,-55 1738.08,-18.53 1567.46,-11.71 1483.8,-10.6"/>
<polygon fill="#63b8ff" stroke="#63b8ff" points="1483.6,-7.09 1473.57,-10.48 1483.53,-14.09 1483.6,-7.09"/>
</a>
</g>
</g>
<!-- Node36&#45;&gt;Node21 -->
<g id="edge55_Node000036_Node000021" class="edge">
<title>Node36&#45;&gt;Node21</title>
<g id="a_edge55_Node000036_Node000021"><a xlink:title=" ">
<path fill="none" stroke="#63b8ff" d="M1793.57,-115.37C1778.92,-105.95 1755.24,-90.73 1737.9,-79.58"/>
<polygon fill="#63b8ff" stroke="#63b8ff" points="1739.79,-76.63 1729.48,-74.17 1736,-82.52 1739.79,-76.63"/>
</a>
</g>
</g>
</g>
</svg>
