<?xml version="1.0" encoding="UTF-8" standalone="no"?>
<!DOCTYPE svg PUBLIC "-//W3C//DTD SVG 1.1//EN"
 "http://www.w3.org/Graphics/SVG/1.1/DTD/svg11.dtd">
<!-- Generated by graphviz version 2.43.0 (0)
 -->
<!-- Title: userver/server/http/http_response_cookie.hpp Pages: 1 -->
<svg width="2956pt" height="401pt"
 viewBox="0.00 0.00 2955.50 401.00" xmlns="http://www.w3.org/2000/svg" xmlns:xlink="http://www.w3.org/1999/xlink">
<g id="graph0" class="graph" transform="scale(1 1) rotate(0) translate(4 397)">
<title>userver/server/http/http_response_cookie.hpp</title>
<!-- Node1 -->
<g id="Node000001" class="node">
<title>Node1</title>
<g id="a_Node000001"><a xlink:title="HTTP response cookie.">
<polygon fill="#999999" stroke="#666666" points="490,-393 343,-393 343,-363 490,-363 490,-393"/>
<text text-anchor="start" x="351" y="-381" font-family="Helvetica,sans-Serif" font-size="10.00">userver/server/http</text>
<text text-anchor="middle" x="416.5" y="-370" font-family="Helvetica,sans-Serif" font-size="10.00">/http_response_cookie.hpp</text>
</a>
</g>
</g>
<!-- Node2 -->
<g id="Node000002" class="node">
<title>Node2</title>
<g id="a_Node000002"><a xlink:href="../../d9/d31/core_2include_2userver_2clients_2http_2response_8hpp.html" target="_top" xlink:title="Class that will be returned for successful request.">
<polygon fill="white" stroke="#666666" points="287,-327 176,-327 176,-297 287,-297 287,-327"/>
<text text-anchor="start" x="184" y="-315" font-family="Helvetica,sans-Serif" font-size="10.00">userver/clients/http</text>
<text text-anchor="middle" x="231.5" y="-304" font-family="Helvetica,sans-Serif" font-size="10.00">/response.hpp</text>
</a>
</g>
</g>
<!-- Node1&#45;&gt;Node2 -->
<g id="edge1_Node000001_Node000002" class="edge">
<title>Node1&#45;&gt;Node2</title>
<g id="a_edge1_Node000001_Node000002"><a xlink:title=" ">
<path fill="none" stroke="#63b8ff" d="M366.17,-359.59C336.6,-349.36 299.7,-336.59 272,-327.01"/>
<polygon fill="#63b8ff" stroke="#63b8ff" points="365.31,-362.99 375.9,-362.95 367.59,-356.38 365.31,-362.99"/>
</a>
</g>
</g>
<!-- Node11 -->
<g id="Node000011" class="node">
<title>Node11</title>
<g id="a_Node000011"><a xlink:href="../../db/d6b/http__response_8hpp.html" target="_top" xlink:title="HTTP Response data.">
<polygon fill="white" stroke="#666666" points="796.5,-327 686.5,-327 686.5,-297 796.5,-297 796.5,-327"/>
<text text-anchor="start" x="694.5" y="-315" font-family="Helvetica,sans-Serif" font-size="10.00">userver/server/http</text>
<text text-anchor="middle" x="741.5" y="-304" font-family="Helvetica,sans-Serif" font-size="10.00">/http_response.hpp</text>
</a>
</g>
</g>
<!-- Node1&#45;&gt;Node11 -->
<g id="edge12_Node000001_Node000011" class="edge">
<title>Node1&#45;&gt;Node11</title>
<g id="a_edge12_Node000001_Node000011"><a xlink:title=" ">
<path fill="none" stroke="#63b8ff" d="M497.84,-360.98C556.73,-349.39 634.75,-334.02 686.46,-323.84"/>
<polygon fill="#63b8ff" stroke="#63b8ff" points="496.96,-357.59 487.82,-362.95 498.31,-364.46 496.96,-357.59"/>
</a>
</g>
</g>
<!-- Node3 -->
<g id="Node000003" class="node">
<title>Node3</title>
<g id="a_Node000003"><a xlink:href="../../d1/d57/core_2include_2userver_2clients_2http_2request_8hpp.html" target="_top" xlink:title="Class for creating and performing new http requests.">
<polygon fill="white" stroke="#666666" points="131,-184 20,-184 20,-154 131,-154 131,-184"/>
<text text-anchor="start" x="28" y="-172" font-family="Helvetica,sans-Serif" font-size="10.00">userver/clients/http</text>
<text text-anchor="middle" x="75.5" y="-161" font-family="Helvetica,sans-Serif" font-size="10.00">/request.hpp</text>
</a>
</g>
</g>
<!-- Node2&#45;&gt;Node3 -->
<g id="edge2_Node000002_Node000003" class="edge">
<title>Node2&#45;&gt;Node3</title>
<g id="a_edge2_Node000002_Node000003"><a xlink:title=" ">
<path fill="none" stroke="#63b8ff" d="M165.64,-303.83C112.13,-296.48 42.78,-282.98 25.5,-261 14.24,-246.68 18.53,-236.84 25.5,-220 31.51,-205.48 44.01,-192.98 55.01,-184.11"/>
<polygon fill="#63b8ff" stroke="#63b8ff" points="165.4,-307.33 175.77,-305.17 166.32,-300.39 165.4,-307.33"/>
</a>
</g>
</g>
<!-- Node6 -->
<g id="Node000006" class="node">
<title>Node6</title>
<g id="a_Node000006"><a xlink:href="../../d2/d6c/http__server__mock_8hpp_source.html" target="_top" xlink:title=" ">
<polygon fill="white" stroke="#666666" points="235.5,-112.5 129.5,-112.5 129.5,-82.5 235.5,-82.5 235.5,-112.5"/>
<text text-anchor="start" x="137.5" y="-100.5" font-family="Helvetica,sans-Serif" font-size="10.00">userver/utest/http</text>
<text text-anchor="middle" x="182.5" y="-89.5" font-family="Helvetica,sans-Serif" font-size="10.00">_server_mock.hpp</text>
</a>
</g>
</g>
<!-- Node2&#45;&gt;Node6 -->
<g id="edge11_Node000002_Node000006" class="edge">
<title>Node2&#45;&gt;Node6</title>
<g id="a_edge11_Node000002_Node000006"><a xlink:title=" ">
<path fill="none" stroke="#63b8ff" d="M215.27,-288.57C210.04,-280.28 204.76,-270.57 201.5,-261 183.64,-208.57 181.96,-141.73 182.18,-112.85"/>
<polygon fill="#63b8ff" stroke="#63b8ff" points="212.38,-290.54 220.83,-296.93 218.21,-286.67 212.38,-290.54"/>
</a>
</g>
</g>
<!-- Node7 -->
<g id="Node000007" class="node">
<title>Node7</title>
<g id="a_Node000007"><a xlink:href="../../d2/de8/response__future_8hpp.html" target="_top" xlink:title="Allows to perform a request concurrently with other work without creating an extra coroutine for wait...">
<polygon fill="white" stroke="#666666" points="154,-255.5 35,-255.5 35,-225.5 154,-225.5 154,-255.5"/>
<text text-anchor="start" x="43" y="-243.5" font-family="Helvetica,sans-Serif" font-size="10.00">userver/clients/http</text>
<text text-anchor="middle" x="94.5" y="-232.5" font-family="Helvetica,sans-Serif" font-size="10.00">/response_future.hpp</text>
</a>
</g>
</g>
<!-- Node2&#45;&gt;Node7 -->
<g id="edge6_Node000002_Node000007" class="edge">
<title>Node2&#45;&gt;Node7</title>
<g id="a_edge6_Node000002_Node000007"><a xlink:title=" ">
<path fill="none" stroke="#63b8ff" d="M194.72,-292.34C171.91,-280.77 143.06,-266.14 122.18,-255.54"/>
<polygon fill="#63b8ff" stroke="#63b8ff" points="193.27,-295.53 203.78,-296.94 196.44,-289.29 193.27,-295.53"/>
</a>
</g>
</g>
<!-- Node8 -->
<g id="Node000008" class="node">
<title>Node8</title>
<g id="a_Node000008"><a xlink:href="../../d5/d26/streamed__response_8hpp.html" target="_top" xlink:title="HTTP response for streamed API.">
<polygon fill="white" stroke="#666666" points="348,-255.5 211,-255.5 211,-225.5 348,-225.5 348,-255.5"/>
<text text-anchor="start" x="219" y="-243.5" font-family="Helvetica,sans-Serif" font-size="10.00">userver/clients/http</text>
<text text-anchor="middle" x="279.5" y="-232.5" font-family="Helvetica,sans-Serif" font-size="10.00">/streamed_response.hpp</text>
</a>
</g>
</g>
<!-- Node2&#45;&gt;Node8 -->
<g id="edge8_Node000002_Node000008" class="edge">
<title>Node2&#45;&gt;Node8</title>
<g id="a_edge8_Node000002_Node000008"><a xlink:title=" ">
<path fill="none" stroke="#63b8ff" d="M246.9,-288.71C254.42,-277.82 263.23,-265.05 269.8,-255.54"/>
<polygon fill="#63b8ff" stroke="#63b8ff" points="244.02,-286.72 241.21,-296.94 249.78,-290.7 244.02,-286.72"/>
</a>
</g>
</g>
<!-- Node9 -->
<g id="Node000009" class="node">
<title>Node9</title>
<g id="a_Node000009"><a xlink:href="../../da/d04/manager_8hpp.html" target="_top" xlink:title="Base class for propagating trace context information in headers.">
<polygon fill="white" stroke="#666666" points="523,-250 366,-250 366,-231 523,-231 523,-250"/>
<text text-anchor="middle" x="444.5" y="-238" font-family="Helvetica,sans-Serif" font-size="10.00">userver/tracing/manager.hpp</text>
</a>
</g>
</g>
<!-- Node2&#45;&gt;Node9 -->
<g id="edge9_Node000002_Node000009" class="edge">
<title>Node2&#45;&gt;Node9</title>
<g id="a_edge9_Node000002_Node000009"><a xlink:title=" ">
<path fill="none" stroke="#63b8ff" d="M284.25,-293.79C326.84,-279.89 384.97,-260.92 418.24,-250.07"/>
<polygon fill="#63b8ff" stroke="#63b8ff" points="283.02,-290.51 274.6,-296.94 285.2,-297.16 283.02,-290.51"/>
</a>
</g>
</g>
<!-- Node4 -->
<g id="Node000004" class="node">
<title>Node4</title>
<g id="a_Node000004"><a xlink:href="../../d3/db8/core_2include_2userver_2clients_2http_2client_8hpp.html" target="_top" xlink:title="HTTP client that returns a HTTP request builder from CreateRequest().">
<polygon fill="white" stroke="#666666" points="111,-112.5 0,-112.5 0,-82.5 111,-82.5 111,-112.5"/>
<text text-anchor="start" x="8" y="-100.5" font-family="Helvetica,sans-Serif" font-size="10.00">userver/clients/http</text>
<text text-anchor="middle" x="55.5" y="-89.5" font-family="Helvetica,sans-Serif" font-size="10.00">/client.hpp</text>
</a>
</g>
</g>
<!-- Node3&#45;&gt;Node4 -->
<g id="edge3_Node000003_Node000004" class="edge">
<title>Node3&#45;&gt;Node4</title>
<g id="a_edge3_Node000003_Node000004"><a xlink:title=" ">
<path fill="none" stroke="#63b8ff" d="M68.62,-144.08C65.59,-133.56 62.14,-121.58 59.54,-112.54"/>
<polygon fill="#63b8ff" stroke="#63b8ff" points="65.32,-145.29 71.45,-153.94 72.05,-143.36 65.32,-145.29"/>
</a>
</g>
</g>
<!-- Node3&#45;&gt;Node6 -->
<g id="edge5_Node000003_Node000006" class="edge">
<title>Node3&#45;&gt;Node6</title>
<g id="a_edge5_Node000003_Node000006"><a xlink:title=" ">
<path fill="none" stroke="#63b8ff" d="M105.9,-148.25C123.44,-136.86 145.08,-122.81 160.88,-112.54"/>
<polygon fill="#63b8ff" stroke="#63b8ff" points="103.63,-145.55 97.15,-153.94 107.45,-151.42 103.63,-145.55"/>
</a>
</g>
</g>
<!-- Node5 -->
<g id="Node000005" class="node">
<title>Node5</title>
<g id="a_Node000005"><a xlink:href="../../d7/d98/core_2include_2userver_2clients_2http_2component_8hpp.html" target="_top" xlink:title="Component that manages clients::http::Client.">
<polygon fill="white" stroke="#666666" points="111,-35.5 0,-35.5 0,-5.5 111,-5.5 111,-35.5"/>
<text text-anchor="start" x="8" y="-23.5" font-family="Helvetica,sans-Serif" font-size="10.00">userver/clients/http</text>
<text text-anchor="middle" x="55.5" y="-12.5" font-family="Helvetica,sans-Serif" font-size="10.00">/component.hpp</text>
</a>
</g>
</g>
<!-- Node4&#45;&gt;Node5 -->
<g id="edge4_Node000004_Node000005" class="edge">
<title>Node4&#45;&gt;Node5</title>
<g id="a_edge4_Node000004_Node000005"><a xlink:title=" ">
<path fill="none" stroke="#63b8ff" d="M55.5,-72.04C55.5,-59.95 55.5,-45.79 55.5,-35.54"/>
<polygon fill="#63b8ff" stroke="#63b8ff" points="52,-72.39 55.5,-82.39 59,-72.39 52,-72.39"/>
</a>
</g>
</g>
<!-- Node7&#45;&gt;Node3 -->
<g id="edge7_Node000007_Node000003" class="edge">
<title>Node7&#45;&gt;Node3</title>
<g id="a_edge7_Node000007_Node000003"><a xlink:title=" ">
<path fill="none" stroke="#63b8ff" d="M87.96,-215.58C85.09,-205.06 81.81,-193.08 79.34,-184.04"/>
<polygon fill="#63b8ff" stroke="#63b8ff" points="84.64,-216.71 90.66,-225.44 91.39,-214.87 84.64,-216.71"/>
</a>
</g>
</g>
<!-- Node10 -->
<g id="Node000010" class="node">
<title>Node10</title>
<g id="a_Node000010"><a xlink:href="../../d6/dbd/manager__component_8hpp.html" target="_top" xlink:title="TracingManager base and default components.">
<polygon fill="white" stroke="#666666" points="513,-184 376,-184 376,-154 513,-154 513,-184"/>
<text text-anchor="start" x="384" y="-172" font-family="Helvetica,sans-Serif" font-size="10.00">userver/tracing/manager</text>
<text text-anchor="middle" x="444.5" y="-161" font-family="Helvetica,sans-Serif" font-size="10.00">_component.hpp</text>
</a>
</g>
</g>
<!-- Node9&#45;&gt;Node10 -->
<g id="edge10_Node000009_Node000010" class="edge">
<title>Node9&#45;&gt;Node10</title>
<g id="a_edge10_Node000009_Node000010"><a xlink:title=" ">
<path fill="none" stroke="#63b8ff" d="M444.5,-220.71C444.5,-209.19 444.5,-194.68 444.5,-184.14"/>
<polygon fill="#63b8ff" stroke="#63b8ff" points="441,-220.98 444.5,-230.98 448,-220.98 441,-220.98"/>
</a>
</g>
</g>
<!-- Node12 -->
<g id="Node000012" class="node">
<title>Node12</title>
<g id="a_Node000012"><a xlink:href="../../de/d82/digest_2auth__checker__base_8hpp.html" target="_top" xlink:title="Base class for digest authentication checkers. Implements a digest&#45;authentication logic.">
<polygon fill="white" stroke="#666666" points="721.5,-118 579.5,-118 579.5,-77 721.5,-77 721.5,-118"/>
<text text-anchor="start" x="587.5" y="-106" font-family="Helvetica,sans-Serif" font-size="10.00">userver/server/handlers</text>
<text text-anchor="start" x="587.5" y="-95" font-family="Helvetica,sans-Serif" font-size="10.00">/auth/digest/auth_checker</text>
<text text-anchor="middle" x="650.5" y="-84" font-family="Helvetica,sans-Serif" font-size="10.00">_base.hpp</text>
</a>
</g>
</g>
<!-- Node11&#45;&gt;Node12 -->
<g id="edge13_Node000011_Node000012" class="edge">
<title>Node11&#45;&gt;Node12</title>
<g id="a_edge13_Node000011_Node000012"><a xlink:title=" ">
<path fill="none" stroke="#63b8ff" d="M731.44,-287.5C713.35,-245.27 675.68,-157.31 658.89,-118.1"/>
<polygon fill="#63b8ff" stroke="#63b8ff" points="728.23,-288.91 735.39,-296.73 734.67,-286.16 728.23,-288.91"/>
</a>
</g>
</g>
<!-- Node13 -->
<g id="Node000013" class="node">
<title>Node13</title>
<g id="a_Node000013"><a xlink:href="../../db/df0/standalone__checker_8hpp.html" target="_top" xlink:title="Class for digest authentication checker. Implements a stand&#45;alone digest&#45;authentication logic.">
<polygon fill="white" stroke="#666666" points="716.5,-41 584.5,-41 584.5,0 716.5,0 716.5,-41"/>
<text text-anchor="start" x="592.5" y="-29" font-family="Helvetica,sans-Serif" font-size="10.00">userver/server/handlers</text>
<text text-anchor="start" x="592.5" y="-18" font-family="Helvetica,sans-Serif" font-size="10.00">/auth/digest/standalone</text>
<text text-anchor="middle" x="650.5" y="-7" font-family="Helvetica,sans-Serif" font-size="10.00">_checker.hpp</text>
</a>
</g>
</g>
<!-- Node11&#45;&gt;Node13 -->
<g id="edge15_Node000011_Node000013" class="edge">
<title>Node11&#45;&gt;Node13</title>
<g id="a_edge15_Node000011_Node000013"><a xlink:title=" ">
<path fill="none" stroke="#63b8ff" d="M713.55,-290.58C672.91,-258.96 599.25,-193.81 570.5,-118 564.04,-100.96 562.05,-93.14 570.5,-77 578.49,-61.72 592.82,-49.81 607.16,-41"/>
<polygon fill="#63b8ff" stroke="#63b8ff" points="711.62,-293.51 721.69,-296.81 715.87,-287.95 711.62,-293.51"/>
</a>
</g>
</g>
<!-- Node14 -->
<g id="Node000014" class="node">
<title>Node14</title>
<g id="a_Node000014"><a xlink:href="../../d4/df6/http__handler__base_8hpp.html" target="_top" xlink:title="Base class for all the Userver HTTP Handlers.">
<polygon fill="white" stroke="#666666" points="1881.5,-184 1749.5,-184 1749.5,-154 1881.5,-154 1881.5,-184"/>
<text text-anchor="start" x="1757.5" y="-172" font-family="Helvetica,sans-Serif" font-size="10.00">userver/server/handlers</text>
<text text-anchor="middle" x="1815.5" y="-161" font-family="Helvetica,sans-Serif" font-size="10.00">/http_handler_base.hpp</text>
</a>
</g>
</g>
<!-- Node11&#45;&gt;Node14 -->
<g id="edge16_Node000011_Node000014" class="edge">
<title>Node11&#45;&gt;Node14</title>
<g id="a_edge16_Node000011_Node000014"><a xlink:title=" ">
<path fill="none" stroke="#63b8ff" d="M806.5,-295.36C831.81,-287.47 860.26,-276.26 883.5,-261 904.27,-247.36 899.02,-230.57 921.5,-220 995.7,-185.1 1554.91,-173.76 1749.22,-170.86"/>
<polygon fill="#63b8ff" stroke="#63b8ff" points="805.18,-292.11 796.61,-298.33 807.19,-298.81 805.18,-292.11"/>
</a>
</g>
</g>
<!-- Node32 -->
<g id="Node000032" class="node">
<title>Node32</title>
<g id="a_Node000032"><a xlink:href="../../d2/d45/http__request_8hpp.html" target="_top" xlink:title="HTTP Request data.">
<polygon fill="white" stroke="#666666" points="874.5,-255.5 764.5,-255.5 764.5,-225.5 874.5,-225.5 874.5,-255.5"/>
<text text-anchor="start" x="772.5" y="-243.5" font-family="Helvetica,sans-Serif" font-size="10.00">userver/server/http</text>
<text text-anchor="middle" x="819.5" y="-232.5" font-family="Helvetica,sans-Serif" font-size="10.00">/http_request.hpp</text>
</a>
</g>
</g>
<!-- Node11&#45;&gt;Node32 -->
<g id="edge34_Node000011_Node000032" class="edge">
<title>Node11&#45;&gt;Node32</title>
<g id="a_edge34_Node000011_Node000032"><a xlink:title=" ">
<path fill="none" stroke="#63b8ff" d="M765.08,-289.99C777.6,-278.84 792.64,-265.43 803.74,-255.54"/>
<polygon fill="#63b8ff" stroke="#63b8ff" points="762.42,-287.67 757.28,-296.94 767.08,-292.9 762.42,-287.67"/>
</a>
</g>
</g>
<!-- Node36 -->
<g id="Node000036" class="node">
<title>Node36</title>
<g id="a_Node000036"><a xlink:href="../../d8/d76/http__response__body__stream_8hpp_source.html" target="_top" xlink:title=" ">
<polygon fill="white" stroke="#666666" points="1048.5,-261 930.5,-261 930.5,-220 1048.5,-220 1048.5,-261"/>
<text text-anchor="start" x="938.5" y="-249" font-family="Helvetica,sans-Serif" font-size="10.00">userver/server/http</text>
<text text-anchor="start" x="938.5" y="-238" font-family="Helvetica,sans-Serif" font-size="10.00">/http_response_body</text>
<text text-anchor="middle" x="989.5" y="-227" font-family="Helvetica,sans-Serif" font-size="10.00">_stream.hpp</text>
</a>
</g>
</g>
<!-- Node11&#45;&gt;Node36 -->
<g id="edge43_Node000011_Node000036" class="edge">
<title>Node11&#45;&gt;Node36</title>
<g id="a_edge43_Node000011_Node000036"><a xlink:title=" ">
<path fill="none" stroke="#63b8ff" d="M801.36,-294.23C840.44,-283.27 891.25,-269.03 930.22,-258.11"/>
<polygon fill="#63b8ff" stroke="#63b8ff" points="800.37,-290.87 791.69,-296.94 802.26,-297.61 800.37,-290.87"/>
</a>
</g>
</g>
<!-- Node12&#45;&gt;Node13 -->
<g id="edge14_Node000012_Node000013" class="edge">
<title>Node12&#45;&gt;Node13</title>
<g id="a_edge14_Node000012_Node000013"><a xlink:title=" ">
<path fill="none" stroke="#63b8ff" d="M650.5,-66.69C650.5,-58.08 650.5,-48.9 650.5,-41.07"/>
<polygon fill="#63b8ff" stroke="#63b8ff" points="647,-66.79 650.5,-76.79 654,-66.79 647,-66.79"/>
</a>
</g>
</g>
<!-- Node15 -->
<g id="Node000015" class="node">
<title>Node15</title>
<g id="a_Node000015"><a xlink:href="../../d6/d0d/dns__client__control_8hpp.html" target="_top" xlink:title="Handlers that controls the DNS client.">
<polygon fill="white" stroke="#666666" points="2791.5,-112.5 2659.5,-112.5 2659.5,-82.5 2791.5,-82.5 2791.5,-112.5"/>
<text text-anchor="start" x="2667.5" y="-100.5" font-family="Helvetica,sans-Serif" font-size="10.00">userver/server/handlers</text>
<text text-anchor="middle" x="2725.5" y="-89.5" font-family="Helvetica,sans-Serif" font-size="10.00">/dns_client_control.hpp</text>
</a>
</g>
</g>
<!-- Node14&#45;&gt;Node15 -->
<g id="edge17_Node000014_Node000015" class="edge">
<title>Node14&#45;&gt;Node15</title>
<g id="a_edge17_Node000014_Node000015"><a xlink:title=" ">
<path fill="none" stroke="#63b8ff" d="M1892.04,-168.37C2039.68,-168 2373.68,-161.85 2650.5,-118 2659.14,-116.63 2668.22,-114.7 2676.97,-112.58"/>
<polygon fill="#63b8ff" stroke="#63b8ff" points="1891.73,-164.87 1881.73,-168.39 1891.74,-171.87 1891.73,-164.87"/>
</a>
</g>
</g>
<!-- Node16 -->
<g id="Node000016" class="node">
<title>Node16</title>
<g id="a_Node000016"><a xlink:href="../../d6/dc0/dynamic__debug__log_8hpp.html" target="_top" xlink:title="HTTP Handler to show/hide logs at the specific file:line.">
<polygon fill="white" stroke="#666666" points="2947.5,-112.5 2809.5,-112.5 2809.5,-82.5 2947.5,-82.5 2947.5,-112.5"/>
<text text-anchor="start" x="2817.5" y="-100.5" font-family="Helvetica,sans-Serif" font-size="10.00">userver/server/handlers</text>
<text text-anchor="middle" x="2878.5" y="-89.5" font-family="Helvetica,sans-Serif" font-size="10.00">/dynamic_debug_log.hpp</text>
</a>
</g>
</g>
<!-- Node14&#45;&gt;Node16 -->
<g id="edge18_Node000014_Node000016" class="edge">
<title>Node14&#45;&gt;Node16</title>
<g id="a_edge18_Node000014_Node000016"><a xlink:title=" ">
<path fill="none" stroke="#63b8ff" d="M1891.67,-166.05C2091.16,-160.63 2625.5,-144.06 2800.5,-118 2809.61,-116.64 2819.21,-114.69 2828.44,-112.54"/>
<polygon fill="#63b8ff" stroke="#63b8ff" points="1891.48,-162.55 1881.57,-166.32 1891.66,-169.55 1891.48,-162.55"/>
</a>
</g>
</g>
<!-- Node17 -->
<g id="Node000017" class="node">
<title>Node17</title>
<g id="a_Node000017"><a xlink:href="../../d5/d4d/http__handler__flatbuf__base_8hpp.html" target="_top" xlink:title="Convenient base for handlers that accept requests with body in Flatbuffer format and respond with bod...">
<polygon fill="white" stroke="#666666" points="1255.5,-118 1123.5,-118 1123.5,-77 1255.5,-77 1255.5,-118"/>
<text text-anchor="start" x="1131.5" y="-106" font-family="Helvetica,sans-Serif" font-size="10.00">userver/server/handlers</text>
<text text-anchor="start" x="1131.5" y="-95" font-family="Helvetica,sans-Serif" font-size="10.00">/http_handler_flatbuf</text>
<text text-anchor="middle" x="1189.5" y="-84" font-family="Helvetica,sans-Serif" font-size="10.00">_base.hpp</text>
</a>
</g>
</g>
<!-- Node14&#45;&gt;Node17 -->
<g id="edge19_Node000014_Node000017" class="edge">
<title>Node14&#45;&gt;Node17</title>
<g id="a_edge19_Node000014_Node000017"><a xlink:title=" ">
<path fill="none" stroke="#63b8ff" d="M1739.27,-165.03C1632.45,-159.98 1432.49,-147.26 1264.5,-118 1261.58,-117.49 1258.62,-116.93 1255.62,-116.32"/>
<polygon fill="#63b8ff" stroke="#63b8ff" points="1739.16,-168.53 1749.31,-165.5 1739.48,-161.54 1739.16,-168.53"/>
</a>
</g>
</g>
<!-- Node18 -->
<g id="Node000018" class="node">
<title>Node18</title>
<g id="a_Node000018"><a xlink:href="../../d1/d58/http__handler__json__base_8hpp.html" target="_top" xlink:title="Convenient base for handlers that accept requests with body in JSON format and respond with body in J...">
<polygon fill="white" stroke="#666666" points="1429.5,-112.5 1273.5,-112.5 1273.5,-82.5 1429.5,-82.5 1429.5,-112.5"/>
<text text-anchor="start" x="1281.5" y="-100.5" font-family="Helvetica,sans-Serif" font-size="10.00">userver/server/handlers</text>
<text text-anchor="middle" x="1351.5" y="-89.5" font-family="Helvetica,sans-Serif" font-size="10.00">/http_handler_json_base.hpp</text>
</a>
</g>
</g>
<!-- Node14&#45;&gt;Node18 -->
<g id="edge20_Node000014_Node000018" class="edge">
<title>Node14&#45;&gt;Node18</title>
<g id="a_edge20_Node000014_Node000018"><a xlink:title=" ">
<path fill="none" stroke="#63b8ff" d="M1739.15,-159.89C1662.78,-151.3 1542.08,-136.44 1438.5,-118 1429.51,-116.4 1420.04,-114.5 1410.79,-112.53"/>
<polygon fill="#63b8ff" stroke="#63b8ff" points="1738.84,-163.37 1749.17,-161 1739.62,-156.42 1738.84,-163.37"/>
</a>
</g>
</g>
<!-- Node22 -->
<g id="Node000022" class="node">
<title>Node22</title>
<g id="a_Node000022"><a xlink:href="../../dd/db6/http__handler__static_8hpp.html" target="_top" xlink:title="Handler that returns HTTP 200 if file exist and returns file data with mapped content/type.">
<polygon fill="white" stroke="#666666" points="1581.5,-112.5 1447.5,-112.5 1447.5,-82.5 1581.5,-82.5 1581.5,-112.5"/>
<text text-anchor="start" x="1455.5" y="-100.5" font-family="Helvetica,sans-Serif" font-size="10.00">userver/server/handlers</text>
<text text-anchor="middle" x="1514.5" y="-89.5" font-family="Helvetica,sans-Serif" font-size="10.00">/http_handler_static.hpp</text>
</a>
</g>
</g>
<!-- Node14&#45;&gt;Node22 -->
<g id="edge24_Node000014_Node000022" class="edge">
<title>Node14&#45;&gt;Node22</title>
<g id="a_edge24_Node000014_Node000022"><a xlink:title=" ">
<path fill="none" stroke="#63b8ff" d="M1739.43,-151.74C1695.77,-142.25 1639.96,-129.84 1590.5,-118 1583.35,-116.29 1575.83,-114.43 1568.42,-112.57"/>
<polygon fill="#63b8ff" stroke="#63b8ff" points="1738.89,-155.2 1749.41,-153.9 1740.38,-148.36 1738.89,-155.2"/>
</a>
</g>
</g>
<!-- Node23 -->
<g id="Node000023" class="node">
<title>Node23</title>
<g id="a_Node000023"><a xlink:href="../../d7/db3/implicit__options_8hpp.html" target="_top" xlink:title="A &quot;magical&quot; handler that will respond to OPTIONS HTTP method for any other handler that cannot handle...">
<polygon fill="white" stroke="#666666" points="1731.5,-112.5 1599.5,-112.5 1599.5,-82.5 1731.5,-82.5 1731.5,-112.5"/>
<text text-anchor="start" x="1607.5" y="-100.5" font-family="Helvetica,sans-Serif" font-size="10.00">userver/server/handlers</text>
<text text-anchor="middle" x="1665.5" y="-89.5" font-family="Helvetica,sans-Serif" font-size="10.00">/implicit_options.hpp</text>
</a>
</g>
</g>
<!-- Node14&#45;&gt;Node23 -->
<g id="edge25_Node000014_Node000023" class="edge">
<title>Node14&#45;&gt;Node23</title>
<g id="a_edge25_Node000014_Node000023"><a xlink:title=" ">
<path fill="none" stroke="#63b8ff" d="M1775.9,-149.65C1750.82,-138.03 1718.87,-123.23 1695.81,-112.54"/>
<polygon fill="#63b8ff" stroke="#63b8ff" points="1774.6,-152.91 1785.15,-153.94 1777.54,-146.56 1774.6,-152.91"/>
</a>
</g>
</g>
<!-- Node24 -->
<g id="Node000024" class="node">
<title>Node24</title>
<g id="a_Node000024"><a xlink:href="../../d5/d86/jemalloc_8hpp.html" target="_top" xlink:title="Handler that controls the jemalloc allocator.">
<polygon fill="white" stroke="#666666" points="1881.5,-112.5 1749.5,-112.5 1749.5,-82.5 1881.5,-82.5 1881.5,-112.5"/>
<text text-anchor="start" x="1757.5" y="-100.5" font-family="Helvetica,sans-Serif" font-size="10.00">userver/server/handlers</text>
<text text-anchor="middle" x="1815.5" y="-89.5" font-family="Helvetica,sans-Serif" font-size="10.00">/jemalloc.hpp</text>
</a>
</g>
</g>
<!-- Node14&#45;&gt;Node24 -->
<g id="edge26_Node000014_Node000024" class="edge">
<title>Node14&#45;&gt;Node24</title>
<g id="a_edge26_Node000014_Node000024"><a xlink:title=" ">
<path fill="none" stroke="#63b8ff" d="M1815.5,-143.75C1815.5,-133.31 1815.5,-121.49 1815.5,-112.54"/>
<polygon fill="#63b8ff" stroke="#63b8ff" points="1812,-143.94 1815.5,-153.94 1819,-143.94 1812,-143.94"/>
</a>
</g>
</g>
<!-- Node25 -->
<g id="Node000025" class="node">
<title>Node25</title>
<g id="a_Node000025"><a xlink:href="../../d0/d01/log__level_8hpp.html" target="_top" xlink:title="Handler that controls logging levels of all the loggers.">
<polygon fill="white" stroke="#666666" points="2031.5,-112.5 1899.5,-112.5 1899.5,-82.5 2031.5,-82.5 2031.5,-112.5"/>
<text text-anchor="start" x="1907.5" y="-100.5" font-family="Helvetica,sans-Serif" font-size="10.00">userver/server/handlers</text>
<text text-anchor="middle" x="1965.5" y="-89.5" font-family="Helvetica,sans-Serif" font-size="10.00">/log_level.hpp</text>
</a>
</g>
</g>
<!-- Node14&#45;&gt;Node25 -->
<g id="edge27_Node000014_Node000025" class="edge">
<title>Node14&#45;&gt;Node25</title>
<g id="a_edge27_Node000014_Node000025"><a xlink:title=" ">
<path fill="none" stroke="#63b8ff" d="M1855.1,-149.65C1880.18,-138.03 1912.13,-123.23 1935.19,-112.54"/>
<polygon fill="#63b8ff" stroke="#63b8ff" points="1853.46,-146.56 1845.85,-153.94 1856.4,-152.91 1853.46,-146.56"/>
</a>
</g>
</g>
<!-- Node26 -->
<g id="Node000026" class="node">
<title>Node26</title>
<g id="a_Node000026"><a xlink:href="../../d7/d72/on__log__rotate_8hpp.html" target="_top" xlink:title="Handler that controls logging levels of all the loggers.">
<polygon fill="white" stroke="#666666" points="2181.5,-112.5 2049.5,-112.5 2049.5,-82.5 2181.5,-82.5 2181.5,-112.5"/>
<text text-anchor="start" x="2057.5" y="-100.5" font-family="Helvetica,sans-Serif" font-size="10.00">userver/server/handlers</text>
<text text-anchor="middle" x="2115.5" y="-89.5" font-family="Helvetica,sans-Serif" font-size="10.00">/on_log_rotate.hpp</text>
</a>
</g>
</g>
<!-- Node14&#45;&gt;Node26 -->
<g id="edge28_Node000014_Node000026" class="edge">
<title>Node14&#45;&gt;Node26</title>
<g id="a_edge28_Node000014_Node000026"><a xlink:title=" ">
<path fill="none" stroke="#63b8ff" d="M1891.58,-151.8C1935.25,-142.33 1991.06,-129.92 2040.5,-118 2047.56,-116.3 2054.98,-114.45 2062.3,-112.58"/>
<polygon fill="#63b8ff" stroke="#63b8ff" points="1890.64,-148.42 1881.61,-153.96 1892.12,-155.26 1890.64,-148.42"/>
</a>
</g>
</g>
<!-- Node27 -->
<g id="Node000027" class="node">
<title>Node27</title>
<g id="a_Node000027"><a xlink:href="../../d8/d39/ping_8hpp.html" target="_top" xlink:title="Handler that returns HTTP 200 if the service is OK and able to process requests.">
<polygon fill="white" stroke="#666666" points="2331.5,-112.5 2199.5,-112.5 2199.5,-82.5 2331.5,-82.5 2331.5,-112.5"/>
<text text-anchor="start" x="2207.5" y="-100.5" font-family="Helvetica,sans-Serif" font-size="10.00">userver/server/handlers</text>
<text text-anchor="middle" x="2265.5" y="-89.5" font-family="Helvetica,sans-Serif" font-size="10.00">/ping.hpp</text>
</a>
</g>
</g>
<!-- Node14&#45;&gt;Node27 -->
<g id="edge29_Node000014_Node000027" class="edge">
<title>Node14&#45;&gt;Node27</title>
<g id="a_edge29_Node000014_Node000027"><a xlink:title=" ">
<path fill="none" stroke="#63b8ff" d="M1891.58,-160.6C1967.66,-152.57 2087.79,-138.12 2190.5,-118 2198.42,-116.45 2206.75,-114.55 2214.86,-112.56"/>
<polygon fill="#63b8ff" stroke="#63b8ff" points="1891.19,-157.13 1881.61,-161.65 1891.92,-164.09 1891.19,-157.13"/>
</a>
</g>
</g>
<!-- Node28 -->
<g id="Node000028" class="node">
<title>Node28</title>
<g id="a_Node000028"><a xlink:href="../../de/d18/server__monitor_8hpp.html" target="_top" xlink:title="Handler that returns statistics data.">
<polygon fill="white" stroke="#666666" points="2481.5,-112.5 2349.5,-112.5 2349.5,-82.5 2481.5,-82.5 2481.5,-112.5"/>
<text text-anchor="start" x="2357.5" y="-100.5" font-family="Helvetica,sans-Serif" font-size="10.00">userver/server/handlers</text>
<text text-anchor="middle" x="2415.5" y="-89.5" font-family="Helvetica,sans-Serif" font-size="10.00">/server_monitor.hpp</text>
</a>
</g>
</g>
<!-- Node14&#45;&gt;Node28 -->
<g id="edge30_Node000014_Node000028" class="edge">
<title>Node14&#45;&gt;Node28</title>
<g id="a_edge30_Node000014_Node000028"><a xlink:title=" ">
<path fill="none" stroke="#63b8ff" d="M1892.12,-164.54C1994.82,-159.02 2182.5,-145.88 2340.5,-118 2348.85,-116.53 2357.63,-114.6 2366.12,-112.53"/>
<polygon fill="#63b8ff" stroke="#63b8ff" points="1891.65,-161.06 1881.84,-165.08 1892.01,-168.05 1891.65,-161.06"/>
</a>
</g>
</g>
<!-- Node29 -->
<g id="Node000029" class="node">
<title>Node29</title>
<g id="a_Node000029"><a xlink:href="../../d8/d82/core_2include_2userver_2server_2server_8hpp_source.html" target="_top" xlink:title=" ">
<polygon fill="white" stroke="#666666" points="2641,-107 2500,-107 2500,-88 2641,-88 2641,-107"/>
<text text-anchor="middle" x="2570.5" y="-95" font-family="Helvetica,sans-Serif" font-size="10.00">userver/server/server.hpp</text>
</a>
</g>
</g>
<!-- Node14&#45;&gt;Node29 -->
<g id="edge31_Node000014_Node000029" class="edge">
<title>Node14&#45;&gt;Node29</title>
<g id="a_edge31_Node000014_Node000029"><a xlink:title=" ">
<path fill="none" stroke="#63b8ff" d="M1891.82,-166.45C2017.4,-162.97 2275.15,-151.98 2490.5,-118 2507.16,-115.37 2525.46,-111.02 2540.35,-107.1"/>
<polygon fill="#63b8ff" stroke="#63b8ff" points="1891.45,-162.95 1881.55,-166.72 1891.64,-169.95 1891.45,-162.95"/>
</a>
</g>
</g>
<!-- Node31 -->
<g id="Node000031" class="node">
<title>Node31</title>
<g id="a_Node000031"><a xlink:href="../../d4/d64/websocket__handler_8hpp.html" target="_top" xlink:title=" ">
<polygon fill="white" stroke="#666666" points="1105.5,-112.5 963.5,-112.5 963.5,-82.5 1105.5,-82.5 1105.5,-112.5"/>
<text text-anchor="start" x="971.5" y="-100.5" font-family="Helvetica,sans-Serif" font-size="10.00">userver/server/websocket</text>
<text text-anchor="middle" x="1034.5" y="-89.5" font-family="Helvetica,sans-Serif" font-size="10.00">/websocket_handler.hpp</text>
</a>
</g>
</g>
<!-- Node14&#45;&gt;Node31 -->
<g id="edge33_Node000014_Node000031" class="edge">
<title>Node14&#45;&gt;Node31</title>
<g id="a_edge33_Node000014_Node000031"><a xlink:title=" ">
<path fill="none" stroke="#63b8ff" d="M1739.17,-166.74C1609.88,-163.68 1339.84,-153.24 1114.5,-118 1105.46,-116.59 1095.94,-114.66 1086.75,-112.57"/>
<polygon fill="#63b8ff" stroke="#63b8ff" points="1739.29,-170.25 1749.36,-166.97 1739.45,-163.25 1739.29,-170.25"/>
</a>
</g>
</g>
<!-- Node19 -->
<g id="Node000019" class="node">
<title>Node19</title>
<g id="a_Node000019"><a xlink:href="../../d5/ded/handler_8hpp_source.html" target="_top" xlink:title=" ">
<polygon fill="white" stroke="#666666" points="1423.5,-30 1279.5,-30 1279.5,-11 1423.5,-11 1423.5,-30"/>
<text text-anchor="middle" x="1351.5" y="-18" font-family="Helvetica,sans-Serif" font-size="10.00">userver/alerts/handler.hpp</text>
</a>
</g>
</g>
<!-- Node18&#45;&gt;Node19 -->
<g id="edge21_Node000018_Node000019" class="edge">
<title>Node18&#45;&gt;Node19</title>
<g id="a_edge21_Node000018_Node000019"><a xlink:title=" ">
<path fill="none" stroke="#63b8ff" d="M1351.5,-72.18C1351.5,-57.86 1351.5,-40.61 1351.5,-30.37"/>
<polygon fill="#63b8ff" stroke="#63b8ff" points="1348,-72.39 1351.5,-82.39 1355,-72.39 1348,-72.39"/>
</a>
</g>
</g>
<!-- Node20 -->
<g id="Node000020" class="node">
<title>Node20</title>
<g id="a_Node000020"><a xlink:href="../../d7/d79/inspect__requests_8hpp.html" target="_top" xlink:title="Handler that returns information about all in&#45;flight requests.">
<polygon fill="white" stroke="#666666" points="1573.5,-35.5 1441.5,-35.5 1441.5,-5.5 1573.5,-5.5 1573.5,-35.5"/>
<text text-anchor="start" x="1449.5" y="-23.5" font-family="Helvetica,sans-Serif" font-size="10.00">userver/server/handlers</text>
<text text-anchor="middle" x="1507.5" y="-12.5" font-family="Helvetica,sans-Serif" font-size="10.00">/inspect_requests.hpp</text>
</a>
</g>
</g>
<!-- Node18&#45;&gt;Node20 -->
<g id="edge22_Node000018_Node000020" class="edge">
<title>Node18&#45;&gt;Node20</title>
<g id="a_edge22_Node000018_Node000020"><a xlink:title=" ">
<path fill="none" stroke="#63b8ff" d="M1390.1,-77.94C1417.38,-64.83 1453.38,-47.52 1478.29,-35.54"/>
<polygon fill="#63b8ff" stroke="#63b8ff" points="1388.34,-74.91 1380.84,-82.39 1391.37,-81.21 1388.34,-74.91"/>
</a>
</g>
</g>
<!-- Node21 -->
<g id="Node000021" class="node">
<title>Node21</title>
<g id="a_Node000021"><a xlink:href="../../d6/d43/tests__control_8hpp.html" target="_top" xlink:title="Handler that allows to control the behavior of server from tests, and functional tests with testsuite...">
<polygon fill="white" stroke="#666666" points="1261.5,-35.5 1129.5,-35.5 1129.5,-5.5 1261.5,-5.5 1261.5,-35.5"/>
<text text-anchor="start" x="1137.5" y="-23.5" font-family="Helvetica,sans-Serif" font-size="10.00">userver/server/handlers</text>
<text text-anchor="middle" x="1195.5" y="-12.5" font-family="Helvetica,sans-Serif" font-size="10.00">/tests_control.hpp</text>
</a>
</g>
</g>
<!-- Node18&#45;&gt;Node21 -->
<g id="edge23_Node000018_Node000021" class="edge">
<title>Node18&#45;&gt;Node21</title>
<g id="a_edge23_Node000018_Node000021"><a xlink:title=" ">
<path fill="none" stroke="#63b8ff" d="M1312.9,-77.94C1285.62,-64.83 1249.62,-47.52 1224.71,-35.54"/>
<polygon fill="#63b8ff" stroke="#63b8ff" points="1311.63,-81.21 1322.16,-82.39 1314.66,-74.91 1311.63,-81.21"/>
</a>
</g>
</g>
<!-- Node30 -->
<g id="Node000030" class="node">
<title>Node30</title>
<g id="a_Node000030"><a xlink:href="../../d3/ddd/core_2include_2userver_2server_2component_8hpp.html" target="_top" xlink:title="Component that listens for incoming requests, manages incoming connections and passes the requests to...">
<polygon fill="white" stroke="#666666" points="2653.5,-30 2487.5,-30 2487.5,-11 2653.5,-11 2653.5,-30"/>
<text text-anchor="middle" x="2570.5" y="-18" font-family="Helvetica,sans-Serif" font-size="10.00">userver/server/component.hpp</text>
</a>
</g>
</g>
<!-- Node29&#45;&gt;Node30 -->
<g id="edge32_Node000029_Node000030" class="edge">
<title>Node29&#45;&gt;Node30</title>
<g id="a_edge32_Node000029_Node000030"><a xlink:title=" ">
<path fill="none" stroke="#63b8ff" d="M2570.5,-77.52C2570.5,-62.24 2570.5,-41.48 2570.5,-30"/>
<polygon fill="#63b8ff" stroke="#63b8ff" points="2567,-77.9 2570.5,-87.9 2574,-77.9 2567,-77.9"/>
</a>
</g>
</g>
<!-- Node32&#45;&gt;Node12 -->
<g id="edge38_Node000032_Node000012" class="edge">
<title>Node32&#45;&gt;Node12</title>
<g id="a_edge38_Node000032_Node000012"><a xlink:title=" ">
<path fill="none" stroke="#63b8ff" d="M784.41,-220.12C767.71,-210.22 747.87,-197.44 731.5,-184 706.85,-163.76 682.16,-136.44 666.64,-118.18"/>
<polygon fill="#63b8ff" stroke="#63b8ff" points="782.91,-223.3 793.32,-225.3 786.44,-217.25 782.91,-223.3"/>
</a>
</g>
</g>
<!-- Node32&#45;&gt;Node13 -->
<g id="edge39_Node000032_Node000013" class="edge">
<title>Node32&#45;&gt;Node13</title>
<g id="a_edge39_Node000032_Node000013"><a xlink:title=" ">
<path fill="none" stroke="#63b8ff" d="M865.14,-220.66C881.01,-211.84 897.37,-199.74 907.5,-184 933.33,-143.87 946.6,-114.03 916.5,-77 891.76,-46.57 786.97,-32.26 716.54,-25.96"/>
<polygon fill="#63b8ff" stroke="#63b8ff" points="863.14,-217.75 855.89,-225.47 866.38,-223.95 863.14,-217.75"/>
</a>
</g>
</g>
<!-- Node32&#45;&gt;Node14 -->
<g id="edge40_Node000032_Node000014" class="edge">
<title>Node32&#45;&gt;Node14</title>
<g id="a_edge40_Node000032_Node000014"><a xlink:title=" ">
<path fill="none" stroke="#63b8ff" d="M873.79,-222.95C878.73,-221.81 883.69,-220.8 888.5,-220 1054.45,-192.43 1566.14,-176.58 1749.38,-171.66"/>
<polygon fill="#63b8ff" stroke="#63b8ff" points="872.58,-219.65 863.71,-225.45 874.26,-226.44 872.58,-219.65"/>
</a>
</g>
</g>
<!-- Node33 -->
<g id="Node000033" class="node">
<title>Node33</title>
<g id="a_Node000033"><a xlink:href="../../da/dff/auth__checker__base_8hpp_source.html" target="_top" xlink:title=" ">
<polygon fill="white" stroke="#666666" points="898.5,-184 740.5,-184 740.5,-154 898.5,-154 898.5,-184"/>
<text text-anchor="start" x="748.5" y="-172" font-family="Helvetica,sans-Serif" font-size="10.00">userver/server/handlers</text>
<text text-anchor="middle" x="819.5" y="-161" font-family="Helvetica,sans-Serif" font-size="10.00">/auth/auth_checker_base.hpp</text>
</a>
</g>
</g>
<!-- Node32&#45;&gt;Node33 -->
<g id="edge35_Node000032_Node000033" class="edge">
<title>Node32&#45;&gt;Node33</title>
<g id="a_edge35_Node000032_Node000033"><a xlink:title=" ">
<path fill="none" stroke="#63b8ff" d="M819.5,-215.25C819.5,-204.81 819.5,-192.99 819.5,-184.04"/>
<polygon fill="#63b8ff" stroke="#63b8ff" points="816,-215.44 819.5,-225.44 823,-215.44 816,-215.44"/>
</a>
</g>
</g>
<!-- Node35 -->
<g id="Node000035" class="node">
<title>Node35</title>
<g id="a_Node000035"><a xlink:href="../../de/d4e/core_2include_2userver_2server_2websocket_2server_8hpp.html" target="_top" xlink:title=" ">
<polygon fill="white" stroke="#666666" points="1105.5,-184 963.5,-184 963.5,-154 1105.5,-154 1105.5,-184"/>
<text text-anchor="start" x="971.5" y="-172" font-family="Helvetica,sans-Serif" font-size="10.00">userver/server/websocket</text>
<text text-anchor="middle" x="1034.5" y="-161" font-family="Helvetica,sans-Serif" font-size="10.00">/server.hpp</text>
</a>
</g>
</g>
<!-- Node32&#45;&gt;Node35 -->
<g id="edge41_Node000032_Node000035" class="edge">
<title>Node32&#45;&gt;Node35</title>
<g id="a_edge41_Node000032_Node000035"><a xlink:title=" ">
<path fill="none" stroke="#63b8ff" d="M872.96,-222.22C909.38,-210.45 956.98,-195.06 991.06,-184.04"/>
<polygon fill="#63b8ff" stroke="#63b8ff" points="871.45,-219.03 863.01,-225.44 873.6,-225.69 871.45,-219.03"/>
</a>
</g>
</g>
<!-- Node33&#45;&gt;Node12 -->
<g id="edge37_Node000033_Node000012" class="edge">
<title>Node33&#45;&gt;Node12</title>
<g id="a_edge37_Node000033_Node000012"><a xlink:title=" ">
<path fill="none" stroke="#63b8ff" d="M775.81,-150.03C752,-140.24 722.49,-128.11 698.1,-118.07"/>
<polygon fill="#63b8ff" stroke="#63b8ff" points="774.72,-153.37 785.3,-153.94 777.38,-146.9 774.72,-153.37"/>
</a>
</g>
</g>
<!-- Node34 -->
<g id="Node000034" class="node">
<title>Node34</title>
<g id="a_Node000034"><a xlink:href="../../db/ddd/auth__checker__factory_8hpp.html" target="_top" xlink:title="Authorization factory registration and base classes.">
<polygon fill="white" stroke="#666666" points="907.5,-112.5 739.5,-112.5 739.5,-82.5 907.5,-82.5 907.5,-112.5"/>
<text text-anchor="start" x="747.5" y="-100.5" font-family="Helvetica,sans-Serif" font-size="10.00">userver/server/handlers</text>
<text text-anchor="middle" x="823.5" y="-89.5" font-family="Helvetica,sans-Serif" font-size="10.00">/auth/auth_checker_factory.hpp</text>
</a>
</g>
</g>
<!-- Node33&#45;&gt;Node34 -->
<g id="edge36_Node000033_Node000034" class="edge">
<title>Node33&#45;&gt;Node34</title>
<g id="a_edge36_Node000033_Node000034"><a xlink:title=" ">
<path fill="none" stroke="#63b8ff" d="M820.9,-143.75C821.5,-133.31 822.18,-121.49 822.69,-112.54"/>
<polygon fill="#63b8ff" stroke="#63b8ff" points="817.39,-143.75 820.31,-153.94 824.38,-144.15 817.39,-143.75"/>
</a>
</g>
</g>
<!-- Node35&#45;&gt;Node31 -->
<g id="edge42_Node000035_Node000031" class="edge">
<title>Node35&#45;&gt;Node31</title>
<g id="a_edge42_Node000035_Node000031"><a xlink:title=" ">
<path fill="none" stroke="#63b8ff" d="M1034.5,-143.75C1034.5,-133.31 1034.5,-121.49 1034.5,-112.54"/>
<polygon fill="#63b8ff" stroke="#63b8ff" points="1031,-143.94 1034.5,-153.94 1038,-143.94 1031,-143.94"/>
</a>
</g>
</g>
</g>
</svg>
