<?xml version="1.0" encoding="UTF-8" standalone="no"?>
<!DOCTYPE svg PUBLIC "-//W3C//DTD SVG 1.1//EN"
 "http://www.w3.org/Graphics/SVG/1.1/DTD/svg11.dtd">
<!-- Generated by graphviz version 2.43.0 (0)
 -->
<!-- Title: userver/dynamic_config/storage/component.hpp Pages: 1 -->
<svg width="1424pt" height="379pt"
 viewBox="0.00 0.00 1424.22 379.00" xmlns="http://www.w3.org/2000/svg" xmlns:xlink="http://www.w3.org/1999/xlink">
<g id="graph0" class="graph" transform="scale(1 1) rotate(0) translate(4 375)">
<title>userver/dynamic_config/storage/component.hpp</title>
<!-- Node1 -->
<g id="Node000001" class="node">
<title>Node1</title>
<g id="a_Node000001"><a xlink:title="Component that stores the dynamic config.">
<polygon fill="#999999" stroke="#666666" points="949.8,-371 814.8,-371 814.8,-341 949.8,-341 949.8,-371"/>
<text text-anchor="start" x="822.8" y="-359" font-family="Helvetica,sans-Serif" font-size="10.00">userver/dynamic_config</text>
<text text-anchor="middle" x="882.3" y="-348" font-family="Helvetica,sans-Serif" font-size="10.00">/storage/component.hpp</text>
</a>
</g>
</g>
<!-- Node2 -->
<g id="Node000002" class="node">
<title>Node2</title>
<g id="a_Node000002"><a xlink:title=" ">
<polygon fill="#e0e0e0" stroke="#999999" points="996.3,-228 938.3,-228 938.3,-209 996.3,-209 996.3,-228"/>
<text text-anchor="middle" x="967.3" y="-216" font-family="Helvetica,sans-Serif" font-size="10.00">memory</text>
</a>
</g>
</g>
<!-- Node1&#45;&gt;Node2 -->
<g id="edge1_Node000001_Node000002" class="edge">
<title>Node1&#45;&gt;Node2</title>
<g id="a_edge1_Node000001_Node000002"><a xlink:title=" ">
<path fill="none" stroke="#63b8ff" d="M891.24,-340.76C906.96,-315.7 939.48,-263.85 956.46,-236.79"/>
<polygon fill="#63b8ff" stroke="#63b8ff" points="959.6,-238.37 961.95,-228.03 953.67,-234.65 959.6,-238.37"/>
</a>
</g>
</g>
<!-- Node3 -->
<g id="Node000003" class="node">
<title>Node3</title>
<g id="a_Node000003"><a xlink:title=" ">
<polygon fill="#e0e0e0" stroke="#999999" points="241.8,-90.5 168.8,-90.5 168.8,-71.5 241.8,-71.5 241.8,-90.5"/>
<text text-anchor="middle" x="205.3" y="-78.5" font-family="Helvetica,sans-Serif" font-size="10.00">string_view</text>
</a>
</g>
</g>
<!-- Node1&#45;&gt;Node3 -->
<g id="edge2_Node000001_Node000003" class="edge">
<title>Node1&#45;&gt;Node3</title>
<g id="a_edge2_Node000001_Node000003"><a xlink:title=" ">
<path fill="none" stroke="#63b8ff" d="M814.6,-352.37C665.88,-346.22 314.66,-329.54 198.3,-305 112.88,-286.99 63.6,-310.35 13.3,-239 -15.15,-198.63 6.23,-164.63 43.3,-132 75.38,-103.77 123.17,-91.48 158.54,-86.13"/>
<polygon fill="#63b8ff" stroke="#63b8ff" points="159.19,-89.57 168.62,-84.74 158.24,-82.63 159.19,-89.57"/>
</a>
</g>
</g>
<!-- Node4 -->
<g id="Node000004" class="node">
<title>Node4</title>
<g id="a_Node000004"><a xlink:title=" ">
<polygon fill="#e0e0e0" stroke="#999999" points="1379.8,-90.5 1310.8,-90.5 1310.8,-71.5 1379.8,-71.5 1379.8,-90.5"/>
<text text-anchor="middle" x="1345.3" y="-78.5" font-family="Helvetica,sans-Serif" font-size="10.00">type_traits</text>
</a>
</g>
</g>
<!-- Node1&#45;&gt;Node4 -->
<g id="edge3_Node000001_Node000004" class="edge">
<title>Node1&#45;&gt;Node4</title>
<g id="a_edge3_Node000001_Node000004"><a xlink:title=" ">
<path fill="none" stroke="#63b8ff" d="M950.11,-354.89C1069.93,-350.48 1315.5,-321.42 1411.3,-162 1418.17,-150.57 1417.24,-143.94 1411.3,-132 1403.38,-116.05 1387.67,-103.83 1373.57,-95.47"/>
<polygon fill="#63b8ff" stroke="#63b8ff" points="1375.07,-92.3 1364.63,-90.52 1371.69,-98.43 1375.07,-92.3"/>
</a>
</g>
</g>
<!-- Node5 -->
<g id="Node000005" class="node">
<title>Node5</title>
<g id="a_Node000005"><a xlink:href="../../da/d11/loggable__component__base_8hpp.html" target="_top" xlink:title="Contains components::LoggableComponentBase declaration and forward declarations of components::Compon...">
<polygon fill="white" stroke="#666666" points="1201.3,-239 1079.3,-239 1079.3,-198 1201.3,-198 1201.3,-239"/>
<text text-anchor="start" x="1087.3" y="-227" font-family="Helvetica,sans-Serif" font-size="10.00">userver/components</text>
<text text-anchor="start" x="1087.3" y="-216" font-family="Helvetica,sans-Serif" font-size="10.00">/loggable_component</text>
<text text-anchor="middle" x="1140.3" y="-205" font-family="Helvetica,sans-Serif" font-size="10.00">_base.hpp</text>
</a>
</g>
</g>
<!-- Node1&#45;&gt;Node5 -->
<g id="edge4_Node000001_Node000005" class="edge">
<title>Node1&#45;&gt;Node5</title>
<g id="a_edge4_Node000001_Node000005"><a xlink:title=" ">
<path fill="none" stroke="#63b8ff" d="M950.09,-348.97C1012.02,-342.06 1097.48,-328.53 1121.3,-305 1135.77,-290.71 1140.31,-268.01 1141.34,-249.59"/>
<polygon fill="#63b8ff" stroke="#63b8ff" points="1144.85,-249.42 1141.59,-239.34 1137.85,-249.25 1144.85,-249.42"/>
</a>
</g>
</g>
<!-- Node9 -->
<g id="Node000009" class="node">
<title>Node9</title>
<g id="a_Node000009"><a xlink:href="../../d4/de4/async__event__source_8hpp.html" target="_top" xlink:title="The read&#45;only side of an event channel. Events are delivered to listeners in a strict FIFO order,...">
<polygon fill="white" stroke="#666666" points="487.3,-162 347.3,-162 347.3,-132 487.3,-132 487.3,-162"/>
<text text-anchor="start" x="355.3" y="-150" font-family="Helvetica,sans-Serif" font-size="10.00">userver/concurrent</text>
<text text-anchor="middle" x="417.3" y="-139" font-family="Helvetica,sans-Serif" font-size="10.00">/async_event_source.hpp</text>
</a>
</g>
</g>
<!-- Node1&#45;&gt;Node9 -->
<g id="edge8_Node000001_Node000009" class="edge">
<title>Node1&#45;&gt;Node9</title>
<g id="a_edge8_Node000001_Node000009"><a xlink:title=" ">
<path fill="none" stroke="#63b8ff" d="M850.71,-340.93C768.78,-304.46 549.52,-206.86 458.15,-166.18"/>
<polygon fill="#63b8ff" stroke="#63b8ff" points="459.5,-162.95 448.94,-162.08 456.66,-169.35 459.5,-162.95"/>
</a>
</g>
</g>
<!-- Node14 -->
<g id="Node000014" class="node">
<title>Node14</title>
<g id="a_Node000014"><a xlink:href="../../df/d22/snapshot_8hpp.html" target="_top" xlink:title="The shared snapshot of dynamic configs. Cheap to copy, even cheaper to move. Thread safe,...">
<polygon fill="white" stroke="#666666" points="853.8,-233.5 720.8,-233.5 720.8,-203.5 853.8,-203.5 853.8,-233.5"/>
<text text-anchor="start" x="728.8" y="-221.5" font-family="Helvetica,sans-Serif" font-size="10.00">userver/dynamic_config</text>
<text text-anchor="middle" x="787.3" y="-210.5" font-family="Helvetica,sans-Serif" font-size="10.00">/snapshot.hpp</text>
</a>
</g>
</g>
<!-- Node1&#45;&gt;Node14 -->
<g id="edge14_Node000001_Node000014" class="edge">
<title>Node1&#45;&gt;Node14</title>
<g id="a_edge14_Node000001_Node000014"><a xlink:title=" ">
<path fill="none" stroke="#63b8ff" d="M872.32,-340.76C855.81,-317.21 822.71,-270 803.04,-241.94"/>
<polygon fill="#63b8ff" stroke="#63b8ff" points="805.76,-239.73 797.16,-233.55 800.03,-243.75 805.76,-239.73"/>
</a>
</g>
</g>
<!-- Node26 -->
<g id="Node000026" class="node">
<title>Node26</title>
<g id="a_Node000026"><a xlink:href="../../d5/d02/fast__pimpl_8hpp.html" target="_top" xlink:title="Implements pimpl idiom without dynamic memory allocation.">
<polygon fill="white" stroke="#666666" points="1022.8,-162 923.8,-162 923.8,-132 1022.8,-132 1022.8,-162"/>
<text text-anchor="start" x="931.8" y="-150" font-family="Helvetica,sans-Serif" font-size="10.00">userver/utils/fast</text>
<text text-anchor="middle" x="973.3" y="-139" font-family="Helvetica,sans-Serif" font-size="10.00">_pimpl.hpp</text>
</a>
</g>
</g>
<!-- Node1&#45;&gt;Node26 -->
<g id="edge57_Node000001_Node000026" class="edge">
<title>Node1&#45;&gt;Node26</title>
<g id="a_edge57_Node000001_Node000026"><a xlink:title=" ">
<path fill="none" stroke="#63b8ff" d="M884.46,-340.77C889.21,-312.22 902.4,-246.52 929.3,-198 935,-187.73 943.1,-177.74 950.8,-169.43"/>
<polygon fill="#63b8ff" stroke="#63b8ff" points="953.53,-171.63 957.97,-162.01 948.5,-166.77 953.53,-171.63"/>
</a>
</g>
</g>
<!-- Node28 -->
<g id="Node000028" class="node">
<title>Node28</title>
<g id="a_Node000028"><a xlink:href="../../d2/d2e/source_8hpp.html" target="_top" xlink:title="A client for easy dynamic config fetching in components.">
<polygon fill="white" stroke="#666666" points="340.8,-305 207.8,-305 207.8,-275 340.8,-275 340.8,-305"/>
<text text-anchor="start" x="215.8" y="-293" font-family="Helvetica,sans-Serif" font-size="10.00">userver/dynamic_config</text>
<text text-anchor="middle" x="274.3" y="-282" font-family="Helvetica,sans-Serif" font-size="10.00">/source.hpp</text>
</a>
</g>
</g>
<!-- Node1&#45;&gt;Node28 -->
<g id="edge43_Node000001_Node000028" class="edge">
<title>Node1&#45;&gt;Node28</title>
<g id="a_edge43_Node000001_Node000028"><a xlink:title=" ">
<path fill="none" stroke="#63b8ff" d="M814.5,-348.44C719.89,-339.2 542.96,-321.62 392.3,-305 379.07,-303.54 365.01,-301.93 351.37,-300.33"/>
<polygon fill="#63b8ff" stroke="#63b8ff" points="351.4,-296.81 341.05,-299.11 350.58,-303.76 351.4,-296.81"/>
</a>
</g>
</g>
<!-- Node32 -->
<g id="Node000032" class="node">
<title>Node32</title>
<g id="a_Node000032"><a xlink:href="../../d5/d81/core_2include_2userver_2dynamic__config_2updates__sink_2component_8hpp.html" target="_top" xlink:title="Base class for components acting as dynamic config updates sinks.">
<polygon fill="white" stroke="#666666" points="1111.8,-305 948.8,-305 948.8,-275 1111.8,-275 1111.8,-305"/>
<text text-anchor="start" x="956.8" y="-293" font-family="Helvetica,sans-Serif" font-size="10.00">userver/dynamic_config</text>
<text text-anchor="middle" x="1030.3" y="-282" font-family="Helvetica,sans-Serif" font-size="10.00">/updates_sink/component.hpp</text>
</a>
</g>
</g>
<!-- Node1&#45;&gt;Node32 -->
<g id="edge52_Node000001_Node000032" class="edge">
<title>Node1&#45;&gt;Node32</title>
<g id="a_edge52_Node000001_Node000032"><a xlink:title=" ">
<path fill="none" stroke="#63b8ff" d="M914.78,-340.95C936.47,-331.58 965.19,-319.16 988.57,-309.05"/>
<polygon fill="#63b8ff" stroke="#63b8ff" points="990.11,-312.19 997.9,-305.01 987.33,-305.77 990.11,-312.19"/>
</a>
</g>
</g>
<!-- Node6 -->
<g id="Node000006" class="node">
<title>Node6</title>
<g id="a_Node000006"><a xlink:href="../../d7/d47/component__fwd_8hpp.html" target="_top" xlink:title="Forward declarations for components::ComponentContext and components::ComponentConfig; function compo...">
<polygon fill="white" stroke="#666666" points="1197.3,-162 1079.3,-162 1079.3,-132 1197.3,-132 1197.3,-162"/>
<text text-anchor="start" x="1087.3" y="-150" font-family="Helvetica,sans-Serif" font-size="10.00">userver/components</text>
<text text-anchor="middle" x="1138.3" y="-139" font-family="Helvetica,sans-Serif" font-size="10.00">/component_fwd.hpp</text>
</a>
</g>
</g>
<!-- Node5&#45;&gt;Node6 -->
<g id="edge5_Node000005_Node000006" class="edge">
<title>Node5&#45;&gt;Node6</title>
<g id="a_edge5_Node000005_Node000006"><a xlink:title=" ">
<path fill="none" stroke="#63b8ff" d="M1139.74,-197.77C1139.51,-189.85 1139.24,-180.63 1139,-172.3"/>
<polygon fill="#63b8ff" stroke="#63b8ff" points="1142.49,-171.93 1138.71,-162.04 1135.5,-172.13 1142.49,-171.93"/>
</a>
</g>
</g>
<!-- Node8 -->
<g id="Node000008" class="node">
<title>Node8</title>
<g id="a_Node000008"><a xlink:href="../../d2/d61/component__base_8hpp_source.html" target="_top" xlink:title=" ">
<polygon fill="white" stroke="#666666" points="1401.8,-162 1252.8,-162 1252.8,-132 1401.8,-132 1401.8,-162"/>
<text text-anchor="start" x="1260.8" y="-150" font-family="Helvetica,sans-Serif" font-size="10.00">userver/components</text>
<text text-anchor="middle" x="1327.3" y="-139" font-family="Helvetica,sans-Serif" font-size="10.00">/impl/component_base.hpp</text>
</a>
</g>
</g>
<!-- Node5&#45;&gt;Node8 -->
<g id="edge7_Node000005_Node000008" class="edge">
<title>Node5&#45;&gt;Node8</title>
<g id="a_edge7_Node000005_Node000008"><a xlink:title=" ">
<path fill="none" stroke="#63b8ff" d="M1192.89,-197.96C1220.31,-187.76 1253.58,-175.4 1280.16,-165.52"/>
<polygon fill="#63b8ff" stroke="#63b8ff" points="1281.47,-168.77 1289.62,-162 1279.03,-162.21 1281.47,-168.77"/>
</a>
</g>
</g>
<!-- Node7 -->
<g id="Node000007" class="node">
<title>Node7</title>
<g id="a_Node000007"><a xlink:title=" ">
<polygon fill="#e0e0e0" stroke="#999999" points="1086.3,-90.5 1042.3,-90.5 1042.3,-71.5 1086.3,-71.5 1086.3,-90.5"/>
<text text-anchor="middle" x="1064.3" y="-78.5" font-family="Helvetica,sans-Serif" font-size="10.00">string</text>
</a>
</g>
</g>
<!-- Node6&#45;&gt;Node7 -->
<g id="edge6_Node000006_Node000007" class="edge">
<title>Node6&#45;&gt;Node7</title>
<g id="a_edge6_Node000006_Node000007"><a xlink:title=" ">
<path fill="none" stroke="#63b8ff" d="M1121.88,-131.8C1110.12,-121.62 1094.29,-107.93 1082.2,-97.48"/>
<polygon fill="#63b8ff" stroke="#63b8ff" points="1084.38,-94.74 1074.53,-90.84 1079.8,-100.03 1084.38,-94.74"/>
</a>
</g>
</g>
<!-- Node9&#45;&gt;Node3 -->
<g id="edge11_Node000009_Node000003" class="edge">
<title>Node9&#45;&gt;Node3</title>
<g id="a_edge11_Node000009_Node000003"><a xlink:title=" ">
<path fill="none" stroke="#63b8ff" d="M369.75,-131.91C336.32,-121.97 290.54,-108.28 250.3,-96 247.75,-95.22 245.12,-94.41 242.47,-93.6"/>
<polygon fill="#63b8ff" stroke="#63b8ff" points="243.48,-90.25 232.9,-90.64 241.41,-96.93 243.48,-90.25"/>
</a>
</g>
</g>
<!-- Node10 -->
<g id="Node000010" class="node">
<title>Node10</title>
<g id="a_Node000010"><a xlink:title=" ">
<polygon fill="#e0e0e0" stroke="#999999" points="1023.8,-90.5 970.8,-90.5 970.8,-71.5 1023.8,-71.5 1023.8,-90.5"/>
<text text-anchor="middle" x="997.3" y="-78.5" font-family="Helvetica,sans-Serif" font-size="10.00">cstddef</text>
</a>
</g>
</g>
<!-- Node9&#45;&gt;Node10 -->
<g id="edge9_Node000009_Node000010" class="edge">
<title>Node9&#45;&gt;Node10</title>
<g id="a_edge9_Node000009_Node000010"><a xlink:title=" ">
<path fill="none" stroke="#63b8ff" d="M487.46,-137.28C503.19,-135.43 519.81,-133.57 535.3,-132 724.78,-112.78 776.97,-139.85 962.3,-96 964.61,-95.45 966.97,-94.78 969.32,-94.03"/>
<polygon fill="#63b8ff" stroke="#63b8ff" points="970.54,-97.31 978.75,-90.61 968.15,-90.73 970.54,-97.31"/>
</a>
</g>
</g>
<!-- Node11 -->
<g id="Node000011" class="node">
<title>Node11</title>
<g id="a_Node000011"><a xlink:title=" ">
<polygon fill="#e0e0e0" stroke="#999999" points="531.8,-90.5 466.8,-90.5 466.8,-71.5 531.8,-71.5 531.8,-90.5"/>
<text text-anchor="middle" x="499.3" y="-78.5" font-family="Helvetica,sans-Serif" font-size="10.00">functional</text>
</a>
</g>
</g>
<!-- Node9&#45;&gt;Node11 -->
<g id="edge10_Node000009_Node000011" class="edge">
<title>Node9&#45;&gt;Node11</title>
<g id="a_edge10_Node000009_Node000011"><a xlink:title=" ">
<path fill="none" stroke="#63b8ff" d="M435.5,-131.8C448.66,-121.53 466.42,-107.67 479.86,-97.18"/>
<polygon fill="#63b8ff" stroke="#63b8ff" points="482.24,-99.76 487.97,-90.84 477.94,-94.24 482.24,-99.76"/>
</a>
</g>
</g>
<!-- Node12 -->
<g id="Node000012" class="node">
<title>Node12</title>
<g id="a_Node000012"><a xlink:title=" ">
<polygon fill="#e0e0e0" stroke="#999999" points="379.8,-90.5 322.8,-90.5 322.8,-71.5 379.8,-71.5 379.8,-90.5"/>
<text text-anchor="middle" x="351.3" y="-78.5" font-family="Helvetica,sans-Serif" font-size="10.00">typeinfo</text>
</a>
</g>
</g>
<!-- Node9&#45;&gt;Node12 -->
<g id="edge12_Node000009_Node000012" class="edge">
<title>Node9&#45;&gt;Node12</title>
<g id="a_edge12_Node000009_Node000012"><a xlink:title=" ">
<path fill="none" stroke="#63b8ff" d="M402.66,-131.8C392.37,-121.82 378.59,-108.46 367.89,-98.09"/>
<polygon fill="#63b8ff" stroke="#63b8ff" points="370.04,-95.29 360.42,-90.84 365.17,-100.32 370.04,-95.29"/>
</a>
</g>
</g>
<!-- Node13 -->
<g id="Node000013" class="node">
<title>Node13</title>
<g id="a_Node000013"><a xlink:title=" ">
<polygon fill="#e0e0e0" stroke="#999999" points="304.8,-90.5 259.8,-90.5 259.8,-71.5 304.8,-71.5 304.8,-90.5"/>
<text text-anchor="middle" x="282.3" y="-78.5" font-family="Helvetica,sans-Serif" font-size="10.00">utility</text>
</a>
</g>
</g>
<!-- Node9&#45;&gt;Node13 -->
<g id="edge13_Node000009_Node000013" class="edge">
<title>Node9&#45;&gt;Node13</title>
<g id="a_edge13_Node000009_Node000013"><a xlink:title=" ">
<path fill="none" stroke="#63b8ff" d="M387.68,-131.95C364.32,-120.88 332,-105.56 309.34,-94.82"/>
<polygon fill="#63b8ff" stroke="#63b8ff" points="310.81,-91.64 300.27,-90.52 307.81,-97.96 310.81,-91.64"/>
</a>
</g>
</g>
<!-- Node14&#45;&gt;Node4 -->
<g id="edge17_Node000014_Node000004" class="edge">
<title>Node14&#45;&gt;Node4</title>
<g id="a_edge17_Node000014_Node000004"><a xlink:title=" ">
<path fill="none" stroke="#63b8ff" d="M854.11,-208.22C877.85,-204.96 904.76,-201.28 929.3,-198 1052.36,-181.56 1091.9,-210.2 1206.3,-162 1226.13,-153.65 1226.12,-143.5 1244.3,-132 1267.29,-117.46 1295.08,-103.97 1315.7,-94.68"/>
<polygon fill="#63b8ff" stroke="#63b8ff" points="1317.18,-97.85 1324.9,-90.59 1314.34,-91.45 1317.18,-97.85"/>
</a>
</g>
</g>
<!-- Node14&#45;&gt;Node7 -->
<g id="edge16_Node000014_Node000007" class="edge">
<title>Node14&#45;&gt;Node7</title>
<g id="a_edge16_Node000014_Node000007"><a xlink:title=" ">
<path fill="none" stroke="#63b8ff" d="M811.51,-203.28C829.65,-192.42 854.91,-176.85 876.3,-162 894.27,-149.53 895.87,-142.02 915.3,-132 964.04,-106.88 981.99,-115.32 1033.3,-96 1034.52,-95.54 1035.75,-95.06 1036.99,-94.56"/>
<polygon fill="#63b8ff" stroke="#63b8ff" points="1038.61,-97.68 1046.44,-90.54 1035.86,-91.24 1038.61,-97.68"/>
</a>
</g>
</g>
<!-- Node15 -->
<g id="Node000015" class="node">
<title>Node15</title>
<g id="a_Node000015"><a xlink:title=" ">
<polygon fill="#e0e0e0" stroke="#999999" points="448.3,-90.5 398.3,-90.5 398.3,-71.5 448.3,-71.5 448.3,-90.5"/>
<text text-anchor="middle" x="423.3" y="-78.5" font-family="Helvetica,sans-Serif" font-size="10.00">cstdint</text>
</a>
</g>
</g>
<!-- Node14&#45;&gt;Node15 -->
<g id="edge15_Node000014_Node000015" class="edge">
<title>Node14&#45;&gt;Node15</title>
<g id="a_edge15_Node000014_Node000015"><a xlink:title=" ">
<path fill="none" stroke="#63b8ff" d="M720.54,-210.87C668.21,-203.8 594.58,-189.64 535.3,-162 515.48,-152.76 514,-144.85 496.3,-132 479.22,-119.59 459.43,-106.09 444.77,-96.25"/>
<polygon fill="#63b8ff" stroke="#63b8ff" points="446.64,-93.29 436.38,-90.64 442.75,-99.11 446.64,-93.29"/>
</a>
</g>
</g>
<!-- Node16 -->
<g id="Node000016" class="node">
<title>Node16</title>
<g id="a_Node000016"><a xlink:href="../../d8/d20/impl_2snapshot_8hpp_source.html" target="_top" xlink:title=" ">
<polygon fill="white" stroke="#666666" points="866.8,-162 733.8,-162 733.8,-132 866.8,-132 866.8,-162"/>
<text text-anchor="start" x="741.8" y="-150" font-family="Helvetica,sans-Serif" font-size="10.00">userver/dynamic_config</text>
<text text-anchor="middle" x="800.3" y="-139" font-family="Helvetica,sans-Serif" font-size="10.00">/impl/snapshot.hpp</text>
</a>
</g>
</g>
<!-- Node14&#45;&gt;Node16 -->
<g id="edge18_Node000014_Node000016" class="edge">
<title>Node14&#45;&gt;Node16</title>
<g id="a_edge18_Node000014_Node000016"><a xlink:title=" ">
<path fill="none" stroke="#63b8ff" d="M789.93,-203.44C791.63,-194.39 793.87,-182.41 795.83,-171.9"/>
<polygon fill="#63b8ff" stroke="#63b8ff" points="799.28,-172.52 797.68,-162.04 792.4,-171.23 799.28,-172.52"/>
</a>
</g>
</g>
<!-- Node22 -->
<g id="Node000022" class="node">
<title>Node22</title>
<g id="a_Node000022"><a xlink:href="../../dc/d7d/json__fwd_8hpp.html" target="_top" xlink:title="Forward declarations of formats::json types, formats::parse::To and formats::serialize::To.">
<polygon fill="white" stroke="#666666" points="668.3,-96 550.3,-96 550.3,-66 668.3,-66 668.3,-96"/>
<text text-anchor="start" x="558.3" y="-84" font-family="Helvetica,sans-Serif" font-size="10.00">userver/formats/json</text>
<text text-anchor="middle" x="609.3" y="-73" font-family="Helvetica,sans-Serif" font-size="10.00">_fwd.hpp</text>
</a>
</g>
</g>
<!-- Node14&#45;&gt;Node22 -->
<g id="edge37_Node000014_Node000022" class="edge">
<title>Node14&#45;&gt;Node22</title>
<g id="a_edge37_Node000014_Node000022"><a xlink:title=" ">
<path fill="none" stroke="#63b8ff" d="M771.72,-203.23C752.31,-185.71 717.83,-155.44 686.3,-132 672.03,-121.39 655.58,-110.53 641.55,-101.66"/>
<polygon fill="#63b8ff" stroke="#63b8ff" points="643.06,-98.48 632.73,-96.14 639.35,-104.41 643.06,-98.48"/>
</a>
</g>
</g>
<!-- Node25 -->
<g id="Node000025" class="node">
<title>Node25</title>
<g id="a_Node000025"><a xlink:href="../../d6/d38/to__json_8hpp_source.html" target="_top" xlink:title=" ">
<polygon fill="white" stroke="#666666" points="676.8,-162 543.8,-162 543.8,-132 676.8,-132 676.8,-162"/>
<text text-anchor="start" x="551.8" y="-150" font-family="Helvetica,sans-Serif" font-size="10.00">userver/dynamic_config</text>
<text text-anchor="middle" x="610.3" y="-139" font-family="Helvetica,sans-Serif" font-size="10.00">/impl/to_json.hpp</text>
</a>
</g>
</g>
<!-- Node14&#45;&gt;Node25 -->
<g id="edge32_Node000014_Node000025" class="edge">
<title>Node14&#45;&gt;Node25</title>
<g id="a_edge32_Node000014_Node000025"><a xlink:title=" ">
<path fill="none" stroke="#63b8ff" d="M751.49,-203.44C723.78,-192.56 685.23,-177.42 655.42,-165.71"/>
<polygon fill="#63b8ff" stroke="#63b8ff" points="656.66,-162.44 646.07,-162.04 654.1,-168.96 656.66,-162.44"/>
</a>
</g>
</g>
<!-- Node14&#45;&gt;Node26 -->
<g id="edge38_Node000014_Node000026" class="edge">
<title>Node14&#45;&gt;Node26</title>
<g id="a_edge38_Node000014_Node000026"><a xlink:title=" ">
<path fill="none" stroke="#63b8ff" d="M824.94,-203.44C854.19,-192.51 894.92,-177.29 926.3,-165.56"/>
<polygon fill="#63b8ff" stroke="#63b8ff" points="927.58,-168.82 935.72,-162.04 925.13,-162.27 927.58,-168.82"/>
</a>
</g>
</g>
<!-- Node16&#45;&gt;Node4 -->
<g id="edge24_Node000016_Node000004" class="edge">
<title>Node16&#45;&gt;Node4</title>
<g id="a_edge24_Node000016_Node000004"><a xlink:title=" ">
<path fill="none" stroke="#63b8ff" d="M866.86,-137.57C882.72,-135.65 899.61,-133.69 915.3,-132 1087.06,-113.56 1133.13,-130.95 1302.3,-96 1305.71,-95.3 1309.23,-94.42 1312.72,-93.44"/>
<polygon fill="#63b8ff" stroke="#63b8ff" points="1313.8,-96.77 1322.35,-90.51 1311.76,-90.07 1313.8,-96.77"/>
</a>
</g>
</g>
<!-- Node16&#45;&gt;Node7 -->
<g id="edge23_Node000016_Node000007" class="edge">
<title>Node16&#45;&gt;Node7</title>
<g id="a_edge23_Node000016_Node000007"><a xlink:title=" ">
<path fill="none" stroke="#63b8ff" d="M866.82,-133.36C924.36,-122.13 1002.94,-105.99 1033.3,-96 1034.74,-95.53 1036.2,-95.01 1037.67,-94.46"/>
<polygon fill="#63b8ff" stroke="#63b8ff" points="1039.29,-97.58 1047.18,-90.51 1036.61,-91.11 1039.29,-97.58"/>
</a>
</g>
</g>
<!-- Node16&#45;&gt;Node10 -->
<g id="edge20_Node000016_Node000010" class="edge">
<title>Node16&#45;&gt;Node10</title>
<g id="a_edge20_Node000016_Node000010"><a xlink:title=" ">
<path fill="none" stroke="#63b8ff" d="M849.56,-131.93C881.84,-122.43 924.84,-109.25 962.3,-96 963.92,-95.43 965.56,-94.83 967.22,-94.21"/>
<polygon fill="#63b8ff" stroke="#63b8ff" points="968.61,-97.43 976.68,-90.57 966.09,-90.9 968.61,-97.43"/>
</a>
</g>
</g>
<!-- Node16&#45;&gt;Node11 -->
<g id="edge22_Node000016_Node000011" class="edge">
<title>Node16&#45;&gt;Node11</title>
<g id="a_edge22_Node000016_Node000011"><a xlink:title=" ">
<path fill="none" stroke="#63b8ff" d="M733.77,-135.62C681.13,-126.82 605.98,-112.94 541.3,-96 538.52,-95.27 535.64,-94.45 532.77,-93.59"/>
<polygon fill="#63b8ff" stroke="#63b8ff" points="533.72,-90.22 523.13,-90.54 531.61,-96.89 533.72,-90.22"/>
</a>
</g>
</g>
<!-- Node16&#45;&gt;Node12 -->
<g id="edge26_Node000016_Node000012" class="edge">
<title>Node16&#45;&gt;Node12</title>
<g id="a_edge26_Node000016_Node000012"><a xlink:title=" ">
<path fill="none" stroke="#63b8ff" d="M733.7,-137.8C718.14,-135.89 701.64,-133.87 686.3,-132 554.32,-115.9 518.56,-127.19 389.3,-96 386.79,-95.39 384.22,-94.67 381.65,-93.88"/>
<polygon fill="#63b8ff" stroke="#63b8ff" points="382.53,-90.49 371.94,-90.59 380.29,-97.12 382.53,-90.49"/>
</a>
</g>
</g>
<!-- Node17 -->
<g id="Node000017" class="node">
<title>Node17</title>
<g id="a_Node000017"><a xlink:title=" ">
<polygon fill="#e0e0e0" stroke="#999999" points="721.8,-90.5 686.8,-90.5 686.8,-71.5 721.8,-71.5 721.8,-90.5"/>
<text text-anchor="middle" x="704.3" y="-78.5" font-family="Helvetica,sans-Serif" font-size="10.00">any</text>
</a>
</g>
</g>
<!-- Node16&#45;&gt;Node17 -->
<g id="edge19_Node000016_Node000017" class="edge">
<title>Node16&#45;&gt;Node17</title>
<g id="a_edge19_Node000016_Node000017"><a xlink:title=" ">
<path fill="none" stroke="#63b8ff" d="M779,-131.8C763.21,-121.27 741.76,-106.97 725.9,-96.4"/>
<polygon fill="#63b8ff" stroke="#63b8ff" points="727.55,-93.29 717.29,-90.66 723.67,-99.12 727.55,-93.29"/>
</a>
</g>
</g>
<!-- Node18 -->
<g id="Node000018" class="node">
<title>Node18</title>
<g id="a_Node000018"><a xlink:title=" ">
<polygon fill="#e0e0e0" stroke="#999999" points="804.8,-90.5 739.8,-90.5 739.8,-71.5 804.8,-71.5 804.8,-90.5"/>
<text text-anchor="middle" x="772.3" y="-78.5" font-family="Helvetica,sans-Serif" font-size="10.00">exception</text>
</a>
</g>
</g>
<!-- Node16&#45;&gt;Node18 -->
<g id="edge21_Node000016_Node000018" class="edge">
<title>Node16&#45;&gt;Node18</title>
<g id="a_edge21_Node000016_Node000018"><a xlink:title=" ">
<path fill="none" stroke="#63b8ff" d="M794.09,-131.8C790.02,-122.5 784.67,-110.27 780.29,-100.26"/>
<polygon fill="#63b8ff" stroke="#63b8ff" points="783.39,-98.6 776.17,-90.84 776.98,-101.41 783.39,-98.6"/>
</a>
</g>
</g>
<!-- Node19 -->
<g id="Node000019" class="node">
<title>Node19</title>
<g id="a_Node000019"><a xlink:title=" ">
<polygon fill="#e0e0e0" stroke="#999999" points="887.8,-90.5 822.8,-90.5 822.8,-71.5 887.8,-71.5 887.8,-90.5"/>
<text text-anchor="middle" x="855.3" y="-78.5" font-family="Helvetica,sans-Serif" font-size="10.00">typeindex</text>
</a>
</g>
</g>
<!-- Node16&#45;&gt;Node19 -->
<g id="edge25_Node000016_Node000019" class="edge">
<title>Node16&#45;&gt;Node19</title>
<g id="a_edge25_Node000016_Node000019"><a xlink:title=" ">
<path fill="none" stroke="#63b8ff" d="M812.51,-131.8C820.92,-122.01 832.12,-108.98 840.95,-98.7"/>
<polygon fill="#63b8ff" stroke="#63b8ff" points="843.84,-100.71 847.7,-90.84 838.53,-96.15 843.84,-100.71"/>
</a>
</g>
</g>
<!-- Node20 -->
<g id="Node000020" class="node">
<title>Node20</title>
<g id="a_Node000020"><a xlink:title=" ">
<polygon fill="#e0e0e0" stroke="#999999" points="952.8,-90.5 905.8,-90.5 905.8,-71.5 952.8,-71.5 952.8,-90.5"/>
<text text-anchor="middle" x="929.3" y="-78.5" font-family="Helvetica,sans-Serif" font-size="10.00">vector</text>
</a>
</g>
</g>
<!-- Node16&#45;&gt;Node20 -->
<g id="edge27_Node000016_Node000020" class="edge">
<title>Node16&#45;&gt;Node20</title>
<g id="a_edge27_Node000016_Node000020"><a xlink:title=" ">
<path fill="none" stroke="#63b8ff" d="M828.61,-131.95C850.74,-120.98 881.26,-105.83 902.89,-95.11"/>
<polygon fill="#63b8ff" stroke="#63b8ff" points="904.73,-98.1 912.14,-90.52 901.62,-91.83 904.73,-98.1"/>
</a>
</g>
</g>
<!-- Node21 -->
<g id="Node000021" class="node">
<title>Node21</title>
<g id="a_Node000021"><a xlink:href="../../df/d7e/core_2include_2userver_2dynamic__config_2fwd_8hpp.html" target="_top" xlink:title="Forward declarations of dynamic_config classes.">
<polygon fill="white" stroke="#666666" points="1292.8,-96 1159.8,-96 1159.8,-66 1292.8,-66 1292.8,-96"/>
<text text-anchor="start" x="1167.8" y="-84" font-family="Helvetica,sans-Serif" font-size="10.00">userver/dynamic_config</text>
<text text-anchor="middle" x="1226.3" y="-73" font-family="Helvetica,sans-Serif" font-size="10.00">/fwd.hpp</text>
</a>
</g>
</g>
<!-- Node16&#45;&gt;Node21 -->
<g id="edge28_Node000016_Node000021" class="edge">
<title>Node16&#45;&gt;Node21</title>
<g id="a_edge28_Node000016_Node000021"><a xlink:title=" ">
<path fill="none" stroke="#63b8ff" d="M867.07,-137.36C935.57,-128.3 1045.47,-113.21 1149.62,-96.24"/>
<polygon fill="#63b8ff" stroke="#63b8ff" points="1150.37,-99.66 1159.67,-94.59 1149.24,-92.75 1150.37,-99.66"/>
</a>
</g>
</g>
<!-- Node16&#45;&gt;Node22 -->
<g id="edge29_Node000016_Node000022" class="edge">
<title>Node16&#45;&gt;Node22</title>
<g id="a_edge29_Node000016_Node000022"><a xlink:title=" ">
<path fill="none" stroke="#63b8ff" d="M758.39,-131.95C729.65,-122.33 691.35,-109.49 660.76,-99.24"/>
<polygon fill="#63b8ff" stroke="#63b8ff" points="661.72,-95.87 651.12,-96.01 659.49,-102.51 661.72,-95.87"/>
</a>
</g>
</g>
<!-- Node23 -->
<g id="Node000023" class="node">
<title>Node23</title>
<g id="a_Node000023"><a xlink:href="../../d2/dc8/universal_2include_2userver_2formats_2parse_2to_8hpp.html" target="_top" xlink:title="Helper for parsers.">
<polygon fill="white" stroke="#666666" points="596.8,-30 471.8,-30 471.8,0 596.8,0 596.8,-30"/>
<text text-anchor="start" x="479.8" y="-18" font-family="Helvetica,sans-Serif" font-size="10.00">userver/formats/parse</text>
<text text-anchor="middle" x="534.3" y="-7" font-family="Helvetica,sans-Serif" font-size="10.00">/to.hpp</text>
</a>
</g>
</g>
<!-- Node22&#45;&gt;Node23 -->
<g id="edge30_Node000022_Node000023" class="edge">
<title>Node22&#45;&gt;Node23</title>
<g id="a_edge30_Node000022_Node000023"><a xlink:title=" ">
<path fill="none" stroke="#63b8ff" d="M592.66,-65.8C582.66,-57.26 569.75,-46.25 558.63,-36.75"/>
<polygon fill="#63b8ff" stroke="#63b8ff" points="560.78,-33.99 550.9,-30.16 556.24,-39.32 560.78,-33.99"/>
</a>
</g>
</g>
<!-- Node24 -->
<g id="Node000024" class="node">
<title>Node24</title>
<g id="a_Node000024"><a xlink:href="../../d6/d8e/universal_2include_2userver_2formats_2serialize_2to_8hpp.html" target="_top" xlink:title="Helper for serializers.">
<polygon fill="white" stroke="#666666" points="753.8,-30 614.8,-30 614.8,0 753.8,0 753.8,-30"/>
<text text-anchor="start" x="622.8" y="-18" font-family="Helvetica,sans-Serif" font-size="10.00">userver/formats/serialize</text>
<text text-anchor="middle" x="684.3" y="-7" font-family="Helvetica,sans-Serif" font-size="10.00">/to.hpp</text>
</a>
</g>
</g>
<!-- Node22&#45;&gt;Node24 -->
<g id="edge31_Node000022_Node000024" class="edge">
<title>Node22&#45;&gt;Node24</title>
<g id="a_edge31_Node000022_Node000024"><a xlink:title=" ">
<path fill="none" stroke="#63b8ff" d="M625.95,-65.8C635.95,-57.26 648.85,-46.25 659.98,-36.75"/>
<polygon fill="#63b8ff" stroke="#63b8ff" points="662.37,-39.32 667.71,-30.16 657.83,-33.99 662.37,-39.32"/>
</a>
</g>
</g>
<!-- Node25&#45;&gt;Node3 -->
<g id="edge35_Node000025_Node000003" class="edge">
<title>Node25&#45;&gt;Node3</title>
<g id="a_edge35_Node000025_Node000003"><a xlink:title=" ">
<path fill="none" stroke="#63b8ff" d="M543.68,-137.35C447.52,-124.77 278.25,-102.24 250.3,-96 246.93,-95.25 243.44,-94.36 239.97,-93.4"/>
<polygon fill="#63b8ff" stroke="#63b8ff" points="240.92,-90.03 230.34,-90.58 238.95,-96.75 240.92,-90.03"/>
</a>
</g>
</g>
<!-- Node25&#45;&gt;Node7 -->
<g id="edge34_Node000025_Node000007" class="edge">
<title>Node25&#45;&gt;Node7</title>
<g id="a_edge34_Node000025_Node000007"><a xlink:title=" ">
<path fill="none" stroke="#63b8ff" d="M676.89,-137.84C692.75,-135.91 709.63,-133.87 725.3,-132 862.15,-115.67 900.49,-132.8 1033.3,-96 1034.99,-95.53 1036.69,-94.99 1038.4,-94.39"/>
<polygon fill="#63b8ff" stroke="#63b8ff" points="1039.97,-97.53 1047.92,-90.53 1037.34,-91.04 1039.97,-97.53"/>
</a>
</g>
</g>
<!-- Node25&#45;&gt;Node15 -->
<g id="edge33_Node000025_Node000015" class="edge">
<title>Node25&#45;&gt;Node15</title>
<g id="a_edge33_Node000025_Node000015"><a xlink:title=" ">
<path fill="none" stroke="#63b8ff" d="M564.13,-131.9C533.61,-122.34 492.83,-109.1 457.3,-96 455.88,-95.48 454.43,-94.93 452.97,-94.37"/>
<polygon fill="#63b8ff" stroke="#63b8ff" points="453.93,-90.98 443.34,-90.54 451.34,-97.49 453.93,-90.98"/>
</a>
</g>
</g>
<!-- Node25&#45;&gt;Node22 -->
<g id="edge36_Node000025_Node000022" class="edge">
<title>Node25&#45;&gt;Node22</title>
<g id="a_edge36_Node000025_Node000022"><a xlink:title=" ">
<path fill="none" stroke="#63b8ff" d="M610.08,-131.8C609.97,-124.34 609.82,-114.99 609.69,-106.41"/>
<polygon fill="#63b8ff" stroke="#63b8ff" points="613.18,-106.11 609.53,-96.16 606.18,-106.22 613.18,-106.11"/>
</a>
</g>
</g>
<!-- Node26&#45;&gt;Node4 -->
<g id="edge41_Node000026_Node000004" class="edge">
<title>Node26&#45;&gt;Node4</title>
<g id="a_edge41_Node000026_Node000004"><a xlink:title=" ">
<path fill="none" stroke="#63b8ff" d="M1022.87,-138.68C1111.42,-125.59 1288.85,-99.19 1302.3,-96 1305.34,-95.28 1308.47,-94.45 1311.59,-93.55"/>
<polygon fill="#63b8ff" stroke="#63b8ff" points="1312.86,-96.82 1321.39,-90.55 1310.81,-90.13 1312.86,-96.82"/>
</a>
</g>
</g>
<!-- Node26&#45;&gt;Node10 -->
<g id="edge39_Node000026_Node000010" class="edge">
<title>Node26&#45;&gt;Node10</title>
<g id="a_edge39_Node000026_Node000010"><a xlink:title=" ">
<path fill="none" stroke="#63b8ff" d="M978.63,-131.8C982.12,-122.5 986.7,-110.27 990.46,-100.26"/>
<polygon fill="#63b8ff" stroke="#63b8ff" points="993.75,-101.44 993.99,-90.84 987.2,-98.98 993.75,-101.44"/>
</a>
</g>
</g>
<!-- Node26&#45;&gt;Node13 -->
<g id="edge42_Node000026_Node000013" class="edge">
<title>Node26&#45;&gt;Node13</title>
<g id="a_edge42_Node000026_Node000013"><a xlink:title=" ">
<path fill="none" stroke="#63b8ff" d="M923.55,-138.04C908.41,-135.83 891.7,-133.6 876.3,-132 626.92,-106.07 556.61,-156.58 313.3,-96 311.57,-95.57 309.81,-95.04 308.06,-94.45"/>
<polygon fill="#63b8ff" stroke="#63b8ff" points="308.9,-91.02 298.32,-90.55 306.3,-97.52 308.9,-91.02"/>
</a>
</g>
</g>
<!-- Node27 -->
<g id="Node000027" class="node">
<title>Node27</title>
<g id="a_Node000027"><a xlink:title=" ">
<polygon fill="#e0e0e0" stroke="#999999" points="1141.8,-90.5 1104.8,-90.5 1104.8,-71.5 1141.8,-71.5 1141.8,-90.5"/>
<text text-anchor="middle" x="1123.3" y="-78.5" font-family="Helvetica,sans-Serif" font-size="10.00">new</text>
</a>
</g>
</g>
<!-- Node26&#45;&gt;Node27 -->
<g id="edge40_Node000026_Node000027" class="edge">
<title>Node26&#45;&gt;Node27</title>
<g id="a_edge40_Node000026_Node000027"><a xlink:title=" ">
<path fill="none" stroke="#63b8ff" d="M1009.64,-131.93C1034.06,-122.28 1066.86,-108.92 1095.3,-96 1095.99,-95.69 1096.68,-95.37 1097.38,-95.04"/>
<polygon fill="#63b8ff" stroke="#63b8ff" points="1099.03,-98.14 1106.52,-90.65 1095.99,-91.83 1099.03,-98.14"/>
</a>
</g>
</g>
<!-- Node28&#45;&gt;Node3 -->
<g id="edge45_Node000028_Node000003" class="edge">
<title>Node28&#45;&gt;Node3</title>
<g id="a_edge45_Node000028_Node000003"><a xlink:title=" ">
<path fill="none" stroke="#63b8ff" d="M207.59,-284.73C142.65,-279.02 50.57,-266.25 28.3,-239 -22.25,-177.13 106.21,-118.64 170.83,-94.11"/>
<polygon fill="#63b8ff" stroke="#63b8ff" points="172.09,-97.38 180.24,-90.61 169.65,-90.82 172.09,-97.38"/>
</a>
</g>
</g>
<!-- Node28&#45;&gt;Node9 -->
<g id="edge48_Node000028_Node000009" class="edge">
<title>Node28&#45;&gt;Node9</title>
<g id="a_edge48_Node000028_Node000009"><a xlink:title=" ">
<path fill="none" stroke="#63b8ff" d="M297.26,-274.92C311.54,-265.61 329.87,-252.65 344.3,-239 366.64,-217.88 388.14,-189.82 401.96,-170.47"/>
<polygon fill="#63b8ff" stroke="#63b8ff" points="404.85,-172.44 407.74,-162.25 399.12,-168.42 404.85,-172.44"/>
</a>
</g>
</g>
<!-- Node28&#45;&gt;Node13 -->
<g id="edge47_Node000028_Node000013" class="edge">
<title>Node28&#45;&gt;Node13</title>
<g id="a_edge47_Node000028_Node000013"><a xlink:title=" ">
<path fill="none" stroke="#63b8ff" d="M288.41,-274.63C296.53,-265.31 305.97,-252.44 310.3,-239 326.05,-190.19 304.34,-129.81 291.15,-100.16"/>
<polygon fill="#63b8ff" stroke="#63b8ff" points="294.14,-98.3 286.75,-90.71 287.79,-101.25 294.14,-98.3"/>
</a>
</g>
</g>
<!-- Node28&#45;&gt;Node14 -->
<g id="edge49_Node000028_Node000014" class="edge">
<title>Node28&#45;&gt;Node14</title>
<g id="a_edge49_Node000028_Node000014"><a xlink:title=" ">
<path fill="none" stroke="#63b8ff" d="M340.84,-279.99C435.86,-267.11 609.98,-243.52 710.4,-229.92"/>
<polygon fill="#63b8ff" stroke="#63b8ff" points="711.04,-233.36 720.48,-228.55 710.1,-226.43 711.04,-233.36"/>
</a>
</g>
</g>
<!-- Node29 -->
<g id="Node000029" class="node">
<title>Node29</title>
<g id="a_Node000029"><a xlink:title=" ">
<polygon fill="#e0e0e0" stroke="#999999" points="93.3,-228 37.3,-228 37.3,-209 93.3,-209 93.3,-228"/>
<text text-anchor="middle" x="65.3" y="-216" font-family="Helvetica,sans-Serif" font-size="10.00">optional</text>
</a>
</g>
</g>
<!-- Node28&#45;&gt;Node29 -->
<g id="edge44_Node000028_Node000029" class="edge">
<title>Node28&#45;&gt;Node29</title>
<g id="a_edge44_Node000028_Node000029"><a xlink:title=" ">
<path fill="none" stroke="#63b8ff" d="M215.19,-274.98C181.54,-266.22 138.92,-253.79 102.3,-239 97.94,-237.24 93.42,-235.12 89.1,-232.94"/>
<polygon fill="#63b8ff" stroke="#63b8ff" points="90.57,-229.76 80.1,-228.18 87.3,-235.95 90.57,-229.76"/>
</a>
</g>
</g>
<!-- Node30 -->
<g id="Node000030" class="node">
<title>Node30</title>
<g id="a_Node000030"><a xlink:title=" ">
<polygon fill="#e0e0e0" stroke="#999999" points="152.8,-228 111.8,-228 111.8,-209 152.8,-209 152.8,-228"/>
<text text-anchor="middle" x="132.3" y="-216" font-family="Helvetica,sans-Serif" font-size="10.00">tuple</text>
</a>
</g>
</g>
<!-- Node28&#45;&gt;Node30 -->
<g id="edge46_Node000028_Node000030" class="edge">
<title>Node28&#45;&gt;Node30</title>
<g id="a_edge46_Node000028_Node000030"><a xlink:title=" ">
<path fill="none" stroke="#63b8ff" d="M238.16,-274.91C215.59,-265.65 186.19,-252.73 161.3,-239 158.38,-237.39 155.38,-235.57 152.46,-233.7"/>
<polygon fill="#63b8ff" stroke="#63b8ff" points="154.4,-230.79 144.14,-228.15 150.51,-236.61 154.4,-230.79"/>
</a>
</g>
</g>
<!-- Node31 -->
<g id="Node000031" class="node">
<title>Node31</title>
<g id="a_Node000031"><a xlink:href="../../d2/d54/assert_8hpp.html" target="_top" xlink:title="Assertion macros UASSERT, UASSERT_MSG, UINVARIANT.">
<polygon fill="white" stroke="#666666" points="301.8,-228 170.8,-228 170.8,-209 301.8,-209 301.8,-228"/>
<text text-anchor="middle" x="236.3" y="-216" font-family="Helvetica,sans-Serif" font-size="10.00">userver/utils/assert.hpp</text>
</a>
</g>
</g>
<!-- Node28&#45;&gt;Node31 -->
<g id="edge50_Node000028_Node000031" class="edge">
<title>Node28&#45;&gt;Node31</title>
<g id="a_edge50_Node000028_Node000031"><a xlink:title=" ">
<path fill="none" stroke="#63b8ff" d="M266.61,-274.94C260.65,-264.03 252.35,-248.85 245.94,-237.13"/>
<polygon fill="#63b8ff" stroke="#63b8ff" points="248.97,-235.36 241.1,-228.27 242.82,-238.72 248.97,-235.36"/>
</a>
</g>
</g>
<!-- Node31&#45;&gt;Node3 -->
<g id="edge51_Node000031_Node000003" class="edge">
<title>Node31&#45;&gt;Node3</title>
<g id="a_edge51_Node000031_Node000003"><a xlink:title=" ">
<path fill="none" stroke="#63b8ff" d="M234.27,-208.61C229.28,-186.79 216.33,-130.21 209.57,-100.63"/>
<polygon fill="#63b8ff" stroke="#63b8ff" points="212.95,-99.71 207.31,-90.75 206.12,-101.28 212.95,-99.71"/>
</a>
</g>
</g>
<!-- Node32&#45;&gt;Node2 -->
<g id="edge53_Node000032_Node000002" class="edge">
<title>Node32&#45;&gt;Node2</title>
<g id="a_edge53_Node000032_Node000002"><a xlink:title=" ">
<path fill="none" stroke="#63b8ff" d="M1017.55,-274.94C1007.27,-263.59 992.8,-247.62 982.02,-235.74"/>
<polygon fill="#63b8ff" stroke="#63b8ff" points="984.56,-233.33 975.25,-228.27 979.37,-238.03 984.56,-233.33"/>
</a>
</g>
</g>
<!-- Node32&#45;&gt;Node3 -->
<g id="edge54_Node000032_Node000003" class="edge">
<title>Node32&#45;&gt;Node3</title>
<g id="a_edge54_Node000032_Node000003"><a xlink:title=" ">
<path fill="none" stroke="#63b8ff" d="M948.72,-284.08C816.44,-273.92 548.79,-244.2 338.3,-162 295.16,-145.15 249.99,-114.86 224.97,-96.78"/>
<polygon fill="#63b8ff" stroke="#63b8ff" points="226.84,-93.81 216.7,-90.71 222.7,-99.45 226.84,-93.81"/>
</a>
</g>
</g>
<!-- Node32&#45;&gt;Node5 -->
<g id="edge55_Node000032_Node000005" class="edge">
<title>Node32&#45;&gt;Node5</title>
<g id="a_edge55_Node000032_Node000005"><a xlink:title=" ">
<path fill="none" stroke="#63b8ff" d="M1052.56,-274.94C1066.34,-266.23 1084.41,-254.81 1100.58,-244.6"/>
<polygon fill="#63b8ff" stroke="#63b8ff" points="1102.74,-247.37 1109.32,-239.07 1099,-241.46 1102.74,-247.37"/>
</a>
</g>
</g>
<!-- Node32&#45;&gt;Node21 -->
<g id="edge56_Node000032_Node000021" class="edge">
<title>Node32&#45;&gt;Node21</title>
<g id="a_edge56_Node000032_Node000021"><a xlink:title=" ">
<path fill="none" stroke="#63b8ff" d="M1029.66,-274.72C1029.08,-244.3 1032.14,-172.56 1070.3,-132 1082.06,-119.51 1117.35,-107.69 1151.41,-98.69"/>
<polygon fill="#63b8ff" stroke="#63b8ff" points="1152.62,-101.99 1161.43,-96.1 1150.87,-95.21 1152.62,-101.99"/>
</a>
</g>
</g>
</g>
</svg>
