<?xml version="1.0" encoding="UTF-8" standalone="no"?>
<!DOCTYPE svg PUBLIC "-//W3C//DTD SVG 1.1//EN"
 "http://www.w3.org/Graphics/SVG/1.1/DTD/svg11.dtd">
<!-- Generated by graphviz version 2.43.0 (0)
 -->
<!-- Title: userver/concurrent/striped_counter.hpp Pages: 1 -->
<svg width="2391pt" height="467pt"
 viewBox="0.00 0.00 2391.14 467.00" xmlns="http://www.w3.org/2000/svg" xmlns:xlink="http://www.w3.org/1999/xlink">
<g id="graph0" class="graph" transform="scale(1 1) rotate(0) translate(4 463)">
<title>userver/concurrent/striped_counter.hpp</title>
<!-- Node1 -->
<g id="Node000001" class="node">
<title>Node1</title>
<g id="a_Node000001"><a xlink:title="A contention&#45;free sharded atomic counter, with memory consumption and read performance traded for wri...">
<polygon fill="#999999" stroke="#666666" points="675.14,-459 559.14,-459 559.14,-429 675.14,-429 675.14,-459"/>
<text text-anchor="start" x="567.14" y="-447" font-family="Helvetica,sans-Serif" font-size="10.00">userver/concurrent</text>
<text text-anchor="middle" x="617.14" y="-436" font-family="Helvetica,sans-Serif" font-size="10.00">/striped_counter.hpp</text>
</a>
</g>
</g>
<!-- Node2 -->
<g id="Node000002" class="node">
<title>Node2</title>
<g id="a_Node000002"><a xlink:href="../../d1/dc4/response__base_8hpp_source.html" target="_top" xlink:title=" ">
<polygon fill="white" stroke="#666666" points="604.64,-393 477.64,-393 477.64,-363 604.64,-363 604.64,-393"/>
<text text-anchor="start" x="485.64" y="-381" font-family="Helvetica,sans-Serif" font-size="10.00">userver/server/request</text>
<text text-anchor="middle" x="541.14" y="-370" font-family="Helvetica,sans-Serif" font-size="10.00">/response_base.hpp</text>
</a>
</g>
</g>
<!-- Node1&#45;&gt;Node2 -->
<g id="edge1_Node000001_Node000002" class="edge">
<title>Node1&#45;&gt;Node2</title>
<g id="a_edge1_Node000001_Node000002"><a xlink:title=" ">
<path fill="none" stroke="#63b8ff" d="M592.44,-422.2C581.16,-412.7 568.09,-401.69 557.96,-393.16"/>
<polygon fill="#63b8ff" stroke="#63b8ff" points="590.37,-425.03 600.27,-428.8 594.88,-419.68 590.37,-425.03"/>
</a>
</g>
</g>
<!-- Node31 -->
<g id="Node000031" class="node">
<title>Node31</title>
<g id="a_Node000031"><a xlink:href="../../d2/d7c/striped__rate__counter_8hpp.html" target="_top" xlink:title="Atomic counter of type Rate with relaxed memory ordering, increased memory consumption and decreased ...">
<polygon fill="white" stroke="#666666" points="763.14,-393 623.14,-393 623.14,-363 763.14,-363 763.14,-393"/>
<text text-anchor="start" x="631.14" y="-381" font-family="Helvetica,sans-Serif" font-size="10.00">userver/utils/statistics</text>
<text text-anchor="middle" x="693.14" y="-370" font-family="Helvetica,sans-Serif" font-size="10.00">/striped_rate_counter.hpp</text>
</a>
</g>
</g>
<!-- Node1&#45;&gt;Node31 -->
<g id="edge39_Node000001_Node000031" class="edge">
<title>Node1&#45;&gt;Node31</title>
<g id="a_edge39_Node000001_Node000031"><a xlink:title=" ">
<path fill="none" stroke="#63b8ff" d="M641.84,-422.2C653.12,-412.7 666.2,-401.69 676.32,-393.16"/>
<polygon fill="#63b8ff" stroke="#63b8ff" points="639.4,-419.68 634.01,-428.8 643.91,-425.03 639.4,-419.68"/>
</a>
</g>
</g>
<!-- Node3 -->
<g id="Node000003" class="node">
<title>Node3</title>
<g id="a_Node000003"><a xlink:href="../../db/d6b/http__response_8hpp.html" target="_top" xlink:title="HTTP Response data.">
<polygon fill="white" stroke="#666666" points="468.14,-327 358.14,-327 358.14,-297 468.14,-297 468.14,-327"/>
<text text-anchor="start" x="366.14" y="-315" font-family="Helvetica,sans-Serif" font-size="10.00">userver/server/http</text>
<text text-anchor="middle" x="413.14" y="-304" font-family="Helvetica,sans-Serif" font-size="10.00">/http_response.hpp</text>
</a>
</g>
</g>
<!-- Node2&#45;&gt;Node3 -->
<g id="edge2_Node000002_Node000003" class="edge">
<title>Node2&#45;&gt;Node3</title>
<g id="a_edge2_Node000002_Node000003"><a xlink:title=" ">
<path fill="none" stroke="#63b8ff" d="M503.9,-358.38C483.87,-348.36 459.58,-336.22 441.17,-327.01"/>
<polygon fill="#63b8ff" stroke="#63b8ff" points="502.54,-361.61 513.05,-362.95 505.67,-355.35 502.54,-361.61"/>
</a>
</g>
</g>
<!-- Node28 -->
<g id="Node000028" class="node">
<title>Node28</title>
<g id="a_Node000028"><a xlink:href="../../d8/d76/http__response__body__stream_8hpp_source.html" target="_top" xlink:title=" ">
<polygon fill="white" stroke="#666666" points="600.14,-261 482.14,-261 482.14,-220 600.14,-220 600.14,-261"/>
<text text-anchor="start" x="490.14" y="-249" font-family="Helvetica,sans-Serif" font-size="10.00">userver/server/http</text>
<text text-anchor="start" x="490.14" y="-238" font-family="Helvetica,sans-Serif" font-size="10.00">/http_response_body</text>
<text text-anchor="middle" x="541.14" y="-227" font-family="Helvetica,sans-Serif" font-size="10.00">_stream.hpp</text>
</a>
</g>
</g>
<!-- Node2&#45;&gt;Node28 -->
<g id="edge34_Node000002_Node000028" class="edge">
<title>Node2&#45;&gt;Node28</title>
<g id="a_edge34_Node000002_Node000028"><a xlink:title=" ">
<path fill="none" stroke="#63b8ff" d="M541.14,-352.54C541.14,-326.38 541.14,-285.39 541.14,-261.21"/>
<polygon fill="#63b8ff" stroke="#63b8ff" points="537.64,-352.76 541.14,-362.76 544.64,-352.76 537.64,-352.76"/>
</a>
</g>
</g>
<!-- Node29 -->
<g id="Node000029" class="node">
<title>Node29</title>
<g id="a_Node000029"><a xlink:href="../../d1/d70/request__base_8hpp_source.html" target="_top" xlink:title=" ">
<polygon fill="white" stroke="#666666" points="1133.64,-327 1006.64,-327 1006.64,-297 1133.64,-297 1133.64,-327"/>
<text text-anchor="start" x="1014.64" y="-315" font-family="Helvetica,sans-Serif" font-size="10.00">userver/server/request</text>
<text text-anchor="middle" x="1070.14" y="-304" font-family="Helvetica,sans-Serif" font-size="10.00">/request_base.hpp</text>
</a>
</g>
</g>
<!-- Node2&#45;&gt;Node29 -->
<g id="edge35_Node000002_Node000029" class="edge">
<title>Node2&#45;&gt;Node29</title>
<g id="a_edge35_Node000002_Node000029"><a xlink:title=" ">
<path fill="none" stroke="#63b8ff" d="M614.84,-362.98C760.89,-341.32 920.15,-325.98 1006.49,-318.35"/>
<polygon fill="#63b8ff" stroke="#63b8ff" points="614.16,-359.54 604.79,-364.48 615.2,-366.46 614.16,-359.54"/>
</a>
</g>
</g>
<!-- Node4 -->
<g id="Node000004" class="node">
<title>Node4</title>
<g id="a_Node000004"><a xlink:href="../../de/d82/digest_2auth__checker__base_8hpp.html" target="_top" xlink:title="Base class for digest authentication checkers. Implements a digest&#45;authentication logic.">
<polygon fill="white" stroke="#666666" points="157.14,-118 15.14,-118 15.14,-77 157.14,-77 157.14,-118"/>
<text text-anchor="start" x="23.14" y="-106" font-family="Helvetica,sans-Serif" font-size="10.00">userver/server/handlers</text>
<text text-anchor="start" x="23.14" y="-95" font-family="Helvetica,sans-Serif" font-size="10.00">/auth/digest/auth_checker</text>
<text text-anchor="middle" x="86.14" y="-84" font-family="Helvetica,sans-Serif" font-size="10.00">_base.hpp</text>
</a>
</g>
</g>
<!-- Node3&#45;&gt;Node4 -->
<g id="edge3_Node000003_Node000004" class="edge">
<title>Node3&#45;&gt;Node4</title>
<g id="a_edge3_Node000003_Node000004"><a xlink:title=" ">
<path fill="none" stroke="#63b8ff" d="M348.31,-295.06C286.21,-277 193.05,-242.23 131.14,-184 111.71,-165.73 99.06,-137.17 92.26,-118.15"/>
<polygon fill="#63b8ff" stroke="#63b8ff" points="347.42,-298.45 358,-297.82 349.34,-291.72 347.42,-298.45"/>
</a>
</g>
</g>
<!-- Node5 -->
<g id="Node000005" class="node">
<title>Node5</title>
<g id="a_Node000005"><a xlink:href="../../db/df0/standalone__checker_8hpp.html" target="_top" xlink:title="Class for digest authentication checker. Implements a stand&#45;alone digest&#45;authentication logic.">
<polygon fill="white" stroke="#666666" points="152.14,-41 20.14,-41 20.14,0 152.14,0 152.14,-41"/>
<text text-anchor="start" x="28.14" y="-29" font-family="Helvetica,sans-Serif" font-size="10.00">userver/server/handlers</text>
<text text-anchor="start" x="28.14" y="-18" font-family="Helvetica,sans-Serif" font-size="10.00">/auth/digest/standalone</text>
<text text-anchor="middle" x="86.14" y="-7" font-family="Helvetica,sans-Serif" font-size="10.00">_checker.hpp</text>
</a>
</g>
</g>
<!-- Node3&#45;&gt;Node5 -->
<g id="edge5_Node000003_Node000005" class="edge">
<title>Node3&#45;&gt;Node5</title>
<g id="a_edge5_Node000003_Node000005"><a xlink:title=" ">
<path fill="none" stroke="#63b8ff" d="M347.78,-306C298.31,-300.2 229.79,-287.71 175.14,-261 86.75,-217.79 47.54,-207.26 6.14,-118 -1.53,-101.47 -2.31,-93.14 6.14,-77 14.14,-61.72 28.46,-49.81 42.8,-41"/>
<polygon fill="#63b8ff" stroke="#63b8ff" points="347.4,-309.48 357.72,-307.11 348.17,-302.53 347.4,-309.48"/>
</a>
</g>
</g>
<!-- Node6 -->
<g id="Node000006" class="node">
<title>Node6</title>
<g id="a_Node000006"><a xlink:href="../../d4/df6/http__handler__base_8hpp.html" target="_top" xlink:title="Base class for all the Userver HTTP Handlers.">
<polygon fill="white" stroke="#666666" points="1230.14,-184 1098.14,-184 1098.14,-154 1230.14,-154 1230.14,-184"/>
<text text-anchor="start" x="1106.14" y="-172" font-family="Helvetica,sans-Serif" font-size="10.00">userver/server/handlers</text>
<text text-anchor="middle" x="1164.14" y="-161" font-family="Helvetica,sans-Serif" font-size="10.00">/http_handler_base.hpp</text>
</a>
</g>
</g>
<!-- Node3&#45;&gt;Node6 -->
<g id="edge6_Node000003_Node000006" class="edge">
<title>Node3&#45;&gt;Node6</title>
<g id="a_edge6_Node000003_Node000006"><a xlink:title=" ">
<path fill="none" stroke="#63b8ff" d="M425.37,-287.71C438.62,-263.45 459.66,-227.9 473.14,-220 526.2,-188.91 935.43,-175.58 1097.94,-171.48"/>
<polygon fill="#63b8ff" stroke="#63b8ff" points="422.2,-286.22 420.54,-296.68 428.36,-289.53 422.2,-286.22"/>
</a>
</g>
</g>
<!-- Node24 -->
<g id="Node000024" class="node">
<title>Node24</title>
<g id="a_Node000024"><a xlink:href="../../d2/d45/http__request_8hpp.html" target="_top" xlink:title="HTTP Request data.">
<polygon fill="white" stroke="#666666" points="426.14,-255.5 316.14,-255.5 316.14,-225.5 426.14,-225.5 426.14,-255.5"/>
<text text-anchor="start" x="324.14" y="-243.5" font-family="Helvetica,sans-Serif" font-size="10.00">userver/server/http</text>
<text text-anchor="middle" x="371.14" y="-232.5" font-family="Helvetica,sans-Serif" font-size="10.00">/http_request.hpp</text>
</a>
</g>
</g>
<!-- Node3&#45;&gt;Node24 -->
<g id="edge24_Node000003_Node000024" class="edge">
<title>Node3&#45;&gt;Node24</title>
<g id="a_edge24_Node000003_Node000024"><a xlink:title=" ">
<path fill="none" stroke="#63b8ff" d="M399.28,-288.06C392.79,-277.32 385.26,-264.86 379.63,-255.54"/>
<polygon fill="#63b8ff" stroke="#63b8ff" points="396.47,-290.19 404.64,-296.94 402.47,-286.57 396.47,-290.19"/>
</a>
</g>
</g>
<!-- Node3&#45;&gt;Node28 -->
<g id="edge33_Node000003_Node000028" class="edge">
<title>Node3&#45;&gt;Node28</title>
<g id="a_edge33_Node000003_Node000028"><a xlink:title=" ">
<path fill="none" stroke="#63b8ff" d="M447.93,-292.11C465.65,-282.49 487.19,-270.79 505.09,-261.07"/>
<polygon fill="#63b8ff" stroke="#63b8ff" points="446.16,-289.09 439.04,-296.94 449.5,-295.24 446.16,-289.09"/>
</a>
</g>
</g>
<!-- Node4&#45;&gt;Node5 -->
<g id="edge4_Node000004_Node000005" class="edge">
<title>Node4&#45;&gt;Node5</title>
<g id="a_edge4_Node000004_Node000005"><a xlink:title=" ">
<path fill="none" stroke="#63b8ff" d="M86.14,-66.69C86.14,-58.08 86.14,-48.9 86.14,-41.07"/>
<polygon fill="#63b8ff" stroke="#63b8ff" points="82.64,-66.79 86.14,-76.79 89.64,-66.79 82.64,-66.79"/>
</a>
</g>
</g>
<!-- Node7 -->
<g id="Node000007" class="node">
<title>Node7</title>
<g id="a_Node000007"><a xlink:href="../../d6/d0d/dns__client__control_8hpp.html" target="_top" xlink:title="Handlers that controls the DNS client.">
<polygon fill="white" stroke="#666666" points="1001.14,-112.5 869.14,-112.5 869.14,-82.5 1001.14,-82.5 1001.14,-112.5"/>
<text text-anchor="start" x="877.14" y="-100.5" font-family="Helvetica,sans-Serif" font-size="10.00">userver/server/handlers</text>
<text text-anchor="middle" x="935.14" y="-89.5" font-family="Helvetica,sans-Serif" font-size="10.00">/dns_client_control.hpp</text>
</a>
</g>
</g>
<!-- Node6&#45;&gt;Node7 -->
<g id="edge7_Node000006_Node000007" class="edge">
<title>Node6&#45;&gt;Node7</title>
<g id="a_edge7_Node000006_Node000007"><a xlink:title=" ">
<path fill="none" stroke="#63b8ff" d="M1108.19,-151.02C1069.28,-139.21 1018.02,-123.65 981.41,-112.54"/>
<polygon fill="#63b8ff" stroke="#63b8ff" points="1107.21,-154.38 1117.8,-153.94 1109.25,-147.68 1107.21,-154.38"/>
</a>
</g>
</g>
<!-- Node8 -->
<g id="Node000008" class="node">
<title>Node8</title>
<g id="a_Node000008"><a xlink:href="../../d6/dc0/dynamic__debug__log_8hpp.html" target="_top" xlink:title="HTTP Handler to show/hide logs at the specific file:line.">
<polygon fill="white" stroke="#666666" points="1157.14,-112.5 1019.14,-112.5 1019.14,-82.5 1157.14,-82.5 1157.14,-112.5"/>
<text text-anchor="start" x="1027.14" y="-100.5" font-family="Helvetica,sans-Serif" font-size="10.00">userver/server/handlers</text>
<text text-anchor="middle" x="1088.14" y="-89.5" font-family="Helvetica,sans-Serif" font-size="10.00">/dynamic_debug_log.hpp</text>
</a>
</g>
</g>
<!-- Node6&#45;&gt;Node8 -->
<g id="edge8_Node000006_Node000008" class="edge">
<title>Node6&#45;&gt;Node8</title>
<g id="a_edge8_Node000006_Node000008"><a xlink:title=" ">
<path fill="none" stroke="#63b8ff" d="M1141.17,-146.99C1128.97,-135.84 1114.31,-122.43 1103.5,-112.54"/>
<polygon fill="#63b8ff" stroke="#63b8ff" points="1139.02,-149.77 1148.76,-153.94 1143.74,-144.6 1139.02,-149.77"/>
</a>
</g>
</g>
<!-- Node9 -->
<g id="Node000009" class="node">
<title>Node9</title>
<g id="a_Node000009"><a xlink:href="../../d5/d4d/http__handler__flatbuf__base_8hpp.html" target="_top" xlink:title="Convenient base for handlers that accept requests with body in Flatbuffer format and respond with bod...">
<polygon fill="white" stroke="#666666" points="1307.14,-118 1175.14,-118 1175.14,-77 1307.14,-77 1307.14,-118"/>
<text text-anchor="start" x="1183.14" y="-106" font-family="Helvetica,sans-Serif" font-size="10.00">userver/server/handlers</text>
<text text-anchor="start" x="1183.14" y="-95" font-family="Helvetica,sans-Serif" font-size="10.00">/http_handler_flatbuf</text>
<text text-anchor="middle" x="1241.14" y="-84" font-family="Helvetica,sans-Serif" font-size="10.00">_base.hpp</text>
</a>
</g>
</g>
<!-- Node6&#45;&gt;Node9 -->
<g id="edge9_Node000006_Node000009" class="edge">
<title>Node6&#45;&gt;Node9</title>
<g id="a_edge9_Node000006_Node000009"><a xlink:title=" ">
<path fill="none" stroke="#63b8ff" d="M1187.15,-147.23C1197.39,-137.99 1209.38,-127.17 1219.46,-118.07"/>
<polygon fill="#63b8ff" stroke="#63b8ff" points="1184.8,-144.64 1179.72,-153.94 1189.49,-149.83 1184.8,-144.64"/>
</a>
</g>
</g>
<!-- Node10 -->
<g id="Node000010" class="node">
<title>Node10</title>
<g id="a_Node000010"><a xlink:href="../../d1/d58/http__handler__json__base_8hpp.html" target="_top" xlink:title="Convenient base for handlers that accept requests with body in JSON format and respond with body in J...">
<polygon fill="white" stroke="#666666" points="1481.14,-112.5 1325.14,-112.5 1325.14,-82.5 1481.14,-82.5 1481.14,-112.5"/>
<text text-anchor="start" x="1333.14" y="-100.5" font-family="Helvetica,sans-Serif" font-size="10.00">userver/server/handlers</text>
<text text-anchor="middle" x="1403.14" y="-89.5" font-family="Helvetica,sans-Serif" font-size="10.00">/http_handler_json_base.hpp</text>
</a>
</g>
</g>
<!-- Node6&#45;&gt;Node10 -->
<g id="edge10_Node000006_Node000010" class="edge">
<title>Node6&#45;&gt;Node10</title>
<g id="a_edge10_Node000006_Node000010"><a xlink:title=" ">
<path fill="none" stroke="#63b8ff" d="M1222.28,-151.09C1262.92,-139.28 1316.56,-123.68 1354.85,-112.54"/>
<polygon fill="#63b8ff" stroke="#63b8ff" points="1221.13,-147.78 1212.51,-153.94 1223.09,-154.5 1221.13,-147.78"/>
</a>
</g>
</g>
<!-- Node14 -->
<g id="Node000014" class="node">
<title>Node14</title>
<g id="a_Node000014"><a xlink:href="../../dd/db6/http__handler__static_8hpp.html" target="_top" xlink:title="Handler that returns HTTP 200 if file exist and returns file data with mapped content/type.">
<polygon fill="white" stroke="#666666" points="1633.14,-112.5 1499.14,-112.5 1499.14,-82.5 1633.14,-82.5 1633.14,-112.5"/>
<text text-anchor="start" x="1507.14" y="-100.5" font-family="Helvetica,sans-Serif" font-size="10.00">userver/server/handlers</text>
<text text-anchor="middle" x="1566.14" y="-89.5" font-family="Helvetica,sans-Serif" font-size="10.00">/http_handler_static.hpp</text>
</a>
</g>
</g>
<!-- Node6&#45;&gt;Node14 -->
<g id="edge14_Node000006_Node000014" class="edge">
<title>Node6&#45;&gt;Node14</title>
<g id="a_edge14_Node000006_Node000014"><a xlink:title=" ">
<path fill="none" stroke="#63b8ff" d="M1240.31,-158.49C1306.62,-149.69 1405.17,-135.37 1490.14,-118 1498.02,-116.39 1506.3,-114.49 1514.38,-112.51"/>
<polygon fill="#63b8ff" stroke="#63b8ff" points="1239.81,-155.02 1230.35,-159.8 1240.73,-161.96 1239.81,-155.02"/>
</a>
</g>
</g>
<!-- Node15 -->
<g id="Node000015" class="node">
<title>Node15</title>
<g id="a_Node000015"><a xlink:href="../../d7/db3/implicit__options_8hpp.html" target="_top" xlink:title="A &quot;magical&quot; handler that will respond to OPTIONS HTTP method for any other handler that cannot handle...">
<polygon fill="white" stroke="#666666" points="1783.14,-112.5 1651.14,-112.5 1651.14,-82.5 1783.14,-82.5 1783.14,-112.5"/>
<text text-anchor="start" x="1659.14" y="-100.5" font-family="Helvetica,sans-Serif" font-size="10.00">userver/server/handlers</text>
<text text-anchor="middle" x="1717.14" y="-89.5" font-family="Helvetica,sans-Serif" font-size="10.00">/implicit_options.hpp</text>
</a>
</g>
</g>
<!-- Node6&#45;&gt;Node15 -->
<g id="edge15_Node000006_Node000015" class="edge">
<title>Node6&#45;&gt;Node15</title>
<g id="a_edge15_Node000006_Node000015"><a xlink:title=" ">
<path fill="none" stroke="#63b8ff" d="M1240.37,-163.57C1335.13,-157.25 1501.53,-143.48 1642.14,-118 1650.35,-116.51 1658.98,-114.6 1667.35,-112.56"/>
<polygon fill="#63b8ff" stroke="#63b8ff" points="1240.05,-160.08 1230.31,-164.23 1240.51,-167.07 1240.05,-160.08"/>
</a>
</g>
</g>
<!-- Node16 -->
<g id="Node000016" class="node">
<title>Node16</title>
<g id="a_Node000016"><a xlink:href="../../d5/d86/jemalloc_8hpp.html" target="_top" xlink:title="Handler that controls the jemalloc allocator.">
<polygon fill="white" stroke="#666666" points="1933.14,-112.5 1801.14,-112.5 1801.14,-82.5 1933.14,-82.5 1933.14,-112.5"/>
<text text-anchor="start" x="1809.14" y="-100.5" font-family="Helvetica,sans-Serif" font-size="10.00">userver/server/handlers</text>
<text text-anchor="middle" x="1867.14" y="-89.5" font-family="Helvetica,sans-Serif" font-size="10.00">/jemalloc.hpp</text>
</a>
</g>
</g>
<!-- Node6&#45;&gt;Node16 -->
<g id="edge16_Node000006_Node000016" class="edge">
<title>Node6&#45;&gt;Node16</title>
<g id="a_edge16_Node000006_Node000016"><a xlink:title=" ">
<path fill="none" stroke="#63b8ff" d="M1240.23,-166.23C1358.88,-162.5 1594.86,-151.24 1792.14,-118 1800.63,-116.57 1809.56,-114.64 1818.19,-112.54"/>
<polygon fill="#63b8ff" stroke="#63b8ff" points="1240.04,-162.73 1230.15,-166.54 1240.26,-169.73 1240.04,-162.73"/>
</a>
</g>
</g>
<!-- Node17 -->
<g id="Node000017" class="node">
<title>Node17</title>
<g id="a_Node000017"><a xlink:href="../../d0/d01/log__level_8hpp.html" target="_top" xlink:title="Handler that controls logging levels of all the loggers.">
<polygon fill="white" stroke="#666666" points="2083.14,-112.5 1951.14,-112.5 1951.14,-82.5 2083.14,-82.5 2083.14,-112.5"/>
<text text-anchor="start" x="1959.14" y="-100.5" font-family="Helvetica,sans-Serif" font-size="10.00">userver/server/handlers</text>
<text text-anchor="middle" x="2017.14" y="-89.5" font-family="Helvetica,sans-Serif" font-size="10.00">/log_level.hpp</text>
</a>
</g>
</g>
<!-- Node6&#45;&gt;Node17 -->
<g id="edge17_Node000006_Node000017" class="edge">
<title>Node6&#45;&gt;Node17</title>
<g id="a_edge17_Node000006_Node000017"><a xlink:title=" ">
<path fill="none" stroke="#63b8ff" d="M1240.38,-167.89C1380.33,-166.63 1687.26,-158.94 1942.14,-118 1950.78,-116.61 1959.86,-114.67 1968.61,-112.55"/>
<polygon fill="#63b8ff" stroke="#63b8ff" points="1240.16,-164.39 1230.19,-167.97 1240.21,-171.39 1240.16,-164.39"/>
</a>
</g>
</g>
<!-- Node18 -->
<g id="Node000018" class="node">
<title>Node18</title>
<g id="a_Node000018"><a xlink:href="../../d7/d72/on__log__rotate_8hpp.html" target="_top" xlink:title="Handler that controls logging levels of all the loggers.">
<polygon fill="white" stroke="#666666" points="2233.14,-112.5 2101.14,-112.5 2101.14,-82.5 2233.14,-82.5 2233.14,-112.5"/>
<text text-anchor="start" x="2109.14" y="-100.5" font-family="Helvetica,sans-Serif" font-size="10.00">userver/server/handlers</text>
<text text-anchor="middle" x="2167.14" y="-89.5" font-family="Helvetica,sans-Serif" font-size="10.00">/on_log_rotate.hpp</text>
</a>
</g>
</g>
<!-- Node6&#45;&gt;Node18 -->
<g id="edge18_Node000006_Node000018" class="edge">
<title>Node6&#45;&gt;Node18</title>
<g id="a_edge18_Node000006_Node000018"><a xlink:title=" ">
<path fill="none" stroke="#63b8ff" d="M1240.56,-165.86C1432.05,-160.17 1928.74,-143.38 2092.14,-118 2100.92,-116.64 2110.15,-114.68 2119.03,-112.53"/>
<polygon fill="#63b8ff" stroke="#63b8ff" points="1240.2,-162.37 1230.31,-166.16 1240.4,-169.36 1240.2,-162.37"/>
</a>
</g>
</g>
<!-- Node19 -->
<g id="Node000019" class="node">
<title>Node19</title>
<g id="a_Node000019"><a xlink:href="../../d8/d39/ping_8hpp.html" target="_top" xlink:title="Handler that returns HTTP 200 if the service is OK and able to process requests.">
<polygon fill="white" stroke="#666666" points="2383.14,-112.5 2251.14,-112.5 2251.14,-82.5 2383.14,-82.5 2383.14,-112.5"/>
<text text-anchor="start" x="2259.14" y="-100.5" font-family="Helvetica,sans-Serif" font-size="10.00">userver/server/handlers</text>
<text text-anchor="middle" x="2317.14" y="-89.5" font-family="Helvetica,sans-Serif" font-size="10.00">/ping.hpp</text>
</a>
</g>
</g>
<!-- Node6&#45;&gt;Node19 -->
<g id="edge19_Node000006_Node000019" class="edge">
<title>Node6&#45;&gt;Node19</title>
<g id="a_edge19_Node000006_Node000019"><a xlink:title=" ">
<path fill="none" stroke="#63b8ff" d="M1240.38,-166.53C1452.82,-162.09 2048.61,-147.32 2242.14,-118 2250.92,-116.67 2260.16,-114.73 2269.03,-112.58"/>
<polygon fill="#63b8ff" stroke="#63b8ff" points="1240.18,-163.03 1230.25,-166.74 1240.32,-170.03 1240.18,-163.03"/>
</a>
</g>
</g>
<!-- Node20 -->
<g id="Node000020" class="node">
<title>Node20</title>
<g id="a_Node000020"><a xlink:href="../../de/d18/server__monitor_8hpp.html" target="_top" xlink:title="Handler that returns statistics data.">
<polygon fill="white" stroke="#666666" points="691.14,-112.5 559.14,-112.5 559.14,-82.5 691.14,-82.5 691.14,-112.5"/>
<text text-anchor="start" x="567.14" y="-100.5" font-family="Helvetica,sans-Serif" font-size="10.00">userver/server/handlers</text>
<text text-anchor="middle" x="625.14" y="-89.5" font-family="Helvetica,sans-Serif" font-size="10.00">/server_monitor.hpp</text>
</a>
</g>
</g>
<!-- Node6&#45;&gt;Node20 -->
<g id="edge20_Node000006_Node000020" class="edge">
<title>Node6&#45;&gt;Node20</title>
<g id="a_edge20_Node000006_Node000020"><a xlink:title=" ">
<path fill="none" stroke="#63b8ff" d="M1087.7,-163.12C995.5,-156.46 836.09,-142.47 701.14,-118 692.83,-116.49 684.09,-114.57 675.61,-112.53"/>
<polygon fill="#63b8ff" stroke="#63b8ff" points="1087.55,-166.62 1097.78,-163.84 1088.05,-159.64 1087.55,-166.62"/>
</a>
</g>
</g>
<!-- Node21 -->
<g id="Node000021" class="node">
<title>Node21</title>
<g id="a_Node000021"><a xlink:href="../../d8/d82/core_2include_2userver_2server_2server_8hpp_source.html" target="_top" xlink:title=" ">
<polygon fill="white" stroke="#666666" points="850.64,-107 709.64,-107 709.64,-88 850.64,-88 850.64,-107"/>
<text text-anchor="middle" x="780.14" y="-95" font-family="Helvetica,sans-Serif" font-size="10.00">userver/server/server.hpp</text>
</a>
</g>
</g>
<!-- Node6&#45;&gt;Node21 -->
<g id="edge21_Node000006_Node000021" class="edge">
<title>Node6&#45;&gt;Node21</title>
<g id="a_edge21_Node000006_Node000021"><a xlink:title=" ">
<path fill="none" stroke="#63b8ff" d="M1088.01,-157.12C1026.35,-147.91 937.34,-133.73 860.14,-118 844.45,-114.8 827.18,-110.67 812.71,-107.03"/>
<polygon fill="#63b8ff" stroke="#63b8ff" points="1087.65,-160.61 1098.05,-158.61 1088.67,-153.68 1087.65,-160.61"/>
</a>
</g>
</g>
<!-- Node23 -->
<g id="Node000023" class="node">
<title>Node23</title>
<g id="a_Node000023"><a xlink:href="../../d4/d64/websocket__handler_8hpp.html" target="_top" xlink:title=" ">
<polygon fill="white" stroke="#666666" points="541.14,-112.5 399.14,-112.5 399.14,-82.5 541.14,-82.5 541.14,-112.5"/>
<text text-anchor="start" x="407.14" y="-100.5" font-family="Helvetica,sans-Serif" font-size="10.00">userver/server/websocket</text>
<text text-anchor="middle" x="470.14" y="-89.5" font-family="Helvetica,sans-Serif" font-size="10.00">/websocket_handler.hpp</text>
</a>
</g>
</g>
<!-- Node6&#45;&gt;Node23 -->
<g id="edge23_Node000006_Node000023" class="edge">
<title>Node6&#45;&gt;Node23</title>
<g id="a_edge23_Node000006_Node000023"><a xlink:title=" ">
<path fill="none" stroke="#63b8ff" d="M1087.6,-165.65C970.97,-161.19 742.05,-149 550.14,-118 541.25,-116.56 531.89,-114.65 522.83,-112.59"/>
<polygon fill="#63b8ff" stroke="#63b8ff" points="1087.73,-169.15 1097.85,-166.03 1087.99,-162.16 1087.73,-169.15"/>
</a>
</g>
</g>
<!-- Node11 -->
<g id="Node000011" class="node">
<title>Node11</title>
<g id="a_Node000011"><a xlink:href="../../d5/ded/handler_8hpp_source.html" target="_top" xlink:title=" ">
<polygon fill="white" stroke="#666666" points="1631.14,-30 1487.14,-30 1487.14,-11 1631.14,-11 1631.14,-30"/>
<text text-anchor="middle" x="1559.14" y="-18" font-family="Helvetica,sans-Serif" font-size="10.00">userver/alerts/handler.hpp</text>
</a>
</g>
</g>
<!-- Node10&#45;&gt;Node11 -->
<g id="edge11_Node000010_Node000011" class="edge">
<title>Node10&#45;&gt;Node11</title>
<g id="a_edge11_Node000010_Node000011"><a xlink:title=" ">
<path fill="none" stroke="#63b8ff" d="M1441.5,-78.06C1473.24,-62.8 1516.91,-41.8 1541.12,-30.16"/>
<polygon fill="#63b8ff" stroke="#63b8ff" points="1439.98,-74.91 1432.48,-82.39 1443.01,-81.21 1439.98,-74.91"/>
</a>
</g>
</g>
<!-- Node12 -->
<g id="Node000012" class="node">
<title>Node12</title>
<g id="a_Node000012"><a xlink:href="../../d7/d79/inspect__requests_8hpp.html" target="_top" xlink:title="Handler that returns information about all in&#45;flight requests.">
<polygon fill="white" stroke="#666666" points="1319.14,-35.5 1187.14,-35.5 1187.14,-5.5 1319.14,-5.5 1319.14,-35.5"/>
<text text-anchor="start" x="1195.14" y="-23.5" font-family="Helvetica,sans-Serif" font-size="10.00">userver/server/handlers</text>
<text text-anchor="middle" x="1253.14" y="-12.5" font-family="Helvetica,sans-Serif" font-size="10.00">/inspect_requests.hpp</text>
</a>
</g>
</g>
<!-- Node10&#45;&gt;Node12 -->
<g id="edge12_Node000010_Node000012" class="edge">
<title>Node10&#45;&gt;Node12</title>
<g id="a_edge12_Node000010_Node000012"><a xlink:title=" ">
<path fill="none" stroke="#63b8ff" d="M1365.69,-77.77C1339.5,-64.68 1305.08,-47.47 1281.23,-35.54"/>
<polygon fill="#63b8ff" stroke="#63b8ff" points="1364.42,-81.05 1374.93,-82.39 1367.55,-74.79 1364.42,-81.05"/>
</a>
</g>
</g>
<!-- Node13 -->
<g id="Node000013" class="node">
<title>Node13</title>
<g id="a_Node000013"><a xlink:href="../../d6/d43/tests__control_8hpp.html" target="_top" xlink:title="Handler that allows to control the behavior of server from tests, and functional tests with testsuite...">
<polygon fill="white" stroke="#666666" points="1469.14,-35.5 1337.14,-35.5 1337.14,-5.5 1469.14,-5.5 1469.14,-35.5"/>
<text text-anchor="start" x="1345.14" y="-23.5" font-family="Helvetica,sans-Serif" font-size="10.00">userver/server/handlers</text>
<text text-anchor="middle" x="1403.14" y="-12.5" font-family="Helvetica,sans-Serif" font-size="10.00">/tests_control.hpp</text>
</a>
</g>
</g>
<!-- Node10&#45;&gt;Node13 -->
<g id="edge13_Node000010_Node000013" class="edge">
<title>Node10&#45;&gt;Node13</title>
<g id="a_edge13_Node000010_Node000013"><a xlink:title=" ">
<path fill="none" stroke="#63b8ff" d="M1403.14,-72.04C1403.14,-59.95 1403.14,-45.79 1403.14,-35.54"/>
<polygon fill="#63b8ff" stroke="#63b8ff" points="1399.64,-72.39 1403.14,-82.39 1406.64,-72.39 1399.64,-72.39"/>
</a>
</g>
</g>
<!-- Node22 -->
<g id="Node000022" class="node">
<title>Node22</title>
<g id="a_Node000022"><a xlink:href="../../d3/ddd/core_2include_2userver_2server_2component_8hpp.html" target="_top" xlink:title="Component that listens for incoming requests, manages incoming connections and passes the requests to...">
<polygon fill="white" stroke="#666666" points="863.14,-30 697.14,-30 697.14,-11 863.14,-11 863.14,-30"/>
<text text-anchor="middle" x="780.14" y="-18" font-family="Helvetica,sans-Serif" font-size="10.00">userver/server/component.hpp</text>
</a>
</g>
</g>
<!-- Node21&#45;&gt;Node22 -->
<g id="edge22_Node000021_Node000022" class="edge">
<title>Node21&#45;&gt;Node22</title>
<g id="a_edge22_Node000021_Node000022"><a xlink:title=" ">
<path fill="none" stroke="#63b8ff" d="M780.14,-77.52C780.14,-62.24 780.14,-41.48 780.14,-30"/>
<polygon fill="#63b8ff" stroke="#63b8ff" points="776.64,-77.9 780.14,-87.9 783.64,-77.9 776.64,-77.9"/>
</a>
</g>
</g>
<!-- Node24&#45;&gt;Node4 -->
<g id="edge28_Node000024_Node000004" class="edge">
<title>Node24&#45;&gt;Node4</title>
<g id="a_edge28_Node000024_Node000004"><a xlink:title=" ">
<path fill="none" stroke="#63b8ff" d="M306.1,-230.23C265.26,-222.35 212.66,-208.3 171.14,-184 142.06,-166.98 115.94,-137.55 100.55,-118.05"/>
<polygon fill="#63b8ff" stroke="#63b8ff" points="305.47,-233.67 315.95,-232.05 306.75,-226.79 305.47,-233.67"/>
</a>
</g>
</g>
<!-- Node24&#45;&gt;Node5 -->
<g id="edge29_Node000024_Node000005" class="edge">
<title>Node24&#45;&gt;Node5</title>
<g id="a_edge29_Node000024_Node000005"><a xlink:title=" ">
<path fill="none" stroke="#63b8ff" d="M376.2,-215.22C382,-179.99 386.71,-114.8 352.14,-77 325.76,-48.15 222.03,-33.39 152.17,-26.57"/>
<polygon fill="#63b8ff" stroke="#63b8ff" points="372.75,-214.66 374.41,-225.12 379.63,-215.91 372.75,-214.66"/>
</a>
</g>
</g>
<!-- Node24&#45;&gt;Node6 -->
<g id="edge30_Node000024_Node000006" class="edge">
<title>Node24&#45;&gt;Node6</title>
<g id="a_edge30_Node000024_Node000006"><a xlink:title=" ">
<path fill="none" stroke="#63b8ff" d="M425.67,-222.98C430.53,-221.84 435.41,-220.82 440.14,-220 679.71,-178.34 969.56,-171.07 1097.71,-170.02"/>
<polygon fill="#63b8ff" stroke="#63b8ff" points="424.6,-219.64 415.74,-225.45 426.29,-226.43 424.6,-219.64"/>
</a>
</g>
</g>
<!-- Node25 -->
<g id="Node000025" class="node">
<title>Node25</title>
<g id="a_Node000025"><a xlink:href="../../da/dff/auth__checker__base_8hpp_source.html" target="_top" xlink:title=" ">
<polygon fill="white" stroke="#666666" points="338.14,-184 180.14,-184 180.14,-154 338.14,-154 338.14,-184"/>
<text text-anchor="start" x="188.14" y="-172" font-family="Helvetica,sans-Serif" font-size="10.00">userver/server/handlers</text>
<text text-anchor="middle" x="259.14" y="-161" font-family="Helvetica,sans-Serif" font-size="10.00">/auth/auth_checker_base.hpp</text>
</a>
</g>
</g>
<!-- Node24&#45;&gt;Node25 -->
<g id="edge25_Node000024_Node000025" class="edge">
<title>Node24&#45;&gt;Node25</title>
<g id="a_edge25_Node000024_Node000025"><a xlink:title=" ">
<path fill="none" stroke="#63b8ff" d="M339.83,-220.07C321.38,-208.62 298.46,-194.4 281.77,-184.04"/>
<polygon fill="#63b8ff" stroke="#63b8ff" points="338.13,-223.14 348.48,-225.44 341.82,-217.19 338.13,-223.14"/>
</a>
</g>
</g>
<!-- Node27 -->
<g id="Node000027" class="node">
<title>Node27</title>
<g id="a_Node000027"><a xlink:href="../../de/d4e/core_2include_2userver_2server_2websocket_2server_8hpp.html" target="_top" xlink:title=" ">
<polygon fill="white" stroke="#666666" points="541.14,-184 399.14,-184 399.14,-154 541.14,-154 541.14,-184"/>
<text text-anchor="start" x="407.14" y="-172" font-family="Helvetica,sans-Serif" font-size="10.00">userver/server/websocket</text>
<text text-anchor="middle" x="470.14" y="-161" font-family="Helvetica,sans-Serif" font-size="10.00">/server.hpp</text>
</a>
</g>
</g>
<!-- Node24&#45;&gt;Node27 -->
<g id="edge31_Node000024_Node000027" class="edge">
<title>Node24&#45;&gt;Node27</title>
<g id="a_edge31_Node000024_Node000027"><a xlink:title=" ">
<path fill="none" stroke="#63b8ff" d="M399.71,-219.44C415.86,-208.1 435.65,-194.21 450.14,-184.04"/>
<polygon fill="#63b8ff" stroke="#63b8ff" points="397.35,-216.83 391.18,-225.44 401.37,-222.55 397.35,-216.83"/>
</a>
</g>
</g>
<!-- Node25&#45;&gt;Node4 -->
<g id="edge27_Node000025_Node000004" class="edge">
<title>Node25&#45;&gt;Node4</title>
<g id="a_edge27_Node000025_Node000004"><a xlink:title=" ">
<path fill="none" stroke="#63b8ff" d="M214.74,-150.16C190.31,-140.35 159.95,-128.15 134.86,-118.07"/>
<polygon fill="#63b8ff" stroke="#63b8ff" points="213.55,-153.46 224.13,-153.94 216.16,-146.96 213.55,-153.46"/>
</a>
</g>
</g>
<!-- Node26 -->
<g id="Node000026" class="node">
<title>Node26</title>
<g id="a_Node000026"><a xlink:href="../../db/ddd/auth__checker__factory_8hpp.html" target="_top" xlink:title="Authorization factory registration and base classes.">
<polygon fill="white" stroke="#666666" points="343.14,-112.5 175.14,-112.5 175.14,-82.5 343.14,-82.5 343.14,-112.5"/>
<text text-anchor="start" x="183.14" y="-100.5" font-family="Helvetica,sans-Serif" font-size="10.00">userver/server/handlers</text>
<text text-anchor="middle" x="259.14" y="-89.5" font-family="Helvetica,sans-Serif" font-size="10.00">/auth/auth_checker_factory.hpp</text>
</a>
</g>
</g>
<!-- Node25&#45;&gt;Node26 -->
<g id="edge26_Node000025_Node000026" class="edge">
<title>Node25&#45;&gt;Node26</title>
<g id="a_edge26_Node000025_Node000026"><a xlink:title=" ">
<path fill="none" stroke="#63b8ff" d="M259.14,-143.75C259.14,-133.31 259.14,-121.49 259.14,-112.54"/>
<polygon fill="#63b8ff" stroke="#63b8ff" points="255.64,-143.94 259.14,-153.94 262.64,-143.94 255.64,-143.94"/>
</a>
</g>
</g>
<!-- Node27&#45;&gt;Node23 -->
<g id="edge32_Node000027_Node000023" class="edge">
<title>Node27&#45;&gt;Node23</title>
<g id="a_edge32_Node000027_Node000023"><a xlink:title=" ">
<path fill="none" stroke="#63b8ff" d="M470.14,-143.75C470.14,-133.31 470.14,-121.49 470.14,-112.54"/>
<polygon fill="#63b8ff" stroke="#63b8ff" points="466.64,-143.94 470.14,-153.94 473.64,-143.94 466.64,-143.94"/>
</a>
</g>
</g>
<!-- Node29&#45;&gt;Node6 -->
<g id="edge38_Node000029_Node000006" class="edge">
<title>Node29&#45;&gt;Node6</title>
<g id="a_edge38_Node000029_Node000006"><a xlink:title=" ">
<path fill="none" stroke="#63b8ff" d="M1070.3,-286.57C1071.52,-267.04 1075.78,-239.77 1089.14,-220 1099.66,-204.44 1116.79,-192.48 1132.03,-184.17"/>
<polygon fill="#63b8ff" stroke="#63b8ff" points="1066.79,-286.66 1069.89,-296.79 1073.78,-286.94 1066.79,-286.66"/>
</a>
</g>
</g>
<!-- Node30 -->
<g id="Node000030" class="node">
<title>Node30</title>
<g id="a_Node000030"><a xlink:href="../../df/dd5/handler__base_8hpp.html" target="_top" xlink:title="Base class for the request handlers.">
<polygon fill="white" stroke="#666666" points="1230.14,-255.5 1098.14,-255.5 1098.14,-225.5 1230.14,-225.5 1230.14,-255.5"/>
<text text-anchor="start" x="1106.14" y="-243.5" font-family="Helvetica,sans-Serif" font-size="10.00">userver/server/handlers</text>
<text text-anchor="middle" x="1164.14" y="-232.5" font-family="Helvetica,sans-Serif" font-size="10.00">/handler_base.hpp</text>
</a>
</g>
</g>
<!-- Node29&#45;&gt;Node30 -->
<g id="edge36_Node000029_Node000030" class="edge">
<title>Node29&#45;&gt;Node30</title>
<g id="a_edge36_Node000029_Node000030"><a xlink:title=" ">
<path fill="none" stroke="#63b8ff" d="M1097.27,-290.94C1112.6,-279.6 1131.39,-265.71 1145.15,-255.54"/>
<polygon fill="#63b8ff" stroke="#63b8ff" points="1095.12,-288.18 1089.16,-296.94 1099.29,-293.8 1095.12,-288.18"/>
</a>
</g>
</g>
<!-- Node30&#45;&gt;Node6 -->
<g id="edge37_Node000030_Node000006" class="edge">
<title>Node30&#45;&gt;Node6</title>
<g id="a_edge37_Node000030_Node000006"><a xlink:title=" ">
<path fill="none" stroke="#63b8ff" d="M1164.14,-215.25C1164.14,-204.81 1164.14,-192.99 1164.14,-184.04"/>
<polygon fill="#63b8ff" stroke="#63b8ff" points="1160.64,-215.44 1164.14,-225.44 1167.64,-215.44 1160.64,-215.44"/>
</a>
</g>
</g>
</g>
</svg>
