<?xml version="1.0" encoding="UTF-8" standalone="no"?>
<!DOCTYPE svg PUBLIC "-//W3C//DTD SVG 1.1//EN"
 "http://www.w3.org/Graphics/SVG/1.1/DTD/svg11.dtd">
<!-- Generated by graphviz version 2.43.0 (0)
 -->
<!-- Title: urabbitmq::ClientSettings Pages: 1 -->
<svg width="374pt" height="399pt"
 viewBox="0.00 0.00 374.00 399.00" xmlns="http://www.w3.org/2000/svg" xmlns:xlink="http://www.w3.org/1999/xlink">
<g id="graph0" class="graph" transform="scale(1 1) rotate(0) translate(4 395)">
<title>urabbitmq::ClientSettings</title>
<!-- Node1 -->
<g id="Node000001" class="node">
<title>Node1</title>
<g id="a_Node000001"><a xlink:title=" ">
<polygon fill="#999999" stroke="#666666" points="183.5,-19 42.5,-19 42.5,0 183.5,0 183.5,-19"/>
<text text-anchor="middle" x="113" y="-7" font-family="Helvetica,sans-Serif" font-size="10.00">urabbitmq::ClientSettings</text>
</a>
</g>
</g>
<!-- Node2 -->
<g id="Node000002" class="node">
<title>Node2</title>
<g id="a_Node000002"><a xlink:href="../../d7/d78/structurabbitmq_1_1PoolSettings.html" target="_top" xlink:title=" ">
<polygon fill="white" stroke="#bfbfbf" points="134,-85 0,-85 0,-66 134,-66 134,-85"/>
<text text-anchor="middle" x="67" y="-73" font-family="Helvetica,sans-Serif" font-size="10.00">urabbitmq::PoolSettings</text>
</a>
</g>
</g>
<!-- Node2&#45;&gt;Node1 -->
<g id="edge1_Node000001_Node000002" class="edge">
<title>Node2&#45;&gt;Node1</title>
<g id="a_edge1_Node000001_Node000002"><a xlink:title=" ">
<path fill="none" stroke="#9a32cd" stroke-dasharray="5,2" d="M79.28,-57.41C88.08,-45.18 99.56,-29.2 106.6,-19.41"/>
<polygon fill="#9a32cd" stroke="#9a32cd" points="76.2,-55.71 73.2,-65.87 81.88,-59.79 76.2,-55.71"/>
</a>
</g>
<text text-anchor="middle" x="127.5" y="-40" font-family="Helvetica,sans-Serif" font-size="10.00" fill="grey"> pool_settings</text>
</g>
<!-- Node3 -->
<g id="Node000003" class="node">
<title>Node3</title>
<g id="a_Node000003"><a xlink:href="../../dd/dba/structurabbitmq_1_1RabbitEndpoints.html" target="_top" xlink:title=" ">
<polygon fill="white" stroke="#bfbfbf" points="304,-85 152,-85 152,-66 304,-66 304,-85"/>
<text text-anchor="middle" x="228" y="-73" font-family="Helvetica,sans-Serif" font-size="10.00">urabbitmq::RabbitEndpoints</text>
</a>
</g>
</g>
<!-- Node3&#45;&gt;Node1 -->
<g id="edge2_Node000001_Node000003" class="edge">
<title>Node3&#45;&gt;Node1</title>
<g id="a_edge2_Node000001_Node000003"><a xlink:title=" ">
<path fill="none" stroke="#9a32cd" stroke-dasharray="5,2" d="M205.73,-60.44C194.03,-53.2 179.39,-44.38 166,-37 154.65,-30.74 141.63,-24.22 131.34,-19.22"/>
<polygon fill="#9a32cd" stroke="#9a32cd" points="204.06,-63.52 214.4,-65.84 207.76,-57.58 204.06,-63.52"/>
</a>
</g>
<text text-anchor="middle" x="212" y="-40" font-family="Helvetica,sans-Serif" font-size="10.00" fill="grey"> endpoints</text>
</g>
<!-- Node4 -->
<g id="Node000004" class="node">
<title>Node4</title>
<g id="a_Node000004"><a xlink:href="../../dd/d08/structurabbitmq_1_1AuthSettings.html" target="_top" xlink:title=" ">
<polygon fill="white" stroke="#bfbfbf" points="263.5,-199 128.5,-199 128.5,-180 263.5,-180 263.5,-199"/>
<text text-anchor="middle" x="196" y="-187" font-family="Helvetica,sans-Serif" font-size="10.00">urabbitmq::AuthSettings</text>
</a>
</g>
</g>
<!-- Node4&#45;&gt;Node3 -->
<g id="edge3_Node000003_Node000004" class="edge">
<title>Node4&#45;&gt;Node3</title>
<g id="a_edge3_Node000003_Node000004"><a xlink:title=" ">
<path fill="none" stroke="#9a32cd" stroke-dasharray="5,2" d="M196.44,-169.67C197.08,-158.54 198.58,-144.27 202,-132 206.86,-114.58 216.73,-95.82 222.81,-85.18"/>
<polygon fill="#9a32cd" stroke="#9a32cd" points="192.93,-169.78 196.03,-179.91 199.93,-170.06 192.93,-169.78"/>
</a>
</g>
<text text-anchor="middle" x="214.5" y="-144.5" font-family="Helvetica,sans-Serif" font-size="10.00" fill="grey"> auth</text>
</g>
<!-- Node5 -->
<g id="Node000005" class="node">
<title>Node5</title>
<g id="a_Node000005"><a xlink:title=" ">
<polygon fill="white" stroke="#666666" points="269.5,-324 204.5,-324 204.5,-305 269.5,-305 269.5,-324"/>
<text text-anchor="middle" x="237" y="-312" font-family="Helvetica,sans-Serif" font-size="10.00">std::string</text>
</a>
</g>
</g>
<!-- Node5&#45;&gt;Node4 -->
<g id="edge4_Node000004_Node000005" class="edge">
<title>Node5&#45;&gt;Node4</title>
<g id="a_edge4_Node000004_Node000005"><a xlink:title=" ">
<path fill="none" stroke="#9a32cd" stroke-dasharray="5,2" d="M215.62,-298.26C212.24,-294.92 209.15,-291.13 207,-287 191.73,-257.69 193.39,-216.69 195.01,-199.09"/>
<polygon fill="#9a32cd" stroke="#9a32cd" points="213.37,-300.94 223.24,-304.81 217.94,-295.63 213.37,-300.94"/>
</a>
</g>
<text text-anchor="middle" x="230.5" y="-279" font-family="Helvetica,sans-Serif" font-size="10.00" fill="grey"> login</text>
<text text-anchor="middle" x="230.5" y="-268" font-family="Helvetica,sans-Serif" font-size="10.00" fill="grey">password</text>
<text text-anchor="middle" x="230.5" y="-257" font-family="Helvetica,sans-Serif" font-size="10.00" fill="grey">vhost</text>
</g>
<!-- Node8 -->
<g id="Node000008" class="node">
<title>Node8</title>
<g id="a_Node000008"><a xlink:href="../../d7/d89/structurabbitmq_1_1EndpointInfo.html" target="_top" xlink:title=" ">
<polygon fill="white" stroke="#bfbfbf" points="366,-236 232,-236 232,-217 366,-217 366,-236"/>
<text text-anchor="middle" x="299" y="-224" font-family="Helvetica,sans-Serif" font-size="10.00">urabbitmq::EndpointInfo</text>
</a>
</g>
</g>
<!-- Node5&#45;&gt;Node8 -->
<g id="edge8_Node000008_Node000005" class="edge">
<title>Node5&#45;&gt;Node8</title>
<g id="a_edge8_Node000008_Node000005"><a xlink:title=" ">
<path fill="none" stroke="#9a32cd" stroke-dasharray="5,2" d="M249.3,-296.44C262.44,-278.21 282.75,-250.04 292.85,-236.03"/>
<polygon fill="#9a32cd" stroke="#9a32cd" points="246.18,-294.78 243.17,-304.94 251.86,-298.87 246.18,-294.78"/>
</a>
</g>
<text text-anchor="middle" x="290.5" y="-268" font-family="Helvetica,sans-Serif" font-size="10.00" fill="grey"> host</text>
</g>
<!-- Node6 -->
<g id="Node000006" class="node">
<title>Node6</title>
<g id="a_Node000006"><a xlink:title=" ">
<polygon fill="white" stroke="#666666" points="289,-391 185,-391 185,-361 289,-361 289,-391"/>
<text text-anchor="start" x="193" y="-379" font-family="Helvetica,sans-Serif" font-size="10.00">std::basic_string&lt;</text>
<text text-anchor="middle" x="237" y="-368" font-family="Helvetica,sans-Serif" font-size="10.00"> Char &gt;</text>
</a>
</g>
</g>
<!-- Node6&#45;&gt;Node5 -->
<g id="edge5_Node000005_Node000006" class="edge">
<title>Node6&#45;&gt;Node5</title>
<g id="a_edge5_Node000005_Node000006"><a xlink:title=" ">
<path fill="none" stroke="#63b8ff" d="M237,-350.79C237,-341.36 237,-331.15 237,-324.16"/>
<polygon fill="#63b8ff" stroke="#63b8ff" points="233.5,-350.9 237,-360.9 240.5,-350.9 233.5,-350.9"/>
</a>
</g>
</g>
<!-- Node7 -->
<g id="Node000007" class="node">
<title>Node7</title>
<g id="a_Node000007"><a xlink:title=" ">
<polygon fill="white" stroke="#666666" points="366,-162 236,-162 236,-132 366,-132 366,-162"/>
<text text-anchor="start" x="244" y="-150" font-family="Helvetica,sans-Serif" font-size="10.00">std::vector&lt; urabbitmq</text>
<text text-anchor="middle" x="301" y="-139" font-family="Helvetica,sans-Serif" font-size="10.00">::EndpointInfo &gt;</text>
</a>
</g>
</g>
<!-- Node7&#45;&gt;Node3 -->
<g id="edge6_Node000003_Node000007" class="edge">
<title>Node7&#45;&gt;Node3</title>
<g id="a_edge6_Node000003_Node000007"><a xlink:title=" ">
<path fill="none" stroke="#9a32cd" stroke-dasharray="5,2" d="M278.88,-124.94C264.92,-111.65 247.61,-95.17 237.21,-85.27"/>
<polygon fill="#9a32cd" stroke="#9a32cd" points="276.57,-127.58 286.23,-131.94 281.4,-122.51 276.57,-127.58"/>
</a>
</g>
<text text-anchor="middle" x="293" y="-106" font-family="Helvetica,sans-Serif" font-size="10.00" fill="grey"> endpoints</text>
</g>
<!-- Node8&#45;&gt;Node7 -->
<g id="edge7_Node000007_Node000008" class="edge">
<title>Node8&#45;&gt;Node7</title>
<g id="a_edge7_Node000007_Node000008"><a xlink:title=" ">
<path fill="none" stroke="#9a32cd" stroke-dasharray="5,2" d="M299.49,-206.68C299.84,-192.95 300.31,-174.63 300.64,-162.14"/>
<polygon fill="#9a32cd" stroke="#9a32cd" points="295.98,-206.82 299.22,-216.91 302.98,-207 295.98,-206.82"/>
</a>
</g>
<text text-anchor="middle" x="324.5" y="-187" font-family="Helvetica,sans-Serif" font-size="10.00" fill="grey"> elements</text>
</g>
</g>
</svg>
