<?xml version="1.0" encoding="UTF-8" standalone="no"?>
<!DOCTYPE svg PUBLIC "-//W3C//DTD SVG 1.1//EN"
 "http://www.w3.org/Graphics/SVG/1.1/DTD/svg11.dtd">
<!-- Generated by graphviz version 2.43.0 (0)
 -->
<!-- Title: userver/storages/clickhouse/io/columns/column_includes.hpp Pages: 1 -->
<svg width="2462pt" height="555pt"
 viewBox="0.00 0.00 2462.41 555.00" xmlns="http://www.w3.org/2000/svg" xmlns:xlink="http://www.w3.org/1999/xlink">
<g id="graph0" class="graph" transform="scale(1 1) rotate(0) translate(4 551)">
<title>userver/storages/clickhouse/io/columns/column_includes.hpp</title>
<!-- Node1 -->
<g id="Node000001" class="node">
<title>Node1</title>
<g id="a_Node000001"><a xlink:title=" ">
<polygon fill="#999999" stroke="#666666" points="1342.08,-547 1163.08,-547 1163.08,-517 1342.08,-517 1342.08,-547"/>
<text text-anchor="start" x="1171.08" y="-535" font-family="Helvetica,sans-Serif" font-size="10.00">userver/storages/clickhouse</text>
<text text-anchor="middle" x="1252.58" y="-524" font-family="Helvetica,sans-Serif" font-size="10.00">/io/columns/column_includes.hpp</text>
</a>
</g>
</g>
<!-- Node2 -->
<g id="Node000002" class="node">
<title>Node2</title>
<g id="a_Node000002"><a xlink:href="../../dd/d45/array__column_8hpp.html" target="_top" xlink:title="Array column support.">
<polygon fill="white" stroke="#666666" points="1346.58,-349 1182.58,-349 1182.58,-319 1346.58,-319 1346.58,-349"/>
<text text-anchor="start" x="1190.58" y="-337" font-family="Helvetica,sans-Serif" font-size="10.00">userver/storages/clickhouse</text>
<text text-anchor="middle" x="1264.58" y="-326" font-family="Helvetica,sans-Serif" font-size="10.00">/io/columns/array_column.hpp</text>
</a>
</g>
</g>
<!-- Node1&#45;&gt;Node2 -->
<g id="edge1_Node000001_Node000002" class="edge">
<title>Node1&#45;&gt;Node2</title>
<g id="a_edge1_Node000001_Node000002"><a xlink:title=" ">
<path fill="none" stroke="#63b8ff" d="M1352.67,-530.54C1633.33,-528.75 2409.93,-520.25 2447.58,-481 2456.8,-471.38 2456.53,-460.88 2447.58,-451 2373.72,-369.54 1602.91,-343.32 1346.79,-336.82"/>
<polygon fill="#63b8ff" stroke="#63b8ff" points="1352.47,-527.04 1342.49,-530.6 1352.51,-534.04 1352.47,-527.04"/>
</a>
</g>
</g>
<!-- Node9 -->
<g id="Node000009" class="node">
<title>Node9</title>
<g id="a_Node000009"><a xlink:href="../../d0/dbe/datetime64__column_8hpp.html" target="_top" xlink:title="DateTime64 columns support.">
<polygon fill="white" stroke="#666666" points="216.58,-481 22.58,-481 22.58,-451 216.58,-451 216.58,-481"/>
<text text-anchor="start" x="30.58" y="-469" font-family="Helvetica,sans-Serif" font-size="10.00">userver/storages/clickhouse</text>
<text text-anchor="middle" x="119.58" y="-458" font-family="Helvetica,sans-Serif" font-size="10.00">/io/columns/datetime64_column.hpp</text>
</a>
</g>
</g>
<!-- Node1&#45;&gt;Node9 -->
<g id="edge11_Node000001_Node000009" class="edge">
<title>Node1&#45;&gt;Node9</title>
<g id="a_edge11_Node000001_Node000009"><a xlink:title=" ">
<path fill="none" stroke="#63b8ff" d="M1152.83,-528.93C968.95,-524.49 564.27,-511.85 224.58,-481 222.01,-480.77 219.41,-480.52 216.79,-480.25"/>
<polygon fill="#63b8ff" stroke="#63b8ff" points="1152.94,-532.43 1163.02,-529.17 1153.11,-525.43 1152.94,-532.43"/>
</a>
</g>
</g>
<!-- Node11 -->
<g id="Node000011" class="node">
<title>Node11</title>
<g id="a_Node000011"><a xlink:href="../../d3/d11/nullable__column_8hpp.html" target="_top" xlink:title="Nullable column support.">
<polygon fill="white" stroke="#666666" points="1027.08,-349 850.08,-349 850.08,-319 1027.08,-319 1027.08,-349"/>
<text text-anchor="start" x="858.08" y="-337" font-family="Helvetica,sans-Serif" font-size="10.00">userver/storages/clickhouse</text>
<text text-anchor="middle" x="938.58" y="-326" font-family="Helvetica,sans-Serif" font-size="10.00">/io/columns/nullable_column.hpp</text>
</a>
</g>
</g>
<!-- Node1&#45;&gt;Node11 -->
<g id="edge36_Node000001_Node000011" class="edge">
<title>Node1&#45;&gt;Node11</title>
<g id="a_edge36_Node000001_Node000011"><a xlink:title=" ">
<path fill="none" stroke="#63b8ff" d="M1152.8,-530.69C865.27,-529.33 52.81,-521.85 13.58,-481 -104.96,-357.59 596.85,-338.42 850.07,-335.5"/>
<polygon fill="#63b8ff" stroke="#63b8ff" points="1152.79,-534.19 1162.81,-530.74 1152.83,-527.19 1152.79,-534.19"/>
</a>
</g>
</g>
<!-- Node15 -->
<g id="Node000015" class="node">
<title>Node15</title>
<g id="a_Node000015"><a xlink:href="../../dd/d64/datetime__column_8hpp.html" target="_top" xlink:title="DateTime column support.">
<polygon fill="white" stroke="#666666" points="1148.58,-481 966.58,-481 966.58,-451 1148.58,-451 1148.58,-481"/>
<text text-anchor="start" x="974.58" y="-469" font-family="Helvetica,sans-Serif" font-size="10.00">userver/storages/clickhouse</text>
<text text-anchor="middle" x="1057.58" y="-458" font-family="Helvetica,sans-Serif" font-size="10.00">/io/columns/datetime_column.hpp</text>
</a>
</g>
</g>
<!-- Node1&#45;&gt;Node15 -->
<g id="edge24_Node000001_Node000015" class="edge">
<title>Node1&#45;&gt;Node15</title>
<g id="a_edge24_Node000001_Node000015"><a xlink:title=" ">
<path fill="none" stroke="#63b8ff" d="M1199.94,-513.72C1168.69,-503.47 1129.58,-490.63 1100.27,-481.01"/>
<polygon fill="#63b8ff" stroke="#63b8ff" points="1199.19,-517.16 1209.78,-516.95 1201.37,-510.51 1199.19,-517.16"/>
</a>
</g>
</g>
<!-- Node16 -->
<g id="Node000016" class="node">
<title>Node16</title>
<g id="a_Node000016"><a xlink:href="../../d5/d0f/float32__column_8hpp.html" target="_top" xlink:title="Float32 column support.">
<polygon fill="white" stroke="#666666" points="1338.58,-481 1166.58,-481 1166.58,-451 1338.58,-451 1338.58,-481"/>
<text text-anchor="start" x="1174.58" y="-469" font-family="Helvetica,sans-Serif" font-size="10.00">userver/storages/clickhouse</text>
<text text-anchor="middle" x="1252.58" y="-458" font-family="Helvetica,sans-Serif" font-size="10.00">/io/columns/float32_column.hpp</text>
</a>
</g>
</g>
<!-- Node1&#45;&gt;Node16 -->
<g id="edge26_Node000001_Node000016" class="edge">
<title>Node1&#45;&gt;Node16</title>
<g id="a_edge26_Node000001_Node000016"><a xlink:title=" ">
<path fill="none" stroke="#63b8ff" d="M1252.58,-506.54C1252.58,-497.96 1252.58,-488.61 1252.58,-481.16"/>
<polygon fill="#63b8ff" stroke="#63b8ff" points="1249.08,-506.8 1252.58,-516.8 1256.08,-506.8 1249.08,-506.8"/>
</a>
</g>
</g>
<!-- Node17 -->
<g id="Node000017" class="node">
<title>Node17</title>
<g id="a_Node000017"><a xlink:href="../../d5/d1e/float64__column_8hpp.html" target="_top" xlink:title="Float64 column support.">
<polygon fill="white" stroke="#666666" points="1528.58,-481 1356.58,-481 1356.58,-451 1528.58,-451 1528.58,-481"/>
<text text-anchor="start" x="1364.58" y="-469" font-family="Helvetica,sans-Serif" font-size="10.00">userver/storages/clickhouse</text>
<text text-anchor="middle" x="1442.58" y="-458" font-family="Helvetica,sans-Serif" font-size="10.00">/io/columns/float64_column.hpp</text>
</a>
</g>
</g>
<!-- Node1&#45;&gt;Node17 -->
<g id="edge28_Node000001_Node000017" class="edge">
<title>Node1&#45;&gt;Node17</title>
<g id="a_edge28_Node000001_Node000017"><a xlink:title=" ">
<path fill="none" stroke="#63b8ff" d="M1303.87,-513.72C1334.31,-503.47 1372.41,-490.63 1400.98,-481.01"/>
<polygon fill="#63b8ff" stroke="#63b8ff" points="1302.63,-510.45 1294.27,-516.95 1304.87,-517.08 1302.63,-510.45"/>
</a>
</g>
</g>
<!-- Node18 -->
<g id="Node000018" class="node">
<title>Node18</title>
<g id="a_Node000018"><a xlink:href="../../d6/d6e/int32__column_8hpp.html" target="_top" xlink:title="Int32 column support.">
<polygon fill="white" stroke="#666666" points="1710.08,-481 1547.08,-481 1547.08,-451 1710.08,-451 1710.08,-481"/>
<text text-anchor="start" x="1555.08" y="-469" font-family="Helvetica,sans-Serif" font-size="10.00">userver/storages/clickhouse</text>
<text text-anchor="middle" x="1628.58" y="-458" font-family="Helvetica,sans-Serif" font-size="10.00">/io/columns/int32_column.hpp</text>
</a>
</g>
</g>
<!-- Node1&#45;&gt;Node18 -->
<g id="edge30_Node000001_Node000018" class="edge">
<title>Node1&#45;&gt;Node18</title>
<g id="a_edge30_Node000001_Node000018"><a xlink:title=" ">
<path fill="none" stroke="#63b8ff" d="M1345.23,-515.23C1407.02,-504.71 1487.51,-491.01 1546.9,-480.9"/>
<polygon fill="#63b8ff" stroke="#63b8ff" points="1344.36,-511.83 1335.09,-516.95 1345.54,-518.73 1344.36,-511.83"/>
</a>
</g>
</g>
<!-- Node19 -->
<g id="Node000019" class="node">
<title>Node19</title>
<g id="a_Node000019"><a xlink:href="../../d5/d88/int64__column_8hpp.html" target="_top" xlink:title="Int64 column support.">
<polygon fill="white" stroke="#666666" points="1891.08,-481 1728.08,-481 1728.08,-451 1891.08,-451 1891.08,-481"/>
<text text-anchor="start" x="1736.08" y="-469" font-family="Helvetica,sans-Serif" font-size="10.00">userver/storages/clickhouse</text>
<text text-anchor="middle" x="1809.58" y="-458" font-family="Helvetica,sans-Serif" font-size="10.00">/io/columns/int64_column.hpp</text>
</a>
</g>
</g>
<!-- Node1&#45;&gt;Node19 -->
<g id="edge32_Node000001_Node000019" class="edge">
<title>Node1&#45;&gt;Node19</title>
<g id="a_edge32_Node000001_Node000019"><a xlink:title=" ">
<path fill="none" stroke="#63b8ff" d="M1352.39,-521.7C1447.06,-512.56 1593.21,-497.58 1719.58,-481 1722.24,-480.65 1724.95,-480.29 1727.68,-479.91"/>
<polygon fill="#63b8ff" stroke="#63b8ff" points="1351.87,-518.24 1342.25,-522.68 1352.54,-525.2 1351.87,-518.24"/>
</a>
</g>
</g>
<!-- Node20 -->
<g id="Node000020" class="node">
<title>Node20</title>
<g id="a_Node000020"><a xlink:href="../../de/dff/int8__column_8hpp.html" target="_top" xlink:title="Int8 column support.">
<polygon fill="white" stroke="#666666" points="2066.08,-481 1909.08,-481 1909.08,-451 2066.08,-451 2066.08,-481"/>
<text text-anchor="start" x="1917.08" y="-469" font-family="Helvetica,sans-Serif" font-size="10.00">userver/storages/clickhouse</text>
<text text-anchor="middle" x="1987.58" y="-458" font-family="Helvetica,sans-Serif" font-size="10.00">/io/columns/int8_column.hpp</text>
</a>
</g>
</g>
<!-- Node1&#45;&gt;Node20 -->
<g id="edge34_Node000001_Node000020" class="edge">
<title>Node1&#45;&gt;Node20</title>
<g id="a_edge34_Node000001_Node000020"><a xlink:title=" ">
<path fill="none" stroke="#63b8ff" d="M1352.29,-525.87C1479.75,-518.72 1707.07,-503.99 1900.58,-481 1903.31,-480.68 1906.09,-480.33 1908.9,-479.96"/>
<polygon fill="#63b8ff" stroke="#63b8ff" points="1351.95,-522.38 1342.16,-526.43 1352.34,-529.37 1351.95,-522.38"/>
</a>
</g>
</g>
<!-- Node21 -->
<g id="Node000021" class="node">
<title>Node21</title>
<g id="a_Node000021"><a xlink:href="../../d2/d33/string__column_8hpp.html" target="_top" xlink:title="String column support.">
<polygon fill="white" stroke="#666666" points="2250.58,-481 2084.58,-481 2084.58,-451 2250.58,-451 2250.58,-481"/>
<text text-anchor="start" x="2092.58" y="-469" font-family="Helvetica,sans-Serif" font-size="10.00">userver/storages/clickhouse</text>
<text text-anchor="middle" x="2167.58" y="-458" font-family="Helvetica,sans-Serif" font-size="10.00">/io/columns/string_column.hpp</text>
</a>
</g>
</g>
<!-- Node1&#45;&gt;Node21 -->
<g id="edge37_Node000001_Node000021" class="edge">
<title>Node1&#45;&gt;Node21</title>
<g id="a_edge37_Node000001_Node000021"><a xlink:title=" ">
<path fill="none" stroke="#63b8ff" d="M1352.76,-527.83C1507.96,-522.27 1815.72,-508.61 2075.58,-481 2078.47,-480.69 2081.41,-480.36 2084.37,-480.01"/>
<polygon fill="#63b8ff" stroke="#63b8ff" points="1352.18,-524.35 1342.31,-528.2 1352.42,-531.35 1352.18,-524.35"/>
</a>
</g>
</g>
<!-- Node22 -->
<g id="Node000022" class="node">
<title>Node22</title>
<g id="a_Node000022"><a xlink:href="../../d3/d31/uint16__column_8hpp.html" target="_top" xlink:title="UInt16 column support.">
<polygon fill="white" stroke="#666666" points="2438.08,-481 2269.08,-481 2269.08,-451 2438.08,-451 2438.08,-481"/>
<text text-anchor="start" x="2277.08" y="-469" font-family="Helvetica,sans-Serif" font-size="10.00">userver/storages/clickhouse</text>
<text text-anchor="middle" x="2353.58" y="-458" font-family="Helvetica,sans-Serif" font-size="10.00">/io/columns/uint16_column.hpp</text>
</a>
</g>
</g>
<!-- Node1&#45;&gt;Node22 -->
<g id="edge39_Node000001_Node000022" class="edge">
<title>Node1&#45;&gt;Node22</title>
<g id="a_edge39_Node000001_Node000022"><a xlink:title=" ">
<path fill="none" stroke="#63b8ff" d="M1352.42,-529.29C1533.58,-525.46 1928.35,-513.81 2259.58,-481 2262.7,-480.69 2265.87,-480.35 2269.07,-479.99"/>
<polygon fill="#63b8ff" stroke="#63b8ff" points="1352.3,-525.79 1342.38,-529.5 1352.45,-532.79 1352.3,-525.79"/>
</a>
</g>
</g>
<!-- Node23 -->
<g id="Node000023" class="node">
<title>Node23</title>
<g id="a_Node000023"><a xlink:href="../../d8/d18/uint32__column_8hpp.html" target="_top" xlink:title="UInt32 column support.">
<polygon fill="white" stroke="#666666" points="403.08,-481 234.08,-481 234.08,-451 403.08,-451 403.08,-481"/>
<text text-anchor="start" x="242.08" y="-469" font-family="Helvetica,sans-Serif" font-size="10.00">userver/storages/clickhouse</text>
<text text-anchor="middle" x="318.58" y="-458" font-family="Helvetica,sans-Serif" font-size="10.00">/io/columns/uint32_column.hpp</text>
</a>
</g>
</g>
<!-- Node1&#45;&gt;Node23 -->
<g id="edge41_Node000001_Node000023" class="edge">
<title>Node1&#45;&gt;Node23</title>
<g id="a_edge41_Node000001_Node000023"><a xlink:title=" ">
<path fill="none" stroke="#63b8ff" d="M1152.9,-527.98C995.2,-522.55 678.65,-508.98 411.58,-481 408.81,-480.71 406.01,-480.4 403.18,-480.07"/>
<polygon fill="#63b8ff" stroke="#63b8ff" points="1152.94,-531.48 1163.05,-528.33 1153.18,-524.49 1152.94,-531.48"/>
</a>
</g>
</g>
<!-- Node24 -->
<g id="Node000024" class="node">
<title>Node24</title>
<g id="a_Node000024"><a xlink:href="../../d8/d6c/uint64__column_8hpp.html" target="_top" xlink:title="UInt64 column support.">
<polygon fill="white" stroke="#666666" points="590.08,-481 421.08,-481 421.08,-451 590.08,-451 590.08,-481"/>
<text text-anchor="start" x="429.08" y="-469" font-family="Helvetica,sans-Serif" font-size="10.00">userver/storages/clickhouse</text>
<text text-anchor="middle" x="505.58" y="-458" font-family="Helvetica,sans-Serif" font-size="10.00">/io/columns/uint64_column.hpp</text>
</a>
</g>
</g>
<!-- Node1&#45;&gt;Node24 -->
<g id="edge43_Node000001_Node000024" class="edge">
<title>Node1&#45;&gt;Node24</title>
<g id="a_edge43_Node000001_Node000024"><a xlink:title=" ">
<path fill="none" stroke="#63b8ff" d="M1152.78,-525.65C1024.34,-518.23 794.39,-503.19 598.58,-481 595.82,-480.69 593.02,-480.35 590.19,-480.01"/>
<polygon fill="#63b8ff" stroke="#63b8ff" points="1152.81,-529.15 1162.99,-526.23 1153.21,-522.16 1152.81,-529.15"/>
</a>
</g>
</g>
<!-- Node25 -->
<g id="Node000025" class="node">
<title>Node25</title>
<g id="a_Node000025"><a xlink:href="../../d3/d2d/uint8__column_8hpp.html" target="_top" xlink:title="UInt8 column support.">
<polygon fill="white" stroke="#666666" points="771.08,-481 608.08,-481 608.08,-451 771.08,-451 771.08,-481"/>
<text text-anchor="start" x="616.08" y="-469" font-family="Helvetica,sans-Serif" font-size="10.00">userver/storages/clickhouse</text>
<text text-anchor="middle" x="689.58" y="-458" font-family="Helvetica,sans-Serif" font-size="10.00">/io/columns/uint8_column.hpp</text>
</a>
</g>
</g>
<!-- Node1&#45;&gt;Node25 -->
<g id="edge45_Node000001_Node000025" class="edge">
<title>Node1&#45;&gt;Node25</title>
<g id="a_edge45_Node000001_Node000025"><a xlink:title=" ">
<path fill="none" stroke="#63b8ff" d="M1152.58,-521.79C1056.93,-512.65 908.7,-497.63 780.58,-481 777.56,-480.61 774.5,-480.2 771.4,-479.77"/>
<polygon fill="#63b8ff" stroke="#63b8ff" points="1152.53,-525.3 1162.82,-522.76 1153.2,-518.33 1152.53,-525.3"/>
</a>
</g>
</g>
<!-- Node26 -->
<g id="Node000026" class="node">
<title>Node26</title>
<g id="a_Node000026"><a xlink:href="../../d6/dca/uuid__column_8hpp.html" target="_top" xlink:title="UUID column support.">
<polygon fill="white" stroke="#666666" points="948.08,-481 789.08,-481 789.08,-451 948.08,-451 948.08,-481"/>
<text text-anchor="start" x="797.08" y="-469" font-family="Helvetica,sans-Serif" font-size="10.00">userver/storages/clickhouse</text>
<text text-anchor="middle" x="868.58" y="-458" font-family="Helvetica,sans-Serif" font-size="10.00">/io/columns/uuid_column.hpp</text>
</a>
</g>
</g>
<!-- Node1&#45;&gt;Node26 -->
<g id="edge47_Node000001_Node000026" class="edge">
<title>Node1&#45;&gt;Node26</title>
<g id="a_edge47_Node000001_Node000026"><a xlink:title=" ">
<path fill="none" stroke="#63b8ff" d="M1158.15,-515.26C1093.76,-504.53 1009.42,-490.47 948.38,-480.3"/>
<polygon fill="#63b8ff" stroke="#63b8ff" points="1157.87,-518.76 1168.31,-516.95 1159.02,-511.86 1157.87,-518.76"/>
</a>
</g>
</g>
<!-- Node3 -->
<g id="Node000003" class="node">
<title>Node3</title>
<g id="a_Node000003"><a xlink:href="../../dd/d84/insertion__request_8hpp_source.html" target="_top" xlink:title=" ">
<polygon fill="white" stroke="#666666" points="1098.08,-217 945.08,-217 945.08,-187 1098.08,-187 1098.08,-217"/>
<text text-anchor="start" x="953.08" y="-205" font-family="Helvetica,sans-Serif" font-size="10.00">userver/storages/clickhouse</text>
<text text-anchor="middle" x="1021.58" y="-194" font-family="Helvetica,sans-Serif" font-size="10.00">/impl/insertion_request.hpp</text>
</a>
</g>
</g>
<!-- Node2&#45;&gt;Node3 -->
<g id="edge2_Node000002_Node000003" class="edge">
<title>Node2&#45;&gt;Node3</title>
<g id="a_edge2_Node000002_Node000003"><a xlink:title=" ">
<path fill="none" stroke="#63b8ff" d="M1265.24,-308.48C1264.35,-290.7 1260.13,-267.36 1245.58,-253 1234.87,-242.44 1158.86,-226.94 1098.31,-216"/>
<polygon fill="#63b8ff" stroke="#63b8ff" points="1261.74,-308.76 1265.42,-318.69 1268.74,-308.63 1261.74,-308.76"/>
</a>
</g>
</g>
<!-- Node6 -->
<g id="Node000006" class="node">
<title>Node6</title>
<g id="a_Node000006"><a xlink:href="../../d4/d7c/clickhouse_2include_2userver_2storages_2clickhouse_2io_2impl_2validate_8hpp_source.html" target="_top" xlink:title=" ">
<polygon fill="white" stroke="#666666" points="1236.08,-283 1083.08,-283 1083.08,-253 1236.08,-253 1236.08,-283"/>
<text text-anchor="start" x="1091.08" y="-271" font-family="Helvetica,sans-Serif" font-size="10.00">userver/storages/clickhouse</text>
<text text-anchor="middle" x="1159.58" y="-260" font-family="Helvetica,sans-Serif" font-size="10.00">/io/impl/validate.hpp</text>
</a>
</g>
</g>
<!-- Node2&#45;&gt;Node6 -->
<g id="edge5_Node000002_Node000006" class="edge">
<title>Node2&#45;&gt;Node6</title>
<g id="a_edge5_Node000002_Node000006"><a xlink:title=" ">
<path fill="none" stroke="#63b8ff" d="M1232.9,-313.69C1216.69,-303.82 1197.32,-292.01 1182.56,-283.01"/>
<polygon fill="#63b8ff" stroke="#63b8ff" points="1231.17,-316.74 1241.53,-318.95 1234.82,-310.76 1231.17,-316.74"/>
</a>
</g>
</g>
<!-- Node4 -->
<g id="Node000004" class="node">
<title>Node4</title>
<g id="a_Node000004"><a xlink:href="../../da/de8/clickhouse_2include_2userver_2storages_2clickhouse_2cluster_8hpp.html" target="_top" xlink:title="Interface for executing queries on a cluster of ClickHouse servers.">
<polygon fill="white" stroke="#666666" points="1079.08,-85 926.08,-85 926.08,-55 1079.08,-55 1079.08,-85"/>
<text text-anchor="start" x="934.08" y="-73" font-family="Helvetica,sans-Serif" font-size="10.00">userver/storages/clickhouse</text>
<text text-anchor="middle" x="1002.58" y="-62" font-family="Helvetica,sans-Serif" font-size="10.00">/cluster.hpp</text>
</a>
</g>
</g>
<!-- Node3&#45;&gt;Node4 -->
<g id="edge3_Node000003_Node000004" class="edge">
<title>Node3&#45;&gt;Node4</title>
<g id="a_edge3_Node000003_Node000004"><a xlink:title=" ">
<path fill="none" stroke="#63b8ff" d="M1018.02,-176.68C1014.08,-149.7 1007.85,-107.11 1004.64,-85.14"/>
<polygon fill="#63b8ff" stroke="#63b8ff" points="1014.6,-177.45 1019.51,-186.84 1021.52,-176.44 1014.6,-177.45"/>
</a>
</g>
</g>
<!-- Node5 -->
<g id="Node000005" class="node">
<title>Node5</title>
<g id="a_Node000005"><a xlink:href="../../d7/d29/clickhouse_8hpp.html" target="_top" xlink:title=" ">
<polygon fill="white" stroke="#666666" points="1089.58,-19 915.58,-19 915.58,0 1089.58,0 1089.58,-19"/>
<text text-anchor="middle" x="1002.58" y="-7" font-family="Helvetica,sans-Serif" font-size="10.00">userver/storages/clickhouse.hpp</text>
</a>
</g>
</g>
<!-- Node4&#45;&gt;Node5 -->
<g id="edge4_Node000004_Node000005" class="edge">
<title>Node4&#45;&gt;Node5</title>
<g id="a_edge4_Node000004_Node000005"><a xlink:title=" ">
<path fill="none" stroke="#63b8ff" d="M1002.58,-44.75C1002.58,-35.72 1002.58,-26.03 1002.58,-19.27"/>
<polygon fill="#63b8ff" stroke="#63b8ff" points="999.08,-44.84 1002.58,-54.84 1006.08,-44.84 999.08,-44.84"/>
</a>
</g>
</g>
<!-- Node6&#45;&gt;Node3 -->
<g id="edge10_Node000006_Node000003" class="edge">
<title>Node6&#45;&gt;Node3</title>
<g id="a_edge10_Node000006_Node000003"><a xlink:title=" ">
<path fill="none" stroke="#63b8ff" d="M1120.01,-248.65C1098.3,-238.58 1071.82,-226.3 1051.79,-217.01"/>
<polygon fill="#63b8ff" stroke="#63b8ff" points="1118.75,-251.92 1129.29,-252.95 1121.69,-245.57 1118.75,-251.92"/>
</a>
</g>
</g>
<!-- Node7 -->
<g id="Node000007" class="node">
<title>Node7</title>
<g id="a_Node000007"><a xlink:href="../../db/d1b/clickhouse_2include_2userver_2storages_2clickhouse_2execution__result_8hpp.html" target="_top" xlink:title="Result accessor.">
<polygon fill="white" stroke="#666666" points="1269.08,-217 1116.08,-217 1116.08,-187 1269.08,-187 1269.08,-217"/>
<text text-anchor="start" x="1124.08" y="-205" font-family="Helvetica,sans-Serif" font-size="10.00">userver/storages/clickhouse</text>
<text text-anchor="middle" x="1192.58" y="-194" font-family="Helvetica,sans-Serif" font-size="10.00">/execution_result.hpp</text>
</a>
</g>
</g>
<!-- Node6&#45;&gt;Node7 -->
<g id="edge6_Node000006_Node000007" class="edge">
<title>Node6&#45;&gt;Node7</title>
<g id="a_edge6_Node000006_Node000007"><a xlink:title=" ">
<path fill="none" stroke="#63b8ff" d="M1171.6,-243.68C1176.18,-234.79 1181.26,-224.95 1185.27,-217.16"/>
<polygon fill="#63b8ff" stroke="#63b8ff" points="1168.37,-242.3 1166.9,-252.8 1174.59,-245.51 1168.37,-242.3"/>
</a>
</g>
</g>
<!-- Node7&#45;&gt;Node5 -->
<g id="edge7_Node000007_Node000005" class="edge">
<title>Node7&#45;&gt;Node5</title>
<g id="a_edge7_Node000007_Node000005"><a xlink:title=" ">
<path fill="none" stroke="#63b8ff" d="M1198.83,-176.9C1201.81,-160.18 1202.94,-137.95 1193.58,-121 1161.15,-62.32 1083.8,-32.23 1038.1,-19.06"/>
<polygon fill="#63b8ff" stroke="#63b8ff" points="1195.35,-176.47 1196.7,-186.98 1202.2,-177.92 1195.35,-176.47"/>
</a>
</g>
</g>
<!-- Node8 -->
<g id="Node000008" class="node">
<title>Node8</title>
<g id="a_Node000008"><a xlink:href="../../d3/de4/clickhouse_2include_2userver_2storages_2clickhouse_2impl_2pool_8hpp_source.html" target="_top" xlink:title=" ">
<polygon fill="white" stroke="#666666" points="1184.08,-151 1031.08,-151 1031.08,-121 1184.08,-121 1184.08,-151"/>
<text text-anchor="start" x="1039.08" y="-139" font-family="Helvetica,sans-Serif" font-size="10.00">userver/storages/clickhouse</text>
<text text-anchor="middle" x="1107.58" y="-128" font-family="Helvetica,sans-Serif" font-size="10.00">/impl/pool.hpp</text>
</a>
</g>
</g>
<!-- Node7&#45;&gt;Node8 -->
<g id="edge8_Node000007_Node000008" class="edge">
<title>Node7&#45;&gt;Node8</title>
<g id="a_edge8_Node000007_Node000008"><a xlink:title=" ">
<path fill="none" stroke="#63b8ff" d="M1165.69,-180.75C1152.9,-171.13 1137.93,-159.86 1126.39,-151.16"/>
<polygon fill="#63b8ff" stroke="#63b8ff" points="1163.62,-183.58 1173.71,-186.8 1167.83,-177.99 1163.62,-183.58"/>
</a>
</g>
</g>
<!-- Node8&#45;&gt;Node4 -->
<g id="edge9_Node000008_Node000004" class="edge">
<title>Node8&#45;&gt;Node4</title>
<g id="a_edge9_Node000008_Node000004"><a xlink:title=" ">
<path fill="none" stroke="#63b8ff" d="M1075.9,-115.69C1059.69,-105.82 1040.32,-94.01 1025.56,-85.01"/>
<polygon fill="#63b8ff" stroke="#63b8ff" points="1074.17,-118.74 1084.53,-120.95 1077.82,-112.76 1074.17,-118.74"/>
</a>
</g>
</g>
<!-- Node10 -->
<g id="Node000010" class="node">
<title>Node10</title>
<g id="a_Node000010"><a xlink:href="../../d3/d25/common__columns_8hpp.html" target="_top" xlink:title=" ">
<polygon fill="white" stroke="#666666" points="1247.58,-415 1061.58,-415 1061.58,-385 1247.58,-385 1247.58,-415"/>
<text text-anchor="start" x="1069.58" y="-403" font-family="Helvetica,sans-Serif" font-size="10.00">userver/storages/clickhouse</text>
<text text-anchor="middle" x="1154.58" y="-392" font-family="Helvetica,sans-Serif" font-size="10.00">/io/columns/common_columns.hpp</text>
</a>
</g>
</g>
<!-- Node9&#45;&gt;Node10 -->
<g id="edge12_Node000009_Node000010" class="edge">
<title>Node9&#45;&gt;Node10</title>
<g id="a_edge12_Node000009_Node000010"><a xlink:title=" ">
<path fill="none" stroke="#63b8ff" d="M226.91,-450.82C537.84,-422.17 895.42,-408.71 1061.34,-403.58"/>
<polygon fill="#63b8ff" stroke="#63b8ff" points="226.43,-447.35 216.8,-451.76 227.08,-454.32 226.43,-447.35"/>
</a>
</g>
</g>
<!-- Node12 -->
<g id="Node000012" class="node">
<title>Node12</title>
<g id="a_Node000012"><a xlink:href="../../de/dab/clickhouse_2include_2userver_2storages_2clickhouse_2io_2typedefs_8hpp.html" target="_top" xlink:title=" ">
<polygon fill="white" stroke="#666666" points="347.08,-415 194.08,-415 194.08,-385 347.08,-385 347.08,-415"/>
<text text-anchor="start" x="202.08" y="-403" font-family="Helvetica,sans-Serif" font-size="10.00">userver/storages/clickhouse</text>
<text text-anchor="middle" x="270.58" y="-392" font-family="Helvetica,sans-Serif" font-size="10.00">/io/typedefs.hpp</text>
</a>
</g>
</g>
<!-- Node9&#45;&gt;Node12 -->
<g id="edge19_Node000009_Node000012" class="edge">
<title>Node9&#45;&gt;Node12</title>
<g id="a_edge19_Node000009_Node000012"><a xlink:title=" ">
<path fill="none" stroke="#63b8ff" d="M162.24,-446.92C186.1,-436.8 215.4,-424.38 237.52,-415.01"/>
<polygon fill="#63b8ff" stroke="#63b8ff" points="160.55,-443.83 152.71,-450.95 163.29,-450.28 160.55,-443.83"/>
</a>
</g>
</g>
<!-- Node10&#45;&gt;Node2 -->
<g id="edge14_Node000010_Node000002" class="edge">
<title>Node10&#45;&gt;Node2</title>
<g id="a_edge14_Node000010_Node000002"><a xlink:title=" ">
<path fill="none" stroke="#63b8ff" d="M1187.76,-379.69C1204.74,-369.82 1225.03,-358.01 1240.49,-349.01"/>
<polygon fill="#63b8ff" stroke="#63b8ff" points="1185.6,-376.9 1178.72,-384.95 1189.12,-382.95 1185.6,-376.9"/>
</a>
</g>
</g>
<!-- Node10&#45;&gt;Node3 -->
<g id="edge13_Node000010_Node000003" class="edge">
<title>Node10&#45;&gt;Node3</title>
<g id="a_edge13_Node000010_Node000003"><a xlink:title=" ">
<path fill="none" stroke="#63b8ff" d="M1138.72,-376.27C1122.48,-352.95 1096.59,-315.56 1074.58,-283 1059.09,-260.09 1041.4,-233.25 1030.88,-217.22"/>
<polygon fill="#63b8ff" stroke="#63b8ff" points="1136.05,-378.57 1144.64,-384.77 1141.79,-374.57 1136.05,-378.57"/>
</a>
</g>
</g>
<!-- Node10&#45;&gt;Node6 -->
<g id="edge18_Node000010_Node000006" class="edge">
<title>Node10&#45;&gt;Node6</title>
<g id="a_edge18_Node000010_Node000006"><a xlink:title=" ">
<path fill="none" stroke="#63b8ff" d="M1155.51,-374.68C1156.55,-347.7 1158.19,-305.11 1159.03,-283.14"/>
<polygon fill="#63b8ff" stroke="#63b8ff" points="1152.01,-374.71 1155.12,-384.84 1159,-374.98 1152.01,-374.71"/>
</a>
</g>
</g>
<!-- Node10&#45;&gt;Node11 -->
<g id="edge15_Node000010_Node000011" class="edge">
<title>Node10&#45;&gt;Node11</title>
<g id="a_edge15_Node000010_Node000011"><a xlink:title=" ">
<path fill="none" stroke="#63b8ff" d="M1097.16,-381.99C1062.41,-371.69 1018.62,-358.72 985.87,-349.01"/>
<polygon fill="#63b8ff" stroke="#63b8ff" points="1096.59,-385.47 1107.17,-384.95 1098.58,-378.76 1096.59,-385.47"/>
</a>
</g>
</g>
<!-- Node11&#45;&gt;Node3 -->
<g id="edge16_Node000011_Node000003" class="edge">
<title>Node11&#45;&gt;Node3</title>
<g id="a_edge16_Node000011_Node000003"><a xlink:title=" ">
<path fill="none" stroke="#63b8ff" d="M953.2,-310.1C970.35,-283.23 998.27,-239.5 1012.55,-217.14"/>
<polygon fill="#63b8ff" stroke="#63b8ff" points="950.05,-308.53 947.62,-318.84 955.95,-312.3 950.05,-308.53"/>
</a>
</g>
</g>
<!-- Node11&#45;&gt;Node6 -->
<g id="edge17_Node000011_Node000006" class="edge">
<title>Node11&#45;&gt;Node6</title>
<g id="a_edge17_Node000011_Node000006"><a xlink:title=" ">
<path fill="none" stroke="#63b8ff" d="M996.86,-316.12C1032.49,-305.8 1077.53,-292.76 1111.19,-283.01"/>
<polygon fill="#63b8ff" stroke="#63b8ff" points="995.71,-312.81 987.07,-318.95 997.65,-319.54 995.71,-312.81"/>
</a>
</g>
</g>
<!-- Node13 -->
<g id="Node000013" class="node">
<title>Node13</title>
<g id="a_Node000013"><a xlink:href="../../d3/d92/escape_8hpp_source.html" target="_top" xlink:title=" ">
<polygon fill="white" stroke="#666666" points="792.08,-283 639.08,-283 639.08,-253 792.08,-253 792.08,-283"/>
<text text-anchor="start" x="647.08" y="-271" font-family="Helvetica,sans-Serif" font-size="10.00">userver/storages/clickhouse</text>
<text text-anchor="middle" x="715.58" y="-260" font-family="Helvetica,sans-Serif" font-size="10.00">/io/impl/escape.hpp</text>
</a>
</g>
</g>
<!-- Node12&#45;&gt;Node13 -->
<g id="edge20_Node000012_Node000013" class="edge">
<title>Node12&#45;&gt;Node13</title>
<g id="a_edge20_Node000012_Node000013"><a xlink:title=" ">
<path fill="none" stroke="#63b8ff" d="M328.24,-382.15C416.85,-356.27 584.88,-307.18 667.39,-283.08"/>
<polygon fill="#63b8ff" stroke="#63b8ff" points="327.24,-378.8 318.62,-384.96 329.2,-385.52 327.24,-378.8"/>
</a>
</g>
</g>
<!-- Node14 -->
<g id="Node000014" class="node">
<title>Node14</title>
<g id="a_Node000014"><a xlink:href="../../d7/de9/clickhouse_2include_2userver_2storages_2clickhouse_2query_8hpp.html" target="_top" xlink:title="Holds a query and its name. In case query is expected to be executed with parameters,...">
<polygon fill="white" stroke="#666666" points="974.08,-151 821.08,-151 821.08,-121 974.08,-121 974.08,-151"/>
<text text-anchor="start" x="829.08" y="-139" font-family="Helvetica,sans-Serif" font-size="10.00">userver/storages/clickhouse</text>
<text text-anchor="middle" x="897.58" y="-128" font-family="Helvetica,sans-Serif" font-size="10.00">/query.hpp</text>
</a>
</g>
</g>
<!-- Node13&#45;&gt;Node14 -->
<g id="edge21_Node000013_Node000014" class="edge">
<title>Node13&#45;&gt;Node14</title>
<g id="a_edge21_Node000013_Node000014"><a xlink:title=" ">
<path fill="none" stroke="#63b8ff" d="M743.78,-246.85C780.95,-220.31 845.38,-174.28 877.78,-151.14"/>
<polygon fill="#63b8ff" stroke="#63b8ff" points="741.5,-244.18 735.4,-252.84 745.57,-249.88 741.5,-244.18"/>
</a>
</g>
</g>
<!-- Node14&#45;&gt;Node4 -->
<g id="edge23_Node000014_Node000004" class="edge">
<title>Node14&#45;&gt;Node4</title>
<g id="a_edge23_Node000014_Node000004"><a xlink:title=" ">
<path fill="none" stroke="#63b8ff" d="M929.25,-115.69C945.46,-105.82 964.83,-94.01 979.59,-85.01"/>
<polygon fill="#63b8ff" stroke="#63b8ff" points="927.34,-112.76 920.62,-120.95 930.98,-118.74 927.34,-112.76"/>
</a>
</g>
</g>
<!-- Node14&#45;&gt;Node5 -->
<g id="edge22_Node000014_Node000005" class="edge">
<title>Node14&#45;&gt;Node5</title>
<g id="a_edge22_Node000014_Node000005"><a xlink:title=" ">
<path fill="none" stroke="#63b8ff" d="M898.53,-110.41C900.34,-93.29 905.16,-70.78 917.58,-55 931.48,-37.33 954.36,-25.92 972.88,-19.08"/>
<polygon fill="#63b8ff" stroke="#63b8ff" points="895.01,-110.52 897.72,-120.76 901.99,-111.06 895.01,-110.52"/>
</a>
</g>
</g>
<!-- Node15&#45;&gt;Node10 -->
<g id="edge25_Node000015_Node000010" class="edge">
<title>Node15&#45;&gt;Node10</title>
<g id="a_edge25_Node000015_Node000010"><a xlink:title=" ">
<path fill="none" stroke="#63b8ff" d="M1087.85,-445.03C1102.52,-435.34 1119.81,-423.94 1133.11,-415.16"/>
<polygon fill="#63b8ff" stroke="#63b8ff" points="1085.52,-442.37 1079.1,-450.8 1089.38,-448.21 1085.52,-442.37"/>
</a>
</g>
</g>
<!-- Node16&#45;&gt;Node10 -->
<g id="edge27_Node000016_Node000010" class="edge">
<title>Node16&#45;&gt;Node10</title>
<g id="a_edge27_Node000016_Node000010"><a xlink:title=" ">
<path fill="none" stroke="#63b8ff" d="M1222.41,-445.3C1207.49,-435.56 1189.83,-424.02 1176.26,-415.16"/>
<polygon fill="#63b8ff" stroke="#63b8ff" points="1220.54,-448.26 1230.83,-450.8 1224.37,-442.4 1220.54,-448.26"/>
</a>
</g>
</g>
<!-- Node17&#45;&gt;Node10 -->
<g id="edge29_Node000017_Node000010" class="edge">
<title>Node17&#45;&gt;Node10</title>
<g id="a_edge29_Node000017_Node000010"><a xlink:title=" ">
<path fill="none" stroke="#63b8ff" d="M1369.58,-448.78C1322.7,-438.36 1262.43,-424.97 1217.63,-415.01"/>
<polygon fill="#63b8ff" stroke="#63b8ff" points="1368.85,-452.2 1379.37,-450.95 1370.37,-445.37 1368.85,-452.2"/>
</a>
</g>
</g>
<!-- Node18&#45;&gt;Node10 -->
<g id="edge31_Node000018_Node000010" class="edge">
<title>Node18&#45;&gt;Node10</title>
<g id="a_edge31_Node000018_Node000010"><a xlink:title=" ">
<path fill="none" stroke="#63b8ff" d="M1536.6,-450.88C1431.77,-436.05 1323.09,-422.05 1247.92,-412.58"/>
<polygon fill="#63b8ff" stroke="#63b8ff" points="1536.34,-454.38 1546.74,-452.32 1537.33,-447.45 1536.34,-454.38"/>
</a>
</g>
</g>
<!-- Node19&#45;&gt;Node10 -->
<g id="edge33_Node000019_Node000010" class="edge">
<title>Node19&#45;&gt;Node10</title>
<g id="a_edge33_Node000019_Node000010"><a xlink:title=" ">
<path fill="none" stroke="#63b8ff" d="M1717.74,-450.82C1546.53,-430.22 1357.78,-415.28 1247.75,-407.35"/>
<polygon fill="#63b8ff" stroke="#63b8ff" points="1717.34,-454.3 1727.69,-452.03 1718.18,-447.35 1717.34,-454.3"/>
</a>
</g>
</g>
<!-- Node20&#45;&gt;Node10 -->
<g id="edge35_Node000020_Node000010" class="edge">
<title>Node20&#45;&gt;Node10</title>
<g id="a_edge35_Node000020_Node000010"><a xlink:title=" ">
<path fill="none" stroke="#63b8ff" d="M1898.94,-450.88C1658.94,-424 1387.41,-410.29 1247.87,-404.48"/>
<polygon fill="#63b8ff" stroke="#63b8ff" points="1898.57,-454.36 1908.9,-452 1899.36,-447.4 1898.57,-454.36"/>
</a>
</g>
</g>
<!-- Node21&#45;&gt;Node10 -->
<g id="edge38_Node000021_Node000010" class="edge">
<title>Node21&#45;&gt;Node10</title>
<g id="a_edge38_Node000021_Node000010"><a xlink:title=" ">
<path fill="none" stroke="#63b8ff" d="M2074.35,-450.94C1766.02,-419.65 1412.31,-407.41 1247.62,-403.08"/>
<polygon fill="#63b8ff" stroke="#63b8ff" points="2074.07,-454.43 2084.38,-451.97 2074.79,-447.47 2074.07,-454.43"/>
</a>
</g>
</g>
<!-- Node22&#45;&gt;Node10 -->
<g id="edge40_Node000022_Node000010" class="edge">
<title>Node22&#45;&gt;Node10</title>
<g id="a_edge40_Node000022_Node000010"><a xlink:title=" ">
<path fill="none" stroke="#63b8ff" d="M2258.96,-451.02C1878.05,-414.64 1436.85,-404.71 1247.94,-401.99"/>
<polygon fill="#63b8ff" stroke="#63b8ff" points="2258.79,-454.52 2269.08,-452 2259.46,-447.55 2258.79,-454.52"/>
</a>
</g>
</g>
<!-- Node23&#45;&gt;Node10 -->
<g id="edge42_Node000023_Node000010" class="edge">
<title>Node23&#45;&gt;Node10</title>
<g id="a_edge42_Node000023_Node000010"><a xlink:title=" ">
<path fill="none" stroke="#63b8ff" d="M413.46,-450.85C652.47,-425.24 922.44,-411.03 1061.4,-404.81"/>
<polygon fill="#63b8ff" stroke="#63b8ff" points="412.75,-447.41 403.18,-451.96 413.5,-454.37 412.75,-447.41"/>
</a>
</g>
</g>
<!-- Node24&#45;&gt;Node10 -->
<g id="edge44_Node000024_Node000010" class="edge">
<title>Node24&#45;&gt;Node10</title>
<g id="a_edge44_Node000024_Node000010"><a xlink:title=" ">
<path fill="none" stroke="#63b8ff" d="M600.22,-450.84C768.34,-430.89 953.01,-415.82 1061.43,-407.67"/>
<polygon fill="#63b8ff" stroke="#63b8ff" points="599.71,-447.38 590.19,-452.04 600.54,-454.33 599.71,-447.38"/>
</a>
</g>
</g>
<!-- Node25&#45;&gt;Node10 -->
<g id="edge46_Node000025_Node000010" class="edge">
<title>Node25&#45;&gt;Node10</title>
<g id="a_edge46_Node000025_Node000010"><a xlink:title=" ">
<path fill="none" stroke="#63b8ff" d="M781.56,-450.88C883.25,-436.32 988.24,-422.43 1061.52,-412.92"/>
<polygon fill="#63b8ff" stroke="#63b8ff" points="780.82,-447.45 771.42,-452.33 781.81,-454.37 780.82,-447.45"/>
</a>
</g>
</g>
<!-- Node26&#45;&gt;Node10 -->
<g id="edge48_Node000026_Node000010" class="edge">
<title>Node26&#45;&gt;Node10</title>
<g id="a_edge48_Node000026_Node000010"><a xlink:title=" ">
<path fill="none" stroke="#63b8ff" d="M941.35,-448.71C987.87,-438.31 1047.57,-424.95 1091.96,-415.01"/>
<polygon fill="#63b8ff" stroke="#63b8ff" points="940.33,-445.36 931.34,-450.95 941.86,-452.19 940.33,-445.36"/>
</a>
</g>
</g>
</g>
</svg>
