<?xml version="1.0" encoding="UTF-8" standalone="no"?>
<!DOCTYPE svg PUBLIC "-//W3C//DTD SVG 1.1//EN"
 "http://www.w3.org/Graphics/SVG/1.1/DTD/svg11.dtd">
<!-- Generated by graphviz version 2.43.0 (0)
 -->
<!-- Title: userver/storages/postgres/io/buffer_io.hpp Pages: 1 -->
<svg width="2242pt" height="632pt"
 viewBox="0.00 0.00 2242.00 632.00" xmlns="http://www.w3.org/2000/svg" xmlns:xlink="http://www.w3.org/1999/xlink">
<g id="graph0" class="graph" transform="scale(1 1) rotate(0) translate(4 628)">
<title>userver/storages/postgres/io/buffer_io.hpp</title>
<!-- Node1 -->
<g id="Node000001" class="node">
<title>Node1</title>
<g id="a_Node000001"><a xlink:title="I/O buffer helpers.">
<polygon fill="#999999" stroke="#666666" points="1279,-624 1136,-624 1136,-594 1279,-594 1279,-624"/>
<text text-anchor="start" x="1144" y="-612" font-family="Helvetica,sans-Serif" font-size="10.00">userver/storages/postgres</text>
<text text-anchor="middle" x="1207.5" y="-601" font-family="Helvetica,sans-Serif" font-size="10.00">/io/buffer_io.hpp</text>
</a>
</g>
</g>
<!-- Node2 -->
<g id="Node000002" class="node">
<title>Node2</title>
<g id="a_Node000002"><a xlink:href="../../d6/d31/bitstring_8hpp.html" target="_top" xlink:title="storages::postgres::BitString I/O support">
<polygon fill="white" stroke="#666666" points="143,-558 0,-558 0,-528 143,-528 143,-558"/>
<text text-anchor="start" x="8" y="-546" font-family="Helvetica,sans-Serif" font-size="10.00">userver/storages/postgres</text>
<text text-anchor="middle" x="71.5" y="-535" font-family="Helvetica,sans-Serif" font-size="10.00">/io/bitstring.hpp</text>
</a>
</g>
</g>
<!-- Node1&#45;&gt;Node2 -->
<g id="edge1_Node000001_Node000002" class="edge">
<title>Node1&#45;&gt;Node2</title>
<g id="a_edge1_Node000001_Node000002"><a xlink:title=" ">
<path fill="none" stroke="#63b8ff" d="M1125.98,-607.27C949.13,-605 517.15,-595.71 157.5,-558 152.84,-557.51 148.04,-556.94 143.21,-556.3"/>
<polygon fill="#63b8ff" stroke="#63b8ff" points="1125.95,-610.77 1135.99,-607.4 1126.04,-603.77 1125.95,-610.77"/>
</a>
</g>
</g>
<!-- Node3 -->
<g id="Node000003" class="node">
<title>Node3</title>
<g id="a_Node000003"><a xlink:href="../../dd/d1d/boost__multiprecision_8hpp.html" target="_top" xlink:title="boost::multiprecision I/O support">
<polygon fill="white" stroke="#666666" points="516,-492 361,-492 361,-462 516,-462 516,-492"/>
<text text-anchor="start" x="369" y="-480" font-family="Helvetica,sans-Serif" font-size="10.00">userver/storages/postgres</text>
<text text-anchor="middle" x="438.5" y="-469" font-family="Helvetica,sans-Serif" font-size="10.00">/io/boost_multiprecision.hpp</text>
</a>
</g>
</g>
<!-- Node1&#45;&gt;Node3 -->
<g id="edge2_Node000001_Node000003" class="edge">
<title>Node1&#45;&gt;Node3</title>
<g id="a_edge2_Node000001_Node000003"><a xlink:title=" ">
<path fill="none" stroke="#63b8ff" d="M1125.9,-608.73C968.76,-609.05 630.34,-604.15 524.5,-558 491.41,-543.57 462.97,-510.85 448.56,-492.03"/>
<polygon fill="#63b8ff" stroke="#63b8ff" points="1125.99,-612.23 1135.98,-608.7 1125.97,-605.23 1125.99,-612.23"/>
</a>
</g>
</g>
<!-- Node4 -->
<g id="Node000004" class="node">
<title>Node4</title>
<g id="a_Node000004"><a xlink:href="../../d0/d1b/bytea_8hpp.html" target="_top" xlink:title="storages::postgres::Bytea I/O support">
<polygon fill="white" stroke="#666666" points="2044,-426 1901,-426 1901,-396 2044,-396 2044,-426"/>
<text text-anchor="start" x="1909" y="-414" font-family="Helvetica,sans-Serif" font-size="10.00">userver/storages/postgres</text>
<text text-anchor="middle" x="1972.5" y="-403" font-family="Helvetica,sans-Serif" font-size="10.00">/io/bytea.hpp</text>
</a>
</g>
</g>
<!-- Node1&#45;&gt;Node4 -->
<g id="edge3_Node000001_Node000004" class="edge">
<title>Node1&#45;&gt;Node4</title>
<g id="a_edge3_Node000001_Node000004"><a xlink:title=" ">
<path fill="none" stroke="#63b8ff" d="M1289.49,-604.36C1372.74,-599.19 1504.8,-586.87 1615.5,-558 1743.47,-524.63 1886.47,-455.85 1945.14,-426.16"/>
<polygon fill="#63b8ff" stroke="#63b8ff" points="1289.11,-600.88 1279.34,-604.98 1289.53,-607.87 1289.11,-600.88"/>
</a>
</g>
</g>
<!-- Node14 -->
<g id="Node000014" class="node">
<title>Node14</title>
<g id="a_Node000014"><a xlink:href="../../d6/db8/chrono_8hpp.html" target="_top" xlink:title="Timestamp (std::chrono::*) I/O support.">
<polygon fill="white" stroke="#666666" points="729,-426 586,-426 586,-396 729,-396 729,-426"/>
<text text-anchor="start" x="594" y="-414" font-family="Helvetica,sans-Serif" font-size="10.00">userver/storages/postgres</text>
<text text-anchor="middle" x="657.5" y="-403" font-family="Helvetica,sans-Serif" font-size="10.00">/io/chrono.hpp</text>
</a>
</g>
</g>
<!-- Node1&#45;&gt;Node14 -->
<g id="edge18_Node000001_Node000014" class="edge">
<title>Node1&#45;&gt;Node14</title>
<g id="a_edge18_Node000001_Node000014"><a xlink:title=" ">
<path fill="none" stroke="#63b8ff" d="M1125.53,-605.85C946.03,-600.68 522.99,-585.87 382.5,-558 293.99,-540.44 242.92,-565.45 190.5,-492 182.75,-481.15 181.59,-471.92 190.5,-462 216.39,-433.19 461.09,-419.6 585.55,-414.51"/>
<polygon fill="#63b8ff" stroke="#63b8ff" points="1125.61,-609.35 1135.71,-606.14 1125.81,-602.35 1125.61,-609.35"/>
</a>
</g>
</g>
<!-- Node15 -->
<g id="Node000015" class="node">
<title>Node15</title>
<g id="a_Node000015"><a xlink:href="../../d5/d3a/postgresql_2include_2userver_2storages_2postgres_2io_2date_8hpp.html" target="_top" xlink:title="utils::datetime::Date I/O support">
<polygon fill="white" stroke="#666666" points="1912,-558 1769,-558 1769,-528 1912,-528 1912,-558"/>
<text text-anchor="start" x="1777" y="-546" font-family="Helvetica,sans-Serif" font-size="10.00">userver/storages/postgres</text>
<text text-anchor="middle" x="1840.5" y="-535" font-family="Helvetica,sans-Serif" font-size="10.00">/io/date.hpp</text>
</a>
</g>
</g>
<!-- Node1&#45;&gt;Node15 -->
<g id="edge21_Node000001_Node000015" class="edge">
<title>Node1&#45;&gt;Node15</title>
<g id="a_edge21_Node000001_Node000015"><a xlink:title=" ">
<path fill="none" stroke="#63b8ff" d="M1289.45,-602.31C1396.59,-594.47 1590,-578.88 1754.5,-558 1759.15,-557.41 1763.94,-556.76 1768.76,-556.07"/>
<polygon fill="#63b8ff" stroke="#63b8ff" points="1289.07,-598.83 1279.35,-603.05 1289.58,-605.81 1289.07,-598.83"/>
</a>
</g>
</g>
<!-- Node16 -->
<g id="Node000016" class="node">
<title>Node16</title>
<g id="a_Node000016"><a xlink:href="../../df/dbe/postgresql_2include_2userver_2storages_2postgres_2io_2decimal64_8hpp.html" target="_top" xlink:title="decimal64::Decimal I/O support">
<polygon fill="white" stroke="#666666" points="677,-492 534,-492 534,-462 677,-462 677,-492"/>
<text text-anchor="start" x="542" y="-480" font-family="Helvetica,sans-Serif" font-size="10.00">userver/storages/postgres</text>
<text text-anchor="middle" x="605.5" y="-469" font-family="Helvetica,sans-Serif" font-size="10.00">/io/decimal64.hpp</text>
</a>
</g>
</g>
<!-- Node1&#45;&gt;Node16 -->
<g id="edge22_Node000001_Node000016" class="edge">
<title>Node1&#45;&gt;Node16</title>
<g id="a_edge22_Node000001_Node000016"><a xlink:title=" ">
<path fill="none" stroke="#63b8ff" d="M1125.46,-603.82C1043.8,-598.24 915.43,-585.64 807.5,-558 743.55,-541.62 672.64,-510.25 634.17,-492.04"/>
<polygon fill="#63b8ff" stroke="#63b8ff" points="1125.47,-607.32 1135.68,-604.49 1125.93,-600.34 1125.47,-607.32"/>
</a>
</g>
</g>
<!-- Node17 -->
<g id="Node000017" class="node">
<title>Node17</title>
<g id="a_Node000017"><a xlink:href="../../d5/d23/enum__types_8hpp.html" target="_top" xlink:title="Enum I/O support.">
<polygon fill="white" stroke="#666666" points="942,-426 799,-426 799,-396 942,-396 942,-426"/>
<text text-anchor="start" x="807" y="-414" font-family="Helvetica,sans-Serif" font-size="10.00">userver/storages/postgres</text>
<text text-anchor="middle" x="870.5" y="-403" font-family="Helvetica,sans-Serif" font-size="10.00">/io/enum_types.hpp</text>
</a>
</g>
</g>
<!-- Node1&#45;&gt;Node17 -->
<g id="edge24_Node000001_Node000017" class="edge">
<title>Node1&#45;&gt;Node17</title>
<g id="a_edge24_Node000001_Node000017"><a xlink:title=" ">
<path fill="none" stroke="#63b8ff" d="M1125.53,-600.97C1051.57,-590.11 945.46,-562.44 885.5,-492 869.75,-473.49 868.39,-443.74 869.2,-426.21"/>
<polygon fill="#63b8ff" stroke="#63b8ff" points="1125.36,-604.48 1135.74,-602.4 1126.32,-597.55 1125.36,-604.48"/>
</a>
</g>
</g>
<!-- Node18 -->
<g id="Node000018" class="node">
<title>Node18</title>
<g id="a_Node000018"><a xlink:href="../../da/d98/field__buffer_8hpp_source.html" target="_top" xlink:title=" ">
<polygon fill="white" stroke="#666666" points="1279,-558 1136,-558 1136,-528 1279,-528 1279,-558"/>
<text text-anchor="start" x="1144" y="-546" font-family="Helvetica,sans-Serif" font-size="10.00">userver/storages/postgres</text>
<text text-anchor="middle" x="1207.5" y="-535" font-family="Helvetica,sans-Serif" font-size="10.00">/io/field_buffer.hpp</text>
</a>
</g>
</g>
<!-- Node1&#45;&gt;Node18 -->
<g id="edge26_Node000001_Node000018" class="edge">
<title>Node1&#45;&gt;Node18</title>
<g id="a_edge26_Node000001_Node000018"><a xlink:title=" ">
<path fill="none" stroke="#63b8ff" d="M1207.5,-583.54C1207.5,-574.96 1207.5,-565.61 1207.5,-558.16"/>
<polygon fill="#63b8ff" stroke="#63b8ff" points="1204,-583.8 1207.5,-593.8 1211,-583.8 1204,-583.8"/>
</a>
</g>
</g>
<!-- Node24 -->
<g id="Node000024" class="node">
<title>Node24</title>
<g id="a_Node000024"><a xlink:href="../../d9/d6e/transform__io_8hpp_source.html" target="_top" xlink:title=" ">
<polygon fill="white" stroke="#666666" points="838,-492 695,-492 695,-462 838,-462 838,-492"/>
<text text-anchor="start" x="703" y="-480" font-family="Helvetica,sans-Serif" font-size="10.00">userver/storages/postgres</text>
<text text-anchor="middle" x="766.5" y="-469" font-family="Helvetica,sans-Serif" font-size="10.00">/io/transform_io.hpp</text>
</a>
</g>
</g>
<!-- Node1&#45;&gt;Node24 -->
<g id="edge51_Node000001_Node000024" class="edge">
<title>Node1&#45;&gt;Node24</title>
<g id="a_edge51_Node000001_Node000024"><a xlink:title=" ">
<path fill="none" stroke="#63b8ff" d="M1125.72,-602.19C1036.29,-594.83 899.44,-580.36 852.5,-558 820.1,-542.56 791.6,-510.54 776.95,-492.03"/>
<polygon fill="#63b8ff" stroke="#63b8ff" points="1125.59,-605.69 1135.84,-603 1126.16,-598.71 1125.59,-605.69"/>
</a>
</g>
</g>
<!-- Node25 -->
<g id="Node000025" class="node">
<title>Node25</title>
<g id="a_Node000025"><a xlink:href="../../dc/de2/interval_8hpp.html" target="_top" xlink:title="Time intervals I/O support.">
<polygon fill="white" stroke="#666666" points="343,-492 200,-492 200,-462 343,-462 343,-492"/>
<text text-anchor="start" x="208" y="-480" font-family="Helvetica,sans-Serif" font-size="10.00">userver/storages/postgres</text>
<text text-anchor="middle" x="271.5" y="-469" font-family="Helvetica,sans-Serif" font-size="10.00">/io/interval.hpp</text>
</a>
</g>
</g>
<!-- Node1&#45;&gt;Node25 -->
<g id="edge38_Node000001_Node000025" class="edge">
<title>Node1&#45;&gt;Node25</title>
<g id="a_edge38_Node000001_Node000025"><a xlink:title=" ">
<path fill="none" stroke="#63b8ff" d="M1125.88,-605.48C962.34,-599.93 599.8,-584.95 478.5,-558 412.12,-543.25 338.87,-510.81 299.78,-492.09"/>
<polygon fill="#63b8ff" stroke="#63b8ff" points="1125.78,-608.98 1135.89,-605.82 1126.01,-601.99 1125.78,-608.98"/>
</a>
</g>
</g>
<!-- Node26 -->
<g id="Node000026" class="node">
<title>Node26</title>
<g id="a_Node000026"><a xlink:href="../../d1/dd2/postgresql_2include_2userver_2storages_2postgres_2io_2ip_8hpp_source.html" target="_top" xlink:title=" ">
<polygon fill="white" stroke="#666666" points="2073,-558 1930,-558 1930,-528 2073,-528 2073,-558"/>
<text text-anchor="start" x="1938" y="-546" font-family="Helvetica,sans-Serif" font-size="10.00">userver/storages/postgres</text>
<text text-anchor="middle" x="2001.5" y="-535" font-family="Helvetica,sans-Serif" font-size="10.00">/io/ip.hpp</text>
</a>
</g>
</g>
<!-- Node1&#45;&gt;Node26 -->
<g id="edge40_Node000001_Node000026" class="edge">
<title>Node1&#45;&gt;Node26</title>
<g id="a_edge40_Node000001_Node000026"><a xlink:title=" ">
<path fill="none" stroke="#63b8ff" d="M1289.29,-605.02C1422.25,-599.57 1693.4,-585.87 1921.5,-558 1924.16,-557.68 1926.86,-557.32 1929.59,-556.94"/>
<polygon fill="#63b8ff" stroke="#63b8ff" points="1289.03,-601.53 1279.18,-605.43 1289.31,-608.52 1289.03,-601.53"/>
</a>
</g>
</g>
<!-- Node27 -->
<g id="Node000027" class="node">
<title>Node27</title>
<g id="a_Node000027"><a xlink:href="../../d3/d98/postgresql_2include_2userver_2storages_2postgres_2io_2macaddr_8hpp.html" target="_top" xlink:title="utils::Macaddr and utils::Macaddr8 I/O support">
<polygon fill="white" stroke="#666666" points="2234,-558 2091,-558 2091,-528 2234,-528 2234,-558"/>
<text text-anchor="start" x="2099" y="-546" font-family="Helvetica,sans-Serif" font-size="10.00">userver/storages/postgres</text>
<text text-anchor="middle" x="2162.5" y="-535" font-family="Helvetica,sans-Serif" font-size="10.00">/io/macaddr.hpp</text>
</a>
</g>
</g>
<!-- Node1&#45;&gt;Node27 -->
<g id="edge41_Node000001_Node000027" class="edge">
<title>Node1&#45;&gt;Node27</title>
<g id="a_edge41_Node000001_Node000027"><a xlink:title=" ">
<path fill="none" stroke="#63b8ff" d="M1289.6,-606.49C1444.9,-602.92 1792.16,-591.58 2082.5,-558 2085.16,-557.69 2087.87,-557.35 2090.6,-556.99"/>
<polygon fill="#63b8ff" stroke="#63b8ff" points="1289.12,-603 1279.2,-606.72 1289.27,-609.99 1289.12,-603"/>
</a>
</g>
</g>
<!-- Node28 -->
<g id="Node000028" class="node">
<title>Node28</title>
<g id="a_Node000028"><a xlink:href="../../d9/d3d/numeric__data_8hpp_source.html" target="_top" xlink:title=" ">
<polygon fill="white" stroke="#666666" points="677,-558 534,-558 534,-528 677,-528 677,-558"/>
<text text-anchor="start" x="542" y="-546" font-family="Helvetica,sans-Serif" font-size="10.00">userver/storages/postgres</text>
<text text-anchor="middle" x="605.5" y="-535" font-family="Helvetica,sans-Serif" font-size="10.00">/io/numeric_data.hpp</text>
</a>
</g>
</g>
<!-- Node1&#45;&gt;Node28 -->
<g id="edge42_Node000001_Node000028" class="edge">
<title>Node1&#45;&gt;Node28</title>
<g id="a_edge42_Node000001_Node000028"><a xlink:title=" ">
<path fill="none" stroke="#63b8ff" d="M1125.73,-599.43C1031.43,-589.52 871.75,-572.7 734.5,-558 715.91,-556.01 695.81,-553.84 677.14,-551.81"/>
<polygon fill="#63b8ff" stroke="#63b8ff" points="1125.46,-602.92 1135.77,-600.48 1126.19,-595.96 1125.46,-602.92"/>
</a>
</g>
</g>
<!-- Node29 -->
<g id="Node000029" class="node">
<title>Node29</title>
<g id="a_Node000029"><a xlink:href="../../db/dd5/optional_8hpp.html" target="_top" xlink:title="Optional values I/O support.">
<polygon fill="white" stroke="#666666" points="1400,-426 1257,-426 1257,-396 1400,-396 1400,-426"/>
<text text-anchor="start" x="1265" y="-414" font-family="Helvetica,sans-Serif" font-size="10.00">userver/storages/postgres</text>
<text text-anchor="middle" x="1328.5" y="-403" font-family="Helvetica,sans-Serif" font-size="10.00">/io/optional.hpp</text>
</a>
</g>
</g>
<!-- Node1&#45;&gt;Node29 -->
<g id="edge45_Node000001_Node000029" class="edge">
<title>Node1&#45;&gt;Node29</title>
<g id="a_edge45_Node000001_Node000029"><a xlink:title=" ">
<path fill="none" stroke="#63b8ff" d="M1288.99,-593.35C1385.13,-574.21 1536.16,-537.7 1569.5,-492 1577.36,-481.23 1577.92,-472.34 1569.5,-462 1564.05,-455.3 1469.27,-437.1 1400.23,-424.62"/>
<polygon fill="#63b8ff" stroke="#63b8ff" points="1288.14,-589.95 1279,-595.31 1289.49,-596.82 1288.14,-589.95"/>
</a>
</g>
</g>
<!-- Node30 -->
<g id="Node000030" class="node">
<title>Node30</title>
<g id="a_Node000030"><a xlink:href="../../d7/da7/postgresql_2include_2userver_2storages_2postgres_2io_2strong__typedef_8hpp.html" target="_top" xlink:title="utils::StrongTypedef I/O support">
<polygon fill="white" stroke="#666666" points="1561,-426 1418,-426 1418,-396 1561,-396 1561,-426"/>
<text text-anchor="start" x="1426" y="-414" font-family="Helvetica,sans-Serif" font-size="10.00">userver/storages/postgres</text>
<text text-anchor="middle" x="1489.5" y="-403" font-family="Helvetica,sans-Serif" font-size="10.00">/io/strong_typedef.hpp</text>
</a>
</g>
</g>
<!-- Node1&#45;&gt;Node30 -->
<g id="edge47_Node000001_Node000030" class="edge">
<title>Node1&#45;&gt;Node30</title>
<g id="a_edge47_Node000001_Node000030"><a xlink:title=" ">
<path fill="none" stroke="#63b8ff" d="M1289.23,-602.82C1347.18,-596.95 1425.82,-584.48 1490.5,-558 1538.42,-538.38 1562.4,-537.82 1586.5,-492 1592.71,-480.2 1593.44,-473.38 1586.5,-462 1576.2,-445.09 1558.14,-433.66 1540.38,-426.05"/>
<polygon fill="#63b8ff" stroke="#63b8ff" points="1288.64,-599.36 1279.03,-603.8 1289.32,-606.33 1288.64,-599.36"/>
</a>
</g>
</g>
<!-- Node31 -->
<g id="Node000031" class="node">
<title>Node31</title>
<g id="a_Node000031"><a xlink:href="../../d5/d8e/postgresql_2include_2userver_2storages_2postgres_2io_2time__of__day_8hpp.html" target="_top" xlink:title="utils::datetime::TimeOfDay I/O support">
<polygon fill="white" stroke="#666666" points="1722,-426 1579,-426 1579,-396 1722,-396 1722,-426"/>
<text text-anchor="start" x="1587" y="-414" font-family="Helvetica,sans-Serif" font-size="10.00">userver/storages/postgres</text>
<text text-anchor="middle" x="1650.5" y="-403" font-family="Helvetica,sans-Serif" font-size="10.00">/io/time_of_day.hpp</text>
</a>
</g>
</g>
<!-- Node1&#45;&gt;Node31 -->
<g id="edge49_Node000001_Node000031" class="edge">
<title>Node1&#45;&gt;Node31</title>
<g id="a_edge49_Node000001_Node000031"><a xlink:title=" ">
<path fill="none" stroke="#63b8ff" d="M1289.56,-601.52C1372.86,-593.9 1495.38,-579.48 1537.5,-558 1594.32,-529.02 1631.08,-456.87 1644.64,-426.18"/>
<polygon fill="#63b8ff" stroke="#63b8ff" points="1289,-598.06 1279.35,-602.44 1289.62,-605.03 1289,-598.06"/>
</a>
</g>
</g>
<!-- Node32 -->
<g id="Node000032" class="node">
<title>Node32</title>
<g id="a_Node000032"><a xlink:href="../../d4/d58/postgresql_2include_2userver_2storages_2postgres_2io_2uuid_8hpp.html" target="_top" xlink:title="UUID (boost::uuids::uuid) I/O support.">
<polygon fill="white" stroke="#666666" points="1883,-426 1740,-426 1740,-396 1883,-396 1883,-426"/>
<text text-anchor="start" x="1748" y="-414" font-family="Helvetica,sans-Serif" font-size="10.00">userver/storages/postgres</text>
<text text-anchor="middle" x="1811.5" y="-403" font-family="Helvetica,sans-Serif" font-size="10.00">/io/uuid.hpp</text>
</a>
</g>
</g>
<!-- Node1&#45;&gt;Node32 -->
<g id="edge52_Node000001_Node000032" class="edge">
<title>Node1&#45;&gt;Node32</title>
<g id="a_edge52_Node000001_Node000032"><a xlink:title=" ">
<path fill="none" stroke="#63b8ff" d="M1289.48,-606.31C1364.59,-602.55 1477.85,-591.22 1570.5,-558 1647.13,-530.52 1656.74,-503.97 1726.5,-462 1746.89,-449.73 1770.2,-436.04 1787.24,-426.1"/>
<polygon fill="#63b8ff" stroke="#63b8ff" points="1288.97,-602.83 1279.15,-606.8 1289.3,-609.83 1288.97,-602.83"/>
</a>
</g>
</g>
<!-- Node5 -->
<g id="Node000005" class="node">
<title>Node5</title>
<g id="a_Node000005"><a xlink:href="../../dc/da2/postgresql_2include_2userver_2storages_2postgres_2io_2supported__types_8hpp.html" target="_top" xlink:title="Includes parsers and formatters for all supported data types; prefer using the type specific include ...">
<polygon fill="white" stroke="#666666" points="1141,-360 998,-360 998,-330 1141,-330 1141,-360"/>
<text text-anchor="start" x="1006" y="-348" font-family="Helvetica,sans-Serif" font-size="10.00">userver/storages/postgres</text>
<text text-anchor="middle" x="1069.5" y="-337" font-family="Helvetica,sans-Serif" font-size="10.00">/io/supported_types.hpp</text>
</a>
</g>
</g>
<!-- Node4&#45;&gt;Node5 -->
<g id="edge4_Node000004_Node000005" class="edge">
<title>Node4&#45;&gt;Node5</title>
<g id="a_edge4_Node000004_Node000005"><a xlink:title=" ">
<path fill="none" stroke="#63b8ff" d="M1890.57,-395.85C1608.06,-363.21 1282.47,-351.47 1141.02,-347.64"/>
<polygon fill="#63b8ff" stroke="#63b8ff" points="1890.26,-399.34 1900.6,-397.02 1891.07,-392.39 1890.26,-399.34"/>
</a>
</g>
</g>
<!-- Node6 -->
<g id="Node000006" class="node">
<title>Node6</title>
<g id="a_Node000006"><a xlink:href="../../de/d1d/result__set_8hpp.html" target="_top" xlink:title="Result accessors.">
<polygon fill="white" stroke="#666666" points="1141,-294 998,-294 998,-264 1141,-264 1141,-294"/>
<text text-anchor="start" x="1006" y="-282" font-family="Helvetica,sans-Serif" font-size="10.00">userver/storages/postgres</text>
<text text-anchor="middle" x="1069.5" y="-271" font-family="Helvetica,sans-Serif" font-size="10.00">/result_set.hpp</text>
</a>
</g>
</g>
<!-- Node5&#45;&gt;Node6 -->
<g id="edge5_Node000005_Node000006" class="edge">
<title>Node5&#45;&gt;Node6</title>
<g id="a_edge5_Node000005_Node000006"><a xlink:title=" ">
<path fill="none" stroke="#63b8ff" d="M1069.5,-319.54C1069.5,-310.96 1069.5,-301.61 1069.5,-294.16"/>
<polygon fill="#63b8ff" stroke="#63b8ff" points="1066,-319.8 1069.5,-329.8 1073,-319.8 1066,-319.8"/>
</a>
</g>
</g>
<!-- Node7 -->
<g id="Node000007" class="node">
<title>Node7</title>
<g id="a_Node000007"><a xlink:href="../../d2/de3/portal_8hpp_source.html" target="_top" xlink:title=" ">
<polygon fill="white" stroke="#666666" points="984,-228 841,-228 841,-198 984,-198 984,-228"/>
<text text-anchor="start" x="849" y="-216" font-family="Helvetica,sans-Serif" font-size="10.00">userver/storages/postgres</text>
<text text-anchor="middle" x="912.5" y="-205" font-family="Helvetica,sans-Serif" font-size="10.00">/portal.hpp</text>
</a>
</g>
</g>
<!-- Node6&#45;&gt;Node7 -->
<g id="edge6_Node000006_Node000007" class="edge">
<title>Node6&#45;&gt;Node7</title>
<g id="a_edge6_Node000006_Node000007"><a xlink:title=" ">
<path fill="none" stroke="#63b8ff" d="M1025.48,-260.05C1000.6,-249.91 969.97,-237.43 946.87,-228.01"/>
<polygon fill="#63b8ff" stroke="#63b8ff" points="1024.46,-263.42 1035.05,-263.95 1027.11,-256.94 1024.46,-263.42"/>
</a>
</g>
</g>
<!-- Node8 -->
<g id="Node000008" class="node">
<title>Node8</title>
<g id="a_Node000008"><a xlink:href="../../da/deb/postgresql_2include_2userver_2storages_2postgres_2transaction_8hpp.html" target="_top" xlink:title="Transactions.">
<polygon fill="white" stroke="#666666" points="990,-162 847,-162 847,-132 990,-132 990,-162"/>
<text text-anchor="start" x="855" y="-150" font-family="Helvetica,sans-Serif" font-size="10.00">userver/storages/postgres</text>
<text text-anchor="middle" x="918.5" y="-139" font-family="Helvetica,sans-Serif" font-size="10.00">/transaction.hpp</text>
</a>
</g>
</g>
<!-- Node6&#45;&gt;Node8 -->
<g id="edge15_Node000006_Node000008" class="edge">
<title>Node6&#45;&gt;Node8</title>
<g id="a_edge15_Node000006_Node000008"><a xlink:title=" ">
<path fill="none" stroke="#63b8ff" d="M987.81,-271.67C926.94,-265.06 851.1,-252.14 831.5,-228 810.61,-202.27 850.71,-177.17 883.15,-162.14"/>
<polygon fill="#63b8ff" stroke="#63b8ff" points="987.52,-275.16 997.83,-272.72 988.24,-268.2 987.52,-275.16"/>
</a>
</g>
</g>
<!-- Node11 -->
<g id="Node000011" class="node">
<title>Node11</title>
<g id="a_Node000011"><a xlink:href="../../df/d02/postgres_8hpp.html" target="_top" xlink:title=" ">
<polygon fill="white" stroke="#666666" points="990,-30 847,-30 847,0 990,0 990,-30"/>
<text text-anchor="start" x="855" y="-18" font-family="Helvetica,sans-Serif" font-size="10.00">userver/storages/postgres</text>
<text text-anchor="middle" x="918.5" y="-7" font-family="Helvetica,sans-Serif" font-size="10.00">/postgres.hpp</text>
</a>
</g>
</g>
<!-- Node6&#45;&gt;Node11 -->
<g id="edge12_Node000006_Node000011" class="edge">
<title>Node6&#45;&gt;Node11</title>
<g id="a_edge12_Node000006_Node000011"><a xlink:title=" ">
<path fill="none" stroke="#63b8ff" d="M1120.25,-259.33C1133.77,-251.76 1146.76,-241.53 1154.5,-228 1161.12,-216.43 1160.38,-209.97 1154.5,-198 1112.04,-111.64 1006.7,-54.69 952.26,-30.01"/>
<polygon fill="#63b8ff" stroke="#63b8ff" points="1118.62,-256.23 1111.34,-263.93 1121.83,-262.45 1118.62,-256.23"/>
</a>
</g>
</g>
<!-- Node12 -->
<g id="Node000012" class="node">
<title>Node12</title>
<g id="a_Node000012"><a xlink:href="../../d8/d63/query__queue_8hpp.html" target="_top" xlink:title="An utility to execute multiple queries in a single network round&#45;trip.">
<polygon fill="white" stroke="#666666" points="829,-162 686,-162 686,-132 829,-132 829,-162"/>
<text text-anchor="start" x="694" y="-150" font-family="Helvetica,sans-Serif" font-size="10.00">userver/storages/postgres</text>
<text text-anchor="middle" x="757.5" y="-139" font-family="Helvetica,sans-Serif" font-size="10.00">/query_queue.hpp</text>
</a>
</g>
</g>
<!-- Node6&#45;&gt;Node12 -->
<g id="edge13_Node000006_Node000012" class="edge">
<title>Node6&#45;&gt;Node12</title>
<g id="a_edge13_Node000006_Node000012"><a xlink:title=" ">
<path fill="none" stroke="#63b8ff" d="M987.54,-275.31C936.86,-270.41 872.23,-258.09 822.5,-228 795.71,-211.79 775.17,-180.36 764.86,-162.09"/>
<polygon fill="#63b8ff" stroke="#63b8ff" points="987.53,-278.82 997.8,-276.22 988.15,-271.85 987.53,-278.82"/>
</a>
</g>
</g>
<!-- Node13 -->
<g id="Node000013" class="node">
<title>Node13</title>
<g id="a_Node000013"><a xlink:href="../../d1/dee/typed__result__set_8hpp.html" target="_top" xlink:title="Typed PostgreSQL results.">
<polygon fill="white" stroke="#666666" points="1145,-228 1002,-228 1002,-198 1145,-198 1145,-228"/>
<text text-anchor="start" x="1010" y="-216" font-family="Helvetica,sans-Serif" font-size="10.00">userver/storages/postgres</text>
<text text-anchor="middle" x="1073.5" y="-205" font-family="Helvetica,sans-Serif" font-size="10.00">/typed_result_set.hpp</text>
</a>
</g>
</g>
<!-- Node6&#45;&gt;Node13 -->
<g id="edge16_Node000006_Node000013" class="edge">
<title>Node6&#45;&gt;Node13</title>
<g id="a_edge16_Node000006_Node000013"><a xlink:title=" ">
<path fill="none" stroke="#63b8ff" d="M1064.45,-253.54C1064.59,-244.96 1065.46,-235.61 1066.9,-228.16"/>
<polygon fill="#63b8ff" stroke="#63b8ff" points="1060.95,-253.87 1064.67,-263.8 1067.95,-253.72 1060.95,-253.87"/>
</a>
</g>
</g>
<!-- Node7&#45;&gt;Node8 -->
<g id="edge7_Node000007_Node000008" class="edge">
<title>Node7&#45;&gt;Node8</title>
<g id="a_edge7_Node000007_Node000008"><a xlink:title=" ">
<path fill="none" stroke="#63b8ff" d="M914.77,-187.83C915.58,-179.17 916.47,-169.7 917.17,-162.16"/>
<polygon fill="#63b8ff" stroke="#63b8ff" points="911.28,-187.51 913.83,-197.8 918.25,-188.17 911.28,-187.51"/>
</a>
</g>
</g>
<!-- Node9 -->
<g id="Node000009" class="node">
<title>Node9</title>
<g id="a_Node000009"><a xlink:href="../../de/dd3/postgresql_2include_2userver_2storages_2postgres_2cluster_8hpp.html" target="_top" xlink:title="Interface for executing queries on a cluster of PostgreSQL servers.">
<polygon fill="white" stroke="#666666" points="860,-96 717,-96 717,-66 860,-66 860,-96"/>
<text text-anchor="start" x="725" y="-84" font-family="Helvetica,sans-Serif" font-size="10.00">userver/storages/postgres</text>
<text text-anchor="middle" x="788.5" y="-73" font-family="Helvetica,sans-Serif" font-size="10.00">/cluster.hpp</text>
</a>
</g>
</g>
<!-- Node8&#45;&gt;Node9 -->
<g id="edge8_Node000008_Node000009" class="edge">
<title>Node8&#45;&gt;Node9</title>
<g id="a_edge8_Node000008_Node000009"><a xlink:title=" ">
<path fill="none" stroke="#63b8ff" d="M880.95,-127.51C860.55,-117.47 835.74,-105.26 816.96,-96.01"/>
<polygon fill="#63b8ff" stroke="#63b8ff" points="879.45,-130.68 889.97,-131.95 882.55,-124.4 879.45,-130.68"/>
</a>
</g>
</g>
<!-- Node8&#45;&gt;Node11 -->
<g id="edge11_Node000008_Node000011" class="edge">
<title>Node8&#45;&gt;Node11</title>
<g id="a_edge11_Node000008_Node000011"><a xlink:title=" ">
<path fill="none" stroke="#63b8ff" d="M918.5,-121.68C918.5,-94.7 918.5,-52.11 918.5,-30.14"/>
<polygon fill="#63b8ff" stroke="#63b8ff" points="915,-121.84 918.5,-131.84 922,-121.84 915,-121.84"/>
</a>
</g>
</g>
<!-- Node10 -->
<g id="Node000010" class="node">
<title>Node10</title>
<g id="a_Node000010"><a xlink:href="../../dc/df7/base__postgres__cache_8hpp.html" target="_top" xlink:title="Caching component for PostgreSQL. See Caching Component for PostgreSQL.">
<polygon fill="white" stroke="#666666" points="773,-30 654,-30 654,0 773,0 773,-30"/>
<text text-anchor="start" x="662" y="-18" font-family="Helvetica,sans-Serif" font-size="10.00">userver/cache/base</text>
<text text-anchor="middle" x="713.5" y="-7" font-family="Helvetica,sans-Serif" font-size="10.00">_postgres_cache.hpp</text>
</a>
</g>
</g>
<!-- Node9&#45;&gt;Node10 -->
<g id="edge9_Node000009_Node000010" class="edge">
<title>Node9&#45;&gt;Node10</title>
<g id="a_edge9_Node000009_Node000010"><a xlink:title=" ">
<path fill="none" stroke="#63b8ff" d="M764.13,-59.2C752.99,-49.7 740.09,-38.69 730.1,-30.16"/>
<polygon fill="#63b8ff" stroke="#63b8ff" points="761.98,-61.97 771.86,-65.8 766.52,-56.64 761.98,-61.97"/>
</a>
</g>
</g>
<!-- Node9&#45;&gt;Node11 -->
<g id="edge10_Node000009_Node000011" class="edge">
<title>Node9&#45;&gt;Node11</title>
<g id="a_edge10_Node000009_Node000011"><a xlink:title=" ">
<path fill="none" stroke="#63b8ff" d="M826.05,-61.51C846.45,-51.47 871.26,-39.26 890.04,-30.01"/>
<polygon fill="#63b8ff" stroke="#63b8ff" points="824.45,-58.4 817.03,-65.95 827.55,-64.68 824.45,-58.4"/>
</a>
</g>
</g>
<!-- Node12&#45;&gt;Node9 -->
<g id="edge14_Node000012_Node000009" class="edge">
<title>Node12&#45;&gt;Node9</title>
<g id="a_edge14_Node000012_Node000009"><a xlink:title=" ">
<path fill="none" stroke="#63b8ff" d="M768.8,-122.68C773.1,-113.79 777.87,-103.95 781.64,-96.16"/>
<polygon fill="#63b8ff" stroke="#63b8ff" points="765.59,-121.27 764.38,-131.8 771.89,-124.32 765.59,-121.27"/>
</a>
</g>
</g>
<!-- Node13&#45;&gt;Node6 -->
<g id="edge17_Node000013_Node000006" class="edge">
<title>Node13&#45;&gt;Node6</title>
<g id="a_edge17_Node000013_Node000006"><a xlink:title=" ">
<path fill="none" stroke="#63b8ff" d="M1078.55,-238.41C1078.41,-246.99 1077.54,-256.34 1076.11,-263.8"/>
<polygon fill="#63b8ff" stroke="#63b8ff" points="1082.05,-238.09 1078.33,-228.16 1075.05,-238.24 1082.05,-238.09"/>
</a>
</g>
</g>
<!-- Node14&#45;&gt;Node5 -->
<g id="edge20_Node000014_Node000005" class="edge">
<title>Node14&#45;&gt;Node5</title>
<g id="a_edge20_Node000014_Node000005"><a xlink:title=" ">
<path fill="none" stroke="#63b8ff" d="M739.21,-397.31C814.71,-385.58 925.77,-368.33 997.87,-357.13"/>
<polygon fill="#63b8ff" stroke="#63b8ff" points="738.61,-393.86 729.26,-398.85 739.68,-400.78 738.61,-393.86"/>
</a>
</g>
</g>
<!-- Node14&#45;&gt;Node10 -->
<g id="edge19_Node000014_Node000010" class="edge">
<title>Node14&#45;&gt;Node10</title>
<g id="a_edge19_Node000014_Node000010"><a xlink:title=" ">
<path fill="none" stroke="#63b8ff" d="M657.5,-385.86C657.5,-359.76 657.5,-316.93 657.5,-280 657.5,-280 657.5,-280 657.5,-146 657.5,-100.78 686.43,-53.41 702.7,-30.34"/>
<polygon fill="#63b8ff" stroke="#63b8ff" points="654,-385.96 657.5,-395.96 661,-385.96 654,-385.96"/>
</a>
</g>
</g>
<!-- Node16&#45;&gt;Node5 -->
<g id="edge23_Node000016_Node000005" class="edge">
<title>Node16&#45;&gt;Node5</title>
<g id="a_edge23_Node000016_Node000005"><a xlink:title=" ">
<path fill="none" stroke="#63b8ff" d="M657.37,-458.54C682.03,-449.69 711.7,-438.23 737.5,-426 761.61,-414.57 764.44,-405.15 789.5,-396 857.8,-371.07 940.17,-358.27 997.82,-351.91"/>
<polygon fill="#63b8ff" stroke="#63b8ff" points="656.09,-455.28 647.83,-461.92 658.43,-461.88 656.09,-455.28"/>
</a>
</g>
</g>
<!-- Node17&#45;&gt;Node5 -->
<g id="edge25_Node000017_Node000005" class="edge">
<title>Node17&#45;&gt;Node5</title>
<g id="a_edge25_Node000017_Node000005"><a xlink:title=" ">
<path fill="none" stroke="#63b8ff" d="M923.81,-392.86C955.76,-382.58 995.88,-369.68 1025.93,-360.01"/>
<polygon fill="#63b8ff" stroke="#63b8ff" points="922.62,-389.56 914.17,-395.95 924.76,-396.23 922.62,-389.56"/>
</a>
</g>
</g>
<!-- Node19 -->
<g id="Node000019" class="node">
<title>Node19</title>
<g id="a_Node000019"><a xlink:href="../../d4/d90/array__types_8hpp.html" target="_top" xlink:title="I/O support for arrays (std::array, std::set, std::unordered_set, std::vector)">
<polygon fill="white" stroke="#666666" points="1239,-426 1096,-426 1096,-396 1239,-396 1239,-426"/>
<text text-anchor="start" x="1104" y="-414" font-family="Helvetica,sans-Serif" font-size="10.00">userver/storages/postgres</text>
<text text-anchor="middle" x="1167.5" y="-403" font-family="Helvetica,sans-Serif" font-size="10.00">/io/array_types.hpp</text>
</a>
</g>
</g>
<!-- Node18&#45;&gt;Node19 -->
<g id="edge27_Node000018_Node000019" class="edge">
<title>Node18&#45;&gt;Node19</title>
<g id="a_edge27_Node000018_Node000019"><a xlink:title=" ">
<path fill="none" stroke="#63b8ff" d="M1289.08,-529.95C1342.4,-518.51 1397.39,-497.64 1369.5,-462 1361.19,-451.38 1293.91,-436.15 1239.25,-425.29"/>
<polygon fill="#63b8ff" stroke="#63b8ff" points="1288.26,-526.55 1279.16,-531.98 1289.66,-533.4 1288.26,-526.55"/>
</a>
</g>
</g>
<!-- Node20 -->
<g id="Node000020" class="node">
<title>Node20</title>
<g id="a_Node000020"><a xlink:href="../../d4/dda/composite__types_8hpp.html" target="_top" xlink:title="Composite types I/O support.">
<polygon fill="white" stroke="#666666" points="1038,-492 895,-492 895,-462 1038,-462 1038,-492"/>
<text text-anchor="start" x="903" y="-480" font-family="Helvetica,sans-Serif" font-size="10.00">userver/storages/postgres</text>
<text text-anchor="middle" x="966.5" y="-469" font-family="Helvetica,sans-Serif" font-size="10.00">/io/composite_types.hpp</text>
</a>
</g>
</g>
<!-- Node18&#45;&gt;Node20 -->
<g id="edge29_Node000018_Node000020" class="edge">
<title>Node18&#45;&gt;Node20</title>
<g id="a_edge29_Node000018_Node000020"><a xlink:title=" ">
<path fill="none" stroke="#63b8ff" d="M1144.94,-525.39C1105.92,-515.03 1056.28,-501.84 1019.27,-492.01"/>
<polygon fill="#63b8ff" stroke="#63b8ff" points="1144.05,-528.77 1154.61,-527.95 1145.84,-522.01 1144.05,-528.77"/>
</a>
</g>
</g>
<!-- Node21 -->
<g id="Node000021" class="node">
<title>Node21</title>
<g id="a_Node000021"><a xlink:href="../../da/d26/geometry__types_8hpp.html" target="_top" xlink:title="Geometry I/O support.">
<polygon fill="white" stroke="#666666" points="1560,-492 1417,-492 1417,-462 1560,-462 1560,-492"/>
<text text-anchor="start" x="1425" y="-480" font-family="Helvetica,sans-Serif" font-size="10.00">userver/storages/postgres</text>
<text text-anchor="middle" x="1488.5" y="-469" font-family="Helvetica,sans-Serif" font-size="10.00">/io/geometry_types.hpp</text>
</a>
</g>
</g>
<!-- Node18&#45;&gt;Node21 -->
<g id="edge31_Node000018_Node000021" class="edge">
<title>Node18&#45;&gt;Node21</title>
<g id="a_edge31_Node000018_Node000021"><a xlink:title=" ">
<path fill="none" stroke="#63b8ff" d="M1279.01,-525.71C1324.71,-515.31 1383.36,-501.95 1426.98,-492.01"/>
<polygon fill="#63b8ff" stroke="#63b8ff" points="1278.14,-522.32 1269.17,-527.95 1279.69,-529.15 1278.14,-522.32"/>
</a>
</g>
</g>
<!-- Node22 -->
<g id="Node000022" class="node">
<title>Node22</title>
<g id="a_Node000022"><a xlink:href="../../dd/d50/json__types_8hpp.html" target="_top" xlink:title="JSON I/O support.">
<polygon fill="white" stroke="#666666" points="1199,-492 1056,-492 1056,-462 1199,-462 1199,-492"/>
<text text-anchor="start" x="1064" y="-480" font-family="Helvetica,sans-Serif" font-size="10.00">userver/storages/postgres</text>
<text text-anchor="middle" x="1127.5" y="-469" font-family="Helvetica,sans-Serif" font-size="10.00">/io/json_types.hpp</text>
</a>
</g>
</g>
<!-- Node18&#45;&gt;Node22 -->
<g id="edge32_Node000018_Node000022" class="edge">
<title>Node18&#45;&gt;Node22</title>
<g id="a_edge32_Node000018_Node000022"><a xlink:title=" ">
<path fill="none" stroke="#63b8ff" d="M1181.85,-521.48C1169.89,-511.91 1155.97,-500.77 1145.2,-492.16"/>
<polygon fill="#63b8ff" stroke="#63b8ff" points="1179.75,-524.28 1189.75,-527.8 1184.12,-518.82 1179.75,-524.28"/>
</a>
</g>
</g>
<!-- Node23 -->
<g id="Node000023" class="node">
<title>Node23</title>
<g id="a_Node000023"><a xlink:href="../../d5/d60/range__types_8hpp.html" target="_top" xlink:title="Ranges I/O support.">
<polygon fill="white" stroke="#666666" points="1360,-492 1217,-492 1217,-462 1360,-462 1360,-492"/>
<text text-anchor="start" x="1225" y="-480" font-family="Helvetica,sans-Serif" font-size="10.00">userver/storages/postgres</text>
<text text-anchor="middle" x="1288.5" y="-469" font-family="Helvetica,sans-Serif" font-size="10.00">/io/range_types.hpp</text>
</a>
</g>
</g>
<!-- Node18&#45;&gt;Node23 -->
<g id="edge34_Node000018_Node000023" class="edge">
<title>Node18&#45;&gt;Node23</title>
<g id="a_edge34_Node000018_Node000023"><a xlink:title=" ">
<path fill="none" stroke="#63b8ff" d="M1233.47,-521.48C1245.58,-511.91 1259.68,-500.77 1270.57,-492.16"/>
<polygon fill="#63b8ff" stroke="#63b8ff" points="1231.15,-518.85 1225.48,-527.8 1235.49,-524.34 1231.15,-518.85"/>
</a>
</g>
</g>
<!-- Node18&#45;&gt;Node24 -->
<g id="edge36_Node000018_Node000024" class="edge">
<title>Node18&#45;&gt;Node24</title>
<g id="a_edge36_Node000018_Node000024"><a xlink:title=" ">
<path fill="none" stroke="#63b8ff" d="M1125.57,-530.11C1043.06,-518.14 917.02,-499.84 838.31,-488.42"/>
<polygon fill="#63b8ff" stroke="#63b8ff" points="1125.27,-533.6 1135.66,-531.57 1126.27,-526.67 1125.27,-533.6"/>
</a>
</g>
</g>
<!-- Node19&#45;&gt;Node5 -->
<g id="edge28_Node000019_Node000005" class="edge">
<title>Node19&#45;&gt;Node5</title>
<g id="a_edge28_Node000019_Node000005"><a xlink:title=" ">
<path fill="none" stroke="#63b8ff" d="M1137.34,-390.3C1122.42,-380.56 1104.75,-369.02 1091.19,-360.16"/>
<polygon fill="#63b8ff" stroke="#63b8ff" points="1135.46,-393.26 1145.75,-395.8 1139.29,-387.4 1135.46,-393.26"/>
</a>
</g>
</g>
<!-- Node20&#45;&gt;Node5 -->
<g id="edge30_Node000020_Node000005" class="edge">
<title>Node20&#45;&gt;Node5</title>
<g id="a_edge30_Node000020_Node000005"><a xlink:title=" ">
<path fill="none" stroke="#63b8ff" d="M984.09,-453.8C1005.33,-426.99 1040.43,-382.7 1058.29,-360.14"/>
<polygon fill="#63b8ff" stroke="#63b8ff" points="981.19,-451.83 977.72,-461.84 986.67,-456.18 981.19,-451.83"/>
</a>
</g>
</g>
<!-- Node22&#45;&gt;Node5 -->
<g id="edge33_Node000022_Node000005" class="edge">
<title>Node22&#45;&gt;Node5</title>
<g id="a_edge33_Node000022_Node000005"><a xlink:title=" ">
<path fill="none" stroke="#63b8ff" d="M1084.38,-456.77C1072.17,-449.06 1060.35,-438.89 1053.5,-426 1042.27,-404.86 1052.84,-376.77 1061.32,-360.11"/>
<polygon fill="#63b8ff" stroke="#63b8ff" points="1082.87,-459.94 1093.27,-461.95 1086.39,-453.9 1082.87,-459.94"/>
</a>
</g>
</g>
<!-- Node23&#45;&gt;Node5 -->
<g id="edge35_Node000023_Node000005" class="edge">
<title>Node23&#45;&gt;Node5</title>
<g id="a_edge35_Node000023_Node000005"><a xlink:title=" ">
<path fill="none" stroke="#63b8ff" d="M1206.96,-459.93C1155.17,-449.01 1096.27,-434.97 1087.5,-426 1070.28,-408.39 1068.11,-378.05 1068.52,-360.22"/>
<polygon fill="#63b8ff" stroke="#63b8ff" points="1206.37,-463.38 1216.87,-462 1207.8,-456.53 1206.37,-463.38"/>
</a>
</g>
</g>
<!-- Node24&#45;&gt;Node14 -->
<g id="edge37_Node000024_Node000014" class="edge">
<title>Node24&#45;&gt;Node14</title>
<g id="a_edge37_Node000024_Node000014"><a xlink:title=" ">
<path fill="none" stroke="#63b8ff" d="M733.62,-456.69C716.79,-446.82 696.69,-435.01 681.36,-426.01"/>
<polygon fill="#63b8ff" stroke="#63b8ff" points="732.18,-459.91 742.58,-461.95 735.73,-453.87 732.18,-459.91"/>
</a>
</g>
</g>
<!-- Node25&#45;&gt;Node14 -->
<g id="edge39_Node000025_Node000014" class="edge">
<title>Node25&#45;&gt;Node14</title>
<g id="a_edge39_Node000025_Node000014"><a xlink:title=" ">
<path fill="none" stroke="#63b8ff" d="M352.9,-461.77C438.43,-447.34 526.01,-433.11 585.74,-423.49"/>
<polygon fill="#63b8ff" stroke="#63b8ff" points="352.3,-458.32 343.02,-463.44 353.47,-465.23 352.3,-458.32"/>
</a>
</g>
</g>
<!-- Node28&#45;&gt;Node3 -->
<g id="edge43_Node000028_Node000003" class="edge">
<title>Node28&#45;&gt;Node3</title>
<g id="a_edge43_Node000028_Node000003"><a xlink:title=" ">
<path fill="none" stroke="#63b8ff" d="M559.37,-524.32C532.79,-514.14 499.84,-501.51 475.06,-492.01"/>
<polygon fill="#63b8ff" stroke="#63b8ff" points="558.26,-527.64 568.85,-527.95 560.77,-521.11 558.26,-527.64"/>
</a>
</g>
</g>
<!-- Node28&#45;&gt;Node16 -->
<g id="edge44_Node000028_Node000016" class="edge">
<title>Node28&#45;&gt;Node16</title>
<g id="a_edge44_Node000028_Node000016"><a xlink:title=" ">
<path fill="none" stroke="#63b8ff" d="M605.5,-517.54C605.5,-508.96 605.5,-499.61 605.5,-492.16"/>
<polygon fill="#63b8ff" stroke="#63b8ff" points="602,-517.8 605.5,-527.8 609,-517.8 602,-517.8"/>
</a>
</g>
</g>
<!-- Node29&#45;&gt;Node5 -->
<g id="edge46_Node000029_Node000005" class="edge">
<title>Node29&#45;&gt;Node5</title>
<g id="a_edge46_Node000029_Node000005"><a xlink:title=" ">
<path fill="none" stroke="#63b8ff" d="M1261.8,-393.52C1219.79,-383.14 1166.15,-369.88 1126.21,-360.01"/>
<polygon fill="#63b8ff" stroke="#63b8ff" points="1261.11,-396.95 1271.66,-395.95 1262.79,-390.16 1261.11,-396.95"/>
</a>
</g>
</g>
<!-- Node30&#45;&gt;Node5 -->
<g id="edge48_Node000030_Node000005" class="edge">
<title>Node30&#45;&gt;Node5</title>
<g id="a_edge48_Node000030_Node000005"><a xlink:title=" ">
<path fill="none" stroke="#63b8ff" d="M1407.91,-395.77C1309.96,-380.09 1207.81,-365.36 1141.22,-355.97"/>
<polygon fill="#63b8ff" stroke="#63b8ff" points="1407.56,-399.26 1417.99,-397.39 1408.67,-392.34 1407.56,-399.26"/>
</a>
</g>
</g>
<!-- Node31&#45;&gt;Node5 -->
<g id="edge50_Node000031_Node000005" class="edge">
<title>Node31&#45;&gt;Node5</title>
<g id="a_edge50_Node000031_Node000005"><a xlink:title=" ">
<path fill="none" stroke="#63b8ff" d="M1568.21,-395.74C1410.4,-374.41 1236.35,-359.13 1141.05,-351.47"/>
<polygon fill="#63b8ff" stroke="#63b8ff" points="1568.2,-399.27 1578.58,-397.16 1569.15,-392.34 1568.2,-399.27"/>
</a>
</g>
</g>
<!-- Node32&#45;&gt;Node5 -->
<g id="edge53_Node000032_Node000005" class="edge">
<title>Node32&#45;&gt;Node5</title>
<g id="a_edge53_Node000032_Node000005"><a xlink:title=" ">
<path fill="none" stroke="#63b8ff" d="M1729.49,-395.82C1509.95,-368.84 1261.14,-354.83 1141.24,-349.11"/>
<polygon fill="#63b8ff" stroke="#63b8ff" points="1729.24,-399.32 1739.59,-397.07 1730.1,-392.37 1729.24,-399.32"/>
</a>
</g>
</g>
</g>
</svg>
