<?xml version="1.0" encoding="UTF-8" standalone="no"?>
<!DOCTYPE svg PUBLIC "-//W3C//DTD SVG 1.1//EN"
 "http://www.w3.org/Graphics/SVG/1.1/DTD/svg11.dtd">
<!-- Generated by graphviz version 2.43.0 (0)
 -->
<!-- Title: userver/storages/postgres/io/buffer_io.hpp Pages: 1 -->
<svg width="2242pt" height="632pt"
 viewBox="0.00 0.00 2242.00 632.00" xmlns="http://www.w3.org/2000/svg" xmlns:xlink="http://www.w3.org/1999/xlink">
<g id="graph0" class="graph" transform="scale(1 1) rotate(0) translate(4 628)">
<title>userver/storages/postgres/io/buffer_io.hpp</title>
<!-- Node1 -->
<g id="Node000001" class="node">
<title>Node1</title>
<g id="a_Node000001"><a xlink:title="I/O buffer helpers.">
<polygon fill="#999999" stroke="#666666" points="1249,-624 1106,-624 1106,-594 1249,-594 1249,-624"/>
<text text-anchor="start" x="1114" y="-612" font-family="Helvetica,sans-Serif" font-size="10.00">userver/storages/postgres</text>
<text text-anchor="middle" x="1177.5" y="-601" font-family="Helvetica,sans-Serif" font-size="10.00">/io/buffer_io.hpp</text>
</a>
</g>
</g>
<!-- Node2 -->
<g id="Node000002" class="node">
<title>Node2</title>
<g id="a_Node000002"><a xlink:href="../../d6/d31/bitstring_8hpp.html" target="_top" xlink:title="storages::postgres::BitString I/O support">
<polygon fill="white" stroke="#666666" points="143,-558 0,-558 0,-528 143,-528 143,-558"/>
<text text-anchor="start" x="8" y="-546" font-family="Helvetica,sans-Serif" font-size="10.00">userver/storages/postgres</text>
<text text-anchor="middle" x="71.5" y="-535" font-family="Helvetica,sans-Serif" font-size="10.00">/io/bitstring.hpp</text>
</a>
</g>
</g>
<!-- Node1&#45;&gt;Node2 -->
<g id="edge1_Node000001_Node000002" class="edge">
<title>Node1&#45;&gt;Node2</title>
<g id="a_edge1_Node000001_Node000002"><a xlink:title=" ">
<path fill="none" stroke="#63b8ff" d="M1095.81,-607.11C922.46,-604.53 505.19,-594.7 157.5,-558 152.84,-557.51 148.04,-556.93 143.21,-556.29"/>
<polygon fill="#63b8ff" stroke="#63b8ff" points="1095.82,-610.61 1105.87,-607.25 1095.92,-603.61 1095.82,-610.61"/>
</a>
</g>
</g>
<!-- Node3 -->
<g id="Node000003" class="node">
<title>Node3</title>
<g id="a_Node000003"><a xlink:href="../../dd/d1d/boost__multiprecision_8hpp.html" target="_top" xlink:title="boost::multiprecision I/O support">
<polygon fill="white" stroke="#666666" points="516,-492 361,-492 361,-462 516,-462 516,-492"/>
<text text-anchor="start" x="369" y="-480" font-family="Helvetica,sans-Serif" font-size="10.00">userver/storages/postgres</text>
<text text-anchor="middle" x="438.5" y="-469" font-family="Helvetica,sans-Serif" font-size="10.00">/io/boost_multiprecision.hpp</text>
</a>
</g>
</g>
<!-- Node1&#45;&gt;Node3 -->
<g id="edge2_Node000001_Node000003" class="edge">
<title>Node1&#45;&gt;Node3</title>
<g id="a_edge2_Node000001_Node000003"><a xlink:title=" ">
<path fill="none" stroke="#63b8ff" d="M1095.58,-608.4C943.71,-608.06 624.78,-601.92 524.5,-558 491.44,-543.52 462.98,-510.82 448.57,-492.02"/>
<polygon fill="#63b8ff" stroke="#63b8ff" points="1095.78,-611.9 1105.78,-608.42 1095.79,-604.9 1095.78,-611.9"/>
</a>
</g>
</g>
<!-- Node4 -->
<g id="Node000004" class="node">
<title>Node4</title>
<g id="a_Node000004"><a xlink:href="../../d0/d1b/bytea_8hpp.html" target="_top" xlink:title="storages::postgres::Bytea I/O support">
<polygon fill="white" stroke="#666666" points="2048,-426 1905,-426 1905,-396 2048,-396 2048,-426"/>
<text text-anchor="start" x="1913" y="-414" font-family="Helvetica,sans-Serif" font-size="10.00">userver/storages/postgres</text>
<text text-anchor="middle" x="1976.5" y="-403" font-family="Helvetica,sans-Serif" font-size="10.00">/io/bytea.hpp</text>
</a>
</g>
</g>
<!-- Node1&#45;&gt;Node4 -->
<g id="edge3_Node000001_Node000004" class="edge">
<title>Node1&#45;&gt;Node4</title>
<g id="a_edge3_Node000001_Node000004"><a xlink:title=" ">
<path fill="none" stroke="#63b8ff" d="M1259.13,-605.27C1348,-600.78 1493.72,-588.96 1615.5,-558 1745.23,-525.01 1890.24,-455.72 1949.28,-426.01"/>
<polygon fill="#63b8ff" stroke="#63b8ff" points="1258.93,-601.77 1249.11,-605.75 1259.27,-608.76 1258.93,-601.77"/>
</a>
</g>
</g>
<!-- Node18 -->
<g id="Node000018" class="node">
<title>Node18</title>
<g id="a_Node000018"><a xlink:href="../../d6/db8/chrono_8hpp.html" target="_top" xlink:title="Timestamp (std::chrono::*) I/O support.">
<polygon fill="white" stroke="#666666" points="603,-426 460,-426 460,-396 603,-396 603,-426"/>
<text text-anchor="start" x="468" y="-414" font-family="Helvetica,sans-Serif" font-size="10.00">userver/storages/postgres</text>
<text text-anchor="middle" x="531.5" y="-403" font-family="Helvetica,sans-Serif" font-size="10.00">/io/chrono.hpp</text>
</a>
</g>
</g>
<!-- Node1&#45;&gt;Node18 -->
<g id="edge30_Node000001_Node000018" class="edge">
<title>Node1&#45;&gt;Node18</title>
<g id="a_edge30_Node000001_Node000018"><a xlink:title=" ">
<path fill="none" stroke="#63b8ff" d="M1095.69,-605.63C921.13,-600.13 517.13,-584.86 382.5,-558 294.01,-540.34 242.92,-565.45 190.5,-492 182.75,-481.15 181.78,-472.09 190.5,-462 224.58,-422.55 370.25,-413.64 459.82,-411.97"/>
<polygon fill="#63b8ff" stroke="#63b8ff" points="1095.74,-609.14 1105.84,-605.95 1095.95,-602.14 1095.74,-609.14"/>
</a>
</g>
</g>
<!-- Node19 -->
<g id="Node000019" class="node">
<title>Node19</title>
<g id="a_Node000019"><a xlink:href="../../d5/d3a/postgresql_2include_2userver_2storages_2postgres_2io_2date_8hpp.html" target="_top" xlink:title="utils::datetime::Date I/O support">
<polygon fill="white" stroke="#666666" points="1912,-558 1769,-558 1769,-528 1912,-528 1912,-558"/>
<text text-anchor="start" x="1777" y="-546" font-family="Helvetica,sans-Serif" font-size="10.00">userver/storages/postgres</text>
<text text-anchor="middle" x="1840.5" y="-535" font-family="Helvetica,sans-Serif" font-size="10.00">/io/date.hpp</text>
</a>
</g>
</g>
<!-- Node1&#45;&gt;Node19 -->
<g id="edge33_Node000001_Node000019" class="edge">
<title>Node1&#45;&gt;Node19</title>
<g id="a_edge33_Node000001_Node000019"><a xlink:title=" ">
<path fill="none" stroke="#63b8ff" d="M1259.4,-602.84C1371.44,-595.35 1578.64,-579.9 1754.5,-558 1759.15,-557.42 1763.94,-556.78 1768.76,-556.09"/>
<polygon fill="#63b8ff" stroke="#63b8ff" points="1258.94,-599.37 1249.19,-603.52 1259.4,-606.35 1258.94,-599.37"/>
</a>
</g>
</g>
<!-- Node20 -->
<g id="Node000020" class="node">
<title>Node20</title>
<g id="a_Node000020"><a xlink:href="../../df/dbe/postgresql_2include_2userver_2storages_2postgres_2io_2decimal64_8hpp.html" target="_top" xlink:title="decimal64::Decimal I/O support">
<polygon fill="white" stroke="#666666" points="677,-492 534,-492 534,-462 677,-462 677,-492"/>
<text text-anchor="start" x="542" y="-480" font-family="Helvetica,sans-Serif" font-size="10.00">userver/storages/postgres</text>
<text text-anchor="middle" x="605.5" y="-469" font-family="Helvetica,sans-Serif" font-size="10.00">/io/decimal64.hpp</text>
</a>
</g>
</g>
<!-- Node1&#45;&gt;Node20 -->
<g id="edge34_Node000001_Node000020" class="edge">
<title>Node1&#45;&gt;Node20</title>
<g id="a_edge34_Node000001_Node000020"><a xlink:title=" ">
<path fill="none" stroke="#63b8ff" d="M1095.5,-602.65C1019.78,-596.37 904.68,-583.41 807.5,-558 743.82,-541.35 673.1,-510.23 634.52,-492.1"/>
<polygon fill="#63b8ff" stroke="#63b8ff" points="1095.67,-606.18 1105.92,-603.5 1096.23,-599.2 1095.67,-606.18"/>
</a>
</g>
</g>
<!-- Node21 -->
<g id="Node000021" class="node">
<title>Node21</title>
<g id="a_Node000021"><a xlink:href="../../d5/d23/enum__types_8hpp.html" target="_top" xlink:title="Enum I/O support.">
<polygon fill="white" stroke="#666666" points="942,-426 799,-426 799,-396 942,-396 942,-426"/>
<text text-anchor="start" x="807" y="-414" font-family="Helvetica,sans-Serif" font-size="10.00">userver/storages/postgres</text>
<text text-anchor="middle" x="870.5" y="-403" font-family="Helvetica,sans-Serif" font-size="10.00">/io/enum_types.hpp</text>
</a>
</g>
</g>
<!-- Node1&#45;&gt;Node21 -->
<g id="edge36_Node000001_Node000021" class="edge">
<title>Node1&#45;&gt;Node21</title>
<g id="a_edge36_Node000001_Node000021"><a xlink:title=" ">
<path fill="none" stroke="#63b8ff" d="M1095.91,-597.37C1029.18,-584.24 937.62,-555.28 885.5,-492 870.05,-473.24 868.59,-443.57 869.29,-426.13"/>
<polygon fill="#63b8ff" stroke="#63b8ff" points="1095.5,-600.85 1105.98,-599.26 1096.8,-593.97 1095.5,-600.85"/>
</a>
</g>
</g>
<!-- Node22 -->
<g id="Node000022" class="node">
<title>Node22</title>
<g id="a_Node000022"><a xlink:href="../../da/d98/field__buffer_8hpp_source.html" target="_top" xlink:title=" ">
<polygon fill="white" stroke="#666666" points="1249,-558 1106,-558 1106,-528 1249,-528 1249,-558"/>
<text text-anchor="start" x="1114" y="-546" font-family="Helvetica,sans-Serif" font-size="10.00">userver/storages/postgres</text>
<text text-anchor="middle" x="1177.5" y="-535" font-family="Helvetica,sans-Serif" font-size="10.00">/io/field_buffer.hpp</text>
</a>
</g>
</g>
<!-- Node1&#45;&gt;Node22 -->
<g id="edge38_Node000001_Node000022" class="edge">
<title>Node1&#45;&gt;Node22</title>
<g id="a_edge38_Node000001_Node000022"><a xlink:title=" ">
<path fill="none" stroke="#63b8ff" d="M1177.5,-583.54C1177.5,-574.96 1177.5,-565.61 1177.5,-558.16"/>
<polygon fill="#63b8ff" stroke="#63b8ff" points="1174,-583.8 1177.5,-593.8 1181,-583.8 1174,-583.8"/>
</a>
</g>
</g>
<!-- Node28 -->
<g id="Node000028" class="node">
<title>Node28</title>
<g id="a_Node000028"><a xlink:href="../../d9/d6e/transform__io_8hpp_source.html" target="_top" xlink:title=" ">
<polygon fill="white" stroke="#666666" points="838,-492 695,-492 695,-462 838,-462 838,-492"/>
<text text-anchor="start" x="703" y="-480" font-family="Helvetica,sans-Serif" font-size="10.00">userver/storages/postgres</text>
<text text-anchor="middle" x="766.5" y="-469" font-family="Helvetica,sans-Serif" font-size="10.00">/io/transform_io.hpp</text>
</a>
</g>
</g>
<!-- Node1&#45;&gt;Node28 -->
<g id="edge63_Node000001_Node000028" class="edge">
<title>Node1&#45;&gt;Node28</title>
<g id="a_edge63_Node000001_Node000028"><a xlink:title=" ">
<path fill="none" stroke="#63b8ff" d="M1095.77,-600.95C1013.91,-592.91 894.24,-578.21 852.5,-558 820.38,-542.45 791.99,-510.77 777.23,-492.29"/>
<polygon fill="#63b8ff" stroke="#63b8ff" points="1095.52,-604.44 1105.81,-601.92 1096.2,-597.47 1095.52,-604.44"/>
</a>
</g>
</g>
<!-- Node29 -->
<g id="Node000029" class="node">
<title>Node29</title>
<g id="a_Node000029"><a xlink:href="../../dc/de2/interval_8hpp.html" target="_top" xlink:title="Time intervals I/O support.">
<polygon fill="white" stroke="#666666" points="343,-492 200,-492 200,-462 343,-462 343,-492"/>
<text text-anchor="start" x="208" y="-480" font-family="Helvetica,sans-Serif" font-size="10.00">userver/storages/postgres</text>
<text text-anchor="middle" x="271.5" y="-469" font-family="Helvetica,sans-Serif" font-size="10.00">/io/interval.hpp</text>
</a>
</g>
</g>
<!-- Node1&#45;&gt;Node29 -->
<g id="edge50_Node000001_Node000029" class="edge">
<title>Node1&#45;&gt;Node29</title>
<g id="a_edge50_Node000001_Node000029"><a xlink:title=" ">
<path fill="none" stroke="#63b8ff" d="M1095.8,-605.2C937.4,-599.27 593.95,-583.83 478.5,-558 412.14,-543.15 338.89,-510.75 299.79,-492.06"/>
<polygon fill="#63b8ff" stroke="#63b8ff" points="1095.84,-608.7 1105.96,-605.58 1096.1,-601.71 1095.84,-608.7"/>
</a>
</g>
</g>
<!-- Node30 -->
<g id="Node000030" class="node">
<title>Node30</title>
<g id="a_Node000030"><a xlink:href="../../d1/dd2/postgresql_2include_2userver_2storages_2postgres_2io_2ip_8hpp_source.html" target="_top" xlink:title=" ">
<polygon fill="white" stroke="#666666" points="2073,-558 1930,-558 1930,-528 2073,-528 2073,-558"/>
<text text-anchor="start" x="1938" y="-546" font-family="Helvetica,sans-Serif" font-size="10.00">userver/storages/postgres</text>
<text text-anchor="middle" x="2001.5" y="-535" font-family="Helvetica,sans-Serif" font-size="10.00">/io/ip.hpp</text>
</a>
</g>
</g>
<!-- Node1&#45;&gt;Node30 -->
<g id="edge52_Node000001_Node000030" class="edge">
<title>Node1&#45;&gt;Node30</title>
<g id="a_edge52_Node000001_Node000030"><a xlink:title=" ">
<path fill="none" stroke="#63b8ff" d="M1259.05,-605.35C1396.24,-600.26 1681.7,-586.96 1921.5,-558 1924.16,-557.68 1926.87,-557.33 1929.6,-556.95"/>
<polygon fill="#63b8ff" stroke="#63b8ff" points="1258.9,-601.86 1249.04,-605.72 1259.16,-608.85 1258.9,-601.86"/>
</a>
</g>
</g>
<!-- Node31 -->
<g id="Node000031" class="node">
<title>Node31</title>
<g id="a_Node000031"><a xlink:href="../../d3/d98/postgresql_2include_2userver_2storages_2postgres_2io_2macaddr_8hpp.html" target="_top" xlink:title="utils::Macaddr and utils::Macaddr8 I/O support">
<polygon fill="white" stroke="#666666" points="2234,-558 2091,-558 2091,-528 2234,-528 2234,-558"/>
<text text-anchor="start" x="2099" y="-546" font-family="Helvetica,sans-Serif" font-size="10.00">userver/storages/postgres</text>
<text text-anchor="middle" x="2162.5" y="-535" font-family="Helvetica,sans-Serif" font-size="10.00">/io/macaddr.hpp</text>
</a>
</g>
</g>
<!-- Node1&#45;&gt;Node31 -->
<g id="edge53_Node000001_Node000031" class="edge">
<title>Node1&#45;&gt;Node31</title>
<g id="a_edge53_Node000001_Node000031"><a xlink:title=" ">
<path fill="none" stroke="#63b8ff" d="M1259.19,-606.71C1418.2,-603.5 1780.19,-592.68 2082.5,-558 2085.16,-557.69 2087.87,-557.36 2090.6,-557"/>
<polygon fill="#63b8ff" stroke="#63b8ff" points="1258.95,-603.22 1249.02,-606.91 1259.08,-610.22 1258.95,-603.22"/>
</a>
</g>
</g>
<!-- Node32 -->
<g id="Node000032" class="node">
<title>Node32</title>
<g id="a_Node000032"><a xlink:href="../../d9/d3d/numeric__data_8hpp_source.html" target="_top" xlink:title=" ">
<polygon fill="white" stroke="#666666" points="677,-558 534,-558 534,-528 677,-528 677,-558"/>
<text text-anchor="start" x="542" y="-546" font-family="Helvetica,sans-Serif" font-size="10.00">userver/storages/postgres</text>
<text text-anchor="middle" x="605.5" y="-535" font-family="Helvetica,sans-Serif" font-size="10.00">/io/numeric_data.hpp</text>
</a>
</g>
</g>
<!-- Node1&#45;&gt;Node32 -->
<g id="edge54_Node000001_Node000032" class="edge">
<title>Node1&#45;&gt;Node32</title>
<g id="a_edge54_Node000001_Node000032"><a xlink:title=" ">
<path fill="none" stroke="#63b8ff" d="M1095.68,-598.85C983.5,-586.29 783.74,-563.94 677.15,-552.02"/>
<polygon fill="#63b8ff" stroke="#63b8ff" points="1095.6,-602.36 1105.92,-599.99 1096.38,-595.4 1095.6,-602.36"/>
</a>
</g>
</g>
<!-- Node33 -->
<g id="Node000033" class="node">
<title>Node33</title>
<g id="a_Node000033"><a xlink:href="../../db/dd5/optional_8hpp.html" target="_top" xlink:title="Optional values I/O support.">
<polygon fill="white" stroke="#666666" points="1404,-426 1261,-426 1261,-396 1404,-396 1404,-426"/>
<text text-anchor="start" x="1269" y="-414" font-family="Helvetica,sans-Serif" font-size="10.00">userver/storages/postgres</text>
<text text-anchor="middle" x="1332.5" y="-403" font-family="Helvetica,sans-Serif" font-size="10.00">/io/optional.hpp</text>
</a>
</g>
</g>
<!-- Node1&#45;&gt;Node33 -->
<g id="edge57_Node000001_Node000033" class="edge">
<title>Node1&#45;&gt;Node33</title>
<g id="a_edge57_Node000001_Node000033"><a xlink:title=" ">
<path fill="none" stroke="#63b8ff" d="M1259.37,-595.43C1362.95,-577.66 1532.35,-541.73 1569.5,-492 1577.48,-481.32 1577.9,-472.36 1569.5,-462 1564.18,-455.44 1472.09,-437.4 1404.3,-424.89"/>
<polygon fill="#63b8ff" stroke="#63b8ff" points="1258.52,-592.02 1249.25,-597.14 1259.69,-598.92 1258.52,-592.02"/>
</a>
</g>
</g>
<!-- Node34 -->
<g id="Node000034" class="node">
<title>Node34</title>
<g id="a_Node000034"><a xlink:href="../../d7/da7/postgresql_2include_2userver_2storages_2postgres_2io_2strong__typedef_8hpp.html" target="_top" xlink:title="utils::StrongTypedef I/O support">
<polygon fill="white" stroke="#666666" points="1565,-426 1422,-426 1422,-396 1565,-396 1565,-426"/>
<text text-anchor="start" x="1430" y="-414" font-family="Helvetica,sans-Serif" font-size="10.00">userver/storages/postgres</text>
<text text-anchor="middle" x="1493.5" y="-403" font-family="Helvetica,sans-Serif" font-size="10.00">/io/strong_typedef.hpp</text>
</a>
</g>
</g>
<!-- Node1&#45;&gt;Node34 -->
<g id="edge59_Node000001_Node000034" class="edge">
<title>Node1&#45;&gt;Node34</title>
<g id="a_edge59_Node000001_Node000034"><a xlink:title=" ">
<path fill="none" stroke="#63b8ff" d="M1259.34,-604.64C1323.83,-599.71 1414.98,-587.61 1489.5,-558 1537.96,-538.75 1562.11,-538.09 1586.5,-492 1592.74,-480.21 1593.34,-473.44 1586.5,-462 1576.53,-445.32 1558.87,-433.88 1541.6,-426.2"/>
<polygon fill="#63b8ff" stroke="#63b8ff" points="1258.95,-601.16 1249.23,-605.37 1259.46,-608.14 1258.95,-601.16"/>
</a>
</g>
</g>
<!-- Node35 -->
<g id="Node000035" class="node">
<title>Node35</title>
<g id="a_Node000035"><a xlink:href="../../d5/d8e/postgresql_2include_2userver_2storages_2postgres_2io_2time__of__day_8hpp.html" target="_top" xlink:title="utils::datetime::TimeOfDay I/O support">
<polygon fill="white" stroke="#666666" points="1726,-426 1583,-426 1583,-396 1726,-396 1726,-426"/>
<text text-anchor="start" x="1591" y="-414" font-family="Helvetica,sans-Serif" font-size="10.00">userver/storages/postgres</text>
<text text-anchor="middle" x="1654.5" y="-403" font-family="Helvetica,sans-Serif" font-size="10.00">/io/time_of_day.hpp</text>
</a>
</g>
</g>
<!-- Node1&#45;&gt;Node35 -->
<g id="edge61_Node000001_Node000035" class="edge">
<title>Node1&#45;&gt;Node35</title>
<g id="a_edge61_Node000001_Node000035"><a xlink:title=" ">
<path fill="none" stroke="#63b8ff" d="M1259.56,-602.63C1350.12,-595.65 1489.31,-581.49 1536.5,-558 1594.56,-529.1 1633.66,-456.91 1648.19,-426.19"/>
<polygon fill="#63b8ff" stroke="#63b8ff" points="1259.03,-599.16 1249.32,-603.41 1259.55,-606.14 1259.03,-599.16"/>
</a>
</g>
</g>
<!-- Node36 -->
<g id="Node000036" class="node">
<title>Node36</title>
<g id="a_Node000036"><a xlink:href="../../d7/db4/uuid_8hpp.html" target="_top" xlink:title="UUID (boost::uuids::uuid) I/O support.">
<polygon fill="white" stroke="#666666" points="1887,-426 1744,-426 1744,-396 1887,-396 1887,-426"/>
<text text-anchor="start" x="1752" y="-414" font-family="Helvetica,sans-Serif" font-size="10.00">userver/storages/postgres</text>
<text text-anchor="middle" x="1815.5" y="-403" font-family="Helvetica,sans-Serif" font-size="10.00">/io/uuid.hpp</text>
</a>
</g>
</g>
<!-- Node1&#45;&gt;Node36 -->
<g id="edge64_Node000001_Node000036" class="edge">
<title>Node1&#45;&gt;Node36</title>
<g id="a_edge64_Node000001_Node000036"><a xlink:title=" ">
<path fill="none" stroke="#63b8ff" d="M1259.3,-607.58C1340.44,-604.88 1467.24,-594.42 1570.5,-558 1647.27,-530.92 1656.33,-503.28 1726.5,-462 1747.58,-449.6 1771.8,-436.04 1789.64,-426.17"/>
<polygon fill="#63b8ff" stroke="#63b8ff" points="1259.03,-604.09 1249.14,-607.89 1259.24,-611.09 1259.03,-604.09"/>
</a>
</g>
</g>
<!-- Node5 -->
<g id="Node000005" class="node">
<title>Node5</title>
<g id="a_Node000005"><a xlink:href="../../de/d7f/supported__types_8hpp_source.html" target="_top" xlink:title=" ">
<polygon fill="white" stroke="#666666" points="1224,-360 1081,-360 1081,-330 1224,-330 1224,-360"/>
<text text-anchor="start" x="1089" y="-348" font-family="Helvetica,sans-Serif" font-size="10.00">userver/storages/postgres</text>
<text text-anchor="middle" x="1152.5" y="-337" font-family="Helvetica,sans-Serif" font-size="10.00">/io/supported_types.hpp</text>
</a>
</g>
</g>
<!-- Node4&#45;&gt;Node5 -->
<g id="edge4_Node000004_Node000005" class="edge">
<title>Node4&#45;&gt;Node5</title>
<g id="a_edge4_Node000004_Node000005"><a xlink:title=" ">
<path fill="none" stroke="#63b8ff" d="M1894.53,-395.84C1642.98,-365.97 1355.17,-353.02 1224.04,-348.28"/>
<polygon fill="#63b8ff" stroke="#63b8ff" points="1894.25,-399.33 1904.6,-397.05 1895.08,-392.38 1894.25,-399.33"/>
</a>
</g>
</g>
<!-- Node6 -->
<g id="Node000006" class="node">
<title>Node6</title>
<g id="a_Node000006"><a xlink:href="../../d2/d3f/query__parameters_8hpp_source.html" target="_top" xlink:title=" ">
<polygon fill="white" stroke="#666666" points="900,-294 739,-294 739,-264 900,-264 900,-294"/>
<text text-anchor="start" x="747" y="-282" font-family="Helvetica,sans-Serif" font-size="10.00">userver/storages/postgres</text>
<text text-anchor="middle" x="819.5" y="-271" font-family="Helvetica,sans-Serif" font-size="10.00">/detail/query_parameters.hpp</text>
</a>
</g>
</g>
<!-- Node5&#45;&gt;Node6 -->
<g id="edge5_Node000005_Node000006" class="edge">
<title>Node5&#45;&gt;Node6</title>
<g id="a_edge5_Node000005_Node000006"><a xlink:title=" ">
<path fill="none" stroke="#63b8ff" d="M1070.66,-328.27C1016.09,-317.78 944.99,-304.12 892.37,-294"/>
<polygon fill="#63b8ff" stroke="#63b8ff" points="1070.17,-331.74 1080.65,-330.19 1071.49,-324.87 1070.17,-331.74"/>
</a>
</g>
</g>
<!-- Node15 -->
<g id="Node000015" class="node">
<title>Node15</title>
<g id="a_Node000015"><a xlink:href="../../de/d1d/result__set_8hpp.html" target="_top" xlink:title="Result accessors.">
<polygon fill="white" stroke="#666666" points="1240,-294 1097,-294 1097,-264 1240,-264 1240,-294"/>
<text text-anchor="start" x="1105" y="-282" font-family="Helvetica,sans-Serif" font-size="10.00">userver/storages/postgres</text>
<text text-anchor="middle" x="1168.5" y="-271" font-family="Helvetica,sans-Serif" font-size="10.00">/result_set.hpp</text>
</a>
</g>
</g>
<!-- Node5&#45;&gt;Node15 -->
<g id="edge20_Node000005_Node000015" class="edge">
<title>Node5&#45;&gt;Node15</title>
<g id="a_edge20_Node000005_Node000015"><a xlink:title=" ">
<path fill="none" stroke="#63b8ff" d="M1158.54,-319.83C1160.71,-311.17 1163.08,-301.7 1164.96,-294.16"/>
<polygon fill="#63b8ff" stroke="#63b8ff" points="1155.08,-319.25 1156.05,-329.8 1161.87,-320.94 1155.08,-319.25"/>
</a>
</g>
</g>
<!-- Node7 -->
<g id="Node000007" class="node">
<title>Node7</title>
<g id="a_Node000007"><a xlink:href="../../d4/dd3/non__transaction_8hpp_source.html" target="_top" xlink:title=" ">
<polygon fill="white" stroke="#666666" points="932,-162 783,-162 783,-132 932,-132 932,-162"/>
<text text-anchor="start" x="791" y="-150" font-family="Helvetica,sans-Serif" font-size="10.00">userver/storages/postgres</text>
<text text-anchor="middle" x="857.5" y="-139" font-family="Helvetica,sans-Serif" font-size="10.00">/detail/non_transaction.hpp</text>
</a>
</g>
</g>
<!-- Node6&#45;&gt;Node7 -->
<g id="edge6_Node000006_Node000007" class="edge">
<title>Node6&#45;&gt;Node7</title>
<g id="a_edge6_Node000006_Node000007"><a xlink:title=" ">
<path fill="none" stroke="#63b8ff" d="M800.55,-255.37C789.31,-239.05 778.96,-216.69 788.5,-198 796.5,-182.32 811.97,-170.41 826.24,-162.16"/>
<polygon fill="#63b8ff" stroke="#63b8ff" points="798,-257.8 806.76,-263.75 803.62,-253.63 798,-257.8"/>
</a>
</g>
</g>
<!-- Node11 -->
<g id="Node000011" class="node">
<title>Node11</title>
<g id="a_Node000011"><a xlink:href="../../db/d6e/parameter__store_8hpp.html" target="_top" xlink:title="Class for dynamic PostgreSQL parameter list construction.">
<polygon fill="white" stroke="#666666" points="741,-228 598,-228 598,-198 741,-198 741,-228"/>
<text text-anchor="start" x="606" y="-216" font-family="Helvetica,sans-Serif" font-size="10.00">userver/storages/postgres</text>
<text text-anchor="middle" x="669.5" y="-205" font-family="Helvetica,sans-Serif" font-size="10.00">/parameter_store.hpp</text>
</a>
</g>
</g>
<!-- Node6&#45;&gt;Node11 -->
<g id="edge10_Node000006_Node000011" class="edge">
<title>Node6&#45;&gt;Node11</title>
<g id="a_edge10_Node000006_Node000011"><a xlink:title=" ">
<path fill="none" stroke="#63b8ff" d="M777.12,-259.92C753.42,-249.8 724.31,-237.38 702.34,-228.01"/>
<polygon fill="#63b8ff" stroke="#63b8ff" points="776.01,-263.25 786.58,-263.95 778.76,-256.81 776.01,-263.25"/>
</a>
</g>
</g>
<!-- Node12 -->
<g id="Node000012" class="node">
<title>Node12</title>
<g id="a_Node000012"><a xlink:href="../../da/deb/postgresql_2include_2userver_2storages_2postgres_2transaction_8hpp.html" target="_top" xlink:title="Transactions.">
<polygon fill="white" stroke="#666666" points="765,-162 622,-162 622,-132 765,-132 765,-162"/>
<text text-anchor="start" x="630" y="-150" font-family="Helvetica,sans-Serif" font-size="10.00">userver/storages/postgres</text>
<text text-anchor="middle" x="693.5" y="-139" font-family="Helvetica,sans-Serif" font-size="10.00">/transaction.hpp</text>
</a>
</g>
</g>
<!-- Node6&#45;&gt;Node12 -->
<g id="edge19_Node000006_Node000012" class="edge">
<title>Node6&#45;&gt;Node12</title>
<g id="a_edge19_Node000006_Node000012"><a xlink:title=" ">
<path fill="none" stroke="#63b8ff" d="M728.8,-269.96C671.98,-262.84 606.27,-250.03 588.5,-228 565.91,-200 610.52,-176.25 648.4,-162.07"/>
<polygon fill="#63b8ff" stroke="#63b8ff" points="728.57,-273.46 738.92,-271.19 729.41,-266.51 728.57,-273.46"/>
</a>
</g>
</g>
<!-- Node13 -->
<g id="Node000013" class="node">
<title>Node13</title>
<g id="a_Node000013"><a xlink:href="../../d2/de3/portal_8hpp_source.html" target="_top" xlink:title=" ">
<polygon fill="white" stroke="#666666" points="941,-228 798,-228 798,-198 941,-198 941,-228"/>
<text text-anchor="start" x="806" y="-216" font-family="Helvetica,sans-Serif" font-size="10.00">userver/storages/postgres</text>
<text text-anchor="middle" x="869.5" y="-205" font-family="Helvetica,sans-Serif" font-size="10.00">/portal.hpp</text>
</a>
</g>
</g>
<!-- Node6&#45;&gt;Node13 -->
<g id="edge15_Node000006_Node000013" class="edge">
<title>Node6&#45;&gt;Node13</title>
<g id="a_edge15_Node000006_Node000013"><a xlink:title=" ">
<path fill="none" stroke="#63b8ff" d="M836.84,-255.81C844,-246.64 852.1,-236.28 858.43,-228.16"/>
<polygon fill="#63b8ff" stroke="#63b8ff" points="834,-253.76 830.6,-263.8 839.51,-258.07 834,-253.76"/>
</a>
</g>
</g>
<!-- Node14 -->
<g id="Node000014" class="node">
<title>Node14</title>
<g id="a_Node000014"><a xlink:href="../../d8/d63/query__queue_8hpp.html" target="_top" xlink:title="An utility to execute multiple queries in a single network round&#45;trip.">
<polygon fill="white" stroke="#666666" points="1102,-228 959,-228 959,-198 1102,-198 1102,-228"/>
<text text-anchor="start" x="967" y="-216" font-family="Helvetica,sans-Serif" font-size="10.00">userver/storages/postgres</text>
<text text-anchor="middle" x="1030.5" y="-205" font-family="Helvetica,sans-Serif" font-size="10.00">/query_queue.hpp</text>
</a>
</g>
</g>
<!-- Node6&#45;&gt;Node14 -->
<g id="edge17_Node000006_Node000014" class="edge">
<title>Node6&#45;&gt;Node14</title>
<g id="a_edge17_Node000006_Node000014"><a xlink:title=" ">
<path fill="none" stroke="#63b8ff" d="M875.58,-260.99C909.53,-250.69 952.31,-237.72 984.3,-228.01"/>
<polygon fill="#63b8ff" stroke="#63b8ff" points="874.36,-257.7 865.8,-263.95 876.39,-264.4 874.36,-257.7"/>
</a>
</g>
</g>
<!-- Node8 -->
<g id="Node000008" class="node">
<title>Node8</title>
<g id="a_Node000008"><a xlink:href="../../de/dd3/postgresql_2include_2userver_2storages_2postgres_2cluster_8hpp.html" target="_top" xlink:title="Interface for executing queries on a cluster of PostgreSQL servers.">
<polygon fill="white" stroke="#666666" points="897,-96 754,-96 754,-66 897,-66 897,-96"/>
<text text-anchor="start" x="762" y="-84" font-family="Helvetica,sans-Serif" font-size="10.00">userver/storages/postgres</text>
<text text-anchor="middle" x="825.5" y="-73" font-family="Helvetica,sans-Serif" font-size="10.00">/cluster.hpp</text>
</a>
</g>
</g>
<!-- Node7&#45;&gt;Node8 -->
<g id="edge7_Node000007_Node000008" class="edge">
<title>Node7&#45;&gt;Node8</title>
<g id="a_edge7_Node000007_Node000008"><a xlink:title=" ">
<path fill="none" stroke="#63b8ff" d="M845.84,-122.68C841.4,-113.79 836.47,-103.95 832.58,-96.16"/>
<polygon fill="#63b8ff" stroke="#63b8ff" points="842.8,-124.42 850.4,-131.8 849.06,-121.29 842.8,-124.42"/>
</a>
</g>
</g>
<!-- Node9 -->
<g id="Node000009" class="node">
<title>Node9</title>
<g id="a_Node000009"><a xlink:href="../../dc/df7/base__postgres__cache_8hpp.html" target="_top" xlink:title="Caching component for PostgreSQL. See Caching Component for PostgreSQL.">
<polygon fill="white" stroke="#666666" points="660,-30 541,-30 541,0 660,0 660,-30"/>
<text text-anchor="start" x="549" y="-18" font-family="Helvetica,sans-Serif" font-size="10.00">userver/cache/base</text>
<text text-anchor="middle" x="600.5" y="-7" font-family="Helvetica,sans-Serif" font-size="10.00">_postgres_cache.hpp</text>
</a>
</g>
</g>
<!-- Node8&#45;&gt;Node9 -->
<g id="edge8_Node000008_Node000009" class="edge">
<title>Node8&#45;&gt;Node9</title>
<g id="a_edge8_Node000008_Node000009"><a xlink:title=" ">
<path fill="none" stroke="#63b8ff" d="M766.16,-63.12C729.88,-52.8 684.03,-39.76 649.76,-30.01"/>
<polygon fill="#63b8ff" stroke="#63b8ff" points="765.55,-66.59 776.12,-65.95 767.46,-59.85 765.55,-66.59"/>
</a>
</g>
</g>
<!-- Node10 -->
<g id="Node000010" class="node">
<title>Node10</title>
<g id="a_Node000010"><a xlink:href="../../df/d02/postgres_8hpp.html" target="_top" xlink:title=" ">
<polygon fill="white" stroke="#666666" points="897,-30 754,-30 754,0 897,0 897,-30"/>
<text text-anchor="start" x="762" y="-18" font-family="Helvetica,sans-Serif" font-size="10.00">userver/storages/postgres</text>
<text text-anchor="middle" x="825.5" y="-7" font-family="Helvetica,sans-Serif" font-size="10.00">/postgres.hpp</text>
</a>
</g>
</g>
<!-- Node8&#45;&gt;Node10 -->
<g id="edge9_Node000008_Node000010" class="edge">
<title>Node8&#45;&gt;Node10</title>
<g id="a_edge9_Node000008_Node000010"><a xlink:title=" ">
<path fill="none" stroke="#63b8ff" d="M825.5,-55.54C825.5,-46.96 825.5,-37.61 825.5,-30.16"/>
<polygon fill="#63b8ff" stroke="#63b8ff" points="822,-55.8 825.5,-65.8 829,-55.8 822,-55.8"/>
</a>
</g>
</g>
<!-- Node11&#45;&gt;Node7 -->
<g id="edge11_Node000011_Node000007" class="edge">
<title>Node11&#45;&gt;Node7</title>
<g id="a_edge11_Node000011_Node000007"><a xlink:title=" ">
<path fill="none" stroke="#63b8ff" d="M720.25,-194.72C750.37,-184.47 788.08,-171.63 816.34,-162.01"/>
<polygon fill="#63b8ff" stroke="#63b8ff" points="719.1,-191.42 710.76,-197.95 721.35,-198.05 719.1,-191.42"/>
</a>
</g>
</g>
<!-- Node11&#45;&gt;Node12 -->
<g id="edge12_Node000011_Node000012" class="edge">
<title>Node11&#45;&gt;Node12</title>
<g id="a_edge12_Node000011_Node000012"><a xlink:title=" ">
<path fill="none" stroke="#63b8ff" d="M678.35,-188.39C681.66,-179.59 685.3,-169.86 688.19,-162.16"/>
<polygon fill="#63b8ff" stroke="#63b8ff" points="675.06,-187.2 674.83,-197.8 681.61,-189.66 675.06,-187.2"/>
</a>
</g>
</g>
<!-- Node12&#45;&gt;Node8 -->
<g id="edge13_Node000012_Node000008" class="edge">
<title>Node12&#45;&gt;Node8</title>
<g id="a_edge13_Node000012_Node000008"><a xlink:title=" ">
<path fill="none" stroke="#63b8ff" d="M731.63,-127.51C752.34,-117.47 777.53,-105.26 796.6,-96.01"/>
<polygon fill="#63b8ff" stroke="#63b8ff" points="729.94,-124.44 722.47,-131.95 732.99,-130.74 729.94,-124.44"/>
</a>
</g>
</g>
<!-- Node12&#45;&gt;Node10 -->
<g id="edge14_Node000012_Node000010" class="edge">
<title>Node12&#45;&gt;Node10</title>
<g id="a_edge14_Node000012_Node000010"><a xlink:title=" ">
<path fill="none" stroke="#63b8ff" d="M704.74,-122.64C713.79,-105.54 727.73,-82.53 744.5,-66 759.45,-51.27 779.5,-38.85 795.91,-30.07"/>
<polygon fill="#63b8ff" stroke="#63b8ff" points="701.43,-121.44 700,-131.94 707.66,-124.62 701.43,-121.44"/>
</a>
</g>
</g>
<!-- Node13&#45;&gt;Node12 -->
<g id="edge16_Node000013_Node000012" class="edge">
<title>Node13&#45;&gt;Node12</title>
<g id="a_edge16_Node000013_Node000012"><a xlink:title=" ">
<path fill="none" stroke="#63b8ff" d="M821.26,-194.46C793.18,-184.25 758.26,-171.55 732.03,-162.01"/>
<polygon fill="#63b8ff" stroke="#63b8ff" points="820.28,-197.83 830.88,-197.95 822.67,-191.25 820.28,-197.83"/>
</a>
</g>
</g>
<!-- Node14&#45;&gt;Node8 -->
<g id="edge18_Node000014_Node000008" class="edge">
<title>Node14&#45;&gt;Node8</title>
<g id="a_edge18_Node000014_Node000008"><a xlink:title=" ">
<path fill="none" stroke="#63b8ff" d="M1009.98,-190.29C992.68,-172.88 966.63,-148.69 940.5,-132 917.29,-117.18 888.94,-104.79 866.19,-96.06"/>
<polygon fill="#63b8ff" stroke="#63b8ff" points="1007.79,-193.06 1017.29,-197.76 1012.8,-188.16 1007.79,-193.06"/>
</a>
</g>
</g>
<!-- Node15&#45;&gt;Node7 -->
<g id="edge21_Node000015_Node000007" class="edge">
<title>Node15&#45;&gt;Node7</title>
<g id="a_edge21_Node000015_Node000007"><a xlink:title=" ">
<path fill="none" stroke="#63b8ff" d="M1167.74,-253.71C1165.82,-235.69 1160.2,-211.94 1144.5,-198 1113.77,-170.72 1006.41,-157.93 932.09,-152.22"/>
<polygon fill="#63b8ff" stroke="#63b8ff" points="1164.25,-254.08 1168.5,-263.79 1171.23,-253.55 1164.25,-254.08"/>
</a>
</g>
</g>
<!-- Node15&#45;&gt;Node10 -->
<g id="edge26_Node000015_Node000010" class="edge">
<title>Node15&#45;&gt;Node10</title>
<g id="a_edge26_Node000015_Node000010"><a xlink:title=" ">
<path fill="none" stroke="#63b8ff" d="M1173.96,-253.61C1176.36,-236.75 1176.67,-214.49 1166.5,-198 1105.72,-99.48 972.02,-51.1 891.27,-30.01"/>
<polygon fill="#63b8ff" stroke="#63b8ff" points="1170.45,-253.33 1172.17,-263.79 1177.35,-254.54 1170.45,-253.33"/>
</a>
</g>
</g>
<!-- Node15&#45;&gt;Node12 -->
<g id="edge28_Node000015_Node000012" class="edge">
<title>Node15&#45;&gt;Node12</title>
<g id="a_edge28_Node000015_Node000012"><a xlink:title=" ">
<path fill="none" stroke="#63b8ff" d="M1158.61,-254.8C1149.33,-236.11 1133.57,-210.9 1111.5,-198 1046.29,-159.88 848.3,-172.52 773.5,-162 770.85,-161.63 768.15,-161.23 765.42,-160.82"/>
<polygon fill="#63b8ff" stroke="#63b8ff" points="1155.46,-256.32 1162.87,-263.88 1161.79,-253.34 1155.46,-256.32"/>
</a>
</g>
</g>
<!-- Node15&#45;&gt;Node13 -->
<g id="edge25_Node000015_Node000013" class="edge">
<title>Node15&#45;&gt;Node13</title>
<g id="a_edge25_Node000015_Node000013"><a xlink:title=" ">
<path fill="none" stroke="#63b8ff" d="M1093.02,-261.84C1044.31,-251.42 981.57,-237.99 934.96,-228.01"/>
<polygon fill="#63b8ff" stroke="#63b8ff" points="1092.37,-265.28 1102.88,-263.95 1093.84,-258.44 1092.37,-265.28"/>
</a>
</g>
</g>
<!-- Node15&#45;&gt;Node14 -->
<g id="edge27_Node000015_Node000014" class="edge">
<title>Node15&#45;&gt;Node14</title>
<g id="a_edge27_Node000015_Node000014"><a xlink:title=" ">
<path fill="none" stroke="#63b8ff" d="M1128.93,-259.65C1107.23,-249.58 1080.74,-237.3 1060.71,-228.01"/>
<polygon fill="#63b8ff" stroke="#63b8ff" points="1127.67,-262.92 1138.22,-263.95 1130.62,-256.57 1127.67,-262.92"/>
</a>
</g>
</g>
<!-- Node16 -->
<g id="Node000016" class="node">
<title>Node16</title>
<g id="a_Node000016"><a xlink:href="../../d7/d52/typed__rows_8hpp_source.html" target="_top" xlink:title=" ">
<polygon fill="white" stroke="#666666" points="1378,-228 1235,-228 1235,-198 1378,-198 1378,-228"/>
<text text-anchor="start" x="1243" y="-216" font-family="Helvetica,sans-Serif" font-size="10.00">userver/storages/postgres</text>
<text text-anchor="middle" x="1306.5" y="-205" font-family="Helvetica,sans-Serif" font-size="10.00">/detail/typed_rows.hpp</text>
</a>
</g>
</g>
<!-- Node15&#45;&gt;Node16 -->
<g id="edge22_Node000015_Node000016" class="edge">
<title>Node15&#45;&gt;Node16</title>
<g id="a_edge22_Node000015_Node000016"><a xlink:title=" ">
<path fill="none" stroke="#63b8ff" d="M1208.07,-259.65C1229.77,-249.58 1256.26,-237.3 1276.29,-228.01"/>
<polygon fill="#63b8ff" stroke="#63b8ff" points="1206.38,-256.57 1198.78,-263.95 1209.33,-262.92 1206.38,-256.57"/>
</a>
</g>
</g>
<!-- Node17 -->
<g id="Node000017" class="node">
<title>Node17</title>
<g id="a_Node000017"><a xlink:href="../../d1/dee/typed__result__set_8hpp.html" target="_top" xlink:title="Typed PostgreSQL results.">
<polygon fill="white" stroke="#666666" points="1487,-162 1344,-162 1344,-132 1487,-132 1487,-162"/>
<text text-anchor="start" x="1352" y="-150" font-family="Helvetica,sans-Serif" font-size="10.00">userver/storages/postgres</text>
<text text-anchor="middle" x="1415.5" y="-139" font-family="Helvetica,sans-Serif" font-size="10.00">/typed_result_set.hpp</text>
</a>
</g>
</g>
<!-- Node15&#45;&gt;Node17 -->
<g id="edge29_Node000015_Node000017" class="edge">
<title>Node15&#45;&gt;Node17</title>
<g id="a_edge29_Node000015_Node000017"><a xlink:title=" ">
<path fill="none" stroke="#63b8ff" d="M1250.05,-266.5C1300.49,-258.17 1359.11,-245.33 1378.5,-228 1397.59,-210.94 1403.67,-180.11 1408.42,-162.11"/>
<polygon fill="#63b8ff" stroke="#63b8ff" points="1249.4,-263.06 1240.08,-268.11 1250.51,-269.97 1249.4,-263.06"/>
</a>
</g>
</g>
<!-- Node16&#45;&gt;Node17 -->
<g id="edge23_Node000016_Node000017" class="edge">
<title>Node16&#45;&gt;Node17</title>
<g id="a_edge23_Node000016_Node000017"><a xlink:title=" ">
<path fill="none" stroke="#63b8ff" d="M1339.38,-192.69C1356.21,-182.82 1376.31,-171.01 1391.64,-162.01"/>
<polygon fill="#63b8ff" stroke="#63b8ff" points="1337.27,-189.87 1330.42,-197.95 1340.82,-195.91 1337.27,-189.87"/>
</a>
</g>
</g>
<!-- Node17&#45;&gt;Node15 -->
<g id="edge24_Node000017_Node000015" class="edge">
<title>Node17&#45;&gt;Node15</title>
<g id="a_edge24_Node000017_Node000015"><a xlink:title=" ">
<path fill="none" stroke="#63b8ff" d="M1420.6,-172.14C1419.26,-190.08 1412.38,-213.8 1396.5,-228 1373.93,-248.17 1298.19,-262.27 1240.06,-270.24"/>
<polygon fill="#63b8ff" stroke="#63b8ff" points="1424.1,-172.17 1420.77,-162.11 1417.11,-172.05 1424.1,-172.17"/>
</a>
</g>
</g>
<!-- Node18&#45;&gt;Node5 -->
<g id="edge32_Node000018_Node000005" class="edge">
<title>Node18&#45;&gt;Node5</title>
<g id="a_edge32_Node000018_Node000005"><a xlink:title=" ">
<path fill="none" stroke="#63b8ff" d="M613.1,-401.59C735.44,-388.98 964.43,-365.38 1080.74,-353.4"/>
<polygon fill="#63b8ff" stroke="#63b8ff" points="612.63,-398.12 603.04,-402.63 613.35,-405.08 612.63,-398.12"/>
</a>
</g>
</g>
<!-- Node18&#45;&gt;Node9 -->
<g id="edge31_Node000018_Node000009" class="edge">
<title>Node18&#45;&gt;Node9</title>
<g id="a_edge31_Node000018_Node000009"><a xlink:title=" ">
<path fill="none" stroke="#63b8ff" d="M531.5,-385.86C531.5,-359.76 531.5,-316.93 531.5,-280 531.5,-280 531.5,-280 531.5,-146 531.5,-99.24 566.76,-52.9 586.87,-30.28"/>
<polygon fill="#63b8ff" stroke="#63b8ff" points="528,-385.96 531.5,-395.96 535,-385.96 528,-385.96"/>
</a>
</g>
</g>
<!-- Node20&#45;&gt;Node5 -->
<g id="edge35_Node000020_Node000005" class="edge">
<title>Node20&#45;&gt;Node5</title>
<g id="a_edge35_Node000020_Node000005"><a xlink:title=" ">
<path fill="none" stroke="#63b8ff" d="M640.64,-457.26C676.91,-438.76 735.62,-411.11 789.5,-396 888.27,-368.29 1006.63,-355.65 1080.72,-350.09"/>
<polygon fill="#63b8ff" stroke="#63b8ff" points="638.76,-454.29 631.48,-461.99 641.97,-460.51 638.76,-454.29"/>
</a>
</g>
</g>
<!-- Node21&#45;&gt;Node5 -->
<g id="edge37_Node000021_Node000005" class="edge">
<title>Node21&#45;&gt;Node5</title>
<g id="a_edge37_Node000021_Node000005"><a xlink:title=" ">
<path fill="none" stroke="#63b8ff" d="M942.26,-393.71C988.12,-383.31 1046.99,-369.95 1090.76,-360.01"/>
<polygon fill="#63b8ff" stroke="#63b8ff" points="941.36,-390.33 932.39,-395.95 942.91,-397.15 941.36,-390.33"/>
</a>
</g>
</g>
<!-- Node23 -->
<g id="Node000023" class="node">
<title>Node23</title>
<g id="a_Node000023"><a xlink:href="../../d4/d90/array__types_8hpp.html" target="_top" xlink:title="I/O support for arrays (std::array, std::set, std::unordered_set, std::vector)">
<polygon fill="white" stroke="#666666" points="1204,-426 1061,-426 1061,-396 1204,-396 1204,-426"/>
<text text-anchor="start" x="1069" y="-414" font-family="Helvetica,sans-Serif" font-size="10.00">userver/storages/postgres</text>
<text text-anchor="middle" x="1132.5" y="-403" font-family="Helvetica,sans-Serif" font-size="10.00">/io/array_types.hpp</text>
</a>
</g>
</g>
<!-- Node22&#45;&gt;Node23 -->
<g id="edge39_Node000022_Node000023" class="edge">
<title>Node22&#45;&gt;Node23</title>
<g id="a_edge39_Node000022_Node000023"><a xlink:title=" ">
<path fill="none" stroke="#63b8ff" d="M1196.5,-519.53C1207.94,-503.12 1218.52,-480.59 1208.5,-462 1199.81,-445.87 1183.39,-434.1 1168.03,-426.04"/>
<polygon fill="#63b8ff" stroke="#63b8ff" points="1193.38,-517.85 1190.18,-527.95 1198.98,-522.05 1193.38,-517.85"/>
</a>
</g>
</g>
<!-- Node24 -->
<g id="Node000024" class="node">
<title>Node24</title>
<g id="a_Node000024"><a xlink:href="../../d4/dda/composite__types_8hpp.html" target="_top" xlink:title="Composite types I/O support.">
<polygon fill="white" stroke="#666666" points="1560,-492 1417,-492 1417,-462 1560,-462 1560,-492"/>
<text text-anchor="start" x="1425" y="-480" font-family="Helvetica,sans-Serif" font-size="10.00">userver/storages/postgres</text>
<text text-anchor="middle" x="1488.5" y="-469" font-family="Helvetica,sans-Serif" font-size="10.00">/io/composite_types.hpp</text>
</a>
</g>
</g>
<!-- Node22&#45;&gt;Node24 -->
<g id="edge41_Node000022_Node000024" class="edge">
<title>Node22&#45;&gt;Node24</title>
<g id="a_edge41_Node000022_Node000024"><a xlink:title=" ">
<path fill="none" stroke="#63b8ff" d="M1255.69,-525.91C1306.4,-515.47 1371.83,-502.01 1420.41,-492.01"/>
<polygon fill="#63b8ff" stroke="#63b8ff" points="1254.84,-522.51 1245.75,-527.95 1256.25,-529.37 1254.84,-522.51"/>
</a>
</g>
</g>
<!-- Node25 -->
<g id="Node000025" class="node">
<title>Node25</title>
<g id="a_Node000025"><a xlink:href="../../da/d26/geometry__types_8hpp.html" target="_top" xlink:title="Geometry I/O support.">
<polygon fill="white" stroke="#666666" points="1399,-492 1256,-492 1256,-462 1399,-462 1399,-492"/>
<text text-anchor="start" x="1264" y="-480" font-family="Helvetica,sans-Serif" font-size="10.00">userver/storages/postgres</text>
<text text-anchor="middle" x="1327.5" y="-469" font-family="Helvetica,sans-Serif" font-size="10.00">/io/geometry_types.hpp</text>
</a>
</g>
</g>
<!-- Node22&#45;&gt;Node25 -->
<g id="edge43_Node000022_Node000025" class="edge">
<title>Node22&#45;&gt;Node25</title>
<g id="a_edge43_Node000022_Node000025"><a xlink:title=" ">
<path fill="none" stroke="#63b8ff" d="M1219.88,-523.92C1243.58,-513.8 1272.69,-501.38 1294.66,-492.01"/>
<polygon fill="#63b8ff" stroke="#63b8ff" points="1218.24,-520.81 1210.42,-527.95 1220.99,-527.25 1218.24,-520.81"/>
</a>
</g>
</g>
<!-- Node26 -->
<g id="Node000026" class="node">
<title>Node26</title>
<g id="a_Node000026"><a xlink:href="../../dd/d50/json__types_8hpp.html" target="_top" xlink:title="JSON I/O support.">
<polygon fill="white" stroke="#666666" points="1038,-492 895,-492 895,-462 1038,-462 1038,-492"/>
<text text-anchor="start" x="903" y="-480" font-family="Helvetica,sans-Serif" font-size="10.00">userver/storages/postgres</text>
<text text-anchor="middle" x="966.5" y="-469" font-family="Helvetica,sans-Serif" font-size="10.00">/io/json_types.hpp</text>
</a>
</g>
</g>
<!-- Node22&#45;&gt;Node26 -->
<g id="edge44_Node000022_Node000026" class="edge">
<title>Node22&#45;&gt;Node26</title>
<g id="a_edge44_Node000022_Node000026"><a xlink:title=" ">
<path fill="none" stroke="#63b8ff" d="M1121.42,-524.99C1087.47,-514.69 1044.69,-501.72 1012.7,-492.01"/>
<polygon fill="#63b8ff" stroke="#63b8ff" points="1120.61,-528.4 1131.2,-527.95 1122.64,-521.7 1120.61,-528.4"/>
</a>
</g>
</g>
<!-- Node27 -->
<g id="Node000027" class="node">
<title>Node27</title>
<g id="a_Node000027"><a xlink:href="../../d5/d60/range__types_8hpp.html" target="_top" xlink:title="Ranges I/O support.">
<polygon fill="white" stroke="#666666" points="1199,-492 1056,-492 1056,-462 1199,-462 1199,-492"/>
<text text-anchor="start" x="1064" y="-480" font-family="Helvetica,sans-Serif" font-size="10.00">userver/storages/postgres</text>
<text text-anchor="middle" x="1127.5" y="-469" font-family="Helvetica,sans-Serif" font-size="10.00">/io/range_types.hpp</text>
</a>
</g>
</g>
<!-- Node22&#45;&gt;Node27 -->
<g id="edge46_Node000022_Node000027" class="edge">
<title>Node22&#45;&gt;Node27</title>
<g id="a_edge46_Node000022_Node000027"><a xlink:title=" ">
<path fill="none" stroke="#63b8ff" d="M1160.16,-519.81C1153,-510.64 1144.9,-500.28 1138.57,-492.16"/>
<polygon fill="#63b8ff" stroke="#63b8ff" points="1157.49,-522.07 1166.4,-527.8 1163,-517.76 1157.49,-522.07"/>
</a>
</g>
</g>
<!-- Node22&#45;&gt;Node28 -->
<g id="edge48_Node000022_Node000028" class="edge">
<title>Node22&#45;&gt;Node28</title>
<g id="a_edge48_Node000022_Node000028"><a xlink:title=" ">
<path fill="none" stroke="#63b8ff" d="M1096,-529.31C1020.81,-517.6 910.24,-500.38 838.3,-489.18"/>
<polygon fill="#63b8ff" stroke="#63b8ff" points="1095.49,-532.77 1105.91,-530.85 1096.57,-525.86 1095.49,-532.77"/>
</a>
</g>
</g>
<!-- Node23&#45;&gt;Node5 -->
<g id="edge40_Node000023_Node000005" class="edge">
<title>Node23&#45;&gt;Node5</title>
<g id="a_edge40_Node000023_Node000005"><a xlink:title=" ">
<path fill="none" stroke="#63b8ff" d="M1139.97,-386.11C1142.69,-377.38 1145.69,-367.78 1148.07,-360.16"/>
<polygon fill="#63b8ff" stroke="#63b8ff" points="1136.58,-385.21 1136.94,-395.8 1143.26,-387.3 1136.58,-385.21"/>
</a>
</g>
</g>
<!-- Node24&#45;&gt;Node5 -->
<g id="edge42_Node000024_Node000005" class="edge">
<title>Node24&#45;&gt;Node5</title>
<g id="a_edge42_Node000024_Node000005"><a xlink:title=" ">
<path fill="none" stroke="#63b8ff" d="M1407,-460.66C1344.51,-448.57 1266.63,-432.68 1252.5,-426 1247.83,-423.79 1197.16,-382.56 1169.79,-360.18"/>
<polygon fill="#63b8ff" stroke="#63b8ff" points="1406.41,-464.11 1416.89,-462.56 1407.73,-457.23 1406.41,-464.11"/>
</a>
</g>
</g>
<!-- Node26&#45;&gt;Node5 -->
<g id="edge45_Node000026_Node000005" class="edge">
<title>Node26&#45;&gt;Node5</title>
<g id="a_edge45_Node000026_Node000005"><a xlink:title=" ">
<path fill="none" stroke="#63b8ff" d="M983.94,-453.74C998.45,-436.33 1020.4,-412.4 1043.5,-396 1064.72,-380.94 1091.21,-368.66 1112.76,-360.05"/>
<polygon fill="#63b8ff" stroke="#63b8ff" points="981.05,-451.75 977.44,-461.71 986.47,-456.17 981.05,-451.75"/>
</a>
</g>
</g>
<!-- Node27&#45;&gt;Node5 -->
<g id="edge47_Node000027_Node000005" class="edge">
<title>Node27&#45;&gt;Node5</title>
<g id="a_edge47_Node000027_Node000005"><a xlink:title=" ">
<path fill="none" stroke="#63b8ff" d="M1083.49,-456.69C1071.23,-449.01 1059.39,-438.88 1052.5,-426 1046.21,-414.24 1045.49,-407.34 1052.5,-396 1063.01,-378.99 1081.25,-367.58 1099.3,-360.01"/>
<polygon fill="#63b8ff" stroke="#63b8ff" points="1082.02,-459.88 1092.43,-461.85 1085.52,-453.82 1082.02,-459.88"/>
</a>
</g>
</g>
<!-- Node28&#45;&gt;Node18 -->
<g id="edge49_Node000028_Node000018" class="edge">
<title>Node28&#45;&gt;Node18</title>
<g id="a_edge49_Node000028_Node000018"><a xlink:title=" ">
<path fill="none" stroke="#63b8ff" d="M705.01,-459.25C667.04,-448.91 618.89,-435.8 582.95,-426.01"/>
<polygon fill="#63b8ff" stroke="#63b8ff" points="704.36,-462.7 714.93,-461.95 706.2,-455.95 704.36,-462.7"/>
</a>
</g>
</g>
<!-- Node29&#45;&gt;Node18 -->
<g id="edge51_Node000029_Node000018" class="edge">
<title>Node29&#45;&gt;Node18</title>
<g id="a_edge51_Node000029_Node000018"><a xlink:title=" ">
<path fill="none" stroke="#63b8ff" d="M338.46,-459.52C380.63,-449.14 434.47,-435.88 474.57,-426.01"/>
<polygon fill="#63b8ff" stroke="#63b8ff" points="337.43,-456.17 328.56,-461.95 339.1,-462.96 337.43,-456.17"/>
</a>
</g>
</g>
<!-- Node32&#45;&gt;Node3 -->
<g id="edge55_Node000032_Node000003" class="edge">
<title>Node32&#45;&gt;Node3</title>
<g id="a_edge55_Node000032_Node000003"><a xlink:title=" ">
<path fill="none" stroke="#63b8ff" d="M559.37,-524.32C532.79,-514.14 499.84,-501.51 475.06,-492.01"/>
<polygon fill="#63b8ff" stroke="#63b8ff" points="558.26,-527.64 568.85,-527.95 560.77,-521.11 558.26,-527.64"/>
</a>
</g>
</g>
<!-- Node32&#45;&gt;Node20 -->
<g id="edge56_Node000032_Node000020" class="edge">
<title>Node32&#45;&gt;Node20</title>
<g id="a_edge56_Node000032_Node000020"><a xlink:title=" ">
<path fill="none" stroke="#63b8ff" d="M605.5,-517.54C605.5,-508.96 605.5,-499.61 605.5,-492.16"/>
<polygon fill="#63b8ff" stroke="#63b8ff" points="602,-517.8 605.5,-527.8 609,-517.8 602,-517.8"/>
</a>
</g>
</g>
<!-- Node33&#45;&gt;Node5 -->
<g id="edge58_Node000033_Node000005" class="edge">
<title>Node33&#45;&gt;Node5</title>
<g id="a_edge58_Node000033_Node000005"><a xlink:title=" ">
<path fill="none" stroke="#63b8ff" d="M1283.53,-392.59C1254.76,-382.36 1218.85,-369.59 1191.91,-360.01"/>
<polygon fill="#63b8ff" stroke="#63b8ff" points="1282.4,-395.9 1293,-395.95 1284.75,-389.31 1282.4,-395.9"/>
</a>
</g>
</g>
<!-- Node34&#45;&gt;Node5 -->
<g id="edge60_Node000034_Node000005" class="edge">
<title>Node34&#45;&gt;Node5</title>
<g id="a_edge60_Node000034_Node000005"><a xlink:title=" ">
<path fill="none" stroke="#63b8ff" d="M1411.51,-394.61C1354.32,-383.88 1278.75,-369.69 1224.01,-359.42"/>
<polygon fill="#63b8ff" stroke="#63b8ff" points="1411.13,-398.1 1421.6,-396.51 1412.42,-391.22 1411.13,-398.1"/>
</a>
</g>
</g>
<!-- Node35&#45;&gt;Node5 -->
<g id="edge62_Node000035_Node000005" class="edge">
<title>Node35&#45;&gt;Node5</title>
<g id="a_edge62_Node000035_Node000005"><a xlink:title=" ">
<path fill="none" stroke="#63b8ff" d="M1572.59,-395.76C1444.62,-377.22 1306.31,-361.88 1224.34,-353.29"/>
<polygon fill="#63b8ff" stroke="#63b8ff" points="1572.17,-399.24 1582.57,-397.22 1573.18,-392.31 1572.17,-399.24"/>
</a>
</g>
</g>
<!-- Node36&#45;&gt;Node5 -->
<g id="edge65_Node000036_Node000005" class="edge">
<title>Node36&#45;&gt;Node5</title>
<g id="a_edge65_Node000036_Node000005"><a xlink:title=" ">
<path fill="none" stroke="#63b8ff" d="M1733.46,-395.8C1544.29,-371.58 1332.3,-356.77 1224.07,-350.11"/>
<polygon fill="#63b8ff" stroke="#63b8ff" points="1733.22,-399.3 1743.59,-397.11 1734.12,-392.36 1733.22,-399.3"/>
</a>
</g>
</g>
</g>
</svg>
