<?xml version="1.0" encoding="UTF-8" standalone="no"?>
<!DOCTYPE svg PUBLIC "-//W3C//DTD SVG 1.1//EN"
 "http://www.w3.org/Graphics/SVG/1.1/DTD/svg11.dtd">
<!-- Generated by graphviz version 2.43.0 (0)
 -->
<!-- Title: engine::io::ReadableBase Pages: 1 -->
<svg width="336pt" height="137pt"
 viewBox="0.00 0.00 336.00 137.00" xmlns="http://www.w3.org/2000/svg" xmlns:xlink="http://www.w3.org/1999/xlink">
<g id="graph0" class="graph" transform="scale(1 1) rotate(0) translate(4 133)">
<title>engine::io::ReadableBase</title>
<!-- Node1 -->
<g id="Node000001" class="node">
<title>Node1</title>
<g id="a_Node000001"><a xlink:title=" ">
<polygon fill="#999999" stroke="#666666" points="201,-129 61,-129 61,-110 201,-110 201,-129"/>
<text text-anchor="middle" x="131" y="-117" font-family="Helvetica,sans-Serif" font-size="10.00">engine::io::ReadableBase</text>
</a>
</g>
</g>
<!-- Node2 -->
<g id="Node000002" class="node">
<title>Node2</title>
<g id="a_Node000002"><a xlink:href="../../d5/d43/classengine_1_1io_1_1PipeReader.html" target="_top" xlink:title="Reading end of an unidirectional pipe.">
<polygon fill="white" stroke="#666666" points="126,-74 0,-74 0,-55 126,-55 126,-74"/>
<text text-anchor="middle" x="63" y="-62" font-family="Helvetica,sans-Serif" font-size="10.00">engine::io::PipeReader</text>
</a>
</g>
</g>
<!-- Node1&#45;&gt;Node2 -->
<g id="edge1_Node000001_Node000002" class="edge">
<title>Node1&#45;&gt;Node2</title>
<g id="a_edge1_Node000001_Node000002"><a xlink:title=" ">
<path fill="none" stroke="#63b8ff" d="M111.88,-103.6C99.7,-94.11 84.34,-82.13 74.12,-74.17"/>
<polygon fill="#63b8ff" stroke="#63b8ff" points="110.04,-106.6 120.07,-109.98 114.34,-101.08 110.04,-106.6"/>
</a>
</g>
</g>
<!-- Node3 -->
<g id="Node000003" class="node">
<title>Node3</title>
<g id="a_Node000003"><a xlink:href="../../d3/d1e/classengine_1_1io_1_1RwBase.html" target="_top" xlink:title=" ">
<polygon fill="white" stroke="#666666" points="254,-74 144,-74 144,-55 254,-55 254,-74"/>
<text text-anchor="middle" x="199" y="-62" font-family="Helvetica,sans-Serif" font-size="10.00">engine::io::RwBase</text>
</a>
</g>
</g>
<!-- Node1&#45;&gt;Node3 -->
<g id="edge2_Node000001_Node000003" class="edge">
<title>Node1&#45;&gt;Node3</title>
<g id="a_edge2_Node000001_Node000003"><a xlink:title=" ">
<path fill="none" stroke="#63b8ff" d="M150.12,-103.6C162.3,-94.11 177.66,-82.13 187.88,-74.17"/>
<polygon fill="#63b8ff" stroke="#63b8ff" points="147.66,-101.08 141.93,-109.98 151.96,-106.6 147.66,-101.08"/>
</a>
</g>
</g>
<!-- Node4 -->
<g id="Node000004" class="node">
<title>Node4</title>
<g id="a_Node000004"><a xlink:href="../../dd/dcf/classengine_1_1io_1_1Socket.html" target="_top" xlink:title="Socket representation.">
<polygon fill="white" stroke="#666666" points="183.5,-19 80.5,-19 80.5,0 183.5,0 183.5,-19"/>
<text text-anchor="middle" x="132" y="-7" font-family="Helvetica,sans-Serif" font-size="10.00">engine::io::Socket</text>
</a>
</g>
</g>
<!-- Node3&#45;&gt;Node4 -->
<g id="edge3_Node000003_Node000004" class="edge">
<title>Node3&#45;&gt;Node4</title>
<g id="a_edge3_Node000003_Node000004"><a xlink:title=" ">
<path fill="none" stroke="#63b8ff" d="M180.17,-48.6C168.16,-39.11 153.03,-27.13 142.96,-19.17"/>
<polygon fill="#63b8ff" stroke="#63b8ff" points="178.22,-51.53 188.24,-54.98 182.56,-46.04 178.22,-51.53"/>
</a>
</g>
</g>
<!-- Node5 -->
<g id="Node000005" class="node">
<title>Node5</title>
<g id="a_Node000005"><a xlink:href="../../df/d00/classengine_1_1io_1_1TlsWrapper.html" target="_top" xlink:title=" ">
<polygon fill="white" stroke="#666666" points="328,-19 202,-19 202,0 328,0 328,-19"/>
<text text-anchor="middle" x="265" y="-7" font-family="Helvetica,sans-Serif" font-size="10.00">engine::io::TlsWrapper</text>
</a>
</g>
</g>
<!-- Node3&#45;&gt;Node5 -->
<g id="edge4_Node000003_Node000005" class="edge">
<title>Node3&#45;&gt;Node5</title>
<g id="a_edge4_Node000003_Node000005"><a xlink:title=" ">
<path fill="none" stroke="#63b8ff" d="M217.55,-48.6C229.38,-39.11 244.29,-27.13 254.2,-19.17"/>
<polygon fill="#63b8ff" stroke="#63b8ff" points="215.21,-45.99 209.6,-54.98 219.59,-51.45 215.21,-45.99"/>
</a>
</g>
</g>
</g>
</svg>
