<?xml version="1.0" encoding="UTF-8" standalone="no"?>
<!DOCTYPE svg PUBLIC "-//W3C//DTD SVG 1.1//EN"
 "http://www.w3.org/Graphics/SVG/1.1/DTD/svg11.dtd">
<!-- Generated by graphviz version 2.43.0 (0)
 -->
<!-- Title: decimal64::DivisionByZeroError Pages: 1 -->
<svg width="157pt" height="203pt"
 viewBox="0.00 0.00 157.00 203.00" xmlns="http://www.w3.org/2000/svg" xmlns:xlink="http://www.w3.org/1999/xlink">
<g id="graph0" class="graph" transform="scale(1 1) rotate(0) translate(4 199)">
<title>decimal64::DivisionByZeroError</title>
<!-- Node1 -->
<g id="Node000001" class="node">
<title>Node1</title>
<g id="a_Node000001"><a xlink:title="Thrown on division by zero in Decimal arithmetic.">
<polygon fill="#999999" stroke="#666666" points="149,-30 0,-30 0,0 149,0 149,-30"/>
<text text-anchor="start" x="8" y="-18" font-family="Helvetica,sans-Serif" font-size="10.00">decimal64::DivisionByZero</text>
<text text-anchor="middle" x="74.5" y="-7" font-family="Helvetica,sans-Serif" font-size="10.00">Error</text>
</a>
</g>
</g>
<!-- Node2 -->
<g id="Node000002" class="node">
<title>Node2</title>
<g id="a_Node000002"><a xlink:href="../../d7/dfa/classdecimal64_1_1DecimalError.html" target="_top" xlink:title="The base class for Decimal&#45;related exceptions.">
<polygon fill="white" stroke="#666666" points="143,-85 6,-85 6,-66 143,-66 143,-85"/>
<text text-anchor="middle" x="74.5" y="-73" font-family="Helvetica,sans-Serif" font-size="10.00">decimal64::DecimalError</text>
</a>
</g>
</g>
<!-- Node2&#45;&gt;Node1 -->
<g id="edge1_Node000001_Node000002" class="edge">
<title>Node2&#45;&gt;Node1</title>
<g id="a_edge1_Node000001_Node000002"><a xlink:title=" ">
<path fill="none" stroke="#63b8ff" d="M74.5,-55.65C74.5,-47.36 74.5,-37.78 74.5,-30.11"/>
<polygon fill="#63b8ff" stroke="#63b8ff" points="71,-55.87 74.5,-65.87 78,-55.87 71,-55.87"/>
</a>
</g>
</g>
<!-- Node3 -->
<g id="Node000003" class="node">
<title>Node3</title>
<g id="a_Node000003"><a xlink:title=" ">
<polygon fill="white" stroke="#666666" points="126.5,-140 22.5,-140 22.5,-121 126.5,-121 126.5,-140"/>
<text text-anchor="middle" x="74.5" y="-128" font-family="Helvetica,sans-Serif" font-size="10.00">std::runtime_error</text>
</a>
</g>
</g>
<!-- Node3&#45;&gt;Node2 -->
<g id="edge2_Node000002_Node000003" class="edge">
<title>Node3&#45;&gt;Node2</title>
<g id="a_edge2_Node000002_Node000003"><a xlink:title=" ">
<path fill="none" stroke="#63b8ff" d="M74.5,-110.66C74.5,-101.93 74.5,-91.99 74.5,-85.09"/>
<polygon fill="#63b8ff" stroke="#63b8ff" points="71,-110.75 74.5,-120.75 78,-110.75 71,-110.75"/>
</a>
</g>
</g>
<!-- Node4 -->
<g id="Node000004" class="node">
<title>Node4</title>
<g id="a_Node000004"><a xlink:title=" ">
<polygon fill="white" stroke="#666666" points="117.5,-195 31.5,-195 31.5,-176 117.5,-176 117.5,-195"/>
<text text-anchor="middle" x="74.5" y="-183" font-family="Helvetica,sans-Serif" font-size="10.00">std::exception</text>
</a>
</g>
</g>
<!-- Node4&#45;&gt;Node3 -->
<g id="edge3_Node000003_Node000004" class="edge">
<title>Node4&#45;&gt;Node3</title>
<g id="a_edge3_Node000003_Node000004"><a xlink:title=" ">
<path fill="none" stroke="#63b8ff" d="M74.5,-165.66C74.5,-156.93 74.5,-146.99 74.5,-140.09"/>
<polygon fill="#63b8ff" stroke="#63b8ff" points="71,-165.75 74.5,-175.75 78,-165.75 71,-165.75"/>
</a>
</g>
</g>
</g>
</svg>
