<?xml version="1.0" encoding="UTF-8" standalone="no"?>
<!DOCTYPE svg PUBLIC "-//W3C//DTD SVG 1.1//EN"
 "http://www.w3.org/Graphics/SVG/1.1/DTD/svg11.dtd">
<!-- Generated by graphviz version 2.43.0 (0)
 -->
<!-- Title: engine::io::Pipe Pages: 1 -->
<svg width="302pt" height="149pt"
 viewBox="0.00 0.00 302.00 149.00" xmlns="http://www.w3.org/2000/svg" xmlns:xlink="http://www.w3.org/1999/xlink">
<g id="graph0" class="graph" transform="scale(1 1) rotate(0) translate(4 145)">
<title>engine::io::Pipe</title>
<!-- Node1 -->
<g id="Node000001" class="node">
<title>Node1</title>
<g id="a_Node000001"><a xlink:title="Unidirectional pipe representation.">
<polygon fill="#999999" stroke="#666666" points="191,-19 99,-19 99,0 191,0 191,-19"/>
<text text-anchor="middle" x="145" y="-7" font-family="Helvetica,sans-Serif" font-size="10.00">engine::io::Pipe</text>
</a>
</g>
</g>
<!-- Node2 -->
<g id="Node000002" class="node">
<title>Node2</title>
<g id="a_Node000002"><a xlink:href="../../d5/d43/classengine_1_1io_1_1PipeReader.html" target="_top" xlink:title="Reading end of an unidirectional pipe.">
<polygon fill="white" stroke="#666666" points="137,-85 11,-85 11,-66 137,-66 137,-85"/>
<text text-anchor="middle" x="74" y="-73" font-family="Helvetica,sans-Serif" font-size="10.00">engine::io::PipeReader</text>
</a>
</g>
</g>
<!-- Node2&#45;&gt;Node1 -->
<g id="edge1_Node000001_Node000002" class="edge">
<title>Node2&#45;&gt;Node1</title>
<g id="a_edge1_Node000001_Node000002"><a xlink:title=" ">
<path fill="none" stroke="#9a32cd" stroke-dasharray="5,2" d="M91.38,-58.83C105.13,-46.44 123.83,-29.59 135.12,-19.41"/>
<polygon fill="#9a32cd" stroke="#9a32cd" points="88.66,-56.57 83.58,-65.87 93.35,-61.77 88.66,-56.57"/>
</a>
</g>
<text text-anchor="middle" x="131.5" y="-40" font-family="Helvetica,sans-Serif" font-size="10.00" fill="grey"> reader</text>
</g>
<!-- Node3 -->
<g id="Node000003" class="node">
<title>Node3</title>
<g id="a_Node000003"><a xlink:href="../../da/d1b/classengine_1_1io_1_1ReadableBase.html" target="_top" xlink:title=" ">
<polygon fill="white" stroke="#666666" points="140,-141 0,-141 0,-122 140,-122 140,-141"/>
<text text-anchor="middle" x="70" y="-129" font-family="Helvetica,sans-Serif" font-size="10.00">engine::io::ReadableBase</text>
</a>
</g>
</g>
<!-- Node3&#45;&gt;Node2 -->
<g id="edge2_Node000002_Node000003" class="edge">
<title>Node3&#45;&gt;Node2</title>
<g id="a_edge2_Node000002_Node000003"><a xlink:title=" ">
<path fill="none" stroke="#63b8ff" d="M71.4,-111.6C72.06,-102.64 72.83,-92.36 73.35,-85.25"/>
<polygon fill="#63b8ff" stroke="#63b8ff" points="67.91,-111.35 70.66,-121.58 74.89,-111.87 67.91,-111.35"/>
</a>
</g>
</g>
<!-- Node4 -->
<g id="Node000004" class="node">
<title>Node4</title>
<g id="a_Node000004"><a xlink:href="../../dd/d7b/classengine_1_1io_1_1PipeWriter.html" target="_top" xlink:title="Writing end of an unidirectional pipe.">
<polygon fill="white" stroke="#666666" points="284,-85 162,-85 162,-66 284,-66 284,-85"/>
<text text-anchor="middle" x="223" y="-73" font-family="Helvetica,sans-Serif" font-size="10.00">engine::io::PipeWriter</text>
</a>
</g>
</g>
<!-- Node4&#45;&gt;Node1 -->
<g id="edge3_Node000001_Node000004" class="edge">
<title>Node4&#45;&gt;Node1</title>
<g id="a_edge3_Node000001_Node000004"><a xlink:title=" ">
<path fill="none" stroke="#9a32cd" stroke-dasharray="5,2" d="M204.7,-59.49C189.43,-46.96 168.2,-29.54 155.6,-19.2"/>
<polygon fill="#9a32cd" stroke="#9a32cd" points="202.53,-62.23 212.48,-65.87 206.97,-56.82 202.53,-62.23"/>
</a>
</g>
<text text-anchor="middle" x="205" y="-40" font-family="Helvetica,sans-Serif" font-size="10.00" fill="grey"> writer</text>
</g>
<!-- Node5 -->
<g id="Node000005" class="node">
<title>Node5</title>
<g id="a_Node000005"><a xlink:href="../../d7/d42/classengine_1_1io_1_1WritableBase.html" target="_top" xlink:title=" ">
<polygon fill="white" stroke="#666666" points="294,-141 158,-141 158,-122 294,-122 294,-141"/>
<text text-anchor="middle" x="226" y="-129" font-family="Helvetica,sans-Serif" font-size="10.00">engine::io::WritableBase</text>
</a>
</g>
</g>
<!-- Node5&#45;&gt;Node4 -->
<g id="edge4_Node000004_Node000005" class="edge">
<title>Node5&#45;&gt;Node4</title>
<g id="a_edge4_Node000004_Node000005"><a xlink:title=" ">
<path fill="none" stroke="#63b8ff" d="M224.93,-111.3C224.44,-102.41 223.88,-92.28 223.49,-85.25"/>
<polygon fill="#63b8ff" stroke="#63b8ff" points="221.46,-111.79 225.5,-121.58 228.44,-111.4 221.46,-111.79"/>
</a>
</g>
</g>
</g>
</svg>
