<?xml version="1.0" encoding="UTF-8" standalone="no"?>
<!DOCTYPE svg PUBLIC "-//W3C//DTD SVG 1.1//EN"
 "http://www.w3.org/Graphics/SVG/1.1/DTD/svg11.dtd">
<!-- Generated by graphviz version 2.43.0 (0)
 -->
<!-- Title: userver/engine/task/cancel.hpp Pages: 1 -->
<svg width="490pt" height="214pt"
 viewBox="0.00 0.00 489.50 214.00" xmlns="http://www.w3.org/2000/svg" xmlns:xlink="http://www.w3.org/1999/xlink">
<g id="graph0" class="graph" transform="scale(1 1) rotate(0) translate(4 210)">
<title>userver/engine/task/cancel.hpp</title>
<!-- Node1 -->
<g id="Node000001" class="node">
<title>Node1</title>
<g id="a_Node000001"><a xlink:title="Task cancellation helpers.">
<polygon fill="#999999" stroke="#666666" points="188.5,-206 75.5,-206 75.5,-176 188.5,-176 188.5,-206"/>
<text text-anchor="start" x="83.5" y="-194" font-family="Helvetica,sans-Serif" font-size="10.00">userver/engine/task</text>
<text text-anchor="middle" x="132" y="-183" font-family="Helvetica,sans-Serif" font-size="10.00">/cancel.hpp</text>
</a>
</g>
</g>
<!-- Node2 -->
<g id="Node000002" class="node">
<title>Node2</title>
<g id="a_Node000002"><a xlink:title=" ">
<polygon fill="#e0e0e0" stroke="#999999" points="44,-134.5 0,-134.5 0,-115.5 44,-115.5 44,-134.5"/>
<text text-anchor="middle" x="22" y="-122.5" font-family="Helvetica,sans-Serif" font-size="10.00">string</text>
</a>
</g>
</g>
<!-- Node1&#45;&gt;Node2 -->
<g id="edge1_Node000001_Node000002" class="edge">
<title>Node1&#45;&gt;Node2</title>
<g id="a_edge1_Node000001_Node000002"><a xlink:title=" ">
<path fill="none" stroke="#63b8ff" d="M107.86,-175.95C89.33,-165.18 63.9,-150.38 45.53,-139.69"/>
<polygon fill="#63b8ff" stroke="#63b8ff" points="47.04,-136.52 36.64,-134.52 43.52,-142.57 47.04,-136.52"/>
</a>
</g>
</g>
<!-- Node3 -->
<g id="Node000003" class="node">
<title>Node3</title>
<g id="a_Node000003"><a xlink:title=" ">
<polygon fill="#e0e0e0" stroke="#999999" points="202,-140 62,-140 62,-110 202,-110 202,-140"/>
<text text-anchor="start" x="70" y="-128" font-family="Helvetica,sans-Serif" font-size="10.00">boost/smart_ptr/intrusive</text>
<text text-anchor="middle" x="132" y="-117" font-family="Helvetica,sans-Serif" font-size="10.00">_ptr.hpp</text>
</a>
</g>
</g>
<!-- Node1&#45;&gt;Node3 -->
<g id="edge2_Node000001_Node000003" class="edge">
<title>Node1&#45;&gt;Node3</title>
<g id="a_edge2_Node000001_Node000003"><a xlink:title=" ">
<path fill="none" stroke="#63b8ff" d="M132,-175.8C132,-168.34 132,-158.99 132,-150.41"/>
<polygon fill="#63b8ff" stroke="#63b8ff" points="135.5,-150.16 132,-140.16 128.5,-150.16 135.5,-150.16"/>
</a>
</g>
</g>
<!-- Node4 -->
<g id="Node000004" class="node">
<title>Node4</title>
<g id="a_Node000004"><a xlink:href="../../d2/d22/deadline_8hpp.html" target="_top" xlink:title="Internal representation of a deadline time point.">
<polygon fill="white" stroke="#666666" points="375.5,-134.5 220.5,-134.5 220.5,-115.5 375.5,-115.5 375.5,-134.5"/>
<text text-anchor="middle" x="298" y="-122.5" font-family="Helvetica,sans-Serif" font-size="10.00">userver/engine/deadline.hpp</text>
</a>
</g>
</g>
<!-- Node1&#45;&gt;Node4 -->
<g id="edge3_Node000001_Node000004" class="edge">
<title>Node1&#45;&gt;Node4</title>
<g id="a_edge3_Node000001_Node000004"><a xlink:title=" ">
<path fill="none" stroke="#63b8ff" d="M168.43,-175.95C197.67,-164.68 238.31,-149.01 266.24,-138.25"/>
<polygon fill="#63b8ff" stroke="#63b8ff" points="267.84,-141.38 275.91,-134.52 265.32,-134.85 267.84,-141.38"/>
</a>
</g>
</g>
<!-- Node5 -->
<g id="Node000005" class="node">
<title>Node5</title>
<g id="a_Node000005"><a xlink:title=" ">
<polygon fill="#e0e0e0" stroke="#999999" points="245,-74 195,-74 195,-55 245,-55 245,-74"/>
<text text-anchor="middle" x="220" y="-62" font-family="Helvetica,sans-Serif" font-size="10.00">chrono</text>
</a>
</g>
</g>
<!-- Node4&#45;&gt;Node5 -->
<g id="edge4_Node000004_Node000005" class="edge">
<title>Node4&#45;&gt;Node5</title>
<g id="a_edge4_Node000004_Node000005"><a xlink:title=" ">
<path fill="none" stroke="#63b8ff" d="M286.49,-115.37C274.16,-106.12 254.38,-91.28 239.59,-80.19"/>
<polygon fill="#63b8ff" stroke="#63b8ff" points="241.66,-77.37 231.56,-74.17 237.46,-82.97 241.66,-77.37"/>
</a>
</g>
</g>
<!-- Node6 -->
<g id="Node000006" class="node">
<title>Node6</title>
<g id="a_Node000006"><a xlink:title=" ">
<polygon fill="#e0e0e0" stroke="#999999" points="332.5,-74 263.5,-74 263.5,-55 332.5,-55 332.5,-74"/>
<text text-anchor="middle" x="298" y="-62" font-family="Helvetica,sans-Serif" font-size="10.00">type_traits</text>
</a>
</g>
</g>
<!-- Node4&#45;&gt;Node6 -->
<g id="edge5_Node000004_Node000006" class="edge">
<title>Node4&#45;&gt;Node6</title>
<g id="a_edge5_Node000004_Node000006"><a xlink:title=" ">
<path fill="none" stroke="#63b8ff" d="M298,-115.37C298,-107.25 298,-94.81 298,-84.39"/>
<polygon fill="#63b8ff" stroke="#63b8ff" points="301.5,-84.17 298,-74.17 294.5,-84.17 301.5,-84.17"/>
</a>
</g>
</g>
<!-- Node7 -->
<g id="Node000007" class="node">
<title>Node7</title>
<g id="a_Node000007"><a xlink:href="../../d2/d54/assert_8hpp.html" target="_top" xlink:title="Assertion macros UASSERT, UASSERT_MSG, UINVARIANT.">
<polygon fill="white" stroke="#666666" points="481.5,-74 350.5,-74 350.5,-55 481.5,-55 481.5,-74"/>
<text text-anchor="middle" x="416" y="-62" font-family="Helvetica,sans-Serif" font-size="10.00">userver/utils/assert.hpp</text>
</a>
</g>
</g>
<!-- Node4&#45;&gt;Node7 -->
<g id="edge6_Node000004_Node000007" class="edge">
<title>Node4&#45;&gt;Node7</title>
<g id="a_edge6_Node000004_Node000007"><a xlink:title=" ">
<path fill="none" stroke="#63b8ff" d="M315.16,-115.49C334.73,-105.79 366.97,-89.81 389.72,-78.53"/>
<polygon fill="#63b8ff" stroke="#63b8ff" points="391.42,-81.59 398.82,-74.02 388.31,-75.32 391.42,-81.59"/>
</a>
</g>
</g>
<!-- Node8 -->
<g id="Node000008" class="node">
<title>Node8</title>
<g id="a_Node000008"><a xlink:title=" ">
<polygon fill="#e0e0e0" stroke="#999999" points="452.5,-19 379.5,-19 379.5,0 452.5,0 452.5,-19"/>
<text text-anchor="middle" x="416" y="-7" font-family="Helvetica,sans-Serif" font-size="10.00">string_view</text>
</a>
</g>
</g>
<!-- Node7&#45;&gt;Node8 -->
<g id="edge7_Node000007_Node000008" class="edge">
<title>Node7&#45;&gt;Node8</title>
<g id="a_edge7_Node000007_Node000008"><a xlink:title=" ">
<path fill="none" stroke="#63b8ff" d="M416,-54.75C416,-47.8 416,-37.85 416,-29.13"/>
<polygon fill="#63b8ff" stroke="#63b8ff" points="419.5,-29.09 416,-19.09 412.5,-29.09 419.5,-29.09"/>
</a>
</g>
</g>
</g>
</svg>
