<?xml version="1.0" encoding="UTF-8" standalone="no"?>
<!DOCTYPE svg PUBLIC "-//W3C//DTD SVG 1.1//EN"
 "http://www.w3.org/Graphics/SVG/1.1/DTD/svg11.dtd">
<!-- Generated by graphviz version 2.43.0 (0)
 -->
<!-- Title: userver/crypto/basic_types.hpp Pages: 1 -->
<svg width="708pt" height="280pt"
 viewBox="0.00 0.00 707.60 280.00" xmlns="http://www.w3.org/2000/svg" xmlns:xlink="http://www.w3.org/1999/xlink">
<g id="graph0" class="graph" transform="scale(1 1) rotate(0) translate(4 276)">
<title>userver/crypto/basic_types.hpp</title>
<!-- Node1 -->
<g id="Node000001" class="node">
<title>Node1</title>
<g id="a_Node000001"><a xlink:title="Common types for crypto module.">
<polygon fill="#999999" stroke="#666666" points="263,-272 147,-272 147,-242 263,-242 263,-272"/>
<text text-anchor="start" x="155" y="-260" font-family="Helvetica,sans-Serif" font-size="10.00">userver/crypto/basic</text>
<text text-anchor="middle" x="205" y="-249" font-family="Helvetica,sans-Serif" font-size="10.00">_types.hpp</text>
</a>
</g>
</g>
<!-- Node2 -->
<g id="Node000002" class="node">
<title>Node2</title>
<g id="a_Node000002"><a xlink:title=" ">
<polygon fill="#e0e0e0" stroke="#999999" points="44,-79.5 0,-79.5 0,-60.5 44,-60.5 44,-79.5"/>
<text text-anchor="middle" x="22" y="-67.5" font-family="Helvetica,sans-Serif" font-size="10.00">string</text>
</a>
</g>
</g>
<!-- Node1&#45;&gt;Node2 -->
<g id="edge1_Node000001_Node000002" class="edge">
<title>Node1&#45;&gt;Node2</title>
<g id="a_edge1_Node000001_Node000002"><a xlink:title=" ">
<path fill="none" stroke="#63b8ff" d="M190.94,-241.79C157.33,-207.81 72.5,-122.05 37.48,-86.65"/>
<polygon fill="#63b8ff" stroke="#63b8ff" points="39.96,-84.18 30.44,-79.53 34.98,-89.1 39.96,-84.18"/>
</a>
</g>
</g>
<!-- Node3 -->
<g id="Node000003" class="node">
<title>Node3</title>
<g id="a_Node000003"><a xlink:href="../../df/db8/universal_2include_2userver_2crypto_2exception_8hpp.html" target="_top" xlink:title="Exception classes for crypto module.">
<polygon fill="white" stroke="#666666" points="414.5,-206 255.5,-206 255.5,-187 414.5,-187 414.5,-206"/>
<text text-anchor="middle" x="335" y="-194" font-family="Helvetica,sans-Serif" font-size="10.00">userver/crypto/exception.hpp</text>
</a>
</g>
</g>
<!-- Node1&#45;&gt;Node3 -->
<g id="edge2_Node000001_Node000003" class="edge">
<title>Node1&#45;&gt;Node3</title>
<g id="a_edge2_Node000001_Node000003"><a xlink:title=" ">
<path fill="none" stroke="#63b8ff" d="M236.14,-241.99C257.54,-232.36 285.73,-219.67 306.53,-210.31"/>
<polygon fill="#63b8ff" stroke="#63b8ff" points="308.12,-213.43 315.8,-206.14 305.25,-207.05 308.12,-213.43"/>
</a>
</g>
</g>
<!-- Node4 -->
<g id="Node000004" class="node">
<title>Node4</title>
<g id="a_Node000004"><a xlink:title=" ">
<polygon fill="#e0e0e0" stroke="#999999" points="470,-145.5 412,-145.5 412,-126.5 470,-126.5 470,-145.5"/>
<text text-anchor="middle" x="441" y="-133.5" font-family="Helvetica,sans-Serif" font-size="10.00">memory</text>
</a>
</g>
</g>
<!-- Node3&#45;&gt;Node4 -->
<g id="edge3_Node000003_Node000004" class="edge">
<title>Node3&#45;&gt;Node4</title>
<g id="a_edge3_Node000003_Node000004"><a xlink:title=" ">
<path fill="none" stroke="#63b8ff" d="M350.64,-186.87C367.94,-177.32 396.05,-161.81 416.33,-150.62"/>
<polygon fill="#63b8ff" stroke="#63b8ff" points="418.23,-153.56 425.3,-145.67 414.85,-147.43 418.23,-153.56"/>
</a>
</g>
</g>
<!-- Node5 -->
<g id="Node000005" class="node">
<title>Node5</title>
<g id="a_Node000005"><a xlink:href="../../da/de0/traceful__exception_8hpp.html" target="_top" xlink:title="Exception that remembers the backtrace at the point of its construction.">
<polygon fill="white" stroke="#666666" points="394,-151 276,-151 276,-121 394,-121 394,-151"/>
<text text-anchor="start" x="284" y="-139" font-family="Helvetica,sans-Serif" font-size="10.00">userver/utils/traceful</text>
<text text-anchor="middle" x="335" y="-128" font-family="Helvetica,sans-Serif" font-size="10.00">_exception.hpp</text>
</a>
</g>
</g>
<!-- Node3&#45;&gt;Node5 -->
<g id="edge4_Node000003_Node000005" class="edge">
<title>Node3&#45;&gt;Node5</title>
<g id="a_edge4_Node000003_Node000005"><a xlink:title=" ">
<path fill="none" stroke="#63b8ff" d="M335,-186.87C335,-180.11 335,-170.35 335,-161.26"/>
<polygon fill="#63b8ff" stroke="#63b8ff" points="338.5,-161.11 335,-151.11 331.5,-161.11 338.5,-161.11"/>
</a>
</g>
</g>
<!-- Node5&#45;&gt;Node2 -->
<g id="edge6_Node000005_Node000002" class="edge">
<title>Node5&#45;&gt;Node2</title>
<g id="a_edge6_Node000005_Node000002"><a xlink:title=" ">
<path fill="none" stroke="#63b8ff" d="M275.93,-128.86C218.17,-121.85 128.17,-108.24 53,-85 51.55,-84.55 50.09,-84.06 48.62,-83.52"/>
<polygon fill="#63b8ff" stroke="#63b8ff" points="49.67,-80.17 39.08,-79.63 47.02,-86.65 49.67,-80.17"/>
</a>
</g>
</g>
<!-- Node6 -->
<g id="Node000006" class="node">
<title>Node6</title>
<g id="a_Node000006"><a xlink:title=" ">
<polygon fill="#e0e0e0" stroke="#999999" points="682.5,-79.5 617.5,-79.5 617.5,-60.5 682.5,-60.5 682.5,-79.5"/>
<text text-anchor="middle" x="650" y="-67.5" font-family="Helvetica,sans-Serif" font-size="10.00">exception</text>
</a>
</g>
</g>
<!-- Node5&#45;&gt;Node6 -->
<g id="edge5_Node000005_Node000006" class="edge">
<title>Node5&#45;&gt;Node6</title>
<g id="a_edge5_Node000005_Node000006"><a xlink:title=" ">
<path fill="none" stroke="#63b8ff" d="M394.32,-122.68C397.25,-122.11 400.16,-121.54 403,-121 493.87,-103.67 518.32,-107.69 608,-85 610.79,-84.29 613.67,-83.49 616.55,-82.64"/>
<polygon fill="#63b8ff" stroke="#63b8ff" points="617.7,-85.95 626.19,-79.61 615.6,-79.27 617.7,-85.95"/>
</a>
</g>
</g>
<!-- Node7 -->
<g id="Node000007" class="node">
<title>Node7</title>
<g id="a_Node000007"><a xlink:title=" ">
<polygon fill="#e0e0e0" stroke="#999999" points="595.5,-19 526.5,-19 526.5,0 595.5,0 595.5,-19"/>
<text text-anchor="middle" x="561" y="-7" font-family="Helvetica,sans-Serif" font-size="10.00">type_traits</text>
</a>
</g>
</g>
<!-- Node5&#45;&gt;Node7 -->
<g id="edge7_Node000005_Node000007" class="edge">
<title>Node5&#45;&gt;Node7</title>
<g id="a_edge7_Node000005_Node000007"><a xlink:title=" ">
<path fill="none" stroke="#63b8ff" d="M394.29,-122.51C397.23,-121.98 400.15,-121.47 403,-121 466.86,-110.47 649.16,-133.51 692,-85 721.35,-51.77 654.45,-29.89 605.86,-18.89"/>
<polygon fill="#63b8ff" stroke="#63b8ff" points="606.33,-15.41 595.81,-16.71 604.84,-22.25 606.33,-15.41"/>
</a>
</g>
</g>
<!-- Node8 -->
<g id="Node000008" class="node">
<title>Node8</title>
<g id="a_Node000008"><a xlink:title=" ">
<polygon fill="#e0e0e0" stroke="#999999" points="428.5,-79.5 349.5,-79.5 349.5,-60.5 428.5,-60.5 428.5,-79.5"/>
<text text-anchor="middle" x="389" y="-67.5" font-family="Helvetica,sans-Serif" font-size="10.00">fmt/format.h</text>
</a>
</g>
</g>
<!-- Node5&#45;&gt;Node8 -->
<g id="edge8_Node000005_Node000008" class="edge">
<title>Node5&#45;&gt;Node8</title>
<g id="a_edge8_Node000005_Node000008"><a xlink:title=" ">
<path fill="none" stroke="#63b8ff" d="M346.98,-120.8C355.24,-111.01 366.24,-97.98 374.91,-87.7"/>
<polygon fill="#63b8ff" stroke="#63b8ff" points="377.76,-89.74 381.54,-79.84 372.41,-85.23 377.76,-89.74"/>
</a>
</g>
</g>
<!-- Node9 -->
<g id="Node000009" class="node">
<title>Node9</title>
<g id="a_Node000009"><a xlink:title=" ">
<polygon fill="#e0e0e0" stroke="#999999" points="599,-85 447,-85 447,-55 599,-55 599,-85"/>
<text text-anchor="start" x="455" y="-73" font-family="Helvetica,sans-Serif" font-size="10.00">boost/stacktrace/stacktrace</text>
<text text-anchor="middle" x="523" y="-62" font-family="Helvetica,sans-Serif" font-size="10.00">_fwd.hpp</text>
</a>
</g>
</g>
<!-- Node5&#45;&gt;Node9 -->
<g id="edge9_Node000005_Node000009" class="edge">
<title>Node5&#45;&gt;Node9</title>
<g id="a_edge9_Node000005_Node000009"><a xlink:title=" ">
<path fill="none" stroke="#63b8ff" d="M376.26,-120.95C404.54,-111.33 442.25,-98.49 472.35,-88.24"/>
<polygon fill="#63b8ff" stroke="#63b8ff" points="473.5,-91.55 481.84,-85.01 471.24,-84.92 473.5,-91.55"/>
</a>
</g>
</g>
<!-- Node10 -->
<g id="Node000010" class="node">
<title>Node10</title>
<g id="a_Node000010"><a xlink:href="../../d2/d84/select_8hpp.html" target="_top" xlink:title="Utilities for selection of platform specific values.">
<polygon fill="white" stroke="#666666" points="214,-79.5 62,-79.5 62,-60.5 214,-60.5 214,-79.5"/>
<text text-anchor="middle" x="138" y="-67.5" font-family="Helvetica,sans-Serif" font-size="10.00">userver/compiler/select.hpp</text>
</a>
</g>
</g>
<!-- Node5&#45;&gt;Node10 -->
<g id="edge10_Node000005_Node000010" class="edge">
<title>Node5&#45;&gt;Node10</title>
<g id="a_edge10_Node000005_Node000010"><a xlink:title=" ">
<path fill="none" stroke="#63b8ff" d="M291.77,-120.95C256.46,-109.48 207.14,-93.46 173.96,-82.68"/>
<polygon fill="#63b8ff" stroke="#63b8ff" points="174.81,-79.28 164.22,-79.52 172.65,-85.94 174.81,-79.28"/>
</a>
</g>
</g>
<!-- Node12 -->
<g id="Node000012" class="node">
<title>Node12</title>
<g id="a_Node000012"><a xlink:href="../../d5/d02/fast__pimpl_8hpp.html" target="_top" xlink:title="Implements pimpl idiom without dynamic memory allocation.">
<polygon fill="white" stroke="#666666" points="331.5,-85 232.5,-85 232.5,-55 331.5,-55 331.5,-85"/>
<text text-anchor="start" x="240.5" y="-73" font-family="Helvetica,sans-Serif" font-size="10.00">userver/utils/fast</text>
<text text-anchor="middle" x="282" y="-62" font-family="Helvetica,sans-Serif" font-size="10.00">_pimpl.hpp</text>
</a>
</g>
</g>
<!-- Node5&#45;&gt;Node12 -->
<g id="edge12_Node000005_Node000012" class="edge">
<title>Node5&#45;&gt;Node12</title>
<g id="a_edge12_Node000005_Node000012"><a xlink:title=" ">
<path fill="none" stroke="#63b8ff" d="M323.24,-120.8C316.44,-112.59 307.76,-102.1 300.11,-92.87"/>
<polygon fill="#63b8ff" stroke="#63b8ff" points="302.8,-90.63 293.73,-85.16 297.41,-95.1 302.8,-90.63"/>
</a>
</g>
</g>
<!-- Node11 -->
<g id="Node000011" class="node">
<title>Node11</title>
<g id="a_Node000011"><a xlink:title=" ">
<polygon fill="#e0e0e0" stroke="#999999" points="202.5,-19 149.5,-19 149.5,0 202.5,0 202.5,-19"/>
<text text-anchor="middle" x="176" y="-7" font-family="Helvetica,sans-Serif" font-size="10.00">cstddef</text>
</a>
</g>
</g>
<!-- Node10&#45;&gt;Node11 -->
<g id="edge11_Node000010_Node000011" class="edge">
<title>Node10&#45;&gt;Node11</title>
<g id="a_edge11_Node000010_Node000011"><a xlink:title=" ">
<path fill="none" stroke="#63b8ff" d="M143.61,-60.37C149.16,-51.81 157.83,-38.47 164.8,-27.74"/>
<polygon fill="#63b8ff" stroke="#63b8ff" points="167.86,-29.46 170.37,-19.17 161.99,-25.65 167.86,-29.46"/>
</a>
</g>
</g>
<!-- Node12&#45;&gt;Node7 -->
<g id="edge15_Node000012_Node000007" class="edge">
<title>Node12&#45;&gt;Node7</title>
<g id="a_edge15_Node000012_Node000007"><a xlink:title=" ">
<path fill="none" stroke="#63b8ff" d="M331.55,-57.12C334.74,-56.39 337.92,-55.68 341,-55 401.56,-41.69 471.82,-27.74 516.33,-19.08"/>
<polygon fill="#63b8ff" stroke="#63b8ff" points="517.1,-22.5 526.25,-17.16 515.77,-15.63 517.1,-22.5"/>
</a>
</g>
</g>
<!-- Node12&#45;&gt;Node11 -->
<g id="edge13_Node000012_Node000011" class="edge">
<title>Node12&#45;&gt;Node11</title>
<g id="a_edge13_Node000012_Node000011"><a xlink:title=" ">
<path fill="none" stroke="#63b8ff" d="M256.61,-54.99C239.71,-45.66 217.62,-33.47 200.84,-24.21"/>
<polygon fill="#63b8ff" stroke="#63b8ff" points="202.1,-20.91 191.65,-19.14 198.72,-27.04 202.1,-20.91"/>
</a>
</g>
</g>
<!-- Node13 -->
<g id="Node000013" class="node">
<title>Node13</title>
<g id="a_Node000013"><a xlink:title=" ">
<polygon fill="#e0e0e0" stroke="#999999" points="329.5,-19 292.5,-19 292.5,0 329.5,0 329.5,-19"/>
<text text-anchor="middle" x="311" y="-7" font-family="Helvetica,sans-Serif" font-size="10.00">new</text>
</a>
</g>
</g>
<!-- Node12&#45;&gt;Node13 -->
<g id="edge14_Node000012_Node000013" class="edge">
<title>Node12&#45;&gt;Node13</title>
<g id="a_edge14_Node000012_Node000013"><a xlink:title=" ">
<path fill="none" stroke="#63b8ff" d="M289.02,-54.84C292.97,-46.87 297.94,-36.84 302.16,-28.33"/>
<polygon fill="#63b8ff" stroke="#63b8ff" points="305.35,-29.78 306.65,-19.27 299.08,-26.67 305.35,-29.78"/>
</a>
</g>
</g>
<!-- Node14 -->
<g id="Node000014" class="node">
<title>Node14</title>
<g id="a_Node000014"><a xlink:title=" ">
<polygon fill="#e0e0e0" stroke="#999999" points="274.5,-19 229.5,-19 229.5,0 274.5,0 274.5,-19"/>
<text text-anchor="middle" x="252" y="-7" font-family="Helvetica,sans-Serif" font-size="10.00">utility</text>
</a>
</g>
</g>
<!-- Node12&#45;&gt;Node14 -->
<g id="edge16_Node000012_Node000014" class="edge">
<title>Node12&#45;&gt;Node14</title>
<g id="a_edge16_Node000012_Node000014"><a xlink:title=" ">
<path fill="none" stroke="#63b8ff" d="M274.74,-54.84C270.65,-46.87 265.51,-36.84 261.14,-28.33"/>
<polygon fill="#63b8ff" stroke="#63b8ff" points="264.17,-26.57 256.5,-19.27 257.94,-29.76 264.17,-26.57"/>
</a>
</g>
</g>
</g>
</svg>
